  0
SECTION
  2
HEADER
  9
$ACADVER
  1
AC1024
  9
$ACADMAINTVER
 70
6
  9
$DWGCODEPAGE
  3
ANSI_1252
  9
$LASTSAVEDBY
  1
ezdxf
  9
$INSBASE
 10
0.0
 20
0.0
 30
0.0
  9
$EXTMIN
 10
1e+20
 20
1e+20
 30
1e+20
  9
$EXTMAX
 10
-1e+20
 20
-1e+20
 30
-1e+20
  9
$LIMMIN
 10
0.0
 20
0.0
  9
$LIMMAX
 10
420.0
 20
297.0
  9
$ORTHOMODE
 70
0
  9
$REGENMODE
 70
1
  9
$FILLMODE
 70
1
  9
$QTEXTMODE
 70
0
  9
$MIRRTEXT
 70
1
  9
$LTSCALE
 40
1.0
  9
$ATTMODE
 70
1
  9
$TEXTSIZE
 40
2.5
  9
$TRACEWID
 40
1.0
  9
$TEXTSTYLE
  7
Standard
  9
$CLAYER
  8
0
  9
$CELTYPE
  6
ByLayer
  9
$CECOLOR
 62
256
  9
$CELTSCALE
 40
1.0
  9
$DISPSILH
 70
0
  9
$DIMSCALE
 40
1.0
  9
$DIMASZ
 40
2.5
  9
$DIMEXO
 40
0.625
  9
$DIMDLI
 40
3.75
  9
$DIMRND
 40
0.0
  9
$DIMDLE
 40
0.0
  9
$DIMEXE
 40
1.25
  9
$DIMTP
 40
0.0
  9
$DIMTM
 40
0.0
  9
$DIMTXT
 40
2.5
  9
$DIMCEN
 40
2.5
  9
$DIMTSZ
 40
0.0
  9
$DIMTOL
 70
0
  9
$DIMLIM
 70
0
  9
$DIMTIH
 70
0
  9
$DIMTOH
 70
0
  9
$DIMSE1
 70
0
  9
$DIMSE2
 70
0
  9
$DIMTAD
 70
1
  9
$DIMZIN
 70
8
  9
$DIMBLK
  1

  9
$DIMASO
 70
1
  9
$DIMSHO
 70
1
  9
$DIMPOST
  1

  9
$DIMAPOST
  1

  9
$DIMALT
 70
0
  9
$DIMALTD
 70
3
  9
$DIMALTF
 40
0.03937007874
  9
$DIMLFAC
 40
1.0
  9
$DIMTOFL
 70
1
  9
$DIMTVP
 40
0.0
  9
$DIMTIX
 70
0
  9
$DIMSOXD
 70
0
  9
$DIMSAH
 70
0
  9
$DIMBLK1
  1

  9
$DIMBLK2
  1

  9
$DIMSTYLE
  2
ISO-25
  9
$DIMCLRD
 70
0
  9
$DIMCLRE
 70
0
  9
$DIMCLRT
 70
0
  9
$DIMTFAC
 40
1.0
  9
$DIMGAP
 40
0.625
  9
$DIMJUST
 70
0
  9
$DIMSD1
 70
0
  9
$DIMSD2
 70
0
  9
$DIMTOLJ
 70
0
  9
$DIMTZIN
 70
8
  9
$DIMALTZ
 70
0
  9
$DIMALTTZ
 70
0
  9
$DIMUPT
 70
0
  9
$DIMDEC
 70
2
  9
$DIMTDEC
 70
2
  9
$DIMALTU
 70
2
  9
$DIMALTTD
 70
3
  9
$DIMTXSTY
  7
Standard
  9
$DIMAUNIT
 70
0
  9
$DIMADEC
 70
0
  9
$DIMALTRND
 40
0.0
  9
$DIMAZIN
 70
0
  9
$DIMDSEP
 70
44
  9
$DIMATFIT
 70
3
  9
$DIMFRAC
 70
0
  9
$DIMLDRBLK
  1

  9
$DIMLUNIT
 70
2
  9
$DIMLWD
 70
-2
  9
$DIMLWE
 70
-2
  9
$DIMTMOVE
 70
0
  9
$DIMFXL
 40
1.0
  9
$DIMFXLON
 70
0
  9
$DIMJOGANG
 40
0.785398163397
  9
$DIMTFILL
 70
0
  9
$DIMTFILLCLR
 70
0
  9
$DIMARCSYM
 70
0
  9
$DIMLTYPE
  6

  9
$DIMLTEX1
  6

  9
$DIMLTEX2
  6

  9
$DIMTXTDIRECTION
 70
0
  9
$LUNITS
 70
2
  9
$LUPREC
 70
4
  9
$SKETCHINC
 40
1.0
  9
$FILLETRAD
 40
10.0
  9
$AUNITS
 70
0
  9
$AUPREC
 70
2
  9
$MENU
  1
.
  9
$ELEVATION
 40
0.0
  9
$PELEVATION
 40
0.0
  9
$THICKNESS
 40
0.0
  9
$LIMCHECK
 70
0
  9
$CHAMFERA
 40
0.0
  9
$CHAMFERB
 40
0.0
  9
$CHAMFERC
 40
0.0
  9
$CHAMFERD
 40
0.0
  9
$SKPOLY
 70
0
  9
$TDCREATE
 40
2461126.4813078702
  9
$TDUCREATE
 40
2458532.153996898
  9
$TDUPDATE
 40
2461126.4813078702
  9
$TDUUPDATE
 40
2458532.1544311
  9
$TDINDWG
 40
0.0
  9
$TDUSRTIMER
 40
0.0
  9
$USRTIMER
 70
1
  9
$ANGBASE
 50
0.0
  9
$ANGDIR
 70
0
  9
$PDMODE
 70
0
  9
$PDSIZE
 40
0.0
  9
$PLINEWID
 40
0.0
  9
$SPLFRAME
 70
0
  9
$SPLINETYPE
 70
6
  9
$SPLINESEGS
 70
8
  9
$HANDSEED
  5
81
  9
$SURFTAB1
 70
6
  9
$SURFTAB2
 70
6
  9
$SURFTYPE
 70
6
  9
$SURFU
 70
6
  9
$SURFV
 70
6
  9
$UCSBASE
  2

  9
$UCSNAME
  2

  9
$UCSORG
 10
0.0
 20
0.0
 30
0.0
  9
$UCSXDIR
 10
1.0
 20
0.0
 30
0.0
  9
$UCSYDIR
 10
0.0
 20
1.0
 30
0.0
  9
$UCSORTHOREF
  2

  9
$UCSORTHOVIEW
 70
0
  9
$UCSORGTOP
 10
0.0
 20
0.0
 30
0.0
  9
$UCSORGBOTTOM
 10
0.0
 20
0.0
 30
0.0
  9
$UCSORGLEFT
 10
0.0
 20
0.0
 30
0.0
  9
$UCSORGRIGHT
 10
0.0
 20
0.0
 30
0.0
  9
$UCSORGFRONT
 10
0.0
 20
0.0
 30
0.0
  9
$UCSORGBACK
 10
0.0
 20
0.0
 30
0.0
  9
$PUCSBASE
  2

  9
$PUCSNAME
  2

  9
$PUCSORG
 10
0.0
 20
0.0
 30
0.0
  9
$PUCSXDIR
 10
1.0
 20
0.0
 30
0.0
  9
$PUCSYDIR
 10
0.0
 20
1.0
 30
0.0
  9
$PUCSORTHOREF
  2

  9
$PUCSORTHOVIEW
 70
0
  9
$PUCSORGTOP
 10
0.0
 20
0.0
 30
0.0
  9
$PUCSORGBOTTOM
 10
0.0
 20
0.0
 30
0.0
  9
$PUCSORGLEFT
 10
0.0
 20
0.0
 30
0.0
  9
$PUCSORGRIGHT
 10
0.0
 20
0.0
 30
0.0
  9
$PUCSORGFRONT
 10
0.0
 20
0.0
 30
0.0
  9
$PUCSORGBACK
 10
0.0
 20
0.0
 30
0.0
  9
$USERI1
 70
0
  9
$USERI2
 70
0
  9
$USERI3
 70
0
  9
$USERI4
 70
0
  9
$USERI5
 70
0
  9
$USERR1
 40
0.0
  9
$USERR2
 40
0.0
  9
$USERR3
 40
0.0
  9
$USERR4
 40
0.0
  9
$USERR5
 40
0.0
  9
$WORLDVIEW
 70
1
  9
$SHADEDGE
 70
3
  9
$SHADEDIF
 70
70
  9
$TILEMODE
 70
1
  9
$MAXACTVP
 70
64
  9
$PINSBASE
 10
0.0
 20
0.0
 30
0.0
  9
$PLIMCHECK
 70
0
  9
$PEXTMIN
 10
1e+20
 20
1e+20
 30
1e+20
  9
$PEXTMAX
 10
-1e+20
 20
-1e+20
 30
-1e+20
  9
$PLIMMIN
 10
0.0
 20
0.0
  9
$PLIMMAX
 10
420.0
 20
297.0
  9
$UNITMODE
 70
0
  9
$VISRETAIN
 70
1
  9
$PLINEGEN
 70
0
  9
$PSLTSCALE
 70
1
  9
$TREEDEPTH
 70
3020
  9
$CMLSTYLE
  2
Standard
  9
$CMLJUST
 70
0
  9
$CMLSCALE
 40
20.0
  9
$PROXYGRAPHICS
 70
1
  9
$MEASUREMENT
 70
1
  9
$CELWEIGHT
370
-1
  9
$ENDCAPS
280
0
  9
$JOINSTYLE
280
0
  9
$LWDISPLAY
290
0
  9
$INSUNITS
 70
1
  9
$HYPERLINKBASE
  1

  9
$STYLESHEET
  1

  9
$XEDIT
290
1
  9
$CEPSNTYPE
380
0
  9
$PSTYLEMODE
290
1
  9
$FINGERPRINTGUID
  2
{50EE8E89-A1F8-4C5C-95A0-E89105095147}
  9
$VERSIONGUID
  2
{0789E88E-C169-491A-86E9-778CBF88B61E}
  9
$EXTNAMES
290
1
  9
$PSVPSCALE
 40
0.0
  9
$OLESTARTUP
290
0
  9
$SORTENTS
280
127
  9
$INDEXCTL
280
0
  9
$HIDETEXT
280
1
  9
$XCLIPFRAME
280
1
  9
$HALOGAP
280
0
  9
$OBSCOLOR
 70
257
  9
$OBSLTYPE
280
0
  9
$INTERSECTIONDISPLAY
280
0
  9
$INTERSECTIONCOLOR
 70
257
  9
$DIMASSOC
280
2
  9
$PROJECTNAME
  1

  9
$CAMERADISPLAY
290
0
  9
$LENSLENGTH
 40
50.0
  9
$CAMERAHEIGHT
 40
0.0
  9
$STEPSPERSEC
 40
24.0
  9
$STEPSIZE
 40
100.0
  9
$3DDWFPREC
 40
2.0
  9
$PSOLWIDTH
 40
0.005
  9
$PSOLHEIGHT
 40
0.08
  9
$LOFTANG1
 40
1.570796326795
  9
$LOFTANG2
 40
1.570796326795
  9
$LOFTMAG1
 40
0.0
  9
$LOFTMAG2
 40
0.0
  9
$LOFTPARAM
 70
7
  9
$LOFTNORMALS
280
1
  9
$LATITUDE
 40
37.795
  9
$LONGITUDE
 40
-122.394
  9
$NORTHDIRECTION
 40
0.0
  9
$TIMEZONE
 70
-8000
  9
$LIGHTGLYPHDISPLAY
280
1
  9
$TILEMODELIGHTSYNCH
280
1
  9
$CMATERIAL
347
20
  9
$SOLIDHIST
280
0
  9
$SHOWHIST
280
1
  9
$DWFFRAME
280
2
  9
$DGNFRAME
280
2
  9
$REALWORLDSCALE
290
1
  9
$INTERFERECOLOR
 62
256
  9
$CSHADOW
280
0
  9
$SHADOWPLANELOCATION
 40
0.0
  0
ENDSEC
  0
SECTION
  2
CLASSES
  0
CLASS
  1
ACDBDICTIONARYWDFLT
  2
AcDbDictionaryWithDefault
  3
ObjectDBX Classes
 90
0
 91
0
280
0
281
0
  0
CLASS
  1
SUN
  2
AcDbSun
  3
SCENEOE
 90
1153
 91
0
280
0
281
0
  0
CLASS
  1
VISUALSTYLE
  2
AcDbVisualStyle
  3
ObjectDBX Classes
 90
4095
 91
0
280
0
281
0
  0
CLASS
  1
MATERIAL
  2
AcDbMaterial
  3
ObjectDBX Classes
 90
1153
 91
0
280
0
281
0
  0
CLASS
  1
SCALE
  2
AcDbScale
  3
ObjectDBX Classes
 90
1153
 91
0
280
0
281
0
  0
CLASS
  1
TABLESTYLE
  2
AcDbTableStyle
  3
ObjectDBX Classes
 90
4095
 91
0
280
0
281
0
  0
CLASS
  1
MLEADERSTYLE
  2
AcDbMLeaderStyle
  3
ACDB_MLEADERSTYLE_CLASS
 90
4095
 91
0
280
0
281
0
  0
CLASS
  1
DICTIONARYVAR
  2
AcDbDictionaryVar
  3
ObjectDBX Classes
 90
0
 91
0
280
0
281
0
  0
CLASS
  1
CELLSTYLEMAP
  2
AcDbCellStyleMap
  3
ObjectDBX Classes
 90
1152
 91
0
280
0
281
0
  0
CLASS
  1
MENTALRAYRENDERSETTINGS
  2
AcDbMentalRayRenderSettings
  3
SCENEOE
 90
1024
 91
0
280
0
281
0
  0
CLASS
  1
ACDBDETAILVIEWSTYLE
  2
AcDbDetailViewStyle
  3
ObjectDBX Classes
 90
1025
 91
0
280
0
281
0
  0
CLASS
  1
ACDBSECTIONVIEWSTYLE
  2
AcDbSectionViewStyle
  3
ObjectDBX Classes
 90
1025
 91
0
280
0
281
0
  0
CLASS
  1
RASTERVARIABLES
  2
AcDbRasterVariables
  3
ISM
 90
0
 91
0
280
0
281
0
  0
CLASS
  1
LAYOUT
  2
AcDbLayout
  3
ObjectDBX Classes
 90
0
 91
0
280
0
281
0
  0
CLASS
  1
ACDBPLACEHOLDER
  2
AcDbPlaceHolder
  3
ObjectDBX Classes
 90
0
 91
0
280
0
281
0
  0
ENDSEC
  0
SECTION
  2
TABLES
  0
TABLE
  2
VPORT
  5
8
330
0
100
AcDbSymbolTable
 70
1
  0
VPORT
  5
23
330
8
100
AcDbSymbolTableRecord
100
AcDbViewportTableRecord
  2
*Active
 70
0
 10
0.0
 20
0.0
 11
1.0
 21
1.0
 12
0.0
 22
0.0
 13
0.0
 23
0.0
 14
0.5
 24
0.5
 15
0.5
 25
0.5
 16
0.0
 26
0.0
 36
1.0
 17
0.0
 27
0.0
 37
0.0
 40
1000.0
 41
1.34
 42
50.0
 43
0.0
 44
0.0
 50
0.0
 51
0.0
 71
0
 72
1000
 73
1
 74
3
 75
0
 76
0
 77
0
 78
0
281
0
 65
0
146
0.0
  0
ENDTAB
  0
TABLE
  2
LTYPE
  5
2
330
0
100
AcDbSymbolTable
 70
3
  0
LTYPE
  5
24
330
2
100
AcDbSymbolTableRecord
100
AcDbLinetypeTableRecord
  2
ByBlock
 70
0
  3

 72
65
 73
0
 40
0.0
  0
LTYPE
  5
25
330
2
100
AcDbSymbolTableRecord
100
AcDbLinetypeTableRecord
  2
ByLayer
 70
0
  3

 72
65
 73
0
 40
0.0
  0
LTYPE
  5
26
330
2
100
AcDbSymbolTableRecord
100
AcDbLinetypeTableRecord
  2
Continuous
 70
0
  3

 72
65
 73
0
 40
0.0
  0
ENDTAB
  0
TABLE
  2
LAYER
  5
1
330
0
100
AcDbSymbolTable
 70
6
  0
LAYER
  5
27
330
1
100
AcDbSymbolTableRecord
100
AcDbLayerTableRecord
  2
0
 70
0
 62
7
  6
Continuous
370
-3
390
13
347
21
  0
LAYER
  5
28
330
1
100
AcDbSymbolTableRecord
100
AcDbLayerTableRecord
  2
Defpoints
 70
0
 62
7
  6
Continuous
290
0
370
-3
390
13
347
21
  0
LAYER
  5
2F
330
1
100
AcDbSymbolTableRecord
100
AcDbLayerTableRecord
  2
PLYWOOD_BOUNDARY
 70
0
 62
7
  6
Continuous
370
-3
390
13
347
21
  0
LAYER
  5
30
330
1
100
AcDbSymbolTableRecord
100
AcDbLayerTableRecord
  2
SHELF_OUTLINE
 70
0
 62
3
  6
Continuous
370
-3
390
13
347
21
  0
LAYER
  5
31
330
1
100
AcDbSymbolTableRecord
100
AcDbLayerTableRecord
  2
BRACKET_OUTLINE
 70
0
 62
5
  6
Continuous
370
-3
390
13
347
21
  0
LAYER
  5
32
330
1
100
AcDbSymbolTableRecord
100
AcDbLayerTableRecord
  2
BRACKET_CUTS
 70
0
 62
1
  6
Continuous
370
-3
390
13
347
21
  0
ENDTAB
  0
TABLE
  2
STYLE
  5
5
330
0
100
AcDbSymbolTable
 70
1
  0
STYLE
  5
29
330
5
100
AcDbSymbolTableRecord
100
AcDbTextStyleTableRecord
  2
Standard
 70
0
 40
0.0
 41
1.0
 50
0.0
 71
0
 42
2.5
  3
txt
  4

  0
ENDTAB
  0
TABLE
  2
VIEW
  5
7
330
0
100
AcDbSymbolTable
 70
0
  0
ENDTAB
  0
TABLE
  2
UCS
  5
6
330
0
100
AcDbSymbolTable
 70
0
  0
ENDTAB
  0
TABLE
  2
APPID
  5
3
330
0
100
AcDbSymbolTable
 70
3
  0
APPID
  5
2A
330
3
100
AcDbSymbolTableRecord
100
AcDbRegAppTableRecord
  2
ACAD
 70
0
  0
APPID
  5
7E
330
3
100
AcDbSymbolTableRecord
100
AcDbRegAppTableRecord
  2
HATCHBACKGROUNDCOLOR
 70
0
  0
APPID
  5
7F
330
3
100
AcDbSymbolTableRecord
100
AcDbRegAppTableRecord
  2
EZDXF
 70
0
  0
ENDTAB
  0
TABLE
  2
DIMSTYLE
  5
4
330
0
100
AcDbSymbolTable
 70
1
100
AcDbDimStyleTable
  0
DIMSTYLE
105
2B
330
4
100
AcDbSymbolTableRecord
100
AcDbDimStyleTableRecord
  2
Standard
 70
0
 40
1.0
 41
2.5
 42
0.625
 43
3.75
 44
1.25
 45
0.0
 46
0.0
 47
0.0
 48
0.0
 49
2.5
140
2.5
141
2.5
142
0.0
143
0.03937007874
144
1.0
145
0.0
146
1.0
147
0.625
148
0.0
 69
0
 70
0
 71
0
 72
0
 73
0
 74
0
 75
0
 76
0
 77
1
 78
8
 79
3
170
0
171
3
172
1
173
0
174
0
175
0
176
0
177
0
178
0
179
2
271
2
272
2
273
2
274
3
275
0
276
0
277
2
278
44
279
0
280
0
281
0
282
0
283
0
284
8
285
0
286
0
288
0
289
3
290
0
371
-2
372
-2
  0
ENDTAB
  0
TABLE
  2
BLOCK_RECORD
  5
9
330
0
100
AcDbSymbolTable
 70
2
  0
BLOCK_RECORD
  5
17
330
9
100
AcDbSymbolTableRecord
100
AcDbBlockTableRecord
  2
*Model_Space
340
1A
 70
0
280
1
281
0
  0
BLOCK_RECORD
  5
1B
330
9
100
AcDbSymbolTableRecord
100
AcDbBlockTableRecord
  2
*Paper_Space
340
1E
 70
0
280
1
281
0
  0
ENDTAB
  0
ENDSEC
  0
SECTION
  2
BLOCKS
  0
BLOCK
  5
18
330
17
100
AcDbEntity
  8
0
100
AcDbBlockBegin
  2
*Model_Space
 70
0
 10
0.0
 20
0.0
 30
0.0
  3
*Model_Space
  1

  0
ENDBLK
  5
19
330
17
100
AcDbEntity
  8
0
100
AcDbBlockEnd
  0
BLOCK
  5
1C
330
1B
100
AcDbEntity
  8
0
100
AcDbBlockBegin
  2
*Paper_Space
 70
0
 10
0.0
 20
0.0
 30
0.0
  3
*Paper_Space
  1

  0
ENDBLK
  5
1D
330
1B
100
AcDbEntity
  8
0
100
AcDbBlockEnd
  0
ENDSEC
  0
SECTION
  2
ENTITIES
  0
LWPOLYLINE
  5
33
330
17
100
AcDbEntity
  8
PLYWOOD_BOUNDARY
100
AcDbPolyline
 90
5
 70
1
 10
0.0
 20
0.0
 10
96.0
 20
0.0
 10
96.0
 20
48.0
 10
0.0
 20
48.0
 10
0.0
 20
0.0
  0
LWPOLYLINE
  5
34
330
17
100
AcDbEntity
  8
SHELF_OUTLINE
100
AcDbPolyline
 90
96
 70
1
 10
41.975535622699674
 20
47.8475
 10
41.975535622699674
 20
-0.15249999999999986
 10
62.01786437730032
 20
-0.15249999999999986
 10
62.01786437730032
 20
5.956006834976353
 10
62.01786437730032
 20
5.956006834976353
 10
61.91231034138697
 20
6.02219773268526
 10
61.80959566831225
 20
6.092714293663949
 10
61.709897516799906
 20
6.167434893381365
 10
61.613387842781385
 20
6.246230656325491
 10
61.52023310281217
 20
6.328965678283414
 10
61.430593966973284
 20
6.415497260744186
 10
61.344625041753034
 20
6.5056761570203285
 10
61.26247460338712
 20
6.599346829663343
 10
61.184284342116854
 20
6.69634771872936
 10
61.11018911780678
 20
6.796511520432109
 10
61.04031672734299
 20
6.899665475702779
 10
60.97478768421345
 20
7.005631668158845
 10
60.91371501065056
 20
7.114227330968131
 10
60.85720404269424
 20
7.225265162078738
 10
60.805352248511994
 20
7.338553647271144
 10
60.75824906028918
 20
7.453897390475337
 10
60.715975719979454
 20
7.571097450783196
 10
60.678605139181464
 20
7.689951685574929
 10
60.64620177338341
 20
7.810255099167673
 10
60.64620177338341
 20
7.810255099167673
 10
60.498279608422536
 20
8.428787962905464
 10
60.3628446419596
 20
9.047320826643254
 10
60.24344047168473
 20
9.665853690381045
 10
60.14319125639551
 20
10.284386554118836
 10
60.06471997372476
 20
10.902919417856626
 10
60.010079791058104
 20
11.521452281594424
 10
59.98070034529168
 20
12.139985145332215
 10
59.97735033699725
 20
12.758518009070006
 10
60.00011741770204
 20
13.377050872807796
 10
60.0484058965243
 20
13.995583736545587
 10
60.12095232616912
 20
14.614116600283378
 10
60.2158585604839
 20
15.232649464021168
 10
60.33064141863673
 20
15.85118232775896
 10
60.46229765647552
 20
16.46971519149675
 10
60.60738254512059
 20
17.088248055234544
 10
60.762100000815295
 20
17.706780918972335
 10
60.922401907826
 20
18.325313782710126
 10
61.08409403565051
 20
18.94384664644792
 10
61.242945779256516
 20
19.56237951018571
 10
61.39480085104404
 20
20.1809123739235
 10
61.53568602832421
 20
20.799445237661292
 10
61.66191511098326
 20
21.417978101399083
 10
61.7701853693243
 20
22.036510965136873
 10
61.85766395857034
 20
22.655043828874664
 10
61.92206203903042
 20
23.273576692612455
 10
61.961694662606355
 20
23.89210955635025
 10
61.97552485873564
 20
24.51064242008804
 10
61.96319076628052
 20
25.12917528382583
 10
61.925015101469114
 20
25.74770814756362
 10
61.861996714164036
 20
26.366241011301415
 10
61.77578445338501
 20
26.984773875039206
 10
61.66863402588292
 20
27.603306738776997
 10
61.543348976542134
 20
28.221839602514788
 10
61.403207334833496
 20
28.840372466252578
 10
61.2518758465821
 20
29.458905329990372
 10
61.093314035138626
 20
30.077438193728163
 10
60.93167060215262
 20
30.695971057465954
 10
60.77117487857687
 20
31.314503921203745
 10
60.61602616604071
 20
31.93303678494154
 10
60.47028386392766
 20
32.55156964867933
 10
60.33776125693523
 20
33.17010251241712
 10
60.221925742119666
 20
33.788635376154915
 10
60.125808105942184
 20
34.4071682398927
 10
60.05192322504385
 20
35.025701103630496
 10
60.00220426557904
 20
35.64423396736828
 10
59.97795210275386
 20
36.26276683110608
 10
59.97980128398554
 20
36.88129969484386
 10
60.00770342624187
 20
37.49983255858166
 10
60.060928481962534
 20
38.11836542231944
 10
60.060928481962534
 20
38.11836542231944
 10
60.07630592645014
 20
38.23987958610974
 10
60.09663067249174
 20
38.36066477766468
 10
60.12186884063763
 20
38.48051965937279
 10
60.15197836122324
 20
38.59924444436196
 10
60.18690904449534
 20
38.716641229525635
 10
60.22660266427363
 20
38.83251432540867
 10
60.270993055008404
 20
38.94667058240336
 10
60.32000622207224
 20
39.058919712711756
 10
60.37356046510219
 20
39.16907460753768
 10
60.4315665141866
 20
39.276951648979505
 10
60.49392767866972
 20
39.382371016104
 10
60.56054000832599
 20
39.4851569846911
 10
60.63129246663527
 20
39.58513822014963
 10
60.70606711587044
 20
39.6821480631161
 10
60.78473931368845
 20
39.77602480726024
 10
60.867177920897504
 20
39.86661196883435
 10
60.953245520053805
 20
39.95375854751701
 10
61.042798644523565
 20
40.03731927811653
 10
61.13568801762847
 20
40.11715487271442
 10
61.13568801762847
 20
47.8475
 10
41.975535622699674
 20
47.8475
  0
LWPOLYLINE
  5
35
330
17
100
AcDbEntity
  8
BRACKET_OUTLINE
100
AcDbPolyline
 90
87
 70
1
 10
41.975535622699674
 20
42.6725
 10
42.019783550557364
 20
42.63512013756228
 10
42.059411487758936
 20
42.59287371962289
 10
42.09388760626775
 20
42.54632771562545
 10
42.12274921819963
 20
42.496106797749974
 10
42.145608985340886
 20
42.44288495747918
 10
42.16216011743354
 20
42.387376460273686
 10
42.17218048946411
 20
42.33032625974879
 10
42.17553562269968
 20
42.272499999999994
 10
42.17553562269968
 20
41.4725
 10
51.8219822321064
 20
41.4725
 10
51.840160606362126
 20
41.48897591804405
 10
51.859866369148136
 20
41.503590707779
 10
51.88090974319654
 20
41.51620362079045
 10
51.903088069311764
 20
41.526693187831185
 10
51.92618775808942
 20
41.53495838863641
 10
51.949986346899
 20
41.540919624804175
 10
51.974254642320645
 20
41.544519486371414
 10
51.99875892740304
 20
41.54572330470336
 10
52.023263212485425
 20
41.544519486371414
 10
52.04753150790707
 20
41.540919624804175
 10
52.07133009671665
 20
41.53495838863641
 10
52.094429785494306
 20
41.526693187831185
 10
52.11660811160954
 20
41.51620362079045
 10
52.13765148565793
 20
41.503590707779
 10
52.15735724844395
 20
41.48897591804405
 10
52.17553562269968
 20
41.4725
 10
52.19201154074372
 20
41.45432162574427
 10
52.20662633047868
 20
41.43461586295827
 10
52.21923924349013
 20
41.413572488909864
 10
52.22972881053086
 20
41.39139416279464
 10
52.23799401133609
 20
41.36829447401698
 10
52.24395524750384
 20
41.344495885207394
 10
52.24755510907109
 20
41.32022758978576
 10
52.24875892740304
 20
41.29572330470336
 10
52.24755510907109
 20
41.27121901962097
 10
52.24395524750384
 20
41.24695072419934
 10
52.23799401133609
 20
41.22315213538975
 10
52.22972881053086
 20
41.20005244661209
 10
52.21923924349013
 20
41.17787412049687
 10
52.20662633047868
 20
41.15683074644846
 10
52.19201154074372
 20
41.13712498366246
 10
52.17553562269968
 20
41.118946609406734
 10
52.17553562269968
 20
40.22605339059328
 10
52.19201154074372
 20
40.20787501633755
 10
52.20662633047868
 20
40.188169253551536
 10
52.21923924349013
 20
40.16712587950313
 10
52.22972881053086
 20
40.14494755338791
 10
52.23799401133609
 20
40.12184786461026
 10
52.24395524750384
 20
40.098049275800676
 10
52.24755510907109
 20
40.07378098037903
 10
52.24875892740304
 20
40.04927669529664
 10
52.24755510907109
 20
40.024772410214254
 10
52.24395524750384
 20
40.000504114792605
 10
52.23799401133609
 20
39.97670552598302
 10
52.22972881053086
 20
39.95360583720536
 10
52.21923924349013
 20
39.931427511090135
 10
52.20662633047868
 20
39.91038413704173
 10
52.19201154074372
 20
39.89067837425573
 10
52.17553562269968
 20
39.8725
 10
52.15735724844395
 20
39.85602408195595
 10
52.13765148565793
 20
39.841409292221
 10
52.11660811160954
 20
39.82879637920955
 10
52.094429785494306
 20
39.818306812168814
 10
52.07133009671665
 20
39.81004161136359
 10
52.04753150790707
 20
39.804080375195824
 10
52.023263212485425
 20
39.800480513628585
 10
51.99875892740304
 20
39.79927669529664
 10
51.974254642320645
 20
39.800480513628585
 10
51.949986346899
 20
39.804080375195824
 10
51.92618775808942
 20
39.81004161136359
 10
51.903088069311764
 20
39.818306812168814
 10
51.88090974319654
 20
39.82879637920955
 10
51.859866369148136
 20
39.841409292221
 10
51.840160606362126
 20
39.85602408195595
 10
51.8219822321064
 20
39.8725
 10
42.17553562269968
 20
39.8725
 10
42.17553562269968
 20
39.072500000000005
 10
42.17218048946411
 20
39.01467374025121
 10
42.16216011743354
 20
38.95762353972631
 10
42.145608985340886
 20
38.90211504252082
 10
42.12274921819963
 20
38.848893202250025
 10
42.09388760626775
 20
38.79867228437455
 10
42.059411487758936
 20
38.75212628037711
 10
42.019783550557364
 20
38.70987986243772
 10
41.975535622699674
 20
38.6725
 10
41.975535622699674
 20
42.6725
  0
LWPOLYLINE
  5
36
330
17
100
AcDbEntity
  8
BRACKET_OUTLINE
100
AcDbPolyline
 90
87
 70
1
 10
41.975535622699674
 20
27.0475
 10
42.019783550557364
 20
27.01012013756228
 10
42.059411487758936
 20
26.967873719622883
 10
42.09388760626775
 20
26.921327715625456
 10
42.12274921819963
 20
26.871106797749977
 10
42.145608985340886
 20
26.817884957479187
 10
42.16216011743354
 20
26.762376460273682
 10
42.17218048946411
 20
26.705326259748784
 10
42.17553562269968
 20
26.6475
 10
42.17553562269968
 20
25.8475
 10
51.8219822321064
 20
25.8475
 10
51.840160606362126
 20
25.863975918044048
 10
51.859866369148136
 20
25.878590707779
 10
51.88090974319654
 20
25.891203620790453
 10
51.903088069311764
 20
25.901693187831185
 10
51.92618775808942
 20
25.909958388636415
 10
51.949986346899
 20
25.91591962480417
 10
51.974254642320645
 20
25.919519486371414
 10
51.99875892740304
 20
25.920723304703365
 10
52.023263212485425
 20
25.919519486371414
 10
52.04753150790707
 20
25.91591962480417
 10
52.07133009671665
 20
25.909958388636415
 10
52.094429785494306
 20
25.901693187831185
 10
52.11660811160954
 20
25.891203620790453
 10
52.13765148565793
 20
25.878590707779
 10
52.15735724844395
 20
25.863975918044048
 10
52.17553562269968
 20
25.8475
 10
52.19201154074372
 20
25.829321625744274
 10
52.20662633047868
 20
25.809615862958264
 10
52.21923924349013
 20
25.788572488909864
 10
52.22972881053086
 20
25.766394162794636
 10
52.23799401133609
 20
25.74329447401698
 10
52.24395524750384
 20
25.719495885207397
 10
52.24755510907109
 20
25.695227589785755
 10
52.24875892740304
 20
25.670723304703365
 10
52.24755510907109
 20
25.646219019620975
 10
52.24395524750384
 20
25.621950724199333
 10
52.23799401133609
 20
25.59815213538975
 10
52.22972881053086
 20
25.57505244661209
 10
52.21923924349013
 20
25.552874120496863
 10
52.20662633047868
 20
25.531830746448463
 10
52.19201154074372
 20
25.512124983662453
 10
52.17553562269968
 20
25.493946609406727
 10
52.17553562269968
 20
24.601053390593275
 10
52.19201154074372
 20
24.58287501633755
 10
52.20662633047868
 20
24.56316925355154
 10
52.21923924349013
 20
24.542125879503136
 10
52.22972881053086
 20
24.51994755338791
 10
52.23799401133609
 20
24.496847864610253
 10
52.24395524750384
 20
24.47304927580067
 10
52.24755510907109
 20
24.448780980379027
 10
52.24875892740304
 20
24.424276695296637
 10
52.24755510907109
 20
24.399772410214247
 10
52.24395524750384
 20
24.375504114792605
 10
52.23799401133609
 20
24.35170552598302
 10
52.22972881053086
 20
24.328605837205366
 10
52.21923924349013
 20
24.30642751109014
 10
52.20662633047868
 20
24.28538413704174
 10
52.19201154074372
 20
24.265678374255724
 10
52.17553562269968
 20
24.247500000000002
 10
52.15735724844395
 20
24.231024081955955
 10
52.13765148565793
 20
24.216409292221
 10
52.11660811160954
 20
24.20379637920955
 10
52.094429785494306
 20
24.193306812168817
 10
52.07133009671665
 20
24.185041611363584
 10
52.04753150790707
 20
24.17908037519583
 10
52.023263212485425
 20
24.17548051362859
 10
51.99875892740304
 20
24.174276695296637
 10
51.974254642320645
 20
24.17548051362859
 10
51.949986346899
 20
24.17908037519583
 10
51.92618775808942
 20
24.185041611363584
 10
51.903088069311764
 20
24.193306812168817
 10
51.88090974319654
 20
24.20379637920955
 10
51.859866369148136
 20
24.216409292221
 10
51.840160606362126
 20
24.231024081955955
 10
51.8219822321064
 20
24.247500000000002
 10
42.17553562269968
 20
24.2475
 10
42.17553562269968
 20
23.447499999999998
 10
42.17218048946411
 20
23.389673740251215
 10
42.16216011743354
 20
23.33262353972632
 10
42.145608985340886
 20
23.277115042520812
 10
42.12274921819963
 20
23.22389320225002
 10
42.09388760626775
 20
23.173672284374543
 10
42.059411487758936
 20
23.127126280377116
 10
42.019783550557364
 20
23.08487986243772
 10
41.975535622699674
 20
23.0475
 10
41.975535622699674
 20
27.0475
  0
LWPOLYLINE
  5
37
330
17
100
AcDbEntity
  8
BRACKET_OUTLINE
100
AcDbPolyline
 90
87
 70
1
 10
41.975535622699674
 20
10.797500000000003
 10
42.019783550557364
 20
10.760120137562286
 10
42.059411487758936
 20
10.71787371962289
 10
42.09388760626775
 20
10.671327715625463
 10
42.12274921819963
 20
10.621106797749984
 10
42.145608985340886
 20
10.56788495747919
 10
42.16216011743354
 20
10.512376460273682
 10
42.17218048946411
 20
10.455326259748784
 10
42.17553562269968
 20
10.397500000000004
 10
42.17553562269968
 20
9.5975
 10
51.8219822321064
 20
9.597500000000007
 10
51.840160606362126
 20
9.613975918044051
 10
51.859866369148136
 20
9.628590707779
 10
51.88090974319654
 20
9.641203620790453
 10
51.903088069311764
 20
9.651693187831189
 10
51.92618775808942
 20
9.659958388636422
 10
51.949986346899
 20
9.665919624804172
 10
51.974254642320645
 20
9.669519486371417
 10
51.99875892740304
 20
9.670723304703369
 10
52.023263212485425
 20
9.669519486371417
 10
52.04753150790707
 20
9.665919624804172
 10
52.07133009671665
 20
9.659958388636422
 10
52.094429785494306
 20
9.651693187831189
 10
52.11660811160954
 20
9.641203620790453
 10
52.13765148565793
 20
9.628590707779
 10
52.15735724844395
 20
9.613975918044051
 10
52.17553562269968
 20
9.597500000000007
 10
52.19201154074372
 20
9.579321625744281
 10
52.20662633047868
 20
9.559615862958271
 10
52.21923924349013
 20
9.538572488909868
 10
52.22972881053086
 20
9.516394162794636
 10
52.23799401133609
 20
9.493294474016981
 10
52.24395524750384
 20
9.469495885207397
 10
52.24755510907109
 20
9.445227589785755
 10
52.24875892740304
 20
9.420723304703369
 10
52.24755510907109
 20
9.396219019620975
 10
52.24395524750384
 20
9.371950724199333
 10
52.23799401133609
 20
9.34815213538975
 10
52.22972881053086
 20
9.325052446612094
 10
52.21923924349013
 20
9.30287412049687
 10
52.20662633047868
 20
9.281830746448467
 10
52.19201154074372
 20
9.262124983662456
 10
52.17553562269968
 20
9.24394660940673
 10
52.17553562269968
 20
8.351053390593275
 10
52.19201154074372
 20
8.33287501633755
 10
52.20662633047868
 20
8.31316925355154
 10
52.21923924349013
 20
8.292125879503143
 10
52.22972881053086
 20
8.269947553387912
 10
52.23799401133609
 20
8.246847864610256
 10
52.24395524750384
 20
8.223049275800673
 10
52.24755510907109
 20
8.19878098037903
 10
52.24875892740304
 20
8.174276695296644
 10
52.24755510907109
 20
8.14977241021425
 10
52.24395524750384
 20
8.125504114792609
 10
52.23799401133609
 20
8.101705525983025
 10
52.22972881053086
 20
8.07860583720537
 10
52.21923924349013
 20
8.056427511090138
 10
52.20662633047868
 20
8.035384137041742
 10
52.19201154074372
 20
8.015678374255732
 10
52.17553562269968
 20
7.997500000000006
 10
52.15735724844395
 20
7.981024081955955
 10
52.13765148565793
 20
7.966409292221005
 10
52.11660811160954
 20
7.953796379209553
 10
52.094429785494306
 20
7.943306812168817
 10
52.07133009671665
 20
7.935041611363591
 10
52.04753150790707
 20
7.929080375195834
 10
52.023263212485425
 20
7.925480513628589
 10
51.99875892740304
 20
7.924276695296644
 10
51.974254642320645
 20
7.925480513628589
 10
51.949986346899
 20
7.929080375195834
 10
51.92618775808942
 20
7.935041611363591
 10
51.903088069311764
 20
7.943306812168817
 10
51.88090974319654
 20
7.953796379209553
 10
51.859866369148136
 20
7.966409292221005
 10
51.840160606362126
 20
7.981024081955955
 10
51.8219822321064
 20
7.997500000000006
 10
42.17553562269968
 20
7.997500000000006
 10
42.17553562269968
 20
7.197500000000002
 10
42.17218048946411
 20
7.139673740251222
 10
42.16216011743354
 20
7.082623539726324
 10
42.145608985340886
 20
7.0271150425208155
 10
42.12274921819963
 20
6.9738932022500215
 10
42.09388760626775
 20
6.923672284374543
 10
42.059411487758936
 20
6.877126280377116
 10
42.019783550557364
 20
6.83487986243772
 10
41.975535622699674
 20
6.797500000000003
 10
41.975535622699674
 20
10.797500000000003
  0
LWPOLYLINE
  5
38
330
17
100
AcDbEntity
  8
BRACKET_OUTLINE
100
AcDbPolyline
 90
87
 70
1
 10
56.77553562269967
 20
47.8475
 10
56.738155760261954
 20
47.803252072142314
 10
56.69590934232256
 20
47.76362413494074
 10
56.64936333832513
 20
47.72914801643192
 10
56.59914242044965
 20
47.70028640450005
 10
56.54592058017886
 20
47.67742663735879
 10
56.49041208297335
 20
47.660875505266134
 10
56.43336188244845
 20
47.65085513323557
 10
56.37553562269967
 20
47.647499999999994
 10
55.57553562269967
 20
47.647499999999994
 10
55.57553562269967
 20
38.00105339059327
 10
55.59201154074372
 20
37.982875016337545
 10
55.60662633047867
 20
37.96316925355154
 10
55.61923924349012
 20
37.94212587950314
 10
55.62972881053086
 20
37.919947553387914
 10
55.63799401133608
 20
37.89684786461025
 10
55.64395524750384
 20
37.87304927580067
 10
55.647555109071085
 20
37.84878098037903
 10
55.64875892740304
 20
37.82427669529663
 10
55.647555109071085
 20
37.799772410214246
 10
55.64395524750384
 20
37.77550411479261
 10
55.63799401133608
 20
37.75170552598303
 10
55.62972881053086
 20
37.728605837205365
 10
55.61923924349012
 20
37.70642751109014
 10
55.60662633047867
 20
37.68538413704174
 10
55.59201154074372
 20
37.66567837425572
 10
55.57553562269967
 20
37.647499999999994
 10
55.55735724844394
 20
37.63102408195596
 10
55.53765148565793
 20
37.61640929222099
 10
55.516608111609536
 20
37.60379637920954
 10
55.494429785494304
 20
37.59330681216882
 10
55.47133009671665
 20
37.58504161136358
 10
55.447531507907065
 20
37.57908037519583
 10
55.42326321248542
 20
37.57548051362859
 10
55.39875892740304
 20
37.57427669529663
 10
55.37425464232064
 20
37.57548051362859
 10
55.349986346899
 20
37.57908037519583
 10
55.32618775808942
 20
37.58504161136358
 10
55.30308806931176
 20
37.59330681216882
 10
55.28090974319653
 20
37.60379637920954
 10
55.259866369148135
 20
37.61640929222099
 10
55.240160606362124
 20
37.63102408195596
 10
55.2219822321064
 20
37.647499999999994
 10
54.32908901329294
 20
37.647499999999994
 10
54.31091063903722
 20
37.63102408195596
 10
54.29120487625121
 20
37.61640929222099
 10
54.270161502202804
 20
37.60379637920954
 10
54.24798317608758
 20
37.59330681216882
 10
54.224883487309924
 20
37.58504161136358
 10
54.20108489850034
 20
37.57908037519583
 10
54.1768166030787
 20
37.57548051362859
 10
54.152312317996305
 20
37.57427669529663
 10
54.12780803291392
 20
37.57548051362859
 10
54.10353973749228
 20
37.57908037519583
 10
54.07974114868269
 20
37.58504161136358
 10
54.05664145990504
 20
37.59330681216882
 10
54.03446313378981
 20
37.60379637920954
 10
54.01341975974141
 20
37.61640929222099
 10
53.99371399695539
 20
37.63102408195596
 10
53.975535622699674
 20
37.647499999999994
 10
53.95905970465562
 20
37.66567837425572
 10
53.94444491492067
 20
37.68538413704174
 10
53.93183200190922
 20
37.70642751109014
 10
53.921342434868485
 20
37.728605837205365
 10
53.91307723406325
 20
37.75170552598303
 10
53.9071159978955
 20
37.77550411479261
 10
53.90351613632826
 20
37.799772410214246
 10
53.902312317996305
 20
37.82427669529663
 10
53.90351613632826
 20
37.84878098037903
 10
53.9071159978955
 20
37.87304927580067
 10
53.91307723406325
 20
37.89684786461025
 10
53.921342434868485
 20
37.919947553387914
 10
53.93183200190922
 20
37.94212587950314
 10
53.94444491492067
 20
37.96316925355154
 10
53.95905970465562
 20
37.982875016337545
 10
53.975535622699674
 20
38.00105339059327
 10
53.975535622699674
 20
47.647499999999994
 10
53.17553562269967
 20
47.647499999999994
 10
53.11770936295089
 20
47.65085513323557
 10
53.06065916242599
 20
47.660875505266134
 10
53.005150665220484
 20
47.67742663735879
 10
52.95192882494969
 20
47.70028640450005
 10
52.90170790707421
 20
47.72914801643192
 10
52.855161903076784
 20
47.76362413494074
 10
52.81291548513739
 20
47.803252072142314
 10
52.77553562269967
 20
47.8475
 10
56.77553562269967
 20
47.8475
  0
LWPOLYLINE
  5
39
330
17
100
AcDbEntity
  8
BRACKET_OUTLINE
100
AcDbPolyline
 90
87
 70
1
 10
52.77553562269967
 20
-0.15249999999999986
 10
52.81291548513739
 20
-0.10825207214231014
 10
52.855161903076784
 20
-0.06862413494073749
 10
52.90170790707421
 20
-0.03414801643192433
 10
52.95192882494969
 20
-0.0052864045000440285
 10
53.005150665220484
 20
0.017573362641211787
 10
53.06065916242599
 20
0.03412449473386303
 10
53.11770936295089
 20
0.044144866764437296
 10
53.17553562269967
 20
0.047500000000002984
 10
53.975535622699674
 20
0.047500000000002984
 10
53.97553562269967
 20
9.693946609406726
 10
53.95905970465562
 20
9.712124983662452
 10
53.94444491492067
 20
9.731830746448463
 10
53.93183200190922
 20
9.752874120496866
 10
53.921342434868485
 20
9.77505244661209
 10
53.91307723406325
 20
9.798152135389746
 10
53.9071159978955
 20
9.82195072419933
 10
53.90351613632826
 20
9.846219019620971
 10
53.902312317996305
 20
9.870723304703365
 10
53.90351613632826
 20
9.895227589785751
 10
53.9071159978955
 20
9.919495885207393
 10
53.91307723406325
 20
9.943294474016977
 10
53.921342434868485
 20
9.966394162794632
 10
53.93183200190922
 20
9.988572488909863
 10
53.94444491492067
 20
10.00961586295826
 10
53.95905970465562
 20
10.029321625744277
 10
53.97553562269967
 20
10.047500000000003
 10
53.99371399695539
 20
10.063975918044047
 10
54.0134197597414
 20
10.078590707779004
 10
54.03446313378981
 20
10.091203620790456
 10
54.05664145990504
 20
10.101693187831184
 10
54.07974114868269
 20
10.109958388636418
 10
54.10353973749228
 20
10.115919624804167
 10
54.12780803291392
 20
10.119519486371413
 10
54.152312317996305
 20
10.120723304703365
 10
54.1768166030787
 20
10.119519486371413
 10
54.20108489850034
 20
10.115919624804167
 10
54.224883487309924
 20
10.109958388636418
 10
54.24798317608758
 20
10.101693187831184
 10
54.270161502202804
 20
10.091203620790456
 10
54.29120487625121
 20
10.078590707779004
 10
54.31091063903722
 20
10.063975918044047
 10
54.32908901329294
 20
10.047500000000003
 10
55.2219822321064
 20
10.047500000000003
 10
55.240160606362124
 20
10.063975918044047
 10
55.259866369148135
 20
10.078590707779004
 10
55.28090974319653
 20
10.091203620790456
 10
55.30308806931176
 20
10.101693187831184
 10
55.32618775808942
 20
10.109958388636418
 10
55.349986346899
 20
10.115919624804167
 10
55.37425464232064
 20
10.119519486371413
 10
55.39875892740304
 20
10.120723304703365
 10
55.42326321248542
 20
10.119519486371413
 10
55.447531507907065
 20
10.115919624804167
 10
55.47133009671665
 20
10.109958388636418
 10
55.494429785494304
 20
10.101693187831184
 10
55.516608111609536
 20
10.091203620790456
 10
55.53765148565793
 20
10.078590707779004
 10
55.55735724844394
 20
10.063975918044047
 10
55.57553562269967
 20
10.047500000000003
 10
55.59201154074372
 20
10.029321625744277
 10
55.60662633047867
 20
10.00961586295826
 10
55.61923924349012
 20
9.988572488909863
 10
55.62972881053086
 20
9.966394162794632
 10
55.63799401133608
 20
9.943294474016977
 10
55.64395524750384
 20
9.919495885207393
 10
55.647555109071085
 20
9.895227589785751
 10
55.64875892740304
 20
9.870723304703365
 10
55.647555109071085
 20
9.846219019620971
 10
55.64395524750384
 20
9.82195072419933
 10
55.63799401133608
 20
9.798152135389746
 10
55.62972881053086
 20
9.77505244661209
 10
55.61923924349012
 20
9.752874120496866
 10
55.60662633047867
 20
9.731830746448463
 10
55.59201154074372
 20
9.712124983662452
 10
55.57553562269967
 20
9.693946609406726
 10
55.57553562269967
 20
0.047500000000002984
 10
56.37553562269967
 20
0.047500000000002984
 10
56.43336188244845
 20
0.044144866764437296
 10
56.49041208297335
 20
0.03412449473386303
 10
56.54592058017886
 20
0.017573362641211787
 10
56.59914242044965
 20
-0.0052864045000440285
 10
56.64936333832513
 20
-0.03414801643192433
 10
56.69590934232256
 20
-0.06862413494073749
 10
56.738155760261954
 20
-0.10825207214231014
 10
56.77553562269967
 20
-0.15249999999999986
 10
52.77553562269967
 20
-0.15249999999999986
  0
LWPOLYLINE
  5
3A
330
17
100
AcDbEntity
  8
BRACKET_OUTLINE
100
AcDbPolyline
 90
87
 70
1
 10
45.575535622699675
 20
47.8475
 10
45.53815576026196
 20
47.803252072142314
 10
45.495909342322555
 20
47.76362413494074
 10
45.449363338325135
 20
47.72914801643192
 10
45.39914242044966
 20
47.70028640450005
 10
45.34592058017886
 20
47.67742663735879
 10
45.290412082973354
 20
47.660875505266134
 10
45.233361882448456
 20
47.65085513323557
 10
45.17553562269968
 20
47.647499999999994
 10
44.37553562269967
 20
47.647499999999994
 10
44.37553562269967
 20
44.00105339059327
 10
44.392011540743724
 20
43.982875016337545
 10
44.40662633047867
 20
43.96316925355154
 10
44.419239243490125
 20
43.94212587950314
 10
44.42972881053086
 20
43.919947553387914
 10
44.43799401133609
 20
43.89684786461025
 10
44.443955247503844
 20
43.87304927580067
 10
44.44755510907109
 20
43.84878098037903
 10
44.44875892740304
 20
43.82427669529663
 10
44.44755510907109
 20
43.799772410214246
 10
44.443955247503844
 20
43.77550411479261
 10
44.43799401133609
 20
43.75170552598303
 10
44.42972881053086
 20
43.728605837205365
 10
44.419239243490125
 20
43.70642751109014
 10
44.40662633047867
 20
43.68538413704174
 10
44.392011540743724
 20
43.66567837425572
 10
44.37553562269967
 20
43.647499999999994
 10
44.35735724844395
 20
43.63102408195596
 10
44.337651485657936
 20
43.61640929222099
 10
44.31660811160954
 20
43.60379637920954
 10
44.29442978549431
 20
43.59330681216882
 10
44.27133009671665
 20
43.58504161136358
 10
44.24753150790707
 20
43.57908037519583
 10
44.22326321248543
 20
43.57548051362859
 10
44.19875892740304
 20
43.57427669529663
 10
44.17425464232065
 20
43.57548051362859
 10
44.149986346899006
 20
43.57908037519583
 10
44.12618775808942
 20
43.58504161136358
 10
44.10308806931177
 20
43.59330681216882
 10
44.080909743196536
 20
43.60379637920954
 10
44.05986636914814
 20
43.61640929222099
 10
44.04016060636213
 20
43.63102408195596
 10
44.0219822321064
 20
43.647499999999994
 10
43.12908901329295
 20
43.647499999999994
 10
43.11091063903722
 20
43.63102408195596
 10
43.09120487625121
 20
43.61640929222099
 10
43.07016150220281
 20
43.60379637920954
 10
43.047983176087584
 20
43.59330681216882
 10
43.02488348730993
 20
43.58504161136358
 10
43.001084898500345
 20
43.57908037519583
 10
42.9768166030787
 20
43.57548051362859
 10
42.95231231799631
 20
43.57427669529663
 10
42.92780803291392
 20
43.57548051362859
 10
42.90353973749228
 20
43.57908037519583
 10
42.8797411486827
 20
43.58504161136358
 10
42.85664145990504
 20
43.59330681216882
 10
42.83446313378981
 20
43.60379637920954
 10
42.813419759741414
 20
43.61640929222099
 10
42.793713996955404
 20
43.63102408195596
 10
42.77553562269968
 20
43.647499999999994
 10
42.75905970465563
 20
43.66567837425572
 10
42.74444491492068
 20
43.68538413704174
 10
42.731832001909225
 20
43.70642751109014
 10
42.72134243486849
 20
43.728605837205365
 10
42.713077234063256
 20
43.75170552598303
 10
42.70711599789551
 20
43.77550411479261
 10
42.70351613632826
 20
43.799772410214246
 10
42.70231231799631
 20
43.82427669529663
 10
42.70351613632826
 20
43.84878098037903
 10
42.70711599789551
 20
43.87304927580067
 10
42.713077234063256
 20
43.89684786461025
 10
42.72134243486849
 20
43.919947553387914
 10
42.731832001909225
 20
43.94212587950314
 10
42.74444491492068
 20
43.96316925355154
 10
42.75905970465563
 20
43.982875016337545
 10
42.77553562269968
 20
44.00105339059327
 10
42.77553562269968
 20
47.647499999999994
 10
41.975535622699674
 20
47.647499999999994
 10
41.917709362950895
 20
47.65085513323557
 10
41.860659162425996
 20
47.660875505266134
 10
41.80515066522049
 20
47.67742663735879
 10
41.751928824949694
 20
47.70028640450005
 10
41.701707907074216
 20
47.72914801643192
 10
41.65516190307679
 20
47.76362413494074
 10
41.61291548513739
 20
47.803252072142314
 10
41.575535622699675
 20
47.8475
 10
45.575535622699675
 20
47.8475
  0
LWPOLYLINE
  5
3B
330
17
100
AcDbEntity
  8
BRACKET_OUTLINE
100
AcDbPolyline
 90
87
 70
1
 10
41.575535622699675
 20
-0.15249999999999986
 10
41.61291548513739
 20
-0.10825207214231014
 10
41.655161903076795
 20
-0.06862413494073749
 10
41.701707907074216
 20
-0.03414801643192433
 10
41.751928824949694
 20
-0.0052864045000440285
 10
41.80515066522049
 20
0.017573362641211787
 10
41.860659162425996
 20
0.03412449473386303
 10
41.917709362950895
 20
0.044144866764437296
 10
41.975535622699674
 20
0.047500000000002984
 10
42.77553562269968
 20
0.047500000000002984
 10
42.77553562269968
 20
3.6939466094067264
 10
42.75905970465563
 20
3.712124983662452
 10
42.74444491492068
 20
3.7318307464484626
 10
42.731832001909225
 20
3.752874120496866
 10
42.72134243486849
 20
3.77505244661209
 10
42.713077234063256
 20
3.7981521353897456
 10
42.70711599789551
 20
3.821950724199329
 10
42.70351613632826
 20
3.846219019620971
 10
42.70231231799631
 20
3.8707233047033647
 10
42.70351613632826
 20
3.895227589785751
 10
42.70711599789551
 20
3.919495885207393
 10
42.713077234063256
 20
3.9432944740169766
 10
42.72134243486849
 20
3.9663941627946393
 10
42.731832001909225
 20
3.9885724889098633
 10
42.74444491492068
 20
4.009615862958267
 10
42.75905970465563
 20
4.029321625744277
 10
42.77553562269968
 20
4.047500000000003
 10
42.793713996955404
 20
4.063975918044047
 10
42.813419759741414
 20
4.078590707779004
 10
42.83446313378981
 20
4.091203620790456
 10
42.85664145990504
 20
4.101693187831184
 10
42.8797411486827
 20
4.109958388636418
 10
42.90353973749228
 20
4.115919624804167
 10
42.92780803291392
 20
4.119519486371413
 10
42.95231231799631
 20
4.120723304703365
 10
42.9768166030787
 20
4.119519486371413
 10
43.001084898500345
 20
4.115919624804167
 10
43.02488348730993
 20
4.109958388636418
 10
43.047983176087584
 20
4.101693187831184
 10
43.07016150220281
 20
4.091203620790456
 10
43.09120487625121
 20
4.078590707779004
 10
43.11091063903722
 20
4.063975918044047
 10
43.12908901329295
 20
4.047500000000003
 10
44.0219822321064
 20
4.047500000000003
 10
44.04016060636213
 20
4.063975918044047
 10
44.05986636914814
 20
4.078590707779004
 10
44.080909743196536
 20
4.091203620790456
 10
44.10308806931177
 20
4.101693187831184
 10
44.12618775808942
 20
4.109958388636418
 10
44.149986346899006
 20
4.115919624804167
 10
44.17425464232065
 20
4.119519486371413
 10
44.19875892740304
 20
4.120723304703365
 10
44.22326321248543
 20
4.119519486371413
 10
44.24753150790707
 20
4.115919624804167
 10
44.27133009671665
 20
4.109958388636418
 10
44.29442978549431
 20
4.101693187831184
 10
44.31660811160954
 20
4.091203620790456
 10
44.337651485657936
 20
4.078590707779004
 10
44.35735724844395
 20
4.063975918044047
 10
44.37553562269967
 20
4.047500000000003
 10
44.392011540743724
 20
4.029321625744277
 10
44.40662633047867
 20
4.009615862958267
 10
44.419239243490125
 20
3.9885724889098633
 10
44.42972881053086
 20
3.9663941627946393
 10
44.43799401133609
 20
3.9432944740169766
 10
44.443955247503844
 20
3.919495885207393
 10
44.44755510907109
 20
3.895227589785751
 10
44.44875892740304
 20
3.8707233047033647
 10
44.44755510907109
 20
3.846219019620971
 10
44.443955247503844
 20
3.821950724199329
 10
44.43799401133609
 20
3.7981521353897456
 10
44.42972881053086
 20
3.77505244661209
 10
44.419239243490125
 20
3.752874120496866
 10
44.40662633047867
 20
3.7318307464484626
 10
44.392011540743724
 20
3.712124983662452
 10
44.37553562269967
 20
3.6939466094067264
 10
44.37553562269967
 20
0.047500000000002984
 10
45.17553562269968
 20
0.047500000000002984
 10
45.233361882448456
 20
0.044144866764437296
 10
45.290412082973354
 20
0.03412449473386303
 10
45.34592058017886
 20
0.017573362641211787
 10
45.39914242044966
 20
-0.0052864045000440285
 10
45.449363338325135
 20
-0.03414801643192433
 10
45.49590934232256
 20
-0.06862413494073749
 10
45.53815576026196
 20
-0.10825207214231014
 10
45.575535622699675
 20
-0.15249999999999986
 10
41.575535622699675
 20
-0.15249999999999986
  0
LWPOLYLINE
  5
3C
330
17
100
AcDbEntity
  8
BRACKET_CUTS
100
AcDbPolyline
 90
2
 70
0
 10
42.17553562269968
 20
39.8725
 10
42.17553562269968
 20
41.4725
  0
LWPOLYLINE
  5
3D
330
17
100
AcDbEntity
  8
BRACKET_CUTS
100
AcDbPolyline
 90
2
 70
0
 10
42.17553562269968
 20
24.2475
 10
42.17553562269968
 20
25.8475
  0
LWPOLYLINE
  5
3E
330
17
100
AcDbEntity
  8
BRACKET_CUTS
100
AcDbPolyline
 90
2
 70
0
 10
42.17553562269968
 20
7.997500000000006
 10
42.17553562269968
 20
9.5975
  0
LWPOLYLINE
  5
3F
330
17
100
AcDbEntity
  8
BRACKET_CUTS
100
AcDbPolyline
 90
2
 70
0
 10
53.975535622699674
 20
47.647499999999994
 10
55.57553562269967
 20
47.647499999999994
  0
LWPOLYLINE
  5
40
330
17
100
AcDbEntity
  8
BRACKET_CUTS
100
AcDbPolyline
 90
2
 70
0
 10
55.57553562269967
 20
0.047500000000002984
 10
53.975535622699674
 20
0.047500000000002984
  0
LWPOLYLINE
  5
41
330
17
100
AcDbEntity
  8
BRACKET_CUTS
100
AcDbPolyline
 90
2
 70
0
 10
42.77553562269968
 20
47.647499999999994
 10
44.37553562269967
 20
47.647499999999994
  0
LWPOLYLINE
  5
42
330
17
100
AcDbEntity
  8
BRACKET_CUTS
100
AcDbPolyline
 90
2
 70
0
 10
44.37553562269967
 20
0.047500000000002984
 10
42.77553562269968
 20
0.047500000000002984
  0
LWPOLYLINE
  5
43
330
17
100
AcDbEntity
  8
SHELF_OUTLINE
100
AcDbPolyline
 90
120
 70
1
 10
41.13063862907313
 20
-0.05900000000000105
 10
41.13063862907313
 20
47.941
 10
36.88063862907313
 20
47.941
 10
36.88063862907313
 20
45.941
 10
36.8560153102634
 20
45.62813106991953
 10
36.78275166166344
 20
45.3229660112501
 10
36.66265167744986
 20
45.03301900052091
 10
36.49867261782302
 20
44.76542949541505
 10
36.294852191446225
 20
44.52678643762691
 10
36.05620913365807
 20
44.3229660112501
 10
35.788619628552226
 20
44.15898695162326
 10
35.49867261782302
 20
44.038886967409695
 10
35.19350755915359
 20
43.96562331880972
 10
34.88063862907313
 20
43.941
 10
32.38063862907313
 20
43.941
 10
32.06776969899266
 20
43.96562331880972
 10
31.762604640323236
 20
44.038886967409695
 10
31.472657629594035
 20
44.15898695162326
 10
31.205068124488182
 20
44.3229660112501
 10
30.966425066700037
 20
44.52678643762691
 10
30.762604640323236
 20
44.76542949541505
 10
30.598625580696396
 20
45.03301900052091
 10
30.47852559648282
 20
45.3229660112501
 10
30.405261947882853
 20
45.62813106991953
 10
30.38063862907313
 20
45.941
 10
30.38063862907313
 20
47.941
 10
21.916359044291816
 20
47.941
 10
21.916359044291816
 20
39.821562387464496
 10
21.916359044291816
 20
39.821562387464496
 10
22.00404093769239
 20
39.7066563175747
 10
22.086086534859515
 20
39.5876603541418
 10
22.16230538499552
 20
39.46485072010695
 10
22.23252056281365
 20
39.338512491008245
 10
22.29656907923119
 20
39.20893893324069
 10
22.354302259712735
 20
39.076430823302786
 10
22.4055860893854
 20
38.94129574961008
 10
22.450301524124882
 20
38.803847398496316
 10
22.48834476689016
 20
38.66440482605974
 10
22.51962750866552
 20
38.52329171754445
 10
22.544077133450457
 20
38.38083563597647
 10
22.561636886821784
 20
38.237367261798155
 10
22.572266007676507
 20
38.093219625266414
 10
22.57593982284976
 20
37.94872733339622
 10
22.572649804388135
 20
37.80422579324403
 10
22.562403589345436
 20
37.660050433334206
 10
22.545224962054956
 20
37.51653592503541
 10
22.521153798919368
 20
37.37401540569476
 10
22.490245975846435
 20
37.23281970533273
 10
22.490245975846435
 20
37.23281970533273
 10
22.351530895681336
 20
36.67851048471425
 10
22.208172163367575
 20
36.12420126409576
 10
22.06318350181887
 20
35.56989204347727
 10
21.919612898726538
 20
35.015582822858775
 10
21.780478531004473
 20
34.4612736022403
 10
21.64870531592364
 20
33.906964381621805
 10
21.527063422773985
 20
33.35265516100331
 10
21.418110037676886
 20
32.798345940384834
 10
21.324135605782732
 20
32.24403671976634
 10
21.247115680963482
 20
31.689727499147853
 10
21.188669395227997
 20
31.135418278529364
 10
21.1500254209264
 20
30.581109057910876
 10
21.131996141294437
 20
30.02679983729239
 10
21.13496057233111
 20
29.4724906166739
 10
21.15885639503013
 20
28.918181396055413
 10
21.203181265465545
 20
28.363872175436924
 10
21.267003375190658
 20
27.809562954818436
 10
21.348981039946853
 20
27.25525373419995
 10
21.44739090488368
 20
26.700944513581458
 10
21.56016417335298
 20
26.146635292962973
 10
21.6849300976664
 20
25.592326072344484
 10
21.819065817542697
 20
25.038016851725995
 10
21.959751498528735
 20
24.48370763110751
 10
22.104029611260422
 20
23.929398410489018
 10
22.24886710538031
 20
23.375089189870533
 10
22.391219171076354
 20
22.820779969252044
 10
22.528093247830764
 20
22.266470748633555
 10
22.656611934771277
 20
21.712161528015066
 10
22.774073480107678
 20
21.157852307396578
 10
22.87800857802966
 20
20.603543086778092
 10
22.966232279067533
 20
20.049233866159604
 10
23.036889922643184
 20
19.494924645541115
 10
23.088496126205893
 20
18.940615424922626
 10
23.11996601131361
 20
18.386306204304137
 10
23.130638010217314
 20
17.831996983685652
 10
23.120287773502685
 20
17.277687763067163
 10
23.0891328864193
 20
16.723378542448675
 10
23.037828294749406
 20
16.169069321830186
 10
22.967452536374843
 20
15.614760101211697
 10
22.87948506798556
 20
15.060450880593212
 10
22.77577516357321
 20
14.506141659974727
 10
22.65850303853355
 20
13.951832439356235
 10
22.530134016636303
 20
13.397523218737742
 10
22.393366703375932
 20
12.843213998119257
 10
22.251076255215995
 20
12.288904777500772
 10
22.106253937335108
 20
11.73459555688228
 10
21.961944240506654
 20
11.180286336263794
 10
21.821180879056808
 20
10.62597711564531
 10
21.686923015367686
 20
10.071667895026817
 10
21.686923015367686
 20
10.071667895026817
 10
21.666165217175166
 20
9.988547956454024
 10
21.64304242232372
 20
9.906054643195294
 10
21.61757348824997
 20
9.824255231392446
 10
21.589779185747968
 20
9.743216431286736
 10
21.55968218202992
 20
9.663004332814364
 10
21.527307022240283
 20
9.583684351707834
 10
21.49268010943836
 20
9.50532117614716
 10
21.455829683065684
 20
9.427978714004443
 10
21.416785795915782
 20
9.351720040724796
 10
21.3755802896251
 20
9.276607347886145
 10
21.332246768705023
 20
9.202701892479833
 10
21.28682057313627
 20
9.130063946953438
 10
21.239338749547894
 20
9.058752750056552
 10
21.189840021004485
 20
8.988826458529456
 10
21.138364755426192
 20
8.920342099674397
 10
21.084954932667262
 20
8.853355524847753
 10
21.029654110280052
 20
8.787921363911405
 10
20.97250738799233
 20
8.724092980680158
 10
20.91356137092687
 20
8.661922429401724
 10
20.91356137092687
 20
-0.05900000000000105
 10
41.13063862907313
 20
-0.05900000000000105
  0
LWPOLYLINE
  5
44
330
17
100
AcDbEntity
  8
BRACKET_OUTLINE
100
AcDbPolyline
 90
87
 70
1
 10
41.13063862907313
 20
5.115999999999996
 10
41.086390701215436
 20
5.1533798624377205
 10
41.04676276401386
 20
5.195626280377116
 10
41.01228664550506
 20
5.2421722843745435
 10
40.98342503357317
 20
5.292393202250022
 10
40.960565266431914
 20
5.345615042520816
 10
40.94401413433927
 20
5.401123539726317
 10
40.93399376230869
 20
5.458173740251215
 10
40.93063862907313
 20
5.516000000000002
 10
40.93063862907313
 20
6.315999999999999
 10
31.284192019666403
 20
6.315999999999999
 10
31.266013645410677
 20
6.299524081955948
 10
31.246307882624667
 20
6.284909292220998
 10
31.225264508576263
 20
6.272296379209546
 10
31.20308618246104
 20
6.26180681216881
 10
31.179986493683383
 20
6.253541611363584
 10
31.1561879048738
 20
6.247580375195827
 10
31.131919609452158
 20
6.243980513628582
 10
31.107415324369764
 20
6.242776695296637
 10
31.082911039287378
 20
6.243980513628582
 10
31.058642743865736
 20
6.247580375195827
 10
31.034844155056152
 20
6.253541611363584
 10
31.011744466278497
 20
6.26180681216881
 10
30.989566140163266
 20
6.272296379209546
 10
30.96852276611487
 20
6.284909292220998
 10
30.948817003328852
 20
6.299524081955948
 10
30.930638629073126
 20
6.315999999999999
 10
30.914162711029082
 20
6.334178374255725
 10
30.899547921294126
 20
6.353884137041735
 10
30.886935008282673
 20
6.374927511090132
 10
30.876445441241945
 20
6.397105837205363
 10
30.86818024043671
 20
6.420205525983018
 10
30.86221900426896
 20
6.444004114792602
 10
30.858619142701716
 20
6.468272410214244
 10
30.857415324369764
 20
6.492776695296637
 10
30.858619142701716
 20
6.517280980379024
 10
30.86221900426896
 20
6.541549275800666
 10
30.86818024043671
 20
6.565347864610249
 10
30.876445441241945
 20
6.588447553387905
 10
30.886935008282673
 20
6.610625879503136
 10
30.899547921294126
 20
6.631669253551532
 10
30.914162711029082
 20
6.651375016337543
 10
30.930638629073126
 20
6.6695533905932685
 10
30.930638629073126
 20
7.562446609406724
 10
30.914162711029082
 20
7.5806249836624495
 10
30.899547921294126
 20
7.60033074644846
 10
30.886935008282673
 20
7.6213741204968635
 10
30.876445441241945
 20
7.643552446612087
 10
30.86818024043671
 20
7.666652135389743
 10
30.86221900426896
 20
7.6904507241993265
 10
30.858619142701716
 20
7.7147190196209685
 10
30.857415324369764
 20
7.739223304703362
 10
30.858619142701716
 20
7.7637275897857485
 10
30.86221900426896
 20
7.7879958852073905
 10
30.86818024043671
 20
7.811794474016974
 10
30.876445441241945
 20
7.834894162794637
 10
30.886935008282673
 20
7.857072488909861
 10
30.899547921294126
 20
7.878115862958264
 10
30.914162711029082
 20
7.897821625744275
 10
30.930638629073126
 20
7.916
 10
30.948817003328852
 20
7.9324759180440445
 10
30.96852276611487
 20
7.947090707778994
 10
30.989566140163266
 20
7.959703620790446
 10
31.011744466278497
 20
7.970193187831182
 10
31.034844155056152
 20
7.978458388636415
 10
31.058642743865736
 20
7.984419624804172
 10
31.082911039287378
 20
7.98801948637141
 10
31.107415324369764
 20
7.989223304703362
 10
31.131919609452158
 20
7.98801948637141
 10
31.1561879048738
 20
7.984419624804172
 10
31.179986493683383
 20
7.978458388636415
 10
31.20308618246104
 20
7.970193187831182
 10
31.225264508576263
 20
7.959703620790446
 10
31.246307882624667
 20
7.947090707778994
 10
31.266013645410677
 20
7.9324759180440445
 10
31.284192019666403
 20
7.916
 10
40.93063862907313
 20
7.916
 10
40.93063862907313
 20
8.715999999999998
 10
40.93399376230869
 20
8.773826259748784
 10
40.94401413433927
 20
8.830876460273682
 10
40.960565266431914
 20
8.886384957479184
 10
40.98342503357317
 20
8.939606797749978
 10
41.01228664550506
 20
8.989827715625456
 10
41.04676276401386
 20
9.036373719622883
 10
41.086390701215436
 20
9.078620137562279
 10
41.13063862907313
 20
9.115999999999996
 10
41.13063862907313
 20
5.115999999999996
  0
LWPOLYLINE
  5
45
330
17
100
AcDbEntity
  8
BRACKET_OUTLINE
100
AcDbPolyline
 90
87
 70
1
 10
41.13063862907313
 20
20.741
 10
41.086390701215436
 20
20.77837986243772
 10
41.04676276401386
 20
20.820626280377116
 10
41.01228664550506
 20
20.867172284374544
 10
40.98342503357317
 20
20.91739320225002
 10
40.960565266431914
 20
20.970615042520812
 10
40.94401413433927
 20
21.026123539726317
 10
40.93399376230869
 20
21.083173740251215
 10
40.93063862907313
 20
21.141
 10
40.93063862907313
 20
21.941
 10
31.284192019666403
 20
21.941
 10
31.266013645410677
 20
21.92452408195595
 10
31.246307882624667
 20
21.909909292221
 10
31.225264508576263
 20
21.897296379209546
 10
31.20308618246104
 20
21.886806812168814
 10
31.179986493683383
 20
21.878541611363584
 10
31.1561879048738
 20
21.872580375195827
 10
31.131919609452158
 20
21.868980513628586
 10
31.107415324369764
 20
21.867776695296634
 10
31.082911039287378
 20
21.868980513628586
 10
31.058642743865736
 20
21.872580375195827
 10
31.034844155056152
 20
21.878541611363584
 10
31.011744466278497
 20
21.886806812168814
 10
30.989566140163266
 20
21.897296379209546
 10
30.96852276611487
 20
21.909909292221
 10
30.948817003328852
 20
21.92452408195595
 10
30.930638629073126
 20
21.941
 10
30.914162711029082
 20
21.959178374255725
 10
30.899547921294126
 20
21.978884137041735
 10
30.886935008282673
 20
21.999927511090135
 10
30.876445441241945
 20
22.022105837205363
 10
30.86818024043671
 20
22.045205525983018
 10
30.86221900426896
 20
22.0690041147926
 10
30.858619142701716
 20
22.093272410214244
 10
30.857415324369764
 20
22.117776695296634
 10
30.858619142701716
 20
22.142280980379024
 10
30.86221900426896
 20
22.166549275800666
 10
30.86818024043671
 20
22.19034786461025
 10
30.876445441241945
 20
22.21344755338791
 10
30.886935008282673
 20
22.235625879503136
 10
30.899547921294126
 20
22.256669253551536
 10
30.914162711029082
 20
22.276375016337546
 10
30.930638629073126
 20
22.294553390593272
 10
30.930638629073126
 20
23.187446609406724
 10
30.914162711029082
 20
23.20562498366245
 10
30.899547921294126
 20
23.22533074644846
 10
30.886935008282673
 20
23.246374120496863
 10
30.876445441241945
 20
23.268552446612087
 10
30.86818024043671
 20
23.291652135389747
 10
30.86221900426896
 20
23.31545072419933
 10
30.858619142701716
 20
23.339719019620972
 10
30.857415324369764
 20
23.364223304703362
 10
30.858619142701716
 20
23.388727589785752
 10
30.86221900426896
 20
23.412995885207394
 10
30.86818024043671
 20
23.436794474016978
 10
30.876445441241945
 20
23.459894162794633
 10
30.886935008282673
 20
23.48207248890986
 10
30.899547921294126
 20
23.50311586295826
 10
30.914162711029082
 20
23.522821625744275
 10
30.930638629073126
 20
23.540999999999997
 10
30.948817003328852
 20
23.557475918044045
 10
30.96852276611487
 20
23.572090707778997
 10
30.989566140163266
 20
23.58470362079045
 10
31.011744466278497
 20
23.595193187831182
 10
31.034844155056152
 20
23.603458388636415
 10
31.058642743865736
 20
23.60941962480417
 10
31.082911039287378
 20
23.61301948637141
 10
31.107415324369764
 20
23.614223304703362
 10
31.131919609452158
 20
23.61301948637141
 10
31.1561879048738
 20
23.60941962480417
 10
31.179986493683383
 20
23.603458388636415
 10
31.20308618246104
 20
23.595193187831182
 10
31.225264508576263
 20
23.58470362079045
 10
31.246307882624667
 20
23.572090707778997
 10
31.266013645410677
 20
23.557475918044045
 10
31.284192019666403
 20
23.540999999999997
 10
40.93063862907313
 20
23.541
 10
40.93063862907313
 20
24.341
 10
40.93399376230869
 20
24.398826259748784
 10
40.94401413433927
 20
24.45587646027368
 10
40.960565266431914
 20
24.511384957479187
 10
40.98342503357317
 20
24.564606797749978
 10
41.01228664550506
 20
24.614827715625456
 10
41.04676276401386
 20
24.661373719622883
 10
41.086390701215436
 20
24.70362013756228
 10
41.13063862907313
 20
24.741
 10
41.13063862907313
 20
20.741
  0
LWPOLYLINE
  5
46
330
17
100
AcDbEntity
  8
BRACKET_OUTLINE
100
AcDbPolyline
 90
87
 70
1
 10
41.13063862907313
 20
36.991
 10
41.086390701215436
 20
37.02837986243772
 10
41.04676276401386
 20
37.07062628037711
 10
41.01228664550506
 20
37.11717228437453
 10
40.98342503357317
 20
37.16739320225001
 10
40.960565266431914
 20
37.220615042520805
 10
40.94401413433927
 20
37.27612353972631
 10
40.93399376230869
 20
37.33317374025121
 10
40.93063862907313
 20
37.39099999999999
 10
40.93063862907313
 20
38.191
 10
31.284192019666403
 20
38.19099999999999
 10
31.266013645410677
 20
38.17452408195595
 10
31.246307882624667
 20
38.159909292221
 10
31.225264508576263
 20
38.14729637920955
 10
31.20308618246104
 20
38.136806812168814
 10
31.179986493683383
 20
38.12854161136357
 10
31.1561879048738
 20
38.122580375195824
 10
31.131919609452158
 20
38.118980513628586
 10
31.107415324369764
 20
38.11777669529663
 10
31.082911039287378
 20
38.118980513628586
 10
31.058642743865736
 20
38.122580375195824
 10
31.034844155056152
 20
38.12854161136357
 10
31.011744466278497
 20
38.136806812168814
 10
30.989566140163266
 20
38.14729637920955
 10
30.96852276611487
 20
38.159909292221
 10
30.948817003328852
 20
38.17452408195595
 10
30.930638629073126
 20
38.19099999999999
 10
30.914162711029082
 20
38.209178374255714
 10
30.899547921294126
 20
38.22888413704173
 10
30.886935008282673
 20
38.249927511090135
 10
30.876445441241945
 20
38.27210583720536
 10
30.86818024043671
 20
38.29520552598302
 10
30.86221900426896
 20
38.319004114792605
 10
30.858619142701716
 20
38.34327241021424
 10
30.857415324369764
 20
38.36777669529663
 10
30.858619142701716
 20
38.39228098037903
 10
30.86221900426896
 20
38.41654927580066
 10
30.86818024043671
 20
38.440347864610246
 10
30.876445441241945
 20
38.46344755338791
 10
30.886935008282673
 20
38.48562587950313
 10
30.899547921294126
 20
38.506669253551536
 10
30.914162711029082
 20
38.52637501633754
 10
30.930638629073126
 20
38.544553390593265
 10
30.930638629073126
 20
39.43744660940672
 10
30.914162711029082
 20
39.455624983662446
 10
30.899547921294126
 20
39.47533074644846
 10
30.886935008282673
 20
39.49637412049685
 10
30.876445441241945
 20
39.51855244661209
 10
30.86818024043671
 20
39.54165213538974
 10
30.86221900426896
 20
39.56545072419932
 10
30.858619142701716
 20
39.58971901962097
 10
30.857415324369764
 20
39.61422330470336
 10
30.858619142701716
 20
39.638727589785745
 10
30.86221900426896
 20
39.662995885207394
 10
30.86818024043671
 20
39.68679447401698
 10
30.876445441241945
 20
39.709894162794626
 10
30.886935008282673
 20
39.732072488909864
 10
30.899547921294126
 20
39.75311586295825
 10
30.914162711029082
 20
39.77282162574427
 10
30.930638629073126
 20
39.791
 10
30.948817003328852
 20
39.80747591804405
 10
30.96852276611487
 20
39.822090707779
 10
30.989566140163266
 20
39.83470362079045
 10
31.011744466278497
 20
39.845193187831185
 10
31.034844155056152
 20
39.85345838863641
 10
31.058642743865736
 20
39.85941962480416
 10
31.082911039287378
 20
39.863019486371414
 10
31.107415324369764
 20
39.86422330470336
 10
31.131919609452158
 20
39.863019486371414
 10
31.1561879048738
 20
39.85941962480416
 10
31.179986493683383
 20
39.85345838863641
 10
31.20308618246104
 20
39.845193187831185
 10
31.225264508576263
 20
39.83470362079045
 10
31.246307882624667
 20
39.822090707779
 10
31.266013645410677
 20
39.80747591804405
 10
31.284192019666403
 20
39.791
 10
40.93063862907313
 20
39.791
 10
40.93063862907313
 20
40.590999999999994
 10
40.93399376230869
 20
40.64882625974877
 10
40.94401413433927
 20
40.70587646027367
 10
40.960565266431914
 20
40.76138495747918
 10
40.98342503357317
 20
40.814606797749974
 10
41.01228664550506
 20
40.86482771562545
 10
41.04676276401386
 20
40.91137371962289
 10
41.086390701215436
 20
40.95362013756228
 10
41.13063862907313
 20
40.991
 10
41.13063862907313
 20
36.991
  0
LWPOLYLINE
  5
47
330
17
100
AcDbEntity
  8
BRACKET_OUTLINE
100
AcDbPolyline
 90
87
 70
1
 10
26.330638629073132
 20
-0.05900000000000105
 10
26.36801849151085
 20
-0.014752072142311334
 10
26.410264909450245
 20
0.024875865059261315
 10
26.456810913447672
 20
0.05935198356807447
 10
26.50703183132315
 20
0.08821359549995478
 10
26.560253671593944
 20
0.1110733626412106
 10
26.615762168799453
 20
0.12762449473386184
 10
26.67281236932435
 20
0.1376448667644361
 10
26.73063862907313
 20
0.1410000000000018
 10
27.530638629073135
 20
0.1410000000000018
 10
27.530638629073135
 20
9.787446609406725
 10
27.514162711029083
 20
9.805624983662451
 10
27.499547921294134
 20
9.825330746448461
 10
27.486935008282682
 20
9.846374120496865
 10
27.476445441241946
 20
9.868552446612089
 10
27.46818024043672
 20
9.891652135389744
 10
27.462219004268963
 20
9.915450724199328
 10
27.458619142701718
 20
9.93971901962097
 10
27.457415324369766
 20
9.964223304703363
 10
27.458619142701718
 20
9.98872758978575
 10
27.462219004268963
 20
10.012995885207392
 10
27.46818024043672
 20
10.036794474016975
 10
27.476445441241946
 20
10.059894162794631
 10
27.486935008282682
 20
10.082072488909862
 10
27.499547921294134
 20
10.103115862958258
 10
27.514162711029083
 20
10.122821625744276
 10
27.530638629073135
 20
10.141000000000002
 10
27.54881700332886
 20
10.157475918044046
 10
27.56852276611487
 20
10.172090707779002
 10
27.589566140163267
 20
10.184703620790454
 10
27.6117444662785
 20
10.195193187831183
 10
27.634844155056154
 20
10.203458388636417
 10
27.658642743865737
 20
10.209419624804166
 10
27.68291103928738
 20
10.213019486371412
 10
27.707415324369766
 20
10.214223304703363
 10
27.73191960945216
 20
10.213019486371412
 10
27.7561879048738
 20
10.209419624804166
 10
27.779986493683385
 20
10.203458388636417
 10
27.80308618246104
 20
10.195193187831183
 10
27.82526450857627
 20
10.184703620790454
 10
27.846307882624668
 20
10.172090707779002
 10
27.86601364541068
 20
10.157475918044046
 10
27.884192019666404
 20
10.141000000000002
 10
28.77708523847986
 20
10.141000000000002
 10
28.795263612735585
 20
10.157475918044046
 10
28.814969375521596
 20
10.172090707779002
 10
28.83601274957
 20
10.184703620790454
 10
28.858191075685223
 20
10.195193187831183
 10
28.88129076446288
 20
10.203458388636417
 10
28.905089353272462
 20
10.209419624804166
 10
28.929357648694104
 20
10.213019486371412
 10
28.953861933776498
 20
10.214223304703363
 10
28.978366218858884
 20
10.213019486371412
 10
29.002634514280526
 20
10.209419624804166
 10
29.02643310309011
 20
10.203458388636417
 10
29.049532791867765
 20
10.195193187831183
 10
29.071711117982996
 20
10.184703620790454
 10
29.092754492031393
 20
10.172090707779002
 10
29.11246025481741
 20
10.157475918044046
 10
29.13063862907313
 20
10.141000000000002
 10
29.14711454711718
 20
10.122821625744276
 10
29.16172933685213
 20
10.103115862958258
 10
29.17434224986358
 20
10.082072488909862
 10
29.184831816904317
 20
10.059894162794631
 10
29.19309701770955
 20
10.036794474016975
 10
29.1990582538773
 20
10.012995885207392
 10
29.202658115444546
 20
9.98872758978575
 10
29.203861933776498
 20
9.964223304703363
 10
29.202658115444546
 20
9.93971901962097
 10
29.1990582538773
 20
9.915450724199328
 10
29.19309701770955
 20
9.891652135389744
 10
29.184831816904317
 20
9.868552446612089
 10
29.17434224986358
 20
9.846374120496865
 10
29.16172933685213
 20
9.825330746448461
 10
29.14711454711718
 20
9.805624983662451
 10
29.13063862907313
 20
9.787446609406725
 10
29.13063862907313
 20
0.1410000000000018
 10
29.930638629073133
 20
0.1410000000000018
 10
29.988464888821913
 20
0.1376448667644361
 10
30.04551508934681
 20
0.12762449473386184
 10
30.10102358655232
 20
0.1110733626412106
 10
30.154245426823113
 20
0.08821359549995478
 10
30.20446634469859
 20
0.05935198356807447
 10
30.25101234869602
 20
0.024875865059261315
 10
30.293258766635415
 20
-0.014752072142311334
 10
30.330638629073132
 20
-0.05900000000000105
 10
26.330638629073132
 20
-0.05900000000000105
  0
LWPOLYLINE
  5
48
330
17
100
AcDbEntity
  8
BRACKET_OUTLINE
100
AcDbPolyline
 90
87
 70
1
 10
30.330638629073132
 20
47.941
 10
30.293258766635415
 20
47.896752072142306
 10
30.25101234869602
 20
47.85712413494073
 10
30.20446634469859
 20
47.82264801643193
 10
30.154245426823113
 20
47.79378640450004
 10
30.10102358655232
 20
47.770926637358784
 10
30.04551508934681
 20
47.75437550526614
 10
29.988464888821913
 20
47.74435513323556
 10
29.930638629073133
 20
47.741
 10
29.13063862907313
 20
47.741
 10
29.130638629073136
 20
38.094553390593276
 10
29.14711454711718
 20
38.07637501633755
 10
29.16172933685213
 20
38.05666925355153
 10
29.17434224986358
 20
38.03562587950313
 10
29.184831816904317
 20
38.013447553387905
 10
29.19309701770955
 20
37.99034786461026
 10
29.1990582538773
 20
37.96654927580067
 10
29.202658115444546
 20
37.942280980379024
 10
29.203861933776498
 20
37.91777669529664
 10
29.202658115444546
 20
37.89327241021425
 10
29.1990582538773
 20
37.8690041147926
 10
29.19309701770955
 20
37.84520552598302
 10
29.184831816904317
 20
37.82210583720537
 10
29.17434224986358
 20
37.79992751109013
 10
29.16172933685213
 20
37.77888413704174
 10
29.14711454711718
 20
37.759178374255725
 10
29.130638629073136
 20
37.741
 10
29.11246025481741
 20
37.72452408195595
 10
29.0927544920314
 20
37.709909292221
 10
29.071711117982996
 20
37.69729637920955
 10
29.049532791867765
 20
37.68680681216881
 10
29.02643310309011
 20
37.678541611363585
 10
29.002634514280526
 20
37.672580375195835
 10
28.978366218858884
 20
37.66898051362858
 10
28.953861933776498
 20
37.66777669529664
 10
28.929357648694104
 20
37.66898051362858
 10
28.905089353272462
 20
37.672580375195835
 10
28.88129076446288
 20
37.678541611363585
 10
28.858191075685223
 20
37.68680681216881
 10
28.83601274957
 20
37.69729637920955
 10
28.814969375521596
 20
37.709909292221
 10
28.795263612735585
 20
37.72452408195595
 10
28.77708523847986
 20
37.741
 10
27.884192019666404
 20
37.741
 10
27.86601364541068
 20
37.72452408195595
 10
27.846307882624668
 20
37.709909292221
 10
27.82526450857627
 20
37.69729637920955
 10
27.80308618246104
 20
37.68680681216881
 10
27.779986493683385
 20
37.678541611363585
 10
27.7561879048738
 20
37.672580375195835
 10
27.73191960945216
 20
37.66898051362858
 10
27.707415324369766
 20
37.66777669529664
 10
27.68291103928738
 20
37.66898051362858
 10
27.658642743865737
 20
37.672580375195835
 10
27.634844155056154
 20
37.678541611363585
 10
27.6117444662785
 20
37.68680681216881
 10
27.589566140163267
 20
37.69729637920955
 10
27.56852276611487
 20
37.709909292221
 10
27.54881700332886
 20
37.72452408195595
 10
27.530638629073135
 20
37.741
 10
27.514162711029083
 20
37.759178374255725
 10
27.499547921294134
 20
37.77888413704174
 10
27.486935008282682
 20
37.79992751109013
 10
27.476445441241946
 20
37.82210583720537
 10
27.46818024043672
 20
37.84520552598302
 10
27.462219004268963
 20
37.8690041147926
 10
27.458619142701718
 20
37.89327241021425
 10
27.457415324369766
 20
37.91777669529664
 10
27.458619142701718
 20
37.942280980379024
 10
27.462219004268963
 20
37.96654927580067
 10
27.46818024043672
 20
37.99034786461026
 10
27.476445441241946
 20
38.013447553387905
 10
27.486935008282682
 20
38.03562587950313
 10
27.499547921294134
 20
38.05666925355153
 10
27.514162711029083
 20
38.07637501633755
 10
27.530638629073135
 20
38.094553390593276
 10
27.530638629073135
 20
47.741
 10
26.73063862907313
 20
47.741
 10
26.67281236932435
 20
47.74435513323556
 10
26.615762168799453
 20
47.75437550526614
 10
26.560253671593944
 20
47.770926637358784
 10
26.50703183132315
 20
47.79378640450004
 10
26.456810913447672
 20
47.82264801643193
 10
26.410264909450245
 20
47.85712413494073
 10
26.36801849151085
 20
47.896752072142306
 10
26.330638629073132
 20
47.941
 10
30.330638629073132
 20
47.941
  0
LWPOLYLINE
  5
49
330
17
100
AcDbEntity
  8
BRACKET_OUTLINE
100
AcDbPolyline
 90
87
 70
1
 10
37.530638629073124
 20
-0.05900000000000105
 10
37.56801849151084
 20
-0.014752072142311334
 10
37.61026490945025
 20
0.024875865059261315
 10
37.65681091344767
 20
0.05935198356807447
 10
37.70703183132315
 20
0.08821359549995478
 10
37.760253671593944
 20
0.1110733626412106
 10
37.81576216879945
 20
0.12762449473386184
 10
37.87281236932435
 20
0.1376448667644361
 10
37.93063862907313
 20
0.1410000000000018
 10
38.73063862907313
 20
0.1410000000000018
 10
38.73063862907313
 20
3.787446609406725
 10
38.714162711029076
 20
3.805624983662451
 10
38.699547921294126
 20
3.8253307464484614
 10
38.686935008282674
 20
3.846374120496865
 10
38.67644544124194
 20
3.868552446612089
 10
38.66818024043671
 20
3.8916521353897444
 10
38.66221900426896
 20
3.915450724199328
 10
38.65861914270171
 20
3.93971901962097
 10
38.657415324369765
 20
3.9642233047033635
 10
38.65861914270171
 20
3.98872758978575
 10
38.66221900426896
 20
4.012995885207392
 10
38.66818024043671
 20
4.036794474016975
 10
38.67644544124194
 20
4.059894162794638
 10
38.686935008282674
 20
4.082072488909862
 10
38.699547921294126
 20
4.103115862958266
 10
38.714162711029076
 20
4.122821625744276
 10
38.73063862907313
 20
4.141000000000002
 10
38.74881700332885
 20
4.157475918044046
 10
38.76852276611487
 20
4.172090707779002
 10
38.78956614016326
 20
4.184703620790454
 10
38.8117444662785
 20
4.195193187831183
 10
38.834844155056146
 20
4.203458388636417
 10
38.85864274386573
 20
4.209419624804166
 10
38.88291103928738
 20
4.213019486371412
 10
38.907415324369765
 20
4.2142233047033635
 10
38.93191960945215
 20
4.213019486371412
 10
38.9561879048738
 20
4.209419624804166
 10
38.979986493683384
 20
4.203458388636417
 10
39.00308618246103
 20
4.195193187831183
 10
39.02526450857627
 20
4.184703620790454
 10
39.04630788262466
 20
4.172090707779002
 10
39.06601364541068
 20
4.157475918044046
 10
39.0841920196664
 20
4.141000000000002
 10
39.97708523847986
 20
4.141000000000002
 10
39.995263612735585
 20
4.157475918044046
 10
40.01496937552159
 20
4.172090707779002
 10
40.03601274956999
 20
4.184703620790454
 10
40.058191075685215
 20
4.195193187831183
 10
40.08129076446288
 20
4.203458388636417
 10
40.10508935327246
 20
4.209419624804166
 10
40.129357648694096
 20
4.213019486371412
 10
40.1538619337765
 20
4.2142233047033635
 10
40.17836621885888
 20
4.213019486371412
 10
40.20263451428052
 20
4.209419624804166
 10
40.2264331030901
 20
4.203458388636417
 10
40.249532791867765
 20
4.195193187831183
 10
40.27171111798299
 20
4.184703620790454
 10
40.29275449203139
 20
4.172090707779002
 10
40.312460254817395
 20
4.157475918044046
 10
40.33063862907312
 20
4.141000000000002
 10
40.34711454711717
 20
4.122821625744276
 10
40.36172933685212
 20
4.103115862958266
 10
40.374342249863574
 20
4.082072488909862
 10
40.38483181690431
 20
4.059894162794638
 10
40.39309701770955
 20
4.036794474016975
 10
40.3990582538773
 20
4.012995885207392
 10
40.40265811544454
 20
3.98872758978575
 10
40.4038619337765
 20
3.9642233047033635
 10
40.40265811544454
 20
3.93971901962097
 10
40.3990582538773
 20
3.915450724199328
 10
40.39309701770955
 20
3.8916521353897444
 10
40.38483181690431
 20
3.868552446612089
 10
40.374342249863574
 20
3.846374120496865
 10
40.36172933685212
 20
3.8253307464484614
 10
40.34711454711717
 20
3.805624983662451
 10
40.33063862907312
 20
3.787446609406725
 10
40.33063862907312
 20
0.1410000000000018
 10
41.13063862907313
 20
0.1410000000000018
 10
41.18846488882191
 20
0.1376448667644361
 10
41.24551508934681
 20
0.12762449473386184
 10
41.30102358655232
 20
0.1110733626412106
 10
41.35424542682311
 20
0.08821359549995478
 10
41.40446634469859
 20
0.05935198356807447
 10
41.45101234869601
 20
0.024875865059261315
 10
41.49325876663541
 20
-0.014752072142311334
 10
41.530638629073124
 20
-0.05900000000000105
 10
37.530638629073124
 20
-0.05900000000000105
  0
LWPOLYLINE
  5
4A
330
17
100
AcDbEntity
  8
BRACKET_OUTLINE
100
AcDbPolyline
 90
87
 70
1
 10
41.530638629073124
 20
47.941
 10
41.49325876663541
 20
47.896752072142306
 10
41.45101234869601
 20
47.85712413494073
 10
41.40446634469859
 20
47.82264801643193
 10
41.35424542682311
 20
47.79378640450004
 10
41.30102358655232
 20
47.770926637358784
 10
41.24551508934681
 20
47.75437550526614
 10
41.18846488882191
 20
47.74435513323556
 10
41.13063862907313
 20
47.741
 10
40.33063862907312
 20
47.741
 10
40.33063862907312
 20
44.094553390593276
 10
40.34711454711717
 20
44.07637501633755
 10
40.36172933685212
 20
44.05666925355153
 10
40.374342249863574
 20
44.03562587950313
 10
40.38483181690431
 20
44.013447553387905
 10
40.39309701770955
 20
43.99034786461026
 10
40.3990582538773
 20
43.96654927580067
 10
40.40265811544454
 20
43.942280980379024
 10
40.4038619337765
 20
43.91777669529664
 10
40.40265811544454
 20
43.89327241021425
 10
40.3990582538773
 20
43.8690041147926
 10
40.39309701770955
 20
43.84520552598302
 10
40.38483181690431
 20
43.822105837205356
 10
40.374342249863574
 20
43.79992751109013
 10
40.36172933685212
 20
43.77888413704173
 10
40.34711454711717
 20
43.759178374255725
 10
40.33063862907312
 20
43.741
 10
40.312460254817395
 20
43.72452408195595
 10
40.29275449203139
 20
43.709909292221
 10
40.27171111798299
 20
43.69729637920955
 10
40.249532791867765
 20
43.68680681216881
 10
40.2264331030901
 20
43.678541611363585
 10
40.20263451428052
 20
43.672580375195835
 10
40.17836621885888
 20
43.66898051362858
 10
40.1538619337765
 20
43.66777669529664
 10
40.129357648694096
 20
43.66898051362858
 10
40.10508935327246
 20
43.672580375195835
 10
40.08129076446288
 20
43.678541611363585
 10
40.058191075685215
 20
43.68680681216881
 10
40.03601274956999
 20
43.69729637920955
 10
40.01496937552159
 20
43.709909292221
 10
39.995263612735585
 20
43.72452408195595
 10
39.97708523847986
 20
43.741
 10
39.0841920196664
 20
43.741
 10
39.06601364541068
 20
43.72452408195595
 10
39.04630788262466
 20
43.709909292221
 10
39.02526450857627
 20
43.69729637920955
 10
39.00308618246103
 20
43.68680681216881
 10
38.979986493683384
 20
43.678541611363585
 10
38.9561879048738
 20
43.672580375195835
 10
38.93191960945215
 20
43.66898051362858
 10
38.907415324369765
 20
43.66777669529664
 10
38.88291103928738
 20
43.66898051362858
 10
38.85864274386573
 20
43.672580375195835
 10
38.834844155056146
 20
43.678541611363585
 10
38.8117444662785
 20
43.68680681216881
 10
38.78956614016326
 20
43.69729637920955
 10
38.76852276611487
 20
43.709909292221
 10
38.74881700332885
 20
43.72452408195595
 10
38.73063862907313
 20
43.741
 10
38.714162711029076
 20
43.759178374255725
 10
38.699547921294126
 20
43.77888413704173
 10
38.686935008282674
 20
43.79992751109013
 10
38.67644544124194
 20
43.822105837205356
 10
38.66818024043671
 20
43.84520552598302
 10
38.66221900426896
 20
43.8690041147926
 10
38.65861914270171
 20
43.89327241021425
 10
38.657415324369765
 20
43.91777669529664
 10
38.65861914270171
 20
43.942280980379024
 10
38.66221900426896
 20
43.96654927580067
 10
38.66818024043671
 20
43.99034786461026
 10
38.67644544124194
 20
44.013447553387905
 10
38.686935008282674
 20
44.03562587950313
 10
38.699547921294126
 20
44.05666925355153
 10
38.714162711029076
 20
44.07637501633755
 10
38.73063862907313
 20
44.094553390593276
 10
38.73063862907313
 20
47.741
 10
37.93063862907313
 20
47.741
 10
37.87281236932435
 20
47.74435513323556
 10
37.81576216879945
 20
47.75437550526614
 10
37.760253671593944
 20
47.770926637358784
 10
37.70703183132315
 20
47.79378640450004
 10
37.65681091344767
 20
47.82264801643193
 10
37.61026490945024
 20
47.85712413494073
 10
37.56801849151084
 20
47.896752072142306
 10
37.530638629073124
 20
47.941
 10
41.530638629073124
 20
47.941
  0
LWPOLYLINE
  5
4B
330
17
100
AcDbEntity
  8
BRACKET_CUTS
100
AcDbPolyline
 90
2
 70
0
 10
40.93063862907313
 20
7.916
 10
40.93063862907313
 20
6.315999999999999
  0
LWPOLYLINE
  5
4C
330
17
100
AcDbEntity
  8
BRACKET_CUTS
100
AcDbPolyline
 90
2
 70
0
 10
40.93063862907313
 20
23.541
 10
40.93063862907313
 20
21.941
  0
LWPOLYLINE
  5
4D
330
17
100
AcDbEntity
  8
BRACKET_CUTS
100
AcDbPolyline
 90
2
 70
0
 10
40.93063862907313
 20
39.791
 10
40.93063862907313
 20
38.191
  0
LWPOLYLINE
  5
4E
330
17
100
AcDbEntity
  8
BRACKET_CUTS
100
AcDbPolyline
 90
2
 70
0
 10
29.13063862907313
 20
0.1410000000000018
 10
27.530638629073135
 20
0.1410000000000018
  0
LWPOLYLINE
  5
4F
330
17
100
AcDbEntity
  8
BRACKET_CUTS
100
AcDbPolyline
 90
2
 70
0
 10
27.530638629073135
 20
47.741
 10
29.13063862907313
 20
47.741
  0
LWPOLYLINE
  5
50
330
17
100
AcDbEntity
  8
BRACKET_CUTS
100
AcDbPolyline
 90
2
 70
0
 10
40.33063862907312
 20
0.1410000000000018
 10
38.73063862907313
 20
0.1410000000000018
  0
LWPOLYLINE
  5
51
330
17
100
AcDbEntity
  8
BRACKET_CUTS
100
AcDbPolyline
 90
2
 70
0
 10
38.73063862907313
 20
47.741
 10
40.33063862907312
 20
47.741
  0
LWPOLYLINE
  5
52
330
17
100
AcDbEntity
  8
SHELF_OUTLINE
100
AcDbPolyline
 90
96
 70
1
 10
95.7037079833114
 20
-0.09140000000000015
 10
95.7037079833114
 20
47.9086
 10
75.43396682980563
 20
47.9086
 10
75.43396682980563
 20
39.79599202540123
 10
75.43396682980563
 20
39.79599202540123
 10
75.518083376173
 20
39.68675049238335
 10
75.59709188395664
 20
39.57375951218281
 10
75.67082547572386
 20
39.45725773814491
 10
75.73912841543006
 20
39.33749123892093
 10
75.80185643735575
 20
39.214712978735484
 10
75.8588770508167
 20
39.08918228308932
 10
75.91006982000357
 20
38.96116429102627
 10
75.95532661835969
 20
38.83092939512111
 10
75.99455185696014
 20
38.6987526703712
 10
76.02766268640937
 20
38.564913293198195
 10
76.05458917183117
 20
38.4296939517869
 10
76.07527444058125
 20
38.29338024900684
 10
76.0896748023706
 20
38.15626009917754
 10
76.09775984154557
 20
38.0186231199517
 10
76.09951248133031
 20
37.88076002060071
 10
76.09492901989526
 20
37.74296198799448
 10
76.08401913817605
 20
37.6055200715725
 10
76.06680587942589
 20
37.468724568605204
 10
76.04332560054495
 20
37.33286441104403
 10
76.04332560054495
 20
37.33286441104403
 10
75.94087320610102
 20
36.77381741300466
 10
75.85473212749227
 20
36.21477041496529
 10
75.78674427646887
 20
35.655723416925916
 10
75.73836340336328
 20
35.096676418886545
 10
75.71062401227151
 20
34.537629420847175
 10
75.70411924076765
 20
33.9785824228078
 10
75.7189881771387
 20
33.419535424768426
 10
75.7549128863291
 20
32.860488426729056
 10
75.81112520818753
 20
32.301441428689685
 10
75.88642318265259
 20
31.742394430650315
 10
75.97919675066568
 20
31.183347432610944
 10
76.08746218126143
 20
30.624300434571573
 10
76.2089044886982
 20
30.065253436532203
 10
76.34092693264434
 20
29.506206438492832
 10
76.48070654298252
 20
28.947159440453458
 10
76.62525448197268
 20
28.388112442414087
 10
76.7714799530798
 20
27.829065444374717
 10
76.91625628993572
 20
27.270018446335342
 10
77.0564878122877
 20
26.71097144829597
 10
77.18917601938634
 20
26.1519244502566
 10
77.31148370543261
 20
25.59287745221723
 10
77.4207956261354
 20
25.03383045417786
 10
77.51477441917669
 20
24.47478345613849
 10
77.59141058286501
 20
23.91573645809912
 10
77.64906544430859
 20
23.356689460059748
 10
77.68650619834105
 20
22.797642462020374
 10
77.70293226797983
 20
22.238595463981003
 10
77.6979924227648
 20
21.679548465941632
 10
77.67179228894409
 20
21.120501467902262
 10
77.62489209092077
 20
20.561454469862888
 10
77.55829467225352
 20
20.002407471823517
 10
77.47342405235278
 20
19.443360473784146
 10
77.37209497738336
 20
18.884313475744776
 10
77.2564741164517
 20
18.325266477705405
 10
77.12903373280032
 20
17.76621947966603
 10
76.99249882063502
 20
17.20717248162666
 10
76.84978883793201
 20
16.64812548358729
 10
76.70395528112307
 20
16.08907848554792
 10
76.55811643646828
 20
15.530031487508545
 10
76.4153907032951
 20
14.970984489469174
 10
76.27882991481974
 20
14.411937491429804
 10
76.15135408231866
 20
13.852890493390433
 10
76.03568895798277
 20
13.293843495351062
 10
75.93430775151687
 20
12.734796497311692
 10
75.84937824672922
 20
12.175749499272321
 10
75.78271644889082
 20
11.616702501232943
 10
75.73574775399982
 20
11.05765550319358
 10
75.70947647024931
 20
10.498608505154202
 10
75.70446434340583
 20
9.939561507114838
 10
75.70446434340583
 20
9.939561507114838
 10
75.70315974203778
 20
9.8154367122117
 10
75.69672141815334
 20
9.691472141950534
 10
75.68516039463992
 20
9.567880032858575
 10
75.66849646482619
 20
9.444871983781944
 10
75.6467581585944
 20
9.32265859361275
 10
75.61998269353514
 20
9.20144910072817
 10
75.58821591122803
 20
9.081451024758891
 10
75.55151219875759
 20
8.962869811300088
 10
75.50993439559846
 20
8.845908480173357
 10
75.46355368602963
 20
8.73076727784175
 10
75.41244947726162
 20
8.617643334572996
 10
75.3567092634855
 20
8.506730326937877
 10
75.29642847607634
 20
8.39821814622158
 10
75.2317103202076
 20
8.292292573315763
 10
75.16266559815627
 20
8.189134960647912
 10
75.08941251960114
 20
8.088921921692538
 10
75.01207649923907
 20
7.9918250285958194
 10
74.93078994206577
 20
7.89801051843142
 10
74.84569201668859
 20
7.807639008590236
 10
74.84569201668859
 20
-0.09140000000000015
 10
95.7037079833114
 20
-0.09140000000000015
  0
LWPOLYLINE
  5
53
330
17
100
AcDbEntity
  8
BRACKET_OUTLINE
100
AcDbPolyline
 90
87
 70
1
 10
95.7037079833114
 20
5.083599999999997
 10
95.6594600554537
 20
5.120979862437721
 10
95.61983211825213
 20
5.163226280377117
 10
95.58535599974333
 20
5.209772284374544
 10
95.55649438781145
 20
5.259993202250023
 10
95.5336346206702
 20
5.313215042520817
 10
95.51708348857754
 20
5.368723539726318
 10
95.50706311654696
 20
5.425773740251216
 10
95.5037079833114
 20
5.483600000000003
 10
95.5037079833114
 20
6.2836
 10
85.85726137390468
 20
6.2836
 10
85.83908299964895
 20
6.267124081955949
 10
85.81937723686295
 20
6.252509292220999
 10
85.79833386281453
 20
6.239896379209547
 10
85.77615553669932
 20
6.229406812168811
 10
85.75305584792166
 20
6.221141611363585
 10
85.72925725911207
 20
6.215180375195828
 10
85.70498896369043
 20
6.211580513628583
 10
85.68048467860804
 20
6.210376695296638
 10
85.65598039352565
 20
6.211580513628583
 10
85.631712098104
 20
6.215180375195828
 10
85.60791350929443
 20
6.221141611363585
 10
85.58481382051677
 20
6.229406812168811
 10
85.56263549440155
 20
6.239896379209547
 10
85.54159212035314
 20
6.252509292220999
 10
85.52188635756713
 20
6.267124081955949
 10
85.5037079833114
 20
6.2836
 10
85.48723206526736
 20
6.301778374255726
 10
85.4726172755324
 20
6.321484137041736
 10
85.46000436252095
 20
6.3425275110901325
 10
85.44951479548021
 20
6.3647058372053635
 10
85.44124959467499
 20
6.387805525983019
 10
85.43528835850724
 20
6.411604114792603
 10
85.43168849693998
 20
6.435872410214245
 10
85.43048467860804
 20
6.460376695296638
 10
85.43168849693998
 20
6.484880980379025
 10
85.43528835850724
 20
6.509149275800667
 10
85.44124959467499
 20
6.53294786461025
 10
85.44951479548021
 20
6.556047553387906
 10
85.46000436252095
 20
6.578225879503137
 10
85.4726172755324
 20
6.599269253551533
 10
85.48723206526736
 20
6.618975016337544
 10
85.5037079833114
 20
6.637153390593269
 10
85.5037079833114
 20
7.530046609406725
 10
85.48723206526736
 20
7.54822498366245
 10
85.4726172755324
 20
7.567930746448461
 10
85.46000436252095
 20
7.588974120496864
 10
85.44951479548021
 20
7.611152446612088
 10
85.44124959467499
 20
7.634252135389744
 10
85.43528835850724
 20
7.658050724199327
 10
85.43168849693998
 20
7.682319019620969
 10
85.43048467860804
 20
7.706823304703363
 10
85.43168849693998
 20
7.731327589785749
 10
85.43528835850724
 20
7.755595885207391
 10
85.44124959467499
 20
7.779394474016975
 10
85.44951479548021
 20
7.802494162794638
 10
85.46000436252095
 20
7.824672488909862
 10
85.4726172755324
 20
7.845715862958265
 10
85.48723206526736
 20
7.8654216257442755
 10
85.5037079833114
 20
7.883600000000001
 10
85.52188635756713
 20
7.900075918044045
 10
85.54159212035314
 20
7.914690707778995
 10
85.56263549440155
 20
7.927303620790447
 10
85.58481382051677
 20
7.937793187831183
 10
85.60791350929443
 20
7.946058388636416
 10
85.631712098104
 20
7.952019624804173
 10
85.65598039352565
 20
7.955619486371411
 10
85.68048467860804
 20
7.956823304703363
 10
85.70498896369043
 20
7.955619486371411
 10
85.72925725911207
 20
7.952019624804173
 10
85.75305584792166
 20
7.946058388636416
 10
85.77615553669932
 20
7.937793187831183
 10
85.79833386281453
 20
7.927303620790447
 10
85.81937723686295
 20
7.914690707778995
 10
85.83908299964895
 20
7.900075918044045
 10
85.85726137390468
 20
7.883600000000001
 10
95.5037079833114
 20
7.883600000000001
 10
95.5037079833114
 20
8.683599999999998
 10
95.50706311654696
 20
8.741426259748785
 10
95.51708348857754
 20
8.798476460273683
 10
95.5336346206702
 20
8.853984957479184
 10
95.55649438781145
 20
8.907206797749978
 10
95.58535599974333
 20
8.957427715625457
 10
95.61983211825213
 20
9.003973719622884
 10
95.6594600554537
 20
9.04622013756228
 10
95.7037079833114
 20
9.083599999999997
 10
95.7037079833114
 20
5.083599999999997
  0
LWPOLYLINE
  5
54
330
17
100
AcDbEntity
  8
BRACKET_OUTLINE
100
AcDbPolyline
 90
87
 70
1
 10
95.7037079833114
 20
20.7086
 10
95.6594600554537
 20
20.74597986243772
 10
95.61983211825213
 20
20.788226280377117
 10
95.58535599974333
 20
20.834772284374544
 10
95.55649438781145
 20
20.884993202250023
 10
95.5336346206702
 20
20.938215042520813
 10
95.51708348857754
 20
20.993723539726318
 10
95.50706311654696
 20
21.050773740251216
 10
95.5037079833114
 20
21.1086
 10
95.5037079833114
 20
21.9086
 10
85.85726137390468
 20
21.9086
 10
85.83908299964895
 20
21.892124081955952
 10
85.81937723686295
 20
21.877509292221
 10
85.79833386281453
 20
21.864896379209547
 10
85.77615553669932
 20
21.854406812168815
 10
85.75305584792166
 20
21.846141611363585
 10
85.72925725911207
 20
21.84018037519583
 10
85.70498896369043
 20
21.836580513628586
 10
85.68048467860804
 20
21.835376695296635
 10
85.65598039352565
 20
21.836580513628586
 10
85.631712098104
 20
21.84018037519583
 10
85.60791350929443
 20
21.846141611363585
 10
85.58481382051677
 20
21.854406812168815
 10
85.56263549440155
 20
21.864896379209547
 10
85.54159212035314
 20
21.877509292221
 10
85.52188635756713
 20
21.892124081955952
 10
85.5037079833114
 20
21.9086
 10
85.48723206526736
 20
21.926778374255726
 10
85.4726172755324
 20
21.946484137041736
 10
85.46000436252095
 20
21.967527511090136
 10
85.44951479548021
 20
21.989705837205364
 10
85.44124959467499
 20
22.01280552598302
 10
85.43528835850724
 20
22.036604114792603
 10
85.43168849693998
 20
22.060872410214245
 10
85.43048467860804
 20
22.085376695296635
 10
85.43168849693998
 20
22.109880980379025
 10
85.43528835850724
 20
22.134149275800667
 10
85.44124959467499
 20
22.15794786461025
 10
85.44951479548021
 20
22.18104755338791
 10
85.46000436252095
 20
22.203225879503137
 10
85.4726172755324
 20
22.224269253551537
 10
85.48723206526736
 20
22.243975016337547
 10
85.5037079833114
 20
22.262153390593273
 10
85.5037079833114
 20
23.155046609406725
 10
85.48723206526736
 20
23.17322498366245
 10
85.4726172755324
 20
23.19293074644846
 10
85.46000436252095
 20
23.213974120496864
 10
85.44951479548021
 20
23.23615244661209
 10
85.44124959467499
 20
23.259252135389747
 10
85.43528835850724
 20
23.28305072419933
 10
85.43168849693998
 20
23.307319019620973
 10
85.43048467860804
 20
23.331823304703363
 10
85.43168849693998
 20
23.356327589785753
 10
85.43528835850724
 20
23.380595885207395
 10
85.44124959467499
 20
23.40439447401698
 10
85.44951479548021
 20
23.427494162794634
 10
85.46000436252095
 20
23.44967248890986
 10
85.4726172755324
 20
23.47071586295826
 10
85.48723206526736
 20
23.490421625744276
 10
85.5037079833114
 20
23.508599999999998
 10
85.52188635756713
 20
23.525075918044045
 10
85.54159212035314
 20
23.539690707779
 10
85.56263549440155
 20
23.55230362079045
 10
85.58481382051677
 20
23.562793187831183
 10
85.60791350929443
 20
23.571058388636416
 10
85.631712098104
 20
23.57701962480417
 10
85.65598039352565
 20
23.58061948637141
 10
85.68048467860804
 20
23.581823304703363
 10
85.70498896369043
 20
23.58061948637141
 10
85.72925725911207
 20
23.57701962480417
 10
85.75305584792166
 20
23.571058388636416
 10
85.77615553669932
 20
23.562793187831183
 10
85.79833386281453
 20
23.55230362079045
 10
85.81937723686295
 20
23.539690707779
 10
85.83908299964895
 20
23.525075918044045
 10
85.85726137390468
 20
23.508599999999998
 10
95.5037079833114
 20
23.5086
 10
95.5037079833114
 20
24.308600000000002
 10
95.50706311654696
 20
24.366426259748785
 10
95.51708348857754
 20
24.42347646027368
 10
95.5336346206702
 20
24.478984957479188
 10
95.55649438781145
 20
24.53220679774998
 10
95.58535599974333
 20
24.582427715625457
 10
95.61983211825213
 20
24.628973719622884
 10
95.6594600554537
 20
24.67122013756228
 10
95.7037079833114
 20
24.7086
 10
95.7037079833114
 20
20.7086
  0
LWPOLYLINE
  5
55
330
17
100
AcDbEntity
  8
BRACKET_OUTLINE
100
AcDbPolyline
 90
87
 70
1
 10
95.7037079833114
 20
36.9586
 10
95.6594600554537
 20
36.995979862437714
 10
95.61983211825213
 20
37.03822628037711
 10
95.58535599974333
 20
37.08477228437454
 10
95.55649438781145
 20
37.134993202250016
 10
95.5336346206702
 20
37.18821504252081
 10
95.51708348857754
 20
37.24372353972632
 10
95.50706311654696
 20
37.300773740251216
 10
95.5037079833114
 20
37.358599999999996
 10
95.5037079833114
 20
38.1586
 10
85.85726137390468
 20
38.15859999999999
 10
85.83908299964895
 20
38.14212408195595
 10
85.81937723686295
 20
38.127509292221
 10
85.79833386281453
 20
38.11489637920955
 10
85.77615553669932
 20
38.10440681216881
 10
85.75305584792166
 20
38.09614161136358
 10
85.72925725911207
 20
38.09018037519583
 10
85.70498896369043
 20
38.08658051362858
 10
85.68048467860804
 20
38.08537669529663
 10
85.65598039352565
 20
38.08658051362858
 10
85.631712098104
 20
38.09018037519583
 10
85.60791350929443
 20
38.09614161136358
 10
85.58481382051677
 20
38.10440681216881
 10
85.56263549440155
 20
38.11489637920955
 10
85.54159212035314
 20
38.127509292221
 10
85.52188635756713
 20
38.14212408195595
 10
85.5037079833114
 20
38.15859999999999
 10
85.48723206526736
 20
38.17677837425572
 10
85.4726172755324
 20
38.19648413704173
 10
85.46000436252095
 20
38.21752751109013
 10
85.44951479548021
 20
38.23970583720536
 10
85.44124959467499
 20
38.26280552598302
 10
85.43528835850724
 20
38.2866041147926
 10
85.43168849693998
 20
38.310872410214245
 10
85.43048467860804
 20
38.33537669529663
 10
85.43168849693998
 20
38.359880980379025
 10
85.43528835850724
 20
38.38414927580067
 10
85.44124959467499
 20
38.40794786461025
 10
85.44951479548021
 20
38.431047553387906
 10
85.46000436252095
 20
38.45322587950313
 10
85.4726172755324
 20
38.47426925355153
 10
85.48723206526736
 20
38.493975016337544
 10
85.5037079833114
 20
38.51215339059327
 10
85.5037079833114
 20
39.405046609406725
 10
85.48723206526736
 20
39.42322498366245
 10
85.4726172755324
 20
39.44293074644846
 10
85.46000436252095
 20
39.46397412049686
 10
85.44951479548021
 20
39.48615244661209
 10
85.44124959467499
 20
39.509252135389744
 10
85.43528835850724
 20
39.53305072419933
 10
85.43168849693998
 20
39.55731901962097
 10
85.43048467860804
 20
39.581823304703356
 10
85.43168849693998
 20
39.60632758978575
 10
85.43528835850724
 20
39.63059588520739
 10
85.44124959467499
 20
39.654394474016975
 10
85.44951479548021
 20
39.67749416279463
 10
85.46000436252095
 20
39.69967248890986
 10
85.4726172755324
 20
39.72071586295826
 10
85.48723206526736
 20
39.74042162574427
 10
85.5037079833114
 20
39.758599999999994
 10
85.52188635756713
 20
39.775075918044045
 10
85.54159212035314
 20
39.789690707778995
 10
85.56263549440155
 20
39.80230362079045
 10
85.58481382051677
 20
39.81279318783118
 10
85.60791350929443
 20
39.82105838863641
 10
85.631712098104
 20
39.827019624804166
 10
85.65598039352565
 20
39.83061948637141
 10
85.68048467860804
 20
39.831823304703356
 10
85.70498896369043
 20
39.83061948637141
 10
85.72925725911207
 20
39.827019624804166
 10
85.75305584792166
 20
39.82105838863641
 10
85.77615553669932
 20
39.81279318783118
 10
85.79833386281453
 20
39.80230362079045
 10
85.81937723686295
 20
39.789690707778995
 10
85.83908299964895
 20
39.775075918044045
 10
85.85726137390468
 20
39.758599999999994
 10
95.5037079833114
 20
39.758599999999994
 10
95.5037079833114
 20
40.5586
 10
95.50706311654696
 20
40.61642625974878
 10
95.51708348857754
 20
40.673476460273676
 10
95.5336346206702
 20
40.728984957479184
 10
95.55649438781145
 20
40.78220679774998
 10
95.58535599974333
 20
40.83242771562546
 10
95.61983211825213
 20
40.878973719622884
 10
95.6594600554537
 20
40.92122013756228
 10
95.7037079833114
 20
40.9586
 10
95.7037079833114
 20
36.9586
  0
LWPOLYLINE
  5
56
330
17
100
AcDbEntity
  8
BRACKET_OUTLINE
100
AcDbPolyline
 90
87
 70
1
 10
80.9037079833114
 20
-0.09140000000000015
 10
80.94108784574912
 20
-0.04715207214231043
 10
80.98333426368852
 20
-0.007524134940737781
 10
81.02988026768594
 20
0.026951983568075377
 10
81.08010118556143
 20
0.05581359549995568
 10
81.13332302583223
 20
0.0786733626412115
 10
81.18883152303772
 20
0.09522449473386274
 10
81.24588172356263
 20
0.105244866764437
 10
81.3037079833114
 20
0.1086000000000027
 10
82.10370798331141
 20
0.1086000000000027
 10
82.10370798331141
 20
9.755046609406726
 10
82.08723206526736
 20
9.773224983662452
 10
82.07261727553241
 20
9.792930746448462
 10
82.06000436252096
 20
9.813974120496866
 10
82.04951479548022
 20
9.83615244661209
 10
82.041249594675
 20
9.859252135389745
 10
82.03528835850724
 20
9.883050724199329
 10
82.03168849693999
 20
9.90731901962097
 10
82.03048467860805
 20
9.931823304703364
 10
82.03168849693999
 20
9.95632758978575
 10
82.03528835850724
 20
9.980595885207393
 10
82.041249594675
 20
10.004394474016976
 10
82.04951479548022
 20
10.027494162794632
 10
82.06000436252096
 20
10.049672488909863
 10
82.07261727553241
 20
10.07071586295826
 10
82.08723206526736
 20
10.090421625744277
 10
82.10370798331141
 20
10.108600000000003
 10
82.12188635756713
 20
10.125075918044047
 10
82.14159212035315
 20
10.139690707779003
 10
82.16263549440154
 20
10.152303620790455
 10
82.18481382051678
 20
10.162793187831184
 10
82.20791350929443
 20
10.171058388636418
 10
82.23171209810401
 20
10.177019624804167
 10
82.25598039352565
 20
10.180619486371413
 10
82.28048467860805
 20
10.181823304703364
 10
82.30498896369043
 20
10.180619486371413
 10
82.32925725911207
 20
10.177019624804167
 10
82.35305584792167
 20
10.171058388636418
 10
82.37615553669932
 20
10.162793187831184
 10
82.39833386281455
 20
10.152303620790455
 10
82.41937723686294
 20
10.139690707779003
 10
82.43908299964895
 20
10.125075918044047
 10
82.45726137390469
 20
10.108600000000003
 10
83.35015459271813
 20
10.108600000000003
 10
83.36833296697387
 20
10.125075918044047
 10
83.38803872975987
 20
10.139690707779003
 10
83.40908210380827
 20
10.152303620790455
 10
83.4312604299235
 20
10.162793187831184
 10
83.45436011870115
 20
10.171058388636418
 10
83.47815870751074
 20
10.177019624804167
 10
83.50242700293238
 20
10.180619486371413
 10
83.52693128801477
 20
10.181823304703364
 10
83.55143557309717
 20
10.180619486371413
 10
83.5757038685188
 20
10.177019624804167
 10
83.59950245732838
 20
10.171058388636418
 10
83.62260214610603
 20
10.162793187831184
 10
83.64478047222127
 20
10.152303620790455
 10
83.66582384626966
 20
10.139690707779003
 10
83.68552960905569
 20
10.125075918044047
 10
83.7037079833114
 20
10.108600000000003
 10
83.72018390135545
 20
10.090421625744277
 10
83.7347986910904
 20
10.07071586295826
 10
83.74741160410186
 20
10.049672488909863
 10
83.75790117114259
 20
10.027494162794632
 10
83.76616637194783
 20
10.004394474016976
 10
83.77212760811557
 20
9.980595885207393
 10
83.77572746968282
 20
9.95632758978575
 10
83.77693128801477
 20
9.931823304703364
 10
83.77572746968282
 20
9.90731901962097
 10
83.77212760811557
 20
9.883050724199329
 10
83.76616637194783
 20
9.859252135389745
 10
83.75790117114259
 20
9.83615244661209
 10
83.74741160410186
 20
9.813974120496866
 10
83.7347986910904
 20
9.792930746448462
 10
83.72018390135545
 20
9.773224983662452
 10
83.7037079833114
 20
9.755046609406726
 10
83.7037079833114
 20
0.1086000000000027
 10
84.50370798331141
 20
0.1086000000000027
 10
84.56153424306018
 20
0.105244866764437
 10
84.61858444358509
 20
0.09522449473386274
 10
84.67409294079059
 20
0.0786733626412115
 10
84.72731478106138
 20
0.05581359549995568
 10
84.77753569893687
 20
0.026951983568075377
 10
84.8240817029343
 20
-0.007524134940737781
 10
84.86632812087369
 20
-0.04715207214231043
 10
84.9037079833114
 20
-0.09140000000000015
 10
80.9037079833114
 20
-0.09140000000000015
  0
LWPOLYLINE
  5
57
330
17
100
AcDbEntity
  8
BRACKET_OUTLINE
100
AcDbPolyline
 90
87
 70
1
 10
84.9037079833114
 20
47.9086
 10
84.86632812087369
 20
47.86435207214231
 10
84.8240817029343
 20
47.82472413494074
 10
84.77753569893687
 20
47.790248016431924
 10
84.72731478106138
 20
47.761386404500044
 10
84.67409294079059
 20
47.73852663735879
 10
84.61858444358509
 20
47.72197550526614
 10
84.56153424306018
 20
47.71195513323556
 10
84.50370798331141
 20
47.7086
 10
83.7037079833114
 20
47.7086
 10
83.7037079833114
 20
38.062153390593274
 10
83.72018390135545
 20
38.04397501633755
 10
83.7347986910904
 20
38.02426925355154
 10
83.74741160410186
 20
38.003225879503134
 10
83.75790117114259
 20
37.98104755338791
 10
83.76616637194783
 20
37.957947864610254
 10
83.77212760811557
 20
37.93414927580067
 10
83.77572746968282
 20
37.90988098037903
 10
83.77693128801477
 20
37.885376695296635
 10
83.77572746968282
 20
37.86087241021425
 10
83.77212760811557
 20
37.83660411479261
 10
83.76616637194783
 20
37.81280552598302
 10
83.75790117114259
 20
37.78970583720537
 10
83.74741160410186
 20
37.76752751109014
 10
83.7347986910904
 20
37.74648413704174
 10
83.72018390135545
 20
37.72677837425572
 10
83.7037079833114
 20
37.7086
 10
83.68552960905569
 20
37.69212408195595
 10
83.66582384626967
 20
37.677509292220996
 10
83.64478047222127
 20
37.664896379209544
 10
83.62260214610603
 20
37.654406812168816
 10
83.59950245732838
 20
37.64614161136358
 10
83.5757038685188
 20
37.64018037519583
 10
83.55143557309717
 20
37.63658051362859
 10
83.52693128801477
 20
37.635376695296635
 10
83.50242700293238
 20
37.63658051362859
 10
83.47815870751074
 20
37.64018037519583
 10
83.45436011870115
 20
37.64614161136358
 10
83.4312604299235
 20
37.654406812168816
 10
83.40908210380827
 20
37.664896379209544
 10
83.38803872975987
 20
37.677509292220996
 10
83.36833296697387
 20
37.69212408195595
 10
83.35015459271813
 20
37.7086
 10
82.45726137390469
 20
37.7086
 10
82.43908299964895
 20
37.69212408195595
 10
82.41937723686294
 20
37.677509292220996
 10
82.39833386281455
 20
37.664896379209544
 10
82.37615553669932
 20
37.654406812168816
 10
82.35305584792167
 20
37.64614161136358
 10
82.32925725911207
 20
37.64018037519583
 10
82.30498896369043
 20
37.63658051362859
 10
82.28048467860805
 20
37.635376695296635
 10
82.25598039352565
 20
37.63658051362859
 10
82.23171209810401
 20
37.64018037519583
 10
82.20791350929443
 20
37.64614161136358
 10
82.18481382051678
 20
37.654406812168816
 10
82.16263549440154
 20
37.664896379209544
 10
82.14159212035315
 20
37.677509292220996
 10
82.12188635756713
 20
37.69212408195595
 10
82.10370798331141
 20
37.7086
 10
82.08723206526736
 20
37.72677837425572
 10
82.07261727553241
 20
37.74648413704174
 10
82.06000436252096
 20
37.76752751109014
 10
82.04951479548022
 20
37.78970583720537
 10
82.041249594675
 20
37.81280552598302
 10
82.03528835850724
 20
37.83660411479261
 10
82.03168849693999
 20
37.86087241021425
 10
82.03048467860805
 20
37.885376695296635
 10
82.03168849693999
 20
37.90988098037903
 10
82.03528835850724
 20
37.93414927580067
 10
82.041249594675
 20
37.957947864610254
 10
82.04951479548022
 20
37.98104755338791
 10
82.06000436252096
 20
38.003225879503134
 10
82.07261727553241
 20
38.02426925355154
 10
82.08723206526736
 20
38.04397501633755
 10
82.10370798331141
 20
38.062153390593274
 10
82.10370798331141
 20
47.7086
 10
81.3037079833114
 20
47.7086
 10
81.24588172356263
 20
47.71195513323556
 10
81.18883152303772
 20
47.72197550526614
 10
81.13332302583223
 20
47.73852663735879
 10
81.08010118556143
 20
47.761386404500044
 10
81.02988026768594
 20
47.790248016431924
 10
80.98333426368852
 20
47.82472413494074
 10
80.94108784574912
 20
47.86435207214231
 10
80.9037079833114
 20
47.9086
 10
84.9037079833114
 20
47.9086
  0
LWPOLYLINE
  5
58
330
17
100
AcDbEntity
  8
BRACKET_OUTLINE
100
AcDbPolyline
 90
87
 70
1
 10
92.10370798331141
 20
-0.09140000000000015
 10
92.14108784574913
 20
-0.04715207214231043
 10
92.18333426368852
 20
-0.007524134940737781
 10
92.22988026768594
 20
0.026951983568075377
 10
92.28010118556142
 20
0.05581359549995568
 10
92.33332302583221
 20
0.0786733626412115
 10
92.38883152303772
 20
0.09522449473386274
 10
92.44588172356262
 20
0.105244866764437
 10
92.5037079833114
 20
0.1086000000000027
 10
93.3037079833114
 20
0.1086000000000027
 10
93.3037079833114
 20
3.755046609406726
 10
93.28723206526735
 20
3.773224983662452
 10
93.27261727553241
 20
3.7929307464484623
 10
93.26000436252096
 20
3.813974120496866
 10
93.24951479548022
 20
3.8361524466120898
 10
93.241249594675
 20
3.8592521353897453
 10
93.23528835850723
 20
3.883050724199329
 10
93.23168849694
 20
3.907319019620971
 10
93.23048467860804
 20
3.9318233047033644
 10
93.23168849694
 20
3.956327589785751
 10
93.23528835850723
 20
3.980595885207393
 10
93.241249594675
 20
4.004394474016976
 10
93.24951479548022
 20
4.027494162794639
 10
93.26000436252096
 20
4.049672488909863
 10
93.27261727553241
 20
4.0707158629582665
 10
93.28723206526735
 20
4.090421625744277
 10
93.3037079833114
 20
4.108600000000003
 10
93.32188635756714
 20
4.125075918044047
 10
93.34159212035314
 20
4.139690707779003
 10
93.36263549440153
 20
4.152303620790455
 10
93.38481382051677
 20
4.162793187831184
 10
93.40791350929442
 20
4.171058388636418
 10
93.43171209810401
 20
4.177019624804167
 10
93.45598039352565
 20
4.180619486371413
 10
93.48048467860804
 20
4.181823304703364
 10
93.50498896369044
 20
4.180619486371413
 10
93.52925725911207
 20
4.177019624804167
 10
93.55305584792166
 20
4.171058388636418
 10
93.5761555366993
 20
4.162793187831184
 10
93.59833386281454
 20
4.152303620790455
 10
93.61937723686293
 20
4.139690707779003
 10
93.63908299964895
 20
4.125075918044047
 10
93.65726137390467
 20
4.108600000000003
 10
94.55015459271813
 20
4.108600000000003
 10
94.56833296697386
 20
4.125075918044047
 10
94.58803872975986
 20
4.139690707779003
 10
94.60908210380828
 20
4.152303620790455
 10
94.63126042992349
 20
4.162793187831184
 10
94.65436011870115
 20
4.171058388636418
 10
94.67815870751073
 20
4.177019624804167
 10
94.70242700293238
 20
4.180619486371413
 10
94.72693128801477
 20
4.181823304703364
 10
94.75143557309715
 20
4.180619486371413
 10
94.7757038685188
 20
4.177019624804167
 10
94.79950245732837
 20
4.171058388636418
 10
94.82260214610604
 20
4.162793187831184
 10
94.84478047222126
 20
4.152303620790455
 10
94.86582384626966
 20
4.139690707779003
 10
94.88552960905568
 20
4.125075918044047
 10
94.90370798331139
 20
4.108600000000003
 10
94.92018390135544
 20
4.090421625744277
 10
94.9347986910904
 20
4.0707158629582665
 10
94.94741160410186
 20
4.049672488909863
 10
94.9579011711426
 20
4.027494162794639
 10
94.96616637194782
 20
4.004394474016976
 10
94.97212760811557
 20
3.980595885207393
 10
94.97572746968282
 20
3.956327589785751
 10
94.97693128801477
 20
3.9318233047033644
 10
94.97572746968282
 20
3.907319019620971
 10
94.97212760811557
 20
3.883050724199329
 10
94.96616637194782
 20
3.8592521353897453
 10
94.9579011711426
 20
3.8361524466120898
 10
94.94741160410186
 20
3.813974120496866
 10
94.9347986910904
 20
3.7929307464484623
 10
94.92018390135544
 20
3.773224983662452
 10
94.90370798331139
 20
3.755046609406726
 10
94.90370798331139
 20
0.1086000000000027
 10
95.7037079833114
 20
0.1086000000000027
 10
95.76153424306018
 20
0.105244866764437
 10
95.81858444358508
 20
0.09522449473386274
 10
95.87409294079059
 20
0.0786733626412115
 10
95.92731478106138
 20
0.05581359549995568
 10
95.97753569893686
 20
0.026951983568075377
 10
96.0240817029343
 20
-0.007524134940737781
 10
96.06632812087369
 20
-0.04715207214231043
 10
96.10370798331141
 20
-0.09140000000000015
 10
92.10370798331141
 20
-0.09140000000000015
  0
LWPOLYLINE
  5
59
330
17
100
AcDbEntity
  8
BRACKET_OUTLINE
100
AcDbPolyline
 90
87
 70
1
 10
96.10370798331141
 20
47.9086
 10
96.06632812087369
 20
47.86435207214231
 10
96.02408170293428
 20
47.82472413494074
 10
95.97753569893686
 20
47.790248016431924
 10
95.92731478106138
 20
47.761386404500044
 10
95.87409294079059
 20
47.73852663735879
 10
95.81858444358508
 20
47.72197550526614
 10
95.76153424306018
 20
47.71195513323556
 10
95.7037079833114
 20
47.7086
 10
94.90370798331139
 20
47.7086
 10
94.90370798331139
 20
44.062153390593274
 10
94.92018390135544
 20
44.04397501633755
 10
94.9347986910904
 20
44.02426925355154
 10
94.94741160410186
 20
44.003225879503134
 10
94.9579011711426
 20
43.98104755338791
 10
94.96616637194782
 20
43.957947864610254
 10
94.97212760811557
 20
43.93414927580067
 10
94.97572746968282
 20
43.90988098037903
 10
94.97693128801477
 20
43.885376695296635
 10
94.97572746968282
 20
43.86087241021425
 10
94.97212760811557
 20
43.83660411479261
 10
94.96616637194782
 20
43.81280552598302
 10
94.9579011711426
 20
43.78970583720536
 10
94.94741160410186
 20
43.76752751109014
 10
94.9347986910904
 20
43.74648413704173
 10
94.92018390135544
 20
43.72677837425572
 10
94.90370798331139
 20
43.7086
 10
94.88552960905568
 20
43.69212408195595
 10
94.86582384626966
 20
43.677509292220996
 10
94.84478047222126
 20
43.664896379209544
 10
94.82260214610604
 20
43.654406812168816
 10
94.79950245732837
 20
43.64614161136358
 10
94.7757038685188
 20
43.64018037519583
 10
94.75143557309715
 20
43.63658051362859
 10
94.72693128801477
 20
43.635376695296635
 10
94.70242700293238
 20
43.63658051362859
 10
94.67815870751073
 20
43.64018037519583
 10
94.65436011870115
 20
43.64614161136358
 10
94.63126042992349
 20
43.654406812168816
 10
94.60908210380828
 20
43.664896379209544
 10
94.58803872975986
 20
43.677509292220996
 10
94.56833296697386
 20
43.69212408195595
 10
94.55015459271813
 20
43.7086
 10
93.65726137390467
 20
43.7086
 10
93.63908299964895
 20
43.69212408195595
 10
93.61937723686293
 20
43.677509292220996
 10
93.59833386281454
 20
43.664896379209544
 10
93.5761555366993
 20
43.654406812168816
 10
93.55305584792166
 20
43.64614161136358
 10
93.52925725911207
 20
43.64018037519583
 10
93.50498896369044
 20
43.63658051362859
 10
93.48048467860804
 20
43.635376695296635
 10
93.45598039352565
 20
43.63658051362859
 10
93.43171209810401
 20
43.64018037519583
 10
93.40791350929442
 20
43.64614161136358
 10
93.38481382051677
 20
43.654406812168816
 10
93.36263549440153
 20
43.664896379209544
 10
93.34159212035314
 20
43.677509292220996
 10
93.32188635756714
 20
43.69212408195595
 10
93.3037079833114
 20
43.7086
 10
93.28723206526735
 20
43.72677837425572
 10
93.27261727553241
 20
43.74648413704173
 10
93.26000436252096
 20
43.76752751109014
 10
93.24951479548022
 20
43.78970583720536
 10
93.241249594675
 20
43.81280552598302
 10
93.23528835850723
 20
43.83660411479261
 10
93.23168849694
 20
43.86087241021425
 10
93.23048467860804
 20
43.885376695296635
 10
93.23168849694
 20
43.90988098037903
 10
93.23528835850723
 20
43.93414927580067
 10
93.241249594675
 20
43.957947864610254
 10
93.24951479548022
 20
43.98104755338791
 10
93.26000436252096
 20
44.003225879503134
 10
93.27261727553241
 20
44.02426925355154
 10
93.28723206526735
 20
44.04397501633755
 10
93.3037079833114
 20
44.062153390593274
 10
93.3037079833114
 20
47.7086
 10
92.5037079833114
 20
47.7086
 10
92.44588172356262
 20
47.71195513323556
 10
92.38883152303772
 20
47.72197550526614
 10
92.33332302583221
 20
47.73852663735879
 10
92.28010118556142
 20
47.761386404500044
 10
92.22988026768594
 20
47.790248016431924
 10
92.18333426368852
 20
47.82472413494074
 10
92.14108784574913
 20
47.86435207214231
 10
92.10370798331141
 20
47.9086
 10
96.10370798331141
 20
47.9086
  0
LWPOLYLINE
  5
5A
330
17
100
AcDbEntity
  8
BRACKET_CUTS
100
AcDbPolyline
 90
2
 70
0
 10
95.5037079833114
 20
7.883600000000001
 10
95.5037079833114
 20
6.2836
  0
LWPOLYLINE
  5
5B
330
17
100
AcDbEntity
  8
BRACKET_CUTS
100
AcDbPolyline
 90
2
 70
0
 10
95.5037079833114
 20
23.5086
 10
95.5037079833114
 20
21.9086
  0
LWPOLYLINE
  5
5C
330
17
100
AcDbEntity
  8
BRACKET_CUTS
100
AcDbPolyline
 90
2
 70
0
 10
95.5037079833114
 20
39.758599999999994
 10
95.5037079833114
 20
38.1586
  0
LWPOLYLINE
  5
5D
330
17
100
AcDbEntity
  8
BRACKET_CUTS
100
AcDbPolyline
 90
2
 70
0
 10
83.7037079833114
 20
0.1086000000000027
 10
82.10370798331141
 20
0.1086000000000027
  0
LWPOLYLINE
  5
5E
330
17
100
AcDbEntity
  8
BRACKET_CUTS
100
AcDbPolyline
 90
2
 70
0
 10
82.10370798331141
 20
47.7086
 10
83.7037079833114
 20
47.7086
  0
LWPOLYLINE
  5
5F
330
17
100
AcDbEntity
  8
BRACKET_CUTS
100
AcDbPolyline
 90
2
 70
0
 10
94.90370798331139
 20
0.1086000000000027
 10
93.3037079833114
 20
0.1086000000000027
  0
LWPOLYLINE
  5
60
330
17
100
AcDbEntity
  8
BRACKET_CUTS
100
AcDbPolyline
 90
2
 70
0
 10
93.3037079833114
 20
47.7086
 10
94.90370798331139
 20
47.7086
  0
LWPOLYLINE
  5
61
330
17
100
AcDbEntity
  8
SHELF_OUTLINE
100
AcDbPolyline
 90
96
 70
1
 10
0.1711894067127968
 20
47.948899999999995
 10
0.1711894067127968
 20
-0.0511000000000017
 10
20.1337435117171
 20
-0.0511000000000017
 10
20.1337435117171
 20
7.895318698996558
 10
20.1337435117171
 20
7.895318698996558
 10
20.037798037394126
 20
8.011970040959678
 10
19.94784530721317
 20
8.133302542614619
 10
19.864113332051623
 20
8.259008652093843
 10
19.78681435450717
 20
8.388769731372019
 10
19.716144310908334
 20
8.522256863945142
 10
19.65228233465789
 20
8.659131688563274
 10
19.595390302168127
 20
8.799047256903751
 10
19.54561242253886
 20
8.941648913010784
 10
19.503074872018267
 20
9.086575192272225
 10
19.467885474173222
 20
9.23345873765481
 10
19.440133426579614
 20
9.381927230875487
 10
19.419889074725667
 20
9.531604336148366
 10
19.407203733701195
 20
9.682110654115252
 10
19.40210955812487
 20
9.833064683541604
 10
19.404619460639147
 20
9.984083788340389
 10
19.414727079179492
 20
10.134785167472426
 10
19.432406793100846
 20
10.284786825264977
 10
19.457613788120476
 20
10.43370853968882
 10
19.490284169912556
 20
10.581172826139525
 10
19.49028416991255
 20
10.581172826139525
 10
19.62533582248944
 20
11.14129534074112
 10
19.750639355726122
 20
11.701417855342708
 10
19.863505166108602
 20
12.261540369944303
 10
19.961510622188477
 20
12.82166288454589
 10
20.042552065654974
 20
13.381785399147486
 10
20.10488996574231
 20
13.94190791374908
 10
20.147186257746327
 20
14.502030428350668
 10
20.168533064190115
 20
15.062152942952263
 10
20.16847218214722
 20
15.622275457553858
 10
20.1470049184328
 20
16.182397972155446
 10
20.10459206155322
 20
16.74252048675704
 10
20.042143991016182
 20
17.30264300135863
 10
19.96100113630218
 20
17.862765515960223
 10
19.8629052049396
 20
18.422888030561815
 10
19.749961797264582
 20
18.983010545163406
 10
19.624595210328607
 20
19.543133059765
 10
19.48949640107479
 20
20.10325557436659
 10
19.347565225737974
 20
20.663378088968184
 10
19.201848195282956
 20
21.223500603569775
 10
19.055473082941944
 20
21.783623118171366
 10
18.911581787481445
 20
22.34374563277296
 10
18.77326289326861
 20
22.903868147374553
 10
18.643485374715546
 20
23.463990661976144
 10
18.52503486811615
 20
24.024113176577735
 10
18.420453878781764
 20
24.584235691179327
 10
18.33198720691192
 20
25.14435820578092
 10
18.261533763617784
 20
25.704480720382513
 10
18.210605811353275
 20
26.264603234984104
 10
18.18029650364594
 20
26.824725749585696
 10
18.171256420877754
 20
27.38484826418729
 10
18.183679605768432
 20
27.944970778788882
 10
18.217299398305506
 20
28.505093293390473
 10
18.271394159523076
 20
29.065215807992065
 10
18.344802761270152
 20
29.625338322593656
 10
18.435949509485162
 20
30.18546083719525
 10
18.542877966005847
 20
30.745583351796842
 10
18.663292942939457
 20
31.305705866398434
 10
18.794609768196295
 20
31.865828381000025
 10
18.934009764716464
 20
32.425950895601616
 10
19.07850075254457
 20
32.986073410203204
 10
19.224981275093036
 20
33.546195924804806
 10
19.37030717099625
 20
34.106318439406394
 10
19.511359062610175
 20
34.66644095400798
 10
19.645109312536732
 20
35.226563468609584
 10
19.76868701097068
 20
35.78668598321117
 10
19.879439598934837
 20
36.34680849781276
 10
19.974989804678934
 20
36.90693101241435
 10
20.053286671119047
 20
37.46705352701595
 10
20.112649579028634
 20
38.02717604161754
 10
20.112649579028634
 20
38.02717604161754
 10
20.12688388767981
 20
38.15640976610395
 10
20.146704299633328
 20
38.28490537831463
 10
20.172073587814666
 20
38.412421535348074
 10
20.202944103144517
 20
38.53871873393409
 10
20.23925786403413
 20
38.66355976027343
 10
20.2809466652875
 20
38.78671013557721
 10
20.327932206205624
 20
38.9079385564695
 10
20.380126237652355
 20
39.02701732942565
 10
20.437430727805648
 20
39.14372279843066
 10
20.49973804628275
 20
39.25783576505408
 10
20.56693116629365
 20
39.36914190015277
 10
20.638883884443032
 20
39.47743214642787
 10
20.715461057767854
 20
39.58250311108027
 10
20.796518857565474
 20
39.68415744782679
 10
20.881905039535432
 20
39.78220422755973
 10
20.97145922972758
 20
39.876459296953556
 10
21.065013225759493
 20
39.966745624345165
 10
21.162391312737398
 20
40.05289363223815
 10
21.263410593287205
 20
40.134741515806425
 10
21.263410593287205
 20
47.948899999999995
 10
0.1711894067127968
 20
47.948899999999995
  0
LWPOLYLINE
  5
62
330
17
100
AcDbEntity
  8
BRACKET_OUTLINE
100
AcDbPolyline
 90
87
 70
1
 10
0.1711894067127968
 20
42.7739
 10
0.21543733457048653
 20
42.73652013756228
 10
0.2550652717720592
 20
42.694273719622885
 10
0.28954139028087233
 20
42.64772771562545
 10
0.31840300221275264
 20
42.59750679774997
 10
0.34126276935400846
 20
42.54428495747918
 10
0.3578139014466597
 20
42.488776460273684
 10
0.36783427347723396
 20
42.431726259748785
 10
0.37118940671279965
 20
42.37389999999999
 10
0.37118940671279965
 20
41.573899999999995
 10
10.017636016119523
 20
41.573899999999995
 10
10.035814390375249
 20
41.590375918044046
 10
10.05552015316126
 20
41.604990707778995
 10
10.076563527209663
 20
41.61760362079045
 10
10.098741853324887
 20
41.62809318783118
 10
10.121841542102542
 20
41.63635838863641
 10
10.145640130912126
 20
41.64231962480417
 10
10.169908426333768
 20
41.64591948637141
 10
10.194412711416161
 20
41.647123304703356
 10
10.218916996498548
 20
41.64591948637141
 10
10.24318529192019
 20
41.64231962480417
 10
10.266983880729773
 20
41.63635838863641
 10
10.290083569507429
 20
41.62809318783118
 10
10.31226189562266
 20
41.61760362079045
 10
10.333305269671056
 20
41.604990707778995
 10
10.353011032457074
 20
41.590375918044046
 10
10.3711894067128
 20
41.573899999999995
 10
10.387665324756844
 20
41.55572162574427
 10
10.4022801144918
 20
41.536015862958266
 10
10.414893027503252
 20
41.51497248890986
 10
10.425382594543981
 20
41.49279416279464
 10
10.433647795349215
 20
41.469694474016976
 10
10.439609031516964
 20
41.44589588520739
 10
10.44320889308421
 20
41.42162758978576
 10
10.444412711416161
 20
41.397123304703356
 10
10.44320889308421
 20
41.37261901962097
 10
10.439609031516964
 20
41.348350724199335
 10
10.433647795349215
 20
41.32455213538975
 10
10.425382594543981
 20
41.30145244661209
 10
10.414893027503252
 20
41.279274120496865
 10
10.4022801144918
 20
41.25823074644846
 10
10.387665324756844
 20
41.23852498366246
 10
10.3711894067128
 20
41.22034660940673
 10
10.3711894067128
 20
40.32745339059328
 10
10.387665324756844
 20
40.30927501633755
 10
10.4022801144918
 20
40.289569253551534
 10
10.414893027503252
 20
40.26852587950313
 10
10.425382594543981
 20
40.246347553387906
 10
10.433647795349215
 20
40.22324786461026
 10
10.439609031516964
 20
40.199449275800674
 10
10.44320889308421
 20
40.175180980379025
 10
10.444412711416161
 20
40.15067669529664
 10
10.44320889308421
 20
40.12617241021425
 10
10.439609031516964
 20
40.1019041147926
 10
10.433647795349215
 20
40.07810552598302
 10
10.425382594543981
 20
40.05500583720536
 10
10.414893027503252
 20
40.03282751109013
 10
10.4022801144918
 20
40.01178413704173
 10
10.387665324756844
 20
39.992078374255726
 10
10.3711894067128
 20
39.9739
 10
10.353011032457074
 20
39.95742408195595
 10
10.333305269671056
 20
39.942809292221
 10
10.31226189562266
 20
39.93019637920955
 10
10.290083569507429
 20
39.91970681216881
 10
10.266983880729773
 20
39.911441611363585
 10
10.24318529192019
 20
39.90548037519582
 10
10.218916996498548
 20
39.90188051362858
 10
10.194412711416161
 20
39.90067669529664
 10
10.169908426333768
 20
39.90188051362858
 10
10.145640130912126
 20
39.90548037519582
 10
10.121841542102542
 20
39.911441611363585
 10
10.098741853324887
 20
39.91970681216881
 10
10.076563527209663
 20
39.93019637920955
 10
10.05552015316126
 20
39.942809292221
 10
10.035814390375249
 20
39.95742408195595
 10
10.017636016119523
 20
39.9739
 10
0.37118940671279965
 20
39.9739
 10
0.37118940671279965
 20
39.1739
 10
0.36783427347723396
 20
39.11607374025121
 10
0.3578139014466597
 20
39.05902353972631
 10
0.34126276935400846
 20
39.00351504252082
 10
0.31840300221275264
 20
38.95029320225002
 10
0.28954139028087233
 20
38.900072284374545
 10
0.2550652717720592
 20
38.85352628037711
 10
0.21543733457048653
 20
38.811279862437715
 10
0.1711894067127968
 20
38.7739
 10
0.1711894067127968
 20
42.7739
  0
LWPOLYLINE
  5
63
330
17
100
AcDbEntity
  8
BRACKET_OUTLINE
100
AcDbPolyline
 90
87
 70
1
 10
0.1711894067127968
 20
27.148899999999998
 10
0.21543733457048653
 20
27.111520137562277
 10
0.2550652717720592
 20
27.06927371962288
 10
0.28954139028087233
 20
27.022727715625454
 10
0.31840300221275264
 20
26.972506797749976
 10
0.34126276935400846
 20
26.919284957479185
 10
0.3578139014466597
 20
26.86377646027368
 10
0.36783427347723396
 20
26.806726259748782
 10
0.37118940671279965
 20
26.7489
 10
0.37118940671279965
 20
25.9489
 10
10.017636016119523
 20
25.9489
 10
10.035814390375249
 20
25.965375918044046
 10
10.05552015316126
 20
25.979990707779
 10
10.076563527209663
 20
25.99260362079045
 10
10.098741853324887
 20
26.003093187831183
 10
10.121841542102542
 20
26.011358388636413
 10
10.145640130912126
 20
26.01731962480417
 10
10.169908426333768
 20
26.02091948637141
 10
10.194412711416161
 20
26.022123304703364
 10
10.218916996498548
 20
26.02091948637141
 10
10.24318529192019
 20
26.01731962480417
 10
10.266983880729773
 20
26.011358388636413
 10
10.290083569507429
 20
26.003093187831183
 10
10.31226189562266
 20
25.99260362079045
 10
10.333305269671056
 20
25.979990707779
 10
10.353011032457074
 20
25.965375918044046
 10
10.3711894067128
 20
25.9489
 10
10.387665324756844
 20
25.930721625744273
 10
10.4022801144918
 20
25.911015862958262
 10
10.414893027503252
 20
25.889972488909862
 10
10.425382594543981
 20
25.867794162794635
 10
10.433647795349215
 20
25.84469447401698
 10
10.439609031516964
 20
25.820895885207396
 10
10.44320889308421
 20
25.796627589785754
 10
10.444412711416161
 20
25.772123304703364
 10
10.44320889308421
 20
25.747619019620974
 10
10.439609031516964
 20
25.72335072419933
 10
10.433647795349215
 20
25.699552135389748
 10
10.425382594543981
 20
25.67645244661209
 10
10.414893027503252
 20
25.65427412049686
 10
10.4022801144918
 20
25.63323074644846
 10
10.387665324756844
 20
25.61352498366245
 10
10.3711894067128
 20
25.595346609406725
 10
10.3711894067128
 20
24.702453390593273
 10
10.387665324756844
 20
24.684275016337548
 10
10.4022801144918
 20
24.664569253551537
 10
10.414893027503252
 20
24.643525879503134
 10
10.425382594543981
 20
24.62134755338791
 10
10.433647795349215
 20
24.59824786461025
 10
10.439609031516964
 20
24.574449275800667
 10
10.44320889308421
 20
24.550180980379025
 10
10.444412711416161
 20
24.525676695296635
 10
10.44320889308421
 20
24.501172410214245
 10
10.439609031516964
 20
24.476904114792603
 10
10.433647795349215
 20
24.45310552598302
 10
10.425382594543981
 20
24.430005837205364
 10
10.414893027503252
 20
24.407827511090137
 10
10.4022801144918
 20
24.386784137041737
 10
10.387665324756844
 20
24.367078374255723
 10
10.3711894067128
 20
24.3489
 10
10.353011032457074
 20
24.332424081955953
 10
10.333305269671056
 20
24.317809292221
 10
10.31226189562266
 20
24.305196379209548
 10
10.290083569507429
 20
24.294706812168815
 10
10.266983880729773
 20
24.286441611363582
 10
10.24318529192019
 20
24.28048037519583
 10
10.218916996498548
 20
24.276880513628587
 10
10.194412711416161
 20
24.275676695296635
 10
10.169908426333768
 20
24.276880513628587
 10
10.145640130912126
 20
24.28048037519583
 10
10.121841542102542
 20
24.286441611363582
 10
10.098741853324887
 20
24.294706812168815
 10
10.076563527209663
 20
24.305196379209548
 10
10.05552015316126
 20
24.317809292221
 10
10.035814390375249
 20
24.332424081955953
 10
10.017636016119523
 20
24.3489
 10
0.37118940671279965
 20
24.348899999999997
 10
0.37118940671279965
 20
23.548899999999996
 10
0.36783427347723396
 20
23.491073740251213
 10
0.3578139014466597
 20
23.43402353972632
 10
0.34126276935400846
 20
23.37851504252081
 10
0.31840300221275264
 20
23.32529320225002
 10
0.28954139028087233
 20
23.27507228437454
 10
0.2550652717720592
 20
23.228526280377114
 10
0.21543733457048653
 20
23.18627986243772
 10
0.1711894067127968
 20
23.148899999999998
 10
0.1711894067127968
 20
27.148899999999998
  0
LWPOLYLINE
  5
64
330
17
100
AcDbEntity
  8
BRACKET_OUTLINE
100
AcDbPolyline
 90
87
 70
1
 10
0.1711894067127968
 20
10.898900000000001
 10
0.21543733457048653
 20
10.861520137562284
 10
0.2550652717720592
 20
10.819273719622888
 10
0.28954139028087233
 20
10.77272771562546
 10
0.31840300221275264
 20
10.722506797749983
 10
0.34126276935400846
 20
10.669284957479189
 10
0.3578139014466597
 20
10.61377646027368
 10
0.36783427347723396
 20
10.556726259748782
 10
0.37118940671279965
 20
10.498900000000003
 10
0.37118940671279965
 20
9.698899999999998
 10
10.017636016119523
 20
9.698900000000005
 10
10.035814390375249
 20
9.71537591804405
 10
10.05552015316126
 20
9.729990707778999
 10
10.076563527209663
 20
9.742603620790451
 10
10.098741853324887
 20
9.753093187831187
 10
10.121841542102542
 20
9.76135838863642
 10
10.145640130912126
 20
9.76731962480417
 10
10.169908426333768
 20
9.770919486371415
 10
10.194412711416161
 20
9.772123304703367
 10
10.218916996498548
 20
9.770919486371415
 10
10.24318529192019
 20
9.76731962480417
 10
10.266983880729773
 20
9.76135838863642
 10
10.290083569507429
 20
9.753093187831187
 10
10.31226189562266
 20
9.742603620790451
 10
10.333305269671056
 20
9.729990707778999
 10
10.353011032457074
 20
9.71537591804405
 10
10.3711894067128
 20
9.698900000000005
 10
10.387665324756844
 20
9.68072162574428
 10
10.4022801144918
 20
9.66101586295827
 10
10.414893027503252
 20
9.639972488909866
 10
10.425382594543981
 20
9.617794162794635
 10
10.433647795349215
 20
9.594694474016979
 10
10.439609031516964
 20
9.570895885207396
 10
10.44320889308421
 20
9.546627589785754
 10
10.444412711416161
 20
9.522123304703367
 10
10.44320889308421
 20
9.497619019620974
 10
10.439609031516964
 20
9.473350724199332
 10
10.433647795349215
 20
9.449552135389748
 10
10.425382594543981
 20
9.426452446612092
 10
10.414893027503252
 20
9.404274120496869
 10
10.4022801144918
 20
9.383230746448465
 10
10.387665324756844
 20
9.363524983662455
 10
10.3711894067128
 20
9.345346609406729
 10
10.3711894067128
 20
8.452453390593273
 10
10.387665324756844
 20
8.434275016337548
 10
10.4022801144918
 20
8.414569253551537
 10
10.414893027503252
 20
8.39352587950314
 10
10.425382594543981
 20
8.37134755338791
 10
10.433647795349215
 20
8.348247864610254
 10
10.439609031516964
 20
8.32444927580067
 10
10.44320889308421
 20
8.300180980379029
 10
10.444412711416161
 20
8.275676695296642
 10
10.44320889308421
 20
8.251172410214249
 10
10.439609031516964
 20
8.226904114792607
 10
10.433647795349215
 20
8.203105525983023
 10
10.425382594543981
 20
8.180005837205368
 10
10.414893027503252
 20
8.157827511090137
 10
10.4022801144918
 20
8.13678413704174
 10
10.387665324756844
 20
8.11707837425573
 10
10.3711894067128
 20
8.098900000000004
 10
10.353011032457074
 20
8.082424081955953
 10
10.333305269671056
 20
8.067809292221003
 10
10.31226189562266
 20
8.055196379209551
 10
10.290083569507429
 20
8.044706812168815
 10
10.266983880729773
 20
8.036441611363589
 10
10.24318529192019
 20
8.030480375195832
 10
10.218916996498548
 20
8.026880513628587
 10
10.194412711416161
 20
8.025676695296642
 10
10.169908426333768
 20
8.026880513628587
 10
10.145640130912126
 20
8.030480375195832
 10
10.121841542102542
 20
8.036441611363589
 10
10.098741853324887
 20
8.044706812168815
 10
10.076563527209663
 20
8.055196379209551
 10
10.05552015316126
 20
8.067809292221003
 10
10.035814390375249
 20
8.082424081955953
 10
10.017636016119523
 20
8.098900000000004
 10
0.37118940671279965
 20
8.098900000000004
 10
0.37118940671279965
 20
7.2989
 10
0.36783427347723396
 20
7.24107374025122
 10
0.3578139014466597
 20
7.184023539726322
 10
0.34126276935400846
 20
7.128515042520814
 10
0.31840300221275264
 20
7.07529320225002
 10
0.28954139028087233
 20
7.0250722843745415
 10
0.2550652717720592
 20
6.978526280377114
 10
0.21543733457048653
 20
6.936279862437718
 10
0.1711894067127968
 20
6.898900000000001
 10
0.1711894067127968
 20
10.898900000000001
  0
LWPOLYLINE
  5
65
330
17
100
AcDbEntity
  8
BRACKET_OUTLINE
100
AcDbPolyline
 90
87
 70
1
 10
14.971189406712794
 20
47.948899999999995
 10
14.933809544275077
 20
47.90465207214231
 10
14.891563126335681
 20
47.86502413494074
 10
14.845017122338254
 20
47.83054801643192
 10
14.794796204462775
 20
47.801686404500046
 10
14.741574364191981
 20
47.77882663735879
 10
14.686065866986473
 20
47.76227550526613
 10
14.629015666461575
 20
47.752255133235565
 10
14.571189406712795
 20
47.74889999999999
 10
13.771189406712791
 20
47.74889999999999
 10
13.771189406712791
 20
38.10245339059327
 10
13.787665324756842
 20
38.08427501633754
 10
13.802280114491792
 20
38.06456925355154
 10
13.814893027503244
 20
38.043525879503136
 10
13.82538259454398
 20
38.02134755338791
 10
13.833647795349206
 20
37.99824786461025
 10
13.839609031516963
 20
37.974449275800666
 10
13.843208893084208
 20
37.95018098037903
 10
13.84441271141616
 20
37.92567669529663
 10
13.843208893084208
 20
37.901172410214244
 10
13.839609031516963
 20
37.87690411479261
 10
13.833647795349206
 20
37.853105525983025
 10
13.82538259454398
 20
37.83000583720536
 10
13.814893027503244
 20
37.80782751109014
 10
13.802280114491792
 20
37.786784137041735
 10
13.787665324756842
 20
37.76707837425572
 10
13.771189406712791
 20
37.74889999999999
 10
13.753011032457065
 20
37.732424081955955
 10
13.733305269671055
 20
37.71780929222099
 10
13.712261895622659
 20
37.70519637920954
 10
13.690083569507427
 20
37.69470681216882
 10
13.666983880729772
 20
37.68644161136358
 10
13.643185291920188
 20
37.68048037519583
 10
13.618916996498546
 20
37.67688051362859
 10
13.59441271141616
 20
37.67567669529663
 10
13.569908426333766
 20
37.67688051362859
 10
13.545640130912124
 20
37.68048037519583
 10
13.52184154210254
 20
37.68644161136358
 10
13.498741853324885
 20
37.69470681216882
 10
13.476563527209654
 20
37.70519637920954
 10
13.455520153161258
 20
37.71780929222099
 10
13.435814390375247
 20
37.732424081955955
 10
13.417636016119522
 20
37.74889999999999
 10
12.524742797306066
 20
37.74889999999999
 10
12.50656442305034
 20
37.732424081955955
 10
12.48685866026433
 20
37.71780929222099
 10
12.465815286215927
 20
37.70519637920954
 10
12.443636960100703
 20
37.69470681216882
 10
12.420537271323047
 20
37.68644161136358
 10
12.396738682513464
 20
37.68048037519583
 10
12.372470387091822
 20
37.67688051362859
 10
12.347966102009428
 20
37.67567669529663
 10
12.323461816927042
 20
37.67688051362859
 10
12.2991935215054
 20
37.68048037519583
 10
12.275394932695816
 20
37.68644161136358
 10
12.25229524391816
 20
37.69470681216882
 10
12.23011691780293
 20
37.70519637920954
 10
12.209073543754533
 20
37.71780929222099
 10
12.189367780968515
 20
37.732424081955955
 10
12.171189406712797
 20
37.74889999999999
 10
12.154713488668746
 20
37.76707837425572
 10
12.140098698933796
 20
37.786784137041735
 10
12.127485785922344
 20
37.80782751109014
 10
12.116996218881608
 20
37.83000583720536
 10
12.108731018076375
 20
37.853105525983025
 10
12.102769781908625
 20
37.87690411479261
 10
12.09916992034138
 20
37.901172410214244
 10
12.097966102009428
 20
37.92567669529663
 10
12.09916992034138
 20
37.95018098037903
 10
12.102769781908625
 20
37.974449275800666
 10
12.108731018076375
 20
37.99824786461025
 10
12.116996218881608
 20
38.02134755338791
 10
12.127485785922344
 20
38.043525879503136
 10
12.140098698933796
 20
38.06456925355154
 10
12.154713488668746
 20
38.08427501633754
 10
12.171189406712797
 20
38.10245339059327
 10
12.171189406712797
 20
47.74889999999999
 10
11.371189406712793
 20
47.74889999999999
 10
11.313363146964013
 20
47.752255133235565
 10
11.256312946439115
 20
47.76227550526613
 10
11.200804449233607
 20
47.77882663735879
 10
11.147582608962813
 20
47.801686404500046
 10
11.097361691087334
 20
47.83054801643192
 10
11.050815687089907
 20
47.86502413494074
 10
11.008569269150511
 20
47.90465207214231
 10
10.971189406712794
 20
47.948899999999995
 10
14.971189406712794
 20
47.948899999999995
  0
LWPOLYLINE
  5
66
330
17
100
AcDbEntity
  8
BRACKET_OUTLINE
100
AcDbPolyline
 90
87
 70
1
 10
10.971189406712794
 20
-0.0511000000000017
 10
11.008569269150511
 20
-0.006852072142311982
 10
11.050815687089907
 20
0.03277586505926067
 10
11.097361691087334
 20
0.06725198356807383
 10
11.147582608962813
 20
0.09611359549995413
 10
11.200804449233607
 20
0.11897336264120995
 10
11.256312946439115
 20
0.1355244947338612
 10
11.313363146964013
 20
0.14554486676443545
 10
11.371189406712793
 20
0.14890000000000114
 10
12.171189406712797
 20
0.14890000000000114
 10
12.17118940671279
 20
9.795346609406725
 10
12.154713488668746
 20
9.81352498366245
 10
12.140098698933796
 20
9.83323074644846
 10
12.127485785922344
 20
9.854274120496864
 10
12.116996218881608
 20
9.876452446612088
 10
12.108731018076375
 20
9.899552135389744
 10
12.102769781908625
 20
9.923350724199327
 10
12.09916992034138
 20
9.94761901962097
 10
12.097966102009428
 20
9.972123304703363
 10
12.09916992034138
 20
9.99662758978575
 10
12.102769781908625
 20
10.020895885207391
 10
12.108731018076375
 20
10.044694474016975
 10
12.116996218881608
 20
10.06779416279463
 10
12.127485785922344
 20
10.089972488909861
 10
12.140098698933796
 20
10.111015862958258
 10
12.154713488668746
 20
10.130721625744275
 10
12.17118940671279
 20
10.148900000000001
 10
12.189367780968515
 20
10.165375918044045
 10
12.209073543754526
 20
10.179990707779002
 10
12.23011691780293
 20
10.192603620790454
 10
12.25229524391816
 20
10.203093187831183
 10
12.275394932695816
 20
10.211358388636416
 10
12.2991935215054
 20
10.217319624804166
 10
12.323461816927042
 20
10.220919486371411
 10
12.347966102009428
 20
10.222123304703363
 10
12.372470387091822
 20
10.220919486371411
 10
12.396738682513464
 20
10.217319624804166
 10
12.420537271323047
 20
10.211358388636416
 10
12.443636960100703
 20
10.203093187831183
 10
12.465815286215927
 20
10.192603620790454
 10
12.48685866026433
 20
10.179990707779002
 10
12.50656442305034
 20
10.165375918044045
 10
12.524742797306066
 20
10.148900000000001
 10
13.417636016119522
 20
10.148900000000001
 10
13.435814390375247
 20
10.165375918044045
 10
13.455520153161258
 20
10.179990707779002
 10
13.476563527209654
 20
10.192603620790454
 10
13.498741853324885
 20
10.203093187831183
 10
13.52184154210254
 20
10.211358388636416
 10
13.545640130912124
 20
10.217319624804166
 10
13.569908426333766
 20
10.220919486371411
 10
13.59441271141616
 20
10.222123304703363
 10
13.618916996498546
 20
10.220919486371411
 10
13.643185291920188
 20
10.217319624804166
 10
13.666983880729772
 20
10.211358388636416
 10
13.690083569507427
 20
10.203093187831183
 10
13.712261895622659
 20
10.192603620790454
 10
13.733305269671055
 20
10.179990707779002
 10
13.753011032457065
 20
10.165375918044045
 10
13.771189406712791
 20
10.148900000000001
 10
13.787665324756842
 20
10.130721625744275
 10
13.802280114491792
 20
10.111015862958258
 10
13.814893027503244
 20
10.089972488909861
 10
13.82538259454398
 20
10.06779416279463
 10
13.833647795349206
 20
10.044694474016975
 10
13.839609031516963
 20
10.020895885207391
 10
13.843208893084208
 20
9.99662758978575
 10
13.84441271141616
 20
9.972123304703363
 10
13.843208893084208
 20
9.94761901962097
 10
13.839609031516963
 20
9.923350724199327
 10
13.833647795349206
 20
9.899552135389744
 10
13.82538259454398
 20
9.876452446612088
 10
13.814893027503244
 20
9.854274120496864
 10
13.802280114491792
 20
9.83323074644846
 10
13.787665324756842
 20
9.81352498366245
 10
13.771189406712791
 20
9.795346609406725
 10
13.771189406712791
 20
0.14890000000000114
 10
14.571189406712795
 20
0.14890000000000114
 10
14.629015666461575
 20
0.14554486676443545
 10
14.686065866986473
 20
0.1355244947338612
 10
14.741574364191981
 20
0.11897336264120995
 10
14.794796204462775
 20
0.09611359549995413
 10
14.845017122338254
 20
0.06725198356807383
 10
14.891563126335681
 20
0.03277586505926067
 10
14.933809544275077
 20
-0.006852072142311982
 10
14.971189406712794
 20
-0.0511000000000017
 10
10.971189406712794
 20
-0.0511000000000017
  0
LWPOLYLINE
  5
67
330
17
100
AcDbEntity
  8
BRACKET_OUTLINE
100
AcDbPolyline
 90
87
 70
1
 10
3.7711894067127982
 20
47.948899999999995
 10
3.733809544275081
 20
47.90465207214231
 10
3.6915631263356783
 20
47.86502413494074
 10
3.645017122338258
 20
47.83054801643192
 10
3.5947962044627797
 20
47.801686404500046
 10
3.5415743641919857
 20
47.77882663735879
 10
3.4860658669864772
 20
47.76227550526613
 10
3.429015666461579
 20
47.752255133235565
 10
3.3711894067127997
 20
47.74889999999999
 10
2.5711894067127954
 20
47.74889999999999
 10
2.5711894067127954
 20
44.10245339059327
 10
2.5876653247568466
 20
44.08427501633754
 10
2.602280114491796
 20
44.06456925355154
 10
2.614893027503248
 20
44.043525879503136
 10
2.625382594543984
 20
44.02134755338791
 10
2.6336477953492103
 20
43.99824786461025
 10
2.639609031516967
 20
43.974449275800666
 10
2.6432088930842124
 20
43.95018098037903
 10
2.644412711416164
 20
43.92567669529663
 10
2.6432088930842124
 20
43.901172410214244
 10
2.639609031516967
 20
43.87690411479261
 10
2.6336477953492103
 20
43.853105525983025
 10
2.625382594543984
 20
43.83000583720536
 10
2.614893027503248
 20
43.80782751109014
 10
2.602280114491796
 20
43.786784137041735
 10
2.5876653247568466
 20
43.76707837425572
 10
2.5711894067127954
 20
43.74889999999999
 10
2.5530110324570696
 20
43.732424081955955
 10
2.533305269671059
 20
43.71780929222099
 10
2.5122618956226628
 20
43.70519637920954
 10
2.4900835695074317
 20
43.69470681216882
 10
2.466983880729776
 20
43.68644161136358
 10
2.4431852919201926
 20
43.68048037519583
 10
2.4189169964985506
 20
43.67688051362859
 10
2.394412711416164
 20
43.67567669529663
 10
2.3699084263337706
 20
43.67688051362859
 10
2.3456401309121286
 20
43.68048037519583
 10
2.321841542102545
 20
43.68644161136358
 10
2.2987418533248896
 20
43.69470681216882
 10
2.2765635272096585
 20
43.70519637920954
 10
2.255520153161262
 20
43.71780929222099
 10
2.2358143903752516
 20
43.732424081955955
 10
2.217636016119526
 20
43.74889999999999
 10
1.3247427973060706
 20
43.74889999999999
 10
1.3065644230503448
 20
43.732424081955955
 10
1.2868586602643344
 20
43.71780929222099
 10
1.2658152862159309
 20
43.70519637920954
 10
1.243636960100707
 20
43.69470681216882
 10
1.2205372713230513
 20
43.68644161136358
 10
1.1967386825134678
 20
43.68048037519583
 10
1.1724703870918258
 20
43.67688051362859
 10
1.1479661020094323
 20
43.67567669529663
 10
1.1234618169270458
 20
43.67688051362859
 10
1.0991935215054038
 20
43.68048037519583
 10
1.0753949326958203
 20
43.68644161136358
 10
1.0522952439181648
 20
43.69470681216882
 10
1.0301169178029337
 20
43.70519637920954
 10
1.0090735437545373
 20
43.71780929222099
 10
0.9893677809685268
 20
43.732424081955955
 10
0.9711894067128011
 20
43.74889999999999
 10
0.9547134886687498
 20
43.76707837425572
 10
0.9400986989338005
 20
43.786784137041735
 10
0.9274857859223484
 20
43.80782751109014
 10
0.9169962188816125
 20
43.83000583720536
 10
0.908731018076379
 20
43.853105525983025
 10
0.9027697819086296
 20
43.87690411479261
 10
0.8991699203413841
 20
43.901172410214244
 10
0.8979661020094323
 20
43.92567669529663
 10
0.8991699203413841
 20
43.95018098037903
 10
0.9027697819086296
 20
43.974449275800666
 10
0.908731018076379
 20
43.99824786461025
 10
0.9169962188816125
 20
44.02134755338791
 10
0.9274857859223484
 20
44.043525879503136
 10
0.9400986989338005
 20
44.06456925355154
 10
0.9547134886687498
 20
44.08427501633754
 10
0.9711894067128011
 20
44.10245339059327
 10
0.9711894067128011
 20
47.74889999999999
 10
0.1711894067127968
 20
47.74889999999999
 10
0.1133631469640175
 20
47.752255133235565
 10
0.056312946439119216
 20
47.76227550526613
 10
0.0008044492336107822
 20
47.77882663735879
 10
-0.052417391037183236
 20
47.801686404500046
 10
-0.10263830891266146
 20
47.83054801643192
 10
-0.14918431291008893
 20
47.86502413494074
 10
-0.19143073084948448
 20
47.90465207214231
 10
-0.22881059328720177
 20
47.948899999999995
 10
3.7711894067127982
 20
47.948899999999995
  0
LWPOLYLINE
  5
68
330
17
100
AcDbEntity
  8
BRACKET_OUTLINE
100
AcDbPolyline
 90
87
 70
1
 10
-0.22881059328720177
 20
-0.0511000000000017
 10
-0.19143073084948448
 20
-0.006852072142311982
 10
-0.14918431291008183
 20
0.03277586505926067
 10
-0.10263830891266146
 20
0.06725198356807383
 10
-0.052417391037183236
 20
0.09611359549995413
 10
0.0008044492336107822
 20
0.11897336264120995
 10
0.056312946439119216
 20
0.1355244947338612
 10
0.1133631469640175
 20
0.14554486676443545
 10
0.1711894067127968
 20
0.14890000000000114
 10
0.9711894067128011
 20
0.14890000000000114
 10
0.9711894067128011
 20
3.7953466094067245
 10
0.9547134886687498
 20
3.8135249836624503
 10
0.9400986989338005
 20
3.8332307464484607
 10
0.9274857859223484
 20
3.8542741204968642
 10
0.9169962188816125
 20
3.876452446612088
 10
0.908731018076379
 20
3.8995521353897438
 10
0.9027697819086296
 20
3.9233507241993273
 10
0.8991699203413841
 20
3.9476190196209693
 10
0.8979661020094323
 20
3.972123304703363
 10
0.8991699203413841
 20
3.9966275897857493
 10
0.9027697819086296
 20
4.020895885207391
 10
0.908731018076379
 20
4.044694474016975
 10
0.9169962188816125
 20
4.0677941627946375
 10
0.9274857859223484
 20
4.089972488909861
 10
0.9400986989338005
 20
4.111015862958265
 10
0.9547134886687498
 20
4.130721625744275
 10
0.9711894067128011
 20
4.148900000000001
 10
0.9893677809685268
 20
4.165375918044045
 10
1.0090735437545373
 20
4.179990707779002
 10
1.0301169178029337
 20
4.192603620790454
 10
1.0522952439181648
 20
4.203093187831183
 10
1.0753949326958203
 20
4.211358388636416
 10
1.0991935215054038
 20
4.217319624804166
 10
1.1234618169270458
 20
4.220919486371411
 10
1.1479661020094323
 20
4.222123304703363
 10
1.1724703870918258
 20
4.220919486371411
 10
1.1967386825134678
 20
4.217319624804166
 10
1.2205372713230513
 20
4.211358388636416
 10
1.243636960100707
 20
4.203093187831183
 10
1.2658152862159309
 20
4.192603620790454
 10
1.2868586602643344
 20
4.179990707779002
 10
1.3065644230503448
 20
4.165375918044045
 10
1.3247427973060706
 20
4.148900000000001
 10
2.217636016119526
 20
4.148900000000001
 10
2.2358143903752516
 20
4.165375918044045
 10
2.255520153161262
 20
4.179990707779002
 10
2.2765635272096585
 20
4.192603620790454
 10
2.2987418533248896
 20
4.203093187831183
 10
2.321841542102545
 20
4.211358388636416
 10
2.3456401309121286
 20
4.217319624804166
 10
2.3699084263337706
 20
4.220919486371411
 10
2.394412711416164
 20
4.222123304703363
 10
2.4189169964985506
 20
4.220919486371411
 10
2.4431852919201926
 20
4.217319624804166
 10
2.466983880729776
 20
4.211358388636416
 10
2.4900835695074317
 20
4.203093187831183
 10
2.5122618956226628
 20
4.192603620790454
 10
2.533305269671059
 20
4.179990707779002
 10
2.5530110324570696
 20
4.165375918044045
 10
2.5711894067127954
 20
4.148900000000001
 10
2.5876653247568466
 20
4.130721625744275
 10
2.602280114491796
 20
4.111015862958265
 10
2.614893027503248
 20
4.089972488909861
 10
2.625382594543984
 20
4.0677941627946375
 10
2.6336477953492103
 20
4.044694474016975
 10
2.639609031516967
 20
4.020895885207391
 10
2.6432088930842124
 20
3.9966275897857493
 10
2.644412711416164
 20
3.972123304703363
 10
2.6432088930842124
 20
3.9476190196209693
 10
2.639609031516967
 20
3.9233507241993273
 10
2.6336477953492103
 20
3.8995521353897438
 10
2.625382594543984
 20
3.876452446612088
 10
2.614893027503248
 20
3.8542741204968642
 10
2.602280114491796
 20
3.8332307464484607
 10
2.5876653247568466
 20
3.8135249836624503
 10
2.5711894067127954
 20
3.7953466094067245
 10
2.5711894067127954
 20
0.14890000000000114
 10
3.3711894067127997
 20
0.14890000000000114
 10
3.429015666461579
 20
0.14554486676443545
 10
3.4860658669864772
 20
0.1355244947338612
 10
3.5415743641919857
 20
0.11897336264120995
 10
3.5947962044627797
 20
0.09611359549995413
 10
3.645017122338258
 20
0.06725198356807383
 10
3.6915631263356854
 20
0.03277586505926067
 10
3.733809544275081
 20
-0.006852072142311982
 10
3.7711894067127982
 20
-0.0511000000000017
 10
-0.22881059328720177
 20
-0.0511000000000017
  0
LWPOLYLINE
  5
69
330
17
100
AcDbEntity
  8
BRACKET_CUTS
100
AcDbPolyline
 90
2
 70
0
 10
0.37118940671279965
 20
39.9739
 10
0.37118940671279965
 20
41.573899999999995
  0
LWPOLYLINE
  5
6A
330
17
100
AcDbEntity
  8
BRACKET_CUTS
100
AcDbPolyline
 90
2
 70
0
 10
0.37118940671279965
 20
24.348899999999997
 10
0.37118940671279965
 20
25.9489
  0
LWPOLYLINE
  5
6B
330
17
100
AcDbEntity
  8
BRACKET_CUTS
100
AcDbPolyline
 90
2
 70
0
 10
0.37118940671279965
 20
8.098900000000004
 10
0.37118940671279965
 20
9.698899999999998
  0
LWPOLYLINE
  5
6C
330
17
100
AcDbEntity
  8
BRACKET_CUTS
100
AcDbPolyline
 90
2
 70
0
 10
12.171189406712797
 20
47.74889999999999
 10
13.771189406712791
 20
47.74889999999999
  0
LWPOLYLINE
  5
6D
330
17
100
AcDbEntity
  8
BRACKET_CUTS
100
AcDbPolyline
 90
2
 70
0
 10
13.771189406712791
 20
0.14890000000000114
 10
12.171189406712797
 20
0.14890000000000114
  0
LWPOLYLINE
  5
6E
330
17
100
AcDbEntity
  8
BRACKET_CUTS
100
AcDbPolyline
 90
2
 70
0
 10
0.9711894067128011
 20
47.74889999999999
 10
2.5711894067127954
 20
47.74889999999999
  0
LWPOLYLINE
  5
6F
330
17
100
AcDbEntity
  8
BRACKET_CUTS
100
AcDbPolyline
 90
2
 70
0
 10
2.5711894067127954
 20
0.14890000000000114
 10
0.9711894067128011
 20
0.14890000000000114
  0
LWPOLYLINE
  5
70
330
17
100
AcDbEntity
  8
SHELF_OUTLINE
100
AcDbPolyline
 90
110
 70
1
 10
67.92430598250965
 20
36.892700000000005
 10
67.92430598250965
 20
7.892700000000001
 10
64.08915192023375
 20
7.892700000000001
 10
64.08915192023375
 20
7.892700000000001
 10
63.86601433178967
 20
7.901009906319949
 10
63.64411291164988
 20
7.925893588917759
 10
63.42467697982346
 20
7.967213193745913
 10
63.20892219766821
 20
8.024739812774211
 10
62.998043833202665
 20
8.09815475212596
 10
62.793210139395896
 20
8.187051297622173
 10
62.595555882119044
 20
8.290936967952682
 10
62.40617605361324
 20
8.40923624299187
 10
62.226119806301
 20
8.541293752144203
 10
62.05638464054732
 20
8.686377905056418
 10
61.89791087856994
 20
8.843684944582375
 10
61.75157645511299
 20
9.01234339954745
 10
61.61819205374335
 20
9.191418912644433
 10
61.498496615714295
 20
9.379919416714628
 10
61.39315324627713
 20
9.576800630737985
 10
61.30274554111949
 20
9.780971845084704
 10
61.227774353281674
 20
9.991301963978483
 10
61.16865501846211
 20
10.20662577169648
 10
61.12571505408349
 20
10.42575038779163
 10
61.125715054082974
 20
10.425750387791549
 10
61.06153933347402
 20
10.86794372731077
 10
61.008913291910595
 20
11.310137066829991
 10
60.968541423348476
 20
11.752330406349213
 10
60.94096417765887
 20
12.194523745868437
 10
60.92655072573757
 20
12.636717085387659
 10
60.92549401749034
 20
13.07891042490688
 10
60.93780819885236
 20
13.521103764426101
 10
60.963328422419536
 20
13.963297103945322
 10
61.00171305422664
 20
14.405490443464544
 10
61.05244824713071
 20
14.847683782983768
 10
61.11485481957668
 20
15.28987712250299
 10
61.18809734766066
 20
15.732070462022211
 10
61.27119534877729
 20
16.174263801541432
 10
61.36303640713804
 20
16.616457141060653
 10
61.46239106545168
 20
17.058650480579875
 10
61.56792928341535
 20
17.500843820099096
 10
61.67823824268948
 20
17.943037159618317
 10
61.79184126000533
 20
18.38523049913754
 10
61.90721755521908
 20
18.82742383865676
 10
62.02282260968171
 20
19.269617178175984
 10
62.13710884239137
 20
19.711810517695206
 10
62.248546327140794
 20
20.154003857214427
 10
62.355643273323636
 20
20.596197196733648
 10
62.45696599622741
 20
21.03839053625287
 10
62.55115810947479
 20
21.48058387577209
 10
62.63695868268809
 20
21.922777215291312
 10
62.71321912130394
 20
22.364970554810537
 10
62.778918542571645
 20
22.807163894329758
 10
62.833177441899814
 20
23.24935723384898
 10
62.875269466602816
 20
23.6915505733682
 10
62.90463113943424
 20
24.133743912887425
 10
62.92086940174047
 20
24.575937252406646
 10
62.92376687525579
 20
25.018130591925868
 10
62.913284772100326
 20
25.46032393144509
 10
62.88956341402538
 20
25.90251727096431
 10
62.852920353955156
 20
26.34471061048353
 10
62.80384612497124
 20
26.786903950002753
 10
62.74299767364755
 20
27.229097289521974
 10
62.67118956564212
 20
27.671290629041195
 10
62.5893830812748
 20
28.11348396856042
 10
62.498673347065996
 20
28.55567730807964
 10
62.40027467550401
 20
28.997870647598862
 10
62.2955043092944
 20
29.440063987118084
 10
62.1857647877038
 20
29.882257326637305
 10
62.07252517105622
 20
30.324450666156526
 10
61.95730137472573
 20
30.766644005675747
 10
61.84163587589028
 20
31.208837345194972
 10
61.72707706470808
 20
31.651030684714193
 10
61.61515851633813
 20
32.093224024233415
 10
61.61515851645319
 20
32.093224024262064
 10
61.54411763582761
 20
32.426666347672025
 10
61.495964517454865
 20
32.76417466897992
 10
61.47092303594884
 20
33.10417983653636
 10
61.46910961475612
 20
33.44510109029545
 10
61.490532684877266
 20
33.78535341112175
 10
61.53509264566931
 20
34.12335488989855
 10
61.602582327911335
 20
34.457534082177126
 10
61.692687956980556
 20
34.78633731417331
 10
61.80499061166068
 20
35.10823590614428
 10
61.938968171800276
 20
35.42173327956252
 10
62.093997745766174
 20
35.72537191504398
 10
62.26935856640587
 20
36.01774012868162
 10
62.46423534205521
 20
36.297478635279504
 10
62.677722047011606
 20
36.563286867973595
 10
62.908826133850134
 20
36.81392902485791
 10
63.15647314799841
 20
37.04823981450392
 10
63.419511723116166
 20
37.2651298736609
 10
63.69671893405476
 20
37.463590831949276
 10
63.98680598250965
 20
37.642700000000005
 10
64.61180598250965
 20
37.642700000000005
 10
64.61180598250965
 20
37.642700000000005
 10
64.61652182508972
 20
37.55872664292252
 10
64.63061004837328
 20
37.47580929953276
 10
64.65389348477837
 20
37.39499070353362
 10
64.68607933158285
 20
37.317287195661834
 10
64.72676283308843
 20
37.2436759426135
 10
64.77543237065862
 20
37.17508264860595
 10
64.83147589661974
 20
37.11236991411009
 10
64.89418863111561
 20
37.056326388148975
 10
64.96278192512315
 20
37.00765685057879
 10
65.03639317817148
 20
36.966973349073186
 10
65.11409668604327
 20
36.934787502268726
 10
65.19491528204242
 20
36.91150406586363
 10
65.27783262543217
 20
36.897415842580074
 10
65.36180598250965
 20
36.892700000000005
 10
67.92430598250965
 20
36.892700000000005
  0
LWPOLYLINE
  5
71
330
17
100
AcDbEntity
  8
BRACKET_OUTLINE
100
AcDbPolyline
 90
87
 70
1
 10
67.92430598250965
 20
29.7177
 10
67.88005805465195
 20
29.75507986243772
 10
67.84043011745038
 20
29.797326280377117
 10
67.80595399894158
 20
29.843872284374545
 10
67.7770923870097
 20
29.894093202250023
 10
67.75423261986845
 20
29.947315042520813
 10
67.73768148777579
 20
30.00282353972632
 10
67.7276611157452
 20
30.05987374025122
 10
67.72430598250965
 20
30.1177
 10
67.72430598250965
 20
30.917700000000004
 10
64.07785937310292
 20
30.9177
 10
64.0596809988472
 20
30.901224081955952
 10
64.0399752360612
 20
30.886609292221003
 10
64.01893186201278
 20
30.87399637920955
 10
63.99675353589756
 20
30.863506812168815
 10
63.973653847119905
 20
30.855241611363585
 10
63.94985525831032
 20
30.849280375195832
 10
63.92558696288868
 20
30.84568051362859
 10
63.901082677806286
 20
30.84447669529664
 10
63.8765783927239
 20
30.84568051362859
 10
63.85231009730226
 20
30.849280375195832
 10
63.828511508492674
 20
30.855241611363585
 10
63.80541181971501
 20
30.863506812168815
 10
63.78323349359979
 20
30.87399637920955
 10
63.762190119551384
 20
30.886609292221003
 10
63.742484356765374
 20
30.901224081955952
 10
63.72430598250965
 20
30.9177
 10
63.707830064465604
 20
30.935878374255726
 10
63.69321527473065
 20
30.955584137041736
 10
63.680602361719195
 20
30.97662751109014
 10
63.67011279467847
 20
30.998805837205367
 10
63.66184759387323
 20
31.021905525983023
 10
63.655886357705484
 20
31.045704114792606
 10
63.65228649613824
 20
31.06997241021425
 10
63.651082677806286
 20
31.09447669529664
 10
63.65228649613824
 20
31.11898098037903
 10
63.655886357705484
 20
31.14324927580067
 10
63.66184759387323
 20
31.167047864610254
 10
63.67011279467847
 20
31.19014755338791
 10
63.680602361719195
 20
31.212325879503137
 10
63.69321527473065
 20
31.233369253551537
 10
63.707830064465604
 20
31.253075016337547
 10
63.72430598250965
 20
31.271253390593273
 10
63.72430598250965
 20
32.16414660940673
 10
63.707830064465604
 20
32.182324983662454
 10
63.69321527473065
 20
32.202030746448465
 10
63.680602361719195
 20
32.22307412049686
 10
63.67011279467847
 20
32.24525244661209
 10
63.66184759387323
 20
32.26835213538975
 10
63.655886357705484
 20
32.29215072419933
 10
63.65228649613824
 20
32.31641901962097
 10
63.651082677806286
 20
32.34092330470337
 10
63.65228649613824
 20
32.36542758978575
 10
63.655886357705484
 20
32.389695885207395
 10
63.66184759387323
 20
32.41349447401698
 10
63.67011279467847
 20
32.436594162794634
 10
63.680602361719195
 20
32.458772488909865
 10
63.69321527473065
 20
32.47981586295826
 10
63.707830064465604
 20
32.49952162574428
 10
63.72430598250965
 20
32.517700000000005
 10
63.742484356765374
 20
32.53417591804405
 10
63.762190119551384
 20
32.548790707779006
 10
63.78323349359979
 20
32.56140362079046
 10
63.80541181971501
 20
32.571893187831186
 10
63.828511508492674
 20
32.58015838863642
 10
63.85231009730226
 20
32.58611962480417
 10
63.8765783927239
 20
32.589719486371415
 10
63.901082677806286
 20
32.59092330470337
 10
63.92558696288868
 20
32.589719486371415
 10
63.94985525831032
 20
32.58611962480417
 10
63.973653847119905
 20
32.58015838863642
 10
63.99675353589756
 20
32.571893187831186
 10
64.01893186201278
 20
32.56140362079046
 10
64.0399752360612
 20
32.548790707779006
 10
64.0596809988472
 20
32.53417591804405
 10
64.07785937310292
 20
32.517700000000005
 10
67.72430598250965
 20
32.517700000000005
 10
67.72430598250965
 20
33.3177
 10
67.7276611157452
 20
33.37552625974878
 10
67.73768148777579
 20
33.43257646027368
 10
67.75423261986845
 20
33.48808495747919
 10
67.7770923870097
 20
33.54130679774998
 10
67.80595399894158
 20
33.59152771562546
 10
67.84043011745038
 20
33.63807371962288
 10
67.88005805465195
 20
33.68032013756228
 10
67.92430598250965
 20
33.7177
 10
67.92430598250965
 20
29.7177
  0
LWPOLYLINE
  5
72
330
17
100
AcDbEntity
  8
BRACKET_OUTLINE
100
AcDbPolyline
 90
87
 70
1
 10
67.92430598250965
 20
18.2177
 10
67.88005805465195
 20
18.25507986243772
 10
67.84043011745038
 20
18.297326280377117
 10
67.80595399894158
 20
18.343872284374545
 10
67.7770923870097
 20
18.394093202250023
 10
67.75423261986845
 20
18.447315042520813
 10
67.73768148777579
 20
18.502823539726318
 10
67.7276611157452
 20
18.559873740251216
 10
67.72430598250965
 20
18.6177
 10
67.72430598250965
 20
19.4177
 10
64.07785937310292
 20
19.4177
 10
64.0596809988472
 20
19.401224081955952
 10
64.0399752360612
 20
19.386609292221
 10
64.01893186201278
 20
19.373996379209547
 10
63.99675353589756
 20
19.363506812168815
 10
63.973653847119905
 20
19.355241611363585
 10
63.94985525831032
 20
19.34928037519583
 10
63.92558696288868
 20
19.345680513628587
 10
63.901082677806286
 20
19.34447669529664
 10
63.8765783927239
 20
19.345680513628587
 10
63.85231009730226
 20
19.34928037519583
 10
63.828511508492674
 20
19.355241611363585
 10
63.80541181971501
 20
19.363506812168815
 10
63.78323349359979
 20
19.373996379209547
 10
63.762190119551384
 20
19.386609292221
 10
63.742484356765374
 20
19.401224081955952
 10
63.72430598250965
 20
19.4177
 10
63.707830064465604
 20
19.435878374255726
 10
63.69321527473065
 20
19.455584137041736
 10
63.680602361719195
 20
19.476627511090136
 10
63.67011279467847
 20
19.498805837205364
 10
63.66184759387323
 20
19.521905525983023
 10
63.655886357705484
 20
19.545704114792606
 10
63.65228649613824
 20
19.56997241021425
 10
63.651082677806286
 20
19.59447669529664
 10
63.65228649613824
 20
19.61898098037903
 10
63.655886357705484
 20
19.64324927580067
 10
63.66184759387323
 20
19.667047864610254
 10
63.67011279467847
 20
19.69014755338791
 10
63.680602361719195
 20
19.712325879503137
 10
63.69321527473065
 20
19.733369253551537
 10
63.707830064465604
 20
19.753075016337547
 10
63.72430598250965
 20
19.771253390593273
 10
63.72430598250965
 20
20.66414660940673
 10
63.707830064465604
 20
20.68232498366245
 10
63.69321527473065
 20
20.702030746448465
 10
63.680602361719195
 20
20.723074120496864
 10
63.67011279467847
 20
20.745252446612092
 10
63.66184759387323
 20
20.768352135389748
 10
63.655886357705484
 20
20.79215072419933
 10
63.65228649613824
 20
20.816419019620973
 10
63.651082677806286
 20
20.840923304703363
 10
63.65228649613824
 20
20.865427589785753
 10
63.655886357705484
 20
20.889695885207395
 10
63.66184759387323
 20
20.91349447401698
 10
63.67011279467847
 20
20.936594162794634
 10
63.680602361719195
 20
20.958772488909865
 10
63.69321527473065
 20
20.97981586295826
 10
63.707830064465604
 20
20.999521625744276
 10
63.72430598250965
 20
21.0177
 10
63.742484356765374
 20
21.03417591804405
 10
63.762190119551384
 20
21.048790707779
 10
63.78323349359979
 20
21.06140362079045
 10
63.80541181971501
 20
21.071893187831186
 10
63.828511508492674
 20
21.080158388636416
 10
63.85231009730226
 20
21.08611962480417
 10
63.8765783927239
 20
21.089719486371415
 10
63.901082677806286
 20
21.090923304703363
 10
63.92558696288868
 20
21.089719486371415
 10
63.94985525831032
 20
21.08611962480417
 10
63.973653847119905
 20
21.080158388636416
 10
63.99675353589756
 20
21.071893187831186
 10
64.01893186201278
 20
21.06140362079045
 10
64.0399752360612
 20
21.048790707779
 10
64.0596809988472
 20
21.03417591804405
 10
64.07785937310292
 20
21.0177
 10
67.72430598250965
 20
21.0177
 10
67.72430598250965
 20
21.817700000000002
 10
67.7276611157452
 20
21.87552625974878
 10
67.73768148777579
 20
21.93257646027368
 10
67.75423261986845
 20
21.988084957479188
 10
67.7770923870097
 20
22.041306797749982
 10
67.80595399894158
 20
22.09152771562546
 10
67.84043011745038
 20
22.138073719622884
 10
67.88005805465195
 20
22.180320137562283
 10
67.92430598250965
 20
22.2177
 10
67.92430598250965
 20
18.2177
  0
LWPOLYLINE
  5
73
330
17
100
AcDbEntity
  8
BRACKET_OUTLINE
100
AcDbPolyline
 90
87
 70
1
 10
67.92430598250965
 20
9.067700000000002
 10
67.88005805465195
 20
9.105079862437723
 10
67.84043011745038
 20
9.147326280377118
 10
67.80595399894158
 20
9.193872284374546
 10
67.7770923870097
 20
9.244093202250024
 10
67.75423261986845
 20
9.297315042520815
 10
67.73768148777579
 20
9.35282353972632
 10
67.7276611157452
 20
9.409873740251218
 10
67.72430598250965
 20
9.4677
 10
67.72430598250965
 20
10.267700000000001
 10
64.07785937310292
 20
10.267700000000001
 10
64.0596809988472
 20
10.251224081955954
 10
64.0399752360612
 20
10.236609292221
 10
64.01893186201278
 20
10.223996379209549
 10
63.99675353589756
 20
10.213506812168816
 10
63.973653847119905
 20
10.205241611363586
 10
63.94985525831032
 20
10.19928037519583
 10
63.92558696288868
 20
10.195680513628588
 10
63.901082677806286
 20
10.19447669529664
 10
63.8765783927239
 20
10.195680513628588
 10
63.85231009730226
 20
10.19928037519583
 10
63.828511508492674
 20
10.205241611363586
 10
63.80541181971501
 20
10.213506812168816
 10
63.78323349359979
 20
10.223996379209549
 10
63.762190119551384
 20
10.236609292221
 10
63.742484356765374
 20
10.251224081955954
 10
63.72430598250965
 20
10.267700000000001
 10
63.707830064465604
 20
10.285878374255727
 10
63.69321527473065
 20
10.305584137041738
 10
63.680602361719195
 20
10.326627511090138
 10
63.67011279467847
 20
10.348805837205365
 10
63.66184759387323
 20
10.371905525983024
 10
63.655886357705484
 20
10.395704114792608
 10
63.65228649613824
 20
10.41997241021425
 10
63.651082677806286
 20
10.44447669529664
 10
63.65228649613824
 20
10.46898098037903
 10
63.655886357705484
 20
10.493249275800672
 10
63.66184759387323
 20
10.517047864610255
 10
63.67011279467847
 20
10.54014755338791
 10
63.680602361719195
 20
10.562325879503138
 10
63.69321527473065
 20
10.583369253551538
 10
63.707830064465604
 20
10.603075016337549
 10
63.72430598250965
 20
10.621253390593274
 10
63.72430598250965
 20
11.51414660940673
 10
63.707830064465604
 20
11.532324983662452
 10
63.69321527473065
 20
11.552030746448466
 10
63.680602361719195
 20
11.573074120496866
 10
63.67011279467847
 20
11.595252446612093
 10
63.66184759387323
 20
11.618352135389749
 10
63.655886357705484
 20
11.642150724199333
 10
63.65228649613824
 20
11.666419019620974
 10
63.651082677806286
 20
11.690923304703364
 10
63.65228649613824
 20
11.715427589785754
 10
63.655886357705484
 20
11.739695885207396
 10
63.66184759387323
 20
11.76349447401698
 10
63.67011279467847
 20
11.78659416279464
 10
63.680602361719195
 20
11.808772488909863
 10
63.69321527473065
 20
11.829815862958267
 10
63.707830064465604
 20
11.849521625744277
 10
63.72430598250965
 20
11.867700000000003
 10
63.742484356765374
 20
11.88417591804405
 10
63.762190119551384
 20
11.898790707779
 10
63.78323349359979
 20
11.911403620790455
 10
63.80541181971501
 20
11.921893187831188
 10
63.828511508492674
 20
11.930158388636418
 10
63.85231009730226
 20
11.936119624804174
 10
63.8765783927239
 20
11.939719486371413
 10
63.901082677806286
 20
11.940923304703364
 10
63.92558696288868
 20
11.939719486371413
 10
63.94985525831032
 20
11.936119624804174
 10
63.973653847119905
 20
11.930158388636418
 10
63.99675353589756
 20
11.921893187831188
 10
64.01893186201278
 20
11.911403620790455
 10
64.0399752360612
 20
11.898790707779
 10
64.0596809988472
 20
11.88417591804405
 10
64.07785937310292
 20
11.867700000000003
 10
67.72430598250965
 20
11.867700000000003
 10
67.72430598250965
 20
12.667700000000004
 10
67.7276611157452
 20
12.725526259748786
 10
67.73768148777579
 20
12.782576460273681
 10
67.75423261986845
 20
12.83808495747919
 10
67.7770923870097
 20
12.89130679774998
 10
67.80595399894158
 20
12.941527715625458
 10
67.84043011745038
 20
12.988073719622886
 10
67.88005805465195
 20
13.030320137562281
 10
67.92430598250965
 20
13.067700000000002
 10
67.92430598250965
 20
9.067700000000002
  0
LWPOLYLINE
  5
74
330
17
100
AcDbEntity
  8
BRACKET_CUTS
100
AcDbPolyline
 90
2
 70
0
 10
67.72430598250965
 20
32.517700000000005
 10
67.72430598250965
 20
30.917700000000004
  0
LWPOLYLINE
  5
75
330
17
100
AcDbEntity
  8
BRACKET_CUTS
100
AcDbPolyline
 90
2
 70
0
 10
67.72430598250965
 20
21.0177
 10
67.72430598250965
 20
19.4177
  0
LWPOLYLINE
  5
76
330
17
100
AcDbEntity
  8
BRACKET_CUTS
100
AcDbPolyline
 90
2
 70
0
 10
67.72430598250965
 20
11.867700000000003
 10
67.72430598250965
 20
10.267700000000001
  0
LWPOLYLINE
  5
77
330
17
100
AcDbEntity
  8
SHELF_OUTLINE
100
AcDbPolyline
 90
110
 70
1
 10
68.85156084503068
 20
7.529499999999999
 10
68.85156084503068
 20
36.5295
 10
71.28285220162732
 20
36.5295
 10
71.28285220162732
 20
36.5295
 10
71.4989821727662
 20
36.52170451098776
 10
71.71398891802828
 20
36.49835855705034
 10
71.92675504893334
 20
36.45958346693933
 10
72.13617482145769
 20
36.405580754514006
 10
72.34115988257749
 20
36.33663107147527
 10
72.5406449264317
 20
36.25309274882079
 10
72.73359323070864
 20
36.15539993460149
 10
72.91900204448437
 20
36.044060337657235
 10
73.09590779951186
 20
35.91965258905777
 10
73.26339111787809
 20
35.782823234961256
 10
73.42058159000436
 20
35.634283376518624
 10
73.56666229815846
 20
35.474804974286144
 10
73.70087406197021
 20
35.30521683635199
 10
73.82251938388619
 20
35.12640031102674
 10
73.93096607405947
 20
34.93928470648267
 10
74.02565053583562
 20
34.744842461145915
 10
74.10608069476035
 20
34.544084089941194
 10
74.17183855588692
 20
34.33805293265304
 10
74.22258237609273
 20
34.12781973169669
 10
74.22258237609253
 20
34.12781973169665
 10
74.32326667882671
 20
33.65551805366102
 10
74.43201773255248
 20
33.18321637562539
 10
74.54717497062612
 20
32.710914697589764
 10
74.66698000761797
 20
32.23861301955414
 10
74.78960348885636
 20
31.76631134151851
 10
74.91317302363146
 20
31.294009663482882
 10
75.0358017755348
 20
30.821707985447254
 10
75.15561727337645
 20
30.349406307411627
 10
75.27079000275354
 20
29.877104629376
 10
75.37956134169305
 20
29.404802951340372
 10
75.48027041380759
 20
28.932501273304744
 10
75.57137944893175
 20
28.460199595269117
 10
75.65149726399663
 20
27.98789791723349
 10
75.71940050560278
 20
27.51559623919786
 10
75.77405232992987
 20
27.04329456116223
 10
75.81461823475112
 20
26.570992883126603
 10
75.84047880180704
 20
26.098691205090976
 10
75.85123915496932
 20
25.62638952705535
 10
75.84673498977449
 20
25.15408784901972
 10
75.82703508225941
 20
24.681786170984093
 10
75.79244023879042
 20
24.209484492948466
 10
75.7434787029214
 20
23.73718281491284
 10
75.68089808941562
 20
23.26488113687721
 10
75.60565396859427
 20
22.792579458841583
 10
75.5188952753218
 20
22.320277780805956
 10
75.42194676542506
 20
21.84797610277033
 10
75.3162887874265
 20
21.375674424734697
 10
75.20353467846539
 20
20.90337274669907
 10
75.08540612955866
 20
20.431071068663442
 10
74.96370689635988
 20
19.958769390627815
 10
74.84029525683782
 20
19.486467712592187
 10
74.71705563643037
 20
19.01416603455656
 10
74.59586983394155
 20
18.541864356520932
 10
74.4785882875456
 20
18.069562678485305
 10
74.36700181965027
 20
17.597261000449677
 10
74.2628142920585
 20
17.12495932241405
 10
74.16761658896947
 20
16.652657644378422
 10
74.0828623250829
 20
16.180355966342795
 10
74.00984564973075
 20
15.708054288307167
 10
73.94968148595396
 20
15.23575261027154
 10
73.90328850626274
 20
14.763450932235912
 10
73.87137510503067
 20
14.291149254200285
 10
73.85442858171608
 20
13.818847576164657
 10
73.85270770007692
 20
13.34654589812903
 10
73.8662387369956
 20
12.874244220093402
 10
73.89481508124588
 20
12.401942542057775
 10
73.93800038832869
 20
11.929640864022147
 10
73.99513524320405
 20
11.45733918598652
 10
74.06534722918309
 20
10.985037507950894
 10
74.06534722901478
 20
10.985037507923664
 10
74.09791942367437
 20
10.747794001100303
 10
74.11909502362239
 20
10.509263031702972
 10
74.12882545590399
 20
10.269991746166237
 10
74.12708840068647
 20
10.030528989074533
 10
74.11388784245692
 20
9.791424044213041
 10
74.08925406088254
 20
9.553225374611102
 10
74.0532435613546
 20
9.316479364468297
 10
74.00593894537545
 20
9.081729065848993
 10
73.94744872108568
 20
8.849512953020183
 10
73.8779070543664
 20
8.620363687289972
 10
73.79747346108718
 20
8.394806895179912
 10
73.70633244120577
 20
8.17335996273386
 10
73.60469305555901
 20
7.9565308487289865
 10
73.49278844631543
 20
7.744816919511212
 10
73.37087530218976
 20
7.538703808127725
 10
73.23923326964594
 20
7.338664300373576
 10
73.09816431143929
 20
7.145157250307488
 10
72.94799201396911
 20
6.958626527724537
 10
72.78906084503068
 20
6.779499999999999
 10
72.16406084503068
 20
6.779499999999999
 10
72.16406084503068
 20
6.779499999999999
 10
72.1593450024506
 20
6.8634733570774795
 10
72.14525677916704
 20
6.946390700467235
 10
72.12197334276196
 20
7.027209296466374
 10
72.0897874959575
 20
7.104912804338168
 10
72.0491039944519
 20
7.1785240573865
 10
72.0004344568817
 20
7.247117351394049
 10
71.94439093092059
 20
7.30983008588991
 10
71.88167819642473
 20
7.365873611851022
 10
71.81308490241719
 20
7.4145431494212115
 10
71.73947364936885
 20
7.455226650926813
 10
71.66177014149706
 20
7.487412497731274
 10
71.58095154549791
 20
7.510695934136367
 10
71.49803420210816
 20
7.52478415741993
 10
71.41406084503068
 20
7.529499999999999
 10
68.85156084503068
 20
7.529499999999999
  0
LWPOLYLINE
  5
78
330
17
100
AcDbEntity
  8
BRACKET_OUTLINE
100
AcDbPolyline
 90
87
 70
1
 10
68.85156084503068
 20
14.7045
 10
68.89580877288837
 20
14.667120137562279
 10
68.93543671008995
 20
14.624873719622883
 10
68.96991282859875
 20
14.578327715625456
 10
68.99877444053064
 20
14.528106797749977
 10
69.0216342076719
 20
14.474884957479185
 10
69.03818533976454
 20
14.419376460273678
 10
69.04820571179512
 20
14.362326259748782
 10
69.05156084503068
 20
14.304499999999999
 10
69.05156084503068
 20
13.504499999999998
 10
72.6980074544374
 20
13.5045
 10
72.71618582869313
 20
13.520975918044046
 10
72.73589159147915
 20
13.535590707778997
 10
72.75693496552755
 20
13.548203620790451
 10
72.77911329164277
 20
13.558693187831183
 10
72.80221298042042
 20
13.566958388636415
 10
72.82601156923
 20
13.57291962480417
 10
72.85027986465165
 20
13.57651948637141
 10
72.87478414973404
 20
13.577723304703362
 10
72.89928843481643
 20
13.57651948637141
 10
72.92355673023808
 20
13.57291962480417
 10
72.94735531904766
 20
13.566958388636415
 10
72.97045500782532
 20
13.558693187831183
 10
72.99263333394055
 20
13.548203620790451
 10
73.01367670798895
 20
13.535590707778997
 10
73.03338247077495
 20
13.520975918044046
 10
73.05156084503068
 20
13.5045
 10
73.06803676307473
 20
13.486321625744274
 10
73.08265155280968
 20
13.466615862958264
 10
73.09526446582113
 20
13.44557248890986
 10
73.10575403286187
 20
13.423394162794635
 10
73.1140192336671
 20
13.400294474016977
 10
73.11998046983484
 20
13.376495885207394
 10
73.1235803314021
 20
13.352227589785752
 10
73.12478414973404
 20
13.327723304703362
 10
73.1235803314021
 20
13.303219019620972
 10
73.11998046983484
 20
13.27895072419933
 10
73.1140192336671
 20
13.255152135389746
 10
73.10575403286187
 20
13.23205244661209
 10
73.09526446582113
 20
13.209874120496863
 10
73.08265155280968
 20
13.188830746448462
 10
73.06803676307473
 20
13.169124983662451
 10
73.05156084503068
 20
13.150946609406725
 10
73.05156084503068
 20
12.258053390593272
 10
73.06803676307473
 20
12.239875016337546
 10
73.08265155280968
 20
12.220169253551536
 10
73.09526446582113
 20
12.199125879503136
 10
73.10575403286187
 20
12.176947553387908
 10
73.1140192336671
 20
12.15384786461025
 10
73.11998046983484
 20
12.130049275800667
 10
73.1235803314021
 20
12.105780980379025
 10
73.12478414973404
 20
12.081276695296635
 10
73.1235803314021
 20
12.056772410214245
 10
73.11998046983484
 20
12.032504114792603
 10
73.1140192336671
 20
12.00870552598302
 10
73.10575403286187
 20
11.985605837205362
 10
73.09526446582113
 20
11.963427511090137
 10
73.08265155280968
 20
11.942384137041735
 10
73.06803676307473
 20
11.922678374255725
 10
73.05156084503068
 20
11.904499999999999
 10
73.03338247077495
 20
11.888024081955951
 10
73.01367670798895
 20
11.873409292220998
 10
72.99263333394055
 20
11.860796379209546
 10
72.97045500782532
 20
11.850306812168814
 10
72.94735531904766
 20
11.842041611363584
 10
72.92355673023808
 20
11.836080375195827
 10
72.89928843481643
 20
11.832480513628585
 10
72.87478414973404
 20
11.831276695296635
 10
72.85027986465165
 20
11.832480513628585
 10
72.82601156923
 20
11.836080375195827
 10
72.80221298042042
 20
11.842041611363584
 10
72.77911329164277
 20
11.850306812168814
 10
72.75693496552755
 20
11.860796379209546
 10
72.73589159147915
 20
11.873409292220998
 10
72.71618582869313
 20
11.888024081955951
 10
72.6980074544374
 20
11.904499999999999
 10
69.05156084503068
 20
11.904499999999999
 10
69.05156084503068
 20
11.104499999999998
 10
69.04820571179512
 20
11.046673740251215
 10
69.03818533976454
 20
10.989623539726317
 10
69.0216342076719
 20
10.934115042520812
 10
68.99877444053064
 20
10.88089320225002
 10
68.96991282859875
 20
10.830672284374542
 10
68.93543671008995
 20
10.784126280377116
 10
68.89580877288837
 20
10.741879862437717
 10
68.85156084503068
 20
10.7045
 10
68.85156084503068
 20
14.7045
  0
LWPOLYLINE
  5
79
330
17
100
AcDbEntity
  8
BRACKET_OUTLINE
100
AcDbPolyline
 90
87
 70
1
 10
68.85156084503068
 20
26.2045
 10
68.89580877288837
 20
26.16712013756228
 10
68.93543671008995
 20
26.124873719622883
 10
68.96991282859875
 20
26.078327715625456
 10
68.99877444053064
 20
26.028106797749977
 10
69.0216342076719
 20
25.974884957479187
 10
69.03818533976454
 20
25.919376460273682
 10
69.04820571179512
 20
25.862326259748784
 10
69.05156084503068
 20
25.8045
 10
69.05156084503068
 20
25.0045
 10
72.6980074544374
 20
25.0045
 10
72.71618582869313
 20
25.020975918044048
 10
72.73589159147915
 20
25.035590707779
 10
72.75693496552755
 20
25.048203620790453
 10
72.77911329164277
 20
25.058693187831185
 10
72.80221298042042
 20
25.066958388636415
 10
72.82601156923
 20
25.07291962480417
 10
72.85027986465165
 20
25.076519486371414
 10
72.87478414973404
 20
25.077723304703362
 10
72.89928843481643
 20
25.076519486371414
 10
72.92355673023808
 20
25.07291962480417
 10
72.94735531904766
 20
25.066958388636415
 10
72.97045500782532
 20
25.058693187831185
 10
72.99263333394055
 20
25.048203620790453
 10
73.01367670798895
 20
25.035590707779
 10
73.03338247077495
 20
25.020975918044048
 10
73.05156084503068
 20
25.0045
 10
73.06803676307473
 20
24.986321625744274
 10
73.08265155280968
 20
24.966615862958264
 10
73.09526446582113
 20
24.945572488909864
 10
73.10575403286187
 20
24.923394162794636
 10
73.1140192336671
 20
24.900294474016977
 10
73.11998046983484
 20
24.876495885207394
 10
73.1235803314021
 20
24.852227589785752
 10
73.12478414973404
 20
24.827723304703362
 10
73.1235803314021
 20
24.803219019620972
 10
73.11998046983484
 20
24.77895072419933
 10
73.1140192336671
 20
24.755152135389746
 10
73.10575403286187
 20
24.73205244661209
 10
73.09526446582113
 20
24.709874120496863
 10
73.08265155280968
 20
24.688830746448463
 10
73.06803676307473
 20
24.669124983662453
 10
73.05156084503068
 20
24.650946609406727
 10
73.05156084503068
 20
23.758053390593272
 10
73.06803676307473
 20
23.73987501633755
 10
73.08265155280968
 20
23.720169253551536
 10
73.09526446582113
 20
23.699125879503136
 10
73.10575403286187
 20
23.676947553387908
 10
73.1140192336671
 20
23.653847864610253
 10
73.11998046983484
 20
23.63004927580067
 10
73.1235803314021
 20
23.605780980379027
 10
73.12478414973404
 20
23.581276695296637
 10
73.1235803314021
 20
23.556772410214247
 10
73.11998046983484
 20
23.532504114792605
 10
73.1140192336671
 20
23.50870552598302
 10
73.10575403286187
 20
23.485605837205362
 10
73.09526446582113
 20
23.46342751109014
 10
73.08265155280968
 20
23.442384137041735
 10
73.06803676307473
 20
23.422678374255725
 10
73.05156084503068
 20
23.4045
 10
73.03338247077495
 20
23.388024081955955
 10
73.01367670798895
 20
23.373409292220998
 10
72.99263333394055
 20
23.360796379209546
 10
72.97045500782532
 20
23.350306812168817
 10
72.94735531904766
 20
23.342041611363584
 10
72.92355673023808
 20
23.336080375195827
 10
72.89928843481643
 20
23.33248051362859
 10
72.87478414973404
 20
23.331276695296637
 10
72.85027986465165
 20
23.33248051362859
 10
72.82601156923
 20
23.336080375195827
 10
72.80221298042042
 20
23.342041611363584
 10
72.77911329164277
 20
23.350306812168817
 10
72.75693496552755
 20
23.360796379209546
 10
72.73589159147915
 20
23.373409292220998
 10
72.71618582869313
 20
23.388024081955955
 10
72.6980074544374
 20
23.4045
 10
69.05156084503068
 20
23.4045
 10
69.05156084503068
 20
22.6045
 10
69.04820571179512
 20
22.546673740251215
 10
69.03818533976454
 20
22.489623539726317
 10
69.0216342076719
 20
22.434115042520816
 10
68.99877444053064
 20
22.38089320225002
 10
68.96991282859875
 20
22.330672284374543
 10
68.93543671008995
 20
22.284126280377116
 10
68.89580877288837
 20
22.24187986243772
 10
68.85156084503068
 20
22.2045
 10
68.85156084503068
 20
26.2045
  0
LWPOLYLINE
  5
7A
330
17
100
AcDbEntity
  8
BRACKET_OUTLINE
100
AcDbPolyline
 90
87
 70
1
 10
68.85156084503068
 20
35.3545
 10
68.89580877288837
 20
35.31712013756228
 10
68.93543671008995
 20
35.27487371962288
 10
68.96991282859875
 20
35.228327715625454
 10
68.99877444053064
 20
35.178106797749976
 10
69.0216342076719
 20
35.12488495747918
 10
69.03818533976454
 20
35.06937646027368
 10
69.04820571179512
 20
35.01232625974878
 10
69.05156084503068
 20
34.954499999999996
 10
69.05156084503068
 20
34.1545
 10
72.6980074544374
 20
34.1545
 10
72.71618582869313
 20
34.17097591804405
 10
72.73589159147915
 20
34.185590707779
 10
72.75693496552755
 20
34.19820362079045
 10
72.77911329164277
 20
34.20869318783119
 10
72.80221298042042
 20
34.216958388636414
 10
72.82601156923
 20
34.22291962480417
 10
72.85027986465165
 20
34.226519486371416
 10
72.87478414973404
 20
34.22772330470336
 10
72.89928843481643
 20
34.226519486371416
 10
72.92355673023808
 20
34.22291962480417
 10
72.94735531904766
 20
34.216958388636414
 10
72.97045500782532
 20
34.20869318783119
 10
72.99263333394055
 20
34.19820362079045
 10
73.01367670798895
 20
34.185590707779
 10
73.03338247077495
 20
34.17097591804405
 10
73.05156084503068
 20
34.1545
 10
73.06803676307473
 20
34.13632162574427
 10
73.08265155280968
 20
34.11661586295826
 10
73.09526446582113
 20
34.095572488909866
 10
73.10575403286187
 20
34.073394162794635
 10
73.1140192336671
 20
34.05029447401698
 10
73.11998046983484
 20
34.026495885207396
 10
73.1235803314021
 20
34.00222758978575
 10
73.12478414973404
 20
33.97772330470336
 10
73.1235803314021
 20
33.953219019620974
 10
73.11998046983484
 20
33.928950724199325
 10
73.1140192336671
 20
33.90515213538974
 10
73.10575403286187
 20
33.88205244661209
 10
73.09526446582113
 20
33.85987412049686
 10
73.08265155280968
 20
33.838830746448465
 10
73.06803676307473
 20
33.81912498366245
 10
73.05156084503068
 20
33.80094660940672
 10
73.05156084503068
 20
32.90805339059327
 10
73.06803676307473
 20
32.88987501633755
 10
73.08265155280968
 20
32.87016925355154
 10
73.09526446582113
 20
32.849125879503134
 10
73.10575403286187
 20
32.82694755338791
 10
73.1140192336671
 20
32.80384786461025
 10
73.11998046983484
 20
32.780049275800664
 10
73.1235803314021
 20
32.75578098037903
 10
73.12478414973404
 20
32.731276695296636
 10
73.1235803314021
 20
32.70677241021424
 10
73.11998046983484
 20
32.68250411479261
 10
73.1140192336671
 20
32.658705525983024
 10
73.10575403286187
 20
32.63560583720536
 10
73.09526446582113
 20
32.61342751109014
 10
73.08265155280968
 20
32.59238413704173
 10
73.06803676307473
 20
32.57267837425572
 10
73.05156084503068
 20
32.5545
 10
73.03338247077495
 20
32.53802408195595
 10
73.01367670798895
 20
32.523409292221004
 10
72.99263333394055
 20
32.510796379209545
 10
72.97045500782532
 20
32.500306812168816
 10
72.94735531904766
 20
32.49204161136358
 10
72.92355673023808
 20
32.486080375195826
 10
72.89928843481643
 20
32.48248051362859
 10
72.87478414973404
 20
32.481276695296636
 10
72.85027986465165
 20
32.48248051362859
 10
72.82601156923
 20
32.486080375195826
 10
72.80221298042042
 20
32.49204161136358
 10
72.77911329164277
 20
32.500306812168816
 10
72.75693496552755
 20
32.510796379209545
 10
72.73589159147915
 20
32.523409292221004
 10
72.71618582869313
 20
32.53802408195595
 10
72.6980074544374
 20
32.5545
 10
69.05156084503068
 20
32.5545
 10
69.05156084503068
 20
31.754499999999997
 10
69.04820571179512
 20
31.696673740251214
 10
69.03818533976454
 20
31.63962353972632
 10
69.0216342076719
 20
31.58411504252081
 10
68.99877444053064
 20
31.53089320225002
 10
68.96991282859875
 20
31.480672284374542
 10
68.93543671008995
 20
31.434126280377114
 10
68.89580877288837
 20
31.39187986243772
 10
68.85156084503068
 20
31.354499999999998
 10
68.85156084503068
 20
35.3545
  0
LWPOLYLINE
  5
7B
330
17
100
AcDbEntity
  8
BRACKET_CUTS
100
AcDbPolyline
 90
2
 70
0
 10
69.05156084503068
 20
11.904499999999999
 10
69.05156084503068
 20
13.504499999999998
  0
LWPOLYLINE
  5
7C
330
17
100
AcDbEntity
  8
BRACKET_CUTS
100
AcDbPolyline
 90
2
 70
0
 10
69.05156084503068
 20
23.4045
 10
69.05156084503068
 20
25.0045
  0
LWPOLYLINE
  5
7D
330
17
100
AcDbEntity
  8
BRACKET_CUTS
100
AcDbPolyline
 90
2
 70
0
 10
69.05156084503068
 20
32.5545
 10
69.05156084503068
 20
34.1545
  0
ENDSEC
  0
SECTION
  2
OBJECTS
  0
DICTIONARY
  5
A
330
0
100
AcDbDictionary
281
1
  3
ACAD_COLOR
350
B
  3
ACAD_GROUP
350
C
  3
ACAD_LAYOUT
350
D
  3
ACAD_MATERIAL
350
E
  3
ACAD_MLEADERSTYLE
350
F
  3
ACAD_MLINESTYLE
350
10
  3
ACAD_PLOTSETTINGS
350
11
  3
ACAD_PLOTSTYLENAME
350
12
  3
ACAD_SCALELIST
350
14
  3
ACAD_TABLESTYLE
350
15
  3
ACAD_VISUALSTYLE
350
16
  3
EZDXF_META
350
2D
  0
DICTIONARY
  5
B
330
A
100
AcDbDictionary
281
1
  0
DICTIONARY
  5
C
330
A
100
AcDbDictionary
281
1
  0
DICTIONARY
  5
D
330
A
100
AcDbDictionary
281
1
  3
Model
350
1A
  3
Layout1
350
1E
  0
DICTIONARY
  5
E
330
A
100
AcDbDictionary
281
1
  3
ByBlock
350
1F
  3
ByLayer
350
20
  3
Global
350
21
  0
DICTIONARY
  5
F
330
A
100
AcDbDictionary
281
1
  3
Standard
350
2C
  0
DICTIONARY
  5
10
330
A
100
AcDbDictionary
281
1
  3
Standard
350
22
  0
DICTIONARY
  5
11
330
A
100
AcDbDictionary
281
1
  0
ACDBDICTIONARYWDFLT
  5
12
330
A
100
AcDbDictionary
281
1
  3
Normal
350
13
100
AcDbDictionaryWithDefault
340
13
  0
ACDBPLACEHOLDER
  5
13
330
12
  0
DICTIONARY
  5
14
330
A
100
AcDbDictionary
281
1
  0
DICTIONARY
  5
15
330
A
100
AcDbDictionary
281
1
  0
DICTIONARY
  5
16
330
A
100
AcDbDictionary
281
1
  0
LAYOUT
  5
1A
330
D
100
AcDbPlotSettings
  1

  4
A3
  6

 40
7.5
 41
20.0
 42
7.5
 43
20.0
 44
420.0
 45
297.0
 46
0.0
 47
0.0
 48
0.0
 49
0.0
140
0.0
141
0.0
142
1.0
143
1.0
 70
1024
 72
1
 73
0
 74
5
  7

 75
16
 76
0
 77
2
 78
300
147
1.0
148
0.0
149
0.0
100
AcDbLayout
  1
Model
 70
1
 71
0
 10
0.0
 20
0.0
 11
420.0
 21
297.0
 12
0.0
 22
0.0
 32
0.0
 14
1e+20
 24
1e+20
 34
1e+20
 15
-1e+20
 25
-1e+20
 35
-1e+20
146
0.0
 13
0.0
 23
0.0
 33
0.0
 16
1.0
 26
0.0
 36
0.0
 17
0.0
 27
1.0
 37
0.0
 76
1
330
17
  0
LAYOUT
  5
1E
330
D
100
AcDbPlotSettings
  1

  4
A3
  6

 40
7.5
 41
20.0
 42
7.5
 43
20.0
 44
420.0
 45
297.0
 46
0.0
 47
0.0
 48
0.0
 49
0.0
140
0.0
141
0.0
142
1.0
143
1.0
 70
0
 72
1
 73
0
 74
5
  7

 75
16
 76
0
 77
2
 78
300
147
1.0
148
0.0
149
0.0
100
AcDbLayout
  1
Layout1
 70
1
 71
1
 10
0.0
 20
0.0
 11
420.0
 21
297.0
 12
0.0
 22
0.0
 32
0.0
 14
1e+20
 24
1e+20
 34
1e+20
 15
-1e+20
 25
-1e+20
 35
-1e+20
146
0.0
 13
0.0
 23
0.0
 33
0.0
 16
1.0
 26
0.0
 36
0.0
 17
0.0
 27
1.0
 37
0.0
 76
1
330
1B
  0
MATERIAL
  5
1F
102
{ACAD_REACTORS
330
E
102
}
330
E
100
AcDbMaterial
  1
ByBlock
  2

 70
0
 40
1.0
 71
1
 41
1.0
 91
-1023410177
 42
1.0
 72
1
  3

 73
1
 74
1
 75
1
 44
0.5
 73
0
 45
1.0
 46
1.0
 77
1
  4

 78
1
 79
1
170
1
 48
1.0
171
1
  6

172
1
173
1
174
1
140
1.0
141
1.0
175
1
  7

176
1
177
1
178
1
143
1.0
179
1
  8

270
1
271
1
272
1
145
1.0
146
1.0
273
1
  9

274
1
275
1
276
1
 42
1.0
 72
1
  3

 73
1
 74
1
 75
1
 94
63
  0
MATERIAL
  5
20
102
{ACAD_REACTORS
330
E
102
}
330
E
100
AcDbMaterial
  1
ByLayer
  2

 70
0
 40
1.0
 71
1
 41
1.0
 91
-1023410177
 42
1.0
 72
1
  3

 73
1
 74
1
 75
1
 44
0.5
 73
0
 45
1.0
 46
1.0
 77
1
  4

 78
1
 79
1
170
1
 48
1.0
171
1
  6

172
1
173
1
174
1
140
1.0
141
1.0
175
1
  7

176
1
177
1
178
1
143
1.0
179
1
  8

270
1
271
1
272
1
145
1.0
146
1.0
273
1
  9

274
1
275
1
276
1
 42
1.0
 72
1
  3

 73
1
 74
1
 75
1
 94
63
  0
MATERIAL
  5
21
102
{ACAD_REACTORS
330
E
102
}
330
E
100
AcDbMaterial
  1
Global
  2

 70
0
 40
1.0
 71
1
 41
1.0
 91
-1023410177
 42
1.0
 72
1
  3

 73
1
 74
1
 75
1
 44
0.5
 73
0
 45
1.0
 46
1.0
 77
1
  4

 78
1
 79
1
170
1
 48
1.0
171
1
  6

172
1
173
1
174
1
140
1.0
141
1.0
175
1
  7

176
1
177
1
178
1
143
1.0
179
1
  8

270
1
271
1
272
1
145
1.0
146
1.0
273
1
  9

274
1
275
1
276
1
 42
1.0
 72
1
  3

 73
1
 74
1
 75
1
 94
63
  0
MLINESTYLE
  5
22
102
{ACAD_REACTORS
330
10
102
}
330
10
100
AcDbMlineStyle
  2
Standard
 70
0
  3

 62
256
 51
90.0
 52
90.0
 71
2
 49
0.5
 62
256
  6
BYLAYER
 49
-0.5
 62
256
  6
BYLAYER
  0
MLEADERSTYLE
  5
2C
102
{ACAD_REACTORS
330
F
102
}
330
F
100
AcDbMLeaderStyle
179
2
170
2
171
1
172
0
 90
2
 40
0.0
 41
0.0
173
1
 91
-1056964608
 92
-2
290
1
 42
2.0
291
1
 43
8.0
  3
Standard
 44
4.0
300

342
29
174
1
175
1
176
0
178
1
 93
-1056964608
 45
4.0
292
0
297
0
 46
4.0
 94
-1056964608
 47
1.0
 49
1.0
140
1.0
294
1
141
0.0
177
0
142
1.0
295
0
296
0
143
3.75
271
0
272
9
273
9
  0
DICTIONARY
  5
2D
330
A
100
AcDbDictionary
280
1
281
1
  3
CREATED_BY_EZDXF
350
2E
  3
WRITTEN_BY_EZDXF
350
80
  0
DICTIONARYVAR
  5
2E
330
2D
100
DictionaryVariables
280
0
  1
1.4.3 @ 2026-03-26T17:33:05.862156+00:00
  0
DICTIONARYVAR
  5
80
330
2D
100
DictionaryVariables
280
0
  1
1.4.3 @ 2026-03-26T17:33:05.878326+00:00
  0
ENDSEC
  0
EOF
