  0
SECTION
  2
HEADER
  9
$ACADVER
  1
AC1024
  9
$ACADMAINTVER
 70
6
  9
$DWGCODEPAGE
  3
ANSI_1252
  9
$LASTSAVEDBY
  1
ezdxf
  9
$INSBASE
 10
0.0
 20
0.0
 30
0.0
  9
$EXTMIN
 10
1e+20
 20
1e+20
 30
1e+20
  9
$EXTMAX
 10
-1e+20
 20
-1e+20
 30
-1e+20
  9
$LIMMIN
 10
0.0
 20
0.0
  9
$LIMMAX
 10
420.0
 20
297.0
  9
$ORTHOMODE
 70
0
  9
$REGENMODE
 70
1
  9
$FILLMODE
 70
1
  9
$QTEXTMODE
 70
0
  9
$MIRRTEXT
 70
1
  9
$LTSCALE
 40
1.0
  9
$ATTMODE
 70
1
  9
$TEXTSIZE
 40
2.5
  9
$TRACEWID
 40
1.0
  9
$TEXTSTYLE
  7
OpenSans
  9
$CLAYER
  8
0
  9
$CELTYPE
  6
ByLayer
  9
$CECOLOR
 62
256
  9
$CELTSCALE
 40
1.0
  9
$DISPSILH
 70
0
  9
$DIMSCALE
 40
1.0
  9
$DIMASZ
 40
0.175
  9
$DIMEXO
 40
0.125
  9
$DIMDLI
 40
3.75
  9
$DIMRND
 40
0.0
  9
$DIMDLE
 40
0.0
  9
$DIMEXE
 40
0.375
  9
$DIMTP
 40
0.0
  9
$DIMTM
 40
0.0
  9
$DIMTXT
 40
0.25
  9
$DIMCEN
 40
2.5
  9
$DIMTSZ
 40
0.0
  9
$DIMTOL
 70
0
  9
$DIMLIM
 70
0
  9
$DIMTIH
 70
0
  9
$DIMTOH
 70
0
  9
$DIMSE1
 70
0
  9
$DIMSE2
 70
0
  9
$DIMTAD
 70
1
  9
$DIMZIN
 70
12
  9
$DIMBLK
  1
ARCHTICK
  9
$DIMASO
 70
1
  9
$DIMSHO
 70
1
  9
$DIMPOST
  1

  9
$DIMAPOST
  1

  9
$DIMALT
 70
0
  9
$DIMALTD
 70
3
  9
$DIMALTF
 40
0.03937007874
  9
$DIMLFAC
 40
100.0
  9
$DIMTOFL
 70
1
  9
$DIMTVP
 40
0.0
  9
$DIMTIX
 70
0
  9
$DIMSOXD
 70
0
  9
$DIMSAH
 70
0
  9
$DIMBLK1
  1

  9
$DIMBLK2
  1

  9
$DIMSTYLE
  2
EZDXF
  9
$DIMCLRD
 70
0
  9
$DIMCLRE
 70
0
  9
$DIMCLRT
 70
0
  9
$DIMTFAC
 40
0.5
  9
$DIMGAP
 40
0.1
  9
$DIMJUST
 70
0
  9
$DIMSD1
 70
0
  9
$DIMSD2
 70
0
  9
$DIMTOLJ
 70
0
  9
$DIMTZIN
 70
8
  9
$DIMALTZ
 70
0
  9
$DIMALTTZ
 70
0
  9
$DIMUPT
 70
1
  9
$DIMDEC
 70
2
  9
$DIMTDEC
 70
2
  9
$DIMALTU
 70
2
  9
$DIMALTTD
 70
3
  9
$DIMTXSTY
  7
OpenSansCondensed-Light
  9
$DIMAUNIT
 70
0
  9
$DIMADEC
 70
2
  9
$DIMALTRND
 40
0.0
  9
$DIMAZIN
 70
3
  9
$DIMDSEP
 70
46
  9
$DIMATFIT
 70
3
  9
$DIMFRAC
 70
0
  9
$DIMLDRBLK
  1

  9
$DIMLUNIT
 70
2
  9
$DIMLWD
 70
-2
  9
$DIMLWE
 70
-2
  9
$DIMTMOVE
 70
2
  9
$DIMFXL
 40
1.0
  9
$DIMFXLON
 70
0
  9
$DIMJOGANG
 40
0.785398163397
  9
$DIMTFILL
 70
0
  9
$DIMTFILLCLR
 70
0
  9
$DIMARCSYM
 70
0
  9
$DIMLTYPE
  6

  9
$DIMLTEX1
  6

  9
$DIMLTEX2
  6

  9
$DIMTXTDIRECTION
 70
0
  9
$LUNITS
 70
2
  9
$LUPREC
 70
4
  9
$SKETCHINC
 40
1.0
  9
$FILLETRAD
 40
10.0
  9
$AUNITS
 70
0
  9
$AUPREC
 70
2
  9
$MENU
  1
.
  9
$ELEVATION
 40
0.0
  9
$PELEVATION
 40
0.0
  9
$THICKNESS
 40
0.0
  9
$LIMCHECK
 70
0
  9
$CHAMFERA
 40
0.0
  9
$CHAMFERB
 40
0.0
  9
$CHAMFERC
 40
0.0
  9
$CHAMFERD
 40
0.0
  9
$SKPOLY
 70
0
  9
$TDCREATE
 40
2461072.4877199074
  9
$TDUCREATE
 40
2458532.153996898
  9
$TDUPDATE
 40
2461072.4877199074
  9
$TDUUPDATE
 40
2458532.1544311
  9
$TDINDWG
 40
0.0
  9
$TDUSRTIMER
 40
0.0
  9
$USRTIMER
 70
1
  9
$ANGBASE
 50
0.0
  9
$ANGDIR
 70
0
  9
$PDMODE
 70
0
  9
$PDSIZE
 40
0.0
  9
$PLINEWID
 40
0.0
  9
$SPLFRAME
 70
0
  9
$SPLINETYPE
 70
6
  9
$SPLINESEGS
 70
8
  9
$HANDSEED
  5
A6
  9
$SURFTAB1
 70
6
  9
$SURFTAB2
 70
6
  9
$SURFTYPE
 70
6
  9
$SURFU
 70
6
  9
$SURFV
 70
6
  9
$UCSBASE
  2

  9
$UCSNAME
  2

  9
$UCSORG
 10
0.0
 20
0.0
 30
0.0
  9
$UCSXDIR
 10
1.0
 20
0.0
 30
0.0
  9
$UCSYDIR
 10
0.0
 20
1.0
 30
0.0
  9
$UCSORTHOREF
  2

  9
$UCSORTHOVIEW
 70
0
  9
$UCSORGTOP
 10
0.0
 20
0.0
 30
0.0
  9
$UCSORGBOTTOM
 10
0.0
 20
0.0
 30
0.0
  9
$UCSORGLEFT
 10
0.0
 20
0.0
 30
0.0
  9
$UCSORGRIGHT
 10
0.0
 20
0.0
 30
0.0
  9
$UCSORGFRONT
 10
0.0
 20
0.0
 30
0.0
  9
$UCSORGBACK
 10
0.0
 20
0.0
 30
0.0
  9
$PUCSBASE
  2

  9
$PUCSNAME
  2

  9
$PUCSORG
 10
0.0
 20
0.0
 30
0.0
  9
$PUCSXDIR
 10
1.0
 20
0.0
 30
0.0
  9
$PUCSYDIR
 10
0.0
 20
1.0
 30
0.0
  9
$PUCSORTHOREF
  2

  9
$PUCSORTHOVIEW
 70
0
  9
$PUCSORGTOP
 10
0.0
 20
0.0
 30
0.0
  9
$PUCSORGBOTTOM
 10
0.0
 20
0.0
 30
0.0
  9
$PUCSORGLEFT
 10
0.0
 20
0.0
 30
0.0
  9
$PUCSORGRIGHT
 10
0.0
 20
0.0
 30
0.0
  9
$PUCSORGFRONT
 10
0.0
 20
0.0
 30
0.0
  9
$PUCSORGBACK
 10
0.0
 20
0.0
 30
0.0
  9
$USERI1
 70
0
  9
$USERI2
 70
0
  9
$USERI3
 70
0
  9
$USERI4
 70
0
  9
$USERI5
 70
0
  9
$USERR1
 40
0.0
  9
$USERR2
 40
0.0
  9
$USERR3
 40
0.0
  9
$USERR4
 40
0.0
  9
$USERR5
 40
0.0
  9
$WORLDVIEW
 70
1
  9
$SHADEDGE
 70
3
  9
$SHADEDIF
 70
70
  9
$TILEMODE
 70
1
  9
$MAXACTVP
 70
64
  9
$PINSBASE
 10
0.0
 20
0.0
 30
0.0
  9
$PLIMCHECK
 70
0
  9
$PEXTMIN
 10
1e+20
 20
1e+20
 30
1e+20
  9
$PEXTMAX
 10
-1e+20
 20
-1e+20
 30
-1e+20
  9
$PLIMMIN
 10
0.0
 20
0.0
  9
$PLIMMAX
 10
420.0
 20
297.0
  9
$UNITMODE
 70
0
  9
$VISRETAIN
 70
1
  9
$PLINEGEN
 70
0
  9
$PSLTSCALE
 70
1
  9
$TREEDEPTH
 70
3020
  9
$CMLSTYLE
  2
Standard
  9
$CMLJUST
 70
0
  9
$CMLSCALE
 40
20.0
  9
$PROXYGRAPHICS
 70
1
  9
$MEASUREMENT
 70
1
  9
$CELWEIGHT
370
-1
  9
$ENDCAPS
280
0
  9
$JOINSTYLE
280
0
  9
$LWDISPLAY
290
0
  9
$INSUNITS
 70
1
  9
$HYPERLINKBASE
  1

  9
$STYLESHEET
  1

  9
$XEDIT
290
1
  9
$CEPSNTYPE
380
0
  9
$PSTYLEMODE
290
1
  9
$FINGERPRINTGUID
  2
{072766D8-D5FA-4C2D-8887-13BA613D22E9}
  9
$VERSIONGUID
  2
{90F439C6-70EC-44B8-9B2F-379D015CFE7C}
  9
$EXTNAMES
290
1
  9
$PSVPSCALE
 40
0.0
  9
$OLESTARTUP
290
0
  9
$SORTENTS
280
127
  9
$INDEXCTL
280
0
  9
$HIDETEXT
280
1
  9
$XCLIPFRAME
280
1
  9
$HALOGAP
280
0
  9
$OBSCOLOR
 70
257
  9
$OBSLTYPE
280
0
  9
$INTERSECTIONDISPLAY
280
0
  9
$INTERSECTIONCOLOR
 70
257
  9
$DIMASSOC
280
2
  9
$PROJECTNAME
  1

  9
$CAMERADISPLAY
290
0
  9
$LENSLENGTH
 40
50.0
  9
$CAMERAHEIGHT
 40
0.0
  9
$STEPSPERSEC
 40
24.0
  9
$STEPSIZE
 40
100.0
  9
$3DDWFPREC
 40
2.0
  9
$PSOLWIDTH
 40
0.005
  9
$PSOLHEIGHT
 40
0.08
  9
$LOFTANG1
 40
1.570796326795
  9
$LOFTANG2
 40
1.570796326795
  9
$LOFTMAG1
 40
0.0
  9
$LOFTMAG2
 40
0.0
  9
$LOFTPARAM
 70
7
  9
$LOFTNORMALS
280
1
  9
$LATITUDE
 40
37.795
  9
$LONGITUDE
 40
-122.394
  9
$NORTHDIRECTION
 40
0.0
  9
$TIMEZONE
 70
-8000
  9
$LIGHTGLYPHDISPLAY
280
1
  9
$TILEMODELIGHTSYNCH
280
1
  9
$CMATERIAL
347
20
  9
$SOLIDHIST
280
0
  9
$SHOWHIST
280
1
  9
$DWFFRAME
280
2
  9
$DGNFRAME
280
2
  9
$REALWORLDSCALE
290
1
  9
$INTERFERECOLOR
 62
256
  9
$CSHADOW
280
0
  9
$SHADOWPLANELOCATION
 40
0.0
  0
ENDSEC
  0
SECTION
  2
CLASSES
  0
CLASS
  1
ACDBDICTIONARYWDFLT
  2
AcDbDictionaryWithDefault
  3
ObjectDBX Classes
 90
0
 91
0
280
0
281
0
  0
CLASS
  1
SUN
  2
AcDbSun
  3
SCENEOE
 90
1153
 91
0
280
0
281
0
  0
CLASS
  1
VISUALSTYLE
  2
AcDbVisualStyle
  3
ObjectDBX Classes
 90
4095
 91
0
280
0
281
0
  0
CLASS
  1
MATERIAL
  2
AcDbMaterial
  3
ObjectDBX Classes
 90
1153
 91
0
280
0
281
0
  0
CLASS
  1
SCALE
  2
AcDbScale
  3
ObjectDBX Classes
 90
1153
 91
0
280
0
281
0
  0
CLASS
  1
TABLESTYLE
  2
AcDbTableStyle
  3
ObjectDBX Classes
 90
4095
 91
0
280
0
281
0
  0
CLASS
  1
MLEADERSTYLE
  2
AcDbMLeaderStyle
  3
ACDB_MLEADERSTYLE_CLASS
 90
4095
 91
0
280
0
281
0
  0
CLASS
  1
DICTIONARYVAR
  2
AcDbDictionaryVar
  3
ObjectDBX Classes
 90
0
 91
0
280
0
281
0
  0
CLASS
  1
CELLSTYLEMAP
  2
AcDbCellStyleMap
  3
ObjectDBX Classes
 90
1152
 91
0
280
0
281
0
  0
CLASS
  1
MENTALRAYRENDERSETTINGS
  2
AcDbMentalRayRenderSettings
  3
SCENEOE
 90
1024
 91
0
280
0
281
0
  0
CLASS
  1
ACDBDETAILVIEWSTYLE
  2
AcDbDetailViewStyle
  3
ObjectDBX Classes
 90
1025
 91
0
280
0
281
0
  0
CLASS
  1
ACDBSECTIONVIEWSTYLE
  2
AcDbSectionViewStyle
  3
ObjectDBX Classes
 90
1025
 91
0
280
0
281
0
  0
CLASS
  1
RASTERVARIABLES
  2
AcDbRasterVariables
  3
ISM
 90
0
 91
0
280
0
281
0
  0
CLASS
  1
LAYOUT
  2
AcDbLayout
  3
ObjectDBX Classes
 90
0
 91
0
280
0
281
0
  0
CLASS
  1
ACDBPLACEHOLDER
  2
AcDbPlaceHolder
  3
ObjectDBX Classes
 90
0
 91
0
280
0
281
0
  0
ENDSEC
  0
SECTION
  2
TABLES
  0
TABLE
  2
VPORT
  5
8
330
0
100
AcDbSymbolTable
 70
1
  0
VPORT
  5
23
330
8
100
AcDbSymbolTableRecord
100
AcDbViewportTableRecord
  2
*Active
 70
0
 10
0.0
 20
0.0
 11
1.0
 21
1.0
 12
0.0
 22
0.0
 13
0.0
 23
0.0
 14
0.5
 24
0.5
 15
0.5
 25
0.5
 16
0.0
 26
0.0
 36
1.0
 17
0.0
 27
0.0
 37
0.0
 40
1000.0
 41
1.34
 42
50.0
 43
0.0
 44
0.0
 50
0.0
 51
0.0
 71
0
 72
1000
 73
1
 74
3
 75
0
 76
0
 77
0
 78
0
281
0
 65
0
146
0.0
  0
ENDTAB
  0
TABLE
  2
LTYPE
  5
2
330
0
100
AcDbSymbolTable
 70
21
  0
LTYPE
  5
24
330
2
100
AcDbSymbolTableRecord
100
AcDbLinetypeTableRecord
  2
ByBlock
 70
0
  3

 72
65
 73
0
 40
0.0
  0
LTYPE
  5
25
330
2
100
AcDbSymbolTableRecord
100
AcDbLinetypeTableRecord
  2
ByLayer
 70
0
  3

 72
65
 73
0
 40
0.0
  0
LTYPE
  5
26
330
2
100
AcDbSymbolTableRecord
100
AcDbLinetypeTableRecord
  2
Continuous
 70
0
  3

 72
65
 73
0
 40
0.0
  0
LTYPE
  5
2F
330
2
100
AcDbSymbolTableRecord
100
AcDbLinetypeTableRecord
  2
CENTER
 70
0
  3
Center ____ _ ____ _ ____ _ ____ _ ____ _ ____
 72
65
 73
4
 40
5.08
 49
3.175
 74
0
 49
-0.635
 74
0
 49
0.635
 74
0
 49
-0.635
 74
0
  0
LTYPE
  5
30
330
2
100
AcDbSymbolTableRecord
100
AcDbLinetypeTableRecord
  2
CENTERX2
 70
0
  3
Center (2x) ________  __  ________  __  ________
 72
65
 73
4
 40
8.89
 49
6.35
 74
0
 49
-0.635
 74
0
 49
1.27
 74
0
 49
-0.635
 74
0
  0
LTYPE
  5
31
330
2
100
AcDbSymbolTableRecord
100
AcDbLinetypeTableRecord
  2
CENTER2
 70
0
  3
Center (.5x) ____ _ ____ _ ____ _ ____ _ ____
 72
65
 73
4
 40
2.54
 49
1.587
 74
0
 49
-0.318
 74
0
 49
0.318
 74
0
 49
-0.318
 74
0
  0
LTYPE
  5
32
330
2
100
AcDbSymbolTableRecord
100
AcDbLinetypeTableRecord
  2
DASHED
 70
0
  3
Dashed __ __ __ __ __ __ __ __ __ __ __ __ __ _
 72
65
 73
2
 40
1.524
 49
1.27
 74
0
 49
-0.254
 74
0
  0
LTYPE
  5
33
330
2
100
AcDbSymbolTableRecord
100
AcDbLinetypeTableRecord
  2
DASHEDX2
 70
0
  3
Dashed (2x) ____  ____  ____  ____  ____  ____
 72
65
 73
2
 40
3.048
 49
2.54
 74
0
 49
-0.508
 74
0
  0
LTYPE
  5
34
330
2
100
AcDbSymbolTableRecord
100
AcDbLinetypeTableRecord
  2
DASHED2
 70
0
  3
Dashed (.5x) _ _ _ _ _ _ _ _ _ _ _ _ _ _
 72
65
 73
2
 40
0.762
 49
0.635
 74
0
 49
-0.127
 74
0
  0
LTYPE
  5
35
330
2
100
AcDbSymbolTableRecord
100
AcDbLinetypeTableRecord
  2
PHANTOM
 70
0
  3
Phantom ______  __  __  ______  __  __  ______
 72
65
 73
6
 40
6.35
 49
3.175
 74
0
 49
-0.635
 74
0
 49
0.635
 74
0
 49
-0.635
 74
0
 49
0.635
 74
0
 49
-0.635
 74
0
  0
LTYPE
  5
36
330
2
100
AcDbSymbolTableRecord
100
AcDbLinetypeTableRecord
  2
PHANTOMX2
 70
0
  3
Phantom (2x)____________    ____    ____    ____________
 72
65
 73
6
 40
10.795
 49
6.35
 74
0
 49
-0.635
 74
0
 49
1.27
 74
0
 49
-0.635
 74
0
 49
1.27
 74
0
 49
-0.635
 74
0
  0
LTYPE
  5
37
330
2
100
AcDbSymbolTableRecord
100
AcDbLinetypeTableRecord
  2
PHANTOM2
 70
0
  3
Phantom (.5x) ___ _ _ ___ _ _ ___ _ _ ___ _ _ ___
 72
65
 73
6
 40
3.175
 49
1.587
 74
0
 49
-0.318
 74
0
 49
0.318
 74
0
 49
-0.318
 74
0
 49
0.318
 74
0
 49
-0.318
 74
0
  0
LTYPE
  5
38
330
2
100
AcDbSymbolTableRecord
100
AcDbLinetypeTableRecord
  2
DASHDOT
 70
0
  3
Dash dot __ . __ . __ . __ . __ . __ . __ . __
 72
65
 73
4
 40
3.556
 49
2.54
 74
0
 49
-0.508
 74
0
 49
0.0
 74
0
 49
-0.508
 74
0
  0
LTYPE
  5
39
330
2
100
AcDbSymbolTableRecord
100
AcDbLinetypeTableRecord
  2
DASHDOTX2
 70
0
  3
Dash dot (2x) ____  .  ____  .  ____  .  ____
 72
65
 73
4
 40
6.096
 49
5.08
 74
0
 49
-0.508
 74
0
 49
0.0
 74
0
 49
-0.508
 74
0
  0
LTYPE
  5
3A
330
2
100
AcDbSymbolTableRecord
100
AcDbLinetypeTableRecord
  2
DASHDOT2
 70
0
  3
Dash dot (.5x) _ . _ . _ . _ . _ . _ . _ . _
 72
65
 73
4
 40
1.778
 49
1.27
 74
0
 49
-0.254
 74
0
 49
0.0
 74
0
 49
-0.254
 74
0
  0
LTYPE
  5
3B
330
2
100
AcDbSymbolTableRecord
100
AcDbLinetypeTableRecord
  2
DOT
 70
0
  3
Dot .  .  .  .  .  .  .  .  .  .  .  .  .  .  .  .
 72
65
 73
2
 40
0.508
 49
0.0
 74
0
 49
-0.508
 74
0
  0
LTYPE
  5
3C
330
2
100
AcDbSymbolTableRecord
100
AcDbLinetypeTableRecord
  2
DOTX2
 70
0
  3
Dot (2x) .    .    .    .    .    .    .    . 
 72
65
 73
2
 40
1.016
 49
0.0
 74
0
 49
-1.016
 74
0
  0
LTYPE
  5
3D
330
2
100
AcDbSymbolTableRecord
100
AcDbLinetypeTableRecord
  2
DOT2
 70
0
  3
Dot (.5) . . . . . . . . . . . . . . . . . . . 
 72
65
 73
2
 40
0.254
 49
0.0
 74
0
 49
-0.254
 74
0
  0
LTYPE
  5
3E
330
2
100
AcDbSymbolTableRecord
100
AcDbLinetypeTableRecord
  2
DIVIDE
 70
0
  3
Divide __ . . __ . . __ . . __ . . __ . . __
 72
65
 73
6
 40
4.064
 49
2.54
 74
0
 49
-0.508
 74
0
 49
0.0
 74
0
 49
-0.508
 74
0
 49
0.0
 74
0
 49
-0.508
 74
0
  0
LTYPE
  5
3F
330
2
100
AcDbSymbolTableRecord
100
AcDbLinetypeTableRecord
  2
DIVIDEX2
 70
0
  3
Divide (2x) ____  . .  ____  . .  ____  . .  ____
 72
65
 73
6
 40
6.604
 49
5.08
 74
0
 49
-0.508
 74
0
 49
0.0
 74
0
 49
-0.508
 74
0
 49
0.0
 74
0
 49
-0.508
 74
0
  0
LTYPE
  5
40
330
2
100
AcDbSymbolTableRecord
100
AcDbLinetypeTableRecord
  2
DIVIDE2
 70
0
  3
Divide(.5x) _ . _ . _ . _ . _ . _ . _ . _
 72
65
 73
6
 40
2.032
 49
1.27
 74
0
 49
-0.254
 74
0
 49
0.0
 74
0
 49
-0.254
 74
0
 49
0.0
 74
0
 49
-0.254
 74
0
  0
ENDTAB
  0
TABLE
  2
LAYER
  5
1
330
0
100
AcDbSymbolTable
 70
2
  0
LAYER
  5
27
330
1
100
AcDbSymbolTableRecord
100
AcDbLayerTableRecord
  2
0
 70
0
 62
7
  6
Continuous
370
-3
390
13
347
21
  0
LAYER
  5
28
330
1
100
AcDbSymbolTableRecord
100
AcDbLayerTableRecord
  2
Defpoints
 70
0
 62
7
  6
Continuous
290
0
370
-3
390
13
347
21
  0
ENDTAB
  0
TABLE
  2
STYLE
  5
5
330
0
100
AcDbSymbolTable
 70
26
  0
STYLE
  5
29
330
5
100
AcDbSymbolTableRecord
100
AcDbTextStyleTableRecord
  2
Standard
 70
0
 40
0.0
 41
1.0
 50
0.0
 71
0
 42
2.5
  3
txt
  4

  0
STYLE
  5
41
330
5
100
AcDbSymbolTableRecord
100
AcDbTextStyleTableRecord
  2
OpenSans-Light
 70
0
 40
0.0
 41
1.0
 50
0.0
 71
0
 42
2.5
  3
OpenSans-Light.ttf
  4

  0
STYLE
  5
42
330
5
100
AcDbSymbolTableRecord
100
AcDbTextStyleTableRecord
  2
OpenSans-Light-Italic
 70
0
 40
0.0
 41
1.0
 50
0.0
 71
0
 42
2.5
  3
OpenSans-LightItalic.ttf
  4

  0
STYLE
  5
43
330
5
100
AcDbSymbolTableRecord
100
AcDbTextStyleTableRecord
  2
OpenSans
 70
0
 40
0.0
 41
1.0
 50
0.0
 71
0
 42
2.5
  3
OpenSans-Regular.ttf
  4

  0
STYLE
  5
44
330
5
100
AcDbSymbolTableRecord
100
AcDbTextStyleTableRecord
  2
OpenSans-Italic
 70
0
 40
0.0
 41
1.0
 50
0.0
 71
0
 42
2.5
  3
OpenSans-Italic.ttf
  4

  0
STYLE
  5
45
330
5
100
AcDbSymbolTableRecord
100
AcDbTextStyleTableRecord
  2
OpenSans-SemiBold
 70
0
 40
0.0
 41
1.0
 50
0.0
 71
0
 42
2.5
  3
OpenSans-SemiBold.ttf
  4

  0
STYLE
  5
46
330
5
100
AcDbSymbolTableRecord
100
AcDbTextStyleTableRecord
  2
OpenSans-SemiBoldItalic
 70
0
 40
0.0
 41
1.0
 50
0.0
 71
0
 42
2.5
  3
OpenSans-SemiBoldItalic.ttf
  4

  0
STYLE
  5
47
330
5
100
AcDbSymbolTableRecord
100
AcDbTextStyleTableRecord
  2
OpenSans-Bold
 70
0
 40
0.0
 41
1.0
 50
0.0
 71
0
 42
2.5
  3
OpenSans-Bold.ttf
  4

  0
STYLE
  5
48
330
5
100
AcDbSymbolTableRecord
100
AcDbTextStyleTableRecord
  2
OpenSans-BoldItalic
 70
0
 40
0.0
 41
1.0
 50
0.0
 71
0
 42
2.5
  3
OpenSans-BoldItalic.ttf
  4

  0
STYLE
  5
49
330
5
100
AcDbSymbolTableRecord
100
AcDbTextStyleTableRecord
  2
OpenSans-ExtraBold
 70
0
 40
0.0
 41
1.0
 50
0.0
 71
0
 42
2.5
  3
OpenSans-ExtraBold.ttf
  4

  0
STYLE
  5
4A
330
5
100
AcDbSymbolTableRecord
100
AcDbTextStyleTableRecord
  2
OpenSans-ExtraBoldItalic
 70
0
 40
0.0
 41
1.0
 50
0.0
 71
0
 42
2.5
  3
OpenSans-ExtraBoldItalic.ttf
  4

  0
STYLE
  5
4B
330
5
100
AcDbSymbolTableRecord
100
AcDbTextStyleTableRecord
  2
OpenSansCondensed-Bold
 70
0
 40
0.0
 41
1.0
 50
0.0
 71
0
 42
2.5
  3
OpenSansCondensed-Bold.ttf
  4

  0
STYLE
  5
4C
330
5
100
AcDbSymbolTableRecord
100
AcDbTextStyleTableRecord
  2
OpenSansCondensed-Light
 70
0
 40
0.0
 41
1.0
 50
0.0
 71
0
 42
2.5
  3
OpenSansCondensed-Light.ttf
  4

  0
STYLE
  5
4D
330
5
100
AcDbSymbolTableRecord
100
AcDbTextStyleTableRecord
  2
OpenSansCondensed-Italic
 70
0
 40
0.0
 41
1.0
 50
0.0
 71
0
 42
2.5
  3
OpenSansCondensed-LightItalic.ttf
  4

  0
STYLE
  5
4E
330
5
100
AcDbSymbolTableRecord
100
AcDbTextStyleTableRecord
  2
LiberationSans
 70
0
 40
0.0
 41
1.0
 50
0.0
 71
0
 42
2.5
  3
LiberationSans-Regular.ttf
  4

  0
STYLE
  5
4F
330
5
100
AcDbSymbolTableRecord
100
AcDbTextStyleTableRecord
  2
LiberationSans-Bold
 70
0
 40
0.0
 41
1.0
 50
0.0
 71
0
 42
2.5
  3
LiberationSans-Bold.ttf
  4

  0
STYLE
  5
50
330
5
100
AcDbSymbolTableRecord
100
AcDbTextStyleTableRecord
  2
LiberationSans-BoldItalic
 70
0
 40
0.0
 41
1.0
 50
0.0
 71
0
 42
2.5
  3
LiberationSans-BoldItalic.ttf
  4

  0
STYLE
  5
51
330
5
100
AcDbSymbolTableRecord
100
AcDbTextStyleTableRecord
  2
LiberationSans-Italic
 70
0
 40
0.0
 41
1.0
 50
0.0
 71
0
 42
2.5
  3
LiberationSans-Italic.ttf
  4

  0
STYLE
  5
52
330
5
100
AcDbSymbolTableRecord
100
AcDbTextStyleTableRecord
  2
LiberationSerif
 70
0
 40
0.0
 41
1.0
 50
0.0
 71
0
 42
2.5
  3
LiberationSerif-Regular.ttf
  4

  0
STYLE
  5
53
330
5
100
AcDbSymbolTableRecord
100
AcDbTextStyleTableRecord
  2
LiberationSerif-Bold
 70
0
 40
0.0
 41
1.0
 50
0.0
 71
0
 42
2.5
  3
LiberationSerif-Bold.ttf
  4

  0
STYLE
  5
54
330
5
100
AcDbSymbolTableRecord
100
AcDbTextStyleTableRecord
  2
LiberationSerif-BoldItalic
 70
0
 40
0.0
 41
1.0
 50
0.0
 71
0
 42
2.5
  3
LiberationSerif-BoldItalic.ttf
  4

  0
STYLE
  5
55
330
5
100
AcDbSymbolTableRecord
100
AcDbTextStyleTableRecord
  2
LiberationSerif-Italic
 70
0
 40
0.0
 41
1.0
 50
0.0
 71
0
 42
2.5
  3
LiberationSerif-Italic.ttf
  4

  0
STYLE
  5
56
330
5
100
AcDbSymbolTableRecord
100
AcDbTextStyleTableRecord
  2
LiberationMono
 70
0
 40
0.0
 41
1.0
 50
0.0
 71
0
 42
2.5
  3
LiberationMono-Regular.ttf
  4

  0
STYLE
  5
57
330
5
100
AcDbSymbolTableRecord
100
AcDbTextStyleTableRecord
  2
LiberationMono-Bold
 70
0
 40
0.0
 41
1.0
 50
0.0
 71
0
 42
2.5
  3
LiberationMono-Bold.ttf
  4

  0
STYLE
  5
58
330
5
100
AcDbSymbolTableRecord
100
AcDbTextStyleTableRecord
  2
LiberationMono-BoldItalic
 70
0
 40
0.0
 41
1.0
 50
0.0
 71
0
 42
2.5
  3
LiberationMono-BoldItalic.ttf
  4

  0
STYLE
  5
59
330
5
100
AcDbSymbolTableRecord
100
AcDbTextStyleTableRecord
  2
LiberationMono-Italic
 70
0
 40
0.0
 41
1.0
 50
0.0
 71
0
 42
2.5
  3
LiberationMono-Italic.ttf
  4

  0
ENDTAB
  0
TABLE
  2
VIEW
  5
7
330
0
100
AcDbSymbolTable
 70
0
  0
ENDTAB
  0
TABLE
  2
UCS
  5
6
330
0
100
AcDbSymbolTable
 70
0
  0
ENDTAB
  0
TABLE
  2
APPID
  5
3
330
0
100
AcDbSymbolTable
 70
3
  0
APPID
  5
2A
330
3
100
AcDbSymbolTableRecord
100
AcDbRegAppTableRecord
  2
ACAD
 70
0
  0
APPID
  5
A3
330
3
100
AcDbSymbolTableRecord
100
AcDbRegAppTableRecord
  2
HATCHBACKGROUNDCOLOR
 70
0
  0
APPID
  5
A4
330
3
100
AcDbSymbolTableRecord
100
AcDbRegAppTableRecord
  2
EZDXF
 70
0
  0
ENDTAB
  0
TABLE
  2
DIMSTYLE
  5
4
330
0
100
AcDbSymbolTable
 70
12
100
AcDbDimStyleTable
  0
DIMSTYLE
105
2B
330
4
100
AcDbSymbolTableRecord
100
AcDbDimStyleTableRecord
  2
Standard
 70
0
 40
1.0
 41
2.5
 42
0.625
 43
3.75
 44
1.25
 45
0.0
 46
0.0
 47
0.0
 48
0.0
 49
2.5
140
2.5
141
2.5
142
0.0
143
0.03937007874
144
1.0
145
0.0
146
1.0
147
0.625
148
0.0
 69
0
 70
0
 71
0
 72
0
 73
0
 74
0
 75
0
 76
0
 77
1
 78
8
 79
3
170
0
171
3
172
1
173
0
174
0
175
0
176
0
177
0
178
0
179
2
271
2
272
2
273
2
274
3
275
0
276
0
277
2
278
44
279
0
280
0
281
0
282
0
283
0
284
8
285
0
286
0
288
0
289
3
290
0
371
-2
372
-2
  0
DIMSTYLE
105
73
330
4
100
AcDbSymbolTableRecord
100
AcDbDimStyleTableRecord
  2
EZDXF
 70
0
 40
1.0
 41
0.175
 42
0.125
 43
3.75
 44
0.375
 45
0.0
 46
0.0
 47
0.0
 48
0.0
 49
2.5
140
0.25
141
2.5
142
0.0
143
0.03937007874
144
100.0
145
0.0
146
0.5
147
0.1
148
0.0
 69
0
 70
0
 71
0
 72
0
 73
0
 74
0
 75
0
 76
0
 77
1
 78
12
 79
3
170
0
171
3
172
1
173
0
174
0
175
0
176
0
177
0
178
0
179
2
271
2
272
2
273
2
274
3
275
0
276
0
277
2
278
46
279
2
280
0
281
0
282
0
283
0
284
8
285
0
286
0
288
1
289
3
290
0
340
4C
342
74
371
-2
372
-2
  0
DIMSTYLE
105
7C
330
4
100
AcDbSymbolTableRecord
100
AcDbDimStyleTableRecord
  2
EZ_M_100_H25_CM
 70
0
 40
1.0
 41
0.25
 42
0.125
 43
3.75
 44
0.375
 45
0.0
 46
0.0
 47
0.0
 48
0.0
 49
2.5
140
0.25
141
2.5
142
0.125
143
0.03937007874
144
100.0
145
0.0
146
0.5
147
0.1
148
0.0
 69
0
 70
0
 71
0
 72
0
 73
0
 74
0
 75
0
 76
0
 77
1
 78
12
 79
3
170
0
171
3
172
1
173
0
174
0
175
0
176
0
177
0
178
0
179
2
271
2
272
2
273
2
274
3
275
0
276
0
277
2
278
46
279
2
280
0
281
0
282
0
283
0
284
8
285
0
286
0
288
1
289
3
290
0
340
4C
371
-2
372
-2
  0
DIMSTYLE
105
7D
330
4
100
AcDbSymbolTableRecord
100
AcDbDimStyleTableRecord
  2
EZ_M_50_H25_CM
 70
0
 40
1.0
 41
0.125
 42
0.0625
 43
3.75
 44
0.1875
 45
0.0
 46
0.0
 47
0.0
 48
0.0
 49
2.5
140
0.125
141
2.5
142
0.0625
143
0.03937007874
144
100.0
145
0.0
146
0.5
147
0.05
148
0.0
 69
0
 70
0
 71
0
 72
0
 73
0
 74
0
 75
0
 76
0
 77
1
 78
12
 79
3
170
0
171
3
172
1
173
0
174
0
175
0
176
0
177
0
178
0
179
2
271
2
272
2
273
2
274
3
275
0
276
0
277
2
278
46
279
2
280
0
281
0
282
0
283
0
284
8
285
0
286
0
288
1
289
3
290
0
340
4C
371
-2
372
-2
  0
DIMSTYLE
105
7E
330
4
100
AcDbSymbolTableRecord
100
AcDbDimStyleTableRecord
  2
EZ_M_25_H25_CM
 70
0
 40
1.0
 41
0.0625
 42
0.03125
 43
3.75
 44
0.09375
 45
0.0
 46
0.0
 47
0.0
 48
0.0
 49
2.5
140
0.0625
141
2.5
142
0.03125
143
0.03937007874
144
100.0
145
0.0
146
0.5
147
0.025
148
0.0
 69
0
 70
0
 71
0
 72
0
 73
0
 74
0
 75
0
 76
0
 77
1
 78
12
 79
3
170
0
171
3
172
1
173
0
174
0
175
0
176
0
177
0
178
0
179
2
271
2
272
2
273
2
274
3
275
0
276
0
277
2
278
46
279
2
280
0
281
0
282
0
283
0
284
8
285
0
286
0
288
1
289
3
290
0
340
4C
371
-2
372
-2
  0
DIMSTYLE
105
7F
330
4
100
AcDbSymbolTableRecord
100
AcDbDimStyleTableRecord
  2
EZ_M_20_H25_CM
 70
0
 40
1.0
 41
0.05
 42
0.025
 43
3.75
 44
0.07500000000000001
 45
0.0
 46
0.0
 47
0.0
 48
0.0
 49
2.5
140
0.05
141
2.5
142
0.025
143
0.03937007874
144
100.0
145
0.0
146
0.5
147
0.020000000000000004
148
0.0
 69
0
 70
0
 71
0
 72
0
 73
0
 74
0
 75
0
 76
0
 77
1
 78
12
 79
3
170
0
171
3
172
1
173
0
174
0
175
0
176
0
177
0
178
0
179
2
271
2
272
2
273
2
274
3
275
0
276
0
277
2
278
46
279
2
280
0
281
0
282
0
283
0
284
8
285
0
286
0
288
1
289
3
290
0
340
4C
371
-2
372
-2
  0
DIMSTYLE
105
80
330
4
100
AcDbSymbolTableRecord
100
AcDbDimStyleTableRecord
  2
EZ_M_10_H25_CM
 70
0
 40
1.0
 41
0.025
 42
0.0125
 43
3.75
 44
0.037500000000000006
 45
0.0
 46
0.0
 47
0.0
 48
0.0
 49
2.5
140
0.025
141
2.5
142
0.0125
143
0.03937007874
144
100.0
145
0.0
146
0.5
147
0.010000000000000002
148
0.0
 69
0
 70
0
 71
0
 72
0
 73
0
 74
0
 75
0
 76
0
 77
1
 78
12
 79
3
170
0
171
3
172
1
173
0
174
0
175
0
176
0
177
0
178
0
179
2
271
2
272
2
273
2
274
3
275
0
276
0
277
2
278
46
279
2
280
0
281
0
282
0
283
0
284
8
285
0
286
0
288
1
289
3
290
0
340
4C
371
-2
372
-2
  0
DIMSTYLE
105
81
330
4
100
AcDbSymbolTableRecord
100
AcDbDimStyleTableRecord
  2
EZ_M_5_H25_CM
 70
0
 40
1.0
 41
0.0125
 42
0.00625
 43
3.75
 44
0.018750000000000003
 45
0.0
 46
0.0
 47
0.0
 48
0.0
 49
2.5
140
0.0125
141
2.5
142
0.00625
143
0.03937007874
144
100.0
145
0.0
146
0.5
147
0.005000000000000001
148
0.0
 69
0
 70
0
 71
0
 72
0
 73
0
 74
0
 75
0
 76
0
 77
1
 78
12
 79
3
170
0
171
3
172
1
173
0
174
0
175
0
176
0
177
0
178
0
179
2
271
2
272
2
273
2
274
3
275
0
276
0
277
2
278
46
279
2
280
0
281
0
282
0
283
0
284
8
285
0
286
0
288
1
289
3
290
0
340
4C
371
-2
372
-2
  0
DIMSTYLE
105
82
330
4
100
AcDbSymbolTableRecord
100
AcDbDimStyleTableRecord
  2
EZ_M_1_H25_CM
 70
0
 40
1.0
 41
0.0025
 42
0.00125
 43
3.75
 44
0.00375
 45
0.0
 46
0.0
 47
0.0
 48
0.0
 49
2.5
140
0.0025
141
2.5
142
0.00125
143
0.03937007874
144
100.0
145
0.0
146
0.5
147
0.001
148
0.0
 69
0
 70
0
 71
0
 72
0
 73
0
 74
0
 75
0
 76
0
 77
1
 78
12
 79
3
170
0
171
3
172
1
173
0
174
0
175
0
176
0
177
0
178
0
179
2
271
2
272
2
273
2
274
3
275
0
276
0
277
2
278
46
279
2
280
0
281
0
282
0
283
0
284
8
285
0
286
0
288
1
289
3
290
0
340
4C
371
-2
372
-2
  0
DIMSTYLE
105
83
330
4
100
AcDbSymbolTableRecord
100
AcDbDimStyleTableRecord
  2
EZ_RADIUS
 70
0
 40
1.0
 41
0.25
 42
0.125
 43
3.75
 44
0.375
 45
0.0
 46
0.0
 47
0.0
 48
0.0
 49
2.5
140
0.25
141
0.0
142
0.0
143
0.03937007874
144
100.0
145
0.0
146
0.5
147
0.1
148
0.0
 69
0
 70
0
 71
0
 72
0
 73
0
 74
0
 75
0
 76
0
 77
1
 78
12
 79
3
170
0
171
3
172
0
173
0
174
0
175
0
176
0
177
0
178
0
179
2
271
2
272
2
273
2
274
3
275
0
276
0
277
2
278
46
279
1
280
0
281
0
282
0
283
0
284
8
285
0
286
0
288
1
289
3
290
0
340
4C
342
84
371
-2
372
-2
  0
DIMSTYLE
105
88
330
4
100
AcDbSymbolTableRecord
100
AcDbDimStyleTableRecord
  2
EZ_RADIUS_INSIDE
 70
0
 40
1.0
 41
0.25
 42
0.125
 43
3.75
 44
0.375
 45
0.0
 46
0.0
 47
0.0
 48
0.0
 49
2.5
140
0.25
141
0.0
142
0.0
143
0.03937007874
144
100.0
145
0.0
146
0.5
147
0.1
148
0.0
 69
0
 70
0
 71
0
 72
0
 73
0
 74
0
 75
0
 76
0
 77
0
 78
12
 79
3
170
0
171
3
172
0
173
0
174
1
175
0
176
0
177
0
178
0
179
2
271
2
272
2
273
2
274
3
275
0
276
0
277
2
278
46
279
0
280
0
281
0
282
0
283
0
284
8
285
0
286
0
288
1
289
0
290
0
340
4C
342
84
371
-2
372
-2
  0
DIMSTYLE
105
89
330
4
100
AcDbSymbolTableRecord
100
AcDbDimStyleTableRecord
  2
EZ_CURVED
 70
0
 40
1.0
 41
0.25
 42
0.125
 43
3.75
 44
0.375
 45
0.0
 46
0.0
 47
0.0
 48
0.0
 49
2.5
140
0.25
141
2.5
142
0.0
143
0.03937007874
144
100.0
145
0.0
146
0.5
147
0.1
148
0.0
 69
0
 70
0
 71
0
 72
0
 73
0
 74
0
 75
0
 76
0
 77
1
 78
12
 79
2
 90
2
170
0
171
3
172
1
173
0
174
0
175
0
176
0
177
0
178
0
179
2
271
2
272
2
273
2
274
3
275
0
276
0
277
2
278
46
279
2
280
0
281
0
282
0
283
0
284
8
285
0
286
0
288
1
289
3
290
0
340
4C
371
-2
372
-2
  0
ENDTAB
  0
TABLE
  2
BLOCK_RECORD
  5
9
330
0
100
AcDbSymbolTable
 70
5
  0
BLOCK_RECORD
  5
17
330
9
100
AcDbSymbolTableRecord
100
AcDbBlockTableRecord
  2
*Model_Space
340
1A
 70
0
280
1
281
0
  0
BLOCK_RECORD
  5
1B
330
9
100
AcDbSymbolTableRecord
100
AcDbBlockTableRecord
  2
*Paper_Space
340
1E
 70
0
280
1
281
0
  0
BLOCK_RECORD
  5
74
330
9
100
AcDbSymbolTableRecord
100
AcDbBlockTableRecord
  2
_ARCHTICK
340
0
 70
0
280
1
281
0
  0
BLOCK_RECORD
  5
78
330
9
100
AcDbSymbolTableRecord
100
AcDbBlockTableRecord
  2
_CLOSEDFILLED
340
0
 70
0
280
1
281
0
  0
BLOCK_RECORD
  5
84
330
9
100
AcDbSymbolTableRecord
100
AcDbBlockTableRecord
  2
_CLOSEDBLANK
340
0
 70
0
280
1
281
0
  0
ENDTAB
  0
ENDSEC
  0
SECTION
  2
BLOCKS
  0
BLOCK
  5
18
330
17
100
AcDbEntity
  8
0
100
AcDbBlockBegin
  2
*Model_Space
 70
0
 10
0.0
 20
0.0
 30
0.0
  3
*Model_Space
  1

  0
ENDBLK
  5
19
330
17
100
AcDbEntity
  8
0
100
AcDbBlockEnd
  0
BLOCK
  5
1C
330
1B
100
AcDbEntity
  8
0
100
AcDbBlockBegin
  2
*Paper_Space
 70
0
 10
0.0
 20
0.0
 30
0.0
  3
*Paper_Space
  1

  0
ENDBLK
  5
1D
330
1B
100
AcDbEntity
  8
0
100
AcDbBlockEnd
  0
BLOCK
  5
75
330
74
100
AcDbEntity
  8
0
100
AcDbBlockBegin
  2
_ARCHTICK
 70
0
 10
0.0
 20
0.0
 30
0.0
  3
_ARCHTICK
  1

  0
LWPOLYLINE
  5
77
330
74
100
AcDbEntity
  8
0
  6
BYBLOCK
 62
0
100
AcDbPolyline
 90
2
 70
0
 43
0.15
 10
-0.5
 20
-0.5
 10
0.5
 20
0.5
  0
ENDBLK
  5
76
330
74
100
AcDbEntity
  8
0
100
AcDbBlockEnd
  0
BLOCK
  5
79
330
78
100
AcDbEntity
  8
0
100
AcDbBlockBegin
  2
_CLOSEDFILLED
 70
0
 10
0.0
 20
0.0
 30
0.0
  3
_CLOSEDFILLED
  1

  0
SOLID
  5
7B
330
78
100
AcDbEntity
  8
0
  6
BYBLOCK
 62
0
100
AcDbTrace
 10
-1.0
 20
0.16439898372402537
 30
0.0
 11
0.0
 21
0.0
 31
0.0
 12
-1.0
 22
-0.16439898372402537
 32
0.0
 13
-1.0
 23
-0.16439898372402537
 33
0.0
  0
ENDBLK
  5
7A
330
78
100
AcDbEntity
  8
0
100
AcDbBlockEnd
  0
BLOCK
  5
85
330
84
100
AcDbEntity
  8
0
100
AcDbBlockBegin
  2
_CLOSEDBLANK
 70
0
 10
0.0
 20
0.0
 30
0.0
  3
_CLOSEDBLANK
  1

  0
LWPOLYLINE
  5
87
330
84
100
AcDbEntity
  8
0
  6
BYBLOCK
 62
0
100
AcDbPolyline
 90
3
 70
1
 10
-1.0
 20
0.16439898372402537
 10
0.0
 20
0.0
 10
-1.0
 20
-0.16439898372402537
  0
ENDBLK
  5
86
330
84
100
AcDbEntity
  8
0
100
AcDbBlockEnd
  0
ENDSEC
  0
SECTION
  2
ENTITIES
  0
LWPOLYLINE
  5
8A
330
17
100
AcDbEntity
  8
OUTLINE
100
AcDbPolyline
 90
117
 70
1
 10
0.0
 20
0.0
 10
8.730646851647235
 20
0.0
 10
8.66916859119036
 20
0.24623115577889448
 10
8.609064624564752
 20
0.49246231155778897
 10
8.550584627310185
 20
0.7386934673366834
 10
8.49397152889871
 20
0.9849246231155779
 10
8.43946050359082
 20
1.2311557788944725
 10
8.387277993507253
 20
1.4773869346733668
 10
8.337640767974612
 20
1.7236180904522613
 10
8.290755023052387
 20
1.9698492462311559
 10
8.24681552498195
 20
2.2160804020100504
 10
8.206004801115713
 20
2.462311557788945
 10
8.168492381687406
 20
2.7085427135678395
 10
8.134434095573136
 20
2.9547738693467336
 10
8.10397142296875
 20
3.201005025125628
 10
8.077230907672474
 20
3.4472361809045227
 10
8.054323631414276
 20
3.693467336683417
 10
8.035344752415572
 20
3.9396984924623117
 10
8.020373110096198
 20
4.185929648241206
 10
8.009470897570635
 20
4.432160804020101
 10
8.002683403294037
 20
4.678391959798995
 10
8.000038822931224
 20
4.92462311557789
 10
8.001548142230169
 20
5.170854271356784
 10
8.007205091386533
 20
5.417085427135679
 10
8.016986171088817
 20
5.6633165829145735
 10
8.030850750135931
 20
5.909547738693467
 10
8.048741234221684
 20
6.155778894472362
 10
8.070583305185032
 20
6.402010050251256
 10
8.096286229732257
 20
6.648241206030151
 10
8.125743236348592
 20
6.894472361809045
 10
8.158831958833602
 20
7.14070351758794
 10
8.19541494461784
 20
7.386934673366834
 10
8.235340225749187
 20
7.633165829145729
 10
8.278441950176992
 20
7.8793969849246235
 10
8.324541070711598
 20
8.125628140703517
 10
8.373446088797275
 20
8.371859296482413
 10
8.424953850008887
 20
8.618090452261306
 10
8.478850387967755
 20
8.864321608040202
 10
8.534911813171039
 20
9.110552763819095
 10
8.592905243042365
 20
9.35678391959799
 10
8.652589769340238
 20
9.603015075376884
 10
8.71371745890557
 20
9.84924623115578
 10
8.776034383591114
 20
10.095477386934673
 10
8.83928167509447
 20
10.341708542713569
 10
8.903196600312787
 20
10.587939698492463
 10
8.96751365275208
 20
10.834170854271358
 10
9.031965655457382
 20
11.080402010050252
 10
9.096284870882101
 20
11.326633165829147
 10
9.160204113086099
 20
11.57286432160804
 10
9.223457857642364
 20
11.819095477386934
 10
9.285783344641674
 20
12.06532663316583
 10
9.346921670213254
 20
12.311557788944723
 10
9.406618862027242
 20
12.557788944723619
 10
9.464626934311221
 20
12.804020100502512
 10
9.520704917998223
 20
13.050251256281408
 10
9.574619861726926
 20
13.296482412060302
 10
9.626147799535795
 20
13.542713567839197
 10
9.675074681231342
 20
13.78894472361809
 10
9.72119726156566
 20
14.035175879396986
 10
9.764323944529583
 20
14.28140703517588
 10
9.804275579254172
 20
14.527638190954775
 10
9.840886204214346
 20
14.773869346733669
 10
9.874003736643166
 20
15.020100502512564
 10
9.90349060429292
 20
15.266331658291458
 10
9.929224316918623
 20
15.512562814070353
 10
9.951097975109953
 20
15.758793969849247
 10
9.969020714357919
 20
16.00502512562814
 10
9.982918082511574
 20
16.251256281407034
 10
9.992732349056777
 20
16.49748743718593
 10
9.998422744932268
 20
16.743718592964825
 10
9.999965631886843
 20
16.98994974874372
 10
9.997354600674074
 20
17.236180904522612
 10
9.990600497676722
 20
17.48241206030151
 10
9.979731379850197
 20
17.728643216080403
 10
9.964792398172253
 20
17.974874371859297
 10
9.945845610083085
 20
18.22110552763819
 10
9.922969721694926
 20
18.467336683417088
 10
9.896259760842074
 20
18.71356783919598
 10
9.865826682329475
 20
18.959798994974875
 10
9.831796907019694
 20
19.20603015075377
 10
9.794311796672957
 20
19.452261306532666
 10
9.753527066721787
 20
19.69849246231156
 10
9.7096121394196
 20
19.944723618090453
 10
9.662749440050346
 20
20.190954773869347
 10
9.613133639122765
 20
20.43718592964824
 10
9.560970843697227
 20
20.683417085427138
 10
9.50647774120445
 20
20.92964824120603
 10
9.4498806993127
 20
21.175879396984925
 10
9.391414825582716
 20
21.42211055276382
 10
9.331322990816563
 20
21.668341708542716
 10
9.26985482015753
 20
21.91457286432161
 10
9.207265656132073
 20
22.160804020100503
 10
9.143815497941398
 20
22.407035175879397
 10
9.079767921408939
 20
22.653266331658294
 10
9.01538898407032
 20
22.899497487437188
 10
8.950946119954152
 20
23.14572864321608
 10
8.886707028644773
 20
23.391959798994975
 10
8.822938563241864
 20
23.63819095477387
 10
8.75990562183641
 20
23.884422110552766
 10
8.697870047107898
 20
24.13065326633166
 10
8.637089538613864
 20
24.376884422110553
 10
8.577816582290223
 20
24.623115577889447
 10
8.520297401609316
 20
24.869346733668344
 10
8.4647709347526
 20
25.115577889447238
 10
8.411467842046878
 20
25.36180904522613
 10
8.360609547787258
 20
25.608040201005025
 10
8.312407320427113
 20
25.854271356783922
 10
8.267061394956087
 20
26.100502512562816
 10
8.224760141111718
 20
26.34673366834171
 10
10.020503773762192
 20
27.141431557813394
 10
10.07469897403032
 20
27.315808161441243
 10
10.13940283394053
 20
27.48656450872475
 10
10.214375630583284
 20
27.653067960305943
 10
10.29933959541476
 20
27.814701633483907
 10
10.3939799433683
 20
27.97086668771858
 10
10.435087702678938
 20
28.030222659828283
 10
0.0
 20
28.030222659828283
  0
LWPOLYLINE
  5
8B
330
17
100
AcDbEntity
  8
OUTLINE
100
AcDbPolyline
 90
154
 70
1
 10
12.435087702678938
 20
1.1345988912426392
 10
12.435087702678938
 20
22.104376231414356
 10
60.43508770267894
 20
22.104376231414356
 10
60.43508770267894
 20
0.0
 10
54.66101113975013
 20
0.0211541105523132
 10
54.59502505362667
 20
0.2079342845512393
 10
54.516856237619365
 20
0.3899525066197498
 10
54.42684551642506
 20
0.5664151571468352
 10
54.325385346758964
 20
0.7365528394288248
 10
54.21291810619988
 20
0.8996237343242299
 10
54.08993416437505
 20
1.054916834667388
 10
53.95696974489418
 20
1.201755045338448
 10
53.814604587355134
 20
1.3394981354731108
 10
53.66345941961505
 20
1.4675455299401108
 10
53.50419325134817
 20
1.585338927915327
 10
53.33750050069058
 20
1.692364737135204
 10
53.16410796650028
 20
1.788156313215925
 10
52.98477165943363
 20
1.8722959942746193
 10
52.80027350565513
 20
1.9444169219814285
 10
52.61141793755277
 20
2.0042046411024614
 10
52.41902838632363
 20
2.051398470559466
 10
52.22394369172275
 20
2.0857926400281883
 10
52.027014444628776
 20
2.1072371871197753
 10
52.47528870770407
 20
3.4329792493998745
 10
52.2340826775533
 20
3.4919255532544327
 10
51.992876647402554
 20
3.5493269718295757
 10
51.751670617251804
 20
3.604954686232901
 10
51.51046458710104
 20
3.6585869480771365
 10
51.26925855695029
 20
3.7100099634342314
 10
51.02805252679954
 20
3.7590187450807058
 10
50.78684649664879
 20
3.8054179296368282
 10
50.54564046649803
 20
3.8490225563423586
 10
50.30443443634728
 20
3.8896588043643945
 10
50.06322840619653
 20
3.9271646856982088
 10
49.822022376045766
 20
3.961390690898938
 10
49.580816345895016
 20
3.9922003850701024
 10
49.33961031574427
 20
4.019470951733108
 10
49.0984042855935
 20
4.043093682409772
 10
48.85719825544275
 20
4.062974409966195
 10
48.615992225292004
 20
4.079033883990579
 10
48.374786195141255
 20
4.091208086708637
 10
48.13358016499049
 20
4.0994484881771776
 10
47.89237413483974
 20
4.10372223973874
 10
47.65116810468899
 20
4.1040123049659485
 10
47.40996207453823
 20
4.1003175275737185
 10
47.16875604438748
 20
4.09265263602855
 10
46.92755001423673
 20
4.081048184836547
 10
46.686343984085966
 20
4.065550432744164
 10
46.445137953935216
 20
4.04622115833731
 10
46.20393192378447
 20
4.023137413773767
 10
45.96272589363372
 20
3.9963912176306806
 10
45.72151986348295
 20
3.966089188091516
 10
45.480313833332204
 20
3.9323521179347374
 10
45.239107803181454
 20
3.895314493018315
 10
44.99790177303069
 20
3.8551239561796677
 10
44.75669574287994
 20
3.811940718688014
 10
44.51548971272919
 20
3.765936921595234
 10
44.274283682578435
 20
3.717295949531156
 10
44.03307765242768
 20
3.666211699678623
 10
43.79187162227693
 20
3.6128878088424514
 10
43.55066559212617
 20
3.557536841693384
 10
43.309459561975416
 20
3.5003794434229647
 10
43.068253531824666
 20
3.4416434601870804
 10
42.82704750167392
 20
3.381563030844344
 10
42.58584147152315
 20
3.3203776536099348
 10
42.344635441372404
 20
3.2583312313454407
 10
42.103429411221654
 20
3.1956710992905215
 10
41.8622233810709
 20
3.132647039112083
 10
41.62101735092014
 20
3.0695102832012893
 10
41.37981132076939
 20
3.0065125131875448
 10
41.138605290618635
 20
2.943904856661703
 10
40.89739926046788
 20
2.8819368861078196
 10
40.65619323031713
 20
2.820855624034021
 10
40.41498720016638
 20
2.760904558268326
 10
40.173781170015616
 20
2.7023226713447492
 10
39.932575139864866
 20
2.6453434878487982
 10
39.69136910971412
 20
2.5901941435199944
 10
39.45016307956336
 20
2.5370944798221764
 10
39.208957049412604
 20
2.486256167590941
 10
38.967751019261854
 20
2.4378818632515937
 10
38.7265449891111
 20
2.3921644009712146
 10
38.48533895896034
 20
2.3492860239650746
 10
38.24413292880959
 20
2.3094176580217294
 10
38.00292689865884
 20
2.2727182301427042
 10
37.76172086850808
 20
2.2393340350128206
 10
37.52051483835733
 20
2.2093981518266865
 10
37.27930880820658
 20
2.1830299137959877
 10
37.03810277805582
 20
2.1603344324522915
 10
36.796896747905066
 20
2.141402178641659
 10
36.55569071775432
 20
2.1263086218813108
 10
36.31448468760356
 20
2.1151139295159957
 10
36.0732786574528
 20
2.107862726873293
 10
35.832072627302054
 20
2.10458391937399
 10
35.590866597151305
 20
2.105290577306569
 10
35.34966056700054
 20
2.10997988372522
 10
35.10845453684979
 20
2.11863314567902
 10
34.86724850669904
 20
2.131215868727491
 10
34.626042476548285
 20
2.147677894445586
 10
34.38483644639753
 20
2.16795360036987
 10
34.14363041624678
 20
2.191962161588915
 10
33.90242438609602
 20
2.2196078729351036
 10
33.661218355945266
 20
2.2507805304935005
 10
33.42001232579452
 20
2.2853558709069794
 10
33.17880629564376
 20
2.3231960667264246
 10
32.937600265493
 20
2.3641502758313777
 10
32.696394235342254
 20
2.408055242730949
 10
32.455188205191504
 20
2.4547359493481373
 10
32.21398217504075
 20
2.5040063126931784
 10
31.97277614488999
 20
2.5556699266449634
 10
31.731570114739238
 20
2.6095208448834235
 10
31.490364084588485
 20
2.665344401852
 10
31.249158054437732
 20
2.7229180684774974
 10
31.00795202428698
 20
2.7820123392362603
 10
30.766745994136222
 20
2.842391647030503
 10
30.52553996398547
 20
2.9038153022278763
 10
30.284333933834716
 20
2.9660384521209338
 10
30.043127903683963
 20
3.0288130569818428
 10
29.80192187353321
 20
3.0918888788215177
 10
29.560715843382454
 20
3.1550144789116317
 10
29.3195098132317
 20
3.2179382200931457
 10
29.078303783080948
 20
3.280409269875854
 10
28.837097752930195
 20
3.3421786003302465
 10
28.59589172277944
 20
3.402999980785907
 10
28.354685692628685
 20
3.4626309593791724
 10
28.113479662477932
 20
3.520833829537395
 10
27.87227363232718
 20
3.5773765775470743
 10
27.631067602176426
 20
3.6320338074285594
 10
27.389861572025673
 20
3.684587639430557
 10
27.148655541874916
 20
3.734828578562716
 10
26.907449511724163
 20
3.7825563497041372
 10
26.527321192192478
 20
2.200740801095666
 10
26.357354796714972
 20
2.267492160881595
 10
26.18364211186044
 20
2.3237791286940066
 10
26.006826729994067
 20
2.369393165572294
 10
25.82756373873891
 20
2.4041652749581246
 10
25.64651729392579
 20
2.4279666288148896
 10
25.46435815894612
 20
2.4407090449258746
 10
25.28176121962428
 20
2.442345313602676
 10
25.099402983816635
 20
2.4328693725935437
 10
24.917959075001068
 20
2.412316329543561
 10
24.73810172914309
 20
2.3807623319234743
 10
24.560497304112374
 20
2.338324284909074
 10
24.38580381087727
 20
2.285159418256349
 10
24.21466847562386
 20
2.22146470377713
 10
24.047725341831907
 20
2.147476125573416
 10
23.885592921191662
 20
2.063467805734124
 10
23.72887190206484
 20
1.969750988733459
 10
23.578142923979627
 20
1.8666728882936745
 10
23.43396442640514
 20
1.754615400984484
 10
23.296870579775394
 20
1.6339936913251307
 10
23.167369306428235
 20
1.505254653631237
 10
23.045940398791473
 20
1.3688752563051416
 10
22.933033741788222
 20
1.2253607747040292
 10
22.82906764604724
 20
1.0752429191329362
  0
LWPOLYLINE
  5
8C
330
17
100
AcDbEntity
  8
OUTLINE
100
AcDbPolyline
 90
113
 70
1
 10
68.43464948660507
 20
0.0
 10
62.97796037626744
 20
0.0
 10
63.03621735479644
 20
0.24623115577889448
 10
63.09612944467926
 20
0.49246231155778897
 10
63.15744776744383
 20
0.7386934673366834
 10
63.219917603040955
 20
0.9849246231155779
 10
63.283279447967004
 20
1.2311557788944725
 10
63.34727009325722
 20
1.4773869346733668
 10
63.411623717871834
 20
1.7236180904522613
 10
63.476072992932835
 20
1.9698492462311559
 10
63.54035019222442
 20
2.2160804020100504
 10
63.60418830434404
 20
2.462311557788945
 10
63.66732214188399
 20
2.7085427135678395
 10
63.72948944303611
 20
2.9547738693467336
 10
63.79043196104326
 20
3.201005025125628
 10
63.84989653697214
 20
3.4472361809045227
 10
63.90763615135089
 20
3.693467336683417
 10
63.96341095030304
 20
3.9396984924623117
 10
64.01698924191514
 20
4.185929648241206
 10
64.06814845869906
 20
4.432160804020101
 10
64.11667608215089
 20
4.678391959798995
 10
64.16237052556582
 20
4.92462311557789
 10
64.20504197144155
 20
5.170854271356784
 10
64.2445131599917
 20
5.417085427135679
 10
64.28062012549393
 20
5.6633165829145735
 10
64.31321287741332
 20
5.909547738693467
 10
64.34215602347243
 20
6.155778894472362
 10
64.36732933207884
 20
6.402010050251256
 10
64.3886282317747
 20
6.648241206030151
 10
64.40596424563284
 20
6.894472361809045
 10
64.41926535879534
 20
7.14070351758794
 10
64.42847631762758
 20
7.386934673366834
 10
64.43355885924535
 20
7.633165829145729
 10
64.43449187046104
 20
7.8793969849246235
 10
64.43127147548923
 20
8.125628140703517
 10
64.42391105204683
 20
8.371859296482413
 10
64.41244117578137
 20
8.618090452261306
 10
64.39690949325774
 20
8.864321608040202
 10
64.37738052403157
 20
9.110552763819095
 10
64.353935392631
 20
9.35678391959799
 10
64.32667149156052
 20
9.603015075376884
 10
64.29570207672644
 20
9.84924623115578
 10
64.26115579696514
 20
10.095477386934673
 10
64.22317615962778
 20
10.341708542713569
 10
64.18192093444215
 20
10.587939698492463
 10
64.13756149812752
 20
10.834170854271358
 10
64.09028212248539
 20
11.080402010050252
 10
64.04027920892312
 20
11.326633165829147
 10
63.98776047259054
 20
11.57286432160804
 10
63.93294407951859
 20
11.819095477386934
 10
63.87605774034431
 20
12.06532663316583
 10
63.81733776438696
 20
12.311557788944723
 10
63.757028078004765
 20
12.557788944723619
 10
63.69537921130989
 20
12.804020100502512
 10
63.63264725745114
 20
13.050251256281408
 10
63.569092808787374
 20
13.296482412060302
 10
63.504979874371024
 20
13.542713567839197
 10
63.44057478323834
 20
13.78894472361809
 10
63.37614507806238
 20
14.035175879396986
 10
63.31195840376446
 20
14.28140703517588
 10
63.24828139570077
 20
14.527638190954775
 10
63.18537857204298
 20
14.773869346733669
 10
63.12351123495348
 20
15.020100502512564
 10
63.06293638512043
 20
15.266331658291458
 10
63.00390565416113
 20
15.512562814070353
 10
62.94666425932899
 20
15.758793969849247
 10
62.891449984866135
 20
16.00502512562814
 10
62.83849219423313
 20
16.251256281407034
 10
62.78801087731924
 20
16.49748743718593
 10
62.74021573659097
 20
16.743718592964825
 10
62.69530531597528
 20
16.98994974874372
 10
62.653466176096025
 20
17.236180904522612
 10
62.61487211928969
 20
17.48241206030151
 10
62.57968346761998
 20
17.728643216080403
 10
62.54804639689013
 20
17.974874371859297
 10
62.52009232941974
 20
18.22110552763819
 10
62.495937388108445
 20
18.467336683417088
 10
62.47568191405434
 20
18.71356783919598
 10
62.45941004973089
 20
18.959798994974875
 10
62.44718938945403
 20
19.20603015075377
 10
62.439070698591195
 20
19.452261306532666
 10
62.43508770267894
 20
19.69849246231156
 10
62.435256947325
 20
19.944723618090453
 10
62.43957772947679
 20
20.190954773869347
 10
62.44803210034196
 20
20.43718592964824
 10
62.460584939948795
 20
20.683417085427138
 10
62.47718410303665
 20
20.92964824120603
 10
62.497760635670595
 20
21.175879396984925
 10
62.52222906168026
 20
21.42211055276382
 10
62.55048773773301
 20
21.668341708542716
 10
62.58241927556659
 20
21.91457286432161
 10
62.617891029627124
 20
22.160804020100503
 10
62.65675564808677
 20
22.407035175879397
 10
62.69885168495226
 20
22.653266331658294
 10
62.74400427072135
 20
22.899497487437188
 10
62.79202583880139
 20
23.14572864321608
 10
62.84271690467241
 20
23.391959798994975
 10
62.89586689455794
 20
23.63819095477387
 10
62.95125502016133
 20
23.884422110552766
 10
63.00865119583376
 20
24.13065326633166
 10
63.06781699436407
 20
24.376884422110553
 10
62.61458301045509
 20
24.97183914033983
 10
62.67705368377138
 20
25.159824277881
 10
62.726982062619186
 20
25.351522358065942
 10
62.764150453736
 20
25.54609755603
 10
62.78839679881928
 20
25.742701502356276
 10
62.7996153811186
 20
25.9404769820603
 10
62.79775728637243
 20
26.138561672142288
 10
62.78283061607969
 20
26.33609190141096
 10
62.75490045217632
 20
26.532206416185605
 10
62.71408857327088
 20
26.726050135457523
 10
62.666508483709194
 20
26.895623768585644
 10
68.43464948660507
 20
26.895623768585644
  0
LWPOLYLINE
  5
8D
330
17
100
AcDbEntity
  8
OUTLINE
100
AcDbPolyline
 90
121
 70
1
 10
70.43464948660507
 20
0.0
 10
78.60677910312279
 20
0.0
 10
78.64463222091993
 20
0.24623115577889448
 10
78.68576711857813
 20
0.49246231155778897
 10
78.73001291922591
 20
0.7386934673366834
 10
78.77718582311134
 20
0.9849246231155779
 10
78.8270898711172
 20
1.2311557788944725
 10
78.87951775878716
 20
1.4773869346733668
 10
78.93425169748122
 20
1.7236180904522613
 10
78.99106431908281
 20
1.9698492462311559
 10
79.04971962049997
 20
2.2160804020100504
 10
79.10997394403647
 20
2.462311557788945
 10
79.17157698956078
 20
2.7085427135678395
 10
79.234272854268
 20
2.9547738693467336
 10
79.29780109571583
 20
3.201005025125628
 10
79.3618978137182
 20
3.4472361809045227
 10
79.42629674660284
 20
3.693467336683417
 10
79.49073037727844
 20
3.9396984924623117
 10
79.55493104451689
 20
4.185929648241206
 10
79.61863205483448
 20
4.432160804020101
 10
79.68156879035274
 20
4.678391959798995
 10
79.74347980803732
 20
4.92462311557789
 10
79.80410792574821
 20
5.170854271356784
 10
79.86320129059011
 20
5.417085427135679
 10
79.92051442512464
 20
5.6633165829145735
 10
79.97580924709858
 20
5.909547738693467
 10
80.02885605845208
 20
6.155778894472362
 10
80.0794344994984
 20
6.402010050251256
 10
80.12733446431147
 20
6.648241206030151
 10
80.17235697351867
 20
6.894472361809045
 10
80.21431500087334
 20
7.14070351758794
 10
80.25303425017316
 20
7.386934673366834
 10
80.28835387929716
 20
7.633165829145729
 10
80.32012716835382
 20
7.8793969849246235
 10
80.34822212916428
 20
8.125628140703517
 10
80.37252205354939
 20
8.371859296482413
 10
80.39292599814253
 20
8.618090452261306
 10
80.40934920371458
 20
8.864321608040202
 10
80.42172344726883
 20
9.110552763819095
 10
80.42999732544355
 20
9.35678391959799
 10
80.43413646804464
 20
9.603015075376884
 10
80.4341236808215
 20
9.84924623115578
 10
80.42995901689305
 20
10.095477386934673
 10
80.42165977652702
 20
10.341708542713569
 10
80.4092604352736
 20
10.587939698492463
 10
80.39281250075189
 20
10.834170854271358
 10
80.37238429868417
 20
11.080402010050252
 10
80.34806068906659
 20
11.326633165829147
 10
80.31994271365565
 20
11.57286432160804
 10
80.28814717623457
 20
11.819095477386934
 10
80.25280615740326
 20
12.06532663316583
 10
80.21406646590742
 20
12.311557788944723
 10
80.1720890287861
 20
12.557788944723619
 10
80.12704822287101
 20
12.804020100502512
 10
80.07913115041444
 20
13.050251256281408
 10
80.02853686185517
 20
13.296482412060302
 10
79.97547552895085
 20
13.542713567839197
 10
79.92016757171162
 20
13.78894472361809
 10
79.86284274276201
 20
14.035175879396986
 10
79.80373917293456
 20
14.28140703517588
 10
79.74310238205976
 20
14.527638190954775
 10
79.6811842590618
 20
14.773869346733669
 10
79.61824201559655
 20
15.020100502512564
 10
79.55453711757875
 20
15.266331658291458
 10
79.49033419903657
 20
15.512562814070353
 10
79.42589996280583
 20
15.758793969849247
 10
79.3615020726301
 20
16.00502512562814
 10
79.29740804126924
 20
16.251256281407034
 10
79.23388411923504
 20
16.49748743718593
 10
79.17119418877046
 20
16.743718592964825
 10
79.10959866766662
 20
16.98994974874372
 10
79.04935342747149
 20
17.236180904522612
 10
78.99070873058383
 20
17.48241206030151
 10
78.93390819064805
 20
17.728643216080403
 10
78.87918776056813
 20
17.974874371859297
 10
78.82677475234499
 20
18.22110552763819
 10
78.77688689280856
 20
18.467336683417088
 10
78.72973141916725
 20
18.71356783919598
 10
78.68550421813195
 20
18.959798994974875
 10
78.64438901219076
 20
19.20603015075377
 10
78.60655659641446
 20
19.452261306532666
 10
78.57216412896351
 20
19.69849246231156
 10
78.54135447824339
 20
19.944723618090453
 10
78.51425562942055
 20
20.190954773869347
 10
78.49098015276427
 20
20.43718592964824
 10
78.47162473602286
 20
20.683417085427138
 10
78.45626978277687
 20
20.92964824120603
 10
78.44497907843775
 20
21.175879396984925
 10
78.4377995252793
 20
21.42211055276382
 10
78.43476094760283
 20
21.668341708542716
 10
78.43587596784516
 20
21.91457286432161
 10
78.44113995414428
 20
22.160804020100503
 10
78.45053103958031
 20
22.407035175879397
 10
78.46401021301213
 20
22.653266331658294
 10
78.48152148113195
 20
22.899497487437188
 10
78.50299210106495
 20
23.14572864321608
 10
78.52833288254764
 20
23.391959798994975
 10
78.55743855842961
 20
23.63819095477387
 10
78.59018822195969
 20
23.884422110552766
 10
78.62644582904002
 20
24.13065326633166
 10
78.6660607633614
 20
24.376884422110553
 10
78.70886846207279
 20
24.623115577889447
 10
78.75469109938523
 20
24.869346733668344
 10
78.80333832527117
 20
25.115577889447238
 10
78.85460805618996
 20
25.36180904522613
 10
78.90828731455528
 20
25.608040201005025
 10
78.96415311345694
 20
25.854271356783922
 10
79.02197338296217
 20
26.100502512562816
 10
79.08150793414818
 20
26.34673366834171
 10
79.14250945686163
 20
26.592964824120603
 10
79.20472454706005
 20
26.8391959798995
 10
79.26789475946774
 20
27.085427135678394
 10
79.33175768117306
 20
27.331658291457288
 10
79.39604802170783
 20
27.57788944723618
 10
80.38772390017444
 20
27.778252115107133
 10
80.46718684616955
 20
27.916538178610768
 10
80.55388669471218
 20
28.050405767698795
 10
80.6475783993238
 20
28.179476522064455
 10
80.7479971519031
 20
28.30338563906547
 10
80.80677756591295
 20
28.36851114348292
 10
70.43464948660507
 20
28.36851114348292
  0
LWPOLYLINE
  5
8E
330
17
100
AcDbEntity
  8
OUTLINE
100
AcDbPolyline
 90
157
 70
1
 10
100.0
 20
1.8342300377914995
 10
100.0
 20
22.46571889430858
 10
148.0
 20
22.46571889430858
 10
148.0
 20
0.07940455682208025
 10
142.94336327027958
 20
0.0
 10
142.89339341705877
 20
0.24065932510559662
 10
142.8238904205985
 20
0.47642028555967997
 10
142.7353208305508
 20
0.7057002993200889
 10
142.62827918403676
 20
0.9269602887053274
 10
142.50348401472377
 20
1.1387150116923976
 10
142.36177302955667
 20
1.3395430318344168
 10
142.20409748551998
 20
1.5280962598734114
 10
142.03151580417762
 20
1.7031090029986942
 10
141.84518646685396
 20
1.863406461006349
 10
141.64636023814802
 20
2.0079126123279245
 10
141.43637176998212
 20
2.1356574369922505
 10
141.2166306425434
 20
2.2457834280350575
 10
140.98861190225836
 20
2.3375513476475795
 10
140.75384616031448
 20
2.410345189425083
 10
140.5139093181952
 20
2.4636763134054895
 10
140.2704119891965
 20
2.4971867261409564
 10
140.0249886869353
 20
2.5106514837844642
 10
139.77928685342292
 20
2.5039802020603226
 10
139.53495580035496
 20
2.477217662982625
 10
139.31658291457285
 20
4.247756661378784
 10
139.0753768844221
 20
4.206868557091987
 10
138.83417085427135
 20
4.163026012842707
 10
138.5929648241206
 20
4.116403797872966
 10
138.35175879396985
 20
4.067187762007652
 10
138.1105527638191
 20
4.015574094802602
 10
137.86934673366835
 20
3.9617685434755074
 10
137.6281407035176
 20
3.9059855927371068
 10
137.38693467336682
 20
3.8484476097922524
 10
137.14572864321607
 20
3.7893839579189823
 10
136.90452261306532
 20
3.7290300821592197
 10
136.66331658291458
 20
3.667626570765762
 10
136.42211055276383
 20
3.6054181961469567
 10
136.18090452261305
 20
3.542652939132047
 10
135.9396984924623
 20
3.479581000446867
 10
135.69849246231155
 20
3.416453803340346
 10
135.4572864321608
 20
3.353522991337705
 10
135.21608040201005
 20
3.2910394251155175
 10
134.9748743718593
 20
3.2292521824974827
 10
134.73366834170855
 20
3.168407565557171
 10
134.4924623115578
 20
3.1087481187856767
 10
134.25125628140702
 20
3.050511662238158
 10
134.01005025125627
 20
2.9939303435133198
 10
133.76884422110552
 20
2.939229712345
 10
133.52763819095478
 20
2.8866278214947485
 10
133.28643216080403
 20
2.83633435752958
 10
133.04522613065325
 20
2.788549804949792
 10
132.8040201005025
 20
2.743464646998948
 10
132.56281407035175
 20
2.701258606341778
 10
132.321608040201
 20
2.662099928636948
 10
132.08040201005025
 20
2.6261447118604693
 10
131.8391959798995
 20
2.5935362840534104
 10
131.59798994974875
 20
2.5644046319742735
 10
131.356783919598
 20
2.538865882933635
 10
131.11557788944722
 20
2.5170218418766304
 10
130.87437185929647
 20
2.498959585558577
 10
130.63316582914572
 20
2.484751115431493
 10
130.39195979899498
 20
2.47445307062517
 10
130.15075376884423
 20
2.4681065021670037
 10
129.90954773869348
 20
2.465736709340554
 10
129.6683417085427
 20
2.4673531388351755
 10
129.42713567839195
 20
2.4729493470887434
 10
129.1859296482412
 20
2.482503025973582
 10
128.94472361809045
 20
2.4959760917232074
 10
128.7035175879397
 20
2.5133148367454012
 10
128.46231155778895
 20
2.5344501437163984
 10
128.2211055276382
 20
2.5592977611028545
 10
127.97989949748744
 20
2.5877586390131313
 10
127.73869346733667
 20
2.6197193240392593
 10
127.49748743718592
 20
2.6550524115154666
 10
127.25628140703517
 20
2.6936170533905717
 10
127.01507537688443
 20
2.735259519689624
 10
126.77386934673368
 20
2.7798138113266795
 10
126.53266331658291
 20
2.8271023218258478
 10
126.29145728643216
 20
2.8769365453128124
 10
126.0502512562814
 20
2.929117827954528
 10
125.80904522613065
 20
2.9834381598516835
 10
125.5678391959799
 20
3.0396810042271802
 10
125.32663316582915
 20
3.097622160605219
 10
125.08542713567839
 20
3.1570306585401973
 10
124.84422110552764
 20
3.2176696783326335
 10
124.60301507537689
 20
3.2792974950619644
 10
124.36180904522612
 20
3.3416684421729883
 10
124.12060301507537
 20
3.404533890774818
 10
123.87939698492463
 20
3.4676432407485542
 10
123.63819095477388
 20
3.5307449197129017
 10
123.39698492462311
 20
3.5935873858654475
 10
123.15577889447236
 20
3.655920130702082
 10
122.9145728643216
 20
3.7174946776173954
 10
122.67336683417085
 20
3.778065572405282
 10
122.4321608040201
 20
3.8373913617114326
 10
122.19095477386935
 20
3.895235555537223
 10
121.94974874371859
 20
3.9513675699582222
 10
121.70854271356784
 20
4.0055636462993505
 10
121.46733668341709
 20
4.057607743102597
 10
121.22613065326632
 20
4.107292397331644
 10
120.98492462311557
 20
4.154419551380382
 10
120.74371859296483
 20
4.1988013425886415
 10
120.50251256281408
 20
4.240260852117839
 10
120.26130653266331
 20
4.278632810201387
 10
120.02010050251256
 20
4.313764254958443
 10
119.77889447236181
 20
4.345515142144858
 10
119.53768844221105
 20
4.373758903410593
 10
119.2964824120603
 20
4.3983829508383
 10
119.05527638190955
 20
4.419289125751796
 10
118.8140703517588
 20
4.436394090005312
 10
118.57286432160804
 20
4.449629658193821
 10
118.33165829145729
 20
4.458943069460034
 10
118.09045226130652
 20
4.464297197814684
 10
117.84924623115577
 20
4.465670700131582
 10
117.60804020100502
 20
4.463058101227592
 10
117.36683417085428
 20
4.456469815688319
 10
117.12562814070351
 20
4.445932106352508
 10
116.88442211055276
 20
4.431486979620676
 10
116.64321608040201
 20
4.413192018005265
 10
116.40201005025125
 20
4.391120150589863
 10
116.1608040201005
 20
4.365359362312482
 10
115.91959798994975
 20
4.33601234323179
 10
115.678391959799
 20
4.303196079174409
 10
115.43718592964824
 20
4.267041385395096
 10
115.19597989949749
 20
4.227692385108767
 10
114.95477386934674
 20
4.18530593497308
 10
114.71356783919597
 20
4.140050999811791
 10
114.47236180904522
 20
4.0921079790714
 10
114.23115577889448
 20
4.041667987696041
 10
113.98994974874373
 20
3.9889320942872537
 10
113.74874371859296
 20
3.934110519585552
 10
113.50753768844221
 20
3.877421798468898
 10
113.79691247779719
 20
2.5668027555042556
 10
113.64917720077429
 20
2.6269000355468712
 10
113.49845683777222
 20
2.6790610106343777
 10
113.34517738139434
 20
2.7231382541740565
 10
113.18977205720728
 20
2.7590071872480415
 10
113.03268009928202
 20
2.786566430720317
 10
112.8743455087528
 20
2.805738091772433
 10
112.71521579890232
 20
2.8164679840579687
 10
112.55574073032048
 20
2.8187257808535975
 10
112.3963710397112
 20
2.812505100773844
 10
112.2375571659405
 20
2.7978235258072957
 10
112.07974797692634
 20
2.774722551623263
 10
111.9233895009686
 20
2.7432674702893642
 10
111.76892366610471
 20
2.7035471857315088
 10
111.61678705105446
 20
2.655673962457879
 10
111.46740965128376
 20
2.5997831082570606
 10
111.32121366367524
 20
2.536032591767203
 10
111.17861229324062
 20
2.46460259599705
 10
111.04000858524748
 20
2.3856950090607825
 10
110.90579428606122
 20
2.299532853566056
 10
110.77634873592216
 20
2.2063596562679706
 10
110.6520377967868
 20
2.106438759770594
 10
110.53321281826399
 20
2.0000525782214353
 10
110.42020964456842
 20
1.8875017991025018
 10
110.31334766529804
 20
1.7691045333740512
  0
LWPOLYLINE
  5
8F
330
17
100
AcDbEntity
  8
OUTLINE
100
AcDbPolyline
 90
111
 70
1
 10
155.99951748619912
 20
0.0
 10
150.30781680832374
 20
0.0
 10
150.26273144102618
 20
0.24623115577889448
 10
150.22070672785603
 20
0.49246231155778897
 10
150.1819172420325
 20
0.7386934673366834
 10
150.14652411744342
 20
0.9849246231155779
 10
150.11467437928493
 20
1.2311557788944725
 10
150.08650033331008
 20
1.4773869346733668
 10
150.06211901622268
 20
1.7236180904522613
 10
150.04163170949954
 20
1.9698492462311559
 10
150.02512351866116
 20
2.2160804020100504
 10
150.01266301973823
 20
2.462311557788945
 10
150.00430197440252
 20
2.7085427135678395
 10
150.00007511494587
 20
2.9547738693467336
 10
150.0
 20
3.201005025125628
 10
150.004076941597
 20
3.4472361809045227
 10
150.01228900387298
 20
3.693467336683417
 10
150.02460207342094
 20
3.9396984924623117
 10
150.04096500099962
 20
4.185929648241206
 10
150.06130981401083
 20
4.432160804020101
 10
150.08555199886158
 20
4.678391959798995
 10
150.11359085203884
 20
4.92462311557789
 10
150.14530989843794
 20
5.170854271356784
 10
150.1805773752074
 20
5.417085427135679
 10
150.2192467790997
 20
5.6633165829145735
 10
150.26115747505477
 20
5.909547738693467
 10
150.30613536348778
 20
6.155778894472362
 10
150.35399360350948
 20
6.402010050251256
 10
150.40453338907457
 20
6.648241206030151
 10
150.45754477483428
 20
6.894472361809045
 10
150.51280754826183
 20
7.14070351758794
 10
150.57009214442905
 20
7.386934673366834
 10
150.62916059963283
 20
7.633165829145729
 10
150.68976753991095
 20
7.8793969849246235
 10
150.75166120034044
 20
8.125628140703517
 10
150.8145844708844
 20
8.371859296482413
 10
150.8782759644428
 20
8.618090452261306
 10
150.94247110267037
 20
8.864321608040202
 10
151.0069032150512
 20
9.110552763819095
 10
151.07130464666437
 20
9.35678391959799
 10
151.13540787003862
 20
9.603015075376884
 10
151.19894659647798
 20
9.84924623115578
 10
151.26165688224114
 20
10.095477386934673
 10
151.32327822497976
 20
10.341708542713569
 10
151.38355464588125
 20
10.587939698492463
 10
151.4422357530203
 20
10.834170854271358
 10
151.4990777815021
 20
11.080402010050252
 10
151.55384460607675
 20
11.326633165829147
 10
151.60630872201773
 20
11.57286432160804
 10
151.65625219019051
 20
11.819095477386934
 10
151.7034675423851
 20
12.06532663316583
 10
151.74775864315137
 20
12.311557788944723
 10
151.78894150455793
 20
12.557788944723619
 10
151.826845050489
 20
12.804020100502512
 10
151.86131182730512
 20
13.050251256281408
 10
151.89219865791523
 20
13.296482412060302
 10
151.91937723654289
 20
13.542713567839197
 10
151.94273466171634
 20
13.78894472361809
 10
151.96217390526817
 20
14.035175879396986
 10
151.9776142153961
 20
14.28140703517588
 10
151.98899145211104
 20
14.527638190954775
 10
151.9962583536784
 20
14.773869346733669
 10
151.99938473294628
 20
15.020100502512564
 10
151.99835760274465
 20
15.266331658291458
 10
151.99318122983502
 20
15.512562814070353
 10
151.98387711718584
 20
15.758793969849247
 10
151.97048391464799
 20
16.00502512562814
 10
151.95305725840095
 20
16.251256281407034
 10
151.9316695398366
 20
16.49748743718593
 10
151.9064096048412
 20
16.743718592964825
 10
151.87738238472383
 20
16.98994974874372
 10
151.84470846032568
 20
17.236180904522612
 10
151.80852356111964
 20
17.48241206030151
 10
151.76897800138192
 20
17.728643216080403
 10
151.7262360557774
 20
17.974874371859297
 10
151.68047527695256
 20
18.22110552763819
 10
151.63188575797108
 20
18.467336683417088
 10
151.58066934265554
 20
18.71356783919598
 10
151.52703878711603
 20
18.959798994974875
 10
151.47121687594824
 20
19.20603015075377
 10
151.4134354967726
 20
19.452261306532666
 10
151.35393467695914
 20
19.69849246231156
 10
151.29296158653898
 20
19.944723618090453
 10
151.23076951144515
 20
20.190954773869347
 10
151.16761680134718
 20
20.43718592964824
 10
151.10376579645103
 20
20.683417085427138
 10
151.03948173772176
 20
20.92964824120603
 10
150.97503166505646
 20
21.175879396984925
 10
150.91068330798421
 20
21.42211055276382
 10
150.84670397350135
 20
21.668341708542716
 10
150.78335943566188
 20
21.91457286432161
 10
150.72091283153583
 20
22.160804020100503
 10
150.6596235681219
 20
22.407035175879397
 10
150.59974624475495
 20
22.653266331658294
 10
150.54152959548486
 20
22.899497487437188
 10
150.4852154558201
 20
23.14572864321608
 10
150.43103775812833
 20
23.391959798994975
 10
150.379221559867
 20
23.63819095477387
 10
150.32998210868115
 20
23.884422110552766
 10
150.50249318246537
 20
24.416656324206983
 10
150.62735445601564
 20
24.628372075530773
 10
150.73446517519852
 20
24.849598635480785
 10
150.82310634268566
 20
25.078850986434286
 10
150.89268294088131
 20
25.31459023640067
 10
150.9427279260703
 20
25.555233949072793
 10
150.97290536352153
 20
25.799166766176334
 10
150.9830126825019
 20
26.044751250812926
 10
150.97298203606388
 20
26.290338879009514
 10
150.9428807564787
 20
26.53428110569142
 10
150.92639340845645
 20
26.6136856625135
 10
155.99951748619912
 20
26.6136856625135
  0
LWPOLYLINE
  5
90
330
17
100
AcDbEntity
  8
OUTLINE
100
AcDbPolyline
 90
118
 70
1
 10
157.99951748619912
 20
0.0
 10
166.12095308045463
 20
0.0
 10
166.0920100567677
 20
0.24623115577889448
 10
166.06683687424118
 20
0.49246231155778897
 10
166.04553810380926
 20
0.7386934673366834
 10
166.02820222186213
 20
0.9849246231155779
 10
166.01490124270973
 20
1.2311557788944725
 10
166.00569041942995
 20
1.4773869346733668
 10
166.00060801434398
 20
1.7236180904522613
 10
165.9996751400722
 20
1.9698492462311559
 10
166.00289567183123
 20
2.2160804020100504
 10
166.0102562313359
 20
2.462311557788945
 10
166.02172624237343
 20
2.7085427135678395
 10
166.03725805781914
 20
2.9547738693467336
 10
166.05678715756522
 20
3.201005025125628
 10
166.08023241654132
 20
3.4472361809045227
 10
166.107496441713
 20
3.693467336683417
 10
166.13846597665844
 20
3.9396984924623117
 10
166.1730123720423
 20
4.185929648241206
 10
166.2109921200331
 20
4.432160804020101
 10
166.25224745044343
 20
4.678391959798995
 10
166.2966069861169
 20
4.92462311557789
 10
166.34388645483924
 20
5.170854271356784
 10
166.39388945481645
 20
5.417085427135679
 10
166.4464082705397
 20
5.6633165829145735
 10
166.5012247356483
 20
5.909547738693467
 10
166.55811113920592
 20
6.155778894472362
 10
166.6168311716259
 20
6.402010050251256
 10
166.6771409063154
 20
6.648241206030151
 10
166.73878981296167
 20
6.894472361809045
 10
166.80152179824987
 20
7.14070351758794
 10
166.86507626969058
 20
7.386934673366834
 10
166.9291892181368
 20
7.633165829145729
 10
166.99359431449398
 20
7.8793969849246235
 10
167.05802401606735
 20
8.125628140703517
 10
167.1222106779506
 20
8.371859296482413
 10
167.18588766483902
 20
8.618090452261306
 10
167.24879045864898
 20
8.864321608040202
 10
167.31065775734206
 20
9.110552763819095
 10
167.3712325603896
 20
9.35678391959799
 10
167.43026323636863
 20
9.603015075376884
 10
167.48750456825417
 20
9.84924623115578
 10
167.54271877206557
 20
10.095477386934673
 10
167.59567648463573
 20
10.341708542713569
 10
167.6461577163997
 20
10.587939698492463
 10
167.69395276524466
 20
10.834170854271358
 10
167.73886308762533
 20
11.080402010050252
 10
167.78070212332597
 20
11.326633165829147
 10
167.81929607044282
 20
11.57286432160804
 10
167.85448460736788
 20
11.819095477386934
 10
167.88612155877453
 20
12.06532663316583
 10
167.91407550283884
 20
12.311557788944723
 10
167.93823031717386
 20
12.557788944723619
 10
167.9584856612089
 20
12.804020100502512
 10
167.97475739301066
 20
13.050251256281408
 10
167.98697791881366
 20
13.296482412060302
 10
167.99509647380913
 20
13.542713567839197
 10
167.99907933302484
 20
13.78894472361809
 10
167.99890995142098
 20
14.035175879396986
 10
167.99458903261902
 20
14.28140703517588
 10
167.98613452597897
 20
14.527638190954775
 10
167.9735815520366
 20
14.773869346733669
 10
167.95698225661053
 20
15.020100502512564
 10
167.93640559418546
 20
15.266331658291458
 10
167.91193704147094
 20
15.512562814070353
 10
167.8836782423259
 20
15.758793969849247
 10
167.85174658552398
 20
16.00502512562814
 10
167.81627471711323
 20
16.251256281407034
 10
167.7774099893965
 20
16.49748743718593
 10
167.73531384882094
 20
16.743718592964825
 10
167.69016116531958
 20
16.98994974874372
 10
167.6421395058911
 20
17.236180904522612
 10
167.59144835543492
 20
17.48241206030151
 10
167.53829828807886
 20
17.728643216080403
 10
167.48291009244141
 20
17.974874371859297
 10
167.42551385446234
 20
18.22110552763819
 10
167.36634800161156
 20
18.467336683417088
 10
167.3056583124471
 20
18.71356783919598
 10
167.24369689563585
 20
18.959798994974875
 10
167.1807211426788
 20
19.20603015075377
 10
167.1169926586912
 20
19.452261306532666
 10
167.05277617567876
 20
19.69849246231156
 10
166.98833845282493
 20
19.944723618090453
 10
166.92394716835693
 20
20.190954773869347
 10
166.85986980759407
 20
20.43718592964824
 10
166.79637255179753
 20
20.683417085427138
 10
166.73371917243702
 20
20.92964824120603
 10
166.67216993546822
 20
21.175879396984925
 10
166.61198052017193
 20
21.42211055276382
 10
166.5534009570469
 20
21.668341708542716
 10
166.4966745891679
 20
21.91457286432161
 10
166.44203706132367
 20
22.160804020100503
 10
166.38971534113423
 20
22.407035175879397
 10
166.33992677621345
 20
22.653266331658294
 10
166.2928781912938
 20
22.899497487437188
 10
166.24876502906397
 20
23.14572864321608
 10
166.20777053828786
 20
23.391959798994975
 10
166.17006501257814
 20
23.63819095477387
 10
166.13580508298617
 20
23.884422110552766
 10
166.1051330673471
 20
24.13065326633166
 10
166.0781763790829
 20
24.376884422110553
 10
166.05504699791916
 20
24.623115577889447
 10
167.32290281380662
 20
25.203512913358715
 10
167.22132007170944
 20
25.33718975415713
 10
167.12737468231688
 20
25.476340086782344
 10
167.04136088834275
 20
25.620528083869495
 10
166.9635480902582
 20
25.769302139780066
 10
166.8941800025129
 20
25.92219628505841
 10
166.83347389020662
 20
26.078731645876605
 10
166.7816198886013
 20
26.238417943896646
 10
166.73878040760613
 20
26.400755031852217
 10
166.70508962309952
 20
26.56523446004054
 10
166.68065305668216
 20
26.731341068818033
 10
166.66554724517678
 20
26.898554602111822
 10
166.65981950091032
 20
27.066351336893664
 10
166.6634877635286
 20
27.23420572351252
 10
166.664353016435
 20
27.245301558014592
 10
157.99951748619912
 20
27.245301558014592
  0
LWPOLYLINE
  5
91
330
17
100
AcDbEntity
  8
OUTLINE
100
AcDbPolyline
 90
164
 70
1
 10
200.0
 20
0.5385791108511455
 10
200.0
 20
22.293277552836553
 10
248.0
 20
22.293277552836553
 10
248.0
 20
0.0
 10
242.61813039214854
 20
0.0968865426334844
 10
242.55773669957955
 20
0.2962839844759415
 10
242.4836493201352
 20
0.49100891385713297
 10
242.3962255750892
 20
0.680122178113141
 10
242.295887106618
 20
0.8627116894775284
 10
242.18311784423312
 20
1.0378968240540907
 10
242.05846167080318
 20
1.2048326690402398
 10
241.9225197994226
 20
1.3627140977168644
 10
241.77594787377828
 20
1.5107796525510473
 10
241.6194528059994
 20
1.6483152176835674
 10
241.45378936724066
 20
1.7746574630888965
 10
241.27975654744296
 20
1.8891970437965888
 10
241.09819370182825
 20
1.9913815387443492
 10
240.90997650271376
 20
2.080718115088704
 10
240.71601271616981
 20
2.156775905123471
 10
240.51723782389064
 20
2.219188084342157
 10
240.3146105113932
 20
2.267653640621866
 10
240.1091080443051
 20
2.3019388259959968
 10
239.79899497487438
 20
3.193817417291715
 10
239.55778894472363
 20
3.1312229308862953
 10
239.31658291457285
 20
3.069274441740589
 10
239.0753768844221
 20
3.0082188947041075
 10
238.83417085427135
 20
2.9482996750972035
 10
238.5929648241206
 20
2.8897556385057506
 10
238.35175879396985
 20
2.832820158632728
 10
238.1105527638191
 20
2.7777201970022
 10
237.86934673366835
 20
2.724675398224086
 10
237.6281407035176
 20
2.6738972144263116
 10
237.38693467336682
 20
2.625588062344619
 10
237.14572864321607
 20
2.5799405164300673
 10
236.90452261306532
 20
2.5371365411907902
 10
236.66331658291458
 20
2.497346765828077
 10
236.42211055276383
 20
2.4607298040583423
 10
236.18090452261305
 20
2.427431621832305
 10
235.9396984924623
 20
2.3975849554719133
 10
235.69849246231155
 20
2.3713087825444035
 10
235.4572864321608
 20
2.3487078475828476
 10
235.21608040201005
 20
2.3298722445436866
 10
234.9748743718593
 20
2.314877057665818
 10
234.73366834170855
 20
2.303782062162778
 10
234.4924623115578
 20
2.296631485941216
 10
234.25125628140702
 20
2.29345383329548
 10
234.01005025125627
 20
2.294261771281139
 10
233.76884422110552
 20
2.299052079220381
 10
233.52763819095478
 20
2.3078056615405877
 10
233.28643216080403
 20
2.320487623894884
 10
233.04522613065325
 20
2.337047412261235
 10
232.8040201005025
 20
2.3574190144656093
 10
232.56281407035175
 20
2.3815212233258833
 10
232.321608040201
 20
2.4092579603674587
 10
232.08040201005025
 20
2.440518658820288
 10
231.8391959798995
 20
2.4751787043704105
 10
231.59798994974875
 20
2.513099931909192
 10
231.356783919598
 20
2.554131176299965
 10
231.11557788944722
 20
2.598108874966602
 10
230.87437185929647
 20
2.644857719901932
 10
230.63316582914572
 20
2.69419135649688
 10
230.39195979899498
 20
2.745913126404588
 10
230.15075376884423
 20
2.7998168514783046
 10
229.90954773869348
 20
2.8556876556579205
 10
229.6683417085427
 20
2.9133028215290047
 10
229.42713567839195
 20
2.9724326781397323
 10
229.1859296482412
 20
3.0328415165366813
 10
228.94472361809045
 20
3.094288529369848
 10
228.7035175879397
 20
3.156528770821403
 10
228.46231155778895
 20
3.2193141330315456
 10
228.2211055276382
 20
3.28239433512924
 10
227.97989949748745
 20
3.345517920925168
 10
227.73869346733667
 20
3.4084332612898613
 10
227.49748743718592
 20
3.470889557221227
 10
227.25628140703517
 20
3.532637839602941
 10
227.01507537688443
 20
3.5934319616683688
 10
226.77386934673368
 20
3.6530295802138006
 10
226.5326633165829
 20
3.7111931216495186
 10
226.29145728643215
 20
3.767690729037845
 10
226.0502512562814
 20
3.8222971863428903
 10
225.80904522613065
 20
3.8747948162077357
 10
225.5678391959799
 20
3.924974347680248
 10
225.32663316582915
 20
3.972635750428463
 10
225.0854271356784
 20
4.017589032120174
 10
224.84422110552765
 20
4.05965499578809
 10
224.60301507537687
 20
4.0986659541615325
 10
224.36180904522612
 20
4.13446639811707
 10
224.12060301507537
 20
4.166913616583489
 10
223.87939698492463
 20
4.195878265430025
 10
223.63819095477388
 20
4.221244883069961
 10
223.39698492462313
 20
4.242912350724424
 10
223.15577889447235
 20
4.260794295511474
 10
222.9145728643216
 20
4.274819434753745
 10
222.67336683417085
 20
4.284931860132133
 10
222.4321608040201
 20
4.291091260552726
 10
222.19095477386935
 20
4.29327308283867
 10
221.9497487437186
 20
4.2914686296063245
 10
221.70854271356785
 20
4.285685093935584
 10
221.46733668341707
 20
4.275945530696163
 10
221.22613065326632
 20
4.262288764644097
 10
220.98492462311557
 20
4.244769235654918
 10
220.74371859296483
 20
4.2234567817102935
 10
220.50251256281408
 20
4.198436360503379
 10
220.26130653266333
 20
4.1698077107725275
 10
220.02010050251255
 20
4.137684954713404
 10
219.7788944723618
 20
4.102196143054453
 10
219.53768844221105
 20
4.063482744609129
 10
219.2964824120603
 20
4.021699082339712
 10
219.05527638190955
 20
3.977011718180698
 10
218.8140703517588
 20
3.9295987890740847
 10
218.57286432160805
 20
3.8796492968632563
 10
218.33165829145727
 20
3.827362354876204
 10
218.09045226130652
 20
3.77294639420138
 10
217.84924623115577
 20
3.7166183328202465
 10
217.60804020100502
 20
3.658602710908582
 10
217.36683417085428
 20
3.599130795753453
 10
217.12562814070353
 20
3.5384396598539745
 10
216.88442211055275
 20
3.476771235880811
 10
216.643216080402
 20
3.4143713522615435
 10
216.40201005025125
 20
3.351488753236474
 10
216.1608040201005
 20
3.288374107291105
 10
215.91959798994975
 20
3.225279007918047
 10
215.678391959799
 20
3.162454970691524
 10
215.43718592964825
 20
3.1001524306525354
 10
215.1959798994975
 20
3.03861974400132
 10
214.95477386934672
 20
2.9781021980766837
 10
214.71356783919597
 20
2.918841033568718
 10
214.47236180904522
 20
2.861072482862639
 10
214.23115577889448
 20
2.805026828347227
 10
213.98994974874373
 20
2.7509274844416325
 10
213.74874371859298
 20
2.6989901070000144
 10
213.5075376884422
 20
2.6494217336440045
 10
213.26633165829145
 20
2.602419958450035
 10
213.0251256281407
 20
2.5581721442813965
 10
212.78391959798995
 20
2.5168546759048844
 10
212.5427135678392
 20
2.478632256869389
 10
212.30150753768845
 20
2.4436572529492366
 10
212.0603015075377
 20
2.4120690847695165
 10
211.81909547738692
 20
2.3839936720345705
 10
211.57788944723617
 20
2.3595429315751204
 10
211.33668341708542
 20
2.3388143312149445
 10
211.09547738693468
 20
2.32189050123554
 10
210.85427135678393
 20
2.3088389049875957
 10
210.61306532663318
 20
2.2997115699622697
 10
210.3718592964824
 20
2.2945448803943584
 10
210.13065326633165
 20
2.2933594322240616
 10
209.8894472361809
 20
2.29615995099552
 10
209.64824120603015
 20
2.302935273019415
 10
209.77065380776543
 20
2.708152420425442
 10
209.64325947459142
 20
2.5987941325228867
 10
209.52218246533084
 20
2.4824802937660984
 10
209.40780200059274
 20
2.359575206222395
 10
209.3004763269986
 20
2.230463816154
 10
209.20054159513188
 20
2.0955505083427965
 10
209.10831080669394
 20
1.9552578395324076
 10
209.02407283416332
 20
1.8100252149545923
 10
208.94809151602965
 20
1.6603075120851507
 10
208.8806048304353
 20
1.5065736559398175
 10
208.82182414981307
 20
1.3493051503723663
 10
208.7719335788551
 20
1.1889945699750655
 10
208.7310893778855
 20
1.0261440173048904
 10
208.6994194734434
 20
0.8612635502675303
 10
208.67702305760932
 20
0.6948695845848292
 10
208.66397027732947
 20
0.5274832763490735
  0
LWPOLYLINE
  5
92
330
17
100
AcDbEntity
  8
OUTLINE
100
AcDbPolyline
 90
113
 70
1
 10
255.99999622241765
 20
0.0
 10
250.24283728412738
 20
0.0
 10
250.20232976577577
 20
0.24623115577889448
 10
250.1651358024905
 20
0.49246231155778897
 10
250.13140990026153
 20
0.7386934673366834
 10
250.1012921585417
 20
0.9849246231155779
 10
250.0749076882654
 20
1.2311557788944725
 10
250.0523660921298
 20
1.4773869346733668
 10
250.0337610092989
 20
1.7236180904522613
 10
250.01916972642042
 20
1.9698492462311559
 10
250.00865285657255
 20
2.2160804020100504
 10
250.0022540874735
 20
2.462311557788945
 10
250.0
 20
2.7085427135678395
 10
250.00189995776879
 20
2.9547738693467336
 10
250.00794606823948
 20
3.201005025125628
 10
250.01811321550082
 20
3.4472361809045227
 10
250.0323591646035
 20
3.693467336683417
 10
250.05062473700687
 20
3.9396984924623117
 10
250.07283405641022
 20
4.185929648241206
 10
250.0988948639474
 20
4.432160804020101
 10
250.12869890143588
 20
4.678391959798995
 10
250.16212236108788
 20
4.92462311557789
 10
250.19902639981532
 20
5.170854271356784
 10
250.2392577159926
 20
5.417085427135679
 10
250.28264918628088
 20
5.6633165829145735
 10
250.3290205598685
 20
5.909547738693467
 10
250.37817920724396
 20
6.155778894472362
 10
250.4299209203906
 20
6.402010050251256
 10
250.48403076107917
 20
6.648241206030151
 10
250.54028395373427
 20
6.894472361809045
 10
250.59844681916587
 20
7.14070351758794
 10
250.65827774528682
 20
7.386934673366834
 10
250.71952819078425
 20
7.633165829145729
 10
250.78194371757527
 20
7.8793969849246235
 10
250.84526504775835
 20
8.125628140703517
 10
250.90922914066942
 20
8.371859296482413
 10
250.97357028556897
 20
8.618090452261306
 10
251.03802120542042
 20
8.864321608040202
 10
251.10231416717545
 20
9.110552763819095
 10
251.16618209395324
 20
9.35678391959799
 10
251.22935967449422
 20
9.603015075376884
 10
251.29158446527907
 20
9.84924623115578
 10
251.3525979807353
 20
10.095477386934673
 10
251.41214676700184
 20
10.341708542713569
 10
251.46998345479196
 20
10.587939698492463
 10
251.5258677869803
 20
10.834170854271358
 10
251.5795676166457
 20
11.080402010050252
 10
251.63085987142355
 20
11.326633165829147
 10
251.679531480162
 20
11.57286432160804
 10
251.7253802580326
 20
11.819095477386934
 10
251.76821574641826
 20
12.06532663316583
 10
251.80786000409012
 20
12.311557788944723
 10
251.84414834638605
 20
12.557788944723619
 10
251.876930029321
 20
12.804020100502512
 10
251.90606887578642
 20
13.050251256281408
 10
251.9314438412386
 20
13.296482412060302
 10
251.95294951652488
 20
13.542713567839197
 10
251.9704965657596
 20
13.78894472361809
 10
251.98401209743102
 20
14.035175879396986
 10
251.99343996719708
 20
14.28140703517588
 10
251.99874101111223
 20
14.527638190954775
 10
251.99989320831705
 20
14.773869346733669
 10
251.99689177251415
 20
15.020100502512564
 10
251.98974917185075
 20
15.266331658291458
 10
251.9784950771252
 20
15.512562814070353
 10
251.96317623853278
 20
15.758793969849247
 10
251.94385629146245
 20
16.00502512562814
 10
251.92061549215163
 20
16.251256281407034
 10
251.89355038429676
 20
16.49748743718593
 10
251.86277339800506
 20
16.743718592964825
 10
251.82841238275307
 20
16.98994974874372
 10
251.7906100762918
 20
17.236180904522612
 10
251.74952351170586
 20
17.48241206030151
 10
251.70532336508808
 20
17.728643216080403
 10
251.6581932465408
 20
17.974874371859297
 10
251.6083289374484
 20
18.22110552763819
 10
251.5559375771892
 20
18.467336683417088
 10
251.50123680266628
 20
18.71356783919598
 10
251.4444538442301
 20
18.959798994974875
 10
251.38582458175011
 20
19.20603015075377
 10
251.32559256475514
 20
19.452261306532666
 10
251.264008000714
 20
19.69849246231156
 10
251.2013267156584
 20
19.944723618090453
 10
251.1378090914659
 20
20.190954773869347
 10
251.07371898421775
 20
20.43718592964824
 10
251.00932262812486
 20
20.683417085427138
 10
250.94488752957437
 20
20.92964824120603
 10
250.88068135589197
 20
21.175879396984925
 10
250.8169708234355
 20
21.42211055276382
 10
250.75402058963897
 20
21.668341708542716
 10
250.69209215360945
 20
21.91457286432161
 10
250.63144276984374
 20
22.160804020100503
 10
250.5723243795777
 20
22.407035175879397
 10
250.5149825642068
 20
22.653266331658294
 10
250.4596555251262
 20
22.899497487437188
 10
250.4065730942276
 20
23.14572864321608
 10
250.3559557791635
 20
23.391959798994975
 10
250.30801384734502
 20
23.63819095477387
 10
250.26294645247822
 20
23.884422110552766
 10
250.22094080726757
 20
24.13065326633166
 10
250.34441281763478
 20
24.583540919187172
 10
250.43876463116052
 20
24.76929471645613
 10
250.51999653841324
 20
24.96114912781933
 10
250.58771676026979
 20
25.158178845037664
 10
250.64159868407214
 20
25.359433599522596
 10
250.6813824388709
 20
25.563942745453886
 10
250.70687614877522
 20
25.770719941176115
 10
250.71795685836463
 20
25.978767906295772
 10
250.71457112569936
 20
26.18708323153555
 10
250.69673528006956
 20
26.394661218148062
 10
250.6645353432393
 20
26.600500723548656
 10
250.64026446919235
 20
26.706722447163447
 10
255.99999622241765
 20
26.706722447163447
  0
LWPOLYLINE
  5
93
330
17
100
AcDbEntity
  8
OUTLINE
100
AcDbPolyline
 90
127
 70
1
 10
257.9999962224176
 20
0.0
 10
266.5454833091169
 20
0.0
 10
266.48904717621286
 20
0.24623115577889448
 10
266.4347335567813
 20
0.49246231155778897
 10
266.3827680729068
 20
0.7386934673366834
 10
266.3333665923759
 20
0.9849246231155779
 10
266.286734331949
 20
1.2311557788944725
 10
266.24306500487745
 20
1.4773869346733668
 10
266.2025400162068
 20
1.7236180904522613
 10
266.1653277092094
 20
1.9698492462311559
 10
266.1315826660761
 20
2.2160804020100504
 10
266.1014450657722
 20
2.462311557788945
 10
266.0750401017259
 20
2.7085427135678395
 10
266.0524774617667
 20
2.9547738693467336
 10
266.03385087247597
 20
3.201005025125628
 10
266.0192377098405
 20
3.4472361809045227
 10
266.0086986778284
 20
3.693467336683417
 10
266.00227755622086
 20
3.9396984924623117
 10
266.0000010187482
 20
4.185929648241206
 10
266.0018785222859
 20
4.432160804020101
 10
266.0079022675698
 20
4.678391959798995
 10
266.01804723159506
 20
4.92462311557789
 10
266.03227127156276
 20
5.170854271356784
 10
266.05051529994427
 20
5.417085427135679
 10
266.0727035299339
 20
5.6633165829145735
 10
266.09874379027235
 20
5.909547738693467
 10
266.12852790813133
 20
6.155778894472362
 10
266.16193215847045
 20
6.402010050251256
 10
266.1988177779983
 20
6.648241206030151
 10
266.23903154160365
 20
6.894472361809045
 10
266.28240639886224
 20
7.14070351758794
 10
266.3287621679739
 20
7.386934673366834
 10
266.3779062842491
 20
7.633165829145729
 10
266.4296346000342
 20
7.8793969849246235
 10
266.4837322327534
 20
8.125628140703517
 10
266.5399744575441
 20
8.371859296482413
 10
266.59812764077725
 20
8.618090452261306
 10
266.6579502105862
 20
8.864321608040202
 10
266.71919366037076
 20
9.110552763819095
 10
266.78160358110864
 20
9.35678391959799
 10
266.8449207181862
 20
9.603015075376884
 10
266.9088820483578
 20
9.84924623115578
 10
266.97322187236045
 20
10.095477386934673
 10
267.0376729186447
 20
10.341708542713569
 10
267.10196745363703
 20
10.587939698492463
 10
267.16583839392126
 20
10.834170854271358
 10
267.22902041571956
 20
11.080402010050252
 10
267.2912510570634
 20
11.326633165829147
 10
267.35227180807664
 20
11.57286432160804
 10
267.4118291848413
 20
11.819095477386934
 10
267.46967578238514
 20
12.06532663316583
 10
267.5255713024172
 20
12.311557788944723
 10
267.5792835515412
 20
12.557788944723619
 10
267.6305894058014
 20
12.804020100502512
 10
267.67927573755287
 20
13.050251256281408
 10
267.7251403008069
 20
13.296482412060302
 10
267.76799257137293
 20
13.542713567839197
 10
267.8076545383079
 20
13.78894472361809
 10
267.84396144338433
 20
14.035175879396986
 10
267.87676246550615
 20
14.28140703517588
 10
267.90592134722885
 20
14.527638190954775
 10
267.9313169607809
 20
14.773869346733669
 10
267.95284381123616
 20
15.020100502512564
 10
267.97041247474607
 20
15.266331658291458
 10
267.9839499700119
 20
15.512562814070353
 10
267.9934000614535
 20
15.758793969849247
 10
267.99872349281503
 20
16.00502512562814
 10
267.9998981502383
 20
16.251256281407034
 10
267.99691915412484
 20
16.49748743718593
 10
267.98979887940595
 20
16.743718592964825
 10
267.9785669041367
 20
16.98994974874372
 10
267.96326988662685
 20
17.236180904522612
 10
267.94397137161917
 20
17.48241206030151
 10
267.920751526321
 20
17.728643216080403
 10
267.89370680738455
 20
17.974874371859297
 10
267.8629495602203
 20
18.22110552763819
 10
267.8286075523071
 20
18.467336683417088
 10
267.79082344243847
 20
18.71356783919598
 10
267.74975418810914
 20
18.959798994974875
 10
267.70557039350416
 20
19.20603015075377
 10
267.65845560079856
 20
19.452261306532666
 10
267.60860552771226
 20
19.69849246231156
 10
267.55622725448643
 20
19.944723618090453
 10
267.5015383636597
 20
20.190954773869347
 10
267.44476603621695
 20
20.43718592964824
 10
267.38614610786584
 20
20.683417085427138
 10
267.3259220893607
 20
20.92964824120603
 10
267.26434415494407
 20
21.175879396984925
 10
267.20166810310786
 20
21.42211055276382
 10
267.1381542939904
 20
21.668341708542716
 10
267.07406656782507
 20
21.91457286432161
 10
267.0096711489315
 20
22.160804020100503
 10
266.9452355398036
 20
22.407035175879397
 10
266.88102740988813
 20
22.653266331658294
 10
266.8173134836692
 20
22.899497487437188
 10
266.75435843267877
 20
23.14572864321608
 10
266.69242377603473
 20
23.391959798994975
 10
266.63176679407474
 20
23.63819095477387
 10
266.572639459598
 20
23.884422110552766
 10
266.5152873911548
 20
24.13065326633166
 10
266.4599488327322
 20
24.376884422110553
 10
266.40685366407394
 20
24.623115577889447
 10
266.3562224457459
 20
24.869346733668344
 10
266.3082655029143
 20
25.115577889447238
 10
266.26318205164176
 20
25.36180904522613
 10
266.22115937133213
 20
25.608040201005025
 10
266.18237202676
 20
25.854271356783922
 10
266.1469811429182
 20
26.100502512562816
 10
266.1151337356948
 20
26.34673366834171
 10
266.08696210115994
 20
26.592964824120603
 10
266.06258326600016
 20
26.8391959798995
 10
266.04209850138216
 20
27.085427135678394
 10
266.02559290226645
 20
27.331658291457288
 10
267.9760479796719
 20
27.706379337747386
 10
267.9985864601335
 20
27.773608587358094
 10
268.02270753481014
 20
27.84028638622083
 10
268.0483977287178
 20
27.9063754854863
 10
268.0756426903006
 20
27.97183896517604
 10
268.1044271994479
 20
28.036640254807367
 10
268.1347351759973
 20
28.10074315382308
 10
268.16654968871717
 20
28.164111851814546
 10
268.19985296476545
 20
28.226710948526783
 10
268.23462639961815
 20
28.28850547363445
 10
268.27085056746245
 20
28.349460906277663
 10
268.3085052320491
 20
28.409543194346675
 10
268.33707160633486
 20
28.452816445818847
 10
257.9999962224176
 20
28.452816445818847
  0
LWPOLYLINE
  5
94
330
17
100
AcDbEntity
  8
OUTLINE
100
AcDbPolyline
 90
163
 70
1
 10
300.0
 20
0.9054330813442135
 10
300.0
 20
21.452616635525366
 10
348.0
 20
21.452616635525366
 10
348.0
 20
0.01600306612028035
 10
342.18203058632776
 20
0.0
 10
342.1485485211573
 20
0.13064764034874443
 10
342.1092283028841
 20
0.2596583959148049
 10
342.0641494014031
 20
0.38677152371065304
 10
342.0134029254547
 20
0.511730116034677
 10
341.9570914384857
 20
0.6342816197060479
 10
341.8953287513583
 20
0.7541783464986658
 10
341.82823969232817
 20
0.8711779737426042
 10
341.75595985475405
 20
0.9850440340812199
 10
341.67863532305125
 20
1.095546393394141
 10
341.5964223774409
 20
1.202461715920176
 10
341.5094871780928
 20
1.305573915640096
 10
341.4180054292999
 20
1.4046745930070017
 10
341.32216202436354
 20
1.499563456141587
 10
341.222150671906
 20
1.5900487256410543
 10
341.11817350436746
 20
1.675947522183499
 10
341.0104406694769
 20
1.757086236144385
 10
340.7638190954774
 20
2.9874585338683204
 10
340.52261306532665
 20
2.9330712763674427
 10
340.2814070351759
 20
2.876768785733038
 10
340.0402010050251
 20
2.818775500208382
 10
339.79899497487435
 20
2.759322598041148
 10
339.5577889447236
 20
2.698647075939121
 10
339.31658291457285
 20
2.63699080433177
 10
339.0753768844221
 20
2.5745995632037832
 10
338.83417085427135
 20
2.511722062343967
 10
338.5929648241206
 20
2.448608949915041
 10
338.35175879396985
 20
2.3855118132965636
 10
338.1105527638191
 20
2.322682176183811
 10
337.86934673366835
 20
2.2603704959405846
 10
337.6281407035176
 20
2.1988251652026527
 10
337.38693467336685
 20
2.1382915217118565
 10
337.1457286432161
 20
2.079010870327913
 10
336.9045226130653
 20
2.0212195211164463
 10
336.66331658291455
 20
1.965147847347751
 10
336.4221105527638
 20
1.9110193671613729
 10
336.18090452261305
 20
1.8590498525572166
 10
335.9396984924623
 20
1.8094464692650831
 10
335.69849246231155
 20
1.7624069509212745
 10
335.4572864321608
 20
1.718118810844345
 10
335.21608040201005
 20
1.6767585945519947
 10
334.9748743718593
 20
1.638491175998844
 10
334.73366834170855
 20
1.6034691003404973
 10
334.4924623115578
 20
1.5718319758437964
 10
334.25125628140705
 20
1.5437059173673298
 10
334.0100502512563
 20
1.519203043630597
 10
333.7688442211055
 20
1.4984210302759102
 10
333.5276381909548
 20
1.4814427205046385
 10
333.286432160804
 20
1.468335794839895
 10
333.04522613065325
 20
1.4591525013321274
 10
332.8040201005025
 20
1.453929447283052
 10
332.56281407035175
 20
1.4526874533182301
 10
332.321608040201
 20
1.4554314703899252
 10
332.08040201005025
 20
1.4621505600411666
 10
331.8391959798995
 20
1.4728179380096478
 10
331.59798994974875
 20
1.4873910809976536
 10
331.356783919598
 20
1.5058118961823865
 10
331.11557788944725
 20
1.5280069527910136
 10
330.8743718592965
 20
1.553887774817266
 10
330.63316582914575
 20
1.583351193712737
 10
330.391959798995
 20
1.6162797596470035
 10
330.1507537688442
 20
1.6525422096970814
 10
329.90954773869345
 20
1.691993991099956
 10
329.6683417085427
 20
1.734477837482281
 10
329.42713567839195
 20
1.779824395770298
 10
329.1859296482412
 20
1.827852901280842
 10
328.94472361809045
 20
1.8783718983024187
 10
328.7035175879397
 20
1.9311800032937967
 10
328.46231155778895
 20
1.9860667076579155
 10
328.2211055276382
 20
2.0428132168908775
 10
327.97989949748745
 20
2.101193322761027
 10
327.7386934673367
 20
2.1609743050413215
 10
327.49748743718595
 20
2.2219178592004134
 10
327.2562814070352
 20
2.2837810463544272
 10
327.0150753768844
 20
2.3463172616926045
 10
326.77386934673365
 20
2.409277217516415
 10
326.5326633165829
 20
2.4724099369734738
 10
326.29145728643215
 20
2.5354637545248444
 10
326.0502512562814
 20
2.598187319157759
 10
325.80904522613065
 20
2.6603305963444477
 10
325.5678391959799
 20
2.7216458647531176
 10
325.32663316582915
 20
2.7818887037378524
 10
325.0854271356784
 20
2.8408189676710123
 10
324.84422110552765
 20
2.898201743234125
 10
324.6030150753769
 20
2.953808285851302
 10
324.36180904522615
 20
3.0074169315322195
 10
324.1206030150754
 20
3.0588139804897985
 10
323.8793969849246
 20
3.1077945490102223
 10
323.63819095477385
 20
3.1541633861795653
 10
323.3969849246231
 20
3.1977356522111755
 10
323.15577889447235
 20
3.2383376552712875
 10
322.9145728643216
 20
3.275807543865632
 10
322.67336683417085
 20
3.3099959520269735
 10
322.4321608040201
 20
3.340766594731651
 10
322.19095477386935
 20
3.3679968111716754
 10
321.9497487437186
 20
3.3915780537166853
 10
321.70854271356785
 20
3.411416320616649
 10
321.4673366834171
 20
3.4274325307204023
 10
321.22613065326635
 20
3.4395628387163235
 10
320.9849246231156
 20
3.447758889638475
 10
320.7437185929648
 20
3.4519880116236763
 10
320.50251256281405
 20
3.452233346151136
 10
320.2613065326633
 20
3.4484939152454572
 10
320.02010050251255
 20
3.4407846253751515
 10
319.7788944723618
 20
3.4291362080310535
 10
319.53768844221105
 20
3.4135950972216165
 10
319.2964824120603
 20
3.394223244373304
 10
319.05527638190955
 20
3.3710978713740545
 10
318.8140703517588
 20
3.3443111627441695
 10
318.57286432160805
 20
3.31396989816178
 10
318.3316582914573
 20
3.2801950268077285
 10
318.09045226130655
 20
3.2431211852266557
 10
317.8492462311558
 20
3.2028961606262243
 10
317.608040201005
 20
3.1596803017539905
 10
317.36683417085425
 20
3.113645879700222
 10
317.1256281407035
 20
3.0649764011748317
 10
316.88442211055275
 20
3.0138658769957765
 10
316.643216080402
 20
2.9605180487050404
 10
316.40201005025125
 20
2.9051455763950926
 10
316.1608040201005
 20
2.8479691909833456
 10
315.91959798994975
 20
2.789216814314006
 10
315.678391959799
 20
2.729122650594725
 10
315.43718592964825
 20
2.6679262527899326
 10
315.1959798994975
 20
2.6058715676924358
 10
314.95477386934675
 20
2.5432059634799806
 10
314.713567839196
 20
2.480179243633099
 10
314.4723618090452
 20
2.417042651145163
 10
314.23115577889445
 20
2.3540478669941294
 10
313.9899497487437
 20
2.2914460068683375
 10
313.74874371859295
 20
2.2294866201456784
 10
313.5075376884422
 20
2.1684166951166155
 10
313.26633165829145
 20
2.108479674416383
 10
313.0251256281407
 20
2.049914484591241
 10
312.78391959798995
 20
1.9929545836671672
 10
312.5427135678392
 20
1.9378270305176954
 10
312.30150753768845
 20
1.8847515797406267
 10
312.0603015075377
 20
1.833939805651756
 10
311.81909547738695
 20
1.7855942588875777
 10
311.5778894472362
 20
1.7399076589790283
 10
311.33668341708545
 20
1.6970621261149113
 10
311.09547738693465
 20
1.6572284551574121
 10
311.14422227114426
 20
1.7196133328629521
 10
311.08606920125084
 20
1.6790427084321777
 10
311.0288912169157
 20
1.6371090320835116
 10
310.9727202600171
 20
1.593835729623109
 10
310.91758770986775
 20
1.5492469752251168
 10
310.8635243656855
 20
1.5033676779270344
 10
310.8105604293875
 20
1.4562234677145582
 10
310.75872548871837
 20
1.4078406812036306
 10
310.70804850072113
 20
1.358246346927796
 10
310.6585577755608
 20
1.3074681702389803
 10
310.61028096070913
 20
1.2555345178301849
 10
310.5632450254998
 20
1.2024744018887503
 10
310.517476246062
 20
1.1483174638889793
 10
310.4730001906418
 20
1.0930939580332613
 10
310.42984170531867
 20
1.0368347343508724
 10
310.38802490012523
 20
0.9795712214639316
 10
310.34757313557895
 20
0.9213354090301245
 10
310.30850900963145
 20
0.8621598298720414
  0
LWPOLYLINE
  5
95
330
17
100
AcDbEntity
  8
OUTLINE
100
AcDbPolyline
 90
121
 70
1
 10
355.99999885687305
 20
0.0
 10
350.03267459763873
 20
0.0
 10
350.01835092747757
 20
0.24623115577889448
 10
350.0081050826314
 20
0.49246231155778897
 10
350.00197962496406
 20
0.7386934673366834
 10
350.0
 20
0.9849246231155779
 10
350.0021744312219
 20
1.2311557788944725
 10
350.0084938859099
 20
1.4773869346733668
 10
350.0189321126643
 20
1.7236180904522613
 10
350.033445750455
 20
1.9698492462311559
 10
350.05197450874624
 20
2.2160804020100504
 10
350.07444141794707
 20
2.462311557788945
 10
350.10075314914764
 20
2.7085427135678395
 10
350.1308004018133
 20
2.9547738693467336
 10
350.16445835782554
 20
3.201005025125628
 10
350.2015871999841
 20
3.4472361809045227
 10
350.2420326928162
 20
3.693467336683417
 10
350.2856268232802
 20
3.9396984924623117
 10
350.3321884987017
 20
4.185929648241206
 10
350.3815242990438
 20
4.432160804020101
 10
350.4334292803856
 20
4.678391959798995
 10
350.4876878262718
 20
4.92462311557789
 10
350.54407454339656
 20
5.170854271356784
 10
350.6023551979011
 20
5.417085427135679
 10
350.6622876883952
 20
5.6633165829145735
 10
350.7236230516615
 20
5.909547738693467
 10
350.78610649686345
 20
6.155778894472362
 10
350.8494784639623
 20
6.402010050251256
 10
350.9134757019453
 20
6.648241206030151
 10
350.97783236238604
 20
6.894472361809045
 10
351.04228110379563
 20
7.14070351758794
 10
351.106554202175
 20
7.386934673366834
 10
351.1703846631571
 20
7.633165829145729
 10
351.23350733111755
 20
7.8793969849246235
 10
351.2956599906472
 20
8.125628140703517
 10
351.3565844558112
 20
8.371859296482413
 10
351.4160276426688
 20
8.618090452261306
 10
351.47374262059964
 20
8.864321608040202
 10
351.52948963806864
 20
9.110552763819095
 10
351.5830371185682
 20
9.35678391959799
 10
351.63416262260154
 20
9.603015075376884
 10
351.6826537717095
 20
9.84924623115578
 10
351.7283091307039
 20
10.095477386934673
 10
351.7709390444416
 20
10.341708542713569
 10
351.81036642566323
 20
10.587939698492463
 10
351.84642749062465
 20
10.834170854271358
 10
351.87897243946475
 20
11.080402010050252
 10
351.9078660784828
 20
11.326633165829147
 10
351.93298838174184
 20
11.57286432160804
 10
351.95423498966323
 20
11.819095477386934
 10
351.971517642543
 20
12.06532663316583
 10
351.98476454718804
 20
12.311557788944723
 10
351.99392067514924
 20
12.557788944723619
 10
351.9989479913131
 20
12.804020100502512
 10
351.99982561190194
 20
13.050251256281408
 10
351.9965498912264
 20
13.296482412060302
 10
351.9891344368297
 20
13.542713567839197
 10
351.9776100529613
 20
13.78894472361809
 10
351.9620246126141
 20
14.035175879396986
 10
351.9424428586568
 20
14.28140703517588
 10
351.91894613488876
 20
14.527638190954775
 10
351.8916320481321
 20
14.773869346733669
 10
351.8606140627677
 20
15.020100502512564
 10
351.82602102939677
 20
15.266331658291458
 10
351.7879966495879
 20
15.512562814070353
 10
351.74669887893174
 20
15.758793969849247
 10
351.7022992708841
 20
16.00502512562814
 10
351.6549822641223
 20
16.251256281407034
 10
351.60494441637564
 20
16.49748743718593
 10
351.5523935879127
 20
16.743718592964825
 10
351.4975480780771
 20
16.98994974874372
 10
351.4406357184586
 20
17.236180904522612
 10
351.3818929264671
 20
17.48241206030151
 10
351.32156372324
 20
17.728643216080403
 10
351.25989871996353
 20
17.974874371859297
 10
351.1971540768189
 20
18.22110552763819
 10
351.13359043887704
 20
18.467336683417088
 10
351.0694718533632
 20
18.71356783919598
 10
351.0050646727886
 20
18.959798994974875
 10
350.94063644850604
 20
19.20603015075377
 10
350.8764548192851
 20
19.452261306532666
 10
350.8127863995243
 20
19.69849246231156
 10
350.7498956717191
 20
19.944723618090453
 10
350.68804388778494
 20
20.190954773869347
 10
350.62748798380125
 20
20.43718592964824
 10
350.5684795126831
 20
20.683417085427138
 10
350.5112635992151
 20
20.92964824120603
 10
350.4560779217884
 20
21.175879396984925
 10
350.4031517250695
 20
21.42211055276382
 10
350.35270486770486
 20
21.668341708542716
 10
350.3049469090137
 20
21.91457286432161
 10
350.26007623846675
 20
22.160804020100503
 10
350.2182792515635
 20
22.407035175879397
 10
350.17972957553445
 20
22.653266331658294
 10
350.14458734808284
 20
22.899497487437188
 10
350.1129985521629
 20
23.14572864321608
 10
350.08509440955766
 20
23.391959798994975
 10
350.06099083577595
 20
23.63819095477387
 10
350.0407879585319
 20
23.884422110552766
 10
350.0245697018087
 20
24.13065326633166
 10
350.012403437233
 20
24.376884422110553
 10
350.0043397042092
 20
24.623115577889447
 10
350.0004119999756
 20
24.869346733668344
 10
350.00063664045496
 20
25.115577889447238
 10
350.00501269247707
 20
25.36180904522613
 10
350.01352197765516
 20
25.608040201005025
 10
350.1159063335764
 20
25.949737318823587
 10
350.1542976588426
 20
26.079027537947397
 10
350.1868392091426
 20
26.20991261013232
 10
350.21346521491307
 20
26.342128004218964
 10
350.2341218624681
 20
26.475406500341045
 10
350.2487674027615
 20
26.60947873000212
 10
350.25737223576556
 20
26.744073720494892
 10
350.25991897029576
 20
26.87891944256278
 10
350.25640245915974
 20
27.013743360196884
 10
350.24682980956044
 20
27.148272981457133
 10
350.23122036873167
 20
27.282236409204376
 10
350.2096056848356
 20
27.415362890630313
 10
350.18202944320086
 20
27.547383364474634
 10
350.1779282156476
 20
27.563386430594914
 10
355.99999885687305
 20
27.563386430594914
  0
LWPOLYLINE
  5
96
330
17
100
AcDbEntity
  8
OUTLINE
100
AcDbPolyline
 90
131
 70
1
 10
357.99999885687305
 20
0.75
 10
364.31249885687305
 20
0.75
 10
364.31249885687305
 20
0.75
 10
364.3964722139505
 20
0.7452841574199319
 10
364.4793895573403
 20
0.7311959341363677
 10
364.56020815333943
 20
0.7079124977312756
 10
364.6379116612112
 20
0.6757266509268144
 10
364.71152291425955
 20
0.6350431494212131
 10
364.7801162082671
 20
0.5863736118510223
 10
364.84282894276294
 20
0.5303300858899106
 10
364.89887246872405
 20
0.46761735139405014
 10
364.94754200629427
 20
0.39902405738650243
 10
364.9882255077999
 20
0.3254128043381686
 10
365.02041135460433
 20
0.2477092964663753
 10
365.04369479100944
 20
0.16689070046723575
 10
365.05778301429297
 20
0.08397335707748088
 10
365.06249885687305
 20
0.0
 10
365.68749885687305
 20
0.0
 10
367.83307032630944
 20
0.0
 10
367.7870198259685
 20
0.3005050505050505
 10
367.73610073679583
 20
0.601010101010101
 10
367.6806280492664
 20
0.9015151515151515
 10
367.62094492286064
 20
1.202020202020202
 10
367.5574205632468
 20
1.5025252525252526
 10
367.4904479383379
 20
1.803030303030303
 10
367.4204413473539
 20
2.1035353535353534
 10
367.34783385792645
 20
2.404040404040404
 10
367.2730746270995
 20
2.7045454545454546
 10
367.19662612280035
 20
3.005050505050505
 10
367.1189612629675
 20
3.3055555555555554
 10
367.0405604900339
 20
3.606060606060606
 10
366.96190879886313
 20
3.9065656565656566
 10
366.88349273652346
 20
4.207070707070707
 10
366.80579739246025
 20
4.507575757575758
 10
366.7293033976849
 20
4.808080808080808
 10
366.6544839515444
 20
5.108585858585858
 10
366.58180189446387
 20
5.409090909090909
 10
366.5117068447702
 20
5.709595959595959
 10
366.4446324173091
 20
6.01010101010101
 10
366.38099354106123
 20
6.3106060606060606
 10
366.32118389235075
 20
6.611111111111111
 10
366.2655734595251
 20
6.911616161616162
 10
366.21450625417083
 20
7.212121212121212
 10
366.168298183024
 20
7.512626262626262
 10
366.1272350937405
 20
7.813131313131313
 10
366.09157100661434
 20
8.113636363636363
 10
366.061526543183
 20
8.414141414141413
 10
366.03728756144113
 20
8.714646464646464
 10
366.0190040061049
 20
9.015151515151516
 10
366.0067889810393
 20
9.315656565656566
 10
366.00071804958606
 20
9.616161616161616
 10
366.00082876712213
 20
9.916666666666666
 10
366.00712044873796
 20
10.217171717171716
 10
366.0195541734746
 20
10.517676767676768
 10
366.0380530250925
 20
10.818181818181818
 10
366.06250256788286
 20
11.118686868686869
 10
366.09275155457834
 20
11.419191919191919
 10
366.1286128619833
 20
11.719696969696969
 10
366.16986464853613
 20
12.02020202020202
 10
366.2162517266432
 20
12.320707070707071
 10
366.267487141294
 20
12.621212121212121
 10
366.3232539451932
 20
12.921717171717171
 10
366.38320715942746
 20
13.222222222222221
 10
366.44697590753907
 20
13.522727272727272
 10
366.51416570980365
 20
13.823232323232324
 10
366.5843609235208
 20
14.123737373737374
 10
366.65712731422036
 20
14.424242424242424
 10
366.7320147418793
 20
14.724747474747474
 10
366.8085599455323
 20
15.025252525252524
 10
366.88628940904914
 20
15.325757575757576
 10
366.96472229035214
 20
15.626262626262626
 10
367.04337339595224
 20
15.926767676767676
 10
367.1217561824035
 20
16.227272727272727
 10
367.19938576610855
 20
16.52777777777778
 10
367.2757819228559
 20
16.828282828282827
 10
367.3504720585343
 20
17.12878787878788
 10
367.4229941326458
 20
17.429292929292927
 10
367.4928995165338
 20
17.72979797979798
 10
367.55975576864375
 20
18.03030303030303
 10
367.6231493096493
 20
18.33080808080808
 10
367.682687980894
 20
18.63131313131313
 10
367.7380034703236
 20
18.93181818181818
 10
367.78875359090034
 20
19.232323232323232
 10
367.83462439740555
 20
19.532828282828284
 10
367.87533212853555
 20
19.833333333333332
 10
367.9106249622767
 20
20.133838383838384
 10
367.9402845737013
 20
20.434343434343432
 10
367.9641274855469
 20
20.734848484848484
 10
367.9820062032245
 20
21.035353535353536
 10
367.9938101272347
 20
21.335858585858585
 10
367.999466237347
 20
21.636363636363637
 10
367.99893954431
 20
21.936868686868685
 10
367.99223330629843
 20
22.237373737373737
 10
367.97938900875766
 20
22.53787878787879
 10
367.960486107771
 20
22.838383838383837
 10
367.93564153853606
 20
23.13888888888889
 10
367.9050089919926
 20
23.439393939393938
 10
367.868777964075
 20
23.73989898989899
 10
367.8271725834722
 20
24.04040404040404
 10
367.78045022514533
 20
24.34090909090909
 10
367.72889991818107
 20
24.641414141414142
 10
367.67284055782955
 20
24.94191919191919
 10
367.6126189327869
 20
25.242424242424242
 10
367.54860757992657
 20
25.54292929292929
 10
367.48120247974947
 20
25.843434343434343
 10
367.4108206068101
 20
26.143939393939394
 10
367.3378973502709
 20
26.444444444444443
 10
367.2628838205423
 20
26.744949494949495
 10
367.1862440586694
 20
27.045454545454543
 10
367.10845216572875
 20
27.345959595959595
 10
367.0661340183518
 20
27.50823492318718
 10
367.0067348683075
 20
27.7071915916615
 10
366.93371615538666
 20
27.90156309811183
 10
366.8474276555719
 20
28.090418359505605
 10
366.748282710096
 20
28.272852716859067
 10
366.63675624544476
 20
28.44799226875635
 10
366.5133824983529
 20
28.614998057532915
 10
366.3787524566902
 20
28.773070088070597
 10
366.23351102849796
 20
28.921451159953307
 10
366.0783539527344
 20
29.059430494626575
 10
365.91402446652955
 20
29.186347140185948
 10
365.74130974491317
 20
29.30159313748458
 10
365.5610371300698
 20
29.404616432393674
 10
365.37407016818474
 20
29.494923520265345
 10
365.1813044728644
 20
29.572081809930367
 10
364.9836634349464
 20
29.63572169590674
 10
364.7820937992511
 20
29.685538328892676
 10
364.5775611294617
 20
29.72129307606303
 10
364.37104518285815
 20
29.742814664173935
 10
364.1635352170602
 20
29.75
 10
357.99999885687305
 20
29.75
  0
LWPOLYLINE
  5
97
330
17
100
AcDbEntity
  8
OUTLINE
100
AcDbPolyline
 90
126
 70
1
 10
369.99946623734706
 20
0.75
 10
376.31196623734706
 20
0.75
 10
376.31196623734706
 20
0.75
 10
376.39593959442453
 20
0.7452841574199319
 10
376.4788569378143
 20
0.7311959341363677
 10
376.55967553381345
 20
0.7079124977312756
 10
376.6373790416852
 20
0.6757266509268144
 10
376.71099029473356
 20
0.6350431494212131
 10
376.7795835887411
 20
0.5863736118510223
 10
376.84229632323695
 20
0.5303300858899106
 10
376.89833984919807
 20
0.46761735139405014
 10
376.9470093867683
 20
0.39902405738650243
 10
376.9876928882739
 20
0.3254128043381686
 10
377.01987873507835
 20
0.2477092964663753
 10
377.04316217148346
 20
0.16689070046723575
 10
377.057250394767
 20
0.08397335707748088
 10
377.06196623734706
 20
0.0
 10
377.68696623734706
 20
0.0
 10
378.51476577027495
 20
0.0
 10
378.58500688510475
 20
0.3005050505050505
 10
378.6578118860987
 20
0.601010101010101
 10
378.7327303943868
 20
0.9015151515151515
 10
378.8092989567358
 20
1.202020202020202
 10
378.8870439125164
 20
1.5025252525252526
 10
378.96548432381417
 20
1.803030303030303
 10
379.0441349505588
 20
2.1035353535353534
 10
379.1225092522666
 20
2.404040404040404
 10
379.20012239782767
 20
2.7045454545454546
 10
379.27649426471845
 20
3.005050505050505
 10
379.35115240908715
 20
3.3055555555555554
 10
379.42363498833714
 20
3.606060606060606
 10
379.49349361813097
 20
3.9065656565656566
 10
379.56029614613954
 20
4.207070707070707
 10
379.62362932537894
 20
4.507575757575758
 10
379.6831013705966
 20
4.808080808080808
 10
379.73834438189334
 20
5.108585858585858
 10
379.7890166205883
 20
5.409090909090909
 10
379.83480462324775
 20
5.709595959595959
 10
379.87542514080064
 20
6.01010101010101
 10
379.91062689074516
 20
6.3106060606060606
 10
379.94019211160685
 20
6.611111111111111
 10
379.96393791003254
 20
6.911616161616162
 10
379.9817173921864
 20
7.212121212121212
 10
379.9934205724496
 20
7.512626262626262
 10
379.9989750538024
 20
7.813131313131313
 10
379.99834647567883
 20
8.113636363636363
 10
379.9915387265248
 20
8.414141414141413
 10
379.9785939197436
 20
8.714646464646464
 10
379.95959213317843
 20
9.015151515151516
 10
379.9346509137428
 20
9.315656565656566
 10
379.90392455026415
 20
9.616161616161616
 10
379.8676031190376
 20
9.916666666666666
 10
379.82591130799574
 20
10.217171717171716
 10
379.7791070267669
 20
10.517676767676768
 10
379.7274798112209
 20
10.818181818181818
 10
379.6713490323719
 20
11.118686868686869
 10
379.6110619207179
 20
11.419191919191919
 10
379.5469914182387
 20
11.719696969696969
 10
379.4795338713408
 20
12.02020202020202
 10
379.4091065790192
 20
12.320707070707071
 10
379.336145211405
 20
12.621212121212121
 10
379.2611011146675
 20
12.921717171717171
 10
379.1844385189424
 20
13.222222222222221
 10
379.10663166655866
 20
13.522727272727272
 10
379.02816187832906
 20
13.823232323232324
 10
378.94951457605265
 20
14.123737373737374
 10
378.87117627964756
 20
14.424242424242424
 10
378.79363159749136
 20
14.724747474747474
 10
378.71736022858624
 20
15.025252525252524
 10
378.6428339950937
 20
15.325757575757576
 10
378.5705139235967
 20
15.626262626262626
 10
378.5008473931438
 20
15.926767676767676
 10
378.43426536771875
 20
16.227272727272727
 10
378.37117973025494
 20
16.52777777777778
 10
378.3119807346872
 20
16.828282828282827
 10
378.25703459180284
 20
17.12878787878788
 10
378.2066812038256
 20
17.429292929292927
 10
378.16123206174746
 20
17.72979797979798
 10
378.1209683184147
 20
18.03030303030303
 10
378.0861390492889
 20
18.33080808080808
 10
378.0569597116415
 20
18.63131313131313
 10
378.0336108117146
 20
18.93181818181818
 10
378.0162367880908
 20
19.232323232323232
 10
378.00494511818266
 20
19.532828282828284
 10
377.99980565336676
 20
19.833333333333332
 10
378.000850186876
 20
20.133838383838384
 10
378.0080722571237
 20
20.434343434343432
 10
378.02142718767567
 20
20.734848484848484
 10
378.040832363623
 20
21.035353535353536
 10
378.0661677426457
 20
21.335858585858585
 10
378.09727659760676
 20
21.636363636363637
 10
378.1339664860811
 20
21.936868686868685
 10
378.1760104408235
 20
22.237373737373737
 10
378.22314837381026
 20
22.53787878787879
 10
378.27508868516907
 20
22.838383838383837
 10
378.3315100670444
 20
23.13888888888889
 10
378.3920634912395
 20
23.439393939393938
 10
378.45637436833897
 20
23.73989898989899
 10
378.52404486495544
 20
24.04040404040404
 10
378.5946563647661
 20
24.34090909090909
 10
378.66777205811417
 20
24.641414141414142
 10
378.74293964415637
 20
24.94191919191919
 10
378.81969412884
 20
25.242424242424242
 10
378.897560701402
 20
25.54292929292929
 10
378.9760576715947
 20
25.843434343434343
 10
379.0145012653705
 20
25.990288386767748
 10
379.0740294317294
 20
26.272410911099982
 10
379.10619877354685
 20
26.55894512332022
 10
379.1107121293112
 20
26.84724418843384
 10
379.0875278072889
 20
27.13464496877031
 10
379.0368599706489
 20
27.418492624487
 10
378.95917665914834
 20
27.69616513742256
 10
378.8551954656561
 20
27.965097531762794
 10
378.72587690745064
 20
28.222805567782842
 10
378.57241555352493
 20
28.466908689796714
 10
378.39622898985834
 20
28.69515201633445
 10
378.1989447245893
 20
28.90542716941463
 10
377.98238515404927
 20
29.095791750503547
 10
377.7485507285345
 20
29.264487283253622
 10
377.49960147331956
 20
29.409955457276507
 10
377.2378370356105
 20
29.530852522900474
 10
376.9656754417529
 20
29.62606170394177
 10
376.6856307609229
 20
29.694703513827957
 10
376.4002898816303
 20
29.73614387977906
 10
376.11228861556003
 20
29.75
 10
369.99946623734706
 20
29.75
  0
LWPOLYLINE
  5
98
330
17
100
AcDbEntity
  8
OUTLINE
100
AcDbPolyline
 90
128
 70
1
 10
381.9989750538024
 20
0.75
 10
388.3114750538024
 20
0.75
 10
388.3114750538024
 20
0.75
 10
388.39544841087985
 20
0.7452841574199319
 10
388.47836575426965
 20
0.7311959341363677
 10
388.55918435026877
 20
0.7079124977312756
 10
388.63688785814054
 20
0.6757266509268144
 10
388.7104991111889
 20
0.6350431494212131
 10
388.7790924051964
 20
0.5863736118510223
 10
388.84180513969227
 20
0.5303300858899106
 10
388.8978486656534
 20
0.46761735139405014
 10
388.9465182032236
 20
0.39902405738650243
 10
388.9872017047292
 20
0.3254128043381686
 10
389.01938755153367
 20
0.2477092964663753
 10
389.0426709879388
 20
0.16689070046723575
 10
389.0567592112223
 20
0.08397335707748088
 10
389.0614750538024
 20
0.0
 10
389.6864750538024
 20
0.0
 10
390.04648448707815
 20
0.0
 10
390.02549430405935
 20
0.3005050505050505
 10
390.01052616834585
 20
0.601010101010101
 10
390.0016726742918
 20
0.9015151515151515
 10
389.9989885904789
 20
1.202020202020202
 10
390.0024905209128
 20
1.5025252525252526
 10
390.0121568023085
 20
1.803030303030303
 10
390.0279276381022
 20
2.1035353535353534
 10
390.0497054683584
 20
2.404040404040404
 10
390.07735557328516
 20
2.7045454545454546
 10
390.1107069066241
 20
3.005050505050505
 10
390.14955315375926
 20
3.3055555555555554
 10
390.19365400799944
 20
3.606060606060606
 10
390.242736657139
 20
3.9065656565656566
 10
390.2964974711011
 20
4.207070707070707
 10
390.3546038802226
 20
4.507575757575758
 10
390.4166964325632
 20
4.808080808080808
 10
390.4823910175098
 20
5.108585858585858
 10
390.55128124192294
 20
5.409090909090909
 10
390.622940944124
 20
5.709595959595959
 10
390.6969268301736
 20
6.01010101010101
 10
390.77278121613097
 20
6.3106060606060606
 10
390.850034859332
 20
6.611111111111111
 10
390.9282098611701
 20
6.911616161616162
 10
391.0068226234238
 20
7.212121212121212
 10
391.08538683984284
 20
7.512626262626262
 10
391.1634165044863
 20
7.813131313131313
 10
391.2404289182029
 20
8.113636363636363
 10
391.31594767465526
 20
8.414141414141413
 10
391.38950560741614
 20
8.714646464646464
 10
391.46064767990595
 20
9.015151515151516
 10
391.5289338002932
 20
9.315656565656566
 10
391.59394154394624
 20
9.616161616161616
 10
391.65526876659294
 20
9.916666666666666
 10
391.7125360920248
 20
10.217171717171716
 10
391.7653892589552
 20
10.517676767676768
 10
391.81350131251486
 20
10.818181818181818
 10
391.856574626826
 20
11.118686868686869
 10
391.89434274614575
 20
11.419191919191919
 10
391.92657203318726
 20
11.719696969696969
 10
391.95306311442295
 20
12.02020202020202
 10
391.9736521134284
 20
12.320707070707071
 10
391.9882116646384
 20
12.621212121212121
 10
391.9966517012426
 20
12.921717171717171
 10
391.99892001234747
 20
13.222222222222221
 10
391.9950025659583
 20
13.522727272727272
 10
391.9849235957823
 20
13.823232323232324
 10
391.9687454513165
 20
14.123737373737374
 10
391.94656821214795
 20
14.424242424242424
 10
391.9185290688511
 20
14.724747474747474
 10
391.8848014743138
 20
15.025252525252524
 10
391.8455940707408
 20
15.325757575757576
 10
391.8011493989722
 20
15.626262626262626
 10
391.7517423981027
 20
15.926767676767676
 10
391.69767870468075
 20
16.227272727272727
 10
391.63929276201134
 20
16.52777777777778
 10
391.5769457512569
 20
16.828282828282827
 10
391.511023357135
 20
17.12878787878788
 10
391.4419333820352
 20
17.429292929292927
 10
391.37010322331327
 20
17.72979797979798
 10
391.29597722936944
 20
18.03030303030303
 10
391.2200139508655
 20
18.33080808080808
 10
391.14268330408566
 20
18.63131313131313
 10
391.0644636639882
 20
18.93181818181818
 10
390.98583890493114
 20
19.232323232323232
 10
390.9072954073782
 20
19.532828282828284
 10
390.8293190491013
 20
19.833333333333332
 10
390.7523921994934
 20
20.133838383838384
 10
390.6769907355839
 20
20.434343434343432
 10
390.6035810982168
 20
20.734848484848484
 10
390.53261740660196
 20
21.035353535353536
 10
390.4645386490892
 20
21.335858585858585
 10
390.3997659675432
 20
21.636363636363637
 10
390.3387000521189
 20
21.936868686868685
 10
390.2817186625526
 20
22.237373737373737
 10
390.22917429130354
 20
22.53787878787879
 10
390.18139198300094
 20
22.838383838383837
 10
390.1386673236859
 20
23.13888888888889
 10
390.1012646122875
 20
23.439393939393938
 10
390.0694152256431
 20
23.73989898989899
 10
390.0433161871795
 20
24.04040404040404
 10
390.023128948106
 20
24.34090909090909
 10
390.0089783886614
 20
24.641414141414142
 10
390.000952045593
 20
24.94191919191919
 10
389.9990995706456
 20
25.242424242424242
 10
390.0034324234108
 20
25.54292929292929
 10
390.0139238004366
 20
25.843434343434343
 10
390.0305088010369
 20
26.143939393939394
 10
390.05308482877285
 20
26.444444444444443
 10
390.0568244010634
 20
26.487750399963744
 10
390.0683087663798
 20
26.74925596590618
 10
390.0569541151767
 20
27.01076719618444
 10
390.022846890479
 20
27.270293204301183
 10
389.966246750784
 20
27.525858217266777
 10
389.8875845932802
 20
27.775516617170407
 10
389.78745927342425
 20
28.017367753180416
 10
389.666633045851
 20
28.249570411209987
 10
389.52602576132443
 20
28.470356831090548
 10
389.366707863909
 20
28.678046164540103
 10
389.1898922416723
 20
28.871057271470825
 10
388.99692499296134
 20
29.047920757217657
 10
388.7892751785484
 20
29.2072901590483
 10
388.56852363766257
 20
29.34795219679173
 10
388.3363509530519
 20
29.46883600954713
 10
388.0945246566972
 20
29.569021308154035
 10
387.8448857735808
 20
29.64774538135903
 10
387.58933480595294
 20
29.70440890234088
 10
387.3298172647972
 20
29.73858049138907
 10
387.06830885864423
 20
29.75
 10
381.9989750538024
 20
29.75
  0
LWPOLYLINE
  5
99
330
17
100
AcDbEntity
  8
OUTLINE
100
AcDbPolyline
 90
129
 70
1
 10
400.0
 20
0.75
 10
406.3125
 20
0.75
 10
406.3125
 20
0.75
 10
406.39647335707747
 20
0.7452841574199319
 10
406.47939070046726
 20
0.7311959341363677
 10
406.5602092964664
 20
0.7079124977312756
 10
406.63791280433816
 20
0.6757266509268144
 10
406.7115240573865
 20
0.6350431494212131
 10
406.78011735139404
 20
0.5863736118510223
 10
406.8428300858899
 20
0.5303300858899106
 10
406.898873611851
 20
0.46761735139405014
 10
406.9475431494212
 20
0.39902405738650243
 10
406.98822665092683
 20
0.3254128043381686
 10
407.0204124977313
 20
0.2477092964663753
 10
407.0436959341364
 20
0.16689070046723575
 10
407.0577841574199
 20
0.08397335707748088
 10
407.0625
 20
0.0
 10
407.6875
 20
0.0
 10
408.5890097760774
 20
0.0
 10
408.5186343919268
 20
0.3005050505050505
 10
408.45123678259483
 20
0.601010101010101
 10
408.38723387629676
 20
0.9015151515151515
 10
408.3270216012824
 20
1.202020202020202
 10
408.2709724365849
 20
1.5025252525252526
 10
408.21943310782905
 20
1.803030303030303
 10
408.1727224423527
 20
2.1035353535353534
 10
408.1311293969095
 20
2.404040404040404
 10
408.09491127015406
 20
2.7045454545454546
 10
408.0642921109674
 20
3.005050505050505
 10
408.0394613324685
 20
3.3055555555555554
 10
408.02057254028614
 20
3.606060606060606
 10
408.00774258233963
 20
3.9065656565656566
 10
408.001050826006
 20
4.207070707070707
 10
408.0005386671456
 20
4.507575757575758
 10
408.0062092740234
 20
4.808080808080808
 10
408.0180275677095
 20
5.108585858585858
 10
408.0359204390812
 20
5.409090909090909
 10
408.05977720108297
 20
5.709595959595959
 10
408.08945027344737
 20
6.01010101010101
 10
408.12475609564126
 20
6.3106060606060606
 10
408.16547626238906
 20
6.611111111111111
 10
408.2113588747493
 20
6.911616161616162
 10
408.262120098386
 20
7.212121212121212
 10
408.31744591939594
 20
7.512626262626262
 10
408.37699408682914
 20
7.813131313131313
 10
408.440396229887
 20
8.113636363636363
 10
408.50726013670004
 20
8.414141414141413
 10
408.57717218058906
 20
8.714646464646464
 10
408.64969987880005
 20
9.015151515151516
 10
408.7243945678853
 20
9.315656565656566
 10
408.80079417917904
 20
9.616161616161616
 10
408.87842609719974
 20
9.916666666666666
 10
408.9568100832957
 20
10.217171717171716
 10
409.0354612464484
 20
10.517676767676768
 10
409.1138930428558
 20
10.818181818181818
 10
409.19162028574027
 20
11.118686868686869
 10
409.26816214676103
 20
11.419191919191919
 10
409.3430451304658
 20
11.719696969696969
 10
409.41580600337994
 20
12.02020202020202
 10
409.48599465961405
 20
12.320707070707071
 10
409.5531769052632
 20
12.621212121212121
 10
409.61693714437286
 20
12.921717171717171
 10
409.67688094985624
 20
13.222222222222221
 10
409.73263750345905
 20
13.522727272727272
 10
409.7838618896774
 20
13.823232323232324
 10
409.8302372294387
 20
14.123737373737374
 10
409.87147664034717
 20
14.424242424242424
 10
409.9073250113661
 20
14.724747474747474
 10
409.93756058095965
 20
15.025252525252524
 10
409.96199630893165
 20
15.325757575757576
 10
409.9804810334746
 20
15.626262626262626
 10
409.9929004062711
 20
15.926767676767676
 10
409.9991775998642
 20
16.227272727272727
 10
409.99927378291926
 20
16.52777777777778
 10
409.9931883604384
 20
16.828282828282827
 10
409.98095897744145
 20
17.12878787878788
 10
409.96266128608994
 20
17.429292929292927
 10
409.9384084776954
 20
17.72979797979798
 10
409.9083505825071
 20
18.03030303030303
 10
409.87267354160986
 20
18.33080808080808
 10
409.8315980566745
 20
18.63131313131313
 10
409.78537822467575
 20
18.93181818181818
 10
409.7342999660231
 20
19.232323232323232
 10
409.67867925582965
 20
19.532828282828284
 10
409.6188601692586
 20
19.833333333333332
 10
409.55521275304096
 20
20.133838383838384
 10
409.48813073633
 20
20.434343434343432
 10
409.4180290950542
 20
20.734848484848484
 10
409.34534148483544
 20
21.035353535353536
 10
409.2705175583529
 20
21.335858585858585
 10
409.19402018374745
 20
21.636363636363637
 10
409.1163225812741
 20
21.936868686868685
 10
409.03790539591506
 20
22.237373737373737
 10
408.95925372406265
 20
22.53787878787879
 10
408.88085411266576
 20
22.838383838383837
 10
408.8031915494026
 20
23.13888888888889
 10
408.7267464624992
 20
23.439393939393938
 10
408.6519917487538
 20
23.73989898989899
 10
408.57938984815047
 20
24.04040404040404
 10
408.5093898831604
 20
24.34090909090909
 10
408.44242488042596
 20
24.641414141414142
 10
408.37890909201565
 20
24.94191919191919
 10
408.31923543282034
 20
25.242424242424242
 10
408.26377304994287
 20
25.54292929292929
 10
408.21286503911836
 20
25.843434343434343
 10
408.1668263222899
 20
26.143939393939394
 10
408.1259416994711
 20
26.444444444444443
 10
408.09046408694473
 20
26.744949494949495
 10
408.0626843889832
 20
27.022564858096715
 10
408.03242020933914
 20
27.254192173675502
 10
407.984225704649
 20
27.4827625646045
 10
407.9183930789117
 20
27.706890205203088
 10
407.83532147631644
 20
27.925216206252006
 10
407.73551456122556
 20
28.13641685395889
 10
407.6195774644501
 20
28.339211635654692
 10
407.48821311433267
 20
28.532371003561032
 10
407.3422179748822
 20
28.714723829556696
 10
407.1824772168012
 20
28.885164505744832
 10
407.0099593506823
 20
29.042659647770087
 10
406.8257103549144
 20
29.18625436024333
 10
406.63084733389985
 20
29.315078026286596
 10
406.4265517450339
 20
29.428349586096175
 10
406.2140622355113
 20
29.525382272519813
 10
405.99466713238934
 20
29.605587774936186
 10
405.7696966314422
 20
29.66847980619093
 10
405.5405147321639
 20
29.71367705096292
 10
405.3085109678194
 20
29.740905477684706
 10
405.0750919806834
 20
29.75
 10
400.0
 20
29.75
  0
LWPOLYLINE
  5
9A
330
17
100
AcDbEntity
  8
OUTLINE
100
AcDbPolyline
 90
127
 70
1
 10
417.9990426623228
 20
0.75
 10
415.4365426623228
 20
0.75
 10
415.4365426623228
 20
0.75
 10
415.35256930524525
 20
0.7452841574199319
 10
415.2696519618555
 20
0.7311959341363677
 10
415.1888333658564
 20
0.7079124977312756
 10
415.11112985798457
 20
0.6757266509268144
 10
415.0375186049363
 20
0.6350431494212132
 10
414.96892531092874
 20
0.5863736118510224
 10
414.90621257643284
 20
0.5303300858899107
 10
414.8501690504717
 20
0.4676173513940502
 10
414.80149951290156
 20
0.3990240573865025
 10
414.76081601139595
 20
0.32541280433816866
 10
414.7286301645915
 20
0.2477092964663754
 10
414.7053467281864
 20
0.16689070046723586
 10
414.6912585049028
 20
0.08397335707748099
 10
414.6865426623228
 20
1.1102230246251565e-16
 10
414.0615426623228
 20
0.0
 10
412.4964806910633
 20
0.0
 10
412.4300900617515
 20
0.3005050505050505
 10
412.3672190289762
 20
0.601010101010101
 10
412.3082565191066
 20
0.9015151515151515
 10
412.25356728000617
 20
1.202020202020202
 10
412.2034896246668
 20
1.5025252525252526
 10
412.1583333383714
 20
1.803030303030303
 10
412.1183777623316
 20
2.1035353535353534
 10
412.08387006565584
 20
2.404040404040404
 10
412.05502371633713
 20
2.7045454545454546
 10
412.03201716071874
 20
3.005050505050505
 10
412.0149927196082
 20
3.3055555555555554
 10
412.00405570786626
 20
3.606060606060606
 10
411.99927378291926
 20
3.9065656565656566
 10
412.0006765262235
 20
4.207070707070707
 10
412.0082552602715
 20
4.507575757575758
 10
412.0219631022717
 20
4.808080808080808
 10
412.0417152541704
 20
5.108585858585858
 10
412.0673895272205
 20
5.409090909090909
 10
412.09882709785325
 20
5.709595959595959
 10
412.13583349017614
 20
6.01010101010101
 10
412.1781797790203
 20
6.3106060606060606
 10
412.2256040060936
 20
6.611111111111111
 10
412.2778128004803
 20
6.911616161616162
 10
412.3344831934628
 20
7.212121212121212
 10
412.3952646164371
 20
7.512626262626262
 10
412.45978106956494
 20
7.813131313131313
 10
412.52763344774564
 20
8.113636363636363
 10
412.59840200951913
 20
8.414141414141413
 10
412.671648973628
 20
8.714646464646464
 10
412.7469212271751
 20
9.015151515151516
 10
412.8237531286244
 20
9.315656565656566
 10
412.90166938830504
 20
9.616161616161616
 10
412.98018800859995
 20
9.916666666666666
 10
413.0588232656303
 20
10.217171717171716
 10
413.1370887139909
 20
10.517676767676768
 10
413.2145001959493
 20
10.818181818181818
 10
413.29057883649295
 20
11.118686868686869
 10
413.3648540056967
 20
11.419191919191919
 10
413.436866230086
 20
11.719696969696969
 10
413.5061700349846
 20
12.02020202020202
 10
413.5723367002646
 20
12.320707070707071
 10
413.6349569124512
 20
12.621212121212121
 10
413.6936432967758
 20
12.921717171717171
 10
413.74803281351467
 20
13.222222222222221
 10
413.7977890037878
 20
13.522727272727272
 10
413.8426040709267
 20
13.823232323232324
 10
413.8822007845349
 20
14.123737373737374
 10
413.91633419546207
 20
14.424242424242424
 10
413.9447931510836
 20
14.724747474747474
 10
413.9674016015115
 20
15.025252525252524
 10
413.984019688656
 20
15.325757575757576
 10
413.9945446114018
 20
15.626262626262626
 10
413.9989112615454
 20
15.926767676767676
 10
413.99709262656125
 20
16.227272727272727
 10
413.9890999567035
 20
16.52777777777778
 10
413.97498269541103
 20
16.828282828282827
 10
413.95482817344555
 20
17.12878787878788
 10
413.9287610686548
 20
17.429292929292927
 10
413.8969426347032
 20
17.72979797979798
 10
413.8595697035409
 20
18.03030303030303
 10
413.8168734677821
 20
18.33080808080808
 10
413.76911805052487
 20
18.63131313131313
 10
413.7165988714597
 20
18.93181818181818
 10
413.65964081937443
 20
19.232323232323232
 10
413.5985962423603
 20
19.532828282828284
 10
413.53384276815234
 20
19.833333333333332
 10
413.46578096808685
 20
20.133838383838384
 10
413.3948318791281
 20
20.434343434343432
 10
413.3214343992924
 20
20.734848484848484
 10
413.24604257258204
 20
21.035353535353536
 10
413.16912278022426
 20
21.335858585858585
 10
413.0911508555917
 20
21.636363636363637
 10
413.0126091406503
 20
21.936868686868685
 10
412.9339835021446
 20
22.237373737373737
 10
412.8557603259787
 20
22.53787878787879
 10
412.778423508385
 20
22.838383838383837
 10
412.70245146249516
 20
23.13888888888889
 10
412.6283141588292
 20
23.439393939393938
 10
412.556470218012
 20
23.73989898989899
 10
412.4873640737012
 20
24.04040404040404
 10
412.42142322327686
 20
24.34090909090909
 10
412.35905558330103
 20
24.641414141414142
 10
412.3006469661058
 20
24.94191919191919
 10
412.24655869312016
 20
25.242424242424242
 10
412.19712535970086
 20
25.54292929292929
 10
412.1526527652922
 20
25.843434343434343
 10
412.1134160217208
 20
26.143939393939394
 10
412.0798810368077
 20
26.442278635261317
 10
412.0643801664502
 20
26.70598290450998
 10
412.07213686513074
 20
26.97002845404148
 10
412.1030909923905
 20
27.232368044281685
 10
412.1570025498109
 20
27.49096766256895
 10
412.2334535418073
 20
27.743822293581662
 10
412.3318512164982
 20
27.988971464939098
 10
412.45143266152246
 20
28.224514447444886
 10
412.5912707191718
 20
28.4486249921202
 10
412.7502811749761
 20
28.659565489765225
 10
412.9272311640057
 20
28.855700443264656
 10
413.1207487297145
 20
29.035509148181763
 10
413.3293334612092
 20
29.197597483323698
 10
413.5513681264721
 20
29.340708719861677
 10
413.78513121133864
 20
29.46373326519904
 10
414.0288102670131
 20
29.565717266039442
 10
414.2805159626317
 20
29.645870003952616
 10
414.5382967339207
 20
29.70357002609709
 10
414.80015391437206
 20
29.738369963566363
 10
415.0640572316198
 20
29.75
 10
417.9990426623228
 20
29.75
  0
LWPOLYLINE
  5
9B
330
17
100
AcDbEntity
  8
OUTLINE
100
AcDbPolyline
 90
129
 70
1
 10
425.998734244326
 20
0.75
 10
423.436234244326
 20
0.75
 10
423.436234244326
 20
0.75
 10
423.3522608872485
 20
0.7452841574199319
 10
423.2693435438588
 20
0.7311959341363677
 10
423.1885249478596
 20
0.7079124977312756
 10
423.11082143998783
 20
0.6757266509268144
 10
423.0372101869395
 20
0.6350431494212132
 10
422.96861689293195
 20
0.5863736118510224
 10
422.9059041584361
 20
0.5303300858899107
 10
422.849860632475
 20
0.4676173513940502
 10
422.80119109490477
 20
0.3990240573865025
 10
422.76050759339915
 20
0.32541280433816866
 10
422.7283217465947
 20
0.2477092964663754
 10
422.7050383101896
 20
0.16689070046723586
 10
422.69095008690607
 20
0.08397335707748099
 10
422.686234244326
 20
1.1102230246251565e-16
 10
422.061234244326
 20
0.0
 10
421.46842083127433
 20
0.0
 10
421.5363507339204
 20
0.3005050505050505
 10
421.600954888283
 20
0.601010101010101
 10
421.66183364673304
 20
0.9015151515151515
 10
421.71861040730533
 20
1.202020202020202
 10
421.7709339433958
 20
1.5025252525252526
 10
421.81848057648307
 20
1.803030303030303
 10
421.8609561784361
 20
2.1035353535353534
 10
421.8980979910191
 20
2.404040404040404
 10
421.9296762513401
 20
2.7045454545454546
 10
421.95549561318654
 20
3.005050505050505
 10
421.97539635545616
 20
3.3055555555555554
 10
421.98925537020716
 20
3.606060606060606
 10
421.99698692421634
 20
3.9065656565656566
 10
421.9985431893331
 20
4.207070707070707
 10
421.99391453834886
 20
4.507575757575758
 10
421.9831296045522
 20
4.808080808080808
 10
421.96625510460024
 20
5.108585858585858
 10
421.9433954258033
 20
5.409090909090909
 10
421.9146919803743
 20
5.709595959595959
 10
421.8803223306391
 20
6.01010101010101
 10
421.84049909061883
 20
6.3106060606060606
 10
421.7954686107783
 20
6.611111111111111
 10
421.74550945407816
 20
6.911616161616162
 10
421.6909306727571
 20
7.212121212121212
 10
421.6320698965042
 20
7.512626262626262
 10
421.5692912438491
 20
7.813131313131313
 10
421.5029830696883
 20
8.113636363636363
 10
421.4335555628846
 20
8.414141414141413
 10
421.3614382087979
 20
8.714646464646464
 10
421.28707713244717
 20
9.015151515151516
 10
421.21093233873694
 20
9.315656565656566
 10
421.13347486682227
 20
9.616161616161616
 10
421.05518387621413
 20
9.916666666666666
 10
420.97654368265194
 20
10.217171717171716
 10
420.89804076207855
 20
10.517676767676768
 10
420.82016074125295
 20
10.818181818181818
 10
420.743385393615
 20
11.118686868686869
 10
420.6681896589881
 20
11.419191919191919
 10
420.5950387055549
 20
11.719696969696969
 10
420.52438505228093
 20
12.02020202020202
 10
420.4566657695885
 20
12.320707070707071
 10
420.39229977559586
 20
12.621212121212121
 10
420.3316852446488
 20
12.921717171717171
 10
420.2751971441751
 20
13.222222222222221
 10
420.2231849150994
 20
13.522727272727272
 10
420.17597031016714
 20
13.823232323232324
 10
420.13384540355094
 20
14.123737373737374
 10
420.0970707840506
 20
14.424242424242424
 10
420.0658739430658
 20
14.724747474747474
 10
420.0404478673118
 20
15.025252525252524
 10
420.0209498449845
 20
15.325757575757576
 10
420.00750049276064
 20
15.626262626262626
 10
420.00018300965087
 20
15.926767676767676
 10
419.9990426623227
 20
16.227272727272727
 10
420.00408650507654
 20
16.52777777777778
 10
420.0152833362067
 20
16.828282828282827
 10
420.0325638910189
 20
17.12878787878788
 10
420.0558212703077
 20
17.429292929292927
 10
420.08491160164596
 20
17.72979797979798
 10
420.1196549293935
 20
18.03030303030303
 10
420.15983632792063
 20
18.33080808080808
 10
420.2052072311588
 20
18.63131313131313
 10
420.2554869702548
 20
18.93181818181818
 10
420.31036450981605
 20
19.232323232323232
 10
420.36950037200546
 20
19.532828282828284
 10
420.4325287365851
 20
19.833333333333332
 10
420.4990597039157
 20
20.133838383838384
 10
420.5686817069144
 20
20.434343434343432
 10
420.64096405704856
 20
20.734848484848484
 10
420.7154596086177
 20
21.035353535353536
 10
420.79170752484026
 20
21.335858585858585
 10
420.8692361286352
 20
21.636363636363637
 10
420.94756582046284
 20
21.936868686868685
 10
421.02621204517425
 20
22.237373737373737
 10
421.1046882895172
 20
22.53787878787879
 10
421.1825090917545
 20
22.838383838383837
 10
421.2591930447784
 20
23.13888888888889
 10
421.33426577414133
 20
23.439393939393938
 10
421.4072628725835
 20
23.73989898989899
 10
421.4777327729012
 20
24.04040404040404
 10
421.5452395413861
 20
24.34090909090909
 10
421.6093655745535
 20
24.641414141414142
 10
421.6697141824789
 20
24.94191919191919
 10
421.72591204276034
 20
25.242424242424242
 10
421.7776115099275
 20
25.54292929292929
 10
421.8244927660106
 20
25.843434343434343
 10
421.86626579896597
 20
26.143939393939394
 10
421.9026721967184
 20
26.444444444444443
 10
421.9334867457243
 20
26.744949494949495
 10
421.95374128410594
 20
26.982236845259454
 10
421.98120839203034
 20
27.216355671747472
 10
422.0269723586382
 20
27.447595214849795
 10
422.09075063685935
 20
27.674527799907548
 10
422.17214945912986
 20
27.895752343452873
 10
422.27066626851547
 20
28.109903003508652
 10
422.3856928215025
 20
28.31565761230704
 10
422.51651894329734
 20
28.511745839363098
 10
422.66233691245094
 20
28.696957034504656
 10
422.8222464477374
 20
28.87014770243548
 10
422.9952602664966
 20
29.03024856268373
 10
423.1803101801247
 20
29.176271151347542
 10
423.3762536890788
 20
29.307313923878525
 10
423.5818810366774
 20
29.422567821224497
 10
423.795922678147
 20
29.521321264966083
 10
424.0170571188015
 20
29.602964550607194
 10
424.24391907295967
 20
29.666993611895087
 10
424.4751078932293
 20
29.71301313292918
 10
424.7091962181146
 20
29.740738988844356
 10
424.94473878455693
 20
29.75
 10
425.998734244326
 20
29.75
  0
LWPOLYLINE
  5
9C
330
17
100
AcDbEntity
  8
OUTLINE
100
AcDbPolyline
 90
128
 70
1
 10
433.9986211646418
 20
0.75
 10
431.4361211646418
 20
0.75
 10
431.4361211646418
 20
0.75
 10
431.35214780756434
 20
0.7452841574199319
 10
431.2692304641746
 20
0.7311959341363677
 10
431.1884118681754
 20
0.7079124977312756
 10
431.11070836030365
 20
0.6757266509268144
 10
431.0370971072553
 20
0.6350431494212132
 10
430.96850381324776
 20
0.5863736118510224
 10
430.9057910787519
 20
0.5303300858899107
 10
430.8497475527908
 20
0.4676173513940502
 10
430.8010780152206
 20
0.3990240573865025
 10
430.760394513715
 20
0.32541280433816866
 10
430.7282086669105
 20
0.2477092964663754
 10
430.70492523050547
 20
0.16689070046723586
 10
430.6908370072219
 20
0.08397335707748099
 10
430.6861211646418
 20
1.1102230246251565e-16
 10
430.0611211646418
 20
0.0
 10
428.4000064650302
 20
0.0
 10
428.33890377521885
 20
0.3005050505050505
 10
428.2818821618215
 20
0.601010101010101
 10
428.22929436612594
 20
0.9015151515151515
 10
428.18146570138913
 20
1.202020202020202
 10
428.1386920404177
 20
1.5025252525252526
 10
428.1012379852696
 20
1.803030303030303
 10
428.06933523040004
 20
2.1035353535353534
 10
428.04318112937665
 20
2.404040404040404
 10
428.022937474031
 20
2.7045454545454546
 10
428.0087294935987
 20
3.005050505050505
 10
428.00064508003885
 20
3.3055555555555554
 10
427.998734244326
 20
3.606060606060606
 10
428.003008807077
 20
3.9065656565656566
 10
428.01344232542783
 20
4.207070707070707
 10
428.0299702566117
 20
4.507575757575758
 10
428.05249035722676
 20
4.808080808080808
 10
428.08086331572395
 20
5.108585858585858
 10
428.11491361420184
 20
5.409090909090909
 10
428.15443061417767
 20
5.709595959595959
 10
428.19916985961737
 20
6.01010101010101
 10
428.2488545891649
 20
6.3106060606060606
 10
428.30317744821497
 20
6.611111111111111
 10
428.36180239023844
 20
6.911616161616162
 10
428.42436675559964
 20
7.212121212121212
 10
428.49048351500403
 20
7.512626262626262
 10
428.55974366369935
 20
7.813131313131313
 10
428.63171875161936
 20
8.113636363636363
 10
428.70596353381757
 20
8.414141414141413
 10
428.78201872479633
 20
8.714646464646464
 10
428.859413839692
 20
9.015151515151516
 10
428.93767010474016
 20
9.315656565656566
 10
429.01630341901716
 20
9.616161616161616
 10
429.09482734913604
 20
9.916666666666666
 10
429.1727561383708
 20
10.217171717171716
 10
429.2496077115953
 20
10.517676767676768
 10
429.3249066574472
 20
10.818181818181818
 10
429.3981871692692
 20
11.118686868686869
 10
429.46899592663476
 20
11.419191919191919
 10
429.53689489963256
 20
11.719696969696969
 10
429.60146405856244
 20
12.02020202020202
 10
429.6623039722805
 20
12.320707070707071
 10
429.7190382791189
 20
12.621212121212121
 10
429.77131601509643
 20
12.921717171717171
 10
429.8188137850159
 20
13.222222222222221
 10
429.8612377630184
 20
13.522727272727272
 10
429.8983255102191
 20
13.823232323232324
 10
429.9298475981797
 20
14.123737373737374
 10
429.95560902817545
 20
14.424242424242424
 10
429.975450437476
 20
14.724747474747474
 10
429.9892490851794
 20
15.025252525252524
 10
429.9969196114987
 20
15.325757575757576
 10
429.9984145658066
 20
15.626262626262626
 10
429.9937247001693
 20
15.926767676767676
 10
429.9828790265551
 20
16.227272727272727
 10
429.96594463736375
 20
16.52777777777778
 10
429.9430262903861
 20
16.828282828282827
 10
429.9142657607622
 20
17.12878787878788
 10
429.87984096394644
 20
17.429292929292927
 10
429.83996485510505
 20
17.72979797979798
 10
429.7948841117547
 20
18.03030303030303
 10
429.74487760779095
 20
18.33080808080808
 10
429.6902546883473
 20
18.63131313131313
 10
429.63135325615565
 20
18.93181818181818
 10
429.5685376812471
 20
19.232323232323232
 10
429.5021965469231
 20
19.532828282828284
 10
429.4327402459409
 20
19.833333333333332
 10
429.36059844178436
 20
20.133838383838384
 10
429.2862174107227
 20
20.434343434343432
 10
429.2100572811024
 20
20.734848484848484
 10
429.13258918694794
 20
21.035353535353536
 10
429.0542923534805
 20
21.335858585858585
 10
428.97565113258395
 20
21.636363636363637
 10
428.89715200655644
 20
21.936868686868685
 10
428.8192805786834
 20
22.237373737373737
 10
428.74251856924786
 20
22.53787878787879
 10
428.66734083556196
 20
22.838383838383837
 10
428.5942124344525
 20
23.13888888888889
 10
428.52358574537436
 20
23.439393939393938
 10
428.4558976719466
 20
23.73989898989899
 10
428.3915669392239
 20
24.04040404040404
 10
428.3309915034223
 20
24.34090909090909
 10
428.27454609012335
 20
24.641414141414142
 10
428.2225798761845
 20
24.94191919191919
 10
428.17541432969716
 20
25.242424242424242
 10
428.1333412213534
 20
25.54292929292929
 10
428.0966208195241
 20
25.843434343434343
 10
428.06548028021297
 20
26.143939393939394
 10
428.04011224184757
 20
26.444444444444443
 10
428.032815960535
 20
26.54683823147742
 10
428.026440524195
 20
26.80540086197776
 10
428.04235971202564
 20
27.06355170845825
 10
428.08045519974615
 20
27.319371985010203
 10
428.1404438308764
 20
27.570960228405845
 10
428.2218797213851
 20
27.816446431311086
 10
428.32415757386076
 20
28.054005941692704
 10
428.4465171765714
 20
28.281873025108183
 10
428.5880490539733
 20
28.49835398907241
 10
428.7477012266687
 20
28.701839771950237
 10
428.924287030568
 20
28.890817902804123
 10
429.1164939371367
 20
29.063883743301574
 10
429.32289330916933
 20
29.219750928123446
 10
429.54195101957714
 20
29.35726092627153
 10
429.7720388542609
 20
29.475391652208057
 10
430.0114466143159
 20
29.573265062822188
 10
430.2583948276129
 20
29.650153683756656
 10
430.51104797527483
 20
29.705486016585645
 10
430.76752813473774
 20
29.73885078665337
 10
431.0259289379902
 20
29.75
 10
433.9986211646418
 20
29.75
  0
LWPOLYLINE
  5
9D
330
17
100
AcDbEntity
  8
OUTLINE
100
AcDbPolyline
 90
130
 70
1
 10
441.9985817125258
 20
0.75
 10
439.4360817125258
 20
0.75
 10
439.4360817125258
 20
0.75
 10
439.3521083554483
 20
0.7452841574199319
 10
439.26919101205857
 20
0.7311959341363677
 10
439.18837241605945
 20
0.7079124977312756
 10
439.1106689081876
 20
0.6757266509268144
 10
439.0370576551393
 20
0.6350431494212132
 10
438.96846436113174
 20
0.5863736118510224
 10
438.9057516266359
 20
0.5303300858899107
 10
438.8497081006748
 20
0.4676173513940502
 10
438.8010385631046
 20
0.3990240573865025
 10
438.760355061599
 20
0.32541280433816866
 10
438.72816921479455
 20
0.2477092964663754
 10
438.70488577838944
 20
0.16689070046723586
 10
438.69079755510586
 20
0.08397335707748099
 10
438.6860817125258
 20
1.1102230246251565e-16
 10
438.0610817125258
 20
0.0
 10
436.0310387727773
 20
0.0
 10
436.01417098370166
 20
0.3005050505050505
 10
436.00339285585284
 20
0.601010101010101
 10
435.99877106378585
 20
0.9015151515151515
 10
436.0003341983594
 20
1.202020202020202
 10
436.00807258986964
 20
1.5025252525252526
 10
436.0219383678686
 20
1.803030303030303
 10
436.0418457572948
 20
2.1035353535353534
 10
436.0676716090868
 20
2.404040404040404
 10
436.0992561619946
 20
2.7045454545454546
 10
436.1364040308793
 20
3.005050505050505
 10
436.1788854153839
 20
3.3055555555555554
 10
436.2264375215012
 20
3.606060606060606
 10
436.27876618724355
 20
3.9065656565656566
 10
436.33554770235696
 20
4.207070707070707
 10
436.3964308108253
 20
4.507575757575758
 10
436.4610388837738
 20
4.808080808080808
 10
436.52897224933264
 20
5.108585858585858
 10
436.5998106650458
 20
5.409090909090909
 10
436.6731159175327
 20
5.709595959595959
 10
436.74843453331846
 20
6.01010101010101
 10
436.82530058406564
 20
6.3106060606060606
 10
436.90323856885266
 20
6.611111111111111
 10
436.98176635566864
 20
6.911616161616162
 10
437.06039816392985
 20
7.212121212121212
 10
437.13864756956553
 20
7.512626262626262
 10
437.2160305140851
 20
7.813131313131313
 10
437.29206829901125
 20
8.113636363636363
 10
437.3662905471559
 20
8.414141414141413
 10
437.4382381124193
 20
8.714646464646464
 10
437.5074659201128
 20
9.015151515151516
 10
437.5735457202347
 20
9.315656565656566
 10
437.6360687366665
 20
9.616161616161616
 10
437.69464819590223
 20
9.916666666666666
 10
437.7489217196672
 20
10.217171717171716
 10
437.7985535666252
 20
10.517676767676768
 10
437.84323670930775
 20
10.818181818181818
 10
437.882694733416
 20
11.118686868686869
 10
437.9166835477464
 20
11.419191919191919
 10
437.9449928941631
 20
11.719696969696969
 10
437.96744764827525
 20
12.02020202020202
 10
437.9839089027737
 20
12.320707070707071
 10
437.9942748267251
 20
12.621212121212121
 10
437.99848129550816
 20
12.921717171717171
 10
437.9965022874948
 20
13.222222222222221
 10
437.9883500450226
 20
13.522727272727272
 10
437.9740749986623
 20
13.823232323232324
 10
437.9537654552493
 20
14.123737373737374
 10
437.92754705160934
 20
14.424242424242424
 10
437.8955819773563
 20
14.724747474747474
 10
437.85806797157164
 20
15.025252525252524
 10
437.815237099571
 20
15.325757575757576
 10
437.7673543173254
 20
15.626262626262626
 10
437.71471583241765
 20
15.926767676767676
 10
437.6576472716732
 20
16.227272727272727
 10
437.59650166680075
 20
16.52777777777778
 10
437.53165727050344
 20
16.828282828282827
 10
437.46351521657056
 20
17.12878787878788
 10
437.3924970384248
 20
17.429292929292927
 10
437.3190420614748
 20
17.72979797979798
 10
437.24360468540567
 20
18.03030303030303
 10
437.1666515732175
 20
18.33080808080808
 10
437.0886587644026
 20
18.63131313131313
 10
437.0101087301186
 20
18.93181818181818
 10
436.93148738857417
 20
19.232323232323232
 10
436.85328109909204
 20
19.532828282828284
 10
436.77597365344207
 20
19.833333333333332
 10
436.700043283058
 20
20.133838383838384
 10
436.62595970065115
 20
20.434343434343432
 10
436.55418119452145
 20
20.734848484848484
 10
436.48515179354115
 20
21.035353535353536
 10
436.41929852034855
 20
21.335858585858585
 10
436.35702874974436
 20
21.636363636363637
 10
436.298727688631
 20
21.936868686868685
 10
436.24475599308533
 20
22.237373737373737
 10
436.1954475373044
 20
22.53787878787879
 10
436.15110734822724
 20
22.838383838383837
 10
436.1120097186081
 20
23.13888888888889
 10
436.0783965102149
 20
23.439393939393938
 10
436.05047565764835
 20
23.73989898989899
 10
436.0284198820383
 20
24.04040404040404
 10
436.0123656225738
 20
24.34090909090909
 10
436.00241219247704
 20
24.641414141414142
 10
435.9986211646418
 20
24.94191919191919
 10
436.0010159907378
 20
25.242424242424242
 10
436.0095818561362
 20
25.54292929292929
 10
436.0242657715542
 20
25.843434343434343
 10
436.0449769008523
 20
26.143939393939394
 10
436.0715871229552
 20
26.444444444444443
 10
436.1039318244216
 20
26.744949494949495
 10
436.14181091775885
 20
27.045454545454543
 10
436.1595048799437
 20
27.172998225265832
 10
436.199696072537
 20
27.395019522933108
 10
436.2564599868606
 20
27.61339224698672
 10
436.329475536013
 20
27.826881165111068
 10
436.4183297051992
 20
28.034278670395377
 10
436.5225198879622
 20
28.234411612200923
 10
436.6414567291924
 20
28.426147932125232
 10
436.77446745883367
 20
28.608403067526737
 10
436.92079969742895
 20
28.780146086388125
 10
437.07962571197857
 20
28.940405518816373
 10
437.25004709803846
 20
29.08827485219331
 10
437.43109986157407
 20
29.22291765889336
 10
437.621759871823
 20
29.34357232756316
 10
437.8209486543238
 20
29.449556371200664
 10
438.02753949134154
 20
29.54027028766472
 10
438.2403637951823
 20
29.615200950778153
 10
438.4582177183474
 20
29.673924512842458
 10
438.679868963135
 20
29.716108802145875
 10
438.90406375217185
 20
29.741515201903347
 10
439.12953392044517
 20
29.75
 10
441.9985817125258
 20
29.75
  0
LWPOLYLINE
  5
9E
330
17
100
AcDbEntity
  8
OUTLINE
100
AcDbPolyline
 90
131
 70
1
 10
449.9984571957807
 20
0.75
 10
447.4359571957807
 20
0.75
 10
447.4359571957807
 20
0.75
 10
447.3519838387032
 20
0.7452841574199319
 10
447.26906649531344
 20
0.7311959341363677
 10
447.1882478993143
 20
0.7079124977312756
 10
447.1105443914425
 20
0.6757266509268144
 10
447.03693313839415
 20
0.6350431494212132
 10
446.9683398443866
 20
0.5863736118510224
 10
446.90562710989076
 20
0.5303300858899107
 10
446.84958358392964
 20
0.4676173513940502
 10
446.8009140463595
 20
0.3990240573865025
 10
446.76023054485387
 20
0.32541280433816866
 10
446.7280446980494
 20
0.2477092964663754
 10
446.7047612616443
 20
0.16689070046723586
 10
446.6906730383607
 20
0.08397335707748099
 10
446.6859571957807
 20
1.1102230246251565e-16
 10
446.0609571957807
 20
0.0
 10
444.0397369576107
 20
0.0
 10
444.0650497318413
 20
0.3005050505050505
 10
444.09613665610453
 20
0.601010101010101
 10
444.13280542364095
 20
0.9015151515151515
 10
444.1748291978614
 20
1.202020202020202
 10
444.22194801558095
 20
1.5025252525252526
 10
444.2738703951761
 20
1.803030303030303
 10
444.3302751397191
 20
2.1035353535353534
 10
444.39081332393334
 20
2.404040404040404
 10
444.4551104526794
 20
2.7045454545454546
 10
444.52276877761847
 20
3.005050505050505
 10
444.5933697577231
 20
3.3055555555555554
 10
444.6664766484124
 20
3.606060606060606
 10
444.74163720329716
 20
3.9065656565656566
 10
444.81838647182013
 20
4.207070707070707
 10
444.89624967548593
 20
4.507575757575758
 10
444.97474514488715
 20
4.808080808080808
 10
445.05338729935863
 20
5.108585858585858
 10
445.131689650827
 20
5.409090909090909
 10
445.2091678132736
 20
5.709595959595959
 10
445.2853424991937
 20
6.01010101010101
 10
445.3597424845162
 20
6.3106060606060606
 10
445.43190752364166
 20
6.611111111111111
 10
445.501391196567
 20
6.911616161616162
 10
445.56776367048303
 20
7.212121212121212
 10
445.63061435876256
 20
7.512626262626262
 10
445.6895544608894
 20
7.813131313131313
 10
445.74421936761644
 20
8.113636363636363
 10
445.79427091647443
 20
8.414141414141413
 10
445.83939948367765
 20
8.714646464646464
 10
445.87932589948747
 20
9.015151515151516
 10
445.91380317518343
 20
9.315656565656566
 10
445.9426180309598
 20
9.616161616161616
 10
445.9655922152954
 20
9.916666666666666
 10
445.98258360763464
 20
10.217171717171716
 10
445.99348709755964
 20
10.517676767676768
 10
445.9982352350134
 20
10.818181818181818
 10
445.9967986475523
 20
11.118686868686869
 10
445.9891862220471
 20
11.419191919191919
 10
445.97544504970807
 20
11.719696969696969
 10
445.95566013477355
 20
12.02020202020202
 10
445.9299538686661
 20
12.320707070707071
 10
445.89848527286654
 20
12.621212121212121
 10
445.8614490151922
 20
12.921717171717171
 10
445.8190742055619
 20
13.222222222222221
 10
445.7716229787002
 20
13.522727272727272
 10
445.719388872546
 20
13.823232323232324
 10
445.6626950123983
 20
14.123737373737374
 10
445.60189211203095
 20
14.424242424242424
 10
445.53735630414366
 20
14.724747474747474
 10
445.46948681356747
 20
15.025252525252524
 10
445.39870348762145
 20
15.325757575757576
 10
445.3254441988956
 20
15.626262626262626
 10
445.25016213652833
 20
15.926767676767676
 10
445.1733230027341
 20
16.227272727272727
 10
445.0954021319236
 20
16.52777777777778
 10
445.01688155023896
 20
16.828282828282827
 10
444.9382469936923
 20
17.12878787878788
 10
444.85998490335555
 20
17.429292929292927
 10
444.782579416188
 20
17.72979797979798
 10
444.70650937011806
 20
18.03030303030303
 10
444.63224534190437
 20
18.33080808080808
 10
444.5602467361024
 20
18.63131313131313
 10
444.4909589431424
 20
18.93181818181818
 10
444.4248105841009
 20
19.232323232323232
 10
444.3622108592085
 20
19.532828282828284
 10
444.30354701649736
 20
19.833333333333332
 10
444.2491819562466
 20
20.133838383838384
 10
444.19945198604603
 20
20.434343434343432
 10
444.1546647403641
 20
20.734848484848484
 10
444.11509727749115
 20
21.035353535353536
 10
444.0809943656295
 20
21.335858585858585
 10
444.05256696873363
 20
21.636363636363637
 10
444.02999094146617
 20
21.936868686868685
 10
444.0134059413439
 20
22.237373737373737
 10
444.00291456480267
 20
22.53787878787879
 10
443.99858171252583
 20
22.838383838383837
 10
444.00043418796207
 20
23.13888888888889
 10
444.0084605315169
 20
23.439393939393938
 10
444.0226110914425
 20
23.73989898989899
 10
444.0427983309887
 20
24.04040404040404
 10
444.06889736991366
 20
24.34090909090909
 10
444.1007467570051
 20
24.641414141414142
 10
444.1381494688338
 20
24.94191919191919
 10
444.18087412855937
 20
25.242424242424242
 10
444.2286564372504
 20
25.54292929292929
 10
444.28120080886333
 20
25.843434343434343
 10
444.3381821987667
 20
26.143939393939394
 10
444.39924811449924
 20
26.444444444444443
 10
444.4640207963226
 20
26.744949494949495
 10
444.5320995540803
 20
27.045454545454543
 10
444.60306324590596
 20
27.345959595959595
 10
444.6305587860884
 20
27.45959165910035
 10
444.68742429035
 20
27.662029597624244
 10
444.7583304840988
 20
27.859986957216652
 10
444.8429290225017
 20
28.05249122165986
 10
444.9408042935768
 20
28.238596664462392
 10
445.0514754599929
 20
28.417388994982556
 10
445.1743988213068
 20
28.587989850115328
 10
445.3089704850304
 20
28.74956110947603
 10
445.4545293334073
 20
28.901309012881313
 10
445.6103602713235
 20
29.042488059899323
 10
445.7756977393944
 20
29.172404672311455
 10
445.949729474972
 20
29.290420601492947
 10
446.131600502593
 20
29.395956063972687
 10
446.32041733426456
 20
29.48849258976796
 10
446.5152523589528
 20
29.567575569501017
 10
446.71514839970985
 20
29.632816487784027
 10
446.91912341605024
 20
29.68389483190041
 10
447.1261753284766
 20
29.72055966640565
 10
447.33528694145184
 20
29.742630865911877
 10
447.54543094063223
 20
29.75
 10
449.9984571957807
 20
29.75
  0
LWPOLYLINE
  5
9F
330
17
100
AcDbEntity
  8
OUTLINE
100
AcDbPolyline
 90
126
 70
1
 10
457.9982009629971
 20
0.75
 10
455.4357009629971
 20
0.75
 10
455.4357009629971
 20
0.75
 10
455.35172760591956
 20
0.7452841574199319
 10
455.2688102625298
 20
0.7311959341363677
 10
455.1879916665307
 20
0.7079124977312756
 10
455.1102881586589
 20
0.6757266509268144
 10
455.03667690561053
 20
0.6350431494212132
 10
454.968083611603
 20
0.5863736118510224
 10
454.90537087710715
 20
0.5303300858899107
 10
454.84932735114603
 20
0.4676173513940502
 10
454.80065781357587
 20
0.3990240573865025
 10
454.75997431207026
 20
0.32541280433816866
 10
454.7277884652658
 20
0.2477092964663754
 10
454.7045050288607
 20
0.16689070046723586
 10
454.6904168055771
 20
0.08397335707748099
 10
454.6857009629971
 20
1.1102230246251565e-16
 10
454.0607009629971
 20
0.0
 10
453.88082471672413
 20
0.0
 10
453.84115069493373
 20
0.3005050505050505
 10
453.79626210350443
 20
0.601010101010101
 10
453.7464366276612
 20
0.9015151515151515
 10
453.6919824926798
 20
1.202020202020202
 10
453.633236557175
 20
1.5025252525252526
 10
453.5705622292601
 20
1.803030303030303
 10
453.50434721846875
 20
2.1035353535353534
 10
453.43500113734586
 20
2.404040404040404
 10
453.36295296754423
 20
2.7045454545454546
 10
453.2886484061019
 20
3.005050505050505
 10
453.21254710831676
 20
3.3055555555555554
 10
453.1351198442738
 20
3.606060606060606
 10
453.0568455866151
 20
3.9065656565656566
 10
452.9782085475684
 20
4.207070707070707
 10
452.89969518356247
 20
4.507575757575758
 10
452.82179118596036
 20
4.808080808080808
 10
452.74497847652464
 20
5.108585858585858
 10
452.6697322262024
 20
5.409090909090909
 10
452.59651791567137
 20
5.709595959595959
 10
452.52578845583037
 20
6.01010101010101
 10
452.4579813860484
 20
6.3106060606060606
 10
452.3935161675034
 20
6.611111111111111
 10
452.3327915883538
 20
6.911616161616162
 10
452.27618329679655
 20
7.212121212121212
 10
452.2240414772699
 20
7.512626262626262
 10
452.1766886841787
 20
7.813131313131313
 10
452.1344178465409
 20
8.113636363636363
 10
452.0974904559
 20
8.414141414141413
 10
452.066134948713
 20
8.714646464646464
 10
452.0405452932196
 20
9.015151515151516
 10
452.02087978953625
 20
9.315656565656566
 10
452.00726009039556
 20
9.616161616161616
 10
451.99977044859105
 20
9.916666666666666
 10
451.9984571957807
 20
10.217171717171716
 10
452.00332845587513
 20
10.517676767676768
 10
452.01435409478216
 20
10.818181818181818
 10
452.031465906819
 20
11.118686868686869
 10
452.0545580366398
 20
11.419191919191919
 10
452.0834876340667
 20
11.719696969696969
 10
452.11807573777537
 20
12.02020202020202
 10
452.1581083823671
 20
12.320707070707071
 10
452.2033379219799
 20
12.621212121212121
 10
452.2534845622497
 20
12.921717171717171
 10
452.3082380911463
 20
13.222222222222221
 10
452.3672597979747
 20
13.522727272727272
 10
452.4301845686733
 20
13.823232323232324
 10
452.4966231444448
 20
14.123737373737374
 10
452.5661645297494
 20
14.424242424242424
 10
452.63837853476355
 20
14.724747474747474
 10
452.7128184365763
 20
15.025252525252524
 10
452.7890237426609
 20
15.325757575757576
 10
452.86652303952695
 20
15.626262626262626
 10
452.94483690893014
 20
15.926767676767676
 10
453.0234808936007
 20
16.227272727272727
 10
453.1019684941435
 20
16.52777777777778
 10
453.17981417857084
 20
16.828282828282827
 10
453.2565363858512
 20
17.12878787878788
 10
453.33166050489245
 20
17.429292929292927
 10
453.40472181053326
 20
17.72979797979798
 10
453.4752683383779
 20
18.03030303030303
 10
453.5428636806925
 20
18.33080808080808
 10
453.6070896860663
 20
18.63131313131313
 10
453.66754904613657
 20
18.93181818181818
 10
453.72386775337793
 20
19.232323232323232
 10
453.7756974147489
 20
19.532828282828284
 10
453.8227174068856
 20
19.833333333333332
 10
453.86463685950946
 20
20.133838383838384
 10
453.90119645477904
 20
20.434343434343432
 10
453.9321700314556
 20
20.734848484848484
 10
453.9573659839589
 20
21.035353535353536
 10
453.97662844765784
 20
21.335858585858585
 10
453.98983826306466
 20
21.636363636363637
 10
453.9969137129668
 20
21.936868686868685
 10
453.9978110279378
 20
22.237373737373737
 10
453.99252465709947
 20
22.53787878787879
 10
453.9810873024597
 20
22.838383838383837
 10
453.96356971661504
 20
23.13888888888889
 10
453.94008026506793
 20
23.439393939393938
 10
453.9107642558674
 20
23.73989898989899
 10
453.8758030407188
 20
24.04040404040404
 10
453.83541289312484
 20
24.34090909090909
 10
453.7898436704961
 20
24.641414141414142
 10
453.739377268509
 20
24.94191919191919
 10
453.68432587727114
 20
25.242424242424242
 10
453.62503005008307
 20
25.54292929292929
 10
453.56185659674185
 20
25.843434343434343
 10
453.50728113504573
 20
26.090528225950784
 10
453.45817325640786
 20
26.3691439041465
 10
453.4355289373542
 20
26.6511465897638
 10
453.4395495570343
 20
26.934028392816174
 10
453.47019935950567
 20
27.215273605200743
 10
453.5272057717161
 20
27.49238107324818
 10
453.61006182753516
 20
27.762886440837967
 10
453.7180306762755
 20
28.024384065267842
 10
453.85015213561104
 20
28.274548410976436
 10
454.00525123061516
 20
28.511154730861755
 10
454.18194864297953
 20
28.732098851273506
 10
454.37867297748795
 20
28.93541588472864
 10
454.5936747366577
 20
29.11929770393513
 10
454.8250418792693
 20
29.282109021725123
 10
455.070716824421
 20
29.42240193389629
 10
455.3285147498884
 20
29.538928795629776
 10
455.59614302205927
 20
29.630653316973024
 10
455.87122158464985
 20
29.696759778713677
 10
456.15130412488446
 20
29.736660286686536
 10
456.43389982890255
 20
29.75
 10
457.9982009629971
 20
29.75
  0
LWPOLYLINE
  5
A0
330
17
100
AcDbEntity
  8
OUTLINE
100
AcDbPolyline
 90
129
 70
1
 10
465.99814860569296
 20
0.75
 10
463.43564860569296
 20
0.75
 10
463.43564860569296
 20
0.75
 10
463.35167524861544
 20
0.7452841574199319
 10
463.2687579052257
 20
0.7311959341363677
 10
463.1879393092266
 20
0.7079124977312756
 10
463.11023580135475
 20
0.6757266509268144
 10
463.03662454830646
 20
0.6350431494212132
 10
462.9680312542989
 20
0.5863736118510224
 10
462.905318519803
 20
0.5303300858899107
 10
462.8492749938419
 20
0.4676173513940502
 10
462.80060545627174
 20
0.3990240573865025
 10
462.7599219547661
 20
0.32541280433816866
 10
462.7277361079617
 20
0.2477092964663754
 10
462.70445267155657
 20
0.16689070046723586
 10
462.690364448273
 20
0.08397335707748099
 10
462.68564860569296
 20
1.1102230246251565e-16
 10
462.06064860569296
 20
0.0
 10
461.7475953596489
 20
0.0
 10
461.7973095447758
 20
0.3005050505050505
 10
461.842080042027
 20
0.601010101010101
 10
461.8816298967197
 20
0.9015151515151515
 10
461.9157144495774
 20
1.202020202020202
 10
461.94412285021633
 20
1.5025252525252526
 10
461.9666793614865
 20
1.803030303030303
 10
461.983244446599
 20
2.1035353535353534
 10
461.99371563231415
 20
2.404040404040404
 10
461.99802814285107
 20
2.7045454545454546
 10
461.9961553005971
 20
3.005050505050505
 10
461.9881086911379
 20
3.3055555555555554
 10
461.9739380915879
 20
3.606060606060606
 10
461.95373116266467
 20
3.9065656565656566
 10
461.9276129064104
 20
4.207070707070707
 10
461.89574489291743
 20
4.507575757575758
 10
461.85832426084
 20
4.808080808080808
 10
461.8155824978747
 20
5.108585858585858
 10
461.76778400875537
 20
5.409090909090909
 10
461.71522447961934
 20
5.709595959595959
 10
461.65822904886386
 20
6.01010101010101
 10
461.5971502958084
 20
6.3106060606060606
 10
461.5323660596041
 20
6.611111111111111
 10
461.46427710188414
 20
6.911616161616162
 10
461.3933046276128
 20
7.212121212121212
 10
461.31988767947007
 20
7.512626262626262
 10
461.2444804218911
 20
7.813131313131313
 10
461.16754933156005
 20
8.113636363636363
 10
461.08957031174
 20
8.414141414141413
 10
461.0110257482882
 20
8.714646464646464
 10
460.9324015255706
 20
9.015151515151516
 10
460.8541840207329
 20
9.315656565656566
 10
460.77685709492425
 20
9.616161616161616
 10
460.70089910008465
 20
9.916666666666666
 10
460.62677991981303
 20
10.217171717171716
 10
460.55495806262115
 20
10.517676767676768
 10
460.4858778255551
 20
10.818181818181818
 10
460.4199665457303
 20
11.118686868686869
 10
460.35763195678214
 20
11.419191919191919
 10
460.2992596665857
 20
11.719696969696969
 10
460.24521077184784
 20
12.02020202020202
 10
460.19581962432744
 20
12.320707070707071
 10
460.15139176250267
 20
12.621212121212121
 10
460.11220202148013
 20
12.921717171717171
 10
460.07849283283775
 20
13.222222222222221
 10
460.0504727249196
 20
13.522727272727272
 10
460.0283150328587
 20
13.823232323232324
 10
460.0121568263094
 20
14.123737373737374
 10
460.00209806152066
 20
14.424242424242424
 10
459.99820096299703
 20
14.724747474747474
 10
460.0004896385719
 20
15.025252525252524
 10
460.00894993027384
 20
15.325757575757576
 10
460.0235295019095
 20
15.626262626262626
 10
460.04413816282005
 20
15.926767676767676
 10
460.07064842580974
 20
16.227272727272727
 10
460.10289629579415
 20
16.52777777777778
 10
460.1406822842897
 20
16.828282828282827
 10
460.18377264346907
 20
17.12878787878788
 10
460.23190081214807
 20
17.429292929292927
 10
460.2847690647594
 20
17.72979797979798
 10
460.3420503531121
 20
18.03030303030303
 10
460.4033903295436
 20
18.33080808080808
 10
460.4684095389493
 20
18.63131313131313
 10
460.5367057661288
 20
18.93181818181818
 10
460.6078565239288
 20
19.232323232323232
 10
460.6814216667896
 20
19.532828282828284
 10
460.75694611352935
 20
19.833333333333332
 10
460.83396266252
 20
20.133838383838384
 10
460.91199488184304
 20
20.434343434343432
 10
460.99056005654364
 20
20.734848484848484
 10
461.06917217475285
 20
21.035353535353536
 10
461.14734493420457
 20
21.335858585858585
 10
461.224594750549
 20
21.636363636363637
 10
461.3004437488528
 20
21.936868686868685
 10
461.37442271978034
 20
22.237373737373737
 10
461.4460740221686
 20
22.53787878787879
 10
461.5149544140402
 20
22.838383838383837
 10
461.5806377945416
 20
23.13888888888889
 10
461.64271783984515
 20
23.439393939393938
 10
461.70081051670746
 20
23.73989898989899
 10
461.75455645813736
 20
24.04040404040404
 10
461.80362318647474
 20
24.34090909090909
 10
461.8477071701302
 20
24.641414141414142
 10
461.8865357012614
 20
24.94191919191919
 10
461.91986858276994
 20
25.242424242424242
 10
461.9474996141847
 20
25.54292929292929
 10
461.969257867238
 20
25.843434343434343
 10
461.98500874324435
 20
26.143939393939394
 10
461.99465480574145
 20
26.444444444444443
 10
461.9981363832415
 20
26.744949494949495
 10
461.9981441190608
 20
26.752359522655937
 10
462.00857513478314
 20
26.99996567011235
 10
462.0394074978381
 20
27.245866007110187
 10
462.0904308026635
 20
27.488382465751457
 10
462.1612968570977
 20
27.725860070329535
 10
462.25152205850526
 20
27.956678231179513
 10
462.3604906939681
 20
28.179261803872045
 10
462.4874591420203
 20
28.392091838280756
 10
462.6315609472543
 20
28.593715944169706
 10
462.7918127331673
 20
28.782758202564217
 10
462.96712091289885
 20
28.957928555268154
 10
463.156289152063
 20
29.118031608451876
 10
463.3580265327482
 20
29.261974790233626
 10
463.5709563629725
 20
29.388775806585535
 10
463.7936255714753
 20
29.49756934468383
 10
464.02451462373614
 20
29.58761297795838
 10
464.2620478915501
 20
29.658292232544436
 10
464.50460440539626
 20
29.70912478056225
 10
464.75052891622425
 20
29.7397637316088
 10
464.99814319116945
 20
29.75
 10
465.99814860569296
 20
29.75
  0
LWPOLYLINE
  5
A1
330
17
100
AcDbEntity
  8
OUTLINE
100
AcDbPolyline
 90
130
 70
1
 10
473.9981128331597
 20
0.75
 10
471.4356128331597
 20
0.75
 10
471.4356128331597
 20
0.75
 10
471.3516394760822
 20
0.7452841574199319
 10
471.26872213269246
 20
0.7311959341363677
 10
471.18790353669334
 20
0.7079124977312756
 10
471.1102000288215
 20
0.6757266509268144
 10
471.0365887757732
 20
0.6350431494212132
 10
470.9679954817657
 20
0.5863736118510224
 10
470.9052827472698
 20
0.5303300858899107
 10
470.84923922130866
 20
0.4676173513940502
 10
470.8005696837385
 20
0.3990240573865025
 10
470.7598861822329
 20
0.32541280433816866
 10
470.72770033542844
 20
0.2477092964663754
 10
470.70441689902333
 20
0.16689070046723586
 10
470.69032867573975
 20
0.08397335707748099
 10
470.6856128331597
 20
1.1102230246251565e-16
 10
470.0606128331597
 20
0.0
 10
469.06035284510386
 20
0.0
 10
469.13859887186607
 20
0.3005050505050505
 10
469.2159758382272
 20
0.601010101010101
 10
469.29200508269145
 20
0.9015151515151515
 10
469.36621628090285
 20
1.202020202020202
 10
469.4381503551175
 20
1.5025252525252526
 10
469.50736231410394
 20
1.803030303030303
 10
469.5734240059019
 20
2.1035353535353534
 10
469.635926766413
 20
2.404040404040404
 10
469.69448394743614
 20
2.7045454545454546
 10
469.7487333085119
 20
3.005050505050505
 10
469.7983392577769
 20
3.3055555555555554
 10
469.8429949279683
 20
3.606060606060606
 10
469.8824240747347
 20
3.9065656565656566
 10
469.9163827855106
 20
4.207070707070707
 10
469.9446609883839
 20
4.507575757575758
 10
469.9670837516206
 20
4.808080808080808
 10
469.98351236581016
 20
5.108585858585858
 10
469.9938452019355
 20
5.409090909090909
 10
469.99801834005996
 20
5.709595959595959
 10
469.99600596474204
 20
6.01010101010101
 10
469.9878205247327
 20
6.3106060606060606
 10
469.9735126559659
 20
6.611111111111111
 10
469.95317086831983
 20
6.911616161616162
 10
469.9269209980861
 20
7.212121212121212
 10
469.89492542953394
 20
7.512626262626262
 10
469.85738209038567
 20
7.813131313131313
 10
469.8145232274159
 20
8.113636363636363
 10
469.76661396975067
 20
8.414141414141413
 10
469.7139506887521
 20
8.714646464646464
 10
469.6568591646369
 20
9.015151515151516
 10
469.5956925711673
 20
9.315656565656566
 10
469.53082929088407
 20
9.616161616161616
 10
469.4626705743946
 20
9.916666666666666
 10
469.39163805819777
 20
10.217171717171716
 10
469.31817115639893
 20
10.517676767676768
 10
469.24272434245137
 20
10.818181818181818
 10
469.1657643377388
 20
11.118686868686869
 10
469.0877672243914
 20
11.419191919191919
 10
469.00921550019507
 20
11.719696969696969
 10
468.9305950938125
 20
12.02020202020202
 10
468.8523923587813
 20
12.320707070707071
 10
468.7750910648832
 20
12.621212121212121
 10
468.6991694054966
 20
12.921717171717171
 10
468.6250970394458
 20
13.222222222222221
 10
468.55333218564516
 20
13.522727272727272
 10
468.48431878851227
 20
13.823232323232324
 10
468.4184837716842
 20
14.123737373737374
 10
468.35623439702584
 20
14.424242424242424
 10
468.2979557452684
 20
14.724747474747474
 10
468.2440083338622
 20
15.025252525252524
 10
468.19472588678025
 20
15.325757575757576
 10
468.15041327006924
 20
15.626262626262626
 10
468.111344605918
 20
15.926767676767676
 10
468.0777615769113
 20
16.227272727272727
 10
468.04987193095724
 20
16.52777777777778
 10
468.0278481961384
 20
16.828282828282827
 10
468.01182661343637
 20
17.12878787878788
 10
468.0019062939317
 20
17.429292929292927
 10
467.9981486056929
 20
17.72979797979798
 10
468.0005767941476
 20
18.03030303030303
 10
468.009175838284
 20
18.33080808080808
 10
468.0238925435727
 20
18.63131313131313
 10
468.04463587103254
 20
18.93181818181818
 10
468.0712775004074
 20
19.232323232323232
 10
468.1036526239675
 20
19.532828282828284
 10
468.1415609660261
 20
19.833333333333332
 10
468.1847680218647
 20
20.133838383838384
 10
468.2330065084024
 20
20.434343434343432
 10
468.28597801763465
 20
20.734848484848484
 10
468.3433548626149
 20
21.035353535353536
 10
468.40478210455797
 20
21.335858585858585
 10
468.4698797485262
 20
21.636363636363637
 10
468.5382450941153
 20
21.936868686868685
 10
468.6094552265988
 20
22.237373737373737
 10
468.6830696331194
 20
22.53787878787879
 10
468.7586329277452
 20
22.838383838383837
 10
468.83567766853156
 20
23.13888888888889
 10
468.9137272491627
 20
23.439393939393938
 10
468.99229884728504
 20
23.73989898989899
 10
469.07090641129366
 20
24.04040404040404
 10
469.1490636670952
 20
24.34090909090909
 10
469.226287126247
 20
24.641414141414142
 10
469.30209907686384
 20
24.94191919191919
 10
469.3760305387908
 20
25.242424242424242
 10
469.4476241647601
 20
25.54292929292929
 10
469.5164370695864
 20
25.843434343434343
 10
469.5820435698977
 20
26.143939393939394
 10
469.64403781745455
 20
26.444444444444443
 10
469.702036309767
 20
26.744949494949495
 10
469.75568026247856
 20
27.045454545454543
 10
469.78592898277543
 20
27.2275664438805
 10
469.82952260759924
 20
27.44598538669242
 10
469.8892008330271
 20
27.660568116925187
 10
469.96463471772836
 20
27.870131872720965
 10
470.0554084765115
 20
28.07352155638447
 10
470.16102177209643
 20
28.269616101183765
 10
470.28089247293167
 20
28.457334650575234
 10
470.4143598618537
 20
28.635642515793446
 10
470.5606882779048
 20
28.8035568789681
 10
470.7190711712332
 20
28.96015221033298
 10
470.8886355487283
 20
29.104565369667753
 10
471.0684467858846
 20
29.236000363853844
 10
471.2575137783727
 20
29.35373273432118
 10
471.45479440492295
 20
29.457113550202536
 10
471.6592012714095
 20
29.54557298518559
 10
471.8696077044746
 20
29.618623458347358
 10
472.0848539616573
 20
29.675862321659
 10
472.3037536237953
 20
29.716974079347686
 10
472.52510013446715
 20
29.741732126882606
 10
472.7476734504295
 20
29.75
 10
473.9981128331597
 20
29.75
  0
LWPOLYLINE
  5
A2
330
17
100
AcDbEntity
  8
OUTLINE
100
AcDbPolyline
 90
126
 70
1
 10
481.9980477869609
 20
0.75
 10
479.4355477869609
 20
0.75
 10
479.4355477869609
 20
0.75
 10
479.35157442988344
 20
0.7452841574199319
 10
479.2686570864937
 20
0.7311959341363677
 10
479.1878384904945
 20
0.7079124977312756
 10
479.11013498262275
 20
0.6757266509268144
 10
479.0365237295744
 20
0.6350431494212132
 10
478.96793043556687
 20
0.5863736118510224
 10
478.905217701071
 20
0.5303300858899107
 10
478.8491741751099
 20
0.4676173513940502
 10
478.8005046375397
 20
0.3990240573865025
 10
478.75982113603413
 20
0.32541280433816866
 10
478.7276352892296
 20
0.2477092964663754
 10
478.7043518528246
 20
0.16689070046723586
 10
478.690263629541
 20
0.08397335707748099
 10
478.6855477869609
 20
1.1102230246251565e-16
 10
478.0605477869609
 20
0.0
 10
477.01209763020563
 20
0.0
 10
476.93347102122425
 20
0.3005050505050505
 10
476.8552438904433
 20
0.601010101010101
 10
476.777900158559
 20
0.9015151515151515
 10
476.70191828147534
 20
1.202020202020202
 10
476.62776829052916
 20
1.5025252525252526
 10
476.55590888483005
 20
1.803030303030303
 10
476.4867845937029
 20
2.1035353535353534
 10
476.4208230267858
 20
2.404040404040404
 10
476.35843222879504
 20
2.7045454545454546
 10
476.2999981553204
 20
3.005050505050505
 10
476.24588228526613
 20
3.3055555555555554
 10
476.1964193847069
 20
3.606060606060606
 10
476.1519154359923
 20
3.9065656565656566
 10
476.1126457449098
 20
4.207070707070707
 10
476.0788532376164
 20
4.507575757575758
 10
476.0507469578733
 20
4.808080808080808
 10
476.02850077388104
 20
5.108585858585858
 10
476.0122523027136
 20
5.409090909090909
 10
476.0021020590058
 20
5.709595959595959
 10
475.9981128331597
 20
6.01010101010101
 10
476.0003093029174
 20
6.3106060606060606
 10
476.00867788070167
 20
6.611111111111111
 10
476.02316679767034
 20
6.911616161616162
 10
476.0436864239633
 20
7.212121212121212
 10
476.0701098231618
 20
7.512626262626262
 10
476.1022735375291
 20
7.813131313131313
 10
476.13997859917663
 20
8.113636363636363
 10
476.1829917608985
 20
8.414141414141413
 10
476.23104693906157
 20
8.714646464646464
 10
476.283846859625
 20
9.015151515151516
 10
476.34106489710655
 20
9.315656565656566
 10
476.40234709511975
 20
9.616161616161616
 10
476.467314355983
 20
9.916666666666666
 10
476.5355647858546
 20
10.217171717171716
 10
476.6066761808879
 20
10.517676767676768
 10
476.6802086390253
 20
10.818181818181818
 10
476.75570728127553
 20
11.118686868686869
 10
476.83270506563986
 20
11.419191919191919
 10
476.9107256762796
 20
11.719696969696969
 10
476.9892864700523
 20
12.02020202020202
 10
477.06790146218987
 20
12.320707070707071
 10
477.14608433264783
 20
12.621212121212121
 10
477.2233514345287
 20
12.921717171717171
 10
477.2992247859691
 20
13.222222222222221
 10
477.3732350269825
 20
13.522727272727272
 10
477.44492432296613
 20
13.823232323232324
 10
477.5138491969104
 20
14.123737373737374
 10
477.5795832727915
 20
14.424242424242424
 10
477.641719913175
 20
14.724747474747474
 10
477.69987473471497
 20
15.025252525252524
 10
477.7536879859869
 20
15.325757575757576
 10
477.80282677294565
 20
15.626262626262626
 10
477.8469871182401
 20
15.926767676767676
 10
477.8858958416472
 20
16.227272727272727
 10
477.9193122499914
 20
16.52777777777778
 10
477.94702962609637
 20
16.828282828282827
 10
477.96887650755764
 20
17.12878787878788
 10
477.9847177474258
 20
17.429292929292927
 10
477.99445535023875
 20
17.72979797979798
 10
477.9980290782314
 20
18.03030303030303
 10
477.9954168239722
 20
18.33080808080808
 10
477.98663474712197
 20
18.63131313131313
 10
477.9717371744686
 20
18.93181818181818
 10
477.95081626385627
 20
19.232323232323232
 10
477.92400143408804
 20
19.532828282828284
 10
477.8914585643283
 20
19.833333333333332
 10
477.85338896795804
 20
20.133838383838384
 10
477.8100281472308
 20
20.434343434343432
 10
477.76164433643237
 20
20.734848484848484
 10
477.7085368425572
 20
21.035353535353536
 10
477.6510341937662
 20
21.335858585858585
 10
477.5894921070792
 20
21.636363636363637
 10
477.5242912878748
 20
21.936868686868685
 10
477.4558350748093
 20
22.237373737373737
 10
477.3845469447245
 20
22.53787878787879
 10
477.31086789297825
 20
22.838383838383837
 10
477.23525370540426
 20
23.13888888888889
 10
477.15817213877597
 20
23.439393939393938
 10
477.0801000272174
 20
23.73989898989899
 10
477.00152033246064
 20
24.04040404040404
 10
476.92291915619717
 20
24.34090909090909
 10
476.8447827330051
 20
24.641414141414142
 10
476.7675944224547
 20
24.94191919191919
 10
476.6918317189983
 20
25.242424242424242
 10
476.6179632981431
 20
25.54292929292929
 10
476.5464461171787
 20
25.843434343434343
 10
476.48979441427207
 20
26.09017205744531
 10
476.4406501863303
 20
26.368800817314554
 10
476.4179727183043
 20
26.650820095751687
 10
476.4219637115093
 20
26.93372151487062
 10
476.4525876686587
 20
27.21498885071817
 10
476.50957220959
 20
27.49212041344807
 10
476.5924104939088
 20
27.76265129822352
 10
476.70036572900403
 20
28.02417530894106
 10
476.8324777233389
 20
28.274366359778472
 10
476.9875714267292
 20
28.510999164213867
 10
477.1642673816498
 20
28.73196902750064
 10
477.3609939926114
 20
28.935310566557057
 10
477.5760015044792
 20
29.119215190769317
 10
477.807377565406
 20
29.282047188227658
 10
478.05306423595647
 20
29.42235827431892
 10
478.31087629313896
 20
29.53890047327537
 10
478.57852066654146
 20
29.630637218106695
 10
478.8536168337001
 20
29.69675257018859
 10
479.1337179932965
 20
29.73665847650562
 10
479.41633282786313
 20
29.75
 10
481.9980477869609
 20
29.75
  0
ENDSEC
  0
SECTION
  2
OBJECTS
  0
DICTIONARY
  5
A
330
0
100
AcDbDictionary
281
1
  3
ACAD_COLOR
350
B
  3
ACAD_GROUP
350
C
  3
ACAD_LAYOUT
350
D
  3
ACAD_MATERIAL
350
E
  3
ACAD_MLEADERSTYLE
350
F
  3
ACAD_MLINESTYLE
350
10
  3
ACAD_PLOTSETTINGS
350
11
  3
ACAD_PLOTSTYLENAME
350
12
  3
ACAD_SCALELIST
350
14
  3
ACAD_TABLESTYLE
350
15
  3
ACAD_VISUALSTYLE
350
16
  3
EZDXF_META
350
2D
  0
DICTIONARY
  5
B
330
A
100
AcDbDictionary
281
1
  0
DICTIONARY
  5
C
330
A
100
AcDbDictionary
281
1
  0
DICTIONARY
  5
D
330
A
100
AcDbDictionary
281
1
  3
Model
350
1A
  3
Layout1
350
1E
  0
DICTIONARY
  5
E
330
A
100
AcDbDictionary
281
1
  3
ByBlock
350
1F
  3
ByLayer
350
20
  3
Global
350
21
  0
DICTIONARY
  5
F
330
A
100
AcDbDictionary
281
1
  3
Standard
350
2C
  0
DICTIONARY
  5
10
330
A
100
AcDbDictionary
281
1
  3
Standard
350
22
  0
DICTIONARY
  5
11
330
A
100
AcDbDictionary
281
1
  0
ACDBDICTIONARYWDFLT
  5
12
330
A
100
AcDbDictionary
281
1
  3
Normal
350
13
100
AcDbDictionaryWithDefault
340
13
  0
ACDBPLACEHOLDER
  5
13
330
12
  0
DICTIONARY
  5
14
330
A
100
AcDbDictionary
281
1
  0
DICTIONARY
  5
15
330
A
100
AcDbDictionary
281
1
  0
DICTIONARY
  5
16
330
A
100
AcDbDictionary
281
1
  3
2dWireframe
350
5A
  3
Basic
350
5B
  3
Brighten
350
5C
  3
ColorChange
350
5D
  3
Conceptual
350
5E
  3
Dim
350
5F
  3
EdgeColorOff
350
60
  3
Facepattern
350
61
  3
Flat
350
62
  3
FlatWithEdges
350
63
  3
Gouraud
350
64
  3
GouraudWithEdges
350
65
  3
Hidden
350
66
  3
JitterOff
350
67
  3
Linepattern
350
68
  3
Modeling
350
69
  3
OverhangOff
350
6A
  3
Realistic
350
6B
  3
Shaded
350
6C
  3
Shaded with edges
350
6D
  3
Shades of Gray
350
6E
  3
Sketchy
350
6F
  3
Thicken
350
70
  3
Wireframe
350
71
  3
X-Ray
350
72
  0
LAYOUT
  5
1A
330
D
100
AcDbPlotSettings
  1

  4
A3
  6

 40
7.5
 41
20.0
 42
7.5
 43
20.0
 44
420.0
 45
297.0
 46
0.0
 47
0.0
 48
0.0
 49
0.0
140
0.0
141
0.0
142
1.0
143
1.0
 70
1024
 72
1
 73
0
 74
5
  7

 75
16
 76
0
 77
2
 78
300
147
1.0
148
0.0
149
0.0
100
AcDbLayout
  1
Model
 70
1
 71
0
 10
0.0
 20
0.0
 11
420.0
 21
297.0
 12
0.0
 22
0.0
 32
0.0
 14
1e+20
 24
1e+20
 34
1e+20
 15
-1e+20
 25
-1e+20
 35
-1e+20
146
0.0
 13
0.0
 23
0.0
 33
0.0
 16
1.0
 26
0.0
 36
0.0
 17
0.0
 27
1.0
 37
0.0
 76
1
330
17
  0
LAYOUT
  5
1E
330
D
100
AcDbPlotSettings
  1

  4
A3
  6

 40
7.5
 41
20.0
 42
7.5
 43
20.0
 44
420.0
 45
297.0
 46
0.0
 47
0.0
 48
0.0
 49
0.0
140
0.0
141
0.0
142
1.0
143
1.0
 70
0
 72
1
 73
0
 74
5
  7

 75
16
 76
0
 77
2
 78
300
147
1.0
148
0.0
149
0.0
100
AcDbLayout
  1
Layout1
 70
1
 71
1
 10
0.0
 20
0.0
 11
420.0
 21
297.0
 12
0.0
 22
0.0
 32
0.0
 14
1e+20
 24
1e+20
 34
1e+20
 15
-1e+20
 25
-1e+20
 35
-1e+20
146
0.0
 13
0.0
 23
0.0
 33
0.0
 16
1.0
 26
0.0
 36
0.0
 17
0.0
 27
1.0
 37
0.0
 76
1
330
1B
  0
MATERIAL
  5
1F
102
{ACAD_REACTORS
330
E
102
}
330
E
100
AcDbMaterial
  1
ByBlock
  2

 70
0
 40
1.0
 71
1
 41
1.0
 91
-1023410177
 42
1.0
 72
1
  3

 73
1
 74
1
 75
1
 44
0.5
 73
0
 45
1.0
 46
1.0
 77
1
  4

 78
1
 79
1
170
1
 48
1.0
171
1
  6

172
1
173
1
174
1
140
1.0
141
1.0
175
1
  7

176
1
177
1
178
1
143
1.0
179
1
  8

270
1
271
1
272
1
145
1.0
146
1.0
273
1
  9

274
1
275
1
276
1
 42
1.0
 72
1
  3

 73
1
 74
1
 75
1
 94
63
  0
MATERIAL
  5
20
102
{ACAD_REACTORS
330
E
102
}
330
E
100
AcDbMaterial
  1
ByLayer
  2

 70
0
 40
1.0
 71
1
 41
1.0
 91
-1023410177
 42
1.0
 72
1
  3

 73
1
 74
1
 75
1
 44
0.5
 73
0
 45
1.0
 46
1.0
 77
1
  4

 78
1
 79
1
170
1
 48
1.0
171
1
  6

172
1
173
1
174
1
140
1.0
141
1.0
175
1
  7

176
1
177
1
178
1
143
1.0
179
1
  8

270
1
271
1
272
1
145
1.0
146
1.0
273
1
  9

274
1
275
1
276
1
 42
1.0
 72
1
  3

 73
1
 74
1
 75
1
 94
63
  0
MATERIAL
  5
21
102
{ACAD_REACTORS
330
E
102
}
330
E
100
AcDbMaterial
  1
Global
  2

 70
0
 40
1.0
 71
1
 41
1.0
 91
-1023410177
 42
1.0
 72
1
  3

 73
1
 74
1
 75
1
 44
0.5
 73
0
 45
1.0
 46
1.0
 77
1
  4

 78
1
 79
1
170
1
 48
1.0
171
1
  6

172
1
173
1
174
1
140
1.0
141
1.0
175
1
  7

176
1
177
1
178
1
143
1.0
179
1
  8

270
1
271
1
272
1
145
1.0
146
1.0
273
1
  9

274
1
275
1
276
1
 42
1.0
 72
1
  3

 73
1
 74
1
 75
1
 94
63
  0
MLINESTYLE
  5
22
102
{ACAD_REACTORS
330
10
102
}
330
10
100
AcDbMlineStyle
  2
Standard
 70
0
  3

 62
256
 51
90.0
 52
90.0
 71
2
 49
0.5
 62
256
  6
BYLAYER
 49
-0.5
 62
256
  6
BYLAYER
  0
MLEADERSTYLE
  5
2C
102
{ACAD_REACTORS
330
F
102
}
330
F
100
AcDbMLeaderStyle
179
2
170
2
171
1
172
0
 90
2
 40
0.0
 41
0.0
173
1
 91
-1056964608
 92
-2
290
1
 42
2.0
291
1
 43
8.0
  3
Standard
 44
4.0
300

342
29
174
1
175
1
176
0
178
1
 93
-1056964608
 45
4.0
292
0
297
0
 46
4.0
 94
-1056964608
 47
1.0
 49
1.0
140
1.0
294
1
141
0.0
177
0
142
1.0
295
0
296
0
143
3.75
271
0
272
9
273
9
  0
DICTIONARY
  5
2D
330
A
100
AcDbDictionary
280
1
281
1
  3
CREATED_BY_EZDXF
350
2E
  3
WRITTEN_BY_EZDXF
350
A5
  0
DICTIONARYVAR
  5
2E
330
2D
100
DictionaryVariables
280
0
  1
1.4.3 @ 2026-01-31T18:42:19.828273+00:00
  0
VISUALSTYLE
  5
5A
102
{ACAD_REACTORS
330
16
102
}
330
16
100
AcDbVisualStyle
  2
2dWireframe
 70
4
 90
0
 40
0.6
 62
7
290
0
291
0
  0
VISUALSTYLE
  5
5B
102
{ACAD_REACTORS
330
16
102
}
330
16
100
AcDbVisualStyle
  2
Basic
 70
7
 90
1
 40
0.6
 62
7
290
0
291
1
  0
VISUALSTYLE
  5
5C
102
{ACAD_REACTORS
330
16
102
}
330
16
100
AcDbVisualStyle
  2
Brighten
 70
12
 90
2
 40
0.6
 62
7
290
0
291
1
  0
VISUALSTYLE
  5
5D
102
{ACAD_REACTORS
330
16
102
}
330
16
100
AcDbVisualStyle
  2
ColorChange
 70
16
 90
2
 40
0.6
 62
8
290
0
291
1
  0
VISUALSTYLE
  5
5E
102
{ACAD_REACTORS
330
16
102
}
330
16
100
AcDbVisualStyle
  2
Conceptual
 70
9
 90
3
 40
0.6
 62
7
290
0
291
0
  0
VISUALSTYLE
  5
5F
102
{ACAD_REACTORS
330
16
102
}
330
16
100
AcDbVisualStyle
  2
Dim
 70
11
 90
2
 40
0.6
 62
7
290
0
291
1
  0
VISUALSTYLE
  5
60
102
{ACAD_REACTORS
330
16
102
}
330
16
100
AcDbVisualStyle
  2
EdgeColorOff
 70
22
 90
2
 40
0.6
 62
7
290
0
291
1
  0
VISUALSTYLE
  5
61
102
{ACAD_REACTORS
330
16
102
}
330
16
100
AcDbVisualStyle
  2
Facepattern
 70
15
 90
2
 40
0.6
 62
7
290
0
291
1
  0
VISUALSTYLE
  5
62
102
{ACAD_REACTORS
330
16
102
}
330
16
100
AcDbVisualStyle
  2
Flat
 70
0
 90
2
 40
0.6
 62
7
290
0
291
1
  0
VISUALSTYLE
  5
63
102
{ACAD_REACTORS
330
16
102
}
330
16
100
AcDbVisualStyle
  2
FlatWithEdges
 70
1
 90
2
 40
0.6
 62
7
290
0
291
1
  0
VISUALSTYLE
  5
64
102
{ACAD_REACTORS
330
16
102
}
330
16
100
AcDbVisualStyle
  2
Gouraud
 70
2
 90
2
 40
0.6
 62
7
290
0
291
1
  0
VISUALSTYLE
  5
65
102
{ACAD_REACTORS
330
16
102
}
330
16
100
AcDbVisualStyle
  2
GouraudWithEdges
 70
3
 90
2
 40
0.6
 62
7
290
0
291
1
  0
VISUALSTYLE
  5
66
102
{ACAD_REACTORS
330
16
102
}
330
16
100
AcDbVisualStyle
  2
Hidden
 70
6
 90
1
 40
0.6
 62
7
290
0
291
0
  0
VISUALSTYLE
  5
67
102
{ACAD_REACTORS
330
16
102
}
330
16
100
AcDbVisualStyle
  2
JitterOff
 70
20
 90
2
 40
0.6
 62
7
290
0
291
1
  0
VISUALSTYLE
  5
68
102
{ACAD_REACTORS
330
16
102
}
330
16
100
AcDbVisualStyle
  2
Linepattern
 70
14
 90
2
 40
0.6
 62
7
290
0
291
1
  0
VISUALSTYLE
  5
69
102
{ACAD_REACTORS
330
16
102
}
330
16
100
AcDbVisualStyle
  2
Modeling
 70
10
 90
2
 40
0.6
 62
7
290
0
291
0
  0
VISUALSTYLE
  5
6A
102
{ACAD_REACTORS
330
16
102
}
330
16
100
AcDbVisualStyle
  2
OverhangOff
 70
21
 90
2
 40
0.6
 62
7
290
0
291
1
  0
VISUALSTYLE
  5
6B
102
{ACAD_REACTORS
330
16
102
}
330
16
100
AcDbVisualStyle
  2
Realistic
 70
8
 90
2
 40
0.6
 62
7
290
0
291
0
  0
VISUALSTYLE
  5
6C
102
{ACAD_REACTORS
330
16
102
}
330
16
100
AcDbVisualStyle
  2
Shaded
 70
27
 90
2
 40
0.6
 62
7
290
0
291
0
  0
VISUALSTYLE
  5
6D
102
{ACAD_REACTORS
330
16
102
}
330
16
100
AcDbVisualStyle
  2
Shaded with edges
 70
26
 90
2
 40
0.6
 62
7
290
0
291
0
  0
VISUALSTYLE
  5
6E
102
{ACAD_REACTORS
330
16
102
}
330
16
100
AcDbVisualStyle
  2
Shades of Gray
 70
23
 90
2
 40
0.6
 62
7
290
0
291
0
  0
VISUALSTYLE
  5
6F
102
{ACAD_REACTORS
330
16
102
}
330
16
100
AcDbVisualStyle
  2
Sketchy
 70
24
 90
1
 40
0.6
 62
7
290
0
291
0
  0
VISUALSTYLE
  5
70
102
{ACAD_REACTORS
330
16
102
}
330
16
100
AcDbVisualStyle
  2
Thicken
 70
13
 90
2
 40
0.6
 62
7
290
0
291
1
  0
VISUALSTYLE
  5
71
102
{ACAD_REACTORS
330
16
102
}
330
16
100
AcDbVisualStyle
  2
Wireframe
 70
5
 90
0
 40
0.6
 62
7
290
0
291
0
  0
VISUALSTYLE
  5
72
102
{ACAD_REACTORS
330
16
102
}
330
16
100
AcDbVisualStyle
  2
X-Ray
 70
25
 90
2
 40
0.5
 62
7
290
0
291
0
  0
DICTIONARYVAR
  5
A5
330
2D
100
DictionaryVariables
280
0
  1
1.4.3 @ 2026-01-31T18:42:19.842071+00:00
  0
ENDSEC
  0
EOF
