  0
SECTION
  2
HEADER
  9
$ACADVER
  1
AC1024
  9
$ACADMAINTVER
 70
6
  9
$DWGCODEPAGE
  3
ANSI_1252
  9
$LASTSAVEDBY
  1
ezdxf
  9
$INSBASE
 10
0.0
 20
0.0
 30
0.0
  9
$EXTMIN
 10
1e+20
 20
1e+20
 30
1e+20
  9
$EXTMAX
 10
-1e+20
 20
-1e+20
 30
-1e+20
  9
$LIMMIN
 10
0.0
 20
0.0
  9
$LIMMAX
 10
420.0
 20
297.0
  9
$ORTHOMODE
 70
0
  9
$REGENMODE
 70
1
  9
$FILLMODE
 70
1
  9
$QTEXTMODE
 70
0
  9
$MIRRTEXT
 70
1
  9
$LTSCALE
 40
1.0
  9
$ATTMODE
 70
1
  9
$TEXTSIZE
 40
2.5
  9
$TRACEWID
 40
1.0
  9
$TEXTSTYLE
  7
Standard
  9
$CLAYER
  8
0
  9
$CELTYPE
  6
ByLayer
  9
$CECOLOR
 62
256
  9
$CELTSCALE
 40
1.0
  9
$DISPSILH
 70
0
  9
$DIMSCALE
 40
1.0
  9
$DIMASZ
 40
2.5
  9
$DIMEXO
 40
0.625
  9
$DIMDLI
 40
3.75
  9
$DIMRND
 40
0.0
  9
$DIMDLE
 40
0.0
  9
$DIMEXE
 40
1.25
  9
$DIMTP
 40
0.0
  9
$DIMTM
 40
0.0
  9
$DIMTXT
 40
2.5
  9
$DIMCEN
 40
2.5
  9
$DIMTSZ
 40
0.0
  9
$DIMTOL
 70
0
  9
$DIMLIM
 70
0
  9
$DIMTIH
 70
0
  9
$DIMTOH
 70
0
  9
$DIMSE1
 70
0
  9
$DIMSE2
 70
0
  9
$DIMTAD
 70
1
  9
$DIMZIN
 70
8
  9
$DIMBLK
  1

  9
$DIMASO
 70
1
  9
$DIMSHO
 70
1
  9
$DIMPOST
  1

  9
$DIMAPOST
  1

  9
$DIMALT
 70
0
  9
$DIMALTD
 70
3
  9
$DIMALTF
 40
0.03937007874
  9
$DIMLFAC
 40
1.0
  9
$DIMTOFL
 70
1
  9
$DIMTVP
 40
0.0
  9
$DIMTIX
 70
0
  9
$DIMSOXD
 70
0
  9
$DIMSAH
 70
0
  9
$DIMBLK1
  1

  9
$DIMBLK2
  1

  9
$DIMSTYLE
  2
ISO-25
  9
$DIMCLRD
 70
0
  9
$DIMCLRE
 70
0
  9
$DIMCLRT
 70
0
  9
$DIMTFAC
 40
1.0
  9
$DIMGAP
 40
0.625
  9
$DIMJUST
 70
0
  9
$DIMSD1
 70
0
  9
$DIMSD2
 70
0
  9
$DIMTOLJ
 70
0
  9
$DIMTZIN
 70
8
  9
$DIMALTZ
 70
0
  9
$DIMALTTZ
 70
0
  9
$DIMUPT
 70
0
  9
$DIMDEC
 70
2
  9
$DIMTDEC
 70
2
  9
$DIMALTU
 70
2
  9
$DIMALTTD
 70
3
  9
$DIMTXSTY
  7
Standard
  9
$DIMAUNIT
 70
0
  9
$DIMADEC
 70
0
  9
$DIMALTRND
 40
0.0
  9
$DIMAZIN
 70
0
  9
$DIMDSEP
 70
44
  9
$DIMATFIT
 70
3
  9
$DIMFRAC
 70
0
  9
$DIMLDRBLK
  1

  9
$DIMLUNIT
 70
2
  9
$DIMLWD
 70
-2
  9
$DIMLWE
 70
-2
  9
$DIMTMOVE
 70
0
  9
$DIMFXL
 40
1.0
  9
$DIMFXLON
 70
0
  9
$DIMJOGANG
 40
0.785398163397
  9
$DIMTFILL
 70
0
  9
$DIMTFILLCLR
 70
0
  9
$DIMARCSYM
 70
0
  9
$DIMLTYPE
  6

  9
$DIMLTEX1
  6

  9
$DIMLTEX2
  6

  9
$DIMTXTDIRECTION
 70
0
  9
$LUNITS
 70
2
  9
$LUPREC
 70
4
  9
$SKETCHINC
 40
1.0
  9
$FILLETRAD
 40
10.0
  9
$AUNITS
 70
0
  9
$AUPREC
 70
2
  9
$MENU
  1
.
  9
$ELEVATION
 40
0.0
  9
$PELEVATION
 40
0.0
  9
$THICKNESS
 40
0.0
  9
$LIMCHECK
 70
0
  9
$CHAMFERA
 40
0.0
  9
$CHAMFERB
 40
0.0
  9
$CHAMFERC
 40
0.0
  9
$CHAMFERD
 40
0.0
  9
$SKPOLY
 70
0
  9
$TDCREATE
 40
2461072.76712963
  9
$TDUCREATE
 40
2458532.153996898
  9
$TDUPDATE
 40
2461072.76712963
  9
$TDUUPDATE
 40
2458532.1544311
  9
$TDINDWG
 40
0.0
  9
$TDUSRTIMER
 40
0.0
  9
$USRTIMER
 70
1
  9
$ANGBASE
 50
0.0
  9
$ANGDIR
 70
0
  9
$PDMODE
 70
0
  9
$PDSIZE
 40
0.0
  9
$PLINEWID
 40
0.0
  9
$SPLFRAME
 70
0
  9
$SPLINETYPE
 70
6
  9
$SPLINESEGS
 70
8
  9
$HANDSEED
  5
6D
  9
$SURFTAB1
 70
6
  9
$SURFTAB2
 70
6
  9
$SURFTYPE
 70
6
  9
$SURFU
 70
6
  9
$SURFV
 70
6
  9
$UCSBASE
  2

  9
$UCSNAME
  2

  9
$UCSORG
 10
0.0
 20
0.0
 30
0.0
  9
$UCSXDIR
 10
1.0
 20
0.0
 30
0.0
  9
$UCSYDIR
 10
0.0
 20
1.0
 30
0.0
  9
$UCSORTHOREF
  2

  9
$UCSORTHOVIEW
 70
0
  9
$UCSORGTOP
 10
0.0
 20
0.0
 30
0.0
  9
$UCSORGBOTTOM
 10
0.0
 20
0.0
 30
0.0
  9
$UCSORGLEFT
 10
0.0
 20
0.0
 30
0.0
  9
$UCSORGRIGHT
 10
0.0
 20
0.0
 30
0.0
  9
$UCSORGFRONT
 10
0.0
 20
0.0
 30
0.0
  9
$UCSORGBACK
 10
0.0
 20
0.0
 30
0.0
  9
$PUCSBASE
  2

  9
$PUCSNAME
  2

  9
$PUCSORG
 10
0.0
 20
0.0
 30
0.0
  9
$PUCSXDIR
 10
1.0
 20
0.0
 30
0.0
  9
$PUCSYDIR
 10
0.0
 20
1.0
 30
0.0
  9
$PUCSORTHOREF
  2

  9
$PUCSORTHOVIEW
 70
0
  9
$PUCSORGTOP
 10
0.0
 20
0.0
 30
0.0
  9
$PUCSORGBOTTOM
 10
0.0
 20
0.0
 30
0.0
  9
$PUCSORGLEFT
 10
0.0
 20
0.0
 30
0.0
  9
$PUCSORGRIGHT
 10
0.0
 20
0.0
 30
0.0
  9
$PUCSORGFRONT
 10
0.0
 20
0.0
 30
0.0
  9
$PUCSORGBACK
 10
0.0
 20
0.0
 30
0.0
  9
$USERI1
 70
0
  9
$USERI2
 70
0
  9
$USERI3
 70
0
  9
$USERI4
 70
0
  9
$USERI5
 70
0
  9
$USERR1
 40
0.0
  9
$USERR2
 40
0.0
  9
$USERR3
 40
0.0
  9
$USERR4
 40
0.0
  9
$USERR5
 40
0.0
  9
$WORLDVIEW
 70
1
  9
$SHADEDGE
 70
3
  9
$SHADEDIF
 70
70
  9
$TILEMODE
 70
1
  9
$MAXACTVP
 70
64
  9
$PINSBASE
 10
0.0
 20
0.0
 30
0.0
  9
$PLIMCHECK
 70
0
  9
$PEXTMIN
 10
1e+20
 20
1e+20
 30
1e+20
  9
$PEXTMAX
 10
-1e+20
 20
-1e+20
 30
-1e+20
  9
$PLIMMIN
 10
0.0
 20
0.0
  9
$PLIMMAX
 10
420.0
 20
297.0
  9
$UNITMODE
 70
0
  9
$VISRETAIN
 70
1
  9
$PLINEGEN
 70
0
  9
$PSLTSCALE
 70
1
  9
$TREEDEPTH
 70
3020
  9
$CMLSTYLE
  2
Standard
  9
$CMLJUST
 70
0
  9
$CMLSCALE
 40
20.0
  9
$PROXYGRAPHICS
 70
1
  9
$MEASUREMENT
 70
1
  9
$CELWEIGHT
370
-1
  9
$ENDCAPS
280
0
  9
$JOINSTYLE
280
0
  9
$LWDISPLAY
290
0
  9
$INSUNITS
 70
1
  9
$HYPERLINKBASE
  1

  9
$STYLESHEET
  1

  9
$XEDIT
290
1
  9
$CEPSNTYPE
380
0
  9
$PSTYLEMODE
290
1
  9
$FINGERPRINTGUID
  2
{F0E17CCF-0C5D-4B8D-8346-28EB389FBF52}
  9
$VERSIONGUID
  2
{5AFDBF33-D053-44E5-816F-2753FBC043FE}
  9
$EXTNAMES
290
1
  9
$PSVPSCALE
 40
0.0
  9
$OLESTARTUP
290
0
  9
$SORTENTS
280
127
  9
$INDEXCTL
280
0
  9
$HIDETEXT
280
1
  9
$XCLIPFRAME
280
1
  9
$HALOGAP
280
0
  9
$OBSCOLOR
 70
257
  9
$OBSLTYPE
280
0
  9
$INTERSECTIONDISPLAY
280
0
  9
$INTERSECTIONCOLOR
 70
257
  9
$DIMASSOC
280
2
  9
$PROJECTNAME
  1

  9
$CAMERADISPLAY
290
0
  9
$LENSLENGTH
 40
50.0
  9
$CAMERAHEIGHT
 40
0.0
  9
$STEPSPERSEC
 40
24.0
  9
$STEPSIZE
 40
100.0
  9
$3DDWFPREC
 40
2.0
  9
$PSOLWIDTH
 40
0.005
  9
$PSOLHEIGHT
 40
0.08
  9
$LOFTANG1
 40
1.570796326795
  9
$LOFTANG2
 40
1.570796326795
  9
$LOFTMAG1
 40
0.0
  9
$LOFTMAG2
 40
0.0
  9
$LOFTPARAM
 70
7
  9
$LOFTNORMALS
280
1
  9
$LATITUDE
 40
37.795
  9
$LONGITUDE
 40
-122.394
  9
$NORTHDIRECTION
 40
0.0
  9
$TIMEZONE
 70
-8000
  9
$LIGHTGLYPHDISPLAY
280
1
  9
$TILEMODELIGHTSYNCH
280
1
  9
$CMATERIAL
347
20
  9
$SOLIDHIST
280
0
  9
$SHOWHIST
280
1
  9
$DWFFRAME
280
2
  9
$DGNFRAME
280
2
  9
$REALWORLDSCALE
290
1
  9
$INTERFERECOLOR
 62
256
  9
$CSHADOW
280
0
  9
$SHADOWPLANELOCATION
 40
0.0
  0
ENDSEC
  0
SECTION
  2
CLASSES
  0
CLASS
  1
ACDBDICTIONARYWDFLT
  2
AcDbDictionaryWithDefault
  3
ObjectDBX Classes
 90
0
 91
0
280
0
281
0
  0
CLASS
  1
SUN
  2
AcDbSun
  3
SCENEOE
 90
1153
 91
0
280
0
281
0
  0
CLASS
  1
VISUALSTYLE
  2
AcDbVisualStyle
  3
ObjectDBX Classes
 90
4095
 91
0
280
0
281
0
  0
CLASS
  1
MATERIAL
  2
AcDbMaterial
  3
ObjectDBX Classes
 90
1153
 91
0
280
0
281
0
  0
CLASS
  1
SCALE
  2
AcDbScale
  3
ObjectDBX Classes
 90
1153
 91
0
280
0
281
0
  0
CLASS
  1
TABLESTYLE
  2
AcDbTableStyle
  3
ObjectDBX Classes
 90
4095
 91
0
280
0
281
0
  0
CLASS
  1
MLEADERSTYLE
  2
AcDbMLeaderStyle
  3
ACDB_MLEADERSTYLE_CLASS
 90
4095
 91
0
280
0
281
0
  0
CLASS
  1
DICTIONARYVAR
  2
AcDbDictionaryVar
  3
ObjectDBX Classes
 90
0
 91
0
280
0
281
0
  0
CLASS
  1
CELLSTYLEMAP
  2
AcDbCellStyleMap
  3
ObjectDBX Classes
 90
1152
 91
0
280
0
281
0
  0
CLASS
  1
MENTALRAYRENDERSETTINGS
  2
AcDbMentalRayRenderSettings
  3
SCENEOE
 90
1024
 91
0
280
0
281
0
  0
CLASS
  1
ACDBDETAILVIEWSTYLE
  2
AcDbDetailViewStyle
  3
ObjectDBX Classes
 90
1025
 91
0
280
0
281
0
  0
CLASS
  1
ACDBSECTIONVIEWSTYLE
  2
AcDbSectionViewStyle
  3
ObjectDBX Classes
 90
1025
 91
0
280
0
281
0
  0
CLASS
  1
RASTERVARIABLES
  2
AcDbRasterVariables
  3
ISM
 90
0
 91
0
280
0
281
0
  0
CLASS
  1
ACDBPLACEHOLDER
  2
AcDbPlaceHolder
  3
ObjectDBX Classes
 90
0
 91
0
280
0
281
0
  0
CLASS
  1
LAYOUT
  2
AcDbLayout
  3
ObjectDBX Classes
 90
0
 91
0
280
0
281
0
  0
ENDSEC
  0
SECTION
  2
TABLES
  0
TABLE
  2
VPORT
  5
8
330
0
100
AcDbSymbolTable
 70
1
  0
VPORT
  5
23
330
8
100
AcDbSymbolTableRecord
100
AcDbViewportTableRecord
  2
*Active
 70
0
 10
0.0
 20
0.0
 11
1.0
 21
1.0
 12
0.0
 22
0.0
 13
0.0
 23
0.0
 14
0.5
 24
0.5
 15
0.5
 25
0.5
 16
0.0
 26
0.0
 36
1.0
 17
0.0
 27
0.0
 37
0.0
 40
1000.0
 41
1.34
 42
50.0
 43
0.0
 44
0.0
 50
0.0
 51
0.0
 71
0
 72
1000
 73
1
 74
3
 75
0
 76
0
 77
0
 78
0
281
0
 65
0
146
0.0
  0
ENDTAB
  0
TABLE
  2
LTYPE
  5
2
330
0
100
AcDbSymbolTable
 70
3
  0
LTYPE
  5
24
330
2
100
AcDbSymbolTableRecord
100
AcDbLinetypeTableRecord
  2
ByBlock
 70
0
  3

 72
65
 73
0
 40
0.0
  0
LTYPE
  5
25
330
2
100
AcDbSymbolTableRecord
100
AcDbLinetypeTableRecord
  2
ByLayer
 70
0
  3

 72
65
 73
0
 40
0.0
  0
LTYPE
  5
26
330
2
100
AcDbSymbolTableRecord
100
AcDbLinetypeTableRecord
  2
Continuous
 70
0
  3

 72
65
 73
0
 40
0.0
  0
ENDTAB
  0
TABLE
  2
LAYER
  5
1
330
0
100
AcDbSymbolTable
 70
2
  0
LAYER
  5
27
330
1
100
AcDbSymbolTableRecord
100
AcDbLayerTableRecord
  2
0
 70
0
 62
7
  6
Continuous
370
-3
390
13
347
21
  0
LAYER
  5
28
330
1
100
AcDbSymbolTableRecord
100
AcDbLayerTableRecord
  2
Defpoints
 70
0
 62
7
  6
Continuous
290
0
370
-3
390
13
347
21
  0
ENDTAB
  0
TABLE
  2
STYLE
  5
5
330
0
100
AcDbSymbolTable
 70
1
  0
STYLE
  5
29
330
5
100
AcDbSymbolTableRecord
100
AcDbTextStyleTableRecord
  2
Standard
 70
0
 40
0.0
 41
1.0
 50
0.0
 71
0
 42
2.5
  3
txt
  4

  0
ENDTAB
  0
TABLE
  2
VIEW
  5
7
330
0
100
AcDbSymbolTable
 70
0
  0
ENDTAB
  0
TABLE
  2
UCS
  5
6
330
0
100
AcDbSymbolTable
 70
0
  0
ENDTAB
  0
TABLE
  2
APPID
  5
3
330
0
100
AcDbSymbolTable
 70
3
  0
APPID
  5
2A
330
3
100
AcDbSymbolTableRecord
100
AcDbRegAppTableRecord
  2
ACAD
 70
0
  0
APPID
  5
6A
330
3
100
AcDbSymbolTableRecord
100
AcDbRegAppTableRecord
  2
HATCHBACKGROUNDCOLOR
 70
0
  0
APPID
  5
6B
330
3
100
AcDbSymbolTableRecord
100
AcDbRegAppTableRecord
  2
EZDXF
 70
0
  0
ENDTAB
  0
TABLE
  2
DIMSTYLE
  5
4
330
0
100
AcDbSymbolTable
 70
1
100
AcDbDimStyleTable
  0
DIMSTYLE
105
2B
330
4
100
AcDbSymbolTableRecord
100
AcDbDimStyleTableRecord
  2
Standard
 70
0
 40
1.0
 41
2.5
 42
0.625
 43
3.75
 44
1.25
 45
0.0
 46
0.0
 47
0.0
 48
0.0
 49
2.5
140
2.5
141
2.5
142
0.0
143
0.03937007874
144
1.0
145
0.0
146
1.0
147
0.625
148
0.0
 69
0
 70
0
 71
0
 72
0
 73
0
 74
0
 75
0
 76
0
 77
1
 78
8
 79
3
170
0
171
3
172
1
173
0
174
0
175
0
176
0
177
0
178
0
179
2
271
2
272
2
273
2
274
3
275
0
276
0
277
2
278
44
279
0
280
0
281
0
282
0
283
0
284
8
285
0
286
0
288
0
289
3
290
0
371
-2
372
-2
  0
ENDTAB
  0
TABLE
  2
BLOCK_RECORD
  5
9
330
0
100
AcDbSymbolTable
 70
2
  0
BLOCK_RECORD
  5
17
330
9
100
AcDbSymbolTableRecord
100
AcDbBlockTableRecord
  2
*Model_Space
340
1A
 70
0
280
1
281
0
  0
BLOCK_RECORD
  5
1B
330
9
100
AcDbSymbolTableRecord
100
AcDbBlockTableRecord
  2
*Paper_Space
340
1E
 70
0
280
1
281
0
  0
ENDTAB
  0
ENDSEC
  0
SECTION
  2
BLOCKS
  0
BLOCK
  5
18
330
17
100
AcDbEntity
  8
0
100
AcDbBlockBegin
  2
*Model_Space
 70
0
 10
0.0
 20
0.0
 30
0.0
  3
*Model_Space
  1

  0
ENDBLK
  5
19
330
17
100
AcDbEntity
  8
0
100
AcDbBlockEnd
  0
BLOCK
  5
1C
330
1B
100
AcDbEntity
  8
0
100
AcDbBlockBegin
  2
*Paper_Space
 70
0
 10
0.0
 20
0.0
 30
0.0
  3
*Paper_Space
  1

  0
ENDBLK
  5
1D
330
1B
100
AcDbEntity
  8
0
100
AcDbBlockEnd
  0
ENDSEC
  0
SECTION
  2
ENTITIES
  0
LWPOLYLINE
  5
2F
330
17
100
AcDbEntity
  8
PANTRY_OUTLINE
 62
8
100
AcDbPolyline
 90
5
 70
0
 10
0.0
 20
0.0
 10
48.0
 20
0.0
 10
48.0
 20
49.0
 10
0.0
 20
49.0
 10
0.0
 20
0.0
  0
TEXT
  5
30
330
17
100
AcDbEntity
  8
LABELS
100
AcDbText
 10
24.0
 20
-3.0
 30
0.0
 40
2.0
  1
5"
 72
1
 11
24.0
 21
-3.0
 31
0.0
100
AcDbText
  0
LWPOLYLINE
  5
31
330
17
100
AcDbEntity
  8
SHELF_RIGHT
 62
1
100
AcDbPolyline
 90
110
 70
1
 10
48.0
 20
0.0
 10
48.0
 20
29.0
 10
45.583452017336604
 20
29.0
 10
45.583452017336604
 20
29.0
 10
45.297595774167426
 20
28.986349980869825
 10
45.01434082645674
 20
28.94552413882747
 10
44.73626479784119
 20
28.87789398955619
 10
44.46589818372761
 20
28.78407496827687
 10
44.205701323752535
 20
28.664920829279666
 10
43.95804201266016
 20
28.521515876749085
 10
43.72517395333992
 20
28.35516509758206
 10
43.5092162481015
 20
28.16738228599056
 10
43.312134114816786
 20
27.95987626795494
 10
43.135721003412144
 20
27.73453535088575
 10
42.98158227545123
 20
27.493410140002187
 10
42.85112059532429
 20
27.23869487779847
 10
42.74552316598432
 20
26.97270747640916
 10
42.66575092538503
 20
26.697868424579145
 10
42.612529801933256
 20
26.41667876118523
 10
42.586344108531165
 20
26.13169731575044
 10
42.587432135322665
 20
25.845517423062724
 10
42.61578398125008
 20
25.560743323795325
 10
42.6711416441539
 20
25.279966465883426
 10
42.6711416441537
 20
25.279966465883376
 10
42.79170622970868
 20
24.80149210273878
 10
42.91553491127558
 20
24.32301773959419
 10
43.0406872145661
 20
23.844543376449593
 10
43.1652019232967
 20
23.366069013305
 10
43.2871278126966
 20
22.887594650160406
 10
43.40455422644238
 20
22.40912028701581
 10
43.51564101785912
 20
21.930645923871218
 10
43.61864738619062
 20
21.452171560726622
 10
43.711959156055606
 20
20.97369719758203
 10
43.794114072603854
 20
20.495222834437435
 10
43.86382471598076
 20
20.016748471292843
 10
43.91999867601621
 20
19.538274108148247
 10
43.96175567098759
 20
19.05979974500365
 10
43.98844134219484
 20
18.58132538185906
 10
43.999637508178
 20
18.102851018714464
 10
43.99516871788691
 20
17.624376655569872
 10
43.97510500011097
 20
17.145902292425276
 10
43.93976076608333
 20
16.667427929280684
 10
43.88968988245671
 20
16.18895356613609
 10
43.82567699186027
 20
15.710479202991495
 10
43.74872521704998
 20
15.232004839846901
 10
43.66004044133632
 20
14.753530476702307
 10
43.56101241162491
 20
14.275056113557712
 10
43.45319296019762
 20
13.796581750413118
 10
43.33827168651255
 20
13.318107387268524
 10
43.21804948010469
 20
12.83963302412393
 10
43.09441029950017
 20
12.361158660979337
 10
42.96929164938655
 20
11.882684297834743
 10
42.84465421868063
 20
11.404209934690147
 10
42.722451155284716
 20
10.925735571545554
 10
42.604597459015245
 20
10.44726120840096
 10
42.49293997233632
 20
9.968786845256366
 10
42.38922843916233
 20
9.490312482111772
 10
42.29508808525661
 20
9.011838118967177
 10
42.211994149908925
 20
8.533363755822585
 10
42.14124876799639
 20
8.054889392677989
 10
42.083960564700824
 20
7.576415029533397
 10
42.041027282646255
 20
7.097940666388801
 10
42.013121713700315
 20
6.619466303244206
 10
42.00068115589732
 20
6.140991940099614
 10
42.003900560699584
 20
5.662517576955018
 10
42.0227294779839
 20
5.184043213810426
 10
42.056872846627066
 20
4.705568850665831
 10
42.1057956183016
 20
4.227094487521239
 10
42.16873114202368
 20
3.748620124376643
 10
42.24469317806228
 20
3.2701457612320475
 10
42.3324913529437
 20
2.7916713980874555
 10
42.430749813361885
 20
2.31319703494286
 10
42.53792878667583
 20
1.834722671798266
 10
42.53792878705201
 20
1.834722671885605
 10
42.576707430146854
 20
1.679076061518233
 10
42.62045876349338
 20
1.524753440656835
 10
42.669137758831
 20
1.3719136359852429
 10
42.72269431641827
 20
1.2207139480935965
 10
42.78107331659489
 20
1.0713099895867737
 10
42.84421467651007
 20
0.9238555249300822
 10
42.91205341195895
 20
0.7785023121970074
 10
42.984519704263455
 20
0.6353999468819356
 10
43.06153897212868
 20
0.49469570793855855
 10
43.14303194840093
 20
0.3565344062024338
 10
43.22891476164836
 20
0.22105823535369762
 10
43.31909902248031
 20
0.08840662557331802
 10
43.41349191451636
 20
-0.041283899956499504
 10
43.51199628991173
 20
-0.16787986556006373
 10
43.61451076934043
 20
-0.2912509804394885
 10
43.720929846333476
 20
-0.41127027276817296
 10
43.83114399586465
 20
-0.527814220368422
 10
43.94503978707214
 20
-0.640762877838748
 10
44.0625
 20
-0.7499999999999991
 10
44.6875
 20
-0.75
 10
44.6875
 20
-0.7499999999999999
 10
44.69221584258007
 20
-0.666026642922519
 10
44.706304065863634
 20
-0.5831092995327641
 10
44.72958750226872
 20
-0.5022907035336246
 10
44.76177334907319
 20
-0.42458719566183134
 10
44.802456850578785
 20
-0.3509759426134975
 10
44.85112638814898
 20
-0.2823826486059498
 10
44.90716991411009
 20
-0.2196699141100893
 10
44.96988264860595
 20
-0.16362638814897756
 10
45.038475942613495
 20
-0.1149568505787868
 10
45.11208719566183
 20
-0.07427334907318561
 10
45.189790703533625
 20
-0.042087502268724375
 10
45.270609299532765
 20
-0.018804065863632258
 10
45.35352664292252
 20
-0.004715842580068075
 10
45.4375
 20
0.0
 10
48.0
 20
0.0
  0
LWPOLYLINE
  5
32
330
17
100
AcDbEntity
  8
PANTRY_OUTLINE
 62
8
100
AcDbPolyline
 90
5
 70
0
 10
60.0
 20
0.0
 10
108.0
 20
0.0
 10
108.0
 20
49.0
 10
60.0
 20
49.0
 10
60.0
 20
0.0
  0
TEXT
  5
33
330
17
100
AcDbEntity
  8
LABELS
100
AcDbText
 10
84.0
 20
-3.0
 30
0.0
 40
2.0
  1
9"
 72
1
 11
84.0
 21
-3.0
 31
0.0
100
AcDbText
  0
LWPOLYLINE
  5
34
330
17
100
AcDbEntity
  8
SHELF_LEFT
 62
5
100
AcDbPolyline
 90
110
 70
1
 10
60.0
 20
0.0
 10
60.0
 20
29.0
 10
65.4165479826634
 20
29.0
 10
65.4165479826634
 20
29.0
 10
65.70240422583258
 20
28.986349980869825
 10
65.98565917354327
 20
28.94552413882747
 10
66.26373520215881
 20
28.87789398955619
 10
66.5341018162724
 20
28.78407496827687
 10
66.79429867624746
 20
28.664920829279666
 10
67.04195798733984
 20
28.521515876749085
 10
67.27482604666008
 20
28.35516509758206
 10
67.4907837518985
 20
28.16738228599056
 10
67.68786588518321
 20
27.95987626795494
 10
67.86427899658786
 20
27.73453535088575
 10
68.01841772454877
 20
27.493410140002187
 10
68.14887940467571
 20
27.238694877798473
 10
68.25447683401569
 20
26.97270747640916
 10
68.33424907461497
 20
26.697868424579145
 10
68.38747019806675
 20
26.41667876118523
 10
68.41365589146884
 20
26.13169731575044
 10
68.41256786467734
 20
25.845517423062724
 10
68.38421601874992
 20
25.560743323795325
 10
68.32885835584611
 20
25.279966465883426
 10
68.32885835584631
 20
25.279966465883376
 10
68.20454044499589
 20
24.78683989765097
 10
68.0768182172892
 20
24.29371332941857
 10
67.947817447571
 20
23.800586761186164
 10
67.81968519039974
 20
23.307460192953762
 10
67.69455404504167
 20
22.814333624721357
 10
67.57450666105491
 20
22.321207056488955
 10
67.46154107522314
 20
21.82808048825655
 10
67.35753745676196
 20
21.334953920024148
 10
67.26422681428163
 20
20.841827351791743
 10
67.18316218533946
 20
20.34870078355934
 10
67.11569278809499
 20
19.855574215326936
 10
67.06294156528129
 20
19.362447647094534
 10
67.02578649424417
 20
18.86932107886213
 10
67.00484597412043
 20
18.376194510629727
 10
67.00046853336683
 20
17.88306794239732
 10
67.01272702894495
 20
17.38994137416492
 10
67.04141743370931
 20
16.896814805932515
 10
67.08606223218098
 20
16.40368823770011
 10
67.14591836818842
 20
15.910561669467707
 10
67.21998961209715
 20
15.417435101235304
 10
67.30704314179117
 20
14.9243085330029
 10
67.40563006143701
 20
14.431181964770497
 10
67.51410951652122
 20
13.938055396538093
 10
67.63067600379718
 20
13.44492882830569
 10
67.7533894216018
 20
12.951802260073286
 10
67.88020736039242
 20
12.458675691840883
 10
68.00901909606894
 20
11.96554912360848
 10
68.13768072030526
 20
11.472422555376076
 10
68.26405082319026
 20
10.979295987143672
 10
68.38602613428574
 20
10.486169418911269
 10
68.50157652890111
 20
9.993042850678865
 10
68.60877881694972
 20
9.499916282446462
 10
68.70584875201399
 20
9.006789714214058
 10
68.79117072786906
 20
8.513663145981653
 10
68.86332466820375
 20
8.020536577749251
 10
68.92110966199371
 20
7.527410009516846
 10
68.96356395114553
 20
7.034283441284444
 10
68.98998093774321
 20
6.541156873052039
 10
68.99992094447612
 20
6.048030304819637
 10
68.99321853251149
 20
5.554903736587232
 10
68.96998525501444
 20
5.06177716835483
 10
68.93060780048664
 20
4.5686506001224245
 10
68.87574155682563
 20
4.075524031890023
 10
68.8062997032226
 20
3.5823974636576175
 10
68.72343801145054
 20
3.0892708954252157
 10
68.62853560950556
 20
2.5961443271928104
 10
68.52317202776683
 20
2.1030177589604087
 10
68.40910090971234
 20
1.6098911907280034
 10
68.28822082474241
 20
1.1167646224956025
 10
68.28822082533665
 20
1.1167646223466337
 10
68.26025350497305
 20
1.010195261068731
 10
68.22994479656559
 20
0.9042680126093687
 10
68.1973094170529
 20
0.7990343118497583
 10
68.16236321313066
 20
0.6945452569065478
 10
68.12512315355688
 20
0.5908515843202138
 10
68.08560732091247
 20
0.48800364441901856
 10
68.04383490282092
 20
0.3860513768705036
 10
67.99982618263132
 20
0.2850442864323868
 10
67.95360252956952
 20
0.18503141891463404
 10
67.9051863883619
 20
0.08606133736438704
 10
67.85460126833682
 20
-0.011817901514701745
 10
67.80187173200942
 20
-0.10855877069726239
 10
67.7470233831547
 20
-0.20411429591381136
 10
67.69008285437519
 20
-0.2984380784599545
 10
67.6310777941691
 20
-0.39148431772611003
 10
67.57003685350492
 20
-0.4832078334368197
 10
67.5069896719096
 20
-0.5735640875888475
 10
67.4419668630764
 20
-0.6625092060774009
 10
67.375
 20
-0.75
 10
66.75
 20
-0.75
 10
66.75
 20
-0.75
 10
66.74528415741993
 20
-0.6660266429225191
 10
66.73119593413637
 20
-0.5831092995327642
 10
66.70791249773127
 20
-0.5022907035336247
 10
66.67572665092682
 20
-0.4245871956618314
 10
66.63504314942121
 20
-0.35097594261349757
 10
66.58637361185102
 20
-0.28238264860594986
 10
66.53033008588991
 20
-0.2196699141100894
 10
66.46761735139405
 20
-0.16362638814897768
 10
66.3990240573865
 20
-0.1149568505787869
 10
66.32541280433817
 20
-0.07427334907318561
 10
66.24770929646638
 20
-0.042087502268724375
 10
66.16689070046723
 20
-0.018804065863632258
 10
66.08397335707748
 20
-0.004715842580068075
 10
66.0
 20
0.0
 10
60.0
 20
0.0
  0
LWPOLYLINE
  5
35
330
17
100
AcDbEntity
  8
PANTRY_OUTLINE
 62
8
100
AcDbPolyline
 90
5
 70
0
 10
120.0
 20
0.0
 10
168.0
 20
0.0
 10
168.0
 20
49.0
 10
120.0
 20
49.0
 10
120.0
 20
0.0
  0
TEXT
  5
36
330
17
100
AcDbEntity
  8
LABELS
100
AcDbText
 10
144.0
 20
-3.0
 30
0.0
 40
2.0
  1
13"
 72
1
 11
144.0
 21
-3.0
 31
0.0
100
AcDbText
  0
LWPOLYLINE
  5
37
330
17
100
AcDbEntity
  8
SHELF_RIGHT
 62
1
100
AcDbPolyline
 90
110
 70
1
 10
168.0
 20
0.0
 10
168.0
 20
29.0
 10
165.0426355697137
 20
29.0
 10
165.0426355697137
 20
29.0
 10
164.78166954717204
 20
28.98862790174334
 10
164.52268201213042
 20
28.954597823385864
 10
164.26763645238591
 20
28.898167760524085
 10
164.01846647004882
 20
28.819765531970994
 10
163.7770611221336
 20
28.719985536291023
 10
163.54525059886438
 20
28.599584245427458
 10
163.32479234827287
 20
28.45947446958691
 10
163.11735775228385
 20
28.300718436861104
 10
162.9245194553023
 20
28.124519740052037
 10
162.7477394413688
 20
27.93221421175491
 10
162.58835795027557
 20
27.725259796878458
 10
162.4475833166739
 20
27.50522549938309
 10
162.3264828092074
 20
27.273779487036116
 10
162.2259745391226
 20
27.032676444366544
 10
162.14682049970153
 20
26.783744269701856
 10
162.08962078928667
 20
26.528870217141737
 10
162.05480906169606
 20
26.26998658853205
 10
162.0426492385208
 20
26.009056083913848
 10
162.0532335082302
 20
25.74805692151159
 10
162.05323350823164
 20
25.74805692151171
 10
162.09821748644492
 20
25.29289126379914
 10
162.1559912741467
 20
24.837725606086572
 10
162.22573547671908
 20
24.382559948374002
 10
162.30646092543188
 20
23.927394290661432
 10
162.39702270663417
 20
23.472228632948863
 10
162.49613639984648
 20
23.017062975236293
 10
162.60239629445132
 20
22.561897317523723
 10
162.71429532661924
 20
22.106731659811153
 10
162.8302464537076
 20
21.651566002098583
 10
162.94860516298394
 20
21.196400344386014
 10
163.06769279543659
 20
20.741234686673444
 10
163.1858203538754
 20
20.286069028960874
 10
163.30131245765705
 20
19.830903371248304
 10
163.41253110428903
 20
19.37573771353573
 10
163.51789890090717
 20
18.92057205582316
 10
163.6159214361376
 20
18.46540639811059
 10
163.7052084750486
 20
18.01024074039802
 10
163.78449367658754
 20
17.555075082685452
 10
163.85265255385463
 20
17.099909424972882
 10
163.9087184224863
 20
16.644743767260312
 10
163.9518961109552
 20
16.189578109547742
 10
163.98157323833655
 20
15.734412451835173
 10
163.99732889958983
 20
15.279246794122603
 10
163.99893963517485
 20
14.824081136410033
 10
163.9863826003359
 20
14.368915478697463
 10
163.95983588910445
 20
13.913749820984894
 10
163.9196760084254
 20
13.458584163272322
 10
163.86647253823102
 20
13.003418505559752
 10
163.80098005319724
 20
12.548252847847182
 10
163.72412742075485
 20
12.093087190134613
 10
163.63700462713985
 20
11.637921532422043
 10
163.54084731832637
 20
11.182755874709473
 10
163.43701927509545
 20
10.727590216996903
 10
163.32699307079216
 20
10.272424559284334
 10
163.2123291860985
 20
9.817258901571764
 10
163.09465387703338
 20
9.362093243859192
 10
162.9756361100736
 20
8.906927586146622
 10
162.8569638915203
 20
8.451761928434053
 10
162.7403203268275
 20
7.996596270721483
 10
162.62735974943814
 20
7.541430613008913
 10
162.51968425768843
 20
7.086264955296343
 10
162.41882099255224
 20
6.6310992975837735
 10
162.32620047849215
 20
6.175933639871204
 10
162.24313633460335
 20
5.720767982158634
 10
162.1708066438046
 20
5.265602324446064
 10
162.11023724431277
 20
4.810436666733494
 10
162.06228718037485
 20
4.355271009020925
 10
162.02763651860727
 20
3.900105351308355
 10
162.00677670274064
 20
3.444939693595787
 10
162.0067767017726
 20
3.4449396936252406
 10
162.00554001039774
 20
3.189143211458674
 10
162.01738717626154
 20
2.9336182335106393
 10
162.04228719136464
 20
2.679033554195068
 10
162.0801748840313
 20
2.426055506849564
 10
162.13095108948548
 20
2.1753462197179907
 10
162.19448290939826
 20
1.9275618829391719
 10
162.27060405972725
 20
1.6833510310776285
 10
162.35911530593756
 20
1.443352845691486
 10
162.45978498446544
 20
1.2081954823803618
 10
162.5723496090592
 20
0.9784944266918467
 10
162.69651456041098
 20
0.7548508831897873
 10
162.83195485727418
 20
0.5378502019006506
 10
162.97831600704822
 20
0.32806034625654323
 10
163.13521493360415
 20
0.12603040654476683
 10
163.30224097992334
 20
-0.0677108372452988
 10
163.47895698292433
 20
-0.2526562994164552
 10
163.6649004176649
 20
-0.4283219157767233
 10
163.85958460792472
 20
-0.5942479105973857
 10
164.0625
 20
-0.7500000000000018
 10
164.6875
 20
-0.75
 10
164.6875
 20
-0.7499999999999999
 10
164.69221584258008
 20
-0.666026642922519
 10
164.70630406586363
 20
-0.5831092995327641
 10
164.7295875022687
 20
-0.5022907035336246
 10
164.7617733490732
 20
-0.42458719566183134
 10
164.80245685057878
 20
-0.3509759426134975
 10
164.85112638814897
 20
-0.2823826486059498
 10
164.90716991411009
 20
-0.2196699141100893
 10
164.96988264860596
 20
-0.16362638814897756
 10
165.0384759426135
 20
-0.1149568505787868
 10
165.11208719566184
 20
-0.07427334907318561
 10
165.18979070353362
 20
-0.042087502268724375
 10
165.27060929953277
 20
-0.018804065863632258
 10
165.35352664292253
 20
-0.004715842580068075
 10
165.4375
 20
0.0
 10
168.0
 20
0.0
  0
LWPOLYLINE
  5
38
330
17
100
AcDbEntity
  8
PANTRY_OUTLINE
 62
8
100
AcDbPolyline
 90
5
 70
0
 10
180.0
 20
0.0
 10
228.0
 20
0.0
 10
228.0
 20
49.0
 10
180.0
 20
49.0
 10
180.0
 20
0.0
  0
TEXT
  5
39
330
17
100
AcDbEntity
  8
LABELS
100
AcDbText
 10
204.0
 20
-3.0
 30
0.0
 40
2.0
  1
19"
 72
1
 11
204.0
 21
-3.0
 31
0.0
100
AcDbText
  0
LWPOLYLINE
  5
3A
330
17
100
AcDbEntity
  8
SHELF_RIGHT
 62
1
100
AcDbPolyline
 90
110
 70
1
 10
228.0
 20
0.0
 10
225.4375
 20
0.0
 10
225.4375
 20
0.0
 10
225.35352664292253
 20
-0.004715842580068075
 10
225.27060929953277
 20
-0.018804065863632258
 10
225.18979070353362
 20
-0.042087502268724375
 10
225.11208719566184
 20
-0.07427334907318561
 10
225.0384759426135
 20
-0.1149568505787868
 10
224.96988264860596
 20
-0.16362638814897756
 10
224.90716991411009
 20
-0.2196699141100893
 10
224.85112638814897
 20
-0.2823826486059498
 10
224.80245685057878
 20
-0.3509759426134975
 10
224.7617733490732
 20
-0.42458719566183134
 10
224.7295875022687
 20
-0.5022907035336246
 10
224.70630406586363
 20
-0.5831092995327641
 10
224.69221584258008
 20
-0.666026642922519
 10
224.6875
 20
-0.7499999999999999
 10
224.0625
 20
-0.75
 10
224.0625
 20
-0.7500000000000009
 10
223.94504091012243
 20
-0.5660080568140144
 10
223.8357244925097
 20
-0.3770646954790915
 10
223.73475910282372
 20
-0.18353003957019176
 10
223.6423371797764
 20
0.014227036390324077
 10
223.55863487834398
 20
0.21582961000271483
 10
223.48381173401805
 20
0.4208934293990205
 10
223.41801035873286
 20
0.6290276456221027
 10
223.3613561690489
 20
0.8398355575786314
 10
223.3139571471105
 20
1.0529153681461878
 10
223.2759036348335
 20
1.2678609499933193
 10
223.2472681617144
 20
1.4842626196529287
 10
223.22810530659044
 20
1.7017079183735895
 10
223.2184515936127
 20
1.9197823982605384
 10
223.21832542263195
 20
2.1380704122079464
 10
223.22772703412835
 20
2.3561559061168516
 10
223.24663850875336
 20
2.573623211888839
 10
223.2750238014838
 20
2.7900578396839952
 10
223.31282881032303
 20
3.0050472679331186
 10
223.35998147941876
 20
3.2181817295984434
 10
223.35998147937588
 20
3.2181817296089203
 10
223.4726074311393
 20
3.6918234274809567
 10
223.57797598192985
 20
4.165465125352993
 10
223.67446908308247
 20
4.639106823225029
 10
223.76060497811173
 20
5.112748521097066
 10
223.83506095669358
 20
5.586390218969102
 10
223.8966936663206
 20
6.0600319168411385
 10
223.94455666972306
 20
6.533673614713175
 10
223.97791497844202
 20
7.007315312585211
 10
223.99625633937657
 20
7.4809570104572485
 10
223.99929910098692
 20
7.954598708329285
 10
223.9869965383601
 20
8.428240406201322
 10
223.9595375707219
 20
8.901882104073358
 10
223.9173438603766
 20
9.375523801945395
 10
223.86106333762396
 20
9.849165499817431
 10
223.79156025108486
 20
10.322807197689468
 10
223.70990189622404
 20
10.796448895561504
 10
223.61734222586782
 20
11.27009059343354
 10
223.515302594395
 20
11.743732291305577
 10
223.40534993129486
 20
12.217373989177613
 10
223.2891726792613
 20
12.69101568704965
 10
223.16855486631914
 20
13.164657384921686
 10
223.04534871013436
 20
13.638299082793722
 10
222.92144617519767
 20
14.111940780665758
 10
222.79874991965266
 20
14.585582478537795
 10
222.6791440779113
 20
15.059224176409831
 10
222.56446532772142
 20
15.532865874281867
 10
222.4564746859828
 20
16.006507572153904
 10
222.35683046641793
 20
16.48014927002594
 10
222.26706281436174
 20
16.953790967897977
 10
222.18855020971628
 20
17.427432665770013
 10
222.12249829889288
 20
17.90107436364205
 10
222.06992138080074
 20
18.374716061514086
 10
222.03162683118418
 20
18.848357759386122
 10
222.00820270449043
 20
19.32199945725816
 10
222.000008703654
 20
19.7956411551302
 10
222.00717065646705
 20
20.26928285300223
 10
222.029578583357
 20
20.74292455087427
 10
222.06688838624217
 20
21.216566248746304
 10
222.11852713253217
 20
21.690207946618344
 10
222.18370185313077
 20
22.163849644490377
 10
222.26141171933844
 20
22.637491342362416
 10
222.35046341166537
 20
23.11113304023445
 10
222.4494894445496
 20
23.58477473810649
 10
222.55696916558492
 20
24.058416435978522
 10
222.67125210679168
 20
24.532058133850562
 10
222.7905833293474
 20
25.005699831722595
 10
222.91313037258053
 20
25.479341529594635
 10
223.0370113933963
 20
25.952983227466667
 10
223.16032406402388
 20
26.426624925338707
 10
223.16032406402388
 20
26.426624925338707
 10
223.18882108644056
 20
26.547113874697338
 10
223.21232219751596
 20
26.66867606035712
 10
223.23078736789327
 20
26.791104425890197
 10
223.24418514591505
 20
26.914190439507674
 10
223.2524927111948
 20
27.037724449251087
 10
223.25569591348687
 20
27.161496040091794
 10
223.25378929678848
 20
27.285294392330133
 10
223.2467761086329
 20
27.408908640683862
 10
223.23466829455793
 20
27.532128233454205
 10
223.21748647775917
 20
27.654743291157803
 10
223.1952599239626
 20
27.776544964013684
 10
223.16802649157626
 20
27.897325787676312
 10
223.13583256720634
 20
28.01688003660886
 10
223.0987329866469
 20
28.135004074494784
 10
223.05679094147825
 20
28.25149670109079
 10
223.01007787143317
 20
28.366159494930496
 10
222.95867334271364
 20
28.47879715129498
 10
222.90266491246607
 20
28.58921781487461
 10
222.8421479796456
 20
28.69723340655548
 10
228.0
 20
28.69723340655548
 10
228.0
 20
0.0
  0
LWPOLYLINE
  5
3B
330
17
100
AcDbEntity
  8
SHELF_LEFT
 62
5
100
AcDbPolyline
 90
110
 70
1
 10
180.0
 20
0.0
 10
186.0
 20
0.0
 10
186.0
 20
0.0
 10
186.08397335707747
 20
-0.004715842580068075
 10
186.16689070046723
 20
-0.018804065863632258
 10
186.24770929646638
 20
-0.042087502268724375
 10
186.32541280433816
 20
-0.07427334907318561
 10
186.3990240573865
 20
-0.1149568505787869
 10
186.46761735139404
 20
-0.16362638814897768
 10
186.53033008588991
 20
-0.2196699141100894
 10
186.58637361185103
 20
-0.28238264860594986
 10
186.63504314942122
 20
-0.35097594261349757
 10
186.6757266509268
 20
-0.4245871956618314
 10
186.7079124977313
 20
-0.5022907035336247
 10
186.73119593413637
 20
-0.5831092995327642
 10
186.74528415741995
 20
-0.6660266429225191
 10
186.75
 20
-0.75
 10
187.375
 20
-0.75
 10
187.375
 20
-0.7500000000000002
 10
187.39988690925014
 20
-0.6378814768082259
 10
187.42219211941267
 20
-0.52522092872535
 10
187.4419038623288
 20
-0.412077795102763
 10
187.45901173814477
 20
-0.2985117699024711
 10
187.47350672079912
 20
-0.1845827702027485
 10
187.48538116278448
 20
-0.07035090458607546
 10
187.49462879918252
 20
0.04412355857396022
 10
187.50124475096936
 20
0.15878022291006966
 10
187.5052255275896
 20
0.2735585959261951
 10
187.50656902879797
 20
0.3883981209131615
 10
187.5052745457675
 20
0.5032382088982061
 10
187.50134276146332
 20
0.6180182706115305
 10
187.4947757502825
 20
0.7326777484530075
 10
187.48557697695955
 20
0.8471561484421833
 10
187.47375129473835
 20
0.96139307213471
 10
187.4593049428117
 20
1.0753282484883753
 10
187.44224554302954
 20
1.1889015656619155
 10
187.42258209587763
 20
1.3020531027298343
 10
187.40032497572892
 20
1.4147231612964941
 10
187.40032497644174
 20
1.4147231614458344
 10
187.29431581157831
 20
1.9506044057111138
 10
187.20217332096993
 20
2.4864856499763928
 10
187.12570810193944
 20
3.022366894241672
 10
187.06642269386853
 20
3.5582481385069515
 10
187.0254820533416
 20
4.0941293827722305
 10
187.0036906627819
 20
4.63001062703751
 10
187.00147672239493
 20
5.165891871302789
 10
187.01888373604635
 20
5.701773115568068
 10
187.05556965641242
 20
6.237654359833348
 10
187.11081360620014
 20
6.773535604098628
 10
187.18353004336558
 20
7.309416848363906
 10
187.27229009198425
 20
7.845298092629186
 10
187.37534961962226
 20
8.381179336894466
 10
187.49068350948932
 20
8.917060581159744
 10
187.616025453926
 20
9.452941825425023
 10
187.7489124872849
 20
9.988823069690303
 10
187.88673338313566
 20
10.524704313955583
 10
188.02677996479005
 20
11.060585558220861
 10
188.1663003208971
 20
11.596466802486141
 10
188.30255288042287
 20
12.13234804675142
 10
188.4328602844434
 20
12.668229291016699
 10
188.5546619961715
 20
13.204110535281979
 10
188.66556461543195
 20
13.739991779547259
 10
188.76338890890685
 20
14.275873023812537
 10
188.84621263200845
 20
14.811754268077816
 10
188.9124083009307
 20
15.347635512343096
 10
188.96067517265982
 20
15.883516756608376
 10
188.9900648045375
 20
16.419398000873652
 10
188.99999969113225
 20
16.955279245138932
 10
188.99028461220473
 20
17.491160489404212
 10
188.9611104687799
 20
18.027041733669492
 10
188.91305053194722
 20
18.56292297793477
 10
188.84704917810018
 20
19.09880422220005
 10
188.76440333196683
 20
19.63468546646533
 10
188.6667369820759
 20
20.17056671073061
 10
188.55596926942815
 20
20.706447954995888
 10
188.43427677643038
 20
21.242329199261167
 10
188.30405075711292
 20
21.778210443526447
 10
188.1678501490558
 20
22.314091687791727
 10
188.02835129033812
 20
22.849972932057007
 10
187.8882953295707
 20
23.385854176322287
 10
187.75043436240384
 20
23.921735420587563
 10
187.617477352926
 20
24.457616664852843
 10
187.49203690259623
 20
24.993497909118123
 10
187.37657791270001
 20
25.529379153383402
 10
187.27336914910873
 20
26.065260397648682
 10
187.18443866109502
 20
26.601141641913962
 10
187.1115339302219
 20
27.13702288617924
 10
187.05608753237993
 20
27.67290413044452
 10
187.05608753237993
 20
27.67290413044452
 10
187.04803206558452
 20
27.795122243894735
 10
187.04497216528068
 20
27.917567312438766
 10
187.04691293203584
 20
28.040035231605476
 10
187.05385113077344
 20
28.162321858833884
 10
187.06577519616545
 20
28.284223353759696
 10
187.0826652519107
 20
28.405536517998144
 10
187.10449314386676
 20
28.526059133856645
 10
187.1312224869804
 20
28.645590301412792
 10
187.16280872593788
 20
28.76393077339572
 10
187.19919920943465
 20
28.88088328731267
 10
187.24033327794
 20
28.996252894267087
 10
187.28614236481107
 20
29.1098472839202
 10
187.33655011058664
 20
29.22147710505436
 10
187.39147249027164
 20
29.330956281203804
 10
187.45081795339857
 20
29.438102320826694
 10
187.51448757663385
 20
29.54273662150147
 10
187.5823752286736
 20
29.64468476764033
 10
187.65436774715465
 20
29.74377682122375
 10
187.73034512728557
 20
29.839847605071206
 10
180.0
 20
29.839847605071206
 10
180.0
 20
0.0
  0
LWPOLYLINE
  5
3C
330
17
100
AcDbEntity
  8
SHELF_BACK
 62
3
100
AcDbPolyline
 90
96
 70
1
 10
180.0
 20
49.0
 10
228.0
 20
49.0
 10
228.0
 20
28.69723340655548
 10
222.8421479796456
 20
28.69723340655548
 10
222.8421479796456
 20
28.69723340655548
 10
222.77722562252345
 20
28.802659943773886
 10
222.70800842311385
 20
28.90531785389316
 10
222.63461427882038
 20
29.005032280069074
 10
222.55716820162155
 20
29.101633379082884
 10
222.47580210513843
 20
29.19495661063465
 10
222.3906545799467
 20
29.284843017604143
 10
222.3018706575157
 20
29.37113949680191
 10
222.20960156317702
 20
29.4536990597494
 10
222.11400445854278
 20
29.53238108304389
 10
222.01524217381296
 20
29.607051547881817
 10
221.9134829304273
 20
29.67758326833252
 10
221.80890005453418
 20
29.74385610797357
 10
221.70167168176505
 20
29.80575718451871
 10
221.59198045381652
 20
29.863181062089822
 10
221.4800132073574
 20
29.91602993080549
 10
221.3659606557906
 20
29.964213773380216
 10
221.2500170644116
 20
30.007650518450514
 10
221.13237991951706
 20
30.0462661803668
 10
221.0132495920273
 20
30.07999498521284
 10
221.0132495920273
 20
30.079994985212835
 10
220.3747982652039
 20
30.2447159416143
 10
219.7363469383805
 20
30.40261596533979
 10
219.0978956115571
 20
30.54929393145948
 10
218.4594442847337
 20
30.680661505860964
 10
217.82099295791028
 20
30.793057098805185
 10
217.1825416310869
 20
30.883347923897066
 10
216.54409030426348
 20
30.949017317795647
 10
215.90563897744008
 20
30.988234886813864
 10
215.26718765061668
 20
30.999907525221765
 10
214.62873632379328
 20
30.98370988322724
 10
213.99028499696988
 20
30.94009343540455
 10
213.35183367014648
 20
30.870273896807642
 10
212.71338234332308
 20
30.776197337517182
 10
212.07493101649965
 20
30.660485940105648
 10
211.43647968967628
 20
30.526364911914982
 10
210.79802836285285
 20
30.37757258931055
 10
210.15957703602945
 20
30.218256239562688
 10
209.52112570920605
 20
30.05285646465524
 10
208.88267438238265
 20
29.88598342901731
 10
208.24422305555925
 20
29.722288361065047
 10
207.60577172873585
 20
29.56633391017277
 10
206.96732040191245
 20
29.42246697259511
 10
206.32886907508902
 20
29.294697531045262
 10
205.69041774826565
 20
29.186586885016464
 10
205.05196642144222
 20
29.101148387187145
 10
204.41351509461882
 20
29.040763452669808
 10
203.77506376779542
 20
29.00711518216589
 10
203.13661244097202
 20
29.00114144913904
 10
202.49816111414862
 20
29.023008758601275
 10
201.85970978732522
 20
29.072107606142453
 10
201.22125846050182
 20
29.1470694665601
 10
200.58280713367841
 20
29.245804938567968
 10
199.94435580685501
 20
29.365561982381266
 10
199.3059044800316
 20
29.50300262693061
 10
198.66745315320819
 20
29.654296008655468
 10
198.02900182638479
 20
29.81522514861994
 10
197.39055049956139
 20
29.98130449176759
 10
196.75209917273799
 20
30.147904932160294
 10
196.11364784591458
 20
30.310382839390453
 10
195.47519651909118
 20
30.464209489831642
 10
194.83674519226778
 20
30.60509729510892
 10
194.19829386544438
 20
30.72911930944048
 10
193.55984253862096
 20
30.832818684839587
 10
192.92139121179756
 20
30.913305023347398
 10
192.28293988497416
 20
30.968334940684663
 10
191.64448855815075
 20
30.996374595783067
 10
191.00603723132735
 20
30.9966424433194
 10
190.36758590450395
 20
30.969131017617325
 10
189.72913457768055
 20
30.914607140737136
 10
189.72913457768055
 20
30.914607140737136
 10
189.60762041389026
 20
30.899229696249535
 10
189.48683522233532
 20
30.878904950207936
 10
189.3669803406272
 20
30.853666782062046
 10
189.24825555563802
 20
30.823557261476434
 10
189.13085877047436
 20
30.78862657820434
 10
189.01498567459134
 20
30.748932958426042
 10
188.90082941759664
 20
30.704542567691274
 10
188.78858028728823
 20
30.655529400627437
 10
188.67842539246232
 20
30.601975157597487
 10
188.5705483510205
 20
30.543969108513075
 10
188.465128983896
 20
30.48160794402995
 10
188.3623430153089
 20
30.414995614373687
 10
188.26236177985038
 20
30.3442431560644
 10
188.1653519368839
 20
30.269468506829234
 10
188.07147519273974
 20
30.190796309011223
 10
187.98088803116565
 20
30.108357701802166
 10
187.893741452483
 20
30.02229010264587
 10
187.81018072188348
 20
29.93273697817611
 10
187.73034512728557
 20
29.839847605071206
 10
180.0
 20
29.839847605071206
 10
180.0
 20
49.0
  0
LWPOLYLINE
  5
3D
330
17
100
AcDbEntity
  8
PANTRY_OUTLINE
 62
8
100
AcDbPolyline
 90
5
 70
0
 10
240.0
 20
0.0
 10
288.0
 20
0.0
 10
288.0
 20
49.0
 10
240.0
 20
49.0
 10
240.0
 20
0.0
  0
TEXT
  5
3E
330
17
100
AcDbEntity
  8
LABELS
100
AcDbText
 10
264.0
 20
-3.0
 30
0.0
 40
2.0
  1
26"
 72
1
 11
264.0
 21
-3.0
 31
0.0
100
AcDbText
  0
LWPOLYLINE
  5
3F
330
17
100
AcDbEntity
  8
SHELF_RIGHT
 62
1
100
AcDbPolyline
 90
110
 70
1
 10
288.0
 20
0.0
 10
288.0
 20
29.0
 10
285.16484593772407
 20
29.0
 10
285.16484593772407
 20
29.0
 10
284.94170834928
 20
28.991690093680052
 10
284.71980692914025
 20
28.966806411082242
 10
284.5003709973138
 20
28.92548680625409
 10
284.28461621515856
 20
28.86796018722579
 10
284.073737850693
 20
28.79454524787404
 10
283.86890415688623
 20
28.70564870237783
 10
283.6712498996094
 20
28.60176303204732
 10
283.4818700711036
 20
28.48346375700813
 10
283.30181382379135
 20
28.3514062478558
 10
283.1320786580377
 20
28.206322094943584
 10
282.9736048960603
 20
28.049015055417627
 10
282.82727047260335
 20
27.88035660045255
 10
282.6938860712337
 20
27.701281087355568
 10
282.57419063320464
 20
27.512780583285373
 10
282.4688472637675
 20
27.315899369262016
 10
282.37843955860984
 20
27.111728154915298
 10
282.303468370772
 20
26.90139803602152
 10
282.24434903595244
 20
26.68607422830352
 10
282.20140907157383
 20
26.46694961220837
 10
282.2014090715733
 20
26.466949612208452
 10
282.1353449245327
 20
26.010443820588716
 10
282.0816162485577
 20
25.55393802896898
 10
282.04098955569054
 20
25.097432237349242
 10
282.0140444405103
 20
24.640926445729505
 10
282.00116531143374
 20
24.18442065410977
 10
282.002535906611
 20
23.72791486249003
 10
282.018136672653
 20
23.271409070870295
 10
282.0477450435867
 20
22.814903279250558
 10
282.0909386160593
 20
22.35839748763082
 10
282.1471011754916
 20
21.901891696011084
 10
282.21543148721054
 20
21.445385904391348
 10
282.2949547271421
 20
20.98888011277161
 10
282.3845363889924
 20
20.532374321151874
 10
282.48289846951013
 20
20.075868529532137
 10
282.5886377009268
 20
19.6193627379124
 10
282.70024557046486
 20
19.162856946292663
 10
282.8161298413069
 20
18.706351154672927
 10
282.9346372680024
 20
18.24984536305319
 10
283.0540771822437
 20
17.793339571433453
 10
283.17274561253055
 20
17.336833779813716
 10
283.28894959362196
 20
16.88032798819398
 10
283.4010313189693
 20
16.423822196574243
 10
283.50739179156284
 20
15.967316404954506
 10
283.6065136357816
 20
15.510810613334769
 10
283.69698274480305
 20
15.054304821715032
 10
283.7775084547447
 20
14.597799030095295
 10
283.8469419577257
 20
14.141293238475559
 10
283.90429269116055
 20
13.684787446855822
 10
283.9487424694711
 20
13.228281655236085
 10
283.97965715660735
 20
12.771775863616348
 10
283.9965957128535
 20
12.315270071996611
 10
283.99931648685475
 20
11.858764280376874
 10
283.98778066309967
 20
11.402258488757138
 10
283.96215281567584
 20
10.9457526971374
 10
283.9227985603986
 20
10.489246905517664
 10
283.8702793388081
 20
10.032741113897927
 10
283.8053444084484
 20
9.57623532227819
 10
283.7289201536978
 20
9.119729530658454
 10
283.6420968696463
 20
8.663223739038717
 10
283.5461132075648
 20
8.20671794741898
 10
283.4423385038743
 20
7.750212155799243
 10
283.33225324471425
 20
7.293706364179506
 10
283.217427944811
 20
6.8372005725597695
 10
283.09950074196604
 20
6.380694780940033
 10
282.9801540268112
 20
5.924188989320296
 10
282.8610904412359
 20
5.467683197700559
 10
282.7440085879045
 20
5.011177406080822
 10
282.63057879739733
 20
4.5546716144610855
 10
282.5224192986921
 20
4.098165822841349
 10
282.5224192989249
 20
4.098165822787804
 10
282.4671776318834
 20
3.822814377090947
 10
282.42748284048014
 20
3.544795701530598
 10
282.403460153939
 20
3.2649868900963894
 10
282.3951853590896
 20
2.984270684302928
 10
282.4026845612747
 20
2.7035326883147413
 10
282.42593410199316
 20
2.4236585750401116
 10
282.4648606335376
 20
2.1455312920080574
 10
282.5193413503924
 20
1.8700282758433184
 10
282.5892043766602
 20
1.5980186841271777
 10
282.67422930829696
 20
1.3303606533770322
 10
282.7741479084427
 20
1.0678985917952186
 10
282.8886449536564
 20
0.8114605153279837
 10
283.017359228383
 20
0.5618554354387766
 10
283.1598846645174
 20
0.3198708068369238
 10
283.31577162246924
 20
0.08627004321361875
 10
283.4845283096868
 20
-0.13820989117745075
 10
283.6656223321654
 20
-0.3528608064967016
 10
283.85848237404525
 20
-0.5570055215176724
 10
284.0625
 20
-0.7499999999999987
 10
284.6875
 20
-0.75
 10
284.6875
 20
-0.7499999999999999
 10
284.6922158425801
 20
-0.666026642922519
 10
284.7063040658636
 20
-0.5831092995327641
 10
284.7295875022687
 20
-0.5022907035336246
 10
284.76177334907317
 20
-0.42458719566183134
 10
284.8024568505788
 20
-0.3509759426134975
 10
284.851126388149
 20
-0.2823826486059498
 10
284.9071699141101
 20
-0.2196699141100893
 10
284.96988264860596
 20
-0.16362638814897756
 10
285.0384759426135
 20
-0.1149568505787868
 10
285.11208719566184
 20
-0.07427334907318561
 10
285.1897907035336
 20
-0.042087502268724375
 10
285.2706092995328
 20
-0.018804065863632258
 10
285.35352664292253
 20
-0.004715842580068075
 10
285.4375
 20
0.0
 10
288.0
 20
0.0
  0
LWPOLYLINE
  5
40
330
17
100
AcDbEntity
  8
PANTRY_OUTLINE
 62
8
100
AcDbPolyline
 90
5
 70
0
 10
300.0
 20
0.0
 10
348.0
 20
0.0
 10
348.0
 20
49.0
 10
300.0
 20
49.0
 10
300.0
 20
0.0
  0
TEXT
  5
41
330
17
100
AcDbEntity
  8
LABELS
100
AcDbText
 10
324.0
 20
-3.0
 30
0.0
 40
2.0
  1
29"
 72
1
 11
324.0
 21
-3.0
 31
0.0
100
AcDbText
  0
LWPOLYLINE
  5
42
330
17
100
AcDbEntity
  8
SHELF_LEFT
 62
5
100
AcDbPolyline
 90
110
 70
1
 10
300.0
 20
0.0
 10
300.0
 20
29.0
 10
305.83515406227593
 20
29.0
 10
305.83515406227593
 20
29.0
 10
306.05829165072
 20
28.991690093680052
 10
306.28019307085975
 20
28.966806411082242
 10
306.4996290026862
 20
28.92548680625409
 10
306.71538378484144
 20
28.86796018722579
 10
306.926262149307
 20
28.79454524787404
 10
307.13109584311377
 20
28.70564870237783
 10
307.3287501003906
 20
28.60176303204732
 10
307.5181299288964
 20
28.48346375700813
 10
307.69818617620865
 20
28.3514062478558
 10
307.86792134196236
 20
28.206322094943584
 10
308.0263951039397
 20
28.049015055417627
 10
308.17272952739665
 20
27.88035660045255
 10
308.3061139287663
 20
27.701281087355568
 10
308.42580936679536
 20
27.512780583285373
 10
308.5311527362325
 20
27.315899369262016
 10
308.62156044139016
 20
27.111728154915298
 10
308.696531629228
 20
26.90139803602152
 10
308.75565096404756
 20
26.68607422830352
 10
308.79859092842617
 20
26.46694961220837
 10
308.7985909284267
 20
26.466949612208452
 10
308.86579643113805
 20
26.00174852905121
 10
308.9201757458496
 20
25.536547445893966
 10
308.9609232798277
 20
25.071346362736723
 10
308.9874353859417
 20
24.606145279579483
 10
308.99931930528777
 20
24.14094419642224
 10
308.99639898564595
 20
23.675743113264996
 10
308.97871768957475
 20
23.210542030107753
 10
308.94653735350556
 20
22.74534094695051
 10
308.90033470733175
 20
22.280139863793266
 10
308.8407942119781
 20
21.814938780636027
 10
308.76879791957555
 20
21.34973769747878
 10
308.68541240645584
 20
20.88453661432154
 10
308.5918729725455
 20
20.419335531164297
 10
308.4895653412336
 20
19.954134448007053
 10
308.38000513081755
 20
19.48893336484981
 10
308.2648154016446
 20
19.023732281692567
 10
308.1457026115713
 20
18.558531198535327
 10
308.0244313359454
 20
18.09333011537808
 10
307.90279812661703
 20
17.62812903222084
 10
307.782604897239
 20
17.162927949063597
 10
307.66563222913607
 20
16.697726865906354
 10
307.553612993198
 20
16.23252578274911
 10
307.4482066785702
 20
15.767324699591867
 10
307.3509748084459
 20
15.302123616434626
 10
307.263357807157
 20
14.836922533277383
 10
307.1866536612624
 20
14.37172145012014
 10
307.1219986907564
 20
13.906520366962898
 10
307.07035071525684
 20
13.441319283805655
 10
307.03247486455604
 20
12.976118200648411
 10
307.00893224374096
 20
12.510917117491168
 10
307.000071620801
 20
12.045716034333926
 10
307.00602425986665
 20
11.580514951176683
 10
307.02670197661985
 20
11.11531386801944
 10
307.06179844468545
 20
10.650112784862198
 10
307.11079373364856
 20
10.184911701704955
 10
307.1729620114722
 20
9.719710618547712
 10
307.24738229720697
 20
9.254509535390468
 10
307.33295210470095
 20
8.789308452233225
 10
307.4284037751852
 20
8.324107369075982
 10
307.53232325678044
 20
7.858906285918742
 10
307.6431710527183
 20
7.393705202761499
 10
307.7593050279438
 20
6.928504119604256
 10
307.87900473623444
 20
6.463303036447012
 10
308.0004969074463
 20
5.998101953289769
 10
308.12198171731075
 20
5.532900870132526
 10
308.24165945061253
 20
5.0676997869752824
 10
308.35775716275225
 20
4.602498703818043
 10
308.46855494472055
 20
4.137297620660799
 10
308.57241140238546
 20
3.672096537503558
 10
308.57241140217917
 20
3.6720965374592676
 10
308.6188270867704
 20
3.4259901768226966
 10
308.6528611843165
 20
3.177868358503395
 10
308.67442830632086
 20
2.928353597877291
 10
308.6834743428098
 20
2.6780719050875597
 10
308.6799765980896
 20
2.427651214441349
 10
308.6639438476878
 20
2.1777198089789573
 10
308.63541631633643
 20
1.928904744168063
 10
308.5944655770516
 20
1.6818302746778309
 10
308.5411943715633
 20
1.4371162881799648
 10
308.4757363525456
 20
1.1953767501061692
 10
308.3982557482941
 20
0.9572181632639754
 10
308.30894695069173
 20
0.7232380461756278
 10
308.20803402749726
 20
0.49402343395772963
 10
308.09577016017914
 20
0.2701494055028162
 10
307.972437008706
 20
0.052177640658022106
 10
307.83834400488706
 20
-0.1593449889792531
 10
307.6938275760355
 20
-0.36388779211310496
 10
307.5392503009026
 20
-0.560937589205964
 10
307.375
 20
-0.75
 10
306.75
 20
-0.75
 10
306.75
 20
-0.75
 10
306.7452841574199
 20
-0.6660266429225191
 10
306.7311959341364
 20
-0.5831092995327642
 10
306.7079124977313
 20
-0.5022907035336247
 10
306.67572665092683
 20
-0.4245871956618314
 10
306.6350431494212
 20
-0.35097594261349757
 10
306.586373611851
 20
-0.28238264860594986
 10
306.5303300858899
 20
-0.2196699141100894
 10
306.46761735139404
 20
-0.16362638814897768
 10
306.3990240573865
 20
-0.1149568505787869
 10
306.32541280433816
 20
-0.07427334907318561
 10
306.2477092964664
 20
-0.042087502268724375
 10
306.16689070046726
 20
-0.018804065863632258
 10
306.08397335707747
 20
-0.004715842580068075
 10
306.0
 20
0.0
 10
300.0
 20
0.0
  0
LWPOLYLINE
  5
43
330
17
100
AcDbEntity
  8
PANTRY_OUTLINE
 62
8
100
AcDbPolyline
 90
5
 70
0
 10
360.0
 20
0.0
 10
408.0
 20
0.0
 10
408.0
 20
49.0
 10
360.0
 20
49.0
 10
360.0
 20
0.0
  0
TEXT
  5
44
330
17
100
AcDbEntity
  8
LABELS
100
AcDbText
 10
384.0
 20
-3.0
 30
0.0
 40
2.0
  1
33"
 72
1
 11
384.0
 21
-3.0
 31
0.0
100
AcDbText
  0
LWPOLYLINE
  5
45
330
17
100
AcDbEntity
  8
SHELF_RIGHT
 62
1
100
AcDbPolyline
 90
110
 70
1
 10
408.0
 20
0.0
 10
408.0
 20
29.0
 10
405.839347107587
 20
29.0
 10
405.839347107587
 20
29.0
 10
405.6318444439553
 20
28.992815170468393
 10
405.42533569450063
 20
28.971295096390506
 10
405.2208100126641
 20
28.935542856475507
 10
405.01924705321824
 20
28.885729699889506
 10
404.82161227983204
 20
28.822094225991506
 10
404.6288523406097
 20
28.744941241469586
 10
404.4418905337538
 20
28.654640300351506
 10
404.26162238507175
 20
28.551623933882922
 10
404.08891135850905
 20
28.43638557875186
 10
403.92458472025515
 20
28.309477213583065
 10
403.7694295762323
 20
28.171506715023124
 10
403.6241891019476
 20
28.023134946080393
 10
403.48955898276694
 20
27.865072590666315
 10
403.3661840816611
 20
27.698076749500228
 10
403.2546553503854
 20
27.522947313682977
 10
403.15550699888786
 20
27.340523133309443
 10
403.06921393650435
 20
27.151677999471904
 10
402.9961894971969
 20
26.957316458900024
 10
402.93678345973086
 20
26.758369481284817
 10
402.93678345973103
 20
26.75836948128478
 10
402.8140479056147
 20
26.285556891375162
 10
402.69415787252916
 20
25.812744301465546
 10
402.57894797068224
 20
25.339931711555927
 10
402.47018119284763
 20
24.867119121646308
 10
402.36952193627127
 20
24.394306531736692
 10
402.2785105333301
 20
23.921493941827073
 10
402.1985396806859
 20
23.448681351917454
 10
402.1308331276264
 20
22.97586876200784
 10
402.0764269497133
 20
22.50305617209822
 10
402.0361536942969
 20
22.030243582188604
 10
402.01062964050897
 20
21.557430992278984
 10
402.00024536868716
 20
21.084618402369365
 10
402.00515978354287
 20
20.61180581245975
 10
402.02529768253055
 20
20.13899322255013
 10
402.0603509066307
 20
19.66618063264051
 10
402.10978305593505
 20
19.193368042730896
 10
402.17283769787474
 20
18.720555452821277
 10
402.24854994248534
 20
18.247742862911657
 10
402.3357612075792
 20
17.77493027300204
 10
402.4331369478812
 20
17.302117683092423
 10
402.53918707683
 20
16.829305093182803
 10
402.65228876853996
 20
16.356492503273188
 10
402.7707112909995
 20
15.883679913363569
 10
402.8926424904962
 20
15.41086732345395
 10
403.0162165219928
 20
14.938054733544332
 10
403.1395424011116
 20
14.465242143634715
 10
403.26073294081215
 20
13.992429553725097
 10
403.37793362996035
 20
13.519616963815478
 10
403.4893510118764
 20
13.04680437390586
 10
403.59328012860067
 20
12.573991783996243
 10
403.68813061091294
 20
12.101179194086624
 10
403.77245101486415
 20
11.628366604177007
 10
403.8449510324126
 20
11.15555401426739
 10
403.90452123628705
 20
10.682741424357772
 10
403.95025005693236
 20
10.209928834448153
 10
403.9814377317496
 20
9.737116244538534
 10
403.99760701317194
 20
9.264303654628918
 10
403.9985104717176
 20
8.791491064719299
 10
403.9841342822652
 20
8.31867847480968
 10
403.95469843561153
 20
7.845865884900064
 10
403.91065337207567
 20
7.373053294990445
 10
403.852673088662
 20
6.900240705080826
 10
403.78164482526097
 20
6.42742811517121
 10
403.69865548771213
 20
5.954615525261591
 10
403.6049750154916
 20
5.481802935351972
 10
403.5020369485376
 20
5.008990345442356
 10
403.3914164905892
 20
4.536177755532737
 10
403.27480640472373
 20
4.063365165623118
 10
403.1539911099489
 20
3.590552575713504
 10
403.15399110881543
 20
3.5905525760067074
 10
403.0991152358123
 20
3.355066222422851
 10
403.0556881197405
 20
3.1172022492117706
 10
403.0238113195736
 20
2.87751692681344
 10
403.00355938263124
 20
2.6365707850884545
 10
402.9949796702424
 20
2.3949273024587794
 10
402.9980922469856
 20
2.153151588152955
 10
403.01288983376594
 20
1.9118090606374936
 10
403.03933782483807
 20
1.6714641253250906
 10
403.07737436873515
 20
1.4326788546519602
 10
403.1269105129154
 20
1.1960116736111086
 10
403.1878304117872
 20
0.9620160538155222
 10
403.2599915976263
 20
0.7312392191453823
 10
403.34322531375193
 20
0.5042208660062577
 10
403.4373369091823
 20
0.2814919011911283
 10
403.54210629384716
 20
0.06357320029784042
 10
403.65728845329176
 20
-0.14902561039440343
 10
403.7826140216695
 20
-0.3558073457408115
 10
403.917789911683
 20
-0.5562884244518482
 10
404.0625
 20
-0.7500000000000022
 10
404.6875
 20
-0.75
 10
404.6875
 20
-0.7499999999999999
 10
404.6922158425801
 20
-0.666026642922519
 10
404.7063040658636
 20
-0.5831092995327641
 10
404.7295875022687
 20
-0.5022907035336246
 10
404.76177334907317
 20
-0.42458719566183134
 10
404.8024568505788
 20
-0.3509759426134975
 10
404.851126388149
 20
-0.2823826486059498
 10
404.9071699141101
 20
-0.2196699141100893
 10
404.96988264860596
 20
-0.16362638814897756
 10
405.0384759426135
 20
-0.1149568505787868
 10
405.11208719566184
 20
-0.07427334907318561
 10
405.1897907035336
 20
-0.042087502268724375
 10
405.2706092995328
 20
-0.018804065863632258
 10
405.35352664292253
 20
-0.004715842580068075
 10
405.4375
 20
0.0
 10
408.0
 20
0.0
  0
LWPOLYLINE
  5
46
330
17
100
AcDbEntity
  8
PANTRY_OUTLINE
 62
8
100
AcDbPolyline
 90
5
 70
0
 10
420.0
 20
0.0
 10
468.0
 20
0.0
 10
468.0
 20
49.0
 10
420.0
 20
49.0
 10
420.0
 20
0.0
  0
TEXT
  5
47
330
17
100
AcDbEntity
  8
LABELS
100
AcDbText
 10
444.0
 20
-3.0
 30
0.0
 40
2.0
  1
39"
 72
1
 11
444.0
 21
-3.0
 31
0.0
100
AcDbText
  0
LWPOLYLINE
  5
48
330
17
100
AcDbEntity
  8
SHELF_BACK
 62
3
100
AcDbPolyline
 90
96
 70
1
 10
420.0
 20
49.0
 10
468.0
 20
49.0
 10
468.0
 20
29.96853789321684
 10
460.9427864126735
 20
29.96853789321684
 10
460.9427864126735
 20
29.96853789321684
 10
460.8314423557008
 20
30.057895498894773
 10
460.71597315807526
 20
30.14185468609521
 10
460.5966403226414
 20
30.2202253126268
 10
460.4737141022159
 20
30.292829892699558
 10
460.34747288754676
 20
30.35950399887657
 10
460.2182025768424
 20
30.420096634452438
 10
460.08619592829837
 20
30.4744705754152
 10
459.9517518970889
 20
30.522502681217272
 10
459.8151749583233
 20
30.564084173651562
 10
459.6767744175022
 20
30.599120883201245
 10
459.53686371003386
 20
30.627533462305284
 10
459.39575969139764
 20
30.649257565056658
 10
459.25378191956224
 20
30.664243992926416
 10
459.11125193128333
 20
30.672458806183474
 10
458.96849251391995
 20
30.67388340075785
 10
458.82582697441865
 20
30.66851455037326
 10
458.68357840712116
 20
30.65636441385367
 10
458.54206896205295
 20
30.63746050758722
 10
458.40161911535114
 20
30.61184564320993
 10
458.40161911535114
 20
30.61184564320993
 10
457.82466092718124
 20
30.485858009141026
 10
457.24770273901134
 20
30.34880644474602
 10
456.6707445508415
 20
30.203811880278234
 10
456.0937863626716
 20
30.054176123526684
 10
455.5168281745017
 20
29.903306671241126
 10
454.9398699863318
 20
29.754639113814275
 10
454.3629117981619
 20
29.611558900217176
 10
453.7859536099921
 20
29.477324244752158
 10
453.2089954218222
 20
29.354991931186223
 10
452.6320372336523
 20
29.247347703848916
 10
452.0550790454824
 20
29.15684283082445
 10
451.47812085731255
 20
29.08553828381747
 10
450.90116266914265
 20
29.035057805825264
 10
450.32420448097275
 20
29.006550935356675
 10
449.74724629280286
 20
29.000666829208015
 10
449.17028810463296
 20
29.017539479902275
 10
448.5933299164631
 20
29.056784664419183
 10
448.0163717282932
 20
29.117508693699463
 10
447.4394135401233
 20
29.19832876368012
 10
446.86245535195343
 20
29.297404444428143
 10
446.2854971637836
 20
29.412479590303892
 10
445.7085389756137
 20
29.540933716778387
 10
445.1315807874438
 20
29.679841673954588
 10
444.5546225992739
 20
29.826040257910726
 10
443.977664411104
 20
29.976200242996022
 10
443.40070622293416
 20
30.12690219476359
 10
442.82374803476426
 20
30.27471433713278
 10
442.24678984659437
 20
30.41627070059448
 10
441.66983165842447
 20
30.54834777187302
 10
441.09287347025463
 20
30.667937899582995
 10
440.51591528208473
 20
30.772317784291694
 10
439.93895709391484
 20
30.859110493335383
 10
439.36199890574494
 20
30.92633958819168
 10
438.7850407175751
 20
30.97247413182264
 10
438.2080825294052
 20
30.996463551083934
 10
437.6311243412353
 20
30.997761560315396
 10
437.0541661530654
 20
30.976338601326304
 10
436.47720796489557
 20
30.932682516492772
 10
435.9002497767257
 20
30.867787439639542
 10
435.3232915885558
 20
30.78313115768234
 10
434.7463334003859
 20
30.6806414585502
 10
434.169375212216
 20
30.562652231710832
 10
433.59241702404614
 20
30.431850320975435
 10
433.01545883587625
 20
30.291214339847695
 10
432.43850064770635
 20
30.143946842710296
 10
431.86154245953645
 20
29.993401396442813
 10
431.2845842713666
 20
29.843006213191753
 10
430.7076260831967
 20
29.696186083322953
 10
430.1306678950268
 20
29.556284386294557
 10
430.1306678950268
 20
29.556284386294557
 10
430.047547956454
 20
29.535526588102037
 10
429.9650546431953
 20
29.51240379325059
 10
429.88325523139247
 20
29.48693485917684
 10
429.80221643128675
 20
29.45914055667484
 10
429.7220043328144
 20
29.42904355295679
 10
429.6426843517078
 20
29.396668393167154
 10
429.56432117614713
 20
29.36204148036523
 10
429.48697871400447
 20
29.325191053992555
 10
429.4107200407248
 20
29.286147166842653
 10
429.33560734788614
 20
29.24494166055197
 10
429.26170189247983
 20
29.201608139631894
 10
429.18906394695347
 20
29.156181944063142
 10
429.1177527500565
 20
29.108700120474765
 10
429.04782645852947
 20
29.059201391931357
 10
428.9793420996744
 20
29.007726126353063
 10
428.9123555248477
 20
28.954316303594133
 10
428.8469213639114
 20
28.899015481206924
 10
428.7830929806802
 20
28.8418687589192
 10
428.72092242940175
 20
28.782922741853742
 10
420.0
 20
28.782922741853742
 10
420.0
 20
49.0
  0
LWPOLYLINE
  5
49
330
17
100
AcDbEntity
  8
SHELF_LEFT
 62
5
100
AcDbPolyline
 90
110
 70
1
 10
420.0
 20
0.0
 10
426.0
 20
0.0
 10
426.0
 20
0.0
 10
426.08397335707747
 20
-0.004715842580068075
 10
426.16689070046726
 20
-0.018804065863632258
 10
426.2477092964664
 20
-0.042087502268724375
 10
426.32541280433816
 20
-0.07427334907318561
 10
426.3990240573865
 20
-0.1149568505787869
 10
426.46761735139404
 20
-0.16362638814897768
 10
426.5303300858899
 20
-0.2196699141100894
 10
426.586373611851
 20
-0.28238264860594986
 10
426.6350431494212
 20
-0.35097594261349757
 10
426.67572665092683
 20
-0.4245871956618314
 10
426.7079124977313
 20
-0.5022907035336247
 10
426.7311959341364
 20
-0.5831092995327642
 10
426.7452841574199
 20
-0.6660266429225191
 10
426.75
 20
-0.75
 10
427.375
 20
-0.75
 10
427.375
 20
-0.7500000000000002
 10
427.35637395652265
 20
-0.6477767842199418
 10
427.3398761471403
 20
-0.5451885898425208
 10
427.32551369660695
 20
-0.442279720668314
 10
427.31329280749935
 20
-0.33909461898470306
 10
427.30321875753816
 20
-0.23567784637302064
 10
427.2952958973088
 20
-0.13207406446413866
 10
427.28952764838255
 20
-0.028328015650888327
 10
427.28591650183887
 20
0.07551549623443342
 10
427.2844640171898
 20
0.17941162526906743
 10
427.28517082170623
 20
0.2833155028069736
 10
427.2880366101471
 20
0.3871822568558472
 10
427.29306014489134
 20
0.49096703145554754
 10
427.300239256472
 20
0.5946250060496356
 10
427.3095708445137
 20
0.6981114148416009
 10
427.321050879071
 20
0.8013815661274385
 10
427.33467440236916
 20
0.9043908615962519
 10
427.35043553094505
 20
1.0070948155904889
 10
427.36832745818805
 20
1.1094490743175627
 10
427.3883424572794
 20
1.21140943500449
 10
427.3883424571843
 20
1.211409435024199
 10
427.5046205651772
 20
1.7457212369893167
 10
427.6305760240459
 20
2.2800330389544348
 10
427.7637482650132
 20
2.8143448409195524
 10
427.9015357378084
 20
3.34865664288467
 10
428.0412467325485
 20
3.8829684448497876
 10
428.1801519629082
 20
4.417280246814906
 10
428.31553788335424
 20
4.951592048780023
 10
428.4447596988796
 20
5.4859038507451405
 10
428.5652930316805
 20
6.0202156527102595
 10
428.6747832354561
 20
6.554527454675377
 10
428.7710913939639
 20
7.088839256640494
 10
428.85233610523886
 20
7.623151058605613
 10
428.91693023521253
 20
8.15746286057073
 10
428.96361192274105
 20
8.691774662535847
 10
428.991469230352
 20
9.226086464500966
 10
428.999957959152
 20
9.760398266466083
 10
428.9889122798772
 20
10.2947100684312
 10
428.95854797240537
 20
10.82902187039632
 10
428.9094582104472
 20
11.363333672361437
 10
428.8426019737615
 20
11.897645474326554
 10
428.7592853142654
 20
12.431957276291673
 10
428.66113584201116
 20
12.96626907825679
 10
428.55007092945004
 20
13.500580880221907
 10
428.4282602551219
 20
14.034892682187026
 10
428.29808341848747
 20
14.569204484152143
 10
428.1620834539067
 20
15.10351628611726
 10
428.02291715187954
 20
15.637828088082378
 10
427.8833031580344
 20
16.172139890047497
 10
427.74596886376173
 20
16.706451692012614
 10
427.6135971259981
 20
17.24076349397773
 10
427.48877385700064
 20
17.775075295942848
 10
427.3739375079577
 20
18.309387097907965
 10
427.27133143328575
 20
18.843698899873083
 10
427.1829600661866
 20
19.3780107018382
 10
427.11054976158465
 20
19.912322503803317
 10
427.0555150713878
 20
20.446634305768438
 10
427.01893111089134
 20
20.980946107733555
 10
427.0015125561543
 20
21.515257909698672
 10
427.00359968263837
 20
22.04956971166379
 10
427.02515171784904
 20
22.583881513628906
 10
427.0657476378355
 20
23.118193315594024
 10
427.12459439198994
 20
23.652505117559144
 10
427.2005423954733
 20
24.18681691952426
 10
427.29210798661876
 20
24.72112872148938
 10
427.39750241060244
 20
25.255440523454496
 10
427.5146667631793
 20
25.789752325419613
 10
427.64131221184994
 20
26.32406412738473
 10
427.77496470872796
 20
26.85837592934985
 10
427.91301332163346
 20
27.392687731314965
 10
427.91301332163346
 20
27.392687731314965
 10
427.935815633371
 20
27.475270204961422
 10
427.9609667609574
 20
27.557167892079438
 10
427.98844619278054
 20
27.63831400228085
 10
428.0182315184163
 20
27.71864235811438
 10
428.0502984469044
 20
27.798087449035638
 10
428.0846208265587
 20
27.876584484833238
 10
428.12117066629503
 20
27.954069448467433
 10
428.15991815845865
 20
28.030479148278232
 10
428.2008317031334
 20
28.105751269520372
 10
428.2438779339127
 20
28.17982442518315
 10
428.2890217451108
 20
28.25263820605363
 10
428.3362263203929
 20
28.324133229982454
 10
428.38545316279993
 20
28.394251190312033
 10
428.43666212614426
 20
28.462934903427627
 10
428.48981144775024
 20
28.530128355392566
 10
428.5448577825133
 20
28.595776747629536
 10
428.6017562382491
 20
28.659826541610713
 10
428.6604604123047
 20
28.722225502520285
 10
428.72092242940175
 20
28.782922741853742
 10
420.0
 20
28.782922741853742
 10
420.0
 20
0.0
  0
LWPOLYLINE
  5
4A
330
17
100
AcDbEntity
  8
SHELF_RIGHT
 62
1
100
AcDbPolyline
 90
110
 70
1
 10
468.0
 20
0.0
 10
465.4375
 20
0.0
 10
465.4375
 20
0.0
 10
465.35352664292253
 20
-0.004715842580068075
 10
465.2706092995328
 20
-0.018804065863632258
 10
465.1897907035336
 20
-0.042087502268724375
 10
465.11208719566184
 20
-0.07427334907318561
 10
465.0384759426135
 20
-0.1149568505787868
 10
464.96988264860596
 20
-0.16362638814897756
 10
464.9071699141101
 20
-0.2196699141100893
 10
464.851126388149
 20
-0.2823826486059498
 10
464.8024568505788
 20
-0.3509759426134975
 10
464.76177334907317
 20
-0.42458719566183134
 10
464.7295875022687
 20
-0.5022907035336246
 10
464.7063040658636
 20
-0.5831092995327641
 10
464.6922158425801
 20
-0.666026642922519
 10
464.6875
 20
-0.7499999999999999
 10
464.0625
 20
-0.75
 10
464.0625
 20
-0.7499999999999982
 10
463.861104797406
 20
-0.5956484289294188
 10
463.66779946784874
 20
-0.4312784660877762
 10
463.4830818455061
 20
-0.25731342616339425
 10
463.3074276479689
 20
-0.07420133478932112
 10
463.1412892510886
 20
0.11758622529177343
 10
462.9850945239386
 20
0.31755532873113923
 10
462.8392457268898
 20
0.5251909796181202
 10
462.7041184756389
 20
0.7399584377889923
 10
462.58006077385534
 20
0.9613045959846955
 10
462.46739211694126
 20
1.1886594043107799
 10
462.36640266920983
 20
1.4214373383310064
 10
462.27735251660295
 20
1.6590389070137692
 10
462.2004709968715
 20
1.9008521966477379
 10
462.13595610894424
 20
2.14625444675061
 10
462.0839740030059
 20
2.3946136539123835
 10
462.04465855259735
 20
2.645290199442666
 10
462.01811100984145
 20
2.897638496630185
 10
462.00439974467986
 20
3.151008653372224
 10
462.0035600687951
 20
3.4047481458920648
 10
462.0035600692692
 20
3.4047481458816016
 10
462.0227122944239
 20
3.897988218273375
 10
462.058137714951
 20
4.391228290665149
 10
462.109246448479
 20
4.884468363056923
 10
462.175187463729
 20
5.377708435448697
 10
462.25486275136547
 20
5.87094850784047
 10
462.3469456073742
 20
6.364188580232244
 10
462.44990272452355
 20
6.857428652624018
 10
462.56201972405614
 20
7.350668725015792
 10
462.68142970247203
 20
7.843908797407566
 10
462.8061443180607
 20
8.33714886979934
 10
462.93408689954754
 20
8.830388942191114
 10
463.0631270255498
 20
9.323629014582886
 10
463.1911159990468
 20
9.816869086974659
 10
463.31592262616465
 20
10.310109159366434
 10
463.435468703509
 20
10.803349231758208
 10
463.5477636231336
 20
11.296589304149983
 10
463.65093751892226
 20
11.789829376541755
 10
463.7432724024526
 20
12.28306944893353
 10
463.8232307698853
 20
12.776309521325302
 10
463.8894812035352
 20
13.269549593717077
 10
463.94092054182113
 20
13.76278966610885
 10
463.97669224843673
 20
14.256029738500624
 10
463.996200674867
 20
14.749269810892399
 10
463.99912097876205
 20
15.242509883284171
 10
463.9854045330129
 20
15.735749955675946
 10
463.95527973546
 20
16.22899002806772
 10
463.9092482057527
 20
16.72223010045949
 10
463.84807643268636
 20
17.21547017285127
 10
463.7727830111013
 20
17.70871024524304
 10
463.6846216808662
 20
18.201950317634815
 10
463.5850604503711
 20
18.69519039002659
 10
463.475757152152
 20
19.18843046241836
 10
463.3585318376806
 20
19.681670534810134
 10
463.2353364709835
 20
20.17491060720191
 10
463.1082224257348
 20
20.668150679593683
 10
462.97930632704004
 20
21.161390751985458
 10
462.85073480669325
 20
21.65463082437723
 10
462.7246487587811
 20
22.147870896769003
 10
462.6031476908281
 20
22.641110969160778
 10
462.488254764085
 20
23.134351041552552
 10
462.38188310508883
 20
23.627591113944327
 10
462.2858039494531
 20
24.120831186336098
 10
462.2016171483395
 20
24.614071258727872
 10
462.13072452871705
 20
25.107311331119647
 10
462.07430655099984
 20
25.60055140351142
 10
462.03330265274417
 20
26.093791475903195
 10
462.0083956057106
 20
26.587031548294966
 10
462.0000001467675
 20
27.08027162068674
 10
462.00825607194724
 20
27.573511693078515
 10
462.00825607194724
 20
27.573511693078515
 10
462.0096497844606
 20
27.71627141527308
 10
462.00425007248174
 20
27.858935790034916
 10
461.99206916472696
 20
28.001181725660185
 10
461.9731346472718
 20
28.142687078083267
 10
461.9474894010775
 20
28.283131380435737
 10
461.9151915048781
 20
28.42219656880699
 10
461.8763141036499
 20
28.55956770256289
 10
461.8309452429602
 20
28.694933677591173
 10
461.7791876695706
 20
28.82798793085824
 10
461.72115859874657
 20
28.95842913468181
 10
461.6569894488006
 20
29.08596187914709
 10
461.58682554346893
 20
29.210297341120942
 10
461.5108257827977
 20
29.33115393834906
 10
461.4291622832821
 20
29.448257967154657
 10
461.34201998807447
 20
29.561344222294615
 10
461.249596248144
 20
29.67015659756923
 10
461.1521003753365
 20
29.774448665825368
 10
461.04975316834623
 20
29.873984237039526
 10
460.9427864126735
 20
29.96853789321684
 10
468.0
 20
29.96853789321684
 10
468.0
 20
0.0
  0
LWPOLYLINE
  5
4B
330
17
100
AcDbEntity
  8
PANTRY_OUTLINE
 62
8
100
AcDbPolyline
 90
5
 70
0
 10
480.0
 20
0.0
 10
528.0
 20
0.0
 10
528.0
 20
49.0
 10
480.0
 20
49.0
 10
480.0
 20
0.0
  0
TEXT
  5
4C
330
17
100
AcDbEntity
  8
LABELS
100
AcDbText
 10
504.0
 20
-3.0
 30
0.0
 40
2.0
  1
46"
 72
1
 11
504.0
 21
-3.0
 31
0.0
100
AcDbText
  0
LWPOLYLINE
  5
4D
330
17
100
AcDbEntity
  8
SHELF_RIGHT
 62
1
100
AcDbPolyline
 90
110
 70
1
 10
528.0
 20
0.0
 10
528.0
 20
29.0
 10
526.5687086434034
 20
29.0
 10
526.5687086434034
 20
29.0
 10
526.3525786722645
 20
28.99220451098776
 10
526.1375719270025
 20
28.968858557050336
 10
525.9248057960973
 20
28.93008346693933
 10
525.715386023573
 20
28.876080754514007
 10
525.5104009624532
 20
28.80713107147527
 10
525.310915918599
 20
28.723592748820796
 10
525.1179676143221
 20
28.62589993460149
 10
524.9325588005463
 20
28.514560337657237
 10
524.7556530455188
 20
28.39015258905777
 10
524.5881697271526
 20
28.253323234961254
 10
524.4309792550263
 20
28.10478337651863
 10
524.2848985468722
 20
27.94530497428614
 10
524.1506867830605
 20
27.775716836351986
 10
524.0290414611445
 20
27.596900311026744
 10
523.9205947709712
 20
27.409784706482668
 10
523.825910309195
 20
27.215342461145916
 10
523.7454801502703
 20
27.01458408994119
 10
523.6797222891438
 20
26.808552932653043
 10
523.6289784689379
 20
26.598319731696687
 10
523.6289784689382
 20
26.598319731696648
 10
523.5241221944812
 20
26.107277906458354
 10
523.4106160697985
 20
25.61623608122006
 10
523.2903333431296
 20
25.125194255981764
 10
523.1652591003601
 20
24.63415243074347
 10
523.0374575041574
 20
24.14311060550518
 10
522.909037728064
 20
23.652068780266884
 10
522.7821191477543
 20
23.16102695502859
 10
522.6587963639189
 20
22.669985129790295
 10
522.541104634024
 20
22.178943304552
 10
522.4309862834419
 20
21.687901479313705
 10
522.3302586502849
 20
21.19685965407541
 10
522.240584092968
 20
20.70581782883712
 10
522.1634425554774
 20
20.21477600359882
 10
522.1001071431169
 20
19.72373417836053
 10
522.0516231118145
 20
19.232692353122236
 10
522.0187906177429
 20
18.74165052788394
 10
522.0021515119422
 20
18.250608702645646
 10
522.001980397882
 20
17.75956687740735
 10
522.0182800995431
 20
17.26852505216906
 10
522.0507816148119
 20
16.777483226930762
 10
522.0989485549565
 20
16.28644140169247
 10
522.161985996918
 20
15.795399576454177
 10
522.2388536023227
 20
15.304357751215882
 10
522.3282827867047
 20
14.813315925977587
 10
522.4287976555897
 20
14.322274100739293
 10
522.5387393619181
 20
13.831232275500998
 10
522.6562934828255
 20
13.340190450262705
 10
522.7795199639696
 20
12.84914862502441
 10
522.9063851372156
 20
12.358106799786116
 10
523.0347952832761
 20
11.867064974547823
 10
523.1626311854063
 20
11.376023149309528
 10
523.2877831038957
 20
10.884981324071234
 10
523.4081855941555
 20
10.393939498832939
 10
523.5218515937821
 20
9.902897673594644
 10
523.6269052160399
 20
9.41185584835635
 10
523.721612708556
 20
8.920814023118055
 10
523.8044110663022
 20
8.429772197879764
 10
523.8739338266462
 20
7.938730372641469
 10
523.9290336207672
 20
7.447688547403175
 10
523.9688011092561
 20
6.95664672216488
 10
523.9925799893978
 20
6.465604896926585
 10
523.9999778264626
 20
5.974563071688291
 10
523.990872530252
 20
5.483521246449996
 10
523.9654143700152
 20
4.992479421211705
 10
523.9240234944797
 20
4.50143759597341
 10
523.8673829979272
 20
4.010395770735116
 10
523.7964276467484
 20
3.519353945496821
 10
523.7123284525258
 20
3.0283121202585264
 10
523.6164733462452
 20
2.5372702950202317
 10
523.6164733473996
 20
2.5372702947822603
 10
523.5836520777714
 20
2.3623606034728364
 10
523.5570760833107
 20
2.186393696435178
 10
523.5367790311633
 20
2.00959249302269
 10
523.5227866341513
 20
1.8321809694966453
 10
523.5151166181989
 20
1.65438387528736
 10
523.5137786998777
 20
1.476426448275898
 10
523.5187745740963
 20
1.2985341294569948
 10
523.5300979119543
 20
1.1209322773446715
 10
523.5477343687593
 20
0.943845882482338
 10
523.5716616021994
 20
0.7674992824190493
 10
523.6018493006464
 20
0.5921158775129931
 10
523.6382592215564
 20
0.41791784792223363
 10
523.6808452399154
 20
0.24512587214123682
 10
523.7295534066723
 20
0.07395884743974124
 10
523.7843220170824
 20
-0.09536638744187287
 10
523.8450816888773
 20
-0.26263532698941194
 10
523.9117554501591
 20
-0.42763607065591236
 10
523.9842588369115
 20
-0.5901595913026427
 10
524.0625
 20
-0.7499999999999978
 10
524.6875
 20
-0.75
 10
524.6875
 20
-0.7499999999999999
 10
524.69221584258
 20
-0.666026642922519
 10
524.7063040658636
 20
-0.5831092995327641
 10
524.7295875022687
 20
-0.5022907035336246
 10
524.7617733490732
 20
-0.42458719566183134
 10
524.8024568505788
 20
-0.3509759426134975
 10
524.8511263881489
 20
-0.2823826486059498
 10
524.9071699141101
 20
-0.2196699141100893
 10
524.9698826486059
 20
-0.16362638814897756
 10
525.0384759426134
 20
-0.1149568505787868
 10
525.1120871956618
 20
-0.07427334907318561
 10
525.1897907035336
 20
-0.042087502268724375
 10
525.2706092995328
 20
-0.018804065863632258
 10
525.3535266429225
 20
-0.004715842580068075
 10
525.4375
 20
0.0
 10
528.0
 20
0.0
  0
LWPOLYLINE
  5
4E
330
17
100
AcDbEntity
  8
PANTRY_OUTLINE
 62
8
100
AcDbPolyline
 90
5
 70
0
 10
540.0
 20
0.0
 10
588.0
 20
0.0
 10
588.0
 20
49.0
 10
540.0
 20
49.0
 10
540.0
 20
0.0
  0
TEXT
  5
4F
330
17
100
AcDbEntity
  8
LABELS
100
AcDbText
 10
564.0
 20
-3.0
 30
0.0
 40
2.0
  1
49"
 72
1
 11
564.0
 21
-3.0
 31
0.0
100
AcDbText
  0
LWPOLYLINE
  5
50
330
17
100
AcDbEntity
  8
SHELF_LEFT
 62
5
100
AcDbPolyline
 90
110
 70
1
 10
540.0
 20
0.0
 10
540.0
 20
29.0
 10
544.4312913565966
 20
29.0
 10
544.4312913565966
 20
29.0
 10
544.6474213277355
 20
28.99220451098776
 10
544.8624280729975
 20
28.968858557050336
 10
545.0751942039027
 20
28.93008346693933
 10
545.284613976427
 20
28.876080754514007
 10
545.4895990375468
 20
28.80713107147527
 10
545.689084081401
 20
28.723592748820796
 10
545.8820323856779
 20
28.62589993460149
 10
546.0674411994537
 20
28.514560337657237
 10
546.2443469544812
 20
28.39015258905777
 10
546.4118302728474
 20
28.253323234961254
 10
546.5690207449737
 20
28.10478337651863
 10
546.7151014531278
 20
27.94530497428614
 10
546.8493132169395
 20
27.775716836351986
 10
546.9709585388555
 20
27.59690031102674
 10
547.0794052290288
 20
27.409784706482668
 10
547.174089690805
 20
27.21534246114592
 10
547.2545198497297
 20
27.014584089941188
 10
547.3202777108562
 20
26.808552932653043
 10
547.3710215310621
 20
26.598319731696687
 10
547.3710215310618
 20
26.598319731696648
 10
547.4785279121858
 20
26.09540320894848
 10
547.5950610691151
 20
25.59248668620031
 10
547.718603791905
 20
25.089570163452137
 10
547.8470175337625
 20
24.586653640703968
 10
547.9780794296768
 20
24.0837371179558
 10
548.1095207746134
 20
23.58082059520763
 10
548.2390662952066
 20
23.07790407245946
 10
548.3644735351518
 20
22.574987549711288
 10
548.4835716725281
 20
22.07207102696312
 10
548.5942990971171
 20
21.56915450421495
 10
548.6947390972466
 20
21.06623798146678
 10
548.7831530384161
 20
20.56332145871861
 10
548.8580104593724
 20
20.06040493597044
 10
548.9180155646699
 20
19.557488413222273
 10
548.9621296551235
 20
19.0545718904741
 10
548.9895891078784
 20
18.55165536772593
 10
548.9999185948593
 20
18.048738844977763
 10
548.9929393107855
 20
17.54582232222959
 10
548.9687720683218
 20
17.042905799481424
 10
548.92783520679
 20
16.53998927673325
 10
548.8708373506398
 20
16.037072753985083
 10
548.7987651430317
 20
15.534156231236913
 10
548.7128661668662
 20
15.031239708488743
 10
548.6146273488991
 20
14.528323185740573
 10
548.5057492207715
 20
14.025406662992404
 10
548.3881164825
 20
13.522490140244233
 10
548.2637653779808
 20
13.019573617496064
 10
548.1348484472402
 20
12.516657094747895
 10
548.0035972655792
 20
12.013740571999724
 10
547.8722838146028
 20
11.510824049251555
 10
547.7431811538092
 20
11.007907526503384
 10
547.61852407352
 20
10.504991003755215
 10
547.5004704102572
 20
10.002074481007046
 10
547.3910636942043
 20
9.499157958258877
 10
547.2921977753305
 20
8.996241435510704
 10
547.2055840405063
 20
8.493324912762535
 10
547.1327217890888
 20
7.990408390014366
 10
547.074872279779
 20
7.487491867266197
 10
547.0330368980075
 20
6.984575344518028
 10
547.0079398217708
 20
6.481658821769855
 10
547.0000154859811
 20
5.978742299021686
 10
547.0094010623187
 20
5.475825776273517
 10
547.035934084766
 20
4.972909253525348
 10
547.0791552619235
 20
4.469992730777179
 10
547.1383164274263
 20
3.9670762080290096
 10
547.2123934908393
 20
3.464159685280837
 10
547.3001041648466
 20
2.961243162532668
 10
547.3999301618763
 20
2.4583266397844987
 10
547.5101434759322
 20
1.9554101170363278
 10
547.5101434761285
 20
1.9554101170811529
 10
547.5402319309587
 20
1.8142141752175238
 10
547.5662314835718
 20
1.6722084275283975
 10
547.5881204590671
 20
1.5295112591451785
 10
547.605880609386
 20
1.386241631612065
 10
547.6194971285239
 20
1.2425189837120478
 10
547.6289586648742
 20
1.0984631318950553
 10
547.634257330691
 20
0.9541941703912464
 10
547.6353887086655
 20
0.8098323710927323
 10
547.6323518556082
 20
0.6654980832871854
 10
547.6251493032354
 20
0.5213116333269261
 10
547.6137870560583
 20
0.3773932243171322
 10
547.5982745863773
 20
0.23386283590679258
 10
547.5786248263857
 20
0.09084012426594934
 10
547.5548541573883
 20
-0.051555677667386
 10
547.5269823961445
 20
-0.19320585958748593
 10
547.4950327783486
 20
-0.33399233278545637
 10
547.4590319392585
 20
-0.4737977285955868
 10
547.4190098914905
 20
-0.612505496241424
 10
547.375
 20
-0.7500000000000007
 10
546.75
 20
-0.75
 10
546.75
 20
-0.75
 10
546.74528415742
 20
-0.6660266429225191
 10
546.7311959341364
 20
-0.5831092995327642
 10
546.7079124977313
 20
-0.5022907035336247
 10
546.6757266509268
 20
-0.4245871956618314
 10
546.6350431494212
 20
-0.35097594261349757
 10
546.5863736118511
 20
-0.28238264860594986
 10
546.5303300858899
 20
-0.2196699141100894
 10
546.4676173513941
 20
-0.16362638814897768
 10
546.3990240573866
 20
-0.1149568505787869
 10
546.3254128043382
 20
-0.07427334907318561
 10
546.2477092964664
 20
-0.042087502268724375
 10
546.1668907004672
 20
-0.018804065863632258
 10
546.0839733570775
 20
-0.004715842580068075
 10
546.0
 20
0.0
 10
540.0
 20
0.0
  0
LWPOLYLINE
  5
51
330
17
100
AcDbEntity
  8
PANTRY_OUTLINE
 62
8
100
AcDbPolyline
 90
5
 70
0
 10
600.0
 20
0.0
 10
648.0
 20
0.0
 10
648.0
 20
49.0
 10
600.0
 20
49.0
 10
600.0
 20
0.0
  0
TEXT
  5
52
330
17
100
AcDbEntity
  8
LABELS
100
AcDbText
 10
624.0
 20
-3.0
 30
0.0
 40
2.0
  1
53"
 72
1
 11
624.0
 21
-3.0
 31
0.0
100
AcDbText
  0
LWPOLYLINE
  5
53
330
17
100
AcDbEntity
  8
SHELF_RIGHT
 62
1
100
AcDbPolyline
 90
110
 70
1
 10
648.0
 20
0.0
 10
648.0
 20
29.0
 10
646.971664100114
 20
29.0
 10
646.971664100114
 20
29.0
 10
646.732807266159
 20
28.990476118091063
 10
646.4954669950572
 20
28.961964941915333
 10
646.261150220618
 20
28.91464749618946
 10
646.0313446797007
 20
28.848824211423665
 10
645.8075094661947
 20
28.764913016411924
 10
645.5910657668601
 20
28.66344668469566
 10
645.3833878378517
 20
28.54506945184887
 10
645.1857942792172
 20
28.410532925062448
 10
644.9995396627687
 20
28.26069131099876
 10
644.8258065664875
 20
28.096495992216063
 10
644.6656980660352
 20
27.91898948659842
 10
644.5202307310462
 20
27.72929882814421
 10
644.3903281706669
 20
27.528628411140325
 10
644.2768151693272
 20
27.31825234315621
 10
644.1804124499736
 20
27.099506355410494
 10
644.101732098016
 20
26.873779321873414
 10
644.0412736750416
 20
26.642504440952333
 10
643.9994210469707
 20
26.407150135750193
 10
643.9764399467952
 20
26.16921073067332
 10
643.9764399467942
 20
26.16921073067337
 10
643.9391239866383
 20
25.660330533438298
 10
643.8851643661616
 20
25.151450336203226
 10
643.8155173867759
 20
24.642570138968157
 10
643.7314173697038
 20
24.133689941733085
 10
643.6343547806738
 20
23.624809744498013
 10
643.5260498150859
 20
23.11592954726294
 10
643.4084219117831
 20
22.60704935002787
 10
643.2835557357239
 20
22.0981691527928
 10
643.1536642324294
 20
21.589288955557727
 10
643.0210494089722
 20
21.080408758322655
 10
642.8880615365696
 20
20.571528561087582
 10
642.7570574978128
 20
20.06264836385251
 10
642.630359016726
 20
19.55376816661744
 10
642.5102115119254
 20
19.04488796938237
 10
642.3987443021024
 20
18.536007772147297
 10
642.2979328690927
 20
18.027127574912228
 10
642.2095638473254
 20
17.518247377677156
 10
642.1352033601258
 20
17.009367180442084
 10
642.076169264037
 20
16.50048698320701
 10
642.0335077930563
 20
15.99160678597194
 10
642.0079750167142
 20
15.482726588736869
 10
642.000023440604
 20
14.973846391501798
 10
642.0097939868334
 20
14.464966194266726
 10
642.0371134965278
 20
13.956085997031654
 10
642.0814977986452
 20
13.447205799796583
 10
642.1421602907146
 20
12.93832560256151
 10
642.2180258794298
 20
12.42944540532644
 10
642.3077500340291
 20
11.920565208091368
 10
642.4097426147945
 20
11.411685010856297
 10
642.5221960543612
 20
10.902804813621225
 10
642.6431173923994
 20
10.393924616386155
 10
642.7703635959292
 20
9.885044419151082
 10
642.9016795393027
 20
9.37616422191601
 10
643.0347379707541
 20
8.867284024680938
 10
643.1671807572069
 20
8.35840382744587
 10
643.2966606763763
 20
7.849523630210797
 10
643.4208830155047
 20
7.340643432975725
 10
643.5376462394954
 20
6.831763235740652
 10
643.6448810077017
 20
6.322883038505584
 10
643.7406868478939
 20
5.814002841270511
 10
643.8233658374511
 20
5.305122644035439
 10
643.8914526948582
 20
4.796242446800367
 10
643.9437407482136
 20
4.2873622495652945
 10
643.9793033205169
 20
3.778482052330226
 10
643.9975101527373
 20
3.2696018550951536
 10
643.998038573603
 20
2.7607216578600813
 10
643.9808792181557
 20
2.251841460625009
 10
643.94633619372
 20
1.7429612633899367
 10
643.8950216903512
 20
1.2340810661548645
 10
643.8950216905325
 20
1.234081066133693
 10
643.8838919637874
 20
1.1291699264934731
 10
643.874978213242
 20
1.024047316702581
 10
643.8682844073761
 20
0.9187600382637287
 10
643.8638135263302
 20
0.81335496599154
 10
643.8615675605797
 20
0.7078790271434812
 10
643.861547510048
 20
0.6023791805274422
 10
643.8637533836619
 20
0.49690239559525373
 10
643.8681841993472
 20
0.39149563153148326
 10
643.874837984466
 20
0.2862058163468037
 10
643.8837117766952
 20
0.1810798259852205
 10
643.8948016253452
 20
0.07616446345450112
 10
643.9081025931185
 20
-0.028493562010936335
 10
643.9236087583084
 20
-0.13284765574537316
 10
643.9413132174349
 20
-0.23685135839615434
 10
643.9612080883182
 20
-0.3404583666077916
 10
643.9832845135885
 20
-0.44362255363661407
 10
644.0075326646286
 20
-0.5462979898868097
 10
644.0339417459502
 20
-0.6484389633586765
 10
644.0625
 20
-0.7499999999999956
 10
644.6875
 20
-0.75
 10
644.6875
 20
-0.7499999999999999
 10
644.69221584258
 20
-0.666026642922519
 10
644.7063040658636
 20
-0.5831092995327641
 10
644.7295875022687
 20
-0.5022907035336246
 10
644.7617733490732
 20
-0.42458719566183134
 10
644.8024568505788
 20
-0.3509759426134975
 10
644.8511263881489
 20
-0.2823826486059498
 10
644.9071699141101
 20
-0.2196699141100893
 10
644.9698826486059
 20
-0.16362638814897756
 10
645.0384759426134
 20
-0.1149568505787868
 10
645.1120871956618
 20
-0.07427334907318561
 10
645.1897907035336
 20
-0.042087502268724375
 10
645.2706092995328
 20
-0.018804065863632258
 10
645.3535266429225
 20
-0.004715842580068075
 10
645.4375
 20
0.0
 10
648.0
 20
0.0
  0
LWPOLYLINE
  5
54
330
17
100
AcDbEntity
  8
PANTRY_OUTLINE
 62
8
100
AcDbPolyline
 90
5
 70
0
 10
660.0
 20
0.0
 10
708.0
 20
0.0
 10
708.0
 20
49.0
 10
660.0
 20
49.0
 10
660.0
 20
0.0
  0
TEXT
  5
55
330
17
100
AcDbEntity
  8
LABELS
100
AcDbText
 10
684.0
 20
-3.0
 30
0.0
 40
2.0
  1
59"
 72
1
 11
684.0
 21
-3.0
 31
0.0
100
AcDbText
  0
LWPOLYLINE
  5
56
330
17
100
AcDbEntity
  8
SHELF_BACK
 62
3
100
AcDbPolyline
 90
96
 70
1
 10
660.0
 20
49.0
 10
708.0
 20
49.0
 10
708.0
 20
28.96448044693164
 10
700.8599071932833
 20
28.96448044693164
 10
700.8599071932833
 20
28.964480446931635
 10
700.746857279123
 20
29.049529433122785
 10
700.6299235645612
 20
29.129154300736907
 10
700.5093660791674
 20
29.203177985185434
 10
700.3854529108168
 20
29.2714358774257
 10
700.2584596095329
 20
29.333776190007775
 10
700.1286685747385
 20
29.390060294609526
 10
699.9963684272738
 20
29.44016303030921
 10
699.8618533675797
 20
29.483972981910192
 10
699.7254225214747
 20
29.521392727698778
 10
699.5873792749784
 20
29.552339056084293
 10
699.4480305996609
 20
29.576743150639558
 10
699.3076863700201
 20
29.59455074313041
 10
699.1666586744025
 20
29.605722234193827
 10
699.0252611210017
 20
29.610232781396434
 10
698.883808140477
 20
29.60807235447748
 10
698.7426142867428
 20
29.599245757653474
 10
698.6019935374844
 20
29.58377261893488
 10
698.4622585959546
 20
29.561687346478642
 10
698.3237201956048
 20
29.533039052073544
 10
698.3237201956048
 20
29.533039052073544
 10
697.7463169570642
 20
29.405201712534467
 10
697.1689137185236
 20
29.290929949310993
 10
696.591510479983
 20
29.19282996076885
 10
696.0141072414424
 20
29.113139115288497
 10
695.4367040029018
 20
29.0536749235602
 10
694.8593007643611
 20
29.015793586581733
 10
694.2818975258206
 20
29.000359064755383
 10
693.7044942872799
 20
29.007723373525952
 10
693.1270910487393
 20
29.037718554957543
 10
692.5496878101987
 20
29.08966050835352
 10
691.9722845716581
 20
29.162364592554656
 10
691.3948813331175
 20
29.25417264407347
 10
690.8174780945769
 20
29.362990794861734
 10
690.2400748560362
 20
29.48633722720049
 10
689.6626716174957
 20
29.621398776565872
 10
689.085268378955
 20
29.765095091528114
 10
688.5078651404144
 20
29.914148887387555
 10
687.9304619018739
 20
30.065160691271682
 10
687.3530586633332
 20
30.21468637398019
 10
686.7756554247926
 20
30.35931570030785
 10
686.1982521862519
 20
30.49575010634633
 10
685.6208489477114
 20
30.620877929896537
 10
685.0434457091708
 20
30.731845378209997
 10
684.4660424706301
 20
30.826121614496543
 10
683.8886392320895
 20
30.901556478769095
 10
683.311235993549
 20
30.95642952658504
 10
682.7338327550083
 20
30.989489267256683
 10
682.1564295164677
 20
30.99998170662415
 10
681.579026277927
 20
30.9876675434151
 10
681.0016230393865
 20
30.952827626993585
 10
680.4242198008459
 20
30.896256552023047
 10
679.8468165623052
 20
30.819244536130103
 10
679.2694133237646
 20
30.723547993885596
 10
678.6920100852241
 20
30.6113494782227
 10
678.1146068466834
 20
30.485207902908986
 10
677.5372036081428
 20
30.348000181349466
 10
676.9598003696021
 20
30.202855612765624
 10
676.3823971310616
 20
30.05308451220614
 10
675.804993892521
 20
29.902102712126016
 10
675.2275906539803
 20
29.753353657428203
 10
674.6501874154397
 20
29.61022987074752
 10
674.0727841768991
 20
29.475995579119772
 10
673.4953809383585
 20
29.35371226669113
 10
672.9179776998179
 20
29.24616885138862
 10
672.3405744612772
 20
29.155818078013755
 10
671.7631712227367
 20
29.084720578443285
 10
671.1857679841961
 20
29.034497874757207
 10
670.6083647456554
 20
29.006295397152602
 10
670.0309615071149
 20
29.000756360094428
 10
670.0309615071149
 20
29.000756360094428
 10
669.9068367122117
 20
28.999451758726384
 10
669.7828721419505
 20
28.993013434841938
 10
669.6592800328585
 20
28.98145241132852
 10
669.536271983782
 20
28.964788481514784
 10
669.4140585936127
 20
28.943050175283
 10
669.2928491007282
 20
28.916274710223735
 10
669.1728510247589
 20
28.884507927916633
 10
669.0542698113001
 20
28.84780421544619
 10
668.9373084801733
 20
28.806226412287064
 10
668.8221672778418
 20
28.75984570271823
 10
668.709043334573
 20
28.70874149395022
 10
668.5981303269378
 20
28.653001280174102
 10
668.4896181462216
 20
28.592720492764936
 10
668.3836925733158
 20
28.528002336896193
 10
668.2805349606479
 20
28.458957614844866
 10
668.1803219216926
 20
28.385704536289737
 10
668.0832250285958
 20
28.308368515927672
 10
667.9894105184314
 20
28.22708195875437
 10
667.8990390085902
 20
28.141984033377184
 10
660.0
 20
28.141984033377184
 10
660.0
 20
49.0
  0
LWPOLYLINE
  5
57
330
17
100
AcDbEntity
  8
SHELF_RIGHT
 62
1
100
AcDbPolyline
 90
110
 70
1
 10
708.0
 20
0.0
 10
705.4375
 20
0.0
 10
705.4375
 20
0.0
 10
705.3535266429225
 20
-0.004715842580068075
 10
705.2706092995328
 20
-0.018804065863632258
 10
705.1897907035336
 20
-0.042087502268724375
 10
705.1120871956618
 20
-0.07427334907318561
 10
705.0384759426134
 20
-0.1149568505787868
 10
704.9698826486059
 20
-0.16362638814897756
 10
704.9071699141101
 20
-0.2196699141100893
 10
704.8511263881489
 20
-0.2823826486059498
 10
704.8024568505788
 20
-0.3509759426134975
 10
704.7617733490732
 20
-0.42458719566183134
 10
704.7295875022687
 20
-0.5022907035336246
 10
704.7063040658636
 20
-0.5831092995327641
 10
704.69221584258
 20
-0.666026642922519
 10
704.6875
 20
-0.7499999999999999
 10
704.0625
 20
-0.75
 10
704.0625
 20
-0.7499999999999991
 10
703.8550224528735
 20
-0.5895435997764182
 10
703.6562445180892
 20
-0.4184280786300394
 10
703.4667131783681
 20
-0.2371242998558989
 10
703.2869499723204
 20
-0.04613116205830181
 10
703.1174495593142
 20
0.1540257736822026
 10
702.9586783583069
 20
0.36279573000973864
 10
702.8110732643876
 20
0.5796042288823315
 10
702.6750404465608
 20
0.8038546723789559
 10
702.5509542300803
 20
1.0349299843744935
 10
702.4391560664071
 20
1.2721943085650946
 10
702.3399535936294
 20
1.5149947581715058
 10
702.253619789925
 20
1.7626632125055988
 10
702.1803922224008
 20
2.0145181554564955
 10
702.1204723933724
 20
2.2698665508372127
 10
702.0740251858845
 20
2.5280057494314523
 10
702.0411784099978
 20
2.7882254224928076
 10
702.0220224510908
 20
3.04980951637594
 10
702.0166100211436
 20
3.3120382229211467
 10
702.0249560136887
 20
3.5741899601702873
 10
702.0249560152309
 20
3.574189960080651
 10
702.0596214767401
 20
4.044693720611277
 10
702.1085370071617
 20
4.515197481141904
 10
702.1709613627709
 20
4.98570124167253
 10
702.2459485932429
 20
5.456205002203156
 10
702.3323623761554
 20
5.9267087627337816
 10
702.4288932363012
 20
6.3972125232644075
 10
702.534078388881
 20
6.867716283795034
 10
702.6463239058801
 20
7.33822004432566
 10
702.7639288697287
 20
7.808723804856286
 10
702.8851111482345
 20
8.279227565386911
 10
703.0080344002042
 20
8.749731325917539
 10
703.1308359025234
 20
9.220235086448165
 10
703.2516547770165
 20
9.69073884697879
 10
703.3686601893495
 20
10.161242607509418
 10
703.4800790926613
 20
10.631746368040044
 10
703.5842230955107
 20
11.10225012857067
 10
703.6795140469926
 20
11.572753889101296
 10
703.7645079513204
 20
12.043257649631922
 10
703.8379168494823
 20
12.513761410162548
 10
703.8986283363862
 20
12.984265170693174
 10
703.9457224177418
 20
13.4547689312238
 10
703.9784854512357
 20
13.925272691754426
 10
703.9964209607433
 20
14.395776452285052
 10
703.9992571597019
 20
14.866280212815678
 10
703.9869510696408
 20
15.336783973346304
 10
703.9596891714582
 20
15.80728773387693
 10
703.9178845795735
 20
16.277791494407555
 10
703.8621707817797
 20
16.748295254938185
 10
703.7933920396567
 20
17.21879901546881
 10
703.7125905950156
 20
17.689302775999437
 10
703.620990876239
 20
18.159806536530063
 10
703.51998094385
 20
18.63031029706069
 10
703.4110914564735
 20
19.100814057591315
 10
703.2959724759312
 20
19.57131781812194
 10
703.1763684629535
 20
20.041821578652566
 10
703.0540918424153
 20
20.512325339183192
 10
702.930995538672
 20
20.98282909971382
 10
702.8089448971858
 20
21.453332860244444
 10
702.6897894179282
 20
21.92383662077507
 10
702.5753347288977
 20
22.394340381305696
 10
702.4673152244533
 20
22.864844141836326
 10
702.3673677830901
 20
23.33534790236695
 10
702.2770069629271
 20
23.805851662897577
 10
702.1976020507806
 20
24.276355423428203
 10
702.1303563126143
 20
24.74685918395883
 10
702.0762887597934
 20
25.217362944489455
 10
702.0362187074498
 20
25.68786670502008
 10
702.0107533589522
 20
26.158370465550707
 10
702.0002786046225
 20
26.628874226081333
 10
702.0002786046225
 20
26.628874226081333
 10
701.9960691268791
 20
26.770281062694433
 10
701.9851979328835
 20
26.911332224635434
 10
701.967689197288
 20
27.051714051527824
 10
701.9435818548773
 20
27.191114371418738
 10
701.9129295139874
 20
27.32922319496657
 10
701.8758003372952
 20
27.465733404775076
 10
701.832276890243
 20
27.600341438340994
 10
701.7824559574341
 20
27.732747963096575
 10
701.7264483274104
 20
27.862658542045793
 10
701.6643785462874
 20
27.989784288514162
 10
701.596384640797
 20
28.11384250855608
 10
701.5226178113528
 20
28.234557329591187
 10
701.4432420958199
 20
28.351660313871825
 10
701.3584340047387
 20
28.4648910554174
 10
701.2683821288122
 20
28.57399775908821
 10
701.17328671953
 20
28.678737800511076
 10
701.0733592438627
 20
28.77887826561158
 10
700.9688219140146
 20
28.874196468553222
 10
700.8599071932833
 20
28.964480446931635
 10
708.0
 20
28.96448044693164
 10
708.0
 20
0.0
  0
LWPOLYLINE
  5
58
330
17
100
AcDbEntity
  8
SHELF_LEFT
 62
5
100
AcDbPolyline
 90
110
 70
1
 10
660.0
 20
0.0
 10
666.0
 20
0.0
 10
666.0
 20
0.0
 10
666.0839733570775
 20
-0.004715842580068075
 10
666.1668907004672
 20
-0.018804065863632258
 10
666.2477092964664
 20
-0.042087502268724375
 10
666.3254128043382
 20
-0.07427334907318561
 10
666.3990240573866
 20
-0.1149568505787869
 10
666.4676173513941
 20
-0.16362638814897768
 10
666.5303300858899
 20
-0.2196699141100894
 10
666.5863736118511
 20
-0.28238264860594986
 10
666.6350431494212
 20
-0.35097594261349757
 10
666.6757266509268
 20
-0.4245871956618314
 10
666.7079124977313
 20
-0.5022907035336247
 10
666.7311959341364
 20
-0.5831092995327642
 10
666.74528415742
 20
-0.6660266429225191
 10
666.75
 20
-0.75
 10
667.375
 20
-0.75
 10
667.375
 20
-0.7500000000000004
 10
667.3484153085317
 20
-0.679912998519707
 10
667.3228843130631
 20
-0.6094353292382515
 10
667.298412751873
 20
-0.5385828325293807
 10
667.2750061251244
 20
-0.46737143301206374
 10
667.2526696936286
 20
-0.3958171359713105
 10
667.2314084776626
 20
-0.3239360237608684
 10
667.2112272558409
 20
-0.25174425218858887
 10
667.1921305640411
 20
-0.17925804688530267
 10
667.1741226943852
 20
-0.10649369965798172
 10
667.157207694274
 20
-0.03346756482803959
 10
667.1413893654781
 20
0.03980394444442936
 10
667.1266712632828
 20
0.11330435984961751
 10
667.11305669569
 20
0.1870171616293841
 10
667.1005487226736
 20
0.26092578229018915
 10
667.0891501554923
 20
0.33501361032676746
 10
667.078863556058
 20
0.4092639939556737
 10
667.0696912363592
 20
0.4836602448579017
 10
667.0616352579423
 20
0.5581856419297017
 10
667.0546974314476
 20
0.6328234350407806
 10
667.0546974319049
 20
0.6328234350798323
 10
667.0192637926275
 20
1.1510617610472076
 10
667.0018554418248
 20
1.6693000870145829
 10
667.0027923335706
 20
2.187538412981958
 10
667.022057248409
 20
2.7057767389493335
 10
667.0592961098363
 20
3.2240150649167085
 10
667.1138244919949
 20
3.742253390884084
 10
667.1846401989723
 20
4.26049171685146
 10
667.2704416845041
 20
4.778730042818834
 10
667.369651973542
 20
5.29696836878621
 10
667.4804476460203
 20
5.815206694753584
 10
667.6007923501217
 20
6.33344502072096
 10
667.7284742290883
 20
6.851683346688336
 10
667.8611465736993
 20
7.36992167265571
 10
667.9963709532469
 20
7.888159998623086
 10
668.1316620322945
 20
8.406398324590462
 10
668.2645332495122
 20
8.924636650557837
 10
668.3925425190444
 20
9.442874976525212
 10
668.513337114446
 20
9.961113302492587
 10
668.624696910252
 20
10.479351628459963
 10
668.7245751864284
 20
10.997589954427337
 10
668.811136245744
 20
11.515828280394713
 10
668.8827891526819
 20
12.034066606362089
 10
668.9382169737918
 20
12.552304932329463
 10
668.9764009820626
 20
13.070543258296839
 10
668.9966393804576
 20
13.588781584264215
 10
668.9985602004837
 20
14.107019910231589
 10
668.9821281387281
 20
14.625258236198965
 10
668.9476452057121
 20
15.14349656216634
 10
668.8957451751361
 20
15.661734888133715
 10
668.8273819355338
 20
16.179973214101093
 10
668.743811958427
 20
16.698211540068467
 10
668.6465712052026
 20
17.21644986603584
 10
668.537446897149
 20
17.734688192003215
 10
668.4184446675015
 20
18.252926517970593
 10
668.2917516992173
 20
18.771164843937967
 10
668.1596965259878
 20
19.28940316990534
 10
668.0247062353151
 20
19.80764149587272
 10
667.8892618602359
 20
20.325879821840093
 10
667.7558527795604
 20
20.844118147807468
 10
667.6269309647222
 20
21.36235647377484
 10
667.5048659141506
 20
21.88059479974222
 10
667.3919011034438
 20
22.398833125709594
 10
667.2901127517574
 20
22.917071451676968
 10
667.201371662258
 20
23.435309777644346
 10
667.127308837988
 20
23.95354810361172
 10
667.0692855050983
 20
24.471786429579094
 10
667.0283680944045
 20
24.99002475554647
 10
667.0053086410878
 20
25.508263081513846
 10
667.0005309627815
 20
26.026501407481224
 10
667.0005309627815
 20
26.026501407481224
 10
667.0041575801919
 20
26.150580069388234
 10
667.0129140239405
 20
26.27440248814733
 10
667.0267853023471
 20
26.39775667060518
 10
667.0457476667553
 20
26.520431425263688
 10
667.0697686521927
 20
26.642216723855483
 10
667.0988071329527
 20
26.762904060927863
 10
667.1328133930054
 20
26.882286810819586
 10
667.1717292111142
 20
27.0001605814193
 10
667.2154879605159
 20
27.116323564099993
 10
667.26401472299
 20
27.230576879230277
 10
667.3172264171244
 20
27.3427249166711
 10
667.3750319405569
 20
27.452575670674744
 10
667.4373323259493
 20
27.559941068612932
 10
667.504020910427
 20
27.66463729297106
 10
667.574983518193
 20
27.766485096057437
 10
667.6500986560062
 20
27.86531010688858
 10
667.7292377211865
 20
27.960943129725266
 10
667.8122652217916
 20
28.053220433748177
 10
667.8990390085902
 20
28.141984033377184
 10
660.0
 20
28.141984033377184
 10
660.0
 20
0.0
  0
LWPOLYLINE
  5
59
330
17
100
AcDbEntity
  8
PANTRY_OUTLINE
 62
8
100
AcDbPolyline
 90
5
 70
0
 10
720.0
 20
0.0
 10
768.0
 20
0.0
 10
768.0
 20
49.0
 10
720.0
 20
49.0
 10
720.0
 20
0.0
  0
TEXT
  5
5A
330
17
100
AcDbEntity
  8
LABELS
100
AcDbText
 10
744.0
 20
-3.0
 30
0.0
 40
2.0
  1
66"
 72
1
 11
744.0
 21
-3.0
 31
0.0
100
AcDbText
  0
LWPOLYLINE
  5
5B
330
17
100
AcDbEntity
  8
SHELF_RIGHT
 62
1
100
AcDbPolyline
 90
110
 70
1
 10
768.0
 20
0.0
 10
768.0
 20
29.0
 10
766.8877334383675
 20
29.0
 10
766.8877334383675
 20
29.0
 10
766.622632272541
 20
28.988263939460072
 10
766.3596052689354
 20
28.95314758125162
 10
766.1007103614427
 20
28.894925677178563
 10
765.847973154268
 20
28.8140537577682
 10
765.6033710735207
 20
28.71116456818198
 10
765.368817895753
 20
28.58706311759184
 10
765.1461487744939
 20
28.44272038075591
 10
764.9371058819353
 20
28.279265701072877
 10
764.7433247781054
 20
28.097977954553595
 10
764.5663216141816
 20
27.900275543843595
 10
764.4074812700624
 20
27.687705300583534
 10
764.2680465190108
 20
27.461930382936
 10
764.1491083041467
 20
27.224717262968937
 10
764.0515972028635
 20
26.977921905706875
 10
763.9762761459532
 20
26.723475247985682
 10
763.9237344484051
 20
26.463368090724824
 10
763.8943831985813
 20
26.19963552282062
 10
763.888452041845
 20
25.934340998528587
 10
763.905987383806
 20
25.669560192914062
 10
763.9059873838061
 20
25.669560192914073
 10
763.9553087393347
 20
25.146274213150928
 10
763.9867289889065
 20
24.622988233387787
 10
763.9996593624269
 20
24.099702253624642
 10
763.9938575633723
 20
23.5764162738615
 10
763.9694323090772
 20
23.053130294098356
 10
763.9268412935278
 20
22.529844314335215
 10
763.8668826108386
 20
22.00655833457207
 10
763.7906798001205
 20
21.48327235480893
 10
763.6996607919815
 20
20.959986375045784
 10
763.5955311511691
 20
20.436700395282642
 10
763.4802421167506
 20
19.913414415519497
 10
763.3559540387108
 20
19.390128435756353
 10
763.2249958961147
 20
18.86684245599321
 10
763.0898216554024
 20
18.34355647623007
 10
762.9529642866034
 20
17.820270496466925
 10
762.8169882991367
 20
17.29698451670378
 10
762.6844416866077
 20
16.77369853694064
 10
762.557808181089
 20
16.250412557177498
 10
762.4394607115685
 20
15.727126577414353
 10
762.3316169386878
 20
15.20384059765121
 10
762.2362976989842
 20
14.680554617888067
 10
762.155289137334
 20
14.157268638124924
 10
762.0901092371757
 20
13.63398265836178
 10
762.0419793756951
 20
13.110696678598636
 10
762.0118014369785
 20
12.587410698835493
 10
762.0001409120097
 20
12.06412471907235
 10
762.0072163021844
 20
11.540838739309207
 10
762.0328950249102
 20
11.017552759546064
 10
762.0766958980128
 20
10.49426677978292
 10
762.1377981563949
 20
9.970980800019777
 10
762.2150568319886
 20
9.447694820256636
 10
762.3070242088032
 20
8.924408840493491
 10
762.4119769510322
 20
8.401122860730347
 10
762.5279483958767
 20
7.877836880967205
 10
762.6527654059656
 20
7.35455090120406
 10
762.784089090812
 20
6.831264921440919
 10
762.9194586342416
 20
6.307978941677774
 10
763.0563374065339
 20
5.784692961914633
 10
763.1921604971999
 20
5.261406982151488
 10
763.3243827776989
 20
4.738121002388347
 10
763.4505265934723
 20
4.214835022625202
 10
763.5682281916107
 20
3.6915490428620608
 10
763.6752820141694
 20
3.168263063098916
 10
763.769682027139
 20
2.6449770833357746
 10
763.8496593106247
 20
2.12169110357263
 10
763.913715205851
 20
1.5984051238094885
 10
763.9606493978614
 20
1.0751191440463437
 10
763.989582407688
 20
0.5518331642831988
 10
763.9999720725167
 20
0.028547184520057965
 10
763.9999720723246
 20
0.028547184519682866
 10
764.0002219143876
 20
-0.01260196134425895
 10
764.0008104018052
 20
-0.053747657461200596
 10
764.0017374947176
 20
-0.09488711692678237
 10
764.0030031303305
 20
-0.13601755325906245
 10
764.004607222919
 20
-0.17713618058726582
 10
764.006549663834
 20
-0.2182402138404696
 10
764.0088303215088
 20
-0.2593268689362453
 10
764.0114490414684
 20
-0.30039336296923425
 10
764.0144056463403
 20
-0.34143691439963203
 10
764.017699935866
 20
-0.38245474324160256
 10
764.0213316869148
 20
-0.4234440712515651
 10
764.0253006534987
 20
-0.4644021221163759
 10
764.0296065667893
 20
-0.5053261216413667
 10
764.0342491351362
 20
-0.5462132979382611
 10
764.039228044086
 20
-0.5870608816129129
 10
764.0445429564045
 20
-0.6278661059528866
 10
764.0501935120988
 20
-0.6686262071148559
 10
764.0561793284422
 20
-0.7093384243117977
 10
764.0625
 20
-0.7500000000000001
 10
764.6875
 20
-0.75
 10
764.6875
 20
-0.7499999999999999
 10
764.69221584258
 20
-0.666026642922519
 10
764.7063040658636
 20
-0.5831092995327641
 10
764.7295875022687
 20
-0.5022907035336246
 10
764.7617733490732
 20
-0.42458719566183134
 10
764.8024568505788
 20
-0.3509759426134975
 10
764.8511263881489
 20
-0.2823826486059498
 10
764.9071699141101
 20
-0.2196699141100893
 10
764.9698826486059
 20
-0.16362638814897756
 10
765.0384759426134
 20
-0.1149568505787868
 10
765.1120871956618
 20
-0.07427334907318561
 10
765.1897907035336
 20
-0.042087502268724375
 10
765.2706092995328
 20
-0.018804065863632258
 10
765.3535266429225
 20
-0.004715842580068075
 10
765.4375
 20
0.0
 10
768.0
 20
0.0
  0
LWPOLYLINE
  5
5C
330
17
100
AcDbEntity
  8
PANTRY_OUTLINE
 62
8
100
AcDbPolyline
 90
5
 70
0
 10
780.0
 20
0.0
 10
828.0
 20
0.0
 10
828.0
 20
49.0
 10
780.0
 20
49.0
 10
780.0
 20
0.0
  0
TEXT
  5
5D
330
17
100
AcDbEntity
  8
LABELS
100
AcDbText
 10
804.0
 20
-3.0
 30
0.0
 40
2.0
  1
69"
 72
1
 11
804.0
 21
-3.0
 31
0.0
100
AcDbText
  0
LWPOLYLINE
  5
5E
330
17
100
AcDbEntity
  8
SHELF_LEFT
 62
5
100
AcDbPolyline
 90
110
 70
1
 10
780.0
 20
0.0
 10
780.0
 20
29.0
 10
784.1122665616325
 20
29.0
 10
784.1122665616325
 20
29.0
 10
784.377367727459
 20
28.988263939460072
 10
784.6403947310646
 20
28.95314758125162
 10
784.8992896385573
 20
28.894925677178563
 10
785.152026845732
 20
28.8140537577682
 10
785.3966289264793
 20
28.71116456818198
 10
785.631182104247
 20
28.58706311759184
 10
785.8538512255061
 20
28.442720380755915
 10
786.0628941180647
 20
28.279265701072877
 10
786.2566752218946
 20
28.097977954553592
 10
786.4336783858184
 20
27.900275543843595
 10
786.5925187299376
 20
27.68770530058353
 10
786.7319534809892
 20
27.461930382936
 10
786.8508916958533
 20
27.224717262968937
 10
786.9484027971365
 20
26.977921905706875
 10
787.0237238540468
 20
26.723475247985682
 10
787.0762655515949
 20
26.463368090724824
 10
787.1056168014187
 20
26.19963552282062
 10
787.111547958155
 20
25.934340998528587
 10
787.094012616194
 20
25.669560192914062
 10
787.0940126161939
 20
25.669560192914073
 10
787.0470790674859
 20
25.176736014599914
 10
787.0159862634952
 20
24.683911836285752
 10
787.0012510709981
 20
24.191087657971593
 10
787.0031184383579
 20
23.698263479657435
 10
787.0215573236605
 20
23.205439301343272
 10
787.0562612107357
 20
22.712615123029114
 10
787.1066532044841
 20
22.219790944714955
 10
787.171895620811
 20
21.726966766400793
 10
787.2509039117477
 20
21.234142588086634
 10
787.3423646942792
 20
20.741318409772475
 10
787.4447575831791
 20
20.248494231458313
 10
787.5563804649158
 20
19.755670053144154
 10
787.6753777924927
 20
19.262845874829992
 10
787.7997714308685
 20
18.770021696515833
 10
787.9274935402019
 20
18.277197518201675
 10
788.056420950291
 20
17.784373339887516
 10
788.1844104547891
 20
17.291549161573354
 10
788.3093344384893
 20
16.798724983259195
 10
788.4291162454304
 20
16.305900804945033
 10
788.5417646998907
 20
15.813076626630874
 10
788.6454072064124
 20
15.320252448316715
 10
788.7383208786243
 20
14.827428270002555
 10
788.8189611793961
 20
14.334604091688394
 10
788.8859875962312
 20
13.841779913374236
 10
788.9382859250836
 20
13.348955735060075
 10
788.97498679217
 20
12.856131556745915
 10
788.9954801058797
 20
12.363307378431754
 10
788.9994251985457
 20
11.870483200117596
 10
788.986756489485
 20
11.377659021803435
 10
788.9576845751689
 20
10.884834843489275
 10
788.9126927284038
 20
10.392010665175116
 10
788.8525288647143
 20
9.899186486860955
 10
788.7781931094759
 20
9.406362308546797
 10
788.6909211724754
 20
8.913538130232634
 10
788.5921638062653
 20
8.420713951918476
 10
788.483562689786
 20
7.927889773604317
 10
788.3669231381518
 20
7.435065595290155
 10
788.2441840922534
 20
6.942241416975996
 10
788.1173858870507
 20
6.449417238661837
 10
787.9886363343575
 20
5.956593060347675
 10
787.8600756839336
 20
5.463768882033516
 10
787.7338410453485
 20
4.970944703719358
 10
787.6120308620472
 20
4.4781205254051955
 10
787.4966700281753
 20
3.9852963470910368
 10
787.3896762280418
 20
3.492472168776878
 10
787.2928280577676
 20
2.999647990462716
 10
787.2077354590479
 20
2.506823812148557
 10
787.1358129565173
 20
2.0139996338343984
 10
787.0782561436013
 20
1.5211754555202366
 10
787.0782561435736
 20
1.521175455523041
 10
787.0674435941588
 20
1.4000287082113336
 10
787.0595810006628
 20
1.2786548014909427
 10
787.0546730156794
 20
1.1571255568933652
 10
787.0527225434491
 20
1.0355128878693953
 10
787.0537307381402
 20
0.9138887572352167
 10
787.0576970031655
 20
0.7923251345892806
 10
787.0646189915361
 20
0.6708939537251728
 10
787.0744926072497
 20
0.5496670700656678
 10
787.0873120077143
 20
0.42871621814315874
 10
787.103069607206
 20
0.3081129691516127
 10
787.1217560813568
 20
0.18792868859520073
 10
787.1433603726734
 20
0.06823449405862214
 10
787.1678696970795
 20
-0.05089878687585925
 10
787.1952695514807
 20
-0.16940065853977404
 10
787.2255437223466
 20
-0.28720099889340145
 10
787.2586742953056
 20
-0.40423010101963075
 10
787.2946416657442
 20
-0.5204187143721835
 10
787.3334245504088
 20
-0.6356980857537782
 10
787.375
 20
-0.7499999999999998
 10
786.75
 20
-0.75
 10
786.75
 20
-0.75
 10
786.74528415742
 20
-0.6660266429225191
 10
786.7311959341364
 20
-0.5831092995327642
 10
786.7079124977313
 20
-0.5022907035336247
 10
786.6757266509268
 20
-0.4245871956618314
 10
786.6350431494212
 20
-0.35097594261349757
 10
786.5863736118511
 20
-0.28238264860594986
 10
786.5303300858899
 20
-0.2196699141100894
 10
786.4676173513941
 20
-0.16362638814897768
 10
786.3990240573866
 20
-0.1149568505787869
 10
786.3254128043382
 20
-0.07427334907318561
 10
786.2477092964664
 20
-0.042087502268724375
 10
786.1668907004672
 20
-0.018804065863632258
 10
786.0839733570775
 20
-0.004715842580068075
 10
786.0
 20
0.0
 10
780.0
 20
0.0
  0
LWPOLYLINE
  5
5F
330
17
100
AcDbEntity
  8
PANTRY_OUTLINE
 62
8
100
AcDbPolyline
 90
5
 70
0
 10
840.0
 20
0.0
 10
888.0
 20
0.0
 10
888.0
 20
49.0
 10
840.0
 20
49.0
 10
840.0
 20
0.0
  0
TEXT
  5
60
330
17
100
AcDbEntity
  8
LABELS
100
AcDbText
 10
864.0
 20
-3.0
 30
0.0
 40
2.0
  1
73"
 72
1
 11
864.0
 21
-3.0
 31
0.0
100
AcDbText
  0
LWPOLYLINE
  5
61
330
17
100
AcDbEntity
  8
SHELF_RIGHT
 62
1
100
AcDbPolyline
 90
110
 70
1
 10
888.0
 20
0.0
 10
888.0
 20
29.0
 10
886.347718630677
 20
29.0
 10
886.347718630677
 20
29.0
 10
886.063446252298
 20
28.986501166062176
 10
885.7817321043382
 20
28.946126143260486
 10
885.5051113951317
 20
28.879238275413623
 10
885.2360734960237
 20
28.78643950133527
 10
884.9770395389626
 20
28.6685649378527
 10
884.7303406281954
 20
28.52667536440455
 10
884.4981968621419
 20
28.36204767685047
 10
884.2826973542335
 20
28.176163396401037
 10
884.0857814325177
 20
27.97069533707854
 10
883.9092211872123
 20
27.7474925516912
 10
883.7546055232717
 20
27.508563691795278
 10
883.623325861477
 20
27.256058931392573
 10
883.516563616731
 20
26.99225061703588
 10
883.4352795662419
 20
26.719512818476467
 10
883.380205203276
 20
26.440299963881888
 10
883.3518361542866
 20
26.157124751890457
 10
883.3504277186612
 20
25.872535539276836
 10
883.3759925712257
 20
25.589093407722064
 10
883.4283006481802
 20
25.309349116069374
 10
883.4283006481803
 20
25.309349116069402
 10
883.5437906118603
 20
24.803862868916394
 10
883.6497711617682
 20
24.298376621763385
 10
883.7443889873117
 20
23.79289037461038
 10
883.8259894809385
 20
23.28740412745737
 10
883.8931456727064
 20
22.781917880304363
 10
883.9446831840937
 20
22.276431633151354
 10
883.9797007646746
 20
21.770945385998346
 10
883.9975860525292
 20
21.265459138845337
 10
883.9980262827827
 20
20.759972891692332
 10
883.9810137570094
 20
20.254486644539323
 10
883.9468459778569
 20
19.749000397386315
 10
883.8961204465375
 20
19.243514150233306
 10
883.8297242141615
 20
18.7380279030803
 10
883.7488183696348
 20
18.232541655927292
 10
883.6548177353826
 20
17.727055408774284
 10
883.5493661259659
 20
17.221569161621275
 10
883.4343076022511
 20
16.716082914468267
 10
883.3116542238181
 20
16.210596667315258
 10
883.183550863529
 20
15.705110420162251
 10
883.0522376995555
 20
15.199624173009244
 10
882.9200110407758
 20
14.694137925856236
 10
882.7891831705994
 20
14.188651678703227
 10
882.6620419114405
 20
13.68316543155022
 10
882.5408106169476
 20
13.177679184397212
 10
882.4276092916156
 20
12.672192937244203
 10
882.3244175176931
 20
12.166706690091196
 10
882.2330398376907
 20
11.661220442938188
 10
882.1550741978581
 20
11.155734195785179
 10
882.0918840044641
 20
10.650247948632172
 10
882.0445742815422
 20
10.144761701479164
 10
882.013972347036
 20
9.639275454326157
 10
882.0006133452658
 20
9.133789207173148
 10
882.0047308887156
 20
8.62830296002014
 10
882.026252972787
 20
8.122816712867131
 10
882.0648032349645
 20
7.617330465714126
 10
882.1197075363681
 20
7.111844218561117
 10
882.1900057506025
 20
6.606357971408109
 10
882.2744685537479
 20
6.1008717242551
 10
882.3716189218799
 20
5.595385477102091
 10
882.4797579601877
 20
5.089899229949086
 10
882.5969946120076
 20
4.584412982796078
 10
882.7212787282436
 20
4.078926735643069
 10
882.8504369188797
 20
3.5734404884900606
 10
882.9822105596401
 20
3.067954241337052
 10
883.1142952891641
 20
2.5624679941840434
 10
883.2443813059978
 20
2.0569817470310383
 10
883.3701937607171
 20
1.5514954998780297
 10
883.4895325368371
 20
1.046009252725021
 10
883.6003107248445
 20
0.5405230055720116
 10
883.600310725079
 20
0.5405230056211183
 10
883.6156549867043
 20
0.46979414372282524
 10
883.6320214023644
 20
0.39929479118186917
 10
883.649406542956
 20
0.3290397190741141
 10
883.6678067659316
 20
0.25904364729361506
 10
883.6872182160631
 20
0.1893212414684835
 10
883.7076368262493
 20
0.11988710988814155
 10
883.7290583183682
 20
0.05075580044258121
 10
883.7514782041728
 20
-0.018058202425722536
 10
883.7748917862325
 20
-0.08654048075659482
 10
883.7992941589165
 20
-0.1546766860930342
 10
883.8246802094216
 20
-0.22245254248750435
 10
883.8510446188441
 20
-0.2898538494930436
 10
883.8783818632937
 20
-0.3568664851385468
 10
883.906686215051
 20
-0.42347640888762217
 10
883.9359517437673
 20
-0.4896696645803664
 10
883.9661723177079
 20
-0.5554323833574721
 10
883.9973416050359
 20
-0.6207507865660431
 10
884.0294530751395
 20
-0.6856111886464995
 10
884.0625
 20
-0.7499999999999996
 10
884.6875
 20
-0.75
 10
884.6875
 20
-0.7499999999999999
 10
884.69221584258
 20
-0.666026642922519
 10
884.7063040658636
 20
-0.5831092995327641
 10
884.7295875022687
 20
-0.5022907035336246
 10
884.7617733490732
 20
-0.42458719566183134
 10
884.8024568505788
 20
-0.3509759426134975
 10
884.8511263881489
 20
-0.2823826486059498
 10
884.9071699141101
 20
-0.2196699141100893
 10
884.9698826486059
 20
-0.16362638814897756
 10
885.0384759426134
 20
-0.1149568505787868
 10
885.1120871956618
 20
-0.07427334907318561
 10
885.1897907035336
 20
-0.042087502268724375
 10
885.2706092995328
 20
-0.018804065863632258
 10
885.3535266429225
 20
-0.004715842580068075
 10
885.4375
 20
0.0
 10
888.0
 20
0.0
  0
LWPOLYLINE
  5
62
330
17
100
AcDbEntity
  8
PANTRY_OUTLINE
 62
8
100
AcDbPolyline
 90
5
 70
0
 10
900.0
 20
0.0
 10
948.0
 20
0.0
 10
948.0
 20
49.0
 10
900.0
 20
49.0
 10
900.0
 20
0.0
  0
TEXT
  5
63
330
17
100
AcDbEntity
  8
LABELS
100
AcDbText
 10
924.0
 20
-3.0
 30
0.0
 40
2.0
  1
79"
 72
1
 11
924.0
 21
-3.0
 31
0.0
100
AcDbText
  0
LWPOLYLINE
  5
64
330
17
100
AcDbEntity
  8
SHELF_LEFT
 62
5
100
AcDbPolyline
 90
110
 70
1
 10
900.0
 20
0.0
 10
906.0
 20
0.0
 10
906.0
 20
0.0
 10
906.0839733570775
 20
-0.004715842580068075
 10
906.1668907004672
 20
-0.018804065863632258
 10
906.2477092964664
 20
-0.042087502268724375
 10
906.3254128043382
 20
-0.07427334907318561
 10
906.3990240573866
 20
-0.1149568505787869
 10
906.4676173513941
 20
-0.16362638814897768
 10
906.5303300858899
 20
-0.2196699141100894
 10
906.5863736118511
 20
-0.28238264860594986
 10
906.6350431494212
 20
-0.35097594261349757
 10
906.6757266509268
 20
-0.4245871956618314
 10
906.7079124977313
 20
-0.5022907035336247
 10
906.7311959341364
 20
-0.5831092995327642
 10
906.74528415742
 20
-0.6660266429225191
 10
906.75
 20
-0.75
 10
907.375
 20
-0.75
 10
907.375
 20
-0.75
 10
907.3877570677694
 20
-0.6603434433768914
 10
907.3988882573434
 20
-0.5704705467825795
 10
907.4083899172284
 20
-0.4804107922691794
 10
907.4162589304844
 20
-0.3901937231859847
 10
907.4224927157475
 20
-0.2998489344880177
 10
907.4270892280763
 20
-0.20940606302765205
 10
907.4300469596235
 20
-0.11889477783249158
 10
907.43136494013
 20
-0.028344770372693527
 10
907.4310427372434
 20
0.062214255179069755
 10
907.4290804566594
 20
0.1527525916918163
 10
907.4254787420882
 20
0.24324053882143026
 10
907.4202387750418
 20
0.3336484127536116
 10
907.4133622744475
 20
0.4239465559414032
 10
907.404851496084
 20
0.5141053468341006
 10
907.394709231841
 20
0.6040952095943546
 10
907.3829388088034
 20
0.6938866238002768
 10
907.36954408816
 20
0.7834501341293679
 10
907.3545294639367
 20
0.8727563600210893
 10
907.3378998615558
 20
0.9617760053149099
 10
907.3378998611648
 20
0.9617760052381938
 10
907.2453323633049
 20
1.4641825650335085
 10
907.165801856907
 20
1.9665891248288234
 10
907.1006822428546
 20
2.4689956846241383
 10
907.0510984718031
 20
2.971402244419453
 10
907.0179071104959
 20
3.4738088042147677
 10
907.001681544451
 20
3.976215364010083
 10
907.0027020726448
 20
4.478621923805397
 10
907.0209510653067
 20
4.981028483600712
 10
907.0561132684759
 20
5.483435043396026
 10
907.1075812500588
 20
5.985841603191341
 10
907.1744658933054
 20
6.488248162986656
 10
907.2556117564286
 20
6.990654722781972
 10
907.3496170330259
 20
7.493061282577287
 10
907.4548577684864
 20
7.9954678423726016
 10
907.5695159140388
 20
8.497874402167916
 10
907.6916107338042
 20
9.000280961963231
 10
907.8190330222919
 20
9.502687521758546
 10
907.949581541227
 20
10.00509408155386
 10
908.0810010462551
 20
10.507500641349175
 10
908.2110212466131
 20
11.00990720114449
 10
908.3373960247261
 20
11.512313760939804
 10
908.4579422382104
 20
12.014720320735119
 10
908.5705774339707
 20
12.517126880530434
 10
908.6733558228755
 20
13.01953344032575
 10
908.7645018935424
 20
13.521940000121065
 10
908.8424410845525
 20
14.02434655991638
 10
908.9058269852233
 20
14.526753119711694
 10
908.9535645950463
 20
15.029159679507009
 10
908.9848292399777
 20
15.531566239302323
 10
908.9990808188005
 20
16.033972799097636
 10
908.9960731334503
 20
16.53637935889295
 10
908.9758581421221
 20
17.038785918688266
 10
908.938785061685
 20
17.54119247848358
 10
908.8854943349112
 20
18.043599038278895
 10
908.8169065667344
 20
18.54600559807421
 10
908.7342066206692
 20
19.048412157869524
 10
908.6388231501229
 20
19.55081871766484
 10
908.5324039182044
 20
20.053225277460154
 10
908.4167873323802
 20
20.55563183725547
 10
908.2939706857219
 20
21.058038397050783
 10
908.1660756533829
 20
21.560444956846098
 10
908.0353116403564
 20
22.062851516641413
 10
907.9039376136875
 20
22.565258076436727
 10
907.7742230784945
 20
23.067664636232042
 10
907.6484088719426
 20
23.570071196027357
 10
907.5286684524617
 20
24.07247775582267
 10
907.4170703529402
 20
24.574884315617986
 10
907.3155424465238
 20
25.077290875413304
 10
907.2258386423305
 20
25.579697435208615
 10
907.2258386423305
 20
25.579697435208615
 10
907.2073673351116
 20
25.708393907176696
 10
907.1944895671394
 20
25.837769848446545
 10
907.1872295256824
 20
25.967582262665868
 10
907.1856008466885
 20
26.097587333690583
 10
907.1896065891738
 20
26.22754088352493
 10
907.1992392294762
 20
26.357198830941236
 10
907.2144806753879
 20
26.486317649917897
 10
907.2353023001353
 20
26.614654827034606
 10
907.261664996147
 20
26.74196931696564
 10
907.2935192485063
 20
26.86802199521581
 10
907.3308052279507
 20
26.992576107248592
 10
907.3734529032449
 20
27.115397713163034
 10
907.4213821727145
 20
27.236256127084104
 10
907.4745030146944
 20
27.35492435044129
 10
907.5327156566094
 20
27.471179498321632
 10
907.5959107623689
 20
27.58480321809641
 10
907.6639696377239
 20
27.695582099535184
 10
907.7367644532009
 20
27.803308075636963
 10
907.8141584841936
 20
27.90777881342559
 10
900.0
 20
27.90777881342559
 10
900.0
 20
0.0
  0
LWPOLYLINE
  5
65
330
17
100
AcDbEntity
  8
SHELF_RIGHT
 62
1
100
AcDbPolyline
 90
110
 70
1
 10
948.0
 20
0.0
 10
945.4375
 20
0.0
 10
945.4375
 20
0.0
 10
945.3535266429225
 20
-0.004715842580068075
 10
945.2706092995328
 20
-0.018804065863632258
 10
945.1897907035336
 20
-0.042087502268724375
 10
945.1120871956618
 20
-0.07427334907318561
 10
945.0384759426134
 20
-0.1149568505787868
 10
944.9698826486059
 20
-0.16362638814897756
 10
944.9071699141101
 20
-0.2196699141100893
 10
944.8511263881489
 20
-0.2823826486059498
 10
944.8024568505788
 20
-0.3509759426134975
 10
944.7617733490732
 20
-0.42458719566183134
 10
944.7295875022687
 20
-0.5022907035336246
 10
944.7063040658636
 20
-0.5831092995327641
 10
944.69221584258
 20
-0.666026642922519
 10
944.6875
 20
-0.7499999999999999
 10
944.0625
 20
-0.75
 10
944.0625
 20
-0.7499999999999991
 10
943.8485630281406
 20
-0.5654506005133717
 10
943.6453918839378
 20
-0.36911162083134297
 10
943.4536353132436
 20
-0.16160999101888418
 10
943.2739056140312
 20
0.05639171539698218
 10
943.1067766812661
 20
0.28419739709094527
 10
942.9527821744024
 20
0.5210796476607884
 10
942.8124138133538
 20
0.7662820783090312
 10
942.6861198083836
 20
1.0190217330682638
 10
942.5743034289233
 20
1.2784915888581194
 10
942.4773217158933
 20
1.543863132390956
 10
942.3954843416354
 20
1.8142890056979342
 10
942.3290526210985
 20
2.088905711828024
 10
942.2782386774326
 20
2.366836372080453
 10
942.2432047646589
 20
2.6471935259663595
 10
942.2240627495768
 20
2.929081964959224
 10
942.2208737545611
 20
3.2116015909855062
 10
942.2336479623933
 20
3.4938502905281283
 10
942.2623445837455
 20
3.7749268151654642
 10
942.3068719874263
 20
4.053933659347988
 10
942.3068719866482
 20
4.053933659494829
 10
942.3989147600854
 20
4.5159716136822645
 10
942.499741668907
 20
4.978009567869701
 10
942.6078792495196
 20
5.440047522057137
 10
942.7217472016844
 20
5.902085476244572
 10
942.8396814826978
 20
6.364123430432008
 10
942.9599586253671
 20
6.826161384619444
 10
943.0808209244043
 20
7.28819933880688
 10
943.200502123167
 20
7.750237292994315
 10
943.3172532253681
 20
8.21227524718175
 10
943.4293680545454
 20
8.674313201369188
 10
943.5352081877721
 20
9.136351155556623
 10
943.6332268992303
 20
9.598389109744058
 10
943.7219917637423
 20
10.060427063931494
 10
943.8002055899354
 20
10.522465018118929
 10
943.8667253771297
 20
10.984502972306366
 10
943.9205790189119
 20
11.446540926493801
 10
943.9609795092987
 20
11.908578880681237
 10
943.9873364438788
 20
12.370616834868672
 10
943.9992646478613
 20
12.83265478905611
 10
943.99658980494
 20
13.294692743243544
 10
943.9793510047162
 20
13.75673069743098
 10
943.9478001714513
 20
14.218768651618417
 10
943.9023983824974
 20
14.680806605805852
 10
943.8438091302086
 20
15.142844559993287
 10
943.772888625801
 20
15.604882514180723
 10
943.6906732868587
 20
16.06692046836816
 10
943.5983645913418
 20
16.528958422555597
 10
943.4973115194363
 20
16.99099637674303
 10
943.3889908398357
 20
17.453034330930464
 10
943.2749855285498
 20
17.9150722851179
 10
943.1569616356201
 20
18.37711023930534
 10
943.0366439378089
 20
18.839148193492775
 10
942.9157907330691
 20
19.30118614768021
 10
942.7961681451407
 20
19.763224101867642
 10
942.6795243137842
 20
20.22526205605508
 10
942.5675638478278
 20
20.687300010242517
 10
942.4619229143663
 20
21.149337964429954
 10
942.3641453281533
 20
21.61137591861739
 10
942.2756599906122
 20
22.07341387280482
 10
942.1977600081659
 20
22.535451826992258
 10
942.1315837950473
 20
22.997489781179695
 10
942.0780984367489
 20
23.459527735367132
 10
942.0380855572353
 20
23.92156568955457
 10
942.0121298964526
 20
24.383603643742006
 10
942.0006107650597
 20
24.845641597929436
 10
942.0036965012603
 20
25.307679552116873
 10
942.0213420107438
 20
25.76971750630431
 10
942.0532894256838
 20
26.231755460491748
 10
942.0990718731657
 20
26.693793414679185
 10
942.0990718731657
 20
26.693793414679185
 10
942.1124674375784
 20
26.846304827796526
 10
942.1180649996487
 20
26.999301035513753
 10
942.115849981352
 20
27.1523835817786
 10
942.1058281513765
 20
27.30515378568279
 10
942.0880256101001
 20
27.457213779767642
 10
942.0624887216152
 20
27.60816754621118
 10
942.0292839929804
 20
27.757621948198125
 10
941.988497901013
 20
27.90518775378673
 10
941.9402366670726
 20
28.050480649605948
 10
941.8846259804233
 20
28.193122241742927
 10
941.8218106708944
 20
28.332741041214106
 10
941.7519543316928
 20
28.468973431453506
 10
941.6752388933485
 20
28.601464615298394
 10
941.5918641499031
 20
28.72986953900618
 10
941.5020472385761
 20
28.85385379089598
 10
941.406022074263
 20
28.97309447227449
 10
941.3040387403379
 20
29.087281038378016
 10
941.1963628373492
 20
29.196116107140494
 10
941.083274791301
 20
29.299316233681196
 10
948.0
 20
29.299316233681196
 10
948.0
 20
0.0
  0
LWPOLYLINE
  5
66
330
17
100
AcDbEntity
  8
SHELF_BACK
 62
3
100
AcDbPolyline
 90
96
 70
1
 10
900.0
 20
49.0
 10
948.0
 20
49.0
 10
948.0
 20
29.299316233681196
 10
941.083274791301
 20
29.299316233681196
 10
941.083274791301
 20
29.299316233681196
 10
940.9650691233264
 20
29.39661264849513
 10
940.8420536826491
 20
29.487751957423534
 10
940.7145488448365
 20
29.57249680158162
 10
940.5828866774286
 20
29.650626475524742
 10
940.4474100751172
 20
29.721937502043176
 10
940.3084718667266
 20
29.786244162088494
 10
940.1664338963237
 20
29.84337897845144
 10
940.0216660808485
 20
29.893193151931595
 10
939.8745454467194
 20
29.935556948862956
 10
939.7254551479241
 20
29.970360038986126
 10
939.5747834681514
 20
29.997511782787193
 10
939.4229228095633
 20
30.01694146755499
 10
939.2702686708419
 20
30.02859849154189
 10
939.1172186171714
 20
30.032452495748625
 10
938.9641712448378
 20
30.0284934429898
 10
938.811525143144
 20
30.01673164403426
 10
938.6596778563428
 20
29.997197730752237
 10
938.5090248482915
 20
29.969942576339133
 10
938.3599584725245
 20
29.935037162823807
 10
938.3599584725245
 20
29.935037162823807
 10
937.7795863395828
 20
29.78474818155581
 10
937.1992142066412
 20
29.63941896998264
 10
936.6188420736994
 20
29.502398161461002
 10
936.0384699407578
 20
29.376842949544837
 10
935.4580978078161
 20
29.265646340851198
 10
934.8777256748745
 20
29.171370495244517
 10
934.2973535419328
 20
29.09618768929544
 10
933.716981408991
 20
29.041830263316882
 10
933.1366092760494
 20
29.009550705283186
 10
932.5562371431078
 20
29.000092791367088
 10
931.9758650101661
 20
29.01367444806583
 10
931.3954928772243
 20
29.049982730802277
 10
930.8151207442827
 20
29.108181034702714
 10
930.234748611341
 20
29.18692837140261
 10
929.6543764783994
 20
29.2844102677099
 10
929.0740043454576
 20
29.39838057416766
 10
928.493632212516
 20
29.52621322017558
 10
927.9132600795743
 20
29.664962723143724
 10
927.3328879466327
 20
29.811432057444303
 10
926.752515813691
 20
29.96224631934486
 10
926.1721436807493
 20
30.113930490556918
 10
925.5917715478076
 20
30.262989508595055
 10
925.011399414866
 20
30.40598879898854
 10
924.4310272819243
 20
30.539633413745754
 10
923.8506551489826
 20
30.660843952585942
 10
923.2702830160409
 20
30.766827517583422
 10
922.6899108830993
 20
30.85514206630796
 10
922.1095387501576
 20
30.923752680655067
 10
921.5291666172159
 20
30.97107845483616
 10
920.9487944842742
 20
30.996028922149193
 10
920.3684223513326
 20
30.99802918119475
 10
919.7880502183909
 20
30.977033142586603
 10
919.2076780854493
 20
30.93352459092993
 10
918.6273059525075
 20
30.868506037597378
 10
918.0469338195659
 20
30.783475621154054
 10
917.4665616866242
 20
30.68039258768513
 10
916.8861895536826
 20
30.561632146418322
 10
916.3058174207408
 20
30.429930740844775
 10
915.7254452877992
 20
30.288322996385315
 10
915.1450731548575
 20
30.14007179743553
 10
914.5647010219159
 20
29.988593104934047
 10
913.9843288889742
 20
29.837377246785685
 10
913.4039567560325
 20
29.689908494742685
 10
912.8235846230908
 20
29.549584780829978
 10
912.2432124901492
 20
29.41963940318535
 10
911.6628403572075
 20
29.30306652534564
 10
911.0824682242658
 20
29.202552185602773
 10
910.5020960913241
 20
29.120412406091926
 10
909.9217239583825
 20
29.05853982768416
 10
909.9217239583825
 20
29.058539827684164
 10
909.792490233896
 20
29.04430551903299
 10
909.6639946216853
 20
29.02448510707947
 10
909.536478464652
 20
28.99911581889813
 10
909.4101812660659
 20
28.96824530356828
 10
909.2853402397266
 20
28.931931542678665
 10
909.1621898644228
 20
28.890242741425293
 10
909.0409614435305
 20
28.843257200507175
 10
908.9218826705743
 20
28.79106316906044
 10
908.8051772015693
 20
28.733758678907147
 10
908.6910642349459
 20
28.671451360430048
 10
908.5797580998473
 20
28.604258240419146
 10
908.4714678535721
 20
28.532305522269766
 10
908.3663968889198
 20
28.455728348944945
 10
908.2647425521732
 20
28.37467054914732
 10
908.1666957724402
 20
28.289284367177366
 10
908.0724407030465
 20
28.19973017698522
 10
907.9821543756548
 20
28.106176180953305
 10
907.8960063677619
 20
28.008798093975397
 10
907.8141584841936
 20
27.90777881342559
 10
900.0
 20
27.90777881342559
 10
900.0
 20
49.0
  0
LWPOLYLINE
  5
67
330
17
100
AcDbEntity
  8
PANTRY_OUTLINE
 62
8
100
AcDbPolyline
 90
5
 70
0
 10
960.0
 20
0.0
 10
1008.0
 20
0.0
 10
1008.0
 20
49.0
 10
960.0
 20
49.0
 10
960.0
 20
0.0
  0
TEXT
  5
68
330
17
100
AcDbEntity
  8
LABELS
100
AcDbText
 10
984.0
 20
-3.0
 30
0.0
 40
2.0
  1
86"
 72
1
 11
984.0
 21
-3.0
 31
0.0
100
AcDbText
  0
LWPOLYLINE
  5
69
330
17
100
AcDbEntity
  8
SHELF_RIGHT
 62
1
100
AcDbPolyline
 90
110
 70
1
 10
1008.0
 20
0.0
 10
1008.0
 20
29.0
 10
1005.5834520173366
 20
29.0
 10
1005.5834520173366
 20
29.0
 10
1005.2975957741675
 20
28.986349980869825
 10
1005.0143408264568
 20
28.94552413882747
 10
1004.7362647978412
 20
28.87789398955619
 10
1004.4658981837276
 20
28.78407496827687
 10
1004.2057013237526
 20
28.664920829279666
 10
1003.9580420126601
 20
28.521515876749085
 10
1003.7251739533399
 20
28.35516509758206
 10
1003.5092162481016
 20
28.16738228599056
 10
1003.3121341148168
 20
27.95987626795494
 10
1003.1357210034122
 20
27.73453535088575
 10
1002.9815822754513
 20
27.493410140002187
 10
1002.8511205953243
 20
27.23869487779847
 10
1002.7455231659843
 20
26.97270747640916
 10
1002.665750925385
 20
26.697868424579145
 10
1002.6125298019333
 20
26.41667876118523
 10
1002.5863441085312
 20
26.13169731575044
 10
1002.5874321353226
 20
25.845517423062724
 10
1002.61578398125
 20
25.560743323795325
 10
1002.6711416441539
 20
25.279966465883426
 10
1002.6711416441537
 20
25.279966465883376
 10
1002.7917062297087
 20
24.80149210273878
 10
1002.9155349112756
 20
24.32301773959419
 10
1003.0406872145661
 20
23.844543376449593
 10
1003.1652019232966
 20
23.366069013305
 10
1003.2871278126966
 20
22.887594650160406
 10
1003.4045542264424
 20
22.40912028701581
 10
1003.5156410178591
 20
21.930645923871218
 10
1003.6186473861906
 20
21.452171560726622
 10
1003.7119591560556
 20
20.97369719758203
 10
1003.7941140726039
 20
20.495222834437435
 10
1003.8638247159807
 20
20.016748471292843
 10
1003.9199986760162
 20
19.538274108148247
 10
1003.9617556709876
 20
19.05979974500365
 10
1003.9884413421948
 20
18.58132538185906
 10
1003.999637508178
 20
18.102851018714464
 10
1003.9951687178869
 20
17.624376655569872
 10
1003.975105000111
 20
17.145902292425276
 10
1003.9397607660833
 20
16.667427929280684
 10
1003.8896898824567
 20
16.18895356613609
 10
1003.8256769918603
 20
15.710479202991495
 10
1003.7487252170499
 20
15.232004839846901
 10
1003.6600404413364
 20
14.753530476702307
 10
1003.5610124116249
 20
14.275056113557712
 10
1003.4531929601976
 20
13.796581750413118
 10
1003.3382716865126
 20
13.318107387268524
 10
1003.2180494801047
 20
12.83963302412393
 10
1003.0944102995002
 20
12.361158660979337
 10
1002.9692916493866
 20
11.882684297834743
 10
1002.8446542186806
 20
11.404209934690147
 10
1002.7224511552847
 20
10.925735571545554
 10
1002.6045974590153
 20
10.44726120840096
 10
1002.4929399723363
 20
9.968786845256366
 10
1002.3892284391624
 20
9.490312482111772
 10
1002.2950880852566
 20
9.011838118967177
 10
1002.211994149909
 20
8.533363755822585
 10
1002.1412487679963
 20
8.054889392677989
 10
1002.0839605647009
 20
7.576415029533397
 10
1002.0410272826463
 20
7.097940666388801
 10
1002.0131217137003
 20
6.619466303244206
 10
1002.0006811558973
 20
6.140991940099614
 10
1002.0039005606995
 20
5.662517576955018
 10
1002.022729477984
 20
5.184043213810426
 10
1002.056872846627
 20
4.705568850665831
 10
1002.1057956183016
 20
4.227094487521239
 10
1002.1687311420237
 20
3.748620124376643
 10
1002.2446931780623
 20
3.2701457612320475
 10
1002.3324913529437
 20
2.7916713980874555
 10
1002.4307498133619
 20
2.31319703494286
 10
1002.5379287866758
 20
1.834722671798266
 10
1002.537928787052
 20
1.834722671885605
 10
1002.5767074301468
 20
1.679076061518233
 10
1002.6204587634934
 20
1.524753440656835
 10
1002.669137758831
 20
1.3719136359852429
 10
1002.7226943164183
 20
1.2207139480935965
 10
1002.7810733165949
 20
1.0713099895867737
 10
1002.8442146765101
 20
0.9238555249300822
 10
1002.9120534119589
 20
0.7785023121970074
 10
1002.9845197042634
 20
0.6353999468819356
 10
1003.0615389721287
 20
0.49469570793855855
 10
1003.1430319484009
 20
0.3565344062024338
 10
1003.2289147616484
 20
0.22105823535369762
 10
1003.3190990224803
 20
0.08840662557331802
 10
1003.4134919145164
 20
-0.041283899956499504
 10
1003.5119962899117
 20
-0.16787986556006373
 10
1003.6145107693404
 20
-0.2912509804394885
 10
1003.7209298463334
 20
-0.41127027276817296
 10
1003.8311439958646
 20
-0.527814220368422
 10
1003.9450397870721
 20
-0.640762877838748
 10
1004.0625
 20
-0.7499999999999991
 10
1004.6875
 20
-0.75
 10
1004.6875
 20
-0.7499999999999999
 10
1004.69221584258
 20
-0.666026642922519
 10
1004.7063040658636
 20
-0.5831092995327641
 10
1004.7295875022687
 20
-0.5022907035336246
 10
1004.7617733490732
 20
-0.42458719566183134
 10
1004.8024568505788
 20
-0.3509759426134975
 10
1004.8511263881489
 20
-0.2823826486059498
 10
1004.9071699141101
 20
-0.2196699141100893
 10
1004.9698826486059
 20
-0.16362638814897756
 10
1005.0384759426134
 20
-0.1149568505787868
 10
1005.1120871956618
 20
-0.07427334907318561
 10
1005.1897907035336
 20
-0.042087502268724375
 10
1005.2706092995328
 20
-0.018804065863632258
 10
1005.3535266429225
 20
-0.004715842580068075
 10
1005.4375
 20
0.0
 10
1008.0
 20
0.0
  0
ENDSEC
  0
SECTION
  2
OBJECTS
  0
DICTIONARY
  5
A
330
0
100
AcDbDictionary
281
1
  3
ACAD_COLOR
350
B
  3
ACAD_GROUP
350
C
  3
ACAD_LAYOUT
350
D
  3
ACAD_MATERIAL
350
E
  3
ACAD_MLEADERSTYLE
350
F
  3
ACAD_MLINESTYLE
350
10
  3
ACAD_PLOTSETTINGS
350
11
  3
ACAD_PLOTSTYLENAME
350
12
  3
ACAD_SCALELIST
350
14
  3
ACAD_TABLESTYLE
350
15
  3
ACAD_VISUALSTYLE
350
16
  3
EZDXF_META
350
2D
  0
DICTIONARY
  5
B
330
A
100
AcDbDictionary
281
1
  0
DICTIONARY
  5
C
330
A
100
AcDbDictionary
281
1
  0
DICTIONARY
  5
D
330
A
100
AcDbDictionary
281
1
  3
Model
350
1A
  3
Layout1
350
1E
  0
DICTIONARY
  5
E
330
A
100
AcDbDictionary
281
1
  3
ByBlock
350
1F
  3
ByLayer
350
20
  3
Global
350
21
  0
DICTIONARY
  5
F
330
A
100
AcDbDictionary
281
1
  3
Standard
350
2C
  0
DICTIONARY
  5
10
330
A
100
AcDbDictionary
281
1
  3
Standard
350
22
  0
DICTIONARY
  5
11
330
A
100
AcDbDictionary
281
1
  0
ACDBDICTIONARYWDFLT
  5
12
330
A
100
AcDbDictionary
281
1
  3
Normal
350
13
100
AcDbDictionaryWithDefault
340
13
  0
ACDBPLACEHOLDER
  5
13
330
12
  0
DICTIONARY
  5
14
330
A
100
AcDbDictionary
281
1
  0
DICTIONARY
  5
15
330
A
100
AcDbDictionary
281
1
  0
DICTIONARY
  5
16
330
A
100
AcDbDictionary
281
1
  0
LAYOUT
  5
1A
330
D
100
AcDbPlotSettings
  1

  4
A3
  6

 40
7.5
 41
20.0
 42
7.5
 43
20.0
 44
420.0
 45
297.0
 46
0.0
 47
0.0
 48
0.0
 49
0.0
140
0.0
141
0.0
142
1.0
143
1.0
 70
1024
 72
1
 73
0
 74
5
  7

 75
16
 76
0
 77
2
 78
300
147
1.0
148
0.0
149
0.0
100
AcDbLayout
  1
Model
 70
1
 71
0
 10
0.0
 20
0.0
 11
420.0
 21
297.0
 12
0.0
 22
0.0
 32
0.0
 14
1e+20
 24
1e+20
 34
1e+20
 15
-1e+20
 25
-1e+20
 35
-1e+20
146
0.0
 13
0.0
 23
0.0
 33
0.0
 16
1.0
 26
0.0
 36
0.0
 17
0.0
 27
1.0
 37
0.0
 76
1
330
17
  0
LAYOUT
  5
1E
330
D
100
AcDbPlotSettings
  1

  4
A3
  6

 40
7.5
 41
20.0
 42
7.5
 43
20.0
 44
420.0
 45
297.0
 46
0.0
 47
0.0
 48
0.0
 49
0.0
140
0.0
141
0.0
142
1.0
143
1.0
 70
0
 72
1
 73
0
 74
5
  7

 75
16
 76
0
 77
2
 78
300
147
1.0
148
0.0
149
0.0
100
AcDbLayout
  1
Layout1
 70
1
 71
1
 10
0.0
 20
0.0
 11
420.0
 21
297.0
 12
0.0
 22
0.0
 32
0.0
 14
1e+20
 24
1e+20
 34
1e+20
 15
-1e+20
 25
-1e+20
 35
-1e+20
146
0.0
 13
0.0
 23
0.0
 33
0.0
 16
1.0
 26
0.0
 36
0.0
 17
0.0
 27
1.0
 37
0.0
 76
1
330
1B
  0
MATERIAL
  5
1F
102
{ACAD_REACTORS
330
E
102
}
330
E
100
AcDbMaterial
  1
ByBlock
  2

 70
0
 40
1.0
 71
1
 41
1.0
 91
-1023410177
 42
1.0
 72
1
  3

 73
1
 74
1
 75
1
 44
0.5
 73
0
 45
1.0
 46
1.0
 77
1
  4

 78
1
 79
1
170
1
 48
1.0
171
1
  6

172
1
173
1
174
1
140
1.0
141
1.0
175
1
  7

176
1
177
1
178
1
143
1.0
179
1
  8

270
1
271
1
272
1
145
1.0
146
1.0
273
1
  9

274
1
275
1
276
1
 42
1.0
 72
1
  3

 73
1
 74
1
 75
1
 94
63
  0
MATERIAL
  5
20
102
{ACAD_REACTORS
330
E
102
}
330
E
100
AcDbMaterial
  1
ByLayer
  2

 70
0
 40
1.0
 71
1
 41
1.0
 91
-1023410177
 42
1.0
 72
1
  3

 73
1
 74
1
 75
1
 44
0.5
 73
0
 45
1.0
 46
1.0
 77
1
  4

 78
1
 79
1
170
1
 48
1.0
171
1
  6

172
1
173
1
174
1
140
1.0
141
1.0
175
1
  7

176
1
177
1
178
1
143
1.0
179
1
  8

270
1
271
1
272
1
145
1.0
146
1.0
273
1
  9

274
1
275
1
276
1
 42
1.0
 72
1
  3

 73
1
 74
1
 75
1
 94
63
  0
MATERIAL
  5
21
102
{ACAD_REACTORS
330
E
102
}
330
E
100
AcDbMaterial
  1
Global
  2

 70
0
 40
1.0
 71
1
 41
1.0
 91
-1023410177
 42
1.0
 72
1
  3

 73
1
 74
1
 75
1
 44
0.5
 73
0
 45
1.0
 46
1.0
 77
1
  4

 78
1
 79
1
170
1
 48
1.0
171
1
  6

172
1
173
1
174
1
140
1.0
141
1.0
175
1
  7

176
1
177
1
178
1
143
1.0
179
1
  8

270
1
271
1
272
1
145
1.0
146
1.0
273
1
  9

274
1
275
1
276
1
 42
1.0
 72
1
  3

 73
1
 74
1
 75
1
 94
63
  0
MLINESTYLE
  5
22
102
{ACAD_REACTORS
330
10
102
}
330
10
100
AcDbMlineStyle
  2
Standard
 70
0
  3

 62
256
 51
90.0
 52
90.0
 71
2
 49
0.5
 62
256
  6
BYLAYER
 49
-0.5
 62
256
  6
BYLAYER
  0
MLEADERSTYLE
  5
2C
102
{ACAD_REACTORS
330
F
102
}
330
F
100
AcDbMLeaderStyle
179
2
170
2
171
1
172
0
 90
2
 40
0.0
 41
0.0
173
1
 91
-1056964608
 92
-2
290
1
 42
2.0
291
1
 43
8.0
  3
Standard
 44
4.0
300

342
29
174
1
175
1
176
0
178
1
 93
-1056964608
 45
4.0
292
0
297
0
 46
4.0
 94
-1056964608
 47
1.0
 49
1.0
140
1.0
294
1
141
0.0
177
0
142
1.0
295
0
296
0
143
3.75
271
0
272
9
273
9
  0
DICTIONARY
  5
2D
330
A
100
AcDbDictionary
280
1
281
1
  3
CREATED_BY_EZDXF
350
2E
  3
WRITTEN_BY_EZDXF
350
6C
  0
DICTIONARYVAR
  5
2E
330
2D
100
DictionaryVariables
280
0
  1
1.4.3 @ 2026-02-01T01:24:40.700571+00:00
  0
DICTIONARYVAR
  5
6C
330
2D
100
DictionaryVariables
280
0
  1
1.4.3 @ 2026-02-01T01:24:40.866006+00:00
  0
ENDSEC
  0
EOF
