  0
SECTION
  2
HEADER
  9
$ACADVER
  1
AC1024
  9
$ACADMAINTVER
 70
6
  9
$DWGCODEPAGE
  3
ANSI_1252
  9
$LASTSAVEDBY
  1
ezdxf
  9
$INSBASE
 10
0.0
 20
0.0
 30
0.0
  9
$EXTMIN
 10
1e+20
 20
1e+20
 30
1e+20
  9
$EXTMAX
 10
-1e+20
 20
-1e+20
 30
-1e+20
  9
$LIMMIN
 10
0.0
 20
0.0
  9
$LIMMAX
 10
420.0
 20
297.0
  9
$ORTHOMODE
 70
0
  9
$REGENMODE
 70
1
  9
$FILLMODE
 70
1
  9
$QTEXTMODE
 70
0
  9
$MIRRTEXT
 70
1
  9
$LTSCALE
 40
1.0
  9
$ATTMODE
 70
1
  9
$TEXTSIZE
 40
2.5
  9
$TRACEWID
 40
1.0
  9
$TEXTSTYLE
  7
Standard
  9
$CLAYER
  8
0
  9
$CELTYPE
  6
ByLayer
  9
$CECOLOR
 62
256
  9
$CELTSCALE
 40
1.0
  9
$DISPSILH
 70
0
  9
$DIMSCALE
 40
1.0
  9
$DIMASZ
 40
2.5
  9
$DIMEXO
 40
0.625
  9
$DIMDLI
 40
3.75
  9
$DIMRND
 40
0.0
  9
$DIMDLE
 40
0.0
  9
$DIMEXE
 40
1.25
  9
$DIMTP
 40
0.0
  9
$DIMTM
 40
0.0
  9
$DIMTXT
 40
2.5
  9
$DIMCEN
 40
2.5
  9
$DIMTSZ
 40
0.0
  9
$DIMTOL
 70
0
  9
$DIMLIM
 70
0
  9
$DIMTIH
 70
0
  9
$DIMTOH
 70
0
  9
$DIMSE1
 70
0
  9
$DIMSE2
 70
0
  9
$DIMTAD
 70
1
  9
$DIMZIN
 70
8
  9
$DIMBLK
  1

  9
$DIMASO
 70
1
  9
$DIMSHO
 70
1
  9
$DIMPOST
  1

  9
$DIMAPOST
  1

  9
$DIMALT
 70
0
  9
$DIMALTD
 70
3
  9
$DIMALTF
 40
0.03937007874
  9
$DIMLFAC
 40
1.0
  9
$DIMTOFL
 70
1
  9
$DIMTVP
 40
0.0
  9
$DIMTIX
 70
0
  9
$DIMSOXD
 70
0
  9
$DIMSAH
 70
0
  9
$DIMBLK1
  1

  9
$DIMBLK2
  1

  9
$DIMSTYLE
  2
ISO-25
  9
$DIMCLRD
 70
0
  9
$DIMCLRE
 70
0
  9
$DIMCLRT
 70
0
  9
$DIMTFAC
 40
1.0
  9
$DIMGAP
 40
0.625
  9
$DIMJUST
 70
0
  9
$DIMSD1
 70
0
  9
$DIMSD2
 70
0
  9
$DIMTOLJ
 70
0
  9
$DIMTZIN
 70
8
  9
$DIMALTZ
 70
0
  9
$DIMALTTZ
 70
0
  9
$DIMUPT
 70
0
  9
$DIMDEC
 70
2
  9
$DIMTDEC
 70
2
  9
$DIMALTU
 70
2
  9
$DIMALTTD
 70
3
  9
$DIMTXSTY
  7
Standard
  9
$DIMAUNIT
 70
0
  9
$DIMADEC
 70
0
  9
$DIMALTRND
 40
0.0
  9
$DIMAZIN
 70
0
  9
$DIMDSEP
 70
44
  9
$DIMATFIT
 70
3
  9
$DIMFRAC
 70
0
  9
$DIMLDRBLK
  1

  9
$DIMLUNIT
 70
2
  9
$DIMLWD
 70
-2
  9
$DIMLWE
 70
-2
  9
$DIMTMOVE
 70
0
  9
$DIMFXL
 40
1.0
  9
$DIMFXLON
 70
0
  9
$DIMJOGANG
 40
0.785398163397
  9
$DIMTFILL
 70
0
  9
$DIMTFILLCLR
 70
0
  9
$DIMARCSYM
 70
0
  9
$DIMLTYPE
  6

  9
$DIMLTEX1
  6

  9
$DIMLTEX2
  6

  9
$DIMTXTDIRECTION
 70
0
  9
$LUNITS
 70
2
  9
$LUPREC
 70
4
  9
$SKETCHINC
 40
1.0
  9
$FILLETRAD
 40
10.0
  9
$AUNITS
 70
0
  9
$AUPREC
 70
2
  9
$MENU
  1
.
  9
$ELEVATION
 40
0.0
  9
$PELEVATION
 40
0.0
  9
$THICKNESS
 40
0.0
  9
$LIMCHECK
 70
0
  9
$CHAMFERA
 40
0.0
  9
$CHAMFERB
 40
0.0
  9
$CHAMFERC
 40
0.0
  9
$CHAMFERD
 40
0.0
  9
$SKPOLY
 70
0
  9
$TDCREATE
 40
2461130.475208333
  9
$TDUCREATE
 40
2458532.153996898
  9
$TDUPDATE
 40
2461130.475208333
  9
$TDUUPDATE
 40
2458532.1544311
  9
$TDINDWG
 40
0.0
  9
$TDUSRTIMER
 40
0.0
  9
$USRTIMER
 70
1
  9
$ANGBASE
 50
0.0
  9
$ANGDIR
 70
0
  9
$PDMODE
 70
0
  9
$PDSIZE
 40
0.0
  9
$PLINEWID
 40
0.0
  9
$SPLFRAME
 70
0
  9
$SPLINETYPE
 70
6
  9
$SPLINESEGS
 70
8
  9
$HANDSEED
  5
5D
  9
$SURFTAB1
 70
6
  9
$SURFTAB2
 70
6
  9
$SURFTYPE
 70
6
  9
$SURFU
 70
6
  9
$SURFV
 70
6
  9
$UCSBASE
  2

  9
$UCSNAME
  2

  9
$UCSORG
 10
0.0
 20
0.0
 30
0.0
  9
$UCSXDIR
 10
1.0
 20
0.0
 30
0.0
  9
$UCSYDIR
 10
0.0
 20
1.0
 30
0.0
  9
$UCSORTHOREF
  2

  9
$UCSORTHOVIEW
 70
0
  9
$UCSORGTOP
 10
0.0
 20
0.0
 30
0.0
  9
$UCSORGBOTTOM
 10
0.0
 20
0.0
 30
0.0
  9
$UCSORGLEFT
 10
0.0
 20
0.0
 30
0.0
  9
$UCSORGRIGHT
 10
0.0
 20
0.0
 30
0.0
  9
$UCSORGFRONT
 10
0.0
 20
0.0
 30
0.0
  9
$UCSORGBACK
 10
0.0
 20
0.0
 30
0.0
  9
$PUCSBASE
  2

  9
$PUCSNAME
  2

  9
$PUCSORG
 10
0.0
 20
0.0
 30
0.0
  9
$PUCSXDIR
 10
1.0
 20
0.0
 30
0.0
  9
$PUCSYDIR
 10
0.0
 20
1.0
 30
0.0
  9
$PUCSORTHOREF
  2

  9
$PUCSORTHOVIEW
 70
0
  9
$PUCSORGTOP
 10
0.0
 20
0.0
 30
0.0
  9
$PUCSORGBOTTOM
 10
0.0
 20
0.0
 30
0.0
  9
$PUCSORGLEFT
 10
0.0
 20
0.0
 30
0.0
  9
$PUCSORGRIGHT
 10
0.0
 20
0.0
 30
0.0
  9
$PUCSORGFRONT
 10
0.0
 20
0.0
 30
0.0
  9
$PUCSORGBACK
 10
0.0
 20
0.0
 30
0.0
  9
$USERI1
 70
0
  9
$USERI2
 70
0
  9
$USERI3
 70
0
  9
$USERI4
 70
0
  9
$USERI5
 70
0
  9
$USERR1
 40
0.0
  9
$USERR2
 40
0.0
  9
$USERR3
 40
0.0
  9
$USERR4
 40
0.0
  9
$USERR5
 40
0.0
  9
$WORLDVIEW
 70
1
  9
$SHADEDGE
 70
3
  9
$SHADEDIF
 70
70
  9
$TILEMODE
 70
1
  9
$MAXACTVP
 70
64
  9
$PINSBASE
 10
0.0
 20
0.0
 30
0.0
  9
$PLIMCHECK
 70
0
  9
$PEXTMIN
 10
1e+20
 20
1e+20
 30
1e+20
  9
$PEXTMAX
 10
-1e+20
 20
-1e+20
 30
-1e+20
  9
$PLIMMIN
 10
0.0
 20
0.0
  9
$PLIMMAX
 10
420.0
 20
297.0
  9
$UNITMODE
 70
0
  9
$VISRETAIN
 70
1
  9
$PLINEGEN
 70
0
  9
$PSLTSCALE
 70
1
  9
$TREEDEPTH
 70
3020
  9
$CMLSTYLE
  2
Standard
  9
$CMLJUST
 70
0
  9
$CMLSCALE
 40
20.0
  9
$PROXYGRAPHICS
 70
1
  9
$MEASUREMENT
 70
1
  9
$CELWEIGHT
370
-1
  9
$ENDCAPS
280
0
  9
$JOINSTYLE
280
0
  9
$LWDISPLAY
290
0
  9
$INSUNITS
 70
1
  9
$HYPERLINKBASE
  1

  9
$STYLESHEET
  1

  9
$XEDIT
290
1
  9
$CEPSNTYPE
380
0
  9
$PSTYLEMODE
290
1
  9
$FINGERPRINTGUID
  2
{AC8288E4-211C-4F49-BE80-612207B6C6F8}
  9
$VERSIONGUID
  2
{36A1C623-4AF2-4912-B3E5-E8395C83F258}
  9
$EXTNAMES
290
1
  9
$PSVPSCALE
 40
0.0
  9
$OLESTARTUP
290
0
  9
$SORTENTS
280
127
  9
$INDEXCTL
280
0
  9
$HIDETEXT
280
1
  9
$XCLIPFRAME
280
1
  9
$HALOGAP
280
0
  9
$OBSCOLOR
 70
257
  9
$OBSLTYPE
280
0
  9
$INTERSECTIONDISPLAY
280
0
  9
$INTERSECTIONCOLOR
 70
257
  9
$DIMASSOC
280
2
  9
$PROJECTNAME
  1

  9
$CAMERADISPLAY
290
0
  9
$LENSLENGTH
 40
50.0
  9
$CAMERAHEIGHT
 40
0.0
  9
$STEPSPERSEC
 40
24.0
  9
$STEPSIZE
 40
100.0
  9
$3DDWFPREC
 40
2.0
  9
$PSOLWIDTH
 40
0.005
  9
$PSOLHEIGHT
 40
0.08
  9
$LOFTANG1
 40
1.570796326795
  9
$LOFTANG2
 40
1.570796326795
  9
$LOFTMAG1
 40
0.0
  9
$LOFTMAG2
 40
0.0
  9
$LOFTPARAM
 70
7
  9
$LOFTNORMALS
280
1
  9
$LATITUDE
 40
37.795
  9
$LONGITUDE
 40
-122.394
  9
$NORTHDIRECTION
 40
0.0
  9
$TIMEZONE
 70
-8000
  9
$LIGHTGLYPHDISPLAY
280
1
  9
$TILEMODELIGHTSYNCH
280
1
  9
$CMATERIAL
347
20
  9
$SOLIDHIST
280
0
  9
$SHOWHIST
280
1
  9
$DWFFRAME
280
2
  9
$DGNFRAME
280
2
  9
$REALWORLDSCALE
290
1
  9
$INTERFERECOLOR
 62
256
  9
$CSHADOW
280
0
  9
$SHADOWPLANELOCATION
 40
0.0
  0
ENDSEC
  0
SECTION
  2
CLASSES
  0
CLASS
  1
ACDBDICTIONARYWDFLT
  2
AcDbDictionaryWithDefault
  3
ObjectDBX Classes
 90
0
 91
0
280
0
281
0
  0
CLASS
  1
SUN
  2
AcDbSun
  3
SCENEOE
 90
1153
 91
0
280
0
281
0
  0
CLASS
  1
VISUALSTYLE
  2
AcDbVisualStyle
  3
ObjectDBX Classes
 90
4095
 91
0
280
0
281
0
  0
CLASS
  1
MATERIAL
  2
AcDbMaterial
  3
ObjectDBX Classes
 90
1153
 91
0
280
0
281
0
  0
CLASS
  1
SCALE
  2
AcDbScale
  3
ObjectDBX Classes
 90
1153
 91
0
280
0
281
0
  0
CLASS
  1
TABLESTYLE
  2
AcDbTableStyle
  3
ObjectDBX Classes
 90
4095
 91
0
280
0
281
0
  0
CLASS
  1
MLEADERSTYLE
  2
AcDbMLeaderStyle
  3
ACDB_MLEADERSTYLE_CLASS
 90
4095
 91
0
280
0
281
0
  0
CLASS
  1
DICTIONARYVAR
  2
AcDbDictionaryVar
  3
ObjectDBX Classes
 90
0
 91
0
280
0
281
0
  0
CLASS
  1
CELLSTYLEMAP
  2
AcDbCellStyleMap
  3
ObjectDBX Classes
 90
1152
 91
0
280
0
281
0
  0
CLASS
  1
MENTALRAYRENDERSETTINGS
  2
AcDbMentalRayRenderSettings
  3
SCENEOE
 90
1024
 91
0
280
0
281
0
  0
CLASS
  1
ACDBDETAILVIEWSTYLE
  2
AcDbDetailViewStyle
  3
ObjectDBX Classes
 90
1025
 91
0
280
0
281
0
  0
CLASS
  1
ACDBSECTIONVIEWSTYLE
  2
AcDbSectionViewStyle
  3
ObjectDBX Classes
 90
1025
 91
0
280
0
281
0
  0
CLASS
  1
RASTERVARIABLES
  2
AcDbRasterVariables
  3
ISM
 90
0
 91
0
280
0
281
0
  0
CLASS
  1
LAYOUT
  2
AcDbLayout
  3
ObjectDBX Classes
 90
0
 91
0
280
0
281
0
  0
CLASS
  1
ACDBPLACEHOLDER
  2
AcDbPlaceHolder
  3
ObjectDBX Classes
 90
0
 91
0
280
0
281
0
  0
ENDSEC
  0
SECTION
  2
TABLES
  0
TABLE
  2
VPORT
  5
8
330
0
100
AcDbSymbolTable
 70
1
  0
VPORT
  5
23
330
8
100
AcDbSymbolTableRecord
100
AcDbViewportTableRecord
  2
*Active
 70
0
 10
0.0
 20
0.0
 11
1.0
 21
1.0
 12
0.0
 22
0.0
 13
0.0
 23
0.0
 14
0.5
 24
0.5
 15
0.5
 25
0.5
 16
0.0
 26
0.0
 36
1.0
 17
0.0
 27
0.0
 37
0.0
 40
1000.0
 41
1.34
 42
50.0
 43
0.0
 44
0.0
 50
0.0
 51
0.0
 71
0
 72
1000
 73
1
 74
3
 75
0
 76
0
 77
0
 78
0
281
0
 65
0
146
0.0
  0
ENDTAB
  0
TABLE
  2
LTYPE
  5
2
330
0
100
AcDbSymbolTable
 70
3
  0
LTYPE
  5
24
330
2
100
AcDbSymbolTableRecord
100
AcDbLinetypeTableRecord
  2
ByBlock
 70
0
  3

 72
65
 73
0
 40
0.0
  0
LTYPE
  5
25
330
2
100
AcDbSymbolTableRecord
100
AcDbLinetypeTableRecord
  2
ByLayer
 70
0
  3

 72
65
 73
0
 40
0.0
  0
LTYPE
  5
26
330
2
100
AcDbSymbolTableRecord
100
AcDbLinetypeTableRecord
  2
Continuous
 70
0
  3

 72
65
 73
0
 40
0.0
  0
ENDTAB
  0
TABLE
  2
LAYER
  5
1
330
0
100
AcDbSymbolTable
 70
4
  0
LAYER
  5
27
330
1
100
AcDbSymbolTableRecord
100
AcDbLayerTableRecord
  2
0
 70
0
 62
7
  6
Continuous
370
-3
390
13
347
21
  0
LAYER
  5
28
330
1
100
AcDbSymbolTableRecord
100
AcDbLayerTableRecord
  2
Defpoints
 70
0
 62
7
  6
Continuous
290
0
370
-3
390
13
347
21
  0
LAYER
  5
2F
330
1
100
AcDbSymbolTableRecord
100
AcDbLayerTableRecord
  2
CONTOUR
 70
0
 62
3
  6
Continuous
370
-3
390
13
347
21
  0
LAYER
  5
30
330
1
100
AcDbSymbolTableRecord
100
AcDbLayerTableRecord
  2
POCKET
 70
0
 62
5
  6
Continuous
370
-3
390
13
347
21
  0
ENDTAB
  0
TABLE
  2
STYLE
  5
5
330
0
100
AcDbSymbolTable
 70
1
  0
STYLE
  5
29
330
5
100
AcDbSymbolTableRecord
100
AcDbTextStyleTableRecord
  2
Standard
 70
0
 40
0.0
 41
1.0
 50
0.0
 71
0
 42
2.5
  3
txt
  4

  0
ENDTAB
  0
TABLE
  2
VIEW
  5
7
330
0
100
AcDbSymbolTable
 70
0
  0
ENDTAB
  0
TABLE
  2
UCS
  5
6
330
0
100
AcDbSymbolTable
 70
0
  0
ENDTAB
  0
TABLE
  2
APPID
  5
3
330
0
100
AcDbSymbolTable
 70
3
  0
APPID
  5
2A
330
3
100
AcDbSymbolTableRecord
100
AcDbRegAppTableRecord
  2
ACAD
 70
0
  0
APPID
  5
5A
330
3
100
AcDbSymbolTableRecord
100
AcDbRegAppTableRecord
  2
HATCHBACKGROUNDCOLOR
 70
0
  0
APPID
  5
5B
330
3
100
AcDbSymbolTableRecord
100
AcDbRegAppTableRecord
  2
EZDXF
 70
0
  0
ENDTAB
  0
TABLE
  2
DIMSTYLE
  5
4
330
0
100
AcDbSymbolTable
 70
1
100
AcDbDimStyleTable
  0
DIMSTYLE
105
2B
330
4
100
AcDbSymbolTableRecord
100
AcDbDimStyleTableRecord
  2
Standard
 70
0
 40
1.0
 41
2.5
 42
0.625
 43
3.75
 44
1.25
 45
0.0
 46
0.0
 47
0.0
 48
0.0
 49
2.5
140
2.5
141
2.5
142
0.0
143
0.03937007874
144
1.0
145
0.0
146
1.0
147
0.625
148
0.0
 69
0
 70
0
 71
0
 72
0
 73
0
 74
0
 75
0
 76
0
 77
1
 78
8
 79
3
170
0
171
3
172
1
173
0
174
0
175
0
176
0
177
0
178
0
179
2
271
2
272
2
273
2
274
3
275
0
276
0
277
2
278
44
279
0
280
0
281
0
282
0
283
0
284
8
285
0
286
0
288
0
289
3
290
0
371
-2
372
-2
  0
ENDTAB
  0
TABLE
  2
BLOCK_RECORD
  5
9
330
0
100
AcDbSymbolTable
 70
2
  0
BLOCK_RECORD
  5
17
330
9
100
AcDbSymbolTableRecord
100
AcDbBlockTableRecord
  2
*Model_Space
340
1A
 70
0
280
1
281
0
  0
BLOCK_RECORD
  5
1B
330
9
100
AcDbSymbolTableRecord
100
AcDbBlockTableRecord
  2
*Paper_Space
340
1E
 70
0
280
1
281
0
  0
ENDTAB
  0
ENDSEC
  0
SECTION
  2
BLOCKS
  0
BLOCK
  5
18
330
17
100
AcDbEntity
  8
0
100
AcDbBlockBegin
  2
*Model_Space
 70
0
 10
0.0
 20
0.0
 30
0.0
  3
*Model_Space
  1

  0
ENDBLK
  5
19
330
17
100
AcDbEntity
  8
0
100
AcDbBlockEnd
  0
BLOCK
  5
1C
330
1B
100
AcDbEntity
  8
0
100
AcDbBlockBegin
  2
*Paper_Space
 70
0
 10
0.0
 20
0.0
 30
0.0
  3
*Paper_Space
  1

  0
ENDBLK
  5
1D
330
1B
100
AcDbEntity
  8
0
100
AcDbBlockEnd
  0
ENDSEC
  0
SECTION
  2
ENTITIES
  0
LWPOLYLINE
  5
31
330
17
100
AcDbEntity
  8
CONTOUR
100
AcDbPolyline
 90
5
 70
1
 10
0.0
 20
0.0
 10
96.0
 20
0.0
 10
96.0
 20
48.0
 10
0.0
 20
48.0
 10
0.0
 20
0.0
  0
LWPOLYLINE
  5
32
330
17
100
AcDbEntity
  8
CONTOUR
100
AcDbPolyline
 90
213
 70
1
 10
41.975535622699674
 20
48.0
 10
41.975535622699674
 20
42.825
 10
42.17553562269968
 20
42.825
 10
41.972549131116274
 20
43.227222545138964
 10
41.52840371942743
 20
43.30286211718391
 10
41.203721463119464
 20
42.990503470717755
 10
41.26212681054173
 20
42.54376494878811
 10
41.6561977754424
 20
42.325374092281585
 10
42.065970027421194
 20
42.51265247622279
 10
42.065970027421194
 20
42.51265247622279
 10
42.065970027421194
 20
39.137347523777215
 10
41.6561977754424
 20
39.32462590771842
 10
41.26212681054173
 20
39.1062350512119
 10
41.203721463119464
 20
38.65949652928225
 10
41.52840371942743
 20
38.34713788281609
 10
41.972549131116274
 20
38.42277745486104
 10
42.17553562269968
 20
38.825
 10
41.975535622699674
 20
38.825
 10
41.975535622699674
 20
27.2
 10
42.17553562269968
 20
27.2
 10
41.972549131116274
 20
27.602222545138957
 10
41.52840371942743
 20
27.677862117183906
 10
41.203721463119464
 20
27.365503470717748
 10
41.26212681054173
 20
26.918764948788105
 10
41.6561977754424
 20
26.70037409228158
 10
42.065970027421194
 20
26.887652476222787
 10
42.065970027421194
 20
26.887652476222787
 10
42.065970027421194
 20
23.512347523777212
 10
41.6561977754424
 20
23.699625907718417
 10
41.26212681054173
 20
23.481235051211893
 10
41.203721463119464
 20
23.03449652928225
 10
41.52840371942743
 20
22.722137882816092
 10
41.972549131116274
 20
22.79777745486104
 10
42.17553562269968
 20
23.2
 10
41.975535622699674
 20
23.2
 10
41.975535622699674
 20
10.950000000000003
 10
42.17553562269968
 20
10.950000000000003
 10
41.97254913111628
 20
11.352222545138961
 10
41.52840371942743
 20
11.42786211718391
 10
41.203721463119464
 20
11.115503470717753
 10
41.26212681054173
 20
10.668764948788109
 10
41.6561977754424
 20
10.450374092281583
 10
42.065970027421194
 20
10.63765247622279
 10
42.065970027421194
 20
10.63765247622279
 10
42.065970027421194
 20
7.2623475237772155
 10
41.6561977754424
 20
7.449625907718422
 10
41.26212681054173
 20
7.231235051211897
 10
41.203721463119464
 20
6.7844965292822526
 10
41.52840371942743
 20
6.472137882816096
 10
41.97254913111628
 20
6.547777454861044
 10
42.17553562269968
 20
6.950000000000003
 10
41.975535622699674
 20
6.950000000000003
 10
41.975535622699674
 20
2.831068712794149e-15
 10
41.975535622699674
 20
0.20000000000000284
 10
42.031645593686115
 20
0.1968416962734747
 10
42.08704671535071
 20
0.18740668462360616
 10
42.141039093417426
 20
0.17181415958021184
 10
42.19294063057085
 20
0.1502611048630938
 10
42.242095643538185
 20
0.12301980484437658
 10
42.28788314647689
 20
0.09043440472151854
 10
45.26318809892246
 20
0.09043440472151854
 10
45.26318809892246
 20
0.09043440472151854
 10
45.308975601861164
 20
0.12301980484437647
 10
45.3581306148285
 20
0.1502611048630938
 10
45.41003215198192
 20
0.17181415958021184
 10
45.46402453004864
 20
0.1874066846236062
 10
45.519425651713235
 20
0.1968416962734747
 10
45.575535622699675
 20
0.20000000000000284
 10
45.575535622699675
 20
2.831068712794149e-15
 10
52.77553562269967
 20
2.831068712794149e-15
 10
52.77553562269967
 20
0.20000000000000284
 10
52.83164559368611
 20
0.1968416962734747
 10
52.88704671535071
 20
0.18740668462360616
 10
52.94103909341742
 20
0.17181415958021184
 10
52.99294063057085
 20
0.1502611048630938
 10
53.04209564353818
 20
0.12301980484437658
 10
53.087883146476884
 20
0.09043440472151854
 10
56.46318809892246
 20
0.09043440472151854
 10
56.46318809892246
 20
0.09043440472151854
 10
56.50897560186116
 20
0.12301980484437647
 10
56.55813061482849
 20
0.1502611048630938
 10
56.61003215198192
 20
0.17181415958021184
 10
56.664024530048636
 20
0.1874066846236062
 10
56.71942565171323
 20
0.1968416962734747
 10
56.77553562269967
 20
0.20000000000000284
 10
56.77553562269967
 20
2.831068712794149e-15
 10
62.01786437730032
 20
0.0
 10
62.01786437730032
 20
6.108506834976353
 10
62.01786437730032
 20
6.108506834976353
 10
61.91231034138697
 20
6.17469773268526
 10
61.80959566831225
 20
6.245214293663949
 10
61.709897516799906
 20
6.319934893381365
 10
61.613387842781385
 20
6.39873065632549
 10
61.52023310281217
 20
6.4814656782834135
 10
61.430593966973284
 20
6.567997260744185
 10
61.344625041753034
 20
6.658176157020328
 10
61.26247460338712
 20
6.751846829663343
 10
61.184284342116854
 20
6.84884771872936
 10
61.11018911780678
 20
6.949011520432109
 10
61.04031672734299
 20
7.052165475702779
 10
60.97478768421345
 20
7.158131668158845
 10
60.91371501065056
 20
7.266727330968131
 10
60.85720404269424
 20
7.377765162078738
 10
60.805352248511994
 20
7.491053647271144
 10
60.75824906028918
 20
7.606397390475337
 10
60.715975719979454
 20
7.7235974507831955
 10
60.678605139181464
 20
7.842451685574929
 10
60.64620177338341
 20
7.962755099167673
 10
60.64620177338341
 20
7.962755099167673
 10
60.498279608422536
 20
8.581287962905463
 10
60.3628446419596
 20
9.199820826643254
 10
60.24344047168473
 20
9.818353690381045
 10
60.14319125639551
 20
10.436886554118836
 10
60.06471997372476
 20
11.055419417856626
 10
60.010079791058104
 20
11.673952281594424
 10
59.98070034529168
 20
12.292485145332215
 10
59.97735033699725
 20
12.911018009070006
 10
60.00011741770204
 20
13.529550872807796
 10
60.0484058965243
 20
14.148083736545587
 10
60.12095232616912
 20
14.766616600283378
 10
60.2158585604839
 20
15.385149464021168
 10
60.33064141863673
 20
16.00368232775896
 10
60.46229765647552
 20
16.62221519149675
 10
60.60738254512059
 20
17.240748055234544
 10
60.762100000815295
 20
17.859280918972335
 10
60.922401907826
 20
18.477813782710125
 10
61.08409403565051
 20
19.09634664644792
 10
61.242945779256516
 20
19.71487951018571
 10
61.39480085104404
 20
20.3334123739235
 10
61.53568602832421
 20
20.951945237661292
 10
61.66191511098326
 20
21.570478101399083
 10
61.7701853693243
 20
22.189010965136873
 10
61.85766395857034
 20
22.807543828874664
 10
61.92206203903042
 20
23.426076692612455
 10
61.961694662606355
 20
24.04460955635025
 10
61.97552485873564
 20
24.66314242008804
 10
61.96319076628052
 20
25.28167528382583
 10
61.925015101469114
 20
25.90020814756362
 10
61.861996714164036
 20
26.518741011301415
 10
61.77578445338501
 20
27.137273875039206
 10
61.66863402588292
 20
27.755806738776997
 10
61.543348976542134
 20
28.374339602514787
 10
61.403207334833496
 20
28.992872466252578
 10
61.2518758465821
 20
29.611405329990372
 10
61.093314035138626
 20
30.229938193728163
 10
60.93167060215262
 20
30.848471057465954
 10
60.77117487857687
 20
31.467003921203744
 10
60.61602616604071
 20
32.08553678494154
 10
60.47028386392766
 20
32.70406964867933
 10
60.33776125693523
 20
33.32260251241712
 10
60.221925742119666
 20
33.94113537615491
 10
60.125808105942184
 20
34.5596682398927
 10
60.05192322504385
 20
35.17820110363049
 10
60.00220426557904
 20
35.79673396736828
 10
59.97795210275386
 20
36.41526683110608
 10
59.97980128398554
 20
37.033799694843864
 10
60.00770342624187
 20
37.65233255858166
 10
60.060928481962534
 20
38.270865422319446
 10
60.060928481962534
 20
38.270865422319446
 10
60.07630592645014
 20
38.39237958610974
 10
60.09663067249174
 20
38.513164777664684
 10
60.12186884063763
 20
38.633019659372785
 10
60.15197836122324
 20
38.75174444436196
 10
60.18690904449534
 20
38.86914122952564
 10
60.22660266427363
 20
38.98501432540867
 10
60.270993055008404
 20
39.09917058240335
 10
60.32000622207224
 20
39.21141971271176
 10
60.37356046510219
 20
39.321574607537684
 10
60.4315665141866
 20
39.4294516489795
 10
60.49392767866972
 20
39.534871016104006
 10
60.56054000832599
 20
39.6376569846911
 10
60.63129246663527
 20
39.73763822014963
 10
60.70606711587044
 20
39.8346480631161
 10
60.78473931368845
 20
39.928524807260246
 10
60.867177920897504
 20
40.01911196883435
 10
60.953245520053805
 20
40.10625854751701
 10
61.042798644523565
 20
40.18981927811653
 10
61.13568801762847
 20
40.269654872714426
 10
61.13568801762847
 20
48.0
 10
56.77553562269967
 20
48.0
 10
56.77553562269967
 20
47.8
 10
57.17775816783863
 20
48.00298649158339
 10
57.25339773988358
 20
48.44713190327224
 10
56.94103909341742
 20
48.77181415958021
 10
56.49430057148778
 20
48.713408812157944
 10
56.27590971498125
 20
48.31933784725727
 10
56.46318809892246
 20
47.90956559527848
 10
56.46318809892246
 20
47.90956559527848
 10
53.087883146476884
 20
47.90956559527848
 10
53.27516153041809
 20
48.31933784725727
 10
53.056770673911565
 20
48.713408812157944
 10
52.61003215198192
 20
48.77181415958021
 10
52.29767350551576
 20
48.44713190327224
 10
52.37331307756071
 20
48.0029864915834
 10
52.77553562269967
 20
47.8
 10
52.77553562269967
 20
48.0
 10
45.575535622699675
 20
48.0
 10
45.575535622699675
 20
47.8
 10
45.97775816783864
 20
48.00298649158339
 10
46.053397739883586
 20
48.44713190327224
 10
45.74103909341743
 20
48.77181415958021
 10
45.29430057148778
 20
48.713408812157944
 10
45.07590971498126
 20
48.31933784725727
 10
45.26318809892246
 20
47.90956559527848
 10
45.26318809892246
 20
47.90956559527848
 10
42.28788314647689
 20
47.90956559527848
 10
42.47516153041809
 20
48.31933784725727
 10
42.25677067391157
 20
48.713408812157944
 10
41.81003215198192
 20
48.77181415958021
 10
41.49767350551576
 20
48.44713190327224
 10
41.57331307756071
 20
48.0029864915834
 10
41.975535622699674
 20
47.8
 10
41.975535622699674
 20
48.0
  0
LWPOLYLINE
  5
33
330
17
100
AcDbEntity
  8
POCKET
100
AcDbPolyline
 90
57
 70
1
 10
42.17553562269968
 20
41.625
 10
52.0719822321064
 20
41.69822330470336
 10
52.025136903459966
 20
41.693795117385534
 10
51.97995109393523
 20
41.680667426175425
 10
51.93802553336165
 20
41.65930528607887
 10
51.90084545562423
 20
41.630465461558714
 10
51.86972798351266
 20
41.59516961777648
 10
51.84577546898989
 20
41.55466812759463
 10
51.82983644182424
 20
41.510395776494576
 10
51.82247554999933
 20
41.46392093458569
 10
51.82395355677778
 20
41.416889996312285
 10
51.83421810303261
 20
41.37096905610962
 10
51.85290556209544
 20
41.32778488617793
 10
51.87935392141245
 20
41.28886730726619
 10
51.912626234669226
 20
41.255594994009414
 10
51.95154381358097
 20
41.2291466346924
 10
51.99472798351266
 20
41.21045917562957
 10
52.040648923715324
 20
41.20019462937474
 10
52.087679861988725
 20
41.198716622596294
 10
52.134154703897615
 20
41.2060775144212
 10
52.17842705499767
 20
41.222016541586854
 10
52.218928545179516
 20
41.24596905610962
 10
52.25422438896175
 20
41.27708652822119
 10
52.28306421348191
 20
41.314266605958615
 10
52.304426353578464
 20
41.35619216653219
 10
52.31755404478857
 20
41.40137797605693
 10
52.3219822321064
 20
41.44822330470336
 10
52.62875892740304
 20
41.625
 10
52.62875892740304
 20
40.025000000000006
 10
52.0719822321064
 20
39.951776695296644
 10
52.056284602224075
 20
39.952270013189576
 10
52.040648923715324
 20
39.953748019968025
 10
52.025136903459966
 20
39.95620488261447
 10
52.009809760315186
 20
39.959630905014485
 10
51.99472798351266
 20
39.964012566222856
 10
51.97995109393523
 20
39.96933257382458
 10
51.96553740921513
 20
39.975569932180136
 10
51.95154381358097
 20
39.98270002528568
 10
51.93802553336165
 20
39.99069471392114
 10
51.925035919033284
 20
39.999522446702905
 10
51.912626234669226
 20
40.009148384602696
 10
51.90084545562423
 20
40.01953453844129
 10
51.88974007525105
 20
40.03063991881447
 10
51.87935392141245
 20
40.04242069785947
 10
51.86972798351266
 20
40.05483038222353
 10
51.86090025073089
 20
40.0678199965519
 10
51.85290556209544
 20
40.08133827677121
 10
51.84577546898989
 20
40.095331872405374
 10
51.83953811063434
 20
40.10974555712547
 10
51.83421810303261
 20
40.124522446702905
 10
51.82983644182424
 20
40.13960422350543
 10
51.82641041942423
 20
40.15493136665021
 10
51.82395355677778
 20
40.17044338690557
 10
51.82247554999933
 20
40.18607906541432
 10
51.8219822321064
 20
40.201776695296644
 10
42.17553562269968
 20
40.025000000000006
 10
42.17553562269968
 20
41.625
  0
LWPOLYLINE
  5
34
330
17
100
AcDbEntity
  8
POCKET
100
AcDbPolyline
 90
57
 70
1
 10
42.17553562269968
 20
26.0
 10
52.0719822321064
 20
26.07322330470336
 10
52.025136903459966
 20
26.068795117385534
 10
51.97995109393523
 20
26.055667426175425
 10
51.93802553336165
 20
26.034305286078865
 10
51.90084545562423
 20
26.005465461558714
 10
51.86972798351266
 20
25.97016961777648
 10
51.84577546898989
 20
25.92966812759463
 10
51.82983644182424
 20
25.885395776494576
 10
51.82247554999933
 20
25.83892093458569
 10
51.82395355677778
 20
25.791889996312285
 10
51.83421810303261
 20
25.745969056109626
 10
51.85290556209544
 20
25.702784886177934
 10
51.87935392141245
 20
25.66386730726619
 10
51.912626234669226
 20
25.630594994009414
 10
51.95154381358097
 20
25.604146634692395
 10
51.99472798351266
 20
25.585459175629573
 10
52.040648923715324
 20
25.575194629374742
 10
52.087679861988725
 20
25.573716622596294
 10
52.134154703897615
 20
25.581077514421203
 10
52.17842705499767
 20
25.597016541586857
 10
52.218928545179516
 20
25.620969056109626
 10
52.25422438896175
 20
25.65208652822119
 10
52.28306421348191
 20
25.68926660595861
 10
52.304426353578464
 20
25.731192166532193
 10
52.31755404478857
 20
25.77637797605693
 10
52.3219822321064
 20
25.82322330470336
 10
52.62875892740304
 20
26.0
 10
52.62875892740304
 20
24.4
 10
52.0719822321064
 20
24.326776695296637
 10
52.056284602224075
 20
24.32727001318957
 10
52.040648923715324
 20
24.328748019968018
 10
52.025136903459966
 20
24.331204882614465
 10
52.009809760315186
 20
24.33463090501448
 10
51.99472798351266
 20
24.33901256622285
 10
51.97995109393523
 20
24.344332573824573
 10
51.96553740921513
 20
24.350569932180132
 10
51.95154381358097
 20
24.35770002528567
 10
51.93802553336165
 20
24.365694713921133
 10
51.925035919033284
 20
24.3745224467029
 10
51.912626234669226
 20
24.38414838460269
 10
51.90084545562423
 20
24.394534538441285
 10
51.88974007525105
 20
24.405639918814465
 10
51.87935392141245
 20
24.417420697859466
 10
51.86972798351266
 20
24.429830382223518
 10
51.86090025073089
 20
24.442819996551886
 10
51.85290556209544
 20
24.45633827677121
 10
51.84577546898989
 20
24.470331872405367
 10
51.83953811063434
 20
24.484745557125468
 10
51.83421810303261
 20
24.4995224467029
 10
51.82983644182424
 20
24.514604223505422
 10
51.82641041942423
 20
24.529931366650207
 10
51.82395355677778
 20
24.54544338690556
 10
51.82247554999933
 20
24.561079065414308
 10
51.8219822321064
 20
24.576776695296637
 10
42.17553562269968
 20
24.4
 10
42.17553562269968
 20
26.0
  0
LWPOLYLINE
  5
35
330
17
100
AcDbEntity
  8
POCKET
100
AcDbPolyline
 90
57
 70
1
 10
42.17553562269968
 20
9.750000000000004
 10
52.0719822321064
 20
9.823223304703367
 10
52.025136903459966
 20
9.81879511738554
 10
51.97995109393523
 20
9.80566742617543
 10
51.93802553336165
 20
9.78430528607887
 10
51.90084545562423
 20
9.75546546155872
 10
51.86972798351266
 20
9.720169617776484
 10
51.84577546898989
 20
9.679668127594635
 10
51.82983644182424
 20
9.635395776494581
 10
51.82247554999933
 20
9.588920934585696
 10
51.82395355677778
 20
9.54188999631229
 10
51.83421810303261
 20
9.49596905610963
 10
51.85290556209544
 20
9.452784886177938
 10
51.87935392141245
 20
9.413867307266194
 10
51.912626234669226
 20
9.380594994009419
 10
51.95154381358097
 20
9.354146634692402
 10
51.99472798351266
 20
9.335459175629579
 10
52.040648923715324
 20
9.325194629374748
 10
52.087679861988725
 20
9.323716622596299
 10
52.134154703897615
 20
9.33107751442121
 10
52.17842705499767
 20
9.347016541586862
 10
52.218928545179516
 20
9.37096905610963
 10
52.25422438896175
 20
9.402086528221195
 10
52.28306421348191
 20
9.439266605958618
 10
52.304426353578464
 20
9.481192166532198
 10
52.31755404478857
 20
9.526377976056937
 10
52.3219822321064
 20
9.573223304703367
 10
52.62875892740304
 20
9.750000000000004
 10
52.62875892740304
 20
8.150000000000002
 10
52.0719822321064
 20
8.076776695296639
 10
52.056284602224075
 20
8.07727001318957
 10
52.040648923715324
 20
8.07874801996802
 10
52.025136903459966
 20
8.081204882614466
 10
52.009809760315186
 20
8.084630905014482
 10
51.99472798351266
 20
8.08901256622285
 10
51.97995109393523
 20
8.094332573824575
 10
51.96553740921513
 20
8.100569932180134
 10
51.95154381358097
 20
8.107700025285673
 10
51.93802553336165
 20
8.115694713921135
 10
51.925035919033284
 20
8.124522446702901
 10
51.912626234669226
 20
8.13414838460269
 10
51.90084545562423
 20
8.144534538441286
 10
51.88974007525105
 20
8.155639918814467
 10
51.87935392141245
 20
8.167420697859466
 10
51.86972798351266
 20
8.179830382223521
 10
51.86090025073089
 20
8.19281999655189
 10
51.85290556209544
 20
8.20633827677121
 10
51.84577546898989
 20
8.22033187240537
 10
51.83953811063434
 20
8.23474555712547
 10
51.83421810303261
 20
8.249522446702901
 10
51.82983644182424
 20
8.264604223505424
 10
51.82641041942423
 20
8.279931366650208
 10
51.82395355677778
 20
8.295443386905562
 10
51.82247554999933
 20
8.31107906541431
 10
51.8219822321064
 20
8.326776695296639
 10
42.17553562269968
 20
8.150000000000002
 10
42.17553562269968
 20
9.750000000000004
  0
LWPOLYLINE
  5
36
330
17
100
AcDbEntity
  8
POCKET
100
AcDbPolyline
 90
57
 70
1
 10
55.57553562269967
 20
47.8
 10
55.64875892740303
 20
37.903553390593274
 10
55.6443307400852
 20
37.95039871923971
 10
55.63120304887509
 20
37.99558452876445
 10
55.60984090877854
 20
38.03751008933802
 10
55.58100108425838
 20
38.074690167075445
 10
55.545705240476146
 20
38.10580763918701
 10
55.5052037502943
 20
38.12976015370978
 10
55.460931399194244
 20
38.14569918087543
 10
55.414456557285355
 20
38.15306007270034
 10
55.367425619011954
 20
38.15158206592189
 10
55.32150467880929
 20
38.14131751966706
 10
55.2783205088776
 20
38.12263006060424
 10
55.239402929965856
 20
38.09618170128722
 10
55.20613061670908
 20
38.06290938803045
 10
55.179682257392066
 20
38.023991809118705
 10
55.16099479832924
 20
37.98080763918701
 10
55.15073025207441
 20
37.93488669898435
 10
55.14925224529596
 20
37.88785576071095
 10
55.15661313712087
 20
37.84138091880206
 10
55.17255216428652
 20
37.797108567702004
 10
55.19650467880929
 20
37.75660707752016
 10
55.22762215092086
 20
37.72131123373792
 10
55.26480222865828
 20
37.69247140921777
 10
55.30672778923186
 20
37.67110926912121
 10
55.351913598756596
 20
37.6579815779111
 10
55.39875892740303
 20
37.653553390593274
 10
55.57553562269967
 20
37.34677669529663
 10
53.975535622699674
 20
37.34677669529663
 10
53.90231231799631
 20
37.903553390593274
 10
53.902805635889244
 20
37.9192510204756
 10
53.90428364266769
 20
37.93488669898435
 10
53.90674050531414
 20
37.95039871923971
 10
53.91016652771415
 20
37.96572586238449
 10
53.914548188922524
 20
37.98080763918701
 10
53.91986819652425
 20
37.99558452876445
 10
53.926105554879804
 20
38.00999821348454
 10
53.93323564798535
 20
38.023991809118705
 10
53.941230336620805
 20
38.03751008933802
 10
53.95005806940257
 20
38.05049970366639
 10
53.959684007302364
 20
38.06290938803045
 10
53.97007016114096
 20
38.074690167075445
 10
53.98117554151414
 20
38.085795547448626
 10
53.99295632055914
 20
38.09618170128722
 10
54.0053660049232
 20
38.10580763918701
 10
54.018355619251565
 20
38.11463537196878
 10
54.03187389947088
 20
38.12263006060424
 10
54.04586749510504
 20
38.12976015370978
 10
54.06028117982514
 20
38.13599751206534
 10
54.07505806940257
 20
38.14131751966706
 10
54.0901398462051
 20
38.14569918087543
 10
54.10546698934988
 20
38.149125203275446
 10
54.120979009605236
 20
38.15158206592189
 10
54.13661468811399
 20
38.15306007270034
 10
54.15231231799631
 20
38.153553390593274
 10
53.975535622699674
 20
47.8
 10
55.57553562269967
 20
47.8
  0
LWPOLYLINE
  5
37
330
17
100
AcDbEntity
  8
POCKET
100
AcDbPolyline
 90
57
 70
1
 10
53.975535622699674
 20
0.20000000000000284
 10
53.90231231799631
 20
10.096446609406728
 10
53.90674050531414
 20
10.049601280760298
 10
53.91986819652425
 20
10.004415471235559
 10
53.941230336620805
 20
9.96248991066198
 10
53.97007016114096
 20
9.925309832924556
 10
54.0053660049232
 20
9.89419236081299
 10
54.04586749510504
 20
9.870239846290223
 10
54.0901398462051
 20
9.854300819124571
 10
54.13661468811399
 20
9.84693992729966
 10
54.18364562638739
 20
9.848417934078109
 10
54.22956656659005
 20
9.85868248033294
 10
54.27275073652174
 20
9.877369939395763
 10
54.31166831543349
 20
9.90381829871278
 10
54.34494062869026
 20
9.937090611969555
 10
54.371388988007276
 20
9.976008190881299
 10
54.3900764470701
 20
10.01919236081299
 10
54.40034099332493
 20
10.065113301015652
 10
54.40181900010338
 20
10.112144239289057
 10
54.39445810827847
 20
10.158619081197942
 10
54.37851908111282
 20
10.202891432297996
 10
54.35456656659005
 20
10.243392922479845
 10
54.323449094478484
 20
10.27868876626208
 10
54.28626901674106
 20
10.307528590782232
 10
54.244343456167485
 20
10.328890730878792
 10
54.199157646642746
 20
10.3420184220889
 10
54.15231231799631
 20
10.346446609406728
 10
53.975535622699674
 20
10.653223304703365
 10
55.57553562269967
 20
10.653223304703365
 10
55.64875892740303
 20
10.096446609406728
 10
55.6482656095101
 20
10.0807489795244
 10
55.64678760273165
 20
10.065113301015652
 10
55.6443307400852
 20
10.049601280760298
 10
55.64090471768519
 20
10.034274137615514
 10
55.63652305647682
 20
10.01919236081299
 10
55.63120304887509
 20
10.004415471235559
 10
55.62496569051954
 20
9.99000178651546
 10
55.61783559741399
 20
9.976008190881299
 10
55.60984090877854
 20
9.96248991066198
 10
55.60101317599677
 20
9.94950029633361
 10
55.59138723809698
 20
9.937090611969555
 10
55.58100108425838
 20
9.925309832924556
 10
55.5698957038852
 20
9.914204452551376
 10
55.558114924840204
 20
9.90381829871278
 10
55.545705240476146
 20
9.89419236081299
 10
55.53271562614778
 20
9.885364628031224
 10
55.51919734592846
 20
9.877369939395763
 10
55.5052037502943
 20
9.870239846290223
 10
55.4907900655742
 20
9.864002487934664
 10
55.47601317599677
 20
9.85868248033294
 10
55.460931399194244
 20
9.854300819124571
 10
55.445604256049464
 20
9.850874796724556
 10
55.430092235794106
 20
9.848417934078109
 10
55.414456557285355
 20
9.84693992729966
 10
55.39875892740303
 20
9.846446609406728
 10
55.57553562269967
 20
0.20000000000000284
 10
53.975535622699674
 20
0.20000000000000284
  0
LWPOLYLINE
  5
38
330
17
100
AcDbEntity
  8
POCKET
100
AcDbPolyline
 90
57
 70
1
 10
44.37553562269967
 20
47.8
 10
44.448758927403034
 20
43.903553390593274
 10
44.444330740085206
 20
43.95039871923971
 10
44.4312030488751
 20
43.99558452876445
 10
44.40984090877854
 20
44.03751008933802
 10
44.381001084258386
 20
44.074690167075445
 10
44.34570524047615
 20
44.10580763918701
 10
44.305203750294304
 20
44.12976015370978
 10
44.26093139919425
 20
44.14569918087543
 10
44.21445655728536
 20
44.15306007270034
 10
44.16742561901196
 20
44.15158206592189
 10
44.121504678809295
 20
44.14131751966706
 10
44.0783205088776
 20
44.12263006060424
 10
44.03940292996586
 20
44.09618170128722
 10
44.006130616709086
 20
44.06290938803045
 10
43.97968225739207
 20
44.023991809118705
 10
43.960994798329246
 20
43.98080763918701
 10
43.950730252074415
 20
43.93488669898435
 10
43.949252245295966
 20
43.88785576071095
 10
43.956613137120875
 20
43.84138091880206
 10
43.972552164286526
 20
43.797108567702004
 10
43.996504678809295
 20
43.75660707752016
 10
44.02762215092086
 20
43.72131123373792
 10
44.06480222865829
 20
43.69247140921777
 10
44.10672778923186
 20
43.67110926912121
 10
44.1519135987566
 20
43.6579815779111
 10
44.198758927403034
 20
43.653553390593274
 10
44.37553562269967
 20
43.34677669529663
 10
42.77553562269968
 20
43.34677669529663
 10
42.702312317996316
 20
43.903553390593274
 10
42.70280563588925
 20
43.9192510204756
 10
42.7042836426677
 20
43.93488669898435
 10
42.706740505314144
 20
43.95039871923971
 10
42.71016652771416
 20
43.96572586238449
 10
42.71454818892253
 20
43.98080763918701
 10
42.71986819652425
 20
43.99558452876445
 10
42.72610555487981
 20
44.00999821348454
 10
42.73323564798535
 20
44.023991809118705
 10
42.74123033662081
 20
44.03751008933802
 10
42.75005806940258
 20
44.05049970366639
 10
42.75968400730237
 20
44.06290938803045
 10
42.770070161140964
 20
44.074690167075445
 10
42.781175541514145
 20
44.085795547448626
 10
42.79295632055914
 20
44.09618170128722
 10
42.8053660049232
 20
44.10580763918701
 10
42.81835561925157
 20
44.11463537196878
 10
42.831873899470885
 20
44.12263006060424
 10
42.84586749510505
 20
44.12976015370978
 10
42.860281179825144
 20
44.13599751206534
 10
42.87505806940258
 20
44.14131751966706
 10
42.8901398462051
 20
44.14569918087543
 10
42.90546698934988
 20
44.149125203275446
 10
42.92097900960524
 20
44.15158206592189
 10
42.93661468811399
 20
44.15306007270034
 10
42.952312317996316
 20
44.153553390593274
 10
42.77553562269968
 20
47.8
 10
44.37553562269967
 20
47.8
  0
LWPOLYLINE
  5
39
330
17
100
AcDbEntity
  8
POCKET
100
AcDbPolyline
 90
57
 70
1
 10
42.77553562269968
 20
0.20000000000000284
 10
42.702312317996316
 20
4.096446609406728
 10
42.706740505314144
 20
4.049601280760297
 10
42.71986819652425
 20
4.004415471235559
 10
42.74123033662081
 20
3.962489910661979
 10
42.770070161140964
 20
3.925309832924556
 10
42.8053660049232
 20
3.8941923608129914
 10
42.84586749510505
 20
3.870239846290223
 10
42.8901398462051
 20
3.8543008191245702
 10
42.93661468811399
 20
3.84693992729966
 10
42.98364562638739
 20
3.8484179340781086
 10
43.029566566590056
 20
3.8586824803329396
 10
43.07275073652175
 20
3.8773699393957624
 10
43.11166831543349
 20
3.9038182987127805
 10
43.144940628690264
 20
3.9370906119695555
 10
43.17138898800728
 20
3.976008190881299
 10
43.190076447070105
 20
4.019192360812991
 10
43.200340993324936
 20
4.065113301015652
 10
43.201819000103384
 20
4.112144239289056
 10
43.194458108278475
 20
4.1586190811979415
 10
43.178519081112825
 20
4.202891432297996
 10
43.154566566590056
 20
4.243392922479846
 10
43.12344909447849
 20
4.278688766262081
 10
43.08626901674106
 20
4.307528590782232
 10
43.04434345616749
 20
4.328890730878791
 10
42.99915764664275
 20
4.3420184220889
 10
42.952312317996316
 20
4.346446609406728
 10
42.77553562269968
 20
4.653223304703364
 10
44.37553562269967
 20
4.653223304703364
 10
44.448758927403034
 20
4.096446609406728
 10
44.4482656095101
 20
4.0807489795244
 10
44.44678760273165
 20
4.065113301015652
 10
44.444330740085206
 20
4.049601280760297
 10
44.44090471768519
 20
4.0342741376155145
 10
44.43652305647682
 20
4.019192360812991
 10
44.4312030488751
 20
4.004415471235559
 10
44.42496569051954
 20
3.99000178651546
 10
44.417835597414
 20
3.9760081908812994
 10
44.40984090877854
 20
3.962489910661979
 10
44.40101317599677
 20
3.9495002963336097
 10
44.39138723809698
 20
3.9370906119695555
 10
44.381001084258386
 20
3.925309832924556
 10
44.369895703885206
 20
3.9142044525513753
 10
44.35811492484021
 20
3.9038182987127805
 10
44.34570524047615
 20
3.8941923608129914
 10
44.33271562614778
 20
3.8853646280312244
 10
44.319197345928465
 20
3.877369939395762
 10
44.305203750294304
 20
3.870239846290223
 10
44.29079006557421
 20
3.8640024879346653
 10
44.27601317599677
 20
3.8586824803329396
 10
44.26093139919425
 20
3.8543008191245702
 10
44.24560425604947
 20
3.850874796724556
 10
44.23009223579411
 20
3.8484179340781086
 10
44.21445655728536
 20
3.84693992729966
 10
44.198758927403034
 20
3.846446609406728
 10
44.37553562269967
 20
0.20000000000000284
 10
42.77553562269968
 20
0.20000000000000284
  0
LWPOLYLINE
  5
3A
330
17
100
AcDbEntity
  8
CONTOUR
100
AcDbPolyline
 90
237
 70
1
 10
41.13063862907313
 20
0.0
 10
41.13063862907313
 20
5.175000000000001
 10
40.93063862907313
 20
5.175000000000001
 10
40.93379693279966
 20
5.2311099709864415
 10
40.94323194444953
 20
5.286511092651034
 10
40.95882446949292
 20
5.340503470717751
 10
40.98037752421004
 20
5.392405007871183
 10
41.00761882422876
 20
5.441560020838513
 10
41.04020422435161
 20
5.487347523777213
 10
41.04020422435161
 20
8.862652476222788
 10
41.04020422435161
 20
8.862652476222788
 10
41.00761882422876
 20
8.908439979161487
 10
40.98037752421004
 20
8.957594992128818
 10
40.95882446949292
 20
9.00949652928225
 10
40.94323194444953
 20
9.063488907348967
 10
40.93379693279966
 20
9.11889002901356
 10
40.93063862907313
 20
9.175
 10
41.13063862907313
 20
9.175
 10
41.13063862907313
 20
20.8
 10
40.93063862907313
 20
20.8
 10
40.93379693279966
 20
20.85610997098644
 10
40.94323194444953
 20
20.911511092651033
 10
40.95882446949292
 20
20.96550347071775
 10
40.98037752421004
 20
21.017405007871183
 10
41.00761882422876
 20
21.066560020838512
 10
41.04020422435161
 20
21.112347523777213
 10
41.04020422435161
 20
24.487652476222788
 10
41.04020422435161
 20
24.487652476222788
 10
41.00761882422876
 20
24.53343997916149
 10
40.98037752421004
 20
24.58259499212882
 10
40.95882446949292
 20
24.634496529282252
 10
40.94323194444953
 20
24.68848890734897
 10
40.93379693279966
 20
24.74389002901356
 10
40.93063862907313
 20
24.8
 10
41.13063862907313
 20
24.8
 10
41.13063862907313
 20
37.05
 10
40.93063862907313
 20
37.05
 10
40.93379693279966
 20
37.10610997098644
 10
40.94323194444953
 20
37.16151109265103
 10
40.95882446949292
 20
37.21550347071775
 10
40.98037752421004
 20
37.267405007871176
 10
41.00761882422876
 20
37.31656002083851
 10
41.04020422435161
 20
37.36234752377721
 10
41.04020422435161
 20
40.737652476222785
 10
41.04020422435161
 20
40.737652476222785
 10
41.00761882422876
 20
40.783439979161486
 10
40.98037752421004
 20
40.83259499212882
 10
40.95882446949292
 20
40.884496529282245
 10
40.94323194444953
 20
40.93848890734896
 10
40.93379693279966
 20
40.993890029013556
 10
40.93063862907313
 20
41.05
 10
41.13063862907313
 20
41.05
 10
41.13063862907313
 20
48.0
 10
41.13063862907313
 20
47.8
 10
41.532861174212094
 20
48.00298649158339
 10
41.60850074625704
 20
48.44713190327224
 10
41.296142099790885
 20
48.77181415958021
 10
40.84940357786124
 20
48.713408812157944
 10
40.631012721354715
 20
48.31933784725727
 10
40.81829110529592
 20
47.90956559527848
 10
40.81829110529592
 20
47.90956559527848
 10
37.84298615285034
 20
47.90956559527848
 10
38.03026453679154
 20
48.31933784725727
 10
37.81187368028502
 20
48.713408812157944
 10
37.36513515835537
 20
48.77181415958021
 10
37.05277651188921
 20
48.44713190327224
 10
37.12841608393416
 20
48.0029864915834
 10
37.530638629073124
 20
47.8
 10
37.530638629073124
 20
48.0
 10
36.88063862907313
 20
48.0
 10
36.88063862907313
 20
46.0
 10
36.8560153102634
 20
45.68713106991954
 10
36.78275166166344
 20
45.38196601125011
 10
36.66265167744986
 20
45.09201900052091
 10
36.49867261782302
 20
44.82442949541505
 10
36.294852191446225
 20
44.58578643762691
 10
36.05620913365807
 20
44.38196601125011
 10
35.788619628552226
 20
44.21798695162327
 10
35.49867261782302
 20
44.09788696740969
 10
35.19350755915359
 20
44.024623318809724
 10
34.88063862907313
 20
44.0
 10
32.38063862907313
 20
44.0
 10
32.06776969899266
 20
44.024623318809724
 10
31.762604640323236
 20
44.09788696740969
 10
31.472657629594035
 20
44.21798695162327
 10
31.205068124488182
 20
44.38196601125011
 10
30.966425066700037
 20
44.58578643762691
 10
30.762604640323236
 20
44.82442949541505
 10
30.598625580696396
 20
45.09201900052091
 10
30.47852559648282
 20
45.38196601125011
 10
30.405261947882853
 20
45.68713106991954
 10
30.38063862907313
 20
46.0
 10
30.38063862907313
 20
48.0
 10
30.330638629073132
 20
48.0
 10
30.330638629073132
 20
47.8
 10
30.73286117421209
 20
48.00298649158339
 10
30.80850074625704
 20
48.44713190327224
 10
30.49614209979088
 20
48.77181415958021
 10
30.049403577861238
 20
48.713408812157944
 10
29.831012721354714
 20
48.31933784725727
 10
30.01829110529592
 20
47.90956559527848
 10
30.01829110529592
 20
47.90956559527848
 10
26.642986152850344
 20
47.90956559527848
 10
26.83026453679155
 20
48.31933784725727
 10
26.611873680285026
 20
48.713408812157944
 10
26.165135158355383
 20
48.77181415958021
 10
25.852776511889225
 20
48.44713190327224
 10
25.928416083934174
 20
48.0029864915834
 10
26.330638629073132
 20
47.8
 10
26.330638629073132
 20
48.0
 10
21.916359044291816
 20
48.0
 10
21.916359044291816
 20
39.880562387464494
 10
21.916359044291816
 20
39.880562387464494
 10
22.00404093769239
 20
39.765656317574695
 10
22.086086534859515
 20
39.64666035414181
 10
22.16230538499552
 20
39.52385072010695
 10
22.23252056281365
 20
39.39751249100824
 10
22.29656907923119
 20
39.267938933240686
 10
22.354302259712735
 20
39.135430823302784
 10
22.4055860893854
 20
39.000295749610075
 10
22.450301524124882
 20
38.86284739849632
 10
22.48834476689016
 20
38.723404826059735
 10
22.51962750866552
 20
38.58229171754445
 10
22.544077133450457
 20
38.439835635976465
 10
22.561636886821784
 20
38.29636726179815
 10
22.572266007676507
 20
38.15221962526641
 10
22.57593982284976
 20
38.00772733339622
 10
22.572649804388135
 20
37.863225793244034
 10
22.562403589345436
 20
37.7190504333342
 10
22.545224962054956
 20
37.57553592503541
 10
22.521153798919368
 20
37.43301540569476
 10
22.490245975846435
 20
37.291819705332735
 10
22.490245975846435
 20
37.291819705332735
 10
22.351530895681336
 20
36.73751048471425
 10
22.208172163367575
 20
36.18320126409576
 10
22.06318350181887
 20
35.62889204347727
 10
21.919612898726538
 20
35.07458282285878
 10
21.780478531004473
 20
34.520273602240295
 10
21.64870531592364
 20
33.96596438162181
 10
21.527063422773985
 20
33.41165516100332
 10
21.418110037676886
 20
32.85734594038483
 10
21.324135605782732
 20
32.30303671976634
 10
21.247115680963482
 20
31.748727499147854
 10
21.188669395227997
 20
31.194418278529366
 10
21.1500254209264
 20
30.640109057910877
 10
21.131996141294437
 20
30.08579983729239
 10
21.13496057233111
 20
29.5314906166739
 10
21.15885639503013
 20
28.977181396055414
 10
21.203181265465545
 20
28.422872175436925
 10
21.267003375190658
 20
27.868562954818437
 10
21.348981039946853
 20
27.31425373419995
 10
21.44739090488368
 20
26.75994451358146
 10
21.56016417335298
 20
26.205635292962974
 10
21.6849300976664
 20
25.651326072344485
 10
21.819065817542697
 20
25.097016851725996
 10
21.959751498528735
 20
24.54270763110751
 10
22.104029611260422
 20
23.98839841048902
 10
22.24886710538031
 20
23.434089189870534
 10
22.391219171076354
 20
22.879779969252045
 10
22.528093247830764
 20
22.325470748633556
 10
22.656611934771277
 20
21.771161528015067
 10
22.774073480107678
 20
21.21685230739658
 10
22.87800857802966
 20
20.662543086778093
 10
22.966232279067533
 20
20.108233866159605
 10
23.036889922643184
 20
19.553924645541116
 10
23.088496126205893
 20
18.999615424922627
 10
23.11996601131361
 20
18.44530620430414
 10
23.130638010217314
 20
17.890996983685653
 10
23.120287773502685
 20
17.336687763067165
 10
23.0891328864193
 20
16.782378542448676
 10
23.037828294749406
 20
16.228069321830187
 10
22.967452536374843
 20
15.673760101211698
 10
22.87948506798556
 20
15.119450880593213
 10
22.77577516357321
 20
14.565141659974728
 10
22.65850303853355
 20
14.010832439356236
 10
22.530134016636303
 20
13.456523218737743
 10
22.393366703375932
 20
12.902213998119258
 10
22.251076255215995
 20
12.347904777500773
 10
22.106253937335108
 20
11.79359555688228
 10
21.961944240506654
 20
11.239286336263795
 10
21.821180879056808
 20
10.68497711564531
 10
21.686923015367686
 20
10.130667895026818
 10
21.686923015367686
 20
10.130667895026818
 10
21.666165217175166
 20
10.047547956454025
 10
21.64304242232372
 20
9.965054643195295
 10
21.61757348824997
 20
9.883255231392447
 10
21.589779185747968
 20
9.802216431286737
 10
21.55968218202992
 20
9.722004332814365
 10
21.527307022240283
 20
9.642684351707835
 10
21.49268010943836
 20
9.56432117614716
 10
21.455829683065684
 20
9.486978714004444
 10
21.416785795915782
 20
9.410720040724797
 10
21.3755802896251
 20
9.335607347886146
 10
21.332246768705023
 20
9.261701892479834
 10
21.28682057313627
 20
9.18906394695344
 10
21.239338749547894
 20
9.117752750056553
 10
21.189840021004485
 20
9.047826458529457
 10
21.138364755426192
 20
8.979342099674398
 10
21.084954932667262
 20
8.912355524847754
 10
21.029654110280052
 20
8.846921363911406
 10
20.97250738799233
 20
8.78309298068016
 10
20.91356137092687
 20
8.720922429401725
 10
20.91356137092687
 20
0.0
 10
26.330638629073132
 20
2.831068712794149e-15
 10
26.330638629073132
 20
0.20000000000000284
 10
26.386748600059573
 20
0.1968416962734747
 10
26.442149721724164
 20
0.18740668462360616
 10
26.49614209979088
 20
0.17181415958021184
 10
26.548043636944314
 20
0.1502611048630938
 10
26.597198649911643
 20
0.12301980484437658
 10
26.642986152850344
 20
0.09043440472151854
 10
30.01829110529592
 20
0.09043440472151854
 10
30.01829110529592
 20
0.09043440472151854
 10
30.06407860823462
 20
0.12301980484437647
 10
30.11323362120195
 20
0.1502611048630938
 10
30.165135158355383
 20
0.17181415958021184
 10
30.2191275364221
 20
0.1874066846236062
 10
30.27452865808669
 20
0.1968416962734747
 10
30.330638629073132
 20
0.20000000000000284
 10
30.330638629073132
 20
2.831068712794149e-15
 10
37.530638629073124
 20
2.831068712794149e-15
 10
37.530638629073124
 20
0.20000000000000284
 10
37.586748600059565
 20
0.1968416962734747
 10
37.64214972172416
 20
0.18740668462360616
 10
37.696142099790876
 20
0.17181415958021184
 10
37.7480436369443
 20
0.1502611048630938
 10
37.797198649911635
 20
0.12301980484437658
 10
37.84298615285034
 20
0.09043440472151854
 10
40.81829110529592
 20
0.09043440472151854
 10
40.81829110529592
 20
0.09043440472151854
 10
40.86407860823462
 20
0.12301980484437647
 10
40.913233621201954
 20
0.1502611048630938
 10
40.96513515835538
 20
0.17181415958021184
 10
41.0191275364221
 20
0.1874066846236062
 10
41.07452865808669
 20
0.1968416962734747
 10
41.13063862907313
 20
0.20000000000000284
 10
41.13063862907313
 20
2.831068712794149e-15
  0
LWPOLYLINE
  5
3B
330
17
100
AcDbEntity
  8
POCKET
100
AcDbPolyline
 90
57
 70
1
 10
40.93063862907313
 20
6.375000000000001
 10
31.034192019666403
 20
6.301776695296637
 10
31.081037348312833
 20
6.306204882614465
 10
31.126223157837572
 20
6.319332573824575
 10
31.168148718411153
 20
6.340694713921134
 10
31.205328796148574
 20
6.369534538441284
 10
31.23644626826014
 20
6.404830382223519
 10
31.260398782782907
 20
6.44533187240537
 10
31.27633780994856
 20
6.489604223505424
 10
31.28369870177347
 20
6.5360790654143095
 10
31.282220694995022
 20
6.583110003687714
 10
31.27195614874019
 20
6.629030943890374
 10
31.25326868967737
 20
6.672215113822066
 10
31.22682033036035
 20
6.71113269273381
 10
31.193548017103573
 20
6.7444050059905845
 10
31.15463043819183
 20
6.7708533653076035
 10
31.11144626826014
 20
6.789540824370426
 10
31.06552532805748
 20
6.799805370625257
 10
31.018494389784074
 20
6.801283377403705
 10
30.97201954787519
 20
6.793922485578795
 10
30.927747196775133
 20
6.777983458413142
 10
30.887245706593284
 20
6.754030943890374
 10
30.85194986281105
 20
6.72291347177881
 10
30.8231100382909
 20
6.685733394041386
 10
30.80174789819434
 20
6.643807833467807
 10
30.78862020698423
 20
6.598622023943069
 10
30.784192019666403
 20
6.551776695296637
 10
30.477415324369765
 20
6.375000000000001
 10
30.477415324369765
 20
7.9750000000000005
 10
31.034192019666403
 20
8.048223304703363
 10
31.04988964954873
 20
8.047729986810431
 10
31.06552532805748
 20
8.046251980031984
 10
31.081037348312833
 20
8.043795117385535
 10
31.096364491457617
 20
8.040369094985522
 10
31.11144626826014
 20
8.035987433777152
 10
31.126223157837572
 20
8.030667426175427
 10
31.140636842557672
 20
8.02443006781987
 10
31.15463043819183
 20
8.01729997471433
 10
31.168148718411153
 20
8.009305286078868
 10
31.181138332739522
 20
8.0004775532971
 10
31.193548017103573
 20
7.990851615397311
 10
31.205328796148574
 20
7.980465461558717
 10
31.216434176521755
 20
7.9693600811855365
 10
31.22682033036035
 20
7.9575793021405365
 10
31.23644626826014
 20
7.945169617776482
 10
31.245274001041906
 20
7.932180003448114
 10
31.25326868967737
 20
7.918661723228793
 10
31.260398782782907
 20
7.904668127594632
 10
31.266636141138466
 20
7.890254442874533
 10
31.27195614874019
 20
7.875477553297101
 10
31.27633780994856
 20
7.8603957764945775
 10
31.279763832348575
 20
7.845068633349795
 10
31.282220694995022
 20
7.82955661309444
 10
31.28369870177347
 20
7.813920934585692
 10
31.284192019666403
 20
7.798223304703364
 10
40.93063862907313
 20
7.9750000000000005
 10
40.93063862907313
 20
6.375000000000001
  0
LWPOLYLINE
  5
3C
330
17
100
AcDbEntity
  8
POCKET
100
AcDbPolyline
 90
57
 70
1
 10
40.93063862907313
 20
22.0
 10
31.034192019666403
 20
21.92677669529664
 10
31.081037348312833
 20
21.931204882614466
 10
31.126223157837572
 20
21.944332573824575
 10
31.168148718411153
 20
21.965694713921135
 10
31.205328796148574
 20
21.994534538441286
 10
31.23644626826014
 20
22.02983038222352
 10
31.260398782782907
 20
22.07033187240537
 10
31.27633780994856
 20
22.114604223505424
 10
31.28369870177347
 20
22.16107906541431
 10
31.282220694995022
 20
22.208110003687715
 10
31.27195614874019
 20
22.254030943890374
 10
31.25326868967737
 20
22.297215113822066
 10
31.22682033036035
 20
22.33613269273381
 10
31.193548017103573
 20
22.369405005990586
 10
31.15463043819183
 20
22.395853365307605
 10
31.11144626826014
 20
22.414540824370427
 10
31.06552532805748
 20
22.424805370625258
 10
31.018494389784074
 20
22.426283377403706
 10
30.97201954787519
 20
22.418922485578797
 10
30.927747196775133
 20
22.402983458413143
 10
30.887245706593284
 20
22.379030943890374
 10
30.85194986281105
 20
22.34791347177881
 10
30.8231100382909
 20
22.31073339404139
 10
30.80174789819434
 20
22.268807833467807
 10
30.78862020698423
 20
22.22362202394307
 10
30.784192019666403
 20
22.17677669529664
 10
30.477415324369765
 20
22.0
 10
30.477415324369765
 20
23.6
 10
31.034192019666403
 20
23.673223304703363
 10
31.04988964954873
 20
23.67272998681043
 10
31.06552532805748
 20
23.671251980031982
 10
31.081037348312833
 20
23.668795117385535
 10
31.096364491457617
 20
23.66536909498552
 10
31.11144626826014
 20
23.66098743377715
 10
31.126223157837572
 20
23.655667426175427
 10
31.140636842557672
 20
23.649430067819868
 10
31.15463043819183
 20
23.64229997471433
 10
31.168148718411153
 20
23.634305286078867
 10
31.181138332739522
 20
23.6254775532971
 10
31.193548017103573
 20
23.61585161539731
 10
31.205328796148574
 20
23.605465461558715
 10
31.216434176521755
 20
23.594360081185535
 10
31.22682033036035
 20
23.582579302140534
 10
31.23644626826014
 20
23.570169617776482
 10
31.245274001041906
 20
23.557180003448114
 10
31.25326868967737
 20
23.54366172322879
 10
31.260398782782907
 20
23.529668127594633
 10
31.266636141138466
 20
23.515254442874532
 10
31.27195614874019
 20
23.5004775532971
 10
31.27633780994856
 20
23.485395776494578
 10
31.279763832348575
 20
23.470068633349793
 10
31.282220694995022
 20
23.45455661309444
 10
31.28369870177347
 20
23.438920934585692
 10
31.284192019666403
 20
23.423223304703363
 10
40.93063862907313
 20
23.6
 10
40.93063862907313
 20
22.0
  0
LWPOLYLINE
  5
3D
330
17
100
AcDbEntity
  8
POCKET
100
AcDbPolyline
 90
57
 70
1
 10
40.93063862907313
 20
38.25
 10
31.034192019666403
 20
38.17677669529664
 10
31.081037348312833
 20
38.181204882614466
 10
31.126223157837572
 20
38.194332573824575
 10
31.168148718411153
 20
38.21569471392113
 10
31.205328796148574
 20
38.244534538441286
 10
31.23644626826014
 20
38.27983038222352
 10
31.260398782782907
 20
38.32033187240537
 10
31.27633780994856
 20
38.364604223505424
 10
31.28369870177347
 20
38.41107906541431
 10
31.282220694995022
 20
38.458110003687715
 10
31.27195614874019
 20
38.50403094389038
 10
31.25326868967737
 20
38.54721511382207
 10
31.22682033036035
 20
38.58613269273381
 10
31.193548017103573
 20
38.619405005990586
 10
31.15463043819183
 20
38.6458533653076
 10
31.11144626826014
 20
38.66454082437043
 10
31.06552532805748
 20
38.67480537062526
 10
31.018494389784074
 20
38.676283377403706
 10
30.97201954787519
 20
38.6689224855788
 10
30.927747196775133
 20
38.652983458413146
 10
30.887245706593284
 20
38.62903094389038
 10
30.85194986281105
 20
38.59791347177881
 10
30.8231100382909
 20
38.560733394041385
 10
30.80174789819434
 20
38.51880783346781
 10
30.78862020698423
 20
38.47362202394307
 10
30.784192019666403
 20
38.42677669529664
 10
30.477415324369765
 20
38.25
 10
30.477415324369765
 20
39.849999999999994
 10
31.034192019666403
 20
39.923223304703356
 10
31.04988964954873
 20
39.922729986810424
 10
31.06552532805748
 20
39.921251980031975
 10
31.081037348312833
 20
39.91879511738553
 10
31.096364491457617
 20
39.915369094985515
 10
31.11144626826014
 20
39.910987433777144
 10
31.126223157837572
 20
39.90566742617542
 10
31.140636842557672
 20
39.899430067819864
 10
31.15463043819183
 20
39.89229997471432
 10
31.168148718411153
 20
39.88430528607886
 10
31.181138332739522
 20
39.875477553297095
 10
31.193548017103573
 20
39.865851615397304
 10
31.205328796148574
 20
39.85546546155871
 10
31.216434176521755
 20
39.84436008118553
 10
31.22682033036035
 20
39.83257930214053
 10
31.23644626826014
 20
39.82016961777647
 10
31.245274001041906
 20
39.8071800034481
 10
31.25326868967737
 20
39.79366172322879
 10
31.260398782782907
 20
39.779668127594626
 10
31.266636141138466
 20
39.76525444287453
 10
31.27195614874019
 20
39.750477553297095
 10
31.27633780994856
 20
39.73539577649457
 10
31.279763832348575
 20
39.72006863334979
 10
31.282220694995022
 20
39.70455661309443
 10
31.28369870177347
 20
39.68892093458568
 10
31.284192019666403
 20
39.673223304703356
 10
40.93063862907313
 20
39.849999999999994
 10
40.93063862907313
 20
38.25
  0
LWPOLYLINE
  5
3E
330
17
100
AcDbEntity
  8
POCKET
100
AcDbPolyline
 90
57
 70
1
 10
27.53063862907313
 20
0.20000000000000284
 10
27.45741532436977
 20
10.096446609406728
 10
27.461843511687597
 20
10.049601280760298
 10
27.474971202897706
 20
10.004415471235559
 10
27.496333342994266
 20
9.96248991066198
 10
27.525173167514417
 20
9.925309832924556
 10
27.56046901129665
 20
9.89419236081299
 10
27.6009705014785
 20
9.870239846290223
 10
27.645242852578555
 20
9.854300819124571
 10
27.69171769448744
 20
9.84693992729966
 10
27.738748632760846
 20
9.848417934078109
 10
27.784669572963505
 20
9.85868248033294
 10
27.827853742895197
 20
9.877369939395763
 10
27.86677132180694
 20
9.90381829871278
 10
27.900043635063717
 20
9.937090611969555
 10
27.926491994380736
 20
9.976008190881299
 10
27.945179453443558
 20
10.01919236081299
 10
27.95544399969839
 20
10.065113301015652
 10
27.956922006476837
 20
10.112144239289057
 10
27.949561114651928
 20
10.158619081197942
 10
27.933622087486274
 20
10.202891432297996
 10
27.909669572963505
 20
10.243392922479845
 10
27.87855210085194
 20
10.27868876626208
 10
27.84137202311452
 20
10.307528590782232
 10
27.79944646254094
 20
10.328890730878792
 10
27.7542606530162
 20
10.3420184220889
 10
27.70741532436977
 20
10.346446609406728
 10
27.53063862907313
 20
10.653223304703365
 10
29.130638629073133
 20
10.653223304703365
 10
29.203861933776494
 20
10.096446609406728
 10
29.203368615883562
 20
10.0807489795244
 10
29.201890609105114
 20
10.065113301015652
 10
29.199433746458666
 20
10.049601280760298
 10
29.196007724058653
 20
10.034274137615514
 10
29.191626062850283
 20
10.01919236081299
 10
29.186306055248558
 20
10.004415471235559
 10
29.180068696893
 20
9.99000178651546
 10
29.17293860378746
 20
9.976008190881299
 10
29.164943915151998
 20
9.96248991066198
 10
29.15611618237023
 20
9.94950029633361
 10
29.146490244470442
 20
9.937090611969555
 10
29.136104090631846
 20
9.925309832924556
 10
29.124998710258666
 20
9.914204452551376
 10
29.113217931213665
 20
9.90381829871278
 10
29.100808246849613
 20
9.89419236081299
 10
29.087818632521245
 20
9.885364628031224
 10
29.074300352301922
 20
9.877369939395763
 10
29.060306756667764
 20
9.870239846290223
 10
29.045893071947663
 20
9.864002487934664
 10
29.03111618237023
 20
9.85868248033294
 10
29.01603440556771
 20
9.854300819124571
 10
29.000707262422925
 20
9.850874796724556
 10
28.98519524216757
 20
9.848417934078109
 10
28.969559563658823
 20
9.84693992729966
 10
28.953861933776494
 20
9.846446609406728
 10
29.130638629073133
 20
0.20000000000000284
 10
27.53063862907313
 20
0.20000000000000284
  0
LWPOLYLINE
  5
3F
330
17
100
AcDbEntity
  8
POCKET
100
AcDbPolyline
 90
57
 70
1
 10
29.130638629073133
 20
47.8
 10
29.203861933776494
 20
37.903553390593274
 10
29.199433746458666
 20
37.95039871923971
 10
29.186306055248558
 20
37.99558452876445
 10
29.164943915151998
 20
38.03751008933802
 10
29.136104090631846
 20
38.074690167075445
 10
29.100808246849613
 20
38.10580763918701
 10
29.060306756667764
 20
38.12976015370978
 10
29.01603440556771
 20
38.14569918087543
 10
28.969559563658823
 20
38.15306007270034
 10
28.922528625385418
 20
38.15158206592189
 10
28.87660768518276
 20
38.14131751966706
 10
28.833423515251067
 20
38.12263006060424
 10
28.794505936339323
 20
38.09618170128722
 10
28.761233623082546
 20
38.06290938803045
 10
28.734785263765527
 20
38.023991809118705
 10
28.716097804702706
 20
37.98080763918701
 10
28.705833258447875
 20
37.93488669898435
 10
28.704355251669426
 20
37.88785576071095
 10
28.711716143494336
 20
37.84138091880206
 10
28.72765517065999
 20
37.797108567702004
 10
28.75160768518276
 20
37.75660707752016
 10
28.782725157294323
 20
37.72131123373792
 10
28.819905235031744
 20
37.69247140921777
 10
28.861830795605325
 20
37.67110926912121
 10
28.907016605130064
 20
37.6579815779111
 10
28.953861933776494
 20
37.653553390593274
 10
29.130638629073133
 20
37.34677669529663
 10
27.53063862907313
 20
37.34677669529663
 10
27.45741532436977
 20
37.903553390593274
 10
27.4579086422627
 20
37.9192510204756
 10
27.45938664904115
 20
37.93488669898435
 10
27.461843511687597
 20
37.95039871923971
 10
27.46526953408761
 20
37.96572586238449
 10
27.46965119529598
 20
37.98080763918701
 10
27.474971202897706
 20
37.99558452876445
 10
27.481208561253265
 20
38.00999821348454
 10
27.488338654358802
 20
38.023991809118705
 10
27.496333342994266
 20
38.03751008933802
 10
27.505161075776034
 20
38.05049970366639
 10
27.51478701367582
 20
38.06290938803045
 10
27.525173167514417
 20
38.074690167075445
 10
27.536278547887598
 20
38.085795547448626
 10
27.5480593269326
 20
38.09618170128722
 10
27.56046901129665
 20
38.10580763918701
 10
27.57345862562502
 20
38.11463537196878
 10
27.58697690584434
 20
38.12263006060424
 10
27.6009705014785
 20
38.12976015370978
 10
27.6153841861986
 20
38.13599751206534
 10
27.630161075776034
 20
38.14131751966706
 10
27.645242852578555
 20
38.14569918087543
 10
27.66056999572334
 20
38.149125203275446
 10
27.676082015978693
 20
38.15158206592189
 10
27.69171769448744
 20
38.15306007270034
 10
27.70741532436977
 20
38.153553390593274
 10
27.53063862907313
 20
47.8
 10
29.130638629073133
 20
47.8
  0
LWPOLYLINE
  5
40
330
17
100
AcDbEntity
  8
POCKET
100
AcDbPolyline
 90
57
 70
1
 10
38.73063862907313
 20
0.20000000000000284
 10
38.657415324369765
 20
4.096446609406728
 10
38.66184351168759
 20
4.049601280760297
 10
38.6749712028977
 20
4.004415471235559
 10
38.69633334299426
 20
3.962489910661979
 10
38.72517316751441
 20
3.925309832924556
 10
38.76046901129665
 20
3.8941923608129914
 10
38.800970501478496
 20
3.870239846290223
 10
38.84524285257855
 20
3.8543008191245702
 10
38.89171769448744
 20
3.84693992729966
 10
38.93874863276084
 20
3.8484179340781086
 10
38.984669572963504
 20
3.8586824803329396
 10
39.027853742895196
 20
3.8773699393957624
 10
39.06677132180694
 20
3.9038182987127805
 10
39.10004363506371
 20
3.9370906119695555
 10
39.12649199438073
 20
3.976008190881299
 10
39.14517945344355
 20
4.019192360812991
 10
39.155443999698385
 20
4.065113301015652
 10
39.15692200647683
 20
4.112144239289056
 10
39.149561114651924
 20
4.1586190811979415
 10
39.13362208748627
 20
4.202891432297996
 10
39.109669572963504
 20
4.243392922479846
 10
39.07855210085194
 20
4.278688766262081
 10
39.04137202311451
 20
4.307528590782232
 10
38.99944646254094
 20
4.328890730878791
 10
38.9542606530162
 20
4.3420184220889
 10
38.907415324369765
 20
4.346446609406728
 10
38.73063862907313
 20
4.653223304703364
 10
40.33063862907312
 20
4.653223304703364
 10
40.40386193377648
 20
4.096446609406728
 10
40.40336861588355
 20
4.0807489795244
 10
40.4018906091051
 20
4.065113301015652
 10
40.399433746458655
 20
4.049601280760297
 10
40.39600772405864
 20
4.0342741376155145
 10
40.39162606285027
 20
4.019192360812991
 10
40.386306055248546
 20
4.004415471235559
 10
40.38006869689299
 20
3.99000178651546
 10
40.372938603787446
 20
3.9760081908812994
 10
40.36494391515199
 20
3.962489910661979
 10
40.35611618237022
 20
3.9495002963336097
 10
40.34649024447043
 20
3.9370906119695555
 10
40.336104090631835
 20
3.925309832924556
 10
40.324998710258654
 20
3.9142044525513753
 10
40.31321793121366
 20
3.9038182987127805
 10
40.3008082468496
 20
3.8941923608129914
 10
40.28781863252123
 20
3.8853646280312244
 10
40.274300352301914
 20
3.877369939395762
 10
40.26030675666775
 20
3.870239846290223
 10
40.245893071947656
 20
3.8640024879346653
 10
40.23111618237022
 20
3.8586824803329396
 10
40.2160344055677
 20
3.8543008191245702
 10
40.20070726242292
 20
3.850874796724556
 10
40.18519524216756
 20
3.8484179340781086
 10
40.16955956365881
 20
3.84693992729966
 10
40.15386193377648
 20
3.846446609406728
 10
40.33063862907312
 20
0.20000000000000284
 10
38.73063862907313
 20
0.20000000000000284
  0
LWPOLYLINE
  5
41
330
17
100
AcDbEntity
  8
POCKET
100
AcDbPolyline
 90
57
 70
1
 10
40.33063862907312
 20
47.8
 10
40.40386193377648
 20
43.903553390593274
 10
40.399433746458655
 20
43.95039871923971
 10
40.386306055248546
 20
43.99558452876445
 10
40.36494391515199
 20
44.03751008933802
 10
40.336104090631835
 20
44.074690167075445
 10
40.3008082468496
 20
44.10580763918701
 10
40.26030675666775
 20
44.12976015370978
 10
40.2160344055677
 20
44.14569918087543
 10
40.16955956365881
 20
44.15306007270034
 10
40.12252862538541
 20
44.15158206592189
 10
40.07660768518274
 20
44.14131751966706
 10
40.03342351525105
 20
44.12263006060424
 10
39.99450593633931
 20
44.09618170128722
 10
39.961233623082535
 20
44.06290938803045
 10
39.93478526376552
 20
44.023991809118705
 10
39.916097804702694
 20
43.98080763918701
 10
39.90583325844786
 20
43.93488669898435
 10
39.904355251669415
 20
43.88785576071095
 10
39.911716143494324
 20
43.84138091880206
 10
39.927655170659975
 20
43.797108567702004
 10
39.95160768518274
 20
43.75660707752016
 10
39.98272515729431
 20
43.72131123373792
 10
40.019905235031736
 20
43.69247140921777
 10
40.06183079560531
 20
43.67110926912121
 10
40.10701660513005
 20
43.6579815779111
 10
40.15386193377648
 20
43.653553390593274
 10
40.33063862907312
 20
43.34677669529663
 10
38.73063862907313
 20
43.34677669529663
 10
38.657415324369765
 20
43.903553390593274
 10
38.6579086422627
 20
43.9192510204756
 10
38.659386649041146
 20
43.93488669898435
 10
38.66184351168759
 20
43.95039871923971
 10
38.66526953408761
 20
43.96572586238449
 10
38.66965119529598
 20
43.98080763918701
 10
38.6749712028977
 20
43.99558452876445
 10
38.68120856125326
 20
44.00999821348454
 10
38.6883386543588
 20
44.023991809118705
 10
38.69633334299426
 20
44.03751008933802
 10
38.705161075776026
 20
44.05049970366639
 10
38.71478701367582
 20
44.06290938803045
 10
38.72517316751441
 20
44.074690167075445
 10
38.73627854788759
 20
44.085795547448626
 10
38.74805932693259
 20
44.09618170128722
 10
38.76046901129665
 20
44.10580763918701
 10
38.77345862562502
 20
44.11463537196878
 10
38.786976905844334
 20
44.12263006060424
 10
38.800970501478496
 20
44.12976015370978
 10
38.81538418619859
 20
44.13599751206534
 10
38.830161075776026
 20
44.14131751966706
 10
38.84524285257855
 20
44.14569918087543
 10
38.86056999572333
 20
44.149125203275446
 10
38.87608201597869
 20
44.15158206592189
 10
38.89171769448744
 20
44.15306007270034
 10
38.907415324369765
 20
44.153553390593274
 10
38.73063862907313
 20
47.8
 10
40.33063862907312
 20
47.8
  0
LWPOLYLINE
  5
42
330
17
100
AcDbEntity
  8
CONTOUR
100
AcDbPolyline
 90
213
 70
1
 10
96.0000079833114
 20
0.0
 10
96.0000079833114
 20
5.175000000000001
 10
95.8000079833114
 20
5.175000000000001
 10
95.80316628703793
 20
5.2311099709864415
 10
95.8126012986878
 20
5.286511092651034
 10
95.8281938237312
 20
5.340503470717751
 10
95.84974687844831
 20
5.392405007871183
 10
95.87698817846703
 20
5.441560020838513
 10
95.90957357858989
 20
5.487347523777213
 10
95.90957357858989
 20
8.862652476222788
 10
95.90957357858989
 20
8.862652476222788
 10
95.87698817846703
 20
8.908439979161487
 10
95.84974687844831
 20
8.957594992128818
 10
95.8281938237312
 20
9.00949652928225
 10
95.8126012986878
 20
9.063488907348967
 10
95.80316628703793
 20
9.11889002901356
 10
95.8000079833114
 20
9.175
 10
96.0000079833114
 20
9.175
 10
96.0000079833114
 20
20.8
 10
95.8000079833114
 20
20.8
 10
95.80316628703793
 20
20.85610997098644
 10
95.8126012986878
 20
20.911511092651033
 10
95.8281938237312
 20
20.96550347071775
 10
95.84974687844831
 20
21.017405007871183
 10
95.87698817846703
 20
21.066560020838512
 10
95.90957357858989
 20
21.112347523777213
 10
95.90957357858989
 20
24.487652476222788
 10
95.90957357858989
 20
24.487652476222788
 10
95.87698817846703
 20
24.53343997916149
 10
95.84974687844831
 20
24.58259499212882
 10
95.8281938237312
 20
24.634496529282252
 10
95.8126012986878
 20
24.68848890734897
 10
95.80316628703793
 20
24.74389002901356
 10
95.8000079833114
 20
24.8
 10
96.0000079833114
 20
24.8
 10
96.0000079833114
 20
37.05
 10
95.8000079833114
 20
37.05
 10
95.80316628703793
 20
37.10610997098644
 10
95.8126012986878
 20
37.16151109265103
 10
95.8281938237312
 20
37.21550347071775
 10
95.84974687844831
 20
37.267405007871176
 10
95.87698817846703
 20
37.31656002083851
 10
95.90957357858989
 20
37.36234752377721
 10
95.90957357858989
 20
40.737652476222785
 10
95.90957357858989
 20
40.737652476222785
 10
95.87698817846703
 20
40.783439979161486
 10
95.84974687844831
 20
40.83259499212882
 10
95.8281938237312
 20
40.884496529282245
 10
95.8126012986878
 20
40.93848890734896
 10
95.80316628703793
 20
40.993890029013556
 10
95.8000079833114
 20
41.05
 10
96.0000079833114
 20
41.05
 10
96.0000079833114
 20
48.0
 10
96.0000079833114
 20
47.8
 10
96.40223052845036
 20
48.00298649158339
 10
96.47787010049531
 20
48.44713190327224
 10
96.16551145402916
 20
48.7718141595802
 10
95.71877293209951
 20
48.713408812157944
 10
95.50038207559298
 20
48.31933784725727
 10
95.68766045953419
 20
47.90956559527849
 10
95.68766045953419
 20
47.90956559527849
 10
92.71235550708862
 20
47.90956559527849
 10
92.89963389102982
 20
48.31933784725727
 10
92.68124303452329
 20
48.713408812157944
 10
92.23450451259365
 20
48.7718141595802
 10
91.9221458661275
 20
48.44713190327224
 10
91.99778543817244
 20
48.00298649158339
 10
92.4000079833114
 20
47.8
 10
92.4000079833114
 20
48.0
 10
85.20000798331141
 20
48.0
 10
85.20000798331141
 20
47.8
 10
85.60223052845036
 20
48.00298649158339
 10
85.67787010049531
 20
48.44713190327224
 10
85.36551145402916
 20
48.7718141595802
 10
84.91877293209951
 20
48.713408812157944
 10
84.70038207559298
 20
48.31933784725727
 10
84.88766045953419
 20
47.90956559527849
 10
84.88766045953419
 20
47.90956559527849
 10
81.51235550708863
 20
47.90956559527849
 10
81.69963389102983
 20
48.31933784725727
 10
81.4812430345233
 20
48.713408812157944
 10
81.03450451259366
 20
48.7718141595802
 10
80.7221458661275
 20
48.44713190327224
 10
80.79778543817245
 20
48.00298649158339
 10
81.20000798331141
 20
47.8
 10
81.20000798331141
 20
48.0
 10
75.73026682980563
 20
48.0
 10
75.73026682980563
 20
39.88739202540123
 10
75.73026682980563
 20
39.88739202540123
 10
75.814383376173
 20
39.77815049238335
 10
75.89339188395664
 20
39.66515951218281
 10
75.96712547572386
 20
39.54865773814491
 10
76.03542841543006
 20
39.42889123892093
 10
76.09815643735575
 20
39.306112978735484
 10
76.1551770508167
 20
39.18058228308932
 10
76.20636982000357
 20
39.05256429102627
 10
76.2516266183597
 20
38.92232939512111
 10
76.29085185696015
 20
38.7901526703712
 10
76.32396268640937
 20
38.656313293198195
 10
76.35088917183117
 20
38.5210939517869
 10
76.37157444058126
 20
38.38478024900684
 10
76.3859748023706
 20
38.24766009917754
 10
76.39405984154557
 20
38.1100231199517
 10
76.39581248133031
 20
37.97216002060071
 10
76.39122901989526
 20
37.83436198799448
 10
76.38031913817605
 20
37.6969200715725
 10
76.36310587942589
 20
37.560124568605204
 10
76.33962560054495
 20
37.42426441104403
 10
76.33962560054495
 20
37.42426441104403
 10
76.23717320610102
 20
36.86521741300466
 10
76.15103212749227
 20
36.30617041496529
 10
76.08304427646887
 20
35.747123416925916
 10
76.03466340336328
 20
35.188076418886546
 10
76.00692401227151
 20
34.629029420847175
 10
76.00041924076766
 20
34.0699824228078
 10
76.0152881771387
 20
33.51093542476843
 10
76.0512128863291
 20
32.951888426729056
 10
76.10742520818754
 20
32.392841428689685
 10
76.1827231826526
 20
31.833794430650315
 10
76.27549675066568
 20
31.274747432610944
 10
76.38376218126143
 20
30.715700434571573
 10
76.5052044886982
 20
30.156653436532203
 10
76.63722693264434
 20
29.597606438492832
 10
76.77700654298252
 20
29.038559440453458
 10
76.92155448197268
 20
28.479512442414087
 10
77.0677799530798
 20
27.920465444374717
 10
77.21255628993572
 20
27.361418446335342
 10
77.3527878122877
 20
26.802371448295972
 10
77.48547601938634
 20
26.2433244502566
 10
77.60778370543261
 20
25.68427745221723
 10
77.7170956261354
 20
25.12523045417786
 10
77.81107441917669
 20
24.56618345613849
 10
77.88771058286501
 20
24.00713645809912
 10
77.94536544430859
 20
23.448089460059748
 10
77.98280619834105
 20
22.889042462020374
 10
77.99923226797983
 20
22.329995463981003
 10
77.9942924227648
 20
21.770948465941633
 10
77.96809228894409
 20
21.211901467902262
 10
77.92119209092077
 20
20.652854469862888
 10
77.85459467225353
 20
20.093807471823517
 10
77.76972405235279
 20
19.534760473784146
 10
77.66839497738336
 20
18.975713475744776
 10
77.5527741164517
 20
18.416666477705405
 10
77.42533373280033
 20
17.85761947966603
 10
77.28879882063502
 20
17.29857248162666
 10
77.14608883793201
 20
16.73952548358729
 10
77.00025528112307
 20
16.18047848554792
 10
76.85441643646828
 20
15.621431487508545
 10
76.7116907032951
 20
15.062384489469174
 10
76.57512991481974
 20
14.503337491429804
 10
76.44765408231866
 20
13.944290493390433
 10
76.33198895798277
 20
13.385243495351062
 10
76.23060775151687
 20
12.826196497311692
 10
76.14567824672922
 20
12.267149499272321
 10
76.07901644889083
 20
11.708102501232943
 10
76.03204775399982
 20
11.14905550319358
 10
76.00577647024932
 20
10.590008505154202
 10
76.00076434340583
 20
10.030961507114839
 10
76.00076434340583
 20
10.030961507114839
 10
75.99945974203779
 20
9.9068367122117
 10
75.99302141815335
 20
9.782872141950534
 10
75.98146039463992
 20
9.659280032858575
 10
75.9647964648262
 20
9.536271983781944
 10
75.9430581585944
 20
9.41405859361275
 10
75.91628269353514
 20
9.29284910072817
 10
75.88451591122804
 20
9.172851024758891
 10
75.8478121987576
 20
9.054269811300088
 10
75.80623439559847
 20
8.937308480173357
 10
75.75985368602963
 20
8.82216727784175
 10
75.70874947726162
 20
8.709043334572996
 10
75.6530092634855
 20
8.598130326937877
 10
75.59272847607635
 20
8.48961814622158
 10
75.5280103202076
 20
8.383692573315763
 10
75.45896559815627
 20
8.280534960647913
 10
75.38571251960114
 20
8.180321921692538
 10
75.30837649923907
 20
8.08322502859582
 10
75.22708994206577
 20
7.98941051843142
 10
75.14199201668859
 20
7.899039008590236
 10
75.14199201668859
 20
0.0
 10
81.20000798331141
 20
2.831068712794149e-15
 10
81.20000798331141
 20
0.20000000000000284
 10
81.25611795429785
 20
0.1968416962734746
 10
81.31151907596244
 20
0.18740668462360588
 10
81.36551145402916
 20
0.17181415958021112
 10
81.41741299118259
 20
0.15026110486309252
 10
81.46656800414992
 20
0.12301980484437469
 10
81.51235550708863
 20
0.09043440472151582
 10
84.88766045953419
 20
0.09043440472151587
 10
84.88766045953419
 20
0.09043440472151587
 10
84.9334479624729
 20
0.12301980484437475
 10
84.98260297544023
 20
0.15026110486309252
 10
85.03450451259366
 20
0.17181415958021112
 10
85.08849689066038
 20
0.18740668462360588
 10
85.14389801232497
 20
0.1968416962734746
 10
85.20000798331141
 20
0.20000000000000284
 10
85.20000798331141
 20
2.831068712794149e-15
 10
92.4000079833114
 20
2.831068712794149e-15
 10
92.4000079833114
 20
0.20000000000000284
 10
92.45611795429784
 20
0.1968416962734746
 10
92.51151907596243
 20
0.18740668462360588
 10
92.56551145402915
 20
0.17181415958021112
 10
92.61741299118258
 20
0.15026110486309252
 10
92.66656800414991
 20
0.12301980484437469
 10
92.71235550708862
 20
0.09043440472151582
 10
95.68766045953419
 20
0.09043440472151587
 10
95.68766045953419
 20
0.09043440472151587
 10
95.7334479624729
 20
0.12301980484437475
 10
95.78260297544023
 20
0.15026110486309252
 10
95.83450451259365
 20
0.17181415958021112
 10
95.88849689066038
 20
0.18740668462360588
 10
95.94389801232496
 20
0.1968416962734746
 10
96.0000079833114
 20
0.20000000000000284
 10
96.0000079833114
 20
2.831068712794149e-15
  0
LWPOLYLINE
  5
43
330
17
100
AcDbEntity
  8
POCKET
100
AcDbPolyline
 90
57
 70
1
 10
95.8000079833114
 20
6.375000000000001
 10
85.90356137390468
 20
6.301776695296637
 10
85.9504067025511
 20
6.306204882614465
 10
85.99559251207585
 20
6.319332573824575
 10
86.03751807264943
 20
6.340694713921134
 10
86.07469815038685
 20
6.369534538441284
 10
86.10581562249841
 20
6.404830382223519
 10
86.12976813702119
 20
6.44533187240537
 10
86.14570716418683
 20
6.489604223505424
 10
86.15306805601175
 20
6.5360790654143095
 10
86.1515900492333
 20
6.583110003687714
 10
86.14132550297848
 20
6.629030943890374
 10
86.12263804391564
 20
6.672215113822066
 10
86.09618968459863
 20
6.71113269273381
 10
86.06291737134185
 20
6.7444050059905845
 10
86.0239997924301
 20
6.7708533653076035
 10
85.98081562249841
 20
6.789540824370426
 10
85.93489468229575
 20
6.799805370625257
 10
85.88786374402235
 20
6.801283377403705
 10
85.84138890211347
 20
6.793922485578795
 10
85.79711655101342
 20
6.777983458413142
 10
85.75661506083156
 20
6.754030943890374
 10
85.72131921704933
 20
6.72291347177881
 10
85.69247939252918
 20
6.685733394041386
 10
85.67111725243262
 20
6.643807833467807
 10
85.65798956122251
 20
6.598622023943069
 10
85.65356137390468
 20
6.551776695296637
 10
85.34678467860805
 20
6.375000000000001
 10
85.34678467860805
 20
7.9750000000000005
 10
85.90356137390468
 20
8.048223304703363
 10
85.919259003787
 20
8.047729986810431
 10
85.93489468229575
 20
8.046251980031984
 10
85.9504067025511
 20
8.043795117385535
 10
85.9657338456959
 20
8.040369094985522
 10
85.98081562249841
 20
8.035987433777152
 10
85.99559251207585
 20
8.030667426175427
 10
86.01000619679594
 20
8.02443006781987
 10
86.0239997924301
 20
8.01729997471433
 10
86.03751807264943
 20
8.009305286078868
 10
86.0505076869778
 20
8.0004775532971
 10
86.06291737134185
 20
7.990851615397311
 10
86.07469815038685
 20
7.980465461558717
 10
86.08580353076003
 20
7.9693600811855365
 10
86.09618968459863
 20
7.9575793021405365
 10
86.10581562249841
 20
7.945169617776482
 10
86.11464335528018
 20
7.932180003448114
 10
86.12263804391564
 20
7.918661723228793
 10
86.12976813702119
 20
7.904668127594632
 10
86.13600549537674
 20
7.890254442874533
 10
86.14132550297846
 20
7.875477553297101
 10
86.14570716418683
 20
7.8603957764945775
 10
86.14913318658685
 20
7.845068633349795
 10
86.1515900492333
 20
7.82955661309444
 10
86.15306805601175
 20
7.813920934585692
 10
86.15356137390468
 20
7.798223304703364
 10
95.8000079833114
 20
7.9750000000000005
 10
95.8000079833114
 20
6.375000000000001
  0
LWPOLYLINE
  5
44
330
17
100
AcDbEntity
  8
POCKET
100
AcDbPolyline
 90
57
 70
1
 10
95.8000079833114
 20
22.0
 10
85.90356137390468
 20
21.92677669529664
 10
85.9504067025511
 20
21.931204882614466
 10
85.99559251207585
 20
21.944332573824575
 10
86.03751807264943
 20
21.965694713921135
 10
86.07469815038685
 20
21.994534538441286
 10
86.10581562249841
 20
22.02983038222352
 10
86.12976813702119
 20
22.07033187240537
 10
86.14570716418683
 20
22.114604223505424
 10
86.15306805601175
 20
22.16107906541431
 10
86.1515900492333
 20
22.208110003687715
 10
86.14132550297848
 20
22.254030943890374
 10
86.12263804391564
 20
22.297215113822066
 10
86.09618968459863
 20
22.33613269273381
 10
86.06291737134185
 20
22.369405005990586
 10
86.0239997924301
 20
22.395853365307605
 10
85.98081562249841
 20
22.414540824370427
 10
85.93489468229575
 20
22.424805370625258
 10
85.88786374402235
 20
22.426283377403706
 10
85.84138890211347
 20
22.418922485578797
 10
85.79711655101342
 20
22.402983458413143
 10
85.75661506083156
 20
22.379030943890374
 10
85.72131921704933
 20
22.34791347177881
 10
85.69247939252918
 20
22.31073339404139
 10
85.67111725243262
 20
22.268807833467807
 10
85.65798956122251
 20
22.22362202394307
 10
85.65356137390468
 20
22.17677669529664
 10
85.34678467860805
 20
22.0
 10
85.34678467860805
 20
23.6
 10
85.90356137390468
 20
23.673223304703363
 10
85.919259003787
 20
23.67272998681043
 10
85.93489468229575
 20
23.671251980031982
 10
85.9504067025511
 20
23.668795117385535
 10
85.9657338456959
 20
23.66536909498552
 10
85.98081562249841
 20
23.66098743377715
 10
85.99559251207585
 20
23.655667426175427
 10
86.01000619679594
 20
23.649430067819868
 10
86.0239997924301
 20
23.64229997471433
 10
86.03751807264943
 20
23.634305286078867
 10
86.0505076869778
 20
23.6254775532971
 10
86.06291737134185
 20
23.61585161539731
 10
86.07469815038685
 20
23.605465461558715
 10
86.08580353076003
 20
23.594360081185535
 10
86.09618968459863
 20
23.582579302140534
 10
86.10581562249841
 20
23.570169617776482
 10
86.11464335528018
 20
23.557180003448114
 10
86.12263804391564
 20
23.54366172322879
 10
86.12976813702119
 20
23.529668127594633
 10
86.13600549537674
 20
23.515254442874532
 10
86.14132550297846
 20
23.5004775532971
 10
86.14570716418683
 20
23.485395776494578
 10
86.14913318658685
 20
23.470068633349793
 10
86.1515900492333
 20
23.45455661309444
 10
86.15306805601175
 20
23.438920934585692
 10
86.15356137390468
 20
23.423223304703363
 10
95.8000079833114
 20
23.6
 10
95.8000079833114
 20
22.0
  0
LWPOLYLINE
  5
45
330
17
100
AcDbEntity
  8
POCKET
100
AcDbPolyline
 90
57
 70
1
 10
95.8000079833114
 20
38.25
 10
85.90356137390468
 20
38.17677669529664
 10
85.9504067025511
 20
38.181204882614466
 10
85.99559251207585
 20
38.194332573824575
 10
86.03751807264943
 20
38.21569471392113
 10
86.07469815038685
 20
38.244534538441286
 10
86.10581562249841
 20
38.27983038222352
 10
86.12976813702119
 20
38.32033187240537
 10
86.14570716418683
 20
38.364604223505424
 10
86.15306805601175
 20
38.41107906541431
 10
86.1515900492333
 20
38.458110003687715
 10
86.14132550297848
 20
38.50403094389038
 10
86.12263804391564
 20
38.54721511382207
 10
86.09618968459863
 20
38.58613269273381
 10
86.06291737134185
 20
38.619405005990586
 10
86.0239997924301
 20
38.6458533653076
 10
85.98081562249841
 20
38.66454082437043
 10
85.93489468229575
 20
38.67480537062526
 10
85.88786374402235
 20
38.676283377403706
 10
85.84138890211347
 20
38.6689224855788
 10
85.79711655101342
 20
38.652983458413146
 10
85.75661506083156
 20
38.62903094389038
 10
85.72131921704933
 20
38.59791347177881
 10
85.69247939252918
 20
38.560733394041385
 10
85.67111725243262
 20
38.51880783346781
 10
85.65798956122251
 20
38.47362202394307
 10
85.65356137390468
 20
38.42677669529664
 10
85.34678467860805
 20
38.25
 10
85.34678467860805
 20
39.849999999999994
 10
85.90356137390468
 20
39.923223304703356
 10
85.919259003787
 20
39.922729986810424
 10
85.93489468229575
 20
39.921251980031975
 10
85.9504067025511
 20
39.91879511738553
 10
85.9657338456959
 20
39.915369094985515
 10
85.98081562249841
 20
39.910987433777144
 10
85.99559251207585
 20
39.90566742617542
 10
86.01000619679594
 20
39.899430067819864
 10
86.0239997924301
 20
39.89229997471432
 10
86.03751807264943
 20
39.88430528607886
 10
86.0505076869778
 20
39.875477553297095
 10
86.06291737134185
 20
39.865851615397304
 10
86.07469815038685
 20
39.85546546155871
 10
86.08580353076003
 20
39.84436008118553
 10
86.09618968459863
 20
39.83257930214053
 10
86.10581562249841
 20
39.82016961777647
 10
86.11464335528018
 20
39.8071800034481
 10
86.12263804391564
 20
39.79366172322879
 10
86.12976813702119
 20
39.779668127594626
 10
86.13600549537674
 20
39.76525444287453
 10
86.14132550297846
 20
39.750477553297095
 10
86.14570716418683
 20
39.73539577649457
 10
86.14913318658685
 20
39.72006863334979
 10
86.1515900492333
 20
39.70455661309443
 10
86.15306805601175
 20
39.68892093458568
 10
86.15356137390468
 20
39.673223304703356
 10
95.8000079833114
 20
39.849999999999994
 10
95.8000079833114
 20
38.25
  0
LWPOLYLINE
  5
46
330
17
100
AcDbEntity
  8
POCKET
100
AcDbPolyline
 90
57
 70
1
 10
82.40000798331141
 20
0.20000000000000284
 10
82.32678467860805
 20
10.096446609406728
 10
82.33121286592588
 20
10.049601280760298
 10
82.344340557136
 20
10.004415471235559
 10
82.36570269723255
 20
9.96248991066198
 10
82.3945425217527
 20
9.925309832924556
 10
82.42983836553493
 20
9.89419236081299
 10
82.47033985571679
 20
9.870239846290223
 10
82.51461220681684
 20
9.854300819124571
 10
82.56108704872572
 20
9.84693992729966
 10
82.60811798699912
 20
9.848417934078109
 10
82.65403892720178
 20
9.85868248033294
 10
82.69722309713347
 20
9.877369939395763
 10
82.73614067604522
 20
9.90381829871278
 10
82.769412989302
 20
9.937090611969555
 10
82.79586134861901
 20
9.976008190881299
 10
82.81454880768183
 20
10.01919236081299
 10
82.82481335393668
 20
10.065113301015652
 10
82.82629136071512
 20
10.112144239289057
 10
82.8189304688902
 20
10.158619081197942
 10
82.80299144172456
 20
10.202891432297996
 10
82.77903892720178
 20
10.243392922479845
 10
82.74792145509022
 20
10.27868876626208
 10
82.7107413773528
 20
10.307528590782232
 10
82.66881581677922
 20
10.328890730878792
 10
82.62363000725448
 20
10.3420184220889
 10
82.57678467860805
 20
10.346446609406728
 10
82.40000798331141
 20
10.653223304703365
 10
84.0000079833114
 20
10.653223304703365
 10
84.07323128801477
 20
10.096446609406728
 10
84.07273797012184
 20
10.0807489795244
 10
84.0712599633434
 20
10.065113301015652
 10
84.06880310069694
 20
10.049601280760298
 10
84.06537707829692
 20
10.034274137615514
 10
84.06099541708855
 20
10.01919236081299
 10
84.05567540948682
 20
10.004415471235559
 10
84.04943805113128
 20
9.99000178651546
 10
84.04230795802573
 20
9.976008190881299
 10
84.03431326939027
 20
9.96248991066198
 10
84.0254855366085
 20
9.94950029633361
 10
84.01585959870872
 20
9.937090611969555
 10
84.00547344487012
 20
9.925309832924556
 10
83.99436806449694
 20
9.914204452551376
 10
83.98258728545194
 20
9.90381829871278
 10
83.97017760108788
 20
9.89419236081299
 10
83.95718798675952
 20
9.885364628031224
 10
83.94366970654019
 20
9.877369939395763
 10
83.92967611090603
 20
9.870239846290223
 10
83.91526242618593
 20
9.864002487934664
 10
83.9004855366085
 20
9.85868248033294
 10
83.88540375980598
 20
9.854300819124571
 10
83.8700766166612
 20
9.850874796724556
 10
83.85456459640584
 20
9.848417934078109
 10
83.83892891789709
 20
9.84693992729966
 10
83.82323128801477
 20
9.846446609406728
 10
84.0000079833114
 20
0.20000000000000284
 10
82.40000798331141
 20
0.20000000000000284
  0
LWPOLYLINE
  5
47
330
17
100
AcDbEntity
  8
POCKET
100
AcDbPolyline
 90
57
 70
1
 10
84.0000079833114
 20
47.8
 10
84.07323128801477
 20
37.903553390593274
 10
84.06880310069694
 20
37.95039871923971
 10
84.05567540948682
 20
37.99558452876445
 10
84.03431326939027
 20
38.03751008933802
 10
84.00547344487012
 20
38.074690167075445
 10
83.97017760108788
 20
38.10580763918701
 10
83.92967611090603
 20
38.12976015370978
 10
83.88540375980598
 20
38.14569918087543
 10
83.83892891789709
 20
38.15306007270034
 10
83.7918979796237
 20
38.15158206592189
 10
83.74597703942104
 20
38.14131751966706
 10
83.70279286948934
 20
38.12263006060424
 10
83.6638752905776
 20
38.09618170128722
 10
83.63060297732082
 20
38.06290938803045
 10
83.6041546180038
 20
38.023991809118705
 10
83.58546715894099
 20
37.98080763918701
 10
83.57520261268614
 20
37.93488669898435
 10
83.5737246059077
 20
37.88785576071095
 10
83.58108549773262
 20
37.84138091880206
 10
83.59702452489826
 20
37.797108567702004
 10
83.62097703942104
 20
37.75660707752016
 10
83.6520945115326
 20
37.72131123373792
 10
83.68927458927001
 20
37.69247140921777
 10
83.7312001498436
 20
37.67110926912121
 10
83.77638595936834
 20
37.6579815779111
 10
83.82323128801477
 20
37.653553390593274
 10
84.0000079833114
 20
37.34677669529663
 10
82.40000798331141
 20
37.34677669529663
 10
82.32678467860805
 20
37.903553390593274
 10
82.32727799650098
 20
37.9192510204756
 10
82.32875600327942
 20
37.93488669898435
 10
82.33121286592588
 20
37.95039871923971
 10
82.3346388883259
 20
37.96572586238449
 10
82.33902054953427
 20
37.98080763918701
 10
82.344340557136
 20
37.99558452876445
 10
82.35057791549154
 20
38.00999821348454
 10
82.35770800859709
 20
38.023991809118705
 10
82.36570269723255
 20
38.03751008933802
 10
82.37453043001432
 20
38.05049970366639
 10
82.3841563679141
 20
38.06290938803045
 10
82.3945425217527
 20
38.074690167075445
 10
82.40564790212588
 20
38.085795547448626
 10
82.41742868117088
 20
38.09618170128722
 10
82.42983836553493
 20
38.10580763918701
 10
82.4428279798633
 20
38.11463537196878
 10
82.45634626008263
 20
38.12263006060424
 10
82.47033985571679
 20
38.12976015370978
 10
82.48475354043688
 20
38.13599751206534
 10
82.49953043001432
 20
38.14131751966706
 10
82.51461220681684
 20
38.14569918087543
 10
82.52993934996162
 20
38.149125203275446
 10
82.54545137021698
 20
38.15158206592189
 10
82.56108704872572
 20
38.15306007270034
 10
82.57678467860805
 20
38.153553390593274
 10
82.40000798331141
 20
47.8
 10
84.0000079833114
 20
47.8
  0
LWPOLYLINE
  5
48
330
17
100
AcDbEntity
  8
POCKET
100
AcDbPolyline
 90
57
 70
1
 10
93.6000079833114
 20
0.20000000000000284
 10
93.52678467860804
 20
4.096446609406728
 10
93.53121286592587
 20
4.049601280760297
 10
93.54434055713598
 20
4.004415471235559
 10
93.56570269723254
 20
3.962489910661979
 10
93.59454252175269
 20
3.925309832924556
 10
93.62983836553492
 20
3.8941923608129914
 10
93.67033985571678
 20
3.870239846290223
 10
93.71461220681682
 20
3.8543008191245702
 10
93.76108704872571
 20
3.84693992729966
 10
93.80811798699911
 20
3.8484179340781086
 10
93.85403892720177
 20
3.8586824803329396
 10
93.89722309713346
 20
3.8773699393957624
 10
93.93614067604521
 20
3.9038182987127805
 10
93.96941298930199
 20
3.9370906119695555
 10
93.995861348619
 20
3.976008190881299
 10
94.01454880768182
 20
4.019192360812991
 10
94.02481335393666
 20
4.065113301015652
 10
94.0262913607151
 20
4.112144239289056
 10
94.01893046889019
 20
4.1586190811979415
 10
94.00299144172455
 20
4.202891432297996
 10
93.97903892720177
 20
4.243392922479846
 10
93.94792145509021
 20
4.278688766262081
 10
93.91074137735279
 20
4.307528590782232
 10
93.8688158167792
 20
4.328890730878791
 10
93.82363000725447
 20
4.3420184220889
 10
93.77678467860804
 20
4.346446609406728
 10
93.6000079833114
 20
4.653223304703364
 10
95.2000079833114
 20
4.653223304703364
 10
95.27323128801476
 20
4.096446609406728
 10
95.27273797012182
 20
4.0807489795244
 10
95.27125996334338
 20
4.065113301015652
 10
95.26880310069693
 20
4.049601280760297
 10
95.26537707829691
 20
4.0342741376155145
 10
95.26099541708854
 20
4.019192360812991
 10
95.25567540948681
 20
4.004415471235559
 10
95.24943805113126
 20
3.99000178651546
 10
95.24230795802572
 20
3.9760081908812994
 10
95.23431326939026
 20
3.962489910661979
 10
95.22548553660849
 20
3.9495002963336097
 10
95.2158595987087
 20
3.9370906119695555
 10
95.20547344487011
 20
3.925309832924556
 10
95.19436806449693
 20
3.9142044525513753
 10
95.18258728545193
 20
3.9038182987127805
 10
95.17017760108787
 20
3.8941923608129914
 10
95.15718798675951
 20
3.8853646280312244
 10
95.14366970654018
 20
3.877369939395762
 10
95.12967611090602
 20
3.870239846290223
 10
95.11526242618592
 20
3.8640024879346653
 10
95.10048553660849
 20
3.8586824803329396
 10
95.08540375980597
 20
3.8543008191245702
 10
95.07007661666118
 20
3.850874796724556
 10
95.05456459640583
 20
3.8484179340781086
 10
95.03892891789708
 20
3.84693992729966
 10
95.02323128801476
 20
3.846446609406728
 10
95.2000079833114
 20
0.20000000000000284
 10
93.6000079833114
 20
0.20000000000000284
  0
LWPOLYLINE
  5
49
330
17
100
AcDbEntity
  8
POCKET
100
AcDbPolyline
 90
57
 70
1
 10
95.2000079833114
 20
47.8
 10
95.27323128801476
 20
43.903553390593274
 10
95.26880310069693
 20
43.95039871923971
 10
95.25567540948681
 20
43.99558452876445
 10
95.23431326939026
 20
44.03751008933802
 10
95.20547344487011
 20
44.074690167075445
 10
95.17017760108787
 20
44.10580763918701
 10
95.12967611090602
 20
44.12976015370978
 10
95.08540375980597
 20
44.14569918087543
 10
95.03892891789708
 20
44.15306007270034
 10
94.99189797962369
 20
44.15158206592189
 10
94.94597703942102
 20
44.14131751966706
 10
94.90279286948933
 20
44.12263006060424
 10
94.86387529057758
 20
44.09618170128722
 10
94.83060297732081
 20
44.06290938803045
 10
94.80415461800379
 20
44.023991809118705
 10
94.78546715894097
 20
43.98080763918701
 10
94.77520261268613
 20
43.93488669898435
 10
94.77372460590769
 20
43.88785576071095
 10
94.7810854977326
 20
43.84138091880206
 10
94.79702452489825
 20
43.797108567702004
 10
94.82097703942102
 20
43.75660707752016
 10
94.85209451153258
 20
43.72131123373792
 10
94.88927458927
 20
43.69247140921777
 10
94.93120014984359
 20
43.67110926912121
 10
94.97638595936833
 20
43.6579815779111
 10
95.02323128801476
 20
43.653553390593274
 10
95.2000079833114
 20
43.34677669529663
 10
93.6000079833114
 20
43.34677669529663
 10
93.52678467860804
 20
43.903553390593274
 10
93.52727799650097
 20
43.9192510204756
 10
93.52875600327941
 20
43.93488669898435
 10
93.53121286592587
 20
43.95039871923971
 10
93.53463888832589
 20
43.96572586238449
 10
93.53902054953426
 20
43.98080763918701
 10
93.54434055713598
 20
43.99558452876445
 10
93.55057791549153
 20
44.00999821348454
 10
93.55770800859707
 20
44.023991809118705
 10
93.56570269723254
 20
44.03751008933802
 10
93.5745304300143
 20
44.05049970366639
 10
93.58415636791409
 20
44.06290938803045
 10
93.59454252175269
 20
44.074690167075445
 10
93.60564790212587
 20
44.085795547448626
 10
93.61742868117086
 20
44.09618170128722
 10
93.62983836553492
 20
44.10580763918701
 10
93.64282797986328
 20
44.11463537196878
 10
93.65634626008261
 20
44.12263006060424
 10
93.67033985571678
 20
44.12976015370978
 10
93.68475354043687
 20
44.13599751206534
 10
93.6995304300143
 20
44.14131751966706
 10
93.71461220681682
 20
44.14569918087543
 10
93.72993934996161
 20
44.149125203275446
 10
93.74545137021697
 20
44.15158206592189
 10
93.76108704872571
 20
44.15306007270034
 10
93.77678467860804
 20
44.153553390593274
 10
93.6000079833114
 20
47.8
 10
95.2000079833114
 20
47.8
  0
LWPOLYLINE
  5
4A
330
17
100
AcDbEntity
  8
CONTOUR
100
AcDbPolyline
 90
213
 70
1
 10
-1.059328720387498e-05
 20
48.0
 10
-1.059328720104391e-05
 20
42.825
 10
0.19998940671279897
 20
42.825
 10
-0.0029970848706002973
 20
43.227222545138964
 10
-0.44714249655944793
 20
43.30286211718391
 10
-0.77182475286741
 20
42.990503470717755
 10
-0.7134194054451457
 20
42.54376494878811
 10
-0.3193484405444749
 20
42.325374092281585
 10
0.09042381143431466
 20
42.51265247622279
 10
0.09042381143431466
 20
42.51265247622279
 10
0.09042381143431472
 20
39.137347523777215
 10
-0.31934844054447503
 20
39.32462590771842
 10
-0.7134194054451458
 20
39.1062350512119
 10
-0.77182475286741
 20
38.65949652928225
 10
-0.4471424965594479
 20
38.34713788281609
 10
-0.0029970848706000752
 20
38.42277745486104
 10
0.19998940671279897
 20
38.825
 10
-1.059328720104391e-05
 20
38.825
 10
-1.059328720104391e-05
 20
27.2
 10
0.19998940671279897
 20
27.2
 10
-0.0029970848706002973
 20
27.602222545138957
 10
-0.44714249655944793
 20
27.677862117183906
 10
-0.77182475286741
 20
27.365503470717748
 10
-0.7134194054451457
 20
26.918764948788105
 10
-0.3193484405444749
 20
26.70037409228158
 10
0.09042381143431466
 20
26.887652476222787
 10
0.09042381143431466
 20
26.887652476222787
 10
0.09042381143431472
 20
23.512347523777212
 10
-0.31934844054447503
 20
23.699625907718417
 10
-0.7134194054451458
 20
23.481235051211893
 10
-0.77182475286741
 20
23.03449652928225
 10
-0.4471424965594479
 20
22.722137882816092
 10
-0.0029970848706000752
 20
22.79777745486104
 10
0.19998940671279897
 20
23.2
 10
-1.059328720104391e-05
 20
23.2
 10
-1.059328720104391e-05
 20
10.950000000000003
 10
0.19998940671279897
 20
10.950000000000003
 10
-0.002997084870599964
 20
11.352222545138961
 10
-0.44714249655944793
 20
11.42786211718391
 10
-0.7718247528674099
 20
11.115503470717753
 10
-0.7134194054451461
 20
10.668764948788109
 10
-0.3193484405444758
 20
10.450374092281583
 10
0.090423811434314
 20
10.63765247622279
 10
0.090423811434314
 20
10.63765247622279
 10
0.09042381143431383
 20
7.2623475237772155
 10
-0.3193484405444759
 20
7.449625907718422
 10
-0.7134194054451464
 20
7.231235051211897
 10
-0.7718247528674098
 20
6.7844965292822526
 10
-0.4471424965594475
 20
6.472137882816096
 10
-0.0029970848705999087
 20
6.547777454861044
 10
0.19998940671279897
 20
6.950000000000003
 10
-1.059328720104391e-05
 20
6.950000000000003
 10
-1.059328720387498e-05
 20
2.831068712794149e-15
 10
-1.0593287203844362e-05
 20
0.20000000000000284
 10
0.056099377699236494
 20
0.19684169627347464
 10
0.11150049936382939
 20
0.1874066846236061
 10
0.16549287743054644
 20
0.17181415958021168
 10
0.2173944145839785
 20
0.15026110486309352
 10
0.26654942755130867
 20
0.12301980484437625
 10
0.3123369304900083
 20
0.09043440472151798
 10
3.2876418829355853
 20
0.09043440472151809
 10
3.2876418829355853
 20
0.09043440472151809
 10
3.333429385874285
 20
0.12301980484437625
 10
3.3825843988416153
 20
0.15026110486309358
 10
3.4344859359950473
 20
0.17181415958021173
 10
3.4884783140617643
 20
0.18740668462360616
 10
3.543879435726357
 20
0.19684169627347464
 10
3.5999894067127975
 20
0.20000000000000284
 10
3.5999894067127975
 20
2.831068712794149e-15
 10
10.799989406712793
 20
2.831068712794149e-15
 10
10.799989406712793
 20
0.20000000000000284
 10
10.856099377699234
 20
0.19684169627347464
 10
10.911500499363827
 20
0.1874066846236061
 10
10.965492877430544
 20
0.17181415958021168
 10
11.017394414583976
 20
0.15026110486309346
 10
11.066549427551307
 20
0.12301980484437613
 10
11.112336930490006
 20
0.09043440472151792
 10
14.48764188293558
 20
0.09043440472151781
 10
14.48764188293558
 20
0.09043440472151781
 10
14.53342938587428
 20
0.12301980484437602
 10
14.582584398841611
 20
0.15026110486309346
 10
14.634485935995043
 20
0.17181415958021168
 10
14.68847831406176
 20
0.1874066846236061
 10
14.743879435726353
 20
0.19684169627347464
 10
14.799989406712793
 20
0.20000000000000284
 10
14.799989406712793
 20
2.831068712794149e-15
 10
19.962543511717097
 20
0.0
 10
19.962543511717097
 20
7.94641869899656
 10
19.962543511717097
 20
7.94641869899656
 10
19.866598037394127
 20
8.06307004095968
 10
19.77664530721317
 20
8.18440254261462
 10
19.692913332051624
 20
8.310108652093845
 10
19.615614354507173
 20
8.43986973137202
 10
19.544944310908335
 20
8.573356863945143
 10
19.48108233465789
 20
8.710231688563276
 10
19.424190302168128
 20
8.850147256903753
 10
19.374412422538857
 20
8.992748913010786
 10
19.331874872018265
 20
9.137675192272226
 10
19.29668547417322
 20
9.284558737654812
 10
19.26893342657961
 20
9.433027230875489
 10
19.248689074725664
 20
9.582704336148367
 10
19.236003733701192
 20
9.733210654115254
 10
19.23090955812487
 20
9.884164683541606
 10
19.233419460639148
 20
10.03518378834039
 10
19.24352707917949
 20
10.185885167472428
 10
19.261206793100843
 20
10.335886825264978
 10
19.286413788120473
 20
10.48480853968882
 10
19.319084169912554
 20
10.632272826139527
 10
19.31908416991255
 20
10.632272826139527
 10
19.45413582248944
 20
11.192395340741122
 10
19.579439355726123
 20
11.75251785534271
 10
19.6923051661086
 20
12.312640369944305
 10
19.790310622188475
 20
12.872762884545892
 10
19.871352065654975
 20
13.432885399147487
 10
19.93368996574231
 20
13.993007913749082
 10
19.975986257746325
 20
14.55313042835067
 10
19.997333064190112
 20
15.113252942952265
 10
19.997272182147217
 20
15.67337545755386
 10
19.975804918432797
 20
16.233497972155448
 10
19.933392061553217
 20
16.793620486757042
 10
19.870943991016183
 20
17.35374300135863
 10
19.789801136302177
 20
17.913865515960225
 10
19.6917052049396
 20
18.473988030561816
 10
19.578761797264583
 20
19.034110545163408
 10
19.453395210328605
 20
19.594233059765003
 10
19.318296401074786
 20
20.15435557436659
 10
19.17636522573797
 20
20.714478088968185
 10
19.030648195282954
 20
21.274600603569777
 10
18.884273082941945
 20
21.834723118171368
 10
18.740381787481446
 20
22.394845632772963
 10
18.60206289326861
 20
22.954968147374554
 10
18.472285374715543
 20
23.515090661976146
 10
18.35383486811615
 20
24.075213176577737
 10
18.249253878781765
 20
24.63533569117933
 10
18.16078720691192
 20
25.195458205780923
 10
18.090333763617785
 20
25.755580720382515
 10
18.039405811353276
 20
26.315703234984106
 10
18.00909650364594
 20
26.875825749585697
 10
18.00005642087775
 20
27.435948264187292
 10
18.012479605768434
 20
27.996070778788884
 10
18.046099398305508
 20
28.556193293390475
 10
18.100194159523074
 20
29.116315807992066
 10
18.173602761270153
 20
29.676438322593658
 10
18.26474950948516
 20
30.236560837195253
 10
18.371677966005844
 20
30.796683351796844
 10
18.492092942939458
 20
31.356805866398435
 10
18.623409768196296
 20
31.916928381000027
 10
18.762809764716465
 20
32.47705089560162
 10
18.90730075254457
 20
33.03717341020321
 10
19.053781275093037
 20
33.597295924804804
 10
19.199107170996246
 20
34.1574184394064
 10
19.340159062610173
 20
34.71754095400799
 10
19.47390931253673
 20
35.27766346860958
 10
19.597487010970678
 20
35.83778598321118
 10
19.708239598934835
 20
36.397908497812764
 10
19.80378980467893
 20
36.95803101241435
 10
19.882086671119048
 20
37.51815352701595
 10
19.941449579028635
 20
38.07827604161754
 10
19.94144957902863
 20
38.07827604161754
 10
19.955683887679807
 20
38.20750976610395
 10
19.975504299633325
 20
38.33600537831464
 10
20.000873587814667
 20
38.46352153534808
 10
20.031744103144515
 20
38.589818733934095
 10
20.06805786403413
 20
38.71465976027343
 10
20.109746665287503
 20
38.837810135577215
 10
20.15673220620562
 20
38.9590385564695
 10
20.208926237652356
 20
39.07811732942565
 10
20.26623072780565
 20
39.19482279843066
 10
20.32853804628275
 20
39.30893576505409
 10
20.39573116629365
 20
39.42024190015277
 10
20.46768388444303
 20
39.52853214642787
 10
20.54426105776785
 20
39.63360311108027
 10
20.625318857565475
 20
39.73525744782679
 10
20.71070503953543
 20
39.83330422755973
 10
20.800259229727576
 20
39.92755929695356
 10
20.89381322575949
 20
40.01784562434517
 10
20.9911913127374
 20
40.10399363223816
 10
21.092210593287206
 20
40.18584151580643
 10
21.092210593287206
 20
48.0
 10
14.799989406712793
 20
48.0
 10
14.799989406712793
 20
47.8
 10
15.202211951851751
 20
48.00298649158339
 10
15.2778515238967
 20
48.44713190327224
 10
14.965492877430544
 20
48.7718141595802
 10
14.5187543555009
 20
48.713408812157944
 10
14.300363498994374
 20
48.31933784725727
 10
14.48764188293558
 20
47.90956559527848
 10
14.48764188293558
 20
47.90956559527848
 10
11.112336930490006
 20
47.90956559527848
 10
11.299615314431213
 20
48.31933784725727
 10
11.081224457924687
 20
48.713408812157944
 10
10.634485935995043
 20
48.7718141595802
 10
10.322127289528886
 20
48.44713190327224
 10
10.397766861573835
 20
48.00298649158339
 10
10.799989406712793
 20
47.8
 10
10.799989406712793
 20
48.0
 10
3.5999894067127975
 20
48.0
 10
3.599989406712798
 20
47.8
 10
4.0022119518517565
 20
48.00298649158339
 10
4.077851523896705
 20
48.44713190327224
 10
3.7654928774305474
 20
48.77181415958021
 10
3.318754355500903
 20
48.713408812157944
 10
3.1003634989943785
 20
48.31933784725727
 10
3.2876418829355853
 20
47.90956559527848
 10
3.2876418829355853
 20
47.90956559527848
 10
0.3123369304900086
 20
47.90956559527848
 10
0.4996153144312153
 20
48.31933784725727
 10
0.28122445792469075
 20
48.713408812157944
 10
-0.16551406400495455
 20
48.7718141595802
 10
-0.4778727104711111
 20
48.44713190327224
 10
-0.4022331384261626
 20
48.0029864915834
 10
-1.0593287203844362e-05
 20
47.8
 10
-1.059328720387498e-05
 20
48.0
  0
LWPOLYLINE
  5
4B
330
17
100
AcDbEntity
  8
POCKET
100
AcDbPolyline
 90
57
 70
1
 10
0.19998940671279897
 20
41.625
 10
10.096436016119524
 20
41.69822330470336
 10
10.049590687473094
 20
41.693795117385534
 10
10.004404877948355
 20
41.680667426175425
 10
9.962479317374775
 20
41.65930528607887
 10
9.925299239637352
 20
41.630465461558714
 10
9.894181767525787
 20
41.59516961777648
 10
9.87022925300302
 20
41.55466812759463
 10
9.854290225837367
 20
41.510395776494576
 10
9.846929334012456
 20
41.46392093458569
 10
9.848407340790905
 20
41.416889996312285
 10
9.858671887045736
 20
41.37096905610962
 10
9.877359346108559
 20
41.32778488617793
 10
9.903807705425576
 20
41.28886730726619
 10
9.937080018682352
 20
41.255594994009414
 10
9.975997597594095
 20
41.2291466346924
 10
10.019181767525787
 20
41.21045917562957
 10
10.065102707728448
 20
41.20019462937474
 10
10.112133646001853
 20
41.198716622596294
 10
10.158608487910739
 20
41.2060775144212
 10
10.202880839010792
 20
41.222016541586854
 10
10.243382329192642
 20
41.24596905610962
 10
10.278678172974876
 20
41.27708652822119
 10
10.307517997495028
 20
41.314266605958615
 10
10.328880137591588
 20
41.35619216653219
 10
10.342007828801696
 20
41.40137797605693
 10
10.346436016119524
 20
41.44822330470336
 10
10.653212711416161
 20
41.625
 10
10.653212711416161
 20
40.025000000000006
 10
10.096436016119524
 20
39.951776695296644
 10
10.080738386237195
 20
39.952270013189576
 10
10.065102707728448
 20
39.953748019968025
 10
10.049590687473094
 20
39.95620488261447
 10
10.03426354432831
 20
39.959630905014485
 10
10.019181767525787
 20
39.964012566222856
 10
10.004404877948355
 20
39.96933257382458
 10
9.989991193228256
 20
39.975569932180136
 10
9.975997597594095
 20
39.98270002528568
 10
9.962479317374775
 20
39.99069471392114
 10
9.949489703046407
 20
39.999522446702905
 10
9.937080018682352
 20
40.009148384602696
 10
9.925299239637352
 20
40.01953453844129
 10
9.914193859264172
 20
40.03063991881447
 10
9.903807705425576
 20
40.04242069785947
 10
9.894181767525787
 20
40.05483038222353
 10
9.88535403474402
 20
40.0678199965519
 10
9.877359346108559
 20
40.08133827677121
 10
9.87022925300302
 20
40.095331872405374
 10
9.86399189464746
 20
40.10974555712547
 10
9.858671887045736
 20
40.124522446702905
 10
9.854290225837365
 20
40.13960422350543
 10
9.850864203437352
 20
40.15493136665021
 10
9.848407340790905
 20
40.17044338690557
 10
9.846929334012456
 20
40.18607906541432
 10
9.846436016119524
 20
40.201776695296644
 10
0.19998940671279897
 20
40.025000000000006
 10
0.19998940671279897
 20
41.625
  0
LWPOLYLINE
  5
4C
330
17
100
AcDbEntity
  8
POCKET
100
AcDbPolyline
 90
57
 70
1
 10
0.19998940671279897
 20
26.0
 10
10.096436016119524
 20
26.07322330470336
 10
10.049590687473094
 20
26.068795117385534
 10
10.004404877948355
 20
26.055667426175425
 10
9.962479317374775
 20
26.034305286078865
 10
9.925299239637352
 20
26.005465461558714
 10
9.894181767525787
 20
25.97016961777648
 10
9.87022925300302
 20
25.92966812759463
 10
9.854290225837367
 20
25.885395776494576
 10
9.846929334012456
 20
25.83892093458569
 10
9.848407340790905
 20
25.791889996312285
 10
9.858671887045736
 20
25.745969056109626
 10
9.877359346108559
 20
25.702784886177934
 10
9.903807705425576
 20
25.66386730726619
 10
9.937080018682352
 20
25.630594994009414
 10
9.975997597594095
 20
25.604146634692395
 10
10.019181767525787
 20
25.585459175629573
 10
10.065102707728448
 20
25.575194629374742
 10
10.112133646001853
 20
25.573716622596294
 10
10.158608487910739
 20
25.581077514421203
 10
10.202880839010792
 20
25.597016541586857
 10
10.243382329192642
 20
25.620969056109626
 10
10.278678172974876
 20
25.65208652822119
 10
10.307517997495028
 20
25.68926660595861
 10
10.328880137591588
 20
25.731192166532193
 10
10.342007828801696
 20
25.77637797605693
 10
10.346436016119524
 20
25.82322330470336
 10
10.653212711416161
 20
26.0
 10
10.653212711416161
 20
24.4
 10
10.096436016119524
 20
24.326776695296637
 10
10.080738386237195
 20
24.32727001318957
 10
10.065102707728448
 20
24.328748019968018
 10
10.049590687473094
 20
24.331204882614465
 10
10.03426354432831
 20
24.33463090501448
 10
10.019181767525787
 20
24.33901256622285
 10
10.004404877948355
 20
24.344332573824573
 10
9.989991193228256
 20
24.350569932180132
 10
9.975997597594095
 20
24.35770002528567
 10
9.962479317374775
 20
24.365694713921133
 10
9.949489703046407
 20
24.3745224467029
 10
9.937080018682352
 20
24.38414838460269
 10
9.925299239637352
 20
24.394534538441285
 10
9.914193859264172
 20
24.405639918814465
 10
9.903807705425576
 20
24.417420697859466
 10
9.894181767525787
 20
24.429830382223518
 10
9.88535403474402
 20
24.442819996551886
 10
9.877359346108559
 20
24.45633827677121
 10
9.87022925300302
 20
24.470331872405367
 10
9.86399189464746
 20
24.484745557125468
 10
9.858671887045736
 20
24.4995224467029
 10
9.854290225837365
 20
24.514604223505422
 10
9.850864203437352
 20
24.529931366650207
 10
9.848407340790905
 20
24.54544338690556
 10
9.846929334012456
 20
24.561079065414308
 10
9.846436016119524
 20
24.576776695296637
 10
0.19998940671279897
 20
24.4
 10
0.19998940671279897
 20
26.0
  0
LWPOLYLINE
  5
4D
330
17
100
AcDbEntity
  8
POCKET
100
AcDbPolyline
 90
57
 70
1
 10
0.19998940671279897
 20
9.750000000000004
 10
10.096436016119524
 20
9.823223304703367
 10
10.049590687473094
 20
9.81879511738554
 10
10.004404877948355
 20
9.80566742617543
 10
9.962479317374775
 20
9.78430528607887
 10
9.925299239637352
 20
9.75546546155872
 10
9.894181767525787
 20
9.720169617776484
 10
9.87022925300302
 20
9.679668127594635
 10
9.854290225837367
 20
9.635395776494581
 10
9.846929334012456
 20
9.588920934585696
 10
9.848407340790905
 20
9.54188999631229
 10
9.858671887045736
 20
9.49596905610963
 10
9.877359346108559
 20
9.452784886177938
 10
9.903807705425576
 20
9.413867307266194
 10
9.937080018682352
 20
9.380594994009419
 10
9.975997597594095
 20
9.354146634692402
 10
10.019181767525787
 20
9.335459175629579
 10
10.065102707728448
 20
9.325194629374748
 10
10.112133646001853
 20
9.323716622596299
 10
10.158608487910739
 20
9.33107751442121
 10
10.202880839010792
 20
9.347016541586862
 10
10.243382329192642
 20
9.37096905610963
 10
10.278678172974876
 20
9.402086528221195
 10
10.307517997495028
 20
9.439266605958618
 10
10.328880137591588
 20
9.481192166532198
 10
10.342007828801696
 20
9.526377976056937
 10
10.346436016119524
 20
9.573223304703367
 10
10.653212711416161
 20
9.750000000000004
 10
10.653212711416161
 20
8.150000000000002
 10
10.096436016119524
 20
8.076776695296639
 10
10.080738386237195
 20
8.07727001318957
 10
10.065102707728448
 20
8.07874801996802
 10
10.049590687473094
 20
8.081204882614466
 10
10.03426354432831
 20
8.084630905014482
 10
10.019181767525787
 20
8.08901256622285
 10
10.004404877948355
 20
8.094332573824575
 10
9.989991193228256
 20
8.100569932180134
 10
9.975997597594095
 20
8.107700025285673
 10
9.962479317374775
 20
8.115694713921135
 10
9.949489703046407
 20
8.124522446702901
 10
9.937080018682352
 20
8.13414838460269
 10
9.925299239637352
 20
8.144534538441286
 10
9.914193859264172
 20
8.155639918814467
 10
9.903807705425576
 20
8.167420697859466
 10
9.894181767525787
 20
8.179830382223521
 10
9.88535403474402
 20
8.19281999655189
 10
9.877359346108559
 20
8.20633827677121
 10
9.87022925300302
 20
8.22033187240537
 10
9.86399189464746
 20
8.23474555712547
 10
9.858671887045736
 20
8.249522446702901
 10
9.854290225837365
 20
8.264604223505424
 10
9.850864203437352
 20
8.279931366650208
 10
9.848407340790905
 20
8.295443386905562
 10
9.846929334012456
 20
8.31107906541431
 10
9.846436016119524
 20
8.326776695296639
 10
0.19998940671279897
 20
8.150000000000002
 10
0.19998940671279897
 20
9.750000000000004
  0
LWPOLYLINE
  5
4E
330
17
100
AcDbEntity
  8
POCKET
100
AcDbPolyline
 90
57
 70
1
 10
13.599989406712794
 20
47.8
 10
13.673212711416157
 20
37.903553390593274
 10
13.66878452409833
 20
37.95039871923971
 10
13.655656832888221
 20
37.99558452876445
 10
13.634294692791661
 20
38.03751008933802
 10
13.60545486827151
 20
38.074690167075445
 10
13.570159024489275
 20
38.10580763918701
 10
13.529657534307425
 20
38.12976015370978
 10
13.485385183207372
 20
38.14569918087543
 10
13.438910341298486
 20
38.15306007270034
 10
13.391879403025081
 20
38.15158206592189
 10
13.34595846282242
 20
38.14131751966706
 10
13.302774292890728
 20
38.12263006060424
 10
13.263856713978985
 20
38.09618170128722
 10
13.23058440072221
 20
38.06290938803045
 10
13.204136041405192
 20
38.023991809118705
 10
13.185448582342369
 20
37.98080763918701
 10
13.175184036087538
 20
37.93488669898435
 10
13.17370602930909
 20
37.88785576071095
 10
13.181066921133999
 20
37.84138091880206
 10
13.197005948299653
 20
37.797108567702004
 10
13.22095846282242
 20
37.75660707752016
 10
13.252075934933986
 20
37.72131123373792
 10
13.289256012671409
 20
37.69247140921777
 10
13.331181573244988
 20
37.67110926912121
 10
13.376367382769727
 20
37.6579815779111
 10
13.423212711416157
 20
37.653553390593274
 10
13.599989406712794
 20
37.34677669529663
 10
11.999989406712793
 20
37.34677669529663
 10
11.926766102009429
 20
37.903553390593274
 10
11.927259419902361
 20
37.9192510204756
 10
11.92873742668081
 20
37.93488669898435
 10
11.931194289327257
 20
37.95039871923971
 10
11.934620311727272
 20
37.96572586238449
 10
11.93900197293564
 20
37.98080763918701
 10
11.944321980537365
 20
37.99558452876445
 10
11.950559338892925
 20
38.00999821348454
 10
11.957689431998464
 20
38.023991809118705
 10
11.965684120633926
 20
38.03751008933802
 10
11.974511853415692
 20
38.05049970366639
 10
11.984137791315481
 20
38.06290938803045
 10
11.994523945154077
 20
38.074690167075445
 10
12.005629325527257
 20
38.085795547448626
 10
12.017410104572257
 20
38.09618170128722
 10
12.029819788936312
 20
38.10580763918701
 10
12.04280940326468
 20
38.11463537196878
 10
12.056327683484
 20
38.12263006060424
 10
12.070321279118161
 20
38.12976015370978
 10
12.08473496383826
 20
38.13599751206534
 10
12.099511853415692
 20
38.14131751966706
 10
12.114593630218215
 20
38.14569918087543
 10
12.129920773362999
 20
38.149125203275446
 10
12.145432793618353
 20
38.15158206592189
 10
12.1610684721271
 20
38.15306007270034
 10
12.176766102009429
 20
38.153553390593274
 10
11.999989406712793
 20
47.8
 10
13.599989406712794
 20
47.8
  0
LWPOLYLINE
  5
4F
330
17
100
AcDbEntity
  8
POCKET
100
AcDbPolyline
 90
57
 70
1
 10
11.999989406712793
 20
0.20000000000000284
 10
11.926766102009429
 20
10.096446609406728
 10
11.931194289327257
 20
10.049601280760298
 10
11.944321980537365
 20
10.004415471235559
 10
11.965684120633926
 20
9.96248991066198
 10
11.994523945154077
 20
9.925309832924556
 10
12.029819788936312
 20
9.89419236081299
 10
12.070321279118161
 20
9.870239846290223
 10
12.114593630218215
 20
9.854300819124571
 10
12.1610684721271
 20
9.84693992729966
 10
12.208099410400505
 20
9.848417934078109
 10
12.254020350603167
 20
9.85868248033294
 10
12.297204520534859
 20
9.877369939395763
 10
12.336122099446602
 20
9.90381829871278
 10
12.369394412703377
 20
9.937090611969555
 10
12.395842772020394
 20
9.976008190881299
 10
12.414530231083218
 20
10.01919236081299
 10
12.424794777338048
 20
10.065113301015652
 10
12.426272784116497
 20
10.112144239289057
 10
12.418911892291586
 20
10.158619081197942
 10
12.402972865125934
 20
10.202891432297996
 10
12.379020350603167
 20
10.243392922479845
 10
12.3479028784916
 20
10.27868876626208
 10
12.310722800754178
 20
10.307528590782232
 10
12.268797240180598
 20
10.328890730878792
 10
12.22361143065586
 20
10.3420184220889
 10
12.176766102009429
 20
10.346446609406728
 10
11.999989406712793
 20
10.653223304703365
 10
13.599989406712794
 20
10.653223304703365
 10
13.673212711416157
 20
10.096446609406728
 10
13.672719393523225
 20
10.0807489795244
 10
13.671241386744777
 20
10.065113301015652
 10
13.66878452409833
 20
10.049601280760298
 10
13.665358501698316
 20
10.034274137615514
 10
13.660976840489946
 20
10.01919236081299
 10
13.655656832888221
 20
10.004415471235559
 10
13.649419474532662
 20
9.99000178651546
 10
13.642289381427123
 20
9.976008190881299
 10
13.634294692791661
 20
9.96248991066198
 10
13.625466960009895
 20
9.94950029633361
 10
13.615841022110105
 20
9.937090611969555
 10
13.60545486827151
 20
9.925309832924556
 10
13.594349487898329
 20
9.914204452551376
 10
13.58256870885333
 20
9.90381829871278
 10
13.570159024489275
 20
9.89419236081299
 10
13.557169410160906
 20
9.885364628031224
 10
13.543651129941587
 20
9.877369939395763
 10
13.529657534307425
 20
9.870239846290223
 10
13.515243849587327
 20
9.864002487934664
 10
13.500466960009895
 20
9.85868248033294
 10
13.485385183207372
 20
9.854300819124571
 10
13.470058040062588
 20
9.850874796724556
 10
13.454546019807234
 20
9.848417934078109
 10
13.438910341298486
 20
9.84693992729966
 10
13.423212711416157
 20
9.846446609406728
 10
13.599989406712794
 20
0.20000000000000284
 10
11.999989406712793
 20
0.20000000000000284
  0
LWPOLYLINE
  5
50
330
17
100
AcDbEntity
  8
POCKET
100
AcDbPolyline
 90
57
 70
1
 10
2.3999894067127974
 20
47.8
 10
2.4732127114161604
 20
43.903553390593274
 10
2.4687845240983326
 20
43.95039871923971
 10
2.455656832888223
 20
43.99558452876445
 10
2.434294692791664
 20
44.03751008933802
 10
2.405454868271513
 20
44.074690167075445
 10
2.3701590244892787
 20
44.10580763918701
 10
2.3296575343074286
 20
44.12976015370978
 10
2.285385183207374
 20
44.14569918087543
 10
2.2389103412984888
 20
44.15306007270034
 10
2.1918794030250845
 20
44.15158206592189
 10
2.1459584628224238
 20
44.14131751966706
 10
2.1027742928907314
 20
44.12263006060424
 10
2.063856713978988
 20
44.09618170128722
 10
2.030584400722213
 20
44.06290938803045
 10
2.0041360414051943
 20
44.023991809118705
 10
1.985448582342372
 20
43.98080763918701
 10
1.975184036087541
 20
43.93488669898435
 10
1.9737060293090924
 20
43.88785576071095
 10
1.9810669211340026
 20
43.84138091880206
 10
1.9970059482996554
 20
43.797108567702004
 10
2.0209584628224233
 20
43.75660707752016
 10
2.0520759349339883
 20
43.72131123373792
 10
2.0892560126714113
 20
43.69247140921777
 10
2.131181573244991
 20
43.67110926912121
 10
2.176367382769729
 20
43.6579815779111
 10
2.2232127114161604
 20
43.653553390593274
 10
2.3999894067127974
 20
43.34677669529663
 10
0.7999894067127975
 20
43.34677669529663
 10
0.7267661020094344
 20
43.903553390593274
 10
0.7272594199023665
 20
43.9192510204756
 10
0.7287374266808149
 20
43.93488669898435
 10
0.7311942893272622
 20
43.95039871923971
 10
0.7346203117272766
 20
43.96572586238449
 10
0.739001972935646
 20
43.98080763918701
 10
0.7443219805373715
 20
43.99558452876445
 10
0.7505593388929295
 20
44.00999821348454
 10
0.7576894319984685
 20
44.023991809118705
 10
0.7656841206339307
 20
44.03751008933802
 10
0.7745118534156975
 20
44.05049970366639
 10
0.7841377913154871
 20
44.06290938803045
 10
0.7945239451540815
 20
44.074690167075445
 10
0.8056293255272622
 20
44.085795547448626
 10
0.8174101045722619
 20
44.09618170128722
 10
0.8298197889363161
 20
44.10580763918701
 10
0.8428094032646852
 20
44.11463537196878
 10
0.8563276834840056
 20
44.12263006060424
 10
0.8703212791181661
 20
44.12976015370978
 10
0.8847349638382649
 20
44.13599751206534
 10
0.8995118534156975
 20
44.14131751966706
 10
0.9145936302182207
 20
44.14569918087543
 10
0.9299207733630033
 20
44.149125203275446
 10
0.9454327936183583
 20
44.15158206592189
 10
0.961068472127106
 20
44.15306007270034
 10
0.9767661020094344
 20
44.153553390593274
 10
0.7999894067127975
 20
47.8
 10
2.3999894067127974
 20
47.8
  0
LWPOLYLINE
  5
51
330
17
100
AcDbEntity
  8
POCKET
100
AcDbPolyline
 90
57
 70
1
 10
0.7999894067127975
 20
0.20000000000000284
 10
0.7267661020094344
 20
4.096446609406728
 10
0.7311942893272622
 20
4.049601280760297
 10
0.7443219805373715
 20
4.004415471235559
 10
0.7656841206339305
 20
3.962489910661979
 10
0.7945239451540815
 20
3.925309832924556
 10
0.829819788936316
 20
3.8941923608129914
 10
0.8703212791181661
 20
3.870239846290223
 10
0.9145936302182205
 20
3.8543008191245702
 10
0.9610684721271061
 20
3.84693992729966
 10
1.0080994104005103
 20
3.8484179340781086
 10
1.0540203506031711
 20
3.8586824803329396
 10
1.0972045205348633
 20
3.8773699393957624
 10
1.1361220994466068
 20
3.9038182987127805
 10
1.1693944127033817
 20
3.9370906119695555
 10
1.1958427720204003
 20
3.976008190881299
 10
1.2145302310832227
 20
4.019192360812991
 10
1.2247947773380539
 20
4.065113301015652
 10
1.2262727841165022
 20
4.112144239289056
 10
1.218911892291592
 20
4.1586190811979415
 10
1.2029728651259393
 20
4.202891432297996
 10
1.1790203506031713
 20
4.243392922479846
 10
1.1479028784916065
 20
4.278688766262081
 10
1.1107228007541834
 20
4.307528590782232
 10
1.0687972401806038
 20
4.328890730878791
 10
1.0236114306558655
 20
4.3420184220889
 10
0.9767661020094345
 20
4.346446609406728
 10
0.7999894067127975
 20
4.653223304703364
 10
2.3999894067127974
 20
4.653223304703364
 10
2.4732127114161604
 20
4.096446609406728
 10
2.4727193935232283
 20
4.0807489795244
 10
2.4712413867447798
 20
4.065113301015652
 10
2.4687845240983326
 20
4.049601280760297
 10
2.465358501698318
 20
4.0342741376155145
 10
2.460976840489949
 20
4.019192360812991
 10
2.455656832888223
 20
4.004415471235559
 10
2.4494194745326654
 20
3.99000178651546
 10
2.4422893814271265
 20
3.9760081908812994
 10
2.434294692791664
 20
3.962489910661979
 10
2.425466960009897
 20
3.9495002963336097
 10
2.415841022110108
 20
3.9370906119695555
 10
2.405454868271513
 20
3.925309832924556
 10
2.3943494878983325
 20
3.9142044525513753
 10
2.382568708853333
 20
3.9038182987127805
 10
2.3701590244892787
 20
3.8941923608129914
 10
2.3571694101609095
 20
3.8853646280312244
 10
2.3436511299415894
 20
3.877369939395762
 10
2.3296575343074286
 20
3.870239846290223
 10
2.31524384958733
 20
3.8640024879346653
 10
2.3004669600098975
 20
3.8586824803329396
 10
2.285385183207374
 20
3.8543008191245702
 10
2.2700580400625916
 20
3.850874796724556
 10
2.2545460198072362
 20
3.8484179340781086
 10
2.2389103412984888
 20
3.84693992729966
 10
2.2232127114161604
 20
3.846446609406728
 10
2.3999894067127974
 20
0.20000000000000284
 10
0.7999894067127975
 20
0.20000000000000284
  0
LWPOLYLINE
  5
52
330
17
100
AcDbEntity
  8
CONTOUR
100
AcDbPolyline
 90
161
 70
1
 10
67.92430598250965
 20
36.892700000000005
 10
67.92430598250965
 20
33.71770000000001
 10
67.72430598250965
 20
33.71770000000001
 10
67.72746428623617
 20
33.66159002901357
 10
67.73689929788604
 20
33.60618890734897
 10
67.75249182292944
 20
33.552196529282256
 10
67.77404487764656
 20
33.50029499212883
 10
67.80128617766528
 20
33.451139979161496
 10
67.83387157778813
 20
33.405352476222795
 10
67.83387157778813
 20
33.405352476222795
 10
67.83387157778813
 20
30.030047523777217
 10
67.80128617766528
 20
29.984260020838516
 10
67.77404487764656
 20
29.935105007871186
 10
67.75249182292944
 20
29.883203470717753
 10
67.73689929788604
 20
29.829211092651036
 10
67.72746428623617
 20
29.773809970986445
 10
67.72430598250965
 20
29.717700000000004
 10
67.92430598250965
 20
29.717700000000004
 10
67.92430598250965
 20
22.2177
 10
67.72430598250965
 20
22.2177
 10
67.72746428623617
 20
22.16159002901356
 10
67.73689929788604
 20
22.10618890734897
 10
67.75249182292944
 20
22.052196529282252
 10
67.77404487764656
 20
22.00029499212882
 10
67.80128617766528
 20
21.95113997916149
 10
67.83387157778813
 20
21.905352476222788
 10
67.83387157778813
 20
21.905352476222788
 10
67.83387157778813
 20
18.530047523777213
 10
67.80128617766528
 20
18.484260020838512
 10
67.77404487764656
 20
18.435105007871183
 10
67.75249182292944
 20
18.38320347071775
 10
67.73689929788604
 20
18.329211092651033
 10
67.72746428623617
 20
18.27380997098644
 10
67.72430598250965
 20
18.2177
 10
67.92430598250965
 20
18.2177
 10
67.92430598250965
 20
13.067700000000002
 10
67.72430598250965
 20
13.067700000000002
 10
67.72746428623617
 20
13.011590029013561
 10
67.73689929788604
 20
12.956188907348968
 10
67.75249182292944
 20
12.902196529282252
 10
67.77404487764656
 20
12.85029499212882
 10
67.80128617766528
 20
12.801139979161489
 10
67.83387157778813
 20
12.75535247622279
 10
67.83387157778813
 20
12.75535247622279
 10
67.83387157778813
 20
9.380047523777215
 10
67.80128617766528
 20
9.334260020838515
 10
67.77404487764656
 20
9.285105007871184
 10
67.75249182292944
 20
9.233203470717752
 10
67.73689929788604
 20
9.179211092651036
 10
67.72746428623617
 20
9.123809970986443
 10
67.72430598250965
 20
9.067700000000002
 10
67.92430598250965
 20
9.067700000000002
 10
67.92430598250965
 20
7.892700000000001
 10
64.08915192023375
 20
7.892700000000001
 10
64.08915192023375
 20
7.892700000000001
 10
63.86601433178967
 20
7.901009906319949
 10
63.64411291164988
 20
7.925893588917759
 10
63.42467697982346
 20
7.967213193745913
 10
63.20892219766821
 20
8.024739812774211
 10
62.998043833202665
 20
8.09815475212596
 10
62.793210139395896
 20
8.187051297622173
 10
62.595555882119044
 20
8.290936967952682
 10
62.40617605361324
 20
8.40923624299187
 10
62.226119806301
 20
8.541293752144203
 10
62.05638464054732
 20
8.686377905056418
 10
61.89791087856994
 20
8.843684944582375
 10
61.75157645511299
 20
9.01234339954745
 10
61.61819205374335
 20
9.191418912644433
 10
61.498496615714295
 20
9.379919416714628
 10
61.39315324627713
 20
9.576800630737985
 10
61.30274554111949
 20
9.780971845084704
 10
61.227774353281674
 20
9.991301963978483
 10
61.16865501846211
 20
10.20662577169648
 10
61.12571505408349
 20
10.42575038779163
 10
61.125715054082974
 20
10.425750387791549
 10
61.06153933347402
 20
10.86794372731077
 10
61.008913291910595
 20
11.310137066829991
 10
60.968541423348476
 20
11.752330406349213
 10
60.94096417765887
 20
12.194523745868437
 10
60.92655072573757
 20
12.636717085387659
 10
60.92549401749034
 20
13.07891042490688
 10
60.93780819885236
 20
13.521103764426101
 10
60.963328422419536
 20
13.963297103945322
 10
61.00171305422664
 20
14.405490443464544
 10
61.05244824713071
 20
14.847683782983768
 10
61.11485481957668
 20
15.28987712250299
 10
61.18809734766066
 20
15.732070462022211
 10
61.27119534877729
 20
16.174263801541432
 10
61.36303640713804
 20
16.616457141060653
 10
61.46239106545168
 20
17.058650480579875
 10
61.56792928341535
 20
17.500843820099096
 10
61.67823824268948
 20
17.943037159618317
 10
61.79184126000533
 20
18.38523049913754
 10
61.90721755521908
 20
18.82742383865676
 10
62.02282260968171
 20
19.269617178175984
 10
62.13710884239137
 20
19.711810517695206
 10
62.248546327140794
 20
20.154003857214427
 10
62.355643273323636
 20
20.596197196733648
 10
62.45696599622741
 20
21.03839053625287
 10
62.55115810947479
 20
21.48058387577209
 10
62.63695868268809
 20
21.922777215291312
 10
62.71321912130394
 20
22.364970554810537
 10
62.778918542571645
 20
22.807163894329758
 10
62.833177441899814
 20
23.24935723384898
 10
62.875269466602816
 20
23.6915505733682
 10
62.90463113943424
 20
24.133743912887425
 10
62.92086940174047
 20
24.575937252406646
 10
62.92376687525579
 20
25.018130591925868
 10
62.913284772100326
 20
25.46032393144509
 10
62.88956341402538
 20
25.90251727096431
 10
62.852920353955156
 20
26.34471061048353
 10
62.80384612497124
 20
26.786903950002753
 10
62.74299767364755
 20
27.229097289521974
 10
62.67118956564212
 20
27.671290629041195
 10
62.5893830812748
 20
28.11348396856042
 10
62.498673347065996
 20
28.55567730807964
 10
62.40027467550401
 20
28.997870647598862
 10
62.2955043092944
 20
29.440063987118084
 10
62.1857647877038
 20
29.882257326637305
 10
62.07252517105622
 20
30.324450666156526
 10
61.95730137472573
 20
30.766644005675747
 10
61.84163587589028
 20
31.208837345194972
 10
61.72707706470808
 20
31.651030684714193
 10
61.61515851633813
 20
32.093224024233415
 10
61.61515851645319
 20
32.093224024262064
 10
61.54411763582761
 20
32.426666347672025
 10
61.495964517454865
 20
32.76417466897992
 10
61.47092303594884
 20
33.10417983653636
 10
61.46910961475612
 20
33.44510109029545
 10
61.490532684877266
 20
33.78535341112175
 10
61.53509264566931
 20
34.12335488989855
 10
61.602582327911335
 20
34.457534082177126
 10
61.692687956980556
 20
34.78633731417331
 10
61.80499061166068
 20
35.10823590614428
 10
61.938968171800276
 20
35.42173327956252
 10
62.093997745766174
 20
35.72537191504398
 10
62.26935856640587
 20
36.01774012868162
 10
62.46423534205521
 20
36.297478635279504
 10
62.677722047011606
 20
36.563286867973595
 10
62.908826133850134
 20
36.81392902485791
 10
63.15647314799841
 20
37.04823981450392
 10
63.419511723116166
 20
37.2651298736609
 10
63.69671893405476
 20
37.463590831949276
 10
63.98680598250965
 20
37.642700000000005
 10
64.61180598250965
 20
37.642700000000005
 10
64.61180598250965
 20
37.642700000000005
 10
64.61652182508972
 20
37.55872664292252
 10
64.63061004837328
 20
37.47580929953276
 10
64.65389348477837
 20
37.39499070353362
 10
64.68607933158285
 20
37.317287195661834
 10
64.72676283308843
 20
37.2436759426135
 10
64.77543237065862
 20
37.17508264860595
 10
64.83147589661974
 20
37.11236991411009
 10
64.89418863111561
 20
37.056326388148975
 10
64.96278192512315
 20
37.00765685057879
 10
65.03639317817148
 20
36.966973349073186
 10
65.11409668604327
 20
36.934787502268726
 10
65.19491528204242
 20
36.91150406586363
 10
65.27783262543217
 20
36.897415842580074
 10
65.36180598250965
 20
36.892700000000005
 10
67.92430598250965
 20
36.892700000000005
  0
LWPOLYLINE
  5
53
330
17
100
AcDbEntity
  8
POCKET
100
AcDbPolyline
 90
57
 70
1
 10
67.72430598250965
 20
30.917700000000004
 10
63.827859373102925
 20
30.844476695296642
 10
63.87470470174936
 20
30.84890488261447
 10
63.9198905112741
 20
30.862032573824578
 10
63.96181607184767
 20
30.883394713921138
 10
63.998996149585096
 20
30.91223453844129
 10
64.03011362169666
 20
30.947530382223523
 10
64.05406613621943
 20
30.988031872405372
 10
64.07000516338508
 20
31.032304223505427
 10
64.07736605520999
 20
31.078779065414313
 10
64.07588804843155
 20
31.125810003687718
 10
64.06562350217672
 20
31.171730943890378
 10
64.04693604311389
 20
31.21491511382207
 10
64.02048768379687
 20
31.253832692733813
 10
63.9872153705401
 20
31.28710500599059
 10
63.948297791628356
 20
31.31355336530761
 10
63.905113621696664
 20
31.33224082437043
 10
63.859192681494
 20
31.34250537062526
 10
63.8121617432206
 20
31.34398337740371
 10
63.76568690131171
 20
31.3366224855788
 10
63.721414550211655
 20
31.320683458413146
 10
63.68091306002981
 20
31.296730943890378
 10
63.64561721624757
 20
31.265613471778813
 10
63.61677739172742
 20
31.228433394041392
 10
63.59541525163086
 20
31.18650783346781
 10
63.58228756042075
 20
31.141322023943072
 10
63.577859373102925
 20
31.094476695296642
 10
63.271082677806284
 20
30.917700000000004
 10
63.271082677806284
 20
32.517700000000005
 10
63.827859373102925
 20
32.59092330470337
 10
63.84355700298525
 20
32.590429986810435
 10
63.859192681494
 20
32.588951980031986
 10
63.87470470174936
 20
32.58649511738554
 10
63.89003184489414
 20
32.583069094985525
 10
63.905113621696664
 20
32.578687433777155
 10
63.9198905112741
 20
32.57336742617543
 10
63.934304195994194
 20
32.567130067819875
 10
63.948297791628356
 20
32.55999997471433
 10
63.96181607184767
 20
32.552005286078874
 10
63.97480568617604
 20
32.543177553297106
 10
63.9872153705401
 20
32.533551615397315
 10
63.998996149585096
 20
32.52316546155872
 10
64.01010152995828
 20
32.51206008118554
 10
64.02048768379687
 20
32.50027930214054
 10
64.03011362169666
 20
32.48786961777648
 10
64.03894135447842
 20
32.47488000344811
 10
64.04693604311389
 20
32.4613617232288
 10
64.05406613621943
 20
32.447368127594636
 10
64.06030349457498
 20
32.43295444287454
 10
64.0656235021767
 20
32.418177553297106
 10
64.07000516338508
 20
32.40309577649458
 10
64.0734311857851
 20
32.3877686333498
 10
64.07588804843155
 20
32.37225661309444
 10
64.07736605520999
 20
32.35662093458569
 10
64.07785937310292
 20
32.34092330470337
 10
67.72430598250965
 20
32.517700000000005
 10
67.72430598250965
 20
30.917700000000004
  0
LWPOLYLINE
  5
54
330
17
100
AcDbEntity
  8
POCKET
100
AcDbPolyline
 90
57
 70
1
 10
67.72430598250965
 20
19.4177
 10
63.827859373102925
 20
19.34447669529664
 10
63.87470470174936
 20
19.348904882614466
 10
63.9198905112741
 20
19.362032573824575
 10
63.96181607184767
 20
19.383394713921135
 10
63.998996149585096
 20
19.412234538441286
 10
64.03011362169666
 20
19.44753038222352
 10
64.05406613621943
 20
19.48803187240537
 10
64.07000516338508
 20
19.532304223505424
 10
64.07736605520999
 20
19.57877906541431
 10
64.07588804843155
 20
19.625810003687715
 10
64.06562350217672
 20
19.671730943890374
 10
64.04693604311389
 20
19.714915113822066
 10
64.02048768379687
 20
19.75383269273381
 10
63.9872153705401
 20
19.787105005990586
 10
63.948297791628356
 20
19.813553365307605
 10
63.905113621696664
 20
19.832240824370427
 10
63.859192681494
 20
19.842505370625258
 10
63.8121617432206
 20
19.843983377403706
 10
63.76568690131171
 20
19.836622485578797
 10
63.721414550211655
 20
19.820683458413143
 10
63.68091306002981
 20
19.796730943890374
 10
63.64561721624757
 20
19.76561347177881
 10
63.61677739172742
 20
19.72843339404139
 10
63.59541525163086
 20
19.686507833467807
 10
63.58228756042075
 20
19.64132202394307
 10
63.577859373102925
 20
19.59447669529664
 10
63.271082677806284
 20
19.4177
 10
63.271082677806284
 20
21.0177
 10
63.827859373102925
 20
21.090923304703363
 10
63.84355700298525
 20
21.09042998681043
 10
63.859192681494
 20
21.088951980031982
 10
63.87470470174936
 20
21.086495117385535
 10
63.89003184489414
 20
21.08306909498552
 10
63.905113621696664
 20
21.07868743377715
 10
63.9198905112741
 20
21.073367426175427
 10
63.934304195994194
 20
21.067130067819868
 10
63.948297791628356
 20
21.05999997471433
 10
63.96181607184767
 20
21.052005286078867
 10
63.97480568617604
 20
21.0431775532971
 10
63.9872153705401
 20
21.03355161539731
 10
63.998996149585096
 20
21.023165461558715
 10
64.01010152995828
 20
21.012060081185535
 10
64.02048768379687
 20
21.000279302140534
 10
64.03011362169666
 20
20.987869617776482
 10
64.03894135447842
 20
20.974880003448114
 10
64.04693604311389
 20
20.96136172322879
 10
64.05406613621943
 20
20.947368127594633
 10
64.06030349457498
 20
20.932954442874532
 10
64.0656235021767
 20
20.9181775532971
 10
64.07000516338508
 20
20.903095776494578
 10
64.0734311857851
 20
20.887768633349793
 10
64.07588804843155
 20
20.87225661309444
 10
64.07736605520999
 20
20.856620934585692
 10
64.07785937310292
 20
20.840923304703363
 10
67.72430598250965
 20
21.0177
 10
67.72430598250965
 20
19.4177
  0
LWPOLYLINE
  5
55
330
17
100
AcDbEntity
  8
POCKET
100
AcDbPolyline
 90
57
 70
1
 10
67.72430598250965
 20
10.267700000000001
 10
63.827859373102925
 20
10.194476695296638
 10
63.87470470174936
 20
10.198904882614466
 10
63.9198905112741
 20
10.212032573824574
 10
63.96181607184767
 20
10.233394713921134
 10
63.998996149585096
 20
10.262234538441286
 10
64.03011362169666
 20
10.29753038222352
 10
64.05406613621943
 20
10.33803187240537
 10
64.07000516338508
 20
10.382304223505423
 10
64.07736605520999
 20
10.428779065414309
 10
64.07588804843155
 20
10.475810003687714
 10
64.06562350217672
 20
10.521730943890375
 10
64.04693604311389
 20
10.564915113822067
 10
64.02048768379687
 20
10.60383269273381
 10
63.9872153705401
 20
10.637105005990586
 10
63.948297791628356
 20
10.663553365307603
 10
63.905113621696664
 20
10.682240824370426
 10
63.859192681494
 20
10.692505370625257
 10
63.8121617432206
 20
10.693983377403706
 10
63.76568690131171
 20
10.686622485578797
 10
63.721414550211655
 20
10.670683458413142
 10
63.68091306002981
 20
10.646730943890375
 10
63.64561721624757
 20
10.61561347177881
 10
63.61677739172742
 20
10.578433394041387
 10
63.59541525163086
 20
10.536507833467807
 10
63.58228756042075
 20
10.491322023943068
 10
63.577859373102925
 20
10.444476695296638
 10
63.271082677806284
 20
10.267700000000001
 10
63.271082677806284
 20
11.867700000000003
 10
63.827859373102925
 20
11.940923304703366
 10
63.84355700298525
 20
11.940429986810434
 10
63.859192681494
 20
11.938951980031986
 10
63.87470470174936
 20
11.936495117385538
 10
63.89003184489414
 20
11.933069094985523
 10
63.905113621696664
 20
11.928687433777155
 10
63.9198905112741
 20
11.92336742617543
 10
63.934304195994194
 20
11.91713006781987
 10
63.948297791628356
 20
11.909999974714331
 10
63.96181607184767
 20
11.90200528607887
 10
63.97480568617604
 20
11.893177553297104
 10
63.9872153705401
 20
11.883551615397314
 10
63.998996149585096
 20
11.873165461558719
 10
64.01010152995828
 20
11.862060081185538
 10
64.02048768379687
 20
11.850279302140539
 10
64.03011362169666
 20
11.837869617776484
 10
64.03894135447842
 20
11.824880003448115
 10
64.04693604311389
 20
11.811361723228796
 10
64.05406613621943
 20
11.797368127594634
 10
64.06030349457498
 20
11.782954442874535
 10
64.0656235021767
 20
11.768177553297104
 10
64.07000516338508
 20
11.75309577649458
 10
64.0734311857851
 20
11.737768633349797
 10
64.07588804843155
 20
11.722256613094443
 10
64.07736605520999
 20
11.706620934585695
 10
64.07785937310292
 20
11.690923304703366
 10
67.72430598250965
 20
11.867700000000003
 10
67.72430598250965
 20
10.267700000000001
  0
LWPOLYLINE
  5
56
330
17
100
AcDbEntity
  8
CONTOUR
100
AcDbPolyline
 90
161
 70
1
 10
68.85156084503068
 20
7.529499999999999
 10
68.85156084503068
 20
10.7045
 10
69.05156084503068
 20
10.7045
 10
68.84857435344728
 20
10.302277454861041
 10
68.40442894175843
 20
10.226637882816092
 10
68.07974668545047
 20
10.53899652928225
 10
68.13815203287274
 20
10.985735051211893
 10
68.5322229977734
 20
11.204125907718419
 10
68.9419952497522
 20
11.016847523777212
 10
68.9419952497522
 20
14.392152476222787
 10
68.9419952497522
 20
14.392152476222787
 10
68.5322229977734
 20
14.20487409228158
 10
68.13815203287274
 20
14.423264948788105
 10
68.07974668545047
 20
14.87000347071775
 10
68.40442894175843
 20
15.182362117183906
 10
68.84857435344728
 20
15.106722545138958
 10
69.05156084503068
 20
14.7045
 10
68.85156084503068
 20
14.7045
 10
68.85156084503068
 20
22.2045
 10
69.05156084503068
 20
22.2045
 10
68.84857435344728
 20
21.80227745486104
 10
68.40442894175843
 20
21.726637882816092
 10
68.07974668545047
 20
22.03899652928225
 10
68.13815203287274
 20
22.485735051211893
 10
68.5322229977734
 20
22.704125907718417
 10
68.9419952497522
 20
22.516847523777212
 10
68.9419952497522
 20
25.892152476222787
 10
68.9419952497522
 20
25.892152476222787
 10
68.5322229977734
 20
25.70487409228158
 10
68.13815203287274
 20
25.923264948788105
 10
68.07974668545047
 20
26.370003470717748
 10
68.40442894175843
 20
26.682362117183906
 10
68.84857435344728
 20
26.606722545138958
 10
69.05156084503068
 20
26.2045
 10
68.85156084503068
 20
26.2045
 10
68.85156084503068
 20
31.3545
 10
69.05156084503068
 20
31.3545
 10
68.84857435344728
 20
30.952277454861044
 10
68.40442894175843
 20
30.876637882816095
 10
68.07974668545047
 20
31.188996529282253
 10
68.13815203287274
 20
31.635735051211896
 10
68.5322229977734
 20
31.85412590771842
 10
68.9419952497522
 20
31.666847523777214
 10
68.9419952497522
 20
35.04215247622279
 10
68.9419952497522
 20
35.04215247622279
 10
68.5322229977734
 20
34.854874092281584
 10
68.13815203287274
 20
35.07326494878811
 10
68.07974668545047
 20
35.520003470717754
 10
68.40442894175843
 20
35.83236211718391
 10
68.84857435344728
 20
35.75672254513896
 10
69.05156084503068
 20
35.3545
 10
68.85156084503068
 20
35.3545
 10
68.85156084503068
 20
36.5295
 10
71.28285220162732
 20
36.5295
 10
71.28285220162732
 20
36.5295
 10
71.4989821727662
 20
36.52170451098776
 10
71.71398891802828
 20
36.49835855705034
 10
71.92675504893334
 20
36.45958346693933
 10
72.13617482145769
 20
36.405580754514006
 10
72.34115988257749
 20
36.33663107147527
 10
72.5406449264317
 20
36.25309274882079
 10
72.73359323070864
 20
36.15539993460149
 10
72.91900204448437
 20
36.044060337657235
 10
73.09590779951186
 20
35.91965258905777
 10
73.26339111787809
 20
35.782823234961256
 10
73.42058159000436
 20
35.634283376518624
 10
73.56666229815846
 20
35.474804974286144
 10
73.70087406197021
 20
35.30521683635199
 10
73.82251938388619
 20
35.12640031102674
 10
73.93096607405947
 20
34.93928470648267
 10
74.02565053583562
 20
34.744842461145915
 10
74.10608069476035
 20
34.544084089941194
 10
74.17183855588692
 20
34.33805293265304
 10
74.22258237609273
 20
34.12781973169669
 10
74.22258237609253
 20
34.12781973169665
 10
74.32326667882671
 20
33.65551805366102
 10
74.43201773255248
 20
33.18321637562539
 10
74.54717497062612
 20
32.710914697589764
 10
74.66698000761797
 20
32.23861301955414
 10
74.78960348885636
 20
31.76631134151851
 10
74.91317302363146
 20
31.294009663482882
 10
75.0358017755348
 20
30.821707985447254
 10
75.15561727337645
 20
30.349406307411627
 10
75.27079000275354
 20
29.877104629376
 10
75.37956134169305
 20
29.404802951340372
 10
75.48027041380759
 20
28.932501273304744
 10
75.57137944893175
 20
28.460199595269117
 10
75.65149726399663
 20
27.98789791723349
 10
75.71940050560278
 20
27.51559623919786
 10
75.77405232992987
 20
27.04329456116223
 10
75.81461823475112
 20
26.570992883126603
 10
75.84047880180704
 20
26.098691205090976
 10
75.85123915496932
 20
25.62638952705535
 10
75.84673498977449
 20
25.15408784901972
 10
75.82703508225941
 20
24.681786170984093
 10
75.79244023879042
 20
24.209484492948466
 10
75.7434787029214
 20
23.73718281491284
 10
75.68089808941562
 20
23.26488113687721
 10
75.60565396859427
 20
22.792579458841583
 10
75.5188952753218
 20
22.320277780805956
 10
75.42194676542506
 20
21.84797610277033
 10
75.3162887874265
 20
21.375674424734697
 10
75.20353467846539
 20
20.90337274669907
 10
75.08540612955866
 20
20.431071068663442
 10
74.96370689635988
 20
19.958769390627815
 10
74.84029525683782
 20
19.486467712592187
 10
74.71705563643037
 20
19.01416603455656
 10
74.59586983394155
 20
18.541864356520932
 10
74.4785882875456
 20
18.069562678485305
 10
74.36700181965027
 20
17.597261000449677
 10
74.2628142920585
 20
17.12495932241405
 10
74.16761658896947
 20
16.652657644378422
 10
74.0828623250829
 20
16.180355966342795
 10
74.00984564973075
 20
15.708054288307167
 10
73.94968148595396
 20
15.23575261027154
 10
73.90328850626274
 20
14.763450932235912
 10
73.87137510503067
 20
14.291149254200285
 10
73.85442858171608
 20
13.818847576164657
 10
73.85270770007692
 20
13.34654589812903
 10
73.8662387369956
 20
12.874244220093402
 10
73.89481508124588
 20
12.401942542057775
 10
73.93800038832869
 20
11.929640864022147
 10
73.99513524320405
 20
11.45733918598652
 10
74.06534722918309
 20
10.985037507950894
 10
74.06534722901478
 20
10.985037507923664
 10
74.09791942367437
 20
10.747794001100303
 10
74.11909502362239
 20
10.509263031702972
 10
74.12882545590399
 20
10.269991746166237
 10
74.12708840068647
 20
10.030528989074533
 10
74.11388784245692
 20
9.791424044213041
 10
74.08925406088254
 20
9.553225374611102
 10
74.0532435613546
 20
9.316479364468297
 10
74.00593894537545
 20
9.081729065848993
 10
73.94744872108568
 20
8.849512953020183
 10
73.8779070543664
 20
8.620363687289972
 10
73.79747346108718
 20
8.394806895179912
 10
73.70633244120577
 20
8.17335996273386
 10
73.60469305555901
 20
7.9565308487289865
 10
73.49278844631543
 20
7.744816919511212
 10
73.37087530218976
 20
7.538703808127725
 10
73.23923326964594
 20
7.338664300373576
 10
73.09816431143929
 20
7.145157250307488
 10
72.94799201396911
 20
6.958626527724537
 10
72.78906084503068
 20
6.779499999999999
 10
72.16406084503068
 20
6.779499999999999
 10
72.16406084503068
 20
6.779499999999999
 10
72.1593450024506
 20
6.8634733570774795
 10
72.14525677916704
 20
6.946390700467235
 10
72.12197334276196
 20
7.027209296466374
 10
72.0897874959575
 20
7.104912804338168
 10
72.0491039944519
 20
7.1785240573865
 10
72.0004344568817
 20
7.247117351394049
 10
71.94439093092059
 20
7.30983008588991
 10
71.88167819642473
 20
7.365873611851022
 10
71.81308490241719
 20
7.4145431494212115
 10
71.73947364936885
 20
7.455226650926813
 10
71.66177014149706
 20
7.487412497731274
 10
71.58095154549791
 20
7.510695934136367
 10
71.49803420210816
 20
7.52478415741993
 10
71.41406084503068
 20
7.529499999999999
 10
68.85156084503068
 20
7.529499999999999
  0
LWPOLYLINE
  5
57
330
17
100
AcDbEntity
  8
POCKET
100
AcDbPolyline
 90
57
 70
1
 10
69.05156084503068
 20
13.5045
 10
72.9480074544374
 20
13.577723304703364
 10
72.90116212579098
 20
13.573295117385536
 10
72.85597631626624
 20
13.560167426175427
 10
72.81405075569265
 20
13.538805286078867
 10
72.77687067795523
 20
13.509965461558716
 10
72.74575320584367
 20
13.474669617776481
 10
72.7218006913209
 20
13.434168127594631
 10
72.70586166415525
 20
13.389895776494578
 10
72.69850077233033
 20
13.343420934585692
 10
72.69997877910878
 20
13.296389996312287
 10
72.71024332536362
 20
13.250469056109626
 10
72.72893078442644
 20
13.207284886177934
 10
72.75537914374345
 20
13.168367307266191
 10
72.78865145700023
 20
13.135094994009416
 10
72.82756903591198
 20
13.108646634692398
 10
72.87075320584367
 20
13.089959175629575
 10
72.91667414604633
 20
13.079694629374744
 10
72.96370508431973
 20
13.078216622596296
 10
73.01017992622862
 20
13.085577514421207
 10
73.05445227732866
 20
13.101516541586859
 10
73.09495376751052
 20
13.125469056109626
 10
73.13024961129275
 20
13.156586528221192
 10
73.1590894358129
 20
13.193766605958615
 10
73.18045157590946
 20
13.235692166532194
 10
73.19357926711957
 20
13.280877976056933
 10
73.1980074544374
 20
13.327723304703364
 10
73.50478414973404
 20
13.5045
 10
73.50478414973404
 20
11.904499999999999
 10
72.9480074544374
 20
11.831276695296635
 10
72.93230982455508
 20
11.831770013189567
 10
72.91667414604633
 20
11.833248019968016
 10
72.90116212579098
 20
11.835704882614463
 10
72.88583498264619
 20
11.839130905014478
 10
72.87075320584367
 20
11.843512566222847
 10
72.85597631626624
 20
11.848832573824572
 10
72.84156263154614
 20
11.85506993218013
 10
72.82756903591198
 20
11.86220002528567
 10
72.81405075569265
 20
11.870194713921132
 10
72.80106114136429
 20
11.879022446702898
 10
72.78865145700023
 20
11.888648384602687
 10
72.77687067795523
 20
11.899034538441283
 10
72.76576529758205
 20
11.910139918814464
 10
72.75537914374345
 20
11.921920697859463
 10
72.74575320584367
 20
11.934330382223518
 10
72.7369254730619
 20
11.947319996551887
 10
72.72893078442644
 20
11.960838276771206
 10
72.7218006913209
 20
11.974831872405368
 10
72.71556333296535
 20
11.989245557125466
 10
72.71024332536362
 20
12.004022446702898
 10
72.70586166415525
 20
12.01910422350542
 10
72.70243564175523
 20
12.034431366650205
 10
72.69997877910878
 20
12.049943386905559
 10
72.69850077233033
 20
12.065579065414306
 10
72.6980074544374
 20
12.081276695296635
 10
69.05156084503068
 20
11.904499999999999
 10
69.05156084503068
 20
13.5045
  0
LWPOLYLINE
  5
58
330
17
100
AcDbEntity
  8
POCKET
100
AcDbPolyline
 90
57
 70
1
 10
69.05156084503068
 20
25.0045
 10
72.9480074544374
 20
25.077723304703362
 10
72.90116212579098
 20
25.073295117385534
 10
72.85597631626624
 20
25.060167426175425
 10
72.81405075569265
 20
25.038805286078865
 10
72.77687067795523
 20
25.009965461558714
 10
72.74575320584367
 20
24.97466961777648
 10
72.7218006913209
 20
24.93416812759463
 10
72.70586166415525
 20
24.889895776494576
 10
72.69850077233033
 20
24.84342093458569
 10
72.69997877910878
 20
24.796389996312286
 10
72.71024332536362
 20
24.750469056109626
 10
72.72893078442644
 20
24.707284886177934
 10
72.75537914374345
 20
24.66836730726619
 10
72.78865145700023
 20
24.635094994009414
 10
72.82756903591198
 20
24.608646634692395
 10
72.87075320584367
 20
24.589959175629573
 10
72.91667414604633
 20
24.579694629374742
 10
72.96370508431973
 20
24.578216622596294
 10
73.01017992622862
 20
24.585577514421203
 10
73.05445227732866
 20
24.601516541586857
 10
73.09495376751052
 20
24.625469056109626
 10
73.13024961129275
 20
24.65658652822119
 10
73.1590894358129
 20
24.69376660595861
 10
73.18045157590946
 20
24.735692166532193
 10
73.19357926711957
 20
24.78087797605693
 10
73.1980074544374
 20
24.827723304703362
 10
73.50478414973404
 20
25.0045
 10
73.50478414973404
 20
23.4045
 10
72.9480074544374
 20
23.331276695296637
 10
72.93230982455508
 20
23.33177001318957
 10
72.91667414604633
 20
23.333248019968018
 10
72.90116212579098
 20
23.335704882614465
 10
72.88583498264619
 20
23.33913090501448
 10
72.87075320584367
 20
23.34351256622285
 10
72.85597631626624
 20
23.348832573824573
 10
72.84156263154614
 20
23.355069932180132
 10
72.82756903591198
 20
23.36220002528567
 10
72.81405075569265
 20
23.370194713921133
 10
72.80106114136429
 20
23.3790224467029
 10
72.78865145700023
 20
23.38864838460269
 10
72.77687067795523
 20
23.399034538441285
 10
72.76576529758205
 20
23.410139918814465
 10
72.75537914374345
 20
23.421920697859466
 10
72.74575320584367
 20
23.434330382223518
 10
72.7369254730619
 20
23.447319996551887
 10
72.72893078442644
 20
23.46083827677121
 10
72.7218006913209
 20
23.474831872405368
 10
72.71556333296535
 20
23.489245557125468
 10
72.71024332536362
 20
23.5040224467029
 10
72.70586166415525
 20
23.519104223505423
 10
72.70243564175523
 20
23.534431366650207
 10
72.69997877910878
 20
23.54994338690556
 10
72.69850077233033
 20
23.56557906541431
 10
72.6980074544374
 20
23.581276695296637
 10
69.05156084503068
 20
23.4045
 10
69.05156084503068
 20
25.0045
  0
LWPOLYLINE
  5
59
330
17
100
AcDbEntity
  8
POCKET
100
AcDbPolyline
 90
57
 70
1
 10
69.05156084503068
 20
34.1545
 10
72.9480074544374
 20
34.22772330470336
 10
72.90116212579098
 20
34.22329511738553
 10
72.85597631626624
 20
34.210167426175424
 10
72.81405075569265
 20
34.18880528607887
 10
72.77687067795523
 20
34.15996546155871
 10
72.74575320584367
 20
34.124669617776476
 10
72.7218006913209
 20
34.08416812759463
 10
72.70586166415525
 20
34.039895776494575
 10
72.69850077233033
 20
33.993420934585686
 10
72.69997877910878
 20
33.946389996312284
 10
72.71024332536362
 20
33.90046905610962
 10
72.72893078442644
 20
33.85728488617793
 10
72.75537914374345
 20
33.818367307266186
 10
72.78865145700023
 20
33.78509499400941
 10
72.82756903591198
 20
33.7586466346924
 10
72.87075320584367
 20
33.73995917562957
 10
72.91667414604633
 20
33.72969462937474
 10
72.96370508431973
 20
33.72821662259629
 10
73.01017992622862
 20
33.7355775144212
 10
73.05445227732866
 20
33.75151654158685
 10
73.09495376751052
 20
33.77546905610962
 10
73.13024961129275
 20
33.80658652822119
 10
73.1590894358129
 20
33.84376660595861
 10
73.18045157590946
 20
33.88569216653219
 10
73.19357926711957
 20
33.93087797605693
 10
73.1980074544374
 20
33.97772330470336
 10
73.50478414973404
 20
34.1545
 10
73.50478414973404
 20
32.554500000000004
 10
72.9480074544374
 20
32.48127669529664
 10
72.93230982455508
 20
32.481770013189575
 10
72.91667414604633
 20
32.48324801996802
 10
72.90116212579098
 20
32.48570488261447
 10
72.88583498264619
 20
32.489130905014484
 10
72.87075320584367
 20
32.493512566222854
 10
72.85597631626624
 20
32.49883257382458
 10
72.84156263154614
 20
32.505069932180135
 10
72.82756903591198
 20
32.51220002528568
 10
72.81405075569265
 20
32.520194713921136
 10
72.80106114136429
 20
32.5290224467029
 10
72.78865145700023
 20
32.538648384602695
 10
72.77687067795523
 20
32.54903453844129
 10
72.76576529758205
 20
32.56013991881447
 10
72.75537914374345
 20
32.57192069785947
 10
72.74575320584367
 20
32.58433038222353
 10
72.7369254730619
 20
32.597319996551896
 10
72.72893078442644
 20
32.61083827677121
 10
72.7218006913209
 20
32.62483187240537
 10
72.71556333296535
 20
32.63924555712547
 10
72.71024332536362
 20
32.6540224467029
 10
72.70586166415525
 20
32.66910422350543
 10
72.70243564175523
 20
32.68443136665021
 10
72.69997877910878
 20
32.69994338690557
 10
72.69850077233033
 20
32.71557906541432
 10
72.6980074544374
 20
32.73127669529664
 10
69.05156084503068
 20
32.554500000000004
 10
69.05156084503068
 20
34.1545
  0
ENDSEC
  0
SECTION
  2
OBJECTS
  0
DICTIONARY
  5
A
330
0
100
AcDbDictionary
281
1
  3
ACAD_COLOR
350
B
  3
ACAD_GROUP
350
C
  3
ACAD_LAYOUT
350
D
  3
ACAD_MATERIAL
350
E
  3
ACAD_MLEADERSTYLE
350
F
  3
ACAD_MLINESTYLE
350
10
  3
ACAD_PLOTSETTINGS
350
11
  3
ACAD_PLOTSTYLENAME
350
12
  3
ACAD_SCALELIST
350
14
  3
ACAD_TABLESTYLE
350
15
  3
ACAD_VISUALSTYLE
350
16
  3
EZDXF_META
350
2D
  0
DICTIONARY
  5
B
330
A
100
AcDbDictionary
281
1
  0
DICTIONARY
  5
C
330
A
100
AcDbDictionary
281
1
  0
DICTIONARY
  5
D
330
A
100
AcDbDictionary
281
1
  3
Model
350
1A
  3
Layout1
350
1E
  0
DICTIONARY
  5
E
330
A
100
AcDbDictionary
281
1
  3
ByBlock
350
1F
  3
ByLayer
350
20
  3
Global
350
21
  0
DICTIONARY
  5
F
330
A
100
AcDbDictionary
281
1
  3
Standard
350
2C
  0
DICTIONARY
  5
10
330
A
100
AcDbDictionary
281
1
  3
Standard
350
22
  0
DICTIONARY
  5
11
330
A
100
AcDbDictionary
281
1
  0
ACDBDICTIONARYWDFLT
  5
12
330
A
100
AcDbDictionary
281
1
  3
Normal
350
13
100
AcDbDictionaryWithDefault
340
13
  0
ACDBPLACEHOLDER
  5
13
330
12
  0
DICTIONARY
  5
14
330
A
100
AcDbDictionary
281
1
  0
DICTIONARY
  5
15
330
A
100
AcDbDictionary
281
1
  0
DICTIONARY
  5
16
330
A
100
AcDbDictionary
281
1
  0
LAYOUT
  5
1A
330
D
100
AcDbPlotSettings
  1

  4
A3
  6

 40
7.5
 41
20.0
 42
7.5
 43
20.0
 44
420.0
 45
297.0
 46
0.0
 47
0.0
 48
0.0
 49
0.0
140
0.0
141
0.0
142
1.0
143
1.0
 70
1024
 72
1
 73
0
 74
5
  7

 75
16
 76
0
 77
2
 78
300
147
1.0
148
0.0
149
0.0
100
AcDbLayout
  1
Model
 70
1
 71
0
 10
0.0
 20
0.0
 11
420.0
 21
297.0
 12
0.0
 22
0.0
 32
0.0
 14
1e+20
 24
1e+20
 34
1e+20
 15
-1e+20
 25
-1e+20
 35
-1e+20
146
0.0
 13
0.0
 23
0.0
 33
0.0
 16
1.0
 26
0.0
 36
0.0
 17
0.0
 27
1.0
 37
0.0
 76
1
330
17
  0
LAYOUT
  5
1E
330
D
100
AcDbPlotSettings
  1

  4
A3
  6

 40
7.5
 41
20.0
 42
7.5
 43
20.0
 44
420.0
 45
297.0
 46
0.0
 47
0.0
 48
0.0
 49
0.0
140
0.0
141
0.0
142
1.0
143
1.0
 70
0
 72
1
 73
0
 74
5
  7

 75
16
 76
0
 77
2
 78
300
147
1.0
148
0.0
149
0.0
100
AcDbLayout
  1
Layout1
 70
1
 71
1
 10
0.0
 20
0.0
 11
420.0
 21
297.0
 12
0.0
 22
0.0
 32
0.0
 14
1e+20
 24
1e+20
 34
1e+20
 15
-1e+20
 25
-1e+20
 35
-1e+20
146
0.0
 13
0.0
 23
0.0
 33
0.0
 16
1.0
 26
0.0
 36
0.0
 17
0.0
 27
1.0
 37
0.0
 76
1
330
1B
  0
MATERIAL
  5
1F
102
{ACAD_REACTORS
330
E
102
}
330
E
100
AcDbMaterial
  1
ByBlock
  2

 70
0
 40
1.0
 71
1
 41
1.0
 91
-1023410177
 42
1.0
 72
1
  3

 73
1
 74
1
 75
1
 44
0.5
 73
0
 45
1.0
 46
1.0
 77
1
  4

 78
1
 79
1
170
1
 48
1.0
171
1
  6

172
1
173
1
174
1
140
1.0
141
1.0
175
1
  7

176
1
177
1
178
1
143
1.0
179
1
  8

270
1
271
1
272
1
145
1.0
146
1.0
273
1
  9

274
1
275
1
276
1
 42
1.0
 72
1
  3

 73
1
 74
1
 75
1
 94
63
  0
MATERIAL
  5
20
102
{ACAD_REACTORS
330
E
102
}
330
E
100
AcDbMaterial
  1
ByLayer
  2

 70
0
 40
1.0
 71
1
 41
1.0
 91
-1023410177
 42
1.0
 72
1
  3

 73
1
 74
1
 75
1
 44
0.5
 73
0
 45
1.0
 46
1.0
 77
1
  4

 78
1
 79
1
170
1
 48
1.0
171
1
  6

172
1
173
1
174
1
140
1.0
141
1.0
175
1
  7

176
1
177
1
178
1
143
1.0
179
1
  8

270
1
271
1
272
1
145
1.0
146
1.0
273
1
  9

274
1
275
1
276
1
 42
1.0
 72
1
  3

 73
1
 74
1
 75
1
 94
63
  0
MATERIAL
  5
21
102
{ACAD_REACTORS
330
E
102
}
330
E
100
AcDbMaterial
  1
Global
  2

 70
0
 40
1.0
 71
1
 41
1.0
 91
-1023410177
 42
1.0
 72
1
  3

 73
1
 74
1
 75
1
 44
0.5
 73
0
 45
1.0
 46
1.0
 77
1
  4

 78
1
 79
1
170
1
 48
1.0
171
1
  6

172
1
173
1
174
1
140
1.0
141
1.0
175
1
  7

176
1
177
1
178
1
143
1.0
179
1
  8

270
1
271
1
272
1
145
1.0
146
1.0
273
1
  9

274
1
275
1
276
1
 42
1.0
 72
1
  3

 73
1
 74
1
 75
1
 94
63
  0
MLINESTYLE
  5
22
102
{ACAD_REACTORS
330
10
102
}
330
10
100
AcDbMlineStyle
  2
Standard
 70
0
  3

 62
256
 51
90.0
 52
90.0
 71
2
 49
0.5
 62
256
  6
BYLAYER
 49
-0.5
 62
256
  6
BYLAYER
  0
MLEADERSTYLE
  5
2C
102
{ACAD_REACTORS
330
F
102
}
330
F
100
AcDbMLeaderStyle
179
2
170
2
171
1
172
0
 90
2
 40
0.0
 41
0.0
173
1
 91
-1056964608
 92
-2
290
1
 42
2.0
291
1
 43
8.0
  3
Standard
 44
4.0
300

342
29
174
1
175
1
176
0
178
1
 93
-1056964608
 45
4.0
292
0
297
0
 46
4.0
 94
-1056964608
 47
1.0
 49
1.0
140
1.0
294
1
141
0.0
177
0
142
1.0
295
0
296
0
143
3.75
271
0
272
9
273
9
  0
DICTIONARY
  5
2D
330
A
100
AcDbDictionary
280
1
281
1
  3
CREATED_BY_EZDXF
350
2E
  3
WRITTEN_BY_EZDXF
350
5C
  0
DICTIONARYVAR
  5
2E
330
2D
100
DictionaryVariables
280
0
  1
1.4.3 @ 2026-03-30T17:24:18.601945+00:00
  0
DICTIONARYVAR
  5
5C
330
2D
100
DictionaryVariables
280
0
  1
1.4.3 @ 2026-03-30T17:24:18.626561+00:00
  0
ENDSEC
  0
EOF
