  0
SECTION
  2
HEADER
  9
$ACADVER
  1
AC1024
  9
$ACADMAINTVER
 70
6
  9
$DWGCODEPAGE
  3
ANSI_1252
  9
$LASTSAVEDBY
  1
ezdxf
  9
$INSBASE
 10
0.0
 20
0.0
 30
0.0
  9
$EXTMIN
 10
1e+20
 20
1e+20
 30
1e+20
  9
$EXTMAX
 10
-1e+20
 20
-1e+20
 30
-1e+20
  9
$LIMMIN
 10
0.0
 20
0.0
  9
$LIMMAX
 10
420.0
 20
297.0
  9
$ORTHOMODE
 70
0
  9
$REGENMODE
 70
1
  9
$FILLMODE
 70
1
  9
$QTEXTMODE
 70
0
  9
$MIRRTEXT
 70
1
  9
$LTSCALE
 40
1.0
  9
$ATTMODE
 70
1
  9
$TEXTSIZE
 40
2.5
  9
$TRACEWID
 40
1.0
  9
$TEXTSTYLE
  7
Standard
  9
$CLAYER
  8
0
  9
$CELTYPE
  6
ByLayer
  9
$CECOLOR
 62
256
  9
$CELTSCALE
 40
1.0
  9
$DISPSILH
 70
0
  9
$DIMSCALE
 40
1.0
  9
$DIMASZ
 40
2.5
  9
$DIMEXO
 40
0.625
  9
$DIMDLI
 40
3.75
  9
$DIMRND
 40
0.0
  9
$DIMDLE
 40
0.0
  9
$DIMEXE
 40
1.25
  9
$DIMTP
 40
0.0
  9
$DIMTM
 40
0.0
  9
$DIMTXT
 40
2.5
  9
$DIMCEN
 40
2.5
  9
$DIMTSZ
 40
0.0
  9
$DIMTOL
 70
0
  9
$DIMLIM
 70
0
  9
$DIMTIH
 70
0
  9
$DIMTOH
 70
0
  9
$DIMSE1
 70
0
  9
$DIMSE2
 70
0
  9
$DIMTAD
 70
1
  9
$DIMZIN
 70
8
  9
$DIMBLK
  1

  9
$DIMASO
 70
1
  9
$DIMSHO
 70
1
  9
$DIMPOST
  1

  9
$DIMAPOST
  1

  9
$DIMALT
 70
0
  9
$DIMALTD
 70
3
  9
$DIMALTF
 40
0.03937007874
  9
$DIMLFAC
 40
1.0
  9
$DIMTOFL
 70
1
  9
$DIMTVP
 40
0.0
  9
$DIMTIX
 70
0
  9
$DIMSOXD
 70
0
  9
$DIMSAH
 70
0
  9
$DIMBLK1
  1

  9
$DIMBLK2
  1

  9
$DIMSTYLE
  2
ISO-25
  9
$DIMCLRD
 70
0
  9
$DIMCLRE
 70
0
  9
$DIMCLRT
 70
0
  9
$DIMTFAC
 40
1.0
  9
$DIMGAP
 40
0.625
  9
$DIMJUST
 70
0
  9
$DIMSD1
 70
0
  9
$DIMSD2
 70
0
  9
$DIMTOLJ
 70
0
  9
$DIMTZIN
 70
8
  9
$DIMALTZ
 70
0
  9
$DIMALTTZ
 70
0
  9
$DIMUPT
 70
0
  9
$DIMDEC
 70
2
  9
$DIMTDEC
 70
2
  9
$DIMALTU
 70
2
  9
$DIMALTTD
 70
3
  9
$DIMTXSTY
  7
Standard
  9
$DIMAUNIT
 70
0
  9
$DIMADEC
 70
0
  9
$DIMALTRND
 40
0.0
  9
$DIMAZIN
 70
0
  9
$DIMDSEP
 70
44
  9
$DIMATFIT
 70
3
  9
$DIMFRAC
 70
0
  9
$DIMLDRBLK
  1

  9
$DIMLUNIT
 70
2
  9
$DIMLWD
 70
-2
  9
$DIMLWE
 70
-2
  9
$DIMTMOVE
 70
0
  9
$DIMFXL
 40
1.0
  9
$DIMFXLON
 70
0
  9
$DIMJOGANG
 40
0.785398163397
  9
$DIMTFILL
 70
0
  9
$DIMTFILLCLR
 70
0
  9
$DIMARCSYM
 70
0
  9
$DIMLTYPE
  6

  9
$DIMLTEX1
  6

  9
$DIMLTEX2
  6

  9
$DIMTXTDIRECTION
 70
0
  9
$LUNITS
 70
2
  9
$LUPREC
 70
4
  9
$SKETCHINC
 40
1.0
  9
$FILLETRAD
 40
10.0
  9
$AUNITS
 70
0
  9
$AUPREC
 70
2
  9
$MENU
  1
.
  9
$ELEVATION
 40
0.0
  9
$PELEVATION
 40
0.0
  9
$THICKNESS
 40
0.0
  9
$LIMCHECK
 70
0
  9
$CHAMFERA
 40
0.0
  9
$CHAMFERB
 40
0.0
  9
$CHAMFERC
 40
0.0
  9
$CHAMFERD
 40
0.0
  9
$SKPOLY
 70
0
  9
$TDCREATE
 40
2461121.999097222
  9
$TDUCREATE
 40
2458532.153996898
  9
$TDUPDATE
 40
2461121.999097222
  9
$TDUUPDATE
 40
2458532.1544311
  9
$TDINDWG
 40
0.0
  9
$TDUSRTIMER
 40
0.0
  9
$USRTIMER
 70
1
  9
$ANGBASE
 50
0.0
  9
$ANGDIR
 70
0
  9
$PDMODE
 70
0
  9
$PDSIZE
 40
0.0
  9
$PLINEWID
 40
0.0
  9
$SPLFRAME
 70
0
  9
$SPLINETYPE
 70
6
  9
$SPLINESEGS
 70
8
  9
$HANDSEED
  5
4F
  9
$SURFTAB1
 70
6
  9
$SURFTAB2
 70
6
  9
$SURFTYPE
 70
6
  9
$SURFU
 70
6
  9
$SURFV
 70
6
  9
$UCSBASE
  2

  9
$UCSNAME
  2

  9
$UCSORG
 10
0.0
 20
0.0
 30
0.0
  9
$UCSXDIR
 10
1.0
 20
0.0
 30
0.0
  9
$UCSYDIR
 10
0.0
 20
1.0
 30
0.0
  9
$UCSORTHOREF
  2

  9
$UCSORTHOVIEW
 70
0
  9
$UCSORGTOP
 10
0.0
 20
0.0
 30
0.0
  9
$UCSORGBOTTOM
 10
0.0
 20
0.0
 30
0.0
  9
$UCSORGLEFT
 10
0.0
 20
0.0
 30
0.0
  9
$UCSORGRIGHT
 10
0.0
 20
0.0
 30
0.0
  9
$UCSORGFRONT
 10
0.0
 20
0.0
 30
0.0
  9
$UCSORGBACK
 10
0.0
 20
0.0
 30
0.0
  9
$PUCSBASE
  2

  9
$PUCSNAME
  2

  9
$PUCSORG
 10
0.0
 20
0.0
 30
0.0
  9
$PUCSXDIR
 10
1.0
 20
0.0
 30
0.0
  9
$PUCSYDIR
 10
0.0
 20
1.0
 30
0.0
  9
$PUCSORTHOREF
  2

  9
$PUCSORTHOVIEW
 70
0
  9
$PUCSORGTOP
 10
0.0
 20
0.0
 30
0.0
  9
$PUCSORGBOTTOM
 10
0.0
 20
0.0
 30
0.0
  9
$PUCSORGLEFT
 10
0.0
 20
0.0
 30
0.0
  9
$PUCSORGRIGHT
 10
0.0
 20
0.0
 30
0.0
  9
$PUCSORGFRONT
 10
0.0
 20
0.0
 30
0.0
  9
$PUCSORGBACK
 10
0.0
 20
0.0
 30
0.0
  9
$USERI1
 70
0
  9
$USERI2
 70
0
  9
$USERI3
 70
0
  9
$USERI4
 70
0
  9
$USERI5
 70
0
  9
$USERR1
 40
0.0
  9
$USERR2
 40
0.0
  9
$USERR3
 40
0.0
  9
$USERR4
 40
0.0
  9
$USERR5
 40
0.0
  9
$WORLDVIEW
 70
1
  9
$SHADEDGE
 70
3
  9
$SHADEDIF
 70
70
  9
$TILEMODE
 70
1
  9
$MAXACTVP
 70
64
  9
$PINSBASE
 10
0.0
 20
0.0
 30
0.0
  9
$PLIMCHECK
 70
0
  9
$PEXTMIN
 10
1e+20
 20
1e+20
 30
1e+20
  9
$PEXTMAX
 10
-1e+20
 20
-1e+20
 30
-1e+20
  9
$PLIMMIN
 10
0.0
 20
0.0
  9
$PLIMMAX
 10
420.0
 20
297.0
  9
$UNITMODE
 70
0
  9
$VISRETAIN
 70
1
  9
$PLINEGEN
 70
0
  9
$PSLTSCALE
 70
1
  9
$TREEDEPTH
 70
3020
  9
$CMLSTYLE
  2
Standard
  9
$CMLJUST
 70
0
  9
$CMLSCALE
 40
20.0
  9
$PROXYGRAPHICS
 70
1
  9
$MEASUREMENT
 70
1
  9
$CELWEIGHT
370
-1
  9
$ENDCAPS
280
0
  9
$JOINSTYLE
280
0
  9
$LWDISPLAY
290
0
  9
$INSUNITS
 70
1
  9
$HYPERLINKBASE
  1

  9
$STYLESHEET
  1

  9
$XEDIT
290
1
  9
$CEPSNTYPE
380
0
  9
$PSTYLEMODE
290
1
  9
$FINGERPRINTGUID
  2
{C9742B4B-5BB4-42D6-88D0-DCC1F5A2FAC7}
  9
$VERSIONGUID
  2
{2E76F4A2-F6E9-4E8A-A9B0-59FD834CBC26}
  9
$EXTNAMES
290
1
  9
$PSVPSCALE
 40
0.0
  9
$OLESTARTUP
290
0
  9
$SORTENTS
280
127
  9
$INDEXCTL
280
0
  9
$HIDETEXT
280
1
  9
$XCLIPFRAME
280
1
  9
$HALOGAP
280
0
  9
$OBSCOLOR
 70
257
  9
$OBSLTYPE
280
0
  9
$INTERSECTIONDISPLAY
280
0
  9
$INTERSECTIONCOLOR
 70
257
  9
$DIMASSOC
280
2
  9
$PROJECTNAME
  1

  9
$CAMERADISPLAY
290
0
  9
$LENSLENGTH
 40
50.0
  9
$CAMERAHEIGHT
 40
0.0
  9
$STEPSPERSEC
 40
24.0
  9
$STEPSIZE
 40
100.0
  9
$3DDWFPREC
 40
2.0
  9
$PSOLWIDTH
 40
0.005
  9
$PSOLHEIGHT
 40
0.08
  9
$LOFTANG1
 40
1.570796326795
  9
$LOFTANG2
 40
1.570796326795
  9
$LOFTMAG1
 40
0.0
  9
$LOFTMAG2
 40
0.0
  9
$LOFTPARAM
 70
7
  9
$LOFTNORMALS
280
1
  9
$LATITUDE
 40
37.795
  9
$LONGITUDE
 40
-122.394
  9
$NORTHDIRECTION
 40
0.0
  9
$TIMEZONE
 70
-8000
  9
$LIGHTGLYPHDISPLAY
280
1
  9
$TILEMODELIGHTSYNCH
280
1
  9
$CMATERIAL
347
20
  9
$SOLIDHIST
280
0
  9
$SHOWHIST
280
1
  9
$DWFFRAME
280
2
  9
$DGNFRAME
280
2
  9
$REALWORLDSCALE
290
1
  9
$INTERFERECOLOR
 62
256
  9
$CSHADOW
280
0
  9
$SHADOWPLANELOCATION
 40
0.0
  0
ENDSEC
  0
SECTION
  2
CLASSES
  0
CLASS
  1
ACDBDICTIONARYWDFLT
  2
AcDbDictionaryWithDefault
  3
ObjectDBX Classes
 90
0
 91
0
280
0
281
0
  0
CLASS
  1
SUN
  2
AcDbSun
  3
SCENEOE
 90
1153
 91
0
280
0
281
0
  0
CLASS
  1
VISUALSTYLE
  2
AcDbVisualStyle
  3
ObjectDBX Classes
 90
4095
 91
0
280
0
281
0
  0
CLASS
  1
MATERIAL
  2
AcDbMaterial
  3
ObjectDBX Classes
 90
1153
 91
0
280
0
281
0
  0
CLASS
  1
SCALE
  2
AcDbScale
  3
ObjectDBX Classes
 90
1153
 91
0
280
0
281
0
  0
CLASS
  1
TABLESTYLE
  2
AcDbTableStyle
  3
ObjectDBX Classes
 90
4095
 91
0
280
0
281
0
  0
CLASS
  1
MLEADERSTYLE
  2
AcDbMLeaderStyle
  3
ACDB_MLEADERSTYLE_CLASS
 90
4095
 91
0
280
0
281
0
  0
CLASS
  1
DICTIONARYVAR
  2
AcDbDictionaryVar
  3
ObjectDBX Classes
 90
0
 91
0
280
0
281
0
  0
CLASS
  1
CELLSTYLEMAP
  2
AcDbCellStyleMap
  3
ObjectDBX Classes
 90
1152
 91
0
280
0
281
0
  0
CLASS
  1
MENTALRAYRENDERSETTINGS
  2
AcDbMentalRayRenderSettings
  3
SCENEOE
 90
1024
 91
0
280
0
281
0
  0
CLASS
  1
ACDBDETAILVIEWSTYLE
  2
AcDbDetailViewStyle
  3
ObjectDBX Classes
 90
1025
 91
0
280
0
281
0
  0
CLASS
  1
ACDBSECTIONVIEWSTYLE
  2
AcDbSectionViewStyle
  3
ObjectDBX Classes
 90
1025
 91
0
280
0
281
0
  0
CLASS
  1
RASTERVARIABLES
  2
AcDbRasterVariables
  3
ISM
 90
0
 91
0
280
0
281
0
  0
CLASS
  1
LAYOUT
  2
AcDbLayout
  3
ObjectDBX Classes
 90
0
 91
0
280
0
281
0
  0
CLASS
  1
ACDBPLACEHOLDER
  2
AcDbPlaceHolder
  3
ObjectDBX Classes
 90
0
 91
0
280
0
281
0
  0
ENDSEC
  0
SECTION
  2
TABLES
  0
TABLE
  2
VPORT
  5
8
330
0
100
AcDbSymbolTable
 70
1
  0
VPORT
  5
23
330
8
100
AcDbSymbolTableRecord
100
AcDbViewportTableRecord
  2
*Active
 70
0
 10
0.0
 20
0.0
 11
1.0
 21
1.0
 12
0.0
 22
0.0
 13
0.0
 23
0.0
 14
0.5
 24
0.5
 15
0.5
 25
0.5
 16
0.0
 26
0.0
 36
1.0
 17
0.0
 27
0.0
 37
0.0
 40
1000.0
 41
1.34
 42
50.0
 43
0.0
 44
0.0
 50
0.0
 51
0.0
 71
0
 72
1000
 73
1
 74
3
 75
0
 76
0
 77
0
 78
0
281
0
 65
0
146
0.0
  0
ENDTAB
  0
TABLE
  2
LTYPE
  5
2
330
0
100
AcDbSymbolTable
 70
3
  0
LTYPE
  5
24
330
2
100
AcDbSymbolTableRecord
100
AcDbLinetypeTableRecord
  2
ByBlock
 70
0
  3

 72
65
 73
0
 40
0.0
  0
LTYPE
  5
25
330
2
100
AcDbSymbolTableRecord
100
AcDbLinetypeTableRecord
  2
ByLayer
 70
0
  3

 72
65
 73
0
 40
0.0
  0
LTYPE
  5
26
330
2
100
AcDbSymbolTableRecord
100
AcDbLinetypeTableRecord
  2
Continuous
 70
0
  3

 72
65
 73
0
 40
0.0
  0
ENDTAB
  0
TABLE
  2
LAYER
  5
1
330
0
100
AcDbSymbolTable
 70
2
  0
LAYER
  5
27
330
1
100
AcDbSymbolTableRecord
100
AcDbLayerTableRecord
  2
0
 70
0
 62
7
  6
Continuous
370
-3
390
13
347
21
  0
LAYER
  5
28
330
1
100
AcDbSymbolTableRecord
100
AcDbLayerTableRecord
  2
Defpoints
 70
0
 62
7
  6
Continuous
290
0
370
-3
390
13
347
21
  0
ENDTAB
  0
TABLE
  2
STYLE
  5
5
330
0
100
AcDbSymbolTable
 70
1
  0
STYLE
  5
29
330
5
100
AcDbSymbolTableRecord
100
AcDbTextStyleTableRecord
  2
Standard
 70
0
 40
0.0
 41
1.0
 50
0.0
 71
0
 42
2.5
  3
txt
  4

  0
ENDTAB
  0
TABLE
  2
VIEW
  5
7
330
0
100
AcDbSymbolTable
 70
0
  0
ENDTAB
  0
TABLE
  2
UCS
  5
6
330
0
100
AcDbSymbolTable
 70
0
  0
ENDTAB
  0
TABLE
  2
APPID
  5
3
330
0
100
AcDbSymbolTable
 70
3
  0
APPID
  5
2A
330
3
100
AcDbSymbolTableRecord
100
AcDbRegAppTableRecord
  2
ACAD
 70
0
  0
APPID
  5
4C
330
3
100
AcDbSymbolTableRecord
100
AcDbRegAppTableRecord
  2
HATCHBACKGROUNDCOLOR
 70
0
  0
APPID
  5
4D
330
3
100
AcDbSymbolTableRecord
100
AcDbRegAppTableRecord
  2
EZDXF
 70
0
  0
ENDTAB
  0
TABLE
  2
DIMSTYLE
  5
4
330
0
100
AcDbSymbolTable
 70
1
100
AcDbDimStyleTable
  0
DIMSTYLE
105
2B
330
4
100
AcDbSymbolTableRecord
100
AcDbDimStyleTableRecord
  2
Standard
 70
0
 40
1.0
 41
2.5
 42
0.625
 43
3.75
 44
1.25
 45
0.0
 46
0.0
 47
0.0
 48
0.0
 49
2.5
140
2.5
141
2.5
142
0.0
143
0.03937007874
144
1.0
145
0.0
146
1.0
147
0.625
148
0.0
 69
0
 70
0
 71
0
 72
0
 73
0
 74
0
 75
0
 76
0
 77
1
 78
8
 79
3
170
0
171
3
172
1
173
0
174
0
175
0
176
0
177
0
178
0
179
2
271
2
272
2
273
2
274
3
275
0
276
0
277
2
278
44
279
0
280
0
281
0
282
0
283
0
284
8
285
0
286
0
288
0
289
3
290
0
371
-2
372
-2
  0
ENDTAB
  0
TABLE
  2
BLOCK_RECORD
  5
9
330
0
100
AcDbSymbolTable
 70
2
  0
BLOCK_RECORD
  5
17
330
9
100
AcDbSymbolTableRecord
100
AcDbBlockTableRecord
  2
*Model_Space
340
1A
 70
0
280
1
281
0
  0
BLOCK_RECORD
  5
1B
330
9
100
AcDbSymbolTableRecord
100
AcDbBlockTableRecord
  2
*Paper_Space
340
1E
 70
0
280
1
281
0
  0
ENDTAB
  0
ENDSEC
  0
SECTION
  2
BLOCKS
  0
BLOCK
  5
18
330
17
100
AcDbEntity
  8
0
100
AcDbBlockBegin
  2
*Model_Space
 70
0
 10
0.0
 20
0.0
 30
0.0
  3
*Model_Space
  1

  0
ENDBLK
  5
19
330
17
100
AcDbEntity
  8
0
100
AcDbBlockEnd
  0
BLOCK
  5
1C
330
1B
100
AcDbEntity
  8
0
100
AcDbBlockBegin
  2
*Paper_Space
 70
0
 10
0.0
 20
0.0
 30
0.0
  3
*Paper_Space
  1

  0
ENDBLK
  5
1D
330
1B
100
AcDbEntity
  8
0
100
AcDbBlockEnd
  0
ENDSEC
  0
SECTION
  2
ENTITIES
  0
LWPOLYLINE
  5
2F
330
17
100
AcDbEntity
  8
PLYWOOD_BOUNDARY
 62
7
100
AcDbPolyline
 90
5
 70
0
 10
0.0
 20
0.0
 10
96.0
 20
0.0
 10
96.0
 20
48.0
 10
0.0
 20
48.0
 10
0.0
 20
0.0
  0
LWPOLYLINE
  5
30
330
17
100
AcDbEntity
  8
SHELF_R
 62
3
100
AcDbPolyline
 90
110
 70
1
 10
5.75
 20
23.775111189878473
 10
34.75
 20
23.775111189878473
 10
34.75
 20
20.614458297465447
 10
34.75
 20
20.614458297465447
 10
34.74281517046839
 20
20.40695563383376
 10
34.721295096390506
 20
20.200446884379105
 10
34.68554285647551
 20
19.99592120254259
 10
34.63572969988951
 20
19.79435824309671
 10
34.572094225991506
 20
19.59672346971051
 10
34.49494124146959
 20
19.403963530488156
 10
34.4046403003515
 20
19.217001723632237
 10
34.30162393388292
 20
19.03673357495019
 10
34.18638557875186
 20
18.864022548387524
 10
34.059477213583065
 20
18.699695910133627
 10
33.92150671502313
 20
18.544540766110757
 10
33.77313494608039
 20
18.399300291826066
 10
33.615072590666315
 20
18.26467017264541
 10
33.44807674950023
 20
18.14129527153959
 10
33.27294731368298
 20
18.02976654026388
 10
33.090523133309446
 20
17.930618188766303
 10
32.9016779994719
 20
17.8443251263828
 10
32.707316458900024
 20
17.771300687075367
 10
32.50836948128482
 20
17.711894649609334
 10
32.50836948128478
 20
17.711894649609476
 10
32.05081413712254
 20
17.59308524006532
 10
31.59325879296031
 20
17.476884616492427
 10
31.135703448798075
 20
17.364958159881425
 10
30.678148104635838
 20
17.258909994095504
 10
30.220592760473604
 20
17.16025999565487
 10
29.76303741631137
 20
17.070422010949287
 10
29.305482072149132
 20
16.990683593068965
 10
28.8479267279869
 20
16.92218754866404
 10
28.390371383824665
 20
16.865915559301968
 10
27.932816039662427
 20
16.82267411206088
 10
27.475260695500193
 20
16.793082941001032
 10
27.017705351337955
 20
16.7775661451699
 10
26.56015000717572
 20
16.77634611043787
 10
26.102594663013484
 20
16.789440322276064
 10
25.64503931885125
 20
16.81666111515561
 10
25.187483974689016
 20
16.857618362159613
 10
24.72992863052678
 20
16.911725066260928
 10
24.272373286364544
 20
16.97820577313145
 10
23.81481794220231
 20
17.056107684911225
 10
23.357262598040073
 20
17.14431431565525
 10
22.89970725387784
 20
17.241561492749227
 10
22.442151909715605
 20
17.34645547496224
 10
21.984596565553367
 20
17.457492927470085
 10
21.52704122139113
 20
17.5730824675678
 10
21.069485877228896
 20
17.691567472279715
 10
20.611930533066662
 20
17.811249820989488
 10
20.154375188904424
 20
17.930414232811884
 10
19.69681984474219
 20
18.047352849904954
 10
19.239264500579957
 20
18.160389714395208
 10
18.78170915641772
 20
18.267904788114365
 10
18.324153812255485
 20
18.36835717089791
 10
17.86659846809325
 20
18.460307184682037
 10
17.409043123931013
 20
18.54243700689112
 10
16.951487779768776
 20
18.61356955739886
 10
16.493932435606542
 20
18.67268536837632
 10
16.036377091444308
 20
18.71893719524921
 10
15.578821747282074
 20
18.75166215936092
 10
15.121266403119836
 20
18.77039124831306
 10
14.663711058957603
 20
18.774856037825643
 10
14.206155714795365
 20
18.76499253877931
 10
13.748600370633131
 20
18.740942114303593
 10
13.291045026470897
 20
18.7030494537686
 10
12.83348968230866
 20
18.65185763271556
 10
12.375934338146426
 20
18.58810032952796
 10
11.918378993984188
 20
18.512691310392896
 10
11.460823649821954
 20
18.42671133325409
 10
11.00326830565972
 20
18.33139265844808
 10
10.545712961497482
 20
18.228101388016242
 10
10.088157617335249
 20
18.118317886805116
 10
10.088157617223164
 20
18.118317887260915
 10
9.796430946093004
 20
18.05575007441611
 10
9.501491765664603
 20
18.01069386839417
 10
9.204390285719484
 20
17.98330970385898
 10
8.906184415484532
 20
17.973695089447503
 10
8.607935996663418
 20
17.98188426056403
 10
8.310707022465447
 20
18.007848057476068
 10
8.015555856094856
 20
18.051494029145275
 10
7.723533462165779
 20
18.11266676242407
 10
7.435679664461823
 20
18.191148435445726
 10
7.153019443365579
 20
18.28665959323733
 10
6.8765592861420295
 20
18.398860142793907
 10
6.607283603071608
 20
18.52735056407046
 10
6.346151222194305
 20
18.671673332579857
 10
6.09409197514616
 20
18.831314548531097
 10
5.8520033862452046
 20
19.00570576670684
 10
5.620747476616227
 20
19.19422602056447
 10
5.401147694734188
 20
19.396204033353555
 10
5.193985984315809
 20
19.610920608376077
 10
5.0
 20
19.837611189878473
 10
5.0
 20
20.462611189878473
 10
5.0
 20
20.462611189878473
 10
5.0839733570774825
 20
20.467327032458527
 10
5.166890700467235
 20
20.481415255742107
 10
5.247709296466375
 20
20.504698692147187
 10
5.325412804338168
 20
20.53688453895164
 10
5.399024057386502
 20
20.57756804045725
 10
5.4676173513940505
 20
20.626237578027443
 10
5.530330085889911
 20
20.682281103988558
 10
5.586373611851023
 20
20.744993838484433
 10
5.6350431494212145
 20
20.813587132491975
 10
5.675726650926816
 20
20.887198385540287
 10
5.707912497731275
 20
20.96490189341209
 10
5.731195934136366
 20
21.045720489411238
 10
5.745284157419931
 20
21.128637832800976
 10
5.75
 20
21.212611189878473
 10
5.75
 20
23.775111189878473
  0
LWPOLYLINE
  5
31
330
17
100
AcDbEntity
  8
BRACKET_OUTLINE
 62
6
100
AcDbPolyline
 90
87
 70
1
 10
12.925
 20
23.775111189878473
 10
12.88762013756228
 20
23.730863262020776
 10
12.845373719622884
 20
23.691235324819203
 10
12.798827715625457
 20
23.656759206310383
 10
12.748606797749979
 20
23.627897594378496
 10
12.695384957479185
 20
23.60503782723724
 10
12.63987646027368
 20
23.588486695144596
 10
12.582826259748785
 20
23.57846632311403
 10
12.524999999999999
 20
23.575111189878456
 10
11.725000000000001
 20
23.575111189878456
 10
11.725000000000001
 20
19.928664580471732
 10
11.741475918044046
 20
19.91048620621602
 10
11.756090707778998
 20
19.89078044342999
 10
11.768703620790454
 20
19.8697370693816
 10
11.779193187831183
 20
19.84755874326639
 10
11.787458388636416
 20
19.824459054488713
 10
11.793419624804173
 20
19.800660465679144
 10
11.797019486371411
 20
19.776392170257495
 10
11.798223304703363
 20
19.751887885175094
 10
11.797019486371411
 20
19.727383600092722
 10
11.793419624804173
 20
19.703115304671073
 10
11.787458388636416
 20
19.679316715861475
 10
11.779193187831183
 20
19.656217027083827
 10
11.768703620790454
 20
19.634038700968617
 10
11.756090707778998
 20
19.6129953269202
 10
11.741475918044046
 20
19.593289564134196
 10
11.725000000000001
 20
19.575111189878456
 10
11.706821625744276
 20
19.558635271834405
 10
11.687115862958265
 20
19.54402048209947
 10
11.666072488909862
 20
19.531407569088017
 10
11.643894162794638
 20
19.52091800204728
 10
11.620794474016979
 20
19.512652801242055
 10
11.596995885207395
 20
19.50669156507429
 10
11.572727589785753
 20
19.503091703507053
 10
11.548223304703363
 20
19.501887885175094
 10
11.523719019620973
 20
19.503091703507053
 10
11.499450724199331
 20
19.50669156507429
 10
11.475652135389748
 20
19.512652801242055
 10
11.452552446612092
 20
19.52091800204728
 10
11.430374120496865
 20
19.531407569088017
 10
11.409330746448461
 20
19.54402048209947
 10
11.38962498366245
 20
19.558635271834405
 10
11.371446609406725
 20
19.575111189878456
 10
10.478553390593273
 20
19.575111189878456
 10
10.460375016337547
 20
19.558635271834405
 10
10.440669253551537
 20
19.54402048209947
 10
10.419625879503137
 20
19.531407569088017
 10
10.39744755338791
 20
19.52091800204728
 10
10.37434786461025
 20
19.512652801242055
 10
10.350549275800667
 20
19.50669156507429
 10
10.326280980379025
 20
19.503091703507053
 10
10.301776695296638
 20
19.501887885175094
 10
10.277272410214245
 20
19.503091703507053
 10
10.253004114792603
 20
19.50669156507429
 10
10.22920552598302
 20
19.512652801242055
 10
10.206105837205364
 20
19.52091800204728
 10
10.18392751109014
 20
19.531407569088017
 10
10.162884137041736
 20
19.54402048209947
 10
10.143178374255726
 20
19.558635271834405
 10
10.125
 20
19.575111189878456
 10
10.108524081955952
 20
19.593289564134196
 10
10.093909292221
 20
19.6129953269202
 10
10.081296379209547
 20
19.634038700968617
 10
10.070806812168815
 20
19.656217027083827
 10
10.062541611363585
 20
19.679316715861475
 10
10.056580375195828
 20
19.703115304671073
 10
10.052980513628587
 20
19.727383600092722
 10
10.051776695296638
 20
19.751887885175094
 10
10.052980513628587
 20
19.776392170257495
 10
10.056580375195828
 20
19.800660465679144
 10
10.062541611363585
 20
19.824459054488713
 10
10.070806812168815
 20
19.84755874326639
 10
10.081296379209547
 20
19.8697370693816
 10
10.093909292221
 20
19.89078044342999
 10
10.108524081955952
 20
19.91048620621602
 10
10.125
 20
19.928664580471732
 10
10.125
 20
23.575111189878456
 10
9.325
 20
23.575111189878456
 10
9.267173740251216
 20
23.57846632311403
 10
9.210123539726318
 20
23.588486695144596
 10
9.154615042520813
 20
23.60503782723724
 10
9.101393202250023
 20
23.627897594378496
 10
9.051172284374545
 20
23.656759206310383
 10
9.004626280377117
 20
23.691235324819203
 10
8.962379862437718
 20
23.730863262020776
 10
8.925
 20
23.775111189878473
 10
12.925
 20
23.775111189878473
  0
LWPOLYLINE
  5
32
330
17
100
AcDbEntity
  8
BRACKET_OUTLINE
 62
6
100
AcDbPolyline
 90
87
 70
1
 10
24.425
 20
23.775111189878473
 10
24.38762013756228
 20
23.730863262020776
 10
24.345373719622884
 20
23.691235324819203
 10
24.298827715625457
 20
23.656759206310383
 10
24.24860679774998
 20
23.627897594378496
 10
24.195384957479188
 20
23.60503782723724
 10
24.139876460273683
 20
23.588486695144596
 10
24.082826259748785
 20
23.57846632311403
 10
24.025000000000002
 20
23.575111189878456
 10
23.225
 20
23.575111189878456
 10
23.225
 20
19.928664580471732
 10
23.24147591804405
 20
19.91048620621602
 10
23.256090707779002
 20
19.89078044342999
 10
23.268703620790454
 20
19.8697370693816
 10
23.279193187831186
 20
19.84755874326639
 10
23.287458388636416
 20
19.824459054488713
 10
23.293419624804173
 20
19.800660465679144
 10
23.297019486371415
 20
19.776392170257495
 10
23.298223304703363
 20
19.751887885175094
 10
23.297019486371415
 20
19.727383600092722
 10
23.293419624804173
 20
19.703115304671073
 10
23.287458388636416
 20
19.679316715861475
 10
23.279193187831186
 20
19.656217027083827
 10
23.268703620790454
 20
19.634038700968617
 10
23.256090707779002
 20
19.6129953269202
 10
23.24147591804405
 20
19.593289564134196
 10
23.225
 20
19.575111189878456
 10
23.206821625744276
 20
19.558635271834405
 10
23.187115862958265
 20
19.54402048209947
 10
23.166072488909865
 20
19.531407569088017
 10
23.143894162794638
 20
19.52091800204728
 10
23.12079447401698
 20
19.512652801242055
 10
23.096995885207395
 20
19.50669156507429
 10
23.072727589785753
 20
19.503091703507053
 10
23.048223304703363
 20
19.501887885175094
 10
23.023719019620973
 20
19.503091703507053
 10
22.99945072419933
 20
19.50669156507429
 10
22.975652135389748
 20
19.512652801242055
 10
22.952552446612092
 20
19.52091800204728
 10
22.930374120496865
 20
19.531407569088017
 10
22.909330746448465
 20
19.54402048209947
 10
22.889624983662454
 20
19.558635271834405
 10
22.87144660940673
 20
19.575111189878456
 10
21.978553390593273
 20
19.575111189878456
 10
21.96037501633755
 20
19.558635271834405
 10
21.940669253551537
 20
19.54402048209947
 10
21.919625879503137
 20
19.531407569088017
 10
21.89744755338791
 20
19.52091800204728
 10
21.874347864610254
 20
19.512652801242055
 10
21.85054927580067
 20
19.50669156507429
 10
21.82628098037903
 20
19.503091703507053
 10
21.80177669529664
 20
19.501887885175094
 10
21.77727241021425
 20
19.503091703507053
 10
21.753004114792606
 20
19.50669156507429
 10
21.729205525983023
 20
19.512652801242055
 10
21.706105837205364
 20
19.52091800204728
 10
21.68392751109014
 20
19.531407569088017
 10
21.662884137041736
 20
19.54402048209947
 10
21.643178374255726
 20
19.558635271834405
 10
21.625
 20
19.575111189878456
 10
21.608524081955956
 20
19.593289564134196
 10
21.593909292221
 20
19.6129953269202
 10
21.581296379209547
 20
19.634038700968617
 10
21.57080681216882
 20
19.656217027083827
 10
21.562541611363585
 20
19.679316715861475
 10
21.55658037519583
 20
19.703115304671073
 10
21.55298051362859
 20
19.727383600092722
 10
21.55177669529664
 20
19.751887885175094
 10
21.55298051362859
 20
19.776392170257495
 10
21.55658037519583
 20
19.800660465679144
 10
21.562541611363585
 20
19.824459054488713
 10
21.57080681216882
 20
19.84755874326639
 10
21.581296379209547
 20
19.8697370693816
 10
21.593909292221
 20
19.89078044342999
 10
21.608524081955956
 20
19.91048620621602
 10
21.625
 20
19.928664580471732
 10
21.625
 20
23.575111189878456
 10
20.825000000000003
 20
23.575111189878456
 10
20.767173740251216
 20
23.57846632311403
 10
20.710123539726318
 20
23.588486695144596
 10
20.654615042520817
 20
23.60503782723724
 10
20.601393202250023
 20
23.627897594378496
 10
20.551172284374545
 20
23.656759206310383
 10
20.504626280377117
 20
23.691235324819203
 10
20.46237986243772
 20
23.730863262020776
 10
20.425
 20
23.775111189878473
 10
24.425
 20
23.775111189878473
  0
LWPOLYLINE
  5
33
330
17
100
AcDbEntity
  8
BRACKET_OUTLINE
 62
6
100
AcDbPolyline
 90
87
 70
1
 10
33.575
 20
23.775111189878473
 10
33.53762013756228
 20
23.730863262020776
 10
33.49537371962288
 20
23.691235324819203
 10
33.448827715625455
 20
23.656759206310383
 10
33.39860679774998
 20
23.627897594378496
 10
33.34538495747918
 20
23.60503782723724
 10
33.28987646027368
 20
23.588486695144596
 10
33.232826259748784
 20
23.57846632311403
 10
33.175
 20
23.575111189878456
 10
32.375
 20
23.575111189878456
 10
32.375
 20
19.928664580471732
 10
32.39147591804405
 20
19.91048620621602
 10
32.406090707779
 20
19.89078044342999
 10
32.41870362079045
 20
19.8697370693816
 10
32.42919318783119
 20
19.84755874326639
 10
32.437458388636415
 20
19.824459054488713
 10
32.44341962480417
 20
19.800660465679144
 10
32.44701948637142
 20
19.776392170257495
 10
32.44822330470336
 20
19.751887885175094
 10
32.44701948637142
 20
19.727383600092722
 10
32.44341962480417
 20
19.703115304671073
 10
32.437458388636415
 20
19.679316715861475
 10
32.42919318783119
 20
19.656217027083827
 10
32.41870362079045
 20
19.634038700968617
 10
32.406090707779
 20
19.6129953269202
 10
32.39147591804405
 20
19.593289564134196
 10
32.375
 20
19.575111189878456
 10
32.356821625744274
 20
19.558635271834405
 10
32.337115862958264
 20
19.54402048209947
 10
32.31607248890987
 20
19.531407569088017
 10
32.293894162794636
 20
19.52091800204728
 10
32.27079447401698
 20
19.512652801242055
 10
32.2469958852074
 20
19.50669156507429
 10
32.22272758978575
 20
19.503091703507053
 10
32.19822330470336
 20
19.501887885175094
 10
32.173719019620975
 20
19.503091703507053
 10
32.149450724199326
 20
19.50669156507429
 10
32.12565213538974
 20
19.512652801242055
 10
32.102552446612094
 20
19.52091800204728
 10
32.08037412049686
 20
19.531407569088017
 10
32.05933074644847
 20
19.54402048209947
 10
32.03962498366245
 20
19.558635271834405
 10
32.02144660940672
 20
19.575111189878456
 10
31.12855339059327
 20
19.575111189878456
 10
31.11037501633755
 20
19.558635271834405
 10
31.090669253551535
 20
19.54402048209947
 10
31.069625879503135
 20
19.531407569088017
 10
31.047447553387908
 20
19.52091800204728
 10
31.024347864610252
 20
19.512652801242055
 10
31.00054927580067
 20
19.50669156507429
 10
30.976280980379027
 20
19.503091703507053
 10
30.951776695296637
 20
19.501887885175094
 10
30.927272410214247
 20
19.503091703507053
 10
30.903004114792605
 20
19.50669156507429
 10
30.87920552598302
 20
19.512652801242055
 10
30.856105837205362
 20
19.52091800204728
 10
30.83392751109014
 20
19.531407569088017
 10
30.812884137041735
 20
19.54402048209947
 10
30.793178374255724
 20
19.558635271834405
 10
30.775
 20
19.575111189878456
 10
30.75852408195595
 20
19.593289564134196
 10
30.743909292221
 20
19.6129953269202
 10
30.731296379209546
 20
19.634038700968617
 10
30.720806812168814
 20
19.656217027083827
 10
30.712541611363584
 20
19.679316715861475
 10
30.706580375195827
 20
19.703115304671073
 10
30.70298051362859
 20
19.727383600092722
 10
30.701776695296637
 20
19.751887885175094
 10
30.70298051362859
 20
19.776392170257495
 10
30.706580375195827
 20
19.800660465679144
 10
30.712541611363584
 20
19.824459054488713
 10
30.720806812168814
 20
19.84755874326639
 10
30.731296379209546
 20
19.8697370693816
 10
30.743909292221
 20
19.89078044342999
 10
30.75852408195595
 20
19.91048620621602
 10
30.775
 20
19.928664580471732
 10
30.775
 20
23.575111189878456
 10
29.974999999999998
 20
23.575111189878456
 10
29.917173740251215
 20
23.57846632311403
 10
29.86012353972632
 20
23.588486695144596
 10
29.804615042520812
 20
23.60503782723724
 10
29.75139320225002
 20
23.627897594378496
 10
29.701172284374543
 20
23.656759206310383
 10
29.654626280377116
 20
23.691235324819203
 10
29.61237986243772
 20
23.730863262020776
 10
29.575
 20
23.775111189878473
 10
33.575
 20
23.775111189878473
  0
LINE
  5
34
330
17
100
AcDbEntity
  8
BRACKET_CUT_LINE
 62
4
100
AcDbLine
 10
10.125
 20
23.575111189878456
 30
0.0
 11
11.725000000000001
 21
23.575111189878456
 31
0.0
  0
LINE
  5
35
330
17
100
AcDbEntity
  8
BRACKET_CUT_LINE
 62
4
100
AcDbLine
 10
21.625
 20
23.575111189878456
 30
0.0
 11
23.225
 21
23.575111189878456
 31
0.0
  0
LINE
  5
36
330
17
100
AcDbEntity
  8
BRACKET_CUT_LINE
 62
4
100
AcDbLine
 10
30.775
 20
23.575111189878456
 30
0.0
 11
32.375
 21
23.575111189878456
 31
0.0
  0
LWPOLYLINE
  5
37
330
17
100
AcDbEntity
  8
SHELF_R
 62
3
100
AcDbPolyline
 90
110
 70
1
 10
29.0
 20
24.22511118987846
 10
0.0
 20
24.22511118987846
 10
0.0
 20
26.65640254647512
 10
0.0
 20
26.65640254647512
 10
0.007795489012238477
 20
26.872532517614005
 10
0.031141442949664366
 20
27.087539262876064
 10
0.06991653306067036
 20
27.30030539378113
 10
0.1239192454859932
 20
27.509725166305472
 10
0.1928689285247316
 20
27.71471022742527
 10
0.2764072511792044
 20
27.914195271279468
 10
0.37410006539850826
 20
28.107143575556435
 10
0.48543966234276326
 20
28.292552389332158
 10
0.6098474109422298
 20
28.46945814435965
 10
0.746676765038746
 20
28.636941462725886
 10
0.895216623481371
 20
28.794131934852132
 10
1.0546950257138583
 20
28.940212643006262
 10
1.224283163648014
 20
29.07442440681801
 10
1.4030996889732563
 20
29.196069728733974
 10
1.590215293517332
 20
29.304516418907255
 10
1.7846575388540842
 20
29.39920088068341
 10
1.9854159100588085
 20
29.47963103960815
 10
2.1914470673469566
 20
29.54538890073472
 10
2.4016802683033127
 20
29.59613272094053
 10
2.401680268303352
 20
29.596132720940332
 10
2.8739819463389793
 20
29.696817023674512
 10
3.346283624374607
 20
29.80556807740028
 10
3.8185853024102343
 20
29.920725315473916
 10
4.290886980445862
 20
30.04053035246575
 10
4.763188658481489
 20
30.163153833704158
 10
5.235490336517117
 20
30.286723368479258
 10
5.707792014552744
 20
30.409352120382593
 10
6.180093692588372
 20
30.529167618224236
 10
6.652395370623999
 20
30.64434034760133
 10
7.124697048659627
 20
30.753111686540834
 10
7.596998726695254
 20
30.853820758655374
 10
8.069300404730882
 20
30.944929793779536
 10
8.54160208276651
 20
31.025047608844417
 10
9.01390376080214
 20
31.092950850450578
 10
9.486205438837768
 20
31.147602674777644
 10
9.958507116873395
 20
31.188168579598923
 10
10.430808794909023
 20
31.214029146654823
 10
10.90311047294465
 20
31.224789499817106
 10
11.375412150980278
 20
31.22028533462229
 10
11.847713829015905
 20
31.200585427107214
 10
12.320015507051533
 20
31.16599058363822
 10
12.79231718508716
 20
31.11702904776918
 10
13.264618863122788
 20
31.05444843426342
 10
13.736920541158415
 20
30.979204313442054
 10
14.209222219194043
 20
30.892445620169596
 10
14.68152389722967
 20
30.795497110272848
 10
15.1538255752653
 20
30.689839132274287
 10
15.626127253300927
 20
30.577085023313188
 10
16.098428931336557
 20
30.458956474406463
 10
16.570730609372184
 20
30.337257241207666
 10
17.04303228740781
 20
30.213845601685605
 10
17.51533396544344
 20
30.09060598127816
 10
17.987635643479067
 20
29.96942017878932
 10
18.459937321514694
 20
29.85213863239339
 10
18.93223899955032
 20
29.740552164498055
 10
19.40454067758595
 20
29.636364636906293
 10
19.876842355621577
 20
29.54116693381725
 10
20.349144033657204
 20
29.456412669930685
 10
20.82144571169283
 20
29.38339599457855
 10
21.29374738972846
 20
29.32323183080176
 10
21.766049067764087
 20
29.276838851110526
 10
22.238350745799714
 20
29.244925449878437
 10
22.71065242383534
 20
29.227978926563864
 10
23.18295410187097
 20
29.226258044924705
 10
23.655255779906597
 20
29.239789081843398
 10
24.127557457942224
 20
29.268365426093666
 10
24.59985913597785
 20
29.311550733176475
 10
25.07216081401348
 20
29.368685588051832
 10
25.544462492049107
 20
29.43889757403086
 10
25.544462492076335
 20
29.438897573862548
 10
25.781705998899696
 20
29.47146976852217
 10
26.020236968297027
 20
29.49264536847018
 10
26.25950825383376
 20
29.50237580075178
 10
26.498971010925466
 20
29.50063874553426
 10
26.738075955786957
 20
29.487438187304704
 10
26.976274625388896
 20
29.462804405730324
 10
27.213020635531702
 20
29.426793906202406
 10
27.447770934151006
 20
29.379489290223248
 10
27.679987046979818
 20
29.320999065933464
 10
27.909136312710025
 20
29.251457399214203
 10
28.134693104820087
 20
29.17102380593498
 10
28.35614003726614
 20
29.079882786053574
 10
28.57296915127101
 20
28.97824340040681
 10
28.784683080488787
 20
28.866338791163216
 10
28.990796191872274
 20
28.744425647037545
 10
29.190835699626422
 20
28.612783614493722
 10
29.38434274969251
 20
28.47171465628709
 10
29.570873472275462
 20
28.3215423588169
 10
29.75
 20
28.16261118987846
 10
29.75
 20
27.53761118987846
 10
29.75
 20
27.53761118987846
 10
29.666026642922517
 20
27.532895347298407
 10
29.583109299532765
 20
27.518807124014828
 10
29.502290703533625
 20
27.495523687609747
 10
29.424587195661832
 20
27.463337840805295
 10
29.3509759426135
 20
27.422654339299683
 10
29.28238264860595
 20
27.373984801729492
 10
29.21966991411009
 20
27.317941275768376
 10
29.163626388148977
 20
27.2552285412725
 10
29.114956850578785
 20
27.18663524726496
 10
29.074273349073184
 20
27.113023994216647
 10
29.042087502268725
 20
27.035320486344844
 10
29.018804065863634
 20
26.954501890345696
 10
29.00471584258007
 20
26.871584546955958
 10
29.0
 20
26.78761118987846
 10
29.0
 20
24.22511118987846
  0
LWPOLYLINE
  5
38
330
17
100
AcDbEntity
  8
BRACKET_OUTLINE
 62
6
100
AcDbPolyline
 90
87
 70
1
 10
21.825
 20
24.22511118987846
 10
21.86237986243772
 20
24.26935911773616
 10
21.904626280377116
 20
24.30898705493773
 10
21.951172284374543
 20
24.34346317344655
 10
22.00139320225002
 20
24.37232478537844
 10
22.054615042520815
 20
24.395184552519694
 10
22.11012353972632
 20
24.41173568461234
 10
22.167173740251215
 20
24.421756056642906
 10
22.225
 20
24.42511118987848
 10
23.025
 20
24.42511118987848
 10
23.025
 20
28.071557799285202
 10
23.008524081955954
 20
28.089736173540913
 10
22.993909292221
 20
28.109441936326945
 10
22.981296379209546
 20
28.130485310375335
 10
22.970806812168817
 20
28.152663636490544
 10
22.962541611363584
 20
28.17576332526822
 10
22.956580375195827
 20
28.19956191407779
 10
22.95298051362859
 20
28.22383020949944
 10
22.951776695296637
 20
28.24833449458184
 10
22.95298051362859
 20
28.272838779664212
 10
22.956580375195827
 20
28.29710707508586
 10
22.962541611363584
 20
28.32090566389546
 10
22.970806812168817
 20
28.344005352673108
 10
22.981296379209546
 20
28.366183678788317
 10
22.993909292221
 20
28.387227052836735
 10
23.008524081955954
 20
28.40693281562274
 10
23.025
 20
28.42511118987848
 10
23.043178374255724
 20
28.44158710792253
 10
23.062884137041735
 20
28.456201897657465
 10
23.08392751109014
 20
28.468814810668917
 10
23.106105837205362
 20
28.479304377709653
 10
23.12920552598302
 20
28.48756957851488
 10
23.153004114792605
 20
28.493530814682643
 10
23.177272410214247
 20
28.49713067624988
 10
23.201776695296637
 20
28.49833449458184
 10
23.226280980379027
 20
28.49713067624988
 10
23.25054927580067
 20
28.493530814682643
 10
23.274347864610252
 20
28.48756957851488
 10
23.297447553387908
 20
28.479304377709653
 10
23.319625879503135
 20
28.468814810668917
 10
23.34066925355154
 20
28.456201897657465
 10
23.36037501633755
 20
28.44158710792253
 10
23.378553390593275
 20
28.42511118987848
 10
24.271446609406727
 20
28.42511118987848
 10
24.289624983662453
 20
28.44158710792253
 10
24.309330746448463
 20
28.456201897657465
 10
24.330374120496863
 20
28.468814810668917
 10
24.35255244661209
 20
28.479304377709653
 10
24.37565213538975
 20
28.48756957851488
 10
24.399450724199333
 20
28.493530814682643
 10
24.423719019620975
 20
28.49713067624988
 10
24.44822330470336
 20
28.49833449458184
 10
24.472727589785755
 20
28.49713067624988
 10
24.496995885207397
 20
28.493530814682643
 10
24.52079447401698
 20
28.48756957851488
 10
24.543894162794636
 20
28.479304377709653
 10
24.56607248890986
 20
28.468814810668917
 10
24.587115862958264
 20
28.456201897657465
 10
24.606821625744274
 20
28.44158710792253
 10
24.625
 20
28.42511118987848
 10
24.641475918044048
 20
28.40693281562274
 10
24.656090707779
 20
28.387227052836735
 10
24.668703620790453
 20
28.366183678788317
 10
24.679193187831185
 20
28.344005352673108
 10
24.687458388636415
 20
28.32090566389546
 10
24.69341962480417
 20
28.29710707508586
 10
24.697019486371413
 20
28.272838779664212
 10
24.69822330470336
 20
28.24833449458184
 10
24.697019486371413
 20
28.22383020949944
 10
24.69341962480417
 20
28.19956191407779
 10
24.687458388636415
 20
28.17576332526822
 10
24.679193187831185
 20
28.152663636490544
 10
24.668703620790453
 20
28.130485310375335
 10
24.656090707779
 20
28.109441936326945
 10
24.641475918044048
 20
28.089736173540913
 10
24.625
 20
28.071557799285202
 10
24.625
 20
24.42511118987848
 10
25.425
 20
24.42511118987848
 10
25.482826259748784
 20
24.421756056642906
 10
25.539876460273682
 20
24.41173568461234
 10
25.595384957479187
 20
24.395184552519694
 10
25.648606797749977
 20
24.37232478537844
 10
25.698827715625455
 20
24.34346317344655
 10
25.745373719622883
 20
24.30898705493773
 10
25.787620137562282
 20
24.26935911773616
 10
25.825
 20
24.22511118987846
 10
21.825
 20
24.22511118987846
  0
LWPOLYLINE
  5
39
330
17
100
AcDbEntity
  8
BRACKET_OUTLINE
 62
6
100
AcDbPolyline
 90
87
 70
1
 10
10.325
 20
24.22511118987846
 10
10.36237986243772
 20
24.26935911773616
 10
10.404626280377116
 20
24.30898705493773
 10
10.451172284374543
 20
24.34346317344655
 10
10.501393202250021
 20
24.37232478537844
 10
10.554615042520812
 20
24.395184552519694
 10
10.610123539726317
 20
24.41173568461234
 10
10.667173740251215
 20
24.421756056642906
 10
10.724999999999998
 20
24.42511118987848
 10
11.524999999999999
 20
24.42511118987848
 10
11.524999999999999
 20
28.071557799285202
 10
11.508524081955951
 20
28.089736173540913
 10
11.493909292220998
 20
28.109441936326945
 10
11.481296379209546
 20
28.130485310375335
 10
11.470806812168814
 20
28.152663636490544
 10
11.462541611363584
 20
28.17576332526822
 10
11.456580375195827
 20
28.19956191407779
 10
11.452980513628585
 20
28.22383020949944
 10
11.451776695296637
 20
28.24833449458184
 10
11.452980513628585
 20
28.272838779664212
 10
11.456580375195827
 20
28.29710707508586
 10
11.462541611363584
 20
28.32090566389546
 10
11.470806812168814
 20
28.344005352673108
 10
11.481296379209546
 20
28.366183678788317
 10
11.493909292220998
 20
28.387227052836735
 10
11.508524081955951
 20
28.40693281562274
 10
11.524999999999999
 20
28.42511118987848
 10
11.543178374255724
 20
28.44158710792253
 10
11.562884137041735
 20
28.456201897657465
 10
11.583927511090135
 20
28.468814810668917
 10
11.606105837205362
 20
28.479304377709653
 10
11.629205525983021
 20
28.48756957851488
 10
11.653004114792605
 20
28.493530814682643
 10
11.677272410214247
 20
28.49713067624988
 10
11.701776695296637
 20
28.49833449458184
 10
11.726280980379027
 20
28.49713067624988
 10
11.750549275800669
 20
28.493530814682643
 10
11.774347864610252
 20
28.48756957851488
 10
11.797447553387908
 20
28.479304377709653
 10
11.819625879503135
 20
28.468814810668917
 10
11.840669253551535
 20
28.456201897657465
 10
11.860375016337546
 20
28.44158710792253
 10
11.878553390593272
 20
28.42511118987848
 10
12.771446609406727
 20
28.42511118987848
 10
12.78962498366245
 20
28.44158710792253
 10
12.809330746448463
 20
28.456201897657465
 10
12.830374120496863
 20
28.468814810668917
 10
12.85255244661209
 20
28.479304377709653
 10
12.875652135389746
 20
28.48756957851488
 10
12.89945072419933
 20
28.493530814682643
 10
12.923719019620972
 20
28.49713067624988
 10
12.948223304703362
 20
28.49833449458184
 10
12.972727589785752
 20
28.49713067624988
 10
12.996995885207394
 20
28.493530814682643
 10
13.020794474016977
 20
28.48756957851488
 10
13.043894162794636
 20
28.479304377709653
 10
13.06607248890986
 20
28.468814810668917
 10
13.087115862958264
 20
28.456201897657465
 10
13.106821625744274
 20
28.44158710792253
 10
13.125
 20
28.42511118987848
 10
13.141475918044044
 20
28.40693281562274
 10
13.156090707779
 20
28.387227052836735
 10
13.168703620790453
 20
28.366183678788317
 10
13.179193187831181
 20
28.344005352673108
 10
13.187458388636415
 20
28.32090566389546
 10
13.193419624804172
 20
28.29710707508586
 10
13.19701948637141
 20
28.272838779664212
 10
13.198223304703362
 20
28.24833449458184
 10
13.19701948637141
 20
28.22383020949944
 10
13.193419624804172
 20
28.19956191407779
 10
13.187458388636415
 20
28.17576332526822
 10
13.179193187831181
 20
28.152663636490544
 10
13.168703620790453
 20
28.130485310375335
 10
13.156090707779
 20
28.109441936326945
 10
13.141475918044044
 20
28.089736173540913
 10
13.125
 20
28.071557799285202
 10
13.125
 20
24.42511118987848
 10
13.924999999999999
 20
24.42511118987848
 10
13.982826259748782
 20
24.421756056642906
 10
14.03987646027368
 20
24.41173568461234
 10
14.095384957479185
 20
24.395184552519694
 10
14.148606797749979
 20
24.37232478537844
 10
14.198827715625457
 20
24.34346317344655
 10
14.245373719622883
 20
24.30898705493773
 10
14.28762013756228
 20
24.26935911773616
 10
14.325
 20
24.22511118987846
 10
10.325
 20
24.22511118987846
  0
LWPOLYLINE
  5
3A
330
17
100
AcDbEntity
  8
BRACKET_OUTLINE
 62
6
100
AcDbPolyline
 90
87
 70
1
 10
1.1750000000000007
 20
24.22511118987846
 10
1.2123798624377216
 20
24.26935911773616
 10
1.254626280377117
 20
24.30898705493773
 10
1.3011722843745446
 20
24.34346317344655
 10
1.3513932022500228
 20
24.37232478537844
 10
1.4046150425208133
 20
24.395184552519694
 10
1.4601235397263181
 20
24.41173568461234
 10
1.5171737402512164
 20
24.421756056642906
 10
1.5749999999999993
 20
24.42511118987848
 10
2.375
 20
24.42511118987848
 10
2.375
 20
28.071557799285202
 10
2.3585240819559523
 20
28.089736173540913
 10
2.3439092922209994
 20
28.109441936326945
 10
2.3312963792095474
 20
28.130485310375335
 10
2.320806812168815
 20
28.152663636490544
 10
2.312541611363585
 20
28.17576332526822
 10
2.3065803751958285
 20
28.19956191407779
 10
2.3029805136285866
 20
28.22383020949944
 10
2.3017766952966383
 20
28.24833449458184
 10
2.3029805136285866
 20
28.272838779664212
 10
2.3065803751958285
 20
28.29710707508586
 10
2.312541611363585
 20
28.32090566389546
 10
2.320806812168815
 20
28.344005352673108
 10
2.3312963792095474
 20
28.366183678788317
 10
2.3439092922209994
 20
28.387227052836735
 10
2.3585240819559523
 20
28.40693281562274
 10
2.375
 20
28.42511118987848
 10
2.3931783742557258
 20
28.44158710792253
 10
2.412884137041736
 20
28.456201897657465
 10
2.433927511090136
 20
28.468814810668917
 10
2.4561058372053637
 20
28.479304377709653
 10
2.479205525983023
 20
28.48756957851488
 10
2.5030041147926063
 20
28.493530814682643
 10
2.5272724102142483
 20
28.49713067624988
 10
2.5517766952966383
 20
28.49833449458184
 10
2.5762809803790283
 20
28.49713067624988
 10
2.6005492758006703
 20
28.493530814682643
 10
2.624347864610254
 20
28.48756957851488
 10
2.6474475533879094
 20
28.479304377709653
 10
2.669625879503137
 20
28.468814810668917
 10
2.690669253551537
 20
28.456201897657465
 10
2.7103750163375473
 20
28.44158710792253
 10
2.728553390593273
 20
28.42511118987848
 10
3.6214466094067284
 20
28.42511118987848
 10
3.6396249836624506
 20
28.44158710792253
 10
3.6593307464484646
 20
28.456201897657465
 10
3.6803741204968645
 20
28.468814810668917
 10
3.702552446612092
 20
28.479304377709653
 10
3.7256521353897476
 20
28.48756957851488
 10
3.749450724199331
 20
28.493530814682643
 10
3.773719019620973
 20
28.49713067624988
 10
3.798223304703363
 20
28.49833449458184
 10
3.822727589785753
 20
28.49713067624988
 10
3.846995885207395
 20
28.493530814682643
 10
3.8707944740169786
 20
28.48756957851488
 10
3.8938941627946377
 20
28.479304377709653
 10
3.9160724889098617
 20
28.468814810668917
 10
3.937115862958265
 20
28.456201897657465
 10
3.9568216257442757
 20
28.44158710792253
 10
3.9750000000000014
 20
28.42511118987848
 10
3.991475918044049
 20
28.40693281562274
 10
4.0060907077789984
 20
28.387227052836735
 10
4.018703620790454
 20
28.366183678788317
 10
4.029193187831186
 20
28.344005352673108
 10
4.037458388636416
 20
28.32090566389546
 10
4.043419624804173
 20
28.29710707508586
 10
4.047019486371411
 20
28.272838779664212
 10
4.048223304703363
 20
28.24833449458184
 10
4.047019486371411
 20
28.22383020949944
 10
4.043419624804173
 20
28.19956191407779
 10
4.037458388636416
 20
28.17576332526822
 10
4.029193187831186
 20
28.152663636490544
 10
4.018703620790454
 20
28.130485310375335
 10
4.0060907077789984
 20
28.109441936326945
 10
3.991475918044049
 20
28.089736173540913
 10
3.9750000000000014
 20
28.071557799285202
 10
3.9750000000000014
 20
24.42511118987848
 10
4.775000000000002
 20
24.42511118987848
 10
4.832826259748785
 20
24.421756056642906
 10
4.88987646027368
 20
24.41173568461234
 10
4.945384957479188
 20
24.395184552519694
 10
4.998606797749979
 20
24.37232478537844
 10
5.048827715625457
 20
24.34346317344655
 10
5.095373719622884
 20
24.30898705493773
 10
5.13762013756228
 20
24.26935911773616
 10
5.175000000000001
 20
24.22511118987846
 10
1.1750000000000007
 20
24.22511118987846
  0
LINE
  5
3B
330
17
100
AcDbEntity
  8
BRACKET_CUT_LINE
 62
4
100
AcDbLine
 10
24.625
 20
24.42511118987848
 30
0.0
 11
23.025
 21
24.42511118987848
 31
0.0
  0
LINE
  5
3C
330
17
100
AcDbEntity
  8
BRACKET_CUT_LINE
 62
4
100
AcDbLine
 10
13.125
 20
24.42511118987848
 30
0.0
 11
11.524999999999999
 21
24.42511118987848
 31
0.0
  0
LINE
  5
3D
330
17
100
AcDbEntity
  8
BRACKET_CUT_LINE
 62
4
100
AcDbLine
 10
3.9750000000000014
 20
24.42511118987848
 30
0.0
 11
2.375
 21
24.42511118987848
 31
0.0
  0
LWPOLYLINE
  5
3E
330
17
100
AcDbEntity
  8
SHELF_R
 62
3
100
AcDbPolyline
 90
110
 70
1
 10
40.8
 20
23.775066317893206
 10
69.80000000000001
 20
23.775066317893206
 10
69.80000000000001
 20
21.746730418007232
 10
69.80000000000001
 20
21.746730418007232
 10
69.79047611809108
 20
21.507873584052234
 10
69.76196494191535
 20
21.270533312950406
 10
69.71464749618947
 20
21.036216538511198
 10
69.64882421142367
 20
20.80641099759397
 10
69.56491301641194
 20
20.582575784087894
 10
69.46344668469567
 20
20.366132084753232
 10
69.34506945184889
 20
20.15845415574499
 10
69.21053292506247
 20
19.960860597110454
 10
69.06069131099878
 20
19.77460598066189
 10
68.89649599221607
 20
19.60087288438065
 10
68.71898948659843
 20
19.44076438392851
 10
68.52929882814422
 20
19.295297048939446
 10
68.32862841114033
 20
19.165394488560125
 10
68.11825234315623
 20
19.05188148722037
 10
67.89950635541051
 20
18.95547876786675
 10
67.67377932187343
 20
18.876798415909192
 10
67.44250444095235
 20
18.816339992934743
 10
67.2071501357502
 20
18.77448736486393
 10
66.96921073067332
 20
18.751506264688302
 10
66.96921073067338
 20
18.75150626468745
 10
66.48641307154647
 20
18.716514480523173
 10
66.00361541241956
 20
18.666502150697184
 10
65.52081775329265
 20
18.602267208132062
 10
65.03802009416573
 20
18.52483450361207
 10
64.55522243503881
 20
18.43543945457192
 10
64.07242477591191
 20
18.335508334352298
 10
63.58962711678498
 20
18.226635516402453
 10
63.10682945765807
 20
18.110558036491497
 10
62.62403179853116
 20
17.989127878782327
 10
62.14123413940425
 20
17.86428242793498
 10
61.65843648027734
 20
17.738013558669294
 10
61.17563882115043
 20
17.61233585595305
 10
60.69284116202351
 20
17.489254472854967
 10
60.2100435028966
 20
17.370733138880624
 10
59.727245843769694
 20
17.25866282921008
 10
59.24444818464278
 20
17.15483159471067
 10
58.76165052551587
 20
17.06089603407871
 10
58.27885286638896
 20
16.978354863264585
 10
57.79605520726204
 20
16.90852500387301
 10
57.313257548135134
 20
16.852520572042565
 10
56.830459889008225
 20
16.81123510302983
 10
56.34766222988131
 20
16.785327295101
 10
55.8648645707544
 20
16.775210500182894
 10
55.38206691162749
 20
16.781046128946898
 10
54.899269252500574
 20
16.80274107554628
 10
54.416471593373664
 20
16.83994920309435
 10
53.933673934246755
 20
16.892076866182848
 10
53.45087627511984
 20
16.958292382330782
 10
52.96807861599293
 20
17.037539301248827
 10
52.48528095686602
 20
17.128553260212144
 10
52.002483297739104
 20
17.22988215661887
 10
51.519685638612195
 20
17.339909315886516
 10
51.036887979485286
 20
17.45687928504863
 10
50.55409032035837
 20
17.578925840522672
 10
50.07129266123146
 20
17.70410176319224
 10
49.58849500210455
 20
17.830409905750898
 10
49.105697342977635
 20
17.95583505663619
 10
48.622899683850726
 20
18.078376092174196
 10
48.14010202472382
 20
18.19607790395561
 10
47.6573043655969
 20
18.307062592050826
 10
47.17450670646999
 20
18.409559426385144
 10
46.69170904734308
 20
18.501933098248728
 10
46.208911388216166
 20
18.5827098111955
 10
45.726113729089256
 20
18.650600795059106
 10
45.24331606996235
 20
18.70452286792512
 10
44.76051841083543
 20
18.74361571799959
 10
44.27772075170852
 20
18.7672556296465
 10
43.79492309258161
 20
18.775065434598403
 10
43.312125433454696
 20
18.76692052957229
 10
43.312125433479956
 20
18.766920528814765
 10
43.12770204288765
 20
18.76417430187145
 10
42.94330284453878
 20
18.768231937670535
 10
42.7591787653866
 20
18.779087914657723
 10
42.57558035800735
 20
18.796727460224147
 10
42.39275745965305
 20
18.821126570808687
 10
42.21095885227763
 20
18.85225204456158
 10
42.030431923999174
 20
18.89006152652486
 10
41.85142233245883
 20
18.934503566268162
 10
41.6741736705345
 20
18.985517687901492
 10
41.498927134864275
 20
19.04303447236977
 10
41.325921197630564
 20
19.106975651916812
 10
41.15539128205165
 20
19.17725421659081
 10
40.98756944202225
 20
19.253774532645636
 10
40.822684046338885
 20
19.336432472677572
 10
40.66095946793999
 20
19.425115557319927
 10
40.50261577858339
 20
19.519703108302778
 10
40.34786844937687
 20
19.6200664126696
 10
40.19692805756907
 20
19.726068897927703
 10
40.05
 20
19.837566317893206
 10
40.05
 20
20.462566317893206
 10
40.05
 20
20.462566317893206
 10
40.13397335707748
 20
20.46728216047329
 10
40.21689070046723
 20
20.481370383756868
 10
40.29770929646637
 20
20.50465382016195
 10
40.37541280433817
 20
20.5368396669664
 10
40.449024057386495
 20
20.577523168472013
 10
40.51761735139405
 20
20.626192706042204
 10
40.58033008588991
 20
20.68223623200332
 10
40.63637361185102
 20
20.744948966499166
 10
40.68504314942121
 20
20.813542260506708
 10
40.725726650926816
 20
20.88715351355505
 10
40.75791249773127
 20
20.96485702142685
 10
40.78119593413636
 20
21.045675617426
 10
40.79528415741993
 20
21.128592960815737
 10
40.8
 20
21.212566317893206
 10
40.8
 20
23.775066317893206
  0
LWPOLYLINE
  5
3F
330
17
100
AcDbEntity
  8
BRACKET_OUTLINE
 62
6
100
AcDbPolyline
 90
87
 70
1
 10
47.974999999999994
 20
23.775066317893206
 10
47.93762013756228
 20
23.730818390035537
 10
47.89537371962288
 20
23.691190452833965
 10
47.848827715625454
 20
23.656714334325144
 10
47.798606797749976
 20
23.627852722393257
 10
47.74538495747918
 20
23.604992955252
 10
47.68987646027368
 20
23.588441823159357
 10
47.63282625974878
 20
23.57842145112879
 10
47.574999999999996
 20
23.575066317893217
 10
46.775
 20
23.575066317893217
 10
46.775
 20
19.928619708486494
 10
46.79147591804404
 20
19.910441334230754
 10
46.80609070777899
 20
19.89073557144475
 10
46.81870362079045
 20
19.86969219739636
 10
46.82919318783118
 20
19.847513871281123
 10
46.83745838863641
 20
19.824414182503475
 10
46.84341962480417
 20
19.800615593693905
 10
46.84701948637141
 20
19.776347298272256
 10
46.84822330470336
 20
19.751843013189855
 10
46.84701948637141
 20
19.727338728107483
 10
46.84341962480417
 20
19.703070432685834
 10
46.83745838863641
 20
19.679271843876236
 10
46.82919318783118
 20
19.656172155098588
 10
46.81870362079045
 20
19.63399382898335
 10
46.80609070777899
 20
19.61295045493496
 10
46.79147591804404
 20
19.593244692148957
 10
46.775
 20
19.575066317893217
 10
46.75682162574427
 20
19.558590399849166
 10
46.73711586295826
 20
19.543975610114202
 10
46.71607248890986
 20
19.53136269710278
 10
46.693894162794635
 20
19.520873130062043
 10
46.67079447401697
 20
19.512607929256816
 10
46.64699588520739
 20
19.506646693089053
 10
46.622727589785754
 20
19.503046831521814
 10
46.59822330470336
 20
19.501843013189855
 10
46.57371901962097
 20
19.503046831521814
 10
46.54945072419933
 20
19.506646693089053
 10
46.52565213538975
 20
19.512607929256816
 10
46.502552446612086
 20
19.520873130062043
 10
46.48037412049686
 20
19.53136269710278
 10
46.45933074644846
 20
19.543975610114202
 10
46.43962498366245
 20
19.558590399849166
 10
46.42144660940672
 20
19.575066317893217
 10
45.528553390593274
 20
19.575066317893217
 10
45.51037501633755
 20
19.558590399849166
 10
45.49066925355153
 20
19.543975610114202
 10
45.469625879503134
 20
19.53136269710278
 10
45.4474475533879
 20
19.520873130062043
 10
45.42434786461025
 20
19.512607929256816
 10
45.400549275800664
 20
19.506646693089053
 10
45.37628098037902
 20
19.503046831521814
 10
45.351776695296635
 20
19.501843013189855
 10
45.32727241021424
 20
19.503046831521814
 10
45.3030041147926
 20
19.506646693089053
 10
45.279205525983016
 20
19.512607929256816
 10
45.25610583720536
 20
19.520873130062043
 10
45.23392751109014
 20
19.53136269710278
 10
45.21288413704173
 20
19.543975610114202
 10
45.19317837425572
 20
19.558590399849166
 10
45.175
 20
19.575066317893217
 10
45.158524081955946
 20
19.593244692148957
 10
45.143909292221
 20
19.61295045493496
 10
45.131296379209545
 20
19.63399382898335
 10
45.12080681216881
 20
19.656172155098588
 10
45.11254161136358
 20
19.679271843876236
 10
45.106580375195826
 20
19.703070432685834
 10
45.10298051362858
 20
19.727338728107483
 10
45.101776695296635
 20
19.751843013189855
 10
45.10298051362858
 20
19.776347298272256
 10
45.106580375195826
 20
19.800615593693905
 10
45.11254161136358
 20
19.824414182503475
 10
45.12080681216881
 20
19.847513871281123
 10
45.131296379209545
 20
19.86969219739636
 10
45.143909292221
 20
19.89073557144475
 10
45.158524081955946
 20
19.910441334230754
 10
45.175
 20
19.928619708486494
 10
45.175
 20
23.575066317893217
 10
44.375
 20
23.575066317893217
 10
44.317173740251214
 20
23.57842145112879
 10
44.260123539726315
 20
23.588441823159357
 10
44.204615042520814
 20
23.604992955252
 10
44.15139320225002
 20
23.627852722393257
 10
44.10117228437454
 20
23.656714334325144
 10
44.054626280377114
 20
23.691190452833965
 10
44.01237986243771
 20
23.730818390035537
 10
43.974999999999994
 20
23.775066317893206
 10
47.974999999999994
 20
23.775066317893206
  0
LWPOLYLINE
  5
40
330
17
100
AcDbEntity
  8
BRACKET_OUTLINE
 62
6
100
AcDbPolyline
 90
87
 70
1
 10
59.474999999999994
 20
23.775066317893206
 10
59.43762013756228
 20
23.730818390035537
 10
59.39537371962288
 20
23.691190452833965
 10
59.348827715625454
 20
23.656714334325144
 10
59.298606797749976
 20
23.627852722393257
 10
59.24538495747919
 20
23.604992955252
 10
59.18987646027368
 20
23.588441823159357
 10
59.13282625974878
 20
23.57842145112879
 10
59.075
 20
23.575066317893217
 10
58.275
 20
23.575066317893217
 10
58.275
 20
19.928619708486494
 10
58.29147591804404
 20
19.910441334230754
 10
58.306090707779
 20
19.89073557144475
 10
58.31870362079045
 20
19.86969219739636
 10
58.32919318783118
 20
19.847513871281123
 10
58.33745838863641
 20
19.824414182503475
 10
58.34341962480417
 20
19.800615593693905
 10
58.34701948637141
 20
19.776347298272256
 10
58.34822330470336
 20
19.751843013189855
 10
58.34701948637141
 20
19.727338728107483
 10
58.34341962480417
 20
19.703070432685834
 10
58.33745838863641
 20
19.679271843876236
 10
58.32919318783118
 20
19.656172155098588
 10
58.31870362079045
 20
19.63399382898335
 10
58.306090707779
 20
19.61295045493496
 10
58.29147591804404
 20
19.593244692148957
 10
58.275
 20
19.575066317893217
 10
58.25682162574427
 20
19.558590399849166
 10
58.23711586295826
 20
19.543975610114202
 10
58.21607248890986
 20
19.53136269710278
 10
58.193894162794635
 20
19.520873130062043
 10
58.17079447401697
 20
19.512607929256816
 10
58.14699588520739
 20
19.506646693089053
 10
58.122727589785754
 20
19.503046831521814
 10
58.09822330470336
 20
19.501843013189855
 10
58.07371901962097
 20
19.503046831521814
 10
58.04945072419933
 20
19.506646693089053
 10
58.02565213538975
 20
19.512607929256816
 10
58.002552446612086
 20
19.520873130062043
 10
57.98037412049686
 20
19.53136269710278
 10
57.95933074644846
 20
19.543975610114202
 10
57.939624983662455
 20
19.558590399849166
 10
57.92144660940673
 20
19.575066317893217
 10
57.028553390593274
 20
19.575066317893217
 10
57.01037501633755
 20
19.558590399849166
 10
56.99066925355153
 20
19.543975610114202
 10
56.969625879503134
 20
19.53136269710278
 10
56.9474475533879
 20
19.520873130062043
 10
56.924347864610255
 20
19.512607929256816
 10
56.90054927580067
 20
19.506646693089053
 10
56.87628098037902
 20
19.503046831521814
 10
56.851776695296635
 20
19.501843013189855
 10
56.82727241021425
 20
19.503046831521814
 10
56.8030041147926
 20
19.506646693089053
 10
56.779205525983016
 20
19.512607929256816
 10
56.75610583720536
 20
19.520873130062043
 10
56.73392751109014
 20
19.53136269710278
 10
56.71288413704173
 20
19.543975610114202
 10
56.69317837425572
 20
19.558590399849166
 10
56.675
 20
19.575066317893217
 10
56.65852408195595
 20
19.593244692148957
 10
56.643909292221
 20
19.61295045493496
 10
56.631296379209545
 20
19.63399382898335
 10
56.620806812168816
 20
19.656172155098588
 10
56.61254161136358
 20
19.679271843876236
 10
56.606580375195826
 20
19.703070432685834
 10
56.60298051362859
 20
19.727338728107483
 10
56.601776695296635
 20
19.751843013189855
 10
56.60298051362859
 20
19.776347298272256
 10
56.606580375195826
 20
19.800615593693905
 10
56.61254161136358
 20
19.824414182503475
 10
56.620806812168816
 20
19.847513871281123
 10
56.631296379209545
 20
19.86969219739636
 10
56.643909292221
 20
19.89073557144475
 10
56.65852408195595
 20
19.910441334230754
 10
56.675
 20
19.928619708486494
 10
56.675
 20
23.575066317893217
 10
55.875
 20
23.575066317893217
 10
55.817173740251214
 20
23.57842145112879
 10
55.760123539726315
 20
23.588441823159357
 10
55.704615042520814
 20
23.604992955252
 10
55.65139320225002
 20
23.627852722393257
 10
55.60117228437454
 20
23.656714334325144
 10
55.554626280377114
 20
23.691190452833965
 10
55.51237986243772
 20
23.730818390035537
 10
55.474999999999994
 20
23.775066317893206
 10
59.474999999999994
 20
23.775066317893206
  0
LWPOLYLINE
  5
41
330
17
100
AcDbEntity
  8
BRACKET_OUTLINE
 62
6
100
AcDbPolyline
 90
87
 70
1
 10
68.62500000000001
 20
23.775066317893206
 10
68.58762013756228
 20
23.730818390035537
 10
68.54537371962289
 20
23.691190452833965
 10
68.49882771562547
 20
23.656714334325144
 10
68.44860679774999
 20
23.627852722393257
 10
68.3953849574792
 20
23.604992955252
 10
68.3398764602737
 20
23.588441823159357
 10
68.28282625974879
 20
23.57842145112879
 10
68.22500000000001
 20
23.575066317893217
 10
67.42500000000001
 20
23.575066317893217
 10
67.42500000000001
 20
19.928619708486494
 10
67.44147591804406
 20
19.910441334230754
 10
67.45609070777901
 20
19.89073557144475
 10
67.46870362079046
 20
19.86969219739636
 10
67.4791931878312
 20
19.847513871281123
 10
67.48745838863643
 20
19.824414182503475
 10
67.49341962480418
 20
19.800615593693905
 10
67.49701948637143
 20
19.776347298272256
 10
67.49822330470337
 20
19.751843013189855
 10
67.49701948637143
 20
19.727338728107483
 10
67.49341962480418
 20
19.703070432685834
 10
67.48745838863643
 20
19.679271843876236
 10
67.4791931878312
 20
19.656172155098588
 10
67.46870362079046
 20
19.63399382898335
 10
67.45609070777901
 20
19.61295045493496
 10
67.44147591804406
 20
19.593244692148957
 10
67.42500000000001
 20
19.575066317893217
 10
67.40682162574429
 20
19.558590399849166
 10
67.38711586295827
 20
19.543975610114202
 10
67.36607248890988
 20
19.53136269710278
 10
67.34389416279464
 20
19.520873130062043
 10
67.32079447401699
 20
19.512607929256816
 10
67.29699588520741
 20
19.506646693089053
 10
67.27272758978576
 20
19.503046831521814
 10
67.24822330470337
 20
19.501843013189855
 10
67.22371901962099
 20
19.503046831521814
 10
67.19945072419934
 20
19.506646693089053
 10
67.17565213538975
 20
19.512607929256816
 10
67.1525524466121
 20
19.520873130062043
 10
67.13037412049687
 20
19.53136269710278
 10
67.10933074644848
 20
19.543975610114202
 10
67.08962498366246
 20
19.558590399849166
 10
67.07144660940673
 20
19.575066317893217
 10
66.17855339059328
 20
19.575066317893217
 10
66.16037501633755
 20
19.558590399849166
 10
66.14066925355155
 20
19.543975610114202
 10
66.11962587950315
 20
19.53136269710278
 10
66.09744755338792
 20
19.520873130062043
 10
66.07434786461026
 20
19.512607929256816
 10
66.05054927580068
 20
19.506646693089053
 10
66.02628098037904
 20
19.503046831521814
 10
66.00177669529666
 20
19.501843013189855
 10
65.97727241021425
 20
19.503046831521814
 10
65.95300411479262
 20
19.506646693089053
 10
65.92920552598304
 20
19.512607929256816
 10
65.90610583720537
 20
19.520873130062043
 10
65.88392751109015
 20
19.53136269710278
 10
65.86288413704175
 20
19.543975610114202
 10
65.84317837425573
 20
19.558590399849166
 10
65.82500000000002
 20
19.575066317893217
 10
65.80852408195597
 20
19.593244692148957
 10
65.79390929222102
 20
19.61295045493496
 10
65.78129637920955
 20
19.63399382898335
 10
65.77080681216883
 20
19.656172155098588
 10
65.76254161136359
 20
19.679271843876236
 10
65.75658037519584
 20
19.703070432685834
 10
65.7529805136286
 20
19.727338728107483
 10
65.75177669529666
 20
19.751843013189855
 10
65.7529805136286
 20
19.776347298272256
 10
65.75658037519584
 20
19.800615593693905
 10
65.76254161136359
 20
19.824414182503475
 10
65.77080681216883
 20
19.847513871281123
 10
65.78129637920955
 20
19.86969219739636
 10
65.79390929222102
 20
19.89073557144475
 10
65.80852408195597
 20
19.910441334230754
 10
65.82500000000002
 20
19.928619708486494
 10
65.82500000000002
 20
23.575066317893217
 10
65.025
 20
23.575066317893217
 10
64.96717374025123
 20
23.57842145112879
 10
64.91012353972633
 20
23.588441823159357
 10
64.85461504252082
 20
23.604992955252
 10
64.80139320225004
 20
23.627852722393257
 10
64.75117228437455
 20
23.656714334325144
 10
64.70462628037713
 20
23.691190452833965
 10
64.66237986243773
 20
23.730818390035537
 10
64.62500000000001
 20
23.775066317893206
 10
68.62500000000001
 20
23.775066317893206
  0
LINE
  5
42
330
17
100
AcDbEntity
  8
BRACKET_CUT_LINE
 62
4
100
AcDbLine
 10
45.175
 20
23.575066317893217
 30
0.0
 11
46.775
 21
23.575066317893217
 31
0.0
  0
LINE
  5
43
330
17
100
AcDbEntity
  8
BRACKET_CUT_LINE
 62
4
100
AcDbLine
 10
56.675
 20
23.575066317893217
 30
0.0
 11
58.275
 21
23.575066317893217
 31
0.0
  0
LINE
  5
44
330
17
100
AcDbEntity
  8
BRACKET_CUT_LINE
 62
4
100
AcDbLine
 10
65.82500000000002
 20
23.575066317893217
 30
0.0
 11
67.42500000000001
 21
23.575066317893217
 31
0.0
  0
LWPOLYLINE
  5
45
330
17
100
AcDbEntity
  8
SHELF_R
 62
3
100
AcDbPolyline
 90
110
 70
1
 10
64.05000000000001
 20
24.225066317893223
 10
35.05
 20
24.225066317893223
 10
35.05
 20
26.33733287952576
 10
35.05
 20
26.33733287952576
 10
35.06173606053993
 20
26.60243404535224
 10
35.09685241874838
 20
26.86546104895784
 10
35.155074322821434
 20
27.1243559564506
 10
35.2359462422318
 20
27.377093163625247
 10
35.33883543181801
 20
27.621695244372447
 10
35.46293688240816
 20
27.856248422140297
 10
35.60727961924408
 20
28.078917543399356
 10
35.770734298927124
 20
28.28796043595797
 10
35.9520220454464
 20
28.481741539787876
 10
36.149724456156406
 20
28.658744703711633
 10
36.362294699416466
 20
28.81758504783089
 10
36.588069617063994
 20
28.957019798882456
 10
36.82528273703106
 20
29.075958013746558
 10
37.07207809429312
 20
29.173469115029732
 10
37.326524752014315
 20
29.24879017194
 10
37.58663190927517
 20
29.301331869488124
 10
37.850364477179376
 20
29.330683119311956
 10
38.115659001471414
 20
29.336614276048223
 10
38.380439807085935
 20
29.319078934087244
 10
38.38043980708592
 20
29.31907893408713
 10
38.865428455256335
 20
29.272769394010353
 10
39.35041710342674
 20
29.241791516541966
 10
39.83540575159715
 20
29.2266440351692
 10
40.32039439976756
 20
29.227570819286072
 10
40.805383047937966
 20
29.24455694797767
 10
41.29037169610838
 20
29.277328950241824
 10
41.77536034427878
 20
29.325359207781034
 10
42.260348992449195
 20
29.387874449480833
 10
42.7453376406196
 20
29.463868200816776
 10
43.23032628879001
 20
29.552116987758197
 10
43.715314936960425
 20
29.651200034291847
 10
44.200303585130825
 20
29.759522136441305
 10
44.68529223330124
 20
29.875339344518707
 10
45.17028088147165
 20
29.996787040132475
 10
45.655269529642055
 20
30.12190995592111
 10
46.14025817781246
 20
30.248693654705036
 10
46.62524682598287
 20
30.37509696125288
 10
47.110235474153285
 20
30.499084824521148
 10
47.59522412232369
 20
30.61866108129702
 10
48.0802127704941
 20
30.731900593759647
 10
48.56520141866451
 20
30.836980243556454
 10
49.050190066834915
 20
30.9322082834001
 10
49.53517871500533
 20
31.01605157363518
 10
50.02016736317573
 20
31.087160265274903
 10
50.505156011346145
 20
31.144389532119064
 10
50.99014465951655
 20
31.186818002074048
 10
51.47513330768696
 20
31.213762590935673
 10
51.96012195585737
 20
31.224789499817106
 10
52.445110604027775
 20
31.21972119916599
 10
52.93009925219819
 20
31.198639286931083
 10
53.4150879003686
 20
31.161883174862467
 10
53.900076548539005
 20
31.110044624095636
 10
54.38506519670941
 20
31.04395821799484
 10
54.87005384487982
 20
30.96468792563938
 10
55.355042493050234
 20
30.873509972276636
 10
55.840031141220635
 20
30.77189229252157
 10
56.32501978939105
 20
30.66147089709939
 10
56.81000843756146
 20
30.544023533618983
 10
57.294997085731865
 20
30.421441065429732
 10
57.77998573390228
 20
30.295697029352866
 10
58.26497438207268
 20
30.16881586239721
 10
58.749963030243094
 20
30.04284030899929
 10
59.2349516784135
 20
29.91979853351954
 10
59.71994032658391
 20
29.80167146747324
 10
60.20492897475432
 20
29.690360917194212
 10
60.689917622924725
 20
29.58765894538776
 10
61.17490627109514
 20
29.495219019519183
 10
61.65989491926554
 20
29.414529391539517
 10
62.144883567435954
 20
29.34688913752602
 10
62.1448835674024
 20
29.34688913725806
 10
62.2986125981776
 20
29.32520887588727
 10
62.45159443122928
 20
29.298766345896055
 10
62.603681575862645
 20
29.267587040684745
 10
62.75472740395733
 20
29.23170102040693
 10
62.904586291332436
 20
29.191142882988103
 10
63.05311375814367
 20
29.14595173076968
 10
63.2001666081772
 20
29.0961711328102
 10
63.34560306690602
 20
29.04184908288009
 10
63.489282918175604
 20
28.98303795319073
 10
63.63106763938708
 20
28.919794443901864
 10
63.77082053504777
 20
28.8521795284568
 10
63.90840686856006
 20
28.780258394797542
 10
64.04369399212182
 20
28.704100382516614
 10
64.17655147461285
 20
28.623778916006515
 10
64.3068512273444
 20
28.53937143367061
 10
64.43446762755016
 20
28.450959313264477
 10
64.55927763949998
 20
28.358627793439027
 10
64.68116093311927
 20
28.26246589156152
 10
64.80000000000001
 20
28.162566317893223
 10
64.80000000000001
 20
27.537566317893223
 10
64.80000000000001
 20
27.537566317893223
 10
64.71602664292253
 20
27.532850475313168
 10
64.63310929953278
 20
27.51876225202959
 10
64.55229070353363
 20
27.49547881562451
 10
64.47458719566184
 20
27.463292968820028
 10
64.40097594261351
 20
27.422609467314444
 10
64.33238264860596
 20
27.373939929744253
 10
64.2696699141101
 20
27.317896403783138
 10
64.21362638814898
 20
27.255183669287263
 10
64.16495685057879
 20
27.18659037527972
 10
64.12427334907319
 20
27.11297912223141
 10
64.09208750226874
 20
27.035275614359605
 10
64.06880406586365
 20
26.954457018360458
 10
64.05471584258008
 20
26.87153967497072
 10
64.05000000000001
 20
26.787566317893223
 10
64.05000000000001
 20
24.225066317893223
  0
LWPOLYLINE
  5
46
330
17
100
AcDbEntity
  8
BRACKET_OUTLINE
 62
6
100
AcDbPolyline
 90
87
 70
1
 10
56.875
 20
24.225066317893223
 10
56.91237986243772
 20
24.26931424575092
 10
56.95462628037711
 20
24.308942182952492
 10
57.00117228437454
 20
24.343418301461313
 10
57.05139320225002
 20
24.37227991339317
 10
57.10461504252081
 20
24.395139680534427
 10
57.160123539726314
 20
24.4116908126271
 10
57.21717374025121
 20
24.421711184657667
 10
57.275
 20
24.42506631789324
 10
58.074999999999996
 20
24.42506631789324
 10
58.074999999999996
 20
28.071512927299963
 10
58.05852408195595
 20
28.089691301555675
 10
58.043909292221
 20
28.109397064341678
 10
58.03129637920954
 20
28.130440438390096
 10
58.020806812168814
 20
28.152618764505306
 10
58.01254161136358
 20
28.175718453282954
 10
58.006580375195824
 20
28.199517042092552
 10
58.002980513628586
 20
28.2237853375142
 10
58.001776695296634
 20
28.248289622596573
 10
58.002980513628586
 20
28.272793907678974
 10
58.006580375195824
 20
28.297062203100623
 10
58.01254161136358
 20
28.320860791910192
 10
58.020806812168814
 20
28.34396048068787
 10
58.03129637920954
 20
28.36613880680308
 10
58.043909292221
 20
28.387182180851497
 10
58.05852408195595
 20
28.4068879436375
 10
58.074999999999996
 20
28.42506631789324
 10
58.09317837425572
 20
28.441542235937263
 10
58.11288413704173
 20
28.456157025672226
 10
58.133927511090135
 20
28.46876993868368
 10
58.15610583720536
 20
28.479259505724414
 10
58.17920552598302
 20
28.48752470652964
 10
58.203004114792606
 20
28.493485942697404
 10
58.22727241021424
 20
28.497085804264643
 10
58.251776695296634
 20
28.498289622596573
 10
58.27628098037903
 20
28.497085804264643
 10
58.30054927580066
 20
28.493485942697404
 10
58.324347864610246
 20
28.48752470652964
 10
58.34744755338791
 20
28.479259505724414
 10
58.36962587950313
 20
28.46876993868368
 10
58.390669253551536
 20
28.456157025672226
 10
58.41037501633755
 20
28.441542235937263
 10
58.42855339059327
 20
28.42506631789324
 10
59.32144660940672
 20
28.42506631789324
 10
59.339624983662446
 20
28.441542235937263
 10
59.359330746448464
 20
28.456157025672226
 10
59.38037412049686
 20
28.46876993868368
 10
59.40255244661209
 20
28.479259505724414
 10
59.42565213538975
 20
28.48752470652964
 10
59.44945072419933
 20
28.493485942697404
 10
59.47371901962097
 20
28.497085804264643
 10
59.49822330470336
 20
28.498289622596573
 10
59.52272758978575
 20
28.497085804264643
 10
59.546995885207394
 20
28.493485942697404
 10
59.57079447401698
 20
28.48752470652964
 10
59.59389416279463
 20
28.479259505724414
 10
59.61607248890986
 20
28.46876993868368
 10
59.63711586295826
 20
28.456157025672226
 10
59.65682162574427
 20
28.441542235937263
 10
59.675
 20
28.42506631789324
 10
59.69147591804405
 20
28.4068879436375
 10
59.706090707779
 20
28.387182180851497
 10
59.71870362079045
 20
28.36613880680308
 10
59.729193187831186
 20
28.34396048068787
 10
59.73745838863641
 20
28.320860791910192
 10
59.74341962480417
 20
28.297062203100623
 10
59.747019486371414
 20
28.272793907678974
 10
59.74822330470336
 20
28.248289622596573
 10
59.747019486371414
 20
28.2237853375142
 10
59.74341962480417
 20
28.199517042092552
 10
59.73745838863641
 20
28.175718453282954
 10
59.729193187831186
 20
28.152618764505306
 10
59.71870362079045
 20
28.130440438390096
 10
59.706090707779
 20
28.109397064341678
 10
59.69147591804405
 20
28.089691301555675
 10
59.675
 20
28.071512927299963
 10
59.675
 20
24.42506631789324
 10
60.474999999999994
 20
24.42506631789324
 10
60.53282625974878
 20
24.421711184657667
 10
60.58987646027368
 20
24.4116908126271
 10
60.64538495747918
 20
24.395139680534427
 10
60.698606797749974
 20
24.37227991339317
 10
60.74882771562545
 20
24.343418301461313
 10
60.79537371962288
 20
24.308942182952492
 10
60.83762013756228
 20
24.26931424575092
 10
60.875
 20
24.225066317893223
 10
56.875
 20
24.225066317893223
  0
LWPOLYLINE
  5
47
330
17
100
AcDbEntity
  8
BRACKET_OUTLINE
 62
6
100
AcDbPolyline
 90
87
 70
1
 10
45.375
 20
24.225066317893223
 10
45.41237986243772
 20
24.26931424575092
 10
45.45462628037711
 20
24.308942182952492
 10
45.50117228437454
 20
24.343418301461313
 10
45.55139320225002
 20
24.37227991339317
 10
45.604615042520805
 20
24.395139680534427
 10
45.660123539726314
 20
24.4116908126271
 10
45.71717374025121
 20
24.421711184657667
 10
45.77499999999999
 20
24.42506631789324
 10
46.574999999999996
 20
24.42506631789324
 10
46.574999999999996
 20
28.071512927299963
 10
46.55852408195595
 20
28.089691301555675
 10
46.543909292220995
 20
28.109397064341678
 10
46.53129637920954
 20
28.130440438390096
 10
46.520806812168814
 20
28.152618764505306
 10
46.51254161136358
 20
28.175718453282954
 10
46.506580375195824
 20
28.199517042092552
 10
46.502980513628586
 20
28.2237853375142
 10
46.501776695296634
 20
28.248289622596573
 10
46.502980513628586
 20
28.272793907678974
 10
46.506580375195824
 20
28.297062203100623
 10
46.51254161136358
 20
28.320860791910192
 10
46.520806812168814
 20
28.34396048068787
 10
46.53129637920954
 20
28.36613880680308
 10
46.543909292220995
 20
28.387182180851497
 10
46.55852408195595
 20
28.4068879436375
 10
46.574999999999996
 20
28.42506631789324
 10
46.59317837425572
 20
28.441542235937263
 10
46.61288413704173
 20
28.456157025672226
 10
46.633927511090135
 20
28.46876993868368
 10
46.65610583720536
 20
28.479259505724414
 10
46.67920552598302
 20
28.48752470652964
 10
46.703004114792606
 20
28.493485942697404
 10
46.72727241021424
 20
28.497085804264643
 10
46.751776695296634
 20
28.498289622596573
 10
46.77628098037903
 20
28.497085804264643
 10
46.80054927580066
 20
28.493485942697404
 10
46.824347864610246
 20
28.48752470652964
 10
46.84744755338791
 20
28.479259505724414
 10
46.86962587950313
 20
28.46876993868368
 10
46.890669253551536
 20
28.456157025672226
 10
46.91037501633754
 20
28.441542235937263
 10
46.928553390593265
 20
28.42506631789324
 10
47.82144660940672
 20
28.42506631789324
 10
47.839624983662446
 20
28.441542235937263
 10
47.859330746448464
 20
28.456157025672226
 10
47.88037412049686
 20
28.46876993868368
 10
47.90255244661209
 20
28.479259505724414
 10
47.92565213538974
 20
28.48752470652964
 10
47.94945072419932
 20
28.493485942697404
 10
47.97371901962097
 20
28.497085804264643
 10
47.99822330470336
 20
28.498289622596573
 10
48.022727589785745
 20
28.497085804264643
 10
48.046995885207394
 20
28.493485942697404
 10
48.07079447401698
 20
28.48752470652964
 10
48.09389416279463
 20
28.479259505724414
 10
48.11607248890986
 20
28.46876993868368
 10
48.13711586295826
 20
28.456157025672226
 10
48.15682162574427
 20
28.441542235937263
 10
48.175
 20
28.42506631789324
 10
48.19147591804404
 20
28.4068879436375
 10
48.206090707779
 20
28.387182180851497
 10
48.21870362079045
 20
28.36613880680308
 10
48.22919318783118
 20
28.34396048068787
 10
48.23745838863641
 20
28.320860791910192
 10
48.24341962480417
 20
28.297062203100623
 10
48.24701948637141
 20
28.272793907678974
 10
48.24822330470336
 20
28.248289622596573
 10
48.24701948637141
 20
28.2237853375142
 10
48.24341962480417
 20
28.199517042092552
 10
48.23745838863641
 20
28.175718453282954
 10
48.22919318783118
 20
28.152618764505306
 10
48.21870362079045
 20
28.130440438390096
 10
48.206090707779
 20
28.109397064341678
 10
48.19147591804404
 20
28.089691301555675
 10
48.175
 20
28.071512927299963
 10
48.175
 20
24.42506631789324
 10
48.974999999999994
 20
24.42506631789324
 10
49.03282625974878
 20
24.421711184657667
 10
49.08987646027368
 20
24.4116908126271
 10
49.14538495747918
 20
24.395139680534427
 10
49.198606797749974
 20
24.37227991339317
 10
49.24882771562545
 20
24.343418301461313
 10
49.29537371962288
 20
24.308942182952492
 10
49.337620137562276
 20
24.26931424575092
 10
49.375
 20
24.225066317893223
 10
45.375
 20
24.225066317893223
  0
LWPOLYLINE
  5
48
330
17
100
AcDbEntity
  8
BRACKET_OUTLINE
 62
6
100
AcDbPolyline
 90
87
 70
1
 10
36.224999999999994
 20
24.225066317893223
 10
36.26237986243772
 20
24.26931424575092
 10
36.304626280377114
 20
24.308942182952492
 10
36.35117228437454
 20
24.343418301461313
 10
36.40139320225002
 20
24.37227991339317
 10
36.454615042520814
 20
24.395139680534427
 10
36.510123539726315
 20
24.4116908126271
 10
36.567173740251214
 20
24.421711184657667
 10
36.625
 20
24.42506631789324
 10
37.425
 20
24.42506631789324
 10
37.425
 20
28.071512927299963
 10
37.408524081955946
 20
28.089691301555675
 10
37.393909292221
 20
28.109397064341678
 10
37.381296379209545
 20
28.130440438390096
 10
37.37080681216881
 20
28.152618764505306
 10
37.36254161136358
 20
28.175718453282954
 10
37.356580375195826
 20
28.199517042092552
 10
37.35298051362858
 20
28.2237853375142
 10
37.351776695296635
 20
28.248289622596573
 10
37.35298051362858
 20
28.272793907678974
 10
37.356580375195826
 20
28.297062203100623
 10
37.36254161136358
 20
28.320860791910192
 10
37.37080681216881
 20
28.34396048068787
 10
37.381296379209545
 20
28.36613880680308
 10
37.393909292221
 20
28.387182180851497
 10
37.408524081955946
 20
28.4068879436375
 10
37.425
 20
28.42506631789324
 10
37.44317837425572
 20
28.441542235937263
 10
37.46288413704173
 20
28.456157025672226
 10
37.48392751109013
 20
28.46876993868368
 10
37.50610583720536
 20
28.479259505724414
 10
37.529205525983016
 20
28.48752470652964
 10
37.5530041147926
 20
28.493485942697404
 10
37.57727241021425
 20
28.497085804264643
 10
37.601776695296635
 20
28.498289622596573
 10
37.62628098037902
 20
28.497085804264643
 10
37.65054927580067
 20
28.493485942697404
 10
37.674347864610255
 20
28.48752470652964
 10
37.6974475533879
 20
28.479259505724414
 10
37.719625879503134
 20
28.46876993868368
 10
37.74066925355153
 20
28.456157025672226
 10
37.76037501633755
 20
28.441542235937263
 10
37.778553390593274
 20
28.42506631789324
 10
38.67144660940673
 20
28.42506631789324
 10
38.68962498366245
 20
28.441542235937263
 10
38.70933074644846
 20
28.456157025672226
 10
38.73037412049686
 20
28.46876993868368
 10
38.752552446612086
 20
28.479259505724414
 10
38.77565213538975
 20
28.48752470652964
 10
38.79945072419933
 20
28.493485942697404
 10
38.82371901962097
 20
28.497085804264643
 10
38.84822330470336
 20
28.498289622596573
 10
38.872727589785754
 20
28.497085804264643
 10
38.89699588520739
 20
28.493485942697404
 10
38.92079447401697
 20
28.48752470652964
 10
38.943894162794635
 20
28.479259505724414
 10
38.96607248890986
 20
28.46876993868368
 10
38.98711586295826
 20
28.456157025672226
 10
39.00682162574427
 20
28.441542235937263
 10
39.025
 20
28.42506631789324
 10
39.04147591804404
 20
28.4068879436375
 10
39.05609070777899
 20
28.387182180851497
 10
39.06870362079045
 20
28.36613880680308
 10
39.07919318783118
 20
28.34396048068787
 10
39.08745838863641
 20
28.320860791910192
 10
39.09341962480417
 20
28.297062203100623
 10
39.09701948637141
 20
28.272793907678974
 10
39.09822330470336
 20
28.248289622596573
 10
39.09701948637141
 20
28.2237853375142
 10
39.09341962480417
 20
28.199517042092552
 10
39.08745838863641
 20
28.175718453282954
 10
39.07919318783118
 20
28.152618764505306
 10
39.06870362079045
 20
28.130440438390096
 10
39.05609070777899
 20
28.109397064341678
 10
39.04147591804404
 20
28.089691301555675
 10
39.025
 20
28.071512927299963
 10
39.025
 20
24.42506631789324
 10
39.825
 20
24.42506631789324
 10
39.88282625974878
 20
24.421711184657667
 10
39.93987646027368
 20
24.4116908126271
 10
39.99538495747919
 20
24.395139680534427
 10
40.048606797749976
 20
24.37227991339317
 10
40.098827715625454
 20
24.343418301461313
 10
40.14537371962288
 20
24.308942182952492
 10
40.18762013756228
 20
24.26931424575092
 10
40.224999999999994
 20
24.225066317893223
 10
36.224999999999994
 20
24.225066317893223
  0
LINE
  5
49
330
17
100
AcDbEntity
  8
BRACKET_CUT_LINE
 62
4
100
AcDbLine
 10
59.675
 20
24.42506631789324
 30
0.0
 11
58.074999999999996
 21
24.42506631789324
 31
0.0
  0
LINE
  5
4A
330
17
100
AcDbEntity
  8
BRACKET_CUT_LINE
 62
4
100
AcDbLine
 10
48.175
 20
24.42506631789324
 30
0.0
 11
46.574999999999996
 21
24.42506631789324
 31
0.0
  0
LINE
  5
4B
330
17
100
AcDbEntity
  8
BRACKET_CUT_LINE
 62
4
100
AcDbLine
 10
39.025
 20
24.42506631789324
 30
0.0
 11
37.425
 21
24.42506631789324
 31
0.0
  0
ENDSEC
  0
SECTION
  2
OBJECTS
  0
DICTIONARY
  5
A
330
0
100
AcDbDictionary
281
1
  3
ACAD_COLOR
350
B
  3
ACAD_GROUP
350
C
  3
ACAD_LAYOUT
350
D
  3
ACAD_MATERIAL
350
E
  3
ACAD_MLEADERSTYLE
350
F
  3
ACAD_MLINESTYLE
350
10
  3
ACAD_PLOTSETTINGS
350
11
  3
ACAD_PLOTSTYLENAME
350
12
  3
ACAD_SCALELIST
350
14
  3
ACAD_TABLESTYLE
350
15
  3
ACAD_VISUALSTYLE
350
16
  3
EZDXF_META
350
2D
  0
DICTIONARY
  5
B
330
A
100
AcDbDictionary
281
1
  0
DICTIONARY
  5
C
330
A
100
AcDbDictionary
281
1
  0
DICTIONARY
  5
D
330
A
100
AcDbDictionary
281
1
  3
Model
350
1A
  3
Layout1
350
1E
  0
DICTIONARY
  5
E
330
A
100
AcDbDictionary
281
1
  3
ByBlock
350
1F
  3
ByLayer
350
20
  3
Global
350
21
  0
DICTIONARY
  5
F
330
A
100
AcDbDictionary
281
1
  3
Standard
350
2C
  0
DICTIONARY
  5
10
330
A
100
AcDbDictionary
281
1
  3
Standard
350
22
  0
DICTIONARY
  5
11
330
A
100
AcDbDictionary
281
1
  0
ACDBDICTIONARYWDFLT
  5
12
330
A
100
AcDbDictionary
281
1
  3
Normal
350
13
100
AcDbDictionaryWithDefault
340
13
  0
ACDBPLACEHOLDER
  5
13
330
12
  0
DICTIONARY
  5
14
330
A
100
AcDbDictionary
281
1
  0
DICTIONARY
  5
15
330
A
100
AcDbDictionary
281
1
  0
DICTIONARY
  5
16
330
A
100
AcDbDictionary
281
1
  0
LAYOUT
  5
1A
330
D
100
AcDbPlotSettings
  1

  4
A3
  6

 40
7.5
 41
20.0
 42
7.5
 43
20.0
 44
420.0
 45
297.0
 46
0.0
 47
0.0
 48
0.0
 49
0.0
140
0.0
141
0.0
142
1.0
143
1.0
 70
1024
 72
1
 73
0
 74
5
  7

 75
16
 76
0
 77
2
 78
300
147
1.0
148
0.0
149
0.0
100
AcDbLayout
  1
Model
 70
1
 71
0
 10
0.0
 20
0.0
 11
420.0
 21
297.0
 12
0.0
 22
0.0
 32
0.0
 14
1e+20
 24
1e+20
 34
1e+20
 15
-1e+20
 25
-1e+20
 35
-1e+20
146
0.0
 13
0.0
 23
0.0
 33
0.0
 16
1.0
 26
0.0
 36
0.0
 17
0.0
 27
1.0
 37
0.0
 76
1
330
17
  0
LAYOUT
  5
1E
330
D
100
AcDbPlotSettings
  1

  4
A3
  6

 40
7.5
 41
20.0
 42
7.5
 43
20.0
 44
420.0
 45
297.0
 46
0.0
 47
0.0
 48
0.0
 49
0.0
140
0.0
141
0.0
142
1.0
143
1.0
 70
0
 72
1
 73
0
 74
5
  7

 75
16
 76
0
 77
2
 78
300
147
1.0
148
0.0
149
0.0
100
AcDbLayout
  1
Layout1
 70
1
 71
1
 10
0.0
 20
0.0
 11
420.0
 21
297.0
 12
0.0
 22
0.0
 32
0.0
 14
1e+20
 24
1e+20
 34
1e+20
 15
-1e+20
 25
-1e+20
 35
-1e+20
146
0.0
 13
0.0
 23
0.0
 33
0.0
 16
1.0
 26
0.0
 36
0.0
 17
0.0
 27
1.0
 37
0.0
 76
1
330
1B
  0
MATERIAL
  5
1F
102
{ACAD_REACTORS
330
E
102
}
330
E
100
AcDbMaterial
  1
ByBlock
  2

 70
0
 40
1.0
 71
1
 41
1.0
 91
-1023410177
 42
1.0
 72
1
  3

 73
1
 74
1
 75
1
 44
0.5
 73
0
 45
1.0
 46
1.0
 77
1
  4

 78
1
 79
1
170
1
 48
1.0
171
1
  6

172
1
173
1
174
1
140
1.0
141
1.0
175
1
  7

176
1
177
1
178
1
143
1.0
179
1
  8

270
1
271
1
272
1
145
1.0
146
1.0
273
1
  9

274
1
275
1
276
1
 42
1.0
 72
1
  3

 73
1
 74
1
 75
1
 94
63
  0
MATERIAL
  5
20
102
{ACAD_REACTORS
330
E
102
}
330
E
100
AcDbMaterial
  1
ByLayer
  2

 70
0
 40
1.0
 71
1
 41
1.0
 91
-1023410177
 42
1.0
 72
1
  3

 73
1
 74
1
 75
1
 44
0.5
 73
0
 45
1.0
 46
1.0
 77
1
  4

 78
1
 79
1
170
1
 48
1.0
171
1
  6

172
1
173
1
174
1
140
1.0
141
1.0
175
1
  7

176
1
177
1
178
1
143
1.0
179
1
  8

270
1
271
1
272
1
145
1.0
146
1.0
273
1
  9

274
1
275
1
276
1
 42
1.0
 72
1
  3

 73
1
 74
1
 75
1
 94
63
  0
MATERIAL
  5
21
102
{ACAD_REACTORS
330
E
102
}
330
E
100
AcDbMaterial
  1
Global
  2

 70
0
 40
1.0
 71
1
 41
1.0
 91
-1023410177
 42
1.0
 72
1
  3

 73
1
 74
1
 75
1
 44
0.5
 73
0
 45
1.0
 46
1.0
 77
1
  4

 78
1
 79
1
170
1
 48
1.0
171
1
  6

172
1
173
1
174
1
140
1.0
141
1.0
175
1
  7

176
1
177
1
178
1
143
1.0
179
1
  8

270
1
271
1
272
1
145
1.0
146
1.0
273
1
  9

274
1
275
1
276
1
 42
1.0
 72
1
  3

 73
1
 74
1
 75
1
 94
63
  0
MLINESTYLE
  5
22
102
{ACAD_REACTORS
330
10
102
}
330
10
100
AcDbMlineStyle
  2
Standard
 70
0
  3

 62
256
 51
90.0
 52
90.0
 71
2
 49
0.5
 62
256
  6
BYLAYER
 49
-0.5
 62
256
  6
BYLAYER
  0
MLEADERSTYLE
  5
2C
102
{ACAD_REACTORS
330
F
102
}
330
F
100
AcDbMLeaderStyle
179
2
170
2
171
1
172
0
 90
2
 40
0.0
 41
0.0
173
1
 91
-1056964608
 92
-2
290
1
 42
2.0
291
1
 43
8.0
  3
Standard
 44
4.0
300

342
29
174
1
175
1
176
0
178
1
 93
-1056964608
 45
4.0
292
0
297
0
 46
4.0
 94
-1056964608
 47
1.0
 49
1.0
140
1.0
294
1
141
0.0
177
0
142
1.0
295
0
296
0
143
3.75
271
0
272
9
273
9
  0
DICTIONARY
  5
2D
330
A
100
AcDbDictionary
280
1
281
1
  3
CREATED_BY_EZDXF
350
2E
  3
WRITTEN_BY_EZDXF
350
4E
  0
DICTIONARYVAR
  5
2E
330
2D
100
DictionaryVariables
280
0
  1
1.4.3 @ 2026-03-22T05:58:42.482297+00:00
  0
DICTIONARYVAR
  5
4E
330
2D
100
DictionaryVariables
280
0
  1
1.4.3 @ 2026-03-22T05:58:42.494201+00:00
  0
ENDSEC
  0
EOF
