  0
SECTION
  2
HEADER
  9
$ACADVER
  1
AC1024
  9
$ACADMAINTVER
 70
6
  9
$DWGCODEPAGE
  3
ANSI_1252
  9
$LASTSAVEDBY
  1
ezdxf
  9
$INSBASE
 10
0.0
 20
0.0
 30
0.0
  9
$EXTMIN
 10
1e+20
 20
1e+20
 30
1e+20
  9
$EXTMAX
 10
-1e+20
 20
-1e+20
 30
-1e+20
  9
$LIMMIN
 10
0.0
 20
0.0
  9
$LIMMAX
 10
420.0
 20
297.0
  9
$ORTHOMODE
 70
0
  9
$REGENMODE
 70
1
  9
$FILLMODE
 70
1
  9
$QTEXTMODE
 70
0
  9
$MIRRTEXT
 70
1
  9
$LTSCALE
 40
1.0
  9
$ATTMODE
 70
1
  9
$TEXTSIZE
 40
2.5
  9
$TRACEWID
 40
1.0
  9
$TEXTSTYLE
  7
Standard
  9
$CLAYER
  8
0
  9
$CELTYPE
  6
ByLayer
  9
$CECOLOR
 62
256
  9
$CELTSCALE
 40
1.0
  9
$DISPSILH
 70
0
  9
$DIMSCALE
 40
1.0
  9
$DIMASZ
 40
2.5
  9
$DIMEXO
 40
0.625
  9
$DIMDLI
 40
3.75
  9
$DIMRND
 40
0.0
  9
$DIMDLE
 40
0.0
  9
$DIMEXE
 40
1.25
  9
$DIMTP
 40
0.0
  9
$DIMTM
 40
0.0
  9
$DIMTXT
 40
2.5
  9
$DIMCEN
 40
2.5
  9
$DIMTSZ
 40
0.0
  9
$DIMTOL
 70
0
  9
$DIMLIM
 70
0
  9
$DIMTIH
 70
0
  9
$DIMTOH
 70
0
  9
$DIMSE1
 70
0
  9
$DIMSE2
 70
0
  9
$DIMTAD
 70
1
  9
$DIMZIN
 70
8
  9
$DIMBLK
  1

  9
$DIMASO
 70
1
  9
$DIMSHO
 70
1
  9
$DIMPOST
  1

  9
$DIMAPOST
  1

  9
$DIMALT
 70
0
  9
$DIMALTD
 70
3
  9
$DIMALTF
 40
0.03937007874
  9
$DIMLFAC
 40
1.0
  9
$DIMTOFL
 70
1
  9
$DIMTVP
 40
0.0
  9
$DIMTIX
 70
0
  9
$DIMSOXD
 70
0
  9
$DIMSAH
 70
0
  9
$DIMBLK1
  1

  9
$DIMBLK2
  1

  9
$DIMSTYLE
  2
ISO-25
  9
$DIMCLRD
 70
0
  9
$DIMCLRE
 70
0
  9
$DIMCLRT
 70
0
  9
$DIMTFAC
 40
1.0
  9
$DIMGAP
 40
0.625
  9
$DIMJUST
 70
0
  9
$DIMSD1
 70
0
  9
$DIMSD2
 70
0
  9
$DIMTOLJ
 70
0
  9
$DIMTZIN
 70
8
  9
$DIMALTZ
 70
0
  9
$DIMALTTZ
 70
0
  9
$DIMUPT
 70
0
  9
$DIMDEC
 70
2
  9
$DIMTDEC
 70
2
  9
$DIMALTU
 70
2
  9
$DIMALTTD
 70
3
  9
$DIMTXSTY
  7
Standard
  9
$DIMAUNIT
 70
0
  9
$DIMADEC
 70
0
  9
$DIMALTRND
 40
0.0
  9
$DIMAZIN
 70
0
  9
$DIMDSEP
 70
44
  9
$DIMATFIT
 70
3
  9
$DIMFRAC
 70
0
  9
$DIMLDRBLK
  1

  9
$DIMLUNIT
 70
2
  9
$DIMLWD
 70
-2
  9
$DIMLWE
 70
-2
  9
$DIMTMOVE
 70
0
  9
$DIMFXL
 40
1.0
  9
$DIMFXLON
 70
0
  9
$DIMJOGANG
 40
0.785398163397
  9
$DIMTFILL
 70
0
  9
$DIMTFILLCLR
 70
0
  9
$DIMARCSYM
 70
0
  9
$DIMLTYPE
  6

  9
$DIMLTEX1
  6

  9
$DIMLTEX2
  6

  9
$DIMTXTDIRECTION
 70
0
  9
$LUNITS
 70
2
  9
$LUPREC
 70
4
  9
$SKETCHINC
 40
1.0
  9
$FILLETRAD
 40
10.0
  9
$AUNITS
 70
0
  9
$AUPREC
 70
2
  9
$MENU
  1
.
  9
$ELEVATION
 40
0.0
  9
$PELEVATION
 40
0.0
  9
$THICKNESS
 40
0.0
  9
$LIMCHECK
 70
0
  9
$CHAMFERA
 40
0.0
  9
$CHAMFERB
 40
0.0
  9
$CHAMFERC
 40
0.0
  9
$CHAMFERD
 40
0.0
  9
$SKPOLY
 70
0
  9
$TDCREATE
 40
2461122.0063657407
  9
$TDUCREATE
 40
2458532.153996898
  9
$TDUPDATE
 40
2461122.0063657407
  9
$TDUUPDATE
 40
2458532.1544311
  9
$TDINDWG
 40
0.0
  9
$TDUSRTIMER
 40
0.0
  9
$USRTIMER
 70
1
  9
$ANGBASE
 50
0.0
  9
$ANGDIR
 70
0
  9
$PDMODE
 70
0
  9
$PDSIZE
 40
0.0
  9
$PLINEWID
 40
0.0
  9
$SPLFRAME
 70
0
  9
$SPLINETYPE
 70
6
  9
$SPLINESEGS
 70
8
  9
$HANDSEED
  5
72
  9
$SURFTAB1
 70
6
  9
$SURFTAB2
 70
6
  9
$SURFTYPE
 70
6
  9
$SURFU
 70
6
  9
$SURFV
 70
6
  9
$UCSBASE
  2

  9
$UCSNAME
  2

  9
$UCSORG
 10
0.0
 20
0.0
 30
0.0
  9
$UCSXDIR
 10
1.0
 20
0.0
 30
0.0
  9
$UCSYDIR
 10
0.0
 20
1.0
 30
0.0
  9
$UCSORTHOREF
  2

  9
$UCSORTHOVIEW
 70
0
  9
$UCSORGTOP
 10
0.0
 20
0.0
 30
0.0
  9
$UCSORGBOTTOM
 10
0.0
 20
0.0
 30
0.0
  9
$UCSORGLEFT
 10
0.0
 20
0.0
 30
0.0
  9
$UCSORGRIGHT
 10
0.0
 20
0.0
 30
0.0
  9
$UCSORGFRONT
 10
0.0
 20
0.0
 30
0.0
  9
$UCSORGBACK
 10
0.0
 20
0.0
 30
0.0
  9
$PUCSBASE
  2

  9
$PUCSNAME
  2

  9
$PUCSORG
 10
0.0
 20
0.0
 30
0.0
  9
$PUCSXDIR
 10
1.0
 20
0.0
 30
0.0
  9
$PUCSYDIR
 10
0.0
 20
1.0
 30
0.0
  9
$PUCSORTHOREF
  2

  9
$PUCSORTHOVIEW
 70
0
  9
$PUCSORGTOP
 10
0.0
 20
0.0
 30
0.0
  9
$PUCSORGBOTTOM
 10
0.0
 20
0.0
 30
0.0
  9
$PUCSORGLEFT
 10
0.0
 20
0.0
 30
0.0
  9
$PUCSORGRIGHT
 10
0.0
 20
0.0
 30
0.0
  9
$PUCSORGFRONT
 10
0.0
 20
0.0
 30
0.0
  9
$PUCSORGBACK
 10
0.0
 20
0.0
 30
0.0
  9
$USERI1
 70
0
  9
$USERI2
 70
0
  9
$USERI3
 70
0
  9
$USERI4
 70
0
  9
$USERI5
 70
0
  9
$USERR1
 40
0.0
  9
$USERR2
 40
0.0
  9
$USERR3
 40
0.0
  9
$USERR4
 40
0.0
  9
$USERR5
 40
0.0
  9
$WORLDVIEW
 70
1
  9
$SHADEDGE
 70
3
  9
$SHADEDIF
 70
70
  9
$TILEMODE
 70
1
  9
$MAXACTVP
 70
64
  9
$PINSBASE
 10
0.0
 20
0.0
 30
0.0
  9
$PLIMCHECK
 70
0
  9
$PEXTMIN
 10
1e+20
 20
1e+20
 30
1e+20
  9
$PEXTMAX
 10
-1e+20
 20
-1e+20
 30
-1e+20
  9
$PLIMMIN
 10
0.0
 20
0.0
  9
$PLIMMAX
 10
420.0
 20
297.0
  9
$UNITMODE
 70
0
  9
$VISRETAIN
 70
1
  9
$PLINEGEN
 70
0
  9
$PSLTSCALE
 70
1
  9
$TREEDEPTH
 70
3020
  9
$CMLSTYLE
  2
Standard
  9
$CMLJUST
 70
0
  9
$CMLSCALE
 40
20.0
  9
$PROXYGRAPHICS
 70
1
  9
$MEASUREMENT
 70
1
  9
$CELWEIGHT
370
-1
  9
$ENDCAPS
280
0
  9
$JOINSTYLE
280
0
  9
$LWDISPLAY
290
0
  9
$INSUNITS
 70
1
  9
$HYPERLINKBASE
  1

  9
$STYLESHEET
  1

  9
$XEDIT
290
1
  9
$CEPSNTYPE
380
0
  9
$PSTYLEMODE
290
1
  9
$FINGERPRINTGUID
  2
{CAD0589B-761B-40E0-AB37-4DD9F43CD955}
  9
$VERSIONGUID
  2
{0B7B3FFA-2F20-4D28-A25F-5533DACA0347}
  9
$EXTNAMES
290
1
  9
$PSVPSCALE
 40
0.0
  9
$OLESTARTUP
290
0
  9
$SORTENTS
280
127
  9
$INDEXCTL
280
0
  9
$HIDETEXT
280
1
  9
$XCLIPFRAME
280
1
  9
$HALOGAP
280
0
  9
$OBSCOLOR
 70
257
  9
$OBSLTYPE
280
0
  9
$INTERSECTIONDISPLAY
280
0
  9
$INTERSECTIONCOLOR
 70
257
  9
$DIMASSOC
280
2
  9
$PROJECTNAME
  1

  9
$CAMERADISPLAY
290
0
  9
$LENSLENGTH
 40
50.0
  9
$CAMERAHEIGHT
 40
0.0
  9
$STEPSPERSEC
 40
24.0
  9
$STEPSIZE
 40
100.0
  9
$3DDWFPREC
 40
2.0
  9
$PSOLWIDTH
 40
0.005
  9
$PSOLHEIGHT
 40
0.08
  9
$LOFTANG1
 40
1.570796326795
  9
$LOFTANG2
 40
1.570796326795
  9
$LOFTMAG1
 40
0.0
  9
$LOFTMAG2
 40
0.0
  9
$LOFTPARAM
 70
7
  9
$LOFTNORMALS
280
1
  9
$LATITUDE
 40
37.795
  9
$LONGITUDE
 40
-122.394
  9
$NORTHDIRECTION
 40
0.0
  9
$TIMEZONE
 70
-8000
  9
$LIGHTGLYPHDISPLAY
280
1
  9
$TILEMODELIGHTSYNCH
280
1
  9
$CMATERIAL
347
20
  9
$SOLIDHIST
280
0
  9
$SHOWHIST
280
1
  9
$DWFFRAME
280
2
  9
$DGNFRAME
280
2
  9
$REALWORLDSCALE
290
1
  9
$INTERFERECOLOR
 62
256
  9
$CSHADOW
280
0
  9
$SHADOWPLANELOCATION
 40
0.0
  0
ENDSEC
  0
SECTION
  2
CLASSES
  0
CLASS
  1
ACDBDICTIONARYWDFLT
  2
AcDbDictionaryWithDefault
  3
ObjectDBX Classes
 90
0
 91
0
280
0
281
0
  0
CLASS
  1
SUN
  2
AcDbSun
  3
SCENEOE
 90
1153
 91
0
280
0
281
0
  0
CLASS
  1
VISUALSTYLE
  2
AcDbVisualStyle
  3
ObjectDBX Classes
 90
4095
 91
0
280
0
281
0
  0
CLASS
  1
MATERIAL
  2
AcDbMaterial
  3
ObjectDBX Classes
 90
1153
 91
0
280
0
281
0
  0
CLASS
  1
SCALE
  2
AcDbScale
  3
ObjectDBX Classes
 90
1153
 91
0
280
0
281
0
  0
CLASS
  1
TABLESTYLE
  2
AcDbTableStyle
  3
ObjectDBX Classes
 90
4095
 91
0
280
0
281
0
  0
CLASS
  1
MLEADERSTYLE
  2
AcDbMLeaderStyle
  3
ACDB_MLEADERSTYLE_CLASS
 90
4095
 91
0
280
0
281
0
  0
CLASS
  1
DICTIONARYVAR
  2
AcDbDictionaryVar
  3
ObjectDBX Classes
 90
0
 91
0
280
0
281
0
  0
CLASS
  1
CELLSTYLEMAP
  2
AcDbCellStyleMap
  3
ObjectDBX Classes
 90
1152
 91
0
280
0
281
0
  0
CLASS
  1
MENTALRAYRENDERSETTINGS
  2
AcDbMentalRayRenderSettings
  3
SCENEOE
 90
1024
 91
0
280
0
281
0
  0
CLASS
  1
ACDBDETAILVIEWSTYLE
  2
AcDbDetailViewStyle
  3
ObjectDBX Classes
 90
1025
 91
0
280
0
281
0
  0
CLASS
  1
ACDBSECTIONVIEWSTYLE
  2
AcDbSectionViewStyle
  3
ObjectDBX Classes
 90
1025
 91
0
280
0
281
0
  0
CLASS
  1
RASTERVARIABLES
  2
AcDbRasterVariables
  3
ISM
 90
0
 91
0
280
0
281
0
  0
CLASS
  1
ACDBPLACEHOLDER
  2
AcDbPlaceHolder
  3
ObjectDBX Classes
 90
0
 91
0
280
0
281
0
  0
CLASS
  1
LAYOUT
  2
AcDbLayout
  3
ObjectDBX Classes
 90
0
 91
0
280
0
281
0
  0
ENDSEC
  0
SECTION
  2
TABLES
  0
TABLE
  2
VPORT
  5
8
330
0
100
AcDbSymbolTable
 70
1
  0
VPORT
  5
23
330
8
100
AcDbSymbolTableRecord
100
AcDbViewportTableRecord
  2
*Active
 70
0
 10
0.0
 20
0.0
 11
1.0
 21
1.0
 12
0.0
 22
0.0
 13
0.0
 23
0.0
 14
0.5
 24
0.5
 15
0.5
 25
0.5
 16
0.0
 26
0.0
 36
1.0
 17
0.0
 27
0.0
 37
0.0
 40
1000.0
 41
1.34
 42
50.0
 43
0.0
 44
0.0
 50
0.0
 51
0.0
 71
0
 72
1000
 73
1
 74
3
 75
0
 76
0
 77
0
 78
0
281
0
 65
0
146
0.0
  0
ENDTAB
  0
TABLE
  2
LTYPE
  5
2
330
0
100
AcDbSymbolTable
 70
3
  0
LTYPE
  5
24
330
2
100
AcDbSymbolTableRecord
100
AcDbLinetypeTableRecord
  2
ByBlock
 70
0
  3

 72
65
 73
0
 40
0.0
  0
LTYPE
  5
25
330
2
100
AcDbSymbolTableRecord
100
AcDbLinetypeTableRecord
  2
ByLayer
 70
0
  3

 72
65
 73
0
 40
0.0
  0
LTYPE
  5
26
330
2
100
AcDbSymbolTableRecord
100
AcDbLinetypeTableRecord
  2
Continuous
 70
0
  3

 72
65
 73
0
 40
0.0
  0
ENDTAB
  0
TABLE
  2
LAYER
  5
1
330
0
100
AcDbSymbolTable
 70
2
  0
LAYER
  5
27
330
1
100
AcDbSymbolTableRecord
100
AcDbLayerTableRecord
  2
0
 70
0
 62
7
  6
Continuous
370
-3
390
13
347
21
  0
LAYER
  5
28
330
1
100
AcDbSymbolTableRecord
100
AcDbLayerTableRecord
  2
Defpoints
 70
0
 62
7
  6
Continuous
290
0
370
-3
390
13
347
21
  0
ENDTAB
  0
TABLE
  2
STYLE
  5
5
330
0
100
AcDbSymbolTable
 70
1
  0
STYLE
  5
29
330
5
100
AcDbSymbolTableRecord
100
AcDbTextStyleTableRecord
  2
Standard
 70
0
 40
0.0
 41
1.0
 50
0.0
 71
0
 42
2.5
  3
txt
  4

  0
ENDTAB
  0
TABLE
  2
VIEW
  5
7
330
0
100
AcDbSymbolTable
 70
0
  0
ENDTAB
  0
TABLE
  2
UCS
  5
6
330
0
100
AcDbSymbolTable
 70
0
  0
ENDTAB
  0
TABLE
  2
APPID
  5
3
330
0
100
AcDbSymbolTable
 70
3
  0
APPID
  5
2A
330
3
100
AcDbSymbolTableRecord
100
AcDbRegAppTableRecord
  2
ACAD
 70
0
  0
APPID
  5
6F
330
3
100
AcDbSymbolTableRecord
100
AcDbRegAppTableRecord
  2
HATCHBACKGROUNDCOLOR
 70
0
  0
APPID
  5
70
330
3
100
AcDbSymbolTableRecord
100
AcDbRegAppTableRecord
  2
EZDXF
 70
0
  0
ENDTAB
  0
TABLE
  2
DIMSTYLE
  5
4
330
0
100
AcDbSymbolTable
 70
1
100
AcDbDimStyleTable
  0
DIMSTYLE
105
2B
330
4
100
AcDbSymbolTableRecord
100
AcDbDimStyleTableRecord
  2
Standard
 70
0
 40
1.0
 41
2.5
 42
0.625
 43
3.75
 44
1.25
 45
0.0
 46
0.0
 47
0.0
 48
0.0
 49
2.5
140
2.5
141
2.5
142
0.0
143
0.03937007874
144
1.0
145
0.0
146
1.0
147
0.625
148
0.0
 69
0
 70
0
 71
0
 72
0
 73
0
 74
0
 75
0
 76
0
 77
1
 78
8
 79
3
170
0
171
3
172
1
173
0
174
0
175
0
176
0
177
0
178
0
179
2
271
2
272
2
273
2
274
3
275
0
276
0
277
2
278
44
279
0
280
0
281
0
282
0
283
0
284
8
285
0
286
0
288
0
289
3
290
0
371
-2
372
-2
  0
ENDTAB
  0
TABLE
  2
BLOCK_RECORD
  5
9
330
0
100
AcDbSymbolTable
 70
2
  0
BLOCK_RECORD
  5
17
330
9
100
AcDbSymbolTableRecord
100
AcDbBlockTableRecord
  2
*Model_Space
340
1A
 70
0
280
1
281
0
  0
BLOCK_RECORD
  5
1B
330
9
100
AcDbSymbolTableRecord
100
AcDbBlockTableRecord
  2
*Paper_Space
340
1E
 70
0
280
1
281
0
  0
ENDTAB
  0
ENDSEC
  0
SECTION
  2
BLOCKS
  0
BLOCK
  5
18
330
17
100
AcDbEntity
  8
0
100
AcDbBlockBegin
  2
*Model_Space
 70
0
 10
0.0
 20
0.0
 30
0.0
  3
*Model_Space
  1

  0
ENDBLK
  5
19
330
17
100
AcDbEntity
  8
0
100
AcDbBlockEnd
  0
BLOCK
  5
1C
330
1B
100
AcDbEntity
  8
0
100
AcDbBlockBegin
  2
*Paper_Space
 70
0
 10
0.0
 20
0.0
 30
0.0
  3
*Paper_Space
  1

  0
ENDBLK
  5
1D
330
1B
100
AcDbEntity
  8
0
100
AcDbBlockEnd
  0
ENDSEC
  0
SECTION
  2
ENTITIES
  0
LWPOLYLINE
  5
2F
330
17
100
AcDbEntity
  8
PLYWOOD_BOUNDARY
 62
7
100
AcDbPolyline
 90
5
 70
0
 10
0.0
 20
0.0
 10
96.0
 20
0.0
 10
96.0
 20
48.0
 10
0.0
 20
48.0
 10
0.0
 20
0.0
  0
LWPOLYLINE
  5
30
330
17
100
AcDbEntity
  8
SHELF_R
 62
3
100
AcDbPolyline
 90
110
 70
1
 10
0.75
 20
23.33617429837348
 10
0.75
 20
20.77367429837348
 10
0.75
 20
20.77367429837348
 10
0.7452841574199319
 20
20.689700941295996
 10
0.7311959341363677
 20
20.606783597906244
 10
0.7079124977312756
 20
20.52596500190711
 10
0.6757266509268144
 20
20.448261494035307
 10
0.6350431494212132
 20
20.37465024098698
 10
0.5863736118510224
 20
20.30605694697944
 10
0.5303300858899107
 20
20.243344212483578
 10
0.4676173513940502
 20
20.187300686522462
 10
0.3990240573865025
 20
20.13863114895227
 10
0.32541280433816866
 20
20.097947647446674
 10
0.2477092964663754
 20
20.065761800642207
 10
0.16689070046723586
 20
20.042478364237112
 10
0.08397335707748099
 20
20.028390140953547
 10
1.1102230246251565e-16
 20
20.02367429837348
 10
0.0
 20
19.39867429837348
 10
0.0
 20
19.39867429837348
 10
0.13857465088649068
 20
19.102162612730282
 10
0.29625138211428226
 20
18.815352288612402
 10
0.47235456709484414
 20
18.539472275144618
 10
0.666129624012767
 20
18.275704686332546
 10
0.8767462491217168
 20
18.02517973584058
 10
1.1033019745001278
 20
17.788970894156904
 10
1.3448260350220522
 20
17.56809028889632
 10
1.6002835279736383
 20
17.363484367950292
 10
1.8685798474917772
 20
17.176029844067024
 10
2.148565374823849
 20
17.006529938238543
 10
2.439040404311341
 20
16.855710937991482
 10
2.7387602839900866
 20
16.72421908532889
 10
3.046440748780224
 20
16.612617807657855
 10
3.360763423413792
 20
16.521385303568124
 10
3.6803814715205334
 20
16.45091249380635
 10
4.003925366666243
 20
16.401501346225828
 10
4.330008760615419
 20
16.37336358188911
 10
4.657234423673388
 20
16.36661976786769
 10
4.984200231654225
 20
16.38129880062604
 10
4.9842002317402745
 20
16.381298799519406
 10
5.456634206161171
 20
16.425234111552363
 10
5.929068180582068
 20
16.483086744902145
 10
6.401502155002965
 20
16.553972828488078
 10
6.873936129423862
 20
16.63680936650381
 10
7.346370103844759
 20
16.73033078440009
 10
7.818804078265655
 20
16.833108264300954
 10
8.291238052686552
 20
16.94357157444737
 10
8.76367202710745
 20
17.06003305915869
 10
9.236106001528347
 20
17.180713422793765
 10
9.708539975949243
 20
17.3037689137851
 10
10.180973950370142
 20
17.427319493429053
 10
10.653407924791036
 20
17.549477559069977
 10
11.125841899211935
 20
17.66837678284621
 10
11.598275873632831
 20
17.78220062540035
 10
12.070709848053728
 20
17.889210088921914
 10
12.543143822474626
 20
17.987770285512326
 10
13.015577796895522
 20
18.076375414961177
 10
13.488011771316419
 20
18.153671770324024
 10
13.960445745737315
 20
18.218478419823157
 10
14.432879720158212
 20
18.26980524909368
 10
14.90531369457911
 20
18.306868088125896
 10
15.377747669000007
 20
18.32910069179505
 10
15.850181643420903
 20
18.336163390940158
 10
16.322615617841798
 20
18.32794828182088
 10
16.795049592262696
 20
18.304580874668233
 10
17.267483566683595
 20
18.266418176142338
 10
17.73991754110449
 20
18.21404323499368
 10
18.212351515525388
 20
18.148256234258966
 10
18.684785489946286
 20
18.070062266084648
 10
19.15721946436718
 20
17.980655975954463
 10
19.62965343878808
 20
17.881403310925606
 10
20.102087413208977
 20
17.77382065072395
 10
20.574521387629872
 20
17.659551640532555
 10
21.04695536205077
 20
17.540342079421883
 10
21.519389336471665
 20
17.41801324807536
 10
21.991823310892563
 20
17.294434083308808
 10
22.46425728531346
 20
17.171492624500658
 10
22.936691259734356
 20
17.051067168173724
 10
23.409125234155255
 20
16.934997571428042
 10
23.88155920857615
 20
16.825057142650245
 10
24.353993182997048
 20
16.722925548952567
 10
24.826427157417946
 20
16.630163154260828
 10
25.29886113183884
 20
16.54818718011351
 10
25.77129510625974
 20
16.478250053386695
 10
26.243729080680634
 20
16.421420271747635
 10
26.716163055101532
 20
16.378566079174227
 10
27.18859702952243
 20
16.35034220094532
 10
27.661031003943325
 20
16.337179840764286
 10
28.133464978364223
 20
16.339280092839708
 10
28.133464978364223
 20
16.339280092839715
 10
28.278003093238738
 20
16.338777423613045
 10
28.42234923999531
 20
16.33131356104998
 10
28.566168350821172
 20
16.316905830864854
 10
28.709126581301497
 20
16.295587677432508
 10
28.850892085365704
 20
16.267408586154552
 10
28.99113578559511
 20
16.23243396858988
 10
29.129532137103716
 20
16.190745010616148
 10
29.265759883219033
 20
16.14243848397461
 10
29.399502801208737
 20
16.087626521635805
 10
29.530450436322138
 20
16.026436357507592
 10
29.65829882244258
 20
15.959010031089582
 10
29.78275118767788
 20
15.88550405775973
 10
29.903518643250962
 20
15.806089065458314
 10
30.020320854091572
 20
15.720949398612737
 10
30.132886689572448
 20
15.630282690222492
 10
30.24095485287942
 20
15.53429940309766
 10
30.34427448755443
 20
15.43322234131581
 10
30.44260575980362
 20
15.327286133031363
 10
30.535720415218687
 20
15.216736685837978
 10
30.535720415218687
 20
23.33617429837348
 10
0.75
 20
23.33617429837348
  0
LWPOLYLINE
  5
31
330
17
100
AcDbEntity
  8
BRACKET_OUTLINE
 62
6
100
AcDbPolyline
 90
87
 70
1
 10
7.925
 20
23.33617429837348
 10
7.88762013756228
 20
23.291926370515796
 10
7.845373719622884
 20
23.252298433314223
 10
7.798827715625457
 20
23.217822314805403
 10
7.748606797749979
 20
23.18896070287353
 10
7.695384957479186
 20
23.166100935732274
 10
7.639876460273681
 20
23.149549803639616
 10
7.582826259748783
 20
23.13952943160905
 10
7.525
 20
23.136174298373476
 10
6.725
 20
23.136174298373476
 10
6.7250000000000005
 20
19.489727688966752
 10
6.741475918044047
 20
19.471549314711027
 10
6.756090707778999
 20
19.451843551925023
 10
6.768703620790452
 20
19.43080017787662
 10
6.779193187831185
 20
19.408621851761396
 10
6.7874583886364155
 20
19.385522162983733
 10
6.793419624804171
 20
19.36172357417415
 10
6.797019486371412
 20
19.337455278752515
 10
6.798223304703363
 20
19.312950993670114
 10
6.797019486371412
 20
19.288446708587728
 10
6.793419624804171
 20
19.264178413166093
 10
6.7874583886364155
 20
19.24037982435651
 10
6.779193187831185
 20
19.217280135578847
 10
6.768703620790452
 20
19.195101809463623
 10
6.756090707778999
 20
19.17405843541522
 10
6.741475918044047
 20
19.1543526726292
 10
6.7250000000000005
 20
19.136174298373476
 10
6.706821625744275
 20
19.11969838032944
 10
6.687115862958264
 20
19.105083590594475
 10
6.666072488909863
 20
19.092470677583023
 10
6.643894162794636
 20
19.0819811105423
 10
6.620794474016979
 20
19.07371590973706
 10
6.596995885207395
 20
19.06775467356931
 10
6.572727589785753
 20
19.064154812002073
 10
6.548223304703363
 20
19.062950993670114
 10
6.523719019620973
 20
19.064154812002073
 10
6.499450724199331
 20
19.06775467356931
 10
6.475652135389748
 20
19.07371590973706
 10
6.452552446612091
 20
19.0819811105423
 10
6.430374120496864
 20
19.092470677583023
 10
6.409330746448463
 20
19.105083590594475
 10
6.389624983662452
 20
19.11969838032944
 10
6.371446609406727
 20
19.136174298373476
 10
5.478553390593274
 20
19.136174298373476
 10
5.460375016337548
 20
19.11969838032944
 10
5.440669253551538
 20
19.105083590594475
 10
5.419625879503136
 20
19.092470677583023
 10
5.397447553387909
 20
19.0819811105423
 10
5.374347864610252
 20
19.07371590973706
 10
5.3505492758006685
 20
19.06775467356931
 10
5.3262809803790265
 20
19.064154812002073
 10
5.3017766952966365
 20
19.062950993670114
 10
5.2772724102142465
 20
19.064154812002073
 10
5.2530041147926045
 20
19.06775467356931
 10
5.229205525983021
 20
19.07371590973706
 10
5.206105837205365
 20
19.0819811105423
 10
5.183927511090138
 20
19.092470677583023
 10
5.162884137041736
 20
19.105083590594475
 10
5.143178374255726
 20
19.11969838032944
 10
5.125
 20
19.136174298373476
 10
5.108524081955952
 20
19.1543526726292
 10
5.093909292221
 20
19.17405843541522
 10
5.081296379209548
 20
19.195101809463623
 10
5.070806812168815
 20
19.217280135578847
 10
5.062541611363585
 20
19.24037982435651
 10
5.056580375195829
 20
19.264178413166093
 10
5.0529805136285875
 20
19.288446708587728
 10
5.0517766952966365
 20
19.312950993670114
 10
5.0529805136285875
 20
19.337455278752515
 10
5.056580375195829
 20
19.36172357417415
 10
5.062541611363585
 20
19.385522162983733
 10
5.070806812168815
 20
19.408621851761396
 10
5.081296379209548
 20
19.43080017787662
 10
5.093909292221
 20
19.451843551925023
 10
5.108524081955952
 20
19.471549314711027
 10
5.125
 20
19.489727688966752
 10
5.125
 20
23.136174298373476
 10
4.324999999999999
 20
23.136174298373476
 10
4.267173740251216
 20
23.13952943160905
 10
4.210123539726319
 20
23.149549803639616
 10
4.154615042520813
 20
23.166100935732274
 10
4.101393202250021
 20
23.18896070287353
 10
4.051172284374543
 20
23.217822314805403
 10
4.004626280377116
 20
23.252298433314223
 10
3.9623798624377193
 20
23.291926370515796
 10
3.925
 20
23.33617429837348
 10
7.925
 20
23.33617429837348
  0
LWPOLYLINE
  5
32
330
17
100
AcDbEntity
  8
BRACKET_OUTLINE
 62
6
100
AcDbPolyline
 90
87
 70
1
 10
19.425
 20
23.33617429837348
 10
19.38762013756228
 20
23.291926370515796
 10
19.345373719622884
 20
23.252298433314223
 10
19.298827715625457
 20
23.217822314805403
 10
19.24860679774998
 20
23.18896070287353
 10
19.195384957479188
 20
23.166100935732274
 10
19.139876460273683
 20
23.149549803639616
 10
19.082826259748785
 20
23.13952943160905
 10
19.025000000000002
 20
23.136174298373476
 10
18.225
 20
23.136174298373476
 10
18.225
 20
19.489727688966752
 10
18.24147591804405
 20
19.471549314711027
 10
18.256090707779002
 20
19.451843551925023
 10
18.268703620790454
 20
19.43080017787662
 10
18.279193187831186
 20
19.408621851761396
 10
18.287458388636416
 20
19.385522162983733
 10
18.293419624804173
 20
19.36172357417415
 10
18.297019486371415
 20
19.337455278752515
 10
18.298223304703363
 20
19.312950993670114
 10
18.297019486371415
 20
19.288446708587728
 10
18.293419624804173
 20
19.264178413166093
 10
18.287458388636416
 20
19.24037982435651
 10
18.279193187831186
 20
19.217280135578847
 10
18.268703620790454
 20
19.195101809463623
 10
18.256090707779002
 20
19.17405843541522
 10
18.24147591804405
 20
19.1543526726292
 10
18.225
 20
19.136174298373476
 10
18.206821625744276
 20
19.11969838032944
 10
18.187115862958265
 20
19.105083590594475
 10
18.166072488909865
 20
19.092470677583023
 10
18.143894162794638
 20
19.0819811105423
 10
18.12079447401698
 20
19.07371590973706
 10
18.096995885207395
 20
19.06775467356931
 10
18.072727589785753
 20
19.064154812002073
 10
18.048223304703363
 20
19.062950993670114
 10
18.023719019620973
 20
19.064154812002073
 10
17.99945072419933
 20
19.06775467356931
 10
17.975652135389748
 20
19.07371590973706
 10
17.952552446612092
 20
19.0819811105423
 10
17.930374120496865
 20
19.092470677583023
 10
17.909330746448465
 20
19.105083590594475
 10
17.889624983662454
 20
19.11969838032944
 10
17.87144660940673
 20
19.136174298373476
 10
16.978553390593273
 20
19.136174298373476
 10
16.96037501633755
 20
19.11969838032944
 10
16.940669253551537
 20
19.105083590594475
 10
16.919625879503137
 20
19.092470677583023
 10
16.89744755338791
 20
19.0819811105423
 10
16.874347864610254
 20
19.07371590973706
 10
16.85054927580067
 20
19.06775467356931
 10
16.82628098037903
 20
19.064154812002073
 10
16.80177669529664
 20
19.062950993670114
 10
16.77727241021425
 20
19.064154812002073
 10
16.753004114792606
 20
19.06775467356931
 10
16.729205525983023
 20
19.07371590973706
 10
16.706105837205364
 20
19.0819811105423
 10
16.68392751109014
 20
19.092470677583023
 10
16.662884137041736
 20
19.105083590594475
 10
16.643178374255726
 20
19.11969838032944
 10
16.625
 20
19.136174298373476
 10
16.608524081955956
 20
19.1543526726292
 10
16.593909292221
 20
19.17405843541522
 10
16.581296379209547
 20
19.195101809463623
 10
16.57080681216882
 20
19.217280135578847
 10
16.562541611363585
 20
19.24037982435651
 10
16.55658037519583
 20
19.264178413166093
 10
16.55298051362859
 20
19.288446708587728
 10
16.55177669529664
 20
19.312950993670114
 10
16.55298051362859
 20
19.337455278752515
 10
16.55658037519583
 20
19.36172357417415
 10
16.562541611363585
 20
19.385522162983733
 10
16.57080681216882
 20
19.408621851761396
 10
16.581296379209547
 20
19.43080017787662
 10
16.593909292221
 20
19.451843551925023
 10
16.608524081955956
 20
19.471549314711027
 10
16.625
 20
19.489727688966752
 10
16.625
 20
23.136174298373476
 10
15.825000000000001
 20
23.136174298373476
 10
15.767173740251218
 20
23.13952943160905
 10
15.71012353972632
 20
23.149549803639616
 10
15.654615042520815
 20
23.166100935732274
 10
15.601393202250021
 20
23.18896070287353
 10
15.551172284374543
 20
23.217822314805403
 10
15.504626280377117
 20
23.252298433314223
 10
15.46237986243772
 20
23.291926370515796
 10
15.425
 20
23.33617429837348
 10
19.425
 20
23.33617429837348
  0
LWPOLYLINE
  5
33
330
17
100
AcDbEntity
  8
BRACKET_OUTLINE
 62
6
100
AcDbPolyline
 90
87
 70
1
 10
28.575
 20
23.33617429837348
 10
28.53762013756228
 20
23.291926370515796
 10
28.495373719622883
 20
23.252298433314223
 10
28.448827715625455
 20
23.217822314805403
 10
28.398606797749977
 20
23.18896070287353
 10
28.345384957479187
 20
23.166100935732274
 10
28.289876460273682
 20
23.149549803639616
 10
28.232826259748784
 20
23.13952943160905
 10
28.175
 20
23.136174298373476
 10
27.375
 20
23.136174298373476
 10
27.375
 20
19.489727688966752
 10
27.391475918044048
 20
19.471549314711027
 10
27.406090707779
 20
19.451843551925023
 10
27.418703620790453
 20
19.43080017787662
 10
27.429193187831185
 20
19.408621851761396
 10
27.437458388636415
 20
19.385522162983733
 10
27.44341962480417
 20
19.36172357417415
 10
27.447019486371413
 20
19.337455278752515
 10
27.44822330470336
 20
19.312950993670114
 10
27.447019486371413
 20
19.288446708587728
 10
27.44341962480417
 20
19.264178413166093
 10
27.437458388636415
 20
19.24037982435651
 10
27.429193187831185
 20
19.217280135578847
 10
27.418703620790453
 20
19.195101809463623
 10
27.406090707779
 20
19.17405843541522
 10
27.391475918044048
 20
19.1543526726292
 10
27.375
 20
19.136174298373476
 10
27.356821625744274
 20
19.11969838032944
 10
27.337115862958264
 20
19.105083590594475
 10
27.316072488909864
 20
19.092470677583023
 10
27.293894162794636
 20
19.0819811105423
 10
27.270794474016977
 20
19.07371590973706
 10
27.246995885207394
 20
19.06775467356931
 10
27.22272758978575
 20
19.064154812002073
 10
27.19822330470336
 20
19.062950993670114
 10
27.17371901962097
 20
19.064154812002073
 10
27.14945072419933
 20
19.06775467356931
 10
27.125652135389746
 20
19.07371590973706
 10
27.10255244661209
 20
19.0819811105423
 10
27.080374120496863
 20
19.092470677583023
 10
27.059330746448463
 20
19.105083590594475
 10
27.039624983662453
 20
19.11969838032944
 10
27.021446609406727
 20
19.136174298373476
 10
26.12855339059327
 20
19.136174298373476
 10
26.11037501633755
 20
19.11969838032944
 10
26.090669253551535
 20
19.105083590594475
 10
26.069625879503135
 20
19.092470677583023
 10
26.047447553387908
 20
19.0819811105423
 10
26.024347864610252
 20
19.07371590973706
 10
26.00054927580067
 20
19.06775467356931
 10
25.976280980379027
 20
19.064154812002073
 10
25.951776695296637
 20
19.062950993670114
 10
25.927272410214247
 20
19.064154812002073
 10
25.903004114792605
 20
19.06775467356931
 10
25.87920552598302
 20
19.07371590973706
 10
25.856105837205362
 20
19.0819811105423
 10
25.83392751109014
 20
19.092470677583023
 10
25.812884137041735
 20
19.105083590594475
 10
25.793178374255724
 20
19.11969838032944
 10
25.775
 20
19.136174298373476
 10
25.75852408195595
 20
19.1543526726292
 10
25.743909292221
 20
19.17405843541522
 10
25.731296379209546
 20
19.195101809463623
 10
25.720806812168814
 20
19.217280135578847
 10
25.712541611363584
 20
19.24037982435651
 10
25.706580375195827
 20
19.264178413166093
 10
25.70298051362859
 20
19.288446708587728
 10
25.701776695296637
 20
19.312950993670114
 10
25.70298051362859
 20
19.337455278752515
 10
25.706580375195827
 20
19.36172357417415
 10
25.712541611363584
 20
19.385522162983733
 10
25.720806812168814
 20
19.408621851761396
 10
25.731296379209546
 20
19.43080017787662
 10
25.743909292221
 20
19.451843551925023
 10
25.75852408195595
 20
19.471549314711027
 10
25.775
 20
19.489727688966752
 10
25.775
 20
23.136174298373476
 10
24.974999999999998
 20
23.136174298373476
 10
24.917173740251215
 20
23.13952943160905
 10
24.86012353972632
 20
23.149549803639616
 10
24.804615042520812
 20
23.166100935732274
 10
24.75139320225002
 20
23.18896070287353
 10
24.701172284374543
 20
23.217822314805403
 10
24.654626280377116
 20
23.252298433314223
 10
24.61237986243772
 20
23.291926370515796
 10
24.575
 20
23.33617429837348
 10
28.575
 20
23.33617429837348
  0
LINE
  5
34
330
17
100
AcDbEntity
  8
BRACKET_CUT_LINE
 62
4
100
AcDbLine
 10
5.125
 20
23.136174298373476
 30
0.0
 11
6.725
 21
23.136174298373476
 31
0.0
  0
LINE
  5
35
330
17
100
AcDbEntity
  8
BRACKET_CUT_LINE
 62
4
100
AcDbLine
 10
16.625
 20
23.136174298373476
 30
0.0
 11
18.225
 21
23.136174298373476
 31
0.0
  0
LINE
  5
36
330
17
100
AcDbEntity
  8
BRACKET_CUT_LINE
 62
4
100
AcDbLine
 10
25.775
 20
23.136174298373476
 30
0.0
 11
27.375
 21
23.136174298373476
 31
0.0
  0
LWPOLYLINE
  5
37
330
17
100
AcDbEntity
  8
SHELF_R
 62
3
100
AcDbPolyline
 90
110
 70
1
 10
29.392860207609345
 20
9.667971606397364
 10
0.3928602076093455
 20
9.667971606397364
 10
0.3928602076093455
 20
12.82862449881039
 10
0.3928602076093455
 20
12.82862449881039
 10
0.4000450371409521
 20
13.03612716244207
 10
0.42156511121883966
 20
13.242635911896718
 10
0.4573173511338382
 20
13.447161593733261
 10
0.5071305077198396
 20
13.648724553179134
 10
0.5707659816178392
 20
13.846359326565347
 10
0.6479189661397591
 20
14.039119265787688
 10
0.7382199072578395
 20
14.226081072643607
 10
0.8412362737264232
 20
14.406349221325653
 10
0.9564746288574852
 20
14.579060247888306
 10
1.0833829940262802
 20
14.743386886142202
 10
1.2213534925862213
 20
14.89854203016508
 10
1.3697252615289521
 20
15.043782504449778
 10
1.52778761694303
 20
15.17841262363042
 10
1.694783458109118
 20
15.301787524736246
 10
1.8699128939263687
 20
15.413316256011973
 10
2.0523370742999028
 20
15.512464607509534
 10
2.2411822081374417
 20
15.598757669893038
 10
2.435543748709321
 20
15.671782109200484
 10
2.634490726324529
 20
15.731188146666502
 10
2.6344907263245645
 20
15.731188146666367
 10
3.0920460704867985
 20
15.849997556210509
 10
3.549601414649036
 20
15.966198179783417
 10
4.00715675881127
 20
16.07812463639442
 10
4.4647121029735075
 20
16.18417280218032
 10
4.9222674471357415
 20
16.28282280062097
 10
5.3798227912979755
 20
16.37266078532656
 10
5.837378135460213
 20
16.45239920320686
 10
6.294933479622447
 20
16.520895247611783
 10
6.752488823784681
 20
16.577167236973878
 10
7.2100441679469185
 20
16.62040868421495
 10
7.6675995121091525
 20
16.6499998552748
 10
8.12515485627139
 20
16.66551665110594
 10
8.582710200433624
 20
16.666736685837975
 10
9.040265544595862
 20
16.653642473999774
 10
9.497820888758095
 20
16.626421681120235
 10
9.95537623292033
 20
16.585464434116233
 10
10.412931577082567
 20
16.531357730014918
 10
10.870486921244801
 20
16.464877023144396
 10
11.328042265407035
 20
16.386975111364627
 10
11.785597609569272
 20
16.298768480620588
 10
12.243152953731506
 20
16.20152130352662
 10
12.70070829789374
 20
16.096627321313605
 10
13.158263642055978
 20
15.985589868805759
 10
13.615818986218216
 20
15.870000328708043
 10
14.07337433038045
 20
15.751515323996115
 10
14.530929674542683
 20
15.631832975286356
 10
14.98848501870492
 20
15.512668563463953
 10
15.446040362867155
 20
15.395729946370876
 10
15.90359570702939
 20
15.282693081880621
 10
16.361151051191626
 20
15.175178008161465
 10
16.81870639535386
 20
15.074725625377935
 10
17.276261739516094
 20
14.982775611593807
 10
17.733817083678332
 20
14.900645789384717
 10
18.19137242784057
 20
14.829513238876983
 10
18.648927772002803
 20
14.770397427899516
 10
19.106483116165037
 20
14.724145601026619
 10
19.56403846032727
 20
14.691420636914911
 10
20.02159380448951
 20
14.672691547962783
 10
20.479149148651743
 20
14.668226758450187
 10
20.93670449281398
 20
14.678090257496548
 10
21.394259836976214
 20
14.702140681972251
 10
21.85181518113845
 20
14.740033342507244
 10
22.309370525300686
 20
14.791225163560275
 10
22.76692586946292
 20
14.854982466747883
 10
23.224481213625157
 20
14.930391485882948
 10
23.68203655778739
 20
15.016371463021732
 10
24.139591901949625
 20
15.111690137827756
 10
24.597147246111863
 20
15.214981408259588
 10
25.054702590274097
 20
15.324764909470735
 10
25.05470259038618
 20
15.324764909014915
 10
25.34642926151634
 20
15.387332721859734
 10
25.641368441944742
 20
15.432388927881673
 10
25.938469921889862
 20
15.459773092416844
 10
26.236675792124814
 20
15.469387706828341
 10
26.534924210945928
 20
15.461198535711807
 10
26.8321531851439
 20
15.435234738799762
 10
27.12730435151449
 20
15.391588767130555
 10
27.419326745443566
 20
15.330416033851767
 10
27.707180543147523
 20
15.251934360830111
 10
27.989840764243766
 20
15.156423203038505
 10
28.266300921467316
 20
15.044222653481922
 10
28.535576604537738
 20
14.91573223220537
 10
28.79670898541504
 20
14.771409463695965
 10
29.048768232463186
 20
14.611768247744733
 10
29.29085682136414
 20
14.437377029569005
 10
29.52211273099312
 20
14.248856775711372
 10
29.741712512875157
 20
14.046878762922288
 10
29.948874223293537
 20
13.832162187899767
 10
30.142860207609345
 20
13.605471606397371
 10
30.142860207609345
 20
12.980471606397371
 10
30.142860207609345
 20
12.980471606397371
 10
30.058886850531863
 20
12.975755763817302
 10
29.97596950714211
 20
12.961667540533737
 10
29.89515091114297
 20
12.93838410412865
 10
29.817447403271178
 20
12.906198257324183
 10
29.743836150222844
 20
12.865514755818586
 10
29.675242856215295
 20
12.816845218248394
 10
29.612530121719434
 20
12.760801692287279
 10
29.556486595758322
 20
12.698088957791418
 10
29.50781705818813
 20
12.629495663783876
 10
29.46713355668253
 20
12.555884410735542
 10
29.43494770987807
 20
12.478180902863746
 10
29.41166427347298
 20
12.397362306864606
 10
29.397576050189414
 20
12.314444963474854
 10
29.392860207609345
 20
12.230471606397371
 10
29.392860207609345
 20
9.667971606397364
  0
LWPOLYLINE
  5
38
330
17
100
AcDbEntity
  8
BRACKET_OUTLINE
 62
6
100
AcDbPolyline
 90
87
 70
1
 10
22.217860207609345
 20
9.667971606397364
 10
22.255240070047066
 20
9.712219534255054
 10
22.29748648798646
 20
9.751847471456626
 10
22.34403249198389
 20
9.78632358996544
 10
22.394253409859367
 20
9.81518520189732
 10
22.44747525013016
 20
9.838044969038576
 10
22.502983747335666
 20
9.854596101131227
 10
22.56003394786056
 20
9.864616473161801
 10
22.617860207609347
 20
9.867971606397367
 10
23.417860207609344
 20
9.867971606397367
 10
23.417860207609344
 20
13.514418215804097
 10
23.4013842895653
 20
13.532596590059823
 10
23.386769499830347
 20
13.55230235284584
 10
23.37415658681889
 20
13.573345726894244
 10
23.363667019778163
 20
13.595524053009468
 10
23.35540181897293
 20
13.618623741787117
 10
23.349440582805173
 20
13.6424223305967
 10
23.345840721237934
 20
13.66669062601835
 10
23.344636902905982
 20
13.691194911100736
 10
23.345840721237934
 20
13.715699196183122
 10
23.349440582805173
 20
13.739967491604771
 10
23.35540181897293
 20
13.763766080414355
 10
23.363667019778163
 20
13.786865769192017
 10
23.37415658681889
 20
13.809044095307241
 10
23.386769499830347
 20
13.830087469355645
 10
23.4013842895653
 20
13.849793232141648
 10
23.417860207609344
 20
13.867971606397374
 10
23.43603858186507
 20
13.884447524441425
 10
23.45574434465108
 20
13.899062314176374
 10
23.476787718699484
 20
13.911675227187827
 10
23.498966044814708
 20
13.922164794228562
 10
23.522065733592367
 20
13.930429995033789
 10
23.54586432240195
 20
13.936391231201538
 10
23.570132617823592
 20
13.939991092768791
 10
23.594636902905982
 20
13.941194911100736
 10
23.619141187988372
 20
13.939991092768791
 10
23.643409483410014
 20
13.936391231201538
 10
23.667208072219598
 20
13.930429995033789
 10
23.690307760997253
 20
13.922164794228562
 10
23.71248608711248
 20
13.911675227187827
 10
23.733529461160884
 20
13.899062314176374
 10
23.753235223946895
 20
13.884447524441425
 10
23.77141359820262
 20
13.867971606397374
 10
24.664306817016072
 20
13.867971606397374
 10
24.682485191271798
 20
13.884447524441425
 10
24.70219095405781
 20
13.899062314176374
 10
24.72323432810621
 20
13.911675227187827
 10
24.745412654221436
 20
13.922164794228562
 10
24.768512342999095
 20
13.930429995033789
 10
24.79231093180868
 20
13.936391231201538
 10
24.81657922723032
 20
13.939991092768791
 10
24.841083512312707
 20
13.941194911100736
 10
24.8655877973951
 20
13.939991092768791
 10
24.889856092816743
 20
13.936391231201538
 10
24.913654681626326
 20
13.930429995033789
 10
24.936754370403982
 20
13.922164794228562
 10
24.958932696519206
 20
13.911675227187827
 10
24.97997607056761
 20
13.899062314176374
 10
24.99968183335362
 20
13.884447524441425
 10
25.017860207609345
 20
13.867971606397374
 10
25.034336125653393
 20
13.849793232141648
 10
25.048950915388346
 20
13.830087469355645
 10
25.061563828399798
 20
13.809044095307241
 10
25.07205339544053
 20
13.786865769192017
 10
25.08031859624576
 20
13.763766080414355
 10
25.086279832413517
 20
13.739967491604771
 10
25.08987969398076
 20
13.715699196183122
 10
25.091083512312707
 20
13.691194911100736
 10
25.08987969398076
 20
13.66669062601835
 10
25.086279832413517
 20
13.6424223305967
 10
25.08031859624576
 20
13.618623741787117
 10
25.07205339544053
 20
13.595524053009468
 10
25.061563828399798
 20
13.573345726894244
 10
25.048950915388346
 20
13.55230235284584
 10
25.034336125653393
 20
13.532596590059823
 10
25.017860207609345
 20
13.514418215804097
 10
25.017860207609345
 20
9.867971606397367
 10
25.817860207609346
 20
9.867971606397367
 10
25.87568646735813
 20
9.864616473161801
 10
25.932736667883027
 20
9.854596101131227
 10
25.988245165088532
 20
9.838044969038576
 10
26.041467005359323
 20
9.81518520189732
 10
26.0916879232348
 20
9.78632358996544
 10
26.13823392723223
 20
9.751847471456626
 10
26.180480345171627
 20
9.712219534255054
 10
26.217860207609345
 20
9.667971606397364
 10
22.217860207609345
 20
9.667971606397364
  0
LWPOLYLINE
  5
39
330
17
100
AcDbEntity
  8
BRACKET_OUTLINE
 62
6
100
AcDbPolyline
 90
87
 70
1
 10
10.717860207609345
 20
9.667971606397364
 10
10.755240070047066
 20
9.712219534255054
 10
10.797486487986461
 20
9.751847471456626
 10
10.844032491983889
 20
9.78632358996544
 10
10.894253409859367
 20
9.81518520189732
 10
10.947475250130157
 20
9.838044969038576
 10
11.002983747335662
 20
9.854596101131227
 10
11.06003394786056
 20
9.864616473161801
 10
11.117860207609343
 20
9.867971606397367
 10
11.917860207609344
 20
9.867971606397367
 10
11.917860207609344
 20
13.514418215804097
 10
11.901384289565296
 20
13.532596590059823
 10
11.886769499830343
 20
13.55230235284584
 10
11.874156586818891
 20
13.573345726894244
 10
11.863667019778159
 20
13.595524053009468
 10
11.855401818972929
 20
13.618623741787117
 10
11.849440582805173
 20
13.6424223305967
 10
11.84584072123793
 20
13.66669062601835
 10
11.844636902905982
 20
13.691194911100736
 10
11.84584072123793
 20
13.715699196183122
 10
11.849440582805173
 20
13.739967491604771
 10
11.855401818972929
 20
13.763766080414355
 10
11.863667019778159
 20
13.786865769192017
 10
11.874156586818891
 20
13.809044095307241
 10
11.886769499830343
 20
13.830087469355645
 10
11.901384289565296
 20
13.849793232141648
 10
11.917860207609344
 20
13.867971606397374
 10
11.93603858186507
 20
13.884447524441425
 10
11.95574434465108
 20
13.899062314176374
 10
11.97678771869948
 20
13.911675227187827
 10
11.998966044814708
 20
13.922164794228562
 10
12.022065733592367
 20
13.930429995033789
 10
12.04586432240195
 20
13.936391231201538
 10
12.070132617823592
 20
13.939991092768791
 10
12.094636902905982
 20
13.941194911100736
 10
12.119141187988372
 20
13.939991092768791
 10
12.143409483410014
 20
13.936391231201538
 10
12.167208072219598
 20
13.930429995033789
 10
12.190307760997253
 20
13.922164794228562
 10
12.212486087112481
 20
13.911675227187827
 10
12.233529461160881
 20
13.899062314176374
 10
12.253235223946891
 20
13.884447524441425
 10
12.271413598202617
 20
13.867971606397374
 10
13.164306817016072
 20
13.867971606397374
 10
13.182485191271795
 20
13.884447524441425
 10
13.202190954057809
 20
13.899062314176374
 10
13.223234328106209
 20
13.911675227187827
 10
13.245412654221436
 20
13.922164794228562
 10
13.268512342999092
 20
13.930429995033789
 10
13.292310931808675
 20
13.936391231201538
 10
13.316579227230317
 20
13.939991092768791
 10
13.341083512312707
 20
13.941194911100736
 10
13.365587797395097
 20
13.939991092768791
 10
13.38985609281674
 20
13.936391231201538
 10
13.413654681626323
 20
13.930429995033789
 10
13.436754370403982
 20
13.922164794228562
 10
13.458932696519206
 20
13.911675227187827
 10
13.47997607056761
 20
13.899062314176374
 10
13.49968183335362
 20
13.884447524441425
 10
13.517860207609345
 20
13.867971606397374
 10
13.53433612565339
 20
13.849793232141648
 10
13.548950915388346
 20
13.830087469355645
 10
13.561563828399798
 20
13.809044095307241
 10
13.572053395440527
 20
13.786865769192017
 10
13.58031859624576
 20
13.763766080414355
 10
13.586279832413517
 20
13.739967491604771
 10
13.589879693980755
 20
13.715699196183122
 10
13.591083512312707
 20
13.691194911100736
 10
13.589879693980755
 20
13.66669062601835
 10
13.586279832413517
 20
13.6424223305967
 10
13.58031859624576
 20
13.618623741787117
 10
13.572053395440527
 20
13.595524053009468
 10
13.561563828399798
 20
13.573345726894244
 10
13.548950915388346
 20
13.55230235284584
 10
13.53433612565339
 20
13.532596590059823
 10
13.517860207609345
 20
13.514418215804097
 10
13.517860207609345
 20
9.867971606397367
 10
14.317860207609344
 20
9.867971606397367
 10
14.375686467358127
 20
9.864616473161801
 10
14.432736667883026
 20
9.854596101131227
 10
14.48824516508853
 20
9.838044969038576
 10
14.541467005359324
 20
9.81518520189732
 10
14.591687923234803
 20
9.78632358996544
 10
14.638233927232228
 20
9.751847471456626
 10
14.680480345171626
 20
9.712219534255054
 10
14.717860207609345
 20
9.667971606397364
 10
10.717860207609345
 20
9.667971606397364
  0
LWPOLYLINE
  5
3A
330
17
100
AcDbEntity
  8
BRACKET_OUTLINE
 62
6
100
AcDbPolyline
 90
87
 70
1
 10
1.5678602076093462
 20
9.667971606397364
 10
1.605240070047067
 20
9.712219534255054
 10
1.6474864879864626
 20
9.751847471456626
 10
1.69403249198389
 20
9.78632358996544
 10
1.7442534098593683
 20
9.81518520189732
 10
1.7974752501301587
 20
9.838044969038576
 10
1.8529837473356636
 20
9.854596101131227
 10
1.910033947860562
 20
9.864616473161801
 10
1.9678602076093448
 20
9.867971606397367
 10
2.7678602076093455
 20
9.867971606397367
 10
2.7678602076093455
 20
13.514418215804097
 10
2.751384289565298
 20
13.532596590059823
 10
2.736769499830345
 20
13.55230235284584
 10
2.724156586818893
 20
13.573345726894244
 10
2.7136670197781605
 20
13.595524053009468
 10
2.7054018189729305
 20
13.618623741787117
 10
2.699440582805174
 20
13.6424223305967
 10
2.695840721237932
 20
13.66669062601835
 10
2.694636902905984
 20
13.691194911100736
 10
2.695840721237932
 20
13.715699196183122
 10
2.699440582805174
 20
13.739967491604771
 10
2.7054018189729305
 20
13.763766080414355
 10
2.7136670197781605
 20
13.786865769192017
 10
2.724156586818893
 20
13.809044095307241
 10
2.736769499830345
 20
13.830087469355645
 10
2.751384289565298
 20
13.849793232141648
 10
2.7678602076093455
 20
13.867971606397374
 10
2.7860385818650713
 20
13.884447524441425
 10
2.8057443446510817
 20
13.899062314176374
 10
2.8267877186994816
 20
13.911675227187827
 10
2.848966044814709
 20
13.922164794228562
 10
2.8720657335923683
 20
13.930429995033789
 10
2.895864322401952
 20
13.936391231201538
 10
2.920132617823594
 20
13.939991092768791
 10
2.944636902905984
 20
13.941194911100736
 10
2.969141187988374
 20
13.939991092768791
 10
2.993409483410016
 20
13.936391231201538
 10
3.0172080722195993
 20
13.930429995033789
 10
3.040307760997255
 20
13.922164794228562
 10
3.0624860871124824
 20
13.911675227187827
 10
3.0835294611608823
 20
13.899062314176374
 10
3.1032352239468928
 20
13.884447524441425
 10
3.1214135982026185
 20
13.867971606397374
 10
4.014306817016074
 20
13.867971606397374
 10
4.032485191271796
 20
13.884447524441425
 10
4.05219095405781
 20
13.899062314176374
 10
4.07323432810621
 20
13.911675227187827
 10
4.0954126542214375
 20
13.922164794228562
 10
4.118512342999093
 20
13.930429995033789
 10
4.142310931808677
 20
13.936391231201538
 10
4.166579227230319
 20
13.939991092768791
 10
4.191083512312709
 20
13.941194911100736
 10
4.215587797395099
 20
13.939991092768791
 10
4.239856092816741
 20
13.936391231201538
 10
4.263654681626324
 20
13.930429995033789
 10
4.286754370403983
 20
13.922164794228562
 10
4.308932696519207
 20
13.911675227187827
 10
4.329976070567611
 20
13.899062314176374
 10
4.349681833353621
 20
13.884447524441425
 10
4.367860207609347
 20
13.867971606397374
 10
4.384336125653395
 20
13.849793232141648
 10
4.398950915388344
 20
13.830087469355645
 10
4.4115638283997995
 20
13.809044095307241
 10
4.422053395440532
 20
13.786865769192017
 10
4.430318596245762
 20
13.763766080414355
 10
4.436279832413518
 20
13.739967491604771
 10
4.439879693980757
 20
13.715699196183122
 10
4.441083512312709
 20
13.691194911100736
 10
4.439879693980757
 20
13.66669062601835
 10
4.436279832413518
 20
13.6424223305967
 10
4.430318596245762
 20
13.618623741787117
 10
4.422053395440532
 20
13.595524053009468
 10
4.4115638283997995
 20
13.573345726894244
 10
4.398950915388344
 20
13.55230235284584
 10
4.384336125653395
 20
13.532596590059823
 10
4.367860207609347
 20
13.514418215804097
 10
4.367860207609347
 20
9.867971606397367
 10
5.167860207609348
 20
9.867971606397367
 10
5.2256864673581305
 20
9.864616473161801
 10
5.282736667883025
 20
9.854596101131227
 10
5.338245165088534
 20
9.838044969038576
 10
5.391467005359324
 20
9.81518520189732
 10
5.441687923234802
 20
9.78632358996544
 10
5.48823392723223
 20
9.751847471456626
 10
5.530480345171625
 20
9.712219534255054
 10
5.567860207609346
 20
9.667971606397364
 10
1.5678602076093462
 20
9.667971606397364
  0
LINE
  5
3B
330
17
100
AcDbEntity
  8
BRACKET_CUT_LINE
 62
4
100
AcDbLine
 10
25.017860207609345
 20
9.867971606397367
 30
0.0
 11
23.417860207609344
 21
9.867971606397367
 31
0.0
  0
LINE
  5
3C
330
17
100
AcDbEntity
  8
BRACKET_CUT_LINE
 62
4
100
AcDbLine
 10
13.517860207609345
 20
9.867971606397367
 30
0.0
 11
11.917860207609344
 21
9.867971606397367
 31
0.0
  0
LINE
  5
3D
330
17
100
AcDbEntity
  8
BRACKET_CUT_LINE
 62
4
100
AcDbLine
 10
4.367860207609347
 20
9.867971606397367
 30
0.0
 11
2.7678602076093455
 21
9.867971606397367
 31
0.0
  0
LWPOLYLINE
  5
3E
330
17
100
AcDbEntity
  8
SHELF_R
 62
3
100
AcDbPolyline
 90
110
 70
1
 10
31.785720415218687
 20
23.317505734046335
 10
60.78572041521869
 20
23.317505734046335
 10
60.78572041521869
 20
21.289169834160347
 10
60.78572041521869
 20
21.289169834160347
 10
60.77619653330975
 20
21.050313000205357
 10
60.74768535713402
 20
20.81297272910352
 10
60.70036791140815
 20
20.578655954664313
 10
60.63454462664235
 20
20.348850413747087
 10
60.550633431630615
 20
20.125015200240995
 10
60.44916709991435
 20
19.908571500906362
 10
60.33078986706756
 20
19.700893571898114
 10
60.19625334028113
 20
19.50330001326357
 10
60.04641172621744
 20
19.317045396814997
 10
59.882216407434754
 20
19.143312300533758
 10
59.70470990181711
 20
18.983203800081633
 10
59.5150192433629
 20
18.837736465092554
 10
59.31434882635901
 20
18.707833904713233
 10
59.103972758374894
 20
18.59432090337347
 10
58.88522677062918
 20
18.497918184019873
 10
58.659499737092105
 20
18.419237832062315
 10
58.42822485617102
 20
18.35877940908786
 10
58.19287055096888
 20
18.316926781017045
 10
57.954931145892004
 20
18.293945680841432
 10
57.95493114589206
 20
18.293945680840565
 10
57.472133486765145
 20
18.258953896676275
 10
56.989335827638236
 20
18.208941566850307
 10
56.50653816851133
 20
18.14470662428517
 10
56.02374050938441
 20
18.067273919765185
 10
55.540942850257494
 20
17.97787887072503
 10
55.05814519113059
 20
17.877947750505427
 10
54.575347532003676
 20
17.76907493255556
 10
54.09254987287676
 20
17.652997452644627
 10
53.60975221374986
 20
17.531567294935435
 10
53.12695455462294
 20
17.406721844088104
 10
52.644156895496025
 20
17.280452974822396
 10
52.16135923636912
 20
17.154775272106157
 10
51.678561577242206
 20
17.031693889008082
 10
51.19576391811529
 20
16.913172555033746
 10
50.71296625898839
 20
16.80110224536321
 10
50.23016859986147
 20
16.697271010863787
 10
49.747370940734555
 20
16.60333545023184
 10
49.26457328160765
 20
16.520794279417686
 10
48.78177562248074
 20
16.45096442002614
 10
48.29897796335382
 20
16.394959988195694
 10
47.81618030422692
 20
16.353674519182945
 10
47.3333826451
 20
16.327766711254128
 10
46.850584985973086
 20
16.31764991633601
 10
46.36778732684618
 20
16.3234855451
 10
45.88498966771927
 20
16.345180491699388
 10
45.40219200859235
 20
16.38238861924745
 10
44.91939434946544
 20
16.434516282335963
 10
44.43659669033853
 20
16.500731798483912
 10
43.95379903121162
 20
16.579978717401936
 10
43.47100137208471
 20
16.670992676365252
 10
42.9882037129578
 20
16.772321572772
 10
42.50540605383088
 20
16.882348732039638
 10
42.02260839470397
 20
16.999318701201744
 10
41.53981073557706
 20
17.121365256675773
 10
41.05701307645015
 20
17.246541179345364
 10
40.57421541732324
 20
17.372849321904006
 10
40.09141775819633
 20
17.498274472789298
 10
39.60862009906941
 20
17.620815508327325
 10
39.1258224399425
 20
17.738517320108734
 10
38.643024780815594
 20
17.849502008203928
 10
38.16022712168868
 20
17.951998842538273
 10
37.67742946256177
 20
18.04437251440183
 10
37.19463180343486
 20
18.125149227348622
 10
36.71183414430794
 20
18.193040211212228
 10
36.229036485181034
 20
18.24696228407823
 10
35.746238826054125
 20
18.28605513415271
 10
35.26344116692721
 20
18.3096950457996
 10
34.7806435078003
 20
18.31750485075152
 10
34.29784584867338
 20
18.30935994572541
 10
34.29784584869865
 20
18.309359944967873
 10
34.11342245810634
 20
18.306613718024565
 10
33.92902325975747
 20
18.310671353823658
 10
33.74489918060529
 20
18.321527330810838
 10
33.561300773226044
 20
18.339166876377256
 10
33.37847787487174
 20
18.363565986961795
 10
33.196679267496314
 20
18.394691460714697
 10
33.01615233921786
 20
18.432500942677976
 10
32.837142747677525
 20
18.47694298242127
 10
32.659894085753194
 20
18.527957104054614
 10
32.48464755008297
 20
18.585473888522884
 10
32.31164161284925
 20
18.649415068069935
 10
32.14111169727034
 20
18.71969363274392
 10
31.973289857240935
 20
18.796213948798744
 10
31.808404461557576
 20
18.878871888830695
 10
31.646679883158676
 20
18.967554973473057
 10
31.488336193802084
 20
19.06214252445588
 10
31.33358886459556
 20
19.162505828822724
 10
31.182648472787758
 20
19.26850831408082
 10
31.03572041521869
 20
19.380005734046335
 10
31.035720415218687
 20
20.005005734046335
 10
31.035720415218687
 20
20.005005734046335
 10
31.11969377229617
 20
20.009721576626404
 10
31.202611115685922
 20
20.02380979990997
 10
31.283429711685063
 20
20.047093236315057
 10
31.361133219556855
 20
20.079279083119523
 10
31.43474447260519
 20
20.11996258462512
 10
31.503337766612738
 20
20.168632122195312
 10
31.5660505011086
 20
20.224675648156428
 10
31.62209402706971
 20
20.28738838265229
 10
31.670763564639902
 20
20.35598167665983
 10
31.711447066145503
 20
20.429592929708164
 10
31.743632912949963
 20
20.50729643757996
 10
31.766916349355053
 20
20.5881150335791
 10
31.78100457263862
 20
20.671032376968853
 10
31.785720415218687
 20
20.755005734046335
 10
31.785720415218687
 20
23.317505734046335
  0
LWPOLYLINE
  5
3F
330
17
100
AcDbEntity
  8
BRACKET_OUTLINE
 62
6
100
AcDbPolyline
 90
87
 70
1
 10
38.96072041521869
 20
23.317505734046335
 10
38.92334055278097
 20
23.273257806188646
 10
38.881094134841575
 20
23.233629868987073
 10
38.83454813084414
 20
23.19915375047826
 10
38.78432721296866
 20
23.17029213854638
 10
38.731105372697876
 20
23.147432371405124
 10
38.67559687549237
 20
23.130881239312473
 10
38.61854667496747
 20
23.1208608672819
 10
38.56072041521869
 20
23.117505734046333
 10
37.760720415218685
 20
23.117505734046333
 10
37.760720415218685
 20
19.47105912463961
 10
37.77719633326274
 20
19.452880750383883
 10
37.791811122997686
 20
19.433174987597873
 10
37.80442403600914
 20
19.41213161354947
 10
37.814913603049874
 20
19.389953287434246
 10
37.8231788038551
 20
19.36685359865659
 10
37.82914004002286
 20
19.343055009847006
 10
37.8327399015901
 20
19.318786714425364
 10
37.83394371992205
 20
19.29428242934297
 10
37.8327399015901
 20
19.269778144260584
 10
37.82914004002286
 20
19.245509848838942
 10
37.8231788038551
 20
19.22171126002936
 10
37.814913603049874
 20
19.198611571251696
 10
37.80442403600914
 20
19.176433245136472
 10
37.791811122997686
 20
19.15538987108807
 10
37.77719633326274
 20
19.13568410830206
 10
37.760720415218685
 20
19.117505734046333
 10
37.74254204096296
 20
19.10102981600229
 10
37.72283627817695
 20
19.086415026267332
 10
37.70179290412855
 20
19.07380211325588
 10
37.67961457801332
 20
19.06331254621515
 10
37.656514889235666
 20
19.055047345409918
 10
37.63271630042608
 20
19.049086109242168
 10
37.60844800500444
 20
19.045486247674923
 10
37.58394371992205
 20
19.04428242934297
 10
37.55943943483966
 20
19.045486247674923
 10
37.53517113941802
 20
19.049086109242168
 10
37.511372550608435
 20
19.055047345409918
 10
37.48827286183078
 20
19.06331254621515
 10
37.46609453571555
 20
19.07380211325588
 10
37.44505116166715
 20
19.086415026267332
 10
37.42534539888114
 20
19.10102981600229
 10
37.407167024625416
 20
19.117505734046333
 10
36.51427380581196
 20
19.117505734046333
 10
36.496095431556235
 20
19.10102981600229
 10
36.476389668770224
 20
19.086415026267332
 10
36.45534629472182
 20
19.07380211325588
 10
36.4331679686066
 20
19.06331254621515
 10
36.41006827982894
 20
19.055047345409918
 10
36.38626969101936
 20
19.049086109242168
 10
36.362001395597716
 20
19.045486247674923
 10
36.33749711051532
 20
19.04428242934297
 10
36.312992825432936
 20
19.045486247674923
 10
36.288724530011294
 20
19.049086109242168
 10
36.26492594120171
 20
19.055047345409918
 10
36.241826252424055
 20
19.06331254621515
 10
36.219647926308824
 20
19.07380211325588
 10
36.19860455226042
 20
19.086415026267332
 10
36.17889878947442
 20
19.10102981600229
 10
36.16072041521869
 20
19.117505734046333
 10
36.14424449717464
 20
19.13568410830206
 10
36.12962970743969
 20
19.15538987108807
 10
36.11701679442824
 20
19.176433245136472
 10
36.1065272273875
 20
19.198611571251696
 10
36.098262026582276
 20
19.22171126002936
 10
36.09230079041452
 20
19.245509848838942
 10
36.088700928847274
 20
19.269778144260584
 10
36.08749711051532
 20
19.29428242934297
 10
36.088700928847274
 20
19.318786714425364
 10
36.09230079041452
 20
19.343055009847006
 10
36.098262026582276
 20
19.36685359865659
 10
36.1065272273875
 20
19.389953287434246
 10
36.11701679442824
 20
19.41213161354947
 10
36.12962970743969
 20
19.433174987597873
 10
36.14424449717464
 20
19.452880750383883
 10
36.16072041521869
 20
19.47105912463961
 10
36.16072041521869
 20
23.117505734046333
 10
35.36072041521869
 20
23.117505734046333
 10
35.3028941554699
 20
23.1208608672819
 10
35.24584395494501
 20
23.130881239312473
 10
35.1903354577395
 20
23.147432371405124
 10
35.13711361746871
 20
23.17029213854638
 10
35.08689269959323
 20
23.19915375047826
 10
35.0403466955958
 20
23.233629868987073
 10
34.998100277656405
 20
23.273257806188646
 10
34.96072041521869
 20
23.317505734046335
 10
38.96072041521869
 20
23.317505734046335
  0
LWPOLYLINE
  5
40
330
17
100
AcDbEntity
  8
BRACKET_OUTLINE
 62
6
100
AcDbPolyline
 90
87
 70
1
 10
50.46072041521869
 20
23.317505734046335
 10
50.42334055278097
 20
23.273257806188646
 10
50.381094134841575
 20
23.233629868987073
 10
50.33454813084414
 20
23.19915375047826
 10
50.28432721296866
 20
23.17029213854638
 10
50.231105372697876
 20
23.147432371405124
 10
50.175596875492374
 20
23.130881239312473
 10
50.118546674967476
 20
23.1208608672819
 10
50.06072041521869
 20
23.117505734046333
 10
49.260720415218685
 20
23.117505734046333
 10
49.260720415218685
 20
19.47105912463961
 10
49.27719633326274
 20
19.452880750383883
 10
49.291811122997686
 20
19.433174987597873
 10
49.30442403600914
 20
19.41213161354947
 10
49.314913603049874
 20
19.389953287434246
 10
49.3231788038551
 20
19.36685359865659
 10
49.329140040022864
 20
19.343055009847006
 10
49.3327399015901
 20
19.318786714425364
 10
49.33394371992205
 20
19.29428242934297
 10
49.3327399015901
 20
19.269778144260584
 10
49.329140040022864
 20
19.245509848838942
 10
49.3231788038551
 20
19.22171126002936
 10
49.314913603049874
 20
19.198611571251696
 10
49.30442403600914
 20
19.176433245136472
 10
49.291811122997686
 20
19.15538987108807
 10
49.27719633326274
 20
19.13568410830206
 10
49.260720415218685
 20
19.117505734046333
 10
49.24254204096296
 20
19.10102981600229
 10
49.222836278176956
 20
19.086415026267332
 10
49.20179290412855
 20
19.07380211325588
 10
49.17961457801333
 20
19.06331254621515
 10
49.156514889235666
 20
19.055047345409918
 10
49.13271630042608
 20
19.049086109242168
 10
49.10844800500444
 20
19.045486247674923
 10
49.08394371992205
 20
19.04428242934297
 10
49.05943943483966
 20
19.045486247674923
 10
49.03517113941802
 20
19.049086109242168
 10
49.011372550608435
 20
19.055047345409918
 10
48.98827286183078
 20
19.06331254621515
 10
48.966094535715555
 20
19.07380211325588
 10
48.94505116166715
 20
19.086415026267332
 10
48.92534539888114
 20
19.10102981600229
 10
48.907167024625416
 20
19.117505734046333
 10
48.01427380581196
 20
19.117505734046333
 10
47.99609543155624
 20
19.10102981600229
 10
47.976389668770224
 20
19.086415026267332
 10
47.95534629472182
 20
19.07380211325588
 10
47.9331679686066
 20
19.06331254621515
 10
47.91006827982894
 20
19.055047345409918
 10
47.88626969101936
 20
19.049086109242168
 10
47.862001395597716
 20
19.045486247674923
 10
47.83749711051533
 20
19.04428242934297
 10
47.812992825432936
 20
19.045486247674923
 10
47.788724530011294
 20
19.049086109242168
 10
47.76492594120171
 20
19.055047345409918
 10
47.74182625242405
 20
19.06331254621515
 10
47.719647926308824
 20
19.07380211325588
 10
47.69860455226042
 20
19.086415026267332
 10
47.67889878947442
 20
19.10102981600229
 10
47.66072041521869
 20
19.117505734046333
 10
47.64424449717464
 20
19.13568410830206
 10
47.62962970743969
 20
19.15538987108807
 10
47.61701679442824
 20
19.176433245136472
 10
47.6065272273875
 20
19.198611571251696
 10
47.598262026582276
 20
19.22171126002936
 10
47.59230079041451
 20
19.245509848838942
 10
47.588700928847274
 20
19.269778144260584
 10
47.58749711051533
 20
19.29428242934297
 10
47.588700928847274
 20
19.318786714425364
 10
47.59230079041451
 20
19.343055009847006
 10
47.598262026582276
 20
19.36685359865659
 10
47.6065272273875
 20
19.389953287434246
 10
47.61701679442824
 20
19.41213161354947
 10
47.62962970743969
 20
19.433174987597873
 10
47.64424449717464
 20
19.452880750383883
 10
47.66072041521869
 20
19.47105912463961
 10
47.66072041521869
 20
23.117505734046333
 10
46.86072041521869
 20
23.117505734046333
 10
46.80289415546991
 20
23.1208608672819
 10
46.74584395494501
 20
23.130881239312473
 10
46.6903354577395
 20
23.147432371405124
 10
46.63711361746871
 20
23.17029213854638
 10
46.58689269959323
 20
23.19915375047826
 10
46.5403466955958
 20
23.233629868987073
 10
46.498100277656405
 20
23.273257806188646
 10
46.46072041521869
 20
23.317505734046335
 10
50.46072041521869
 20
23.317505734046335
  0
LWPOLYLINE
  5
41
330
17
100
AcDbEntity
  8
BRACKET_OUTLINE
 62
6
100
AcDbPolyline
 90
87
 70
1
 10
59.61072041521869
 20
23.317505734046335
 10
59.57334055278096
 20
23.273257806188646
 10
59.53109413484157
 20
23.233629868987073
 10
59.484548130844146
 20
23.19915375047826
 10
59.43432721296867
 20
23.17029213854638
 10
59.381105372697874
 20
23.147432371405124
 10
59.325596875492366
 20
23.130881239312473
 10
59.26854667496747
 20
23.1208608672819
 10
59.21072041521869
 20
23.117505734046333
 10
58.41072041521869
 20
23.117505734046333
 10
58.41072041521869
 20
19.47105912463961
 10
58.427196333262735
 20
19.452880750383883
 10
58.44181112299769
 20
19.433174987597873
 10
58.454424036009144
 20
19.41213161354947
 10
58.46491360304987
 20
19.389953287434246
 10
58.473178803855106
 20
19.36685359865659
 10
58.479140040022855
 20
19.343055009847006
 10
58.4827399015901
 20
19.318786714425364
 10
58.48394371992205
 20
19.29428242934297
 10
58.4827399015901
 20
19.269778144260584
 10
58.479140040022855
 20
19.245509848838942
 10
58.473178803855106
 20
19.22171126002936
 10
58.46491360304987
 20
19.198611571251696
 10
58.454424036009144
 20
19.176433245136472
 10
58.44181112299769
 20
19.15538987108807
 10
58.427196333262735
 20
19.13568410830206
 10
58.41072041521869
 20
19.117505734046333
 10
58.392542040962965
 20
19.10102981600229
 10
58.37283627817695
 20
19.086415026267332
 10
58.35179290412855
 20
19.07380211325588
 10
58.32961457801332
 20
19.06331254621515
 10
58.306514889235665
 20
19.055047345409918
 10
58.28271630042608
 20
19.049086109242168
 10
58.25844800500444
 20
19.045486247674923
 10
58.23394371992205
 20
19.04428242934297
 10
58.20943943483966
 20
19.045486247674923
 10
58.18517113941802
 20
19.049086109242168
 10
58.161372550608434
 20
19.055047345409918
 10
58.13827286183078
 20
19.06331254621515
 10
58.11609453571555
 20
19.07380211325588
 10
58.09505116166715
 20
19.086415026267332
 10
58.07534539888114
 20
19.10102981600229
 10
58.057167024625414
 20
19.117505734046333
 10
57.16427380581196
 20
19.117505734046333
 10
57.14609543155623
 20
19.10102981600229
 10
57.12638966877022
 20
19.086415026267332
 10
57.105346294721826
 20
19.07380211325588
 10
57.083167968606595
 20
19.06331254621515
 10
57.06006827982894
 20
19.055047345409918
 10
57.036269691019356
 20
19.049086109242168
 10
57.012001395597714
 20
19.045486247674923
 10
56.98749711051532
 20
19.04428242934297
 10
56.962992825432934
 20
19.045486247674923
 10
56.93872453001129
 20
19.049086109242168
 10
56.91492594120171
 20
19.055047345409918
 10
56.89182625242405
 20
19.06331254621515
 10
56.86964792630883
 20
19.07380211325588
 10
56.848604552260426
 20
19.086415026267332
 10
56.82889878947441
 20
19.10102981600229
 10
56.81072041521868
 20
19.117505734046333
 10
56.79424449717464
 20
19.13568410830206
 10
56.77962970743969
 20
19.15538987108807
 10
56.76701679442823
 20
19.176433245136472
 10
56.7565272273875
 20
19.198611571251696
 10
56.74826202658227
 20
19.22171126002936
 10
56.74230079041452
 20
19.245509848838942
 10
56.73870092884728
 20
19.269778144260584
 10
56.73749711051532
 20
19.29428242934297
 10
56.73870092884728
 20
19.318786714425364
 10
56.74230079041452
 20
19.343055009847006
 10
56.74826202658227
 20
19.36685359865659
 10
56.7565272273875
 20
19.389953287434246
 10
56.76701679442823
 20
19.41213161354947
 10
56.77962970743969
 20
19.433174987597873
 10
56.79424449717464
 20
19.452880750383883
 10
56.81072041521868
 20
19.47105912463961
 10
56.81072041521868
 20
23.117505734046333
 10
56.010720415218685
 20
23.117505734046333
 10
55.952894155469906
 20
23.1208608672819
 10
55.89584395494501
 20
23.130881239312473
 10
55.8403354577395
 20
23.147432371405124
 10
55.787113617468705
 20
23.17029213854638
 10
55.73689269959323
 20
23.19915375047826
 10
55.69034669559581
 20
23.233629868987073
 10
55.64810027765641
 20
23.273257806188646
 10
55.61072041521869
 20
23.317505734046335
 10
59.61072041521869
 20
23.317505734046335
  0
LINE
  5
42
330
17
100
AcDbEntity
  8
BRACKET_CUT_LINE
 62
4
100
AcDbLine
 10
36.16072041521869
 20
23.117505734046333
 30
0.0
 11
37.760720415218685
 21
23.117505734046333
 31
0.0
  0
LINE
  5
43
330
17
100
AcDbEntity
  8
BRACKET_CUT_LINE
 62
4
100
AcDbLine
 10
47.66072041521869
 20
23.117505734046333
 30
0.0
 11
49.260720415218685
 21
23.117505734046333
 31
0.0
  0
LINE
  5
44
330
17
100
AcDbEntity
  8
BRACKET_CUT_LINE
 62
4
100
AcDbLine
 10
56.81072041521868
 20
23.117505734046333
 30
0.0
 11
58.41072041521869
 21
23.117505734046333
 31
0.0
  0
LWPOLYLINE
  5
45
330
17
100
AcDbEntity
  8
SHELF_R
 62
3
100
AcDbPolyline
 90
110
 70
1
 10
60.03572041521869
 20
9.667971606397364
 10
31.035720415218687
 20
9.667971606397364
 10
31.035720415218687
 20
12.09926296299401
 10
31.035720415218687
 20
12.09926296299401
 10
31.043515904230926
 20
12.315392934132893
 10
31.06686185816835
 20
12.530399679394959
 10
31.105636948279358
 20
12.743165810300033
 10
31.15963966070468
 20
12.952585582824367
 10
31.22858934374342
 20
13.157570643944181
 10
31.312127666397892
 20
13.357055687798384
 10
31.409820480617196
 20
13.550003992075323
 10
31.52116007756145
 20
13.73541280585106
 10
31.645567826160917
 20
13.912318560878552
 10
31.782397180257433
 20
14.079801879244782
 10
31.93093703870006
 20
14.236992351371049
 10
32.090415440932546
 20
14.383073059525158
 10
32.2600035788667
 20
14.517284823336906
 10
32.43882010419195
 20
14.638930145252884
 10
32.62593570873602
 20
14.747376835426165
 10
32.82037795407277
 20
14.842061297202312
 10
33.021136325277496
 20
14.922491456127046
 10
33.22716748256565
 20
14.988249317253617
 10
33.437400683522
 20
15.03899313745942
 10
33.43740068352204
 20
15.038993137459228
 10
33.90970236155766
 20
15.139677440193408
 10
34.3820040395933
 20
15.248428493919176
 10
34.85430571762892
 20
15.363585731992805
 10
35.32660739566455
 20
15.483390768984654
 10
35.79890907370017
 20
15.606014250223053
 10
36.27121075173581
 20
15.729583784998153
 10
36.74351242977143
 20
15.852212536901488
 10
37.21581410780706
 20
15.972028034743138
 10
37.68811578584268
 20
16.087200764120233
 10
38.16041746387832
 20
16.195972103059745
 10
38.63271914191394
 20
16.296681175174285
 10
39.10502081994957
 20
16.387790210298448
 10
39.57732249798519
 20
16.46790802536332
 10
40.04962417602083
 20
16.535811266969475
 10
40.521925854056455
 20
16.590463091296563
 10
40.99422753209208
 20
16.63102899611782
 10
41.46652921012771
 20
16.656889563173728
 10
41.93883088816334
 20
16.66764991633601
 10
42.411132566198965
 20
16.66314575114118
 10
42.88343424423459
 20
16.64344584362611
 10
43.35573592227022
 20
16.60885100015711
 10
43.82803760030585
 20
16.559889464288084
 10
44.300339278341475
 20
16.497308850782318
 10
44.7726409563771
 20
16.422064729960965
 10
45.24494263441273
 20
16.335306036688486
 10
45.71724431244836
 20
16.23835752679176
 10
46.189545990483985
 20
16.132699548793198
 10
46.66184766851961
 20
16.019945439832078
 10
47.13414934655525
 20
15.901816890925351
 10
47.60645102459087
 20
15.780117657726576
 10
48.0787527026265
 20
15.656706018204515
 10
48.55105438066212
 20
15.533466397797062
 10
49.02335605869776
 20
15.412280595308237
 10
49.49565773673338
 20
15.2949990489123
 10
49.96795941476901
 20
15.183412581016958
 10
50.44026109280463
 20
15.079225053425189
 10
50.91256277084027
 20
14.984027350336154
 10
51.38486444887589
 20
14.899273086449595
 10
51.85716612691152
 20
14.826256411097445
 10
52.32946780494714
 20
14.766092247320648
 10
52.80176948298278
 20
14.719699267629428
 10
53.2740711610184
 20
14.687785866397354
 10
53.74637283905403
 20
14.670839343082767
 10
54.21867451708965
 20
14.669118461443615
 10
54.69097619512529
 20
14.682649498362293
 10
55.16327787316091
 20
14.711225842612569
 10
55.63557955119654
 20
14.754411149695384
 10
56.10788122923216
 20
14.811546004570735
 10
56.5801829072678
 20
14.881757990549778
 10
56.580182907295026
 20
14.881757990381464
 10
56.81742641411839
 20
14.914330185041058
 10
57.05595738351572
 20
14.935505784989088
 10
57.29522866905245
 20
14.945236217270688
 10
57.53469142614415
 20
14.94349916205317
 10
57.773796371005645
 20
14.930298603823614
 10
58.01199504060759
 20
14.905664822249234
 10
58.24874105075039
 20
14.869654322721294
 10
58.48349134936969
 20
14.822349706742136
 10
58.71570746219851
 20
14.763859482452373
 10
58.94485672792871
 20
14.694317815733099
 10
59.17041352003878
 20
14.613884222453875
 10
59.39186045248483
 20
14.52274320257247
 10
59.6086895664897
 20
14.421103816925706
 10
59.820403495707474
 20
14.309199207682125
 10
60.02651660709096
 20
14.187286063556448
 10
60.22655611484511
 20
14.055644031012632
 10
60.4200631649112
 20
13.914575072805986
 10
60.60659388749415
 20
13.764402775335808
 10
60.78572041521869
 20
13.605471606397371
 10
60.78572041521869
 20
12.980471606397371
 10
60.78572041521869
 20
12.980471606397371
 10
60.70174705814121
 20
12.975755763817302
 10
60.618829714751456
 20
12.96166754053373
 10
60.53801111875231
 20
12.938384104128643
 10
60.46030761088052
 20
12.906198257324176
 10
60.386696357832186
 20
12.865514755818579
 10
60.31810306382464
 20
12.816845218248387
 10
60.255390329328776
 20
12.760801692287272
 10
60.19934680336766
 20
12.698088957791411
 10
60.15067726579747
 20
12.62949566378387
 10
60.10999376429187
 20
12.555884410735535
 10
60.07780791748741
 20
12.47818090286374
 10
60.054524481082325
 20
12.397362306864599
 10
60.04043625779876
 20
12.314444963474847
 10
60.03572041521869
 20
12.230471606397364
 10
60.03572041521869
 20
9.667971606397364
  0
LWPOLYLINE
  5
46
330
17
100
AcDbEntity
  8
BRACKET_OUTLINE
 62
6
100
AcDbPolyline
 90
87
 70
1
 10
52.86072041521869
 20
9.667971606397364
 10
52.89810027765641
 20
9.712219534255054
 10
52.94034669559581
 20
9.751847471456626
 10
52.98689269959323
 20
9.78632358996544
 10
53.037113617468705
 20
9.81518520189732
 10
53.0903354577395
 20
9.838044969038576
 10
53.14584395494501
 20
9.854596101131227
 10
53.202894155469906
 20
9.864616473161801
 10
53.260720415218685
 20
9.867971606397367
 10
54.06072041521868
 20
9.867971606397367
 10
54.06072041521868
 20
13.514418215804097
 10
54.044244497174645
 20
13.532596590059823
 10
54.02962970743969
 20
13.552302352845834
 10
54.01701679442823
 20
13.573345726894237
 10
54.00652722738751
 20
13.595524053009461
 10
53.99826202658227
 20
13.618623741787117
 10
53.99230079041452
 20
13.6424223305967
 10
53.98870092884728
 20
13.666690626018342
 10
53.98749711051532
 20
13.691194911100736
 10
53.98870092884728
 20
13.715699196183122
 10
53.99230079041452
 20
13.739967491604764
 10
53.99826202658227
 20
13.763766080414348
 10
54.00652722738751
 20
13.78686576919201
 10
54.01701679442823
 20
13.809044095307234
 10
54.02962970743969
 20
13.830087469355638
 10
54.044244497174645
 20
13.849793232141648
 10
54.06072041521868
 20
13.867971606397374
 10
54.07889878947441
 20
13.884447524441418
 10
54.098604552260426
 20
13.899062314176374
 10
54.11964792630883
 20
13.911675227187827
 10
54.14182625242405
 20
13.922164794228555
 10
54.16492594120171
 20
13.930429995033789
 10
54.18872453001129
 20
13.936391231201538
 10
54.212992825432934
 20
13.939991092768784
 10
54.23749711051532
 20
13.941194911100736
 10
54.262001395597714
 20
13.939991092768784
 10
54.286269691019356
 20
13.936391231201538
 10
54.31006827982894
 20
13.930429995033789
 10
54.333167968606595
 20
13.922164794228555
 10
54.355346294721826
 20
13.911675227187827
 10
54.37638966877023
 20
13.899062314176374
 10
54.39609543155623
 20
13.884447524441418
 10
54.41427380581196
 20
13.867971606397374
 10
55.307167024625414
 20
13.867971606397374
 10
55.32534539888114
 20
13.884447524441418
 10
55.34505116166715
 20
13.899062314176374
 10
55.36609453571555
 20
13.911675227187827
 10
55.38827286183078
 20
13.922164794228555
 10
55.411372550608434
 20
13.930429995033789
 10
55.43517113941802
 20
13.936391231201538
 10
55.459439434839666
 20
13.939991092768784
 10
55.48394371992205
 20
13.941194911100736
 10
55.50844800500444
 20
13.939991092768784
 10
55.53271630042609
 20
13.936391231201538
 10
55.55651488923567
 20
13.930429995033789
 10
55.57961457801332
 20
13.922164794228555
 10
55.601792904128544
 20
13.911675227187827
 10
55.62283627817695
 20
13.899062314176374
 10
55.642542040962965
 20
13.884447524441418
 10
55.66072041521869
 20
13.867971606397374
 10
55.677196333262735
 20
13.849793232141648
 10
55.69181112299769
 20
13.830087469355638
 10
55.704424036009144
 20
13.809044095307234
 10
55.71491360304987
 20
13.78686576919201
 10
55.723178803855106
 20
13.763766080414348
 10
55.729140040022855
 20
13.739967491604764
 10
55.7327399015901
 20
13.715699196183122
 10
55.73394371992205
 20
13.691194911100736
 10
55.7327399015901
 20
13.666690626018342
 10
55.729140040022855
 20
13.6424223305967
 10
55.723178803855106
 20
13.618623741787117
 10
55.71491360304987
 20
13.595524053009461
 10
55.704424036009144
 20
13.573345726894237
 10
55.69181112299769
 20
13.552302352845834
 10
55.677196333262735
 20
13.532596590059823
 10
55.66072041521869
 20
13.514418215804097
 10
55.66072041521869
 20
9.867971606397367
 10
56.46072041521869
 20
9.867971606397367
 10
56.51854667496747
 20
9.864616473161801
 10
56.575596875492366
 20
9.854596101131227
 10
56.631105372697874
 20
9.838044969038576
 10
56.68432721296867
 20
9.81518520189732
 10
56.734548130844146
 20
9.78632358996544
 10
56.78109413484157
 20
9.751847471456626
 10
56.82334055278097
 20
9.712219534255054
 10
56.86072041521869
 20
9.667971606397364
 10
52.86072041521869
 20
9.667971606397364
  0
LWPOLYLINE
  5
47
330
17
100
AcDbEntity
  8
BRACKET_OUTLINE
 62
6
100
AcDbPolyline
 90
87
 70
1
 10
41.36072041521869
 20
9.667971606397364
 10
41.39810027765641
 20
9.712219534255054
 10
41.44034669559581
 20
9.751847471456626
 10
41.48689269959323
 20
9.78632358996544
 10
41.537113617468705
 20
9.81518520189732
 10
41.5903354577395
 20
9.838044969038576
 10
41.64584395494501
 20
9.854596101131227
 10
41.702894155469906
 20
9.864616473161801
 10
41.760720415218685
 20
9.867971606397367
 10
42.56072041521868
 20
9.867971606397367
 10
42.56072041521868
 20
13.514418215804097
 10
42.54424449717464
 20
13.532596590059823
 10
42.52962970743968
 20
13.552302352845834
 10
42.51701679442823
 20
13.573345726894237
 10
42.5065272273875
 20
13.595524053009461
 10
42.49826202658227
 20
13.618623741787117
 10
42.49230079041452
 20
13.6424223305967
 10
42.48870092884727
 20
13.666690626018342
 10
42.48749711051532
 20
13.691194911100736
 10
42.48870092884727
 20
13.715699196183122
 10
42.49230079041452
 20
13.739967491604764
 10
42.49826202658227
 20
13.763766080414348
 10
42.5065272273875
 20
13.78686576919201
 10
42.51701679442823
 20
13.809044095307234
 10
42.52962970743968
 20
13.830087469355638
 10
42.54424449717464
 20
13.849793232141648
 10
42.56072041521868
 20
13.867971606397374
 10
42.57889878947441
 20
13.884447524441418
 10
42.598604552260426
 20
13.899062314176374
 10
42.61964792630882
 20
13.911675227187827
 10
42.64182625242405
 20
13.922164794228555
 10
42.66492594120171
 20
13.930429995033789
 10
42.68872453001129
 20
13.936391231201538
 10
42.712992825432934
 20
13.939991092768784
 10
42.73749711051532
 20
13.941194911100736
 10
42.762001395597714
 20
13.939991092768784
 10
42.786269691019356
 20
13.936391231201538
 10
42.81006827982894
 20
13.930429995033789
 10
42.833167968606595
 20
13.922164794228555
 10
42.855346294721826
 20
13.911675227187827
 10
42.87638966877022
 20
13.899062314176374
 10
42.89609543155623
 20
13.884447524441418
 10
42.91427380581196
 20
13.867971606397374
 10
43.807167024625414
 20
13.867971606397374
 10
43.82534539888114
 20
13.884447524441418
 10
43.84505116166715
 20
13.899062314176374
 10
43.86609453571555
 20
13.911675227187827
 10
43.88827286183078
 20
13.922164794228555
 10
43.911372550608434
 20
13.930429995033789
 10
43.93517113941802
 20
13.936391231201538
 10
43.95943943483966
 20
13.939991092768784
 10
43.98394371992205
 20
13.941194911100736
 10
44.00844800500444
 20
13.939991092768784
 10
44.03271630042608
 20
13.936391231201538
 10
44.056514889235665
 20
13.930429995033789
 10
44.07961457801332
 20
13.922164794228555
 10
44.101792904128544
 20
13.911675227187827
 10
44.12283627817695
 20
13.899062314176374
 10
44.142542040962965
 20
13.884447524441418
 10
44.16072041521869
 20
13.867971606397374
 10
44.17719633326273
 20
13.849793232141648
 10
44.19181112299769
 20
13.830087469355638
 10
44.204424036009144
 20
13.809044095307234
 10
44.214913603049865
 20
13.78686576919201
 10
44.223178803855106
 20
13.763766080414348
 10
44.229140040022855
 20
13.739967491604764
 10
44.232739901590094
 20
13.715699196183122
 10
44.23394371992205
 20
13.691194911100736
 10
44.232739901590094
 20
13.666690626018342
 10
44.229140040022855
 20
13.6424223305967
 10
44.223178803855106
 20
13.618623741787117
 10
44.214913603049865
 20
13.595524053009461
 10
44.204424036009144
 20
13.573345726894237
 10
44.19181112299769
 20
13.552302352845834
 10
44.17719633326273
 20
13.532596590059823
 10
44.16072041521869
 20
13.514418215804097
 10
44.16072041521869
 20
9.867971606397367
 10
44.96072041521869
 20
9.867971606397367
 10
45.01854667496747
 20
9.864616473161801
 10
45.075596875492366
 20
9.854596101131227
 10
45.131105372697874
 20
9.838044969038576
 10
45.18432721296867
 20
9.81518520189732
 10
45.234548130844146
 20
9.78632358996544
 10
45.28109413484157
 20
9.751847471456626
 10
45.32334055278097
 20
9.712219534255054
 10
45.36072041521869
 20
9.667971606397364
 10
41.36072041521869
 20
9.667971606397364
  0
LWPOLYLINE
  5
48
330
17
100
AcDbEntity
  8
BRACKET_OUTLINE
 62
6
100
AcDbPolyline
 90
87
 70
1
 10
32.21072041521869
 20
9.667971606397364
 10
32.248100277656405
 20
9.712219534255054
 10
32.2903466955958
 20
9.751847471456626
 10
32.336892699593236
 20
9.78632358996544
 10
32.387113617468714
 20
9.81518520189732
 10
32.4403354577395
 20
9.838044969038576
 10
32.495843954945
 20
9.854596101131227
 10
32.5528941554699
 20
9.864616473161801
 10
32.61072041521869
 20
9.867971606397367
 10
33.41072041521869
 20
9.867971606397367
 10
33.41072041521869
 20
13.514418215804097
 10
33.39424449717464
 20
13.532596590059823
 10
33.37962970743969
 20
13.552302352845834
 10
33.36701679442824
 20
13.573345726894237
 10
33.3565272273875
 20
13.595524053009461
 10
33.348262026582276
 20
13.618623741787117
 10
33.34230079041451
 20
13.6424223305967
 10
33.338700928847274
 20
13.666690626018342
 10
33.33749711051533
 20
13.691194911100736
 10
33.338700928847274
 20
13.715699196183122
 10
33.34230079041451
 20
13.739967491604764
 10
33.348262026582276
 20
13.763766080414348
 10
33.3565272273875
 20
13.78686576919201
 10
33.36701679442824
 20
13.809044095307234
 10
33.37962970743969
 20
13.830087469355638
 10
33.39424449717464
 20
13.849793232141648
 10
33.41072041521869
 20
13.867971606397374
 10
33.42889878947442
 20
13.884447524441418
 10
33.44860455226042
 20
13.899062314176374
 10
33.469647926308824
 20
13.911675227187827
 10
33.49182625242405
 20
13.922164794228555
 10
33.51492594120171
 20
13.930429995033789
 10
33.538724530011294
 20
13.936391231201538
 10
33.562992825432936
 20
13.939991092768784
 10
33.58749711051533
 20
13.941194911100736
 10
33.612001395597716
 20
13.939991092768784
 10
33.63626969101936
 20
13.936391231201538
 10
33.66006827982894
 20
13.930429995033789
 10
33.6831679686066
 20
13.922164794228555
 10
33.70534629472182
 20
13.911675227187827
 10
33.726389668770224
 20
13.899062314176374
 10
33.746095431556235
 20
13.884447524441418
 10
33.76427380581196
 20
13.867971606397374
 10
34.657167024625416
 20
13.867971606397374
 10
34.675345398881134
 20
13.884447524441418
 10
34.69505116166715
 20
13.899062314176374
 10
34.716094535715555
 20
13.911675227187827
 10
34.73827286183078
 20
13.922164794228555
 10
34.761372550608435
 20
13.930429995033789
 10
34.78517113941802
 20
13.936391231201538
 10
34.80943943483966
 20
13.939991092768784
 10
34.83394371992205
 20
13.941194911100736
 10
34.85844800500444
 20
13.939991092768784
 10
34.88271630042608
 20
13.936391231201538
 10
34.906514889235666
 20
13.930429995033789
 10
34.92961457801333
 20
13.922164794228555
 10
34.95179290412855
 20
13.911675227187827
 10
34.972836278176956
 20
13.899062314176374
 10
34.99254204096296
 20
13.884447524441418
 10
35.010720415218685
 20
13.867971606397374
 10
35.02719633326274
 20
13.849793232141648
 10
35.041811122997686
 20
13.830087469355638
 10
35.05442403600914
 20
13.809044095307234
 10
35.064913603049874
 20
13.78686576919201
 10
35.0731788038551
 20
13.763766080414348
 10
35.079140040022864
 20
13.739967491604764
 10
35.0827399015901
 20
13.715699196183122
 10
35.08394371992205
 20
13.691194911100736
 10
35.0827399015901
 20
13.666690626018342
 10
35.079140040022864
 20
13.6424223305967
 10
35.0731788038551
 20
13.618623741787117
 10
35.064913603049874
 20
13.595524053009461
 10
35.05442403600914
 20
13.573345726894237
 10
35.041811122997686
 20
13.552302352845834
 10
35.02719633326274
 20
13.532596590059823
 10
35.010720415218685
 20
13.514418215804097
 10
35.010720415218685
 20
9.867971606397367
 10
35.81072041521869
 20
9.867971606397367
 10
35.868546674967476
 20
9.864616473161801
 10
35.92559687549237
 20
9.854596101131227
 10
35.981105372697876
 20
9.838044969038576
 10
36.03432721296866
 20
9.81518520189732
 10
36.08454813084414
 20
9.78632358996544
 10
36.131094134841575
 20
9.751847471456626
 10
36.17334055278097
 20
9.712219534255054
 10
36.21072041521869
 20
9.667971606397364
 10
32.21072041521869
 20
9.667971606397364
  0
LINE
  5
49
330
17
100
AcDbEntity
  8
BRACKET_CUT_LINE
 62
4
100
AcDbLine
 10
55.66072041521869
 20
9.867971606397367
 30
0.0
 11
54.06072041521868
 21
9.867971606397367
 31
0.0
  0
LINE
  5
4A
330
17
100
AcDbEntity
  8
BRACKET_CUT_LINE
 62
4
100
AcDbLine
 10
44.16072041521869
 20
9.867971606397367
 30
0.0
 11
42.56072041521868
 21
9.867971606397367
 31
0.0
  0
LINE
  5
4B
330
17
100
AcDbEntity
  8
BRACKET_CUT_LINE
 62
4
100
AcDbLine
 10
35.010720415218685
 20
9.867971606397367
 30
0.0
 11
33.41072041521869
 21
9.867971606397367
 31
0.0
  0
LWPOLYLINE
  5
4C
330
17
100
AcDbEntity
  8
SHELF_R
 62
3
100
AcDbPolyline
 90
110
 70
1
 10
61.93572041521869
 20
22.03030276292003
 10
90.9357204152187
 20
22.03030276292003
 10
90.9357204152187
 20
19.9180362012875
 10
90.9357204152187
 20
19.9180362012875
 10
90.92398435467877
 20
19.652935035461
 10
90.88886799647031
 20
19.3899080318554
 10
90.83064609239726
 20
19.13101312436266
 10
90.74977417298689
 20
18.87827591718799
 10
90.64688498340068
 20
18.6336738364408
 10
90.52278353281054
 20
18.39912065867297
 10
90.37844079597461
 20
18.17645153741391
 10
90.21498611629157
 20
17.96740864485527
 10
90.0336983697723
 20
17.77362754102539
 10
89.83599595906229
 20
17.596624377101634
 10
89.62342571580223
 20
17.43778403298238
 10
89.3976507981547
 20
17.298349281930797
 10
89.16043767818763
 20
17.179411067066702
 10
88.91364232092558
 20
17.081899965783528
 10
88.65919566320437
 20
17.00657890887326
 10
88.39908850594352
 20
16.954037211325115
 10
88.13535593803931
 20
16.924685961501297
 10
87.87006141374728
 20
16.91875480476503
 10
87.60528060813276
 20
16.93629014672601
 10
87.60528060813277
 20
16.936290146726108
 10
87.12029195996236
 20
16.982599686802914
 10
86.63530331179194
 20
17.01357756427128
 10
86.15031466362154
 20
17.028725045644045
 10
85.66532601545114
 20
17.027798261527167
 10
85.18033736728073
 20
17.010812132835575
 10
84.69534871911031
 20
16.978040130571422
 10
84.21036007093991
 20
16.930009873032233
 10
83.7253714227695
 20
16.867494631332427
 10
83.24038277459908
 20
16.791500879996484
 10
82.75539412642868
 20
16.703252093055042
 10
82.27040547825827
 20
16.6041690465214
 10
81.78541683008787
 20
16.495846944371934
 10
81.30042818191745
 20
16.380029736294546
 10
80.81543953374705
 20
16.25858204068078
 10
80.33045088557664
 20
16.13345912489215
 10
79.84546223740622
 20
16.006675426108202
 10
79.36047358923582
 20
15.880272119560386
 10
78.87548494106541
 20
15.75628425629211
 10
78.390496292895
 20
15.636707999516217
 10
77.9055076447246
 20
15.523468487053597
 10
77.4205189965542
 20
15.418388837256797
 10
76.93553034838378
 20
15.323160797413143
 10
76.45054170021336
 20
15.239317507178056
 10
75.96555305204296
 20
15.168208815538362
 10
75.48056440387255
 20
15.11097954869418
 10
74.99557575570213
 20
15.06855107873921
 10
74.51058710753173
 20
15.041606489877578
 10
74.02559845936132
 20
15.030579580996145
 10
73.54060981119092
 20
15.035647881647256
 10
73.0556211630205
 20
15.05672979388216
 10
72.5706325148501
 20
15.093485905950784
 10
72.08564386667969
 20
15.145324456717608
 10
71.60065521850927
 20
15.21141086281841
 10
71.11566657033887
 20
15.290681155173877
 10
70.63067792216846
 20
15.381859108536622
 10
70.14568927399806
 20
15.48347678829168
 10
69.66070062582764
 20
15.59389818371386
 10
69.17571197765724
 20
15.711345547194275
 10
68.69072332948683
 20
15.833928015383519
 10
68.20573468131641
 20
15.9596720514604
 10
67.72074603314601
 20
16.086553218416043
 10
67.2357573849756
 20
16.21252877181397
 10
66.75076873680518
 20
16.335570547293713
 10
66.26578008863478
 20
16.45369761334002
 10
65.78079144046438
 20
16.565008163619034
 10
65.29580279229397
 20
16.667710135425494
 10
64.81081414412355
 20
16.760150061294077
 10
64.32582549595315
 20
16.84083968927372
 10
63.84083684778273
 20
16.90847994328724
 10
63.840836847816284
 20
16.90847994355518
 10
63.68710781704109
 20
16.930160204925983
 10
63.534125983989405
 20
16.95660273491721
 10
63.38203883935604
 20
16.987782040128508
 10
63.230993011261354
 20
17.023668060406322
 10
63.08113412388625
 20
17.06422619782515
 10
62.93260665707502
 20
17.10941735004358
 10
62.78555380704149
 20
17.15919794800306
 10
62.640117348312664
 20
17.213519997933147
 10
62.49643749704308
 20
17.27233112762252
 10
62.3546527758316
 20
17.335574636911403
 10
62.21489988017092
 20
17.403189552356466
 10
62.07731354665863
 20
17.475110686015725
 10
61.942026423096884
 20
17.55126869829663
 10
61.80916894060585
 20
17.631590164806738
 10
61.678869187874305
 20
17.715997647142643
 10
61.55125278766853
 20
17.804409767548783
 10
61.42644277571871
 20
17.89674128737422
 10
61.30455948209943
 20
17.99290318925175
 10
61.18572041521869
 20
18.09280276292003
 10
61.18572041521869
 20
18.71780276292003
 10
61.18572041521869
 20
18.71780276292003
 10
61.26969377229617
 20
18.7225186055001
 10
61.352611115685924
 20
18.736606828783664
 10
61.433429711685065
 20
18.75989026518875
 10
61.51113321955686
 20
18.792076111993218
 10
61.584744472605195
 20
18.832759613498816
 10
61.65333776661274
 20
18.881429151069007
 10
61.7160505011086
 20
18.937472677030122
 10
61.77209402706971
 20
19.000185411525983
 10
61.820763564639904
 20
19.068778705533525
 10
61.8614470661455
 20
19.14238995858186
 10
61.89363291294997
 20
19.220093466453655
 10
61.916916349355056
 20
19.300912062452795
 10
61.93100457263862
 20
19.383829405842548
 10
61.93572041521869
 20
19.46780276292003
 10
61.93572041521869
 20
22.03030276292003
  0
LWPOLYLINE
  5
4D
330
17
100
AcDbEntity
  8
BRACKET_OUTLINE
 62
6
100
AcDbPolyline
 90
87
 70
1
 10
69.1107204152187
 20
22.03030276292003
 10
69.07334055278098
 20
21.98605483506234
 10
69.03109413484158
 20
21.946426897860768
 10
68.98454813084416
 20
21.911950779351955
 10
68.93432721296867
 20
21.883089167420074
 10
68.88110537269789
 20
21.86022940027882
 10
68.82559687549238
 20
21.843678268186167
 10
68.76854667496748
 20
21.833657896155593
 10
68.7107204152187
 20
21.830302762920027
 10
67.91072041521869
 20
21.830302762920027
 10
67.91072041521869
 20
18.183856153513304
 10
67.92719633326274
 20
18.165677779257578
 10
67.94181112299769
 20
18.145972016471568
 10
67.95442403600914
 20
18.124928642423164
 10
67.96491360304988
 20
18.10275031630794
 10
67.9731788038551
 20
18.079650627530285
 10
67.97914004002287
 20
18.0558520387207
 10
67.98273990159011
 20
18.03158374329906
 10
67.98394371992205
 20
18.007079458216666
 10
67.98273990159011
 20
17.98257517313428
 10
67.97914004002287
 20
17.958306877712637
 10
67.9731788038551
 20
17.934508288903054
 10
67.96491360304988
 20
17.91140860012539
 10
67.95442403600914
 20
17.889230274010167
 10
67.94181112299769
 20
17.868186899961763
 10
67.92719633326274
 20
17.848481137175753
 10
67.91072041521869
 20
17.830302762920027
 10
67.89254204096297
 20
17.813826844875983
 10
67.87283627817696
 20
17.799212055141027
 10
67.85179290412856
 20
17.786599142129575
 10
67.82961457801333
 20
17.776109575088846
 10
67.80651488923567
 20
17.767844374283612
 10
67.78271630042609
 20
17.761883138115863
 10
67.75844800500445
 20
17.758283276548617
 10
67.73394371992205
 20
17.757079458216666
 10
67.70943943483967
 20
17.758283276548617
 10
67.68517113941803
 20
17.761883138115863
 10
67.66137255060845
 20
17.767844374283612
 10
67.63827286183079
 20
17.776109575088846
 10
67.61609453571556
 20
17.786599142129575
 10
67.59505116166716
 20
17.799212055141027
 10
67.57534539888115
 20
17.813826844875983
 10
67.55716702462543
 20
17.830302762920027
 10
66.66427380581197
 20
17.830302762920027
 10
66.64609543155625
 20
17.813826844875983
 10
66.62638966877023
 20
17.799212055141027
 10
66.60534629472183
 20
17.786599142129575
 10
66.5831679686066
 20
17.776109575088846
 10
66.56006827982895
 20
17.767844374283612
 10
66.53626969101937
 20
17.761883138115863
 10
66.51200139559772
 20
17.758283276548617
 10
66.48749711051533
 20
17.757079458216666
 10
66.46299282543295
 20
17.758283276548617
 10
66.4387245300113
 20
17.761883138115863
 10
66.41492594120172
 20
17.767844374283612
 10
66.39182625242407
 20
17.776109575088846
 10
66.36964792630883
 20
17.786599142129575
 10
66.34860455226044
 20
17.799212055141027
 10
66.32889878947442
 20
17.813826844875983
 10
66.3107204152187
 20
17.830302762920027
 10
66.29424449717465
 20
17.848481137175753
 10
66.2796297074397
 20
17.868186899961763
 10
66.26701679442824
 20
17.889230274010167
 10
66.25652722738751
 20
17.91140860012539
 10
66.24826202658228
 20
17.934508288903054
 10
66.24230079041453
 20
17.958306877712637
 10
66.23870092884728
 20
17.98257517313428
 10
66.23749711051533
 20
18.007079458216666
 10
66.23870092884728
 20
18.03158374329906
 10
66.24230079041453
 20
18.0558520387207
 10
66.24826202658228
 20
18.079650627530285
 10
66.25652722738751
 20
18.10275031630794
 10
66.26701679442824
 20
18.124928642423164
 10
66.2796297074397
 20
18.145972016471568
 10
66.29424449717465
 20
18.165677779257578
 10
66.3107204152187
 20
18.183856153513304
 10
66.3107204152187
 20
21.830302762920027
 10
65.5107204152187
 20
21.830302762920027
 10
65.45289415546992
 20
21.833657896155593
 10
65.39584395494502
 20
21.843678268186167
 10
65.34033545773951
 20
21.86022940027882
 10
65.28711361746872
 20
21.883089167420074
 10
65.23689269959324
 20
21.911950779351955
 10
65.1903466955958
 20
21.946426897860768
 10
65.14810027765641
 20
21.98605483506234
 10
65.1107204152187
 20
22.03030276292003
 10
69.1107204152187
 20
22.03030276292003
  0
LWPOLYLINE
  5
4E
330
17
100
AcDbEntity
  8
BRACKET_OUTLINE
 62
6
100
AcDbPolyline
 90
87
 70
1
 10
80.6107204152187
 20
22.03030276292003
 10
80.57334055278098
 20
21.98605483506234
 10
80.53109413484158
 20
21.946426897860768
 10
80.48454813084416
 20
21.911950779351955
 10
80.43432721296867
 20
21.883089167420074
 10
80.38110537269789
 20
21.86022940027882
 10
80.32559687549238
 20
21.843678268186167
 10
80.26854667496748
 20
21.833657896155593
 10
80.2107204152187
 20
21.830302762920027
 10
79.41072041521869
 20
21.830302762920027
 10
79.41072041521869
 20
18.183856153513304
 10
79.42719633326274
 20
18.165677779257578
 10
79.4418111229977
 20
18.145972016471568
 10
79.45442403600916
 20
18.124928642423164
 10
79.46491360304988
 20
18.10275031630794
 10
79.47317880385512
 20
18.079650627530285
 10
79.47914004002287
 20
18.0558520387207
 10
79.48273990159011
 20
18.03158374329906
 10
79.48394371992205
 20
18.007079458216666
 10
79.48273990159011
 20
17.98257517313428
 10
79.47914004002287
 20
17.958306877712637
 10
79.47317880385512
 20
17.934508288903054
 10
79.46491360304988
 20
17.91140860012539
 10
79.45442403600916
 20
17.889230274010167
 10
79.4418111229977
 20
17.868186899961763
 10
79.42719633326274
 20
17.848481137175753
 10
79.41072041521869
 20
17.830302762920027
 10
79.39254204096298
 20
17.813826844875983
 10
79.37283627817696
 20
17.799212055141027
 10
79.35179290412856
 20
17.786599142129575
 10
79.32961457801333
 20
17.776109575088846
 10
79.30651488923567
 20
17.767844374283612
 10
79.28271630042609
 20
17.761883138115863
 10
79.25844800500445
 20
17.758283276548617
 10
79.23394371992205
 20
17.757079458216666
 10
79.20943943483967
 20
17.758283276548617
 10
79.18517113941803
 20
17.761883138115863
 10
79.16137255060845
 20
17.767844374283612
 10
79.13827286183079
 20
17.776109575088846
 10
79.11609453571556
 20
17.786599142129575
 10
79.09505116166716
 20
17.799212055141027
 10
79.07534539888115
 20
17.813826844875983
 10
79.05716702462543
 20
17.830302762920027
 10
78.16427380581197
 20
17.830302762920027
 10
78.14609543155625
 20
17.813826844875983
 10
78.12638966877023
 20
17.799212055141027
 10
78.10534629472184
 20
17.786599142129575
 10
78.0831679686066
 20
17.776109575088846
 10
78.06006827982895
 20
17.767844374283612
 10
78.03626969101937
 20
17.761883138115863
 10
78.01200139559772
 20
17.758283276548617
 10
77.98749711051533
 20
17.757079458216666
 10
77.96299282543295
 20
17.758283276548617
 10
77.9387245300113
 20
17.761883138115863
 10
77.91492594120172
 20
17.767844374283612
 10
77.89182625242407
 20
17.776109575088846
 10
77.86964792630883
 20
17.786599142129575
 10
77.84860455226044
 20
17.799212055141027
 10
77.82889878947442
 20
17.813826844875983
 10
77.8107204152187
 20
17.830302762920027
 10
77.79424449717465
 20
17.848481137175753
 10
77.7796297074397
 20
17.868186899961763
 10
77.76701679442824
 20
17.889230274010167
 10
77.75652722738752
 20
17.91140860012539
 10
77.74826202658228
 20
17.934508288903054
 10
77.74230079041453
 20
17.958306877712637
 10
77.7387009288473
 20
17.98257517313428
 10
77.73749711051533
 20
18.007079458216666
 10
77.7387009288473
 20
18.03158374329906
 10
77.74230079041453
 20
18.0558520387207
 10
77.74826202658228
 20
18.079650627530285
 10
77.75652722738752
 20
18.10275031630794
 10
77.76701679442824
 20
18.124928642423164
 10
77.7796297074397
 20
18.145972016471568
 10
77.79424449717465
 20
18.165677779257578
 10
77.8107204152187
 20
18.183856153513304
 10
77.8107204152187
 20
21.830302762920027
 10
77.0107204152187
 20
21.830302762920027
 10
76.95289415546992
 20
21.833657896155593
 10
76.89584395494502
 20
21.843678268186167
 10
76.84033545773951
 20
21.86022940027882
 10
76.78711361746872
 20
21.883089167420074
 10
76.73689269959324
 20
21.911950779351955
 10
76.69034669559582
 20
21.946426897860768
 10
76.64810027765641
 20
21.98605483506234
 10
76.6107204152187
 20
22.03030276292003
 10
80.6107204152187
 20
22.03030276292003
  0
LWPOLYLINE
  5
4F
330
17
100
AcDbEntity
  8
BRACKET_OUTLINE
 62
6
100
AcDbPolyline
 90
87
 70
1
 10
89.7607204152187
 20
22.03030276292003
 10
89.72334055278097
 20
21.98605483506234
 10
89.68109413484157
 20
21.946426897860768
 10
89.63454813084415
 20
21.911950779351955
 10
89.58432721296867
 20
21.883089167420074
 10
89.53110537269788
 20
21.86022940027882
 10
89.47559687549239
 20
21.843678268186167
 10
89.41854667496747
 20
21.833657896155593
 10
89.3607204152187
 20
21.830302762920027
 10
88.5607204152187
 20
21.830302762920027
 10
88.5607204152187
 20
18.183856153513304
 10
88.57719633326275
 20
18.165677779257578
 10
88.5918111229977
 20
18.145972016471568
 10
88.60442403600915
 20
18.124928642423164
 10
88.61491360304989
 20
18.10275031630794
 10
88.62317880385511
 20
18.079650627530285
 10
88.62914004002286
 20
18.0558520387207
 10
88.63273990159011
 20
18.03158374329906
 10
88.63394371992206
 20
18.007079458216666
 10
88.63273990159011
 20
17.98257517313428
 10
88.62914004002286
 20
17.958306877712637
 10
88.62317880385511
 20
17.934508288903054
 10
88.61491360304989
 20
17.91140860012539
 10
88.60442403600915
 20
17.889230274010167
 10
88.5918111229977
 20
17.868186899961763
 10
88.57719633326275
 20
17.848481137175753
 10
88.5607204152187
 20
17.830302762920027
 10
88.54254204096297
 20
17.813826844875983
 10
88.52283627817695
 20
17.799212055141027
 10
88.50179290412856
 20
17.786599142129575
 10
88.47961457801333
 20
17.776109575088846
 10
88.45651488923568
 20
17.767844374283612
 10
88.4327163004261
 20
17.761883138115863
 10
88.40844800500444
 20
17.758283276548617
 10
88.38394371992206
 20
17.757079458216666
 10
88.35943943483967
 20
17.758283276548617
 10
88.33517113941802
 20
17.761883138115863
 10
88.31137255060844
 20
17.767844374283612
 10
88.28827286183079
 20
17.776109575088846
 10
88.26609453571555
 20
17.786599142129575
 10
88.24505116166716
 20
17.799212055141027
 10
88.22534539888115
 20
17.813826844875983
 10
88.20716702462542
 20
17.830302762920027
 10
87.31427380581196
 20
17.830302762920027
 10
87.29609543155624
 20
17.813826844875983
 10
87.27638966877024
 20
17.799212055141027
 10
87.25534629472183
 20
17.786599142129575
 10
87.23316796860661
 20
17.776109575088846
 10
87.21006827982895
 20
17.767844374283612
 10
87.18626969101936
 20
17.761883138115863
 10
87.16200139559773
 20
17.758283276548617
 10
87.13749711051534
 20
17.757079458216666
 10
87.11299282543294
 20
17.758283276548617
 10
87.0887245300113
 20
17.761883138115863
 10
87.06492594120172
 20
17.767844374283612
 10
87.04182625242406
 20
17.776109575088846
 10
87.01964792630883
 20
17.786599142129575
 10
86.99860455226043
 20
17.799212055141027
 10
86.97889878947441
 20
17.813826844875983
 10
86.9607204152187
 20
17.830302762920027
 10
86.94424449717465
 20
17.848481137175753
 10
86.9296297074397
 20
17.868186899961763
 10
86.91701679442824
 20
17.889230274010167
 10
86.90652722738751
 20
17.91140860012539
 10
86.89826202658227
 20
17.934508288903054
 10
86.89230079041452
 20
17.958306877712637
 10
86.88870092884729
 20
17.98257517313428
 10
86.88749711051534
 20
18.007079458216666
 10
86.88870092884729
 20
18.03158374329906
 10
86.89230079041452
 20
18.0558520387207
 10
86.89826202658227
 20
18.079650627530285
 10
86.90652722738751
 20
18.10275031630794
 10
86.91701679442824
 20
18.124928642423164
 10
86.9296297074397
 20
18.145972016471568
 10
86.94424449717465
 20
18.165677779257578
 10
86.9607204152187
 20
18.183856153513304
 10
86.9607204152187
 20
21.830302762920027
 10
86.16072041521869
 20
21.830302762920027
 10
86.10289415546991
 20
21.833657896155593
 10
86.04584395494501
 20
21.843678268186167
 10
85.9903354577395
 20
21.86022940027882
 10
85.93711361746873
 20
21.883089167420074
 10
85.88689269959323
 20
21.911950779351955
 10
85.84034669559581
 20
21.946426897860768
 10
85.79810027765642
 20
21.98605483506234
 10
85.7607204152187
 20
22.03030276292003
 10
89.7607204152187
 20
22.03030276292003
  0
LINE
  5
50
330
17
100
AcDbEntity
  8
BRACKET_CUT_LINE
 62
4
100
AcDbLine
 10
66.3107204152187
 20
21.830302762920027
 30
0.0
 11
67.91072041521869
 21
21.830302762920027
 31
0.0
  0
LINE
  5
51
330
17
100
AcDbEntity
  8
BRACKET_CUT_LINE
 62
4
100
AcDbLine
 10
77.8107204152187
 20
21.830302762920027
 30
0.0
 11
79.41072041521869
 21
21.830302762920027
 31
0.0
  0
LINE
  5
52
330
17
100
AcDbEntity
  8
BRACKET_CUT_LINE
 62
4
100
AcDbLine
 10
86.9607204152187
 20
21.830302762920027
 30
0.0
 11
88.5607204152187
 21
21.830302762920027
 31
0.0
  0
LWPOLYLINE
  5
53
330
17
100
AcDbEntity
  8
SHELF_R
 62
3
100
AcDbPolyline
 90
110
 70
1
 10
90.05084983846581
 20
9.667971606397364
 10
90.05084983846581
 20
12.230471606397371
 10
90.05084983846581
 20
12.230471606397371
 10
90.05556568104588
 20
12.314444963474854
 10
90.06965390432944
 20
12.397362306864606
 10
90.09293734073452
 20
12.478180902863746
 10
90.12512318753899
 20
12.555884410735542
 10
90.16580668904459
 20
12.629495663783876
 10
90.21447622661478
 20
12.698088957791418
 10
90.2705197525759
 20
12.760801692287279
 10
90.33323248707175
 20
12.816845218248394
 10
90.40182578107931
 20
12.865514755818586
 10
90.47543703412764
 20
12.906198257324183
 10
90.55314054199943
 20
12.93838410412865
 10
90.63395913799857
 20
12.961667540533737
 10
90.71687648138833
 20
12.975755763817302
 10
90.80084983846581
 20
12.980471606397371
 10
90.80084983846581
 20
13.605471606397378
 10
90.80084983846581
 20
13.605471606397378
 10
90.65711413682118
 20
13.906851483177538
 10
90.49358395906923
 20
14.197966001914947
 10
90.31098858296502
 20
14.477516910839716
 10
90.11014230925602
 20
14.744257527155474
 10
89.89194083023352
 20
14.996998296735077
 10
89.65735723531112
 20
15.234612099045853
 10
89.40743767144372
 20
15.456039273646487
 10
89.14329667773956
 20
15.660292345839478
 10
88.86611221507144
 20
15.846460430404724
 10
88.57712041285266
 20
16.013713293775254
 10
88.27761005640502
 20
16.161305056539668
 10
87.96891683950307
 20
16.288577519759407
 10
87.65241740772578
 20
16.394963100267034
 10
87.32952321917992
 20
16.479987361855166
 10
87.0016742499738
 20
16.543271131068046
 10
86.6703325725124
 20
16.584532188160196
 10
86.33697583525193
 20
16.603586525681095
 10
86.00309067299177
 20
16.60034916907326
 10
85.6701660770908
 20
16.574834555623987
 10
85.67016607729002
 20
16.574834553818256
 10
85.21975108640164
 20
16.51895826427495
 10
84.76933609551327
 20
16.451262929639924
 10
84.31892110462488
 20
16.37268874586708
 10
83.8685061137365
 20
16.284327001300895
 10
83.41809112284812
 20
16.18740492016839
 10
82.96767613195975
 20
16.083268618106842
 10
82.51726114107137
 20
15.97336440645187
 10
82.06684615018298
 20
15.859218704943784
 10
81.61643115929462
 20
15.742416841837324
 10
81.16601616840623
 20
15.624581035852456
 10
80.71560117751785
 20
15.507347865766851
 10
80.26518618662948
 20
15.3923455405667
 10
79.8147711957411
 20
15.281171285842559
 10
79.36435620485273
 20
15.175369160502354
 10
78.91394121396434
 20
15.076408611897142
 10
78.46352622307596
 20
14.985664067199705
 10
78.01311123218758
 20
14.904395844483984
 10
77.56269624129921
 20
14.833732648624375
 10
77.11228125041083
 20
14.774655895123074
 10
76.66186625952244
 20
14.727986079586016
 10
76.21145126863406
 20
14.694371382156971
 10
75.76103627774569
 20
14.674278665178596
 10
75.31062128685731
 20
14.667986989110622
 10
74.86020629596894
 20
14.675583736760371
 10
74.40979130508056
 20
14.696963399654598
 10
73.95937631419218
 20
14.73182904340843
 10
73.5089613233038
 20
14.779696431739344
 10
73.05854633241542
 20
14.839900751849326
 10
72.60813134152704
 20
14.911605847768703
 10
72.15771635063867
 20
14.993815833423197
 10
71.70730135975029
 20
15.085388924134461
 10
71.2568863688619
 20
15.185053294453438
 10
70.80647137797352
 20
15.29142474208278
 10
70.35605638708515
 20
15.403025912560627
 10
69.90564139619677
 20
15.518306817700966
 10
69.4552264053084
 20
15.635666362817473
 10
69.00481141442002
 20
15.753474583746963
 10
68.55439642353164
 20
15.870095284830624
 10
68.10398143264325
 20
15.983908763442122
 10
67.65356644175488
 20
16.093334305450043
 10
67.2031514508665
 20
16.19685213918322
 10
66.75273645997812
 20
16.293024542988377
 10
66.30232146908975
 20
16.38051581322477
 10
65.85190647820136
 20
16.458110815367675
 10
65.40149148731298
 20
16.524731860571187
 10
64.9510764964246
 20
16.57945367329775
 10
64.50066150553623
 20
16.621516242134575
 10
64.05024651464785
 20
16.65033537531656
 10
63.59983152375946
 20
16.665510814353823
 10
63.59983152375946
 20
16.665510814353816
 10
63.46207504641614
 20
16.67120808201763
 10
63.32472581625081
 20
16.68322868440962
 10
63.1880739347671
 20
16.701547232273334
 10
63.052408030567015
 20
16.726125034177656
 10
62.918014649725485
 20
16.756910178238684
 10
62.78517765056346
 20
16.793837641765208
 10
62.65417760409795
 20
16.83682942859606
 10
62.52529120143533
 20
16.885794733839298
 10
62.39879066935956
 20
16.94063013566533
 10
62.27494319534974
 20
17.001219813748833
 10
62.154010363241376
 20
17.067435793898063
 10
62.03624760072335
 20
17.139138218354958
 10
61.92190363983758
 20
17.21617564119496
 10
61.811219991620895
 20
17.29838534820282
 10
61.704430435998624
 20
17.385593700548647
 10
61.601760528007524
 20
17.47761650153825
 10
61.503427121390764
 20
17.574259385663353
 10
61.4096379105714
 20
17.675318229129694
 10
61.32059099197158
 20
17.780579580996147
 10
61.32059099197158
 20
9.667971606397364
 10
90.05084983846581
 20
9.667971606397364
  0
LWPOLYLINE
  5
54
330
17
100
AcDbEntity
  8
BRACKET_OUTLINE
 62
6
100
AcDbPolyline
 90
87
 70
1
 10
82.8758498384658
 20
9.667971606397364
 10
82.91322970090353
 20
9.712219534255054
 10
82.95547611884292
 20
9.751847471456626
 10
83.00202212284034
 20
9.78632358996544
 10
83.05224304071582
 20
9.81518520189732
 10
83.10546488098662
 20
9.838044969038576
 10
83.16097337819212
 20
9.854596101131227
 10
83.21802357871702
 20
9.864616473161801
 10
83.2758498384658
 20
9.867971606397367
 10
84.07584983846581
 20
9.867971606397367
 10
84.0758498384658
 20
13.514418215804104
 10
84.05937392042176
 20
13.53259659005983
 10
84.0447591306868
 20
13.55230235284584
 10
84.03214621767535
 20
13.573345726894244
 10
84.02165665063461
 20
13.595524053009468
 10
84.01339144982938
 20
13.618623741787124
 10
84.00743021366164
 20
13.642422330596707
 10
84.0038303520944
 20
13.66669062601835
 10
84.00262653376244
 20
13.691194911100743
 10
84.0038303520944
 20
13.71569919618313
 10
84.00743021366164
 20
13.739967491604771
 10
84.01339144982938
 20
13.763766080414355
 10
84.02165665063461
 20
13.786865769192017
 10
84.03214621767535
 20
13.809044095307241
 10
84.0447591306868
 20
13.830087469355645
 10
84.05937392042176
 20
13.849793232141655
 10
84.0758498384658
 20
13.867971606397381
 10
84.09402821272153
 20
13.884447524441425
 10
84.11373397550754
 20
13.899062314176382
 10
84.13477734955595
 20
13.911675227187834
 10
84.15695567567117
 20
13.922164794228562
 10
84.18005536444883
 20
13.930429995033796
 10
84.2038539532584
 20
13.936391231201545
 10
84.22812224868005
 20
13.939991092768791
 10
84.25262653376244
 20
13.941194911100743
 10
84.27713081884482
 20
13.939991092768791
 10
84.30139911426647
 20
13.936391231201545
 10
84.32519770307606
 20
13.930429995033796
 10
84.34829739185372
 20
13.922164794228562
 10
84.37047571796894
 20
13.911675227187834
 10
84.39151909201735
 20
13.899062314176382
 10
84.41122485480335
 20
13.884447524441425
 10
84.42940322905908
 20
13.867971606397381
 10
85.32229644787253
 20
13.867971606397381
 10
85.34047482212826
 20
13.884447524441425
 10
85.36018058491427
 20
13.899062314176382
 10
85.38122395896266
 20
13.911675227187834
 10
85.4034022850779
 20
13.922164794228562
 10
85.42650197385555
 20
13.930429995033796
 10
85.45030056266513
 20
13.936391231201545
 10
85.47456885808677
 20
13.939991092768791
 10
85.49907314316917
 20
13.941194911100743
 10
85.52357742825156
 20
13.939991092768791
 10
85.54784572367319
 20
13.936391231201545
 10
85.57164431248279
 20
13.930429995033796
 10
85.59474400126044
 20
13.922164794228562
 10
85.61692232737568
 20
13.911675227187834
 10
85.63796570142406
 20
13.899062314176382
 10
85.65767146421008
 20
13.884447524441425
 10
85.67584983846581
 20
13.867971606397381
 10
85.69232575650986
 20
13.849793232141655
 10
85.70694054624481
 20
13.830087469355645
 10
85.71955345925626
 20
13.809044095307241
 10
85.73004302629698
 20
13.786865769192017
 10
85.73830822710222
 20
13.763766080414355
 10
85.74426946326997
 20
13.739967491604771
 10
85.74786932483721
 20
13.71569919618313
 10
85.74907314316917
 20
13.691194911100743
 10
85.74786932483721
 20
13.66669062601835
 10
85.74426946326997
 20
13.642422330596707
 10
85.73830822710222
 20
13.618623741787124
 10
85.73004302629698
 20
13.595524053009468
 10
85.71955345925626
 20
13.573345726894244
 10
85.70694054624481
 20
13.55230235284584
 10
85.69232575650986
 20
13.53259659005983
 10
85.67584983846581
 20
13.514418215804104
 10
85.67584983846581
 20
9.867971606397367
 10
86.4758498384658
 20
9.867971606397367
 10
86.53367609821458
 20
9.864616473161801
 10
86.59072629873948
 20
9.854596101131227
 10
86.64623479594499
 20
9.838044969038576
 10
86.69945663621579
 20
9.81518520189732
 10
86.74967755409126
 20
9.78632358996544
 10
86.79622355808868
 20
9.751847471456626
 10
86.83846997602808
 20
9.712219534255054
 10
86.8758498384658
 20
9.667971606397364
 10
82.8758498384658
 20
9.667971606397364
  0
LWPOLYLINE
  5
55
330
17
100
AcDbEntity
  8
BRACKET_OUTLINE
 62
6
100
AcDbPolyline
 90
87
 70
1
 10
71.3758498384658
 20
9.667971606397364
 10
71.41322970090353
 20
9.712219534255054
 10
71.45547611884292
 20
9.751847471456626
 10
71.50202212284034
 20
9.78632358996544
 10
71.55224304071582
 20
9.81518520189732
 10
71.60546488098662
 20
9.838044969038576
 10
71.66097337819212
 20
9.854596101131227
 10
71.71802357871702
 20
9.864616473161801
 10
71.7758498384658
 20
9.867971606397367
 10
72.5758498384658
 20
9.867971606397367
 10
72.5758498384658
 20
13.514418215804104
 10
72.55937392042176
 20
13.53259659005983
 10
72.5447591306868
 20
13.55230235284584
 10
72.53214621767535
 20
13.573345726894244
 10
72.52165665063461
 20
13.595524053009468
 10
72.51339144982938
 20
13.618623741787124
 10
72.50743021366164
 20
13.642422330596707
 10
72.50383035209438
 20
13.66669062601835
 10
72.50262653376244
 20
13.691194911100743
 10
72.50383035209438
 20
13.71569919618313
 10
72.50743021366164
 20
13.739967491604771
 10
72.51339144982938
 20
13.763766080414355
 10
72.52165665063461
 20
13.786865769192017
 10
72.53214621767535
 20
13.809044095307241
 10
72.5447591306868
 20
13.830087469355645
 10
72.55937392042176
 20
13.849793232141655
 10
72.5758498384658
 20
13.867971606397381
 10
72.59402821272153
 20
13.884447524441425
 10
72.61373397550754
 20
13.899062314176382
 10
72.63477734955595
 20
13.911675227187834
 10
72.65695567567117
 20
13.922164794228562
 10
72.68005536444883
 20
13.930429995033796
 10
72.7038539532584
 20
13.936391231201545
 10
72.72812224868005
 20
13.939991092768791
 10
72.75262653376244
 20
13.941194911100743
 10
72.77713081884482
 20
13.939991092768791
 10
72.80139911426647
 20
13.936391231201545
 10
72.82519770307606
 20
13.930429995033796
 10
72.84829739185372
 20
13.922164794228562
 10
72.87047571796894
 20
13.911675227187834
 10
72.89151909201735
 20
13.899062314176382
 10
72.91122485480335
 20
13.884447524441425
 10
72.92940322905908
 20
13.867971606397381
 10
73.82229644787253
 20
13.867971606397381
 10
73.84047482212826
 20
13.884447524441425
 10
73.86018058491427
 20
13.899062314176382
 10
73.88122395896266
 20
13.911675227187834
 10
73.9034022850779
 20
13.922164794228562
 10
73.92650197385555
 20
13.930429995033796
 10
73.95030056266513
 20
13.936391231201545
 10
73.97456885808677
 20
13.939991092768791
 10
73.99907314316917
 20
13.941194911100743
 10
74.02357742825156
 20
13.939991092768791
 10
74.04784572367319
 20
13.936391231201545
 10
74.07164431248279
 20
13.930429995033796
 10
74.09474400126044
 20
13.922164794228562
 10
74.11692232737566
 20
13.911675227187834
 10
74.13796570142406
 20
13.899062314176382
 10
74.15767146421008
 20
13.884447524441425
 10
74.17584983846581
 20
13.867971606397381
 10
74.19232575650985
 20
13.849793232141655
 10
74.20694054624481
 20
13.830087469355645
 10
74.21955345925626
 20
13.809044095307241
 10
74.23004302629698
 20
13.786865769192017
 10
74.23830822710222
 20
13.763766080414355
 10
74.24426946326997
 20
13.739967491604771
 10
74.24786932483721
 20
13.71569919618313
 10
74.24907314316917
 20
13.691194911100743
 10
74.24786932483721
 20
13.66669062601835
 10
74.24426946326997
 20
13.642422330596707
 10
74.23830822710222
 20
13.618623741787124
 10
74.23004302629698
 20
13.595524053009468
 10
74.21955345925626
 20
13.573345726894244
 10
74.20694054624481
 20
13.55230235284584
 10
74.19232575650985
 20
13.53259659005983
 10
74.17584983846581
 20
13.514418215804104
 10
74.17584983846581
 20
9.867971606397367
 10
74.9758498384658
 20
9.867971606397367
 10
75.03367609821458
 20
9.864616473161801
 10
75.09072629873948
 20
9.854596101131227
 10
75.14623479594499
 20
9.838044969038576
 10
75.19945663621579
 20
9.81518520189732
 10
75.24967755409126
 20
9.78632358996544
 10
75.29622355808868
 20
9.751847471456626
 10
75.33846997602808
 20
9.712219534255054
 10
75.3758498384658
 20
9.667971606397364
 10
71.3758498384658
 20
9.667971606397364
  0
LWPOLYLINE
  5
56
330
17
100
AcDbEntity
  8
BRACKET_OUTLINE
 62
6
100
AcDbPolyline
 90
87
 70
1
 10
62.2258498384658
 20
9.667971606397364
 10
62.263229700903516
 20
9.712219534255054
 10
62.30547611884291
 20
9.751847471456626
 10
62.352022122840346
 20
9.78632358996544
 10
62.402243040715824
 20
9.81518520189732
 10
62.45546488098661
 20
9.838044969038576
 10
62.51097337819211
 20
9.854596101131227
 10
62.56802357871701
 20
9.864616473161801
 10
62.6258498384658
 20
9.867971606397367
 10
63.4258498384658
 20
9.867971606397367
 10
63.4258498384658
 20
13.514418215804104
 10
63.40937392042175
 20
13.53259659005983
 10
63.3947591306868
 20
13.55230235284584
 10
63.38214621767535
 20
13.573345726894244
 10
63.37165665063461
 20
13.595524053009468
 10
63.363391449829386
 20
13.618623741787124
 10
63.35743021366162
 20
13.642422330596707
 10
63.353830352094384
 20
13.66669062601835
 10
63.35262653376244
 20
13.691194911100743
 10
63.353830352094384
 20
13.71569919618313
 10
63.35743021366162
 20
13.739967491604771
 10
63.363391449829386
 20
13.763766080414355
 10
63.37165665063461
 20
13.786865769192017
 10
63.38214621767535
 20
13.809044095307241
 10
63.3947591306868
 20
13.830087469355645
 10
63.40937392042175
 20
13.849793232141655
 10
63.4258498384658
 20
13.867971606397381
 10
63.44402821272153
 20
13.884447524441425
 10
63.46373397550753
 20
13.899062314176382
 10
63.484777349555934
 20
13.911675227187834
 10
63.50695567567116
 20
13.922164794228562
 10
63.53005536444882
 20
13.930429995033796
 10
63.553853953258404
 20
13.936391231201545
 10
63.578122248680046
 20
13.939991092768791
 10
63.60262653376244
 20
13.941194911100743
 10
63.627130818844826
 20
13.939991092768791
 10
63.65139911426647
 20
13.936391231201545
 10
63.67519770307605
 20
13.930429995033796
 10
63.69829739185371
 20
13.922164794228562
 10
63.72047571796893
 20
13.911675227187834
 10
63.741519092017334
 20
13.899062314176382
 10
63.761224854803345
 20
13.884447524441425
 10
63.77940322905907
 20
13.867971606397381
 10
64.67229644787253
 20
13.867971606397381
 10
64.69047482212825
 20
13.884447524441425
 10
64.71018058491427
 20
13.899062314176382
 10
64.73122395896267
 20
13.911675227187834
 10
64.7534022850779
 20
13.922164794228562
 10
64.77650197385555
 20
13.930429995033796
 10
64.80030056266514
 20
13.936391231201545
 10
64.82456885808678
 20
13.939991092768791
 10
64.84907314316916
 20
13.941194911100743
 10
64.87357742825156
 20
13.939991092768791
 10
64.8978457236732
 20
13.936391231201545
 10
64.92164431248278
 20
13.930429995033796
 10
64.94474400126045
 20
13.922164794228562
 10
64.96692232737567
 20
13.911675227187834
 10
64.98796570142407
 20
13.899062314176382
 10
65.00767146421008
 20
13.884447524441425
 10
65.0258498384658
 20
13.867971606397381
 10
65.04232575650985
 20
13.849793232141655
 10
65.0569405462448
 20
13.830087469355645
 10
65.06955345925626
 20
13.809044095307241
 10
65.08004302629699
 20
13.786865769192017
 10
65.08830822710222
 20
13.763766080414355
 10
65.09426946326998
 20
13.739967491604771
 10
65.09786932483722
 20
13.71569919618313
 10
65.09907314316916
 20
13.691194911100743
 10
65.09786932483722
 20
13.66669062601835
 10
65.09426946326998
 20
13.642422330596707
 10
65.08830822710222
 20
13.618623741787124
 10
65.08004302629699
 20
13.595524053009468
 10
65.06955345925626
 20
13.573345726894244
 10
65.0569405462448
 20
13.55230235284584
 10
65.04232575650985
 20
13.53259659005983
 10
65.0258498384658
 20
13.514418215804104
 10
65.0258498384658
 20
9.867971606397367
 10
65.82584983846581
 20
9.867971606397367
 10
65.8836760982146
 20
9.864616473161801
 10
65.94072629873949
 20
9.854596101131227
 10
65.99623479594499
 20
9.838044969038576
 10
66.04945663621578
 20
9.81518520189732
 10
66.09967755409126
 20
9.78632358996544
 10
66.14622355808869
 20
9.751847471456626
 10
66.18846997602809
 20
9.712219534255054
 10
66.2258498384658
 20
9.667971606397364
 10
62.2258498384658
 20
9.667971606397364
  0
LINE
  5
57
330
17
100
AcDbEntity
  8
BRACKET_CUT_LINE
 62
4
100
AcDbLine
 10
85.67584983846581
 20
9.867971606397367
 30
0.0
 11
84.07584983846581
 21
9.867971606397367
 31
0.0
  0
LINE
  5
58
330
17
100
AcDbEntity
  8
BRACKET_CUT_LINE
 62
4
100
AcDbLine
 10
74.17584983846581
 20
9.867971606397367
 30
0.0
 11
72.5758498384658
 21
9.867971606397367
 31
0.0
  0
LINE
  5
59
330
17
100
AcDbEntity
  8
BRACKET_CUT_LINE
 62
4
100
AcDbLine
 10
65.0258498384658
 20
9.867971606397367
 30
0.0
 11
63.4258498384658
 21
9.867971606397367
 31
0.0
  0
LWPOLYLINE
  5
5A
330
17
100
AcDbEntity
  8
SHELF_R
 62
3
100
AcDbPolyline
 90
110
 70
1
 10
0.7500000000000018
 20
38.332028393602634
 10
0.7500000000000018
 20
35.769528393602634
 10
0.7500000000000018
 20
35.769528393602634
 10
0.7452841574199337
 20
35.68555503652515
 10
0.7311959341363695
 20
35.6026376931354
 10
0.7079124977312774
 20
35.52181909713626
 10
0.6757266509268162
 20
35.44411558926446
 10
0.635043149421215
 20
35.37050433621613
 10
0.5863736118510242
 20
35.30191104220859
 10
0.5303300858899125
 20
35.239198307712726
 10
0.46761735139405197
 20
35.18315478175161
 10
0.39902405738650426
 20
35.13448524418142
 10
0.32541280433817044
 20
35.09380174267582
 10
0.24770929646637718
 20
35.061615895871356
 10
0.16689070046723764
 20
35.03833245946627
 10
0.08397335707748277
 20
35.0242442361827
 10
1.887379141862766e-15
 20
35.019528393602634
 10
1.7763568394002505e-15
 20
34.394528393602634
 10
0.0
 20
34.394528393602634
 10
0.1679194078349795
 20
34.09225376716076
 10
0.35632913493849205
 20
33.80230782038619
 10
0.5643280788014886
 20
33.526077270536796
 10
0.7909214480558466
 20
33.26488323858319
 10
1.03502552023825
 20
33.019974930716366
 10
1.2954728248826437
 20
32.79252366380037
 10
1.5710177271521322
 20
32.58361726334428
 10
1.8603423853057044
 20
32.394254860786276
 10
2.162063053507099
 20
32.22534211497256
 10
2.4747366998315443
 20
32.0776868806854
 10
2.796867907818615
 20
31.951995344936115
 10
3.1269160285632775
 20
31.84886864950211
 10
3.463302549139045
 20
31.768800015861025
 10
3.804418642112433
 20
31.712172386272684
 10
4.148632860041845
 20
31.679256592290685
 10
4.494298938160629
 20
31.670210059463066
 10
4.839763667926563
 20
31.685076054417046
 10
5.183374803781181
 20
31.72378347792884
 10
5.523488965303448
 20
31.78614720496811
 10
5.523488965274671
 20
31.786147205099304
 10
5.966306550360406
 20
31.886726776054346
 10
6.40912413544614
 20
31.9932843316353
 10
6.851941720531874
 20
32.10438938202597
 10
7.2947593056176085
 20
32.21855038922846
 10
7.737576890703343
 20
32.33423479032578
 10
8.180394475789077
 20
32.44988957148647
 10
8.623212060874812
 20
32.56396211651413
 10
9.066029645960546
 20
32.674921050058806
 10
9.50884723104628
 20
32.781276795679034
 10
9.951664816132014
 20
32.88160157277143
 10
10.394482401217749
 20
32.97454856391736
 10
10.837299986303483
 20
33.05886999533341
 10
11.280117571389217
 20
33.133433887703134
 10
11.722935156474952
 20
33.19723925251747
 10
12.165752741560686
 20
33.24942952991928
 10
12.60857032664642
 20
33.28930408765475
 10
13.051387911732155
 20
33.3163276267631
 10
13.494205496817889
 20
33.33013736773722
 10
13.937023081903622
 20
33.33054792068411
 10
14.379840666989356
 20
33.31755377410526
 10
14.82265825207509
 20
33.291329368886146
 10
15.265475837160825
 20
33.252226756501656
 10
15.708293422246559
 20
33.20077087287489
 10
16.151111007332293
 20
33.13765249133591
 10
16.593928592418028
 20
33.06371894928387
 10
17.03674617750376
 20
32.979962773043184
 10
17.479563762589493
 20
32.88750835362023
 10
17.922381347675227
 20
32.78759685223277
 10
18.36519893276096
 20
32.681569538249036
 10
18.808016517846696
 20
32.57084978321754
 10
19.25083410293243
 20
32.45692395271002
 10
19.693651688018164
 20
32.34132145249647
 10
20.1364692731039
 20
32.22559419692384
 10
20.579286858189633
 20
32.11129577512667
 10
21.022104443275367
 20
31.999960594754384
 10
21.4649220283611
 20
31.89308328320189
 10
21.907739613446836
 20
31.79209862287317
 10
22.35055719853257
 20
31.69836228983835
 10
22.793374783618304
 20
31.61313265445964
 10
23.23619236870404
 20
31.537553888305013
 10
23.679009953789773
 20
31.472640604132003
 10
24.121827538875507
 20
31.41926423514343
 10
24.564645123961242
 20
31.37814133636769
 10
25.007462709046976
 20
31.349823965212522
 10
25.45028029413271
 20
31.33469227032942
 10
25.893097879218445
 20
31.33294938827978
 10
26.33591546430418
 20
31.344618716513075
 10
26.778733049389913
 20
31.369543599266052
 10
27.221550634475648
 20
31.40738943059967
 10
27.221550634475648
 20
31.407389430599686
 10
27.37217499387502
 20
31.418586393597977
 10
27.523172004023046
 20
31.42218813639989
 10
27.674158919885777
 20
31.41818552935993
 10
27.824753022016097
 20
31.406588718228456
 10
27.974572586665445
 20
31.387427098434323
 10
28.123237853371663
 20
31.360749240573803
 10
28.27037198757027
 20
31.326622767294552
 10
28.415602035789327
 20
31.28513418188667
 10
28.558559871006416
 20
31.236388649015446
 10
28.69888312577173
 20
31.180509728151456
 10
28.83621611073184
 20
31.117639060373854
 10
28.970210716225893
 20
31.04793600934056
 10
29.100527294668936
 20
30.97157725733561
 10
29.226835521485718
 20
30.888756357417435
 10
29.34881523241262
 20
30.799683242803404
 10
29.466157235045408
 20
30.70458369473411
 10
29.578564092575625
 20
30.603698770166382
 10
29.68575087772915
 20
30.497284190745575
 10
29.7874458949957
 20
30.385609694606075
 10
29.7874458949957
 20
38.332028393602634
 10
0.7500000000000018
 20
38.332028393602634
  0
LWPOLYLINE
  5
5B
330
17
100
AcDbEntity
  8
BRACKET_OUTLINE
 62
6
100
AcDbPolyline
 90
87
 70
1
 10
7.925000000000002
 20
38.332028393602634
 10
7.887620137562282
 20
38.287780465744945
 10
7.845373719622886
 20
38.24815252854337
 10
7.798827715625459
 20
38.21367641003456
 10
7.74860679774998
 20
38.18481479810268
 10
7.695384957479188
 20
38.16195503096142
 10
7.639876460273682
 20
38.14540389886877
 10
7.582826259748785
 20
38.1353835268382
 10
7.525000000000002
 20
38.13202839360263
 10
6.725000000000001
 20
38.13202839360263
 10
6.725000000000002
 20
34.48558178419591
 10
6.741475918044049
 20
34.46740340994018
 10
6.756090707779001
 20
34.44769764715417
 10
6.768703620790454
 20
34.42665427310577
 10
6.779193187831186
 20
34.404475946990544
 10
6.787458388636417
 20
34.38137625821289
 10
6.793419624804173
 20
34.357577669403305
 10
6.797019486371414
 20
34.33330937398166
 10
6.798223304703365
 20
34.30880508889927
 10
6.797019486371414
 20
34.28430080381688
 10
6.793419624804173
 20
34.26003250839524
 10
6.787458388636417
 20
34.23623391958566
 10
6.779193187831186
 20
34.213134230807995
 10
6.768703620790454
 20
34.19095590469277
 10
6.756090707779001
 20
34.16991253064437
 10
6.741475918044049
 20
34.15020676785836
 10
6.725000000000002
 20
34.13202839360263
 10
6.7068216257442765
 20
34.11555247555859
 10
6.687115862958266
 20
34.10093768582363
 10
6.666072488909864
 20
34.08832477281218
 10
6.643894162794638
 20
34.07783520577145
 10
6.62079447401698
 20
34.06957000496622
 10
6.596995885207397
 20
34.06360876879847
 10
6.572727589785755
 20
34.06000890723122
 10
6.548223304703365
 20
34.05880508889927
 10
6.523719019620975
 20
34.06000890723122
 10
6.499450724199333
 20
34.06360876879847
 10
6.475652135389749
 20
34.06957000496622
 10
6.452552446612093
 20
34.07783520577145
 10
6.430374120496865
 20
34.08832477281218
 10
6.409330746448465
 20
34.10093768582363
 10
6.389624983662454
 20
34.11555247555859
 10
6.371446609406728
 20
34.13202839360263
 10
5.478553390593276
 20
34.13202839360263
 10
5.46037501633755
 20
34.11555247555859
 10
5.4406692535515395
 20
34.10093768582363
 10
5.419625879503138
 20
34.08832477281218
 10
5.397447553387911
 20
34.07783520577145
 10
5.374347864610254
 20
34.06957000496622
 10
5.35054927580067
 20
34.06360876879847
 10
5.326280980379028
 20
34.06000890723122
 10
5.301776695296638
 20
34.05880508889927
 10
5.277272410214248
 20
34.06000890723122
 10
5.253004114792606
 20
34.06360876879847
 10
5.229205525983023
 20
34.06957000496622
 10
5.206105837205366
 20
34.07783520577145
 10
5.18392751109014
 20
34.08832477281218
 10
5.162884137041738
 20
34.10093768582363
 10
5.1431783742557275
 20
34.11555247555859
 10
5.125000000000002
 20
34.13202839360263
 10
5.108524081955954
 20
34.15020676785836
 10
5.093909292221002
 20
34.16991253064437
 10
5.08129637920955
 20
34.19095590469277
 10
5.070806812168817
 20
34.213134230807995
 10
5.062541611363587
 20
34.23623391958566
 10
5.056580375195831
 20
34.26003250839524
 10
5.052980513628589
 20
34.28430080381688
 10
5.051776695296638
 20
34.30880508889927
 10
5.052980513628589
 20
34.33330937398166
 10
5.056580375195831
 20
34.357577669403305
 10
5.062541611363587
 20
34.38137625821289
 10
5.070806812168817
 20
34.404475946990544
 10
5.08129637920955
 20
34.42665427310577
 10
5.093909292221002
 20
34.44769764715417
 10
5.108524081955954
 20
34.46740340994018
 10
5.125000000000002
 20
34.48558178419591
 10
5.125000000000002
 20
38.13202839360263
 10
4.325000000000001
 20
38.13202839360263
 10
4.267173740251218
 20
38.1353835268382
 10
4.210123539726321
 20
38.14540389886877
 10
4.154615042520815
 20
38.16195503096142
 10
4.101393202250023
 20
38.18481479810268
 10
4.051172284374545
 20
38.21367641003456
 10
4.004626280377118
 20
38.24815252854337
 10
3.962379862437721
 20
38.287780465744945
 10
3.9250000000000016
 20
38.332028393602634
 10
7.925000000000002
 20
38.332028393602634
  0
LWPOLYLINE
  5
5C
330
17
100
AcDbEntity
  8
BRACKET_OUTLINE
 62
6
100
AcDbPolyline
 90
87
 70
1
 10
19.425000000000004
 20
38.332028393602634
 10
19.38762013756228
 20
38.287780465744945
 10
19.345373719622884
 20
38.24815252854337
 10
19.298827715625457
 20
38.21367641003456
 10
19.24860679774998
 20
38.18481479810268
 10
19.19538495747919
 20
38.16195503096142
 10
19.139876460273683
 20
38.14540389886877
 10
19.082826259748785
 20
38.1353835268382
 10
19.025000000000006
 20
38.13202839360263
 10
18.225
 20
38.13202839360263
 10
18.225
 20
34.48558178419591
 10
18.241475918044053
 20
34.46740340994018
 10
18.256090707779002
 20
34.44769764715417
 10
18.268703620790454
 20
34.42665427310577
 10
18.27919318783119
 20
34.404475946990544
 10
18.287458388636416
 20
34.38137625821289
 10
18.293419624804173
 20
34.357577669403305
 10
18.29701948637142
 20
34.33330937398166
 10
18.298223304703363
 20
34.30880508889927
 10
18.29701948637142
 20
34.28430080381688
 10
18.293419624804173
 20
34.26003250839524
 10
18.287458388636416
 20
34.23623391958566
 10
18.27919318783119
 20
34.213134230807995
 10
18.268703620790454
 20
34.19095590469277
 10
18.256090707779002
 20
34.16991253064437
 10
18.241475918044053
 20
34.15020676785836
 10
18.225
 20
34.13202839360263
 10
18.206821625744276
 20
34.11555247555859
 10
18.187115862958265
 20
34.10093768582363
 10
18.16607248890987
 20
34.08832477281218
 10
18.143894162794638
 20
34.07783520577145
 10
18.120794474016982
 20
34.06957000496622
 10
18.0969958852074
 20
34.06360876879847
 10
18.072727589785757
 20
34.06000890723122
 10
18.048223304703363
 20
34.05880508889927
 10
18.023719019620977
 20
34.06000890723122
 10
17.999450724199335
 20
34.06360876879847
 10
17.97565213538975
 20
34.06957000496622
 10
17.952552446612096
 20
34.07783520577145
 10
17.930374120496865
 20
34.08832477281218
 10
17.909330746448468
 20
34.10093768582363
 10
17.889624983662458
 20
34.11555247555859
 10
17.871446609406732
 20
34.13202839360263
 10
16.978553390593277
 20
34.13202839360263
 10
16.96037501633755
 20
34.11555247555859
 10
16.94066925355154
 20
34.10093768582363
 10
16.919625879503137
 20
34.08832477281218
 10
16.897447553387913
 20
34.07783520577145
 10
16.874347864610257
 20
34.06957000496622
 10
16.850549275800674
 20
34.06360876879847
 10
16.826280980379032
 20
34.06000890723122
 10
16.80177669529664
 20
34.05880508889927
 10
16.777272410214252
 20
34.06000890723122
 10
16.75300411479261
 20
34.06360876879847
 10
16.729205525983026
 20
34.06957000496622
 10
16.706105837205367
 20
34.07783520577145
 10
16.68392751109014
 20
34.08832477281218
 10
16.66288413704174
 20
34.10093768582363
 10
16.643178374255726
 20
34.11555247555859
 10
16.625
 20
34.13202839360263
 10
16.608524081955956
 20
34.15020676785836
 10
16.593909292221003
 20
34.16991253064437
 10
16.58129637920955
 20
34.19095590469277
 10
16.57080681216882
 20
34.213134230807995
 10
16.562541611363585
 20
34.23623391958566
 10
16.556580375195832
 20
34.26003250839524
 10
16.55298051362859
 20
34.28430080381688
 10
16.55177669529664
 20
34.30880508889927
 10
16.55298051362859
 20
34.33330937398166
 10
16.556580375195832
 20
34.357577669403305
 10
16.562541611363585
 20
34.38137625821289
 10
16.57080681216882
 20
34.404475946990544
 10
16.58129637920955
 20
34.42665427310577
 10
16.593909292221003
 20
34.44769764715417
 10
16.608524081955956
 20
34.46740340994018
 10
16.625
 20
34.48558178419591
 10
16.625
 20
38.13202839360263
 10
15.825000000000003
 20
38.13202839360263
 10
15.76717374025122
 20
38.1353835268382
 10
15.710123539726322
 20
38.14540389886877
 10
15.654615042520817
 20
38.16195503096142
 10
15.601393202250023
 20
38.18481479810268
 10
15.551172284374545
 20
38.21367641003456
 10
15.504626280377119
 20
38.24815252854337
 10
15.462379862437722
 20
38.287780465744945
 10
15.425000000000002
 20
38.332028393602634
 10
19.425000000000004
 20
38.332028393602634
  0
LWPOLYLINE
  5
5D
330
17
100
AcDbEntity
  8
BRACKET_OUTLINE
 62
6
100
AcDbPolyline
 90
87
 70
1
 10
28.575000000000003
 20
38.332028393602634
 10
28.53762013756228
 20
38.287780465744945
 10
28.495373719622883
 20
38.24815252854337
 10
28.448827715625455
 20
38.21367641003456
 10
28.398606797749977
 20
38.18481479810268
 10
28.34538495747919
 20
38.16195503096142
 10
28.289876460273682
 20
38.14540389886877
 10
28.232826259748784
 20
38.1353835268382
 10
28.175000000000004
 20
38.13202839360263
 10
27.375
 20
38.13202839360263
 10
27.375
 20
34.48558178419591
 10
27.39147591804405
 20
34.46740340994018
 10
27.406090707779
 20
34.44769764715417
 10
27.418703620790453
 20
34.42665427310577
 10
27.42919318783119
 20
34.404475946990544
 10
27.437458388636415
 20
34.38137625821289
 10
27.44341962480417
 20
34.357577669403305
 10
27.447019486371417
 20
34.33330937398166
 10
27.44822330470336
 20
34.30880508889927
 10
27.447019486371417
 20
34.28430080381688
 10
27.44341962480417
 20
34.26003250839524
 10
27.437458388636415
 20
34.23623391958566
 10
27.42919318783119
 20
34.213134230807995
 10
27.418703620790453
 20
34.19095590469277
 10
27.406090707779
 20
34.16991253064437
 10
27.39147591804405
 20
34.15020676785836
 10
27.375
 20
34.13202839360263
 10
27.356821625744274
 20
34.11555247555859
 10
27.337115862958264
 20
34.10093768582363
 10
27.316072488909867
 20
34.08832477281218
 10
27.293894162794636
 20
34.07783520577145
 10
27.27079447401698
 20
34.06957000496622
 10
27.246995885207397
 20
34.06360876879847
 10
27.222727589785755
 20
34.06000890723122
 10
27.19822330470336
 20
34.05880508889927
 10
27.173719019620975
 20
34.06000890723122
 10
27.149450724199333
 20
34.06360876879847
 10
27.12565213538975
 20
34.06957000496622
 10
27.102552446612094
 20
34.07783520577145
 10
27.080374120496863
 20
34.08832477281218
 10
27.059330746448467
 20
34.10093768582363
 10
27.039624983662456
 20
34.11555247555859
 10
27.02144660940673
 20
34.13202839360263
 10
26.128553390593275
 20
34.13202839360263
 10
26.11037501633755
 20
34.11555247555859
 10
26.09066925355154
 20
34.10093768582363
 10
26.069625879503135
 20
34.08832477281218
 10
26.04744755338791
 20
34.07783520577145
 10
26.024347864610256
 20
34.06957000496622
 10
26.000549275800672
 20
34.06360876879847
 10
25.97628098037903
 20
34.06000890723122
 10
25.951776695296637
 20
34.05880508889927
 10
25.92727241021425
 20
34.06000890723122
 10
25.90300411479261
 20
34.06360876879847
 10
25.879205525983025
 20
34.06957000496622
 10
25.856105837205362
 20
34.07783520577145
 10
25.83392751109014
 20
34.08832477281218
 10
25.812884137041735
 20
34.10093768582363
 10
25.793178374255724
 20
34.11555247555859
 10
25.775
 20
34.13202839360263
 10
25.758524081955954
 20
34.15020676785836
 10
25.743909292221005
 20
34.16991253064437
 10
25.731296379209546
 20
34.19095590469277
 10
25.720806812168817
 20
34.213134230807995
 10
25.712541611363584
 20
34.23623391958566
 10
25.706580375195827
 20
34.26003250839524
 10
25.70298051362859
 20
34.28430080381688
 10
25.701776695296637
 20
34.30880508889927
 10
25.70298051362859
 20
34.33330937398166
 10
25.706580375195827
 20
34.357577669403305
 10
25.712541611363584
 20
34.38137625821289
 10
25.720806812168817
 20
34.404475946990544
 10
25.731296379209546
 20
34.42665427310577
 10
25.743909292221005
 20
34.44769764715417
 10
25.758524081955954
 20
34.46740340994018
 10
25.775
 20
34.48558178419591
 10
25.775
 20
38.13202839360263
 10
24.975
 20
38.13202839360263
 10
24.917173740251215
 20
38.1353835268382
 10
24.860123539726324
 20
38.14540389886877
 10
24.804615042520815
 20
38.16195503096142
 10
24.75139320225002
 20
38.18481479810268
 10
24.701172284374543
 20
38.21367641003456
 10
24.654626280377116
 20
38.24815252854337
 10
24.61237986243772
 20
38.287780465744945
 10
24.575000000000003
 20
38.332028393602634
 10
28.575000000000003
 20
38.332028393602634
  0
LINE
  5
5E
330
17
100
AcDbEntity
  8
BRACKET_CUT_LINE
 62
4
100
AcDbLine
 10
5.125000000000002
 20
38.13202839360263
 30
0.0
 11
6.725000000000001
 21
38.13202839360263
 31
0.0
  0
LINE
  5
5F
330
17
100
AcDbEntity
  8
BRACKET_CUT_LINE
 62
4
100
AcDbLine
 10
16.625
 20
38.13202839360263
 30
0.0
 11
18.225
 21
38.13202839360263
 31
0.0
  0
LINE
  5
60
330
17
100
AcDbEntity
  8
BRACKET_CUT_LINE
 62
4
100
AcDbLine
 10
25.775
 20
38.13202839360263
 30
0.0
 11
27.375
 21
38.13202839360263
 31
0.0
  0
LWPOLYLINE
  5
61
330
17
100
AcDbEntity
  8
SHELF_R
 62
3
100
AcDbPolyline
 90
110
 70
1
 10
29.01872294749785
 20
24.83617429837348
 10
0.018722947497849418
 20
24.83617429837348
 10
0.018722947497849418
 20
27.488455667696464
 10
0.018722947497849418
 20
27.488455667696464
 10
0.032221781435673336
 20
27.772728046075493
 10
0.0725968042373637
 20
28.05444219403529
 10
0.139484672084226
 20
28.331062903241694
 10
0.23228344616257957
 20
28.600100802349807
 10
0.3501580096451491
 20
28.859134759410935
 10
0.4920475830932993
 20
29.105833670177994
 10
0.65667527064738
 20
29.33797743623159
 10
0.8425595510968122
 20
29.55347694413996
 10
1.048027610419311
 20
29.7503928658558
 10
1.2712303958066506
 20
29.926953111161147
 10
1.5101592557025718
 20
30.08156877510173
 10
1.7626640161052762
 20
30.212848436896408
 10
2.0264723304619707
 20
30.319610681642523
 10
2.2992101290213824
 20
30.40089473213164
 10
2.578422983615962
 20
30.45596909509753
 10
2.8615981956073924
 20
30.484338144086912
 10
3.1461874082210137
 20
30.48574657971227
 10
3.429629539775785
 20
30.460181727147862
 10
3.7093738314284757
 20
30.407873650193288
 10
3.7093738314284472
 20
30.40787365019316
 10
4.185285197916855
 20
30.298897745268505
 10
4.661196564405259
 20
30.198251464575932
 10
5.1371079308936665
 20
30.107495169708905
 10
5.613019297382074
 20
30.028035893653623
 10
6.088930663870478
 20
29.96110552696529
 10
6.564842030358886
 20
29.907741719250993
 10
7.040753396847293
 20
29.868771792051717
 10
7.516664763335697
 20
29.84479991252877
 10
7.992576129824105
 20
29.83619772680631
 10
8.468487496312513
 20
29.843098598185286
 10
8.944398862800917
 20
29.865395539556104
 10
9.420310229289324
 20
29.902742872064806
 10
9.896221595777732
 20
29.954561584317595
 10
10.372132962266136
 20
30.020048309037847
 10
10.848044328754543
 20
30.098187778006697
 10
11.323955695242951
 20
30.18776856219297
 10
11.799867061731355
 20
30.287401853046617
 10
12.275778428219766
 20
30.395542993781454
 10
12.75168979470817
 20
30.510515426838523
 10
13.227601161196578
 20
30.63053668626268
 10
13.703512527684982
 20
30.75374603202146
 10
14.179423894173388
 20
30.878233297839934
 10
14.655335260661795
 20
31.002068505311343
 10
15.131246627150201
 20
31.123331785163565
 10
15.607157993638607
 20
31.240143141799393
 10
16.083069360127013
 20
31.35069159965849
 10
16.55898072661542
 20
31.453263279532678
 10
17.034892093103828
 20
31.546267969555714
 10
17.510803459592232
 20
31.628263778926225
 10
17.98671482608064
 20
31.697979492146878
 10
18.462626192569047
 20
31.75433427721255
 10
18.93853755905745
 20
31.796454442203185
 10
19.41444892554586
 20
31.823686980496902
 10
19.890360292034266
 20
31.835609694606077
 10
20.36627165852267
 20
31.832037741682505
 10
20.84218302501108
 20
31.813026499213727
 10
21.318094391499486
 20
31.778870706482593
 10
21.79400575798789
 20
31.73009989510024
 10
22.2699171244763
 20
31.667470179454995
 10
22.745828490964705
 20
31.59195253435317
 10
23.22173985745311
 20
31.50471774158852
 10
23.69765122394152
 20
31.40711823882002
 10
24.173562590429924
 20
31.300667152162312
 10
24.649473956918328
 20
31.18701483755563
 10
25.12538532340674
 20
31.067923294603915
 10
25.601296689895143
 20
30.94523884955437
 10
26.07720805638355
 20
30.820863530925614
 10
26.55311942287196
 20
30.69672558156006
 10
27.029030789360363
 20
30.574749564264664
 10
27.029030789132527
 20
30.57474956336302
 10
27.198694465448202
 20
30.528688507074698
 10
27.366633962424235
 20
30.47669130212305
 10
27.532641657239978
 20
30.418822232411244
 10
27.69651231535282
 20
30.355152841201566
 10
27.858043344228708
 20
30.285761842666858
 10
28.01703504380636
 20
30.21073502457655
 10
28.173290853385517
 20
30.130165142237622
 10
28.326617594634026
 20
30.044151803821656
 10
28.476825710413323
 20
29.952801347219733
 10
28.623729499127023
 20
29.856226708577346
 10
28.767147344302973
 20
29.754547282672036
 10
28.906901939124825
 20
29.647888775306107
 10
29.042820505635643
 20
29.536383047897196
 10
29.17473500834249
 20
29.420167954458556
 10
29.302482361957928
 20
29.299387171170814
 10
29.42590463302159
 20
29.17419001875578
 10
29.54484923515261
 20
29.044731277871897
 10
29.659169117691427
 20
28.911170997759662
 10
29.76872294749785
 20
28.773674298373486
 10
29.76872294749785
 20
28.148674298373486
 10
29.76872294749785
 20
28.148674298373486
 10
29.684749590420367
 20
28.143958455793417
 10
29.60183224703061
 20
28.12987023250985
 10
29.521013651031474
 20
28.106586796104764
 10
29.443310143159678
 20
28.074400949300298
 10
29.369698890111344
 20
28.0337174477947
 10
29.3011055961038
 20
27.98504791022451
 10
29.238392861607938
 20
27.929004384263393
 10
29.182349335646826
 20
27.866291649767533
 10
29.133679798076635
 20
27.79769835575999
 10
29.092996296571034
 20
27.724087102711657
 10
29.06081044976657
 20
27.64638359483986
 10
29.03752701336148
 20
27.56556499884072
 10
29.023438790077915
 20
27.482647655450968
 10
29.01872294749785
 20
27.39867429837348
 10
29.01872294749785
 20
24.83617429837348
  0
LWPOLYLINE
  5
62
330
17
100
AcDbEntity
  8
BRACKET_OUTLINE
 62
6
100
AcDbPolyline
 90
87
 70
1
 10
21.84372294749785
 20
24.83617429837348
 10
21.88110280993557
 20
24.88042222623117
 10
21.923349227874965
 20
24.92005016343274
 10
21.969895231872393
 20
24.954526281941554
 10
22.02011614974787
 20
24.983387893873434
 10
22.07333799001866
 20
25.00624766101469
 10
22.128846487224166
 20
25.02279879310734
 10
22.185896687749064
 20
25.032819165137916
 10
22.243722947497847
 20
25.03617429837348
 10
23.043722947497848
 20
25.03617429837348
 10
23.043722947497848
 20
28.682620907780212
 10
23.0272470294538
 20
28.700799282035938
 10
23.012632239718847
 20
28.720505044821948
 10
23.000019326707395
 20
28.74154841887035
 10
22.989529759666663
 20
28.763726744985576
 10
22.981264558861433
 20
28.78682643376323
 10
22.975303322693676
 20
28.810625022572815
 10
22.971703461126438
 20
28.834893317994457
 10
22.970499642794486
 20
28.85939760307685
 10
22.971703461126438
 20
28.883901888159237
 10
22.975303322693676
 20
28.90817018358088
 10
22.981264558861433
 20
28.931968772390462
 10
22.989529759666663
 20
28.955068461168125
 10
23.000019326707395
 20
28.97724678728335
 10
23.012632239718847
 20
28.998290161331752
 10
23.0272470294538
 20
29.017995924117763
 10
23.043722947497848
 20
29.03617429837349
 10
23.061901321753574
 20
29.052650216417533
 10
23.081607084539584
 20
29.06726500615249
 10
23.102650458587988
 20
29.07987791916394
 10
23.12482878470321
 20
29.09036748620467
 10
23.147928473480867
 20
29.098632687009903
 10
23.17172706229045
 20
29.104593923177653
 10
23.195995357712093
 20
29.1081937847449
 10
23.220499642794486
 20
29.10939760307685
 10
23.245003927876873
 20
29.1081937847449
 10
23.269272223298515
 20
29.104593923177653
 10
23.2930708121081
 20
29.098632687009903
 10
23.316170500885757
 20
29.09036748620467
 10
23.338348827000985
 20
29.07987791916394
 10
23.359392201049385
 20
29.06726500615249
 10
23.379097963835395
 20
29.052650216417533
 10
23.39727633809112
 20
29.03617429837349
 10
24.290169556904573
 20
29.03617429837349
 10
24.3083479311603
 20
29.052650216417533
 10
24.32805369394631
 20
29.06726500615249
 10
24.349097067994713
 20
29.07987791916394
 10
24.371275394109936
 20
29.09036748620467
 10
24.394375082887596
 20
29.098632687009903
 10
24.41817367169718
 20
29.104593923177653
 10
24.44244196711882
 20
29.1081937847449
 10
24.46694625220121
 20
29.10939760307685
 10
24.4914505372836
 20
29.1081937847449
 10
24.515718832705243
 20
29.104593923177653
 10
24.539517421514827
 20
29.098632687009903
 10
24.562617110292486
 20
29.09036748620467
 10
24.58479543640771
 20
29.07987791916394
 10
24.605838810456113
 20
29.06726500615249
 10
24.625544573242124
 20
29.052650216417533
 10
24.64372294749785
 20
29.03617429837349
 10
24.660198865541894
 20
29.017995924117763
 10
24.67481365527685
 20
28.998290161331752
 10
24.687426568288302
 20
28.97724678728335
 10
24.69791613532903
 20
28.955068461168125
 10
24.706181336134264
 20
28.931968772390462
 10
24.71214257230202
 20
28.90817018358088
 10
24.71574243386926
 20
28.883901888159237
 10
24.71694625220121
 20
28.85939760307685
 10
24.71574243386926
 20
28.834893317994457
 10
24.71214257230202
 20
28.810625022572815
 10
24.706181336134264
 20
28.78682643376323
 10
24.69791613532903
 20
28.763726744985576
 10
24.687426568288302
 20
28.74154841887035
 10
24.67481365527685
 20
28.720505044821948
 10
24.660198865541894
 20
28.700799282035938
 10
24.64372294749785
 20
28.682620907780212
 10
24.64372294749785
 20
25.03617429837348
 10
25.443722947497847
 20
25.03617429837348
 10
25.501549207246633
 20
25.032819165137916
 10
25.55859940777153
 20
25.02279879310734
 10
25.614107904977033
 20
25.00624766101469
 10
25.667329745247827
 20
24.983387893873434
 10
25.717550663123305
 20
24.954526281941554
 10
25.764096667120732
 20
24.92005016343274
 10
25.806343085060128
 20
24.88042222623117
 10
25.84372294749785
 20
24.83617429837348
 10
21.84372294749785
 20
24.83617429837348
  0
LWPOLYLINE
  5
63
330
17
100
AcDbEntity
  8
BRACKET_OUTLINE
 62
6
100
AcDbPolyline
 90
87
 70
1
 10
10.343722947497849
 20
24.83617429837348
 10
10.38110280993557
 20
24.88042222623117
 10
10.423349227874965
 20
24.92005016343274
 10
10.469895231872393
 20
24.954526281941554
 10
10.52011614974787
 20
24.983387893873434
 10
10.573337990018661
 20
25.00624766101469
 10
10.628846487224166
 20
25.02279879310734
 10
10.685896687749064
 20
25.032819165137916
 10
10.743722947497847
 20
25.03617429837348
 10
11.543722947497848
 20
25.03617429837348
 10
11.543722947497848
 20
28.682620907780212
 10
11.5272470294538
 20
28.700799282035938
 10
11.512632239718847
 20
28.720505044821948
 10
11.500019326707395
 20
28.74154841887035
 10
11.489529759666663
 20
28.763726744985576
 10
11.481264558861433
 20
28.78682643376323
 10
11.475303322693676
 20
28.810625022572815
 10
11.471703461126435
 20
28.834893317994457
 10
11.470499642794486
 20
28.85939760307685
 10
11.471703461126435
 20
28.883901888159237
 10
11.475303322693676
 20
28.90817018358088
 10
11.481264558861433
 20
28.931968772390462
 10
11.489529759666663
 20
28.955068461168125
 10
11.500019326707395
 20
28.97724678728335
 10
11.512632239718847
 20
28.998290161331752
 10
11.5272470294538
 20
29.017995924117763
 10
11.543722947497848
 20
29.03617429837349
 10
11.561901321753574
 20
29.052650216417533
 10
11.581607084539584
 20
29.06726500615249
 10
11.602650458587984
 20
29.07987791916394
 10
11.624828784703212
 20
29.09036748620467
 10
11.64792847348087
 20
29.098632687009903
 10
11.671727062290454
 20
29.104593923177653
 10
11.695995357712096
 20
29.1081937847449
 10
11.720499642794486
 20
29.10939760307685
 10
11.745003927876876
 20
29.1081937847449
 10
11.769272223298518
 20
29.104593923177653
 10
11.793070812108102
 20
29.098632687009903
 10
11.816170500885757
 20
29.09036748620467
 10
11.838348827000985
 20
29.07987791916394
 10
11.859392201049385
 20
29.06726500615249
 10
11.879097963835395
 20
29.052650216417533
 10
11.897276338091121
 20
29.03617429837349
 10
12.790169556904576
 20
29.03617429837349
 10
12.808347931160299
 20
29.052650216417533
 10
12.828053693946313
 20
29.06726500615249
 10
12.849097067994713
 20
29.07987791916394
 10
12.87127539410994
 20
29.09036748620467
 10
12.894375082887596
 20
29.098632687009903
 10
12.91817367169718
 20
29.104593923177653
 10
12.942441967118821
 20
29.1081937847449
 10
12.966946252201211
 20
29.10939760307685
 10
12.991450537283601
 20
29.1081937847449
 10
13.015718832705243
 20
29.104593923177653
 10
13.039517421514827
 20
29.098632687009903
 10
13.062617110292482
 20
29.09036748620467
 10
13.08479543640771
 20
29.07987791916394
 10
13.10583881045611
 20
29.06726500615249
 10
13.125544573242124
 20
29.052650216417533
 10
13.14372294749785
 20
29.03617429837349
 10
13.160198865541894
 20
29.017995924117763
 10
13.174813655276846
 20
28.998290161331752
 10
13.187426568288299
 20
28.97724678728335
 10
13.19791613532903
 20
28.955068461168125
 10
13.206181336134264
 20
28.931968772390462
 10
13.212142572302017
 20
28.90817018358088
 10
13.21574243386926
 20
28.883901888159237
 10
13.216946252201211
 20
28.85939760307685
 10
13.21574243386926
 20
28.834893317994457
 10
13.212142572302017
 20
28.810625022572815
 10
13.206181336134264
 20
28.78682643376323
 10
13.19791613532903
 20
28.763726744985576
 10
13.187426568288299
 20
28.74154841887035
 10
13.174813655276846
 20
28.720505044821948
 10
13.160198865541894
 20
28.700799282035938
 10
13.14372294749785
 20
28.682620907780212
 10
13.14372294749785
 20
25.03617429837348
 10
13.943722947497847
 20
25.03617429837348
 10
14.00154920724663
 20
25.032819165137916
 10
14.058599407771528
 20
25.02279879310734
 10
14.114107904977033
 20
25.00624766101469
 10
14.167329745247827
 20
24.983387893873434
 10
14.217550663123305
 20
24.954526281941554
 10
14.26409666712073
 20
24.92005016343274
 10
14.306343085060128
 20
24.88042222623117
 10
14.343722947497847
 20
24.83617429837348
 10
10.343722947497849
 20
24.83617429837348
  0
LWPOLYLINE
  5
64
330
17
100
AcDbEntity
  8
BRACKET_OUTLINE
 62
6
100
AcDbPolyline
 90
87
 70
1
 10
1.1937229474978501
 20
24.83617429837348
 10
1.231102809935571
 20
24.88042222623117
 10
1.2733492278749665
 20
24.92005016343274
 10
1.319895231872394
 20
24.954526281941554
 10
1.3701161497478722
 20
24.983387893873434
 10
1.4233379900186627
 20
25.00624766101469
 10
1.4788464872241676
 20
25.02279879310734
 10
1.5358966877490658
 20
25.032819165137916
 10
1.5937229474978487
 20
25.03617429837348
 10
2.3937229474978494
 20
25.03617429837348
 10
2.3937229474978494
 20
28.682620907780212
 10
2.3772470294538017
 20
28.700799282035938
 10
2.362632239718849
 20
28.720505044821948
 10
2.3500193267073968
 20
28.74154841887035
 10
2.3395297596666644
 20
28.763726744985576
 10
2.3312645588614345
 20
28.78682643376323
 10
2.325303322693678
 20
28.810625022572815
 10
2.321703461126436
 20
28.834893317994457
 10
2.3204996427944877
 20
28.85939760307685
 10
2.321703461126436
 20
28.883901888159237
 10
2.325303322693678
 20
28.90817018358088
 10
2.3312645588614345
 20
28.931968772390462
 10
2.3395297596666644
 20
28.955068461168125
 10
2.3500193267073968
 20
28.97724678728335
 10
2.362632239718849
 20
28.998290161331752
 10
2.3772470294538017
 20
29.017995924117763
 10
2.3937229474978494
 20
29.03617429837349
 10
2.411901321753575
 20
29.052650216417533
 10
2.4316070845395856
 20
29.06726500615249
 10
2.4526504585879856
 20
29.07987791916394
 10
2.474828784703213
 20
29.09036748620467
 10
2.497928473480872
 20
29.098632687009903
 10
2.5217270622904557
 20
29.104593923177653
 10
2.5459953577120977
 20
29.1081937847449
 10
2.5704996427944877
 20
29.10939760307685
 10
2.5950039278768777
 20
29.1081937847449
 10
2.6192722232985197
 20
29.104593923177653
 10
2.6430708121081032
 20
29.098632687009903
 10
2.666170500885759
 20
29.09036748620467
 10
2.6883488270009863
 20
29.07987791916394
 10
2.7093922010493863
 20
29.06726500615249
 10
2.7290979638353967
 20
29.052650216417533
 10
2.7472763380911225
 20
29.03617429837349
 10
3.6401695569045778
 20
29.03617429837349
 10
3.6583479311603
 20
29.052650216417533
 10
3.678053693946314
 20
29.06726500615249
 10
3.699097067994714
 20
29.07987791916394
 10
3.7212753941099415
 20
29.09036748620467
 10
3.744375082887597
 20
29.098632687009903
 10
3.7681736716971805
 20
29.104593923177653
 10
3.7924419671188225
 20
29.1081937847449
 10
3.8169462522012125
 20
29.10939760307685
 10
3.8414505372836025
 20
29.1081937847449
 10
3.8657188327052445
 20
29.104593923177653
 10
3.889517421514828
 20
29.098632687009903
 10
3.912617110292487
 20
29.09036748620467
 10
3.934795436407711
 20
29.07987791916394
 10
3.9558388104561146
 20
29.06726500615249
 10
3.975544573242125
 20
29.052650216417533
 10
3.993722947497851
 20
29.03617429837349
 10
4.0101988655418985
 20
29.017995924117763
 10
4.024813655276848
 20
28.998290161331752
 10
4.0374265682883035
 20
28.97724678728335
 10
4.047916135329036
 20
28.955068461168125
 10
4.056181336134266
 20
28.931968772390462
 10
4.062142572302022
 20
28.90817018358088
 10
4.065742433869261
 20
28.883901888159237
 10
4.0669462522012125
 20
28.85939760307685
 10
4.065742433869261
 20
28.834893317994457
 10
4.062142572302022
 20
28.810625022572815
 10
4.056181336134266
 20
28.78682643376323
 10
4.047916135329036
 20
28.763726744985576
 10
4.0374265682883035
 20
28.74154841887035
 10
4.024813655276848
 20
28.720505044821948
 10
4.0101988655418985
 20
28.700799282035938
 10
3.993722947497851
 20
28.682620907780212
 10
3.993722947497851
 20
25.03617429837348
 10
4.7937229474978515
 20
25.03617429837348
 10
4.851549207246634
 20
25.032819165137916
 10
4.908599407771529
 20
25.02279879310734
 10
4.964107904977038
 20
25.00624766101469
 10
5.017329745247828
 20
24.983387893873434
 10
5.067550663123306
 20
24.954526281941554
 10
5.114096667120734
 20
24.92005016343274
 10
5.156343085060129
 20
24.88042222623117
 10
5.19372294749785
 20
24.83617429837348
 10
1.1937229474978501
 20
24.83617429837348
  0
LINE
  5
65
330
17
100
AcDbEntity
  8
BRACKET_CUT_LINE
 62
4
100
AcDbLine
 10
24.64372294749785
 20
25.03617429837348
 30
0.0
 11
23.043722947497848
 21
25.03617429837348
 31
0.0
  0
LINE
  5
66
330
17
100
AcDbEntity
  8
BRACKET_CUT_LINE
 62
4
100
AcDbLine
 10
13.14372294749785
 20
25.03617429837348
 30
0.0
 11
11.543722947497848
 21
25.03617429837348
 31
0.0
  0
LINE
  5
67
330
17
100
AcDbEntity
  8
BRACKET_CUT_LINE
 62
4
100
AcDbLine
 10
3.993722947497851
 20
25.03617429837348
 30
0.0
 11
2.3937229474978494
 21
25.03617429837348
 31
0.0
  0
LWPOLYLINE
  5
68
330
17
100
AcDbEntity
  8
SHELF_R
 62
3
100
AcDbPolyline
 90
110
 70
1
 10
31.0374458949957
 20
31.836172444597963
 10
60.0374458949957
 20
31.836172444597963
 10
60.0374458949957
 20
28.419624461934568
 10
60.0374458949957
 20
28.419624461934568
 10
60.023795875865524
 20
28.13376821876539
 10
59.982970033823165
 20
27.8505132710547
 10
59.915339884551884
 20
27.57243724243915
 10
59.82152086327257
 20
27.302070628325573
 10
59.702366724275365
 20
27.0418737683505
 10
59.558961771744784
 20
26.79421445725812
 10
59.39261099257776
 20
26.561346397937882
 10
59.204828180986254
 20
26.345388692699466
 10
58.99732216295064
 20
26.14830655941475
 10
58.77198124588145
 20
25.971893448010107
 10
58.53085603499788
 20
25.817754720049194
 10
58.276140772794164
 20
25.687293039922253
 10
58.010153371404854
 20
25.58169561058228
 10
57.73531431957484
 20
25.50192336998299
 10
57.45412465618093
 20
25.44870224653122
 10
57.16914321074614
 20
25.422516553129128
 10
56.88296331805842
 20
25.423604579920628
 10
56.59818921879102
 20
25.451956425848046
 10
56.317412360879125
 20
25.507314088751862
 10
56.317412360879075
 20
25.507314088751663
 10
55.85854065621852
 20
25.622862038176308
 10
55.39966895155797
 20
25.74148473531693
 10
54.94079724689742
 20
25.86147230172356
 10
54.481925542236866
 20
25.981095185135032
 10
54.02305383757631
 20
26.098629089987348
 10
53.56418213291576
 20
26.2123798321497
 10
53.10531042825521
 20
26.320707759621428
 10
52.64643872359465
 20
26.42205138717938
 10
52.1875670189341
 20
26.514949904295875
 10
51.728695314273544
 20
26.598064231888415
 10
51.26982360961299
 20
26.670196324380044
 10
50.81095190495244
 20
26.73030643884234
 10
50.35208020029188
 20
26.77752812229604
 10
49.89320849563133
 20
26.811180701136053
 10
49.434336790970775
 20
26.83077909265281
 10
48.97546508631022
 20
26.83604079722258
 10
48.51659338164967
 20
26.82688997037824
 10
48.05772167698912
 20
26.80345851606394
 10
47.598849972328566
 20
26.766084185315123
 10
47.13997826766801
 20
26.715305707770113
 10
46.68110656300746
 20
26.651855026190034
 10
46.22223485834691
 20
26.576646745921813
 10
45.763363153686356
 20
26.49076495138427
 10
45.304491449025804
 20
26.39544757961025
 10
44.84561974436525
 20
26.29206857609106
 10
44.38674803970469
 20
26.182118090136747
 10
43.92787633504414
 20
26.067180995224547
 10
43.46900463038359
 20
25.948914043952662
 10
43.010132925723035
 20
25.829021986897487
 10
42.55126122106248
 20
25.70923299960741
 10
42.09238951640193
 20
25.591273771938994
 10
41.63351781174138
 20
25.476844618808606
 10
41.174646107080825
 20
25.367594971123673
 10
40.715774402420266
 20
25.26509960017794
 10
40.25690269775971
 20
25.17083591822241
 10
39.79803099309916
 20
25.086162682411285
 10
39.33915928843861
 20
25.012300409093413
 10
38.880287583778056
 20
24.950313780765953
 10
38.421415879117504
 20
24.901096299284106
 10
37.96254417445695
 20
24.865357406542024
 10
37.5036724697964
 20
24.843612258272948
 10
37.04480076513585
 20
24.83617429837348
 10
36.585929060475294
 20
24.843150740788765
 10
36.12705735581474
 20
24.864441024084677
 10
35.66818565115419
 20
24.899738260983504
 10
35.20931394649364
 20
24.948533661968803
 10
34.75044224183308
 20
25.010123869195795
 10
34.291570537172525
 20
25.0836210949931
 10
33.83269883251197
 20
25.167965918815128
 10
33.832698832502864
 20
25.16796591876834
 10
33.594244749259815
 20
25.22048408992901
 10
33.35863888895946
 20
25.284580788045822
 10
33.12644311039761
 20
25.360103159138106
 10
32.89821114021061
 20
25.44687110196209
 10
32.67448725238116
 20
25.54467769750564
 10
32.45580497028616
 20
25.65328970243634
 10
32.24268579438201
 20
25.772448105326283
 10
32.035637958561466
 20
25.901868744327075
 10
31.835155218147744
 20
26.04124298482204
 10
31.64171567241631
 20
26.190238455439648
 10
31.455780624452267
 20
26.348499840672922
 10
31.277793481062268
 20
26.515649728214647
 10
31.10817869536443
 20
26.691289508987744
 10
30.947340754577873
 20
26.87500032772438
 10
30.795663215425726
 20
27.066344081827026
 10
30.65350778945196
 20
27.264864466129396
 10
30.521213480433268
 20
27.47008806106578
 10
30.399095775943096
 20
27.68152546165375
 10
30.2874458949957
 20
27.898672444597963
 10
30.2874458949957
 20
28.523672444597963
 10
30.2874458949957
 20
28.523672444597963
 10
30.37141925207318
 20
28.528388287178032
 10
30.454336595462934
 20
28.542476510461597
 10
30.535155191462074
 20
28.565759946866685
 10
30.612858699333866
 20
28.59794579367115
 10
30.6864699523822
 20
28.63862929517675
 10
30.75506324638975
 20
28.68729883274694
 10
30.81777598088561
 20
28.743342358708055
 10
30.873819506846722
 20
28.806055093203916
 10
30.922489044416913
 20
28.874648387211458
 10
30.963172545922514
 20
28.948259640259792
 10
30.995358392726974
 20
29.025963148131588
 10
31.018641829132065
 20
29.10678174413073
 10
31.03273005241563
 20
29.18969908752048
 10
31.0374458949957
 20
29.273672444597963
 10
31.0374458949957
 20
31.836172444597963
  0
LWPOLYLINE
  5
69
330
17
100
AcDbEntity
  8
BRACKET_OUTLINE
 62
6
100
AcDbPolyline
 90
87
 70
1
 10
38.212445894995696
 20
31.836172444597963
 10
38.17506603255798
 20
31.791924516740274
 10
38.13281961461858
 20
31.7522965795387
 10
38.086273610621156
 20
31.717820461029888
 10
38.03605269274568
 20
31.688958849098007
 10
37.98283085247488
 20
31.66609908195675
 10
37.92732235526938
 20
31.6495479498641
 10
37.870272154744484
 20
31.639527577833526
 10
37.8124458949957
 20
31.63617244459796
 10
37.0124458949957
 20
31.63617244459796
 10
37.0124458949957
 20
27.989725835191237
 10
37.028921813039744
 20
27.97154746093551
 10
37.0435366027747
 20
27.9518416981495
 10
37.05614951578615
 20
27.930798324101097
 10
37.06663908282688
 20
27.908619997985873
 10
37.074904283632115
 20
27.885520309208218
 10
37.08086551979987
 20
27.861721720398634
 10
37.08446538136711
 20
27.837453424976992
 10
37.08566919969906
 20
27.8129491398946
 10
37.08446538136711
 20
27.788444854812212
 10
37.08086551979987
 20
27.76417655939057
 10
37.074904283632115
 20
27.740377970580987
 10
37.06663908282688
 20
27.717278281803324
 10
37.05614951578615
 20
27.6950999556881
 10
37.0435366027747
 20
27.674056581639697
 10
37.028921813039744
 20
27.654350818853686
 10
37.0124458949957
 20
27.63617244459796
 10
36.994267520739974
 20
27.619696526553916
 10
36.974561757953964
 20
27.60508173681896
 10
36.95351838390556
 20
27.592468823807508
 10
36.93134005779034
 20
27.58197925676678
 10
36.908240369012674
 20
27.573714055961545
 10
36.88444178020309
 20
27.567752819793796
 10
36.860173484781455
 20
27.56415295822655
 10
36.83566919969906
 20
27.5629491398946
 10
36.81116491461667
 20
27.56415295822655
 10
36.78689661919503
 20
27.567752819793796
 10
36.76309803038545
 20
27.573714055961545
 10
36.73999834160779
 20
27.58197925676678
 10
36.71782001549256
 20
27.592468823807508
 10
36.69677664144416
 20
27.60508173681896
 10
36.67707087865815
 20
27.619696526553916
 10
36.658892504402424
 20
27.63617244459796
 10
35.765999285588975
 20
27.63617244459796
 10
35.74782091133325
 20
27.619696526553916
 10
35.72811514854724
 20
27.60508173681896
 10
35.707071774498836
 20
27.592468823807508
 10
35.684893448383605
 20
27.58197925676678
 10
35.66179375960595
 20
27.573714055961545
 10
35.637995170796366
 20
27.567752819793796
 10
35.613726875374724
 20
27.56415295822655
 10
35.58922259029234
 20
27.5629491398946
 10
35.564718305209944
 20
27.56415295822655
 10
35.5404500097883
 20
27.567752819793796
 10
35.51665142097872
 20
27.573714055961545
 10
35.49355173220106
 20
27.58197925676678
 10
35.47137340608584
 20
27.592468823807508
 10
35.450330032037435
 20
27.60508173681896
 10
35.430624269251425
 20
27.619696526553916
 10
35.4124458949957
 20
27.63617244459796
 10
35.39596997695165
 20
27.654350818853686
 10
35.3813551872167
 20
27.674056581639697
 10
35.368742274205246
 20
27.6950999556881
 10
35.35825270716451
 20
27.717278281803324
 10
35.349987506359284
 20
27.740377970580987
 10
35.34402627019153
 20
27.76417655939057
 10
35.34042640862429
 20
27.788444854812212
 10
35.33922259029234
 20
27.8129491398946
 10
35.34042640862429
 20
27.837453424976992
 10
35.34402627019153
 20
27.861721720398634
 10
35.349987506359284
 20
27.885520309208218
 10
35.35825270716451
 20
27.908619997985873
 10
35.368742274205246
 20
27.930798324101097
 10
35.3813551872167
 20
27.9518416981495
 10
35.39596997695165
 20
27.97154746093551
 10
35.4124458949957
 20
27.989725835191237
 10
35.4124458949957
 20
31.63617244459796
 10
34.6124458949957
 20
31.63617244459796
 10
34.554619635246915
 20
31.639527577833526
 10
34.49756943472202
 20
31.6495479498641
 10
34.442060937516516
 20
31.66609908195675
 10
34.38883909724572
 20
31.688958849098007
 10
34.33861817937024
 20
31.717820461029888
 10
34.292072175372816
 20
31.7522965795387
 10
34.24982575743342
 20
31.791924516740274
 10
34.212445894995696
 20
31.836172444597963
 10
38.212445894995696
 20
31.836172444597963
  0
LWPOLYLINE
  5
6A
330
17
100
AcDbEntity
  8
BRACKET_OUTLINE
 62
6
100
AcDbPolyline
 90
87
 70
1
 10
49.712445894995696
 20
31.836172444597963
 10
49.67506603255798
 20
31.791924516740274
 10
49.63281961461858
 20
31.7522965795387
 10
49.586273610621156
 20
31.717820461029888
 10
49.53605269274568
 20
31.688958849098007
 10
49.48283085247489
 20
31.66609908195675
 10
49.42732235526938
 20
31.6495479498641
 10
49.370272154744484
 20
31.639527577833526
 10
49.312445894995705
 20
31.63617244459796
 10
48.5124458949957
 20
31.63617244459796
 10
48.5124458949957
 20
27.989725835191237
 10
48.528921813039744
 20
27.97154746093551
 10
48.5435366027747
 20
27.9518416981495
 10
48.55614951578615
 20
27.930798324101097
 10
48.56663908282688
 20
27.908619997985873
 10
48.574904283632115
 20
27.885520309208218
 10
48.58086551979987
 20
27.861721720398634
 10
48.58446538136711
 20
27.837453424976992
 10
48.58566919969906
 20
27.8129491398946
 10
48.58446538136711
 20
27.788444854812212
 10
48.58086551979987
 20
27.76417655939057
 10
48.574904283632115
 20
27.740377970580987
 10
48.56663908282688
 20
27.717278281803324
 10
48.55614951578615
 20
27.6950999556881
 10
48.5435366027747
 20
27.674056581639697
 10
48.528921813039744
 20
27.654350818853686
 10
48.5124458949957
 20
27.63617244459796
 10
48.494267520739974
 20
27.619696526553916
 10
48.474561757953964
 20
27.60508173681896
 10
48.45351838390556
 20
27.592468823807508
 10
48.43134005779034
 20
27.58197925676678
 10
48.408240369012674
 20
27.573714055961545
 10
48.38444178020309
 20
27.567752819793796
 10
48.360173484781455
 20
27.56415295822655
 10
48.33566919969906
 20
27.5629491398946
 10
48.31116491461667
 20
27.56415295822655
 10
48.28689661919503
 20
27.567752819793796
 10
48.26309803038545
 20
27.573714055961545
 10
48.23999834160779
 20
27.58197925676678
 10
48.21782001549256
 20
27.592468823807508
 10
48.19677664144416
 20
27.60508173681896
 10
48.17707087865816
 20
27.619696526553916
 10
48.15889250440243
 20
27.63617244459796
 10
47.265999285588975
 20
27.63617244459796
 10
47.24782091133325
 20
27.619696526553916
 10
47.22811514854723
 20
27.60508173681896
 10
47.207071774498836
 20
27.592468823807508
 10
47.184893448383605
 20
27.58197925676678
 10
47.161793759605956
 20
27.573714055961545
 10
47.13799517079637
 20
27.567752819793796
 10
47.113726875374724
 20
27.56415295822655
 10
47.08922259029234
 20
27.5629491398946
 10
47.06471830520995
 20
27.56415295822655
 10
47.0404500097883
 20
27.567752819793796
 10
47.01665142097872
 20
27.573714055961545
 10
46.99355173220106
 20
27.58197925676678
 10
46.97137340608584
 20
27.592468823807508
 10
46.950330032037435
 20
27.60508173681896
 10
46.930624269251425
 20
27.619696526553916
 10
46.9124458949957
 20
27.63617244459796
 10
46.895969976951655
 20
27.654350818853686
 10
46.8813551872167
 20
27.674056581639697
 10
46.868742274205246
 20
27.6950999556881
 10
46.85825270716452
 20
27.717278281803324
 10
46.849987506359284
 20
27.740377970580987
 10
46.84402627019153
 20
27.76417655939057
 10
46.84042640862429
 20
27.788444854812212
 10
46.83922259029234
 20
27.8129491398946
 10
46.84042640862429
 20
27.837453424976992
 10
46.84402627019153
 20
27.861721720398634
 10
46.849987506359284
 20
27.885520309208218
 10
46.85825270716452
 20
27.908619997985873
 10
46.868742274205246
 20
27.930798324101097
 10
46.8813551872167
 20
27.9518416981495
 10
46.895969976951655
 20
27.97154746093551
 10
46.9124458949957
 20
27.989725835191237
 10
46.9124458949957
 20
31.63617244459796
 10
46.1124458949957
 20
31.63617244459796
 10
46.054619635246915
 20
31.639527577833526
 10
45.99756943472202
 20
31.6495479498641
 10
45.942060937516516
 20
31.66609908195675
 10
45.88883909724572
 20
31.688958849098007
 10
45.83861817937024
 20
31.717820461029888
 10
45.792072175372816
 20
31.7522965795387
 10
45.74982575743342
 20
31.791924516740274
 10
45.712445894995696
 20
31.836172444597963
 10
49.712445894995696
 20
31.836172444597963
  0
LWPOLYLINE
  5
6B
330
17
100
AcDbEntity
  8
BRACKET_OUTLINE
 62
6
100
AcDbPolyline
 90
87
 70
1
 10
58.8624458949957
 20
31.836172444597963
 10
58.82506603255798
 20
31.791924516740274
 10
58.78281961461858
 20
31.7522965795387
 10
58.736273610621154
 20
31.717820461029888
 10
58.686052692745676
 20
31.688958849098007
 10
58.63283085247488
 20
31.66609908195675
 10
58.57732235526938
 20
31.6495479498641
 10
58.52027215474448
 20
31.639527577833526
 10
58.462445894995696
 20
31.63617244459796
 10
57.6624458949957
 20
31.63617244459796
 10
57.6624458949957
 20
27.989725835191237
 10
57.67892181303975
 20
27.97154746093551
 10
57.6935366027747
 20
27.9518416981495
 10
57.70614951578615
 20
27.930798324101097
 10
57.71663908282689
 20
27.908619997985873
 10
57.724904283632114
 20
27.885520309208218
 10
57.73086551979987
 20
27.861721720398634
 10
57.734465381367116
 20
27.837453424976992
 10
57.73566919969906
 20
27.8129491398946
 10
57.734465381367116
 20
27.788444854812212
 10
57.73086551979987
 20
27.76417655939057
 10
57.724904283632114
 20
27.740377970580987
 10
57.71663908282689
 20
27.717278281803324
 10
57.70614951578615
 20
27.6950999556881
 10
57.6935366027747
 20
27.674056581639697
 10
57.67892181303975
 20
27.654350818853686
 10
57.6624458949957
 20
27.63617244459796
 10
57.64426752073997
 20
27.619696526553916
 10
57.62456175795396
 20
27.60508173681896
 10
57.603518383905566
 20
27.592468823807508
 10
57.581340057790335
 20
27.58197925676678
 10
57.55824036901268
 20
27.573714055961545
 10
57.534441780203096
 20
27.567752819793796
 10
57.51017348478145
 20
27.56415295822655
 10
57.48566919969906
 20
27.5629491398946
 10
57.461164914616674
 20
27.56415295822655
 10
57.436896619195025
 20
27.567752819793796
 10
57.41309803038544
 20
27.573714055961545
 10
57.38999834160779
 20
27.58197925676678
 10
57.36782001549256
 20
27.592468823807508
 10
57.346776641444166
 20
27.60508173681896
 10
57.32707087865815
 20
27.619696526553916
 10
57.30889250440242
 20
27.63617244459796
 10
56.41599928558897
 20
27.63617244459796
 10
56.39782091133325
 20
27.619696526553916
 10
56.37811514854724
 20
27.60508173681896
 10
56.357071774498834
 20
27.592468823807508
 10
56.33489344838361
 20
27.58197925676678
 10
56.31179375960595
 20
27.573714055961545
 10
56.287995170796364
 20
27.567752819793796
 10
56.26372687537473
 20
27.56415295822655
 10
56.239222590292336
 20
27.5629491398946
 10
56.21471830520994
 20
27.56415295822655
 10
56.19045000978831
 20
27.567752819793796
 10
56.166651420978724
 20
27.573714055961545
 10
56.14355173220106
 20
27.58197925676678
 10
56.12137340608584
 20
27.592468823807508
 10
56.100330032037434
 20
27.60508173681896
 10
56.08062426925142
 20
27.619696526553916
 10
56.0624458949957
 20
27.63617244459796
 10
56.04596997695165
 20
27.654350818853686
 10
56.031355187216704
 20
27.674056581639697
 10
56.018742274205245
 20
27.6950999556881
 10
56.008252707164516
 20
27.717278281803324
 10
55.99998750635928
 20
27.740377970580987
 10
55.994026270191526
 20
27.76417655939057
 10
55.99042640862429
 20
27.788444854812212
 10
55.989222590292336
 20
27.8129491398946
 10
55.99042640862429
 20
27.837453424976992
 10
55.994026270191526
 20
27.861721720398634
 10
55.99998750635928
 20
27.885520309208218
 10
56.008252707164516
 20
27.908619997985873
 10
56.018742274205245
 20
27.930798324101097
 10
56.031355187216704
 20
27.9518416981495
 10
56.04596997695165
 20
27.97154746093551
 10
56.0624458949957
 20
27.989725835191237
 10
56.0624458949957
 20
31.63617244459796
 10
55.26244589499569
 20
31.63617244459796
 10
55.204619635246914
 20
31.639527577833526
 10
55.147569434722016
 20
31.6495479498641
 10
55.09206093751651
 20
31.66609908195675
 10
55.03883909724572
 20
31.688958849098007
 10
54.98861817937024
 20
31.717820461029888
 10
54.942072175372815
 20
31.7522965795387
 10
54.89982575743342
 20
31.791924516740274
 10
54.8624458949957
 20
31.836172444597963
 10
58.8624458949957
 20
31.836172444597963
  0
LINE
  5
6C
330
17
100
AcDbEntity
  8
BRACKET_CUT_LINE
 62
4
100
AcDbLine
 10
35.4124458949957
 20
31.63617244459796
 30
0.0
 11
37.0124458949957
 21
31.63617244459796
 31
0.0
  0
LINE
  5
6D
330
17
100
AcDbEntity
  8
BRACKET_CUT_LINE
 62
4
100
AcDbLine
 10
46.9124458949957
 20
31.63617244459796
 30
0.0
 11
48.5124458949957
 21
31.63617244459796
 31
0.0
  0
LINE
  5
6E
330
17
100
AcDbEntity
  8
BRACKET_CUT_LINE
 62
4
100
AcDbLine
 10
56.0624458949957
 20
31.63617244459796
 30
0.0
 11
57.6624458949957
 21
31.63617244459796
 31
0.0
  0
ENDSEC
  0
SECTION
  2
OBJECTS
  0
DICTIONARY
  5
A
330
0
100
AcDbDictionary
281
1
  3
ACAD_COLOR
350
B
  3
ACAD_GROUP
350
C
  3
ACAD_LAYOUT
350
D
  3
ACAD_MATERIAL
350
E
  3
ACAD_MLEADERSTYLE
350
F
  3
ACAD_MLINESTYLE
350
10
  3
ACAD_PLOTSETTINGS
350
11
  3
ACAD_PLOTSTYLENAME
350
12
  3
ACAD_SCALELIST
350
14
  3
ACAD_TABLESTYLE
350
15
  3
ACAD_VISUALSTYLE
350
16
  3
EZDXF_META
350
2D
  0
DICTIONARY
  5
B
330
A
100
AcDbDictionary
281
1
  0
DICTIONARY
  5
C
330
A
100
AcDbDictionary
281
1
  0
DICTIONARY
  5
D
330
A
100
AcDbDictionary
281
1
  3
Model
350
1A
  3
Layout1
350
1E
  0
DICTIONARY
  5
E
330
A
100
AcDbDictionary
281
1
  3
ByBlock
350
1F
  3
ByLayer
350
20
  3
Global
350
21
  0
DICTIONARY
  5
F
330
A
100
AcDbDictionary
281
1
  3
Standard
350
2C
  0
DICTIONARY
  5
10
330
A
100
AcDbDictionary
281
1
  3
Standard
350
22
  0
DICTIONARY
  5
11
330
A
100
AcDbDictionary
281
1
  0
ACDBDICTIONARYWDFLT
  5
12
330
A
100
AcDbDictionary
281
1
  3
Normal
350
13
100
AcDbDictionaryWithDefault
340
13
  0
ACDBPLACEHOLDER
  5
13
330
12
  0
DICTIONARY
  5
14
330
A
100
AcDbDictionary
281
1
  0
DICTIONARY
  5
15
330
A
100
AcDbDictionary
281
1
  0
DICTIONARY
  5
16
330
A
100
AcDbDictionary
281
1
  0
LAYOUT
  5
1A
330
D
100
AcDbPlotSettings
  1

  4
A3
  6

 40
7.5
 41
20.0
 42
7.5
 43
20.0
 44
420.0
 45
297.0
 46
0.0
 47
0.0
 48
0.0
 49
0.0
140
0.0
141
0.0
142
1.0
143
1.0
 70
1024
 72
1
 73
0
 74
5
  7

 75
16
 76
0
 77
2
 78
300
147
1.0
148
0.0
149
0.0
100
AcDbLayout
  1
Model
 70
1
 71
0
 10
0.0
 20
0.0
 11
420.0
 21
297.0
 12
0.0
 22
0.0
 32
0.0
 14
1e+20
 24
1e+20
 34
1e+20
 15
-1e+20
 25
-1e+20
 35
-1e+20
146
0.0
 13
0.0
 23
0.0
 33
0.0
 16
1.0
 26
0.0
 36
0.0
 17
0.0
 27
1.0
 37
0.0
 76
1
330
17
  0
LAYOUT
  5
1E
330
D
100
AcDbPlotSettings
  1

  4
A3
  6

 40
7.5
 41
20.0
 42
7.5
 43
20.0
 44
420.0
 45
297.0
 46
0.0
 47
0.0
 48
0.0
 49
0.0
140
0.0
141
0.0
142
1.0
143
1.0
 70
0
 72
1
 73
0
 74
5
  7

 75
16
 76
0
 77
2
 78
300
147
1.0
148
0.0
149
0.0
100
AcDbLayout
  1
Layout1
 70
1
 71
1
 10
0.0
 20
0.0
 11
420.0
 21
297.0
 12
0.0
 22
0.0
 32
0.0
 14
1e+20
 24
1e+20
 34
1e+20
 15
-1e+20
 25
-1e+20
 35
-1e+20
146
0.0
 13
0.0
 23
0.0
 33
0.0
 16
1.0
 26
0.0
 36
0.0
 17
0.0
 27
1.0
 37
0.0
 76
1
330
1B
  0
MATERIAL
  5
1F
102
{ACAD_REACTORS
330
E
102
}
330
E
100
AcDbMaterial
  1
ByBlock
  2

 70
0
 40
1.0
 71
1
 41
1.0
 91
-1023410177
 42
1.0
 72
1
  3

 73
1
 74
1
 75
1
 44
0.5
 73
0
 45
1.0
 46
1.0
 77
1
  4

 78
1
 79
1
170
1
 48
1.0
171
1
  6

172
1
173
1
174
1
140
1.0
141
1.0
175
1
  7

176
1
177
1
178
1
143
1.0
179
1
  8

270
1
271
1
272
1
145
1.0
146
1.0
273
1
  9

274
1
275
1
276
1
 42
1.0
 72
1
  3

 73
1
 74
1
 75
1
 94
63
  0
MATERIAL
  5
20
102
{ACAD_REACTORS
330
E
102
}
330
E
100
AcDbMaterial
  1
ByLayer
  2

 70
0
 40
1.0
 71
1
 41
1.0
 91
-1023410177
 42
1.0
 72
1
  3

 73
1
 74
1
 75
1
 44
0.5
 73
0
 45
1.0
 46
1.0
 77
1
  4

 78
1
 79
1
170
1
 48
1.0
171
1
  6

172
1
173
1
174
1
140
1.0
141
1.0
175
1
  7

176
1
177
1
178
1
143
1.0
179
1
  8

270
1
271
1
272
1
145
1.0
146
1.0
273
1
  9

274
1
275
1
276
1
 42
1.0
 72
1
  3

 73
1
 74
1
 75
1
 94
63
  0
MATERIAL
  5
21
102
{ACAD_REACTORS
330
E
102
}
330
E
100
AcDbMaterial
  1
Global
  2

 70
0
 40
1.0
 71
1
 41
1.0
 91
-1023410177
 42
1.0
 72
1
  3

 73
1
 74
1
 75
1
 44
0.5
 73
0
 45
1.0
 46
1.0
 77
1
  4

 78
1
 79
1
170
1
 48
1.0
171
1
  6

172
1
173
1
174
1
140
1.0
141
1.0
175
1
  7

176
1
177
1
178
1
143
1.0
179
1
  8

270
1
271
1
272
1
145
1.0
146
1.0
273
1
  9

274
1
275
1
276
1
 42
1.0
 72
1
  3

 73
1
 74
1
 75
1
 94
63
  0
MLINESTYLE
  5
22
102
{ACAD_REACTORS
330
10
102
}
330
10
100
AcDbMlineStyle
  2
Standard
 70
0
  3

 62
256
 51
90.0
 52
90.0
 71
2
 49
0.5
 62
256
  6
BYLAYER
 49
-0.5
 62
256
  6
BYLAYER
  0
MLEADERSTYLE
  5
2C
102
{ACAD_REACTORS
330
F
102
}
330
F
100
AcDbMLeaderStyle
179
2
170
2
171
1
172
0
 90
2
 40
0.0
 41
0.0
173
1
 91
-1056964608
 92
-2
290
1
 42
2.0
291
1
 43
8.0
  3
Standard
 44
4.0
300

342
29
174
1
175
1
176
0
178
1
 93
-1056964608
 45
4.0
292
0
297
0
 46
4.0
 94
-1056964608
 47
1.0
 49
1.0
140
1.0
294
1
141
0.0
177
0
142
1.0
295
0
296
0
143
3.75
271
0
272
9
273
9
  0
DICTIONARY
  5
2D
330
A
100
AcDbDictionary
280
1
281
1
  3
CREATED_BY_EZDXF
350
2E
  3
WRITTEN_BY_EZDXF
350
71
  0
DICTIONARYVAR
  5
2E
330
2D
100
DictionaryVariables
280
0
  1
1.4.3 @ 2026-03-22T06:09:10.510168+00:00
  0
DICTIONARYVAR
  5
71
330
2D
100
DictionaryVariables
280
0
  1
1.4.3 @ 2026-03-22T06:09:10.537272+00:00
  0
ENDSEC
  0
EOF
