  0
SECTION
  2
HEADER
  9
$ACADVER
  1
AC1024
  9
$ACADMAINTVER
 70
6
  9
$DWGCODEPAGE
  3
ANSI_1252
  9
$LASTSAVEDBY
  1
ezdxf
  9
$INSBASE
 10
0.0
 20
0.0
 30
0.0
  9
$EXTMIN
 10
1e+20
 20
1e+20
 30
1e+20
  9
$EXTMAX
 10
-1e+20
 20
-1e+20
 30
-1e+20
  9
$LIMMIN
 10
0.0
 20
0.0
  9
$LIMMAX
 10
420.0
 20
297.0
  9
$ORTHOMODE
 70
0
  9
$REGENMODE
 70
1
  9
$FILLMODE
 70
1
  9
$QTEXTMODE
 70
0
  9
$MIRRTEXT
 70
1
  9
$LTSCALE
 40
1.0
  9
$ATTMODE
 70
1
  9
$TEXTSIZE
 40
2.5
  9
$TRACEWID
 40
1.0
  9
$TEXTSTYLE
  7
Standard
  9
$CLAYER
  8
0
  9
$CELTYPE
  6
ByLayer
  9
$CECOLOR
 62
256
  9
$CELTSCALE
 40
1.0
  9
$DISPSILH
 70
0
  9
$DIMSCALE
 40
1.0
  9
$DIMASZ
 40
2.5
  9
$DIMEXO
 40
0.625
  9
$DIMDLI
 40
3.75
  9
$DIMRND
 40
0.0
  9
$DIMDLE
 40
0.0
  9
$DIMEXE
 40
1.25
  9
$DIMTP
 40
0.0
  9
$DIMTM
 40
0.0
  9
$DIMTXT
 40
2.5
  9
$DIMCEN
 40
2.5
  9
$DIMTSZ
 40
0.0
  9
$DIMTOL
 70
0
  9
$DIMLIM
 70
0
  9
$DIMTIH
 70
0
  9
$DIMTOH
 70
0
  9
$DIMSE1
 70
0
  9
$DIMSE2
 70
0
  9
$DIMTAD
 70
1
  9
$DIMZIN
 70
8
  9
$DIMBLK
  1

  9
$DIMASO
 70
1
  9
$DIMSHO
 70
1
  9
$DIMPOST
  1

  9
$DIMAPOST
  1

  9
$DIMALT
 70
0
  9
$DIMALTD
 70
3
  9
$DIMALTF
 40
0.03937007874
  9
$DIMLFAC
 40
1.0
  9
$DIMTOFL
 70
1
  9
$DIMTVP
 40
0.0
  9
$DIMTIX
 70
0
  9
$DIMSOXD
 70
0
  9
$DIMSAH
 70
0
  9
$DIMBLK1
  1

  9
$DIMBLK2
  1

  9
$DIMSTYLE
  2
ISO-25
  9
$DIMCLRD
 70
0
  9
$DIMCLRE
 70
0
  9
$DIMCLRT
 70
0
  9
$DIMTFAC
 40
1.0
  9
$DIMGAP
 40
0.625
  9
$DIMJUST
 70
0
  9
$DIMSD1
 70
0
  9
$DIMSD2
 70
0
  9
$DIMTOLJ
 70
0
  9
$DIMTZIN
 70
8
  9
$DIMALTZ
 70
0
  9
$DIMALTTZ
 70
0
  9
$DIMUPT
 70
0
  9
$DIMDEC
 70
2
  9
$DIMTDEC
 70
2
  9
$DIMALTU
 70
2
  9
$DIMALTTD
 70
3
  9
$DIMTXSTY
  7
Standard
  9
$DIMAUNIT
 70
0
  9
$DIMADEC
 70
0
  9
$DIMALTRND
 40
0.0
  9
$DIMAZIN
 70
0
  9
$DIMDSEP
 70
44
  9
$DIMATFIT
 70
3
  9
$DIMFRAC
 70
0
  9
$DIMLDRBLK
  1

  9
$DIMLUNIT
 70
2
  9
$DIMLWD
 70
-2
  9
$DIMLWE
 70
-2
  9
$DIMTMOVE
 70
0
  9
$DIMFXL
 40
1.0
  9
$DIMFXLON
 70
0
  9
$DIMJOGANG
 40
0.785398163397
  9
$DIMTFILL
 70
0
  9
$DIMTFILLCLR
 70
0
  9
$DIMARCSYM
 70
0
  9
$DIMLTYPE
  6

  9
$DIMLTEX1
  6

  9
$DIMLTEX2
  6

  9
$DIMTXTDIRECTION
 70
0
  9
$LUNITS
 70
2
  9
$LUPREC
 70
4
  9
$SKETCHINC
 40
1.0
  9
$FILLETRAD
 40
10.0
  9
$AUNITS
 70
0
  9
$AUPREC
 70
2
  9
$MENU
  1
.
  9
$ELEVATION
 40
0.0
  9
$PELEVATION
 40
0.0
  9
$THICKNESS
 40
0.0
  9
$LIMCHECK
 70
0
  9
$CHAMFERA
 40
0.0
  9
$CHAMFERB
 40
0.0
  9
$CHAMFERC
 40
0.0
  9
$CHAMFERD
 40
0.0
  9
$SKPOLY
 70
0
  9
$TDCREATE
 40
2461121.999097222
  9
$TDUCREATE
 40
2458532.153996898
  9
$TDUPDATE
 40
2461121.999097222
  9
$TDUUPDATE
 40
2458532.1544311
  9
$TDINDWG
 40
0.0
  9
$TDUSRTIMER
 40
0.0
  9
$USRTIMER
 70
1
  9
$ANGBASE
 50
0.0
  9
$ANGDIR
 70
0
  9
$PDMODE
 70
0
  9
$PDSIZE
 40
0.0
  9
$PLINEWID
 40
0.0
  9
$SPLFRAME
 70
0
  9
$SPLINETYPE
 70
6
  9
$SPLINESEGS
 70
8
  9
$HANDSEED
  5
48
  9
$SURFTAB1
 70
6
  9
$SURFTAB2
 70
6
  9
$SURFTYPE
 70
6
  9
$SURFU
 70
6
  9
$SURFV
 70
6
  9
$UCSBASE
  2

  9
$UCSNAME
  2

  9
$UCSORG
 10
0.0
 20
0.0
 30
0.0
  9
$UCSXDIR
 10
1.0
 20
0.0
 30
0.0
  9
$UCSYDIR
 10
0.0
 20
1.0
 30
0.0
  9
$UCSORTHOREF
  2

  9
$UCSORTHOVIEW
 70
0
  9
$UCSORGTOP
 10
0.0
 20
0.0
 30
0.0
  9
$UCSORGBOTTOM
 10
0.0
 20
0.0
 30
0.0
  9
$UCSORGLEFT
 10
0.0
 20
0.0
 30
0.0
  9
$UCSORGRIGHT
 10
0.0
 20
0.0
 30
0.0
  9
$UCSORGFRONT
 10
0.0
 20
0.0
 30
0.0
  9
$UCSORGBACK
 10
0.0
 20
0.0
 30
0.0
  9
$PUCSBASE
  2

  9
$PUCSNAME
  2

  9
$PUCSORG
 10
0.0
 20
0.0
 30
0.0
  9
$PUCSXDIR
 10
1.0
 20
0.0
 30
0.0
  9
$PUCSYDIR
 10
0.0
 20
1.0
 30
0.0
  9
$PUCSORTHOREF
  2

  9
$PUCSORTHOVIEW
 70
0
  9
$PUCSORGTOP
 10
0.0
 20
0.0
 30
0.0
  9
$PUCSORGBOTTOM
 10
0.0
 20
0.0
 30
0.0
  9
$PUCSORGLEFT
 10
0.0
 20
0.0
 30
0.0
  9
$PUCSORGRIGHT
 10
0.0
 20
0.0
 30
0.0
  9
$PUCSORGFRONT
 10
0.0
 20
0.0
 30
0.0
  9
$PUCSORGBACK
 10
0.0
 20
0.0
 30
0.0
  9
$USERI1
 70
0
  9
$USERI2
 70
0
  9
$USERI3
 70
0
  9
$USERI4
 70
0
  9
$USERI5
 70
0
  9
$USERR1
 40
0.0
  9
$USERR2
 40
0.0
  9
$USERR3
 40
0.0
  9
$USERR4
 40
0.0
  9
$USERR5
 40
0.0
  9
$WORLDVIEW
 70
1
  9
$SHADEDGE
 70
3
  9
$SHADEDIF
 70
70
  9
$TILEMODE
 70
1
  9
$MAXACTVP
 70
64
  9
$PINSBASE
 10
0.0
 20
0.0
 30
0.0
  9
$PLIMCHECK
 70
0
  9
$PEXTMIN
 10
1e+20
 20
1e+20
 30
1e+20
  9
$PEXTMAX
 10
-1e+20
 20
-1e+20
 30
-1e+20
  9
$PLIMMIN
 10
0.0
 20
0.0
  9
$PLIMMAX
 10
420.0
 20
297.0
  9
$UNITMODE
 70
0
  9
$VISRETAIN
 70
1
  9
$PLINEGEN
 70
0
  9
$PSLTSCALE
 70
1
  9
$TREEDEPTH
 70
3020
  9
$CMLSTYLE
  2
Standard
  9
$CMLJUST
 70
0
  9
$CMLSCALE
 40
20.0
  9
$PROXYGRAPHICS
 70
1
  9
$MEASUREMENT
 70
1
  9
$CELWEIGHT
370
-1
  9
$ENDCAPS
280
0
  9
$JOINSTYLE
280
0
  9
$LWDISPLAY
290
0
  9
$INSUNITS
 70
1
  9
$HYPERLINKBASE
  1

  9
$STYLESHEET
  1

  9
$XEDIT
290
1
  9
$CEPSNTYPE
380
0
  9
$PSTYLEMODE
290
1
  9
$FINGERPRINTGUID
  2
{1AB9CE85-1AC9-46CE-8807-8C89A436C139}
  9
$VERSIONGUID
  2
{ACE97247-7839-4F1F-981C-0AD846AA57C3}
  9
$EXTNAMES
290
1
  9
$PSVPSCALE
 40
0.0
  9
$OLESTARTUP
290
0
  9
$SORTENTS
280
127
  9
$INDEXCTL
280
0
  9
$HIDETEXT
280
1
  9
$XCLIPFRAME
280
1
  9
$HALOGAP
280
0
  9
$OBSCOLOR
 70
257
  9
$OBSLTYPE
280
0
  9
$INTERSECTIONDISPLAY
280
0
  9
$INTERSECTIONCOLOR
 70
257
  9
$DIMASSOC
280
2
  9
$PROJECTNAME
  1

  9
$CAMERADISPLAY
290
0
  9
$LENSLENGTH
 40
50.0
  9
$CAMERAHEIGHT
 40
0.0
  9
$STEPSPERSEC
 40
24.0
  9
$STEPSIZE
 40
100.0
  9
$3DDWFPREC
 40
2.0
  9
$PSOLWIDTH
 40
0.005
  9
$PSOLHEIGHT
 40
0.08
  9
$LOFTANG1
 40
1.570796326795
  9
$LOFTANG2
 40
1.570796326795
  9
$LOFTMAG1
 40
0.0
  9
$LOFTMAG2
 40
0.0
  9
$LOFTPARAM
 70
7
  9
$LOFTNORMALS
280
1
  9
$LATITUDE
 40
37.795
  9
$LONGITUDE
 40
-122.394
  9
$NORTHDIRECTION
 40
0.0
  9
$TIMEZONE
 70
-8000
  9
$LIGHTGLYPHDISPLAY
280
1
  9
$TILEMODELIGHTSYNCH
280
1
  9
$CMATERIAL
347
20
  9
$SOLIDHIST
280
0
  9
$SHOWHIST
280
1
  9
$DWFFRAME
280
2
  9
$DGNFRAME
280
2
  9
$REALWORLDSCALE
290
1
  9
$INTERFERECOLOR
 62
256
  9
$CSHADOW
280
0
  9
$SHADOWPLANELOCATION
 40
0.0
  0
ENDSEC
  0
SECTION
  2
CLASSES
  0
CLASS
  1
ACDBDICTIONARYWDFLT
  2
AcDbDictionaryWithDefault
  3
ObjectDBX Classes
 90
0
 91
0
280
0
281
0
  0
CLASS
  1
SUN
  2
AcDbSun
  3
SCENEOE
 90
1153
 91
0
280
0
281
0
  0
CLASS
  1
VISUALSTYLE
  2
AcDbVisualStyle
  3
ObjectDBX Classes
 90
4095
 91
0
280
0
281
0
  0
CLASS
  1
MATERIAL
  2
AcDbMaterial
  3
ObjectDBX Classes
 90
1153
 91
0
280
0
281
0
  0
CLASS
  1
SCALE
  2
AcDbScale
  3
ObjectDBX Classes
 90
1153
 91
0
280
0
281
0
  0
CLASS
  1
TABLESTYLE
  2
AcDbTableStyle
  3
ObjectDBX Classes
 90
4095
 91
0
280
0
281
0
  0
CLASS
  1
MLEADERSTYLE
  2
AcDbMLeaderStyle
  3
ACDB_MLEADERSTYLE_CLASS
 90
4095
 91
0
280
0
281
0
  0
CLASS
  1
DICTIONARYVAR
  2
AcDbDictionaryVar
  3
ObjectDBX Classes
 90
0
 91
0
280
0
281
0
  0
CLASS
  1
CELLSTYLEMAP
  2
AcDbCellStyleMap
  3
ObjectDBX Classes
 90
1152
 91
0
280
0
281
0
  0
CLASS
  1
MENTALRAYRENDERSETTINGS
  2
AcDbMentalRayRenderSettings
  3
SCENEOE
 90
1024
 91
0
280
0
281
0
  0
CLASS
  1
ACDBDETAILVIEWSTYLE
  2
AcDbDetailViewStyle
  3
ObjectDBX Classes
 90
1025
 91
0
280
0
281
0
  0
CLASS
  1
ACDBSECTIONVIEWSTYLE
  2
AcDbSectionViewStyle
  3
ObjectDBX Classes
 90
1025
 91
0
280
0
281
0
  0
CLASS
  1
RASTERVARIABLES
  2
AcDbRasterVariables
  3
ISM
 90
0
 91
0
280
0
281
0
  0
CLASS
  1
LAYOUT
  2
AcDbLayout
  3
ObjectDBX Classes
 90
0
 91
0
280
0
281
0
  0
CLASS
  1
ACDBPLACEHOLDER
  2
AcDbPlaceHolder
  3
ObjectDBX Classes
 90
0
 91
0
280
0
281
0
  0
ENDSEC
  0
SECTION
  2
TABLES
  0
TABLE
  2
VPORT
  5
8
330
0
100
AcDbSymbolTable
 70
1
  0
VPORT
  5
23
330
8
100
AcDbSymbolTableRecord
100
AcDbViewportTableRecord
  2
*Active
 70
0
 10
0.0
 20
0.0
 11
1.0
 21
1.0
 12
0.0
 22
0.0
 13
0.0
 23
0.0
 14
0.5
 24
0.5
 15
0.5
 25
0.5
 16
0.0
 26
0.0
 36
1.0
 17
0.0
 27
0.0
 37
0.0
 40
1000.0
 41
1.34
 42
50.0
 43
0.0
 44
0.0
 50
0.0
 51
0.0
 71
0
 72
1000
 73
1
 74
3
 75
0
 76
0
 77
0
 78
0
281
0
 65
0
146
0.0
  0
ENDTAB
  0
TABLE
  2
LTYPE
  5
2
330
0
100
AcDbSymbolTable
 70
3
  0
LTYPE
  5
24
330
2
100
AcDbSymbolTableRecord
100
AcDbLinetypeTableRecord
  2
ByBlock
 70
0
  3

 72
65
 73
0
 40
0.0
  0
LTYPE
  5
25
330
2
100
AcDbSymbolTableRecord
100
AcDbLinetypeTableRecord
  2
ByLayer
 70
0
  3

 72
65
 73
0
 40
0.0
  0
LTYPE
  5
26
330
2
100
AcDbSymbolTableRecord
100
AcDbLinetypeTableRecord
  2
Continuous
 70
0
  3

 72
65
 73
0
 40
0.0
  0
ENDTAB
  0
TABLE
  2
LAYER
  5
1
330
0
100
AcDbSymbolTable
 70
2
  0
LAYER
  5
27
330
1
100
AcDbSymbolTableRecord
100
AcDbLayerTableRecord
  2
0
 70
0
 62
7
  6
Continuous
370
-3
390
13
347
21
  0
LAYER
  5
28
330
1
100
AcDbSymbolTableRecord
100
AcDbLayerTableRecord
  2
Defpoints
 70
0
 62
7
  6
Continuous
290
0
370
-3
390
13
347
21
  0
ENDTAB
  0
TABLE
  2
STYLE
  5
5
330
0
100
AcDbSymbolTable
 70
1
  0
STYLE
  5
29
330
5
100
AcDbSymbolTableRecord
100
AcDbTextStyleTableRecord
  2
Standard
 70
0
 40
0.0
 41
1.0
 50
0.0
 71
0
 42
2.5
  3
txt
  4

  0
ENDTAB
  0
TABLE
  2
VIEW
  5
7
330
0
100
AcDbSymbolTable
 70
0
  0
ENDTAB
  0
TABLE
  2
UCS
  5
6
330
0
100
AcDbSymbolTable
 70
0
  0
ENDTAB
  0
TABLE
  2
APPID
  5
3
330
0
100
AcDbSymbolTable
 70
3
  0
APPID
  5
2A
330
3
100
AcDbSymbolTableRecord
100
AcDbRegAppTableRecord
  2
ACAD
 70
0
  0
APPID
  5
45
330
3
100
AcDbSymbolTableRecord
100
AcDbRegAppTableRecord
  2
HATCHBACKGROUNDCOLOR
 70
0
  0
APPID
  5
46
330
3
100
AcDbSymbolTableRecord
100
AcDbRegAppTableRecord
  2
EZDXF
 70
0
  0
ENDTAB
  0
TABLE
  2
DIMSTYLE
  5
4
330
0
100
AcDbSymbolTable
 70
1
100
AcDbDimStyleTable
  0
DIMSTYLE
105
2B
330
4
100
AcDbSymbolTableRecord
100
AcDbDimStyleTableRecord
  2
Standard
 70
0
 40
1.0
 41
2.5
 42
0.625
 43
3.75
 44
1.25
 45
0.0
 46
0.0
 47
0.0
 48
0.0
 49
2.5
140
2.5
141
2.5
142
0.0
143
0.03937007874
144
1.0
145
0.0
146
1.0
147
0.625
148
0.0
 69
0
 70
0
 71
0
 72
0
 73
0
 74
0
 75
0
 76
0
 77
1
 78
8
 79
3
170
0
171
3
172
1
173
0
174
0
175
0
176
0
177
0
178
0
179
2
271
2
272
2
273
2
274
3
275
0
276
0
277
2
278
44
279
0
280
0
281
0
282
0
283
0
284
8
285
0
286
0
288
0
289
3
290
0
371
-2
372
-2
  0
ENDTAB
  0
TABLE
  2
BLOCK_RECORD
  5
9
330
0
100
AcDbSymbolTable
 70
2
  0
BLOCK_RECORD
  5
17
330
9
100
AcDbSymbolTableRecord
100
AcDbBlockTableRecord
  2
*Model_Space
340
1A
 70
0
280
1
281
0
  0
BLOCK_RECORD
  5
1B
330
9
100
AcDbSymbolTableRecord
100
AcDbBlockTableRecord
  2
*Paper_Space
340
1E
 70
0
280
1
281
0
  0
ENDTAB
  0
ENDSEC
  0
SECTION
  2
BLOCKS
  0
BLOCK
  5
18
330
17
100
AcDbEntity
  8
0
100
AcDbBlockBegin
  2
*Model_Space
 70
0
 10
0.0
 20
0.0
 30
0.0
  3
*Model_Space
  1

  0
ENDBLK
  5
19
330
17
100
AcDbEntity
  8
0
100
AcDbBlockEnd
  0
BLOCK
  5
1C
330
1B
100
AcDbEntity
  8
0
100
AcDbBlockBegin
  2
*Paper_Space
 70
0
 10
0.0
 20
0.0
 30
0.0
  3
*Paper_Space
  1

  0
ENDBLK
  5
1D
330
1B
100
AcDbEntity
  8
0
100
AcDbBlockEnd
  0
ENDSEC
  0
SECTION
  2
ENTITIES
  0
LWPOLYLINE
  5
2F
330
17
100
AcDbEntity
  8
PLYWOOD_BOUNDARY
 62
7
100
AcDbPolyline
 90
5
 70
0
 10
0.0
 20
0.0
 10
96.0
 20
0.0
 10
96.0
 20
48.0
 10
0.0
 20
48.0
 10
0.0
 20
0.0
  0
LWPOLYLINE
  5
30
330
17
100
AcDbEntity
  8
SHELF_R
 62
3
100
AcDbPolyline
 90
110
 70
1
 10
5.75
 20
23.301508348618015
 10
34.75
 20
23.301508348618015
 10
34.75
 20
20.64922697929505
 10
34.75
 20
20.64922697929505
 10
34.736501166062176
 20
20.364954600916022
 10
34.696126143260486
 20
20.08324045295622
 10
34.62923827541363
 20
19.806619743749806
 10
34.536439501335266
 20
19.537581844641707
 10
34.4185649378527
 20
19.278547887580558
 10
34.276675364404554
 20
19.03184897681352
 10
34.112047676850466
 20
18.79970521075991
 10
33.92616339640104
 20
18.58420570285155
 10
33.72069533707854
 20
18.387289781135692
 10
33.497492551691195
 20
18.210729535830367
 10
33.258563691795274
 20
18.056113871889764
 10
33.00605893139257
 20
17.924834210095085
 10
32.74225061703588
 20
17.818071965348977
 10
32.46951281847647
 20
17.736787914859875
 10
32.190299963881884
 20
17.681713551893964
 10
31.907124751890457
 20
17.653344502904602
 10
31.622535539276836
 20
17.651936067279237
 10
31.339093407722064
 20
17.677500919843638
 10
31.059349116069374
 20
17.729808996798212
 10
31.059349116069402
 20
17.729808996798354
 10
30.583437749580995
 20
17.838784901723002
 10
30.10752638309259
 20
17.93943118241556
 10
29.631615016604183
 20
18.03018747728261
 10
29.155703650115775
 20
18.109646753337884
 10
28.67979228362737
 20
18.17657712002621
 10
28.203880917138964
 20
18.229940927740515
 10
27.727969550650556
 20
18.26891085493979
 10
27.252058184162152
 20
18.292882734462736
 10
26.776146817673744
 20
18.30148492018519
 10
26.300235451185337
 20
18.294584048806215
 10
25.824324084696933
 20
18.27228710743539
 10
25.348412718208525
 20
18.2349397749267
 10
24.872501351720118
 20
18.18312106267392
 10
24.396589985231714
 20
18.117634337953646
 10
23.920678618743306
 20
18.039494868984818
 10
23.4447672522549
 20
17.94991408479855
 10
22.968855885766494
 20
17.85028079394489
 10
22.492944519278083
 20
17.74213965321006
 10
22.01703315278968
 20
17.62716722015297
 10
21.54112178630127
 20
17.507145960728835
 10
21.065210419812868
 20
17.38393661497004
 10
20.58929905332446
 20
17.25944934915158
 10
20.113387686836056
 20
17.135614141680165
 10
19.63747632034765
 20
17.014350861827936
 10
19.16156495385924
 20
16.897539505192114
 10
18.685653587370837
 20
16.786991047333018
 10
18.20974222088243
 20
16.68441936745883
 10
17.73383085439402
 20
16.591414677435793
 10
17.257919487905617
 20
16.509418868065282
 10
16.78200812141721
 20
16.439703154844622
 10
16.306096754928802
 20
16.38334836977897
 10
15.830185388440398
 20
16.341228204788322
 10
15.35427402195199
 20
16.31399566649459
 10
14.878362655463583
 20
16.302072952385416
 10
14.402451288975179
 20
16.305644905308995
 10
13.926539922486768
 20
16.324656147777787
 10
13.450628555998364
 20
16.358811940508915
 10
12.97471718950996
 20
16.40758275189127
 10
12.498805823021549
 20
16.470212467536513
 10
12.022894456533145
 20
16.54573011263834
 10
11.54698309004474
 20
16.63296490540297
 10
11.07107172355633
 20
16.730564408171475
 10
10.595160357067925
 20
16.837015494829203
 10
10.119248990579521
 20
16.95066780943587
 10
9.64333762409111
 20
17.069759352387578
 10
9.167426257602706
 20
17.19244379743715
 10
8.691514891114299
 20
17.3168191160659
 10
8.215603524625891
 20
17.440957065431448
 10
7.739692158137487
 20
17.562933082726843
 10
7.739692158365322
 20
17.562933083628494
 10
7.570028482049647
 20
17.608994139916817
 10
7.402088985073615
 20
17.660991344868464
 10
7.2360812902578715
 20
17.718860414580277
 10
7.07221063214503
 20
17.782529805789935
 10
6.910679603269141
 20
17.85192080432465
 10
6.75168790369149
 20
17.92694762241497
 10
6.595432094112333
 20
18.007517504753892
 10
6.442105352863823
 20
18.09353084316986
 10
6.291897237084527
 20
18.18488129977176
 10
6.144993448370826
 20
18.28145593841417
 10
6.001575603194876
 20
18.38313536431947
 10
5.861821008373024
 20
18.489793871685393
 10
5.725902441862207
 20
18.601299599094304
 10
5.593987939155358
 20
18.71751469253296
 10
5.466240585539921
 20
18.838295475820686
 10
5.342818314476258
 20
18.963492628235727
 10
5.223873712345238
 20
19.092951369119604
 10
5.109553829806423
 20
19.226511649231853
 10
5.0
 20
19.364008348618015
 10
5.0
 20
19.989008348618015
 10
5.0
 20
19.989008348618015
 10
5.0839733570774825
 20
19.993724191198098
 10
5.166890700467238
 20
20.00781241448165
 10
5.247709296466375
 20
20.031095850886757
 10
5.325412804338171
 20
20.06328169769121
 10
5.399024057386505
 20
20.10396519919682
 10
5.4676173513940505
 20
20.152634736766984
 10
5.530330085889911
 20
20.2086782627281
 10
5.586373611851023
 20
20.271390997223975
 10
5.6350431494212145
 20
20.339984291231517
 10
5.675726650926816
 20
20.413595544279858
 10
5.707912497731279
 20
20.49129905215166
 10
5.73119593413637
 20
20.57211764815078
 10
5.745284157419935
 20
20.655034991540546
 10
5.75
 20
20.739008348618015
 10
5.75
 20
23.301508348618015
  0
LWPOLYLINE
  5
31
330
17
100
AcDbEntity
  8
BRACKET_OUTLINE
 62
6
100
AcDbPolyline
 90
87
 70
1
 10
12.925
 20
23.301508348618015
 10
12.88762013756228
 20
23.257260420760318
 10
12.845373719622884
 20
23.217632483558774
 10
12.798827715625457
 20
23.183156365049953
 10
12.748606797749979
 20
23.154294753118066
 10
12.695384957479188
 20
23.13143498597681
 10
12.639876460273683
 20
23.114883853884166
 10
12.582826259748785
 20
23.10486348185357
 10
12.525000000000002
 20
23.101508348618026
 10
11.725000000000001
 20
23.101508348618026
 10
11.725000000000001
 20
19.455061739211303
 10
11.741475918044049
 20
19.436883364955563
 10
11.756090707779002
 20
19.41717760216956
 10
11.768703620790454
 20
19.39613422812114
 10
11.779193187831186
 20
19.37395590200593
 10
11.787458388636416
 20
19.350856213228283
 10
11.793419624804173
 20
19.327057624418686
 10
11.797019486371411
 20
19.302789328997065
 10
11.798223304703363
 20
19.278285043914664
 10
11.797019486371411
 20
19.253780758832264
 10
11.793419624804173
 20
19.229512463410643
 10
11.787458388636416
 20
19.205713874601045
 10
11.779193187831186
 20
19.18261418582337
 10
11.768703620790454
 20
19.16043585970816
 10
11.756090707779002
 20
19.13939248565977
 10
11.741475918044049
 20
19.119686722873737
 10
11.725000000000001
 20
19.101508348618026
 10
11.706821625744276
 20
19.085032430573975
 10
11.687115862958265
 20
19.07041764083901
 10
11.666072488909862
 20
19.05780472782756
 10
11.643894162794638
 20
19.047315160786823
 10
11.620794474016982
 20
19.039049959981597
 10
11.596995885207399
 20
19.03308872381386
 10
11.572727589785757
 20
19.029488862246595
 10
11.548223304703363
 20
19.028285043914664
 10
11.523719019620977
 20
19.029488862246595
 10
11.499450724199335
 20
19.03308872381386
 10
11.475652135389751
 20
19.039049959981597
 10
11.452552446612092
 20
19.047315160786823
 10
11.430374120496865
 20
19.05780472782756
 10
11.409330746448465
 20
19.07041764083901
 10
11.389624983662454
 20
19.085032430573975
 10
11.371446609406728
 20
19.101508348618026
 10
10.478553390593277
 20
19.101508348618026
 10
10.46037501633755
 20
19.085032430573975
 10
10.44066925355154
 20
19.07041764083901
 10
10.419625879503137
 20
19.05780472782756
 10
10.397447553387913
 20
19.047315160786823
 10
10.374347864610254
 20
19.039049959981597
 10
10.35054927580067
 20
19.03308872381386
 10
10.326280980379028
 20
19.029488862246595
 10
10.301776695296638
 20
19.028285043914664
 10
10.277272410214248
 20
19.029488862246595
 10
10.253004114792606
 20
19.03308872381386
 10
10.229205525983023
 20
19.039049959981597
 10
10.206105837205364
 20
19.047315160786823
 10
10.18392751109014
 20
19.05780472782756
 10
10.162884137041736
 20
19.07041764083901
 10
10.143178374255726
 20
19.085032430573975
 10
10.125
 20
19.101508348618026
 10
10.108524081955956
 20
19.119686722873737
 10
10.093909292221
 20
19.13939248565977
 10
10.081296379209547
 20
19.16043585970816
 10
10.070806812168819
 20
19.18261418582337
 10
10.062541611363585
 20
19.205713874601045
 10
10.056580375195828
 20
19.229512463410643
 10
10.05298051362859
 20
19.253780758832264
 10
10.051776695296638
 20
19.278285043914664
 10
10.05298051362859
 20
19.302789328997065
 10
10.056580375195828
 20
19.327057624418686
 10
10.062541611363585
 20
19.350856213228283
 10
10.070806812168819
 20
19.37395590200593
 10
10.081296379209547
 20
19.39613422812114
 10
10.093909292221
 20
19.41717760216956
 10
10.108524081955956
 20
19.436883364955563
 10
10.125
 20
19.455061739211303
 10
10.125
 20
23.101508348618026
 10
9.325000000000003
 20
23.101508348618026
 10
9.267173740251216
 20
23.10486348185357
 10
9.210123539726318
 20
23.114883853884166
 10
9.154615042520817
 20
23.13143498597681
 10
9.101393202250023
 20
23.154294753118066
 10
9.051172284374545
 20
23.183156365049953
 10
9.004626280377117
 20
23.217632483558774
 10
8.962379862437722
 20
23.257260420760318
 10
8.925
 20
23.301508348618015
 10
12.925
 20
23.301508348618015
  0
LWPOLYLINE
  5
32
330
17
100
AcDbEntity
  8
BRACKET_OUTLINE
 62
6
100
AcDbPolyline
 90
87
 70
1
 10
24.425
 20
23.301508348618015
 10
24.38762013756228
 20
23.257260420760318
 10
24.345373719622884
 20
23.217632483558774
 10
24.298827715625457
 20
23.183156365049953
 10
24.24860679774998
 20
23.154294753118066
 10
24.195384957479188
 20
23.13143498597681
 10
24.139876460273683
 20
23.114883853884166
 10
24.082826259748785
 20
23.10486348185357
 10
24.025000000000002
 20
23.101508348618026
 10
23.225
 20
23.101508348618026
 10
23.225
 20
19.455061739211303
 10
23.24147591804405
 20
19.436883364955563
 10
23.256090707779002
 20
19.41717760216956
 10
23.268703620790454
 20
19.39613422812114
 10
23.279193187831186
 20
19.37395590200593
 10
23.287458388636416
 20
19.350856213228283
 10
23.293419624804173
 20
19.327057624418686
 10
23.297019486371415
 20
19.302789328997065
 10
23.298223304703363
 20
19.278285043914664
 10
23.297019486371415
 20
19.253780758832264
 10
23.293419624804173
 20
19.229512463410643
 10
23.287458388636416
 20
19.205713874601045
 10
23.279193187831186
 20
19.18261418582337
 10
23.268703620790454
 20
19.16043585970816
 10
23.256090707779002
 20
19.13939248565977
 10
23.24147591804405
 20
19.119686722873737
 10
23.225
 20
19.101508348618026
 10
23.206821625744276
 20
19.085032430573975
 10
23.187115862958265
 20
19.07041764083901
 10
23.166072488909865
 20
19.05780472782756
 10
23.143894162794638
 20
19.047315160786823
 10
23.12079447401698
 20
19.039049959981597
 10
23.096995885207395
 20
19.03308872381386
 10
23.072727589785753
 20
19.029488862246595
 10
23.048223304703363
 20
19.028285043914664
 10
23.023719019620973
 20
19.029488862246595
 10
22.99945072419933
 20
19.03308872381386
 10
22.975652135389748
 20
19.039049959981597
 10
22.952552446612092
 20
19.047315160786823
 10
22.930374120496865
 20
19.05780472782756
 10
22.909330746448465
 20
19.07041764083901
 10
22.889624983662454
 20
19.085032430573975
 10
22.87144660940673
 20
19.101508348618026
 10
21.978553390593273
 20
19.101508348618026
 10
21.96037501633755
 20
19.085032430573975
 10
21.940669253551537
 20
19.07041764083901
 10
21.919625879503137
 20
19.05780472782756
 10
21.89744755338791
 20
19.047315160786823
 10
21.874347864610254
 20
19.039049959981597
 10
21.85054927580067
 20
19.03308872381386
 10
21.82628098037903
 20
19.029488862246595
 10
21.80177669529664
 20
19.028285043914664
 10
21.77727241021425
 20
19.029488862246595
 10
21.753004114792606
 20
19.03308872381386
 10
21.729205525983023
 20
19.039049959981597
 10
21.706105837205367
 20
19.047315160786823
 10
21.68392751109014
 20
19.05780472782756
 10
21.66288413704174
 20
19.07041764083901
 10
21.643178374255726
 20
19.085032430573975
 10
21.625
 20
19.101508348618026
 10
21.608524081955956
 20
19.119686722873737
 10
21.593909292221003
 20
19.13939248565977
 10
21.58129637920955
 20
19.16043585970816
 10
21.57080681216882
 20
19.18261418582337
 10
21.562541611363585
 20
19.205713874601045
 10
21.556580375195832
 20
19.229512463410643
 10
21.55298051362859
 20
19.253780758832264
 10
21.55177669529664
 20
19.278285043914664
 10
21.55298051362859
 20
19.302789328997065
 10
21.556580375195832
 20
19.327057624418686
 10
21.562541611363585
 20
19.350856213228283
 10
21.57080681216882
 20
19.37395590200593
 10
21.58129637920955
 20
19.39613422812114
 10
21.593909292221003
 20
19.41717760216956
 10
21.608524081955956
 20
19.436883364955563
 10
21.625
 20
19.455061739211303
 10
21.625
 20
23.101508348618026
 10
20.825000000000003
 20
23.101508348618026
 10
20.76717374025122
 20
23.10486348185357
 10
20.71012353972632
 20
23.114883853884166
 10
20.654615042520817
 20
23.13143498597681
 10
20.601393202250023
 20
23.154294753118066
 10
20.551172284374545
 20
23.183156365049953
 10
20.504626280377117
 20
23.217632483558774
 10
20.46237986243772
 20
23.257260420760318
 10
20.425000000000004
 20
23.301508348618015
 10
24.425
 20
23.301508348618015
  0
LWPOLYLINE
  5
33
330
17
100
AcDbEntity
  8
BRACKET_OUTLINE
 62
6
100
AcDbPolyline
 90
87
 70
1
 10
33.575
 20
23.301508348618015
 10
33.53762013756228
 20
23.257260420760318
 10
33.49537371962288
 20
23.217632483558774
 10
33.448827715625455
 20
23.183156365049953
 10
33.39860679774998
 20
23.154294753118066
 10
33.34538495747918
 20
23.13143498597681
 10
33.28987646027368
 20
23.114883853884166
 10
33.232826259748784
 20
23.10486348185357
 10
33.175
 20
23.101508348618026
 10
32.375
 20
23.101508348618026
 10
32.375
 20
19.455061739211303
 10
32.39147591804405
 20
19.436883364955563
 10
32.406090707779
 20
19.41717760216956
 10
32.41870362079045
 20
19.39613422812114
 10
32.42919318783119
 20
19.37395590200593
 10
32.437458388636415
 20
19.350856213228283
 10
32.44341962480417
 20
19.327057624418686
 10
32.44701948637142
 20
19.302789328997065
 10
32.44822330470336
 20
19.278285043914664
 10
32.44701948637142
 20
19.253780758832264
 10
32.44341962480417
 20
19.229512463410643
 10
32.437458388636415
 20
19.205713874601045
 10
32.42919318783119
 20
19.18261418582337
 10
32.41870362079045
 20
19.16043585970816
 10
32.406090707779
 20
19.13939248565977
 10
32.39147591804405
 20
19.119686722873737
 10
32.375
 20
19.101508348618026
 10
32.356821625744274
 20
19.085032430573975
 10
32.337115862958264
 20
19.07041764083901
 10
32.31607248890987
 20
19.05780472782756
 10
32.293894162794636
 20
19.047315160786823
 10
32.27079447401698
 20
19.039049959981597
 10
32.2469958852074
 20
19.03308872381386
 10
32.22272758978575
 20
19.029488862246595
 10
32.19822330470336
 20
19.028285043914664
 10
32.173719019620975
 20
19.029488862246595
 10
32.149450724199326
 20
19.03308872381386
 10
32.12565213538974
 20
19.039049959981597
 10
32.102552446612094
 20
19.047315160786823
 10
32.08037412049686
 20
19.05780472782756
 10
32.05933074644847
 20
19.07041764083901
 10
32.03962498366245
 20
19.085032430573975
 10
32.02144660940672
 20
19.101508348618026
 10
31.12855339059327
 20
19.101508348618026
 10
31.11037501633755
 20
19.085032430573975
 10
31.090669253551535
 20
19.07041764083901
 10
31.069625879503135
 20
19.05780472782756
 10
31.047447553387908
 20
19.047315160786823
 10
31.024347864610252
 20
19.039049959981597
 10
31.00054927580067
 20
19.03308872381386
 10
30.976280980379027
 20
19.029488862246595
 10
30.951776695296637
 20
19.028285043914664
 10
30.927272410214247
 20
19.029488862246595
 10
30.903004114792605
 20
19.03308872381386
 10
30.87920552598302
 20
19.039049959981597
 10
30.856105837205362
 20
19.047315160786823
 10
30.83392751109014
 20
19.05780472782756
 10
30.812884137041735
 20
19.07041764083901
 10
30.793178374255724
 20
19.085032430573975
 10
30.775
 20
19.101508348618026
 10
30.75852408195595
 20
19.119686722873737
 10
30.743909292221
 20
19.13939248565977
 10
30.731296379209546
 20
19.16043585970816
 10
30.720806812168814
 20
19.18261418582337
 10
30.712541611363584
 20
19.205713874601045
 10
30.706580375195827
 20
19.229512463410643
 10
30.70298051362859
 20
19.253780758832264
 10
30.701776695296637
 20
19.278285043914664
 10
30.70298051362859
 20
19.302789328997065
 10
30.706580375195827
 20
19.327057624418686
 10
30.712541611363584
 20
19.350856213228283
 10
30.720806812168814
 20
19.37395590200593
 10
30.731296379209546
 20
19.39613422812114
 10
30.743909292221
 20
19.41717760216956
 10
30.75852408195595
 20
19.436883364955563
 10
30.775
 20
19.455061739211303
 10
30.775
 20
23.101508348618026
 10
29.974999999999998
 20
23.101508348618026
 10
29.917173740251215
 20
23.10486348185357
 10
29.86012353972632
 20
23.114883853884166
 10
29.804615042520812
 20
23.13143498597681
 10
29.75139320225002
 20
23.154294753118066
 10
29.701172284374543
 20
23.183156365049953
 10
29.654626280377116
 20
23.217632483558774
 10
29.61237986243772
 20
23.257260420760318
 10
29.575
 20
23.301508348618015
 10
33.575
 20
23.301508348618015
  0
LINE
  5
34
330
17
100
AcDbEntity
  8
BRACKET_CUT_LINE
 62
4
100
AcDbLine
 10
10.125
 20
23.101508348618026
 30
0.0
 11
11.725000000000001
 21
23.101508348618026
 31
0.0
  0
LINE
  5
35
330
17
100
AcDbEntity
  8
BRACKET_CUT_LINE
 62
4
100
AcDbLine
 10
21.625
 20
23.101508348618026
 30
0.0
 11
23.225
 21
23.101508348618026
 31
0.0
  0
LINE
  5
36
330
17
100
AcDbEntity
  8
BRACKET_CUT_LINE
 62
4
100
AcDbLine
 10
30.775
 20
23.101508348618026
 30
0.0
 11
32.375
 21
23.101508348618026
 31
0.0
  0
LWPOLYLINE
  5
37
330
17
100
AcDbEntity
  8
SHELF_R
 62
3
100
AcDbPolyline
 90
110
 70
1
 10
29.0374458949957
 20
23.75150834861803
 10
29.0374458949957
 20
26.31400834861803
 10
29.0374458949957
 20
26.31400834861803
 10
29.042161737575764
 20
26.3979817056955
 10
29.05624996085933
 20
26.480899049085266
 10
29.07953339726442
 20
26.561717645084414
 10
29.111719244068883
 20
26.63942115295619
 10
29.152402745574484
 20
26.71303240600453
 10
29.201072283144676
 20
26.78162570001207
 10
29.257115809105787
 20
26.844338434507918
 10
29.31982854360165
 20
26.900381960469034
 10
29.388421837609194
 20
26.949051498039253
 10
29.462033090657528
 20
26.989734999544837
 10
29.539736598529323
 20
27.021920846349317
 10
29.62055519452846
 20
27.045204282754398
 10
29.703472537918216
 20
27.05929250603795
 10
29.787445894995695
 20
27.06400834861803
 10
29.7874458949957
 20
27.68900834861803
 10
29.7874458949957
 20
27.68900834861803
 10
29.61952648716072
 20
27.99128297505989
 10
29.431116760057208
 20
28.281228921834455
 10
29.22311781619421
 20
28.557459471683856
 10
28.99652444693985
 20
28.818653503637464
 10
28.75242037475745
 20
29.0635618115043
 10
28.491973070113055
 20
29.291013078420306
 10
28.216428167843567
 20
29.49991947887638
 10
27.927103509689996
 20
29.689281881434383
 10
27.6253828414886
 20
29.858194627248096
 10
27.312709195164153
 20
30.005849861535253
 10
26.990577987177083
 20
30.13154139728455
 10
26.66052986643242
 20
30.234668092718564
 10
26.324143345856655
 20
30.31473672635964
 10
25.983027252883264
 20
30.37136435594796
 10
25.638813034953856
 20
30.40428014992996
 10
25.29314695683507
 20
30.413326682757585
 10
24.947682227069137
 20
30.39846068780362
 10
24.604071091214518
 20
30.359753264291825
 10
24.26395692969225
 20
30.297389537252556
 10
24.263956929721026
 20
30.29738953712136
 10
23.82113934463529
 20
30.196809966166327
 10
23.378321759549557
 20
30.090252410585364
 10
22.935504174463823
 20
29.979147360194688
 10
22.49268658937809
 20
29.864986352992204
 10
22.049869004292354
 20
29.74930195189488
 10
21.60705141920662
 20
29.633647170734193
 10
21.164233834120886
 20
29.51957462570654
 10
20.72141624903515
 20
29.40861569216186
 10
20.278598663949417
 20
29.30225994654161
 10
19.835781078863683
 20
29.201935169449214
 10
19.39296349377795
 20
29.108988178303306
 10
18.950145908692214
 20
29.024666746887263
 10
18.50732832360648
 20
28.95010285451754
 10
18.064510738520745
 20
28.886297489703182
 10
17.62169315343501
 20
28.83410721230139
 10
17.178875568349277
 20
28.794232654565903
 10
16.736057983263542
 20
28.76720911545756
 10
16.293240398177808
 20
28.753399374483436
 10
15.850422813092077
 20
28.752988821536533
 10
15.407605228006343
 20
28.76598296811541
 10
14.964787642920609
 20
28.792207373334506
 10
14.521970057834874
 20
28.83130998571899
 10
14.07915247274914
 20
28.88276586934576
 10
13.636334887663406
 20
28.94588425088473
 10
13.193517302577671
 20
29.01981779293679
 10
12.75069971749194
 20
29.103573969177475
 10
12.307882132406206
 20
29.196028388600425
 10
11.865064547320472
 20
29.295939889987906
 10
11.422246962234738
 20
29.40196720397161
 10
10.979429377149003
 20
29.51268695900312
 10
10.536611792063269
 20
29.626612789510645
 10
10.093794206977535
 20
29.7422152897242
 10
9.6509766218918
 20
29.857942545296808
 10
9.208159036806066
 20
29.97224096709398
 10
8.765341451720332
 20
30.083576147466275
 10
8.322523866634597
 20
30.19045345901877
 10
7.879706281548863
 20
30.29143811934749
 10
7.436888696463129
 20
30.385174452382316
 10
6.994071111377394
 20
30.470404087761025
 10
6.55125352629166
 20
30.545982853915646
 10
6.108435941205926
 20
30.61089613808865
 10
5.665618356120191
 20
30.66427250707723
 10
5.222800771034457
 20
30.70539540585297
 10
4.779983185948723
 20
30.733712777008137
 10
4.337165600862988
 20
30.748844471891246
 10
3.894348015777254
 20
30.750587353940873
 10
3.4515304306915198
 20
30.738918025707576
 10
3.0087128456057854
 20
30.713993142954607
 10
2.565895260520051
 20
30.676147311620994
 10
2.565895260520051
 20
30.676147311620966
 10
2.415270901120678
 20
30.664950348622668
 10
2.264273890972653
 20
30.661348605820777
 10
2.113286975109922
 20
30.665351212860728
 10
1.962692872979602
 20
30.67694802399221
 10
1.8128733083302535
 20
30.69610964378633
 10
1.6642080416240361
 20
30.722787501646863
 10
1.5170739074254271
 20
30.756913974926093
 10
1.371843859206372
 20
30.798402560333997
 10
1.2288860239892827
 20
30.847148093205206
 10
1.0885627692239694
 20
30.903027014069195
 10
0.9512297842638588
 20
30.965897681846812
 10
0.8172351787698062
 20
31.0356007328801
 10
0.6869186003267629
 20
31.11195948488505
 10
0.5606103735099808
 20
31.194780384803224
 10
0.4386306625830798
 20
31.283853499417248
 10
0.3212886599502909
 20
31.378953047486547
 10
0.20888180242007337
 20
31.479837972054284
 10
0.10169501726655028
 20
31.586252551475084
 10
0.0
 20
31.697927047614584
 10
0.0
 20
23.75150834861803
 10
29.0374458949957
 20
23.75150834861803
  0
LWPOLYLINE
  5
38
330
17
100
AcDbEntity
  8
BRACKET_OUTLINE
 62
6
100
AcDbPolyline
 90
87
 70
1
 10
21.862445894995698
 20
23.75150834861803
 10
21.89982575743342
 20
23.7957562764757
 10
21.942072175372815
 20
23.8353842136773
 10
21.988618179370242
 20
23.869860332186093
 10
22.03883909724572
 20
23.89872194411798
 10
22.09206093751651
 20
23.921581711259236
 10
22.147569434722016
 20
23.93813284335188
 10
22.204619635246914
 20
23.948153215382447
 10
22.262445894995697
 20
23.95150834861802
 10
23.062445894995697
 20
23.95150834861802
 10
23.062445894995697
 20
27.597954958024744
 10
23.04596997695165
 20
27.616133332280484
 10
23.031355187216697
 20
27.635839095066487
 10
23.018742274205245
 20
27.656882469114876
 10
23.008252707164512
 20
27.679060795230114
 10
22.999987506359282
 20
27.702160484007763
 10
22.994026270191526
 20
27.72595907281736
 10
22.990426408624284
 20
27.75022736823901
 10
22.989222590292336
 20
27.774731653321382
 10
22.990426408624284
 20
27.799235938403783
 10
22.994026270191526
 20
27.82350423382543
 10
22.999987506359282
 20
27.847302822635
 10
23.008252707164512
 20
27.87040251141265
 10
23.018742274205245
 20
27.892580837527888
 10
23.031355187216697
 20
27.913624211576305
 10
23.04596997695165
 20
27.93332997436231
 10
23.062445894995697
 20
27.95150834861802
 10
23.080624269251423
 20
27.96798426666207
 10
23.100330032037434
 20
27.982599056397035
 10
23.121373406085834
 20
27.995211969408487
 10
23.14355173220106
 20
28.005701536449195
 10
23.166651420978717
 20
28.01396673725445
 10
23.1904500097883
 20
28.019927973422185
 10
23.214718305209942
 20
28.023527834989423
 10
23.239222590292336
 20
28.024731653321382
 10
23.263726875374722
 20
28.023527834989423
 10
23.287995170796364
 20
28.019927973422185
 10
23.311793759605948
 20
28.01396673725445
 10
23.334893448383607
 20
28.005701536449195
 10
23.357071774498834
 20
27.995211969408487
 10
23.378115148547234
 20
27.982599056397035
 10
23.397820911333245
 20
27.96798426666207
 10
23.41599928558897
 20
27.95150834861802
 10
24.308892504402422
 20
27.95150834861802
 10
24.327070878658148
 20
27.96798426666207
 10
24.34677664144416
 20
27.982599056397035
 10
24.367820015492562
 20
27.995211969408487
 10
24.389998341607786
 20
28.005701536449195
 10
24.413098030385445
 20
28.01396673725445
 10
24.43689661919503
 20
28.019927973422185
 10
24.46116491461667
 20
28.023527834989423
 10
24.48566919969906
 20
28.024731653321382
 10
24.51017348478145
 20
28.023527834989423
 10
24.534441780203093
 20
28.019927973422185
 10
24.558240369012676
 20
28.01396673725445
 10
24.58134005779033
 20
28.005701536449195
 10
24.60351838390556
 20
27.995211969408487
 10
24.624561757953963
 20
27.982599056397035
 10
24.644267520739973
 20
27.96798426666207
 10
24.6624458949957
 20
27.95150834861802
 10
24.678921813039743
 20
27.93332997436231
 10
24.693536602774696
 20
27.913624211576305
 10
24.706149515786148
 20
27.892580837527888
 10
24.71663908282688
 20
27.87040251141265
 10
24.724904283632114
 20
27.847302822635
 10
24.730865519799867
 20
27.82350423382543
 10
24.73446538136711
 20
27.799235938403783
 10
24.73566919969906
 20
27.774731653321382
 10
24.73446538136711
 20
27.75022736823901
 10
24.730865519799867
 20
27.72595907281736
 10
24.724904283632114
 20
27.702160484007763
 10
24.71663908282688
 20
27.679060795230114
 10
24.706149515786148
 20
27.656882469114876
 10
24.693536602774696
 20
27.635839095066487
 10
24.678921813039743
 20
27.616133332280484
 10
24.6624458949957
 20
27.597954958024744
 10
24.6624458949957
 20
23.95150834861802
 10
25.462445894995696
 20
23.95150834861802
 10
25.520272154744482
 20
23.948153215382447
 10
25.577322355269377
 20
23.93813284335188
 10
25.632830852474882
 20
23.921581711259236
 10
25.686052692745676
 20
23.89872194411798
 10
25.736273610621154
 20
23.869860332186093
 10
25.78281961461858
 20
23.8353842136773
 10
25.825066032557977
 20
23.7957562764757
 10
25.862445894995698
 20
23.75150834861803
 10
21.862445894995698
 20
23.75150834861803
  0
LWPOLYLINE
  5
39
330
17
100
AcDbEntity
  8
BRACKET_OUTLINE
 62
6
100
AcDbPolyline
 90
87
 70
1
 10
10.362445894995695
 20
23.75150834861803
 10
10.399825757433419
 20
23.7957562764757
 10
10.442072175372815
 20
23.8353842136773
 10
10.488618179370242
 20
23.869860332186093
 10
10.53883909724572
 20
23.89872194411798
 10
10.592060937516507
 20
23.921581711259236
 10
10.647569434722016
 20
23.93813284335188
 10
10.704619635246914
 20
23.948153215382447
 10
10.762445894995693
 20
23.95150834861802
 10
11.562445894995697
 20
23.95150834861802
 10
11.562445894995697
 20
27.597954958024744
 10
11.545969976951646
 20
27.616133332280484
 10
11.531355187216697
 20
27.635839095066487
 10
11.518742274205245
 20
27.656882469114876
 10
11.508252707164509
 20
27.679060795230114
 10
11.499987506359282
 20
27.702160484007763
 10
11.494026270191526
 20
27.72595907281736
 10
11.49042640862428
 20
27.75022736823901
 10
11.489222590292336
 20
27.774731653321382
 10
11.49042640862428
 20
27.799235938403783
 10
11.494026270191526
 20
27.82350423382543
 10
11.499987506359282
 20
27.847302822635
 10
11.508252707164509
 20
27.87040251141265
 10
11.518742274205245
 20
27.892580837527888
 10
11.531355187216697
 20
27.913624211576305
 10
11.545969976951646
 20
27.93332997436231
 10
11.562445894995697
 20
27.95150834861802
 10
11.580624269251423
 20
27.96798426666207
 10
11.600330032037434
 20
27.982599056397035
 10
11.62137340608583
 20
27.995211969408487
 10
11.643551732201061
 20
28.005701536449195
 10
11.666651420978717
 20
28.01396673725445
 10
11.6904500097883
 20
28.019927973422185
 10
11.714718305209942
 20
28.023527834989423
 10
11.739222590292336
 20
28.024731653321382
 10
11.763726875374722
 20
28.023527834989423
 10
11.787995170796364
 20
28.019927973422185
 10
11.811793759605948
 20
28.01396673725445
 10
11.834893448383603
 20
28.005701536449195
 10
11.857071774498834
 20
27.995211969408487
 10
11.87811514854723
 20
27.982599056397035
 10
11.897820911333241
 20
27.96798426666207
 10
11.915999285588967
 20
27.95150834861802
 10
12.808892504402422
 20
27.95150834861802
 10
12.827070878658148
 20
27.96798426666207
 10
12.846776641444158
 20
27.982599056397035
 10
12.867820015492562
 20
27.995211969408487
 10
12.889998341607786
 20
28.005701536449195
 10
12.913098030385441
 20
28.01396673725445
 10
12.936896619195025
 20
28.019927973422185
 10
12.961164914616667
 20
28.023527834989423
 10
12.98566919969906
 20
28.024731653321382
 10
13.010173484781447
 20
28.023527834989423
 10
13.034441780203089
 20
28.019927973422185
 10
13.058240369012672
 20
28.01396673725445
 10
13.081340057790332
 20
28.005701536449195
 10
13.10351838390556
 20
27.995211969408487
 10
13.124561757953959
 20
27.982599056397035
 10
13.144267520739973
 20
27.96798426666207
 10
13.162445894995699
 20
27.95150834861802
 10
13.178921813039743
 20
27.93332997436231
 10
13.193536602774696
 20
27.913624211576305
 10
13.206149515786148
 20
27.892580837527888
 10
13.21663908282688
 20
27.87040251141265
 10
13.224904283632114
 20
27.847302822635
 10
13.230865519799867
 20
27.82350423382543
 10
13.234465381367109
 20
27.799235938403783
 10
13.23566919969906
 20
27.774731653321382
 10
13.234465381367109
 20
27.75022736823901
 10
13.230865519799867
 20
27.72595907281736
 10
13.224904283632114
 20
27.702160484007763
 10
13.21663908282688
 20
27.679060795230114
 10
13.206149515786148
 20
27.656882469114876
 10
13.193536602774696
 20
27.635839095066487
 10
13.178921813039743
 20
27.616133332280484
 10
13.162445894995699
 20
27.597954958024744
 10
13.162445894995699
 20
23.95150834861802
 10
13.962445894995696
 20
23.95150834861802
 10
14.020272154744479
 20
23.948153215382447
 10
14.077322355269377
 20
23.93813284335188
 10
14.132830852474882
 20
23.921581711259236
 10
14.186052692745676
 20
23.89872194411798
 10
14.236273610621154
 20
23.869860332186093
 10
14.28281961461858
 20
23.8353842136773
 10
14.325066032557977
 20
23.7957562764757
 10
14.362445894995696
 20
23.75150834861803
 10
10.362445894995695
 20
23.75150834861803
  0
LWPOLYLINE
  5
3A
330
17
100
AcDbEntity
  8
BRACKET_OUTLINE
 62
6
100
AcDbPolyline
 90
87
 70
1
 10
1.212445894995696
 20
23.75150834861803
 10
1.2498257574334204
 20
23.7957562764757
 10
1.292072175372816
 20
23.8353842136773
 10
1.3386181793702434
 20
23.869860332186093
 10
1.3888390972457216
 20
23.89872194411798
 10
1.4420609375165085
 20
23.921581711259236
 10
1.497569434722017
 20
23.93813284335188
 10
1.5546196352469153
 20
23.948153215382447
 10
1.6124458949956946
 20
23.95150834861802
 10
2.412445894995699
 20
23.95150834861802
 10
2.412445894995699
 20
27.597954958024744
 10
2.3959699769516476
 20
27.616133332280484
 10
2.3813551872166983
 20
27.635839095066487
 10
2.368742274205246
 20
27.656882469114876
 10
2.3582527071645103
 20
27.679060795230114
 10
2.349987506359284
 20
27.702160484007763
 10
2.3440262701915273
 20
27.72595907281736
 10
2.340426408624282
 20
27.75022736823901
 10
2.339222590292337
 20
27.774731653321382
 10
2.340426408624282
 20
27.799235938403783
 10
2.3440262701915273
 20
27.82350423382543
 10
2.349987506359284
 20
27.847302822635
 10
2.3582527071645103
 20
27.87040251141265
 10
2.368742274205246
 20
27.892580837527888
 10
2.3813551872166983
 20
27.913624211576305
 10
2.3959699769516476
 20
27.93332997436231
 10
2.412445894995699
 20
27.95150834861802
 10
2.4306242692514246
 20
27.96798426666207
 10
2.450330032037435
 20
27.982599056397035
 10
2.4713734060858314
 20
27.995211969408487
 10
2.4935517322010625
 20
28.005701536449195
 10
2.516651420978718
 20
28.01396673725445
 10
2.5404500097883016
 20
28.019927973422185
 10
2.5647183052099436
 20
28.023527834989423
 10
2.589222590292337
 20
28.024731653321382
 10
2.6137268753747236
 20
28.023527834989423
 10
2.6379951707963656
 20
28.019927973422185
 10
2.661793759605949
 20
28.01396673725445
 10
2.6848934483836047
 20
28.005701536449195
 10
2.7070717744988357
 20
27.995211969408487
 10
2.728115148547232
 20
27.982599056397035
 10
2.7478209113332426
 20
27.96798426666207
 10
2.7659992855889683
 20
27.95150834861802
 10
3.6588925044024236
 20
27.95150834861802
 10
3.6770708786581494
 20
27.96798426666207
 10
3.69677664144416
 20
27.982599056397035
 10
3.7178200154925634
 20
27.995211969408487
 10
3.7399983416077873
 20
28.005701536449195
 10
3.763098030385443
 20
28.01396673725445
 10
3.7868966191950264
 20
28.019927973422185
 10
3.8111649146166684
 20
28.023527834989423
 10
3.835669199699062
 20
28.024731653321382
 10
3.8601734847814484
 20
28.023527834989423
 10
3.8844417802030904
 20
28.019927973422185
 10
3.908240369012674
 20
28.01396673725445
 10
3.9313400577903366
 20
28.005701536449195
 10
3.9535183839055605
 20
27.995211969408487
 10
3.974561757953964
 20
27.982599056397035
 10
3.9942675207399745
 20
27.96798426666207
 10
4.0124458949957
 20
27.95150834861802
 10
4.028921813039744
 20
27.93332997436231
 10
4.043536602774694
 20
27.913624211576305
 10
4.056149515786153
 20
27.892580837527888
 10
4.066639082826882
 20
27.87040251141265
 10
4.074904283632115
 20
27.847302822635
 10
4.080865519799872
 20
27.82350423382543
 10
4.08446538136711
 20
27.799235938403783
 10
4.085669199699062
 20
27.774731653321382
 10
4.08446538136711
 20
27.75022736823901
 10
4.080865519799872
 20
27.72595907281736
 10
4.074904283632115
 20
27.702160484007763
 10
4.066639082826882
 20
27.679060795230114
 10
4.056149515786153
 20
27.656882469114876
 10
4.043536602774694
 20
27.635839095066487
 10
4.028921813039744
 20
27.616133332280484
 10
4.0124458949957
 20
27.597954958024744
 10
4.0124458949957
 20
23.95150834861802
 10
4.812445894995697
 20
23.95150834861802
 10
4.870272154744484
 20
23.948153215382447
 10
4.927322355269375
 20
23.93813284335188
 10
4.982830852474883
 20
23.921581711259236
 10
5.0360526927456775
 20
23.89872194411798
 10
5.086273610621156
 20
23.869860332186093
 10
5.132819614618583
 20
23.8353842136773
 10
5.175066032557979
 20
23.7957562764757
 10
5.212445894995696
 20
23.75150834861803
 10
1.212445894995696
 20
23.75150834861803
  0
LINE
  5
3B
330
17
100
AcDbEntity
  8
BRACKET_CUT_LINE
 62
4
100
AcDbLine
 10
24.6624458949957
 20
23.95150834861802
 30
0.0
 11
23.062445894995697
 21
23.95150834861802
 31
0.0
  0
LINE
  5
3C
330
17
100
AcDbEntity
  8
BRACKET_CUT_LINE
 62
4
100
AcDbLine
 10
13.162445894995699
 20
23.95150834861802
 30
0.0
 11
11.562445894995697
 21
23.95150834861802
 31
0.0
  0
LINE
  5
3D
330
17
100
AcDbEntity
  8
BRACKET_CUT_LINE
 62
4
100
AcDbLine
 10
4.0124458949957
 20
23.95150834861802
 30
0.0
 11
2.412445894995699
 21
23.95150834861802
 31
0.0
  0
LWPOLYLINE
  5
3E
330
17
100
AcDbEntity
  8
SHELF_R
 62
3
100
AcDbPolyline
 90
110
 70
1
 10
35.49999999999999
 20
31.697927047614584
 10
64.50000000000003
 20
31.697927047614584
 10
64.50000000000003
 20
28.281379064951196
 10
64.50000000000003
 20
28.281379064951196
 10
64.48634998086985
 20
27.995522821782018
 10
64.4455241388275
 20
27.712267874071316
 10
64.37789398955621
 20
27.43419184545577
 10
64.2840749682769
 20
27.163825231342187
 10
64.1649208292797
 20
26.903628371367134
 10
64.0215158767491
 20
26.655969060274757
 10
63.85516509758207
 20
26.423101000954503
 10
63.667382285990556
 20
26.20714329571608
 10
63.45987626795493
 20
26.01006116243137
 10
63.23453535088574
 20
25.833648051026742
 10
62.993410140002176
 20
25.67950932306583
 10
62.73869487779846
 20
25.549047642938874
 10
62.47270747640915
 20
25.443450213598894
 10
62.197868424579134
 20
25.36367797299961
 10
61.916678761185224
 20
25.310456849547833
 10
61.631697315750436
 20
25.28427115614575
 10
61.34551742306272
 20
25.285359182937256
 10
61.060743323795315
 20
25.31371102886466
 10
60.77996646588342
 20
25.369068691768476
 10
60.77996646588337
 20
25.369068691768277
 10
60.32109476122282
 20
25.484616641192943
 10
59.862223056562264
 20
25.60323933833355
 10
59.40335135190171
 20
25.723226904740173
 10
58.94447964724116
 20
25.84284978815164
 10
58.48560794258061
 20
25.960383693003976
 10
58.026736237920055
 20
26.07413443516633
 10
57.5678645332595
 20
26.18246236263805
 10
57.10899282859894
 20
26.283805990196
 10
56.65012112393839
 20
26.376704507312482
 10
56.19124941927784
 20
26.45981883490505
 10
55.732377714617286
 20
26.531950927396664
 10
55.27350600995673
 20
26.59206104185897
 10
54.814634305296174
 20
26.63928272531267
 10
54.35576260063562
 20
26.67293530415266
 10
53.89689089597507
 20
26.69253369566944
 10
53.43801919131452
 20
26.6977954002392
 10
52.979147486653964
 20
26.688644573394853
 10
52.52027578199341
 20
26.665213119080548
 10
52.06140407733286
 20
26.627838788331744
 10
51.60253237267231
 20
26.577060310786734
 10
51.143660668011755
 20
26.51360962920667
 10
50.6847889633512
 20
26.438401348938427
 10
50.22591725869065
 20
26.3525195544009
 10
49.7670455540301
 20
26.25720218262687
 10
49.308173849369545
 20
26.153823179107675
 10
48.849302144708986
 20
26.043872693153375
 10
48.39043044004843
 20
25.928935598241154
 10
47.93155873538788
 20
25.81066864696929
 10
47.47268703072733
 20
25.69077658991411
 10
47.013815326066776
 20
25.570987602624044
 10
46.554943621406224
 20
25.453028374955622
 10
46.09607191674567
 20
25.33859922182522
 10
45.63720021208512
 20
25.2293495741403
 10
45.17832850742456
 20
25.126854203194554
 10
44.71945680276401
 20
25.032590521239015
 10
44.260585098103455
 20
24.94791728542789
 10
43.8017133934429
 20
24.87405501211005
 10
43.34284168878235
 20
24.812068383782574
 10
42.8839699841218
 20
24.76285090230074
 10
42.425098279461245
 20
24.72711200955864
 10
41.96622657480069
 20
24.705366861289562
 10
41.50735487014014
 20
24.697928901390085
 10
41.04848316547959
 20
24.70490534380538
 10
40.589611460819036
 20
24.72619562710129
 10
40.13073975615848
 20
24.761492864000118
 10
39.67186805149793
 20
24.81028826498543
 10
39.21299634683737
 20
24.87187847221243
 10
38.75412464217682
 20
24.945375698009727
 10
38.29525293751627
 20
25.02972052183175
 10
38.29525293750715
 20
25.029720521784967
 10
38.05679885426411
 20
25.082238692945637
 10
37.821192993963756
 20
25.146335391062436
 10
37.5889972154019
 20
25.221857762154727
 10
37.36076524521491
 20
25.308625704978695
 10
37.137041357385456
 20
25.40643230052227
 10
36.918359075290454
 20
25.515044305452946
 10
36.70523989938631
 20
25.634202708342897
 10
36.49819206356576
 20
25.76362334734371
 10
36.29770932315204
 20
25.90299758783867
 10
36.104269777420605
 20
26.05199305845626
 10
35.91833472945656
 20
26.21025444368955
 10
35.74034758606656
 20
26.37740433123126
 10
35.570732800368724
 20
26.553044112004372
 10
35.40989485958217
 20
26.736754930740986
 10
35.25821732043002
 20
26.928098684843647
 10
35.11606189445626
 20
27.126619069146003
 10
34.98376758543756
 20
27.3318426640824
 10
34.86164988094739
 20
27.543280064670356
 10
34.74999999999999
 20
27.760427047614584
 10
34.74999999999999
 20
28.385427047614584
 10
34.74999999999999
 20
28.385427047614584
 10
34.833973357077475
 20
28.39014289019464
 10
34.91689070046723
 20
28.404231113478218
 10
34.99770929646637
 20
28.4275145498833
 10
35.075412804338164
 20
28.45970039668778
 10
35.14902405738649
 20
28.500383898193363
 10
35.21761735139405
 20
28.549053435763554
 10
35.28033008588991
 20
28.60509696172467
 10
35.336373611851016
 20
28.667809696220544
 10
35.38504314942121
 20
28.736402990228086
 10
35.42572665092681
 20
28.8100142432764
 10
35.457912497731265
 20
28.8877177511482
 10
35.48119593413636
 20
28.96853634714735
 10
35.495284157419924
 20
29.051453690537087
 10
35.49999999999999
 20
29.135427047614584
 10
35.49999999999999
 20
31.697927047614584
  0
LWPOLYLINE
  5
3F
330
17
100
AcDbEntity
  8
BRACKET_OUTLINE
 62
6
100
AcDbPolyline
 90
87
 70
1
 10
42.67499999999999
 20
31.697927047614584
 10
42.63762013756227
 20
31.653679119756887
 10
42.59537371962288
 20
31.614051182555315
 10
42.54882771562545
 20
31.579575064046495
 10
42.49860679774997
 20
31.550713452114636
 10
42.44538495747918
 20
31.52785368497338
 10
42.389876460273676
 20
31.511302552880707
 10
42.33282625974878
 20
31.50128218085014
 10
42.27499999999999
 20
31.497927047614567
 10
41.474999999999994
 20
31.497927047614567
 10
41.474999999999994
 20
27.851480438207844
 10
41.49147591804404
 20
27.833302063952132
 10
41.50609070777899
 20
27.81359630116613
 10
41.51870362079045
 20
27.79255292711771
 10
41.529193187831176
 20
27.7703746010025
 10
41.53745838863641
 20
27.747274912224853
 10
41.543419624804166
 20
27.723476323415255
 10
41.547019486371404
 20
27.699208027993606
 10
41.548223304703356
 20
27.674703742911234
 10
41.547019486371404
 20
27.650199457828833
 10
41.543419624804166
 20
27.625931162407184
 10
41.53745838863641
 20
27.602132573597615
 10
41.529193187831176
 20
27.579032884819938
 10
41.51870362079045
 20
27.556854558704728
 10
41.50609070777899
 20
27.53581118465631
 10
41.49147591804404
 20
27.516105421870307
 10
41.474999999999994
 20
27.497927047614567
 10
41.45682162574427
 20
27.481451129570544
 10
41.43711586295826
 20
27.46683633983558
 10
41.416072488909855
 20
27.45422342682413
 10
41.39389416279463
 20
27.443733859783393
 10
41.37079447401697
 20
27.435468658978166
 10
41.346995885207384
 20
27.429507422810403
 10
41.32272758978575
 20
27.425907561243164
 10
41.298223304703356
 20
27.424703742911234
 10
41.27371901962096
 20
27.425907561243164
 10
41.24945072419933
 20
27.429507422810403
 10
41.225652135389744
 20
27.435468658978166
 10
41.20255244661208
 20
27.443733859783393
 10
41.18037412049686
 20
27.45422342682413
 10
41.159330746448454
 20
27.46683633983558
 10
41.13962498366244
 20
27.481451129570544
 10
41.12144660940672
 20
27.497927047614567
 10
40.22855339059327
 20
27.497927047614567
 10
40.210375016337544
 20
27.481451129570544
 10
40.190669253551526
 20
27.46683633983558
 10
40.16962587950313
 20
27.45422342682413
 10
40.1474475533879
 20
27.443733859783393
 10
40.12434786461024
 20
27.435468658978166
 10
40.10054927580066
 20
27.429507422810403
 10
40.07628098037902
 20
27.425907561243164
 10
40.05177669529663
 20
27.424703742911234
 10
40.02727241021424
 20
27.425907561243164
 10
40.003004114792596
 20
27.429507422810403
 10
39.97920552598301
 20
27.435468658978166
 10
39.95610583720536
 20
27.443733859783393
 10
39.93392751109013
 20
27.45422342682413
 10
39.91288413704173
 20
27.46683633983558
 10
39.89317837425572
 20
27.481451129570544
 10
39.87499999999999
 20
27.497927047614567
 10
39.85852408195594
 20
27.516105421870307
 10
39.84390929222099
 20
27.53581118465631
 10
39.83129637920954
 20
27.556854558704728
 10
39.820806812168804
 20
27.579032884819938
 10
39.81254161136358
 20
27.602132573597615
 10
39.80658037519582
 20
27.625931162407184
 10
39.802980513628576
 20
27.650199457828833
 10
39.80177669529663
 20
27.674703742911234
 10
39.802980513628576
 20
27.699208027993606
 10
39.80658037519582
 20
27.723476323415255
 10
39.81254161136358
 20
27.747274912224853
 10
39.820806812168804
 20
27.7703746010025
 10
39.83129637920954
 20
27.79255292711771
 10
39.84390929222099
 20
27.81359630116613
 10
39.85852408195594
 20
27.833302063952132
 10
39.87499999999999
 20
27.851480438207844
 10
39.87499999999999
 20
31.497927047614567
 10
39.074999999999996
 20
31.497927047614567
 10
39.01717374025121
 20
31.50128218085014
 10
38.96012353972631
 20
31.511302552880707
 10
38.90461504252081
 20
31.52785368497338
 10
38.851393202250016
 20
31.550713452114636
 10
38.80117228437454
 20
31.579575064046495
 10
38.75462628037711
 20
31.614051182555315
 10
38.71237986243771
 20
31.653679119756887
 10
38.67499999999999
 20
31.697927047614584
 10
42.67499999999999
 20
31.697927047614584
  0
LWPOLYLINE
  5
40
330
17
100
AcDbEntity
  8
BRACKET_OUTLINE
 62
6
100
AcDbPolyline
 90
87
 70
1
 10
54.17499999999999
 20
31.697927047614584
 10
54.13762013756227
 20
31.653679119756887
 10
54.09537371962288
 20
31.614051182555315
 10
54.04882771562545
 20
31.579575064046495
 10
53.99860679774997
 20
31.550713452114636
 10
53.945384957479185
 20
31.52785368497338
 10
53.889876460273676
 20
31.511302552880707
 10
53.83282625974878
 20
31.50128218085014
 10
53.775
 20
31.497927047614567
 10
52.974999999999994
 20
31.497927047614567
 10
52.974999999999994
 20
27.851480438207844
 10
52.99147591804404
 20
27.833302063952132
 10
53.006090707778995
 20
27.81359630116613
 10
53.01870362079045
 20
27.79255292711771
 10
53.029193187831176
 20
27.7703746010025
 10
53.03745838863641
 20
27.747274912224853
 10
53.043419624804166
 20
27.723476323415255
 10
53.047019486371404
 20
27.699208027993606
 10
53.048223304703356
 20
27.674703742911234
 10
53.047019486371404
 20
27.650199457828833
 10
53.043419624804166
 20
27.625931162407184
 10
53.03745838863641
 20
27.602132573597615
 10
53.029193187831176
 20
27.579032884819938
 10
53.01870362079045
 20
27.556854558704728
 10
53.006090707778995
 20
27.53581118465631
 10
52.99147591804404
 20
27.516105421870307
 10
52.974999999999994
 20
27.497927047614567
 10
52.95682162574427
 20
27.481451129570544
 10
52.93711586295826
 20
27.46683633983558
 10
52.916072488909855
 20
27.45422342682413
 10
52.89389416279463
 20
27.443733859783393
 10
52.87079447401697
 20
27.435468658978166
 10
52.846995885207384
 20
27.429507422810403
 10
52.82272758978575
 20
27.425907561243164
 10
52.798223304703356
 20
27.424703742911234
 10
52.77371901962096
 20
27.425907561243164
 10
52.74945072419933
 20
27.429507422810403
 10
52.725652135389744
 20
27.435468658978166
 10
52.70255244661208
 20
27.443733859783393
 10
52.68037412049686
 20
27.45422342682413
 10
52.659330746448454
 20
27.46683633983558
 10
52.63962498366245
 20
27.481451129570544
 10
52.621446609406725
 20
27.497927047614567
 10
51.72855339059327
 20
27.497927047614567
 10
51.710375016337544
 20
27.481451129570544
 10
51.690669253551526
 20
27.46683633983558
 10
51.66962587950313
 20
27.45422342682413
 10
51.6474475533879
 20
27.443733859783393
 10
51.62434786461025
 20
27.435468658978166
 10
51.60054927580067
 20
27.429507422810403
 10
51.57628098037902
 20
27.425907561243164
 10
51.55177669529663
 20
27.424703742911234
 10
51.527272410214245
 20
27.425907561243164
 10
51.503004114792596
 20
27.429507422810403
 10
51.47920552598301
 20
27.435468658978166
 10
51.45610583720536
 20
27.443733859783393
 10
51.43392751109013
 20
27.45422342682413
 10
51.41288413704173
 20
27.46683633983558
 10
51.39317837425572
 20
27.481451129570544
 10
51.37499999999999
 20
27.497927047614567
 10
51.35852408195595
 20
27.516105421870307
 10
51.34390929222099
 20
27.53581118465631
 10
51.33129637920954
 20
27.556854558704728
 10
51.32080681216881
 20
27.579032884819938
 10
51.31254161136358
 20
27.602132573597615
 10
51.30658037519582
 20
27.625931162407184
 10
51.30298051362858
 20
27.650199457828833
 10
51.30177669529663
 20
27.674703742911234
 10
51.30298051362858
 20
27.699208027993606
 10
51.30658037519582
 20
27.723476323415255
 10
51.31254161136358
 20
27.747274912224853
 10
51.32080681216881
 20
27.7703746010025
 10
51.33129637920954
 20
27.79255292711771
 10
51.34390929222099
 20
27.81359630116613
 10
51.35852408195595
 20
27.833302063952132
 10
51.37499999999999
 20
27.851480438207844
 10
51.37499999999999
 20
31.497927047614567
 10
50.574999999999996
 20
31.497927047614567
 10
50.51717374025121
 20
31.50128218085014
 10
50.46012353972631
 20
31.511302552880707
 10
50.40461504252081
 20
31.52785368497338
 10
50.351393202250016
 20
31.550713452114636
 10
50.30117228437454
 20
31.579575064046495
 10
50.25462628037711
 20
31.614051182555315
 10
50.212379862437714
 20
31.653679119756887
 10
50.17499999999999
 20
31.697927047614584
 10
54.17499999999999
 20
31.697927047614584
  0
LWPOLYLINE
  5
41
330
17
100
AcDbEntity
  8
BRACKET_OUTLINE
 62
6
100
AcDbPolyline
 90
87
 70
1
 10
63.324999999999996
 20
31.697927047614584
 10
63.28762013756227
 20
31.653679119756887
 10
63.245373719622876
 20
31.614051182555315
 10
63.19882771562545
 20
31.579575064046495
 10
63.14860679774997
 20
31.550713452114636
 10
63.095384957479176
 20
31.52785368497338
 10
63.039876460273675
 20
31.511302552880707
 10
62.98282625974878
 20
31.50128218085014
 10
62.92499999999999
 20
31.497927047614567
 10
62.12499999999999
 20
31.497927047614567
 10
62.12499999999999
 20
27.851480438207844
 10
62.141475918044044
 20
27.833302063952132
 10
62.15609070777899
 20
27.81359630116613
 10
62.168703620790446
 20
27.79255292711771
 10
62.17919318783118
 20
27.7703746010025
 10
62.18745838863641
 20
27.747274912224853
 10
62.193419624804164
 20
27.723476323415255
 10
62.19701948637141
 20
27.699208027993606
 10
62.198223304703355
 20
27.674703742911234
 10
62.19701948637141
 20
27.650199457828833
 10
62.193419624804164
 20
27.625931162407184
 10
62.18745838863641
 20
27.602132573597615
 10
62.17919318783118
 20
27.579032884819938
 10
62.168703620790446
 20
27.556854558704728
 10
62.15609070777899
 20
27.53581118465631
 10
62.141475918044044
 20
27.516105421870307
 10
62.12499999999999
 20
27.497927047614567
 10
62.10682162574427
 20
27.481451129570544
 10
62.08711586295826
 20
27.46683633983558
 10
62.06607248890986
 20
27.45422342682413
 10
62.04389416279463
 20
27.443733859783393
 10
62.020794474016974
 20
27.435468658978166
 10
61.99699588520739
 20
27.429507422810403
 10
61.97272758978574
 20
27.425907561243164
 10
61.948223304703355
 20
27.424703742911234
 10
61.92371901962097
 20
27.425907561243164
 10
61.89945072419932
 20
27.429507422810403
 10
61.875652135389736
 20
27.435468658978166
 10
61.85255244661209
 20
27.443733859783393
 10
61.830374120496856
 20
27.45422342682413
 10
61.80933074644846
 20
27.46683633983558
 10
61.78962498366244
 20
27.481451129570544
 10
61.771446609406716
 20
27.497927047614567
 10
60.87855339059326
 20
27.497927047614567
 10
60.86037501633754
 20
27.481451129570544
 10
60.84066925355153
 20
27.46683633983558
 10
60.81962587950313
 20
27.45422342682413
 10
60.797447553387904
 20
27.443733859783393
 10
60.77434786461024
 20
27.435468658978166
 10
60.75054927580066
 20
27.429507422810403
 10
60.72628098037902
 20
27.425907561243164
 10
60.70177669529663
 20
27.424703742911234
 10
60.677272410214236
 20
27.425907561243164
 10
60.6530041147926
 20
27.429507422810403
 10
60.62920552598302
 20
27.435468658978166
 10
60.606105837205355
 20
27.443733859783393
 10
60.58392751109013
 20
27.45422342682413
 10
60.56288413704173
 20
27.46683633983558
 10
60.54317837425572
 20
27.481451129570544
 10
60.52499999999999
 20
27.497927047614567
 10
60.50852408195595
 20
27.516105421870307
 10
60.493909292221
 20
27.53581118465631
 10
60.48129637920954
 20
27.556854558704728
 10
60.47080681216881
 20
27.579032884819938
 10
60.46254161136358
 20
27.602132573597615
 10
60.45658037519582
 20
27.625931162407184
 10
60.45298051362858
 20
27.650199457828833
 10
60.45177669529663
 20
27.674703742911234
 10
60.45298051362858
 20
27.699208027993606
 10
60.45658037519582
 20
27.723476323415255
 10
60.46254161136358
 20
27.747274912224853
 10
60.47080681216881
 20
27.7703746010025
 10
60.48129637920954
 20
27.79255292711771
 10
60.493909292221
 20
27.81359630116613
 10
60.50852408195595
 20
27.833302063952132
 10
60.52499999999999
 20
27.851480438207844
 10
60.52499999999999
 20
31.497927047614567
 10
59.72499999999999
 20
31.497927047614567
 10
59.66717374025121
 20
31.50128218085014
 10
59.61012353972631
 20
31.511302552880707
 10
59.5546150425208
 20
31.52785368497338
 10
59.501393202250014
 20
31.550713452114636
 10
59.451172284374536
 20
31.579575064046495
 10
59.40462628037711
 20
31.614051182555315
 10
59.36237986243771
 20
31.653679119756887
 10
59.324999999999996
 20
31.697927047614584
 10
63.324999999999996
 20
31.697927047614584
  0
LINE
  5
42
330
17
100
AcDbEntity
  8
BRACKET_CUT_LINE
 62
4
100
AcDbLine
 10
39.87499999999999
 20
31.497927047614567
 30
0.0
 11
41.474999999999994
 21
31.497927047614567
 31
0.0
  0
LINE
  5
43
330
17
100
AcDbEntity
  8
BRACKET_CUT_LINE
 62
4
100
AcDbLine
 10
51.37499999999999
 20
31.497927047614567
 30
0.0
 11
52.974999999999994
 21
31.497927047614567
 31
0.0
  0
LINE
  5
44
330
17
100
AcDbEntity
  8
BRACKET_CUT_LINE
 62
4
100
AcDbLine
 10
60.52499999999999
 20
31.497927047614567
 30
0.0
 11
62.12499999999999
 21
31.497927047614567
 31
0.0
  0
ENDSEC
  0
SECTION
  2
OBJECTS
  0
DICTIONARY
  5
A
330
0
100
AcDbDictionary
281
1
  3
ACAD_COLOR
350
B
  3
ACAD_GROUP
350
C
  3
ACAD_LAYOUT
350
D
  3
ACAD_MATERIAL
350
E
  3
ACAD_MLEADERSTYLE
350
F
  3
ACAD_MLINESTYLE
350
10
  3
ACAD_PLOTSETTINGS
350
11
  3
ACAD_PLOTSTYLENAME
350
12
  3
ACAD_SCALELIST
350
14
  3
ACAD_TABLESTYLE
350
15
  3
ACAD_VISUALSTYLE
350
16
  3
EZDXF_META
350
2D
  0
DICTIONARY
  5
B
330
A
100
AcDbDictionary
281
1
  0
DICTIONARY
  5
C
330
A
100
AcDbDictionary
281
1
  0
DICTIONARY
  5
D
330
A
100
AcDbDictionary
281
1
  3
Model
350
1A
  3
Layout1
350
1E
  0
DICTIONARY
  5
E
330
A
100
AcDbDictionary
281
1
  3
ByBlock
350
1F
  3
ByLayer
350
20
  3
Global
350
21
  0
DICTIONARY
  5
F
330
A
100
AcDbDictionary
281
1
  3
Standard
350
2C
  0
DICTIONARY
  5
10
330
A
100
AcDbDictionary
281
1
  3
Standard
350
22
  0
DICTIONARY
  5
11
330
A
100
AcDbDictionary
281
1
  0
ACDBDICTIONARYWDFLT
  5
12
330
A
100
AcDbDictionary
281
1
  3
Normal
350
13
100
AcDbDictionaryWithDefault
340
13
  0
ACDBPLACEHOLDER
  5
13
330
12
  0
DICTIONARY
  5
14
330
A
100
AcDbDictionary
281
1
  0
DICTIONARY
  5
15
330
A
100
AcDbDictionary
281
1
  0
DICTIONARY
  5
16
330
A
100
AcDbDictionary
281
1
  0
LAYOUT
  5
1A
330
D
100
AcDbPlotSettings
  1

  4
A3
  6

 40
7.5
 41
20.0
 42
7.5
 43
20.0
 44
420.0
 45
297.0
 46
0.0
 47
0.0
 48
0.0
 49
0.0
140
0.0
141
0.0
142
1.0
143
1.0
 70
1024
 72
1
 73
0
 74
5
  7

 75
16
 76
0
 77
2
 78
300
147
1.0
148
0.0
149
0.0
100
AcDbLayout
  1
Model
 70
1
 71
0
 10
0.0
 20
0.0
 11
420.0
 21
297.0
 12
0.0
 22
0.0
 32
0.0
 14
1e+20
 24
1e+20
 34
1e+20
 15
-1e+20
 25
-1e+20
 35
-1e+20
146
0.0
 13
0.0
 23
0.0
 33
0.0
 16
1.0
 26
0.0
 36
0.0
 17
0.0
 27
1.0
 37
0.0
 76
1
330
17
  0
LAYOUT
  5
1E
330
D
100
AcDbPlotSettings
  1

  4
A3
  6

 40
7.5
 41
20.0
 42
7.5
 43
20.0
 44
420.0
 45
297.0
 46
0.0
 47
0.0
 48
0.0
 49
0.0
140
0.0
141
0.0
142
1.0
143
1.0
 70
0
 72
1
 73
0
 74
5
  7

 75
16
 76
0
 77
2
 78
300
147
1.0
148
0.0
149
0.0
100
AcDbLayout
  1
Layout1
 70
1
 71
1
 10
0.0
 20
0.0
 11
420.0
 21
297.0
 12
0.0
 22
0.0
 32
0.0
 14
1e+20
 24
1e+20
 34
1e+20
 15
-1e+20
 25
-1e+20
 35
-1e+20
146
0.0
 13
0.0
 23
0.0
 33
0.0
 16
1.0
 26
0.0
 36
0.0
 17
0.0
 27
1.0
 37
0.0
 76
1
330
1B
  0
MATERIAL
  5
1F
102
{ACAD_REACTORS
330
E
102
}
330
E
100
AcDbMaterial
  1
ByBlock
  2

 70
0
 40
1.0
 71
1
 41
1.0
 91
-1023410177
 42
1.0
 72
1
  3

 73
1
 74
1
 75
1
 44
0.5
 73
0
 45
1.0
 46
1.0
 77
1
  4

 78
1
 79
1
170
1
 48
1.0
171
1
  6

172
1
173
1
174
1
140
1.0
141
1.0
175
1
  7

176
1
177
1
178
1
143
1.0
179
1
  8

270
1
271
1
272
1
145
1.0
146
1.0
273
1
  9

274
1
275
1
276
1
 42
1.0
 72
1
  3

 73
1
 74
1
 75
1
 94
63
  0
MATERIAL
  5
20
102
{ACAD_REACTORS
330
E
102
}
330
E
100
AcDbMaterial
  1
ByLayer
  2

 70
0
 40
1.0
 71
1
 41
1.0
 91
-1023410177
 42
1.0
 72
1
  3

 73
1
 74
1
 75
1
 44
0.5
 73
0
 45
1.0
 46
1.0
 77
1
  4

 78
1
 79
1
170
1
 48
1.0
171
1
  6

172
1
173
1
174
1
140
1.0
141
1.0
175
1
  7

176
1
177
1
178
1
143
1.0
179
1
  8

270
1
271
1
272
1
145
1.0
146
1.0
273
1
  9

274
1
275
1
276
1
 42
1.0
 72
1
  3

 73
1
 74
1
 75
1
 94
63
  0
MATERIAL
  5
21
102
{ACAD_REACTORS
330
E
102
}
330
E
100
AcDbMaterial
  1
Global
  2

 70
0
 40
1.0
 71
1
 41
1.0
 91
-1023410177
 42
1.0
 72
1
  3

 73
1
 74
1
 75
1
 44
0.5
 73
0
 45
1.0
 46
1.0
 77
1
  4

 78
1
 79
1
170
1
 48
1.0
171
1
  6

172
1
173
1
174
1
140
1.0
141
1.0
175
1
  7

176
1
177
1
178
1
143
1.0
179
1
  8

270
1
271
1
272
1
145
1.0
146
1.0
273
1
  9

274
1
275
1
276
1
 42
1.0
 72
1
  3

 73
1
 74
1
 75
1
 94
63
  0
MLINESTYLE
  5
22
102
{ACAD_REACTORS
330
10
102
}
330
10
100
AcDbMlineStyle
  2
Standard
 70
0
  3

 62
256
 51
90.0
 52
90.0
 71
2
 49
0.5
 62
256
  6
BYLAYER
 49
-0.5
 62
256
  6
BYLAYER
  0
MLEADERSTYLE
  5
2C
102
{ACAD_REACTORS
330
F
102
}
330
F
100
AcDbMLeaderStyle
179
2
170
2
171
1
172
0
 90
2
 40
0.0
 41
0.0
173
1
 91
-1056964608
 92
-2
290
1
 42
2.0
291
1
 43
8.0
  3
Standard
 44
4.0
300

342
29
174
1
175
1
176
0
178
1
 93
-1056964608
 45
4.0
292
0
297
0
 46
4.0
 94
-1056964608
 47
1.0
 49
1.0
140
1.0
294
1
141
0.0
177
0
142
1.0
295
0
296
0
143
3.75
271
0
272
9
273
9
  0
DICTIONARY
  5
2D
330
A
100
AcDbDictionary
280
1
281
1
  3
CREATED_BY_EZDXF
350
2E
  3
WRITTEN_BY_EZDXF
350
47
  0
DICTIONARYVAR
  5
2E
330
2D
100
DictionaryVariables
280
0
  1
1.4.3 @ 2026-03-22T05:58:42.513284+00:00
  0
DICTIONARYVAR
  5
47
330
2D
100
DictionaryVariables
280
0
  1
1.4.3 @ 2026-03-22T05:58:42.522361+00:00
  0
ENDSEC
  0
EOF
