  0
SECTION
  2
HEADER
  9
$ACADVER
  1
AC1024
  9
$ACADMAINTVER
 70
6
  9
$DWGCODEPAGE
  3
ANSI_1252
  9
$LASTSAVEDBY
  1
ezdxf
  9
$INSBASE
 10
0.0
 20
0.0
 30
0.0
  9
$EXTMIN
 10
1e+20
 20
1e+20
 30
1e+20
  9
$EXTMAX
 10
-1e+20
 20
-1e+20
 30
-1e+20
  9
$LIMMIN
 10
0.0
 20
0.0
  9
$LIMMAX
 10
420.0
 20
297.0
  9
$ORTHOMODE
 70
0
  9
$REGENMODE
 70
1
  9
$FILLMODE
 70
1
  9
$QTEXTMODE
 70
0
  9
$MIRRTEXT
 70
1
  9
$LTSCALE
 40
1.0
  9
$ATTMODE
 70
1
  9
$TEXTSIZE
 40
2.5
  9
$TRACEWID
 40
1.0
  9
$TEXTSTYLE
  7
Standard
  9
$CLAYER
  8
0
  9
$CELTYPE
  6
ByLayer
  9
$CECOLOR
 62
256
  9
$CELTSCALE
 40
1.0
  9
$DISPSILH
 70
0
  9
$DIMSCALE
 40
1.0
  9
$DIMASZ
 40
2.5
  9
$DIMEXO
 40
0.625
  9
$DIMDLI
 40
3.75
  9
$DIMRND
 40
0.0
  9
$DIMDLE
 40
0.0
  9
$DIMEXE
 40
1.25
  9
$DIMTP
 40
0.0
  9
$DIMTM
 40
0.0
  9
$DIMTXT
 40
2.5
  9
$DIMCEN
 40
2.5
  9
$DIMTSZ
 40
0.0
  9
$DIMTOL
 70
0
  9
$DIMLIM
 70
0
  9
$DIMTIH
 70
0
  9
$DIMTOH
 70
0
  9
$DIMSE1
 70
0
  9
$DIMSE2
 70
0
  9
$DIMTAD
 70
1
  9
$DIMZIN
 70
8
  9
$DIMBLK
  1

  9
$DIMASO
 70
1
  9
$DIMSHO
 70
1
  9
$DIMPOST
  1

  9
$DIMAPOST
  1

  9
$DIMALT
 70
0
  9
$DIMALTD
 70
3
  9
$DIMALTF
 40
0.03937007874
  9
$DIMLFAC
 40
1.0
  9
$DIMTOFL
 70
1
  9
$DIMTVP
 40
0.0
  9
$DIMTIX
 70
0
  9
$DIMSOXD
 70
0
  9
$DIMSAH
 70
0
  9
$DIMBLK1
  1

  9
$DIMBLK2
  1

  9
$DIMSTYLE
  2
ISO-25
  9
$DIMCLRD
 70
0
  9
$DIMCLRE
 70
0
  9
$DIMCLRT
 70
0
  9
$DIMTFAC
 40
1.0
  9
$DIMGAP
 40
0.625
  9
$DIMJUST
 70
0
  9
$DIMSD1
 70
0
  9
$DIMSD2
 70
0
  9
$DIMTOLJ
 70
0
  9
$DIMTZIN
 70
8
  9
$DIMALTZ
 70
0
  9
$DIMALTTZ
 70
0
  9
$DIMUPT
 70
0
  9
$DIMDEC
 70
2
  9
$DIMTDEC
 70
2
  9
$DIMALTU
 70
2
  9
$DIMALTTD
 70
3
  9
$DIMTXSTY
  7
Standard
  9
$DIMAUNIT
 70
0
  9
$DIMADEC
 70
0
  9
$DIMALTRND
 40
0.0
  9
$DIMAZIN
 70
0
  9
$DIMDSEP
 70
44
  9
$DIMATFIT
 70
3
  9
$DIMFRAC
 70
0
  9
$DIMLDRBLK
  1

  9
$DIMLUNIT
 70
2
  9
$DIMLWD
 70
-2
  9
$DIMLWE
 70
-2
  9
$DIMTMOVE
 70
0
  9
$DIMFXL
 40
1.0
  9
$DIMFXLON
 70
0
  9
$DIMJOGANG
 40
0.785398163397
  9
$DIMTFILL
 70
0
  9
$DIMTFILLCLR
 70
0
  9
$DIMARCSYM
 70
0
  9
$DIMLTYPE
  6

  9
$DIMLTEX1
  6

  9
$DIMLTEX2
  6

  9
$DIMTXTDIRECTION
 70
0
  9
$LUNITS
 70
2
  9
$LUPREC
 70
4
  9
$SKETCHINC
 40
1.0
  9
$FILLETRAD
 40
10.0
  9
$AUNITS
 70
0
  9
$AUPREC
 70
2
  9
$MENU
  1
.
  9
$ELEVATION
 40
0.0
  9
$PELEVATION
 40
0.0
  9
$THICKNESS
 40
0.0
  9
$LIMCHECK
 70
0
  9
$CHAMFERA
 40
0.0
  9
$CHAMFERB
 40
0.0
  9
$CHAMFERC
 40
0.0
  9
$CHAMFERD
 40
0.0
  9
$SKPOLY
 70
0
  9
$TDCREATE
 40
2461135.7526041665
  9
$TDUCREATE
 40
2458532.153996898
  9
$TDUPDATE
 40
2461135.7526041665
  9
$TDUUPDATE
 40
2458532.1544311
  9
$TDINDWG
 40
0.0
  9
$TDUSRTIMER
 40
0.0
  9
$USRTIMER
 70
1
  9
$ANGBASE
 50
0.0
  9
$ANGDIR
 70
0
  9
$PDMODE
 70
0
  9
$PDSIZE
 40
0.0
  9
$PLINEWID
 40
0.0
  9
$SPLFRAME
 70
0
  9
$SPLINETYPE
 70
6
  9
$SPLINESEGS
 70
8
  9
$HANDSEED
  5
56
  9
$SURFTAB1
 70
6
  9
$SURFTAB2
 70
6
  9
$SURFTYPE
 70
6
  9
$SURFU
 70
6
  9
$SURFV
 70
6
  9
$UCSBASE
  2

  9
$UCSNAME
  2

  9
$UCSORG
 10
0.0
 20
0.0
 30
0.0
  9
$UCSXDIR
 10
1.0
 20
0.0
 30
0.0
  9
$UCSYDIR
 10
0.0
 20
1.0
 30
0.0
  9
$UCSORTHOREF
  2

  9
$UCSORTHOVIEW
 70
0
  9
$UCSORGTOP
 10
0.0
 20
0.0
 30
0.0
  9
$UCSORGBOTTOM
 10
0.0
 20
0.0
 30
0.0
  9
$UCSORGLEFT
 10
0.0
 20
0.0
 30
0.0
  9
$UCSORGRIGHT
 10
0.0
 20
0.0
 30
0.0
  9
$UCSORGFRONT
 10
0.0
 20
0.0
 30
0.0
  9
$UCSORGBACK
 10
0.0
 20
0.0
 30
0.0
  9
$PUCSBASE
  2

  9
$PUCSNAME
  2

  9
$PUCSORG
 10
0.0
 20
0.0
 30
0.0
  9
$PUCSXDIR
 10
1.0
 20
0.0
 30
0.0
  9
$PUCSYDIR
 10
0.0
 20
1.0
 30
0.0
  9
$PUCSORTHOREF
  2

  9
$PUCSORTHOVIEW
 70
0
  9
$PUCSORGTOP
 10
0.0
 20
0.0
 30
0.0
  9
$PUCSORGBOTTOM
 10
0.0
 20
0.0
 30
0.0
  9
$PUCSORGLEFT
 10
0.0
 20
0.0
 30
0.0
  9
$PUCSORGRIGHT
 10
0.0
 20
0.0
 30
0.0
  9
$PUCSORGFRONT
 10
0.0
 20
0.0
 30
0.0
  9
$PUCSORGBACK
 10
0.0
 20
0.0
 30
0.0
  9
$USERI1
 70
0
  9
$USERI2
 70
0
  9
$USERI3
 70
0
  9
$USERI4
 70
0
  9
$USERI5
 70
0
  9
$USERR1
 40
0.0
  9
$USERR2
 40
0.0
  9
$USERR3
 40
0.0
  9
$USERR4
 40
0.0
  9
$USERR5
 40
0.0
  9
$WORLDVIEW
 70
1
  9
$SHADEDGE
 70
3
  9
$SHADEDIF
 70
70
  9
$TILEMODE
 70
1
  9
$MAXACTVP
 70
64
  9
$PINSBASE
 10
0.0
 20
0.0
 30
0.0
  9
$PLIMCHECK
 70
0
  9
$PEXTMIN
 10
1e+20
 20
1e+20
 30
1e+20
  9
$PEXTMAX
 10
-1e+20
 20
-1e+20
 30
-1e+20
  9
$PLIMMIN
 10
0.0
 20
0.0
  9
$PLIMMAX
 10
420.0
 20
297.0
  9
$UNITMODE
 70
0
  9
$VISRETAIN
 70
1
  9
$PLINEGEN
 70
0
  9
$PSLTSCALE
 70
1
  9
$TREEDEPTH
 70
3020
  9
$CMLSTYLE
  2
Standard
  9
$CMLJUST
 70
0
  9
$CMLSCALE
 40
20.0
  9
$PROXYGRAPHICS
 70
1
  9
$MEASUREMENT
 70
1
  9
$CELWEIGHT
370
-1
  9
$ENDCAPS
280
0
  9
$JOINSTYLE
280
0
  9
$LWDISPLAY
290
0
  9
$INSUNITS
 70
1
  9
$HYPERLINKBASE
  1

  9
$STYLESHEET
  1

  9
$XEDIT
290
1
  9
$CEPSNTYPE
380
0
  9
$PSTYLEMODE
290
1
  9
$FINGERPRINTGUID
  2
{DF584341-7670-417F-BC6C-C6027474CA01}
  9
$VERSIONGUID
  2
{FBF95F2A-4CAA-444A-95EE-A1781BE1A0BD}
  9
$EXTNAMES
290
1
  9
$PSVPSCALE
 40
0.0
  9
$OLESTARTUP
290
0
  9
$SORTENTS
280
127
  9
$INDEXCTL
280
0
  9
$HIDETEXT
280
1
  9
$XCLIPFRAME
280
1
  9
$HALOGAP
280
0
  9
$OBSCOLOR
 70
257
  9
$OBSLTYPE
280
0
  9
$INTERSECTIONDISPLAY
280
0
  9
$INTERSECTIONCOLOR
 70
257
  9
$DIMASSOC
280
2
  9
$PROJECTNAME
  1

  9
$CAMERADISPLAY
290
0
  9
$LENSLENGTH
 40
50.0
  9
$CAMERAHEIGHT
 40
0.0
  9
$STEPSPERSEC
 40
24.0
  9
$STEPSIZE
 40
100.0
  9
$3DDWFPREC
 40
2.0
  9
$PSOLWIDTH
 40
0.005
  9
$PSOLHEIGHT
 40
0.08
  9
$LOFTANG1
 40
1.570796326795
  9
$LOFTANG2
 40
1.570796326795
  9
$LOFTMAG1
 40
0.0
  9
$LOFTMAG2
 40
0.0
  9
$LOFTPARAM
 70
7
  9
$LOFTNORMALS
280
1
  9
$LATITUDE
 40
37.795
  9
$LONGITUDE
 40
-122.394
  9
$NORTHDIRECTION
 40
0.0
  9
$TIMEZONE
 70
-8000
  9
$LIGHTGLYPHDISPLAY
280
1
  9
$TILEMODELIGHTSYNCH
280
1
  9
$CMATERIAL
347
20
  9
$SOLIDHIST
280
0
  9
$SHOWHIST
280
1
  9
$DWFFRAME
280
2
  9
$DGNFRAME
280
2
  9
$REALWORLDSCALE
290
1
  9
$INTERFERECOLOR
 62
256
  9
$CSHADOW
280
0
  9
$SHADOWPLANELOCATION
 40
0.0
  0
ENDSEC
  0
SECTION
  2
CLASSES
  0
CLASS
  1
ACDBDICTIONARYWDFLT
  2
AcDbDictionaryWithDefault
  3
ObjectDBX Classes
 90
0
 91
0
280
0
281
0
  0
CLASS
  1
SUN
  2
AcDbSun
  3
SCENEOE
 90
1153
 91
0
280
0
281
0
  0
CLASS
  1
VISUALSTYLE
  2
AcDbVisualStyle
  3
ObjectDBX Classes
 90
4095
 91
0
280
0
281
0
  0
CLASS
  1
MATERIAL
  2
AcDbMaterial
  3
ObjectDBX Classes
 90
1153
 91
0
280
0
281
0
  0
CLASS
  1
SCALE
  2
AcDbScale
  3
ObjectDBX Classes
 90
1153
 91
0
280
0
281
0
  0
CLASS
  1
TABLESTYLE
  2
AcDbTableStyle
  3
ObjectDBX Classes
 90
4095
 91
0
280
0
281
0
  0
CLASS
  1
MLEADERSTYLE
  2
AcDbMLeaderStyle
  3
ACDB_MLEADERSTYLE_CLASS
 90
4095
 91
0
280
0
281
0
  0
CLASS
  1
DICTIONARYVAR
  2
AcDbDictionaryVar
  3
ObjectDBX Classes
 90
0
 91
0
280
0
281
0
  0
CLASS
  1
CELLSTYLEMAP
  2
AcDbCellStyleMap
  3
ObjectDBX Classes
 90
1152
 91
0
280
0
281
0
  0
CLASS
  1
MENTALRAYRENDERSETTINGS
  2
AcDbMentalRayRenderSettings
  3
SCENEOE
 90
1024
 91
0
280
0
281
0
  0
CLASS
  1
ACDBDETAILVIEWSTYLE
  2
AcDbDetailViewStyle
  3
ObjectDBX Classes
 90
1025
 91
0
280
0
281
0
  0
CLASS
  1
ACDBSECTIONVIEWSTYLE
  2
AcDbSectionViewStyle
  3
ObjectDBX Classes
 90
1025
 91
0
280
0
281
0
  0
CLASS
  1
RASTERVARIABLES
  2
AcDbRasterVariables
  3
ISM
 90
0
 91
0
280
0
281
0
  0
CLASS
  1
ACDBPLACEHOLDER
  2
AcDbPlaceHolder
  3
ObjectDBX Classes
 90
0
 91
0
280
0
281
0
  0
CLASS
  1
LAYOUT
  2
AcDbLayout
  3
ObjectDBX Classes
 90
0
 91
0
280
0
281
0
  0
ENDSEC
  0
SECTION
  2
TABLES
  0
TABLE
  2
VPORT
  5
8
330
0
100
AcDbSymbolTable
 70
1
  0
VPORT
  5
23
330
8
100
AcDbSymbolTableRecord
100
AcDbViewportTableRecord
  2
*Active
 70
0
 10
0.0
 20
0.0
 11
1.0
 21
1.0
 12
0.0
 22
0.0
 13
0.0
 23
0.0
 14
0.5
 24
0.5
 15
0.5
 25
0.5
 16
0.0
 26
0.0
 36
1.0
 17
0.0
 27
0.0
 37
0.0
 40
1000.0
 41
1.34
 42
50.0
 43
0.0
 44
0.0
 50
0.0
 51
0.0
 71
0
 72
1000
 73
1
 74
3
 75
0
 76
0
 77
0
 78
0
281
0
 65
0
146
0.0
  0
ENDTAB
  0
TABLE
  2
LTYPE
  5
2
330
0
100
AcDbSymbolTable
 70
3
  0
LTYPE
  5
24
330
2
100
AcDbSymbolTableRecord
100
AcDbLinetypeTableRecord
  2
ByBlock
 70
0
  3

 72
65
 73
0
 40
0.0
  0
LTYPE
  5
25
330
2
100
AcDbSymbolTableRecord
100
AcDbLinetypeTableRecord
  2
ByLayer
 70
0
  3

 72
65
 73
0
 40
0.0
  0
LTYPE
  5
26
330
2
100
AcDbSymbolTableRecord
100
AcDbLinetypeTableRecord
  2
Continuous
 70
0
  3

 72
65
 73
0
 40
0.0
  0
ENDTAB
  0
TABLE
  2
LAYER
  5
1
330
0
100
AcDbSymbolTable
 70
3
  0
LAYER
  5
27
330
1
100
AcDbSymbolTableRecord
100
AcDbLayerTableRecord
  2
0
 70
0
 62
7
  6
Continuous
370
-3
390
13
347
21
  0
LAYER
  5
28
330
1
100
AcDbSymbolTableRecord
100
AcDbLayerTableRecord
  2
Defpoints
 70
0
 62
7
  6
Continuous
290
0
370
-3
390
13
347
21
  0
LAYER
  5
2F
330
1
100
AcDbSymbolTableRecord
100
AcDbLayerTableRecord
  2
POCKET
 70
0
 62
5
  6
Continuous
370
-3
390
13
347
21
  0
ENDTAB
  0
TABLE
  2
STYLE
  5
5
330
0
100
AcDbSymbolTable
 70
1
  0
STYLE
  5
29
330
5
100
AcDbSymbolTableRecord
100
AcDbTextStyleTableRecord
  2
Standard
 70
0
 40
0.0
 41
1.0
 50
0.0
 71
0
 42
2.5
  3
txt
  4

  0
ENDTAB
  0
TABLE
  2
VIEW
  5
7
330
0
100
AcDbSymbolTable
 70
0
  0
ENDTAB
  0
TABLE
  2
UCS
  5
6
330
0
100
AcDbSymbolTable
 70
0
  0
ENDTAB
  0
TABLE
  2
APPID
  5
3
330
0
100
AcDbSymbolTable
 70
3
  0
APPID
  5
2A
330
3
100
AcDbSymbolTableRecord
100
AcDbRegAppTableRecord
  2
ACAD
 70
0
  0
APPID
  5
53
330
3
100
AcDbSymbolTableRecord
100
AcDbRegAppTableRecord
  2
HATCHBACKGROUNDCOLOR
 70
0
  0
APPID
  5
54
330
3
100
AcDbSymbolTableRecord
100
AcDbRegAppTableRecord
  2
EZDXF
 70
0
  0
ENDTAB
  0
TABLE
  2
DIMSTYLE
  5
4
330
0
100
AcDbSymbolTable
 70
1
100
AcDbDimStyleTable
  0
DIMSTYLE
105
2B
330
4
100
AcDbSymbolTableRecord
100
AcDbDimStyleTableRecord
  2
Standard
 70
0
 40
1.0
 41
2.5
 42
0.625
 43
3.75
 44
1.25
 45
0.0
 46
0.0
 47
0.0
 48
0.0
 49
2.5
140
2.5
141
2.5
142
0.0
143
0.03937007874
144
1.0
145
0.0
146
1.0
147
0.625
148
0.0
 69
0
 70
0
 71
0
 72
0
 73
0
 74
0
 75
0
 76
0
 77
1
 78
8
 79
3
170
0
171
3
172
1
173
0
174
0
175
0
176
0
177
0
178
0
179
2
271
2
272
2
273
2
274
3
275
0
276
0
277
2
278
44
279
0
280
0
281
0
282
0
283
0
284
8
285
0
286
0
288
0
289
3
290
0
371
-2
372
-2
  0
ENDTAB
  0
TABLE
  2
BLOCK_RECORD
  5
9
330
0
100
AcDbSymbolTable
 70
2
  0
BLOCK_RECORD
  5
17
330
9
100
AcDbSymbolTableRecord
100
AcDbBlockTableRecord
  2
*Model_Space
340
1A
 70
0
280
1
281
0
  0
BLOCK_RECORD
  5
1B
330
9
100
AcDbSymbolTableRecord
100
AcDbBlockTableRecord
  2
*Paper_Space
340
1E
 70
0
280
1
281
0
  0
ENDTAB
  0
ENDSEC
  0
SECTION
  2
BLOCKS
  0
BLOCK
  5
18
330
17
100
AcDbEntity
  8
0
100
AcDbBlockBegin
  2
*Model_Space
 70
0
 10
0.0
 20
0.0
 30
0.0
  3
*Model_Space
  1

  0
ENDBLK
  5
19
330
17
100
AcDbEntity
  8
0
100
AcDbBlockEnd
  0
BLOCK
  5
1C
330
1B
100
AcDbEntity
  8
0
100
AcDbBlockBegin
  2
*Paper_Space
 70
0
 10
0.0
 20
0.0
 30
0.0
  3
*Paper_Space
  1

  0
ENDBLK
  5
1D
330
1B
100
AcDbEntity
  8
0
100
AcDbBlockEnd
  0
ENDSEC
  0
SECTION
  2
ENTITIES
  0
LWPOLYLINE
  5
30
330
17
100
AcDbEntity
  8
POCKET
100
AcDbPolyline
 90
5
 70
1
 10
0.0
 20
0.0
 10
96.0
 20
0.0
 10
96.0
 20
48.0
 10
0.0
 20
48.0
 10
0.0
 20
0.0
  0
LWPOLYLINE
  5
31
330
17
100
AcDbEntity
  8
POCKET
100
AcDbPolyline
 90
53
 70
1
 10
41.59553562269968
 20
41.625
 10
51.8219822321064
 20
41.625
 10
51.84656857015086
 20
41.64656163977617
 10
51.87375892740304
 20
41.664729655649474
 10
51.903088069311764
 20
41.67919318783119
 10
51.93405416612741
 20
41.689704761275635
 10
51.96612737934802
 20
41.69608452004682
 10
51.99875892740304
 20
41.69822330470337
 10
52.03139047545805
 20
41.69608452004682
 10
52.06346368867867
 20
41.689704761275635
 10
52.09442978549431
 20
41.67919318783119
 10
52.12375892740304
 20
41.664729655649474
 10
52.15094928465522
 20
41.64656163977617
 10
52.17553562269968
 20
41.625
 10
52.19709726247585
 20
41.60041366195555
 10
52.21526527834915
 20
41.57322330470337
 10
52.22972881053086
 20
41.543894162794636
 10
52.240240383975305
 20
41.512928065979
 10
52.246620142746494
 20
41.48085485275838
 10
52.24875892740304
 20
41.44822330470337
 10
52.246620142746494
 20
41.415591756648354
 10
52.240240383975305
 20
41.38351854342773
 10
52.22972881053086
 20
41.352552446612094
 10
52.21526527834915
 20
41.32322330470337
 10
52.19709726247585
 20
41.29603294745119
 10
52.17553562269968
 20
41.27144660940673
 10
52.17553562269968
 20
40.378553390593275
 10
52.19709726247585
 20
40.35396705254882
 10
52.21526527834915
 20
40.32677669529664
 10
52.22972881053086
 20
40.29744755338791
 10
52.240240383975305
 20
40.26648145657227
 10
52.246620142746494
 20
40.23440824335165
 10
52.24875892740304
 20
40.20177669529664
 10
52.246620142746494
 20
40.16914514724163
 10
52.240240383975305
 20
40.13707193402101
 10
52.22972881053086
 20
40.10610583720537
 10
52.21526527834915
 20
40.07677669529664
 10
52.19709726247585
 20
40.049586338044456
 10
52.17553562269968
 20
40.025000000000006
 10
52.15094928465522
 20
40.00343836022383
 10
52.12375892740304
 20
39.98527034435053
 10
52.09442978549431
 20
39.97080681216882
 10
52.06346368867867
 20
39.96029523872437
 10
52.03139047545805
 20
39.95391547995319
 10
51.99875892740304
 20
39.95177669529664
 10
51.96612737934802
 20
39.95391547995319
 10
51.93405416612741
 20
39.96029523872437
 10
51.903088069311764
 20
39.97080681216882
 10
51.87375892740304
 20
39.98527034435053
 10
51.84656857015086
 20
40.00343836022383
 10
51.8219822321064
 20
40.025000000000006
 10
41.59553562269968
 20
40.025000000000006
 10
41.59553562269968
 20
41.625
  0
LWPOLYLINE
  5
32
330
17
100
AcDbEntity
  8
POCKET
100
AcDbPolyline
 90
53
 70
1
 10
41.59553562269968
 20
26.0
 10
51.8219822321064
 20
26.0
 10
51.84656857015086
 20
26.02156163977617
 10
51.87375892740304
 20
26.039729655649474
 10
51.903088069311764
 20
26.054193187831185
 10
51.93405416612741
 20
26.064704761275628
 10
51.96612737934802
 20
26.071084520046814
 10
51.99875892740304
 20
26.07322330470336
 10
52.03139047545805
 20
26.071084520046814
 10
52.06346368867867
 20
26.064704761275628
 10
52.09442978549431
 20
26.054193187831185
 10
52.12375892740304
 20
26.039729655649474
 10
52.15094928465522
 20
26.02156163977617
 10
52.17553562269968
 20
26.0
 10
52.19709726247585
 20
25.975413661955542
 10
52.21526527834915
 20
25.94822330470336
 10
52.22972881053086
 20
25.918894162794636
 10
52.240240383975305
 20
25.887928065978993
 10
52.246620142746494
 20
25.855854852758377
 10
52.24875892740304
 20
25.82322330470336
 10
52.246620142746494
 20
25.79059175664835
 10
52.240240383975305
 20
25.758518543427734
 10
52.22972881053086
 20
25.72755244661209
 10
52.21526527834915
 20
25.69822330470336
 10
52.19709726247585
 20
25.67103294745118
 10
52.17553562269968
 20
25.646446609406727
 10
52.17553562269968
 20
24.75355339059327
 10
52.19709726247585
 20
24.728967052548818
 10
52.21526527834915
 20
24.701776695296637
 10
52.22972881053086
 20
24.672447553387908
 10
52.240240383975305
 20
24.641481456572265
 10
52.246620142746494
 20
24.60940824335165
 10
52.24875892740304
 20
24.576776695296637
 10
52.246620142746494
 20
24.544145147241622
 10
52.240240383975305
 20
24.512071934021005
 10
52.22972881053086
 20
24.481105837205362
 10
52.21526527834915
 20
24.451776695296637
 10
52.19709726247585
 20
24.424586338044456
 10
52.17553562269968
 20
24.4
 10
52.15094928465522
 20
24.37843836022383
 10
52.12375892740304
 20
24.360270344350525
 10
52.09442978549431
 20
24.345806812168814
 10
52.06346368867867
 20
24.33529523872437
 10
52.03139047545805
 20
24.328915479953185
 10
51.99875892740304
 20
24.326776695296637
 10
51.96612737934802
 20
24.328915479953185
 10
51.93405416612741
 20
24.33529523872437
 10
51.903088069311764
 20
24.345806812168814
 10
51.87375892740304
 20
24.360270344350525
 10
51.84656857015086
 20
24.37843836022383
 10
51.8219822321064
 20
24.4
 10
41.59553562269968
 20
24.4
 10
41.59553562269968
 20
26.0
  0
LWPOLYLINE
  5
33
330
17
100
AcDbEntity
  8
POCKET
100
AcDbPolyline
 90
53
 70
1
 10
41.59553562269968
 20
9.750000000000004
 10
51.8219822321064
 20
9.750000000000004
 10
51.84656857015086
 20
9.771561639776175
 10
51.87375892740304
 20
9.789729655649476
 10
51.903088069311764
 20
9.804193187831189
 10
51.93405416612741
 20
9.814704761275634
 10
51.96612737934802
 20
9.821084520046819
 10
51.99875892740304
 20
9.823223304703365
 10
52.03139047545805
 20
9.821084520046819
 10
52.06346368867867
 20
9.814704761275634
 10
52.09442978549431
 20
9.804193187831189
 10
52.12375892740304
 20
9.789729655649476
 10
52.15094928465522
 20
9.771561639776175
 10
52.17553562269968
 20
9.750000000000004
 10
52.19709726247585
 20
9.725413661955546
 10
52.21526527834915
 20
9.698223304703365
 10
52.22972881053086
 20
9.668894162794638
 10
52.240240383975305
 20
9.637928065978997
 10
52.246620142746494
 20
9.605854852758378
 10
52.24875892740304
 20
9.573223304703365
 10
52.246620142746494
 20
9.540591756648354
 10
52.240240383975305
 20
9.508518543427735
 10
52.22972881053086
 20
9.477552446612094
 10
52.21526527834915
 20
9.448223304703365
 10
52.19709726247585
 20
9.421032947451186
 10
52.17553562269968
 20
9.396446609406729
 10
52.17553562269968
 20
8.503553390593277
 10
52.19709726247585
 20
8.47896705254882
 10
52.21526527834915
 20
8.45177669529664
 10
52.22972881053086
 20
8.422447553387912
 10
52.240240383975305
 20
8.39148145657227
 10
52.246620142746494
 20
8.359408243351652
 10
52.24875892740304
 20
8.32677669529664
 10
52.246620142746494
 20
8.294145147241627
 10
52.240240383975305
 20
8.262071934021009
 10
52.22972881053086
 20
8.231105837205368
 10
52.21526527834915
 20
8.20177669529664
 10
52.19709726247585
 20
8.17458633804446
 10
52.17553562269968
 20
8.150000000000002
 10
52.15094928465522
 20
8.12843836022383
 10
52.12375892740304
 20
8.11027034435053
 10
52.09442978549431
 20
8.095806812168817
 10
52.06346368867867
 20
8.085295238724372
 10
52.03139047545805
 20
8.078915479953187
 10
51.99875892740304
 20
8.07677669529664
 10
51.96612737934802
 20
8.078915479953187
 10
51.93405416612741
 20
8.085295238724372
 10
51.903088069311764
 20
8.095806812168817
 10
51.87375892740304
 20
8.11027034435053
 10
51.84656857015086
 20
8.12843836022383
 10
51.8219822321064
 20
8.150000000000002
 10
41.59553562269968
 20
8.150000000000002
 10
41.59553562269968
 20
9.750000000000004
  0
LWPOLYLINE
  5
34
330
17
100
AcDbEntity
  8
POCKET
100
AcDbPolyline
 90
53
 70
1
 10
55.57553562269967
 20
48.379999999999995
 10
55.57553562269967
 20
38.153553390593274
 10
55.59709726247584
 20
38.128967052548816
 10
55.61526527834914
 20
38.101776695296635
 10
55.62972881053086
 20
38.07244755338791
 10
55.6402403839753
 20
38.041481456572264
 10
55.646620142746485
 20
38.00940824335165
 10
55.64875892740304
 20
37.976776695296635
 10
55.646620142746485
 20
37.94414514724162
 10
55.6402403839753
 20
37.91207193402101
 10
55.62972881053086
 20
37.88110583720536
 10
55.61526527834914
 20
37.851776695296635
 10
55.59709726247584
 20
37.824586338044455
 10
55.57553562269967
 20
37.8
 10
55.55094928465522
 20
37.77843836022383
 10
55.52375892740304
 20
37.76027034435052
 10
55.494429785494304
 20
37.745806812168816
 10
55.463463688678665
 20
37.73529523872437
 10
55.431390475458045
 20
37.72891547995319
 10
55.39875892740304
 20
37.726776695296635
 10
55.36612737934802
 20
37.72891547995319
 10
55.3340541661274
 20
37.73529523872437
 10
55.30308806931176
 20
37.745806812168816
 10
55.27375892740304
 20
37.76027034435052
 10
55.246568570150856
 20
37.77843836022383
 10
55.2219822321064
 20
37.8
 10
54.32908901329294
 20
37.8
 10
54.304502675248486
 20
37.77843836022383
 10
54.277312317996305
 20
37.76027034435052
 10
54.24798317608758
 20
37.745806812168816
 10
54.21701707927194
 20
37.73529523872437
 10
54.18494386605132
 20
37.72891547995319
 10
54.152312317996305
 20
37.726776695296635
 10
54.1196807699413
 20
37.72891547995319
 10
54.08760755672068
 20
37.73529523872437
 10
54.05664145990504
 20
37.745806812168816
 10
54.027312317996305
 20
37.76027034435052
 10
54.000121960744124
 20
37.77843836022383
 10
53.975535622699674
 20
37.8
 10
53.9539739829235
 20
37.824586338044455
 10
53.9358059670502
 20
37.851776695296635
 10
53.921342434868485
 20
37.88110583720536
 10
53.91083086142404
 20
37.91207193402101
 10
53.90445110265286
 20
37.94414514724162
 10
53.902312317996305
 20
37.976776695296635
 10
53.90445110265286
 20
38.00940824335165
 10
53.91083086142404
 20
38.041481456572264
 10
53.921342434868485
 20
38.07244755338791
 10
53.9358059670502
 20
38.101776695296635
 10
53.9539739829235
 20
38.128967052548816
 10
53.975535622699674
 20
38.153553390593274
 10
53.975535622699674
 20
48.379999999999995
 10
55.57553562269967
 20
48.379999999999995
  0
LWPOLYLINE
  5
35
330
17
100
AcDbEntity
  8
POCKET
100
AcDbPolyline
 90
53
 70
1
 10
53.975535622699674
 20
-0.37999999999999723
 10
53.975535622699674
 20
9.846446609406728
 10
53.9539739829235
 20
9.871032947451184
 10
53.9358059670502
 20
9.898223304703365
 10
53.921342434868485
 20
9.927552446612092
 10
53.91083086142404
 20
9.958518543427735
 10
53.90445110265286
 20
9.990591756648351
 10
53.902312317996305
 20
10.023223304703365
 10
53.90445110265286
 20
10.055854852758378
 10
53.91083086142404
 20
10.087928065978994
 10
53.921342434868485
 20
10.118894162794637
 10
53.9358059670502
 20
10.148223304703365
 10
53.9539739829235
 20
10.175413661955545
 10
53.975535622699674
 20
10.200000000000001
 10
54.000121960744124
 20
10.221561639776173
 10
54.027312317996305
 20
10.239729655649475
 10
54.05664145990504
 20
10.254193187831186
 10
54.08760755672068
 20
10.264704761275631
 10
54.1196807699413
 20
10.271084520046816
 10
54.152312317996305
 20
10.273223304703365
 10
54.18494386605132
 20
10.271084520046816
 10
54.21701707927194
 20
10.264704761275631
 10
54.24798317608758
 20
10.254193187831186
 10
54.277312317996305
 20
10.239729655649475
 10
54.304502675248486
 20
10.221561639776173
 10
54.32908901329294
 20
10.200000000000001
 10
55.2219822321064
 20
10.200000000000001
 10
55.246568570150856
 20
10.221561639776173
 10
55.27375892740304
 20
10.239729655649475
 10
55.30308806931176
 20
10.254193187831186
 10
55.3340541661274
 20
10.264704761275631
 10
55.36612737934802
 20
10.271084520046816
 10
55.39875892740304
 20
10.273223304703365
 10
55.431390475458045
 20
10.271084520046816
 10
55.463463688678665
 20
10.264704761275631
 10
55.494429785494304
 20
10.254193187831186
 10
55.52375892740304
 20
10.239729655649475
 10
55.55094928465522
 20
10.221561639776173
 10
55.57553562269967
 20
10.200000000000001
 10
55.59709726247584
 20
10.175413661955545
 10
55.61526527834914
 20
10.148223304703365
 10
55.62972881053086
 20
10.118894162794637
 10
55.6402403839753
 20
10.087928065978994
 10
55.646620142746485
 20
10.055854852758378
 10
55.64875892740304
 20
10.023223304703365
 10
55.646620142746485
 20
9.990591756648351
 10
55.6402403839753
 20
9.958518543427735
 10
55.62972881053086
 20
9.927552446612092
 10
55.61526527834914
 20
9.898223304703365
 10
55.59709726247584
 20
9.871032947451184
 10
55.57553562269967
 20
9.846446609406728
 10
55.57553562269967
 20
-0.37999999999999723
 10
53.975535622699674
 20
-0.37999999999999723
  0
LWPOLYLINE
  5
36
330
17
100
AcDbEntity
  8
POCKET
100
AcDbPolyline
 90
53
 70
1
 10
44.37553562269967
 20
48.379999999999995
 10
44.37553562269967
 20
44.153553390593274
 10
44.397097262475846
 20
44.128967052548816
 10
44.415265278349146
 20
44.101776695296635
 10
44.42972881053086
 20
44.07244755338791
 10
44.44024038397531
 20
44.041481456572264
 10
44.44662014274649
 20
44.00940824335165
 10
44.44875892740304
 20
43.976776695296635
 10
44.44662014274649
 20
43.94414514724162
 10
44.44024038397531
 20
43.91207193402101
 10
44.42972881053086
 20
43.88110583720536
 10
44.415265278349146
 20
43.851776695296635
 10
44.397097262475846
 20
43.824586338044455
 10
44.37553562269967
 20
43.8
 10
44.35094928465522
 20
43.778438360223824
 10
44.32375892740304
 20
43.76027034435052
 10
44.29442978549431
 20
43.745806812168816
 10
44.26346368867867
 20
43.73529523872437
 10
44.23139047545805
 20
43.72891547995318
 10
44.19875892740304
 20
43.726776695296635
 10
44.166127379348026
 20
43.72891547995318
 10
44.134054166127406
 20
43.73529523872437
 10
44.10308806931177
 20
43.745806812168816
 10
44.07375892740304
 20
43.76027034435052
 10
44.04656857015086
 20
43.778438360223824
 10
44.0219822321064
 20
43.8
 10
43.12908901329295
 20
43.8
 10
43.10450267524849
 20
43.778438360223824
 10
43.07731231799631
 20
43.76027034435052
 10
43.047983176087584
 20
43.745806812168816
 10
43.017017079271945
 20
43.73529523872437
 10
42.984943866051324
 20
43.72891547995318
 10
42.95231231799631
 20
43.726776695296635
 10
42.9196807699413
 20
43.72891547995318
 10
42.88760755672068
 20
43.73529523872437
 10
42.85664145990504
 20
43.745806812168816
 10
42.82731231799631
 20
43.76027034435052
 10
42.80012196074413
 20
43.778438360223824
 10
42.77553562269968
 20
43.8
 10
42.753973982923505
 20
43.824586338044455
 10
42.735805967050204
 20
43.851776695296635
 10
42.72134243486849
 20
43.88110583720536
 10
42.71083086142404
 20
43.91207193402101
 10
42.70445110265286
 20
43.94414514724162
 10
42.70231231799631
 20
43.976776695296635
 10
42.70445110265286
 20
44.00940824335165
 10
42.71083086142404
 20
44.041481456572264
 10
42.72134243486849
 20
44.07244755338791
 10
42.735805967050204
 20
44.101776695296635
 10
42.753973982923505
 20
44.128967052548816
 10
42.77553562269968
 20
44.153553390593274
 10
42.77553562269968
 20
48.379999999999995
 10
44.37553562269967
 20
48.379999999999995
  0
LWPOLYLINE
  5
37
330
17
100
AcDbEntity
  8
POCKET
100
AcDbPolyline
 90
53
 70
1
 10
42.77553562269968
 20
-0.37999999999999723
 10
42.77553562269968
 20
3.8464466094067276
 10
42.753973982923505
 20
3.871032947451184
 10
42.735805967050204
 20
3.8982233047033645
 10
42.72134243486849
 20
3.927552446612092
 10
42.71083086142404
 20
3.958518543427734
 10
42.70445110265286
 20
3.9905917566483518
 10
42.70231231799631
 20
4.0232233047033645
 10
42.70445110265286
 20
4.055854852758378
 10
42.71083086142404
 20
4.0879280659789945
 10
42.72134243486849
 20
4.118894162794637
 10
42.735805967050204
 20
4.1482233047033645
 10
42.753973982923505
 20
4.175413661955545
 10
42.77553562269968
 20
4.200000000000001
 10
42.80012196074413
 20
4.221561639776174
 10
42.82731231799631
 20
4.239729655649474
 10
42.85664145990504
 20
4.254193187831186
 10
42.88760755672068
 20
4.264704761275632
 10
42.9196807699413
 20
4.271084520046817
 10
42.95231231799631
 20
4.2732233047033645
 10
42.984943866051324
 20
4.271084520046817
 10
43.017017079271945
 20
4.264704761275632
 10
43.047983176087584
 20
4.254193187831186
 10
43.07731231799631
 20
4.239729655649474
 10
43.10450267524849
 20
4.221561639776174
 10
43.12908901329295
 20
4.200000000000001
 10
44.0219822321064
 20
4.200000000000001
 10
44.04656857015086
 20
4.221561639776174
 10
44.07375892740304
 20
4.239729655649474
 10
44.10308806931177
 20
4.254193187831186
 10
44.134054166127406
 20
4.264704761275632
 10
44.166127379348026
 20
4.271084520046817
 10
44.19875892740304
 20
4.2732233047033645
 10
44.23139047545805
 20
4.271084520046817
 10
44.26346368867867
 20
4.264704761275632
 10
44.29442978549431
 20
4.254193187831186
 10
44.32375892740304
 20
4.239729655649474
 10
44.35094928465522
 20
4.221561639776174
 10
44.37553562269967
 20
4.200000000000001
 10
44.397097262475846
 20
4.175413661955545
 10
44.415265278349146
 20
4.1482233047033645
 10
44.42972881053086
 20
4.118894162794637
 10
44.44024038397531
 20
4.0879280659789945
 10
44.44662014274649
 20
4.055854852758378
 10
44.44875892740304
 20
4.0232233047033645
 10
44.44662014274649
 20
3.9905917566483518
 10
44.44024038397531
 20
3.958518543427734
 10
44.42972881053086
 20
3.927552446612092
 10
44.415265278349146
 20
3.8982233047033645
 10
44.397097262475846
 20
3.8710329474511846
 10
44.37553562269967
 20
3.8464466094067276
 10
44.37553562269967
 20
-0.37999999999999723
 10
42.77553562269968
 20
-0.37999999999999723
  0
LWPOLYLINE
  5
38
330
17
100
AcDbEntity
  8
POCKET
100
AcDbPolyline
 90
53
 70
1
 10
41.51063862907313
 20
6.375000000000001
 10
31.2841920196664
 20
6.375000000000001
 10
31.259605681621945
 20
6.353438360223828
 10
31.232415324369764
 20
6.335270344350528
 10
31.203086182461035
 20
6.320806812168816
 10
31.172120085645396
 20
6.31029523872437
 10
31.140046872424776
 20
6.303915479953185
 10
31.107415324369764
 20
6.301776695296637
 10
31.074783776314753
 20
6.303915479953185
 10
31.042710563094133
 20
6.31029523872437
 10
31.011744466278493
 20
6.320806812168816
 10
30.982415324369764
 20
6.335270344350528
 10
30.955224967117584
 20
6.353438360223828
 10
30.93063862907313
 20
6.375000000000001
 10
30.909076989296956
 20
6.3995863380444575
 10
30.890908973423656
 20
6.426776695296637
 10
30.87644544124194
 20
6.4561058372053655
 10
30.865933867797498
 20
6.4870719340210075
 10
30.859554109026313
 20
6.519145147241625
 10
30.857415324369764
 20
6.551776695296637
 10
30.859554109026313
 20
6.584408243351651
 10
30.865933867797498
 20
6.616481456572267
 10
30.87644544124194
 20
6.64744755338791
 10
30.890908973423656
 20
6.676776695296637
 10
30.909076989296956
 20
6.703967052548817
 10
30.93063862907313
 20
6.728553390593275
 10
30.93063862907313
 20
7.621446609406727
 10
30.909076989296956
 20
7.646032947451184
 10
30.890908973423656
 20
7.673223304703364
 10
30.87644544124194
 20
7.702552446612091
 10
30.865933867797498
 20
7.733518543427733
 10
30.859554109026313
 20
7.765591756648351
 10
30.857415324369764
 20
7.798223304703364
 10
30.859554109026313
 20
7.830854852758376
 10
30.865933867797498
 20
7.862928065978994
 10
30.87644544124194
 20
7.893894162794636
 10
30.890908973423656
 20
7.923223304703364
 10
30.909076989296956
 20
7.950413661955544
 10
30.93063862907313
 20
7.9750000000000005
 10
30.955224967117584
 20
7.996561639776172
 10
30.982415324369764
 20
8.014729655649473
 10
31.011744466278493
 20
8.029193187831186
 10
31.042710563094133
 20
8.039704761275631
 10
31.074783776314753
 20
8.046084520046817
 10
31.107415324369764
 20
8.048223304703363
 10
31.140046872424776
 20
8.046084520046817
 10
31.172120085645396
 20
8.039704761275631
 10
31.203086182461035
 20
8.029193187831186
 10
31.232415324369764
 20
8.014729655649473
 10
31.259605681621945
 20
7.996561639776173
 10
31.2841920196664
 20
7.9750000000000005
 10
41.51063862907313
 20
7.9750000000000005
 10
41.51063862907313
 20
6.375000000000001
  0
LWPOLYLINE
  5
39
330
17
100
AcDbEntity
  8
POCKET
100
AcDbPolyline
 90
53
 70
1
 10
41.51063862907313
 20
22.0
 10
31.2841920196664
 20
22.0
 10
31.259605681621945
 20
21.97843836022383
 10
31.232415324369764
 20
21.960270344350526
 10
31.203086182461035
 20
21.945806812168815
 10
31.172120085645396
 20
21.935295238724372
 10
31.140046872424776
 20
21.928915479953186
 10
31.107415324369764
 20
21.92677669529664
 10
31.074783776314753
 20
21.928915479953186
 10
31.042710563094133
 20
21.935295238724372
 10
31.011744466278493
 20
21.945806812168815
 10
30.982415324369764
 20
21.960270344350526
 10
30.955224967117584
 20
21.97843836022383
 10
30.93063862907313
 20
22.0
 10
30.909076989296956
 20
22.024586338044458
 10
30.890908973423656
 20
22.05177669529664
 10
30.87644544124194
 20
22.081105837205364
 10
30.865933867797498
 20
22.112071934021007
 10
30.859554109026313
 20
22.144145147241623
 10
30.857415324369764
 20
22.17677669529664
 10
30.859554109026313
 20
22.20940824335165
 10
30.865933867797498
 20
22.241481456572266
 10
30.87644544124194
 20
22.27244755338791
 10
30.890908973423656
 20
22.30177669529664
 10
30.909076989296956
 20
22.32896705254882
 10
30.93063862907313
 20
22.353553390593273
 10
30.93063862907313
 20
23.24644660940673
 10
30.909076989296956
 20
23.271032947451182
 10
30.890908973423656
 20
23.298223304703363
 10
30.87644544124194
 20
23.327552446612092
 10
30.865933867797498
 20
23.358518543427735
 10
30.859554109026313
 20
23.39059175664835
 10
30.857415324369764
 20
23.423223304703363
 10
30.859554109026313
 20
23.455854852758378
 10
30.865933867797498
 20
23.487928065978995
 10
30.87644544124194
 20
23.518894162794638
 10
30.890908973423656
 20
23.548223304703363
 10
30.909076989296956
 20
23.575413661955544
 10
30.93063862907313
 20
23.6
 10
30.955224967117584
 20
23.62156163977617
 10
30.982415324369764
 20
23.639729655649475
 10
31.011744466278493
 20
23.654193187831186
 10
31.042710563094133
 20
23.66470476127563
 10
31.074783776314753
 20
23.671084520046815
 10
31.107415324369764
 20
23.673223304703363
 10
31.140046872424776
 20
23.671084520046815
 10
31.172120085645396
 20
23.66470476127563
 10
31.203086182461035
 20
23.654193187831186
 10
31.232415324369764
 20
23.639729655649475
 10
31.259605681621945
 20
23.62156163977617
 10
31.2841920196664
 20
23.6
 10
41.51063862907313
 20
23.6
 10
41.51063862907313
 20
22.0
  0
LWPOLYLINE
  5
3A
330
17
100
AcDbEntity
  8
POCKET
100
AcDbPolyline
 90
53
 70
1
 10
41.51063862907313
 20
38.25
 10
31.2841920196664
 20
38.25
 10
31.259605681621945
 20
38.22843836022383
 10
31.232415324369764
 20
38.210270344350526
 10
31.203086182461035
 20
38.19580681216881
 10
31.172120085645396
 20
38.185295238724365
 10
31.140046872424776
 20
38.17891547995318
 10
31.107415324369764
 20
38.17677669529663
 10
31.074783776314753
 20
38.17891547995318
 10
31.042710563094133
 20
38.185295238724365
 10
31.011744466278493
 20
38.19580681216881
 10
30.982415324369764
 20
38.210270344350526
 10
30.955224967117584
 20
38.22843836022383
 10
30.93063862907313
 20
38.25
 10
30.909076989296956
 20
38.27458633804445
 10
30.890908973423656
 20
38.30177669529663
 10
30.87644544124194
 20
38.331105837205364
 10
30.865933867797498
 20
38.362071934021
 10
30.859554109026313
 20
38.39414514724162
 10
30.857415324369764
 20
38.42677669529663
 10
30.859554109026313
 20
38.459408243351646
 10
30.865933867797498
 20
38.49148145657227
 10
30.87644544124194
 20
38.522447553387906
 10
30.890908973423656
 20
38.55177669529663
 10
30.909076989296956
 20
38.57896705254881
 10
30.93063862907313
 20
38.60355339059327
 10
30.93063862907313
 20
39.496446609406725
 10
30.909076989296956
 20
39.52103294745118
 10
30.890908973423656
 20
39.54822330470336
 10
30.87644544124194
 20
39.57755244661209
 10
30.865933867797498
 20
39.60851854342773
 10
30.859554109026313
 20
39.64059175664835
 10
30.857415324369764
 20
39.67322330470336
 10
30.859554109026313
 20
39.70585485275837
 10
30.865933867797498
 20
39.73792806597899
 10
30.87644544124194
 20
39.76889416279463
 10
30.890908973423656
 20
39.79822330470336
 10
30.909076989296956
 20
39.825413661955544
 10
30.93063862907313
 20
39.849999999999994
 10
30.955224967117584
 20
39.87156163977617
 10
30.982415324369764
 20
39.88972965564947
 10
31.011744466278493
 20
39.90419318783118
 10
31.042710563094133
 20
39.91470476127563
 10
31.074783776314753
 20
39.92108452004681
 10
31.107415324369764
 20
39.92322330470336
 10
31.140046872424776
 20
39.92108452004681
 10
31.172120085645396
 20
39.91470476127563
 10
31.203086182461035
 20
39.90419318783118
 10
31.232415324369764
 20
39.88972965564947
 10
31.259605681621945
 20
39.87156163977617
 10
31.2841920196664
 20
39.849999999999994
 10
41.51063862907313
 20
39.849999999999994
 10
41.51063862907313
 20
38.25
  0
LWPOLYLINE
  5
3B
330
17
100
AcDbEntity
  8
POCKET
100
AcDbPolyline
 90
53
 70
1
 10
27.53063862907313
 20
-0.37999999999999723
 10
27.53063862907313
 20
9.846446609406728
 10
27.50907698929696
 20
9.871032947451184
 10
27.490908973423657
 20
9.898223304703365
 10
27.476445441241946
 20
9.927552446612092
 10
27.465933867797503
 20
9.958518543427735
 10
27.459554109026318
 20
9.990591756648351
 10
27.45741532436977
 20
10.023223304703365
 10
27.459554109026318
 20
10.055854852758378
 10
27.465933867797503
 20
10.087928065978994
 10
27.476445441241946
 20
10.118894162794637
 10
27.490908973423657
 20
10.148223304703365
 10
27.50907698929696
 20
10.175413661955545
 10
27.53063862907313
 20
10.200000000000001
 10
27.55522496711759
 20
10.221561639776173
 10
27.58241532436977
 20
10.239729655649475
 10
27.611744466278495
 20
10.254193187831186
 10
27.642710563094138
 20
10.264704761275631
 10
27.674783776314754
 20
10.271084520046816
 10
27.70741532436977
 20
10.273223304703365
 10
27.74004687242478
 20
10.271084520046816
 10
27.772120085645398
 20
10.264704761275631
 10
27.80308618246104
 20
10.254193187831186
 10
27.83241532436977
 20
10.239729655649475
 10
27.85960568162195
 20
10.221561639776173
 10
27.884192019666404
 20
10.200000000000001
 10
28.77708523847986
 20
10.200000000000001
 10
28.801671576524313
 20
10.221561639776173
 10
28.828861933776494
 20
10.239729655649475
 10
28.858191075685223
 20
10.254193187831186
 10
28.889157172500866
 20
10.264704761275631
 10
28.921230385721483
 20
10.271084520046816
 10
28.953861933776494
 20
10.273223304703365
 10
28.98649348183151
 20
10.271084520046816
 10
29.018566695052126
 20
10.264704761275631
 10
29.04953279186777
 20
10.254193187831186
 10
29.078861933776494
 20
10.239729655649475
 10
29.106052291028675
 20
10.221561639776173
 10
29.130638629073133
 20
10.200000000000001
 10
29.152200268849302
 20
10.175413661955545
 10
29.170368284722606
 20
10.148223304703365
 10
29.184831816904317
 20
10.118894162794637
 10
29.19534339034876
 20
10.087928065978994
 10
29.201723149119946
 20
10.055854852758378
 10
29.203861933776494
 20
10.023223304703365
 10
29.201723149119946
 20
9.990591756648351
 10
29.19534339034876
 20
9.958518543427735
 10
29.184831816904317
 20
9.927552446612092
 10
29.170368284722606
 20
9.898223304703365
 10
29.152200268849302
 20
9.871032947451184
 10
29.130638629073133
 20
9.846446609406728
 10
29.130638629073133
 20
-0.37999999999999723
 10
27.53063862907313
 20
-0.37999999999999723
  0
LWPOLYLINE
  5
3C
330
17
100
AcDbEntity
  8
POCKET
100
AcDbPolyline
 90
53
 70
1
 10
29.130638629073133
 20
48.379999999999995
 10
29.130638629073133
 20
38.153553390593274
 10
29.152200268849302
 20
38.128967052548816
 10
29.170368284722606
 20
38.101776695296635
 10
29.184831816904317
 20
38.07244755338791
 10
29.19534339034876
 20
38.041481456572264
 10
29.201723149119946
 20
38.00940824335165
 10
29.203861933776494
 20
37.976776695296635
 10
29.201723149119946
 20
37.94414514724162
 10
29.19534339034876
 20
37.91207193402101
 10
29.184831816904317
 20
37.88110583720536
 10
29.170368284722606
 20
37.851776695296635
 10
29.152200268849302
 20
37.824586338044455
 10
29.130638629073133
 20
37.8
 10
29.106052291028675
 20
37.77843836022383
 10
29.078861933776494
 20
37.76027034435052
 10
29.04953279186777
 20
37.745806812168816
 10
29.018566695052126
 20
37.73529523872437
 10
28.98649348183151
 20
37.72891547995319
 10
28.953861933776494
 20
37.726776695296635
 10
28.921230385721483
 20
37.72891547995319
 10
28.889157172500866
 20
37.73529523872437
 10
28.858191075685223
 20
37.745806812168816
 10
28.828861933776494
 20
37.76027034435052
 10
28.801671576524313
 20
37.77843836022383
 10
28.77708523847986
 20
37.8
 10
27.884192019666404
 20
37.8
 10
27.85960568162195
 20
37.77843836022383
 10
27.83241532436977
 20
37.76027034435052
 10
27.80308618246104
 20
37.745806812168816
 10
27.772120085645398
 20
37.73529523872437
 10
27.74004687242478
 20
37.72891547995319
 10
27.70741532436977
 20
37.726776695296635
 10
27.674783776314754
 20
37.72891547995319
 10
27.642710563094138
 20
37.73529523872437
 10
27.611744466278495
 20
37.745806812168816
 10
27.58241532436977
 20
37.76027034435052
 10
27.55522496711759
 20
37.77843836022383
 10
27.53063862907313
 20
37.8
 10
27.50907698929696
 20
37.824586338044455
 10
27.490908973423657
 20
37.851776695296635
 10
27.476445441241946
 20
37.88110583720536
 10
27.465933867797503
 20
37.91207193402101
 10
27.459554109026318
 20
37.94414514724162
 10
27.45741532436977
 20
37.976776695296635
 10
27.459554109026318
 20
38.00940824335165
 10
27.465933867797503
 20
38.041481456572264
 10
27.476445441241946
 20
38.07244755338791
 10
27.490908973423657
 20
38.101776695296635
 10
27.50907698929696
 20
38.128967052548816
 10
27.53063862907313
 20
38.153553390593274
 10
27.53063862907313
 20
48.379999999999995
 10
29.130638629073133
 20
48.379999999999995
  0
LWPOLYLINE
  5
3D
330
17
100
AcDbEntity
  8
POCKET
100
AcDbPolyline
 90
53
 70
1
 10
38.73063862907313
 20
-0.37999999999999723
 10
38.73063862907313
 20
3.8464466094067276
 10
38.70907698929695
 20
3.871032947451184
 10
38.69090897342365
 20
3.8982233047033645
 10
38.67644544124194
 20
3.927552446612092
 10
38.66593386779749
 20
3.958518543427734
 10
38.65955410902631
 20
3.9905917566483518
 10
38.65741532436976
 20
4.0232233047033645
 10
38.65955410902631
 20
4.055854852758378
 10
38.66593386779749
 20
4.0879280659789945
 10
38.67644544124194
 20
4.118894162794637
 10
38.69090897342365
 20
4.1482233047033645
 10
38.70907698929695
 20
4.175413661955545
 10
38.73063862907313
 20
4.200000000000001
 10
38.75522496711758
 20
4.221561639776174
 10
38.78241532436976
 20
4.239729655649474
 10
38.81174446627849
 20
4.254193187831186
 10
38.84271056309413
 20
4.264704761275632
 10
38.87478377631475
 20
4.271084520046817
 10
38.90741532436976
 20
4.2732233047033645
 10
38.94004687242477
 20
4.271084520046817
 10
38.97212008564539
 20
4.264704761275632
 10
39.00308618246103
 20
4.254193187831186
 10
39.03241532436976
 20
4.239729655649474
 10
39.05960568162194
 20
4.221561639776174
 10
39.084192019666396
 20
4.200000000000001
 10
39.97708523847985
 20
4.200000000000001
 10
40.00167157652431
 20
4.221561639776174
 10
40.02886193377649
 20
4.239729655649474
 10
40.058191075685215
 20
4.254193187831186
 10
40.089157172500855
 20
4.264704761275632
 10
40.121230385721475
 20
4.271084520046817
 10
40.15386193377649
 20
4.2732233047033645
 10
40.1864934818315
 20
4.271084520046817
 10
40.21856669505212
 20
4.264704761275632
 10
40.24953279186776
 20
4.254193187831186
 10
40.27886193377649
 20
4.239729655649474
 10
40.30605229102867
 20
4.221561639776174
 10
40.33063862907312
 20
4.200000000000001
 10
40.352200268849295
 20
4.175413661955545
 10
40.370368284722595
 20
4.1482233047033645
 10
40.38483181690431
 20
4.118894162794637
 10
40.395343390348756
 20
4.0879280659789945
 10
40.40172314911994
 20
4.055854852758378
 10
40.40386193377649
 20
4.0232233047033645
 10
40.40172314911994
 20
3.9905917566483518
 10
40.395343390348756
 20
3.958518543427734
 10
40.38483181690431
 20
3.927552446612092
 10
40.370368284722595
 20
3.8982233047033645
 10
40.352200268849295
 20
3.8710329474511846
 10
40.33063862907312
 20
3.8464466094067276
 10
40.33063862907312
 20
-0.37999999999999723
 10
38.73063862907313
 20
-0.37999999999999723
  0
LWPOLYLINE
  5
3E
330
17
100
AcDbEntity
  8
POCKET
100
AcDbPolyline
 90
53
 70
1
 10
40.33063862907312
 20
48.379999999999995
 10
40.33063862907312
 20
44.153553390593274
 10
40.352200268849295
 20
44.128967052548816
 10
40.370368284722595
 20
44.101776695296635
 10
40.38483181690431
 20
44.07244755338791
 10
40.395343390348756
 20
44.041481456572264
 10
40.40172314911994
 20
44.00940824335165
 10
40.40386193377649
 20
43.976776695296635
 10
40.40172314911994
 20
43.94414514724162
 10
40.395343390348756
 20
43.91207193402101
 10
40.38483181690431
 20
43.88110583720536
 10
40.370368284722595
 20
43.851776695296635
 10
40.352200268849295
 20
43.824586338044455
 10
40.33063862907312
 20
43.8
 10
40.30605229102867
 20
43.778438360223824
 10
40.27886193377649
 20
43.76027034435052
 10
40.24953279186776
 20
43.745806812168816
 10
40.21856669505212
 20
43.73529523872437
 10
40.1864934818315
 20
43.72891547995318
 10
40.15386193377649
 20
43.726776695296635
 10
40.121230385721475
 20
43.72891547995318
 10
40.089157172500855
 20
43.73529523872437
 10
40.058191075685215
 20
43.745806812168816
 10
40.02886193377649
 20
43.76027034435052
 10
40.00167157652431
 20
43.778438360223824
 10
39.97708523847985
 20
43.8
 10
39.084192019666396
 20
43.8
 10
39.05960568162194
 20
43.778438360223824
 10
39.03241532436976
 20
43.76027034435052
 10
39.00308618246103
 20
43.745806812168816
 10
38.97212008564539
 20
43.73529523872437
 10
38.94004687242477
 20
43.72891547995318
 10
38.90741532436976
 20
43.726776695296635
 10
38.87478377631475
 20
43.72891547995318
 10
38.84271056309413
 20
43.73529523872437
 10
38.81174446627849
 20
43.745806812168816
 10
38.78241532436976
 20
43.76027034435052
 10
38.75522496711758
 20
43.778438360223824
 10
38.73063862907313
 20
43.8
 10
38.70907698929695
 20
43.824586338044455
 10
38.69090897342365
 20
43.851776695296635
 10
38.67644544124194
 20
43.88110583720536
 10
38.66593386779749
 20
43.91207193402101
 10
38.65955410902631
 20
43.94414514724162
 10
38.65741532436976
 20
43.976776695296635
 10
38.65955410902631
 20
44.00940824335165
 10
38.66593386779749
 20
44.041481456572264
 10
38.67644544124194
 20
44.07244755338791
 10
38.69090897342365
 20
44.101776695296635
 10
38.70907698929695
 20
44.128967052548816
 10
38.73063862907313
 20
44.153553390593274
 10
38.73063862907313
 20
48.379999999999995
 10
40.33063862907312
 20
48.379999999999995
  0
LWPOLYLINE
  5
3F
330
17
100
AcDbEntity
  8
POCKET
100
AcDbPolyline
 90
53
 70
1
 10
96.3800079833114
 20
6.375000000000001
 10
86.15356137390468
 20
6.375000000000001
 10
86.12897503586022
 20
6.353438360223828
 10
86.10178467860804
 20
6.335270344350528
 10
86.07245553669931
 20
6.320806812168816
 10
86.04148943988368
 20
6.31029523872437
 10
86.00941622666305
 20
6.303915479953185
 10
85.97678467860804
 20
6.301776695296637
 10
85.94415313055303
 20
6.303915479953185
 10
85.9120799173324
 20
6.31029523872437
 10
85.88111382051677
 20
6.320806812168816
 10
85.85178467860804
 20
6.335270344350528
 10
85.82459432135586
 20
6.353438360223828
 10
85.8000079833114
 20
6.375000000000001
 10
85.77844634353524
 20
6.3995863380444575
 10
85.76027832766194
 20
6.426776695296637
 10
85.74581479548021
 20
6.4561058372053655
 10
85.73530322203578
 20
6.4870719340210075
 10
85.7289234632646
 20
6.519145147241625
 10
85.72678467860804
 20
6.551776695296637
 10
85.7289234632646
 20
6.584408243351651
 10
85.73530322203578
 20
6.616481456572267
 10
85.74581479548021
 20
6.64744755338791
 10
85.76027832766194
 20
6.676776695296637
 10
85.77844634353524
 20
6.703967052548817
 10
85.8000079833114
 20
6.728553390593275
 10
85.8000079833114
 20
7.621446609406727
 10
85.77844634353524
 20
7.646032947451184
 10
85.76027832766194
 20
7.673223304703364
 10
85.74581479548021
 20
7.702552446612091
 10
85.73530322203578
 20
7.733518543427733
 10
85.7289234632646
 20
7.765591756648351
 10
85.72678467860804
 20
7.798223304703364
 10
85.7289234632646
 20
7.830854852758376
 10
85.73530322203578
 20
7.862928065978994
 10
85.74581479548021
 20
7.893894162794636
 10
85.76027832766194
 20
7.923223304703364
 10
85.77844634353524
 20
7.950413661955544
 10
85.8000079833114
 20
7.9750000000000005
 10
85.82459432135586
 20
7.996561639776172
 10
85.85178467860804
 20
8.014729655649473
 10
85.88111382051677
 20
8.029193187831186
 10
85.9120799173324
 20
8.039704761275631
 10
85.94415313055303
 20
8.046084520046817
 10
85.97678467860804
 20
8.048223304703363
 10
86.00941622666305
 20
8.046084520046817
 10
86.04148943988368
 20
8.039704761275631
 10
86.07245553669931
 20
8.029193187831186
 10
86.10178467860804
 20
8.014729655649473
 10
86.12897503586022
 20
7.996561639776173
 10
86.15356137390468
 20
7.9750000000000005
 10
96.3800079833114
 20
7.9750000000000005
 10
96.3800079833114
 20
6.375000000000001
  0
LWPOLYLINE
  5
40
330
17
100
AcDbEntity
  8
POCKET
100
AcDbPolyline
 90
53
 70
1
 10
96.3800079833114
 20
22.0
 10
86.15356137390468
 20
22.0
 10
86.12897503586022
 20
21.97843836022383
 10
86.10178467860804
 20
21.960270344350526
 10
86.07245553669931
 20
21.945806812168815
 10
86.04148943988368
 20
21.935295238724372
 10
86.00941622666305
 20
21.928915479953186
 10
85.97678467860804
 20
21.92677669529664
 10
85.94415313055303
 20
21.928915479953186
 10
85.9120799173324
 20
21.935295238724372
 10
85.88111382051677
 20
21.945806812168815
 10
85.85178467860804
 20
21.960270344350526
 10
85.82459432135586
 20
21.97843836022383
 10
85.8000079833114
 20
22.0
 10
85.77844634353524
 20
22.024586338044458
 10
85.76027832766194
 20
22.05177669529664
 10
85.74581479548021
 20
22.081105837205364
 10
85.73530322203578
 20
22.112071934021007
 10
85.7289234632646
 20
22.144145147241623
 10
85.72678467860804
 20
22.17677669529664
 10
85.7289234632646
 20
22.20940824335165
 10
85.73530322203578
 20
22.241481456572266
 10
85.74581479548021
 20
22.27244755338791
 10
85.76027832766194
 20
22.30177669529664
 10
85.77844634353524
 20
22.32896705254882
 10
85.8000079833114
 20
22.353553390593273
 10
85.8000079833114
 20
23.24644660940673
 10
85.77844634353524
 20
23.271032947451182
 10
85.76027832766194
 20
23.298223304703363
 10
85.74581479548021
 20
23.327552446612092
 10
85.73530322203578
 20
23.358518543427735
 10
85.7289234632646
 20
23.39059175664835
 10
85.72678467860804
 20
23.423223304703363
 10
85.7289234632646
 20
23.455854852758378
 10
85.73530322203578
 20
23.487928065978995
 10
85.74581479548021
 20
23.518894162794638
 10
85.76027832766194
 20
23.548223304703363
 10
85.77844634353524
 20
23.575413661955544
 10
85.8000079833114
 20
23.6
 10
85.82459432135586
 20
23.62156163977617
 10
85.85178467860804
 20
23.639729655649475
 10
85.88111382051677
 20
23.654193187831186
 10
85.9120799173324
 20
23.66470476127563
 10
85.94415313055303
 20
23.671084520046815
 10
85.97678467860804
 20
23.673223304703363
 10
86.00941622666305
 20
23.671084520046815
 10
86.04148943988368
 20
23.66470476127563
 10
86.07245553669931
 20
23.654193187831186
 10
86.10178467860804
 20
23.639729655649475
 10
86.12897503586022
 20
23.62156163977617
 10
86.15356137390468
 20
23.6
 10
96.3800079833114
 20
23.6
 10
96.3800079833114
 20
22.0
  0
LWPOLYLINE
  5
41
330
17
100
AcDbEntity
  8
POCKET
100
AcDbPolyline
 90
53
 70
1
 10
96.3800079833114
 20
38.25
 10
86.15356137390468
 20
38.25
 10
86.12897503586022
 20
38.22843836022383
 10
86.10178467860804
 20
38.210270344350526
 10
86.07245553669931
 20
38.19580681216881
 10
86.04148943988368
 20
38.185295238724365
 10
86.00941622666305
 20
38.17891547995318
 10
85.97678467860804
 20
38.17677669529663
 10
85.94415313055303
 20
38.17891547995318
 10
85.9120799173324
 20
38.185295238724365
 10
85.88111382051677
 20
38.19580681216881
 10
85.85178467860804
 20
38.210270344350526
 10
85.82459432135586
 20
38.22843836022383
 10
85.8000079833114
 20
38.25
 10
85.77844634353524
 20
38.27458633804445
 10
85.76027832766194
 20
38.30177669529663
 10
85.74581479548021
 20
38.331105837205364
 10
85.73530322203578
 20
38.362071934021
 10
85.7289234632646
 20
38.39414514724162
 10
85.72678467860804
 20
38.42677669529663
 10
85.7289234632646
 20
38.459408243351646
 10
85.73530322203578
 20
38.49148145657227
 10
85.74581479548021
 20
38.522447553387906
 10
85.76027832766194
 20
38.55177669529663
 10
85.77844634353524
 20
38.57896705254881
 10
85.8000079833114
 20
38.60355339059327
 10
85.8000079833114
 20
39.496446609406725
 10
85.77844634353524
 20
39.52103294745118
 10
85.76027832766194
 20
39.54822330470336
 10
85.74581479548021
 20
39.57755244661209
 10
85.73530322203578
 20
39.60851854342773
 10
85.7289234632646
 20
39.64059175664835
 10
85.72678467860804
 20
39.67322330470336
 10
85.7289234632646
 20
39.70585485275837
 10
85.73530322203578
 20
39.73792806597899
 10
85.74581479548021
 20
39.76889416279463
 10
85.76027832766194
 20
39.79822330470336
 10
85.77844634353524
 20
39.825413661955544
 10
85.8000079833114
 20
39.849999999999994
 10
85.82459432135586
 20
39.87156163977617
 10
85.85178467860804
 20
39.88972965564947
 10
85.88111382051677
 20
39.90419318783118
 10
85.9120799173324
 20
39.91470476127563
 10
85.94415313055303
 20
39.92108452004681
 10
85.97678467860804
 20
39.92322330470336
 10
86.00941622666305
 20
39.92108452004681
 10
86.04148943988368
 20
39.91470476127563
 10
86.07245553669931
 20
39.90419318783118
 10
86.10178467860804
 20
39.88972965564947
 10
86.12897503586022
 20
39.87156163977617
 10
86.15356137390468
 20
39.849999999999994
 10
96.3800079833114
 20
39.849999999999994
 10
96.3800079833114
 20
38.25
  0
LWPOLYLINE
  5
42
330
17
100
AcDbEntity
  8
POCKET
100
AcDbPolyline
 90
53
 70
1
 10
82.40000798331141
 20
-0.37999999999999723
 10
82.40000798331141
 20
9.846446609406728
 10
82.37844634353523
 20
9.871032947451184
 10
82.36027832766193
 20
9.898223304703365
 10
82.34581479548022
 20
9.927552446612092
 10
82.33530322203578
 20
9.958518543427735
 10
82.32892346326459
 20
9.990591756648351
 10
82.32678467860805
 20
10.023223304703365
 10
82.32892346326459
 20
10.055854852758378
 10
82.33530322203578
 20
10.087928065978994
 10
82.34581479548022
 20
10.118894162794637
 10
82.36027832766193
 20
10.148223304703365
 10
82.37844634353523
 20
10.175413661955545
 10
82.40000798331141
 20
10.200000000000001
 10
82.42459432135587
 20
10.221561639776173
 10
82.45178467860805
 20
10.239729655649475
 10
82.48111382051677
 20
10.254193187831186
 10
82.51207991733241
 20
10.264704761275631
 10
82.54415313055303
 20
10.271084520046816
 10
82.57678467860805
 20
10.273223304703365
 10
82.60941622666306
 20
10.271084520046816
 10
82.64148943988367
 20
10.264704761275631
 10
82.67245553669932
 20
10.254193187831186
 10
82.70178467860805
 20
10.239729655649475
 10
82.72897503586023
 20
10.221561639776173
 10
82.75356137390469
 20
10.200000000000001
 10
83.64645459271813
 20
10.200000000000001
 10
83.67104093076259
 20
10.221561639776173
 10
83.69823128801477
 20
10.239729655649475
 10
83.7275604299235
 20
10.254193187831186
 10
83.75852652673915
 20
10.264704761275631
 10
83.79059973995976
 20
10.271084520046816
 10
83.82323128801477
 20
10.273223304703365
 10
83.85586283606979
 20
10.271084520046816
 10
83.8879360492904
 20
10.264704761275631
 10
83.91890214610605
 20
10.254193187831186
 10
83.94823128801477
 20
10.239729655649475
 10
83.97542164526695
 20
10.221561639776173
 10
84.0000079833114
 20
10.200000000000001
 10
84.02156962308759
 20
10.175413661955545
 10
84.03973763896089
 20
10.148223304703365
 10
84.0542011711426
 20
10.118894162794637
 10
84.06471274458704
 20
10.087928065978994
 10
84.07109250335823
 20
10.055854852758378
 10
84.07323128801477
 20
10.023223304703365
 10
84.07109250335823
 20
9.990591756648351
 10
84.06471274458704
 20
9.958518543427735
 10
84.0542011711426
 20
9.927552446612092
 10
84.03973763896089
 20
9.898223304703365
 10
84.02156962308759
 20
9.871032947451184
 10
84.0000079833114
 20
9.846446609406728
 10
84.0000079833114
 20
-0.37999999999999723
 10
82.40000798331141
 20
-0.37999999999999723
  0
LWPOLYLINE
  5
43
330
17
100
AcDbEntity
  8
POCKET
100
AcDbPolyline
 90
53
 70
1
 10
84.0000079833114
 20
48.379999999999995
 10
84.0000079833114
 20
38.153553390593274
 10
84.02156962308759
 20
38.128967052548816
 10
84.03973763896089
 20
38.101776695296635
 10
84.0542011711426
 20
38.07244755338791
 10
84.06471274458704
 20
38.041481456572264
 10
84.07109250335823
 20
38.00940824335165
 10
84.07323128801477
 20
37.976776695296635
 10
84.07109250335823
 20
37.94414514724162
 10
84.06471274458704
 20
37.91207193402101
 10
84.0542011711426
 20
37.88110583720536
 10
84.03973763896089
 20
37.851776695296635
 10
84.02156962308759
 20
37.824586338044455
 10
84.0000079833114
 20
37.8
 10
83.97542164526695
 20
37.77843836022383
 10
83.94823128801477
 20
37.76027034435052
 10
83.91890214610605
 20
37.745806812168816
 10
83.8879360492904
 20
37.73529523872437
 10
83.85586283606979
 20
37.72891547995319
 10
83.82323128801477
 20
37.726776695296635
 10
83.79059973995976
 20
37.72891547995319
 10
83.75852652673915
 20
37.73529523872437
 10
83.7275604299235
 20
37.745806812168816
 10
83.69823128801477
 20
37.76027034435052
 10
83.67104093076259
 20
37.77843836022383
 10
83.64645459271813
 20
37.8
 10
82.75356137390469
 20
37.8
 10
82.72897503586023
 20
37.77843836022383
 10
82.70178467860805
 20
37.76027034435052
 10
82.67245553669932
 20
37.745806812168816
 10
82.64148943988367
 20
37.73529523872437
 10
82.60941622666306
 20
37.72891547995319
 10
82.57678467860805
 20
37.726776695296635
 10
82.54415313055303
 20
37.72891547995319
 10
82.51207991733241
 20
37.73529523872437
 10
82.48111382051677
 20
37.745806812168816
 10
82.45178467860805
 20
37.76027034435052
 10
82.42459432135587
 20
37.77843836022383
 10
82.40000798331141
 20
37.8
 10
82.37844634353523
 20
37.824586338044455
 10
82.36027832766193
 20
37.851776695296635
 10
82.34581479548022
 20
37.88110583720536
 10
82.33530322203578
 20
37.91207193402101
 10
82.32892346326459
 20
37.94414514724162
 10
82.32678467860805
 20
37.976776695296635
 10
82.32892346326459
 20
38.00940824335165
 10
82.33530322203578
 20
38.041481456572264
 10
82.34581479548022
 20
38.07244755338791
 10
82.36027832766193
 20
38.101776695296635
 10
82.37844634353523
 20
38.128967052548816
 10
82.40000798331141
 20
38.153553390593274
 10
82.40000798331141
 20
48.379999999999995
 10
84.0000079833114
 20
48.379999999999995
  0
LWPOLYLINE
  5
44
330
17
100
AcDbEntity
  8
POCKET
100
AcDbPolyline
 90
53
 70
1
 10
93.6000079833114
 20
-0.37999999999999723
 10
93.6000079833114
 20
3.8464466094067276
 10
93.57844634353522
 20
3.871032947451184
 10
93.56027832766192
 20
3.8982233047033645
 10
93.54581479548021
 20
3.927552446612092
 10
93.53530322203576
 20
3.958518543427734
 10
93.52892346326458
 20
3.9905917566483518
 10
93.52678467860804
 20
4.0232233047033645
 10
93.52892346326458
 20
4.055854852758378
 10
93.53530322203576
 20
4.0879280659789945
 10
93.54581479548021
 20
4.118894162794637
 10
93.56027832766192
 20
4.1482233047033645
 10
93.57844634353522
 20
4.175413661955545
 10
93.6000079833114
 20
4.200000000000001
 10
93.62459432135586
 20
4.221561639776174
 10
93.65178467860804
 20
4.239729655649474
 10
93.68111382051676
 20
4.254193187831186
 10
93.7120799173324
 20
4.264704761275632
 10
93.74415313055302
 20
4.271084520046817
 10
93.77678467860804
 20
4.2732233047033645
 10
93.80941622666305
 20
4.271084520046817
 10
93.84148943988366
 20
4.264704761275632
 10
93.8724555366993
 20
4.254193187831186
 10
93.90178467860804
 20
4.239729655649474
 10
93.92897503586022
 20
4.221561639776174
 10
93.95356137390468
 20
4.200000000000001
 10
94.84645459271812
 20
4.200000000000001
 10
94.87104093076258
 20
4.221561639776174
 10
94.89823128801476
 20
4.239729655649474
 10
94.92756042992349
 20
4.254193187831186
 10
94.95852652673913
 20
4.264704761275632
 10
94.99059973995975
 20
4.271084520046817
 10
95.02323128801476
 20
4.2732233047033645
 10
95.05586283606978
 20
4.271084520046817
 10
95.08793604929039
 20
4.264704761275632
 10
95.11890214610604
 20
4.254193187831186
 10
95.14823128801476
 20
4.239729655649474
 10
95.17542164526694
 20
4.221561639776174
 10
95.2000079833114
 20
4.200000000000001
 10
95.22156962308757
 20
4.175413661955545
 10
95.23973763896088
 20
4.1482233047033645
 10
95.25420117114258
 20
4.118894162794637
 10
95.26471274458703
 20
4.0879280659789945
 10
95.27109250335822
 20
4.055854852758378
 10
95.27323128801476
 20
4.0232233047033645
 10
95.27109250335822
 20
3.9905917566483518
 10
95.26471274458703
 20
3.958518543427734
 10
95.25420117114258
 20
3.927552446612092
 10
95.23973763896088
 20
3.8982233047033645
 10
95.22156962308757
 20
3.8710329474511846
 10
95.2000079833114
 20
3.8464466094067276
 10
95.2000079833114
 20
-0.37999999999999723
 10
93.6000079833114
 20
-0.37999999999999723
  0
LWPOLYLINE
  5
45
330
17
100
AcDbEntity
  8
POCKET
100
AcDbPolyline
 90
53
 70
1
 10
95.2000079833114
 20
48.379999999999995
 10
95.2000079833114
 20
44.153553390593274
 10
95.22156962308757
 20
44.128967052548816
 10
95.23973763896088
 20
44.101776695296635
 10
95.25420117114258
 20
44.07244755338791
 10
95.26471274458703
 20
44.041481456572264
 10
95.27109250335822
 20
44.00940824335165
 10
95.27323128801476
 20
43.976776695296635
 10
95.27109250335822
 20
43.94414514724162
 10
95.26471274458703
 20
43.91207193402101
 10
95.25420117114258
 20
43.88110583720536
 10
95.23973763896088
 20
43.851776695296635
 10
95.22156962308757
 20
43.824586338044455
 10
95.2000079833114
 20
43.8
 10
95.17542164526694
 20
43.778438360223824
 10
95.14823128801476
 20
43.76027034435052
 10
95.11890214610604
 20
43.745806812168816
 10
95.08793604929039
 20
43.73529523872437
 10
95.05586283606978
 20
43.72891547995318
 10
95.02323128801476
 20
43.726776695296635
 10
94.99059973995975
 20
43.72891547995318
 10
94.95852652673913
 20
43.73529523872437
 10
94.92756042992349
 20
43.745806812168816
 10
94.89823128801476
 20
43.76027034435052
 10
94.87104093076258
 20
43.778438360223824
 10
94.84645459271812
 20
43.8
 10
93.95356137390468
 20
43.8
 10
93.92897503586022
 20
43.778438360223824
 10
93.90178467860804
 20
43.76027034435052
 10
93.8724555366993
 20
43.745806812168816
 10
93.84148943988366
 20
43.73529523872437
 10
93.80941622666305
 20
43.72891547995318
 10
93.77678467860804
 20
43.726776695296635
 10
93.74415313055302
 20
43.72891547995318
 10
93.7120799173324
 20
43.73529523872437
 10
93.68111382051676
 20
43.745806812168816
 10
93.65178467860804
 20
43.76027034435052
 10
93.62459432135586
 20
43.778438360223824
 10
93.6000079833114
 20
43.8
 10
93.57844634353522
 20
43.824586338044455
 10
93.56027832766192
 20
43.851776695296635
 10
93.54581479548021
 20
43.88110583720536
 10
93.53530322203576
 20
43.91207193402101
 10
93.52892346326458
 20
43.94414514724162
 10
93.52678467860804
 20
43.976776695296635
 10
93.52892346326458
 20
44.00940824335165
 10
93.53530322203576
 20
44.041481456572264
 10
93.54581479548021
 20
44.07244755338791
 10
93.56027832766192
 20
44.101776695296635
 10
93.57844634353522
 20
44.128967052548816
 10
93.6000079833114
 20
44.153553390593274
 10
93.6000079833114
 20
48.379999999999995
 10
95.2000079833114
 20
48.379999999999995
  0
LWPOLYLINE
  5
46
330
17
100
AcDbEntity
  8
POCKET
100
AcDbPolyline
 90
53
 70
1
 10
-0.3800105932872011
 20
41.625
 10
9.846436016119524
 20
41.625
 10
9.87102235416398
 20
41.64656163977617
 10
9.89821271141616
 20
41.664729655649474
 10
9.927541853324888
 20
41.67919318783119
 10
9.95850795014053
 20
41.689704761275635
 10
9.990581163361147
 20
41.69608452004682
 10
10.02321271141616
 20
41.69822330470337
 10
10.055844259471174
 20
41.69608452004682
 10
10.08791747269179
 20
41.689704761275635
 10
10.118883569507434
 20
41.67919318783119
 10
10.14821271141616
 20
41.664729655649474
 10
10.175403068668341
 20
41.64656163977617
 10
10.199989406712797
 20
41.625
 10
10.221551046488969
 20
41.60041366195555
 10
10.239719062362271
 20
41.57322330470337
 10
10.254182594543982
 20
41.543894162794636
 10
10.264694167988427
 20
41.512928065979
 10
10.271073926759613
 20
41.48085485275838
 10
10.27321271141616
 20
41.44822330470337
 10
10.271073926759613
 20
41.415591756648354
 10
10.264694167988427
 20
41.38351854342773
 10
10.254182594543982
 20
41.352552446612094
 10
10.239719062362271
 20
41.32322330470337
 10
10.221551046488969
 20
41.29603294745119
 10
10.199989406712797
 20
41.27144660940673
 10
10.199989406712797
 20
40.378553390593275
 10
10.221551046488969
 20
40.35396705254882
 10
10.239719062362271
 20
40.32677669529664
 10
10.254182594543982
 20
40.29744755338791
 10
10.264694167988427
 20
40.26648145657227
 10
10.271073926759613
 20
40.23440824335165
 10
10.27321271141616
 20
40.20177669529664
 10
10.271073926759613
 20
40.16914514724163
 10
10.264694167988427
 20
40.13707193402101
 10
10.254182594543982
 20
40.10610583720537
 10
10.239719062362271
 20
40.07677669529664
 10
10.221551046488969
 20
40.049586338044456
 10
10.199989406712797
 20
40.025000000000006
 10
10.175403068668341
 20
40.00343836022383
 10
10.14821271141616
 20
39.98527034435053
 10
10.118883569507434
 20
39.97080681216882
 10
10.08791747269179
 20
39.96029523872437
 10
10.055844259471174
 20
39.95391547995319
 10
10.02321271141616
 20
39.95177669529664
 10
9.990581163361147
 20
39.95391547995319
 10
9.95850795014053
 20
39.96029523872437
 10
9.927541853324888
 20
39.97080681216882
 10
9.89821271141616
 20
39.98527034435053
 10
9.87102235416398
 20
40.00343836022383
 10
9.846436016119524
 20
40.025000000000006
 10
-0.3800105932872011
 20
40.025000000000006
 10
-0.3800105932872011
 20
41.625
  0
LWPOLYLINE
  5
47
330
17
100
AcDbEntity
  8
POCKET
100
AcDbPolyline
 90
53
 70
1
 10
-0.3800105932872011
 20
26.0
 10
9.846436016119524
 20
26.0
 10
9.87102235416398
 20
26.02156163977617
 10
9.89821271141616
 20
26.039729655649474
 10
9.927541853324888
 20
26.054193187831185
 10
9.95850795014053
 20
26.064704761275628
 10
9.990581163361147
 20
26.071084520046814
 10
10.02321271141616
 20
26.07322330470336
 10
10.055844259471174
 20
26.071084520046814
 10
10.08791747269179
 20
26.064704761275628
 10
10.118883569507434
 20
26.054193187831185
 10
10.14821271141616
 20
26.039729655649474
 10
10.175403068668341
 20
26.02156163977617
 10
10.199989406712797
 20
26.0
 10
10.221551046488969
 20
25.975413661955542
 10
10.239719062362271
 20
25.94822330470336
 10
10.254182594543982
 20
25.918894162794636
 10
10.264694167988427
 20
25.887928065978993
 10
10.271073926759613
 20
25.855854852758377
 10
10.27321271141616
 20
25.82322330470336
 10
10.271073926759613
 20
25.79059175664835
 10
10.264694167988427
 20
25.758518543427734
 10
10.254182594543982
 20
25.72755244661209
 10
10.239719062362271
 20
25.69822330470336
 10
10.221551046488969
 20
25.67103294745118
 10
10.199989406712797
 20
25.646446609406727
 10
10.199989406712797
 20
24.75355339059327
 10
10.221551046488969
 20
24.728967052548818
 10
10.239719062362271
 20
24.701776695296637
 10
10.254182594543982
 20
24.672447553387908
 10
10.264694167988427
 20
24.641481456572265
 10
10.271073926759613
 20
24.60940824335165
 10
10.27321271141616
 20
24.576776695296637
 10
10.271073926759613
 20
24.544145147241622
 10
10.264694167988427
 20
24.512071934021005
 10
10.254182594543982
 20
24.481105837205362
 10
10.239719062362271
 20
24.451776695296637
 10
10.221551046488969
 20
24.424586338044456
 10
10.199989406712797
 20
24.4
 10
10.175403068668341
 20
24.37843836022383
 10
10.14821271141616
 20
24.360270344350525
 10
10.118883569507434
 20
24.345806812168814
 10
10.08791747269179
 20
24.33529523872437
 10
10.055844259471174
 20
24.328915479953185
 10
10.02321271141616
 20
24.326776695296637
 10
9.990581163361147
 20
24.328915479953185
 10
9.95850795014053
 20
24.33529523872437
 10
9.927541853324888
 20
24.345806812168814
 10
9.89821271141616
 20
24.360270344350525
 10
9.87102235416398
 20
24.37843836022383
 10
9.846436016119524
 20
24.4
 10
-0.3800105932872011
 20
24.4
 10
-0.3800105932872011
 20
26.0
  0
LWPOLYLINE
  5
48
330
17
100
AcDbEntity
  8
POCKET
100
AcDbPolyline
 90
53
 70
1
 10
-0.3800105932872011
 20
9.750000000000004
 10
9.846436016119524
 20
9.750000000000004
 10
9.87102235416398
 20
9.771561639776175
 10
9.89821271141616
 20
9.789729655649476
 10
9.927541853324888
 20
9.804193187831189
 10
9.95850795014053
 20
9.814704761275634
 10
9.990581163361147
 20
9.821084520046819
 10
10.02321271141616
 20
9.823223304703365
 10
10.055844259471174
 20
9.821084520046819
 10
10.08791747269179
 20
9.814704761275634
 10
10.118883569507434
 20
9.804193187831189
 10
10.14821271141616
 20
9.789729655649476
 10
10.175403068668341
 20
9.771561639776175
 10
10.199989406712797
 20
9.750000000000004
 10
10.221551046488969
 20
9.725413661955546
 10
10.239719062362271
 20
9.698223304703365
 10
10.254182594543982
 20
9.668894162794638
 10
10.264694167988427
 20
9.637928065978997
 10
10.271073926759613
 20
9.605854852758378
 10
10.27321271141616
 20
9.573223304703365
 10
10.271073926759613
 20
9.540591756648354
 10
10.264694167988427
 20
9.508518543427735
 10
10.254182594543982
 20
9.477552446612094
 10
10.239719062362271
 20
9.448223304703365
 10
10.221551046488969
 20
9.421032947451186
 10
10.199989406712797
 20
9.396446609406729
 10
10.199989406712797
 20
8.503553390593277
 10
10.221551046488969
 20
8.47896705254882
 10
10.239719062362271
 20
8.45177669529664
 10
10.254182594543982
 20
8.422447553387912
 10
10.264694167988427
 20
8.39148145657227
 10
10.271073926759613
 20
8.359408243351652
 10
10.27321271141616
 20
8.32677669529664
 10
10.271073926759613
 20
8.294145147241627
 10
10.264694167988427
 20
8.262071934021009
 10
10.254182594543982
 20
8.231105837205368
 10
10.239719062362271
 20
8.20177669529664
 10
10.221551046488969
 20
8.17458633804446
 10
10.199989406712797
 20
8.150000000000002
 10
10.175403068668341
 20
8.12843836022383
 10
10.14821271141616
 20
8.11027034435053
 10
10.118883569507434
 20
8.095806812168817
 10
10.08791747269179
 20
8.085295238724372
 10
10.055844259471174
 20
8.078915479953187
 10
10.02321271141616
 20
8.07677669529664
 10
9.990581163361147
 20
8.078915479953187
 10
9.95850795014053
 20
8.085295238724372
 10
9.927541853324888
 20
8.095806812168817
 10
9.89821271141616
 20
8.11027034435053
 10
9.87102235416398
 20
8.12843836022383
 10
9.846436016119524
 20
8.150000000000002
 10
-0.3800105932872011
 20
8.150000000000002
 10
-0.3800105932872011
 20
9.750000000000004
  0
LWPOLYLINE
  5
49
330
17
100
AcDbEntity
  8
POCKET
100
AcDbPolyline
 90
53
 70
1
 10
13.599989406712794
 20
48.379999999999995
 10
13.599989406712794
 20
38.153553390593274
 10
13.621551046488966
 20
38.128967052548816
 10
13.639719062362266
 20
38.101776695296635
 10
13.654182594543979
 20
38.07244755338791
 10
13.664694167988424
 20
38.041481456572264
 10
13.67107392675961
 20
38.00940824335165
 10
13.673212711416156
 20
37.976776695296635
 10
13.67107392675961
 20
37.94414514724162
 10
13.664694167988424
 20
37.91207193402101
 10
13.654182594543979
 20
37.88110583720536
 10
13.639719062362266
 20
37.851776695296635
 10
13.621551046488966
 20
37.824586338044455
 10
13.599989406712794
 20
37.8
 10
13.575403068668336
 20
37.77843836022383
 10
13.548212711416156
 20
37.76027034435052
 10
13.518883569507429
 20
37.745806812168816
 10
13.487917472691787
 20
37.73529523872437
 10
13.455844259471169
 20
37.72891547995319
 10
13.423212711416156
 20
37.726776695296635
 10
13.390581163361144
 20
37.72891547995319
 10
13.358507950140526
 20
37.73529523872437
 10
13.327541853324885
 20
37.745806812168816
 10
13.298212711416156
 20
37.76027034435052
 10
13.271022354163977
 20
37.77843836022383
 10
13.24643601611952
 20
37.8
 10
12.353542797306067
 20
37.8
 10
12.32895645926161
 20
37.77843836022383
 10
12.30176610200943
 20
37.76027034435052
 10
12.272436960100702
 20
37.745806812168816
 10
12.24147086328506
 20
37.73529523872437
 10
12.209397650064442
 20
37.72891547995319
 10
12.17676610200943
 20
37.726776695296635
 10
12.144134553954418
 20
37.72891547995319
 10
12.1120613407338
 20
37.73529523872437
 10
12.081095243918158
 20
37.745806812168816
 10
12.05176610200943
 20
37.76027034435052
 10
12.02457574475725
 20
37.77843836022383
 10
11.999989406712793
 20
37.8
 10
11.97842776693662
 20
37.824586338044455
 10
11.96025975106332
 20
37.851776695296635
 10
11.945796218881608
 20
37.88110583720536
 10
11.935284645437163
 20
37.91207193402101
 10
11.928904886665977
 20
37.94414514724162
 10
11.92676610200943
 20
37.976776695296635
 10
11.928904886665977
 20
38.00940824335165
 10
11.935284645437163
 20
38.041481456572264
 10
11.945796218881608
 20
38.07244755338791
 10
11.96025975106332
 20
38.101776695296635
 10
11.97842776693662
 20
38.128967052548816
 10
11.999989406712793
 20
38.153553390593274
 10
11.999989406712793
 20
48.379999999999995
 10
13.599989406712794
 20
48.379999999999995
  0
LWPOLYLINE
  5
4A
330
17
100
AcDbEntity
  8
POCKET
100
AcDbPolyline
 90
53
 70
1
 10
11.999989406712793
 20
-0.37999999999999723
 10
11.999989406712793
 20
9.846446609406728
 10
11.97842776693662
 20
9.871032947451184
 10
11.96025975106332
 20
9.898223304703365
 10
11.945796218881608
 20
9.927552446612092
 10
11.935284645437163
 20
9.958518543427735
 10
11.928904886665977
 20
9.990591756648351
 10
11.92676610200943
 20
10.023223304703365
 10
11.928904886665977
 20
10.055854852758378
 10
11.935284645437163
 20
10.087928065978994
 10
11.945796218881608
 20
10.118894162794637
 10
11.96025975106332
 20
10.148223304703365
 10
11.97842776693662
 20
10.175413661955545
 10
11.999989406712793
 20
10.200000000000001
 10
12.02457574475725
 20
10.221561639776173
 10
12.05176610200943
 20
10.239729655649475
 10
12.081095243918158
 20
10.254193187831186
 10
12.1120613407338
 20
10.264704761275631
 10
12.144134553954418
 20
10.271084520046816
 10
12.17676610200943
 20
10.273223304703365
 10
12.209397650064442
 20
10.271084520046816
 10
12.24147086328506
 20
10.264704761275631
 10
12.272436960100702
 20
10.254193187831186
 10
12.30176610200943
 20
10.239729655649475
 10
12.32895645926161
 20
10.221561639776173
 10
12.353542797306067
 20
10.200000000000001
 10
13.24643601611952
 20
10.200000000000001
 10
13.271022354163977
 20
10.221561639776173
 10
13.298212711416156
 20
10.239729655649475
 10
13.327541853324885
 20
10.254193187831186
 10
13.358507950140526
 20
10.264704761275631
 10
13.390581163361144
 20
10.271084520046816
 10
13.423212711416156
 20
10.273223304703365
 10
13.455844259471169
 20
10.271084520046816
 10
13.487917472691787
 20
10.264704761275631
 10
13.518883569507429
 20
10.254193187831186
 10
13.548212711416156
 20
10.239729655649475
 10
13.575403068668336
 20
10.221561639776173
 10
13.599989406712794
 20
10.200000000000001
 10
13.621551046488966
 20
10.175413661955545
 10
13.639719062362266
 20
10.148223304703365
 10
13.654182594543979
 20
10.118894162794637
 10
13.664694167988424
 20
10.087928065978994
 10
13.67107392675961
 20
10.055854852758378
 10
13.673212711416156
 20
10.023223304703365
 10
13.67107392675961
 20
9.990591756648351
 10
13.664694167988424
 20
9.958518543427735
 10
13.654182594543979
 20
9.927552446612092
 10
13.639719062362266
 20
9.898223304703365
 10
13.621551046488966
 20
9.871032947451184
 10
13.599989406712794
 20
9.846446609406728
 10
13.599989406712794
 20
-0.37999999999999723
 10
11.999989406712793
 20
-0.37999999999999723
  0
LWPOLYLINE
  5
4B
330
17
100
AcDbEntity
  8
POCKET
100
AcDbPolyline
 90
53
 70
1
 10
2.3999894067127974
 20
48.379999999999995
 10
2.3999894067127974
 20
44.153553390593274
 10
2.4215510464889696
 20
44.128967052548816
 10
2.43971906236227
 20
44.101776695296635
 10
2.4541825945439824
 20
44.07244755338791
 10
2.4646941679884278
 20
44.041481456572264
 10
2.4710739267596136
 20
44.00940824335165
 10
2.473212711416161
 20
43.976776695296635
 10
2.4710739267596136
 20
43.94414514724162
 10
2.4646941679884278
 20
43.91207193402101
 10
2.4541825945439824
 20
43.88110583720536
 10
2.43971906236227
 20
43.851776695296635
 10
2.4215510464889696
 20
43.824586338044455
 10
2.3999894067127974
 20
43.8
 10
2.3754030686683407
 20
43.778438360223824
 10
2.348212711416161
 20
43.76027034435052
 10
2.3188835695074332
 20
43.745806812168816
 10
2.287917472691791
 20
43.73529523872437
 10
2.2558442594711736
 20
43.72891547995318
 10
2.223212711416161
 20
43.726776695296635
 10
2.1905811633611476
 20
43.72891547995318
 10
2.1585079501405304
 20
43.73529523872437
 10
2.1275418533248884
 20
43.745806812168816
 10
2.098212711416161
 20
43.76027034435052
 10
2.0710223541639805
 20
43.778438360223824
 10
2.046436016119524
 20
43.8
 10
1.1535427973060712
 20
43.8
 10
1.1289564592616146
 20
43.778438360223824
 10
1.1017661020094343
 20
43.76027034435052
 10
1.0724369601007069
 20
43.745806812168816
 10
1.0414708632850647
 20
43.73529523872437
 10
1.0093976500644473
 20
43.72891547995318
 10
0.9767661020094344
 20
43.726776695296635
 10
0.9441345539544215
 20
43.72891547995318
 10
0.9120613407338042
 20
43.73529523872437
 10
0.881095243918162
 20
43.745806812168816
 10
0.8517661020094343
 20
43.76027034435052
 10
0.8245757447572541
 20
43.778438360223824
 10
0.7999894067127975
 20
43.8
 10
0.7784277669366256
 20
43.824586338044455
 10
0.7602597510633248
 20
43.851776695296635
 10
0.7457962188816127
 20
43.88110583720536
 10
0.7352846454371673
 20
43.91207193402101
 10
0.7289048866659817
 20
43.94414514724162
 10
0.7267661020094344
 20
43.976776695296635
 10
0.7289048866659817
 20
44.00940824335165
 10
0.7352846454371673
 20
44.041481456572264
 10
0.7457962188816126
 20
44.07244755338791
 10
0.7602597510633247
 20
44.101776695296635
 10
0.7784277669366255
 20
44.128967052548816
 10
0.7999894067127975
 20
44.153553390593274
 10
0.7999894067127975
 20
48.379999999999995
 10
2.3999894067127974
 20
48.379999999999995
  0
LWPOLYLINE
  5
4C
330
17
100
AcDbEntity
  8
POCKET
100
AcDbPolyline
 90
53
 70
1
 10
0.7999894067127975
 20
-0.37999999999999723
 10
0.7999894067127975
 20
3.8464466094067276
 10
0.7784277669366255
 20
3.871032947451184
 10
0.7602597510633247
 20
3.8982233047033645
 10
0.7457962188816127
 20
3.927552446612092
 10
0.7352846454371673
 20
3.958518543427734
 10
0.7289048866659817
 20
3.9905917566483518
 10
0.7267661020094344
 20
4.0232233047033645
 10
0.7289048866659817
 20
4.055854852758378
 10
0.7352846454371673
 20
4.0879280659789945
 10
0.7457962188816127
 20
4.118894162794637
 10
0.7602597510633247
 20
4.1482233047033645
 10
0.7784277669366255
 20
4.175413661955545
 10
0.7999894067127975
 20
4.200000000000001
 10
0.8245757447572541
 20
4.221561639776174
 10
0.8517661020094344
 20
4.239729655649474
 10
0.8810952439181619
 20
4.254193187831186
 10
0.9120613407338041
 20
4.264704761275632
 10
0.9441345539544215
 20
4.271084520046817
 10
0.9767661020094344
 20
4.2732233047033645
 10
1.0093976500644473
 20
4.271084520046817
 10
1.0414708632850647
 20
4.264704761275632
 10
1.0724369601007067
 20
4.254193187831186
 10
1.1017661020094343
 20
4.239729655649474
 10
1.1289564592616146
 20
4.221561639776174
 10
1.1535427973060712
 20
4.200000000000001
 10
2.046436016119524
 20
4.200000000000001
 10
2.0710223541639805
 20
4.221561639776174
 10
2.098212711416161
 20
4.239729655649474
 10
2.127541853324888
 20
4.254193187831186
 10
2.1585079501405304
 20
4.264704761275632
 10
2.1905811633611476
 20
4.271084520046817
 10
2.223212711416161
 20
4.2732233047033645
 10
2.2558442594711736
 20
4.271084520046817
 10
2.287917472691791
 20
4.264704761275632
 10
2.3188835695074332
 20
4.254193187831186
 10
2.348212711416161
 20
4.239729655649474
 10
2.3754030686683407
 20
4.221561639776174
 10
2.3999894067127974
 20
4.200000000000001
 10
2.4215510464889696
 20
4.175413661955545
 10
2.43971906236227
 20
4.1482233047033645
 10
2.4541825945439824
 20
4.118894162794637
 10
2.4646941679884278
 20
4.0879280659789945
 10
2.4710739267596136
 20
4.055854852758378
 10
2.473212711416161
 20
4.0232233047033645
 10
2.4710739267596136
 20
3.9905917566483518
 10
2.4646941679884278
 20
3.958518543427734
 10
2.4541825945439824
 20
3.927552446612092
 10
2.43971906236227
 20
3.8982233047033645
 10
2.4215510464889696
 20
3.8710329474511846
 10
2.3999894067127974
 20
3.8464466094067276
 10
2.3999894067127974
 20
-0.37999999999999723
 10
0.7999894067127975
 20
-0.37999999999999723
  0
LWPOLYLINE
  5
4D
330
17
100
AcDbEntity
  8
POCKET
100
AcDbPolyline
 90
53
 70
1
 10
68.30430598250965
 20
30.917700000000004
 10
64.07785937310292
 20
30.917700000000004
 10
64.05327303505847
 20
30.896138360223834
 10
64.02608267780629
 20
30.87797034435053
 10
63.99675353589756
 20
30.86350681216882
 10
63.965787439081915
 20
30.852995238724375
 10
63.9337142258613
 20
30.84661547995319
 10
63.901082677806286
 20
30.844476695296642
 10
63.86845112975127
 20
30.84661547995319
 10
63.83637791653066
 20
30.852995238724375
 10
63.80541181971501
 20
30.86350681216882
 10
63.776082677806286
 20
30.87797034435053
 10
63.748892320554106
 20
30.896138360223834
 10
63.72430598250965
 20
30.917700000000004
 10
63.702744342733475
 20
30.94228633804446
 10
63.684576326860174
 20
30.969476695296642
 10
63.67011279467847
 20
30.998805837205367
 10
63.65960122123402
 20
31.02977193402101
 10
63.65322146246283
 20
31.061845147241627
 10
63.651082677806286
 20
31.094476695296642
 10
63.65322146246283
 20
31.127108243351653
 10
63.65960122123402
 20
31.15918145657227
 10
63.67011279467847
 20
31.190147553387913
 10
63.684576326860174
 20
31.219476695296642
 10
63.702744342733475
 20
31.246667052548823
 10
63.72430598250965
 20
31.271253390593277
 10
63.72430598250965
 20
32.16414660940673
 10
63.702744342733475
 20
32.188732947451186
 10
63.684576326860174
 20
32.21592330470337
 10
63.67011279467847
 20
32.24525244661209
 10
63.65960122123402
 20
32.27621854342774
 10
63.65322146246283
 20
32.30829175664835
 10
63.651082677806286
 20
32.34092330470337
 10
63.65322146246283
 20
32.37355485275838
 10
63.65960122123402
 20
32.405628065978995
 10
63.67011279467847
 20
32.43659416279464
 10
63.684576326860174
 20
32.46592330470337
 10
63.702744342733475
 20
32.49311366195555
 10
63.72430598250965
 20
32.517700000000005
 10
63.748892320554106
 20
32.53926163977618
 10
63.776082677806286
 20
32.55742965564948
 10
63.80541181971501
 20
32.571893187831186
 10
63.83637791653066
 20
32.58240476127563
 10
63.86845112975127
 20
32.58878452004682
 10
63.901082677806286
 20
32.59092330470337
 10
63.9337142258613
 20
32.58878452004682
 10
63.965787439081915
 20
32.58240476127563
 10
63.99675353589756
 20
32.571893187831186
 10
64.02608267780629
 20
32.55742965564948
 10
64.05327303505847
 20
32.53926163977618
 10
64.07785937310292
 20
32.517700000000005
 10
68.30430598250965
 20
32.517700000000005
 10
68.30430598250965
 20
30.917700000000004
  0
LWPOLYLINE
  5
4E
330
17
100
AcDbEntity
  8
POCKET
100
AcDbPolyline
 90
53
 70
1
 10
68.30430598250965
 20
19.4177
 10
64.07785937310292
 20
19.4177
 10
64.05327303505847
 20
19.39613836022383
 10
64.02608267780629
 20
19.377970344350526
 10
63.99675353589756
 20
19.363506812168815
 10
63.965787439081915
 20
19.35299523872437
 10
63.9337142258613
 20
19.346615479953186
 10
63.901082677806286
 20
19.34447669529664
 10
63.86845112975127
 20
19.346615479953186
 10
63.83637791653066
 20
19.35299523872437
 10
63.80541181971501
 20
19.363506812168815
 10
63.776082677806286
 20
19.377970344350526
 10
63.748892320554106
 20
19.39613836022383
 10
63.72430598250965
 20
19.4177
 10
63.702744342733475
 20
19.442286338044457
 10
63.684576326860174
 20
19.46947669529664
 10
63.67011279467847
 20
19.498805837205364
 10
63.65960122123402
 20
19.529771934021007
 10
63.65322146246283
 20
19.561845147241623
 10
63.651082677806286
 20
19.59447669529664
 10
63.65322146246283
 20
19.62710824335165
 10
63.65960122123402
 20
19.659181456572266
 10
63.67011279467847
 20
19.69014755338791
 10
63.684576326860174
 20
19.71947669529664
 10
63.702744342733475
 20
19.74666705254882
 10
63.72430598250965
 20
19.771253390593273
 10
63.72430598250965
 20
20.66414660940673
 10
63.702744342733475
 20
20.688732947451182
 10
63.684576326860174
 20
20.715923304703363
 10
63.67011279467847
 20
20.745252446612092
 10
63.65960122123402
 20
20.776218543427735
 10
63.65322146246283
 20
20.80829175664835
 10
63.651082677806286
 20
20.840923304703363
 10
63.65322146246283
 20
20.873554852758378
 10
63.65960122123402
 20
20.905628065978995
 10
63.67011279467847
 20
20.936594162794638
 10
63.684576326860174
 20
20.965923304703363
 10
63.702744342733475
 20
20.993113661955544
 10
63.72430598250965
 20
21.0177
 10
63.748892320554106
 20
21.03926163977617
 10
63.776082677806286
 20
21.057429655649475
 10
63.80541181971501
 20
21.071893187831186
 10
63.83637791653066
 20
21.08240476127563
 10
63.86845112975127
 20
21.088784520046815
 10
63.901082677806286
 20
21.090923304703363
 10
63.9337142258613
 20
21.088784520046815
 10
63.965787439081915
 20
21.08240476127563
 10
63.99675353589756
 20
21.071893187831186
 10
64.02608267780629
 20
21.057429655649475
 10
64.05327303505847
 20
21.03926163977617
 10
64.07785937310292
 20
21.0177
 10
68.30430598250965
 20
21.0177
 10
68.30430598250965
 20
19.4177
  0
LWPOLYLINE
  5
4F
330
17
100
AcDbEntity
  8
POCKET
100
AcDbPolyline
 90
53
 70
1
 10
68.30430598250965
 20
10.267700000000001
 10
64.07785937310292
 20
10.267700000000001
 10
64.05327303505847
 20
10.24613836022383
 10
64.02608267780629
 20
10.22797034435053
 10
63.99675353589756
 20
10.213506812168816
 10
63.965787439081915
 20
10.202995238724371
 10
63.9337142258613
 20
10.196615479953186
 10
63.901082677806286
 20
10.19447669529664
 10
63.86845112975127
 20
10.196615479953186
 10
63.83637791653066
 20
10.202995238724371
 10
63.80541181971501
 20
10.213506812168816
 10
63.776082677806286
 20
10.22797034435053
 10
63.748892320554106
 20
10.24613836022383
 10
63.72430598250965
 20
10.267700000000001
 10
63.702744342733475
 20
10.292286338044459
 10
63.684576326860174
 20
10.31947669529664
 10
63.67011279467847
 20
10.348805837205367
 10
63.65960122123402
 20
10.379771934021008
 10
63.65322146246283
 20
10.411845147241626
 10
63.651082677806286
 20
10.44447669529664
 10
63.65322146246283
 20
10.477108243351651
 10
63.65960122123402
 20
10.50918145657227
 10
63.67011279467847
 20
10.54014755338791
 10
63.684576326860174
 20
10.56947669529664
 10
63.702744342733475
 20
10.596667052548819
 10
63.72430598250965
 20
10.621253390593276
 10
63.72430598250965
 20
11.514146609406728
 10
63.702744342733475
 20
11.538732947451185
 10
63.684576326860174
 20
11.565923304703364
 10
63.67011279467847
 20
11.595252446612093
 10
63.65960122123402
 20
11.626218543427735
 10
63.65322146246283
 20
11.658291756648353
 10
63.651082677806286
 20
11.690923304703364
 10
63.65322146246283
 20
11.723554852758378
 10
63.65960122123402
 20
11.755628065978996
 10
63.67011279467847
 20
11.786594162794637
 10
63.684576326860174
 20
11.815923304703364
 10
63.702744342733475
 20
11.843113661955545
 10
63.72430598250965
 20
11.867700000000003
 10
63.748892320554106
 20
11.889261639776175
 10
63.776082677806286
 20
11.907429655649475
 10
63.80541181971501
 20
11.921893187831188
 10
63.83637791653066
 20
11.932404761275633
 10
63.86845112975127
 20
11.938784520046818
 10
63.901082677806286
 20
11.940923304703364
 10
63.9337142258613
 20
11.938784520046818
 10
63.965787439081915
 20
11.932404761275633
 10
63.99675353589756
 20
11.921893187831188
 10
64.02608267780629
 20
11.907429655649475
 10
64.05327303505847
 20
11.889261639776175
 10
64.07785937310292
 20
11.867700000000003
 10
68.30430598250965
 20
11.867700000000003
 10
68.30430598250965
 20
10.267700000000001
  0
LWPOLYLINE
  5
50
330
17
100
AcDbEntity
  8
POCKET
100
AcDbPolyline
 90
53
 70
1
 10
68.47156084503068
 20
13.5045
 10
72.6980074544374
 20
13.5045
 10
72.72259379248186
 20
13.526061639776172
 10
72.74978414973404
 20
13.544229655649472
 10
72.77911329164277
 20
13.558693187831185
 10
72.8100793884584
 20
13.56920476127563
 10
72.84215260167903
 20
13.575584520046815
 10
72.87478414973404
 20
13.577723304703362
 10
72.90741569778905
 20
13.575584520046815
 10
72.93948891100968
 20
13.56920476127563
 10
72.97045500782531
 20
13.558693187831185
 10
72.99978414973404
 20
13.544229655649472
 10
73.02697450698622
 20
13.526061639776172
 10
73.05156084503068
 20
13.5045
 10
73.07312248480685
 20
13.479913661955543
 10
73.09129050068015
 20
13.452723304703362
 10
73.10575403286187
 20
13.423394162794635
 10
73.11626560630631
 20
13.392428065978994
 10
73.12264536507749
 20
13.360354852758375
 10
73.12478414973404
 20
13.327723304703362
 10
73.12264536507749
 20
13.29509175664835
 10
73.11626560630631
 20
13.263018543427732
 10
73.10575403286187
 20
13.23205244661209
 10
73.09129050068015
 20
13.202723304703362
 10
73.07312248480685
 20
13.175532947451183
 10
73.05156084503068
 20
13.150946609406725
 10
73.05156084503068
 20
12.258053390593274
 10
73.07312248480685
 20
12.233467052548816
 10
73.09129050068015
 20
12.206276695296637
 10
73.10575403286187
 20
12.176947553387908
 10
73.11626560630631
 20
12.145981456572267
 10
73.12264536507749
 20
12.113908243351649
 10
73.12478414973404
 20
12.081276695296637
 10
73.12264536507749
 20
12.048645147241624
 10
73.11626560630631
 20
12.016571934021005
 10
73.10575403286187
 20
11.985605837205364
 10
73.09129050068015
 20
11.956276695296637
 10
73.07312248480685
 20
11.929086338044456
 10
73.05156084503068
 20
11.904499999999999
 10
73.02697450698622
 20
11.882938360223827
 10
72.99978414973404
 20
11.864770344350527
 10
72.97045500782531
 20
11.850306812168814
 10
72.93948891100968
 20
11.839795238724369
 10
72.90741569778905
 20
11.833415479953183
 10
72.87478414973404
 20
11.831276695296637
 10
72.84215260167903
 20
11.833415479953183
 10
72.8100793884584
 20
11.839795238724369
 10
72.77911329164277
 20
11.850306812168814
 10
72.74978414973404
 20
11.864770344350527
 10
72.72259379248186
 20
11.882938360223827
 10
72.6980074544374
 20
11.904499999999999
 10
68.47156084503068
 20
11.904499999999999
 10
68.47156084503068
 20
13.5045
  0
LWPOLYLINE
  5
51
330
17
100
AcDbEntity
  8
POCKET
100
AcDbPolyline
 90
53
 70
1
 10
68.47156084503068
 20
25.0045
 10
72.6980074544374
 20
25.0045
 10
72.72259379248186
 20
25.02606163977617
 10
72.74978414973404
 20
25.044229655649474
 10
72.77911329164277
 20
25.058693187831185
 10
72.8100793884584
 20
25.06920476127563
 10
72.84215260167903
 20
25.075584520046814
 10
72.87478414973404
 20
25.077723304703362
 10
72.90741569778905
 20
25.075584520046814
 10
72.93948891100968
 20
25.06920476127563
 10
72.97045500782531
 20
25.058693187831185
 10
72.99978414973404
 20
25.044229655649474
 10
73.02697450698622
 20
25.02606163977617
 10
73.05156084503068
 20
25.0045
 10
73.07312248480685
 20
24.979913661955543
 10
73.09129050068015
 20
24.952723304703362
 10
73.10575403286187
 20
24.923394162794636
 10
73.11626560630631
 20
24.892428065978994
 10
73.12264536507749
 20
24.860354852758377
 10
73.12478414973404
 20
24.827723304703362
 10
73.12264536507749
 20
24.79509175664835
 10
73.11626560630631
 20
24.763018543427734
 10
73.10575403286187
 20
24.73205244661209
 10
73.09129050068015
 20
24.702723304703362
 10
73.07312248480685
 20
24.67553294745118
 10
73.05156084503068
 20
24.650946609406727
 10
73.05156084503068
 20
23.758053390593272
 10
73.07312248480685
 20
23.733467052548818
 10
73.09129050068015
 20
23.706276695296637
 10
73.10575403286187
 20
23.676947553387908
 10
73.11626560630631
 20
23.645981456572265
 10
73.12264536507749
 20
23.61390824335165
 10
73.12478414973404
 20
23.581276695296637
 10
73.12264536507749
 20
23.548645147241622
 10
73.11626560630631
 20
23.516571934021005
 10
73.10575403286187
 20
23.485605837205362
 10
73.09129050068015
 20
23.456276695296637
 10
73.07312248480685
 20
23.429086338044456
 10
73.05156084503068
 20
23.4045
 10
73.02697450698622
 20
23.38293836022383
 10
72.99978414973404
 20
23.364770344350525
 10
72.97045500782531
 20
23.350306812168814
 10
72.93948891100968
 20
23.33979523872437
 10
72.90741569778905
 20
23.333415479953185
 10
72.87478414973404
 20
23.331276695296637
 10
72.84215260167903
 20
23.333415479953185
 10
72.8100793884584
 20
23.33979523872437
 10
72.77911329164277
 20
23.350306812168814
 10
72.74978414973404
 20
23.364770344350525
 10
72.72259379248186
 20
23.38293836022383
 10
72.6980074544374
 20
23.4045
 10
68.47156084503068
 20
23.4045
 10
68.47156084503068
 20
25.0045
  0
LWPOLYLINE
  5
52
330
17
100
AcDbEntity
  8
POCKET
100
AcDbPolyline
 90
53
 70
1
 10
68.47156084503068
 20
34.1545
 10
72.6980074544374
 20
34.1545
 10
72.72259379248186
 20
34.17606163977617
 10
72.74978414973404
 20
34.19422965564947
 10
72.77911329164277
 20
34.20869318783119
 10
72.8100793884584
 20
34.219204761275634
 10
72.84215260167903
 20
34.225584520046816
 10
72.87478414973404
 20
34.22772330470337
 10
72.90741569778905
 20
34.225584520046816
 10
72.93948891100968
 20
34.219204761275634
 10
72.97045500782531
 20
34.20869318783119
 10
72.99978414973404
 20
34.19422965564947
 10
73.02697450698622
 20
34.17606163977617
 10
73.05156084503068
 20
34.1545
 10
73.07312248480685
 20
34.12991366195555
 10
73.09129050068015
 20
34.10272330470337
 10
73.10575403286187
 20
34.073394162794635
 10
73.11626560630631
 20
34.042428065978996
 10
73.12264536507749
 20
34.010354852758375
 10
73.12478414973404
 20
33.97772330470337
 10
73.12264536507749
 20
33.94509175664835
 10
73.11626560630631
 20
33.91301854342773
 10
73.10575403286187
 20
33.88205244661209
 10
73.09129050068015
 20
33.85272330470337
 10
73.07312248480685
 20
33.82553294745119
 10
73.05156084503068
 20
33.80094660940673
 10
73.05156084503068
 20
32.908053390593274
 10
73.07312248480685
 20
32.883467052548816
 10
73.09129050068015
 20
32.856276695296636
 10
73.10575403286187
 20
32.82694755338791
 10
73.11626560630631
 20
32.79598145657227
 10
73.12264536507749
 20
32.76390824335165
 10
73.12478414973404
 20
32.731276695296636
 10
73.12264536507749
 20
32.69864514724163
 10
73.11626560630631
 20
32.66657193402101
 10
73.10575403286187
 20
32.63560583720537
 10
73.09129050068015
 20
32.606276695296636
 10
73.07312248480685
 20
32.579086338044455
 10
73.05156084503068
 20
32.554500000000004
 10
73.02697450698622
 20
32.53293836022383
 10
72.99978414973404
 20
32.51477034435053
 10
72.97045500782531
 20
32.500306812168816
 10
72.93948891100968
 20
32.48979523872437
 10
72.90741569778905
 20
32.48341547995319
 10
72.87478414973404
 20
32.481276695296636
 10
72.84215260167903
 20
32.48341547995319
 10
72.8100793884584
 20
32.48979523872437
 10
72.77911329164277
 20
32.500306812168816
 10
72.74978414973404
 20
32.51477034435053
 10
72.72259379248186
 20
32.53293836022383
 10
72.6980074544374
 20
32.554500000000004
 10
68.47156084503068
 20
32.554500000000004
 10
68.47156084503068
 20
34.1545
  0
ENDSEC
  0
SECTION
  2
OBJECTS
  0
DICTIONARY
  5
A
330
0
100
AcDbDictionary
281
1
  3
ACAD_COLOR
350
B
  3
ACAD_GROUP
350
C
  3
ACAD_LAYOUT
350
D
  3
ACAD_MATERIAL
350
E
  3
ACAD_MLEADERSTYLE
350
F
  3
ACAD_MLINESTYLE
350
10
  3
ACAD_PLOTSETTINGS
350
11
  3
ACAD_PLOTSTYLENAME
350
12
  3
ACAD_SCALELIST
350
14
  3
ACAD_TABLESTYLE
350
15
  3
ACAD_VISUALSTYLE
350
16
  3
EZDXF_META
350
2D
  0
DICTIONARY
  5
B
330
A
100
AcDbDictionary
281
1
  0
DICTIONARY
  5
C
330
A
100
AcDbDictionary
281
1
  0
DICTIONARY
  5
D
330
A
100
AcDbDictionary
281
1
  3
Model
350
1A
  3
Layout1
350
1E
  0
DICTIONARY
  5
E
330
A
100
AcDbDictionary
281
1
  3
ByBlock
350
1F
  3
ByLayer
350
20
  3
Global
350
21
  0
DICTIONARY
  5
F
330
A
100
AcDbDictionary
281
1
  3
Standard
350
2C
  0
DICTIONARY
  5
10
330
A
100
AcDbDictionary
281
1
  3
Standard
350
22
  0
DICTIONARY
  5
11
330
A
100
AcDbDictionary
281
1
  0
ACDBDICTIONARYWDFLT
  5
12
330
A
100
AcDbDictionary
281
1
  3
Normal
350
13
100
AcDbDictionaryWithDefault
340
13
  0
ACDBPLACEHOLDER
  5
13
330
12
  0
DICTIONARY
  5
14
330
A
100
AcDbDictionary
281
1
  0
DICTIONARY
  5
15
330
A
100
AcDbDictionary
281
1
  0
DICTIONARY
  5
16
330
A
100
AcDbDictionary
281
1
  0
LAYOUT
  5
1A
330
D
100
AcDbPlotSettings
  1

  4
A3
  6

 40
7.5
 41
20.0
 42
7.5
 43
20.0
 44
420.0
 45
297.0
 46
0.0
 47
0.0
 48
0.0
 49
0.0
140
0.0
141
0.0
142
1.0
143
1.0
 70
1024
 72
1
 73
0
 74
5
  7

 75
16
 76
0
 77
2
 78
300
147
1.0
148
0.0
149
0.0
100
AcDbLayout
  1
Model
 70
1
 71
0
 10
0.0
 20
0.0
 11
420.0
 21
297.0
 12
0.0
 22
0.0
 32
0.0
 14
1e+20
 24
1e+20
 34
1e+20
 15
-1e+20
 25
-1e+20
 35
-1e+20
146
0.0
 13
0.0
 23
0.0
 33
0.0
 16
1.0
 26
0.0
 36
0.0
 17
0.0
 27
1.0
 37
0.0
 76
1
330
17
  0
LAYOUT
  5
1E
330
D
100
AcDbPlotSettings
  1

  4
A3
  6

 40
7.5
 41
20.0
 42
7.5
 43
20.0
 44
420.0
 45
297.0
 46
0.0
 47
0.0
 48
0.0
 49
0.0
140
0.0
141
0.0
142
1.0
143
1.0
 70
0
 72
1
 73
0
 74
5
  7

 75
16
 76
0
 77
2
 78
300
147
1.0
148
0.0
149
0.0
100
AcDbLayout
  1
Layout1
 70
1
 71
1
 10
0.0
 20
0.0
 11
420.0
 21
297.0
 12
0.0
 22
0.0
 32
0.0
 14
1e+20
 24
1e+20
 34
1e+20
 15
-1e+20
 25
-1e+20
 35
-1e+20
146
0.0
 13
0.0
 23
0.0
 33
0.0
 16
1.0
 26
0.0
 36
0.0
 17
0.0
 27
1.0
 37
0.0
 76
1
330
1B
  0
MATERIAL
  5
1F
102
{ACAD_REACTORS
330
E
102
}
330
E
100
AcDbMaterial
  1
ByBlock
  2

 70
0
 40
1.0
 71
1
 41
1.0
 91
-1023410177
 42
1.0
 72
1
  3

 73
1
 74
1
 75
1
 44
0.5
 73
0
 45
1.0
 46
1.0
 77
1
  4

 78
1
 79
1
170
1
 48
1.0
171
1
  6

172
1
173
1
174
1
140
1.0
141
1.0
175
1
  7

176
1
177
1
178
1
143
1.0
179
1
  8

270
1
271
1
272
1
145
1.0
146
1.0
273
1
  9

274
1
275
1
276
1
 42
1.0
 72
1
  3

 73
1
 74
1
 75
1
 94
63
  0
MATERIAL
  5
20
102
{ACAD_REACTORS
330
E
102
}
330
E
100
AcDbMaterial
  1
ByLayer
  2

 70
0
 40
1.0
 71
1
 41
1.0
 91
-1023410177
 42
1.0
 72
1
  3

 73
1
 74
1
 75
1
 44
0.5
 73
0
 45
1.0
 46
1.0
 77
1
  4

 78
1
 79
1
170
1
 48
1.0
171
1
  6

172
1
173
1
174
1
140
1.0
141
1.0
175
1
  7

176
1
177
1
178
1
143
1.0
179
1
  8

270
1
271
1
272
1
145
1.0
146
1.0
273
1
  9

274
1
275
1
276
1
 42
1.0
 72
1
  3

 73
1
 74
1
 75
1
 94
63
  0
MATERIAL
  5
21
102
{ACAD_REACTORS
330
E
102
}
330
E
100
AcDbMaterial
  1
Global
  2

 70
0
 40
1.0
 71
1
 41
1.0
 91
-1023410177
 42
1.0
 72
1
  3

 73
1
 74
1
 75
1
 44
0.5
 73
0
 45
1.0
 46
1.0
 77
1
  4

 78
1
 79
1
170
1
 48
1.0
171
1
  6

172
1
173
1
174
1
140
1.0
141
1.0
175
1
  7

176
1
177
1
178
1
143
1.0
179
1
  8

270
1
271
1
272
1
145
1.0
146
1.0
273
1
  9

274
1
275
1
276
1
 42
1.0
 72
1
  3

 73
1
 74
1
 75
1
 94
63
  0
MLINESTYLE
  5
22
102
{ACAD_REACTORS
330
10
102
}
330
10
100
AcDbMlineStyle
  2
Standard
 70
0
  3

 62
256
 51
90.0
 52
90.0
 71
2
 49
0.5
 62
256
  6
BYLAYER
 49
-0.5
 62
256
  6
BYLAYER
  0
MLEADERSTYLE
  5
2C
102
{ACAD_REACTORS
330
F
102
}
330
F
100
AcDbMLeaderStyle
179
2
170
2
171
1
172
0
 90
2
 40
0.0
 41
0.0
173
1
 91
-1056964608
 92
-2
290
1
 42
2.0
291
1
 43
8.0
  3
Standard
 44
4.0
300

342
29
174
1
175
1
176
0
178
1
 93
-1056964608
 45
4.0
292
0
297
0
 46
4.0
 94
-1056964608
 47
1.0
 49
1.0
140
1.0
294
1
141
0.0
177
0
142
1.0
295
0
296
0
143
3.75
271
0
272
9
273
9
  0
DICTIONARY
  5
2D
330
A
100
AcDbDictionary
280
1
281
1
  3
CREATED_BY_EZDXF
350
2E
  3
WRITTEN_BY_EZDXF
350
55
  0
DICTIONARYVAR
  5
2E
330
2D
100
DictionaryVariables
280
0
  1
1.4.3 @ 2026-04-05T00:03:45.757062+00:00
  0
DICTIONARYVAR
  5
55
330
2D
100
DictionaryVariables
280
0
  1
1.4.3 @ 2026-04-05T00:03:45.786917+00:00
  0
ENDSEC
  0
EOF
