  0
SECTION
  2
HEADER
  9
$ACADVER
  1
AC1024
  9
$ACADMAINTVER
 70
6
  9
$DWGCODEPAGE
  3
ANSI_1252
  9
$LASTSAVEDBY
  1
ezdxf
  9
$INSBASE
 10
0.0
 20
0.0
 30
0.0
  9
$EXTMIN
 10
1e+20
 20
1e+20
 30
1e+20
  9
$EXTMAX
 10
-1e+20
 20
-1e+20
 30
-1e+20
  9
$LIMMIN
 10
0.0
 20
0.0
  9
$LIMMAX
 10
420.0
 20
297.0
  9
$ORTHOMODE
 70
0
  9
$REGENMODE
 70
1
  9
$FILLMODE
 70
1
  9
$QTEXTMODE
 70
0
  9
$MIRRTEXT
 70
1
  9
$LTSCALE
 40
1.0
  9
$ATTMODE
 70
1
  9
$TEXTSIZE
 40
2.5
  9
$TRACEWID
 40
1.0
  9
$TEXTSTYLE
  7
Standard
  9
$CLAYER
  8
0
  9
$CELTYPE
  6
ByLayer
  9
$CECOLOR
 62
256
  9
$CELTSCALE
 40
1.0
  9
$DISPSILH
 70
0
  9
$DIMSCALE
 40
1.0
  9
$DIMASZ
 40
2.5
  9
$DIMEXO
 40
0.625
  9
$DIMDLI
 40
3.75
  9
$DIMRND
 40
0.0
  9
$DIMDLE
 40
0.0
  9
$DIMEXE
 40
1.25
  9
$DIMTP
 40
0.0
  9
$DIMTM
 40
0.0
  9
$DIMTXT
 40
2.5
  9
$DIMCEN
 40
2.5
  9
$DIMTSZ
 40
0.0
  9
$DIMTOL
 70
0
  9
$DIMLIM
 70
0
  9
$DIMTIH
 70
0
  9
$DIMTOH
 70
0
  9
$DIMSE1
 70
0
  9
$DIMSE2
 70
0
  9
$DIMTAD
 70
1
  9
$DIMZIN
 70
8
  9
$DIMBLK
  1

  9
$DIMASO
 70
1
  9
$DIMSHO
 70
1
  9
$DIMPOST
  1

  9
$DIMAPOST
  1

  9
$DIMALT
 70
0
  9
$DIMALTD
 70
3
  9
$DIMALTF
 40
0.03937007874
  9
$DIMLFAC
 40
1.0
  9
$DIMTOFL
 70
1
  9
$DIMTVP
 40
0.0
  9
$DIMTIX
 70
0
  9
$DIMSOXD
 70
0
  9
$DIMSAH
 70
0
  9
$DIMBLK1
  1

  9
$DIMBLK2
  1

  9
$DIMSTYLE
  2
ISO-25
  9
$DIMCLRD
 70
0
  9
$DIMCLRE
 70
0
  9
$DIMCLRT
 70
0
  9
$DIMTFAC
 40
1.0
  9
$DIMGAP
 40
0.625
  9
$DIMJUST
 70
0
  9
$DIMSD1
 70
0
  9
$DIMSD2
 70
0
  9
$DIMTOLJ
 70
0
  9
$DIMTZIN
 70
8
  9
$DIMALTZ
 70
0
  9
$DIMALTTZ
 70
0
  9
$DIMUPT
 70
0
  9
$DIMDEC
 70
2
  9
$DIMTDEC
 70
2
  9
$DIMALTU
 70
2
  9
$DIMALTTD
 70
3
  9
$DIMTXSTY
  7
Standard
  9
$DIMAUNIT
 70
0
  9
$DIMADEC
 70
0
  9
$DIMALTRND
 40
0.0
  9
$DIMAZIN
 70
0
  9
$DIMDSEP
 70
44
  9
$DIMATFIT
 70
3
  9
$DIMFRAC
 70
0
  9
$DIMLDRBLK
  1

  9
$DIMLUNIT
 70
2
  9
$DIMLWD
 70
-2
  9
$DIMLWE
 70
-2
  9
$DIMTMOVE
 70
0
  9
$DIMFXL
 40
1.0
  9
$DIMFXLON
 70
0
  9
$DIMJOGANG
 40
0.785398163397
  9
$DIMTFILL
 70
0
  9
$DIMTFILLCLR
 70
0
  9
$DIMARCSYM
 70
0
  9
$DIMLTYPE
  6

  9
$DIMLTEX1
  6

  9
$DIMLTEX2
  6

  9
$DIMTXTDIRECTION
 70
0
  9
$LUNITS
 70
2
  9
$LUPREC
 70
4
  9
$SKETCHINC
 40
1.0
  9
$FILLETRAD
 40
10.0
  9
$AUNITS
 70
0
  9
$AUPREC
 70
2
  9
$MENU
  1
.
  9
$ELEVATION
 40
0.0
  9
$PELEVATION
 40
0.0
  9
$THICKNESS
 40
0.0
  9
$LIMCHECK
 70
0
  9
$CHAMFERA
 40
0.0
  9
$CHAMFERB
 40
0.0
  9
$CHAMFERC
 40
0.0
  9
$CHAMFERD
 40
0.0
  9
$SKPOLY
 70
0
  9
$TDCREATE
 40
2461135.7526041665
  9
$TDUCREATE
 40
2458532.153996898
  9
$TDUPDATE
 40
2461135.7526041665
  9
$TDUUPDATE
 40
2458532.1544311
  9
$TDINDWG
 40
0.0
  9
$TDUSRTIMER
 40
0.0
  9
$USRTIMER
 70
1
  9
$ANGBASE
 50
0.0
  9
$ANGDIR
 70
0
  9
$PDMODE
 70
0
  9
$PDSIZE
 40
0.0
  9
$PLINEWID
 40
0.0
  9
$SPLFRAME
 70
0
  9
$SPLINETYPE
 70
6
  9
$SPLINESEGS
 70
8
  9
$HANDSEED
  5
47
  9
$SURFTAB1
 70
6
  9
$SURFTAB2
 70
6
  9
$SURFTYPE
 70
6
  9
$SURFU
 70
6
  9
$SURFV
 70
6
  9
$UCSBASE
  2

  9
$UCSNAME
  2

  9
$UCSORG
 10
0.0
 20
0.0
 30
0.0
  9
$UCSXDIR
 10
1.0
 20
0.0
 30
0.0
  9
$UCSYDIR
 10
0.0
 20
1.0
 30
0.0
  9
$UCSORTHOREF
  2

  9
$UCSORTHOVIEW
 70
0
  9
$UCSORGTOP
 10
0.0
 20
0.0
 30
0.0
  9
$UCSORGBOTTOM
 10
0.0
 20
0.0
 30
0.0
  9
$UCSORGLEFT
 10
0.0
 20
0.0
 30
0.0
  9
$UCSORGRIGHT
 10
0.0
 20
0.0
 30
0.0
  9
$UCSORGFRONT
 10
0.0
 20
0.0
 30
0.0
  9
$UCSORGBACK
 10
0.0
 20
0.0
 30
0.0
  9
$PUCSBASE
  2

  9
$PUCSNAME
  2

  9
$PUCSORG
 10
0.0
 20
0.0
 30
0.0
  9
$PUCSXDIR
 10
1.0
 20
0.0
 30
0.0
  9
$PUCSYDIR
 10
0.0
 20
1.0
 30
0.0
  9
$PUCSORTHOREF
  2

  9
$PUCSORTHOVIEW
 70
0
  9
$PUCSORGTOP
 10
0.0
 20
0.0
 30
0.0
  9
$PUCSORGBOTTOM
 10
0.0
 20
0.0
 30
0.0
  9
$PUCSORGLEFT
 10
0.0
 20
0.0
 30
0.0
  9
$PUCSORGRIGHT
 10
0.0
 20
0.0
 30
0.0
  9
$PUCSORGFRONT
 10
0.0
 20
0.0
 30
0.0
  9
$PUCSORGBACK
 10
0.0
 20
0.0
 30
0.0
  9
$USERI1
 70
0
  9
$USERI2
 70
0
  9
$USERI3
 70
0
  9
$USERI4
 70
0
  9
$USERI5
 70
0
  9
$USERR1
 40
0.0
  9
$USERR2
 40
0.0
  9
$USERR3
 40
0.0
  9
$USERR4
 40
0.0
  9
$USERR5
 40
0.0
  9
$WORLDVIEW
 70
1
  9
$SHADEDGE
 70
3
  9
$SHADEDIF
 70
70
  9
$TILEMODE
 70
1
  9
$MAXACTVP
 70
64
  9
$PINSBASE
 10
0.0
 20
0.0
 30
0.0
  9
$PLIMCHECK
 70
0
  9
$PEXTMIN
 10
1e+20
 20
1e+20
 30
1e+20
  9
$PEXTMAX
 10
-1e+20
 20
-1e+20
 30
-1e+20
  9
$PLIMMIN
 10
0.0
 20
0.0
  9
$PLIMMAX
 10
420.0
 20
297.0
  9
$UNITMODE
 70
0
  9
$VISRETAIN
 70
1
  9
$PLINEGEN
 70
0
  9
$PSLTSCALE
 70
1
  9
$TREEDEPTH
 70
3020
  9
$CMLSTYLE
  2
Standard
  9
$CMLJUST
 70
0
  9
$CMLSCALE
 40
20.0
  9
$PROXYGRAPHICS
 70
1
  9
$MEASUREMENT
 70
1
  9
$CELWEIGHT
370
-1
  9
$ENDCAPS
280
0
  9
$JOINSTYLE
280
0
  9
$LWDISPLAY
290
0
  9
$INSUNITS
 70
1
  9
$HYPERLINKBASE
  1

  9
$STYLESHEET
  1

  9
$XEDIT
290
1
  9
$CEPSNTYPE
380
0
  9
$PSTYLEMODE
290
1
  9
$FINGERPRINTGUID
  2
{CCD0715E-1B57-4850-98EB-7C5C13F0DE89}
  9
$VERSIONGUID
  2
{13183E66-C5ED-4C73-8DEC-530E689C0D8B}
  9
$EXTNAMES
290
1
  9
$PSVPSCALE
 40
0.0
  9
$OLESTARTUP
290
0
  9
$SORTENTS
280
127
  9
$INDEXCTL
280
0
  9
$HIDETEXT
280
1
  9
$XCLIPFRAME
280
1
  9
$HALOGAP
280
0
  9
$OBSCOLOR
 70
257
  9
$OBSLTYPE
280
0
  9
$INTERSECTIONDISPLAY
280
0
  9
$INTERSECTIONCOLOR
 70
257
  9
$DIMASSOC
280
2
  9
$PROJECTNAME
  1

  9
$CAMERADISPLAY
290
0
  9
$LENSLENGTH
 40
50.0
  9
$CAMERAHEIGHT
 40
0.0
  9
$STEPSPERSEC
 40
24.0
  9
$STEPSIZE
 40
100.0
  9
$3DDWFPREC
 40
2.0
  9
$PSOLWIDTH
 40
0.005
  9
$PSOLHEIGHT
 40
0.08
  9
$LOFTANG1
 40
1.570796326795
  9
$LOFTANG2
 40
1.570796326795
  9
$LOFTMAG1
 40
0.0
  9
$LOFTMAG2
 40
0.0
  9
$LOFTPARAM
 70
7
  9
$LOFTNORMALS
280
1
  9
$LATITUDE
 40
37.795
  9
$LONGITUDE
 40
-122.394
  9
$NORTHDIRECTION
 40
0.0
  9
$TIMEZONE
 70
-8000
  9
$LIGHTGLYPHDISPLAY
280
1
  9
$TILEMODELIGHTSYNCH
280
1
  9
$CMATERIAL
347
20
  9
$SOLIDHIST
280
0
  9
$SHOWHIST
280
1
  9
$DWFFRAME
280
2
  9
$DGNFRAME
280
2
  9
$REALWORLDSCALE
290
1
  9
$INTERFERECOLOR
 62
256
  9
$CSHADOW
280
0
  9
$SHADOWPLANELOCATION
 40
0.0
  0
ENDSEC
  0
SECTION
  2
CLASSES
  0
CLASS
  1
ACDBDICTIONARYWDFLT
  2
AcDbDictionaryWithDefault
  3
ObjectDBX Classes
 90
0
 91
0
280
0
281
0
  0
CLASS
  1
SUN
  2
AcDbSun
  3
SCENEOE
 90
1153
 91
0
280
0
281
0
  0
CLASS
  1
VISUALSTYLE
  2
AcDbVisualStyle
  3
ObjectDBX Classes
 90
4095
 91
0
280
0
281
0
  0
CLASS
  1
MATERIAL
  2
AcDbMaterial
  3
ObjectDBX Classes
 90
1153
 91
0
280
0
281
0
  0
CLASS
  1
SCALE
  2
AcDbScale
  3
ObjectDBX Classes
 90
1153
 91
0
280
0
281
0
  0
CLASS
  1
TABLESTYLE
  2
AcDbTableStyle
  3
ObjectDBX Classes
 90
4095
 91
0
280
0
281
0
  0
CLASS
  1
MLEADERSTYLE
  2
AcDbMLeaderStyle
  3
ACDB_MLEADERSTYLE_CLASS
 90
4095
 91
0
280
0
281
0
  0
CLASS
  1
DICTIONARYVAR
  2
AcDbDictionaryVar
  3
ObjectDBX Classes
 90
0
 91
0
280
0
281
0
  0
CLASS
  1
CELLSTYLEMAP
  2
AcDbCellStyleMap
  3
ObjectDBX Classes
 90
1152
 91
0
280
0
281
0
  0
CLASS
  1
MENTALRAYRENDERSETTINGS
  2
AcDbMentalRayRenderSettings
  3
SCENEOE
 90
1024
 91
0
280
0
281
0
  0
CLASS
  1
ACDBDETAILVIEWSTYLE
  2
AcDbDetailViewStyle
  3
ObjectDBX Classes
 90
1025
 91
0
280
0
281
0
  0
CLASS
  1
ACDBSECTIONVIEWSTYLE
  2
AcDbSectionViewStyle
  3
ObjectDBX Classes
 90
1025
 91
0
280
0
281
0
  0
CLASS
  1
RASTERVARIABLES
  2
AcDbRasterVariables
  3
ISM
 90
0
 91
0
280
0
281
0
  0
CLASS
  1
ACDBPLACEHOLDER
  2
AcDbPlaceHolder
  3
ObjectDBX Classes
 90
0
 91
0
280
0
281
0
  0
CLASS
  1
LAYOUT
  2
AcDbLayout
  3
ObjectDBX Classes
 90
0
 91
0
280
0
281
0
  0
ENDSEC
  0
SECTION
  2
TABLES
  0
TABLE
  2
VPORT
  5
8
330
0
100
AcDbSymbolTable
 70
1
  0
VPORT
  5
23
330
8
100
AcDbSymbolTableRecord
100
AcDbViewportTableRecord
  2
*Active
 70
0
 10
0.0
 20
0.0
 11
1.0
 21
1.0
 12
0.0
 22
0.0
 13
0.0
 23
0.0
 14
0.5
 24
0.5
 15
0.5
 25
0.5
 16
0.0
 26
0.0
 36
1.0
 17
0.0
 27
0.0
 37
0.0
 40
1000.0
 41
1.34
 42
50.0
 43
0.0
 44
0.0
 50
0.0
 51
0.0
 71
0
 72
1000
 73
1
 74
3
 75
0
 76
0
 77
0
 78
0
281
0
 65
0
146
0.0
  0
ENDTAB
  0
TABLE
  2
LTYPE
  5
2
330
0
100
AcDbSymbolTable
 70
3
  0
LTYPE
  5
24
330
2
100
AcDbSymbolTableRecord
100
AcDbLinetypeTableRecord
  2
ByBlock
 70
0
  3

 72
65
 73
0
 40
0.0
  0
LTYPE
  5
25
330
2
100
AcDbSymbolTableRecord
100
AcDbLinetypeTableRecord
  2
ByLayer
 70
0
  3

 72
65
 73
0
 40
0.0
  0
LTYPE
  5
26
330
2
100
AcDbSymbolTableRecord
100
AcDbLinetypeTableRecord
  2
Continuous
 70
0
  3

 72
65
 73
0
 40
0.0
  0
ENDTAB
  0
TABLE
  2
LAYER
  5
1
330
0
100
AcDbSymbolTable
 70
3
  0
LAYER
  5
27
330
1
100
AcDbSymbolTableRecord
100
AcDbLayerTableRecord
  2
0
 70
0
 62
7
  6
Continuous
370
-3
390
13
347
21
  0
LAYER
  5
28
330
1
100
AcDbSymbolTableRecord
100
AcDbLayerTableRecord
  2
Defpoints
 70
0
 62
7
  6
Continuous
290
0
370
-3
390
13
347
21
  0
LAYER
  5
2F
330
1
100
AcDbSymbolTableRecord
100
AcDbLayerTableRecord
  2
CONTOUR
 70
0
 62
3
  6
Continuous
370
-3
390
13
347
21
  0
ENDTAB
  0
TABLE
  2
STYLE
  5
5
330
0
100
AcDbSymbolTable
 70
1
  0
STYLE
  5
29
330
5
100
AcDbSymbolTableRecord
100
AcDbTextStyleTableRecord
  2
Standard
 70
0
 40
0.0
 41
1.0
 50
0.0
 71
0
 42
2.5
  3
txt
  4

  0
ENDTAB
  0
TABLE
  2
VIEW
  5
7
330
0
100
AcDbSymbolTable
 70
0
  0
ENDTAB
  0
TABLE
  2
UCS
  5
6
330
0
100
AcDbSymbolTable
 70
0
  0
ENDTAB
  0
TABLE
  2
APPID
  5
3
330
0
100
AcDbSymbolTable
 70
3
  0
APPID
  5
2A
330
3
100
AcDbSymbolTableRecord
100
AcDbRegAppTableRecord
  2
ACAD
 70
0
  0
APPID
  5
44
330
3
100
AcDbSymbolTableRecord
100
AcDbRegAppTableRecord
  2
HATCHBACKGROUNDCOLOR
 70
0
  0
APPID
  5
45
330
3
100
AcDbSymbolTableRecord
100
AcDbRegAppTableRecord
  2
EZDXF
 70
0
  0
ENDTAB
  0
TABLE
  2
DIMSTYLE
  5
4
330
0
100
AcDbSymbolTable
 70
1
100
AcDbDimStyleTable
  0
DIMSTYLE
105
2B
330
4
100
AcDbSymbolTableRecord
100
AcDbDimStyleTableRecord
  2
Standard
 70
0
 40
1.0
 41
2.5
 42
0.625
 43
3.75
 44
1.25
 45
0.0
 46
0.0
 47
0.0
 48
0.0
 49
2.5
140
2.5
141
2.5
142
0.0
143
0.03937007874
144
1.0
145
0.0
146
1.0
147
0.625
148
0.0
 69
0
 70
0
 71
0
 72
0
 73
0
 74
0
 75
0
 76
0
 77
1
 78
8
 79
3
170
0
171
3
172
1
173
0
174
0
175
0
176
0
177
0
178
0
179
2
271
2
272
2
273
2
274
3
275
0
276
0
277
2
278
44
279
0
280
0
281
0
282
0
283
0
284
8
285
0
286
0
288
0
289
3
290
0
371
-2
372
-2
  0
ENDTAB
  0
TABLE
  2
BLOCK_RECORD
  5
9
330
0
100
AcDbSymbolTable
 70
2
  0
BLOCK_RECORD
  5
17
330
9
100
AcDbSymbolTableRecord
100
AcDbBlockTableRecord
  2
*Model_Space
340
1A
 70
0
280
1
281
0
  0
BLOCK_RECORD
  5
1B
330
9
100
AcDbSymbolTableRecord
100
AcDbBlockTableRecord
  2
*Paper_Space
340
1E
 70
0
280
1
281
0
  0
ENDTAB
  0
ENDSEC
  0
SECTION
  2
BLOCKS
  0
BLOCK
  5
18
330
17
100
AcDbEntity
  8
0
100
AcDbBlockBegin
  2
*Model_Space
 70
0
 10
0.0
 20
0.0
 30
0.0
  3
*Model_Space
  1

  0
ENDBLK
  5
19
330
17
100
AcDbEntity
  8
0
100
AcDbBlockEnd
  0
BLOCK
  5
1C
330
1B
100
AcDbEntity
  8
0
100
AcDbBlockBegin
  2
*Paper_Space
 70
0
 10
0.0
 20
0.0
 30
0.0
  3
*Paper_Space
  1

  0
ENDBLK
  5
1D
330
1B
100
AcDbEntity
  8
0
100
AcDbBlockEnd
  0
ENDSEC
  0
SECTION
  2
ENTITIES
  0
LWPOLYLINE
  5
30
330
17
100
AcDbEntity
  8
CONTOUR
100
AcDbPolyline
 90
5
 70
1
 10
0.0
 20
0.0
 10
96.0
 20
0.0
 10
96.0
 20
48.0
 10
0.0
 20
48.0
 10
0.0
 20
0.0
  0
LWPOLYLINE
  5
31
330
17
100
AcDbEntity
  8
CONTOUR
100
AcDbPolyline
 90
158
 70
1
 10
65.2539761974644
 20
15.491400154433869
 10
65.2539761974644
 20
21.49140015443387
 10
65.2539761974644
 20
21.49140015443387
 10
65.24926035488433
 20
21.57537351151135
 10
65.23517213160076
 20
21.658290854901104
 10
65.21188869519568
 20
21.739109450900244
 10
65.17970284839122
 20
21.81681295877204
 10
65.13901934688562
 20
21.890424211820374
 10
65.09034980931543
 20
21.959017505827923
 10
65.03430628335431
 20
22.021730240323777
 10
64.97159354885845
 20
22.077773766284892
 10
64.9030002548509
 20
22.126443303855083
 10
64.82938900180257
 20
22.16712680536068
 10
64.75168549393078
 20
22.19931265216514
 10
64.67086689793163
 20
22.222596088570235
 10
64.58794955454188
 20
22.2366843118538
 10
64.5039761974644
 20
22.24140015443387
 10
64.5039761974644
 20
22.86640015443387
 10
64.5039761974644
 20
22.86640015443387
 10
64.61609472065618
 20
22.89128706368401
 10
64.72875526873905
 20
22.913592273846547
 10
64.84189840236164
 20
22.933304016762648
 10
64.95546442756194
 20
22.95041189257865
 10
65.06939342726164
 20
22.964906875232984
 10
65.18362529287833
 20
22.976781317218332
 10
65.29809975603835
 20
22.98602895361639
 10
65.41275642037446
 20
22.992644905403225
 10
65.5275347933906
 20
22.996625682023456
 10
65.64237431837756
 20
22.997969183231838
 10
65.7572144063626
 20
22.996674700201353
 10
65.87199446807593
 20
22.992742915897182
 10
65.98665394591741
 20
22.986175904716376
 10
66.10113234590658
 20
22.97697713139341
 10
66.21536926959911
 20
22.96515144917221
 10
66.32930444595277
 20
22.950705097245574
 10
66.44287776312632
 20
22.93364569746342
 10
66.55602930019424
 20
22.9139822503115
 10
66.66869935876089
 20
22.891725130162776
 10
66.66869935891023
 20
22.891725130875606
 10
67.20458060317551
 20
22.78571596601217
 10
67.7404618474408
 20
22.693573475403795
 10
68.27634309170607
 20
22.617108256373314
 10
68.81222433597135
 20
22.557822848302408
 10
69.34810558023663
 20
22.516882207775467
 10
69.8839868245019
 20
22.495090817215782
 10
70.41986806876719
 20
22.492876876828795
 10
70.95574931303247
 20
22.510283890480203
 10
71.49163055729775
 20
22.546969810846278
 10
72.02751180156302
 20
22.602213760634008
 10
72.5633930458283
 20
22.674930197799462
 10
73.09927429009359
 20
22.763690246418108
 10
73.63515553435886
 20
22.866749774056125
 10
74.17103677862414
 20
22.98208366392319
 10
74.70691802288943
 20
23.107425608359883
 10
75.24279926715471
 20
23.240312641718788
 10
75.77868051141998
 20
23.378133537569532
 10
76.31456175568526
 20
23.51818011922392
 10
76.85044299995054
 20
23.65770047533097
 10
77.38632424421581
 20
23.793953034856727
 10
77.9222054884811
 20
23.924260438877248
 10
78.45808673274638
 20
24.046062150605366
 10
78.99396797701166
 20
24.156964769865816
 10
79.52984922127693
 20
24.254789063340716
 10
80.06573046554222
 20
24.33761278644232
 10
80.6016117098075
 20
24.403808455364583
 10
81.13749295407277
 20
24.452075327093695
 10
81.67337419833805
 20
24.481464958971365
 10
82.20925544260334
 20
24.49139984556613
 10
82.74513668686862
 20
24.481684766638615
 10
83.28101793113389
 20
24.45251062321377
 10
83.81689917539917
 20
24.40445068638109
 10
84.35278041966446
 20
24.33844933253404
 10
84.88866166392972
 20
24.2558034864007
 10
85.42454290819501
 20
24.158137136509758
 10
85.96042415246029
 20
24.047369423862015
 10
86.49630539672557
 20
23.925676930864263
 10
87.03218664099084
 20
23.795450911546794
 10
87.56806788525613
 20
23.659250303489678
 10
88.10394912952141
 20
23.519751444771977
 10
88.63983037378668
 20
23.379695484004557
 10
89.17571161805196
 20
23.241834516837713
 10
89.71159286231725
 20
23.10887750735985
 10
90.24747410658253
 20
22.983437057030102
 10
90.7833553508478
 20
22.86797806713387
 10
91.31923659511308
 20
22.764769303542607
 10
91.85511783937837
 20
22.675838815528877
 10
92.39099908364364
 20
22.602934084655764
 10
92.92688032790892
 20
22.54748768681381
 10
92.92688032790892
 20
22.54748768681381
 10
93.04909844135913
 20
22.539432220018398
 10
93.17154350990316
 20
22.536372319714538
 10
93.29401142906988
 20
22.538313086469692
 10
93.41629805629829
 20
22.545251285207293
 10
93.5381995512241
 20
22.55717535059931
 10
93.65951271546254
 20
22.574065406344552
 10
93.78003533132105
 20
22.595893298300638
 10
93.89956649887719
 20
22.622622641414267
 10
94.01790697086012
 20
22.654208880371748
 10
94.13485948477707
 20
22.690599363868508
 10
94.25022909173148
 20
22.731733432373893
 10
94.3638234813846
 20
22.777542519244932
 10
94.47545330251876
 20
22.827950265020526
 10
94.58493247866821
 20
22.882872644705508
 10
94.6920785182911
 20
22.942218107832446
 10
94.79671281896587
 20
23.005887731067737
 10
94.89866096510474
 20
23.07377538310749
 10
94.99775301868814
 20
23.145767901588528
 10
95.09382380253561
 20
23.221745281719443
 10
95.09382380253561
 20
15.491400154433869
 10
89.2539761974644
 20
15.491400154433872
 10
89.2539761974644
 20
15.491400154433872
 10
89.20302819995523
 20
15.549398338168283
 10
89.14375951789094
 20
15.598862578716853
 10
89.07758299521437
 20
15.63861374993383
 10
89.00607614463485
 20
15.6677042653449
 10
88.93094354295742
 20
15.685440666667189
 10
88.85397619746439
 20
15.691400154433872
 10
85.6539761974644
 20
15.691400154433872
 10
85.57700885197137
 20
15.685440666667189
 10
85.50187625029395
 20
15.6677042653449
 10
85.43036939971442
 20
15.63861374993383
 10
85.36419287703785
 20
15.598862578716853
 10
85.30492419497357
 20
15.549398338168283
 10
85.2539761974644
 20
15.491400154433872
 10
85.2539761974644
 20
15.491400154433872
 10
74.80397619746441
 20
15.491400154433872
 10
74.80397619746441
 20
15.491400154433872
 10
74.75302819995524
 20
15.549398338168283
 10
74.69375951789095
 20
15.598862578716853
 10
74.62758299521438
 20
15.63861374993383
 10
74.55607614463486
 20
15.6677042653449
 10
74.48094354295743
 20
15.685440666667189
 10
74.4039761974644
 20
15.691400154433872
 10
71.6289761974644
 20
15.691400154433872
 10
71.6289761974644
 20
15.691400154433872
 10
71.6289761974644
 20
19.24140015443387
 10
71.60589183608029
 20
19.5347147763843
 10
71.53720716551781
 20
19.820807018886896
 10
71.42461343031759
 20
20.092632341445515
 10
71.27088306191743
 20
20.343497502482258
 10
71.07980141218917
 20
20.567225369158642
 10
70.85607354551279
 20
20.758307018886896
 10
70.60520838447604
 20
20.912037387287057
 10
70.33338306191743
 20
21.024631122487285
 10
70.04729081941483
 20
21.093315793049754
 10
69.7539761974644
 20
21.11640015443387
 10
69.46066157551397
 20
21.093315793049754
 10
69.17456933301138
 20
21.024631122487285
 10
68.90274401045275
 20
20.912037387287057
 10
68.65187884941601
 20
20.758307018886896
 10
68.42815098273962
 20
20.567225369158642
 10
68.23706933301138
 20
20.343497502482258
 10
68.08333896461122
 20
20.092632341445515
 10
67.970745229411
 20
19.820807018886896
 10
67.90206055884852
 20
19.5347147763843
 10
67.8789761974644
 20
19.24140015443387
 10
67.8789761974644
 20
15.491400154433869
 10
65.2539761974644
 20
15.491400154433869
  0
LWPOLYLINE
  5
32
330
17
100
AcDbEntity
  8
CONTOUR
100
AcDbPolyline
 90
158
 70
1
 10
30.3031
 20
47.8749596526439
 10
27.6781
 20
47.8749596526439
 10
27.6781
 20
44.1249596526439
 10
27.655015638615886
 20
43.83164503069347
 10
27.586330968053414
 20
43.545552788190875
 10
27.47373723285319
 20
43.273727465632255
 10
27.320006864453028
 20
43.02286230459551
 10
27.128925214724777
 20
42.79913443791913
 10
26.90519734804839
 20
42.608052788190875
 10
26.65433218701165
 20
42.454322419790714
 10
26.382506864453028
 20
42.341728684590485
 10
26.096414621950434
 20
42.27304401402802
 10
25.8031
 20
42.2499596526439
 10
25.509785378049568
 20
42.27304401402802
 10
25.223693135546974
 20
42.341728684590485
 10
24.95186781298835
 20
42.454322419790714
 10
24.70100265195161
 20
42.608052788190875
 10
24.477274785275224
 20
42.79913443791913
 10
24.286193135546974
 20
43.02286230459551
 10
24.132462767146812
 20
43.273727465632255
 10
24.019869031946588
 20
43.545552788190875
 10
23.951184361384115
 20
43.83164503069347
 10
23.9281
 20
44.1249596526439
 10
23.9281
 20
47.6749596526439
 10
23.9281
 20
47.6749596526439
 10
21.1531
 20
47.6749596526439
 10
21.076132654506974
 20
47.68091914041059
 10
21.001000052829546
 20
47.698655541732876
 10
20.929493202250022
 20
47.727746057143946
 10
20.86331667957345
 20
47.767497228360924
 10
20.804047997509162
 20
47.81696146890949
 10
20.7531
 20
47.8749596526439
 10
20.7531
 20
47.8749596526439
 10
10.3031
 20
47.8749596526439
 10
10.3031
 20
47.8749596526439
 10
10.252152002490837
 20
47.81696146890949
 10
10.192883320426551
 20
47.767497228360924
 10
10.12670679774998
 20
47.727746057143946
 10
10.055199947170454
 20
47.698655541732876
 10
9.980067345493028
 20
47.68091914041059
 10
9.9031
 20
47.6749596526439
 10
6.703100000000001
 20
47.6749596526439
 10
6.626132654506973
 20
47.68091914041059
 10
6.551000052829546
 20
47.698655541732876
 10
6.479493202250022
 20
47.727746057143946
 10
6.41331667957345
 20
47.767497228360924
 10
6.354047997509164
 20
47.81696146890949
 10
6.303100000000001
 20
47.8749596526439
 10
6.303100000000001
 20
47.8749596526439
 10
1.3031000000000006
 20
47.8749596526439
 10
1.3031000000000006
 20
42.039805590368
 10
1.3031000000000006
 20
42.039805590368
 10
1.3114099063199482
 20
41.81666800192392
 10
1.3362935889177585
 20
41.59476658178413
 10
1.377613193745912
 20
41.375330649957704
 10
1.43513981277421
 20
41.15957586780246
 10
1.50855475212596
 20
40.948697503336916
 10
1.5974512976221718
 20
40.74386380953015
 10
1.701336967952681
 20
40.54620955225329
 10
1.8196362429918693
 20
40.35682972374749
 10
1.9516937521442017
 20
40.17677347643525
 10
2.096777905056417
 20
40.007038310681565
 10
2.254084944582374
 20
39.84856454870418
 10
2.42274339954745
 20
39.70223012524723
 10
2.6018189126444327
 20
39.568845723877594
 10
2.7903194167146275
 20
39.449150285848546
 10
2.987200630737984
 20
39.34380691641138
 10
3.191371845084703
 20
39.25339921125374
 10
3.401701963978482
 20
39.178428023415925
 10
3.617025771696479
 20
39.119308688596355
 10
3.83615038779163
 20
39.07636872421774
 10
3.836150387791548
 20
39.076368724217225
 10
4.3013514709487914
 20
39.00916322150587
 10
4.766552554106035
 20
38.954783906794304
 10
5.231753637263278
 20
38.914036372816206
 10
5.696954720420518
 20
38.88752426670218
 10
6.162155803577761
 20
38.87564034735611
 10
6.627356886735004
 20
38.87856066699793
 10
7.092557969892248
 20
38.89624196306914
 10
7.557759053049491
 20
38.92842229913834
 10
8.022960136206734
 20
38.97462494531215
 10
8.488161219363974
 20
39.03416544066579
 10
8.95336230252122
 20
39.106161733068376
 10
9.41856338567846
 20
39.18954724618806
 10
9.883764468835704
 20
39.28308668009838
 10
10.348965551992947
 20
39.38539431141034
 10
10.81416663515019
 20
39.494954521826344
 10
11.279367718307434
 20
39.61014425099925
 10
11.744568801464673
 20
39.72925704107259
 10
12.20976988462192
 20
39.850528316698494
 10
12.67497096777916
 20
39.97216152602687
 10
13.140172050936403
 20
40.09235475540489
 10
13.605373134093647
 20
40.20932742350781
 10
14.07057421725089
 20
40.32134665944593
 10
14.535775300408133
 20
40.4267529740737
 10
15.000976383565375
 20
40.52398484419795
 10
15.466177466722618
 20
40.6116018454869
 10
15.931378549879861
 20
40.68830599138148
 10
16.396579633037103
 20
40.752960961887496
 10
16.861780716194346
 20
40.804608937387066
 10
17.32698179935159
 20
40.84248478808786
 10
17.792182882508833
 20
40.86602740890296
 10
18.257383965666072
 20
40.874888031842886
 10
18.72258504882332
 20
40.868935392777274
 10
19.18778613198056
 20
40.84825767602404
 10
19.652987215137802
 20
40.81316120795848
 10
20.118188298295046
 20
40.76416591899534
 10
20.58338938145229
 20
40.701997641171744
 10
21.048590464609532
 20
40.62757735543693
 10
21.513791547766775
 20
40.542007547942944
 10
21.97899263092402
 20
40.4465558774587
 10
22.44419371408126
 20
40.34263639586348
 10
22.9093947972385
 20
40.231788599925615
 10
23.374595880395745
 20
40.11565462470011
 10
23.83979696355299
 20
39.99595491640947
 10
24.30499804671023
 20
39.8744627451976
 10
24.770199129867475
 20
39.75297793533315
 10
25.235400213024718
 20
39.633300202031386
 10
25.700601296181958
 20
39.517202489891645
 10
26.1658023793392
 20
39.40640470792336
 10
26.631003462496444
 20
39.30254825025842
 10
26.631003462540733
 20
39.30254825046474
 10
26.877109823177303
 20
39.25613256587348
 10
27.125231641496605
 20
39.222098468327395
 10
27.37474640212271
 20
39.20053134632303
 10
27.62502809491244
 20
39.191485309834086
 10
27.875448785558653
 20
39.19498305455432
 10
28.125380191021044
 20
39.21101580495612
 10
28.374195255831935
 20
39.23954333630749
 10
28.621269725322172
 20
39.280494075592316
 10
28.865983711820036
 20
39.3337652810806
 10
29.10772324989383
 20
39.39922330009829
 10
29.345881836736027
 20
39.476703904349826
 10
29.579861953824373
 20
39.56601270195217
 10
29.809076566042272
 20
39.66692562514663
 10
30.032950594497184
 20
39.77918949246476
 10
30.250922359341978
 20
39.90252264393791
 10
30.462444988979254
 20
40.03661564775684
 10
30.666987792113105
 20
40.18113207660837
 10
30.864037589205964
 20
40.335709351741286
 10
31.0531
 20
40.4999596526439
 10
31.0531
 20
41.1249596526439
 10
31.0531
 20
41.1249596526439
 10
30.969126642922518
 20
41.12967549522397
 10
30.886209299532766
 20
41.143763718507536
 10
30.805390703533625
 20
41.16704715491263
 10
30.72768719566183
 20
41.19923300171709
 10
30.6540759426135
 20
41.23991650322269
 10
30.58548264860595
 20
41.28858604079288
 10
30.52276991411009
 20
41.344629566753994
 10
30.466726388148977
 20
41.40734230124985
 10
30.418056850578786
 20
41.4759355952574
 10
30.37737334907319
 20
41.54954684830573
 10
30.345187502268725
 20
41.62725035617753
 10
30.321904065863635
 20
41.70806895217667
 10
30.30781584258007
 20
41.79098629556642
 10
30.3031
 20
41.8749596526439
 10
30.3031
 20
47.8749596526439
  0
LWPOLYLINE
  5
33
330
17
100
AcDbEntity
  8
CONTOUR
100
AcDbPolyline
 90
158
 70
1
 10
66.01183862907313
 20
0.12502102042398633
 10
66.01183862907313
 20
6.125021020423986
 10
66.01183862907313
 20
6.125021020423986
 10
66.00712278649306
 20
6.208994377501469
 10
65.9930345632095
 20
6.291911720891221
 10
65.96975112680441
 20
6.372730316890362
 10
65.93756527999994
 20
6.4504338247621575
 10
65.89688177849435
 20
6.5240450778104915
 10
65.84821224092416
 20
6.59263837181804
 10
65.79216871496304
 20
6.655351106313894
 10
65.72945598046718
 20
6.7113946322750095
 10
65.66086268645964
 20
6.760064169845201
 10
65.5872514334113
 20
6.800747671350798
 10
65.50954792553951
 20
6.832933518155258
 10
65.42872932954037
 20
6.856216954560352
 10
65.34581198615061
 20
6.8703051778439175
 10
65.26183862907313
 20
6.875021020423986
 10
65.26183862907313
 20
7.500021020423986
 10
65.26183862907313
 20
7.500021020423986
 10
65.36406184485318
 20
7.481394976946632
 10
65.46665003923061
 20
7.464897167564246
 10
65.56955890840482
 20
7.450534717030905
 10
65.67274401008842
 20
7.4383138279233165
 10
65.77616078270012
 20
7.428239777962148
 10
65.87976456460899
 20
7.420316917732791
 10
65.98351061342224
 20
7.414548668806532
 10
66.08735412530757
 20
7.410937522262884
 10
66.1912502543422
 20
7.40948503761382
 10
66.29515413188011
 20
7.410191842130239
 10
66.39902088592898
 20
7.413057630571124
 10
66.50280566052868
 20
7.418081165315307
 10
66.60646363512276
 20
7.425260276895997
 10
66.70995004391473
 20
7.434591864937666
 10
66.81322019520057
 20
7.446071899494967
 10
66.91622949066938
 20
7.459695422793139
 10
67.01893344466362
 20
7.475456551369042
 10
67.12128770339069
 20
7.493348478612035
 10
67.22324806407762
 20
7.513363477703422
 10
67.22324806409733
 20
7.513363477608273
 10
67.75755986606245
 20
7.629641585601178
 10
68.29187166802757
 20
7.75559704446988
 10
68.82618346999269
 20
7.888769285437164
 10
69.3604952719578
 20
8.026556758232346
 10
69.89480707392292
 20
8.166267752972473
 10
70.42911887588804
 20
8.30517298333222
 10
70.96343067785315
 20
8.440558903778246
 10
71.49774247981827
 20
8.569780719303537
 10
72.03205428178339
 20
8.690314052104462
 10
72.5663660837485
 20
8.799804255880119
 10
73.10067788571362
 20
8.8961124143879
 10
73.63498968767874
 20
8.977357125662841
 10
74.16930148964386
 20
9.041951255636505
 10
74.70361329160897
 20
9.088632943165024
 10
75.23792509357409
 20
9.116490250775968
 10
75.77223689553921
 20
9.12497897957602
 10
76.30654869750433
 20
9.113933300301149
 10
76.84086049946944
 20
9.083568992829356
 10
77.37517230143456
 20
9.03447923087122
 10
77.90948410339968
 20
8.967622994185461
 10
78.44379590536481
 20
8.884306334689384
 10
78.97810770732993
 20
8.78615686243512
 10
79.51241950929504
 20
8.675091949874002
 10
80.04673131126016
 20
8.55328127554592
 10
80.58104311322528
 20
8.423104438911466
 10
81.1153549151904
 20
8.287104474330661
 10
81.64966671715551
 20
8.147938172303554
 10
82.18397851912063
 20
8.008324178458366
 10
82.71829032108575
 20
7.87098988418569
 10
83.25260212305086
 20
7.738618146422112
 10
83.78691392501598
 20
7.613794877424638
 10
84.3212257269811
 20
7.498958528381664
 10
84.85553752894621
 20
7.396352453709746
 10
85.38984933091133
 20
7.3079810866105674
 10
85.92416113287645
 20
7.235570782008608
 10
86.45847293484157
 20
7.180536091811753
 10
86.99278473680668
 20
7.143952131315338
 10
87.5270965387718
 20
7.126533576578282
 10
88.06140834073692
 20
7.128620703062374
 10
88.59572014270204
 20
7.150172738273056
 10
89.13003194466715
 20
7.190768658259472
 10
89.66434374663227
 20
7.2496154124139025
 10
90.19865554859739
 20
7.3255634158972995
 10
90.7329673505625
 20
7.417129007042746
 10
91.26727915252762
 20
7.522523431026414
 10
91.80159095449274
 20
7.639687783603314
 10
92.33590275645786
 20
7.766333232273901
 10
92.87021455842299
 20
7.8999857291519575
 10
93.40452636038809
 20
8.038034342057415
 10
93.40452636038809
 20
8.038034342057422
 10
93.48710883403456
 20
8.060836653795
 10
93.56900652115257
 20
8.085987781381341
 10
93.65015263135398
 20
8.113467213204544
 10
93.7304809871875
 20
8.143252538840287
 10
93.80992607810877
 20
8.17531946732835
 10
93.88842311390637
 20
8.209641846982677
 10
93.96590807754056
 20
8.24619168671903
 10
94.04231777735136
 20
8.284939178882638
 10
94.11758989859351
 20
8.325852723557404
 10
94.19166305425628
 20
8.368898954336686
 10
94.26447683512676
 20
8.414042765534802
 10
94.33597185905559
 20
8.46124734081689
 10
94.40608981938516
 20
8.510474183223906
 10
94.47477353250076
 20
8.561683146568221
 10
94.5419669844657
 20
8.61483246817425
 10
94.60761537670267
 20
8.669878802937305
 10
94.67166517068384
 20
8.726777258673067
 10
94.73406413159341
 20
8.785481432728673
 10
94.79476137092688
 20
8.845943449825711
 10
94.79476137092688
 20
0.12502102042398633
 10
90.01183862907314
 20
0.12502102042398916
 10
90.01183862907314
 20
0.12502102042398916
 10
89.96089063156397
 20
0.18301920415840006
 10
89.90162194949968
 20
0.2324834447069694
 10
89.83544542682311
 20
0.2722346159239471
 10
89.76393857624359
 20
0.30132513133501737
 10
89.68880597456616
 20
0.31906153265730497
 10
89.61183862907313
 20
0.32502102042398917
 10
86.41183862907315
 20
0.32502102042398917
 10
86.33487128358011
 20
0.31906153265730497
 10
86.25973868190269
 20
0.3013251313350174
 10
86.18823183132317
 20
0.2722346159239471
 10
86.1220553086466
 20
0.23248344470696936
 10
86.06278662658231
 20
0.18301920415840012
 10
86.01183862907314
 20
0.12502102042398916
 10
86.01183862907314
 20
0.12502102042398916
 10
75.56183862907312
 20
0.12502102042398916
 10
75.56183862907312
 20
0.12502102042398916
 10
75.51089063156395
 20
0.18301920415840012
 10
75.45162194949967
 20
0.23248344470696936
 10
75.3854454268231
 20
0.2722346159239471
 10
75.31393857624357
 20
0.3013251313350174
 10
75.23880597456615
 20
0.31906153265730497
 10
75.16183862907312
 20
0.32502102042398917
 10
72.38683862907313
 20
0.32502102042398917
 10
72.38683862907313
 20
0.32502102042398917
 10
72.38683862907313
 20
3.8750210204239863
 10
72.36375426768902
 20
4.168335642374416
 10
72.29506959712654
 20
4.454427884877013
 10
72.18247586192632
 20
4.726253207435633
 10
72.02874549352616
 20
4.977118368472375
 10
71.83766384379791
 20
5.200846235148759
 10
71.61393597712151
 20
5.391927884877013
 10
71.36307081608479
 20
5.545658253277175
 10
71.09124549352616
 20
5.658251988477403
 10
70.80515325102357
 20
5.726936659039872
 10
70.51183862907313
 20
5.750021020423986
 10
70.2185240071227
 20
5.726936659039872
 10
69.9324317646201
 20
5.658251988477403
 10
69.66060644206148
 20
5.545658253277175
 10
69.40974128102474
 20
5.391927884877013
 10
69.18601341434835
 20
5.200846235148759
 10
68.9949317646201
 20
4.977118368472375
 10
68.84120139621994
 20
4.726253207435633
 10
68.72860766101972
 20
4.454427884877013
 10
68.65992299045725
 20
4.168335642374416
 10
68.63683862907313
 20
3.8750210204239863
 10
68.63683862907313
 20
0.12502102042398633
 10
66.01183862907313
 20
0.12502102042398633
  0
LWPOLYLINE
  5
34
330
17
100
AcDbEntity
  8
CONTOUR
100
AcDbPolyline
 90
158
 70
1
 10
0.875
 20
15.527040702570346
 10
3.5
 20
15.527040702570346
 10
3.5
 20
19.277040702570346
 10
3.5230843613841163
 20
19.570355324520776
 10
3.591769031946587
 20
19.856447567023373
 10
3.70436276714681
 20
20.128272889581993
 10
3.858093135546973
 20
20.379138050618735
 10
4.049174785275223
 20
20.60286591729512
 10
4.272902651951613
 20
20.793947567023373
 10
4.52376781298835
 20
20.947677935423535
 10
4.795593135546973
 20
21.060271670623763
 10
5.081685378049567
 20
21.128956341186232
 10
5.375
 20
21.152040702570346
 10
5.668314621950433
 20
21.128956341186232
 10
5.954406864453027
 20
21.060271670623763
 10
6.22623218701165
 20
20.947677935423535
 10
6.477097348048387
 20
20.793947567023373
 10
6.700825214724777
 20
20.60286591729512
 10
6.891906864453027
 20
20.379138050618735
 10
7.04563723285319
 20
20.128272889581993
 10
7.158230968053413
 20
19.856447567023373
 10
7.226915638615884
 20
19.570355324520776
 10
7.25
 20
19.277040702570346
 10
7.25
 20
15.72704070257035
 10
7.25
 20
15.72704070257035
 10
10.025
 20
15.72704070257035
 10
10.101967345493028
 20
15.721081214803666
 10
10.177099947170454
 20
15.703344813481378
 10
10.24860679774998
 20
15.674254298070307
 10
10.314783320426551
 20
15.63450312685333
 10
10.374052002490837
 20
15.58503888630476
 10
10.425
 20
15.52704070257035
 10
10.425
 20
15.52704070257035
 10
20.875
 20
15.52704070257035
 10
20.875
 20
15.52704070257035
 10
20.925947997509162
 20
15.58503888630476
 10
20.98521667957345
 20
15.63450312685333
 10
21.051393202250022
 20
15.674254298070307
 10
21.122900052829547
 20
15.703344813481378
 10
21.198032654506974
 20
15.721081214803666
 10
21.275
 20
15.72704070257035
 10
24.475
 20
15.72704070257035
 10
24.551967345493026
 20
15.721081214803666
 10
24.627099947170453
 20
15.703344813481378
 10
24.698606797749978
 20
15.674254298070307
 10
24.76478332042655
 20
15.63450312685333
 10
24.824052002490838
 20
15.58503888630476
 10
24.875
 20
15.52704070257035
 10
24.875
 20
15.52704070257035
 10
29.875
 20
15.527040702570346
 10
29.875
 20
19.95833205916699
 10
29.875
 20
19.95833205916699
 10
29.86720451098776
 20
20.174462030305875
 10
29.843858557050336
 20
20.38946877556794
 10
29.80508346693933
 20
20.602234906473015
 10
29.751080754514007
 20
20.81165467899735
 10
29.68213107147527
 20
21.016639740117157
 10
29.598592748820796
 20
21.21612478397136
 10
29.50089993460149
 20
21.4090730882483
 10
29.389560337657237
 20
21.594481902024036
 10
29.26515258905777
 20
21.77138765705152
 10
29.128323234961254
 20
21.938870975417757
 10
28.97978337651863
 20
22.096061447544024
 10
28.82030497428614
 20
22.242142155698133
 10
28.650716836351986
 20
22.37635391950988
 10
28.47190031102674
 20
22.49799924142586
 10
28.284784706482668
 20
22.60644593159914
 10
28.09034246114592
 20
22.70113039337528
 10
27.889584089941188
 20
22.78156055230002
 10
27.683552932653043
 20
22.847318413426592
 10
27.473319731696687
 20
22.898062233632395
 10
27.473319731696648
 20
22.898062233632203
 10
26.97040320894848
 20
23.005568614756122
 10
26.46748668620031
 20
23.122101771685443
 10
25.964570163452137
 20
23.24564449447533
 10
25.461653640703968
 20
23.374058236332814
 10
24.9587371179558
 20
23.505120132247157
 10
24.45582059520763
 20
23.63656147718372
 10
23.95290407245946
 20
23.7661069977769
 10
23.449987549711288
 20
23.89151423772212
 10
22.94707102696312
 20
24.010612375098475
 10
22.44415450421495
 20
24.12133979968739
 10
21.94123798146678
 20
24.221779799816986
 10
21.43832145871861
 20
24.3101937409865
 10
20.93540493597044
 20
24.385051161942748
 10
20.432488413222273
 20
24.44505626724024
 10
19.9295718904741
 20
24.48917035769381
 10
19.42665536772593
 20
24.51662981044867
 10
18.923738844977763
 20
24.526959297429656
 10
18.42082232222959
 20
24.519980013355834
 10
17.917905799481424
 20
24.49581277089213
 10
17.41498927673325
 20
24.454875909360346
 10
16.912072753985083
 20
24.397878053210114
 10
16.409156231236913
 20
24.325805845601977
 10
15.906239708488743
 20
24.239906869436503
 10
15.403323185740573
 20
24.14166805146946
 10
14.900406662992404
 20
24.032789923341753
 10
14.397490140244233
 20
23.9151571850703
 10
13.894573617496064
 20
23.7908060805511
 10
13.391657094747895
 20
23.66188914981052
 10
12.888740571999724
 20
23.53063796814955
 10
12.385824049251555
 20
23.39932451717319
 10
11.882907526503384
 20
23.27022185637955
 10
11.379991003755215
 20
23.145564776090296
 10
10.877074481007046
 20
23.027511112827504
 10
10.374157958258877
 20
22.91810439677463
 10
9.871241435510704
 20
22.81923847790081
 10
9.368324912762535
 20
22.73262474307665
 10
8.865408390014366
 20
22.659762491659095
 10
8.362491867266197
 20
22.60191298234942
 10
7.859575344518028
 20
22.560077600577806
 10
7.356658821769855
 20
22.534980524341158
 10
6.853742299021686
 20
22.52705618855142
 10
6.350825776273517
 20
22.536441764889034
 10
5.847909253525348
 20
22.562974787336373
 10
5.344992730777179
 20
22.60619596449382
 10
4.84207620802901
 20
22.665357129996664
 10
4.339159685280837
 20
22.73943419340965
 10
3.836243162532668
 20
22.827144867416962
 10
3.3333266397844987
 20
22.926970864446737
 10
2.830410117036328
 20
23.0371841785025
 10
2.8304101170811524
 20
23.037184178698894
 10
2.689214175217524
 20
23.067272633529086
 10
2.547208427528398
 20
23.093272186142116
 10
2.4045112591451776
 20
23.115161161637488
 10
2.261241631612066
 20
23.132921311956352
 10
2.1175189837120474
 20
23.146537831094278
 10
1.9734631318950555
 20
23.155999367444487
 10
1.829194170391247
 20
23.161298033261296
 10
1.6848323710927318
 20
23.162429411235834
 10
1.5404980832871846
 20
23.159392558178602
 10
1.3963116333269259
 20
23.15219000580577
 10
1.2523932243171316
 20
23.14082775862859
 10
1.108862835906793
 20
23.125315288947633
 10
0.9658401242659487
 20
23.105665528956067
 10
0.8234443223326142
 20
23.08189485995858
 10
0.6817941404125136
 20
23.054023098714836
 10
0.5410076672145436
 20
23.022073480918955
 10
0.4012022714044132
 20
22.986072641828756
 10
0.2624945037585764
 20
22.94605059406088
 10
0.125
 20
22.902040702570346
 10
0.125
 20
22.277040702570346
 10
0.125
 20
22.277040702570346
 10
0.20897335707748077
 20
22.272324859990277
 10
0.29189070046723486
 20
22.258236636706712
 10
0.3727092964663754
 20
22.234953200301618
 10
0.45041280433816944
 20
22.20276735349716
 10
0.5240240573865016
 20
22.16208385199156
 10
0.5926173513940505
 20
22.11341431442137
 10
0.6553300858899114
 20
22.057370788460254
 10
0.7113736118510232
 20
21.9946580539644
 10
0.7600431494212128
 20
21.92606475995685
 10
0.8007266509268138
 20
21.852453506908518
 10
0.8329124977312752
 20
21.77474999903672
 10
0.8561959341363679
 20
21.69393140303758
 10
0.8702841574199311
 20
21.61101405964783
 10
0.875
 20
21.527040702570346
 10
0.875
 20
15.527040702570346
  0
LWPOLYLINE
  5
35
330
17
100
AcDbEntity
  8
CONTOUR
100
AcDbPolyline
 90
158
 70
1
 10
4.289907983311409
 20
31.11851989975814
 10
4.289907983311409
 20
37.11851989975814
 10
4.289907983311409
 20
37.11851989975814
 10
4.28519214073134
 20
37.20249325683562
 10
4.2711039174477765
 20
37.285410600225376
 10
4.247820481042684
 20
37.366229196224516
 10
4.2156346342382225
 20
37.44393270409631
 10
4.174951132732621
 20
37.517543957144646
 10
4.126281595162432
 20
37.586137251152195
 10
4.07023806920132
 20
37.64884998564805
 10
4.007525334705459
 20
37.704893511609164
 10
3.9389320406979103
 20
37.753563049179355
 10
3.865320787649578
 20
37.79424655068495
 10
3.787617279777784
 20
37.82643239748941
 10
3.7067986837786435
 20
37.84971583389451
 10
3.6238813403888894
 20
37.86380405717807
 10
3.5399079833114087
 20
37.86851989975814
 10
3.5399079833114087
 20
38.49351989975814
 10
3.5399079833114087
 20
38.49351989975814
 10
3.609994984791701
 20
38.46693520828985
 10
3.6804726540731565
 20
38.44140421282127
 10
3.751325150782028
 20
38.41693265163113
 10
3.822536550299345
 20
38.39352602488253
 10
3.894090847340099
 20
38.37118959338673
 10
3.96597195955054
 20
38.34992837742073
 10
4.03816373112282
 20
38.32974715559898
 10
4.110649936426107
 20
38.31065046379927
 10
4.183414283653427
 20
38.29264259414334
 10
4.256440418483368
 20
38.27572759403214
 10
4.329711927755838
 20
38.25990926523616
 10
4.403212343161027
 20
38.24519116304098
 10
4.476925144940793
 20
38.23157659544814
 10
4.550833765601597
 20
38.2190686224317
 10
4.624921593638176
 20
38.207670055250446
 10
4.699171977267083
 20
38.197383455816066
 10
4.77356822816931
 20
38.18821113611733
 10
4.848093625241111
 20
38.18015515770044
 10
4.922731418352189
 20
38.17321733120572
 10
4.9227314183912405
 20
38.17321733166301
 10
5.4409697443586165
 20
38.13778369238567
 10
5.959208070325992
 20
38.1203753415829
 10
6.477446396293367
 20
38.12131223332875
 10
6.995684722260743
 20
38.14057714816719
 10
7.513923048228117
 20
38.17781600959447
 10
8.032161374195493
 20
38.232344391753124
 10
8.550399700162869
 20
38.303160098730444
 10
9.068638026130243
 20
38.38896158426231
 10
9.586876352097619
 20
38.488171873300146
 10
10.105114678064993
 20
38.598967545778386
 10
10.623353004032369
 20
38.71931224987974
 10
11.141591329999745
 20
38.8469941288465
 10
11.659829655967119
 20
38.979666473457506
 10
12.178067981934495
 20
39.114890853005065
 10
12.696306307901871
 20
39.25018193205257
 10
13.214544633869245
 20
39.38305314927034
 10
13.732782959836621
 20
39.51106241880255
 10
14.251021285803995
 20
39.63185701420412
 10
14.769259611771371
 20
39.743216810010196
 10
15.287497937738745
 20
39.8430950861866
 10
15.805736263706121
 20
39.92965614550212
 10
16.323974589673497
 20
40.00130905244005
 10
16.84221291564087
 20
40.05673687354988
 10
17.360451241608246
 20
40.094920881820734
 10
17.878689567575623
 20
40.115159280215806
 10
18.396927893542998
 20
40.117080100241864
 10
18.915166219510375
 20
40.10064803848619
 10
19.43340454547775
 20
40.06616510547023
 10
19.951642871445124
 20
40.014265074894176
 10
20.4698811974125
 20
39.945901835291906
 10
20.988119523379876
 20
39.86233185818515
 10
21.50635784934725
 20
39.76509110496071
 10
22.024596175314624
 20
39.65596679690723
 10
22.542834501282
 20
39.53696456725968
 10
23.061072827249376
 20
39.41027159897551
 10
23.57931115321675
 20
39.27821642574591
 10
24.097549479184128
 20
39.14322613507323
 10
24.615787805151502
 20
39.00778175999402
 10
25.134026131118876
 20
38.87437267931853
 10
25.65226445708625
 20
38.7454508644803
 10
26.170502783053628
 20
38.623385813908804
 10
26.688741109021002
 20
38.51042100320196
 10
27.206979434988376
 20
38.408632651515504
 10
27.725217760955754
 20
38.31989156201619
 10
28.24345608692313
 20
38.24582873774615
 10
28.761694412890503
 20
38.18780540485641
 10
29.27993273885788
 20
38.14688799416265
 10
29.798171064825254
 20
38.12382854084601
 10
30.316409390792632
 20
38.119050862539616
 10
30.316409390792632
 20
38.11905086253962
 10
30.440488052699642
 20
38.122677479950035
 10
30.56431047145874
 20
38.13143392369869
 10
30.68766465391659
 20
38.14530520210521
 10
30.810339408575096
 20
38.16426756651345
 10
30.932124707166892
 20
38.18828855195085
 10
31.05281204423927
 20
38.21732703271093
 10
31.172194794130995
 20
38.25133329276353
 10
31.29006856473071
 20
38.29024911087239
 10
31.4062315474114
 20
38.3340078602741
 10
31.520484862541686
 20
38.382534622748175
 10
31.632632899982507
 20
38.435746316882536
 10
31.742483653986152
 20
38.49355184031504
 10
31.84984905192434
 20
38.55585222570752
 10
31.95454527628247
 20
38.62254081018513
 10
32.056393079368846
 20
38.693503417951156
 10
32.15521809019999
 20
38.768618555764384
 10
32.250851113036674
 20
38.84775762094457
 10
32.34312841705959
 20
38.93078512154973
 10
32.43189201668859
 20
39.01755890834838
 10
32.43189201668859
 20
31.11851989975814
 10
28.28990798331141
 20
31.118519899758144
 10
28.28990798331141
 20
31.118519899758144
 10
28.238959985802246
 20
31.176518083492557
 10
28.179691303737957
 20
31.225982324041127
 10
28.113514781061387
 20
31.265733495258104
 10
28.042007930481862
 20
31.294824010669174
 10
27.966875328804434
 20
31.31256041199146
 10
27.88990798331141
 20
31.318519899758144
 10
24.689907983311407
 20
31.318519899758144
 10
24.612940637818383
 20
31.31256041199146
 10
24.537808036140955
 20
31.294824010669174
 10
24.46630118556143
 20
31.265733495258104
 10
24.40012466288486
 20
31.225982324041123
 10
24.34085598082057
 20
31.176518083492557
 10
24.28990798331141
 20
31.118519899758144
 10
24.28990798331141
 20
31.118519899758144
 10
13.83990798331141
 20
31.118519899758144
 10
13.83990798331141
 20
31.118519899758144
 10
13.788959985802245
 20
31.176518083492557
 10
13.72969130373796
 20
31.225982324041123
 10
13.663514781061389
 20
31.265733495258104
 10
13.592007930481863
 20
31.294824010669174
 10
13.516875328804437
 20
31.31256041199146
 10
13.439907983311409
 20
31.318519899758144
 10
10.664907983311409
 20
31.318519899758144
 10
10.664907983311409
 20
31.318519899758144
 10
10.664907983311409
 20
34.86851989975814
 10
10.641823621927292
 20
35.16183452170857
 10
10.573138951364822
 20
35.44792676421117
 10
10.460545216164599
 20
35.71975208676979
 10
10.306814847764436
 20
35.97061724780653
 10
10.115733198036185
 20
36.194345114482914
 10
9.892005331359796
 20
36.38542676421117
 10
9.641140170323059
 20
36.53915713261133
 10
9.369314847764436
 20
36.65175086781156
 10
9.083222605261842
 20
36.720435538374026
 10
8.789907983311409
 20
36.74351989975814
 10
8.496593361360976
 20
36.720435538374026
 10
8.210501118858382
 20
36.65175086781156
 10
7.9386757962997585
 20
36.53915713261133
 10
7.6878106352630216
 20
36.38542676421117
 10
7.464082768586632
 20
36.194345114482914
 10
7.273001118858382
 20
35.97061724780653
 10
7.1192707504582184
 20
35.71975208676979
 10
7.006677015257996
 20
35.44792676421117
 10
6.937992344695525
 20
35.16183452170857
 10
6.914907983311409
 20
34.86851989975814
 10
6.914907983311409
 20
31.11851989975814
 10
4.289907983311409
 20
31.11851989975814
  0
LWPOLYLINE
  5
36
330
17
100
AcDbEntity
  8
CONTOUR
100
AcDbPolyline
 90
158
 70
1
 10
65.7683
 20
30.889987400727158
 10
68.3933
 20
30.889987400727158
 10
68.3933
 20
34.63998740072716
 10
68.41638436138412
 20
34.93330202267759
 10
68.48506903194658
 20
35.219394265180185
 10
68.5976627671468
 20
35.491219587738804
 10
68.75139313554698
 20
35.74208474877555
 10
68.94247478527522
 20
35.96581261545193
 10
69.16620265195161
 20
36.156894265180185
 10
69.41706781298835
 20
36.310624633580346
 10
69.68889313554698
 20
36.423218368780574
 10
69.97498537804957
 20
36.49190303934304
 10
70.2683
 20
36.51498740072716
 10
70.56161462195043
 20
36.49190303934304
 10
70.84770686445302
 20
36.423218368780574
 10
71.11953218701164
 20
36.310624633580346
 10
71.37039734804839
 20
36.156894265180185
 10
71.59412521472477
 20
35.96581261545193
 10
71.78520686445302
 20
35.74208474877555
 10
71.93893723285319
 20
35.491219587738804
 10
72.05153096805341
 20
35.219394265180185
 10
72.12021563861587
 20
34.93330202267759
 10
72.1433
 20
34.63998740072716
 10
72.1433
 20
31.08998740072716
 10
72.1433
 20
31.08998740072716
 10
74.91829999999999
 20
31.08998740072716
 10
74.99526734549302
 20
31.084027912960476
 10
75.07039994717044
 20
31.06629151163819
 10
75.14190679774997
 20
31.03720099622712
 10
75.20808332042654
 20
30.99744982501014
 10
75.26735200249082
 20
30.947985584461573
 10
75.3183
 20
30.88998740072716
 10
75.3183
 20
30.88998740072716
 10
85.7683
 20
30.88998740072716
 10
85.7683
 20
30.88998740072716
 10
85.81924799750917
 20
30.947985584461573
 10
85.87851667957345
 20
30.99744982501014
 10
85.94469320225002
 20
31.03720099622712
 10
86.01620005282955
 20
31.06629151163819
 10
86.09133265450697
 20
31.084027912960476
 10
86.1683
 20
31.08998740072716
 10
89.36829999999999
 20
31.08998740072716
 10
89.44526734549302
 20
31.084027912960476
 10
89.52039994717045
 20
31.06629151163819
 10
89.59190679774997
 20
31.03720099622712
 10
89.65808332042654
 20
30.997449825010143
 10
89.71735200249083
 20
30.947985584461573
 10
89.7683
 20
30.88998740072716
 10
89.7683
 20
30.88998740072716
 10
94.7683
 20
30.889987400727158
 10
94.7683
 20
35.00225396235968
 10
94.7683
 20
35.00225396235968
 10
94.75656393946007
 20
35.26735512818618
 10
94.72144758125162
 20
35.53038213179179
 10
94.66322567717856
 20
35.78927703928453
 10
94.5823537577682
 20
36.04201424645919
 10
94.47946456818198
 20
36.28661632720638
 10
94.35536311759184
 20
36.52116950497422
 10
94.21102038075591
 20
36.74383862623328
 10
94.04756570107287
 20
36.95288151879191
 10
93.8662779545536
 20
37.14666262262179
 10
93.66857554384359
 20
37.32366578654555
 10
93.45600530058353
 20
37.4825061306648
 10
93.230230382936
 20
37.621940881716384
 10
92.99301726296893
 20
37.74087909658048
 10
92.74622190570688
 20
37.83839019786365
 10
92.49177524798569
 20
37.91371125477392
 10
92.23166809072482
 20
37.96625295232207
 10
91.96793552282062
 20
37.99560420214589
 10
91.70264099852858
 20
38.00153535888216
 10
91.43786019291406
 20
37.98400001692117
 10
91.43786019291407
 20
37.98400001692108
 10
90.9450360145999
 20
37.93706646821309
 10
90.45221183628576
 20
37.90597366422235
 10
89.95938765797159
 20
37.89123847172526
 10
89.46656347965742
 20
37.89310583908506
 10
88.97373930134327
 20
37.91154472438773
 10
88.4809151230291
 20
37.94624861146286
 10
87.98809094471495
 20
37.99664060521129
 10
87.49526676640079
 20
38.061883021538215
 10
87.00244258808664
 20
38.140891312474864
 10
86.50961840977247
 20
38.23235209500637
 10
86.0167942314583
 20
38.334744983906326
 10
85.52397005314415
 20
38.44636786564298
 10
85.03114587482999
 20
38.565365193219876
 10
84.53832169651582
 20
38.68975883159572
 10
84.04549751820167
 20
38.8174809409291
 10
83.55267333988752
 20
38.946408351018114
 10
83.05984916157335
 20
39.07439785551626
 10
82.56702498325919
 20
39.199321839216374
 10
82.07420080494504
 20
39.31910364615746
 10
81.58137662663087
 20
39.431752100617814
 10
81.0885524483167
 20
39.535394607139615
 10
80.59572827000255
 20
39.62830827935145
 10
80.10290409168839
 20
39.70894858012327
 10
79.61007991337424
 20
39.77597499695835
 10
79.11725573506007
 20
39.8282733258108
 10
78.62443155674592
 20
39.86497419289712
 10
78.13160737843175
 20
39.885467506606794
 10
77.63878320011759
 20
39.889412599272845
 10
77.14595902180344
 20
39.87674389021206
 10
76.65313484348927
 20
39.847671975896056
 10
76.16031066517512
 20
39.802680129131026
 10
75.66748648686095
 20
39.74251626544137
 10
75.1746623085468
 20
39.668180510203065
 10
74.68183813023263
 20
39.58090857320265
 10
74.18901395191847
 20
39.482151206992434
 10
73.69618977360432
 20
39.37355009051315
 10
73.20336559529015
 20
39.25691053887904
 10
72.71054141697599
 20
39.13417149298052
 10
72.21771723866183
 20
39.007373287777774
 10
71.72489306034767
 20
38.878623735084666
 10
71.23206888203352
 20
38.75006308466074
 10
70.73924470371935
 20
38.623828446075684
 10
70.2464205254052
 20
38.502018262774364
 10
69.75359634709103
 20
38.38665742890255
 10
69.26077216877687
 20
38.27966362876898
 10
68.76794799046272
 20
38.182815458494694
 10
68.27512381214855
 20
38.09772285977507
 10
67.7822996338344
 20
38.025800357244464
 10
67.28947545552023
 20
37.96824354432847
 10
67.28947545552303
 20
37.96824354430084
 10
67.16832870821133
 20
37.95743099488602
 10
67.04695480149094
 20
37.94956840138994
 10
66.92542555689336
 20
37.944660416406585
 10
66.80381288786938
 20
37.94270994417631
 10
66.68218875723521
 20
37.94371813886729
 10
66.56062513458927
 20
37.947684403892616
 10
66.43919395372517
 20
37.954606392263244
 10
66.31796707006566
 20
37.96448000797683
 10
66.19701621814315
 20
37.977299408441496
 10
66.0764129691516
 20
37.993057007933096
 10
65.95622868859519
 20
38.011743482084
 10
65.83653449405861
 20
38.03334777340064
 10
65.71740121312413
 20
38.05785709780669
 10
65.59889934146022
 20
38.08525695220783
 10
65.4810990011066
 20
38.115531123073836
 10
65.36406989898036
 20
38.14866169603271
 10
65.24788128562781
 20
38.18462906647129
 10
65.13260191424622
 20
38.223411951136036
 10
65.0183
 20
38.26498740072716
 10
65.0183
 20
37.63998740072716
 10
65.0183
 20
37.63998740072716
 10
65.10227335707748
 20
37.63527155814709
 10
65.18519070046723
 20
37.621183334863524
 10
65.26600929646636
 20
37.59789989845843
 10
65.34371280433817
 20
37.56571405165397
 10
65.4173240573865
 20
37.52503055014837
 10
65.48591735139405
 20
37.47636101257818
 10
65.54863008588991
 20
37.420317486617066
 10
65.60467361185101
 20
37.35760475212121
 10
65.6533431494212
 20
37.28901145811366
 10
65.69402665092682
 20
37.21540020506533
 10
65.72621249773127
 20
37.13769669719353
 10
65.74949593413636
 20
37.05687810119439
 10
65.76358415741993
 20
36.97396075780464
 10
65.7683
 20
36.88998740072716
 10
65.7683
 20
30.889987400727158
  0
LWPOLYLINE
  5
37
330
17
100
AcDbEntity
  8
CONTOUR
100
AcDbPolyline
 90
158
 70
1
 10
30.400589406712797
 20
14.885240409400254
 10
30.400589406712797
 20
8.885240409400254
 10
30.400589406712797
 20
8.885240409400254
 10
30.405305249292866
 20
8.801267052322771
 10
30.419393472576427
 20
8.718349708933019
 10
30.442676908981518
 20
8.637531112933878
 10
30.47486275578598
 20
8.559827605062083
 10
30.515546257291582
 20
8.486216352013749
 10
30.564215794861774
 20
8.4176230580062
 10
30.620259320822882
 20
8.354910323510346
 10
30.682972055318743
 20
8.29886679754923
 10
30.75156534932629
 20
8.25019725997904
 10
30.825176602374626
 20
8.209513758473442
 10
30.90288011024642
 20
8.177327911668982
 10
30.98369870624556
 20
8.154044475263888
 10
31.066616049635314
 20
8.139956251980323
 10
31.150589406712797
 20
8.135240409400254
 10
31.150589406712797
 20
7.510240409400254
 10
31.150589406712797
 20
7.510240409400254
 10
31.060932850089685
 20
7.497483341630883
 10
30.971059953495374
 20
7.486352152056838
 10
30.881000198981972
 20
7.476850492171792
 10
30.790783129898777
 20
7.4689814789157865
 10
30.700438341200815
 20
7.4627476936528225
 10
30.609995469740447
 20
7.458151181324013
 10
30.519484184545284
 20
7.4551934497768
 10
30.428934177085488
 20
7.4538754692702724
 10
30.338375151533725
 20
7.4541976721569085
 10
30.247836815020978
 20
7.456159952740755
 10
30.157348867891365
 20
7.45976166731208
 10
30.066940993959186
 20
7.465001634358529
 10
29.97664285077139
 20
7.471878134952739
 10
29.886484059878697
 20
7.480388913316197
 10
29.79649419711844
 20
7.490531177559241
 10
29.70670278291252
 20
7.502301600596908
 10
29.61713927258343
 20
7.515696321240348
 10
29.527833046691704
 20
7.530710945463483
 10
29.438813401397887
 20
7.547340547844399
 10
29.4388134014746
 20
7.547340548235418
 10
28.936406841679286
 20
7.639908046095343
 10
28.43400028188397
 20
7.719438552493273
 10
27.931593722088657
 20
7.784558166545608
 10
27.429187162293342
 20
7.834141937597089
 10
26.926780602498027
 20
7.8673332989043985
 10
26.424374042702713
 20
7.883558864949272
 10
25.921967482907398
 20
7.882538336755445
 10
25.419560923112083
 20
7.864289344093564
 10
24.91715436331677
 20
7.829127140924385
 10
24.414747803521454
 20
7.777659159341468
 10
23.91234124372614
 20
7.710774516094801
 10
23.40993468393082
 20
7.629628652971675
 10
22.90752812413551
 20
7.53562337637436
 10
22.40512156434019
 20
7.430382640913855
 10
21.90271500454488
 20
7.3157244953614935
 10
21.400308444749562
 20
7.193629675596121
 10
20.89790188495425
 20
7.066207387108264
 10
20.395495325158933
 20
6.935658868173299
 10
19.893088765363622
 20
6.804239363145136
 10
19.390682205568304
 20
6.674219162787125
 10
18.888275645772993
 20
6.547844384674114
 10
18.385869085977674
 20
6.427298171189804
 10
17.883462526182363
 20
6.314662975429513
 10
17.381055966387045
 20
6.211884586524832
 10
16.87864940659173
 20
6.120738515857823
 10
16.376242846796416
 20
6.042799324847714
 10
15.873836287001101
 20
5.979413424176968
 10
15.371429727205786
 20
5.93167581435398
 10
14.869023167410472
 20
5.900411169422561
 10
14.366616607615159
 20
5.886159590599739
 10
13.864210047819844
 20
5.889167275949923
 10
13.36180348802453
 20
5.909382267278119
 10
12.859396928229215
 20
5.946455347715151
 10
12.3569903684339
 20
5.999746074489103
 10
11.854583808638585
 20
6.068333842665851
 10
11.35217724884327
 20
6.151033788731141
 10
10.849770689047956
 20
6.246417259277379
 10
10.347364129252641
 20
6.352836491195795
 10
9.844957569457327
 20
6.468453077020044
 10
9.342551009662012
 20
6.591269723678366
 10
8.840144449866697
 20
6.719164756017321
 10
8.337737890071383
 20
6.849928769043828
 10
7.835331330276068
 20
6.981302795712708
 10
7.332924770480753
 20
7.111017330905753
 10
6.8305182106854385
 20
7.236831537457618
 10
6.328111650890124
 20
7.356571956938559
 10
5.825705091094809
 20
7.468170056460039
 10
5.323298531299491
 20
7.569697962876461
 10
4.82089197150418
 20
7.6594017670697525
 10
4.82089197150418
 20
7.6594017670697525
 10
4.6921954995360995
 20
7.677873074288641
 10
4.56281955826625
 20
7.690750842260876
 10
4.433007144046927
 20
7.698010883717842
 10
4.303002073022212
 20
7.699639562711653
 10
4.173048523187864
 20
7.695633820226483
 10
4.043390575771559
 20
7.6860011799239984
 10
3.914271756794898
 20
7.670759734012336
 10
3.785934579678189
 20
7.649938109264944
 10
3.6586200897471546
 20
7.623575413253235
 10
3.532567411496986
 20
7.5917211608939965
 10
3.408013299464203
 20
7.554435181449563
 10
3.285191693549761
 20
7.511787506155322
 10
3.164333279628691
 20
7.463858236685724
 10
3.0456650562715044
 20
7.410737394705805
 10
2.929409908391163
 20
7.352524752790792
 10
2.815786188616384
 20
7.289329647031337
 10
2.7050073071776115
 20
7.221270771676387
 10
2.5972813310758323
 20
7.148475956199427
 10
2.4928105932872047
 20
7.071081925206684
 10
2.4928105932872047
 20
14.885240409400254
 10
6.400589406712795
 20
14.88524040940025
 10
6.400589406712795
 20
14.88524040940025
 10
6.451537404221958
 20
14.82724222566584
 10
6.5108060862862445
 20
14.77777798511727
 10
6.576982608962816
 20
14.738026813900293
 10
6.648489459542341
 20
14.708936298489222
 10
6.723622061219768
 20
14.691199897166934
 10
6.800589406712795
 20
14.68524040940025
 10
10.000589406712795
 20
14.68524040940025
 10
10.077556752205822
 20
14.691199897166934
 10
10.152689353883249
 20
14.708936298489222
 10
10.224196204462775
 20
14.738026813900293
 10
10.290372727139346
 20
14.77777798511727
 10
10.349641409203631
 20
14.82724222566584
 10
10.400589406712795
 20
14.88524040940025
 10
10.400589406712795
 20
14.88524040940025
 10
20.850589406712796
 20
14.88524040940025
 10
20.850589406712796
 20
14.88524040940025
 10
20.90153740422196
 20
14.82724222566584
 10
20.960806086286247
 20
14.77777798511727
 10
21.02698260896282
 20
14.738026813900293
 10
21.098489459542343
 20
14.708936298489222
 10
21.17362206121977
 20
14.691199897166934
 10
21.250589406712795
 20
14.68524040940025
 10
24.025589406712797
 20
14.68524040940025
 10
24.025589406712797
 20
14.68524040940025
 10
24.025589406712797
 20
11.135240409400254
 10
24.04867376809691
 20
10.841925787449824
 10
24.11735843865938
 20
10.555833544947227
 10
24.229952173859605
 20
10.284008222388607
 10
24.38368254225977
 20
10.033143061351865
 10
24.574764191988017
 20
9.80941519467548
 10
24.798492058664408
 20
9.618333544947227
 10
25.049357219701143
 20
9.464603176547065
 10
25.32118254225977
 20
9.352009441346837
 10
25.607274784762364
 20
9.283324770784368
 10
25.900589406712797
 20
9.260240409400254
 10
26.193904028663226
 20
9.283324770784368
 10
26.47999627116582
 20
9.352009441346837
 10
26.751821593724443
 20
9.464603176547065
 10
27.002686754761182
 20
9.618333544947227
 10
27.22641462143757
 20
9.80941519467548
 10
27.417496271165824
 20
10.033143061351865
 10
27.571226639565985
 20
10.284008222388607
 10
27.683820374766206
 20
10.555833544947227
 10
27.75250504532868
 20
10.841925787449824
 10
27.775589406712797
 20
11.135240409400254
 10
27.775589406712797
 20
14.885240409400254
 10
30.400589406712797
 20
14.885240409400254
  0
LWPOLYLINE
  5
38
330
17
100
AcDbEntity
  8
CONTOUR
100
AcDbPolyline
 90
158
 70
1
 10
95.125
 20
47.87496047223806
 10
92.5
 20
47.87496047223806
 10
92.5
 20
44.12496047223806
 10
92.47691563861588
 20
43.83164585028763
 10
92.40823096805342
 20
43.54555360778503
 10
92.2956372328532
 20
43.27372828522641
 10
92.14190686445303
 20
43.02286312418967
 10
91.95082521472477
 20
42.799135257513285
 10
91.72709734804839
 20
42.60805360778503
 10
91.47623218701165
 20
42.45432323938487
 10
91.20440686445303
 20
42.34172950418464
 10
90.91831462195043
 20
42.27304483362217
 10
90.625
 20
42.24996047223806
 10
90.33168537804957
 20
42.27304483362217
 10
90.04559313554697
 20
42.34172950418464
 10
89.77376781298835
 20
42.45432323938487
 10
89.52290265195161
 20
42.60805360778503
 10
89.29917478527523
 20
42.799135257513285
 10
89.10809313554697
 20
43.02286312418967
 10
88.9543627671468
 20
43.27372828522641
 10
88.84176903194658
 20
43.54555360778503
 10
88.77308436138412
 20
43.83164585028763
 10
88.75
 20
44.12496047223806
 10
88.75
 20
47.674960472238055
 10
88.75
 20
47.674960472238055
 10
85.97500000000001
 20
47.674960472238055
 10
85.89803265450698
 20
47.68091996000474
 10
85.82290005282955
 20
47.69865636132703
 10
85.75139320225003
 20
47.7277468767381
 10
85.68521667957346
 20
47.76749804795508
 10
85.62594799750917
 20
47.816962288503646
 10
85.575
 20
47.87496047223806
 10
85.575
 20
47.87496047223806
 10
75.125
 20
47.87496047223806
 10
75.125
 20
47.87496047223806
 10
75.07405200249083
 20
47.816962288503646
 10
75.01478332042655
 20
47.76749804795508
 10
74.94860679774997
 20
47.7277468767381
 10
74.87709994717045
 20
47.69865636132703
 10
74.80196734549303
 20
47.68091996000474
 10
74.725
 20
47.674960472238055
 10
71.525
 20
47.674960472238055
 10
71.44803265450697
 20
47.68091996000474
 10
71.37290005282955
 20
47.69865636132703
 10
71.30139320225003
 20
47.7277468767381
 10
71.23521667957345
 20
47.76749804795508
 10
71.17594799750917
 20
47.816962288503646
 10
71.125
 20
47.87496047223806
 10
71.125
 20
47.87496047223806
 10
66.125
 20
47.87496047223806
 10
66.125
 20
42.45841248957466
 10
66.125
 20
42.45841248957466
 10
66.13865001913018
 20
42.17255624640548
 10
66.17947586117253
 20
41.8893012986948
 10
66.24710601044382
 20
41.611225270079245
 10
66.34092503172313
 20
41.34085865596567
 10
66.46007917072033
 20
41.08066179599059
 10
66.60348412325092
 20
40.833002484898216
 10
66.76983490241794
 20
40.60013442557797
 10
66.95761771400944
 20
40.38417672033956
 10
67.16512373204506
 20
40.187094587054844
 10
67.39046464911425
 20
40.0106814756502
 10
67.63158985999782
 20
39.85654274768929
 10
67.88630512220152
 20
39.72608106756235
 10
68.15229252359084
 20
39.62048363822237
 10
68.42713157542086
 20
39.540711397623085
 10
68.70832123881476
 20
39.487490274171314
 10
68.99330268424956
 20
39.46130458076922
 10
69.27948257693728
 20
39.46239260756072
 10
69.56425667620468
 20
39.49074445348814
 10
69.84503353411657
 20
39.54610211639195
 10
69.84503353411662
 20
39.54610211639176
 10
70.33816010234904
 20
39.67042002724218
 10
70.83128667058143
 20
39.79814225494885
 10
71.32441323881383
 20
39.92714302466706
 10
71.81753980704624
 20
40.05527528183832
 10
72.31066637527864
 20
40.18040642719638
 10
72.80379294351104
 20
40.30045381118315
 10
73.29691951174345
 20
40.41341939701491
 10
73.79004607997585
 20
40.517423015476105
 10
74.28317264820825
 20
40.61073365795643
 10
74.77629921644066
 20
40.6917982868986
 10
75.26942578467306
 20
40.75926768414306
 10
75.76255235290546
 20
40.812018906956766
 10
76.25567892113787
 20
40.84917397799389
 10
76.74880548937027
 20
40.87011449811762
 10
77.24193205760268
 20
40.87449193887122
 10
77.73505862583508
 20
40.86223344329311
 10
78.22818519406749
 20
40.833543038528745
 10
78.72131176229989
 20
40.78889824005708
 10
79.21443833053229
 20
40.72904210404964
 10
79.7075648987647
 20
40.654970860140914
 10
80.2006914669971
 20
40.56791733044689
 10
80.6938180352295
 20
40.46933041080105
 10
81.18694460346191
 20
40.36085095571685
 10
81.68007117169431
 20
40.24428446844089
 10
82.1731977399267
 20
40.12157105063626
 10
82.66632430815912
 20
39.99475311184563
 10
83.15945087639152
 20
39.865941376169125
 10
83.65257744462393
 20
39.7372797519328
 10
84.14570401285633
 20
39.6109096490478
 10
84.63883058108873
 20
39.488934337952315
 10
85.13195714932114
 20
39.37338394333695
 10
85.62508371755354
 20
39.266181655288335
 10
86.11821028578595
 20
39.169111720224066
 10
86.61133685401835
 20
39.083789744369
 10
87.10446342225075
 20
39.011635804034306
 10
87.59758999048316
 20
38.953850810244354
 10
88.09071655871556
 20
38.91139652109253
 10
88.58384312694795
 20
38.88497953449485
 10
89.07696969518037
 20
38.87503952776195
 10
89.57009626341276
 20
38.88174193972657
 10
90.06322283164516
 20
38.904975217223615
 10
90.55634939987758
 20
38.94435267175142
 10
91.04947596810997
 20
38.999218915412435
 10
91.54260253634239
 20
39.068660769015445
 10
92.03572910457478
 20
39.15152246078751
 10
92.5288556728072
 20
39.246424862732496
 10
93.0219822410396
 20
39.351788444471225
 10
93.515108809272
 20
39.46585956252572
 10
94.0082353775044
 20
39.58673964749564
 10
94.00823537765336
 20
39.58673964690141
 10
94.11480473893127
 20
39.61470696726501
 10
94.22073198739064
 20
39.64501567567247
 10
94.32596568815023
 20
39.67765105518516
 10
94.43045474309345
 20
39.712597259107405
 10
94.53414841567978
 20
39.74983731868118
 10
94.63699635558098
 20
39.789353151325585
 10
94.7389486231295
 20
39.831125569417146
 10
94.83995571356762
 20
39.87513428960674
 10
94.93996858108537
 20
39.921357942668536
 10
95.03893866263562
 20
39.96977408387617
 10
95.1368179015147
 20
40.020359203901236
 10
95.23355877069726
 20
40.07308874022864
 10
95.32911429591381
 20
40.12793708908337
 10
95.42343807845995
 20
40.18487761786286
 10
95.51648431772611
 20
40.243882678068964
 10
95.60820783343682
 20
40.304923618733135
 10
95.69856408758885
 20
40.367970800328465
 10
95.7875092060774
 20
40.432993609161656
 10
95.875
 20
40.49996047223806
 10
95.875
 20
41.12496047223806
 10
95.875
 20
41.12496047223806
 10
95.79102664292252
 20
41.12967631481813
 10
95.70810929953277
 20
41.14376453810169
 10
95.62729070353362
 20
41.16704797450679
 10
95.54958719566183
 20
41.199233821311246
 10
95.4759759426135
 20
41.239917322816844
 10
95.40738264860595
 20
41.288586860387035
 10
95.34466991411009
 20
41.34463038634815
 10
95.28862638814897
 20
41.407343120844004
 10
95.23995685057879
 20
41.47593641485155
 10
95.19927334907318
 20
41.54954766789989
 10
95.16708750226873
 20
41.62725117577168
 10
95.14380406586363
 20
41.70806977177082
 10
95.12971584258007
 20
41.790987115160576
 10
95.125
 20
41.87496047223806
 10
95.125
 20
47.87496047223806
  0
LWPOLYLINE
  5
39
330
17
100
AcDbEntity
  8
CONTOUR
100
AcDbPolyline
 90
158
 70
1
 10
66.875
 20
30.22464526407157
 10
70.05
 20
30.224645264071565
 10
70.05
 20
30.224645264071565
 10
70.10094799750917
 20
30.166647080337153
 10
70.16021667957345
 20
30.117182839788587
 10
70.22639320225002
 20
30.077431668571606
 10
70.29790005282955
 20
30.048341153160536
 10
70.37303265450697
 20
30.03060475183825
 10
70.45
 20
30.024645264071566
 10
73.64999999999999
 20
30.024645264071566
 10
73.72696734549302
 20
30.03060475183825
 10
73.80209994717045
 20
30.048341153160536
 10
73.87360679774997
 20
30.077431668571606
 10
73.93978332042654
 20
30.117182839788583
 10
73.99905200249083
 20
30.166647080337153
 10
74.05
 20
30.224645264071565
 10
74.05
 20
30.224645264071565
 10
81.55
 20
30.224645264071565
 10
81.55
 20
30.224645264071565
 10
81.60094799750917
 20
30.166647080337153
 10
81.66021667957345
 20
30.117182839788587
 10
81.72639320225002
 20
30.077431668571606
 10
81.79790005282955
 20
30.048341153160536
 10
81.87303265450697
 20
30.03060475183825
 10
81.95
 20
30.024645264071566
 10
85.14999999999999
 20
30.024645264071566
 10
85.22696734549302
 20
30.03060475183825
 10
85.30209994717045
 20
30.048341153160536
 10
85.37360679774997
 20
30.077431668571606
 10
85.43978332042654
 20
30.117182839788583
 10
85.49905200249083
 20
30.166647080337153
 10
85.55
 20
30.224645264071565
 10
85.55
 20
30.224645264071565
 10
90.7
 20
30.224645264071565
 10
90.7
 20
30.224645264071565
 10
90.75094799750917
 20
30.166647080337153
 10
90.81021667957346
 20
30.117182839788587
 10
90.87639320225003
 20
30.077431668571606
 10
90.94790005282955
 20
30.048341153160536
 10
91.02303265450698
 20
30.03060475183825
 10
91.10000000000001
 20
30.024645264071566
 10
94.3
 20
30.024645264071566
 10
94.37696734549303
 20
30.03060475183825
 10
94.45209994717045
 20
30.048341153160536
 10
94.52360679774998
 20
30.077431668571606
 10
94.58978332042655
 20
30.117182839788583
 10
94.64905200249083
 20
30.166647080337153
 10
94.7
 20
30.224645264071565
 10
94.7
 20
30.224645264071565
 10
95.875
 20
30.22464526407157
 10
95.875
 20
26.26728083378525
 10
95.875
 20
26.26728083378525
 10
95.86362790174334
 20
26.006314811243612
 10
95.82959782338587
 20
25.747327276201972
 10
95.77316776052409
 20
25.492281716457484
 10
95.694765531971
 20
25.243111734120383
 10
95.59498553629102
 20
25.001706386205164
 10
95.47458424542745
 20
24.769895862935947
 10
95.33447446958691
 20
24.549437612344427
 10
95.1757184368611
 20
24.342003016355413
 10
94.99951974005204
 20
24.149164719373857
 10
94.80721421175491
 20
23.972384705440362
 10
94.60025979687846
 20
23.81300321434712
 10
94.38022549938309
 20
23.672228580745454
 10
94.14877948703611
 20
23.551128073278946
 10
93.90767644436654
 20
23.450619803194158
 10
93.65874426970186
 20
23.371465763773095
 10
93.40387021714173
 20
23.31426605335823
 10
93.14498658853205
 20
23.279454325767617
 10
92.88405608391385
 20
23.267294502592364
 10
92.62305692151159
 20
23.277878772301754
 10
92.6230569215117
 20
23.277878772303204
 10
92.18471427932081
 20
23.320968027242806
 10
91.74637163712993
 20
23.375945078923486
 10
91.30802899493902
 20
23.442086708933672
 10
90.86968635274812
 20
23.51852282978897
 10
90.43134371055723
 20
23.604247930858634
 10
89.99300106836633
 20
23.698134305771845
 10
89.55465842617544
 20
23.79894688729859
 10
89.11631578398453
 20
23.90535949455338
 10
88.67797314179364
 20
24.015972278791345
 10
88.23963049960274
 20
24.12933013829874
 10
87.80128785741184
 20
24.243941860131493
 10
87.36294521522095
 20
24.358299736893898
 10
86.92460257303006
 20
24.470899400500436
 10
86.48625993083915
 20
24.580259612009236
 10
86.04791728864825
 20
24.684941747193655
 10
85.60957464645736
 20
24.783568721520872
 10
85.17123200426647
 20
24.87484310558112
 10
84.73288936207557
 20
24.957564192660612
 10
84.29454671988466
 20
25.030643793935567
 10
83.85620407769377
 20
25.09312055350317
 10
83.41786143550289
 20
25.14417259493618
 10
82.97951879331198
 20
25.183128332997043
 10
82.54117615112108
 20
25.209475308284212
 10
82.10283350893019
 20
25.222866928591763
 10
81.66449086673929
 20
25.223127028300212
 10
81.2261482245484
 20
25.210252185820146
 10
80.78780558235749
 20
25.184411768602935
 10
80.3494629401666
 20
25.145945705126437
 10
79.9111202979757
 20
25.095360013164928
 10
79.4727776557848
 20
25.03332014316856
 10
79.0344350135939
 20
24.960642224319635
 10
78.59609237140302
 20
24.878282328423033
 10
78.15774972921211
 20
24.787323892863405
 10
77.71940708702121
 20
24.68896346807906
 10
77.28106444483032
 20
24.58449497704332
 10
76.84272180263942
 20
24.475292693818503
 10
76.40437916044853
 20
24.362793165098203
 10
75.96603651825762
 20
24.248476312558424
 10
75.52769387606673
 20
24.133845964614537
 10
75.08935123387583
 20
24.020410073687145
 10
74.65100859168494
 20
23.909660879216986
 10
74.21266594949404
 20
23.80305527738274
 10
73.77432330730315
 20
23.70199565575645
 10
73.33598066511225
 20
23.60781144501498
 10
72.89763802292134
 20
23.521741630393194
 10
72.45929538073045
 20
23.44491845293919
 10
72.02095273853956
 20
23.378352514980165
 10
71.58261009634866
 20
23.32291948573527
 10
71.14426745415777
 20
23.27934858196194
 10
71.14426745420273
 20
23.279348581435443
 10
70.81579581991254
 20
23.262154735928434
 10
70.48690445507772
 20
23.26659466764746
 10
70.15901666000799
 20
23.29264916247846
 10
69.83355139199499
 20
23.340205467778688
 10
69.5119171246756
 20
23.40905778032161
 10
69.19550575276415
 20
23.498908136924705
 10
68.88568656853099
 20
23.609367703905924
 10
68.58380033609467
 20
23.739958459788546
 10
68.29115348917186
 20
23.890115263972447
 10
68.00901247739428
 20
24.059188302419457
 10
67.73859828565962
 20
24.246445899768887
 10
67.48108115023437
 20
24.451077685713685
 10
67.2375754944747
 20
24.672198101934427
 10
67.0091351060817
 20
24.908850234414665
 10
66.79674857676171
 20
25.16000995455306
 10
66.60133502402674
 20
25.424590351151295
 10
66.42374011364936
 20
25.701446434098074
 10
66.26473239998512
 20
25.989380089393627
 10
66.125
 20
26.28714526407157
 10
66.125
 20
26.91214526407157
 10
66.125
 20
26.91214526407157
 10
66.20897335707748
 20
26.916861106651638
 10
66.29189070046723
 20
26.930949329935203
 10
66.37270929646638
 20
26.95423276634029
 10
66.45041280433817
 20
26.986418613144757
 10
66.5240240573865
 20
27.027102114650354
 10
66.59261735139405
 20
27.075771652220546
 10
66.65533008588991
 20
27.13181517818166
 10
66.71137361185103
 20
27.194527912677522
 10
66.76004314942121
 20
27.263121206685064
 10
66.80072665092682
 20
27.336732459733398
 10
66.83291249773127
 20
27.414435967605193
 10
66.85619593413637
 20
27.495254563604334
 10
66.87028415741993
 20
27.578171906994086
 10
66.875
 20
27.66214526407157
 10
66.875
 20
30.22464526407157
  0
LWPOLYLINE
  5
3A
330
17
100
AcDbEntity
  8
CONTOUR
100
AcDbPolyline
 90
158
 70
1
 10
35.526164377300326
 20
47.87501033182813
 10
35.526164377300326
 20
45.31251033182813
 10
35.526164377300326
 20
45.31251033182813
 10
35.52144853472026
 20
45.22853697475065
 10
35.50736031143669
 20
45.145619631360894
 10
35.484076875031604
 20
45.064801035361754
 10
35.45189102822714
 20
44.98709752748996
 10
35.41120752672154
 20
44.913486274441624
 10
35.36253798915135
 20
44.84489298043408
 10
35.30649446319023
 20
44.78218024593822
 10
35.24378172869437
 20
44.726136719977106
 10
35.17518843468683
 20
44.677467182406915
 10
35.1015771816385
 20
44.63678368090132
 10
35.0238736737667
 20
44.60459783409685
 10
34.94305507776756
 20
44.58131439769176
 10
34.86013773437781
 20
44.5672261744082
 10
34.776164377300326
 20
44.56251033182813
 10
34.776164377300326
 20
43.93751033182813
 10
34.776164377300326
 20
43.93751033182813
 10
34.96739519607418
 20
43.73889376034867
 10
35.16928335451841
 20
43.551120120038924
 10
35.38121496914123
 20
43.3747603762238
 10
35.60254561720579
 20
43.21035078787052
 10
35.83260229623329
 20
43.05839127698024
 10
36.07068547040886
 20
42.91934390846986
 10
36.31607119766763
 20
42.79363148516629
 10
36.56801333099313
 20
42.681636262185265
 10
36.82574578723455
 20
42.583698784604216
 10
37.088484876544
 20
42.500116851963135
 10
37.355431685350624
 20
42.43114461274231
 10
37.625774505625714
 20
42.376991791570354
 10
37.898691303052026
 20
42.33782305151224
 10
38.17335221659232
 20
42.31375749337655
 10
38.448922081856786
 20
42.30486829356439
 10
38.72456297059631
 20
42.31118248156111
 10
38.99943673859997
 20
42.33268085774744
 10
39.27270757424906
 20
42.369298051780014
 10
39.54354453997855
 20
42.420922721363645
 10
39.54354454029422
 20
42.42092271992447
 10
40.00595207679454
 20
42.5181073799218
 10
40.468359613294865
 20
42.605878930033846
 10
40.93076714979519
 20
42.68295264465277
 10
41.3931746862955
 20
42.7482003840256
 10
41.855582222795825
 20
42.80066710700838
 10
42.31798975929614
 20
42.83958485014953
 10
42.78039729579646
 20
42.86438396848836
 10
43.242804832296784
 20
42.87470147353555
 10
43.705212368797106
 20
42.870386346391165
 10
44.16761990529742
 20
42.851501748231414
 10
44.63002744179774
 20
42.818324095808876
 10
45.09243497829806
 20
42.77133901549815
 10
45.55484251479838
 20
42.71123423510836
 10
46.0172500512987
 20
42.63888951750595
 10
46.479657587799025
 20
42.55536378339106
 10
46.94206512429935
 20
42.46187961171315
 10
47.40447266079966
 20
42.359805344595934
 10
47.866880197299984
 20
42.25063505870434
 10
48.3292877338003
 20
42.13596669621575
 10
48.79169527030062
 20
42.01747867549591
 10
49.254102806800944
 20
41.896905323832485
 10
49.716510343301266
 20
41.7760114918212
 10
50.17891787980158
 20
41.65656672097769
 10
50.6413254163019
 20
41.54031934268757
 10
51.103732952802225
 20
41.42897088761242
 10
51.56614048930254
 20
41.32415118012526
 10
52.02854802580286
 20
41.22739448232173
 10
52.490955562303185
 20
41.14011703679113
 10
52.95336309880351
 20
41.063596336856946
 10
53.41577063530382
 20
40.9989524277116
 10
53.878178171804144
 20
40.947131512143606
 10
54.34058570830446
 20
40.90889210082263
 10
54.80299324480478
 20
40.8847939098627
 10
55.265400781305104
 20
40.87518966817188
 10
55.727808317805426
 20
40.880219954505215
 10
56.19021585430574
 20
40.89981113979202
 10
56.65262339080606
 20
40.93367646485585
 10
57.115030927306385
 20
40.981320237752435
 10
57.5774384638067
 20
41.0420450892885
 10
58.03984600030702
 20
41.114962180521346
 10
58.502253536807345
 20
41.19900421283045
 10
58.96466107330766
 20
41.292941050130686
 10
59.42706860980798
 20
41.395397724562365
 10
59.889476146308304
 20
41.504874562106195
 10
60.35188368280863
 20
41.619769133541354
 10
60.81429121930894
 20
41.73839970944714
 10
61.276698755809264
 20
41.85902987593382
 10
61.739106292309586
 20
41.9798939507984
 10
62.20151382880991
 20
42.09922282808516
 10
62.20151382880991
 20
42.09922282808515
 10
62.322851052592206
 20
42.12751006128163
 10
62.44525816111212
 20
42.150734815766924
 10
62.568524030812775
 20
42.168857034285914
 10
62.69243605697564
 20
42.18184546026144
 10
62.816780520413815
 20
42.189677691704574
 10
62.94134295608754
 20
42.19234021985279
 10
63.065908523006
 20
42.18982845246941
 10
63.19026237477779
 20
42.18214672176415
 10
63.31419003017044
 20
42.16930827692105
 10
63.4374777430403
 20
42.151335261246764
 10
63.55991287099449
 20
42.12825867397852
 10
63.68128424214919
 20
42.100118316817756
 10
63.8013825193516
 20
42.06696272528145
 10
63.920000561237416
 20
42.02884908498979
 10
64.03693377950115
 20
41.98584313303436
 10
64.15198049176297
 20
41.938019044597084
 10
64.26494226942346
 20
41.88545930501544
 10
64.37562427990649
 20
41.82825456751458
 10
64.48383562269967
 20
41.766503496851776
 10
64.48383562269967
 20
47.87501033182813
 10
63.35116437730032
 20
47.87501033182813
 10
63.35116437730032
 20
47.87501033182813
 10
63.30021637979116
 20
47.81701214809372
 10
63.240947697726874
 20
47.76754790754515
 10
63.1747711750503
 20
47.72779673632817
 10
63.10326432447078
 20
47.6987062209171
 10
63.02813172279335
 20
47.680969819594814
 10
62.95116437730032
 20
47.675010331828126
 10
59.75116437730032
 20
47.675010331828126
 10
59.674197031807296
 20
47.680969819594814
 10
59.599064430129864
 20
47.6987062209171
 10
59.52755757955034
 20
47.72779673632817
 10
59.46138105687377
 20
47.76754790754515
 10
59.402112374809484
 20
47.81701214809372
 10
59.35116437730032
 20
47.87501033182813
 10
59.35116437730032
 20
47.87501033182813
 10
54.20116437730033
 20
47.87501033182813
 10
54.20116437730033
 20
47.87501033182813
 10
54.15021637979117
 20
47.81701214809372
 10
54.09094769772688
 20
47.76754790754515
 10
54.02477117505031
 20
47.72779673632817
 10
53.95326432447079
 20
47.6987062209171
 10
53.878131722793356
 20
47.680969819594814
 10
53.80116437730033
 20
47.675010331828126
 10
50.60116437730033
 20
47.675010331828126
 10
50.524197031807304
 20
47.680969819594814
 10
50.44906443012987
 20
47.6987062209171
 10
50.37755757955035
 20
47.72779673632817
 10
50.31138105687378
 20
47.76754790754515
 10
50.25211237480949
 20
47.81701214809372
 10
50.20116437730033
 20
47.87501033182813
 10
50.20116437730033
 20
47.87501033182813
 10
42.70116437730033
 20
47.87501033182813
 10
42.70116437730033
 20
47.87501033182813
 10
42.65021637979117
 20
47.81701214809372
 10
42.59094769772688
 20
47.76754790754515
 10
42.52477117505031
 20
47.72779673632817
 10
42.45326432447079
 20
47.6987062209171
 10
42.378131722793356
 20
47.680969819594814
 10
42.30116437730033
 20
47.675010331828126
 10
39.10116437730033
 20
47.675010331828126
 10
39.024197031807304
 20
47.680969819594814
 10
38.94906443012987
 20
47.6987062209171
 10
38.87755757955035
 20
47.72779673632817
 10
38.81138105687378
 20
47.76754790754515
 10
38.75211237480949
 20
47.81701214809372
 10
38.70116437730033
 20
47.87501033182813
 10
38.70116437730033
 20
47.87501033182813
 10
35.526164377300326
 20
47.87501033182813
  0
LWPOLYLINE
  5
3B
330
17
100
AcDbEntity
  8
CONTOUR
100
AcDbPolyline
 90
158
 70
1
 10
66.5066
 20
14.803782539720302
 10
69.6816
 20
14.803782539720299
 10
69.6816
 20
14.803782539720299
 10
69.73254799750917
 20
14.745784355985888
 10
69.79181667957346
 20
14.696320115437318
 10
69.85799320225003
 20
14.656568944220341
 10
69.92950005282955
 20
14.62747842880927
 10
70.00463265450698
 20
14.609742027486982
 10
70.08160000000001
 20
14.6037825397203
 10
73.2816
 20
14.6037825397203
 10
73.35856734549303
 20
14.609742027486982
 10
73.43369994717045
 20
14.62747842880927
 10
73.50520679774998
 20
14.656568944220341
 10
73.57138332042655
 20
14.696320115437318
 10
73.63065200249083
 20
14.745784355985888
 10
73.6816
 20
14.803782539720299
 10
73.6816
 20
14.803782539720299
 10
81.1816
 20
14.803782539720299
 10
81.1816
 20
14.803782539720299
 10
81.23254799750917
 20
14.745784355985888
 10
81.29181667957346
 20
14.696320115437318
 10
81.35799320225003
 20
14.656568944220341
 10
81.42950005282955
 20
14.62747842880927
 10
81.50463265450698
 20
14.609742027486982
 10
81.58160000000001
 20
14.6037825397203
 10
84.7816
 20
14.6037825397203
 10
84.85856734549303
 20
14.609742027486982
 10
84.93369994717045
 20
14.62747842880927
 10
85.00520679774998
 20
14.656568944220341
 10
85.07138332042655
 20
14.696320115437318
 10
85.13065200249083
 20
14.745784355985888
 10
85.1816
 20
14.803782539720299
 10
85.1816
 20
14.803782539720299
 10
90.33160000000001
 20
14.803782539720299
 10
90.33160000000001
 20
14.803782539720299
 10
90.38254799750918
 20
14.745784355985888
 10
90.44181667957346
 20
14.696320115437318
 10
90.50799320225003
 20
14.656568944220341
 10
90.57950005282956
 20
14.62747842880927
 10
90.65463265450698
 20
14.609742027486982
 10
90.73160000000001
 20
14.6037825397203
 10
93.9316
 20
14.6037825397203
 10
94.00856734549303
 20
14.609742027486982
 10
94.08369994717046
 20
14.62747842880927
 10
94.15520679774998
 20
14.656568944220341
 10
94.22138332042655
 20
14.696320115437318
 10
94.28065200249084
 20
14.745784355985888
 10
94.33160000000001
 20
14.803782539720299
 10
94.33160000000001
 20
14.803782539720299
 10
95.5066
 20
14.803782539720302
 10
95.5066
 20
11.643129647307283
 10
95.5066
 20
11.643129647307283
 10
95.4994151704684
 20
11.435626983675604
 10
95.47789509639051
 20
11.229118234220955
 10
95.44214285647551
 20
11.024592552384412
 10
95.39232969988952
 20
10.82302959293854
 10
95.32869422599151
 20
10.625394819552334
 10
95.2515412414696
 20
10.432634880329992
 10
95.16124030035151
 20
10.245673073474073
 10
95.05822393388293
 20
10.065404924792027
 10
94.94298557875186
 20
9.892693898229368
 10
94.81607721358307
 20
9.728367259975478
 10
94.67810671502313
 20
9.573212115952593
 10
94.5297349460804
 20
9.427971641667895
 10
94.37167259066632
 20
9.293341522487253
 10
94.20467674950024
 20
9.169966621381427
 10
94.02954731368298
 20
9.0584378901057
 10
93.84712313330945
 20
8.95928953860814
 10
93.6582779994719
 20
8.872996476224635
 10
93.46391645890003
 20
8.79997203691719
 10
93.26496948128482
 20
8.74056599945117
 10
93.2649694812848
 20
8.740565999451306
 10
92.80741413712255
 20
8.621756589907164
 10
92.34985879296032
 20
8.505555966334256
 10
91.89230344879809
 20
8.393629509723255
 10
91.43474810463584
 20
8.287581343937354
 10
90.97719276047361
 20
8.188931345496705
 10
90.51963741631138
 20
8.099093360791116
 10
90.06208207214914
 20
8.019354942910816
 10
89.60452672798691
 20
7.950858898505892
 10
89.14697138382468
 20
7.894586909143797
 10
88.68941603966243
 20
7.851345461902724
 10
88.2318606955002
 20
7.821754290842875
 10
87.77430535133796
 20
7.806237495011736
 10
87.31675000717573
 20
7.8050174602797
 10
86.85919466301348
 20
7.818111672117901
 10
86.40163931885125
 20
7.8453324649974405
 10
85.94408397468902
 20
7.886289712001442
 10
85.48652863052678
 20
7.940396416102757
 10
85.02897328636455
 20
8.006877122973279
 10
84.57141794220232
 20
8.084779034753048
 10
84.11386259804007
 20
8.172985665497087
 10
83.65630725387784
 20
8.270232842591057
 10
83.19875190971561
 20
8.37512682480407
 10
82.74119656555337
 20
8.486164277311914
 10
82.28364122139114
 20
8.60175381740963
 10
81.8260858772289
 20
8.720238822121559
 10
81.36853053306666
 20
8.839921170831317
 10
80.91097518890443
 20
8.95908558265372
 10
80.4534198447422
 20
9.076024199746797
 10
79.99586450057996
 20
9.189061064237052
 10
79.53830915641772
 20
9.296576137956208
 10
79.0807538122555
 20
9.397028520739738
 10
78.62319846809325
 20
9.488978534523866
 10
78.16564312393102
 20
9.571108356732957
 10
77.70808777976879
 20
9.64224090724069
 10
77.25053243560654
 20
9.701356718218157
 10
76.79297709144431
 20
9.747608545091062
 10
76.33542174728208
 20
9.780333509202762
 10
75.87786640311984
 20
9.79906259815489
 10
75.42031105895761
 20
9.803527387667494
 10
74.96275571479538
 20
9.793663888621133
 10
74.50520037063313
 20
9.769613464145422
 10
74.0476450264709
 20
9.731720803610429
 10
73.59008968230867
 20
9.680528982557398
 10
73.13253433814643
 20
9.61677167936979
 10
72.6749789939842
 20
9.541362660234725
 10
72.21742364982197
 20
9.45538268309594
 10
71.75986830565972
 20
9.360064008289918
 10
71.30231296149749
 20
9.256772737858086
 10
70.84475761733526
 20
9.146989236646938
 10
70.84475761722317
 20
9.146989237102758
 10
70.553030946093
 20
9.08442142425794
 10
70.2580917656646
 20
9.039365218236
 10
69.96099028571949
 20
9.01198105370083
 10
69.66278441548454
 20
9.002366439289332
 10
69.36453599666342
 20
9.010555610405866
 10
69.06730702246546
 20
9.036519407317911
 10
68.77215585609486
 20
9.080165378987118
 10
68.48013346216578
 20
9.141338112265906
 10
68.19227966446182
 20
9.219819785287562
 10
67.90961944336559
 20
9.315330943079168
 10
67.63315928614203
 20
9.427531492635751
 10
67.36388360307161
 20
9.556021913912303
 10
67.10275122219431
 20
9.700344682421708
 10
66.85069197514616
 20
9.859985898372948
 10
66.6086033862452
 20
10.034377116548669
 10
66.37734747661624
 20
10.2228973704063
 10
66.1577476947342
 20
10.424875383195385
 10
65.95058598431581
 20
10.639591958217906
 10
65.7566
 20
10.866282539720302
 10
65.7566
 20
11.491282539720302
 10
65.7566
 20
11.491282539720302
 10
65.84057335707749
 20
11.495998382300371
 10
65.92349070046724
 20
11.510086605583936
 10
66.00430929646637
 20
11.533370041989023
 10
66.08201280433818
 20
11.56555588879349
 10
66.1556240573865
 20
11.606239390299088
 10
66.22421735139406
 20
11.654908927869279
 10
66.28693008588992
 20
11.710952453830394
 10
66.34297361185102
 20
11.773665188326255
 10
66.39164314942121
 20
11.842258482333797
 10
66.43232665092683
 20
11.915869735382131
 10
66.46451249773128
 20
11.993573243253927
 10
66.48779593413637
 20
12.074391839253067
 10
66.50188415741994
 20
12.15730918264282
 10
66.5066
 20
12.241282539720302
 10
66.5066
 20
14.803782539720302
  0
LWPOLYLINE
  5
3C
330
17
100
AcDbEntity
  8
CONTOUR
100
AcDbPolyline
 90
158
 70
1
 10
2.7515397923906573
 20
30.393218806267754
 10
2.7515397923906573
 20
27.830718806267754
 10
2.7515397923906573
 20
27.830718806267754
 10
2.7468239498105884
 20
27.74674544919027
 10
2.732735726527025
 20
27.66382810580052
 10
2.7094522901219324
 20
27.58300950980138
 10
2.677266443317471
 20
27.505306001929583
 10
2.63658294181187
 20
27.43169474888125
 10
2.5879134042416805
 20
27.363101454873707
 10
2.5318698782805686
 20
27.300388720377846
 10
2.4691571437847077
 20
27.24434519441673
 10
2.4005638497771606
 20
27.19567565684654
 10
2.3269525967288267
 20
27.154992155340942
 10
2.2492490888570327
 20
27.122806308536475
 10
2.168430492857894
 20
27.099522872131388
 10
2.085513149468138
 20
27.085434648847823
 10
2.0015397923906573
 20
27.080718806267754
 10
2.0015397923906573
 20
26.455718806267754
 10
2.0015397923906573
 20
26.455718806267754
 10
2.140114443277149
 20
26.159207120624558
 10
2.2977911745049404
 20
25.872396796506678
 10
2.4738943594855023
 20
25.596516783038894
 10
2.667669416403424
 20
25.332749194226814
 10
2.878286041512375
 20
25.082224243734856
 10
3.104841766890786
 20
24.84601540205118
 10
3.3463658274127095
 20
24.62513479679059
 10
3.6018233203642964
 20
24.42052887584456
 10
3.870119639882434
 20
24.233074351961292
 10
4.150105167214505
 20
24.06357444613281
 10
4.4405801967019976
 20
23.91275544588575
 10
4.740300076380745
 20
23.78126359322316
 10
5.047980541170881
 20
23.669662315552124
 10
5.362303215804449
 20
23.578429811462392
 10
5.681921263911191
 20
23.507957001700618
 10
6.0054651590569
 20
23.458545854120096
 10
6.331548553006076
 20
23.430408089783377
 10
6.658774216064046
 20
23.423664275761958
 10
6.985740024044883
 20
23.43834330852031
 10
6.985740024130932
 20
23.438343307413675
 10
7.458173998551828
 20
23.48227861944663
 10
7.930607972972727
 20
23.540131252796414
 10
8.403041947393621
 20
23.611017336382346
 10
8.87547592181452
 20
23.69385387439808
 10
9.347909896235416
 20
23.787375292294357
 10
9.820343870656313
 20
23.890152772195222
 10
10.292777845077211
 20
24.000616082341637
 10
10.765211819498107
 20
24.11707756705296
 10
11.237645793919004
 20
24.237757930688034
 10
11.7100797683399
 20
24.360813421679367
 10
12.182513742760799
 20
24.48436400132332
 10
12.654947717181694
 20
24.606522066964246
 10
13.127381691602592
 20
24.725421290740485
 10
13.599815666023488
 20
24.839245133294618
 10
14.072249640444385
 20
24.94625459681619
 10
14.544683614865283
 20
25.0448147934066
 10
15.01711758928618
 20
25.133419922855445
 10
15.489551563707076
 20
25.210716278218293
 10
15.961985538127973
 20
25.275522927717432
 10
16.43441951254887
 20
25.326849756987954
 10
16.906853486969766
 20
25.36391259602017
 10
17.379287461390664
 20
25.386145199689324
 10
17.851721435811562
 20
25.393207898834426
 10
18.324155410232457
 20
25.384992789715156
 10
18.796589384653352
 20
25.3616253825625
 10
19.269023359074254
 20
25.323462684036606
 10
19.74145733349515
 20
25.271087742887957
 10
20.213891307916043
 20
25.205300742153234
 10
20.686325282336945
 20
25.127106773978923
 10
21.15875925675784
 20
25.03770048384873
 10
21.631193231178734
 20
24.93844781881988
 10
22.103627205599636
 20
24.830865158618217
 10
22.57606118002053
 20
24.716596148426824
 10
23.048495154441426
 20
24.59738658731615
 10
23.52092912886232
 20
24.47505775596963
 10
23.993363103283222
 20
24.351478591203076
 10
24.465797077704117
 20
24.228537132394926
 10
24.938231052125012
 20
24.108111676067992
 10
25.410665026545914
 20
23.99204207932231
 10
25.88309900096681
 20
23.882101650544513
 10
26.355532975387703
 20
23.779970056846835
 10
26.827966949808605
 20
23.687207662155096
 10
27.3004009242295
 20
23.605231688007777
 10
27.772834898650395
 20
23.535294561280963
 10
28.24526887307129
 20
23.478464779641904
 10
28.71770284749219
 20
23.435610587068496
 10
29.190136821913086
 20
23.40738670883959
 10
29.66257079633398
 20
23.394224348658554
 10
30.135004770754882
 20
23.396324600733976
 10
30.135004770754882
 20
23.396324600733983
 10
30.279542885629397
 20
23.395821931507314
 10
30.423889032385965
 20
23.38835806894425
 10
30.56770814321183
 20
23.373950338759123
 10
30.710666373692156
 20
23.352632185326776
 10
30.85243187775636
 20
23.32445309404882
 10
30.992675577985764
 20
23.28947847648415
 10
31.131071929494375
 20
23.247789518510416
 10
31.267299675609692
 20
23.199482991868877
 10
31.401042593599392
 20
23.144671029530073
 10
31.531990228712793
 20
23.08348086540186
 10
31.659838614833234
 20
23.016054538983852
 10
31.78429098006854
 20
22.942548565654
 10
31.90505843564162
 20
22.863133573352584
 10
32.02186064648223
 20
22.777993906507007
 10
32.134426481963104
 20
22.687327198116762
 10
32.24249464527008
 20
22.59134391099193
 10
32.34581427994509
 20
22.49026684921008
 10
32.44414555219428
 20
22.384330640925633
 10
32.53726020760934
 20
22.273781193732248
 10
32.53726020760934
 20
30.393218806267754
 10
30.57653979239066
 20
30.39321880626775
 10
30.57653979239066
 20
30.39321880626775
 10
30.525591794881496
 20
30.33522062253334
 10
30.466323112817207
 20
30.28575638198477
 10
30.400146590140636
 20
30.24600521076779
 10
30.328639739561112
 20
30.21691469535672
 10
30.253507137883684
 20
30.199178294034436
 10
30.17653979239066
 20
30.19321880626775
 10
26.976539792390657
 20
30.19321880626775
 10
26.899572446897633
 20
30.199178294034436
 10
26.824439845220205
 20
30.21691469535672
 10
26.75293299464068
 20
30.24600521076779
 10
26.68675647196411
 20
30.285756381984772
 10
26.62748778989982
 20
30.33522062253334
 10
26.57653979239066
 20
30.39321880626775
 10
26.57653979239066
 20
30.39321880626775
 10
21.42653979239066
 20
30.39321880626775
 10
21.42653979239066
 20
30.39321880626775
 10
21.375591794881498
 20
30.33522062253334
 10
21.31632311281721
 20
30.28575638198477
 10
21.250146590140638
 20
30.24600521076779
 10
21.178639739561113
 20
30.21691469535672
 10
21.103507137883685
 20
30.199178294034436
 10
21.02653979239066
 20
30.19321880626775
 10
17.82653979239066
 20
30.19321880626775
 10
17.749572446897634
 20
30.199178294034436
 10
17.674439845220206
 20
30.21691469535672
 10
17.602932994640682
 20
30.24600521076779
 10
17.53675647196411
 20
30.285756381984772
 10
17.477487789899822
 20
30.33522062253334
 10
17.42653979239066
 20
30.39321880626775
 10
17.42653979239066
 20
30.39321880626775
 10
9.926539792390656
 20
30.39321880626775
 10
9.926539792390656
 20
30.39321880626775
 10
9.875591794881492
 20
30.33522062253334
 10
9.816323112817205
 20
30.28575638198477
 10
9.750146590140634
 20
30.24600521076779
 10
9.67863973956111
 20
30.21691469535672
 10
9.603507137883682
 20
30.199178294034436
 10
9.526539792390656
 20
30.19321880626775
 10
6.326539792390657
 20
30.19321880626775
 10
6.24957244689763
 20
30.199178294034436
 10
6.174439845220203
 20
30.21691469535672
 10
6.102932994640677
 20
30.24600521076779
 10
6.0367564719641065
 20
30.285756381984772
 10
5.97748778989982
 20
30.33522062253334
 10
5.926539792390656
 20
30.39321880626775
 10
5.926539792390657
 20
30.39321880626775
 10
2.7515397923906573
 20
30.393218806267754
  0
LWPOLYLINE
  5
3D
330
17
100
AcDbEntity
  8
CONTOUR
100
AcDbPolyline
 90
158
 70
1
 10
62.5327
 20
26.85340092688776
 10
59.357699999999994
 20
26.853400926887762
 10
59.357699999999994
 20
26.853400926887762
 10
59.30675200249083
 20
26.911399110622174
 10
59.24748332042655
 20
26.960863351170744
 10
59.181306797749976
 20
27.00061452238772
 10
59.10979994717045
 20
27.02970503779879
 10
59.03466734549302
 20
27.047441439121076
 10
58.957699999999996
 20
27.05340092688776
 10
55.75769999999999
 20
27.05340092688776
 10
55.68073265450697
 20
27.047441439121076
 10
55.60560005282954
 20
27.02970503779879
 10
55.53409320225001
 20
27.00061452238772
 10
55.46791667957344
 20
26.96086335117074
 10
55.408647997509156
 20
26.911399110622174
 10
55.357699999999994
 20
26.853400926887762
 10
55.357699999999994
 20
26.853400926887762
 10
47.857699999999994
 20
26.853400926887762
 10
47.857699999999994
 20
26.853400926887762
 10
47.80675200249083
 20
26.911399110622174
 10
47.74748332042655
 20
26.960863351170744
 10
47.681306797749976
 20
27.00061452238772
 10
47.60979994717045
 20
27.02970503779879
 10
47.53466734549302
 20
27.047441439121076
 10
47.457699999999996
 20
27.05340092688776
 10
44.25769999999999
 20
27.05340092688776
 10
44.18073265450697
 20
27.047441439121076
 10
44.10560005282954
 20
27.02970503779879
 10
44.03409320225001
 20
27.00061452238772
 10
43.96791667957344
 20
26.96086335117074
 10
43.908647997509156
 20
26.911399110622174
 10
43.857699999999994
 20
26.853400926887762
 10
43.857699999999994
 20
26.853400926887762
 10
38.7077
 20
26.853400926887762
 10
38.7077
 20
26.853400926887762
 10
38.65675200249084
 20
26.911399110622174
 10
38.597483320426555
 20
26.960863351170744
 10
38.531306797749984
 20
27.00061452238772
 10
38.45979994717046
 20
27.02970503779879
 10
38.38466734549303
 20
27.047441439121076
 10
38.307700000000004
 20
27.05340092688776
 10
35.1077
 20
27.05340092688776
 10
35.03073265450698
 20
27.047441439121076
 10
34.955600052829546
 20
27.02970503779879
 10
34.88409320225002
 20
27.00061452238772
 10
34.81791667957345
 20
26.96086335117074
 10
34.758647997509165
 20
26.911399110622174
 10
34.7077
 20
26.853400926887762
 10
34.7077
 20
26.853400926887762
 10
33.5327
 20
26.85340092688776
 10
33.5327
 20
30.269948909551154
 10
33.5327
 20
30.269948909551154
 10
33.54635001913017
 20
30.555805152720332
 10
33.587175861172526
 20
30.83906010043102
 10
33.65480601044381
 20
31.11713612904657
 10
33.74862503172313
 20
31.387502743160148
 10
33.86777917072033
 20
31.647699603135223
 10
34.011184123250914
 20
31.8953589142276
 10
34.17753490241794
 20
32.12822697354784
 10
34.365317714009436
 20
32.344184678786256
 10
34.57282373204506
 20
32.54126681207097
 10
34.79816464911425
 20
32.717679923475615
 10
35.03928985999781
 20
32.87181865143653
 10
35.294005122201526
 20
33.00228033156347
 10
35.559992523590836
 20
33.10787776090344
 10
35.83483157542085
 20
33.18765000150273
 10
36.11602123881477
 20
33.2408711249545
 10
36.40100268424956
 20
33.26705681835659
 10
36.687182576937275
 20
33.26596879156509
 10
36.97195667620467
 20
33.237616945637676
 10
37.25273353411657
 20
33.18225928273386
 10
37.25273353411662
 20
33.18225928273406
 10
37.711605238777175
 20
33.066711333309414
 10
38.17047694343773
 20
32.94808863616879
 10
38.629348648098286
 20
32.82810106976216
 10
39.08822035275884
 20
32.70847818635069
 10
39.54709205741939
 20
32.59094428149837
 10
40.00596376207994
 20
32.47719353933602
 10
40.464835466740496
 20
32.368865611864294
 10
40.92370717140105
 20
32.26752198430634
 10
41.3825788760616
 20
32.174623467189846
 10
41.84145058072215
 20
32.091509139597306
 10
42.300322285382705
 20
32.01937704710568
 10
42.75919399004326
 20
31.95926693264338
 10
43.21806569470381
 20
31.91204524918968
 10
43.67693739936436
 20
31.87839267034967
 10
44.135809104024915
 20
31.85879427883291
 10
44.59468080868547
 20
31.85353257426314
 10
45.05355251334603
 20
31.862683401107482
 10
45.51242421800658
 20
31.88611485542178
 10
45.97129592266713
 20
31.9234891861706
 10
46.430167627327684
 20
31.974267663715608
 10
46.889039331988236
 20
32.03771834529569
 10
47.34791103664879
 20
32.11292662556391
 10
47.80678274130934
 20
32.19880842010145
 10
48.2656544459699
 20
32.29412579187547
 10
48.72452615063045
 20
32.39750479539466
 10
49.183397855291005
 20
32.507455281348975
 10
49.64226955995156
 20
32.622392376261175
 10
50.10114126461211
 20
32.74065932753306
 10
50.56001296927266
 20
32.860551384588234
 10
51.018884673933215
 20
32.98034037187831
 10
51.47775637859377
 20
33.09829959954673
 10
51.93662808325432
 20
33.212728752677116
 10
52.39549978791487
 20
33.32197840036205
 10
52.854371492575424
 20
33.42447377130778
 10
53.31324319723598
 20
33.51873745326331
 10
53.77211490189653
 20
33.60341068907444
 10
54.23098660655709
 20
33.67727296239231
 10
54.68985831121764
 20
33.73925959071977
 10
55.14873001587819
 20
33.788477072201616
 10
55.607601720538746
 20
33.8242159649437
 10
56.0664734251993
 20
33.84596111321277
 10
56.52534512985986
 20
33.85339907311224
 10
56.98421683452041
 20
33.846422630696956
 10
57.44308853918096
 20
33.825132347401045
 10
57.901960243841515
 20
33.78983511050222
 10
58.36083194850207
 20
33.74103970951692
 10
58.81970365316262
 20
33.67944950228993
 10
59.27857535782317
 20
33.60595227649262
 10
59.737447062483724
 20
33.521607452670594
 10
59.73744706249283
 20
33.52160745271738
 10
59.97590114573589
 20
33.46908928155671
 10
60.211507006036236
 20
33.4049925834399
 10
60.44370278459809
 20
33.329470212347616
 10
60.671934754785084
 20
33.24270226952363
 10
60.895658642614535
 20
33.14489567398008
 10
61.11434092470954
 20
33.03628366904938
 10
61.327460100613685
 20
32.91712526615944
 10
61.53450793643423
 20
32.78770462715865
 10
61.73499067684796
 20
32.64833038666368
 10
61.92843022257939
 20
32.499334916046074
 10
62.11436527054343
 20
32.3410735308128
 10
62.29235241393343
 20
32.173923643271074
 10
62.46196719963127
 20
31.998283862497978
 10
62.622805140417825
 20
31.814573043761342
 10
62.77448267956997
 20
31.623229289658696
 10
62.91663810554374
 20
31.424708905356326
 10
63.04893241456243
 20
31.21948531041994
 10
63.1710501190526
 20
31.008047909831973
 10
63.2827
 20
30.79090092688776
 10
63.2827
 20
30.16590092688776
 10
63.2827
 20
30.16590092688776
 10
63.198726642922516
 20
30.16118508430769
 10
63.11580929953276
 20
30.147096861024124
 10
63.03499070353362
 20
30.123813424619037
 10
62.95728719566183
 20
30.09162757781457
 10
62.88367594261349
 20
30.050944076308973
 10
62.81508264860595
 20
30.00227453873878
 10
62.75236991411009
 20
29.946231012777666
 10
62.696326388148975
 20
29.883518278281805
 10
62.647656850578784
 20
29.814924984274263
 10
62.606973349073186
 20
29.74131373122593
 10
62.57478750226872
 20
29.663610223354134
 10
62.55150406586363
 20
29.582791627354993
 10
62.53741584258007
 20
29.49987428396524
 10
62.5327
 20
29.41590092688776
 10
62.5327
 20
26.85340092688776
  0
LWPOLYLINE
  5
3E
330
17
100
AcDbEntity
  8
CONTOUR
100
AcDbPolyline
 90
158
 70
1
 10
35.0089
 20
26.148327908855162
 10
38.183899999999994
 20
26.14832790885516
 10
38.183899999999994
 20
26.14832790885516
 10
38.234847997509156
 20
26.090329725120746
 10
38.29411667957344
 20
26.04086548457218
 10
38.36029320225001
 20
26.0011143133552
 10
38.43180005282954
 20
25.97202379794413
 10
38.50693265450697
 20
25.954287396621844
 10
38.58389999999999
 20
25.94832790885516
 10
41.783899999999996
 20
25.94832790885516
 10
41.86086734549302
 20
25.954287396621844
 10
41.93599994717045
 20
25.97202379794413
 10
42.007506797749976
 20
26.0011143133552
 10
42.07368332042655
 20
26.04086548457218
 10
42.13295200249083
 20
26.090329725120746
 10
42.183899999999994
 20
26.14832790885516
 10
42.183899999999994
 20
26.14832790885516
 10
49.683899999999994
 20
26.14832790885516
 10
49.683899999999994
 20
26.14832790885516
 10
49.734847997509156
 20
26.090329725120746
 10
49.79411667957344
 20
26.04086548457218
 10
49.86029320225001
 20
26.0011143133552
 10
49.93180005282954
 20
25.97202379794413
 10
50.00693265450697
 20
25.954287396621844
 10
50.08389999999999
 20
25.94832790885516
 10
53.283899999999996
 20
25.94832790885516
 10
53.36086734549302
 20
25.954287396621844
 10
53.43599994717045
 20
25.97202379794413
 10
53.507506797749976
 20
26.0011143133552
 10
53.57368332042655
 20
26.04086548457218
 10
53.63295200249083
 20
26.090329725120746
 10
53.683899999999994
 20
26.14832790885516
 10
53.683899999999994
 20
26.14832790885516
 10
58.8339
 20
26.14832790885516
 10
58.8339
 20
26.14832790885516
 10
58.88484799750916
 20
26.090329725120746
 10
58.94411667957345
 20
26.04086548457218
 10
59.01029320225002
 20
26.0011143133552
 10
59.08180005282954
 20
25.97202379794413
 10
59.156932654506974
 20
25.954287396621844
 10
59.2339
 20
25.94832790885516
 10
62.4339
 20
25.94832790885516
 10
62.510867345493025
 20
25.954287396621844
 10
62.58599994717046
 20
25.97202379794413
 10
62.65750679774998
 20
26.0011143133552
 10
62.72368332042655
 20
26.04086548457218
 10
62.78295200249084
 20
26.090329725120746
 10
62.8339
 20
26.14832790885516
 10
62.8339
 20
26.14832790885516
 10
64.0089
 20
26.148327908855162
 10
64.0089
 20
24.119992008969174
 10
64.0089
 20
24.119992008969174
 10
63.999376118091064
 20
23.881135175014183
 10
63.97086494191533
 20
23.643794903912347
 10
63.92354749618946
 20
23.40947812947314
 10
63.85772421142366
 20
23.179672588555913
 10
63.77381301641192
 20
22.95583737504982
 10
63.672346684695654
 20
22.73939367571519
 10
63.55396945184887
 20
22.53171574670694
 10
63.419432925062445
 20
22.334122188072396
 10
63.269591310998756
 20
22.147867571623824
 10
63.10539599221606
 20
21.974134475342584
 10
62.92788948659842
 20
21.81402597489046
 10
62.738198828144206
 20
21.66855863990138
 10
62.53752841114032
 20
21.53865607952206
 10
62.32715234315621
 20
21.4251430781823
 10
62.108406355410494
 20
21.3287403588287
 10
61.88267932187341
 20
21.25006000687114
 10
61.651404440952334
 20
21.189601583896685
 10
61.41605013575019
 20
21.14774895582587
 10
61.17811073067332
 20
21.12476785565026
 10
61.17811073067337
 20
21.12476785564939
 10
60.69531307154645
 20
21.0897760714851
 10
60.21251541241955
 20
21.039763741659133
 10
59.72971775329263
 20
20.975528799093997
 10
59.246920094165716
 20
20.89809609457401
 10
58.76412243503881
 20
20.808701045533855
 10
58.2813247759119
 20
20.708769925314254
 10
57.79852711678498
 20
20.599897107364388
 10
57.31572945765807
 20
20.483819627453453
 10
56.83293179853116
 20
20.36238946974426
 10
56.35013413940425
 20
20.23754401889693
 10
55.86733648027734
 20
20.111275149631222
 10
55.38453882115043
 20
19.985597446914984
 10
54.90174116202351
 20
19.86251606381691
 10
54.4189435028966
 20
19.743994729842573
 10
53.936145843769694
 20
19.631924420172037
 10
53.45334818464278
 20
19.528093185672613
 10
52.97055052551587
 20
19.434157625040665
 10
52.48775286638896
 20
19.351616454226512
 10
52.00495520726204
 20
19.281786594834966
 10
51.522157548135134
 20
19.22578216300452
 10
51.039359889008225
 20
19.184496693991772
 10
50.55656222988131
 20
19.158588886062955
 10
50.0737645707544
 20
19.148472091144836
 10
49.59096691162749
 20
19.154307719908825
 10
49.10816925250057
 20
19.176002666508214
 10
48.625371593373664
 20
19.213210794056277
 10
48.142573934246755
 20
19.26533845714479
 10
47.65977627511984
 20
19.33155397329274
 10
47.17697861599293
 20
19.410800892210762
 10
46.69418095686602
 20
19.50181485117408
 10
46.211383297739104
 20
19.603143747580827
 10
45.728585638612195
 20
19.713170906848465
 10
45.245787979485286
 20
19.83014087601057
 10
44.76299032035837
 20
19.9521874314846
 10
44.28019266123146
 20
20.07736335415419
 10
43.79739500210455
 20
20.203671496712833
 10
43.314597342977635
 20
20.329096647598124
 10
42.831799683850726
 20
20.451637683136152
 10
42.349002024723816
 20
20.56933949491756
 10
41.8662043655969
 20
20.680324183012754
 10
41.38340670646999
 20
20.7828210173471
 10
40.90060904734308
 20
20.875194689210655
 10
40.417811388216165
 20
20.95597140215745
 10
39.935013729089256
 20
21.023862386021055
 10
39.45221606996235
 20
21.077784458887056
 10
38.96941841083543
 20
21.116877308961538
 10
38.48662075170852
 20
21.140517220608427
 10
38.00382309258161
 20
21.148327025560345
 10
37.521025433454696
 20
21.140182120534238
 10
37.521025433479956
 20
21.1401821197767
 10
37.336602042887655
 20
21.13743589283339
 10
37.15220284453878
 20
21.141493528632484
 10
36.9680787653866
 20
21.152349505619664
 10
36.78448035800735
 20
21.169989051186082
 10
36.60165745965305
 20
21.194388161770622
 10
36.41985885227763
 20
21.225513635523523
 10
36.239331923999174
 20
21.263323117486802
 10
36.06032233245883
 20
21.307765157230097
 10
35.88307367053451
 20
21.35877927886344
 10
35.707827134864274
 20
21.41629606333171
 10
35.53482119763056
 20
21.48023724287876
 10
35.36429128205165
 20
21.550515807552745
 10
35.19646944202225
 20
21.62703612360757
 10
35.031584046338885
 20
21.70969406363952
 10
34.86985946793999
 20
21.798377148281883
 10
34.71151577858339
 20
21.892964699264706
 10
34.55676844937687
 20
21.99332800363155
 10
34.40582805756907
 20
22.099330488889645
 10
34.2589
 20
22.210827908855162
 10
34.2589
 20
22.835827908855162
 10
34.2589
 20
22.835827908855162
 10
34.34287335707748
 20
22.84054375143523
 10
34.42579070046723
 20
22.854631974718796
 10
34.50660929646637
 20
22.877915411123883
 10
34.58431280433817
 20
22.91010125792835
 10
34.657924057386495
 20
22.950784759433947
 10
34.72651735139405
 20
22.99945429700414
 10
34.78923008588991
 20
23.055497822965254
 10
34.84527361185102
 20
23.118210557461115
 10
34.89394314942121
 20
23.186803851468657
 10
34.93462665092681
 20
23.26041510451699
 10
34.96681249773127
 20
23.338118612388786
 10
34.99009593413636
 20
23.418937208387927
 10
35.00418415741993
 20
23.50185455177768
 10
35.0089
 20
23.585827908855162
 10
35.0089
 20
26.148327908855162
  0
LWPOLYLINE
  5
3F
330
17
100
AcDbEntity
  8
CONTOUR
100
AcDbPolyline
 90
158
 70
1
 10
35.70007057675289
 20
12.912103987299385
 10
35.70007057675289
 20
10.349603987299385
 10
35.70007057675289
 20
10.349603987299385
 10
35.695354734172824
 20
10.265630630221903
 10
35.68126651088926
 20
10.18271328683215
 10
35.657983074484164
 20
10.10189469083301
 10
35.625797227679705
 20
10.024191182961214
 10
35.5851137261741
 20
9.95057992991288
 10
35.53644418860391
 20
9.881986635905339
 10
35.4804006626428
 20
9.819273901409478
 10
35.41768792814694
 20
9.763230375448362
 10
35.34909463413939
 20
9.714560837878171
 10
35.27548338109106
 20
9.673877336372573
 10
35.19777987321926
 20
9.641691489568107
 10
35.11696127722013
 20
9.61840805316302
 10
35.03404393383037
 20
9.604319829879454
 10
34.95007057675289
 20
9.599603987299385
 10
34.95007057675289
 20
8.974603987299385
 10
34.95007057675289
 20
8.974603987299385
 10
35.093806278397516
 20
8.673224110519225
 10
35.25733645614947
 20
8.382109591781816
 10
35.43993183225366
 20
8.102558682857048
 10
35.64077810596267
 20
7.8358180665412895
 10
35.85897958498517
 20
7.583077296961687
 10
36.09356317990756
 20
7.345463494650911
 10
36.343482743774985
 20
7.124036320050276
 10
36.607623737479145
 20
6.919783247857286
 10
36.88480820014725
 20
6.73361516329204
 10
37.17380000236602
 20
6.566362299921511
 10
37.47331035881366
 20
6.418770537157098
 10
37.78200357571562
 20
6.291498073937358
 10
38.09850300749292
 20
6.185112493429731
 10
38.42139719603878
 20
6.1000882318416
 10
38.7492461652449
 20
6.036804462628719
 10
39.0805878427063
 20
5.995543405536569
 10
39.41394457996676
 20
5.97648906801567
 10
39.74782974222691
 20
5.979726424623504
 10
40.0807543381279
 20
6.0052410380727785
 10
40.080754337928674
 20
6.005241039878509
 10
40.53116932881706
 20
6.0611173294218155
 10
40.98158431970543
 20
6.128812664056841
 10
41.43199931059381
 20
6.207386847829685
 10
41.882414301482186
 20
6.295748592395871
 10
42.33282929237057
 20
6.392670673528375
 10
42.783244283258945
 20
6.496806975589923
 10
43.23365927414732
 20
6.606711187244894
 10
43.684074265035704
 20
6.72085688875298
 10
44.13448925592408
 20
6.83765875185944
 10
44.58490424681246
 20
6.9554945578443075
 10
45.03531923770084
 20
7.072727727929912
 10
45.485734228589216
 20
7.187730053130064
 10
45.9361492194776
 20
7.298904307854205
 10
46.386564210365975
 20
7.404706433194409
 10
46.83697920125435
 20
7.503666981799622
 10
47.28739419214273
 20
7.594411526497058
 10
47.73780918303111
 20
7.6756797492127795
 10
48.18822417391949
 20
7.746342945072389
 10
48.63863916480787
 20
7.80541969857369
 10
49.089054155696246
 20
7.852089514110748
 10
49.53946914658462
 20
7.885704211539792
 10
49.989884137473
 20
7.905796928518168
 10
50.44029912836138
 20
7.912088604586142
 10
50.89071411924976
 20
7.904491856936392
 10
51.34112911013814
 20
7.883112194042166
 10
51.79154410102652
 20
7.848246550288334
 10
52.24195909191489
 20
7.800379161957419
 10
52.69237408280327
 20
7.740174841847438
 10
53.14278907369165
 20
7.668469745928061
 10
53.593204064580036
 20
7.586259760273567
 10
54.04361905546841
 20
7.494686669562302
 10
54.49403404635679
 20
7.395022299243326
 10
54.944449037245164
 20
7.288650851613983
 10
55.39486402813354
 20
7.177049681136136
 10
55.84527901902192
 20
7.061768775995798
 10
56.29569400991031
 20
6.944409230879291
 10
56.74610900079868
 20
6.826601009949801
 10
57.19652399168706
 20
6.70998030886614
 10
57.646938982575435
 20
6.596166830254642
 10
58.09735397346382
 20
6.486741288246723
 10
58.547768964352194
 20
6.383223454513544
 10
58.99818395524058
 20
6.2870510507083885
 10
59.44859894612895
 20
6.199559780471997
 10
59.89901393701733
 20
6.12196477832909
 10
60.349428927905706
 20
6.055343733125579
 10
60.79984391879409
 20
6.000621920399016
 10
61.250258909682465
 20
5.95855935156219
 10
61.70067390057085
 20
5.929740218380207
 10
62.151088891459224
 20
5.914564779342943
 10
62.151088891459224
 20
5.91456477934295
 10
62.28884536880255
 20
5.908867511679137
 10
62.426194598967875
 20
5.896846909287145
 10
62.56284648045159
 20
5.878528361423431
 10
62.69851238465168
 20
5.8539505595191095
 10
62.83290576549321
 20
5.823165415458082
 10
62.96574276465523
 20
5.786237951931557
 10
63.096742811120734
 20
5.743246165100704
 10
63.22562921378336
 20
5.694280859857468
 10
63.35212974585912
 20
5.639445458031435
 10
63.47597721986894
 20
5.578855779947933
 10
63.596910051977304
 20
5.512639799798702
 10
63.714672814495344
 20
5.440937375341807
 10
63.829016775381106
 20
5.363899952501807
 10
63.93970042359779
 20
5.2816902454939445
 10
64.04648997922006
 20
5.194481893148119
 10
64.14915988721117
 20
5.102459092158515
 10
64.24749329382793
 20
5.005816208033412
 10
64.3412825046473
 20
4.904757364567072
 10
64.4303294232471
 20
4.799496012700619
 10
64.4303294232471
 20
12.912103987299385
 10
63.52507057675289
 20
12.912103987299382
 10
63.52507057675289
 20
12.912103987299382
 10
63.474122579243726
 20
12.854105803564972
 10
63.41485389717944
 20
12.804641563016402
 10
63.34867737450287
 20
12.764890391799424
 10
63.277170523923346
 20
12.735799876388354
 10
63.202037922245914
 20
12.718063475066065
 10
63.12507057675289
 20
12.712103987299383
 10
59.92507057675289
 20
12.712103987299383
 10
59.84810323125986
 20
12.718063475066065
 10
59.77297062958243
 20
12.735799876388354
 10
59.70146377900291
 20
12.764890391799424
 10
59.635287256326336
 20
12.804641563016402
 10
59.57601857426205
 20
12.854105803564972
 10
59.52507057675289
 20
12.912103987299382
 10
59.52507057675289
 20
12.912103987299382
 10
54.37507057675289
 20
12.912103987299382
 10
54.37507057675289
 20
12.912103987299382
 10
54.32412257924373
 20
12.854105803564972
 10
54.26485389717944
 20
12.804641563016402
 10
54.19867737450287
 20
12.764890391799424
 10
54.12717052392335
 20
12.735799876388354
 10
54.052037922245916
 20
12.718063475066065
 10
53.97507057675289
 20
12.712103987299383
 10
50.77507057675289
 20
12.712103987299383
 10
50.698103231259864
 20
12.718063475066065
 10
50.62297062958243
 20
12.735799876388354
 10
50.55146377900291
 20
12.764890391799424
 10
50.48528725632634
 20
12.804641563016402
 10
50.42601857426205
 20
12.854105803564972
 10
50.37507057675289
 20
12.912103987299382
 10
50.37507057675289
 20
12.912103987299382
 10
42.87507057675289
 20
12.912103987299382
 10
42.87507057675289
 20
12.912103987299382
 10
42.82412257924373
 20
12.854105803564972
 10
42.76485389717944
 20
12.804641563016402
 10
42.69867737450287
 20
12.764890391799424
 10
42.62717052392335
 20
12.735799876388354
 10
42.552037922245916
 20
12.718063475066065
 10
42.47507057675289
 20
12.712103987299383
 10
39.27507057675289
 20
12.712103987299383
 10
39.198103231259864
 20
12.718063475066065
 10
39.12297062958243
 20
12.735799876388354
 10
39.05146377900291
 20
12.764890391799424
 10
38.98528725632634
 20
12.804641563016402
 10
38.92601857426205
 20
12.854105803564972
 10
38.87507057675289
 20
12.912103987299382
 10
38.87507057675289
 20
12.912103987299382
 10
35.70007057675289
 20
12.912103987299385
  0
LWPOLYLINE
  5
40
330
17
100
AcDbEntity
  8
CONTOUR
100
AcDbPolyline
 90
158
 70
1
 10
62.7827
 20
0.12503840903805497
 10
59.607699999999994
 20
0.1250384090380578
 10
59.607699999999994
 20
0.1250384090380578
 10
59.55675200249083
 20
0.1830365927724687
 10
59.49748332042655
 20
0.23250083332103805
 10
59.431306797749976
 20
0.27225200453801573
 10
59.35979994717045
 20
0.301342519949086
 10
59.28466734549302
 20
0.3190789212713736
 10
59.207699999999996
 20
0.3250384090380578
 10
56.00769999999999
 20
0.3250384090380578
 10
55.93073265450697
 20
0.3190789212713736
 10
55.85560005282954
 20
0.30134251994908606
 10
55.78409320225001
 20
0.27225200453801573
 10
55.71791667957344
 20
0.232500833321038
 10
55.658647997509156
 20
0.18303659277246875
 10
55.607699999999994
 20
0.1250384090380578
 10
55.607699999999994
 20
0.1250384090380578
 10
48.107699999999994
 20
0.1250384090380578
 10
48.107699999999994
 20
0.1250384090380578
 10
48.05675200249083
 20
0.1830365927724687
 10
47.99748332042655
 20
0.23250083332103805
 10
47.931306797749976
 20
0.27225200453801573
 10
47.85979994717045
 20
0.301342519949086
 10
47.78466734549302
 20
0.3190789212713736
 10
47.707699999999996
 20
0.3250384090380578
 10
44.50769999999999
 20
0.3250384090380578
 10
44.43073265450697
 20
0.3190789212713736
 10
44.35560005282954
 20
0.30134251994908606
 10
44.28409320225001
 20
0.27225200453801573
 10
44.21791667957344
 20
0.232500833321038
 10
44.158647997509156
 20
0.18303659277246875
 10
44.107699999999994
 20
0.1250384090380578
 10
44.107699999999994
 20
0.1250384090380578
 10
38.9577
 20
0.1250384090380578
 10
38.9577
 20
0.1250384090380578
 10
38.90675200249084
 20
0.1830365927724687
 10
38.847483320426555
 20
0.23250083332103805
 10
38.781306797749984
 20
0.27225200453801573
 10
38.70979994717046
 20
0.301342519949086
 10
38.63466734549303
 20
0.3190789212713736
 10
38.557700000000004
 20
0.3250384090380578
 10
35.3577
 20
0.3250384090380578
 10
35.28073265450698
 20
0.3190789212713736
 10
35.205600052829546
 20
0.30134251994908606
 10
35.13409320225002
 20
0.27225200453801573
 10
35.06791667957345
 20
0.232500833321038
 10
35.008647997509165
 20
0.18303659277246875
 10
34.9577
 20
0.1250384090380578
 10
34.9577
 20
0.1250384090380578
 10
33.7827
 20
0.12503840903805497
 10
33.7827
 20
2.2373049706705856
 10
33.7827
 20
2.2373049706705856
 10
33.79443606053992
 20
2.502406136497086
 10
33.82955241874838
 20
2.7654331401026866
 10
33.887774322821436
 20
3.024328047595425
 10
33.9686462422318
 20
3.2770652547700934
 10
34.07153543181802
 20
3.521667335517286
 10
34.19563688240816
 20
3.7562205132851147
 10
34.33997961924409
 20
3.978889634544174
 10
34.50343429892712
 20
4.1879325271028165
 10
34.68472204544641
 20
4.381713630932694
 10
34.8824244561564
 20
4.558716794856451
 10
35.09499469941646
 20
4.717557138975707
 10
35.320769617064
 20
4.856991890027288
 10
35.55798273703106
 20
4.975930104891383
 10
35.80477809429313
 20
5.073441206174557
 10
36.059224752014316
 20
5.148762263084826
 10
36.31933190927518
 20
5.20130396063297
 10
36.58306447717938
 20
5.2306552104567885
 10
36.84835900147141
 20
5.2365863671930555
 10
37.113139807085936
 20
5.219051025232076
 10
37.11313980708593
 20
5.219051025231977
 10
37.59812845525633
 20
5.172741485155171
 10
38.083117103426744
 20
5.141763607686805
 10
38.56810575159715
 20
5.12661612631404
 10
39.05309439976756
 20
5.127542910430918
 10
39.538083047937974
 20
5.14452903912251
 10
40.023071696108374
 20
5.177301041386663
 10
40.50806034427879
 20
5.225331298925852
 10
40.9930489924492
 20
5.287846540625658
 10
41.478037640619604
 20
5.363840291961601
 10
41.96302628879001
 20
5.452089078903043
 10
42.44801493696042
 20
5.551172125436686
 10
42.933003585130834
 20
5.659494227586151
 10
43.41799223330124
 20
5.775311435663539
 10
43.90298088147165
 20
5.896759131277307
 10
44.387969529642056
 20
6.021882047065937
 10
44.872958177812464
 20
6.148665745849883
 10
45.35794682598288
 20
6.275069052397697
 10
45.84293547415328
 20
6.399056915665973
 10
46.327924122323694
 20
6.5186331724418665
 10
46.8129127704941
 20
6.6318726849044864
 10
47.29790141866451
 20
6.736952334701286
 10
47.782890066834916
 20
6.83218037454494
 10
48.267878715005324
 20
6.9160236647800275
 10
48.75286736317574
 20
6.987132356419721
 10
49.237856011346146
 20
7.044361623263903
 10
49.722844659516554
 20
7.086790093218873
 10
50.20783330768696
 20
7.113734682080505
 10
50.69282195585737
 20
7.124761590961938
 10
51.17781060402778
 20
7.119693290310828
 10
51.66279925219819
 20
7.098611378075923
 10
52.1477879003686
 20
7.061855266007299
 10
52.632776548539006
 20
7.010016715240475
 10
53.11776519670941
 20
6.943930309139674
 10
53.60275384487983
 20
6.864660016784207
 10
54.08774249305023
 20
6.773482063421461
 10
54.57273114122064
 20
6.671864383666403
 10
55.05771978939105
 20
6.561442988244224
 10
55.54270843756146
 20
6.443995624763808
 10
56.027697085731866
 20
6.321413156574565
 10
56.51268573390227
 20
6.1956691204976835
 10
56.99767438207269
 20
6.068787953542042
 10
57.48266303024309
 20
5.942812400144113
 10
57.9676516784135
 20
5.819770624664372
 10
58.45264032658391
 20
5.701643558618066
 10
58.93762897475432
 20
5.5903330083390514
 10
59.42261762292473
 20
5.487631036532591
 10
59.90760627109513
 20
5.395191110664008
 10
60.39259491926555
 20
5.3145014826843635
 10
60.877583567435956
 20
5.246861228670845
 10
60.877583567402404
 20
5.246861228402906
 10
61.03131259817761
 20
5.225180967032102
 10
61.18429443122928
 20
5.198738437040873
 10
61.336381575862646
 20
5.167559131829577
 10
61.487427403957334
 20
5.131673111551763
 10
61.63728629133244
 20
5.091114974132935
 10
61.78581375814366
 20
5.045923821914506
 10
61.9328666081772
 20
4.996143223955023
 10
62.07830306690603
 20
4.941821174024938
 10
62.221982918175605
 20
4.883010044335563
 10
62.363767639387085
 20
4.819766535046682
 10
62.50352053504777
 20
4.752151619601619
 10
62.64110686856006
 20
4.68023048594236
 10
62.776393992121804
 20
4.604072473661454
 10
62.90925147461283
 20
4.523751007151347
 10
63.03955122734438
 20
4.439343524815442
 10
63.16716762755016
 20
4.350931404409302
 10
63.291977639499976
 20
4.258599884583866
 10
63.41386093311927
 20
4.1624379827063365
 10
63.5327
 20
4.062538409038055
 10
63.5327
 20
3.437538409038055
 10
63.5327
 20
3.437538409038055
 10
63.448726642922516
 20
3.432822566457986
 10
63.36580929953276
 20
3.418734343174421
 10
63.28499070353362
 20
3.3954509067693337
 10
63.20728719566183
 20
3.363265059964867
 10
63.13367594261349
 20
3.3225815584592695
 10
63.06508264860595
 20
3.273912020889078
 10
63.00236991411009
 20
3.217868494927963
 10
62.946326388148975
 20
3.155155760432102
 10
62.897656850578784
 20
3.08656246642456
 10
62.856973349073186
 20
3.012951213376226
 10
62.82478750226872
 20
2.9352477055044304
 10
62.80150406586363
 20
2.85442910950529
 10
62.78741584258007
 20
2.7715117661155375
 10
62.7827
 20
2.687538409038055
 10
62.7827
 20
0.12503840903805497
  0
LWPOLYLINE
  5
41
330
17
100
AcDbEntity
  8
CONTOUR
100
AcDbPolyline
 90
158
 70
1
 10
35.186
 20
39.71571769811629
 10
38.361000000000004
 20
39.71571769811629
 10
38.361000000000004
 20
39.71571769811629
 10
38.411947997509166
 20
39.65771951438188
 10
38.47121667957345
 20
39.608255273833315
 10
38.53739320225002
 20
39.56850410261634
 10
38.60890005282955
 20
39.53941358720527
 10
38.68403265450698
 20
39.52167718588298
 10
38.761
 20
39.51571769811629
 10
41.961000000000006
 20
39.51571769811629
 10
42.03796734549303
 20
39.52167718588298
 10
42.11309994717046
 20
39.53941358720527
 10
42.184606797749986
 20
39.56850410261634
 10
42.25078332042656
 20
39.608255273833315
 10
42.31005200249084
 20
39.65771951438188
 10
42.361000000000004
 20
39.71571769811629
 10
42.361000000000004
 20
39.71571769811629
 10
49.861000000000004
 20
39.71571769811629
 10
49.861000000000004
 20
39.71571769811629
 10
49.911947997509166
 20
39.65771951438188
 10
49.97121667957345
 20
39.608255273833315
 10
50.03739320225002
 20
39.56850410261634
 10
50.10890005282955
 20
39.53941358720527
 10
50.18403265450698
 20
39.52167718588298
 10
50.261
 20
39.51571769811629
 10
53.461000000000006
 20
39.51571769811629
 10
53.53796734549303
 20
39.52167718588298
 10
53.61309994717046
 20
39.53941358720527
 10
53.684606797749986
 20
39.56850410261634
 10
53.75078332042656
 20
39.608255273833315
 10
53.81005200249084
 20
39.65771951438188
 10
53.861000000000004
 20
39.71571769811629
 10
53.861000000000004
 20
39.71571769811629
 10
59.010999999999996
 20
39.71571769811629
 10
59.010999999999996
 20
39.71571769811629
 10
59.06194799750916
 20
39.65771951438188
 10
59.12121667957344
 20
39.608255273833315
 10
59.187393202250014
 20
39.56850410261634
 10
59.25890005282954
 20
39.53941358720527
 10
59.33403265450697
 20
39.52167718588298
 10
59.410999999999994
 20
39.51571769811629
 10
62.611
 20
39.51571769811629
 10
62.68796734549302
 20
39.52167718588298
 10
62.76309994717045
 20
39.53941358720527
 10
62.83460679774998
 20
39.56850410261634
 10
62.90078332042655
 20
39.608255273833315
 10
62.96005200249083
 20
39.65771951438188
 10
63.010999999999996
 20
39.71571769811629
 10
63.010999999999996
 20
39.71571769811629
 10
64.186
 20
39.71571769811629
 10
64.186
 20
37.063436328793316
 10
64.186
 20
37.063436328793316
 10
64.17250116606218
 20
36.779163950414286
 10
64.13212614326048
 20
36.4974498024545
 10
64.06523827541362
 20
36.220829093248085
 10
63.97243950133527
 20
35.95179119413997
 10
63.8545649378527
 20
35.69275723707885
 10
63.71267536440455
 20
35.446058326311785
 10
63.54804767685047
 20
35.21391456025819
 10
63.36216339640104
 20
34.99841505234983
 10
63.15669533707854
 20
34.801499130633985
 10
62.9334925516912
 20
34.62493888532863
 10
62.69456369179528
 20
34.47032322138806
 10
62.44205893139257
 20
34.33904355959338
 10
62.17825061703588
 20
34.232281314847256
 10
61.90551281847647
 20
34.15099726435814
 10
61.62629996388189
 20
34.09592290139226
 10
61.34312475189046
 20
34.06755385240287
 10
61.05853553927683
 20
34.066145416777516
 10
60.77509340772207
 20
34.09171026934192
 10
60.49534911606938
 20
34.14401834629649
 10
60.495349116069406
 20
34.14401834629662
 10
60.019437749580995
 20
34.25299425122128
 10
59.54352638309259
 20
34.353640531913854
 10
59.06761501660418
 20
34.444396826780874
 10
58.591703650115775
 20
34.52385610283616
 10
58.11579228362737
 20
34.59078646952449
 10
57.63988091713897
 20
34.64415027723879
 10
57.163969550650556
 20
34.68312020443807
 10
56.68805818416215
 20
34.707092083961015
 10
56.21214681767374
 20
34.71569426968347
 10
55.73623545118534
 20
34.70879339830449
 10
55.26032408469693
 20
34.68649645693368
 10
54.78441271820853
 20
34.64914912442498
 10
54.30850135172012
 20
34.597330412172184
 10
53.832589985231714
 20
34.53184368745194
 10
53.3566786187433
 20
34.45370421848308
 10
52.8807672522549
 20
34.364123434296815
 10
52.404855885766494
 20
34.26449014344317
 10
51.92894451927808
 20
34.156349002708325
 10
51.45303315278968
 20
34.04137656965126
 10
50.97712178630127
 20
33.9213553102271
 10
50.501210419812864
 20
33.79814596446832
 10
50.02529905332446
 20
33.673658698649845
 10
49.549387686836056
 20
33.549823491178444
 10
49.073476320347645
 20
33.428560211326214
 10
48.59756495385924
 20
33.31174885469039
 10
48.12165358737083
 20
33.2012003968313
 10
47.645742220882425
 20
33.09862871695711
 10
47.16983085439402
 20
33.00562402693407
 10
46.69391948790562
 20
32.92362821756356
 10
46.218008121417206
 20
32.8539125043429
 10
45.7420967549288
 20
32.797557719277236
 10
45.26618538844039
 20
32.7554375542866
 10
44.79027402195199
 20
32.728205015992884
 10
44.31436265546358
 20
32.71628230188371
 10
43.83845128897518
 20
32.719854254807274
 10
43.36253992248677
 20
32.73886549727605
 10
42.886628555998364
 20
32.77302129000719
 10
42.41071718950995
 20
32.82179210138955
 10
41.93480582302155
 20
32.88442181703479
 10
41.458894456533145
 20
32.95993946213662
 10
40.98298309004474
 20
33.047174254901265
 10
40.50707172355633
 20
33.14477375766977
 10
40.03116035706792
 20
33.25122484432747
 10
39.555248990579514
 20
33.36487715893415
 10
39.07933762409111
 20
33.48396870188587
 10
38.603426257602706
 20
33.606653146935415
 10
38.1275148911143
 20
33.731028465564165
 10
37.65160352462589
 20
33.85516641492973
 10
37.17569215813748
 20
33.97714243222512
 10
37.17569215836532
 20
33.97714243312676
 10
37.00602848204964
 20
34.02320348941508
 10
36.83808898507361
 20
34.07520069436673
 10
36.67208129025787
 20
34.13306976407854
 10
36.50821063214503
 20
34.19673915528821
 10
36.34667960326914
 20
34.26613015382293
 10
36.18768790369149
 20
34.341156971913236
 10
36.03143209411233
 20
34.42172685425216
 10
35.87810535286382
 20
34.50774019266812
 10
35.72789723708453
 20
34.59909064927005
 10
35.58099344837082
 20
34.69566528791243
 10
35.43757560319487
 20
34.79734471381775
 10
35.29782100837302
 20
34.90400322118367
 10
35.1619024418622
 20
35.01550894859258
 10
35.029987939155355
 20
35.13172404203122
 10
34.90224058553992
 20
35.252504825318965
 10
34.778818314476254
 20
35.377701977734006
 10
34.65987371234524
 20
35.50716071861788
 10
34.54555382980642
 20
35.64072099873012
 10
34.436
 20
35.77821769811629
 10
34.436
 20
36.40321769811629
 10
34.436
 20
36.40321769811629
 10
34.51997335707748
 20
36.40793354069636
 10
34.602890700467235
 20
36.42202176397993
 10
34.683709296466375
 20
36.44530520038502
 10
34.76141280433817
 20
36.47749104718949
 10
34.835024057386505
 20
36.518174548695086
 10
34.90361735139405
 20
36.56684408626528
 10
34.96633008588991
 20
36.62288761222639
 10
35.02237361185102
 20
36.685600346722254
 10
35.071043149421214
 20
36.754193640729795
 10
35.11172665092681
 20
36.82780489377812
 10
35.14391249773128
 20
36.905508401649925
 10
35.167195934136366
 20
36.98632699764906
 10
35.18128415741993
 20
37.06924434103881
 10
35.186
 20
37.15321769811629
 10
35.186
 20
39.71571769811629
  0
LWPOLYLINE
  5
42
330
17
100
AcDbEntity
  8
CONTOUR
100
AcDbPolyline
 90
158
 70
1
 10
63.36532294749785
 20
13.52969065050172
 10
63.36532294749785
 20
16.09219065050172
 10
63.36532294749785
 20
16.09219065050172
 10
63.37003879007792
 20
16.176164007579203
 10
63.384127013361486
 20
16.259081350968955
 10
63.40741044976657
 20
16.339899946968096
 10
63.43959629657104
 20
16.41760345483989
 10
63.48027979807664
 20
16.491214707888226
 10
63.52894933564683
 20
16.559808001895767
 10
63.584992861607944
 20
16.62252073639163
 10
63.647705596103805
 20
16.678564262352744
 10
63.71629889011135
 20
16.727233799922935
 10
63.78991014315968
 20
16.767917301428533
 10
63.867613651031476
 20
16.800103148233
 10
63.94843224703062
 20
16.823386584638087
 10
64.03134959042038
 20
16.83747480792165
 10
64.11532294749784
 20
16.84219065050172
 10
64.11532294749784
 20
17.46719065050172
 10
64.11532294749786
 20
17.46719065050172
 10
63.94740353966287
 20
17.769465276943592
 10
63.75899381255936
 20
18.059411223718165
 10
63.550994868696364
 20
18.33564177356756
 10
63.324401499442004
 20
18.596835805521167
 10
63.0802974272596
 20
18.84174411338799
 10
62.81985012261521
 20
19.069195380303988
 10
62.54430522034572
 20
19.278101780760075
 10
62.254980562192145
 20
19.46746418331808
 10
61.953259893990754
 20
19.636376929131792
 10
61.640586247666306
 20
19.784032163418956
 10
61.318455039679236
 20
19.90972369916824
 10
60.98840691893457
 20
20.012850394602246
 10
60.65202039835881
 20
20.09291902824333
 10
60.31090430538542
 20
20.14954665783167
 10
59.96669008745601
 20
20.18246245181367
 10
59.621024009337226
 20
20.19150898464129
 10
59.27555927957129
 20
20.17664298968731
 10
58.931948143716674
 20
20.137935566175514
 10
58.5918339821944
 20
20.075571839136245
 10
58.59183398222318
 20
20.07557183900505
 10
58.149016397137444
 20
19.97499226805001
 10
57.70619881205171
 20
19.868434712469053
 10
57.263381226965976
 20
19.757329662078384
 10
56.82056364188024
 20
19.643168654875893
 10
56.37774605679451
 20
19.527484253778574
 10
55.93492847170877
 20
19.41182947261788
 10
55.49211088662304
 20
19.29775692759022
 10
55.049293301537304
 20
19.18679799404555
 10
54.60647571645157
 20
19.08044224842532
 10
54.163658131365835
 20
18.980117471332925
 10
53.7208405462801
 20
18.887170480186995
 10
53.27802296119437
 20
18.802849048770945
 10
52.83520537610863
 20
18.72828515640122
 10
52.3923877910229
 20
18.664479791586885
 10
51.949570205937164
 20
18.612289514185072
 10
51.50675262085143
 20
18.572414956449606
 10
51.063935035765695
 20
18.545391417341257
 10
50.62111745067996
 20
18.531581676367132
 10
50.178299865594234
 20
18.531171123420243
 10
49.7354822805085
 20
18.544165269999098
 10
49.292664695422765
 20
18.57038967521821
 10
48.84984711033703
 20
18.6094922876027
 10
48.407029525251296
 20
18.660948171229464
 10
47.96421194016556
 20
18.72406655276844
 10
47.52139435507983
 20
18.798000094820488
 10
47.07857676999409
 20
18.88175627106117
 10
46.63575918490836
 20
18.974210690484128
 10
46.192941599822625
 20
19.074122191871588
 10
45.75012401473689
 20
19.18014950585532
 10
45.307306429651156
 20
19.290869260886815
 10
44.86448884456542
 20
19.404795091394334
 10
44.42167125947969
 20
19.520397591607882
 10
43.97885367439395
 20
19.63612484718051
 10
43.53603608930822
 20
19.750423268977684
 10
43.093218504222484
 20
19.86175844934997
 10
42.65040091913675
 20
19.968635760902465
 10
42.207583334051016
 20
20.069620421231186
 10
41.76476574896528
 20
20.163356754266005
 10
41.32194816387955
 20
20.248586389644714
 10
40.87913057879381
 20
20.324165155799342
 10
40.43631299370808
 20
20.38907843997235
 10
39.993495408622344
 20
20.442454808960925
 10
39.55067782353661
 20
20.483577707736664
 10
39.107860238450876
 20
20.511895078891833
 10
38.66504265336514
 20
20.527026773774935
 10
38.22222506827941
 20
20.528769655824576
 10
37.77940748319367
 20
20.51710032759128
 10
37.33658989810794
 20
20.492175444838303
 10
36.893772313022204
 20
20.454329613504683
 10
36.893772313022204
 20
20.45432961350467
 10
36.74314795362284
 20
20.443132650506378
 10
36.592150943474806
 20
20.439530907704466
 10
36.441164027612075
 20
20.443533514744423
 10
36.29056992548176
 20
20.4551303258759
 10
36.140750360832406
 20
20.474291945670032
 10
35.992085094126196
 20
20.500969803530552
 10
35.84495095992758
 20
20.535096276809803
 10
35.699720911708525
 20
20.576584862217686
 10
35.556763076491436
 20
20.62533039508891
 10
35.41643982172612
 20
20.6812093159529
 10
35.27910683676601
 20
20.7440799837305
 10
35.145112231271966
 20
20.813783034763794
 10
35.01479565282892
 20
20.890141786768744
 10
34.888487426012134
 20
20.97296268668692
 10
34.76650771508523
 20
21.06203580130095
 10
34.649165712452444
 20
21.157135349370243
 10
34.536758854922226
 20
21.258020273937973
 10
34.4295720697687
 20
21.36443485335878
 10
34.32787705250215
 20
21.47610934949828
 10
34.32787705250215
 20
13.52969065050172
 10
35.540322947497856
 20
13.529690650501724
 10
35.540322947497856
 20
13.529690650501724
 10
35.59127094500702
 20
13.587688834236134
 10
35.6505396270713
 20
13.637153074784704
 10
35.716716149747874
 20
13.676904246001682
 10
35.7882230003274
 20
13.705994761412752
 10
35.86335560200483
 20
13.72373116273504
 10
35.940322947497854
 20
13.729690650501723
 10
39.14032294749786
 20
13.729690650501723
 10
39.21729029299088
 20
13.72373116273504
 10
39.29242289466831
 20
13.705994761412752
 10
39.36392974524784
 20
13.676904246001682
 10
39.43010626792441
 20
13.637153074784704
 10
39.489374949988694
 20
13.587688834236134
 10
39.540322947497856
 20
13.529690650501724
 10
39.540322947497856
 20
13.529690650501724
 10
44.69032294749785
 20
13.529690650501724
 10
44.69032294749785
 20
13.529690650501724
 10
44.74127094500701
 20
13.587688834236134
 10
44.800539627071295
 20
13.637153074784704
 10
44.866716149747866
 20
13.676904246001682
 10
44.93822300032739
 20
13.705994761412752
 10
45.01335560200482
 20
13.72373116273504
 10
45.090322947497846
 20
13.729690650501723
 10
48.29032294749785
 20
13.729690650501723
 10
48.36729029299087
 20
13.72373116273504
 10
48.442422894668304
 20
13.705994761412752
 10
48.51392974524783
 20
13.676904246001682
 10
48.5801062679244
 20
13.637153074784704
 10
48.639374949988685
 20
13.587688834236134
 10
48.69032294749785
 20
13.529690650501724
 10
48.69032294749785
 20
13.529690650501724
 10
56.19032294749785
 20
13.529690650501724
 10
56.19032294749785
 20
13.529690650501724
 10
56.24127094500701
 20
13.587688834236134
 10
56.300539627071295
 20
13.637153074784704
 10
56.366716149747866
 20
13.676904246001682
 10
56.43822300032739
 20
13.705994761412752
 10
56.51335560200482
 20
13.72373116273504
 10
56.590322947497846
 20
13.729690650501723
 10
59.79032294749785
 20
13.729690650501723
 10
59.86729029299087
 20
13.72373116273504
 10
59.942422894668304
 20
13.705994761412752
 10
60.01392974524783
 20
13.676904246001682
 10
60.0801062679244
 20
13.637153074784704
 10
60.139374949988685
 20
13.587688834236134
 10
60.19032294749785
 20
13.529690650501724
 10
60.19032294749785
 20
13.529690650501724
 10
63.36532294749785
 20
13.52969065050172
  0
LWPOLYLINE
  5
43
330
17
100
AcDbEntity
  8
CONTOUR
100
AcDbPolyline
 90
158
 70
1
 10
32.1997
 20
0.12500092688775766
 10
29.0247
 20
0.1250009268877605
 10
29.0247
 20
0.1250009268877605
 10
28.973752002490837
 20
0.1829991106221714
 10
28.914483320426548
 20
0.23246335117074074
 10
28.848306797749977
 20
0.2722145223877184
 10
28.776799947170453
 20
0.3013050377987887
 10
28.701667345493025
 20
0.3190414391210763
 10
28.6247
 20
0.3250009268877605
 10
25.424699999999998
 20
0.3250009268877605
 10
25.347732654506974
 20
0.3190414391210763
 10
25.272600052829546
 20
0.30130503779878876
 10
25.20109320225002
 20
0.2722145223877184
 10
25.13491667957345
 20
0.23246335117074068
 10
25.07564799750916
 20
0.18299911062217145
 10
25.0247
 20
0.1250009268877605
 10
25.0247
 20
0.1250009268877605
 10
17.5247
 20
0.1250009268877605
 10
17.5247
 20
0.1250009268877605
 10
17.473752002490837
 20
0.1829991106221714
 10
17.414483320426548
 20
0.23246335117074074
 10
17.348306797749977
 20
0.2722145223877184
 10
17.276799947170453
 20
0.3013050377987887
 10
17.201667345493025
 20
0.3190414391210763
 10
17.1247
 20
0.3250009268877605
 10
13.9247
 20
0.3250009268877605
 10
13.847732654506972
 20
0.3190414391210763
 10
13.772600052829546
 20
0.30130503779878876
 10
13.70109320225002
 20
0.2722145223877184
 10
13.634916679573449
 20
0.23246335117074068
 10
13.575647997509163
 20
0.18299911062217145
 10
13.5247
 20
0.1250009268877605
 10
13.5247
 20
0.1250009268877605
 10
8.3747
 20
0.1250009268877605
 10
8.3747
 20
0.1250009268877605
 10
8.323752002490837
 20
0.1829991106221714
 10
8.264483320426551
 20
0.23246335117074074
 10
8.19830679774998
 20
0.2722145223877184
 10
8.126799947170454
 20
0.3013050377987887
 10
8.051667345493028
 20
0.3190414391210763
 10
7.9747
 20
0.3250009268877605
 10
4.774700000000001
 20
0.3250009268877605
 10
4.697732654506973
 20
0.3190414391210763
 10
4.622600052829546
 20
0.30130503779878876
 10
4.551093202250022
 20
0.2722145223877184
 10
4.48491667957345
 20
0.23246335117074068
 10
4.425647997509164
 20
0.18299911062217145
 10
4.374700000000001
 20
0.1250009268877605
 10
4.374700000000001
 20
0.1250009268877605
 10
3.1997
 20
0.12500092688775766
 10
3.1997
 20
3.541548909551153
 10
3.1997
 20
3.541548909551153
 10
3.213350019130175
 20
3.827405152720331
 10
3.2541758611725307
 20
4.110660100431019
 10
3.3218060104438116
 20
4.3887361290465705
 10
3.415625031723131
 20
4.6591027431601475
 10
3.534779170720334
 20
4.919299603135222
 10
3.678184123250915
 20
5.1669589142276
 10
3.8445349024179407
 20
5.399826973547839
 10
4.032317714009441
 20
5.615784678786255
 10
4.2398237320450605
 20
5.812866812070972
 10
4.46516464911425
 20
5.989279923475614
 10
4.706289859997813
 20
6.1434186514365265
 10
4.961005122201531
 20
6.273880331563468
 10
5.226992523590841
 20
6.379477760903441
 10
5.501831575420855
 20
6.459250001502731
 10
5.783021238814769
 20
6.5124711249545015
 10
6.06800268424956
 20
6.538656818356593
 10
6.354182576937276
 20
6.537568791565093
 10
6.638956676204675
 20
6.509216945637675
 10
6.919733534116574
 20
6.453859282733859
 10
6.919733534116624
 20
6.453859282734058
 10
7.378605238777176
 20
6.338311333309413
 10
7.8374769434377285
 20
6.21968863616879
 10
8.296348648098284
 20
6.099701069762162
 10
8.755220352758837
 20
5.980078186350688
 10
9.21409205741939
 20
5.862544281498373
 10
9.672963762079942
 20
5.74879353933602
 10
10.131835466740494
 20
5.640465611864293
 10
10.59070717140105
 20
5.539121984306341
 10
11.049578876061602
 20
5.446223467189846
 10
11.508450580722155
 20
5.363109139597306
 10
11.967322285382707
 20
5.290977047105677
 10
12.42619399004326
 20
5.23086693264338
 10
12.885065694703815
 20
5.183645249189681
 10
13.343937399364368
 20
5.149992670349668
 10
13.80280910402492
 20
5.1303942788329095
 10
14.261680808685472
 20
5.125132574263141
 10
14.720552513346028
 20
5.134283401107481
 10
15.17942421800658
 20
5.15771485542178
 10
15.638295922667133
 20
5.195089186170598
 10
16.097167627327686
 20
5.245867663715607
 10
16.556039331988238
 20
5.3093183452956865
 10
17.01491103664879
 20
5.3845266255639075
 10
17.473782741309343
 20
5.47040842010145
 10
17.9326544459699
 20
5.565725791875472
 10
18.39152615063045
 20
5.669104795394659
 10
18.850397855291007
 20
5.779055281348974
 10
19.30926955995156
 20
5.893992376261174
 10
19.76814126461211
 20
6.012259327533059
 10
20.227012969272664
 20
6.132151384588234
 10
20.685884673933217
 20
6.251940371878312
 10
21.14475637859377
 20
6.369899599546727
 10
21.60362808325432
 20
6.484328752677115
 10
22.062499787914874
 20
6.593578400362048
 10
22.52137149257543
 20
6.6960737713077805
 10
22.980243197235982
 20
6.790337453263312
 10
23.439114901896534
 20
6.875010689074436
 10
23.89798660655709
 20
6.948872962392308
 10
24.356858311217643
 20
7.010859590719768
 10
24.815730015878195
 20
7.060077072201615
 10
25.274601720538747
 20
7.0958159649436965
 10
25.7334734251993
 20
7.117561113212773
 10
26.192345129859856
 20
7.124999073112242
 10
26.651216834520408
 20
7.118022630696956
 10
27.11008853918096
 20
7.096732347401044
 10
27.568960243841513
 20
7.061435110502217
 10
28.027831948502065
 20
7.012639709516918
 10
28.48670365316262
 20
6.951049502289926
 10
28.945575357823174
 20
6.877552276492622
 10
29.404447062483726
 20
6.793207452670593
 10
29.40444706249284
 20
6.7932074527173825
 10
29.642901145735888
 20
6.740689281556712
 10
29.878507006036237
 20
6.6765925834398985
 10
30.11070278459809
 20
6.601070212347615
 10
30.338934754785086
 20
6.514302269523633
 10
30.562658642614537
 20
6.41649567398008
 10
30.78134092470954
 20
6.307883669049382
 10
30.994460100613686
 20
6.188725266159437
 10
31.201507936434233
 20
6.059304627158646
 10
31.401990676847955
 20
5.91993038666368
 10
31.595430222579388
 20
5.770934916046073
 10
31.781365270543432
 20
5.612673530812799
 10
31.95935241393343
 20
5.445523643271073
 10
32.12896719963127
 20
5.269883862497977
 10
32.289805140417826
 20
5.086173043761342
 10
32.44148267956997
 20
4.894829289658695
 10
32.58363810554374
 20
4.696308905356325
 10
32.71593241456243
 20
4.49108531041994
 10
32.8380501190526
 20
4.279647909831972
 10
32.9497
 20
4.062500926887758
 10
32.9497
 20
3.4375009268877577
 10
32.9497
 20
3.4375009268877577
 10
32.86572664292252
 20
3.432785084307689
 10
32.782809299532765
 20
3.4186968610241237
 10
32.701990703533625
 20
3.3954134246190364
 10
32.62428719566183
 20
3.3632275778145697
 10
32.550675942613495
 20
3.322544076308972
 10
32.48208264860595
 20
3.273874538738781
 10
32.41936991411009
 20
3.2178310127776655
 10
32.36332638814898
 20
3.1551182782818046
 10
32.314656850578785
 20
3.086524984274263
 10
32.27397334907319
 20
3.012913731225929
 10
32.24178750226872
 20
2.935210223354133
 10
32.218504065863634
 20
2.8543916273549925
 10
32.20441584258007
 20
2.77147428396524
 10
32.1997
 20
2.6875009268877577
 10
32.1997
 20
0.12500092688775766
  0
ENDSEC
  0
SECTION
  2
OBJECTS
  0
DICTIONARY
  5
A
330
0
100
AcDbDictionary
281
1
  3
ACAD_COLOR
350
B
  3
ACAD_GROUP
350
C
  3
ACAD_LAYOUT
350
D
  3
ACAD_MATERIAL
350
E
  3
ACAD_MLEADERSTYLE
350
F
  3
ACAD_MLINESTYLE
350
10
  3
ACAD_PLOTSETTINGS
350
11
  3
ACAD_PLOTSTYLENAME
350
12
  3
ACAD_SCALELIST
350
14
  3
ACAD_TABLESTYLE
350
15
  3
ACAD_VISUALSTYLE
350
16
  3
EZDXF_META
350
2D
  0
DICTIONARY
  5
B
330
A
100
AcDbDictionary
281
1
  0
DICTIONARY
  5
C
330
A
100
AcDbDictionary
281
1
  0
DICTIONARY
  5
D
330
A
100
AcDbDictionary
281
1
  3
Model
350
1A
  3
Layout1
350
1E
  0
DICTIONARY
  5
E
330
A
100
AcDbDictionary
281
1
  3
ByBlock
350
1F
  3
ByLayer
350
20
  3
Global
350
21
  0
DICTIONARY
  5
F
330
A
100
AcDbDictionary
281
1
  3
Standard
350
2C
  0
DICTIONARY
  5
10
330
A
100
AcDbDictionary
281
1
  3
Standard
350
22
  0
DICTIONARY
  5
11
330
A
100
AcDbDictionary
281
1
  0
ACDBDICTIONARYWDFLT
  5
12
330
A
100
AcDbDictionary
281
1
  3
Normal
350
13
100
AcDbDictionaryWithDefault
340
13
  0
ACDBPLACEHOLDER
  5
13
330
12
  0
DICTIONARY
  5
14
330
A
100
AcDbDictionary
281
1
  0
DICTIONARY
  5
15
330
A
100
AcDbDictionary
281
1
  0
DICTIONARY
  5
16
330
A
100
AcDbDictionary
281
1
  0
LAYOUT
  5
1A
330
D
100
AcDbPlotSettings
  1

  4
A3
  6

 40
7.5
 41
20.0
 42
7.5
 43
20.0
 44
420.0
 45
297.0
 46
0.0
 47
0.0
 48
0.0
 49
0.0
140
0.0
141
0.0
142
1.0
143
1.0
 70
1024
 72
1
 73
0
 74
5
  7

 75
16
 76
0
 77
2
 78
300
147
1.0
148
0.0
149
0.0
100
AcDbLayout
  1
Model
 70
1
 71
0
 10
0.0
 20
0.0
 11
420.0
 21
297.0
 12
0.0
 22
0.0
 32
0.0
 14
1e+20
 24
1e+20
 34
1e+20
 15
-1e+20
 25
-1e+20
 35
-1e+20
146
0.0
 13
0.0
 23
0.0
 33
0.0
 16
1.0
 26
0.0
 36
0.0
 17
0.0
 27
1.0
 37
0.0
 76
1
330
17
  0
LAYOUT
  5
1E
330
D
100
AcDbPlotSettings
  1

  4
A3
  6

 40
7.5
 41
20.0
 42
7.5
 43
20.0
 44
420.0
 45
297.0
 46
0.0
 47
0.0
 48
0.0
 49
0.0
140
0.0
141
0.0
142
1.0
143
1.0
 70
0
 72
1
 73
0
 74
5
  7

 75
16
 76
0
 77
2
 78
300
147
1.0
148
0.0
149
0.0
100
AcDbLayout
  1
Layout1
 70
1
 71
1
 10
0.0
 20
0.0
 11
420.0
 21
297.0
 12
0.0
 22
0.0
 32
0.0
 14
1e+20
 24
1e+20
 34
1e+20
 15
-1e+20
 25
-1e+20
 35
-1e+20
146
0.0
 13
0.0
 23
0.0
 33
0.0
 16
1.0
 26
0.0
 36
0.0
 17
0.0
 27
1.0
 37
0.0
 76
1
330
1B
  0
MATERIAL
  5
1F
102
{ACAD_REACTORS
330
E
102
}
330
E
100
AcDbMaterial
  1
ByBlock
  2

 70
0
 40
1.0
 71
1
 41
1.0
 91
-1023410177
 42
1.0
 72
1
  3

 73
1
 74
1
 75
1
 44
0.5
 73
0
 45
1.0
 46
1.0
 77
1
  4

 78
1
 79
1
170
1
 48
1.0
171
1
  6

172
1
173
1
174
1
140
1.0
141
1.0
175
1
  7

176
1
177
1
178
1
143
1.0
179
1
  8

270
1
271
1
272
1
145
1.0
146
1.0
273
1
  9

274
1
275
1
276
1
 42
1.0
 72
1
  3

 73
1
 74
1
 75
1
 94
63
  0
MATERIAL
  5
20
102
{ACAD_REACTORS
330
E
102
}
330
E
100
AcDbMaterial
  1
ByLayer
  2

 70
0
 40
1.0
 71
1
 41
1.0
 91
-1023410177
 42
1.0
 72
1
  3

 73
1
 74
1
 75
1
 44
0.5
 73
0
 45
1.0
 46
1.0
 77
1
  4

 78
1
 79
1
170
1
 48
1.0
171
1
  6

172
1
173
1
174
1
140
1.0
141
1.0
175
1
  7

176
1
177
1
178
1
143
1.0
179
1
  8

270
1
271
1
272
1
145
1.0
146
1.0
273
1
  9

274
1
275
1
276
1
 42
1.0
 72
1
  3

 73
1
 74
1
 75
1
 94
63
  0
MATERIAL
  5
21
102
{ACAD_REACTORS
330
E
102
}
330
E
100
AcDbMaterial
  1
Global
  2

 70
0
 40
1.0
 71
1
 41
1.0
 91
-1023410177
 42
1.0
 72
1
  3

 73
1
 74
1
 75
1
 44
0.5
 73
0
 45
1.0
 46
1.0
 77
1
  4

 78
1
 79
1
170
1
 48
1.0
171
1
  6

172
1
173
1
174
1
140
1.0
141
1.0
175
1
  7

176
1
177
1
178
1
143
1.0
179
1
  8

270
1
271
1
272
1
145
1.0
146
1.0
273
1
  9

274
1
275
1
276
1
 42
1.0
 72
1
  3

 73
1
 74
1
 75
1
 94
63
  0
MLINESTYLE
  5
22
102
{ACAD_REACTORS
330
10
102
}
330
10
100
AcDbMlineStyle
  2
Standard
 70
0
  3

 62
256
 51
90.0
 52
90.0
 71
2
 49
0.5
 62
256
  6
BYLAYER
 49
-0.5
 62
256
  6
BYLAYER
  0
MLEADERSTYLE
  5
2C
102
{ACAD_REACTORS
330
F
102
}
330
F
100
AcDbMLeaderStyle
179
2
170
2
171
1
172
0
 90
2
 40
0.0
 41
0.0
173
1
 91
-1056964608
 92
-2
290
1
 42
2.0
291
1
 43
8.0
  3
Standard
 44
4.0
300

342
29
174
1
175
1
176
0
178
1
 93
-1056964608
 45
4.0
292
0
297
0
 46
4.0
 94
-1056964608
 47
1.0
 49
1.0
140
1.0
294
1
141
0.0
177
0
142
1.0
295
0
296
0
143
3.75
271
0
272
9
273
9
  0
DICTIONARY
  5
2D
330
A
100
AcDbDictionary
280
1
281
1
  3
CREATED_BY_EZDXF
350
2E
  3
WRITTEN_BY_EZDXF
350
46
  0
DICTIONARYVAR
  5
2E
330
2D
100
DictionaryVariables
280
0
  1
1.4.3 @ 2026-04-05T00:03:45.797381+00:00
  0
DICTIONARYVAR
  5
46
330
2D
100
DictionaryVariables
280
0
  1
1.4.3 @ 2026-04-05T00:03:45.835967+00:00
  0
ENDSEC
  0
EOF
