  0
SECTION
  2
HEADER
  9
$ACADVER
  1
AC1024
  9
$ACADMAINTVER
 70
6
  9
$DWGCODEPAGE
  3
ANSI_1252
  9
$LASTSAVEDBY
  1
ezdxf
  9
$INSBASE
 10
0.0
 20
0.0
 30
0.0
  9
$EXTMIN
 10
1e+20
 20
1e+20
 30
1e+20
  9
$EXTMAX
 10
-1e+20
 20
-1e+20
 30
-1e+20
  9
$LIMMIN
 10
0.0
 20
0.0
  9
$LIMMAX
 10
420.0
 20
297.0
  9
$ORTHOMODE
 70
0
  9
$REGENMODE
 70
1
  9
$FILLMODE
 70
1
  9
$QTEXTMODE
 70
0
  9
$MIRRTEXT
 70
1
  9
$LTSCALE
 40
1.0
  9
$ATTMODE
 70
1
  9
$TEXTSIZE
 40
2.5
  9
$TRACEWID
 40
1.0
  9
$TEXTSTYLE
  7
Standard
  9
$CLAYER
  8
0
  9
$CELTYPE
  6
ByLayer
  9
$CECOLOR
 62
256
  9
$CELTSCALE
 40
1.0
  9
$DISPSILH
 70
0
  9
$DIMSCALE
 40
1.0
  9
$DIMASZ
 40
2.5
  9
$DIMEXO
 40
0.625
  9
$DIMDLI
 40
3.75
  9
$DIMRND
 40
0.0
  9
$DIMDLE
 40
0.0
  9
$DIMEXE
 40
1.25
  9
$DIMTP
 40
0.0
  9
$DIMTM
 40
0.0
  9
$DIMTXT
 40
2.5
  9
$DIMCEN
 40
2.5
  9
$DIMTSZ
 40
0.0
  9
$DIMTOL
 70
0
  9
$DIMLIM
 70
0
  9
$DIMTIH
 70
0
  9
$DIMTOH
 70
0
  9
$DIMSE1
 70
0
  9
$DIMSE2
 70
0
  9
$DIMTAD
 70
1
  9
$DIMZIN
 70
8
  9
$DIMBLK
  1

  9
$DIMASO
 70
1
  9
$DIMSHO
 70
1
  9
$DIMPOST
  1

  9
$DIMAPOST
  1

  9
$DIMALT
 70
0
  9
$DIMALTD
 70
3
  9
$DIMALTF
 40
0.03937007874
  9
$DIMLFAC
 40
1.0
  9
$DIMTOFL
 70
1
  9
$DIMTVP
 40
0.0
  9
$DIMTIX
 70
0
  9
$DIMSOXD
 70
0
  9
$DIMSAH
 70
0
  9
$DIMBLK1
  1

  9
$DIMBLK2
  1

  9
$DIMSTYLE
  2
ISO-25
  9
$DIMCLRD
 70
0
  9
$DIMCLRE
 70
0
  9
$DIMCLRT
 70
0
  9
$DIMTFAC
 40
1.0
  9
$DIMGAP
 40
0.625
  9
$DIMJUST
 70
0
  9
$DIMSD1
 70
0
  9
$DIMSD2
 70
0
  9
$DIMTOLJ
 70
0
  9
$DIMTZIN
 70
8
  9
$DIMALTZ
 70
0
  9
$DIMALTTZ
 70
0
  9
$DIMUPT
 70
0
  9
$DIMDEC
 70
2
  9
$DIMTDEC
 70
2
  9
$DIMALTU
 70
2
  9
$DIMALTTD
 70
3
  9
$DIMTXSTY
  7
Standard
  9
$DIMAUNIT
 70
0
  9
$DIMADEC
 70
0
  9
$DIMALTRND
 40
0.0
  9
$DIMAZIN
 70
0
  9
$DIMDSEP
 70
44
  9
$DIMATFIT
 70
3
  9
$DIMFRAC
 70
0
  9
$DIMLDRBLK
  1

  9
$DIMLUNIT
 70
2
  9
$DIMLWD
 70
-2
  9
$DIMLWE
 70
-2
  9
$DIMTMOVE
 70
0
  9
$DIMFXL
 40
1.0
  9
$DIMFXLON
 70
0
  9
$DIMJOGANG
 40
0.785398163397
  9
$DIMTFILL
 70
0
  9
$DIMTFILLCLR
 70
0
  9
$DIMARCSYM
 70
0
  9
$DIMLTYPE
  6

  9
$DIMLTEX1
  6

  9
$DIMLTEX2
  6

  9
$DIMTXTDIRECTION
 70
0
  9
$LUNITS
 70
2
  9
$LUPREC
 70
4
  9
$SKETCHINC
 40
1.0
  9
$FILLETRAD
 40
10.0
  9
$AUNITS
 70
0
  9
$AUPREC
 70
2
  9
$MENU
  1
.
  9
$ELEVATION
 40
0.0
  9
$PELEVATION
 40
0.0
  9
$THICKNESS
 40
0.0
  9
$LIMCHECK
 70
0
  9
$CHAMFERA
 40
0.0
  9
$CHAMFERB
 40
0.0
  9
$CHAMFERC
 40
0.0
  9
$CHAMFERD
 40
0.0
  9
$SKPOLY
 70
0
  9
$TDCREATE
 40
2461135.7526041665
  9
$TDUCREATE
 40
2458532.153996898
  9
$TDUPDATE
 40
2461135.7526041665
  9
$TDUUPDATE
 40
2458532.1544311
  9
$TDINDWG
 40
0.0
  9
$TDUSRTIMER
 40
0.0
  9
$USRTIMER
 70
1
  9
$ANGBASE
 50
0.0
  9
$ANGDIR
 70
0
  9
$PDMODE
 70
0
  9
$PDSIZE
 40
0.0
  9
$PLINEWID
 40
0.0
  9
$SPLFRAME
 70
0
  9
$SPLINETYPE
 70
6
  9
$SPLINESEGS
 70
8
  9
$HANDSEED
  5
3A
  9
$SURFTAB1
 70
6
  9
$SURFTAB2
 70
6
  9
$SURFTYPE
 70
6
  9
$SURFU
 70
6
  9
$SURFV
 70
6
  9
$UCSBASE
  2

  9
$UCSNAME
  2

  9
$UCSORG
 10
0.0
 20
0.0
 30
0.0
  9
$UCSXDIR
 10
1.0
 20
0.0
 30
0.0
  9
$UCSYDIR
 10
0.0
 20
1.0
 30
0.0
  9
$UCSORTHOREF
  2

  9
$UCSORTHOVIEW
 70
0
  9
$UCSORGTOP
 10
0.0
 20
0.0
 30
0.0
  9
$UCSORGBOTTOM
 10
0.0
 20
0.0
 30
0.0
  9
$UCSORGLEFT
 10
0.0
 20
0.0
 30
0.0
  9
$UCSORGRIGHT
 10
0.0
 20
0.0
 30
0.0
  9
$UCSORGFRONT
 10
0.0
 20
0.0
 30
0.0
  9
$UCSORGBACK
 10
0.0
 20
0.0
 30
0.0
  9
$PUCSBASE
  2

  9
$PUCSNAME
  2

  9
$PUCSORG
 10
0.0
 20
0.0
 30
0.0
  9
$PUCSXDIR
 10
1.0
 20
0.0
 30
0.0
  9
$PUCSYDIR
 10
0.0
 20
1.0
 30
0.0
  9
$PUCSORTHOREF
  2

  9
$PUCSORTHOVIEW
 70
0
  9
$PUCSORGTOP
 10
0.0
 20
0.0
 30
0.0
  9
$PUCSORGBOTTOM
 10
0.0
 20
0.0
 30
0.0
  9
$PUCSORGLEFT
 10
0.0
 20
0.0
 30
0.0
  9
$PUCSORGRIGHT
 10
0.0
 20
0.0
 30
0.0
  9
$PUCSORGFRONT
 10
0.0
 20
0.0
 30
0.0
  9
$PUCSORGBACK
 10
0.0
 20
0.0
 30
0.0
  9
$USERI1
 70
0
  9
$USERI2
 70
0
  9
$USERI3
 70
0
  9
$USERI4
 70
0
  9
$USERI5
 70
0
  9
$USERR1
 40
0.0
  9
$USERR2
 40
0.0
  9
$USERR3
 40
0.0
  9
$USERR4
 40
0.0
  9
$USERR5
 40
0.0
  9
$WORLDVIEW
 70
1
  9
$SHADEDGE
 70
3
  9
$SHADEDIF
 70
70
  9
$TILEMODE
 70
1
  9
$MAXACTVP
 70
64
  9
$PINSBASE
 10
0.0
 20
0.0
 30
0.0
  9
$PLIMCHECK
 70
0
  9
$PEXTMIN
 10
1e+20
 20
1e+20
 30
1e+20
  9
$PEXTMAX
 10
-1e+20
 20
-1e+20
 30
-1e+20
  9
$PLIMMIN
 10
0.0
 20
0.0
  9
$PLIMMAX
 10
420.0
 20
297.0
  9
$UNITMODE
 70
0
  9
$VISRETAIN
 70
1
  9
$PLINEGEN
 70
0
  9
$PSLTSCALE
 70
1
  9
$TREEDEPTH
 70
3020
  9
$CMLSTYLE
  2
Standard
  9
$CMLJUST
 70
0
  9
$CMLSCALE
 40
20.0
  9
$PROXYGRAPHICS
 70
1
  9
$MEASUREMENT
 70
1
  9
$CELWEIGHT
370
-1
  9
$ENDCAPS
280
0
  9
$JOINSTYLE
280
0
  9
$LWDISPLAY
290
0
  9
$INSUNITS
 70
1
  9
$HYPERLINKBASE
  1

  9
$STYLESHEET
  1

  9
$XEDIT
290
1
  9
$CEPSNTYPE
380
0
  9
$PSTYLEMODE
290
1
  9
$FINGERPRINTGUID
  2
{1AC5F810-1A29-48E8-8A07-1A5CB9E0F4CA}
  9
$VERSIONGUID
  2
{A40B501A-387D-424C-89E5-F8BF9EFDAB5F}
  9
$EXTNAMES
290
1
  9
$PSVPSCALE
 40
0.0
  9
$OLESTARTUP
290
0
  9
$SORTENTS
280
127
  9
$INDEXCTL
280
0
  9
$HIDETEXT
280
1
  9
$XCLIPFRAME
280
1
  9
$HALOGAP
280
0
  9
$OBSCOLOR
 70
257
  9
$OBSLTYPE
280
0
  9
$INTERSECTIONDISPLAY
280
0
  9
$INTERSECTIONCOLOR
 70
257
  9
$DIMASSOC
280
2
  9
$PROJECTNAME
  1

  9
$CAMERADISPLAY
290
0
  9
$LENSLENGTH
 40
50.0
  9
$CAMERAHEIGHT
 40
0.0
  9
$STEPSPERSEC
 40
24.0
  9
$STEPSIZE
 40
100.0
  9
$3DDWFPREC
 40
2.0
  9
$PSOLWIDTH
 40
0.005
  9
$PSOLHEIGHT
 40
0.08
  9
$LOFTANG1
 40
1.570796326795
  9
$LOFTANG2
 40
1.570796326795
  9
$LOFTMAG1
 40
0.0
  9
$LOFTMAG2
 40
0.0
  9
$LOFTPARAM
 70
7
  9
$LOFTNORMALS
280
1
  9
$LATITUDE
 40
37.795
  9
$LONGITUDE
 40
-122.394
  9
$NORTHDIRECTION
 40
0.0
  9
$TIMEZONE
 70
-8000
  9
$LIGHTGLYPHDISPLAY
280
1
  9
$TILEMODELIGHTSYNCH
280
1
  9
$CMATERIAL
347
20
  9
$SOLIDHIST
280
0
  9
$SHOWHIST
280
1
  9
$DWFFRAME
280
2
  9
$DGNFRAME
280
2
  9
$REALWORLDSCALE
290
1
  9
$INTERFERECOLOR
 62
256
  9
$CSHADOW
280
0
  9
$SHADOWPLANELOCATION
 40
0.0
  0
ENDSEC
  0
SECTION
  2
CLASSES
  0
CLASS
  1
ACDBDICTIONARYWDFLT
  2
AcDbDictionaryWithDefault
  3
ObjectDBX Classes
 90
0
 91
0
280
0
281
0
  0
CLASS
  1
SUN
  2
AcDbSun
  3
SCENEOE
 90
1153
 91
0
280
0
281
0
  0
CLASS
  1
VISUALSTYLE
  2
AcDbVisualStyle
  3
ObjectDBX Classes
 90
4095
 91
0
280
0
281
0
  0
CLASS
  1
MATERIAL
  2
AcDbMaterial
  3
ObjectDBX Classes
 90
1153
 91
0
280
0
281
0
  0
CLASS
  1
SCALE
  2
AcDbScale
  3
ObjectDBX Classes
 90
1153
 91
0
280
0
281
0
  0
CLASS
  1
TABLESTYLE
  2
AcDbTableStyle
  3
ObjectDBX Classes
 90
4095
 91
0
280
0
281
0
  0
CLASS
  1
MLEADERSTYLE
  2
AcDbMLeaderStyle
  3
ACDB_MLEADERSTYLE_CLASS
 90
4095
 91
0
280
0
281
0
  0
CLASS
  1
DICTIONARYVAR
  2
AcDbDictionaryVar
  3
ObjectDBX Classes
 90
0
 91
0
280
0
281
0
  0
CLASS
  1
CELLSTYLEMAP
  2
AcDbCellStyleMap
  3
ObjectDBX Classes
 90
1152
 91
0
280
0
281
0
  0
CLASS
  1
MENTALRAYRENDERSETTINGS
  2
AcDbMentalRayRenderSettings
  3
SCENEOE
 90
1024
 91
0
280
0
281
0
  0
CLASS
  1
ACDBDETAILVIEWSTYLE
  2
AcDbDetailViewStyle
  3
ObjectDBX Classes
 90
1025
 91
0
280
0
281
0
  0
CLASS
  1
ACDBSECTIONVIEWSTYLE
  2
AcDbSectionViewStyle
  3
ObjectDBX Classes
 90
1025
 91
0
280
0
281
0
  0
CLASS
  1
RASTERVARIABLES
  2
AcDbRasterVariables
  3
ISM
 90
0
 91
0
280
0
281
0
  0
CLASS
  1
ACDBPLACEHOLDER
  2
AcDbPlaceHolder
  3
ObjectDBX Classes
 90
0
 91
0
280
0
281
0
  0
CLASS
  1
LAYOUT
  2
AcDbLayout
  3
ObjectDBX Classes
 90
0
 91
0
280
0
281
0
  0
ENDSEC
  0
SECTION
  2
TABLES
  0
TABLE
  2
VPORT
  5
8
330
0
100
AcDbSymbolTable
 70
1
  0
VPORT
  5
23
330
8
100
AcDbSymbolTableRecord
100
AcDbViewportTableRecord
  2
*Active
 70
0
 10
0.0
 20
0.0
 11
1.0
 21
1.0
 12
0.0
 22
0.0
 13
0.0
 23
0.0
 14
0.5
 24
0.5
 15
0.5
 25
0.5
 16
0.0
 26
0.0
 36
1.0
 17
0.0
 27
0.0
 37
0.0
 40
1000.0
 41
1.34
 42
50.0
 43
0.0
 44
0.0
 50
0.0
 51
0.0
 71
0
 72
1000
 73
1
 74
3
 75
0
 76
0
 77
0
 78
0
281
0
 65
0
146
0.0
  0
ENDTAB
  0
TABLE
  2
LTYPE
  5
2
330
0
100
AcDbSymbolTable
 70
3
  0
LTYPE
  5
24
330
2
100
AcDbSymbolTableRecord
100
AcDbLinetypeTableRecord
  2
ByBlock
 70
0
  3

 72
65
 73
0
 40
0.0
  0
LTYPE
  5
25
330
2
100
AcDbSymbolTableRecord
100
AcDbLinetypeTableRecord
  2
ByLayer
 70
0
  3

 72
65
 73
0
 40
0.0
  0
LTYPE
  5
26
330
2
100
AcDbSymbolTableRecord
100
AcDbLinetypeTableRecord
  2
Continuous
 70
0
  3

 72
65
 73
0
 40
0.0
  0
ENDTAB
  0
TABLE
  2
LAYER
  5
1
330
0
100
AcDbSymbolTable
 70
3
  0
LAYER
  5
27
330
1
100
AcDbSymbolTableRecord
100
AcDbLayerTableRecord
  2
0
 70
0
 62
7
  6
Continuous
370
-3
390
13
347
21
  0
LAYER
  5
28
330
1
100
AcDbSymbolTableRecord
100
AcDbLayerTableRecord
  2
Defpoints
 70
0
 62
7
  6
Continuous
290
0
370
-3
390
13
347
21
  0
LAYER
  5
2F
330
1
100
AcDbSymbolTableRecord
100
AcDbLayerTableRecord
  2
CONTOUR
 70
0
 62
3
  6
Continuous
370
-3
390
13
347
21
  0
ENDTAB
  0
TABLE
  2
STYLE
  5
5
330
0
100
AcDbSymbolTable
 70
1
  0
STYLE
  5
29
330
5
100
AcDbSymbolTableRecord
100
AcDbTextStyleTableRecord
  2
Standard
 70
0
 40
0.0
 41
1.0
 50
0.0
 71
0
 42
2.5
  3
txt
  4

  0
ENDTAB
  0
TABLE
  2
VIEW
  5
7
330
0
100
AcDbSymbolTable
 70
0
  0
ENDTAB
  0
TABLE
  2
UCS
  5
6
330
0
100
AcDbSymbolTable
 70
0
  0
ENDTAB
  0
TABLE
  2
APPID
  5
3
330
0
100
AcDbSymbolTable
 70
3
  0
APPID
  5
2A
330
3
100
AcDbSymbolTableRecord
100
AcDbRegAppTableRecord
  2
ACAD
 70
0
  0
APPID
  5
37
330
3
100
AcDbSymbolTableRecord
100
AcDbRegAppTableRecord
  2
HATCHBACKGROUNDCOLOR
 70
0
  0
APPID
  5
38
330
3
100
AcDbSymbolTableRecord
100
AcDbRegAppTableRecord
  2
EZDXF
 70
0
  0
ENDTAB
  0
TABLE
  2
DIMSTYLE
  5
4
330
0
100
AcDbSymbolTable
 70
1
100
AcDbDimStyleTable
  0
DIMSTYLE
105
2B
330
4
100
AcDbSymbolTableRecord
100
AcDbDimStyleTableRecord
  2
Standard
 70
0
 40
1.0
 41
2.5
 42
0.625
 43
3.75
 44
1.25
 45
0.0
 46
0.0
 47
0.0
 48
0.0
 49
2.5
140
2.5
141
2.5
142
0.0
143
0.03937007874
144
1.0
145
0.0
146
1.0
147
0.625
148
0.0
 69
0
 70
0
 71
0
 72
0
 73
0
 74
0
 75
0
 76
0
 77
1
 78
8
 79
3
170
0
171
3
172
1
173
0
174
0
175
0
176
0
177
0
178
0
179
2
271
2
272
2
273
2
274
3
275
0
276
0
277
2
278
44
279
0
280
0
281
0
282
0
283
0
284
8
285
0
286
0
288
0
289
3
290
0
371
-2
372
-2
  0
ENDTAB
  0
TABLE
  2
BLOCK_RECORD
  5
9
330
0
100
AcDbSymbolTable
 70
2
  0
BLOCK_RECORD
  5
17
330
9
100
AcDbSymbolTableRecord
100
AcDbBlockTableRecord
  2
*Model_Space
340
1A
 70
0
280
1
281
0
  0
BLOCK_RECORD
  5
1B
330
9
100
AcDbSymbolTableRecord
100
AcDbBlockTableRecord
  2
*Paper_Space
340
1E
 70
0
280
1
281
0
  0
ENDTAB
  0
ENDSEC
  0
SECTION
  2
BLOCKS
  0
BLOCK
  5
18
330
17
100
AcDbEntity
  8
0
100
AcDbBlockBegin
  2
*Model_Space
 70
0
 10
0.0
 20
0.0
 30
0.0
  3
*Model_Space
  1

  0
ENDBLK
  5
19
330
17
100
AcDbEntity
  8
0
100
AcDbBlockEnd
  0
BLOCK
  5
1C
330
1B
100
AcDbEntity
  8
0
100
AcDbBlockBegin
  2
*Paper_Space
 70
0
 10
0.0
 20
0.0
 30
0.0
  3
*Paper_Space
  1

  0
ENDBLK
  5
1D
330
1B
100
AcDbEntity
  8
0
100
AcDbBlockEnd
  0
ENDSEC
  0
SECTION
  2
ENTITIES
  0
LWPOLYLINE
  5
30
330
17
100
AcDbEntity
  8
CONTOUR
100
AcDbPolyline
 90
5
 70
1
 10
0.0
 20
0.0
 10
96.0
 20
0.0
 10
96.0
 20
48.0
 10
0.0
 20
48.0
 10
0.0
 20
0.0
  0
LWPOLYLINE
  5
31
330
17
100
AcDbEntity
  8
CONTOUR
100
AcDbPolyline
 90
206
 70
1
 10
41.975535622699674
 20
48.0
 10
41.975535622699674
 20
42.825
 10
41.975535622699674
 20
42.825
 10
42.033533806434086
 20
42.77405200249084
 10
42.08299804698265
 20
42.714783320426555
 10
42.12274921819963
 20
42.648606797749984
 10
42.1518397336107
 20
42.57709994717046
 10
42.16957613493299
 20
42.50196734549303
 10
42.17553562269968
 20
42.425000000000004
 10
42.17553562269968
 20
39.225
 10
42.16957613493299
 20
39.14803265450698
 10
42.1518397336107
 20
39.072900052829546
 10
42.12274921819963
 20
39.00139320225002
 10
42.08299804698265
 20
38.93521667957345
 10
42.033533806434086
 20
38.875947997509165
 10
41.975535622699674
 20
38.825
 10
41.975535622699674
 20
38.825
 10
41.975535622699674
 20
27.2
 10
41.975535622699674
 20
27.2
 10
42.033533806434086
 20
27.149052002490837
 10
42.08299804698265
 20
27.089783320426548
 10
42.12274921819963
 20
27.023606797749977
 10
42.1518397336107
 20
26.952099947170453
 10
42.16957613493299
 20
26.876967345493025
 10
42.17553562269968
 20
26.8
 10
42.17553562269968
 20
23.599999999999998
 10
42.16957613493299
 20
23.523032654506974
 10
42.1518397336107
 20
23.447900052829546
 10
42.12274921819963
 20
23.37639320225002
 10
42.08299804698265
 20
23.31021667957345
 10
42.033533806434086
 20
23.25094799750916
 10
41.975535622699674
 20
23.2
 10
41.975535622699674
 20
23.2
 10
41.975535622699674
 20
10.950000000000003
 10
41.975535622699674
 20
10.950000000000003
 10
42.033533806434086
 20
10.899052002490839
 10
42.08299804698265
 20
10.839783320426553
 10
42.12274921819963
 20
10.773606797749983
 10
42.1518397336107
 20
10.702099947170456
 10
42.16957613493299
 20
10.62696734549303
 10
42.17553562269968
 20
10.550000000000002
 10
42.17553562269968
 20
7.350000000000003
 10
42.16957613493299
 20
7.2730326545069754
 10
42.1518397336107
 20
7.1979000528295485
 10
42.12274921819963
 20
7.126393202250024
 10
42.08299804698265
 20
7.060216679573452
 10
42.033533806434086
 20
7.000947997509166
 10
41.975535622699674
 20
6.950000000000003
 10
41.975535622699674
 20
6.950000000000003
 10
41.975535622699674
 20
2.831068712794149e-15
 10
41.97553562269968
 20
2.831068712794149e-15
 10
42.02648362020884
 20
0.05799818373441379
 10
42.08575230227313
 20
0.10746242428298303
 10
42.1519288249497
 20
0.14721359549996077
 10
42.223435675529224
 20
0.1763041109110311
 10
42.29856827720665
 20
0.19404051223331864
 10
42.37553562269968
 20
0.20000000000000284
 10
45.17553562269968
 20
0.20000000000000284
 10
45.25250296819271
 20
0.19404051223331864
 10
45.32763556987013
 20
0.17630411091103104
 10
45.39914242044966
 20
0.14721359549996077
 10
45.46531894312623
 20
0.10746242428298308
 10
45.52458762519051
 20
0.05799818373441373
 10
45.575535622699675
 20
2.831068712794149e-15
 10
45.575535622699675
 20
2.831068712794149e-15
 10
52.77553562269967
 20
2.831068712794149e-15
 10
52.77553562269967
 20
2.831068712794149e-15
 10
52.82648362020883
 20
0.05799818373441379
 10
52.88575230227312
 20
0.10746242428298303
 10
52.95192882494969
 20
0.14721359549996077
 10
53.023435675529214
 20
0.1763041109110311
 10
53.098568277206645
 20
0.19404051223331864
 10
53.17553562269967
 20
0.20000000000000284
 10
56.37553562269967
 20
0.20000000000000284
 10
56.4525029681927
 20
0.19404051223331864
 10
56.52763556987013
 20
0.17630411091103104
 10
56.59914242044965
 20
0.14721359549996077
 10
56.66531894312622
 20
0.10746242428298308
 10
56.72458762519051
 20
0.05799818373441373
 10
56.77553562269967
 20
2.831068712794149e-15
 10
56.77553562269967
 20
2.831068712794149e-15
 10
62.01786437730032
 20
0.0
 10
62.01786437730032
 20
6.108506834976353
 10
62.01786437730032
 20
6.108506834976353
 10
61.91231034138697
 20
6.17469773268526
 10
61.80959566831225
 20
6.245214293663949
 10
61.709897516799906
 20
6.319934893381365
 10
61.613387842781385
 20
6.39873065632549
 10
61.52023310281217
 20
6.4814656782834135
 10
61.430593966973284
 20
6.567997260744185
 10
61.344625041753034
 20
6.658176157020328
 10
61.26247460338712
 20
6.751846829663343
 10
61.184284342116854
 20
6.84884771872936
 10
61.11018911780678
 20
6.949011520432109
 10
61.04031672734299
 20
7.052165475702779
 10
60.97478768421345
 20
7.158131668158845
 10
60.91371501065056
 20
7.266727330968131
 10
60.85720404269424
 20
7.377765162078738
 10
60.805352248511994
 20
7.491053647271144
 10
60.75824906028918
 20
7.606397390475337
 10
60.715975719979454
 20
7.7235974507831955
 10
60.678605139181464
 20
7.842451685574929
 10
60.64620177338341
 20
7.962755099167673
 10
60.64620177338341
 20
7.962755099167673
 10
60.498279608422536
 20
8.581287962905463
 10
60.3628446419596
 20
9.199820826643254
 10
60.24344047168473
 20
9.818353690381045
 10
60.14319125639551
 20
10.436886554118836
 10
60.06471997372476
 20
11.055419417856626
 10
60.010079791058104
 20
11.673952281594424
 10
59.98070034529168
 20
12.292485145332215
 10
59.97735033699725
 20
12.911018009070006
 10
60.00011741770204
 20
13.529550872807796
 10
60.0484058965243
 20
14.148083736545587
 10
60.12095232616912
 20
14.766616600283378
 10
60.2158585604839
 20
15.385149464021168
 10
60.33064141863673
 20
16.00368232775896
 10
60.46229765647552
 20
16.62221519149675
 10
60.60738254512059
 20
17.240748055234544
 10
60.762100000815295
 20
17.859280918972335
 10
60.922401907826
 20
18.477813782710125
 10
61.08409403565051
 20
19.09634664644792
 10
61.242945779256516
 20
19.71487951018571
 10
61.39480085104404
 20
20.3334123739235
 10
61.53568602832421
 20
20.951945237661292
 10
61.66191511098326
 20
21.570478101399083
 10
61.7701853693243
 20
22.189010965136873
 10
61.85766395857034
 20
22.807543828874664
 10
61.92206203903042
 20
23.426076692612455
 10
61.961694662606355
 20
24.04460955635025
 10
61.97552485873564
 20
24.66314242008804
 10
61.96319076628052
 20
25.28167528382583
 10
61.925015101469114
 20
25.90020814756362
 10
61.861996714164036
 20
26.518741011301415
 10
61.77578445338501
 20
27.137273875039206
 10
61.66863402588292
 20
27.755806738776997
 10
61.543348976542134
 20
28.374339602514787
 10
61.403207334833496
 20
28.992872466252578
 10
61.2518758465821
 20
29.611405329990372
 10
61.093314035138626
 20
30.229938193728163
 10
60.93167060215262
 20
30.848471057465954
 10
60.77117487857687
 20
31.467003921203744
 10
60.61602616604071
 20
32.08553678494154
 10
60.47028386392766
 20
32.70406964867933
 10
60.33776125693523
 20
33.32260251241712
 10
60.221925742119666
 20
33.94113537615491
 10
60.125808105942184
 20
34.5596682398927
 10
60.05192322504385
 20
35.17820110363049
 10
60.00220426557904
 20
35.79673396736828
 10
59.97795210275386
 20
36.41526683110608
 10
59.97980128398554
 20
37.033799694843864
 10
60.00770342624187
 20
37.65233255858166
 10
60.060928481962534
 20
38.270865422319446
 10
60.060928481962534
 20
38.270865422319446
 10
60.07630592645014
 20
38.39237958610974
 10
60.09663067249174
 20
38.513164777664684
 10
60.12186884063763
 20
38.633019659372785
 10
60.15197836122324
 20
38.75174444436196
 10
60.18690904449534
 20
38.86914122952564
 10
60.22660266427363
 20
38.98501432540867
 10
60.270993055008404
 20
39.09917058240335
 10
60.32000622207224
 20
39.21141971271176
 10
60.37356046510219
 20
39.321574607537684
 10
60.4315665141866
 20
39.4294516489795
 10
60.49392767866972
 20
39.534871016104006
 10
60.56054000832599
 20
39.6376569846911
 10
60.63129246663527
 20
39.73763822014963
 10
60.70606711587044
 20
39.8346480631161
 10
60.78473931368845
 20
39.928524807260246
 10
60.867177920897504
 20
40.01911196883435
 10
60.953245520053805
 20
40.10625854751701
 10
61.042798644523565
 20
40.18981927811653
 10
61.13568801762847
 20
40.269654872714426
 10
61.13568801762847
 20
48.0
 10
56.77553562269967
 20
48.0
 10
56.77553562269967
 20
48.0
 10
56.72458762519051
 20
47.94200181626559
 10
56.66531894312622
 20
47.89253757571702
 10
56.59914242044965
 20
47.852786404500044
 10
56.52763556987013
 20
47.823695889088974
 10
56.4525029681927
 20
47.805959487766685
 10
56.37553562269967
 20
47.8
 10
53.17553562269967
 20
47.8
 10
53.098568277206645
 20
47.805959487766685
 10
53.023435675529214
 20
47.823695889088974
 10
52.95192882494969
 20
47.852786404500044
 10
52.88575230227312
 20
47.89253757571702
 10
52.82648362020883
 20
47.94200181626559
 10
52.77553562269967
 20
48.0
 10
52.77553562269967
 20
48.0
 10
45.575535622699675
 20
48.0
 10
45.575535622699675
 20
48.0
 10
45.52458762519051
 20
47.94200181626559
 10
45.46531894312623
 20
47.89253757571702
 10
45.39914242044966
 20
47.852786404500044
 10
45.32763556987013
 20
47.823695889088974
 10
45.25250296819271
 20
47.805959487766685
 10
45.17553562269968
 20
47.8
 10
42.37553562269968
 20
47.8
 10
42.29856827720665
 20
47.805959487766685
 10
42.223435675529224
 20
47.823695889088974
 10
42.1519288249497
 20
47.852786404500044
 10
42.08575230227313
 20
47.89253757571702
 10
42.02648362020884
 20
47.94200181626559
 10
41.97553562269968
 20
48.0
 10
41.975535622699674
 20
48.0
  0
LWPOLYLINE
  5
32
330
17
100
AcDbEntity
  8
CONTOUR
100
AcDbPolyline
 90
218
 70
1
 10
41.13063862907313
 20
0.0
 10
41.13063862907313
 20
5.175000000000001
 10
41.13063862907313
 20
5.175000000000001
 10
41.07264044533872
 20
5.225947997509164
 10
41.023176204790154
 20
5.28521667957345
 10
40.98342503357318
 20
5.351393202250022
 10
40.954334518162106
 20
5.422900052829546
 10
40.93659811683982
 20
5.498032654506973
 10
40.93063862907313
 20
5.575000000000001
 10
40.93063862907313
 20
8.775
 10
40.93659811683982
 20
8.851967345493028
 10
40.954334518162106
 20
8.927099947170454
 10
40.98342503357318
 20
8.99860679774998
 10
41.023176204790154
 20
9.064783320426551
 10
41.07264044533872
 20
9.124052002490837
 10
41.13063862907313
 20
9.175
 10
41.13063862907313
 20
9.175
 10
41.13063862907313
 20
20.8
 10
41.13063862907313
 20
20.8
 10
41.07264044533872
 20
20.850947997509163
 10
41.023176204790154
 20
20.910216679573452
 10
40.98342503357318
 20
20.976393202250023
 10
40.954334518162106
 20
21.047900052829547
 10
40.93659811683982
 20
21.123032654506975
 10
40.93063862907313
 20
21.2
 10
40.93063862907313
 20
24.400000000000002
 10
40.93659811683982
 20
24.476967345493026
 10
40.954334518162106
 20
24.552099947170454
 10
40.98342503357318
 20
24.62360679774998
 10
41.023176204790154
 20
24.68978332042655
 10
41.07264044533872
 20
24.74905200249084
 10
41.13063862907313
 20
24.8
 10
41.13063862907313
 20
24.8
 10
41.13063862907313
 20
37.05
 10
41.13063862907313
 20
37.05
 10
41.07264044533872
 20
37.10094799750916
 10
41.023176204790154
 20
37.160216679573445
 10
40.98342503357318
 20
37.226393202250016
 10
40.954334518162106
 20
37.29790005282954
 10
40.93659811683982
 20
37.37303265450697
 10
40.93063862907313
 20
37.449999999999996
 10
40.93063862907313
 20
40.65
 10
40.93659811683982
 20
40.72696734549302
 10
40.954334518162106
 20
40.802099947170454
 10
40.98342503357318
 20
40.87360679774998
 10
41.023176204790154
 20
40.93978332042655
 10
41.07264044533872
 20
40.999052002490835
 10
41.13063862907313
 20
41.05
 10
41.13063862907313
 20
41.05
 10
41.13063862907313
 20
48.0
 10
41.13063862907313
 20
48.0
 10
41.07969063156397
 20
47.94200181626559
 10
41.020421949499685
 20
47.89253757571702
 10
40.954245426823114
 20
47.852786404500044
 10
40.88273857624359
 20
47.823695889088974
 10
40.80760597456616
 20
47.805959487766685
 10
40.730638629073134
 20
47.8
 10
37.93063862907312
 20
47.8
 10
37.8536712835801
 20
47.805959487766685
 10
37.77853868190267
 20
47.823695889088974
 10
37.70703183132314
 20
47.852786404500044
 10
37.64085530864657
 20
47.89253757571702
 10
37.581586626582286
 20
47.94200181626559
 10
37.530638629073124
 20
48.0
 10
37.530638629073124
 20
48.0
 10
36.88063862907313
 20
48.0
 10
36.88063862907313
 20
46.0
 10
36.8560153102634
 20
45.68713106991954
 10
36.78275166166344
 20
45.38196601125011
 10
36.66265167744986
 20
45.09201900052091
 10
36.49867261782302
 20
44.82442949541505
 10
36.294852191446225
 20
44.58578643762691
 10
36.05620913365807
 20
44.38196601125011
 10
35.788619628552226
 20
44.21798695162327
 10
35.49867261782302
 20
44.09788696740969
 10
35.19350755915359
 20
44.024623318809724
 10
34.88063862907313
 20
44.0
 10
32.38063862907313
 20
44.0
 10
32.06776969899266
 20
44.024623318809724
 10
31.762604640323236
 20
44.09788696740969
 10
31.472657629594035
 20
44.21798695162327
 10
31.205068124488182
 20
44.38196601125011
 10
30.966425066700037
 20
44.58578643762691
 10
30.762604640323236
 20
44.82442949541505
 10
30.598625580696396
 20
45.09201900052091
 10
30.47852559648282
 20
45.38196601125011
 10
30.405261947882853
 20
45.68713106991954
 10
30.38063862907313
 20
46.0
 10
30.38063862907313
 20
48.0
 10
26.330638629073132
 20
48.0
 10
26.330638629073132
 20
48.0
 10
26.330638629073132
 20
48.0
 10
26.330638629073132
 20
48.0
 10
21.916359044291816
 20
48.0
 10
21.916359044291816
 20
39.880562387464494
 10
21.916359044291816
 20
39.880562387464494
 10
22.00404093769239
 20
39.765656317574695
 10
22.086086534859515
 20
39.64666035414181
 10
22.16230538499552
 20
39.52385072010695
 10
22.23252056281365
 20
39.39751249100824
 10
22.29656907923119
 20
39.267938933240686
 10
22.354302259712735
 20
39.135430823302784
 10
22.4055860893854
 20
39.000295749610075
 10
22.450301524124882
 20
38.86284739849632
 10
22.48834476689016
 20
38.723404826059735
 10
22.51962750866552
 20
38.58229171754445
 10
22.544077133450457
 20
38.439835635976465
 10
22.561636886821784
 20
38.29636726179815
 10
22.572266007676507
 20
38.15221962526641
 10
22.57593982284976
 20
38.00772733339622
 10
22.572649804388135
 20
37.863225793244034
 10
22.562403589345436
 20
37.7190504333342
 10
22.545224962054956
 20
37.57553592503541
 10
22.521153798919368
 20
37.43301540569476
 10
22.490245975846435
 20
37.291819705332735
 10
22.490245975846435
 20
37.291819705332735
 10
22.351530895681336
 20
36.73751048471425
 10
22.208172163367575
 20
36.18320126409576
 10
22.06318350181887
 20
35.62889204347727
 10
21.919612898726538
 20
35.07458282285878
 10
21.780478531004473
 20
34.520273602240295
 10
21.64870531592364
 20
33.96596438162181
 10
21.527063422773985
 20
33.41165516100332
 10
21.418110037676886
 20
32.85734594038483
 10
21.324135605782732
 20
32.30303671976634
 10
21.247115680963482
 20
31.748727499147854
 10
21.188669395227997
 20
31.194418278529366
 10
21.1500254209264
 20
30.640109057910877
 10
21.131996141294437
 20
30.08579983729239
 10
21.13496057233111
 20
29.5314906166739
 10
21.15885639503013
 20
28.977181396055414
 10
21.203181265465545
 20
28.422872175436925
 10
21.267003375190658
 20
27.868562954818437
 10
21.348981039946853
 20
27.31425373419995
 10
21.44739090488368
 20
26.75994451358146
 10
21.56016417335298
 20
26.205635292962974
 10
21.6849300976664
 20
25.651326072344485
 10
21.819065817542697
 20
25.097016851725996
 10
21.959751498528735
 20
24.54270763110751
 10
22.104029611260422
 20
23.98839841048902
 10
22.24886710538031
 20
23.434089189870534
 10
22.391219171076354
 20
22.879779969252045
 10
22.528093247830764
 20
22.325470748633556
 10
22.656611934771277
 20
21.771161528015067
 10
22.774073480107678
 20
21.21685230739658
 10
22.87800857802966
 20
20.662543086778093
 10
22.966232279067533
 20
20.108233866159605
 10
23.036889922643184
 20
19.553924645541116
 10
23.088496126205893
 20
18.999615424922627
 10
23.11996601131361
 20
18.44530620430414
 10
23.130638010217314
 20
17.890996983685653
 10
23.120287773502685
 20
17.336687763067165
 10
23.0891328864193
 20
16.782378542448676
 10
23.037828294749406
 20
16.228069321830187
 10
22.967452536374843
 20
15.673760101211698
 10
22.87948506798556
 20
15.119450880593213
 10
22.77577516357321
 20
14.565141659974728
 10
22.65850303853355
 20
14.010832439356236
 10
22.530134016636303
 20
13.456523218737743
 10
22.393366703375932
 20
12.902213998119258
 10
22.251076255215995
 20
12.347904777500773
 10
22.106253937335108
 20
11.79359555688228
 10
21.961944240506654
 20
11.239286336263795
 10
21.821180879056808
 20
10.68497711564531
 10
21.686923015367686
 20
10.130667895026818
 10
21.686923015367686
 20
10.130667895026818
 10
21.666165217175166
 20
10.047547956454025
 10
21.64304242232372
 20
9.965054643195295
 10
21.61757348824997
 20
9.883255231392447
 10
21.589779185747968
 20
9.802216431286737
 10
21.55968218202992
 20
9.722004332814365
 10
21.527307022240283
 20
9.642684351707835
 10
21.49268010943836
 20
9.56432117614716
 10
21.455829683065684
 20
9.486978714004444
 10
21.416785795915782
 20
9.410720040724797
 10
21.3755802896251
 20
9.335607347886146
 10
21.332246768705023
 20
9.261701892479834
 10
21.28682057313627
 20
9.18906394695344
 10
21.239338749547894
 20
9.117752750056553
 10
21.189840021004485
 20
9.047826458529457
 10
21.138364755426192
 20
8.979342099674398
 10
21.084954932667262
 20
8.912355524847754
 10
21.029654110280052
 20
8.846921363911406
 10
20.97250738799233
 20
8.78309298068016
 10
20.91356137092687
 20
8.720922429401725
 10
20.91356137092687
 20
0.0
 10
26.330638629073132
 20
2.831068712794149e-15
 10
26.330638629073132
 20
2.831068712794149e-15
 10
26.381586626582294
 20
0.05799818373441379
 10
26.440855308646583
 20
0.10746242428298303
 10
26.507031831323154
 20
0.14721359549996077
 10
26.57853868190268
 20
0.1763041109110311
 10
26.653671283580106
 20
0.19404051223331864
 10
26.73063862907313
 20
0.20000000000000284
 10
29.930638629073133
 20
0.20000000000000284
 10
30.007605974566157
 20
0.19404051223331864
 10
30.082738576243585
 20
0.17630411091103104
 10
30.15424542682311
 20
0.14721359549996077
 10
30.22042194949968
 20
0.10746242428298308
 10
30.27969063156397
 20
0.05799818373441373
 10
30.330638629073132
 20
2.831068712794149e-15
 10
30.330638629073132
 20
2.831068712794149e-15
 10
37.530638629073124
 20
2.831068712794149e-15
 10
37.530638629073124
 20
2.831068712794149e-15
 10
37.581586626582286
 20
0.05799818373441379
 10
37.64085530864657
 20
0.10746242428298303
 10
37.70703183132314
 20
0.14721359549996077
 10
37.77853868190267
 20
0.1763041109110311
 10
37.8536712835801
 20
0.19404051223331864
 10
37.93063862907312
 20
0.20000000000000284
 10
40.730638629073134
 20
0.20000000000000284
 10
40.80760597456616
 20
0.19404051223331864
 10
40.88273857624359
 20
0.17630411091103104
 10
40.954245426823114
 20
0.14721359549996077
 10
41.020421949499685
 20
0.10746242428298308
 10
41.07969063156397
 20
0.05799818373441373
 10
41.13063862907313
 20
2.831068712794149e-15
 10
41.13063862907313
 20
2.831068712794149e-15
  0
LWPOLYLINE
  5
33
330
17
100
AcDbEntity
  8
CONTOUR
100
AcDbPolyline
 90
206
 70
1
 10
96.0000079833114
 20
0.0
 10
96.0000079833114
 20
5.175000000000001
 10
96.0000079833114
 20
5.175000000000001
 10
95.942009799577
 20
5.225947997509164
 10
95.89254555902842
 20
5.28521667957345
 10
95.85279438781144
 20
5.351393202250022
 10
95.82370387240037
 20
5.422900052829546
 10
95.80596747107809
 20
5.498032654506973
 10
95.8000079833114
 20
5.575000000000001
 10
95.8000079833114
 20
8.775
 10
95.80596747107809
 20
8.851967345493028
 10
95.82370387240037
 20
8.927099947170454
 10
95.85279438781144
 20
8.99860679774998
 10
95.89254555902842
 20
9.064783320426551
 10
95.942009799577
 20
9.124052002490837
 10
96.0000079833114
 20
9.175
 10
96.0000079833114
 20
9.175
 10
96.0000079833114
 20
20.8
 10
96.0000079833114
 20
20.8
 10
95.942009799577
 20
20.850947997509163
 10
95.89254555902842
 20
20.910216679573452
 10
95.85279438781144
 20
20.976393202250023
 10
95.82370387240037
 20
21.047900052829547
 10
95.80596747107809
 20
21.123032654506975
 10
95.8000079833114
 20
21.2
 10
95.8000079833114
 20
24.400000000000002
 10
95.80596747107809
 20
24.476967345493026
 10
95.82370387240037
 20
24.552099947170454
 10
95.85279438781144
 20
24.62360679774998
 10
95.89254555902842
 20
24.68978332042655
 10
95.942009799577
 20
24.74905200249084
 10
96.0000079833114
 20
24.8
 10
96.0000079833114
 20
24.8
 10
96.0000079833114
 20
37.05
 10
96.0000079833114
 20
37.05
 10
95.942009799577
 20
37.10094799750916
 10
95.89254555902842
 20
37.160216679573445
 10
95.85279438781144
 20
37.226393202250016
 10
95.82370387240037
 20
37.29790005282954
 10
95.80596747107809
 20
37.37303265450697
 10
95.8000079833114
 20
37.449999999999996
 10
95.8000079833114
 20
40.65
 10
95.80596747107809
 20
40.72696734549302
 10
95.82370387240037
 20
40.802099947170454
 10
95.85279438781144
 20
40.87360679774998
 10
95.89254555902842
 20
40.93978332042655
 10
95.942009799577
 20
40.999052002490835
 10
96.0000079833114
 20
41.05
 10
96.0000079833114
 20
41.05
 10
96.0000079833114
 20
48.0
 10
96.0000079833114
 20
48.0
 10
95.94905998580224
 20
47.94200181626559
 10
95.88979130373795
 20
47.89253757571702
 10
95.82361478106138
 20
47.852786404500044
 10
95.75210793048186
 20
47.823695889088974
 10
95.67697532880443
 20
47.805959487766685
 10
95.6000079833114
 20
47.8
 10
92.80000798331139
 20
47.8
 10
92.72304063781836
 20
47.805959487766685
 10
92.64790803614093
 20
47.823695889088974
 10
92.57640118556141
 20
47.852786404500044
 10
92.51022466288484
 20
47.89253757571702
 10
92.45095598082055
 20
47.94200181626559
 10
92.40000798331138
 20
48.0
 10
92.4000079833114
 20
48.0
 10
85.20000798331141
 20
48.0
 10
85.20000798331141
 20
48.0
 10
85.14905998580224
 20
47.94200181626559
 10
85.08979130373795
 20
47.89253757571702
 10
85.02361478106138
 20
47.852786404500044
 10
84.95210793048186
 20
47.823695889088974
 10
84.87697532880443
 20
47.805959487766685
 10
84.8000079833114
 20
47.8
 10
81.60000798331141
 20
47.8
 10
81.52304063781838
 20
47.805959487766685
 10
81.44790803614096
 20
47.823695889088974
 10
81.37640118556143
 20
47.852786404500044
 10
81.31022466288486
 20
47.89253757571702
 10
81.25095598082058
 20
47.94200181626559
 10
81.20000798331141
 20
48.0
 10
81.20000798331141
 20
48.0
 10
75.73026682980563
 20
48.0
 10
75.73026682980563
 20
39.88739202540123
 10
75.73026682980563
 20
39.88739202540123
 10
75.814383376173
 20
39.77815049238335
 10
75.89339188395664
 20
39.66515951218281
 10
75.96712547572386
 20
39.54865773814491
 10
76.03542841543006
 20
39.42889123892093
 10
76.09815643735575
 20
39.306112978735484
 10
76.1551770508167
 20
39.18058228308932
 10
76.20636982000357
 20
39.05256429102627
 10
76.2516266183597
 20
38.92232939512111
 10
76.29085185696015
 20
38.7901526703712
 10
76.32396268640937
 20
38.656313293198195
 10
76.35088917183117
 20
38.5210939517869
 10
76.37157444058126
 20
38.38478024900684
 10
76.3859748023706
 20
38.24766009917754
 10
76.39405984154557
 20
38.1100231199517
 10
76.39581248133031
 20
37.97216002060071
 10
76.39122901989526
 20
37.83436198799448
 10
76.38031913817605
 20
37.6969200715725
 10
76.36310587942589
 20
37.560124568605204
 10
76.33962560054495
 20
37.42426441104403
 10
76.33962560054495
 20
37.42426441104403
 10
76.23717320610102
 20
36.86521741300466
 10
76.15103212749227
 20
36.30617041496529
 10
76.08304427646887
 20
35.747123416925916
 10
76.03466340336328
 20
35.188076418886546
 10
76.00692401227151
 20
34.629029420847175
 10
76.00041924076766
 20
34.0699824228078
 10
76.0152881771387
 20
33.51093542476843
 10
76.0512128863291
 20
32.951888426729056
 10
76.10742520818754
 20
32.392841428689685
 10
76.1827231826526
 20
31.833794430650315
 10
76.27549675066568
 20
31.274747432610944
 10
76.38376218126143
 20
30.715700434571573
 10
76.5052044886982
 20
30.156653436532203
 10
76.63722693264434
 20
29.597606438492832
 10
76.77700654298252
 20
29.038559440453458
 10
76.92155448197268
 20
28.479512442414087
 10
77.0677799530798
 20
27.920465444374717
 10
77.21255628993572
 20
27.361418446335342
 10
77.3527878122877
 20
26.802371448295972
 10
77.48547601938634
 20
26.2433244502566
 10
77.60778370543261
 20
25.68427745221723
 10
77.7170956261354
 20
25.12523045417786
 10
77.81107441917669
 20
24.56618345613849
 10
77.88771058286501
 20
24.00713645809912
 10
77.94536544430859
 20
23.448089460059748
 10
77.98280619834105
 20
22.889042462020374
 10
77.99923226797983
 20
22.329995463981003
 10
77.9942924227648
 20
21.770948465941633
 10
77.96809228894409
 20
21.211901467902262
 10
77.92119209092077
 20
20.652854469862888
 10
77.85459467225353
 20
20.093807471823517
 10
77.76972405235279
 20
19.534760473784146
 10
77.66839497738336
 20
18.975713475744776
 10
77.5527741164517
 20
18.416666477705405
 10
77.42533373280033
 20
17.85761947966603
 10
77.28879882063502
 20
17.29857248162666
 10
77.14608883793201
 20
16.73952548358729
 10
77.00025528112307
 20
16.18047848554792
 10
76.85441643646828
 20
15.621431487508545
 10
76.7116907032951
 20
15.062384489469174
 10
76.57512991481974
 20
14.503337491429804
 10
76.44765408231866
 20
13.944290493390433
 10
76.33198895798277
 20
13.385243495351062
 10
76.23060775151687
 20
12.826196497311692
 10
76.14567824672922
 20
12.267149499272321
 10
76.07901644889083
 20
11.708102501232943
 10
76.03204775399982
 20
11.14905550319358
 10
76.00577647024932
 20
10.590008505154202
 10
76.00076434340583
 20
10.030961507114839
 10
76.00076434340583
 20
10.030961507114839
 10
75.99945974203779
 20
9.9068367122117
 10
75.99302141815335
 20
9.782872141950534
 10
75.98146039463992
 20
9.659280032858575
 10
75.9647964648262
 20
9.536271983781944
 10
75.9430581585944
 20
9.41405859361275
 10
75.91628269353514
 20
9.29284910072817
 10
75.88451591122804
 20
9.172851024758891
 10
75.8478121987576
 20
9.054269811300088
 10
75.80623439559847
 20
8.937308480173357
 10
75.75985368602963
 20
8.82216727784175
 10
75.70874947726162
 20
8.709043334572996
 10
75.6530092634855
 20
8.598130326937877
 10
75.59272847607635
 20
8.48961814622158
 10
75.5280103202076
 20
8.383692573315763
 10
75.45896559815627
 20
8.280534960647913
 10
75.38571251960114
 20
8.180321921692538
 10
75.30837649923907
 20
8.08322502859582
 10
75.22708994206577
 20
7.98941051843142
 10
75.14199201668859
 20
7.899039008590236
 10
75.14199201668859
 20
0.0
 10
81.20000798331141
 20
2.831068712794149e-15
 10
81.20000798331141
 20
2.831068712794149e-15
 10
81.25095598082058
 20
0.05799818373441379
 10
81.31022466288486
 20
0.10746242428298303
 10
81.37640118556143
 20
0.14721359549996077
 10
81.44790803614096
 20
0.1763041109110311
 10
81.52304063781838
 20
0.19404051223331864
 10
81.60000798331141
 20
0.20000000000000284
 10
84.8000079833114
 20
0.20000000000000284
 10
84.87697532880443
 20
0.19404051223331864
 10
84.95210793048186
 20
0.17630411091103104
 10
85.02361478106138
 20
0.14721359549996077
 10
85.08979130373795
 20
0.10746242428298308
 10
85.14905998580224
 20
0.05799818373441373
 10
85.20000798331141
 20
2.831068712794149e-15
 10
85.20000798331141
 20
2.831068712794149e-15
 10
92.4000079833114
 20
2.831068712794149e-15
 10
92.40000798331138
 20
2.831068712794149e-15
 10
92.45095598082055
 20
0.05799818373441379
 10
92.51022466288484
 20
0.10746242428298303
 10
92.57640118556141
 20
0.14721359549996077
 10
92.64790803614093
 20
0.1763041109110311
 10
92.72304063781836
 20
0.19404051223331864
 10
92.80000798331139
 20
0.20000000000000284
 10
95.6000079833114
 20
0.20000000000000284
 10
95.67697532880443
 20
0.19404051223331864
 10
95.75210793048186
 20
0.17630411091103104
 10
95.82361478106138
 20
0.14721359549996077
 10
95.88979130373795
 20
0.10746242428298308
 10
95.94905998580224
 20
0.05799818373441373
 10
96.0000079833114
 20
2.831068712794149e-15
 10
96.0000079833114
 20
2.831068712794149e-15
  0
LWPOLYLINE
  5
34
330
17
100
AcDbEntity
  8
CONTOUR
100
AcDbPolyline
 90
206
 70
1
 10
-1.059328720387498e-05
 20
48.0
 10
-1.059328720104391e-05
 20
42.825
 10
-1.059328720104391e-05
 20
42.825
 10
0.05798759044720986
 20
42.77405200249084
 10
0.10745183099577921
 20
42.714783320426555
 10
0.1472030022127569
 20
42.648606797749984
 10
0.17629351762382717
 20
42.57709994717046
 10
0.19402991894611477
 20
42.50196734549303
 10
0.19998940671279897
 20
42.425000000000004
 10
0.19998940671279897
 20
39.225
 10
0.19402991894611477
 20
39.14803265450698
 10
0.17629351762382722
 20
39.072900052829546
 10
0.1472030022127569
 20
39.00139320225002
 10
0.10745183099577915
 20
38.93521667957345
 10
0.057987590447209914
 20
38.875947997509165
 10
-1.059328720104391e-05
 20
38.825
 10
-1.059328720104391e-05
 20
38.825
 10
-1.059328720104391e-05
 20
27.2
 10
-1.059328720104391e-05
 20
27.2
 10
0.05798759044720986
 20
27.149052002490837
 10
0.10745183099577921
 20
27.089783320426548
 10
0.1472030022127569
 20
27.023606797749977
 10
0.17629351762382717
 20
26.952099947170453
 10
0.19402991894611477
 20
26.876967345493025
 10
0.19998940671279897
 20
26.8
 10
0.19998940671279897
 20
23.599999999999998
 10
0.19402991894611477
 20
23.523032654506974
 10
0.17629351762382722
 20
23.447900052829546
 10
0.1472030022127569
 20
23.37639320225002
 10
0.10745183099577915
 20
23.31021667957345
 10
0.057987590447209914
 20
23.25094799750916
 10
-1.059328720104391e-05
 20
23.2
 10
-1.059328720104391e-05
 20
23.2
 10
-1.059328720104391e-05
 20
10.950000000000003
 10
-1.059328720104391e-05
 20
10.950000000000003
 10
0.05798759044720986
 20
10.899052002490839
 10
0.10745183099577921
 20
10.839783320426553
 10
0.1472030022127569
 20
10.773606797749983
 10
0.17629351762382717
 20
10.702099947170456
 10
0.19402991894611477
 20
10.62696734549303
 10
0.19998940671279897
 20
10.550000000000002
 10
0.19998940671279897
 20
7.350000000000003
 10
0.19402991894611477
 20
7.2730326545069754
 10
0.17629351762382722
 20
7.1979000528295485
 10
0.1472030022127569
 20
7.126393202250024
 10
0.10745183099577915
 20
7.060216679573452
 10
0.057987590447209914
 20
7.000947997509166
 10
-1.059328720104391e-05
 20
6.950000000000003
 10
-1.059328720104391e-05
 20
6.950000000000003
 10
-1.059328720387498e-05
 20
2.831068712794149e-15
 10
-1.059328720387498e-05
 20
2.831068712794149e-15
 10
0.05093740422195947
 20
0.05799818373441379
 10
0.11020608628624595
 20
0.10746242428298303
 10
0.1763826089628171
 20
0.14721359549996077
 10
0.24788945954234198
 20
0.1763041109110311
 10
0.3230220612197692
 20
0.19404051223331864
 10
0.39998940671279604
 20
0.20000000000000284
 10
3.1999894067127976
 20
0.20000000000000284
 10
3.2769567522058245
 20
0.19404051223331864
 10
3.352089353883252
 20
0.17630411091103104
 10
3.4235962044627763
 20
0.14721359549996077
 10
3.4897727271393477
 20
0.10746242428298308
 10
3.5490414092036344
 20
0.05799818373441373
 10
3.5999894067127975
 20
2.831068712794149e-15
 10
3.5999894067127975
 20
2.831068712794149e-15
 10
10.799989406712793
 20
2.831068712794149e-15
 10
10.799989406712793
 20
2.831068712794149e-15
 10
10.850937404221957
 20
0.05799818373441379
 10
10.910206086286243
 20
0.10746242428298303
 10
10.976382608962814
 20
0.14721359549996077
 10
11.04788945954234
 20
0.1763041109110311
 10
11.123022061219766
 20
0.19404051223331864
 10
11.199989406712794
 20
0.20000000000000284
 10
14.399989406712793
 20
0.20000000000000284
 10
14.47695675220582
 20
0.19404051223331864
 10
14.552089353883247
 20
0.17630411091103104
 10
14.623596204462773
 20
0.14721359549996077
 10
14.689772727139344
 20
0.10746242428298308
 10
14.74904140920363
 20
0.05799818373441373
 10
14.799989406712793
 20
2.831068712794149e-15
 10
14.799989406712793
 20
2.831068712794149e-15
 10
19.962543511717097
 20
0.0
 10
19.962543511717097
 20
7.94641869899656
 10
19.962543511717097
 20
7.94641869899656
 10
19.866598037394127
 20
8.06307004095968
 10
19.77664530721317
 20
8.18440254261462
 10
19.692913332051624
 20
8.310108652093845
 10
19.615614354507173
 20
8.43986973137202
 10
19.544944310908335
 20
8.573356863945143
 10
19.48108233465789
 20
8.710231688563276
 10
19.424190302168128
 20
8.850147256903753
 10
19.374412422538857
 20
8.992748913010786
 10
19.331874872018265
 20
9.137675192272226
 10
19.29668547417322
 20
9.284558737654812
 10
19.26893342657961
 20
9.433027230875489
 10
19.248689074725664
 20
9.582704336148367
 10
19.236003733701192
 20
9.733210654115254
 10
19.23090955812487
 20
9.884164683541606
 10
19.233419460639148
 20
10.03518378834039
 10
19.24352707917949
 20
10.185885167472428
 10
19.261206793100843
 20
10.335886825264978
 10
19.286413788120473
 20
10.48480853968882
 10
19.319084169912554
 20
10.632272826139527
 10
19.31908416991255
 20
10.632272826139527
 10
19.45413582248944
 20
11.192395340741122
 10
19.579439355726123
 20
11.75251785534271
 10
19.6923051661086
 20
12.312640369944305
 10
19.790310622188475
 20
12.872762884545892
 10
19.871352065654975
 20
13.432885399147487
 10
19.93368996574231
 20
13.993007913749082
 10
19.975986257746325
 20
14.55313042835067
 10
19.997333064190112
 20
15.113252942952265
 10
19.997272182147217
 20
15.67337545755386
 10
19.975804918432797
 20
16.233497972155448
 10
19.933392061553217
 20
16.793620486757042
 10
19.870943991016183
 20
17.35374300135863
 10
19.789801136302177
 20
17.913865515960225
 10
19.6917052049396
 20
18.473988030561816
 10
19.578761797264583
 20
19.034110545163408
 10
19.453395210328605
 20
19.594233059765003
 10
19.318296401074786
 20
20.15435557436659
 10
19.17636522573797
 20
20.714478088968185
 10
19.030648195282954
 20
21.274600603569777
 10
18.884273082941945
 20
21.834723118171368
 10
18.740381787481446
 20
22.394845632772963
 10
18.60206289326861
 20
22.954968147374554
 10
18.472285374715543
 20
23.515090661976146
 10
18.35383486811615
 20
24.075213176577737
 10
18.249253878781765
 20
24.63533569117933
 10
18.16078720691192
 20
25.195458205780923
 10
18.090333763617785
 20
25.755580720382515
 10
18.039405811353276
 20
26.315703234984106
 10
18.00909650364594
 20
26.875825749585697
 10
18.00005642087775
 20
27.435948264187292
 10
18.012479605768434
 20
27.996070778788884
 10
18.046099398305508
 20
28.556193293390475
 10
18.100194159523074
 20
29.116315807992066
 10
18.173602761270153
 20
29.676438322593658
 10
18.26474950948516
 20
30.236560837195253
 10
18.371677966005844
 20
30.796683351796844
 10
18.492092942939458
 20
31.356805866398435
 10
18.623409768196296
 20
31.916928381000027
 10
18.762809764716465
 20
32.47705089560162
 10
18.90730075254457
 20
33.03717341020321
 10
19.053781275093037
 20
33.597295924804804
 10
19.199107170996246
 20
34.1574184394064
 10
19.340159062610173
 20
34.71754095400799
 10
19.47390931253673
 20
35.27766346860958
 10
19.597487010970678
 20
35.83778598321118
 10
19.708239598934835
 20
36.397908497812764
 10
19.80378980467893
 20
36.95803101241435
 10
19.882086671119048
 20
37.51815352701595
 10
19.941449579028635
 20
38.07827604161754
 10
19.94144957902863
 20
38.07827604161754
 10
19.955683887679807
 20
38.20750976610395
 10
19.975504299633325
 20
38.33600537831464
 10
20.000873587814667
 20
38.46352153534808
 10
20.031744103144515
 20
38.589818733934095
 10
20.06805786403413
 20
38.71465976027343
 10
20.109746665287503
 20
38.837810135577215
 10
20.15673220620562
 20
38.9590385564695
 10
20.208926237652356
 20
39.07811732942565
 10
20.26623072780565
 20
39.19482279843066
 10
20.32853804628275
 20
39.30893576505409
 10
20.39573116629365
 20
39.42024190015277
 10
20.46768388444303
 20
39.52853214642787
 10
20.54426105776785
 20
39.63360311108027
 10
20.625318857565475
 20
39.73525744782679
 10
20.71070503953543
 20
39.83330422755973
 10
20.800259229727576
 20
39.92755929695356
 10
20.89381322575949
 20
40.01784562434517
 10
20.9911913127374
 20
40.10399363223816
 10
21.092210593287206
 20
40.18584151580643
 10
21.092210593287206
 20
48.0
 10
14.799989406712793
 20
48.0
 10
14.799989406712793
 20
48.0
 10
14.74904140920363
 20
47.94200181626559
 10
14.689772727139344
 20
47.89253757571702
 10
14.623596204462773
 20
47.852786404500044
 10
14.552089353883247
 20
47.823695889088974
 10
14.47695675220582
 20
47.805959487766685
 10
14.399989406712793
 20
47.8
 10
11.199989406712794
 20
47.8
 10
11.123022061219766
 20
47.805959487766685
 10
11.04788945954234
 20
47.823695889088974
 10
10.976382608962814
 20
47.852786404500044
 10
10.910206086286243
 20
47.89253757571702
 10
10.850937404221957
 20
47.94200181626559
 10
10.799989406712793
 20
48.0
 10
10.799989406712793
 20
48.0
 10
3.5999894067127975
 20
48.0
 10
3.5999894067127975
 20
48.0
 10
3.5490414092036344
 20
47.94200181626559
 10
3.4897727271393477
 20
47.89253757571702
 10
3.4235962044627763
 20
47.852786404500044
 10
3.352089353883252
 20
47.823695889088974
 10
3.2769567522058245
 20
47.805959487766685
 10
3.1999894067127976
 20
47.8
 10
0.39998940671279604
 20
47.8
 10
0.3230220612197692
 20
47.805959487766685
 10
0.24788945954234198
 20
47.823695889088974
 10
0.1763826089628171
 20
47.852786404500044
 10
0.11020608628624595
 20
47.89253757571702
 10
0.05093740422195947
 20
47.94200181626559
 10
-1.059328720387498e-05
 20
48.0
 10
-1.059328720387498e-05
 20
48.0
  0
LWPOLYLINE
  5
35
330
17
100
AcDbEntity
  8
CONTOUR
100
AcDbPolyline
 90
158
 70
1
 10
67.92430598250965
 20
36.892700000000005
 10
67.92430598250965
 20
33.71770000000001
 10
67.92430598250965
 20
33.71770000000001
 10
67.86630779877524
 20
33.666752002490846
 10
67.81684355822667
 20
33.60748332042656
 10
67.77709238700969
 20
33.54130679774999
 10
67.74800187159862
 20
33.469799947170465
 10
67.73026547027634
 20
33.39466734549303
 10
67.72430598250965
 20
33.31770000000001
 10
67.72430598250965
 20
30.117700000000006
 10
67.73026547027634
 20
30.04073265450698
 10
67.74800187159862
 20
29.96560005282955
 10
67.77709238700969
 20
29.894093202250026
 10
67.81684355822667
 20
29.827916679573455
 10
67.86630779877524
 20
29.76864799750917
 10
67.92430598250965
 20
29.717700000000008
 10
67.92430598250965
 20
29.717700000000004
 10
67.92430598250965
 20
22.2177
 10
67.92430598250965
 20
22.2177
 10
67.86630779877524
 20
22.16675200249084
 10
67.81684355822667
 20
22.10748332042655
 10
67.77709238700969
 20
22.04130679774998
 10
67.74800187159862
 20
21.969799947170454
 10
67.73026547027634
 20
21.894667345493026
 10
67.72430598250965
 20
21.817700000000002
 10
67.72430598250965
 20
18.6177
 10
67.73026547027634
 20
18.540732654506975
 10
67.74800187159862
 20
18.465600052829547
 10
67.77709238700969
 20
18.394093202250023
 10
67.81684355822667
 20
18.327916679573452
 10
67.86630779877524
 20
18.268647997509163
 10
67.92430598250965
 20
18.2177
 10
67.92430598250965
 20
18.2177
 10
67.92430598250965
 20
13.067700000000002
 10
67.92430598250965
 20
13.067700000000002
 10
67.86630779877524
 20
13.016752002490838
 10
67.81684355822667
 20
12.957483320426553
 10
67.77709238700969
 20
12.891306797749982
 10
67.74800187159862
 20
12.819799947170456
 10
67.73026547027634
 20
12.74466734549303
 10
67.72430598250965
 20
12.667700000000002
 10
67.72430598250965
 20
9.467700000000002
 10
67.73026547027634
 20
9.390732654506975
 10
67.74800187159862
 20
9.315600052829549
 10
67.77709238700969
 20
9.244093202250022
 10
67.81684355822667
 20
9.177916679573451
 10
67.86630779877524
 20
9.118647997509166
 10
67.92430598250965
 20
9.067700000000002
 10
67.92430598250965
 20
9.067700000000002
 10
67.92430598250965
 20
7.892700000000001
 10
64.08915192023375
 20
7.892700000000001
 10
64.08915192023375
 20
7.892700000000001
 10
63.86601433178967
 20
7.901009906319949
 10
63.64411291164988
 20
7.925893588917759
 10
63.42467697982346
 20
7.967213193745913
 10
63.20892219766821
 20
8.024739812774211
 10
62.998043833202665
 20
8.09815475212596
 10
62.793210139395896
 20
8.187051297622173
 10
62.595555882119044
 20
8.290936967952682
 10
62.40617605361324
 20
8.40923624299187
 10
62.226119806301
 20
8.541293752144203
 10
62.05638464054732
 20
8.686377905056418
 10
61.89791087856994
 20
8.843684944582375
 10
61.75157645511299
 20
9.01234339954745
 10
61.61819205374335
 20
9.191418912644433
 10
61.498496615714295
 20
9.379919416714628
 10
61.39315324627713
 20
9.576800630737985
 10
61.30274554111949
 20
9.780971845084704
 10
61.227774353281674
 20
9.991301963978483
 10
61.16865501846211
 20
10.20662577169648
 10
61.12571505408349
 20
10.42575038779163
 10
61.125715054082974
 20
10.425750387791549
 10
61.06153933347402
 20
10.86794372731077
 10
61.008913291910595
 20
11.310137066829991
 10
60.968541423348476
 20
11.752330406349213
 10
60.94096417765887
 20
12.194523745868437
 10
60.92655072573757
 20
12.636717085387659
 10
60.92549401749034
 20
13.07891042490688
 10
60.93780819885236
 20
13.521103764426101
 10
60.963328422419536
 20
13.963297103945322
 10
61.00171305422664
 20
14.405490443464544
 10
61.05244824713071
 20
14.847683782983768
 10
61.11485481957668
 20
15.28987712250299
 10
61.18809734766066
 20
15.732070462022211
 10
61.27119534877729
 20
16.174263801541432
 10
61.36303640713804
 20
16.616457141060653
 10
61.46239106545168
 20
17.058650480579875
 10
61.56792928341535
 20
17.500843820099096
 10
61.67823824268948
 20
17.943037159618317
 10
61.79184126000533
 20
18.38523049913754
 10
61.90721755521908
 20
18.82742383865676
 10
62.02282260968171
 20
19.269617178175984
 10
62.13710884239137
 20
19.711810517695206
 10
62.248546327140794
 20
20.154003857214427
 10
62.355643273323636
 20
20.596197196733648
 10
62.45696599622741
 20
21.03839053625287
 10
62.55115810947479
 20
21.48058387577209
 10
62.63695868268809
 20
21.922777215291312
 10
62.71321912130394
 20
22.364970554810537
 10
62.778918542571645
 20
22.807163894329758
 10
62.833177441899814
 20
23.24935723384898
 10
62.875269466602816
 20
23.6915505733682
 10
62.90463113943424
 20
24.133743912887425
 10
62.92086940174047
 20
24.575937252406646
 10
62.92376687525579
 20
25.018130591925868
 10
62.913284772100326
 20
25.46032393144509
 10
62.88956341402538
 20
25.90251727096431
 10
62.852920353955156
 20
26.34471061048353
 10
62.80384612497124
 20
26.786903950002753
 10
62.74299767364755
 20
27.229097289521974
 10
62.67118956564212
 20
27.671290629041195
 10
62.5893830812748
 20
28.11348396856042
 10
62.498673347065996
 20
28.55567730807964
 10
62.40027467550401
 20
28.997870647598862
 10
62.2955043092944
 20
29.440063987118084
 10
62.1857647877038
 20
29.882257326637305
 10
62.07252517105622
 20
30.324450666156526
 10
61.95730137472573
 20
30.766644005675747
 10
61.84163587589028
 20
31.208837345194972
 10
61.72707706470808
 20
31.651030684714193
 10
61.61515851633813
 20
32.093224024233415
 10
61.61515851645319
 20
32.093224024262064
 10
61.54411763582761
 20
32.426666347672025
 10
61.495964517454865
 20
32.76417466897992
 10
61.47092303594884
 20
33.10417983653636
 10
61.46910961475612
 20
33.44510109029545
 10
61.490532684877266
 20
33.78535341112175
 10
61.53509264566931
 20
34.12335488989855
 10
61.602582327911335
 20
34.457534082177126
 10
61.692687956980556
 20
34.78633731417331
 10
61.80499061166068
 20
35.10823590614428
 10
61.938968171800276
 20
35.42173327956252
 10
62.093997745766174
 20
35.72537191504398
 10
62.26935856640587
 20
36.01774012868162
 10
62.46423534205521
 20
36.297478635279504
 10
62.677722047011606
 20
36.563286867973595
 10
62.908826133850134
 20
36.81392902485791
 10
63.15647314799841
 20
37.04823981450392
 10
63.419511723116166
 20
37.2651298736609
 10
63.69671893405476
 20
37.463590831949276
 10
63.98680598250965
 20
37.642700000000005
 10
64.61180598250965
 20
37.642700000000005
 10
64.61180598250965
 20
37.642700000000005
 10
64.61652182508972
 20
37.55872664292252
 10
64.63061004837328
 20
37.47580929953276
 10
64.65389348477837
 20
37.39499070353362
 10
64.68607933158285
 20
37.317287195661834
 10
64.72676283308843
 20
37.2436759426135
 10
64.77543237065862
 20
37.17508264860595
 10
64.83147589661974
 20
37.11236991411009
 10
64.89418863111561
 20
37.056326388148975
 10
64.96278192512315
 20
37.00765685057879
 10
65.03639317817148
 20
36.966973349073186
 10
65.11409668604327
 20
36.934787502268726
 10
65.19491528204242
 20
36.91150406586363
 10
65.27783262543217
 20
36.897415842580074
 10
65.36180598250965
 20
36.892700000000005
 10
67.92430598250965
 20
36.892700000000005
  0
LWPOLYLINE
  5
36
330
17
100
AcDbEntity
  8
CONTOUR
100
AcDbPolyline
 90
158
 70
1
 10
68.85156084503068
 20
7.529499999999999
 10
68.85156084503068
 20
10.7045
 10
68.85156084503068
 20
10.7045
 10
68.90955902876509
 20
10.755447997509163
 10
68.95902326931366
 20
10.814716679573449
 10
68.99877444053064
 20
10.88089320225002
 10
69.02786495594171
 20
10.952400052829546
 10
69.04560135726399
 20
11.027532654506972
 10
69.05156084503068
 20
11.1045
 10
69.05156084503068
 20
14.304499999999999
 10
69.04560135726399
 20
14.381467345493027
 10
69.02786495594171
 20
14.456599947170453
 10
68.99877444053064
 20
14.52810679774998
 10
68.95902326931366
 20
14.59428332042655
 10
68.90955902876509
 20
14.653552002490835
 10
68.85156084503068
 20
14.7045
 10
68.85156084503068
 20
14.7045
 10
68.85156084503068
 20
22.2045
 10
68.85156084503068
 20
22.2045
 10
68.90955902876509
 20
22.25544799750916
 10
68.95902326931366
 20
22.31471667957345
 10
68.99877444053064
 20
22.38089320225002
 10
69.02786495594171
 20
22.452400052829546
 10
69.04560135726399
 20
22.527532654506974
 10
69.05156084503068
 20
22.604499999999998
 10
69.05156084503068
 20
25.8045
 10
69.04560135726399
 20
25.881467345493025
 10
69.02786495594171
 20
25.956599947170453
 10
68.99877444053064
 20
26.028106797749977
 10
68.95902326931366
 20
26.09428332042655
 10
68.90955902876509
 20
26.153552002490837
 10
68.85156084503068
 20
26.2045
 10
68.85156084503068
 20
26.2045
 10
68.85156084503068
 20
31.3545
 10
68.85156084503068
 20
31.3545
 10
68.90955902876509
 20
31.405447997509164
 10
68.95902326931366
 20
31.464716679573453
 10
68.99877444053064
 20
31.530893202250024
 10
69.02786495594171
 20
31.602400052829548
 10
69.04560135726399
 20
31.677532654506976
 10
69.05156084503068
 20
31.7545
 10
69.05156084503068
 20
34.9545
 10
69.04560135726399
 20
35.03146734549303
 10
69.02786495594171
 20
35.10659994717046
 10
68.99877444053064
 20
35.17810679774998
 10
68.95902326931366
 20
35.244283320426554
 10
68.90955902876509
 20
35.30355200249084
 10
68.85156084503068
 20
35.3545
 10
68.85156084503068
 20
35.3545
 10
68.85156084503068
 20
36.5295
 10
71.28285220162732
 20
36.5295
 10
71.28285220162732
 20
36.5295
 10
71.4989821727662
 20
36.52170451098776
 10
71.71398891802828
 20
36.49835855705034
 10
71.92675504893334
 20
36.45958346693933
 10
72.13617482145769
 20
36.405580754514006
 10
72.34115988257749
 20
36.33663107147527
 10
72.5406449264317
 20
36.25309274882079
 10
72.73359323070864
 20
36.15539993460149
 10
72.91900204448437
 20
36.044060337657235
 10
73.09590779951186
 20
35.91965258905777
 10
73.26339111787809
 20
35.782823234961256
 10
73.42058159000436
 20
35.634283376518624
 10
73.56666229815846
 20
35.474804974286144
 10
73.70087406197021
 20
35.30521683635199
 10
73.82251938388619
 20
35.12640031102674
 10
73.93096607405947
 20
34.93928470648267
 10
74.02565053583562
 20
34.744842461145915
 10
74.10608069476035
 20
34.544084089941194
 10
74.17183855588692
 20
34.33805293265304
 10
74.22258237609273
 20
34.12781973169669
 10
74.22258237609253
 20
34.12781973169665
 10
74.32326667882671
 20
33.65551805366102
 10
74.43201773255248
 20
33.18321637562539
 10
74.54717497062612
 20
32.710914697589764
 10
74.66698000761797
 20
32.23861301955414
 10
74.78960348885636
 20
31.76631134151851
 10
74.91317302363146
 20
31.294009663482882
 10
75.0358017755348
 20
30.821707985447254
 10
75.15561727337645
 20
30.349406307411627
 10
75.27079000275354
 20
29.877104629376
 10
75.37956134169305
 20
29.404802951340372
 10
75.48027041380759
 20
28.932501273304744
 10
75.57137944893175
 20
28.460199595269117
 10
75.65149726399663
 20
27.98789791723349
 10
75.71940050560278
 20
27.51559623919786
 10
75.77405232992987
 20
27.04329456116223
 10
75.81461823475112
 20
26.570992883126603
 10
75.84047880180704
 20
26.098691205090976
 10
75.85123915496932
 20
25.62638952705535
 10
75.84673498977449
 20
25.15408784901972
 10
75.82703508225941
 20
24.681786170984093
 10
75.79244023879042
 20
24.209484492948466
 10
75.7434787029214
 20
23.73718281491284
 10
75.68089808941562
 20
23.26488113687721
 10
75.60565396859427
 20
22.792579458841583
 10
75.5188952753218
 20
22.320277780805956
 10
75.42194676542506
 20
21.84797610277033
 10
75.3162887874265
 20
21.375674424734697
 10
75.20353467846539
 20
20.90337274669907
 10
75.08540612955866
 20
20.431071068663442
 10
74.96370689635988
 20
19.958769390627815
 10
74.84029525683782
 20
19.486467712592187
 10
74.71705563643037
 20
19.01416603455656
 10
74.59586983394155
 20
18.541864356520932
 10
74.4785882875456
 20
18.069562678485305
 10
74.36700181965027
 20
17.597261000449677
 10
74.2628142920585
 20
17.12495932241405
 10
74.16761658896947
 20
16.652657644378422
 10
74.0828623250829
 20
16.180355966342795
 10
74.00984564973075
 20
15.708054288307167
 10
73.94968148595396
 20
15.23575261027154
 10
73.90328850626274
 20
14.763450932235912
 10
73.87137510503067
 20
14.291149254200285
 10
73.85442858171608
 20
13.818847576164657
 10
73.85270770007692
 20
13.34654589812903
 10
73.8662387369956
 20
12.874244220093402
 10
73.89481508124588
 20
12.401942542057775
 10
73.93800038832869
 20
11.929640864022147
 10
73.99513524320405
 20
11.45733918598652
 10
74.06534722918309
 20
10.985037507950894
 10
74.06534722901478
 20
10.985037507923664
 10
74.09791942367437
 20
10.747794001100303
 10
74.11909502362239
 20
10.509263031702972
 10
74.12882545590399
 20
10.269991746166237
 10
74.12708840068647
 20
10.030528989074533
 10
74.11388784245692
 20
9.791424044213041
 10
74.08925406088254
 20
9.553225374611102
 10
74.0532435613546
 20
9.316479364468297
 10
74.00593894537545
 20
9.081729065848993
 10
73.94744872108568
 20
8.849512953020183
 10
73.8779070543664
 20
8.620363687289972
 10
73.79747346108718
 20
8.394806895179912
 10
73.70633244120577
 20
8.17335996273386
 10
73.60469305555901
 20
7.9565308487289865
 10
73.49278844631543
 20
7.744816919511212
 10
73.37087530218976
 20
7.538703808127725
 10
73.23923326964594
 20
7.338664300373576
 10
73.09816431143929
 20
7.145157250307488
 10
72.94799201396911
 20
6.958626527724537
 10
72.78906084503068
 20
6.779499999999999
 10
72.16406084503068
 20
6.779499999999999
 10
72.16406084503068
 20
6.779499999999999
 10
72.1593450024506
 20
6.8634733570774795
 10
72.14525677916704
 20
6.946390700467235
 10
72.12197334276196
 20
7.027209296466374
 10
72.0897874959575
 20
7.104912804338168
 10
72.0491039944519
 20
7.1785240573865
 10
72.0004344568817
 20
7.247117351394049
 10
71.94439093092059
 20
7.30983008588991
 10
71.88167819642473
 20
7.365873611851022
 10
71.81308490241719
 20
7.4145431494212115
 10
71.73947364936885
 20
7.455226650926813
 10
71.66177014149706
 20
7.487412497731274
 10
71.58095154549791
 20
7.510695934136367
 10
71.49803420210816
 20
7.52478415741993
 10
71.41406084503068
 20
7.529499999999999
 10
68.85156084503068
 20
7.529499999999999
  0
ENDSEC
  0
SECTION
  2
OBJECTS
  0
DICTIONARY
  5
A
330
0
100
AcDbDictionary
281
1
  3
ACAD_COLOR
350
B
  3
ACAD_GROUP
350
C
  3
ACAD_LAYOUT
350
D
  3
ACAD_MATERIAL
350
E
  3
ACAD_MLEADERSTYLE
350
F
  3
ACAD_MLINESTYLE
350
10
  3
ACAD_PLOTSETTINGS
350
11
  3
ACAD_PLOTSTYLENAME
350
12
  3
ACAD_SCALELIST
350
14
  3
ACAD_TABLESTYLE
350
15
  3
ACAD_VISUALSTYLE
350
16
  3
EZDXF_META
350
2D
  0
DICTIONARY
  5
B
330
A
100
AcDbDictionary
281
1
  0
DICTIONARY
  5
C
330
A
100
AcDbDictionary
281
1
  0
DICTIONARY
  5
D
330
A
100
AcDbDictionary
281
1
  3
Model
350
1A
  3
Layout1
350
1E
  0
DICTIONARY
  5
E
330
A
100
AcDbDictionary
281
1
  3
ByBlock
350
1F
  3
ByLayer
350
20
  3
Global
350
21
  0
DICTIONARY
  5
F
330
A
100
AcDbDictionary
281
1
  3
Standard
350
2C
  0
DICTIONARY
  5
10
330
A
100
AcDbDictionary
281
1
  3
Standard
350
22
  0
DICTIONARY
  5
11
330
A
100
AcDbDictionary
281
1
  0
ACDBDICTIONARYWDFLT
  5
12
330
A
100
AcDbDictionary
281
1
  3
Normal
350
13
100
AcDbDictionaryWithDefault
340
13
  0
ACDBPLACEHOLDER
  5
13
330
12
  0
DICTIONARY
  5
14
330
A
100
AcDbDictionary
281
1
  0
DICTIONARY
  5
15
330
A
100
AcDbDictionary
281
1
  0
DICTIONARY
  5
16
330
A
100
AcDbDictionary
281
1
  0
LAYOUT
  5
1A
330
D
100
AcDbPlotSettings
  1

  4
A3
  6

 40
7.5
 41
20.0
 42
7.5
 43
20.0
 44
420.0
 45
297.0
 46
0.0
 47
0.0
 48
0.0
 49
0.0
140
0.0
141
0.0
142
1.0
143
1.0
 70
1024
 72
1
 73
0
 74
5
  7

 75
16
 76
0
 77
2
 78
300
147
1.0
148
0.0
149
0.0
100
AcDbLayout
  1
Model
 70
1
 71
0
 10
0.0
 20
0.0
 11
420.0
 21
297.0
 12
0.0
 22
0.0
 32
0.0
 14
1e+20
 24
1e+20
 34
1e+20
 15
-1e+20
 25
-1e+20
 35
-1e+20
146
0.0
 13
0.0
 23
0.0
 33
0.0
 16
1.0
 26
0.0
 36
0.0
 17
0.0
 27
1.0
 37
0.0
 76
1
330
17
  0
LAYOUT
  5
1E
330
D
100
AcDbPlotSettings
  1

  4
A3
  6

 40
7.5
 41
20.0
 42
7.5
 43
20.0
 44
420.0
 45
297.0
 46
0.0
 47
0.0
 48
0.0
 49
0.0
140
0.0
141
0.0
142
1.0
143
1.0
 70
0
 72
1
 73
0
 74
5
  7

 75
16
 76
0
 77
2
 78
300
147
1.0
148
0.0
149
0.0
100
AcDbLayout
  1
Layout1
 70
1
 71
1
 10
0.0
 20
0.0
 11
420.0
 21
297.0
 12
0.0
 22
0.0
 32
0.0
 14
1e+20
 24
1e+20
 34
1e+20
 15
-1e+20
 25
-1e+20
 35
-1e+20
146
0.0
 13
0.0
 23
0.0
 33
0.0
 16
1.0
 26
0.0
 36
0.0
 17
0.0
 27
1.0
 37
0.0
 76
1
330
1B
  0
MATERIAL
  5
1F
102
{ACAD_REACTORS
330
E
102
}
330
E
100
AcDbMaterial
  1
ByBlock
  2

 70
0
 40
1.0
 71
1
 41
1.0
 91
-1023410177
 42
1.0
 72
1
  3

 73
1
 74
1
 75
1
 44
0.5
 73
0
 45
1.0
 46
1.0
 77
1
  4

 78
1
 79
1
170
1
 48
1.0
171
1
  6

172
1
173
1
174
1
140
1.0
141
1.0
175
1
  7

176
1
177
1
178
1
143
1.0
179
1
  8

270
1
271
1
272
1
145
1.0
146
1.0
273
1
  9

274
1
275
1
276
1
 42
1.0
 72
1
  3

 73
1
 74
1
 75
1
 94
63
  0
MATERIAL
  5
20
102
{ACAD_REACTORS
330
E
102
}
330
E
100
AcDbMaterial
  1
ByLayer
  2

 70
0
 40
1.0
 71
1
 41
1.0
 91
-1023410177
 42
1.0
 72
1
  3

 73
1
 74
1
 75
1
 44
0.5
 73
0
 45
1.0
 46
1.0
 77
1
  4

 78
1
 79
1
170
1
 48
1.0
171
1
  6

172
1
173
1
174
1
140
1.0
141
1.0
175
1
  7

176
1
177
1
178
1
143
1.0
179
1
  8

270
1
271
1
272
1
145
1.0
146
1.0
273
1
  9

274
1
275
1
276
1
 42
1.0
 72
1
  3

 73
1
 74
1
 75
1
 94
63
  0
MATERIAL
  5
21
102
{ACAD_REACTORS
330
E
102
}
330
E
100
AcDbMaterial
  1
Global
  2

 70
0
 40
1.0
 71
1
 41
1.0
 91
-1023410177
 42
1.0
 72
1
  3

 73
1
 74
1
 75
1
 44
0.5
 73
0
 45
1.0
 46
1.0
 77
1
  4

 78
1
 79
1
170
1
 48
1.0
171
1
  6

172
1
173
1
174
1
140
1.0
141
1.0
175
1
  7

176
1
177
1
178
1
143
1.0
179
1
  8

270
1
271
1
272
1
145
1.0
146
1.0
273
1
  9

274
1
275
1
276
1
 42
1.0
 72
1
  3

 73
1
 74
1
 75
1
 94
63
  0
MLINESTYLE
  5
22
102
{ACAD_REACTORS
330
10
102
}
330
10
100
AcDbMlineStyle
  2
Standard
 70
0
  3

 62
256
 51
90.0
 52
90.0
 71
2
 49
0.5
 62
256
  6
BYLAYER
 49
-0.5
 62
256
  6
BYLAYER
  0
MLEADERSTYLE
  5
2C
102
{ACAD_REACTORS
330
F
102
}
330
F
100
AcDbMLeaderStyle
179
2
170
2
171
1
172
0
 90
2
 40
0.0
 41
0.0
173
1
 91
-1056964608
 92
-2
290
1
 42
2.0
291
1
 43
8.0
  3
Standard
 44
4.0
300

342
29
174
1
175
1
176
0
178
1
 93
-1056964608
 45
4.0
292
0
297
0
 46
4.0
 94
-1056964608
 47
1.0
 49
1.0
140
1.0
294
1
141
0.0
177
0
142
1.0
295
0
296
0
143
3.75
271
0
272
9
273
9
  0
DICTIONARY
  5
2D
330
A
100
AcDbDictionary
280
1
281
1
  3
CREATED_BY_EZDXF
350
2E
  3
WRITTEN_BY_EZDXF
350
39
  0
DICTIONARYVAR
  5
2E
330
2D
100
DictionaryVariables
280
0
  1
1.4.3 @ 2026-04-05T00:03:45.755804+00:00
  0
DICTIONARYVAR
  5
39
330
2D
100
DictionaryVariables
280
0
  1
1.4.3 @ 2026-04-05T00:03:45.778576+00:00
  0
ENDSEC
  0
EOF
