  0
SECTION
  2
HEADER
  9
$ACADVER
  1
AC1024
  9
$ACADMAINTVER
 70
6
  9
$DWGCODEPAGE
  3
ANSI_1252
  9
$LASTSAVEDBY
  1
ezdxf
  9
$INSBASE
 10
0.0
 20
0.0
 30
0.0
  9
$EXTMIN
 10
1e+20
 20
1e+20
 30
1e+20
  9
$EXTMAX
 10
-1e+20
 20
-1e+20
 30
-1e+20
  9
$LIMMIN
 10
0.0
 20
0.0
  9
$LIMMAX
 10
420.0
 20
297.0
  9
$ORTHOMODE
 70
0
  9
$REGENMODE
 70
1
  9
$FILLMODE
 70
1
  9
$QTEXTMODE
 70
0
  9
$MIRRTEXT
 70
1
  9
$LTSCALE
 40
1.0
  9
$ATTMODE
 70
1
  9
$TEXTSIZE
 40
2.5
  9
$TRACEWID
 40
1.0
  9
$TEXTSTYLE
  7
Standard
  9
$CLAYER
  8
0
  9
$CELTYPE
  6
ByLayer
  9
$CECOLOR
 62
256
  9
$CELTSCALE
 40
1.0
  9
$DISPSILH
 70
0
  9
$DIMSCALE
 40
1.0
  9
$DIMASZ
 40
2.5
  9
$DIMEXO
 40
0.625
  9
$DIMDLI
 40
3.75
  9
$DIMRND
 40
0.0
  9
$DIMDLE
 40
0.0
  9
$DIMEXE
 40
1.25
  9
$DIMTP
 40
0.0
  9
$DIMTM
 40
0.0
  9
$DIMTXT
 40
2.5
  9
$DIMCEN
 40
2.5
  9
$DIMTSZ
 40
0.0
  9
$DIMTOL
 70
0
  9
$DIMLIM
 70
0
  9
$DIMTIH
 70
0
  9
$DIMTOH
 70
0
  9
$DIMSE1
 70
0
  9
$DIMSE2
 70
0
  9
$DIMTAD
 70
1
  9
$DIMZIN
 70
8
  9
$DIMBLK
  1

  9
$DIMASO
 70
1
  9
$DIMSHO
 70
1
  9
$DIMPOST
  1

  9
$DIMAPOST
  1

  9
$DIMALT
 70
0
  9
$DIMALTD
 70
3
  9
$DIMALTF
 40
0.03937007874
  9
$DIMLFAC
 40
1.0
  9
$DIMTOFL
 70
1
  9
$DIMTVP
 40
0.0
  9
$DIMTIX
 70
0
  9
$DIMSOXD
 70
0
  9
$DIMSAH
 70
0
  9
$DIMBLK1
  1

  9
$DIMBLK2
  1

  9
$DIMSTYLE
  2
ISO-25
  9
$DIMCLRD
 70
0
  9
$DIMCLRE
 70
0
  9
$DIMCLRT
 70
0
  9
$DIMTFAC
 40
1.0
  9
$DIMGAP
 40
0.625
  9
$DIMJUST
 70
0
  9
$DIMSD1
 70
0
  9
$DIMSD2
 70
0
  9
$DIMTOLJ
 70
0
  9
$DIMTZIN
 70
8
  9
$DIMALTZ
 70
0
  9
$DIMALTTZ
 70
0
  9
$DIMUPT
 70
0
  9
$DIMDEC
 70
2
  9
$DIMTDEC
 70
2
  9
$DIMALTU
 70
2
  9
$DIMALTTD
 70
3
  9
$DIMTXSTY
  7
Standard
  9
$DIMAUNIT
 70
0
  9
$DIMADEC
 70
0
  9
$DIMALTRND
 40
0.0
  9
$DIMAZIN
 70
0
  9
$DIMDSEP
 70
44
  9
$DIMATFIT
 70
3
  9
$DIMFRAC
 70
0
  9
$DIMLDRBLK
  1

  9
$DIMLUNIT
 70
2
  9
$DIMLWD
 70
-2
  9
$DIMLWE
 70
-2
  9
$DIMTMOVE
 70
0
  9
$DIMFXL
 40
1.0
  9
$DIMFXLON
 70
0
  9
$DIMJOGANG
 40
0.785398163397
  9
$DIMTFILL
 70
0
  9
$DIMTFILLCLR
 70
0
  9
$DIMARCSYM
 70
0
  9
$DIMLTYPE
  6

  9
$DIMLTEX1
  6

  9
$DIMLTEX2
  6

  9
$DIMTXTDIRECTION
 70
0
  9
$LUNITS
 70
2
  9
$LUPREC
 70
4
  9
$SKETCHINC
 40
1.0
  9
$FILLETRAD
 40
10.0
  9
$AUNITS
 70
0
  9
$AUPREC
 70
2
  9
$MENU
  1
.
  9
$ELEVATION
 40
0.0
  9
$PELEVATION
 40
0.0
  9
$THICKNESS
 40
0.0
  9
$LIMCHECK
 70
0
  9
$CHAMFERA
 40
0.0
  9
$CHAMFERB
 40
0.0
  9
$CHAMFERC
 40
0.0
  9
$CHAMFERD
 40
0.0
  9
$SKPOLY
 70
0
  9
$TDCREATE
 40
2461126.5185532407
  9
$TDUCREATE
 40
2458532.153996898
  9
$TDUPDATE
 40
2461126.5185532407
  9
$TDUUPDATE
 40
2458532.1544311
  9
$TDINDWG
 40
0.0
  9
$TDUSRTIMER
 40
0.0
  9
$USRTIMER
 70
1
  9
$ANGBASE
 50
0.0
  9
$ANGDIR
 70
0
  9
$PDMODE
 70
0
  9
$PDSIZE
 40
0.0
  9
$PLINEWID
 40
0.0
  9
$SPLFRAME
 70
0
  9
$SPLINETYPE
 70
6
  9
$SPLINESEGS
 70
8
  9
$HANDSEED
  5
81
  9
$SURFTAB1
 70
6
  9
$SURFTAB2
 70
6
  9
$SURFTYPE
 70
6
  9
$SURFU
 70
6
  9
$SURFV
 70
6
  9
$UCSBASE
  2

  9
$UCSNAME
  2

  9
$UCSORG
 10
0.0
 20
0.0
 30
0.0
  9
$UCSXDIR
 10
1.0
 20
0.0
 30
0.0
  9
$UCSYDIR
 10
0.0
 20
1.0
 30
0.0
  9
$UCSORTHOREF
  2

  9
$UCSORTHOVIEW
 70
0
  9
$UCSORGTOP
 10
0.0
 20
0.0
 30
0.0
  9
$UCSORGBOTTOM
 10
0.0
 20
0.0
 30
0.0
  9
$UCSORGLEFT
 10
0.0
 20
0.0
 30
0.0
  9
$UCSORGRIGHT
 10
0.0
 20
0.0
 30
0.0
  9
$UCSORGFRONT
 10
0.0
 20
0.0
 30
0.0
  9
$UCSORGBACK
 10
0.0
 20
0.0
 30
0.0
  9
$PUCSBASE
  2

  9
$PUCSNAME
  2

  9
$PUCSORG
 10
0.0
 20
0.0
 30
0.0
  9
$PUCSXDIR
 10
1.0
 20
0.0
 30
0.0
  9
$PUCSYDIR
 10
0.0
 20
1.0
 30
0.0
  9
$PUCSORTHOREF
  2

  9
$PUCSORTHOVIEW
 70
0
  9
$PUCSORGTOP
 10
0.0
 20
0.0
 30
0.0
  9
$PUCSORGBOTTOM
 10
0.0
 20
0.0
 30
0.0
  9
$PUCSORGLEFT
 10
0.0
 20
0.0
 30
0.0
  9
$PUCSORGRIGHT
 10
0.0
 20
0.0
 30
0.0
  9
$PUCSORGFRONT
 10
0.0
 20
0.0
 30
0.0
  9
$PUCSORGBACK
 10
0.0
 20
0.0
 30
0.0
  9
$USERI1
 70
0
  9
$USERI2
 70
0
  9
$USERI3
 70
0
  9
$USERI4
 70
0
  9
$USERI5
 70
0
  9
$USERR1
 40
0.0
  9
$USERR2
 40
0.0
  9
$USERR3
 40
0.0
  9
$USERR4
 40
0.0
  9
$USERR5
 40
0.0
  9
$WORLDVIEW
 70
1
  9
$SHADEDGE
 70
3
  9
$SHADEDIF
 70
70
  9
$TILEMODE
 70
1
  9
$MAXACTVP
 70
64
  9
$PINSBASE
 10
0.0
 20
0.0
 30
0.0
  9
$PLIMCHECK
 70
0
  9
$PEXTMIN
 10
1e+20
 20
1e+20
 30
1e+20
  9
$PEXTMAX
 10
-1e+20
 20
-1e+20
 30
-1e+20
  9
$PLIMMIN
 10
0.0
 20
0.0
  9
$PLIMMAX
 10
420.0
 20
297.0
  9
$UNITMODE
 70
0
  9
$VISRETAIN
 70
1
  9
$PLINEGEN
 70
0
  9
$PSLTSCALE
 70
1
  9
$TREEDEPTH
 70
3020
  9
$CMLSTYLE
  2
Standard
  9
$CMLJUST
 70
0
  9
$CMLSCALE
 40
20.0
  9
$PROXYGRAPHICS
 70
1
  9
$MEASUREMENT
 70
1
  9
$CELWEIGHT
370
-1
  9
$ENDCAPS
280
0
  9
$JOINSTYLE
280
0
  9
$LWDISPLAY
290
0
  9
$INSUNITS
 70
1
  9
$HYPERLINKBASE
  1

  9
$STYLESHEET
  1

  9
$XEDIT
290
1
  9
$CEPSNTYPE
380
0
  9
$PSTYLEMODE
290
1
  9
$FINGERPRINTGUID
  2
{0E437372-51BC-432C-BF63-8D05838590FB}
  9
$VERSIONGUID
  2
{399413D2-F9C1-4C49-AA7C-8E9817563D60}
  9
$EXTNAMES
290
1
  9
$PSVPSCALE
 40
0.0
  9
$OLESTARTUP
290
0
  9
$SORTENTS
280
127
  9
$INDEXCTL
280
0
  9
$HIDETEXT
280
1
  9
$XCLIPFRAME
280
1
  9
$HALOGAP
280
0
  9
$OBSCOLOR
 70
257
  9
$OBSLTYPE
280
0
  9
$INTERSECTIONDISPLAY
280
0
  9
$INTERSECTIONCOLOR
 70
257
  9
$DIMASSOC
280
2
  9
$PROJECTNAME
  1

  9
$CAMERADISPLAY
290
0
  9
$LENSLENGTH
 40
50.0
  9
$CAMERAHEIGHT
 40
0.0
  9
$STEPSPERSEC
 40
24.0
  9
$STEPSIZE
 40
100.0
  9
$3DDWFPREC
 40
2.0
  9
$PSOLWIDTH
 40
0.005
  9
$PSOLHEIGHT
 40
0.08
  9
$LOFTANG1
 40
1.570796326795
  9
$LOFTANG2
 40
1.570796326795
  9
$LOFTMAG1
 40
0.0
  9
$LOFTMAG2
 40
0.0
  9
$LOFTPARAM
 70
7
  9
$LOFTNORMALS
280
1
  9
$LATITUDE
 40
37.795
  9
$LONGITUDE
 40
-122.394
  9
$NORTHDIRECTION
 40
0.0
  9
$TIMEZONE
 70
-8000
  9
$LIGHTGLYPHDISPLAY
280
1
  9
$TILEMODELIGHTSYNCH
280
1
  9
$CMATERIAL
347
20
  9
$SOLIDHIST
280
0
  9
$SHOWHIST
280
1
  9
$DWFFRAME
280
2
  9
$DGNFRAME
280
2
  9
$REALWORLDSCALE
290
1
  9
$INTERFERECOLOR
 62
256
  9
$CSHADOW
280
0
  9
$SHADOWPLANELOCATION
 40
0.0
  0
ENDSEC
  0
SECTION
  2
CLASSES
  0
CLASS
  1
ACDBDICTIONARYWDFLT
  2
AcDbDictionaryWithDefault
  3
ObjectDBX Classes
 90
0
 91
0
280
0
281
0
  0
CLASS
  1
SUN
  2
AcDbSun
  3
SCENEOE
 90
1153
 91
0
280
0
281
0
  0
CLASS
  1
VISUALSTYLE
  2
AcDbVisualStyle
  3
ObjectDBX Classes
 90
4095
 91
0
280
0
281
0
  0
CLASS
  1
MATERIAL
  2
AcDbMaterial
  3
ObjectDBX Classes
 90
1153
 91
0
280
0
281
0
  0
CLASS
  1
SCALE
  2
AcDbScale
  3
ObjectDBX Classes
 90
1153
 91
0
280
0
281
0
  0
CLASS
  1
TABLESTYLE
  2
AcDbTableStyle
  3
ObjectDBX Classes
 90
4095
 91
0
280
0
281
0
  0
CLASS
  1
MLEADERSTYLE
  2
AcDbMLeaderStyle
  3
ACDB_MLEADERSTYLE_CLASS
 90
4095
 91
0
280
0
281
0
  0
CLASS
  1
DICTIONARYVAR
  2
AcDbDictionaryVar
  3
ObjectDBX Classes
 90
0
 91
0
280
0
281
0
  0
CLASS
  1
CELLSTYLEMAP
  2
AcDbCellStyleMap
  3
ObjectDBX Classes
 90
1152
 91
0
280
0
281
0
  0
CLASS
  1
MENTALRAYRENDERSETTINGS
  2
AcDbMentalRayRenderSettings
  3
SCENEOE
 90
1024
 91
0
280
0
281
0
  0
CLASS
  1
ACDBDETAILVIEWSTYLE
  2
AcDbDetailViewStyle
  3
ObjectDBX Classes
 90
1025
 91
0
280
0
281
0
  0
CLASS
  1
ACDBSECTIONVIEWSTYLE
  2
AcDbSectionViewStyle
  3
ObjectDBX Classes
 90
1025
 91
0
280
0
281
0
  0
CLASS
  1
RASTERVARIABLES
  2
AcDbRasterVariables
  3
ISM
 90
0
 91
0
280
0
281
0
  0
CLASS
  1
LAYOUT
  2
AcDbLayout
  3
ObjectDBX Classes
 90
0
 91
0
280
0
281
0
  0
CLASS
  1
ACDBPLACEHOLDER
  2
AcDbPlaceHolder
  3
ObjectDBX Classes
 90
0
 91
0
280
0
281
0
  0
ENDSEC
  0
SECTION
  2
TABLES
  0
TABLE
  2
VPORT
  5
8
330
0
100
AcDbSymbolTable
 70
1
  0
VPORT
  5
23
330
8
100
AcDbSymbolTableRecord
100
AcDbViewportTableRecord
  2
*Active
 70
0
 10
0.0
 20
0.0
 11
1.0
 21
1.0
 12
0.0
 22
0.0
 13
0.0
 23
0.0
 14
0.5
 24
0.5
 15
0.5
 25
0.5
 16
0.0
 26
0.0
 36
1.0
 17
0.0
 27
0.0
 37
0.0
 40
1000.0
 41
1.34
 42
50.0
 43
0.0
 44
0.0
 50
0.0
 51
0.0
 71
0
 72
1000
 73
1
 74
3
 75
0
 76
0
 77
0
 78
0
281
0
 65
0
146
0.0
  0
ENDTAB
  0
TABLE
  2
LTYPE
  5
2
330
0
100
AcDbSymbolTable
 70
3
  0
LTYPE
  5
24
330
2
100
AcDbSymbolTableRecord
100
AcDbLinetypeTableRecord
  2
ByBlock
 70
0
  3

 72
65
 73
0
 40
0.0
  0
LTYPE
  5
25
330
2
100
AcDbSymbolTableRecord
100
AcDbLinetypeTableRecord
  2
ByLayer
 70
0
  3

 72
65
 73
0
 40
0.0
  0
LTYPE
  5
26
330
2
100
AcDbSymbolTableRecord
100
AcDbLinetypeTableRecord
  2
Continuous
 70
0
  3

 72
65
 73
0
 40
0.0
  0
ENDTAB
  0
TABLE
  2
LAYER
  5
1
330
0
100
AcDbSymbolTable
 70
6
  0
LAYER
  5
27
330
1
100
AcDbSymbolTableRecord
100
AcDbLayerTableRecord
  2
0
 70
0
 62
7
  6
Continuous
370
-3
390
13
347
21
  0
LAYER
  5
28
330
1
100
AcDbSymbolTableRecord
100
AcDbLayerTableRecord
  2
Defpoints
 70
0
 62
7
  6
Continuous
290
0
370
-3
390
13
347
21
  0
LAYER
  5
2F
330
1
100
AcDbSymbolTableRecord
100
AcDbLayerTableRecord
  2
PLYWOOD_BOUNDARY
 70
0
 62
7
  6
Continuous
370
-3
390
13
347
21
  0
LAYER
  5
30
330
1
100
AcDbSymbolTableRecord
100
AcDbLayerTableRecord
  2
SHELF_OUTLINE
 70
0
 62
3
  6
Continuous
370
-3
390
13
347
21
  0
LAYER
  5
31
330
1
100
AcDbSymbolTableRecord
100
AcDbLayerTableRecord
  2
BRACKET_OUTLINE
 70
0
 62
5
  6
Continuous
370
-3
390
13
347
21
  0
LAYER
  5
32
330
1
100
AcDbSymbolTableRecord
100
AcDbLayerTableRecord
  2
BRACKET_CUTS
 70
0
 62
1
  6
Continuous
370
-3
390
13
347
21
  0
ENDTAB
  0
TABLE
  2
STYLE
  5
5
330
0
100
AcDbSymbolTable
 70
1
  0
STYLE
  5
29
330
5
100
AcDbSymbolTableRecord
100
AcDbTextStyleTableRecord
  2
Standard
 70
0
 40
0.0
 41
1.0
 50
0.0
 71
0
 42
2.5
  3
txt
  4

  0
ENDTAB
  0
TABLE
  2
VIEW
  5
7
330
0
100
AcDbSymbolTable
 70
0
  0
ENDTAB
  0
TABLE
  2
UCS
  5
6
330
0
100
AcDbSymbolTable
 70
0
  0
ENDTAB
  0
TABLE
  2
APPID
  5
3
330
0
100
AcDbSymbolTable
 70
3
  0
APPID
  5
2A
330
3
100
AcDbSymbolTableRecord
100
AcDbRegAppTableRecord
  2
ACAD
 70
0
  0
APPID
  5
7E
330
3
100
AcDbSymbolTableRecord
100
AcDbRegAppTableRecord
  2
HATCHBACKGROUNDCOLOR
 70
0
  0
APPID
  5
7F
330
3
100
AcDbSymbolTableRecord
100
AcDbRegAppTableRecord
  2
EZDXF
 70
0
  0
ENDTAB
  0
TABLE
  2
DIMSTYLE
  5
4
330
0
100
AcDbSymbolTable
 70
1
100
AcDbDimStyleTable
  0
DIMSTYLE
105
2B
330
4
100
AcDbSymbolTableRecord
100
AcDbDimStyleTableRecord
  2
Standard
 70
0
 40
1.0
 41
2.5
 42
0.625
 43
3.75
 44
1.25
 45
0.0
 46
0.0
 47
0.0
 48
0.0
 49
2.5
140
2.5
141
2.5
142
0.0
143
0.03937007874
144
1.0
145
0.0
146
1.0
147
0.625
148
0.0
 69
0
 70
0
 71
0
 72
0
 73
0
 74
0
 75
0
 76
0
 77
1
 78
8
 79
3
170
0
171
3
172
1
173
0
174
0
175
0
176
0
177
0
178
0
179
2
271
2
272
2
273
2
274
3
275
0
276
0
277
2
278
44
279
0
280
0
281
0
282
0
283
0
284
8
285
0
286
0
288
0
289
3
290
0
371
-2
372
-2
  0
ENDTAB
  0
TABLE
  2
BLOCK_RECORD
  5
9
330
0
100
AcDbSymbolTable
 70
2
  0
BLOCK_RECORD
  5
17
330
9
100
AcDbSymbolTableRecord
100
AcDbBlockTableRecord
  2
*Model_Space
340
1A
 70
0
280
1
281
0
  0
BLOCK_RECORD
  5
1B
330
9
100
AcDbSymbolTableRecord
100
AcDbBlockTableRecord
  2
*Paper_Space
340
1E
 70
0
280
1
281
0
  0
ENDTAB
  0
ENDSEC
  0
SECTION
  2
BLOCKS
  0
BLOCK
  5
18
330
17
100
AcDbEntity
  8
0
100
AcDbBlockBegin
  2
*Model_Space
 70
0
 10
0.0
 20
0.0
 30
0.0
  3
*Model_Space
  1

  0
ENDBLK
  5
19
330
17
100
AcDbEntity
  8
0
100
AcDbBlockEnd
  0
BLOCK
  5
1C
330
1B
100
AcDbEntity
  8
0
100
AcDbBlockBegin
  2
*Paper_Space
 70
0
 10
0.0
 20
0.0
 30
0.0
  3
*Paper_Space
  1

  0
ENDBLK
  5
1D
330
1B
100
AcDbEntity
  8
0
100
AcDbBlockEnd
  0
ENDSEC
  0
SECTION
  2
ENTITIES
  0
LWPOLYLINE
  5
33
330
17
100
AcDbEntity
  8
PLYWOOD_BOUNDARY
100
AcDbPolyline
 90
5
 70
1
 10
0.0
 20
0.0
 10
96.0
 20
0.0
 10
96.0
 20
48.0
 10
0.0
 20
48.0
 10
0.0
 20
0.0
  0
LWPOLYLINE
  5
34
330
17
100
AcDbEntity
  8
SHELF_OUTLINE
100
AcDbPolyline
 90
96
 70
1
 10
41.975535622699674
 20
48.0
 10
41.975535622699674
 20
0.0
 10
62.01786437730032
 20
0.0
 10
62.01786437730032
 20
6.108506834976353
 10
62.01786437730032
 20
6.108506834976353
 10
61.91231034138697
 20
6.17469773268526
 10
61.80959566831225
 20
6.245214293663949
 10
61.709897516799906
 20
6.319934893381365
 10
61.613387842781385
 20
6.39873065632549
 10
61.52023310281217
 20
6.4814656782834135
 10
61.430593966973284
 20
6.567997260744185
 10
61.344625041753034
 20
6.658176157020328
 10
61.26247460338712
 20
6.751846829663343
 10
61.184284342116854
 20
6.84884771872936
 10
61.11018911780678
 20
6.949011520432109
 10
61.04031672734299
 20
7.052165475702779
 10
60.97478768421345
 20
7.158131668158845
 10
60.91371501065056
 20
7.266727330968131
 10
60.85720404269424
 20
7.377765162078738
 10
60.805352248511994
 20
7.491053647271144
 10
60.75824906028918
 20
7.606397390475337
 10
60.715975719979454
 20
7.7235974507831955
 10
60.678605139181464
 20
7.842451685574929
 10
60.64620177338341
 20
7.962755099167673
 10
60.64620177338341
 20
7.962755099167673
 10
60.498279608422536
 20
8.581287962905463
 10
60.3628446419596
 20
9.199820826643254
 10
60.24344047168473
 20
9.818353690381045
 10
60.14319125639551
 20
10.436886554118836
 10
60.06471997372476
 20
11.055419417856626
 10
60.010079791058104
 20
11.673952281594424
 10
59.98070034529168
 20
12.292485145332215
 10
59.97735033699725
 20
12.911018009070006
 10
60.00011741770204
 20
13.529550872807796
 10
60.0484058965243
 20
14.148083736545587
 10
60.12095232616912
 20
14.766616600283378
 10
60.2158585604839
 20
15.385149464021168
 10
60.33064141863673
 20
16.00368232775896
 10
60.46229765647552
 20
16.62221519149675
 10
60.60738254512059
 20
17.240748055234544
 10
60.762100000815295
 20
17.859280918972335
 10
60.922401907826
 20
18.477813782710125
 10
61.08409403565051
 20
19.09634664644792
 10
61.242945779256516
 20
19.71487951018571
 10
61.39480085104404
 20
20.3334123739235
 10
61.53568602832421
 20
20.951945237661292
 10
61.66191511098326
 20
21.570478101399083
 10
61.7701853693243
 20
22.189010965136873
 10
61.85766395857034
 20
22.807543828874664
 10
61.92206203903042
 20
23.426076692612455
 10
61.961694662606355
 20
24.04460955635025
 10
61.97552485873564
 20
24.66314242008804
 10
61.96319076628052
 20
25.28167528382583
 10
61.925015101469114
 20
25.90020814756362
 10
61.861996714164036
 20
26.518741011301415
 10
61.77578445338501
 20
27.137273875039206
 10
61.66863402588292
 20
27.755806738776997
 10
61.543348976542134
 20
28.374339602514787
 10
61.403207334833496
 20
28.992872466252578
 10
61.2518758465821
 20
29.611405329990372
 10
61.093314035138626
 20
30.229938193728163
 10
60.93167060215262
 20
30.848471057465954
 10
60.77117487857687
 20
31.467003921203744
 10
60.61602616604071
 20
32.08553678494154
 10
60.47028386392766
 20
32.70406964867933
 10
60.33776125693523
 20
33.32260251241712
 10
60.221925742119666
 20
33.94113537615491
 10
60.125808105942184
 20
34.5596682398927
 10
60.05192322504385
 20
35.17820110363049
 10
60.00220426557904
 20
35.79673396736828
 10
59.97795210275386
 20
36.41526683110608
 10
59.97980128398554
 20
37.033799694843864
 10
60.00770342624187
 20
37.65233255858166
 10
60.060928481962534
 20
38.270865422319446
 10
60.060928481962534
 20
38.270865422319446
 10
60.07630592645014
 20
38.39237958610974
 10
60.09663067249174
 20
38.513164777664684
 10
60.12186884063763
 20
38.633019659372785
 10
60.15197836122324
 20
38.75174444436196
 10
60.18690904449534
 20
38.86914122952564
 10
60.22660266427363
 20
38.98501432540867
 10
60.270993055008404
 20
39.09917058240335
 10
60.32000622207224
 20
39.21141971271176
 10
60.37356046510219
 20
39.321574607537684
 10
60.4315665141866
 20
39.4294516489795
 10
60.49392767866972
 20
39.534871016104006
 10
60.56054000832599
 20
39.6376569846911
 10
60.63129246663527
 20
39.73763822014963
 10
60.70606711587044
 20
39.8346480631161
 10
60.78473931368845
 20
39.928524807260246
 10
60.867177920897504
 20
40.01911196883435
 10
60.953245520053805
 20
40.10625854751701
 10
61.042798644523565
 20
40.18981927811653
 10
61.13568801762847
 20
40.269654872714426
 10
61.13568801762847
 20
48.0
 10
41.975535622699674
 20
48.0
  0
LWPOLYLINE
  5
35
330
17
100
AcDbEntity
  8
BRACKET_OUTLINE
100
AcDbPolyline
 90
87
 70
1
 10
41.975535622699674
 20
42.825
 10
42.019783550557364
 20
42.78762013756228
 10
42.059411487758936
 20
42.74537371962288
 10
42.09388760626775
 20
42.698827715625455
 10
42.12274921819963
 20
42.64860679774998
 10
42.145608985340886
 20
42.59538495747918
 10
42.16216011743354
 20
42.53987646027368
 10
42.17218048946411
 20
42.482826259748784
 10
42.17553562269968
 20
42.425
 10
42.17553562269968
 20
41.625
 10
51.8219822321064
 20
41.625
 10
51.840160606362126
 20
41.64147591804405
 10
51.859866369148136
 20
41.656090707779
 10
51.88090974319654
 20
41.66870362079045
 10
51.903088069311764
 20
41.67919318783119
 10
51.92618775808942
 20
41.687458388636415
 10
51.949986346899
 20
41.69341962480417
 10
51.974254642320645
 20
41.69701948637142
 10
51.99875892740304
 20
41.69822330470336
 10
52.023263212485425
 20
41.69701948637142
 10
52.04753150790707
 20
41.69341962480417
 10
52.07133009671665
 20
41.687458388636415
 10
52.094429785494306
 20
41.67919318783119
 10
52.11660811160954
 20
41.66870362079045
 10
52.13765148565793
 20
41.656090707779
 10
52.15735724844395
 20
41.64147591804405
 10
52.17553562269968
 20
41.625
 10
52.19201154074372
 20
41.606821625744274
 10
52.20662633047868
 20
41.587115862958264
 10
52.21923924349013
 20
41.56607248890987
 10
52.22972881053086
 20
41.543894162794636
 10
52.23799401133609
 20
41.52079447401698
 10
52.24395524750384
 20
41.4969958852074
 10
52.24755510907109
 20
41.472727589785755
 10
52.24875892740304
 20
41.44822330470336
 10
52.24755510907109
 20
41.423719019620975
 10
52.24395524750384
 20
41.39945072419933
 10
52.23799401133609
 20
41.37565213538975
 10
52.22972881053086
 20
41.352552446612094
 10
52.21923924349013
 20
41.33037412049686
 10
52.20662633047868
 20
41.30933074644847
 10
52.19201154074372
 20
41.289624983662456
 10
52.17553562269968
 20
41.27144660940673
 10
52.17553562269968
 20
40.378553390593275
 10
52.19201154074372
 20
40.36037501633755
 10
52.20662633047868
 20
40.34066925355154
 10
52.21923924349013
 20
40.319625879503135
 10
52.22972881053086
 20
40.29744755338791
 10
52.23799401133609
 20
40.274347864610256
 10
52.24395524750384
 20
40.25054927580067
 10
52.24755510907109
 20
40.22628098037903
 10
52.24875892740304
 20
40.20177669529664
 10
52.24755510907109
 20
40.17727241021425
 10
52.24395524750384
 20
40.15300411479261
 10
52.23799401133609
 20
40.129205525983025
 10
52.22972881053086
 20
40.10610583720536
 10
52.21923924349013
 20
40.08392751109014
 10
52.20662633047868
 20
40.062884137041735
 10
52.19201154074372
 20
40.043178374255724
 10
52.17553562269968
 20
40.025
 10
52.15735724844395
 20
40.008524081955954
 10
52.13765148565793
 20
39.993909292221005
 10
52.11660811160954
 20
39.98129637920955
 10
52.094429785494306
 20
39.97080681216882
 10
52.07133009671665
 20
39.962541611363584
 10
52.04753150790707
 20
39.95658037519583
 10
52.023263212485425
 20
39.95298051362859
 10
51.99875892740304
 20
39.95177669529664
 10
51.974254642320645
 20
39.95298051362859
 10
51.949986346899
 20
39.95658037519583
 10
51.92618775808942
 20
39.962541611363584
 10
51.903088069311764
 20
39.97080681216882
 10
51.88090974319654
 20
39.98129637920955
 10
51.859866369148136
 20
39.993909292221005
 10
51.840160606362126
 20
40.008524081955954
 10
51.8219822321064
 20
40.025
 10
42.17553562269968
 20
40.025
 10
42.17553562269968
 20
39.225
 10
42.17218048946411
 20
39.167173740251215
 10
42.16216011743354
 20
39.11012353972632
 10
42.145608985340886
 20
39.054615042520815
 10
42.12274921819963
 20
39.00139320225002
 10
42.09388760626775
 20
38.95117228437454
 10
42.059411487758936
 20
38.904626280377116
 10
42.019783550557364
 20
38.86237986243772
 10
41.975535622699674
 20
38.825
 10
41.975535622699674
 20
42.825
  0
LWPOLYLINE
  5
36
330
17
100
AcDbEntity
  8
BRACKET_OUTLINE
100
AcDbPolyline
 90
87
 70
1
 10
41.975535622699674
 20
27.2
 10
42.019783550557364
 20
27.16262013756228
 10
42.059411487758936
 20
27.120373719622883
 10
42.09388760626775
 20
27.073827715625455
 10
42.12274921819963
 20
27.023606797749977
 10
42.145608985340886
 20
26.970384957479187
 10
42.16216011743354
 20
26.914876460273682
 10
42.17218048946411
 20
26.857826259748784
 10
42.17553562269968
 20
26.8
 10
42.17553562269968
 20
26.0
 10
51.8219822321064
 20
26.0
 10
51.840160606362126
 20
26.016475918044048
 10
51.859866369148136
 20
26.031090707779
 10
51.88090974319654
 20
26.043703620790453
 10
51.903088069311764
 20
26.054193187831185
 10
51.92618775808942
 20
26.062458388636415
 10
51.949986346899
 20
26.06841962480417
 10
51.974254642320645
 20
26.072019486371413
 10
51.99875892740304
 20
26.073223304703365
 10
52.023263212485425
 20
26.072019486371413
 10
52.04753150790707
 20
26.06841962480417
 10
52.07133009671665
 20
26.062458388636415
 10
52.094429785494306
 20
26.054193187831185
 10
52.11660811160954
 20
26.043703620790453
 10
52.13765148565793
 20
26.031090707779
 10
52.15735724844395
 20
26.016475918044048
 10
52.17553562269968
 20
26.0
 10
52.19201154074372
 20
25.981821625744274
 10
52.20662633047868
 20
25.962115862958264
 10
52.21923924349013
 20
25.941072488909864
 10
52.22972881053086
 20
25.918894162794636
 10
52.23799401133609
 20
25.89579447401698
 10
52.24395524750384
 20
25.871995885207397
 10
52.24755510907109
 20
25.847727589785755
 10
52.24875892740304
 20
25.823223304703365
 10
52.24755510907109
 20
25.798719019620975
 10
52.24395524750384
 20
25.774450724199333
 10
52.23799401133609
 20
25.75065213538975
 10
52.22972881053086
 20
25.72755244661209
 10
52.21923924349013
 20
25.705374120496863
 10
52.20662633047868
 20
25.684330746448463
 10
52.19201154074372
 20
25.664624983662453
 10
52.17553562269968
 20
25.646446609406727
 10
52.17553562269968
 20
24.753553390593275
 10
52.19201154074372
 20
24.73537501633755
 10
52.20662633047868
 20
24.71566925355154
 10
52.21923924349013
 20
24.694625879503135
 10
52.22972881053086
 20
24.67244755338791
 10
52.23799401133609
 20
24.649347864610252
 10
52.24395524750384
 20
24.62554927580067
 10
52.24755510907109
 20
24.601280980379027
 10
52.24875892740304
 20
24.576776695296637
 10
52.24755510907109
 20
24.552272410214247
 10
52.24395524750384
 20
24.528004114792605
 10
52.23799401133609
 20
24.50420552598302
 10
52.22972881053086
 20
24.481105837205366
 10
52.21923924349013
 20
24.45892751109014
 10
52.20662633047868
 20
24.43788413704174
 10
52.19201154074372
 20
24.418178374255724
 10
52.17553562269968
 20
24.400000000000002
 10
52.15735724844395
 20
24.383524081955954
 10
52.13765148565793
 20
24.368909292221
 10
52.11660811160954
 20
24.35629637920955
 10
52.094429785494306
 20
24.345806812168817
 10
52.07133009671665
 20
24.337541611363584
 10
52.04753150790707
 20
24.33158037519583
 10
52.023263212485425
 20
24.32798051362859
 10
51.99875892740304
 20
24.326776695296637
 10
51.974254642320645
 20
24.32798051362859
 10
51.949986346899
 20
24.33158037519583
 10
51.92618775808942
 20
24.337541611363584
 10
51.903088069311764
 20
24.345806812168817
 10
51.88090974319654
 20
24.35629637920955
 10
51.859866369148136
 20
24.368909292221
 10
51.840160606362126
 20
24.383524081955954
 10
51.8219822321064
 20
24.400000000000002
 10
42.17553562269968
 20
24.4
 10
42.17553562269968
 20
23.599999999999998
 10
42.17218048946411
 20
23.542173740251215
 10
42.16216011743354
 20
23.48512353972632
 10
42.145608985340886
 20
23.429615042520812
 10
42.12274921819963
 20
23.37639320225002
 10
42.09388760626775
 20
23.326172284374543
 10
42.059411487758936
 20
23.279626280377116
 10
42.019783550557364
 20
23.23737986243772
 10
41.975535622699674
 20
23.2
 10
41.975535622699674
 20
27.2
  0
LWPOLYLINE
  5
37
330
17
100
AcDbEntity
  8
BRACKET_OUTLINE
100
AcDbPolyline
 90
87
 70
1
 10
41.975535622699674
 20
10.950000000000003
 10
42.019783550557364
 20
10.912620137562286
 10
42.059411487758936
 20
10.87037371962289
 10
42.09388760626775
 20
10.823827715625463
 10
42.12274921819963
 20
10.773606797749984
 10
42.145608985340886
 20
10.72038495747919
 10
42.16216011743354
 20
10.664876460273682
 10
42.17218048946411
 20
10.607826259748784
 10
42.17553562269968
 20
10.550000000000004
 10
42.17553562269968
 20
9.75
 10
51.8219822321064
 20
9.750000000000007
 10
51.840160606362126
 20
9.766475918044051
 10
51.859866369148136
 20
9.781090707779
 10
51.88090974319654
 20
9.793703620790453
 10
51.903088069311764
 20
9.804193187831189
 10
51.92618775808942
 20
9.812458388636422
 10
51.949986346899
 20
9.818419624804172
 10
51.974254642320645
 20
9.822019486371417
 10
51.99875892740304
 20
9.823223304703369
 10
52.023263212485425
 20
9.822019486371417
 10
52.04753150790707
 20
9.818419624804172
 10
52.07133009671665
 20
9.812458388636422
 10
52.094429785494306
 20
9.804193187831189
 10
52.11660811160954
 20
9.793703620790453
 10
52.13765148565793
 20
9.781090707779
 10
52.15735724844395
 20
9.766475918044051
 10
52.17553562269968
 20
9.750000000000007
 10
52.19201154074372
 20
9.731821625744281
 10
52.20662633047868
 20
9.712115862958271
 10
52.21923924349013
 20
9.691072488909867
 10
52.22972881053086
 20
9.668894162794636
 10
52.23799401133609
 20
9.64579447401698
 10
52.24395524750384
 20
9.621995885207397
 10
52.24755510907109
 20
9.597727589785755
 10
52.24875892740304
 20
9.573223304703369
 10
52.24755510907109
 20
9.548719019620975
 10
52.24395524750384
 20
9.524450724199333
 10
52.23799401133609
 20
9.50065213538975
 10
52.22972881053086
 20
9.477552446612094
 10
52.21923924349013
 20
9.45537412049687
 10
52.20662633047868
 20
9.434330746448467
 10
52.19201154074372
 20
9.414624983662456
 10
52.17553562269968
 20
9.39644660940673
 10
52.17553562269968
 20
8.503553390593275
 10
52.19201154074372
 20
8.48537501633755
 10
52.20662633047868
 20
8.465669253551539
 10
52.21923924349013
 20
8.444625879503143
 10
52.22972881053086
 20
8.422447553387912
 10
52.23799401133609
 20
8.399347864610256
 10
52.24395524750384
 20
8.375549275800672
 10
52.24755510907109
 20
8.35128098037903
 10
52.24875892740304
 20
8.326776695296644
 10
52.24755510907109
 20
8.30227241021425
 10
52.24395524750384
 20
8.278004114792608
 10
52.23799401133609
 20
8.254205525983025
 10
52.22972881053086
 20
8.23110583720537
 10
52.21923924349013
 20
8.208927511090138
 10
52.20662633047868
 20
8.187884137041742
 10
52.19201154074372
 20
8.168178374255731
 10
52.17553562269968
 20
8.150000000000006
 10
52.15735724844395
 20
8.133524081955954
 10
52.13765148565793
 20
8.118909292221005
 10
52.11660811160954
 20
8.106296379209553
 10
52.094429785494306
 20
8.095806812168817
 10
52.07133009671665
 20
8.08754161136359
 10
52.04753150790707
 20
8.081580375195834
 10
52.023263212485425
 20
8.077980513628589
 10
51.99875892740304
 20
8.076776695296644
 10
51.974254642320645
 20
8.077980513628589
 10
51.949986346899
 20
8.081580375195834
 10
51.92618775808942
 20
8.08754161136359
 10
51.903088069311764
 20
8.095806812168817
 10
51.88090974319654
 20
8.106296379209553
 10
51.859866369148136
 20
8.118909292221005
 10
51.840160606362126
 20
8.133524081955954
 10
51.8219822321064
 20
8.150000000000006
 10
42.17553562269968
 20
8.150000000000006
 10
42.17553562269968
 20
7.350000000000001
 10
42.17218048946411
 20
7.292173740251222
 10
42.16216011743354
 20
7.235123539726324
 10
42.145608985340886
 20
7.179615042520815
 10
42.12274921819963
 20
7.126393202250021
 10
42.09388760626775
 20
7.076172284374543
 10
42.059411487758936
 20
7.029626280377116
 10
42.019783550557364
 20
6.98737986243772
 10
41.975535622699674
 20
6.950000000000003
 10
41.975535622699674
 20
10.950000000000003
  0
LWPOLYLINE
  5
38
330
17
100
AcDbEntity
  8
BRACKET_OUTLINE
100
AcDbPolyline
 90
87
 70
1
 10
56.77553562269967
 20
48.0
 10
56.738155760261954
 20
47.95575207214231
 10
56.69590934232256
 20
47.91612413494074
 10
56.64936333832513
 20
47.881648016431924
 10
56.59914242044965
 20
47.852786404500044
 10
56.54592058017886
 20
47.82992663735879
 10
56.49041208297335
 20
47.81337550526614
 10
56.43336188244845
 20
47.80335513323556
 10
56.37553562269967
 20
47.8
 10
55.57553562269967
 20
47.8
 10
55.57553562269967
 20
38.153553390593274
 10
55.59201154074372
 20
38.13537501633755
 10
55.60662633047867
 20
38.11566925355154
 10
55.61923924349012
 20
38.094625879503134
 10
55.62972881053086
 20
38.07244755338791
 10
55.63799401133608
 20
38.049347864610255
 10
55.64395524750384
 20
38.02554927580067
 10
55.647555109071085
 20
38.00128098037903
 10
55.64875892740304
 20
37.976776695296635
 10
55.647555109071085
 20
37.95227241021425
 10
55.64395524750384
 20
37.92800411479261
 10
55.63799401133608
 20
37.90420552598302
 10
55.62972881053086
 20
37.88110583720537
 10
55.61923924349012
 20
37.85892751109014
 10
55.60662633047867
 20
37.83788413704174
 10
55.59201154074372
 20
37.81817837425572
 10
55.57553562269967
 20
37.8
 10
55.55735724844394
 20
37.78352408195595
 10
55.53765148565793
 20
37.768909292221
 10
55.516608111609536
 20
37.756296379209545
 10
55.494429785494304
 20
37.745806812168816
 10
55.47133009671665
 20
37.73754161136358
 10
55.447531507907065
 20
37.73158037519583
 10
55.42326321248542
 20
37.72798051362859
 10
55.39875892740304
 20
37.726776695296635
 10
55.37425464232064
 20
37.72798051362859
 10
55.349986346899
 20
37.73158037519583
 10
55.32618775808942
 20
37.73754161136358
 10
55.30308806931176
 20
37.745806812168816
 10
55.28090974319653
 20
37.756296379209545
 10
55.259866369148135
 20
37.768909292221
 10
55.240160606362124
 20
37.78352408195595
 10
55.2219822321064
 20
37.8
 10
54.32908901329294
 20
37.8
 10
54.31091063903722
 20
37.78352408195595
 10
54.29120487625121
 20
37.768909292221
 10
54.270161502202804
 20
37.756296379209545
 10
54.24798317608758
 20
37.745806812168816
 10
54.224883487309924
 20
37.73754161136358
 10
54.20108489850034
 20
37.73158037519583
 10
54.1768166030787
 20
37.72798051362859
 10
54.152312317996305
 20
37.726776695296635
 10
54.12780803291392
 20
37.72798051362859
 10
54.10353973749228
 20
37.73158037519583
 10
54.07974114868269
 20
37.73754161136358
 10
54.05664145990504
 20
37.745806812168816
 10
54.03446313378981
 20
37.756296379209545
 10
54.01341975974141
 20
37.768909292221
 10
53.99371399695539
 20
37.78352408195595
 10
53.975535622699674
 20
37.8
 10
53.95905970465562
 20
37.81817837425572
 10
53.94444491492067
 20
37.83788413704174
 10
53.93183200190922
 20
37.85892751109014
 10
53.921342434868485
 20
37.88110583720537
 10
53.91307723406325
 20
37.90420552598302
 10
53.9071159978955
 20
37.92800411479261
 10
53.90351613632826
 20
37.95227241021425
 10
53.902312317996305
 20
37.976776695296635
 10
53.90351613632826
 20
38.00128098037903
 10
53.9071159978955
 20
38.02554927580067
 10
53.91307723406325
 20
38.049347864610255
 10
53.921342434868485
 20
38.07244755338791
 10
53.93183200190922
 20
38.094625879503134
 10
53.94444491492067
 20
38.11566925355154
 10
53.95905970465562
 20
38.13537501633755
 10
53.975535622699674
 20
38.153553390593274
 10
53.975535622699674
 20
47.8
 10
53.17553562269967
 20
47.8
 10
53.11770936295089
 20
47.80335513323556
 10
53.06065916242599
 20
47.81337550526614
 10
53.005150665220484
 20
47.82992663735879
 10
52.95192882494969
 20
47.852786404500044
 10
52.90170790707421
 20
47.881648016431924
 10
52.855161903076784
 20
47.91612413494074
 10
52.81291548513739
 20
47.95575207214231
 10
52.77553562269967
 20
48.0
 10
56.77553562269967
 20
48.0
  0
LWPOLYLINE
  5
39
330
17
100
AcDbEntity
  8
BRACKET_OUTLINE
100
AcDbPolyline
 90
87
 70
1
 10
52.77553562269967
 20
0.0
 10
52.81291548513739
 20
0.04424792785768972
 10
52.855161903076784
 20
0.08387586505926237
 10
52.90170790707421
 20
0.11835198356807552
 10
52.95192882494969
 20
0.14721359549995583
 10
53.005150665220484
 20
0.17007336264121165
 10
53.06065916242599
 20
0.1866244947338629
 10
53.11770936295089
 20
0.19664486676443715
 10
53.17553562269967
 20
0.20000000000000284
 10
53.975535622699674
 20
0.20000000000000284
 10
53.97553562269967
 20
9.846446609406726
 10
53.95905970465562
 20
9.864624983662452
 10
53.94444491492067
 20
9.884330746448462
 10
53.93183200190922
 20
9.905374120496866
 10
53.921342434868485
 20
9.92755244661209
 10
53.91307723406325
 20
9.950652135389745
 10
53.9071159978955
 20
9.974450724199329
 10
53.90351613632826
 20
9.998719019620971
 10
53.902312317996305
 20
10.023223304703365
 10
53.90351613632826
 20
10.047727589785751
 10
53.9071159978955
 20
10.071995885207393
 10
53.91307723406325
 20
10.095794474016976
 10
53.921342434868485
 20
10.118894162794632
 10
53.93183200190922
 20
10.141072488909863
 10
53.94444491492067
 20
10.16211586295826
 10
53.95905970465562
 20
10.181821625744277
 10
53.97553562269967
 20
10.200000000000003
 10
53.99371399695539
 20
10.216475918044047
 10
54.0134197597414
 20
10.231090707779003
 10
54.03446313378981
 20
10.243703620790455
 10
54.05664145990504
 20
10.254193187831184
 10
54.07974114868269
 20
10.262458388636418
 10
54.10353973749228
 20
10.268419624804167
 10
54.12780803291392
 20
10.272019486371413
 10
54.152312317996305
 20
10.273223304703365
 10
54.1768166030787
 20
10.272019486371413
 10
54.20108489850034
 20
10.268419624804167
 10
54.224883487309924
 20
10.262458388636418
 10
54.24798317608758
 20
10.254193187831184
 10
54.270161502202804
 20
10.243703620790455
 10
54.29120487625121
 20
10.231090707779003
 10
54.31091063903722
 20
10.216475918044047
 10
54.32908901329294
 20
10.200000000000003
 10
55.2219822321064
 20
10.200000000000003
 10
55.240160606362124
 20
10.216475918044047
 10
55.259866369148135
 20
10.231090707779003
 10
55.28090974319653
 20
10.243703620790455
 10
55.30308806931176
 20
10.254193187831184
 10
55.32618775808942
 20
10.262458388636418
 10
55.349986346899
 20
10.268419624804167
 10
55.37425464232064
 20
10.272019486371413
 10
55.39875892740304
 20
10.273223304703365
 10
55.42326321248542
 20
10.272019486371413
 10
55.447531507907065
 20
10.268419624804167
 10
55.47133009671665
 20
10.262458388636418
 10
55.494429785494304
 20
10.254193187831184
 10
55.516608111609536
 20
10.243703620790455
 10
55.53765148565793
 20
10.231090707779003
 10
55.55735724844394
 20
10.216475918044047
 10
55.57553562269967
 20
10.200000000000003
 10
55.59201154074372
 20
10.181821625744277
 10
55.60662633047867
 20
10.16211586295826
 10
55.61923924349012
 20
10.141072488909863
 10
55.62972881053086
 20
10.118894162794632
 10
55.63799401133608
 20
10.095794474016976
 10
55.64395524750384
 20
10.071995885207393
 10
55.647555109071085
 20
10.047727589785751
 10
55.64875892740304
 20
10.023223304703365
 10
55.647555109071085
 20
9.998719019620971
 10
55.64395524750384
 20
9.974450724199329
 10
55.63799401133608
 20
9.950652135389745
 10
55.62972881053086
 20
9.92755244661209
 10
55.61923924349012
 20
9.905374120496866
 10
55.60662633047867
 20
9.884330746448462
 10
55.59201154074372
 20
9.864624983662452
 10
55.57553562269967
 20
9.846446609406726
 10
55.57553562269967
 20
0.20000000000000284
 10
56.37553562269967
 20
0.20000000000000284
 10
56.43336188244845
 20
0.19664486676443715
 10
56.49041208297335
 20
0.1866244947338629
 10
56.54592058017886
 20
0.17007336264121165
 10
56.59914242044965
 20
0.14721359549995583
 10
56.64936333832513
 20
0.11835198356807552
 10
56.69590934232256
 20
0.08387586505926237
 10
56.738155760261954
 20
0.04424792785768972
 10
56.77553562269967
 20
0.0
 10
52.77553562269967
 20
0.0
  0
LWPOLYLINE
  5
3A
330
17
100
AcDbEntity
  8
BRACKET_OUTLINE
100
AcDbPolyline
 90
87
 70
1
 10
45.575535622699675
 20
48.0
 10
45.53815576026196
 20
47.95575207214231
 10
45.495909342322555
 20
47.91612413494074
 10
45.449363338325135
 20
47.881648016431924
 10
45.39914242044966
 20
47.852786404500044
 10
45.34592058017886
 20
47.82992663735879
 10
45.290412082973354
 20
47.81337550526614
 10
45.233361882448456
 20
47.80335513323556
 10
45.17553562269968
 20
47.8
 10
44.37553562269967
 20
47.8
 10
44.37553562269967
 20
44.153553390593274
 10
44.392011540743724
 20
44.13537501633755
 10
44.40662633047867
 20
44.11566925355154
 10
44.419239243490125
 20
44.094625879503134
 10
44.42972881053086
 20
44.07244755338791
 10
44.43799401133609
 20
44.049347864610255
 10
44.443955247503844
 20
44.02554927580067
 10
44.44755510907109
 20
44.00128098037903
 10
44.44875892740304
 20
43.976776695296635
 10
44.44755510907109
 20
43.95227241021425
 10
44.443955247503844
 20
43.92800411479261
 10
44.43799401133609
 20
43.90420552598302
 10
44.42972881053086
 20
43.88110583720536
 10
44.419239243490125
 20
43.85892751109014
 10
44.40662633047867
 20
43.83788413704173
 10
44.392011540743724
 20
43.81817837425572
 10
44.37553562269967
 20
43.8
 10
44.35735724844395
 20
43.78352408195595
 10
44.337651485657936
 20
43.768909292221
 10
44.31660811160954
 20
43.756296379209545
 10
44.29442978549431
 20
43.745806812168816
 10
44.27133009671665
 20
43.73754161136358
 10
44.24753150790707
 20
43.73158037519583
 10
44.22326321248543
 20
43.72798051362859
 10
44.19875892740304
 20
43.726776695296635
 10
44.17425464232065
 20
43.72798051362859
 10
44.149986346899006
 20
43.73158037519583
 10
44.12618775808942
 20
43.73754161136358
 10
44.10308806931177
 20
43.745806812168816
 10
44.080909743196536
 20
43.756296379209545
 10
44.05986636914814
 20
43.768909292221
 10
44.04016060636213
 20
43.78352408195595
 10
44.0219822321064
 20
43.8
 10
43.12908901329295
 20
43.8
 10
43.11091063903722
 20
43.78352408195595
 10
43.09120487625121
 20
43.768909292221
 10
43.07016150220281
 20
43.756296379209545
 10
43.047983176087584
 20
43.745806812168816
 10
43.02488348730993
 20
43.73754161136358
 10
43.001084898500345
 20
43.73158037519583
 10
42.9768166030787
 20
43.72798051362859
 10
42.95231231799631
 20
43.726776695296635
 10
42.92780803291392
 20
43.72798051362859
 10
42.90353973749228
 20
43.73158037519583
 10
42.8797411486827
 20
43.73754161136358
 10
42.85664145990504
 20
43.745806812168816
 10
42.83446313378981
 20
43.756296379209545
 10
42.813419759741414
 20
43.768909292221
 10
42.793713996955404
 20
43.78352408195595
 10
42.77553562269968
 20
43.8
 10
42.75905970465563
 20
43.81817837425572
 10
42.74444491492068
 20
43.83788413704173
 10
42.731832001909225
 20
43.85892751109014
 10
42.72134243486849
 20
43.88110583720536
 10
42.713077234063256
 20
43.90420552598302
 10
42.70711599789551
 20
43.92800411479261
 10
42.70351613632826
 20
43.95227241021425
 10
42.70231231799631
 20
43.976776695296635
 10
42.70351613632826
 20
44.00128098037903
 10
42.70711599789551
 20
44.02554927580067
 10
42.713077234063256
 20
44.049347864610255
 10
42.72134243486849
 20
44.07244755338791
 10
42.731832001909225
 20
44.094625879503134
 10
42.74444491492068
 20
44.11566925355154
 10
42.75905970465563
 20
44.13537501633755
 10
42.77553562269968
 20
44.153553390593274
 10
42.77553562269968
 20
47.8
 10
41.975535622699674
 20
47.8
 10
41.917709362950895
 20
47.80335513323556
 10
41.860659162425996
 20
47.81337550526614
 10
41.80515066522049
 20
47.82992663735879
 10
41.751928824949694
 20
47.852786404500044
 10
41.701707907074216
 20
47.881648016431924
 10
41.65516190307679
 20
47.91612413494074
 10
41.61291548513739
 20
47.95575207214231
 10
41.575535622699675
 20
48.0
 10
45.575535622699675
 20
48.0
  0
LWPOLYLINE
  5
3B
330
17
100
AcDbEntity
  8
BRACKET_OUTLINE
100
AcDbPolyline
 90
87
 70
1
 10
41.575535622699675
 20
0.0
 10
41.61291548513739
 20
0.04424792785768972
 10
41.655161903076795
 20
0.08387586505926237
 10
41.701707907074216
 20
0.11835198356807552
 10
41.751928824949694
 20
0.14721359549995583
 10
41.80515066522049
 20
0.17007336264121165
 10
41.860659162425996
 20
0.1866244947338629
 10
41.917709362950895
 20
0.19664486676443715
 10
41.975535622699674
 20
0.20000000000000284
 10
42.77553562269968
 20
0.20000000000000284
 10
42.77553562269968
 20
3.8464466094067262
 10
42.75905970465563
 20
3.864624983662452
 10
42.74444491492068
 20
3.8843307464484624
 10
42.731832001909225
 20
3.905374120496866
 10
42.72134243486849
 20
3.92755244661209
 10
42.713077234063256
 20
3.9506521353897455
 10
42.70711599789551
 20
3.974450724199329
 10
42.70351613632826
 20
3.998719019620971
 10
42.70231231799631
 20
4.0232233047033645
 10
42.70351613632826
 20
4.047727589785751
 10
42.70711599789551
 20
4.071995885207393
 10
42.713077234063256
 20
4.0957944740169765
 10
42.72134243486849
 20
4.118894162794639
 10
42.731832001909225
 20
4.141072488909863
 10
42.74444491492068
 20
4.162115862958267
 10
42.75905970465563
 20
4.181821625744277
 10
42.77553562269968
 20
4.200000000000003
 10
42.793713996955404
 20
4.216475918044047
 10
42.813419759741414
 20
4.231090707779003
 10
42.83446313378981
 20
4.2437036207904555
 10
42.85664145990504
 20
4.254193187831184
 10
42.8797411486827
 20
4.262458388636418
 10
42.90353973749228
 20
4.268419624804167
 10
42.92780803291392
 20
4.272019486371413
 10
42.95231231799631
 20
4.2732233047033645
 10
42.9768166030787
 20
4.272019486371413
 10
43.001084898500345
 20
4.268419624804167
 10
43.02488348730993
 20
4.262458388636418
 10
43.047983176087584
 20
4.254193187831184
 10
43.07016150220281
 20
4.2437036207904555
 10
43.09120487625121
 20
4.231090707779003
 10
43.11091063903722
 20
4.216475918044047
 10
43.12908901329295
 20
4.200000000000003
 10
44.0219822321064
 20
4.200000000000003
 10
44.04016060636213
 20
4.216475918044047
 10
44.05986636914814
 20
4.231090707779003
 10
44.080909743196536
 20
4.2437036207904555
 10
44.10308806931177
 20
4.254193187831184
 10
44.12618775808942
 20
4.262458388636418
 10
44.149986346899006
 20
4.268419624804167
 10
44.17425464232065
 20
4.272019486371413
 10
44.19875892740304
 20
4.2732233047033645
 10
44.22326321248543
 20
4.272019486371413
 10
44.24753150790707
 20
4.268419624804167
 10
44.27133009671665
 20
4.262458388636418
 10
44.29442978549431
 20
4.254193187831184
 10
44.31660811160954
 20
4.2437036207904555
 10
44.337651485657936
 20
4.231090707779003
 10
44.35735724844395
 20
4.216475918044047
 10
44.37553562269967
 20
4.200000000000003
 10
44.392011540743724
 20
4.181821625744277
 10
44.40662633047867
 20
4.162115862958267
 10
44.419239243490125
 20
4.141072488909863
 10
44.42972881053086
 20
4.118894162794639
 10
44.43799401133609
 20
4.0957944740169765
 10
44.443955247503844
 20
4.071995885207393
 10
44.44755510907109
 20
4.047727589785751
 10
44.44875892740304
 20
4.0232233047033645
 10
44.44755510907109
 20
3.998719019620971
 10
44.443955247503844
 20
3.974450724199329
 10
44.43799401133609
 20
3.9506521353897455
 10
44.42972881053086
 20
3.92755244661209
 10
44.419239243490125
 20
3.905374120496866
 10
44.40662633047867
 20
3.8843307464484624
 10
44.392011540743724
 20
3.864624983662452
 10
44.37553562269967
 20
3.8464466094067262
 10
44.37553562269967
 20
0.20000000000000284
 10
45.17553562269968
 20
0.20000000000000284
 10
45.233361882448456
 20
0.19664486676443715
 10
45.290412082973354
 20
0.1866244947338629
 10
45.34592058017886
 20
0.17007336264121165
 10
45.39914242044966
 20
0.14721359549995583
 10
45.449363338325135
 20
0.11835198356807552
 10
45.49590934232256
 20
0.08387586505926237
 10
45.53815576026196
 20
0.04424792785768972
 10
45.575535622699675
 20
0.0
 10
41.575535622699675
 20
0.0
  0
LWPOLYLINE
  5
3C
330
17
100
AcDbEntity
  8
BRACKET_CUTS
100
AcDbPolyline
 90
2
 70
0
 10
42.17553562269968
 20
40.025
 10
42.17553562269968
 20
41.625
  0
LWPOLYLINE
  5
3D
330
17
100
AcDbEntity
  8
BRACKET_CUTS
100
AcDbPolyline
 90
2
 70
0
 10
42.17553562269968
 20
24.4
 10
42.17553562269968
 20
26.0
  0
LWPOLYLINE
  5
3E
330
17
100
AcDbEntity
  8
BRACKET_CUTS
100
AcDbPolyline
 90
2
 70
0
 10
42.17553562269968
 20
8.150000000000006
 10
42.17553562269968
 20
9.75
  0
LWPOLYLINE
  5
3F
330
17
100
AcDbEntity
  8
BRACKET_CUTS
100
AcDbPolyline
 90
2
 70
0
 10
53.975535622699674
 20
47.8
 10
55.57553562269967
 20
47.8
  0
LWPOLYLINE
  5
40
330
17
100
AcDbEntity
  8
BRACKET_CUTS
100
AcDbPolyline
 90
2
 70
0
 10
55.57553562269967
 20
0.20000000000000284
 10
53.975535622699674
 20
0.20000000000000284
  0
LWPOLYLINE
  5
41
330
17
100
AcDbEntity
  8
BRACKET_CUTS
100
AcDbPolyline
 90
2
 70
0
 10
42.77553562269968
 20
47.8
 10
44.37553562269967
 20
47.8
  0
LWPOLYLINE
  5
42
330
17
100
AcDbEntity
  8
BRACKET_CUTS
100
AcDbPolyline
 90
2
 70
0
 10
44.37553562269967
 20
0.20000000000000284
 10
42.77553562269968
 20
0.20000000000000284
  0
LWPOLYLINE
  5
43
330
17
100
AcDbEntity
  8
SHELF_OUTLINE
100
AcDbPolyline
 90
120
 70
1
 10
41.13063862907313
 20
0.0
 10
41.13063862907313
 20
48.0
 10
36.88063862907313
 20
48.0
 10
36.88063862907313
 20
46.0
 10
36.8560153102634
 20
45.68713106991954
 10
36.78275166166344
 20
45.38196601125011
 10
36.66265167744986
 20
45.09201900052091
 10
36.49867261782302
 20
44.82442949541505
 10
36.294852191446225
 20
44.58578643762691
 10
36.05620913365807
 20
44.38196601125011
 10
35.788619628552226
 20
44.21798695162327
 10
35.49867261782302
 20
44.09788696740969
 10
35.19350755915359
 20
44.024623318809724
 10
34.88063862907313
 20
44.0
 10
32.38063862907313
 20
44.0
 10
32.06776969899266
 20
44.024623318809724
 10
31.762604640323236
 20
44.09788696740969
 10
31.472657629594035
 20
44.21798695162327
 10
31.205068124488182
 20
44.38196601125011
 10
30.966425066700037
 20
44.58578643762691
 10
30.762604640323236
 20
44.82442949541505
 10
30.598625580696396
 20
45.09201900052091
 10
30.47852559648282
 20
45.38196601125011
 10
30.405261947882853
 20
45.68713106991954
 10
30.38063862907313
 20
46.0
 10
30.38063862907313
 20
48.0
 10
21.916359044291816
 20
48.0
 10
21.916359044291816
 20
39.880562387464494
 10
21.916359044291816
 20
39.880562387464494
 10
22.00404093769239
 20
39.765656317574695
 10
22.086086534859515
 20
39.64666035414181
 10
22.16230538499552
 20
39.52385072010695
 10
22.23252056281365
 20
39.39751249100824
 10
22.29656907923119
 20
39.267938933240686
 10
22.354302259712735
 20
39.135430823302784
 10
22.4055860893854
 20
39.000295749610075
 10
22.450301524124882
 20
38.86284739849632
 10
22.48834476689016
 20
38.723404826059735
 10
22.51962750866552
 20
38.58229171754445
 10
22.544077133450457
 20
38.439835635976465
 10
22.561636886821784
 20
38.29636726179815
 10
22.572266007676507
 20
38.15221962526641
 10
22.57593982284976
 20
38.00772733339622
 10
22.572649804388135
 20
37.863225793244034
 10
22.562403589345436
 20
37.7190504333342
 10
22.545224962054956
 20
37.57553592503541
 10
22.521153798919368
 20
37.43301540569476
 10
22.490245975846435
 20
37.291819705332735
 10
22.490245975846435
 20
37.291819705332735
 10
22.351530895681336
 20
36.73751048471425
 10
22.208172163367575
 20
36.18320126409576
 10
22.06318350181887
 20
35.62889204347727
 10
21.919612898726538
 20
35.07458282285878
 10
21.780478531004473
 20
34.520273602240295
 10
21.64870531592364
 20
33.96596438162181
 10
21.527063422773985
 20
33.41165516100332
 10
21.418110037676886
 20
32.85734594038483
 10
21.324135605782732
 20
32.30303671976634
 10
21.247115680963482
 20
31.748727499147854
 10
21.188669395227997
 20
31.194418278529366
 10
21.1500254209264
 20
30.640109057910877
 10
21.131996141294437
 20
30.08579983729239
 10
21.13496057233111
 20
29.5314906166739
 10
21.15885639503013
 20
28.977181396055414
 10
21.203181265465545
 20
28.422872175436925
 10
21.267003375190658
 20
27.868562954818437
 10
21.348981039946853
 20
27.31425373419995
 10
21.44739090488368
 20
26.75994451358146
 10
21.56016417335298
 20
26.205635292962974
 10
21.6849300976664
 20
25.651326072344485
 10
21.819065817542697
 20
25.097016851725996
 10
21.959751498528735
 20
24.54270763110751
 10
22.104029611260422
 20
23.98839841048902
 10
22.24886710538031
 20
23.434089189870534
 10
22.391219171076354
 20
22.879779969252045
 10
22.528093247830764
 20
22.325470748633556
 10
22.656611934771277
 20
21.771161528015067
 10
22.774073480107678
 20
21.21685230739658
 10
22.87800857802966
 20
20.662543086778093
 10
22.966232279067533
 20
20.108233866159605
 10
23.036889922643184
 20
19.553924645541116
 10
23.088496126205893
 20
18.999615424922627
 10
23.11996601131361
 20
18.44530620430414
 10
23.130638010217314
 20
17.890996983685653
 10
23.120287773502685
 20
17.336687763067165
 10
23.0891328864193
 20
16.782378542448676
 10
23.037828294749406
 20
16.228069321830187
 10
22.967452536374843
 20
15.673760101211698
 10
22.87948506798556
 20
15.119450880593213
 10
22.77577516357321
 20
14.565141659974728
 10
22.65850303853355
 20
14.010832439356236
 10
22.530134016636303
 20
13.456523218737743
 10
22.393366703375932
 20
12.902213998119258
 10
22.251076255215995
 20
12.347904777500773
 10
22.106253937335108
 20
11.79359555688228
 10
21.961944240506654
 20
11.239286336263795
 10
21.821180879056808
 20
10.68497711564531
 10
21.686923015367686
 20
10.130667895026818
 10
21.686923015367686
 20
10.130667895026818
 10
21.666165217175166
 20
10.047547956454025
 10
21.64304242232372
 20
9.965054643195295
 10
21.61757348824997
 20
9.883255231392447
 10
21.589779185747968
 20
9.802216431286737
 10
21.55968218202992
 20
9.722004332814365
 10
21.527307022240283
 20
9.642684351707835
 10
21.49268010943836
 20
9.56432117614716
 10
21.455829683065684
 20
9.486978714004444
 10
21.416785795915782
 20
9.410720040724797
 10
21.3755802896251
 20
9.335607347886146
 10
21.332246768705023
 20
9.261701892479834
 10
21.28682057313627
 20
9.18906394695344
 10
21.239338749547894
 20
9.117752750056553
 10
21.189840021004485
 20
9.047826458529457
 10
21.138364755426192
 20
8.979342099674398
 10
21.084954932667262
 20
8.912355524847754
 10
21.029654110280052
 20
8.846921363911406
 10
20.97250738799233
 20
8.78309298068016
 10
20.91356137092687
 20
8.720922429401725
 10
20.91356137092687
 20
0.0
 10
41.13063862907313
 20
0.0
  0
LWPOLYLINE
  5
44
330
17
100
AcDbEntity
  8
BRACKET_OUTLINE
100
AcDbPolyline
 90
87
 70
1
 10
41.13063862907313
 20
5.174999999999997
 10
41.086390701215436
 20
5.212379862437722
 10
41.04676276401386
 20
5.254626280377117
 10
41.01228664550506
 20
5.301172284374545
 10
40.98342503357317
 20
5.351393202250023
 10
40.960565266431914
 20
5.404615042520817
 10
40.94401413433927
 20
5.460123539726318
 10
40.93399376230869
 20
5.517173740251216
 10
40.93063862907313
 20
5.575000000000003
 10
40.93063862907313
 20
6.375
 10
31.284192019666403
 20
6.375
 10
31.266013645410677
 20
6.358524081955949
 10
31.246307882624667
 20
6.343909292220999
 10
31.225264508576263
 20
6.331296379209547
 10
31.20308618246104
 20
6.3208068121688115
 10
31.179986493683383
 20
6.312541611363585
 10
31.1561879048738
 20
6.3065803751958285
 10
31.131919609452158
 20
6.302980513628583
 10
31.107415324369764
 20
6.301776695296638
 10
31.082911039287378
 20
6.302980513628583
 10
31.058642743865736
 20
6.3065803751958285
 10
31.034844155056152
 20
6.312541611363585
 10
31.011744466278497
 20
6.3208068121688115
 10
30.989566140163266
 20
6.331296379209547
 10
30.96852276611487
 20
6.343909292220999
 10
30.948817003328852
 20
6.358524081955949
 10
30.930638629073126
 20
6.375
 10
30.914162711029082
 20
6.393178374255726
 10
30.899547921294126
 20
6.412884137041736
 10
30.886935008282673
 20
6.433927511090133
 10
30.876445441241945
 20
6.456105837205364
 10
30.86818024043671
 20
6.479205525983019
 10
30.86221900426896
 20
6.503004114792603
 10
30.858619142701716
 20
6.527272410214245
 10
30.857415324369764
 20
6.551776695296638
 10
30.858619142701716
 20
6.576280980379025
 10
30.86221900426896
 20
6.600549275800667
 10
30.86818024043671
 20
6.62434786461025
 10
30.876445441241945
 20
6.647447553387906
 10
30.886935008282673
 20
6.669625879503137
 10
30.899547921294126
 20
6.690669253551533
 10
30.914162711029082
 20
6.710375016337544
 10
30.930638629073126
 20
6.7285533905932695
 10
30.930638629073126
 20
7.621446609406725
 10
30.914162711029082
 20
7.639624983662451
 10
30.899547921294126
 20
7.659330746448461
 10
30.886935008282673
 20
7.6803741204968645
 10
30.876445441241945
 20
7.7025524466120885
 10
30.86818024043671
 20
7.725652135389744
 10
30.86221900426896
 20
7.749450724199328
 10
30.858619142701716
 20
7.77371901962097
 10
30.857415324369764
 20
7.798223304703363
 10
30.858619142701716
 20
7.82272758978575
 10
30.86221900426896
 20
7.8469958852073916
 10
30.86818024043671
 20
7.870794474016975
 10
30.876445441241945
 20
7.893894162794638
 10
30.886935008282673
 20
7.916072488909862
 10
30.899547921294126
 20
7.937115862958265
 10
30.914162711029082
 20
7.956821625744276
 10
30.930638629073126
 20
7.975000000000001
 10
30.948817003328852
 20
7.991475918044046
 10
30.96852276611487
 20
8.006090707778995
 10
30.989566140163266
 20
8.018703620790447
 10
31.011744466278497
 20
8.029193187831183
 10
31.034844155056152
 20
8.037458388636416
 10
31.058642743865736
 20
8.043419624804173
 10
31.082911039287378
 20
8.047019486371411
 10
31.107415324369764
 20
8.048223304703363
 10
31.131919609452158
 20
8.047019486371411
 10
31.1561879048738
 20
8.043419624804173
 10
31.179986493683383
 20
8.037458388636416
 10
31.20308618246104
 20
8.029193187831183
 10
31.225264508576263
 20
8.018703620790447
 10
31.246307882624667
 20
8.006090707778995
 10
31.266013645410677
 20
7.991475918044046
 10
31.284192019666403
 20
7.975000000000001
 10
40.93063862907313
 20
7.975000000000001
 10
40.93063862907313
 20
8.774999999999999
 10
40.93399376230869
 20
8.832826259748785
 10
40.94401413433927
 20
8.889876460273683
 10
40.960565266431914
 20
8.945384957479185
 10
40.98342503357317
 20
8.998606797749979
 10
41.01228664550506
 20
9.048827715625457
 10
41.04676276401386
 20
9.095373719622884
 10
41.086390701215436
 20
9.13762013756228
 10
41.13063862907313
 20
9.174999999999997
 10
41.13063862907313
 20
5.174999999999997
  0
LWPOLYLINE
  5
45
330
17
100
AcDbEntity
  8
BRACKET_OUTLINE
100
AcDbPolyline
 90
87
 70
1
 10
41.13063862907313
 20
20.8
 10
41.086390701215436
 20
20.83737986243772
 10
41.04676276401386
 20
20.879626280377117
 10
41.01228664550506
 20
20.926172284374545
 10
40.98342503357317
 20
20.976393202250023
 10
40.960565266431914
 20
21.029615042520813
 10
40.94401413433927
 20
21.085123539726318
 10
40.93399376230869
 20
21.142173740251216
 10
40.93063862907313
 20
21.2
 10
40.93063862907313
 20
22.0
 10
31.284192019666403
 20
22.0
 10
31.266013645410677
 20
21.983524081955952
 10
31.246307882624667
 20
21.968909292221
 10
31.225264508576263
 20
21.956296379209547
 10
31.20308618246104
 20
21.945806812168815
 10
31.179986493683383
 20
21.937541611363585
 10
31.1561879048738
 20
21.93158037519583
 10
31.131919609452158
 20
21.927980513628587
 10
31.107415324369764
 20
21.926776695296635
 10
31.082911039287378
 20
21.927980513628587
 10
31.058642743865736
 20
21.93158037519583
 10
31.034844155056152
 20
21.937541611363585
 10
31.011744466278497
 20
21.945806812168815
 10
30.989566140163266
 20
21.956296379209547
 10
30.96852276611487
 20
21.968909292221
 10
30.948817003328852
 20
21.983524081955952
 10
30.930638629073126
 20
22.0
 10
30.914162711029082
 20
22.018178374255726
 10
30.899547921294126
 20
22.037884137041736
 10
30.886935008282673
 20
22.058927511090136
 10
30.876445441241945
 20
22.081105837205364
 10
30.86818024043671
 20
22.10420552598302
 10
30.86221900426896
 20
22.128004114792603
 10
30.858619142701716
 20
22.152272410214245
 10
30.857415324369764
 20
22.176776695296635
 10
30.858619142701716
 20
22.201280980379025
 10
30.86221900426896
 20
22.225549275800667
 10
30.86818024043671
 20
22.24934786461025
 10
30.876445441241945
 20
22.27244755338791
 10
30.886935008282673
 20
22.294625879503137
 10
30.899547921294126
 20
22.315669253551537
 10
30.914162711029082
 20
22.335375016337547
 10
30.930638629073126
 20
22.353553390593273
 10
30.930638629073126
 20
23.246446609406725
 10
30.914162711029082
 20
23.26462498366245
 10
30.899547921294126
 20
23.28433074644846
 10
30.886935008282673
 20
23.305374120496865
 10
30.876445441241945
 20
23.32755244661209
 10
30.86818024043671
 20
23.350652135389748
 10
30.86221900426896
 20
23.37445072419933
 10
30.858619142701716
 20
23.398719019620973
 10
30.857415324369764
 20
23.423223304703363
 10
30.858619142701716
 20
23.447727589785753
 10
30.86221900426896
 20
23.471995885207395
 10
30.86818024043671
 20
23.49579447401698
 10
30.876445441241945
 20
23.518894162794634
 10
30.886935008282673
 20
23.54107248890986
 10
30.899547921294126
 20
23.56211586295826
 10
30.914162711029082
 20
23.581821625744276
 10
30.930638629073126
 20
23.599999999999998
 10
30.948817003328852
 20
23.616475918044046
 10
30.96852276611487
 20
23.631090707779
 10
30.989566140163266
 20
23.64370362079045
 10
31.011744466278497
 20
23.654193187831183
 10
31.034844155056152
 20
23.662458388636416
 10
31.058642743865736
 20
23.66841962480417
 10
31.082911039287378
 20
23.67201948637141
 10
31.107415324369764
 20
23.673223304703363
 10
31.131919609452158
 20
23.67201948637141
 10
31.1561879048738
 20
23.66841962480417
 10
31.179986493683383
 20
23.662458388636416
 10
31.20308618246104
 20
23.654193187831183
 10
31.225264508576263
 20
23.64370362079045
 10
31.246307882624667
 20
23.631090707779
 10
31.266013645410677
 20
23.616475918044046
 10
31.284192019666403
 20
23.599999999999998
 10
40.93063862907313
 20
23.6
 10
40.93063862907313
 20
24.400000000000002
 10
40.93399376230869
 20
24.457826259748785
 10
40.94401413433927
 20
24.51487646027368
 10
40.960565266431914
 20
24.570384957479188
 10
40.98342503357317
 20
24.62360679774998
 10
41.01228664550506
 20
24.673827715625457
 10
41.04676276401386
 20
24.720373719622884
 10
41.086390701215436
 20
24.76262013756228
 10
41.13063862907313
 20
24.8
 10
41.13063862907313
 20
20.8
  0
LWPOLYLINE
  5
46
330
17
100
AcDbEntity
  8
BRACKET_OUTLINE
100
AcDbPolyline
 90
87
 70
1
 10
41.13063862907313
 20
37.05
 10
41.086390701215436
 20
37.087379862437714
 10
41.04676276401386
 20
37.12962628037711
 10
41.01228664550506
 20
37.17617228437454
 10
40.98342503357317
 20
37.226393202250016
 10
40.960565266431914
 20
37.27961504252081
 10
40.94401413433927
 20
37.33512353972632
 10
40.93399376230869
 20
37.392173740251216
 10
40.93063862907313
 20
37.449999999999996
 10
40.93063862907313
 20
38.25
 10
31.284192019666403
 20
38.24999999999999
 10
31.266013645410677
 20
38.23352408195595
 10
31.246307882624667
 20
38.218909292221
 10
31.225264508576263
 20
38.20629637920955
 10
31.20308618246104
 20
38.19580681216881
 10
31.179986493683383
 20
38.18754161136358
 10
31.1561879048738
 20
38.18158037519583
 10
31.131919609452158
 20
38.17798051362858
 10
31.107415324369764
 20
38.17677669529663
 10
31.082911039287378
 20
38.17798051362858
 10
31.058642743865736
 20
38.18158037519583
 10
31.034844155056152
 20
38.18754161136358
 10
31.011744466278497
 20
38.19580681216881
 10
30.989566140163266
 20
38.20629637920955
 10
30.96852276611487
 20
38.218909292221
 10
30.948817003328852
 20
38.23352408195595
 10
30.930638629073126
 20
38.24999999999999
 10
30.914162711029082
 20
38.26817837425572
 10
30.899547921294126
 20
38.28788413704173
 10
30.886935008282673
 20
38.30892751109013
 10
30.876445441241945
 20
38.331105837205364
 10
30.86818024043671
 20
38.35420552598302
 10
30.86221900426896
 20
38.3780041147926
 10
30.858619142701716
 20
38.402272410214245
 10
30.857415324369764
 20
38.42677669529663
 10
30.858619142701716
 20
38.451280980379025
 10
30.86221900426896
 20
38.47554927580067
 10
30.86818024043671
 20
38.49934786461025
 10
30.876445441241945
 20
38.522447553387906
 10
30.886935008282673
 20
38.54462587950313
 10
30.899547921294126
 20
38.56566925355153
 10
30.914162711029082
 20
38.585375016337544
 10
30.930638629073126
 20
38.60355339059327
 10
30.930638629073126
 20
39.496446609406725
 10
30.914162711029082
 20
39.51462498366245
 10
30.899547921294126
 20
39.53433074644846
 10
30.886935008282673
 20
39.55537412049686
 10
30.876445441241945
 20
39.57755244661209
 10
30.86818024043671
 20
39.600652135389744
 10
30.86221900426896
 20
39.62445072419933
 10
30.858619142701716
 20
39.64871901962097
 10
30.857415324369764
 20
39.673223304703356
 10
30.858619142701716
 20
39.69772758978575
 10
30.86221900426896
 20
39.72199588520739
 10
30.86818024043671
 20
39.745794474016975
 10
30.876445441241945
 20
39.76889416279463
 10
30.886935008282673
 20
39.79107248890986
 10
30.899547921294126
 20
39.81211586295826
 10
30.914162711029082
 20
39.83182162574427
 10
30.930638629073126
 20
39.849999999999994
 10
30.948817003328852
 20
39.866475918044046
 10
30.96852276611487
 20
39.881090707778995
 10
30.989566140163266
 20
39.89370362079045
 10
31.011744466278497
 20
39.90419318783118
 10
31.034844155056152
 20
39.91245838863641
 10
31.058642743865736
 20
39.918419624804166
 10
31.082911039287378
 20
39.92201948637141
 10
31.107415324369764
 20
39.923223304703356
 10
31.131919609452158
 20
39.92201948637141
 10
31.1561879048738
 20
39.918419624804166
 10
31.179986493683383
 20
39.91245838863641
 10
31.20308618246104
 20
39.90419318783118
 10
31.225264508576263
 20
39.89370362079045
 10
31.246307882624667
 20
39.881090707778995
 10
31.266013645410677
 20
39.866475918044046
 10
31.284192019666403
 20
39.849999999999994
 10
40.93063862907313
 20
39.849999999999994
 10
40.93063862907313
 20
40.65
 10
40.93399376230869
 20
40.70782625974878
 10
40.94401413433927
 20
40.764876460273676
 10
40.960565266431914
 20
40.820384957479185
 10
40.98342503357317
 20
40.87360679774998
 10
41.01228664550506
 20
40.92382771562546
 10
41.04676276401386
 20
40.970373719622884
 10
41.086390701215436
 20
41.01262013756228
 10
41.13063862907313
 20
41.05
 10
41.13063862907313
 20
37.05
  0
LWPOLYLINE
  5
47
330
17
100
AcDbEntity
  8
BRACKET_OUTLINE
100
AcDbPolyline
 90
87
 70
1
 10
26.330638629073132
 20
0.0
 10
26.36801849151085
 20
0.04424792785768972
 10
26.410264909450245
 20
0.08387586505926237
 10
26.456810913447672
 20
0.11835198356807552
 10
26.50703183132315
 20
0.14721359549995583
 10
26.560253671593944
 20
0.17007336264121165
 10
26.615762168799453
 20
0.1866244947338629
 10
26.67281236932435
 20
0.19664486676443715
 10
26.73063862907313
 20
0.20000000000000284
 10
27.530638629073135
 20
0.20000000000000284
 10
27.530638629073135
 20
9.846446609406726
 10
27.514162711029083
 20
9.864624983662452
 10
27.499547921294134
 20
9.884330746448462
 10
27.486935008282682
 20
9.905374120496866
 10
27.476445441241946
 20
9.92755244661209
 10
27.46818024043672
 20
9.950652135389745
 10
27.462219004268963
 20
9.974450724199329
 10
27.458619142701718
 20
9.998719019620971
 10
27.457415324369766
 20
10.023223304703365
 10
27.458619142701718
 20
10.047727589785751
 10
27.462219004268963
 20
10.071995885207393
 10
27.46818024043672
 20
10.095794474016976
 10
27.476445441241946
 20
10.118894162794632
 10
27.486935008282682
 20
10.141072488909863
 10
27.499547921294134
 20
10.16211586295826
 10
27.514162711029083
 20
10.181821625744277
 10
27.530638629073135
 20
10.200000000000003
 10
27.54881700332886
 20
10.216475918044047
 10
27.56852276611487
 20
10.231090707779003
 10
27.589566140163267
 20
10.243703620790455
 10
27.6117444662785
 20
10.254193187831184
 10
27.634844155056154
 20
10.262458388636418
 10
27.658642743865737
 20
10.268419624804167
 10
27.68291103928738
 20
10.272019486371413
 10
27.707415324369766
 20
10.273223304703365
 10
27.73191960945216
 20
10.272019486371413
 10
27.7561879048738
 20
10.268419624804167
 10
27.779986493683385
 20
10.262458388636418
 10
27.80308618246104
 20
10.254193187831184
 10
27.82526450857627
 20
10.243703620790455
 10
27.846307882624668
 20
10.231090707779003
 10
27.86601364541068
 20
10.216475918044047
 10
27.884192019666404
 20
10.200000000000003
 10
28.77708523847986
 20
10.200000000000003
 10
28.795263612735585
 20
10.216475918044047
 10
28.814969375521596
 20
10.231090707779003
 10
28.83601274957
 20
10.243703620790455
 10
28.858191075685223
 20
10.254193187831184
 10
28.88129076446288
 20
10.262458388636418
 10
28.905089353272462
 20
10.268419624804167
 10
28.929357648694104
 20
10.272019486371413
 10
28.953861933776498
 20
10.273223304703365
 10
28.978366218858884
 20
10.272019486371413
 10
29.002634514280526
 20
10.268419624804167
 10
29.02643310309011
 20
10.262458388636418
 10
29.049532791867765
 20
10.254193187831184
 10
29.071711117982996
 20
10.243703620790455
 10
29.092754492031393
 20
10.231090707779003
 10
29.11246025481741
 20
10.216475918044047
 10
29.13063862907313
 20
10.200000000000003
 10
29.14711454711718
 20
10.181821625744277
 10
29.16172933685213
 20
10.16211586295826
 10
29.17434224986358
 20
10.141072488909863
 10
29.184831816904317
 20
10.118894162794632
 10
29.19309701770955
 20
10.095794474016976
 10
29.1990582538773
 20
10.071995885207393
 10
29.202658115444546
 20
10.047727589785751
 10
29.203861933776498
 20
10.023223304703365
 10
29.202658115444546
 20
9.998719019620971
 10
29.1990582538773
 20
9.974450724199329
 10
29.19309701770955
 20
9.950652135389745
 10
29.184831816904317
 20
9.92755244661209
 10
29.17434224986358
 20
9.905374120496866
 10
29.16172933685213
 20
9.884330746448462
 10
29.14711454711718
 20
9.864624983662452
 10
29.13063862907313
 20
9.846446609406726
 10
29.13063862907313
 20
0.20000000000000284
 10
29.930638629073133
 20
0.20000000000000284
 10
29.988464888821913
 20
0.19664486676443715
 10
30.04551508934681
 20
0.1866244947338629
 10
30.10102358655232
 20
0.17007336264121165
 10
30.154245426823113
 20
0.14721359549995583
 10
30.20446634469859
 20
0.11835198356807552
 10
30.25101234869602
 20
0.08387586505926237
 10
30.293258766635415
 20
0.04424792785768972
 10
30.330638629073132
 20
0.0
 10
26.330638629073132
 20
0.0
  0
LWPOLYLINE
  5
48
330
17
100
AcDbEntity
  8
BRACKET_OUTLINE
100
AcDbPolyline
 90
87
 70
1
 10
30.330638629073132
 20
48.0
 10
30.293258766635415
 20
47.95575207214231
 10
30.25101234869602
 20
47.91612413494074
 10
30.20446634469859
 20
47.881648016431924
 10
30.154245426823113
 20
47.852786404500044
 10
30.10102358655232
 20
47.82992663735879
 10
30.04551508934681
 20
47.81337550526614
 10
29.988464888821913
 20
47.80335513323556
 10
29.930638629073133
 20
47.8
 10
29.13063862907313
 20
47.8
 10
29.130638629073136
 20
38.153553390593274
 10
29.14711454711718
 20
38.13537501633755
 10
29.16172933685213
 20
38.11566925355154
 10
29.17434224986358
 20
38.094625879503134
 10
29.184831816904317
 20
38.07244755338791
 10
29.19309701770955
 20
38.049347864610255
 10
29.1990582538773
 20
38.02554927580067
 10
29.202658115444546
 20
38.00128098037903
 10
29.203861933776498
 20
37.976776695296635
 10
29.202658115444546
 20
37.95227241021425
 10
29.1990582538773
 20
37.92800411479261
 10
29.19309701770955
 20
37.90420552598302
 10
29.184831816904317
 20
37.88110583720537
 10
29.17434224986358
 20
37.85892751109014
 10
29.16172933685213
 20
37.83788413704174
 10
29.14711454711718
 20
37.81817837425572
 10
29.130638629073136
 20
37.8
 10
29.11246025481741
 20
37.78352408195595
 10
29.0927544920314
 20
37.768909292221
 10
29.071711117982996
 20
37.756296379209545
 10
29.049532791867765
 20
37.745806812168816
 10
29.02643310309011
 20
37.73754161136358
 10
29.002634514280526
 20
37.73158037519583
 10
28.978366218858884
 20
37.72798051362859
 10
28.953861933776498
 20
37.726776695296635
 10
28.929357648694104
 20
37.72798051362859
 10
28.905089353272462
 20
37.73158037519583
 10
28.88129076446288
 20
37.73754161136358
 10
28.858191075685223
 20
37.745806812168816
 10
28.83601274957
 20
37.756296379209545
 10
28.814969375521596
 20
37.768909292221
 10
28.795263612735585
 20
37.78352408195595
 10
28.77708523847986
 20
37.8
 10
27.884192019666404
 20
37.8
 10
27.86601364541068
 20
37.78352408195595
 10
27.846307882624668
 20
37.768909292221
 10
27.82526450857627
 20
37.756296379209545
 10
27.80308618246104
 20
37.745806812168816
 10
27.779986493683385
 20
37.73754161136358
 10
27.7561879048738
 20
37.73158037519583
 10
27.73191960945216
 20
37.72798051362859
 10
27.707415324369766
 20
37.726776695296635
 10
27.68291103928738
 20
37.72798051362859
 10
27.658642743865737
 20
37.73158037519583
 10
27.634844155056154
 20
37.73754161136358
 10
27.6117444662785
 20
37.745806812168816
 10
27.589566140163267
 20
37.756296379209545
 10
27.56852276611487
 20
37.768909292221
 10
27.54881700332886
 20
37.78352408195595
 10
27.530638629073135
 20
37.8
 10
27.514162711029083
 20
37.81817837425572
 10
27.499547921294134
 20
37.83788413704174
 10
27.486935008282682
 20
37.85892751109014
 10
27.476445441241946
 20
37.88110583720537
 10
27.46818024043672
 20
37.90420552598302
 10
27.462219004268963
 20
37.92800411479261
 10
27.458619142701718
 20
37.95227241021425
 10
27.457415324369766
 20
37.976776695296635
 10
27.458619142701718
 20
38.00128098037903
 10
27.462219004268963
 20
38.02554927580067
 10
27.46818024043672
 20
38.049347864610255
 10
27.476445441241946
 20
38.07244755338791
 10
27.486935008282682
 20
38.094625879503134
 10
27.499547921294134
 20
38.11566925355154
 10
27.514162711029083
 20
38.13537501633755
 10
27.530638629073135
 20
38.153553390593274
 10
27.530638629073135
 20
47.8
 10
26.73063862907313
 20
47.8
 10
26.67281236932435
 20
47.80335513323556
 10
26.615762168799453
 20
47.81337550526614
 10
26.560253671593944
 20
47.82992663735879
 10
26.50703183132315
 20
47.852786404500044
 10
26.456810913447672
 20
47.881648016431924
 10
26.410264909450245
 20
47.91612413494074
 10
26.36801849151085
 20
47.95575207214231
 10
26.330638629073132
 20
48.0
 10
30.330638629073132
 20
48.0
  0
LWPOLYLINE
  5
49
330
17
100
AcDbEntity
  8
BRACKET_OUTLINE
100
AcDbPolyline
 90
87
 70
1
 10
37.530638629073124
 20
0.0
 10
37.56801849151084
 20
0.04424792785768972
 10
37.61026490945025
 20
0.08387586505926237
 10
37.65681091344767
 20
0.11835198356807552
 10
37.70703183132315
 20
0.14721359549995583
 10
37.760253671593944
 20
0.17007336264121165
 10
37.81576216879945
 20
0.1866244947338629
 10
37.87281236932435
 20
0.19664486676443715
 10
37.93063862907313
 20
0.20000000000000284
 10
38.73063862907313
 20
0.20000000000000284
 10
38.73063862907313
 20
3.8464466094067262
 10
38.714162711029076
 20
3.864624983662452
 10
38.699547921294126
 20
3.8843307464484624
 10
38.686935008282674
 20
3.905374120496866
 10
38.67644544124194
 20
3.92755244661209
 10
38.66818024043671
 20
3.9506521353897455
 10
38.66221900426896
 20
3.974450724199329
 10
38.65861914270171
 20
3.998719019620971
 10
38.657415324369765
 20
4.0232233047033645
 10
38.65861914270171
 20
4.047727589785751
 10
38.66221900426896
 20
4.071995885207393
 10
38.66818024043671
 20
4.0957944740169765
 10
38.67644544124194
 20
4.118894162794639
 10
38.686935008282674
 20
4.141072488909863
 10
38.699547921294126
 20
4.162115862958267
 10
38.714162711029076
 20
4.181821625744277
 10
38.73063862907313
 20
4.200000000000003
 10
38.74881700332885
 20
4.216475918044047
 10
38.76852276611487
 20
4.231090707779003
 10
38.78956614016326
 20
4.2437036207904555
 10
38.8117444662785
 20
4.254193187831184
 10
38.834844155056146
 20
4.262458388636418
 10
38.85864274386573
 20
4.268419624804167
 10
38.88291103928738
 20
4.272019486371413
 10
38.907415324369765
 20
4.2732233047033645
 10
38.93191960945215
 20
4.272019486371413
 10
38.9561879048738
 20
4.268419624804167
 10
38.979986493683384
 20
4.262458388636418
 10
39.00308618246103
 20
4.254193187831184
 10
39.02526450857627
 20
4.2437036207904555
 10
39.04630788262466
 20
4.231090707779003
 10
39.06601364541068
 20
4.216475918044047
 10
39.0841920196664
 20
4.200000000000003
 10
39.97708523847986
 20
4.200000000000003
 10
39.995263612735585
 20
4.216475918044047
 10
40.01496937552159
 20
4.231090707779003
 10
40.03601274956999
 20
4.2437036207904555
 10
40.058191075685215
 20
4.254193187831184
 10
40.08129076446288
 20
4.262458388636418
 10
40.10508935327246
 20
4.268419624804167
 10
40.129357648694096
 20
4.272019486371413
 10
40.1538619337765
 20
4.2732233047033645
 10
40.17836621885888
 20
4.272019486371413
 10
40.20263451428052
 20
4.268419624804167
 10
40.2264331030901
 20
4.262458388636418
 10
40.249532791867765
 20
4.254193187831184
 10
40.27171111798299
 20
4.2437036207904555
 10
40.29275449203139
 20
4.231090707779003
 10
40.312460254817395
 20
4.216475918044047
 10
40.33063862907312
 20
4.200000000000003
 10
40.34711454711717
 20
4.181821625744277
 10
40.36172933685212
 20
4.162115862958267
 10
40.374342249863574
 20
4.141072488909863
 10
40.38483181690431
 20
4.118894162794639
 10
40.39309701770955
 20
4.0957944740169765
 10
40.3990582538773
 20
4.071995885207393
 10
40.40265811544454
 20
4.047727589785751
 10
40.4038619337765
 20
4.0232233047033645
 10
40.40265811544454
 20
3.998719019620971
 10
40.3990582538773
 20
3.974450724199329
 10
40.39309701770955
 20
3.9506521353897455
 10
40.38483181690431
 20
3.92755244661209
 10
40.374342249863574
 20
3.905374120496866
 10
40.36172933685212
 20
3.8843307464484624
 10
40.34711454711717
 20
3.864624983662452
 10
40.33063862907312
 20
3.8464466094067262
 10
40.33063862907312
 20
0.20000000000000284
 10
41.13063862907313
 20
0.20000000000000284
 10
41.18846488882191
 20
0.19664486676443715
 10
41.24551508934681
 20
0.1866244947338629
 10
41.30102358655232
 20
0.17007336264121165
 10
41.35424542682311
 20
0.14721359549995583
 10
41.40446634469859
 20
0.11835198356807552
 10
41.45101234869601
 20
0.08387586505926237
 10
41.49325876663541
 20
0.04424792785768972
 10
41.530638629073124
 20
0.0
 10
37.530638629073124
 20
0.0
  0
LWPOLYLINE
  5
4A
330
17
100
AcDbEntity
  8
BRACKET_OUTLINE
100
AcDbPolyline
 90
87
 70
1
 10
41.530638629073124
 20
48.0
 10
41.49325876663541
 20
47.95575207214231
 10
41.45101234869601
 20
47.91612413494074
 10
41.40446634469859
 20
47.881648016431924
 10
41.35424542682311
 20
47.852786404500044
 10
41.30102358655232
 20
47.82992663735879
 10
41.24551508934681
 20
47.81337550526614
 10
41.18846488882191
 20
47.80335513323556
 10
41.13063862907313
 20
47.8
 10
40.33063862907312
 20
47.8
 10
40.33063862907312
 20
44.153553390593274
 10
40.34711454711717
 20
44.13537501633755
 10
40.36172933685212
 20
44.11566925355154
 10
40.374342249863574
 20
44.094625879503134
 10
40.38483181690431
 20
44.07244755338791
 10
40.39309701770955
 20
44.049347864610255
 10
40.3990582538773
 20
44.02554927580067
 10
40.40265811544454
 20
44.00128098037903
 10
40.4038619337765
 20
43.976776695296635
 10
40.40265811544454
 20
43.95227241021425
 10
40.3990582538773
 20
43.92800411479261
 10
40.39309701770955
 20
43.90420552598302
 10
40.38483181690431
 20
43.88110583720536
 10
40.374342249863574
 20
43.85892751109014
 10
40.36172933685212
 20
43.83788413704173
 10
40.34711454711717
 20
43.81817837425572
 10
40.33063862907312
 20
43.8
 10
40.312460254817395
 20
43.78352408195595
 10
40.29275449203139
 20
43.768909292221
 10
40.27171111798299
 20
43.756296379209545
 10
40.249532791867765
 20
43.745806812168816
 10
40.2264331030901
 20
43.73754161136358
 10
40.20263451428052
 20
43.73158037519583
 10
40.17836621885888
 20
43.72798051362859
 10
40.1538619337765
 20
43.726776695296635
 10
40.129357648694096
 20
43.72798051362859
 10
40.10508935327246
 20
43.73158037519583
 10
40.08129076446288
 20
43.73754161136358
 10
40.058191075685215
 20
43.745806812168816
 10
40.03601274956999
 20
43.756296379209545
 10
40.01496937552159
 20
43.768909292221
 10
39.995263612735585
 20
43.78352408195595
 10
39.97708523847986
 20
43.8
 10
39.0841920196664
 20
43.8
 10
39.06601364541068
 20
43.78352408195595
 10
39.04630788262466
 20
43.768909292221
 10
39.02526450857627
 20
43.756296379209545
 10
39.00308618246103
 20
43.745806812168816
 10
38.979986493683384
 20
43.73754161136358
 10
38.9561879048738
 20
43.73158037519583
 10
38.93191960945215
 20
43.72798051362859
 10
38.907415324369765
 20
43.726776695296635
 10
38.88291103928738
 20
43.72798051362859
 10
38.85864274386573
 20
43.73158037519583
 10
38.834844155056146
 20
43.73754161136358
 10
38.8117444662785
 20
43.745806812168816
 10
38.78956614016326
 20
43.756296379209545
 10
38.76852276611487
 20
43.768909292221
 10
38.74881700332885
 20
43.78352408195595
 10
38.73063862907313
 20
43.8
 10
38.714162711029076
 20
43.81817837425572
 10
38.699547921294126
 20
43.83788413704173
 10
38.686935008282674
 20
43.85892751109014
 10
38.67644544124194
 20
43.88110583720536
 10
38.66818024043671
 20
43.90420552598302
 10
38.66221900426896
 20
43.92800411479261
 10
38.65861914270171
 20
43.95227241021425
 10
38.657415324369765
 20
43.976776695296635
 10
38.65861914270171
 20
44.00128098037903
 10
38.66221900426896
 20
44.02554927580067
 10
38.66818024043671
 20
44.049347864610255
 10
38.67644544124194
 20
44.07244755338791
 10
38.686935008282674
 20
44.094625879503134
 10
38.699547921294126
 20
44.11566925355154
 10
38.714162711029076
 20
44.13537501633755
 10
38.73063862907313
 20
44.153553390593274
 10
38.73063862907313
 20
47.8
 10
37.93063862907313
 20
47.8
 10
37.87281236932435
 20
47.80335513323556
 10
37.81576216879945
 20
47.81337550526614
 10
37.760253671593944
 20
47.82992663735879
 10
37.70703183132315
 20
47.852786404500044
 10
37.65681091344767
 20
47.881648016431924
 10
37.61026490945024
 20
47.91612413494074
 10
37.56801849151084
 20
47.95575207214231
 10
37.530638629073124
 20
48.0
 10
41.530638629073124
 20
48.0
  0
LWPOLYLINE
  5
4B
330
17
100
AcDbEntity
  8
BRACKET_CUTS
100
AcDbPolyline
 90
2
 70
0
 10
40.93063862907313
 20
7.975000000000001
 10
40.93063862907313
 20
6.375
  0
LWPOLYLINE
  5
4C
330
17
100
AcDbEntity
  8
BRACKET_CUTS
100
AcDbPolyline
 90
2
 70
0
 10
40.93063862907313
 20
23.6
 10
40.93063862907313
 20
22.0
  0
LWPOLYLINE
  5
4D
330
17
100
AcDbEntity
  8
BRACKET_CUTS
100
AcDbPolyline
 90
2
 70
0
 10
40.93063862907313
 20
39.849999999999994
 10
40.93063862907313
 20
38.25
  0
LWPOLYLINE
  5
4E
330
17
100
AcDbEntity
  8
BRACKET_CUTS
100
AcDbPolyline
 90
2
 70
0
 10
29.13063862907313
 20
0.20000000000000284
 10
27.530638629073135
 20
0.20000000000000284
  0
LWPOLYLINE
  5
4F
330
17
100
AcDbEntity
  8
BRACKET_CUTS
100
AcDbPolyline
 90
2
 70
0
 10
27.530638629073135
 20
47.8
 10
29.13063862907313
 20
47.8
  0
LWPOLYLINE
  5
50
330
17
100
AcDbEntity
  8
BRACKET_CUTS
100
AcDbPolyline
 90
2
 70
0
 10
40.33063862907312
 20
0.20000000000000284
 10
38.73063862907313
 20
0.20000000000000284
  0
LWPOLYLINE
  5
51
330
17
100
AcDbEntity
  8
BRACKET_CUTS
100
AcDbPolyline
 90
2
 70
0
 10
38.73063862907313
 20
47.8
 10
40.33063862907312
 20
47.8
  0
LWPOLYLINE
  5
52
330
17
100
AcDbEntity
  8
SHELF_OUTLINE
100
AcDbPolyline
 90
96
 70
1
 10
96.0000079833114
 20
0.0
 10
96.0000079833114
 20
48.0
 10
75.73026682980563
 20
48.0
 10
75.73026682980563
 20
39.88739202540123
 10
75.73026682980563
 20
39.88739202540123
 10
75.814383376173
 20
39.77815049238335
 10
75.89339188395664
 20
39.66515951218281
 10
75.96712547572386
 20
39.54865773814491
 10
76.03542841543006
 20
39.42889123892093
 10
76.09815643735575
 20
39.306112978735484
 10
76.1551770508167
 20
39.18058228308932
 10
76.20636982000357
 20
39.05256429102627
 10
76.2516266183597
 20
38.92232939512111
 10
76.29085185696015
 20
38.7901526703712
 10
76.32396268640937
 20
38.656313293198195
 10
76.35088917183117
 20
38.5210939517869
 10
76.37157444058126
 20
38.38478024900684
 10
76.3859748023706
 20
38.24766009917754
 10
76.39405984154557
 20
38.1100231199517
 10
76.39581248133031
 20
37.97216002060071
 10
76.39122901989526
 20
37.83436198799448
 10
76.38031913817605
 20
37.6969200715725
 10
76.36310587942589
 20
37.560124568605204
 10
76.33962560054495
 20
37.42426441104403
 10
76.33962560054495
 20
37.42426441104403
 10
76.23717320610102
 20
36.86521741300466
 10
76.15103212749227
 20
36.30617041496529
 10
76.08304427646887
 20
35.747123416925916
 10
76.03466340336328
 20
35.188076418886546
 10
76.00692401227151
 20
34.629029420847175
 10
76.00041924076766
 20
34.0699824228078
 10
76.0152881771387
 20
33.51093542476843
 10
76.0512128863291
 20
32.951888426729056
 10
76.10742520818754
 20
32.392841428689685
 10
76.1827231826526
 20
31.833794430650315
 10
76.27549675066568
 20
31.274747432610944
 10
76.38376218126143
 20
30.715700434571573
 10
76.5052044886982
 20
30.156653436532203
 10
76.63722693264434
 20
29.597606438492832
 10
76.77700654298252
 20
29.038559440453458
 10
76.92155448197268
 20
28.479512442414087
 10
77.0677799530798
 20
27.920465444374717
 10
77.21255628993572
 20
27.361418446335342
 10
77.3527878122877
 20
26.802371448295972
 10
77.48547601938634
 20
26.2433244502566
 10
77.60778370543261
 20
25.68427745221723
 10
77.7170956261354
 20
25.12523045417786
 10
77.81107441917669
 20
24.56618345613849
 10
77.88771058286501
 20
24.00713645809912
 10
77.94536544430859
 20
23.448089460059748
 10
77.98280619834105
 20
22.889042462020374
 10
77.99923226797983
 20
22.329995463981003
 10
77.9942924227648
 20
21.770948465941633
 10
77.96809228894409
 20
21.211901467902262
 10
77.92119209092077
 20
20.652854469862888
 10
77.85459467225353
 20
20.093807471823517
 10
77.76972405235279
 20
19.534760473784146
 10
77.66839497738336
 20
18.975713475744776
 10
77.5527741164517
 20
18.416666477705405
 10
77.42533373280033
 20
17.85761947966603
 10
77.28879882063502
 20
17.29857248162666
 10
77.14608883793201
 20
16.73952548358729
 10
77.00025528112307
 20
16.18047848554792
 10
76.85441643646828
 20
15.621431487508545
 10
76.7116907032951
 20
15.062384489469174
 10
76.57512991481974
 20
14.503337491429804
 10
76.44765408231866
 20
13.944290493390433
 10
76.33198895798277
 20
13.385243495351062
 10
76.23060775151687
 20
12.826196497311692
 10
76.14567824672922
 20
12.267149499272321
 10
76.07901644889083
 20
11.708102501232943
 10
76.03204775399982
 20
11.14905550319358
 10
76.00577647024932
 20
10.590008505154202
 10
76.00076434340583
 20
10.030961507114839
 10
76.00076434340583
 20
10.030961507114839
 10
75.99945974203779
 20
9.9068367122117
 10
75.99302141815335
 20
9.782872141950534
 10
75.98146039463992
 20
9.659280032858575
 10
75.9647964648262
 20
9.536271983781944
 10
75.9430581585944
 20
9.41405859361275
 10
75.91628269353514
 20
9.29284910072817
 10
75.88451591122804
 20
9.172851024758891
 10
75.8478121987576
 20
9.054269811300088
 10
75.80623439559847
 20
8.937308480173357
 10
75.75985368602963
 20
8.82216727784175
 10
75.70874947726162
 20
8.709043334572996
 10
75.6530092634855
 20
8.598130326937877
 10
75.59272847607635
 20
8.48961814622158
 10
75.5280103202076
 20
8.383692573315763
 10
75.45896559815627
 20
8.280534960647913
 10
75.38571251960114
 20
8.180321921692538
 10
75.30837649923907
 20
8.08322502859582
 10
75.22708994206577
 20
7.98941051843142
 10
75.14199201668859
 20
7.899039008590236
 10
75.14199201668859
 20
0.0
 10
96.0000079833114
 20
0.0
  0
LWPOLYLINE
  5
53
330
17
100
AcDbEntity
  8
BRACKET_OUTLINE
100
AcDbPolyline
 90
87
 70
1
 10
96.0000079833114
 20
5.174999999999997
 10
95.95576005545371
 20
5.212379862437722
 10
95.91613211825214
 20
5.254626280377117
 10
95.88165599974333
 20
5.301172284374545
 10
95.85279438781146
 20
5.351393202250023
 10
95.8299346206702
 20
5.404615042520817
 10
95.81338348857754
 20
5.460123539726318
 10
95.80336311654696
 20
5.517173740251216
 10
95.8000079833114
 20
5.575000000000003
 10
95.8000079833114
 20
6.375
 10
86.15356137390468
 20
6.375
 10
86.13538299964895
 20
6.358524081955949
 10
86.11567723686295
 20
6.343909292220999
 10
86.09463386281453
 20
6.331296379209547
 10
86.07245553669932
 20
6.3208068121688115
 10
86.04935584792166
 20
6.312541611363585
 10
86.02555725911208
 20
6.3065803751958285
 10
86.00128896369043
 20
6.302980513628583
 10
85.97678467860804
 20
6.301776695296638
 10
85.95228039352565
 20
6.302980513628583
 10
85.928012098104
 20
6.3065803751958285
 10
85.90421350929444
 20
6.312541611363585
 10
85.88111382051677
 20
6.3208068121688115
 10
85.85893549440155
 20
6.331296379209547
 10
85.83789212035315
 20
6.343909292220999
 10
85.81818635756713
 20
6.358524081955949
 10
85.8000079833114
 20
6.375
 10
85.78353206526737
 20
6.393178374255726
 10
85.7689172755324
 20
6.412884137041736
 10
85.75630436252095
 20
6.433927511090133
 10
85.74581479548021
 20
6.456105837205364
 10
85.73754959467499
 20
6.479205525983019
 10
85.73158835850724
 20
6.503004114792603
 10
85.72798849693999
 20
6.527272410214245
 10
85.72678467860804
 20
6.551776695296638
 10
85.72798849693999
 20
6.576280980379025
 10
85.73158835850724
 20
6.600549275800667
 10
85.73754959467499
 20
6.62434786461025
 10
85.74581479548021
 20
6.647447553387906
 10
85.75630436252095
 20
6.669625879503137
 10
85.7689172755324
 20
6.690669253551533
 10
85.78353206526737
 20
6.710375016337544
 10
85.8000079833114
 20
6.7285533905932695
 10
85.8000079833114
 20
7.621446609406725
 10
85.78353206526737
 20
7.639624983662451
 10
85.7689172755324
 20
7.659330746448461
 10
85.75630436252095
 20
7.6803741204968645
 10
85.74581479548021
 20
7.7025524466120885
 10
85.73754959467499
 20
7.725652135389744
 10
85.73158835850724
 20
7.749450724199328
 10
85.72798849693999
 20
7.77371901962097
 10
85.72678467860804
 20
7.798223304703363
 10
85.72798849693999
 20
7.82272758978575
 10
85.73158835850724
 20
7.8469958852073916
 10
85.73754959467499
 20
7.870794474016975
 10
85.74581479548021
 20
7.893894162794638
 10
85.75630436252095
 20
7.916072488909862
 10
85.7689172755324
 20
7.937115862958265
 10
85.78353206526737
 20
7.956821625744276
 10
85.8000079833114
 20
7.975000000000001
 10
85.81818635756713
 20
7.991475918044046
 10
85.83789212035315
 20
8.006090707778995
 10
85.85893549440155
 20
8.018703620790447
 10
85.88111382051677
 20
8.029193187831183
 10
85.90421350929444
 20
8.037458388636416
 10
85.928012098104
 20
8.043419624804173
 10
85.95228039352565
 20
8.047019486371411
 10
85.97678467860804
 20
8.048223304703363
 10
86.00128896369043
 20
8.047019486371411
 10
86.02555725911208
 20
8.043419624804173
 10
86.04935584792166
 20
8.037458388636416
 10
86.07245553669932
 20
8.029193187831183
 10
86.09463386281453
 20
8.018703620790447
 10
86.11567723686295
 20
8.006090707778995
 10
86.13538299964895
 20
7.991475918044046
 10
86.15356137390468
 20
7.975000000000001
 10
95.8000079833114
 20
7.975000000000001
 10
95.8000079833114
 20
8.774999999999999
 10
95.80336311654696
 20
8.832826259748785
 10
95.81338348857754
 20
8.889876460273683
 10
95.8299346206702
 20
8.945384957479185
 10
95.85279438781146
 20
8.998606797749979
 10
95.88165599974333
 20
9.048827715625457
 10
95.91613211825214
 20
9.095373719622884
 10
95.95576005545371
 20
9.13762013756228
 10
96.0000079833114
 20
9.174999999999997
 10
96.0000079833114
 20
5.174999999999997
  0
LWPOLYLINE
  5
54
330
17
100
AcDbEntity
  8
BRACKET_OUTLINE
100
AcDbPolyline
 90
87
 70
1
 10
96.0000079833114
 20
20.8
 10
95.95576005545371
 20
20.83737986243772
 10
95.91613211825214
 20
20.879626280377117
 10
95.88165599974333
 20
20.926172284374545
 10
95.85279438781146
 20
20.976393202250023
 10
95.8299346206702
 20
21.029615042520813
 10
95.81338348857754
 20
21.085123539726318
 10
95.80336311654696
 20
21.142173740251216
 10
95.8000079833114
 20
21.2
 10
95.8000079833114
 20
22.0
 10
86.15356137390468
 20
22.0
 10
86.13538299964895
 20
21.983524081955952
 10
86.11567723686295
 20
21.968909292221
 10
86.09463386281453
 20
21.956296379209547
 10
86.07245553669932
 20
21.945806812168815
 10
86.04935584792166
 20
21.937541611363585
 10
86.02555725911208
 20
21.93158037519583
 10
86.00128896369043
 20
21.927980513628587
 10
85.97678467860804
 20
21.926776695296635
 10
85.95228039352565
 20
21.927980513628587
 10
85.928012098104
 20
21.93158037519583
 10
85.90421350929444
 20
21.937541611363585
 10
85.88111382051677
 20
21.945806812168815
 10
85.85893549440155
 20
21.956296379209547
 10
85.83789212035315
 20
21.968909292221
 10
85.81818635756713
 20
21.983524081955952
 10
85.8000079833114
 20
22.0
 10
85.78353206526737
 20
22.018178374255726
 10
85.7689172755324
 20
22.037884137041736
 10
85.75630436252095
 20
22.058927511090136
 10
85.74581479548021
 20
22.081105837205364
 10
85.73754959467499
 20
22.10420552598302
 10
85.73158835850724
 20
22.128004114792603
 10
85.72798849693999
 20
22.152272410214245
 10
85.72678467860804
 20
22.176776695296635
 10
85.72798849693999
 20
22.201280980379025
 10
85.73158835850724
 20
22.225549275800667
 10
85.73754959467499
 20
22.24934786461025
 10
85.74581479548021
 20
22.27244755338791
 10
85.75630436252095
 20
22.294625879503137
 10
85.7689172755324
 20
22.315669253551537
 10
85.78353206526737
 20
22.335375016337547
 10
85.8000079833114
 20
22.353553390593273
 10
85.8000079833114
 20
23.246446609406725
 10
85.78353206526737
 20
23.26462498366245
 10
85.7689172755324
 20
23.28433074644846
 10
85.75630436252095
 20
23.305374120496865
 10
85.74581479548021
 20
23.32755244661209
 10
85.73754959467499
 20
23.350652135389748
 10
85.73158835850724
 20
23.37445072419933
 10
85.72798849693999
 20
23.398719019620973
 10
85.72678467860804
 20
23.423223304703363
 10
85.72798849693999
 20
23.447727589785753
 10
85.73158835850724
 20
23.471995885207395
 10
85.73754959467499
 20
23.49579447401698
 10
85.74581479548021
 20
23.518894162794634
 10
85.75630436252095
 20
23.54107248890986
 10
85.7689172755324
 20
23.56211586295826
 10
85.78353206526737
 20
23.581821625744276
 10
85.8000079833114
 20
23.599999999999998
 10
85.81818635756713
 20
23.616475918044046
 10
85.83789212035315
 20
23.631090707779
 10
85.85893549440155
 20
23.64370362079045
 10
85.88111382051677
 20
23.654193187831183
 10
85.90421350929444
 20
23.662458388636416
 10
85.928012098104
 20
23.66841962480417
 10
85.95228039352565
 20
23.67201948637141
 10
85.97678467860804
 20
23.673223304703363
 10
86.00128896369043
 20
23.67201948637141
 10
86.02555725911208
 20
23.66841962480417
 10
86.04935584792166
 20
23.662458388636416
 10
86.07245553669932
 20
23.654193187831183
 10
86.09463386281453
 20
23.64370362079045
 10
86.11567723686295
 20
23.631090707779
 10
86.13538299964895
 20
23.616475918044046
 10
86.15356137390468
 20
23.599999999999998
 10
95.8000079833114
 20
23.6
 10
95.8000079833114
 20
24.400000000000002
 10
95.80336311654696
 20
24.457826259748785
 10
95.81338348857754
 20
24.51487646027368
 10
95.8299346206702
 20
24.570384957479188
 10
95.85279438781146
 20
24.62360679774998
 10
95.88165599974333
 20
24.673827715625457
 10
95.91613211825214
 20
24.720373719622884
 10
95.95576005545371
 20
24.76262013756228
 10
96.0000079833114
 20
24.8
 10
96.0000079833114
 20
20.8
  0
LWPOLYLINE
  5
55
330
17
100
AcDbEntity
  8
BRACKET_OUTLINE
100
AcDbPolyline
 90
87
 70
1
 10
96.0000079833114
 20
37.05
 10
95.95576005545371
 20
37.087379862437714
 10
95.91613211825214
 20
37.12962628037711
 10
95.88165599974333
 20
37.17617228437454
 10
95.85279438781146
 20
37.226393202250016
 10
95.8299346206702
 20
37.27961504252081
 10
95.81338348857754
 20
37.33512353972632
 10
95.80336311654696
 20
37.392173740251216
 10
95.8000079833114
 20
37.449999999999996
 10
95.8000079833114
 20
38.25
 10
86.15356137390468
 20
38.24999999999999
 10
86.13538299964895
 20
38.23352408195595
 10
86.11567723686295
 20
38.218909292221
 10
86.09463386281453
 20
38.20629637920955
 10
86.07245553669932
 20
38.19580681216881
 10
86.04935584792166
 20
38.18754161136358
 10
86.02555725911208
 20
38.18158037519583
 10
86.00128896369043
 20
38.17798051362858
 10
85.97678467860804
 20
38.17677669529663
 10
85.95228039352565
 20
38.17798051362858
 10
85.928012098104
 20
38.18158037519583
 10
85.90421350929444
 20
38.18754161136358
 10
85.88111382051677
 20
38.19580681216881
 10
85.85893549440155
 20
38.20629637920955
 10
85.83789212035315
 20
38.218909292221
 10
85.81818635756713
 20
38.23352408195595
 10
85.8000079833114
 20
38.24999999999999
 10
85.78353206526737
 20
38.26817837425572
 10
85.7689172755324
 20
38.28788413704173
 10
85.75630436252095
 20
38.30892751109013
 10
85.74581479548021
 20
38.331105837205364
 10
85.73754959467499
 20
38.35420552598302
 10
85.73158835850724
 20
38.3780041147926
 10
85.72798849693999
 20
38.402272410214245
 10
85.72678467860804
 20
38.42677669529663
 10
85.72798849693999
 20
38.451280980379025
 10
85.73158835850724
 20
38.47554927580067
 10
85.73754959467499
 20
38.49934786461025
 10
85.74581479548021
 20
38.522447553387906
 10
85.75630436252095
 20
38.54462587950313
 10
85.7689172755324
 20
38.56566925355153
 10
85.78353206526737
 20
38.585375016337544
 10
85.8000079833114
 20
38.60355339059327
 10
85.8000079833114
 20
39.496446609406725
 10
85.78353206526737
 20
39.51462498366245
 10
85.7689172755324
 20
39.53433074644846
 10
85.75630436252095
 20
39.55537412049686
 10
85.74581479548021
 20
39.57755244661209
 10
85.73754959467499
 20
39.600652135389744
 10
85.73158835850724
 20
39.62445072419933
 10
85.72798849693999
 20
39.64871901962097
 10
85.72678467860804
 20
39.673223304703356
 10
85.72798849693999
 20
39.69772758978575
 10
85.73158835850724
 20
39.72199588520739
 10
85.73754959467499
 20
39.745794474016975
 10
85.74581479548021
 20
39.76889416279463
 10
85.75630436252095
 20
39.79107248890986
 10
85.7689172755324
 20
39.81211586295826
 10
85.78353206526737
 20
39.83182162574427
 10
85.8000079833114
 20
39.849999999999994
 10
85.81818635756713
 20
39.866475918044046
 10
85.83789212035315
 20
39.881090707778995
 10
85.85893549440155
 20
39.89370362079045
 10
85.88111382051677
 20
39.90419318783118
 10
85.90421350929444
 20
39.91245838863641
 10
85.928012098104
 20
39.918419624804166
 10
85.95228039352565
 20
39.92201948637141
 10
85.97678467860804
 20
39.923223304703356
 10
86.00128896369043
 20
39.92201948637141
 10
86.02555725911208
 20
39.918419624804166
 10
86.04935584792166
 20
39.91245838863641
 10
86.07245553669932
 20
39.90419318783118
 10
86.09463386281453
 20
39.89370362079045
 10
86.11567723686295
 20
39.881090707778995
 10
86.13538299964895
 20
39.866475918044046
 10
86.15356137390468
 20
39.849999999999994
 10
95.8000079833114
 20
39.849999999999994
 10
95.8000079833114
 20
40.65
 10
95.80336311654696
 20
40.70782625974878
 10
95.81338348857754
 20
40.764876460273676
 10
95.8299346206702
 20
40.820384957479185
 10
95.85279438781146
 20
40.87360679774998
 10
95.88165599974333
 20
40.92382771562546
 10
95.91613211825214
 20
40.970373719622884
 10
95.95576005545371
 20
41.01262013756228
 10
96.0000079833114
 20
41.05
 10
96.0000079833114
 20
37.05
  0
LWPOLYLINE
  5
56
330
17
100
AcDbEntity
  8
BRACKET_OUTLINE
100
AcDbPolyline
 90
87
 70
1
 10
81.20000798331141
 20
0.0
 10
81.23738784574913
 20
0.04424792785768972
 10
81.27963426368852
 20
0.08387586505926237
 10
81.32618026768594
 20
0.11835198356807552
 10
81.37640118556143
 20
0.14721359549995583
 10
81.42962302583223
 20
0.17007336264121165
 10
81.48513152303772
 20
0.1866244947338629
 10
81.54218172356263
 20
0.19664486676443715
 10
81.6000079833114
 20
0.20000000000000284
 10
82.40000798331141
 20
0.20000000000000284
 10
82.40000798331141
 20
9.846446609406726
 10
82.38353206526736
 20
9.864624983662452
 10
82.36891727553241
 20
9.884330746448462
 10
82.35630436252096
 20
9.905374120496866
 10
82.34581479548022
 20
9.92755244661209
 10
82.337549594675
 20
9.950652135389745
 10
82.33158835850725
 20
9.974450724199329
 10
82.32798849694
 20
9.998719019620971
 10
82.32678467860805
 20
10.023223304703365
 10
82.32798849694
 20
10.047727589785751
 10
82.33158835850725
 20
10.071995885207393
 10
82.337549594675
 20
10.095794474016976
 10
82.34581479548022
 20
10.118894162794632
 10
82.35630436252096
 20
10.141072488909863
 10
82.36891727553241
 20
10.16211586295826
 10
82.38353206526736
 20
10.181821625744277
 10
82.40000798331141
 20
10.200000000000003
 10
82.41818635756714
 20
10.216475918044047
 10
82.43789212035315
 20
10.231090707779003
 10
82.45893549440154
 20
10.243703620790455
 10
82.48111382051678
 20
10.254193187831184
 10
82.50421350929443
 20
10.262458388636418
 10
82.52801209810401
 20
10.268419624804167
 10
82.55228039352565
 20
10.272019486371413
 10
82.57678467860805
 20
10.273223304703365
 10
82.60128896369044
 20
10.272019486371413
 10
82.62555725911207
 20
10.268419624804167
 10
82.64935584792167
 20
10.262458388636418
 10
82.67245553669932
 20
10.254193187831184
 10
82.69463386281456
 20
10.243703620790455
 10
82.71567723686294
 20
10.231090707779003
 10
82.73538299964895
 20
10.216475918044047
 10
82.75356137390469
 20
10.200000000000003
 10
83.64645459271813
 20
10.200000000000003
 10
83.66463296697387
 20
10.216475918044047
 10
83.68433872975987
 20
10.231090707779003
 10
83.70538210380828
 20
10.243703620790455
 10
83.7275604299235
 20
10.254193187831184
 10
83.75066011870115
 20
10.262458388636418
 10
83.77445870751075
 20
10.268419624804167
 10
83.79872700293238
 20
10.272019486371413
 10
83.82323128801477
 20
10.273223304703365
 10
83.84773557309717
 20
10.272019486371413
 10
83.8720038685188
 20
10.268419624804167
 10
83.89580245732839
 20
10.262458388636418
 10
83.91890214610603
 20
10.254193187831184
 10
83.94108047222127
 20
10.243703620790455
 10
83.96212384626966
 20
10.231090707779003
 10
83.9818296090557
 20
10.216475918044047
 10
84.0000079833114
 20
10.200000000000003
 10
84.01648390135546
 20
10.181821625744277
 10
84.0310986910904
 20
10.16211586295826
 10
84.04371160410186
 20
10.141072488909863
 10
84.0542011711426
 20
10.118894162794632
 10
84.06246637194783
 20
10.095794474016976
 10
84.06842760811557
 20
10.071995885207393
 10
84.07202746968282
 20
10.047727589785751
 10
84.07323128801477
 20
10.023223304703365
 10
84.07202746968282
 20
9.998719019620971
 10
84.06842760811557
 20
9.974450724199329
 10
84.06246637194783
 20
9.950652135389745
 10
84.0542011711426
 20
9.92755244661209
 10
84.04371160410186
 20
9.905374120496866
 10
84.0310986910904
 20
9.884330746448462
 10
84.01648390135546
 20
9.864624983662452
 10
84.0000079833114
 20
9.846446609406726
 10
84.0000079833114
 20
0.20000000000000284
 10
84.80000798331142
 20
0.20000000000000284
 10
84.85783424306018
 20
0.19664486676443715
 10
84.9148844435851
 20
0.1866244947338629
 10
84.97039294079059
 20
0.17007336264121165
 10
85.02361478106138
 20
0.14721359549995583
 10
85.07383569893688
 20
0.11835198356807552
 10
85.1203817029343
 20
0.08387586505926237
 10
85.16262812087369
 20
0.04424792785768972
 10
85.20000798331141
 20
0.0
 10
81.20000798331141
 20
0.0
  0
LWPOLYLINE
  5
57
330
17
100
AcDbEntity
  8
BRACKET_OUTLINE
100
AcDbPolyline
 90
87
 70
1
 10
85.20000798331141
 20
48.0
 10
85.16262812087369
 20
47.95575207214231
 10
85.1203817029343
 20
47.91612413494074
 10
85.07383569893688
 20
47.881648016431924
 10
85.02361478106138
 20
47.852786404500044
 10
84.97039294079059
 20
47.82992663735879
 10
84.9148844435851
 20
47.81337550526614
 10
84.85783424306018
 20
47.80335513323556
 10
84.80000798331142
 20
47.8
 10
84.0000079833114
 20
47.8
 10
84.0000079833114
 20
38.153553390593274
 10
84.01648390135546
 20
38.13537501633755
 10
84.0310986910904
 20
38.11566925355154
 10
84.04371160410186
 20
38.094625879503134
 10
84.0542011711426
 20
38.07244755338791
 10
84.06246637194783
 20
38.049347864610255
 10
84.06842760811557
 20
38.02554927580067
 10
84.07202746968282
 20
38.00128098037903
 10
84.07323128801477
 20
37.976776695296635
 10
84.07202746968282
 20
37.95227241021425
 10
84.06842760811557
 20
37.92800411479261
 10
84.06246637194783
 20
37.90420552598302
 10
84.0542011711426
 20
37.88110583720537
 10
84.04371160410186
 20
37.85892751109014
 10
84.0310986910904
 20
37.83788413704174
 10
84.01648390135546
 20
37.81817837425572
 10
84.0000079833114
 20
37.8
 10
83.9818296090557
 20
37.78352408195595
 10
83.96212384626968
 20
37.768909292221
 10
83.94108047222127
 20
37.756296379209545
 10
83.91890214610603
 20
37.745806812168816
 10
83.89580245732839
 20
37.73754161136358
 10
83.8720038685188
 20
37.73158037519583
 10
83.84773557309717
 20
37.72798051362859
 10
83.82323128801477
 20
37.726776695296635
 10
83.79872700293238
 20
37.72798051362859
 10
83.77445870751075
 20
37.73158037519583
 10
83.75066011870115
 20
37.73754161136358
 10
83.7275604299235
 20
37.745806812168816
 10
83.70538210380828
 20
37.756296379209545
 10
83.68433872975987
 20
37.768909292221
 10
83.66463296697387
 20
37.78352408195595
 10
83.64645459271813
 20
37.8
 10
82.75356137390469
 20
37.8
 10
82.73538299964895
 20
37.78352408195595
 10
82.71567723686294
 20
37.768909292221
 10
82.69463386281456
 20
37.756296379209545
 10
82.67245553669932
 20
37.745806812168816
 10
82.64935584792167
 20
37.73754161136358
 10
82.62555725911207
 20
37.73158037519583
 10
82.60128896369044
 20
37.72798051362859
 10
82.57678467860805
 20
37.726776695296635
 10
82.55228039352565
 20
37.72798051362859
 10
82.52801209810401
 20
37.73158037519583
 10
82.50421350929443
 20
37.73754161136358
 10
82.48111382051678
 20
37.745806812168816
 10
82.45893549440154
 20
37.756296379209545
 10
82.43789212035315
 20
37.768909292221
 10
82.41818635756714
 20
37.78352408195595
 10
82.40000798331141
 20
37.8
 10
82.38353206526736
 20
37.81817837425572
 10
82.36891727553241
 20
37.83788413704174
 10
82.35630436252096
 20
37.85892751109014
 10
82.34581479548022
 20
37.88110583720537
 10
82.337549594675
 20
37.90420552598302
 10
82.33158835850725
 20
37.92800411479261
 10
82.32798849694
 20
37.95227241021425
 10
82.32678467860805
 20
37.976776695296635
 10
82.32798849694
 20
38.00128098037903
 10
82.33158835850725
 20
38.02554927580067
 10
82.337549594675
 20
38.049347864610255
 10
82.34581479548022
 20
38.07244755338791
 10
82.35630436252096
 20
38.094625879503134
 10
82.36891727553241
 20
38.11566925355154
 10
82.38353206526736
 20
38.13537501633755
 10
82.40000798331141
 20
38.153553390593274
 10
82.40000798331141
 20
47.8
 10
81.6000079833114
 20
47.8
 10
81.54218172356263
 20
47.80335513323556
 10
81.48513152303772
 20
47.81337550526614
 10
81.42962302583223
 20
47.82992663735879
 10
81.37640118556143
 20
47.852786404500044
 10
81.32618026768594
 20
47.881648016431924
 10
81.27963426368852
 20
47.91612413494074
 10
81.23738784574913
 20
47.95575207214231
 10
81.20000798331141
 20
48.0
 10
85.20000798331141
 20
48.0
  0
LWPOLYLINE
  5
58
330
17
100
AcDbEntity
  8
BRACKET_OUTLINE
100
AcDbPolyline
 90
87
 70
1
 10
92.40000798331141
 20
0.0
 10
92.43738784574913
 20
0.04424792785768972
 10
92.47963426368852
 20
0.08387586505926237
 10
92.52618026768594
 20
0.11835198356807552
 10
92.57640118556142
 20
0.14721359549995583
 10
92.62962302583222
 20
0.17007336264121165
 10
92.68513152303773
 20
0.1866244947338629
 10
92.74218172356262
 20
0.19664486676443715
 10
92.8000079833114
 20
0.20000000000000284
 10
93.6000079833114
 20
0.20000000000000284
 10
93.6000079833114
 20
3.8464466094067262
 10
93.58353206526735
 20
3.864624983662452
 10
93.56891727553241
 20
3.8843307464484624
 10
93.55630436252096
 20
3.905374120496866
 10
93.54581479548023
 20
3.92755244661209
 10
93.537549594675
 20
3.9506521353897455
 10
93.53158835850724
 20
3.974450724199329
 10
93.52798849694
 20
3.998719019620971
 10
93.52678467860804
 20
4.0232233047033645
 10
93.52798849694
 20
4.047727589785751
 10
93.53158835850724
 20
4.071995885207393
 10
93.537549594675
 20
4.0957944740169765
 10
93.54581479548023
 20
4.118894162794639
 10
93.55630436252096
 20
4.141072488909863
 10
93.56891727553241
 20
4.162115862958267
 10
93.58353206526735
 20
4.181821625744277
 10
93.6000079833114
 20
4.200000000000003
 10
93.61818635756714
 20
4.216475918044047
 10
93.63789212035314
 20
4.231090707779003
 10
93.65893549440153
 20
4.2437036207904555
 10
93.68111382051677
 20
4.254193187831184
 10
93.70421350929442
 20
4.262458388636418
 10
93.72801209810402
 20
4.268419624804167
 10
93.75228039352565
 20
4.272019486371413
 10
93.77678467860804
 20
4.2732233047033645
 10
93.80128896369044
 20
4.272019486371413
 10
93.82555725911207
 20
4.268419624804167
 10
93.84935584792166
 20
4.262458388636418
 10
93.8724555366993
 20
4.254193187831184
 10
93.89463386281454
 20
4.2437036207904555
 10
93.91567723686293
 20
4.231090707779003
 10
93.93538299964895
 20
4.216475918044047
 10
93.95356137390468
 20
4.200000000000003
 10
94.84645459271813
 20
4.200000000000003
 10
94.86463296697386
 20
4.216475918044047
 10
94.88433872975986
 20
4.231090707779003
 10
94.90538210380828
 20
4.2437036207904555
 10
94.92756042992349
 20
4.254193187831184
 10
94.95066011870115
 20
4.262458388636418
 10
94.97445870751073
 20
4.268419624804167
 10
94.99872700293238
 20
4.272019486371413
 10
95.02323128801477
 20
4.2732233047033645
 10
95.04773557309716
 20
4.272019486371413
 10
95.0720038685188
 20
4.268419624804167
 10
95.09580245732838
 20
4.262458388636418
 10
95.11890214610604
 20
4.254193187831184
 10
95.14108047222126
 20
4.2437036207904555
 10
95.16212384626967
 20
4.231090707779003
 10
95.18182960905568
 20
4.216475918044047
 10
95.2000079833114
 20
4.200000000000003
 10
95.21648390135545
 20
4.181821625744277
 10
95.23109869109041
 20
4.162115862958267
 10
95.24371160410186
 20
4.141072488909863
 10
95.2542011711426
 20
4.118894162794639
 10
95.26246637194782
 20
4.0957944740169765
 10
95.26842760811557
 20
4.071995885207393
 10
95.27202746968283
 20
4.047727589785751
 10
95.27323128801477
 20
4.0232233047033645
 10
95.27202746968283
 20
3.998719019620971
 10
95.26842760811557
 20
3.974450724199329
 10
95.26246637194782
 20
3.9506521353897455
 10
95.2542011711426
 20
3.92755244661209
 10
95.24371160410186
 20
3.905374120496866
 10
95.23109869109041
 20
3.8843307464484624
 10
95.21648390135545
 20
3.864624983662452
 10
95.2000079833114
 20
3.8464466094067262
 10
95.2000079833114
 20
0.20000000000000284
 10
96.0000079833114
 20
0.20000000000000284
 10
96.05783424306019
 20
0.19664486676443715
 10
96.11488444358508
 20
0.1866244947338629
 10
96.17039294079059
 20
0.17007336264121165
 10
96.22361478106139
 20
0.14721359549995583
 10
96.27383569893686
 20
0.11835198356807552
 10
96.3203817029343
 20
0.08387586505926237
 10
96.3626281208737
 20
0.04424792785768972
 10
96.40000798331141
 20
0.0
 10
92.40000798331141
 20
0.0
  0
LWPOLYLINE
  5
59
330
17
100
AcDbEntity
  8
BRACKET_OUTLINE
100
AcDbPolyline
 90
87
 70
1
 10
96.40000798331141
 20
48.0
 10
96.3626281208737
 20
47.95575207214231
 10
96.32038170293428
 20
47.91612413494074
 10
96.27383569893686
 20
47.881648016431924
 10
96.22361478106139
 20
47.852786404500044
 10
96.17039294079059
 20
47.82992663735879
 10
96.11488444358508
 20
47.81337550526614
 10
96.05783424306019
 20
47.80335513323556
 10
96.0000079833114
 20
47.8
 10
95.2000079833114
 20
47.8
 10
95.2000079833114
 20
44.153553390593274
 10
95.21648390135545
 20
44.13537501633755
 10
95.23109869109041
 20
44.11566925355154
 10
95.24371160410186
 20
44.094625879503134
 10
95.2542011711426
 20
44.07244755338791
 10
95.26246637194782
 20
44.049347864610255
 10
95.26842760811557
 20
44.02554927580067
 10
95.27202746968283
 20
44.00128098037903
 10
95.27323128801477
 20
43.976776695296635
 10
95.27202746968283
 20
43.95227241021425
 10
95.26842760811557
 20
43.92800411479261
 10
95.26246637194782
 20
43.90420552598302
 10
95.2542011711426
 20
43.88110583720536
 10
95.24371160410186
 20
43.85892751109014
 10
95.23109869109041
 20
43.83788413704173
 10
95.21648390135545
 20
43.81817837425572
 10
95.2000079833114
 20
43.8
 10
95.18182960905568
 20
43.78352408195595
 10
95.16212384626967
 20
43.768909292221
 10
95.14108047222126
 20
43.756296379209545
 10
95.11890214610604
 20
43.745806812168816
 10
95.09580245732838
 20
43.73754161136358
 10
95.0720038685188
 20
43.73158037519583
 10
95.04773557309716
 20
43.72798051362859
 10
95.02323128801477
 20
43.726776695296635
 10
94.99872700293238
 20
43.72798051362859
 10
94.97445870751073
 20
43.73158037519583
 10
94.95066011870115
 20
43.73754161136358
 10
94.92756042992349
 20
43.745806812168816
 10
94.90538210380828
 20
43.756296379209545
 10
94.88433872975986
 20
43.768909292221
 10
94.86463296697386
 20
43.78352408195595
 10
94.84645459271813
 20
43.8
 10
93.95356137390468
 20
43.8
 10
93.93538299964895
 20
43.78352408195595
 10
93.91567723686293
 20
43.768909292221
 10
93.89463386281454
 20
43.756296379209545
 10
93.8724555366993
 20
43.745806812168816
 10
93.84935584792166
 20
43.73754161136358
 10
93.82555725911207
 20
43.73158037519583
 10
93.80128896369044
 20
43.72798051362859
 10
93.77678467860804
 20
43.726776695296635
 10
93.75228039352565
 20
43.72798051362859
 10
93.72801209810402
 20
43.73158037519583
 10
93.70421350929442
 20
43.73754161136358
 10
93.68111382051677
 20
43.745806812168816
 10
93.65893549440153
 20
43.756296379209545
 10
93.63789212035314
 20
43.768909292221
 10
93.61818635756714
 20
43.78352408195595
 10
93.6000079833114
 20
43.8
 10
93.58353206526735
 20
43.81817837425572
 10
93.56891727553241
 20
43.83788413704173
 10
93.55630436252096
 20
43.85892751109014
 10
93.54581479548023
 20
43.88110583720536
 10
93.537549594675
 20
43.90420552598302
 10
93.53158835850724
 20
43.92800411479261
 10
93.52798849694
 20
43.95227241021425
 10
93.52678467860804
 20
43.976776695296635
 10
93.52798849694
 20
44.00128098037903
 10
93.53158835850724
 20
44.02554927580067
 10
93.537549594675
 20
44.049347864610255
 10
93.54581479548023
 20
44.07244755338791
 10
93.55630436252096
 20
44.094625879503134
 10
93.56891727553241
 20
44.11566925355154
 10
93.58353206526735
 20
44.13537501633755
 10
93.6000079833114
 20
44.153553390593274
 10
93.6000079833114
 20
47.8
 10
92.8000079833114
 20
47.8
 10
92.74218172356262
 20
47.80335513323556
 10
92.68513152303773
 20
47.81337550526614
 10
92.62962302583222
 20
47.82992663735879
 10
92.57640118556142
 20
47.852786404500044
 10
92.52618026768594
 20
47.881648016431924
 10
92.47963426368852
 20
47.91612413494074
 10
92.43738784574913
 20
47.95575207214231
 10
92.40000798331141
 20
48.0
 10
96.40000798331141
 20
48.0
  0
LWPOLYLINE
  5
5A
330
17
100
AcDbEntity
  8
BRACKET_CUTS
100
AcDbPolyline
 90
2
 70
0
 10
95.8000079833114
 20
7.975000000000001
 10
95.8000079833114
 20
6.375
  0
LWPOLYLINE
  5
5B
330
17
100
AcDbEntity
  8
BRACKET_CUTS
100
AcDbPolyline
 90
2
 70
0
 10
95.8000079833114
 20
23.6
 10
95.8000079833114
 20
22.0
  0
LWPOLYLINE
  5
5C
330
17
100
AcDbEntity
  8
BRACKET_CUTS
100
AcDbPolyline
 90
2
 70
0
 10
95.8000079833114
 20
39.849999999999994
 10
95.8000079833114
 20
38.25
  0
LWPOLYLINE
  5
5D
330
17
100
AcDbEntity
  8
BRACKET_CUTS
100
AcDbPolyline
 90
2
 70
0
 10
84.0000079833114
 20
0.20000000000000284
 10
82.40000798331141
 20
0.20000000000000284
  0
LWPOLYLINE
  5
5E
330
17
100
AcDbEntity
  8
BRACKET_CUTS
100
AcDbPolyline
 90
2
 70
0
 10
82.40000798331141
 20
47.8
 10
84.0000079833114
 20
47.8
  0
LWPOLYLINE
  5
5F
330
17
100
AcDbEntity
  8
BRACKET_CUTS
100
AcDbPolyline
 90
2
 70
0
 10
95.2000079833114
 20
0.20000000000000284
 10
93.6000079833114
 20
0.20000000000000284
  0
LWPOLYLINE
  5
60
330
17
100
AcDbEntity
  8
BRACKET_CUTS
100
AcDbPolyline
 90
2
 70
0
 10
93.6000079833114
 20
47.8
 10
95.2000079833114
 20
47.8
  0
LWPOLYLINE
  5
61
330
17
100
AcDbEntity
  8
SHELF_OUTLINE
100
AcDbPolyline
 90
96
 70
1
 10
-1.059328720387498e-05
 20
48.0
 10
-1.059328720387498e-05
 20
0.0
 10
19.962543511717097
 20
0.0
 10
19.962543511717097
 20
7.94641869899656
 10
19.962543511717097
 20
7.94641869899656
 10
19.866598037394127
 20
8.06307004095968
 10
19.77664530721317
 20
8.18440254261462
 10
19.692913332051624
 20
8.310108652093845
 10
19.615614354507173
 20
8.43986973137202
 10
19.544944310908335
 20
8.573356863945143
 10
19.48108233465789
 20
8.710231688563276
 10
19.424190302168128
 20
8.850147256903753
 10
19.374412422538857
 20
8.992748913010786
 10
19.331874872018265
 20
9.137675192272226
 10
19.29668547417322
 20
9.284558737654812
 10
19.26893342657961
 20
9.433027230875489
 10
19.248689074725664
 20
9.582704336148367
 10
19.236003733701192
 20
9.733210654115254
 10
19.23090955812487
 20
9.884164683541606
 10
19.233419460639148
 20
10.03518378834039
 10
19.24352707917949
 20
10.185885167472428
 10
19.261206793100843
 20
10.335886825264978
 10
19.286413788120473
 20
10.48480853968882
 10
19.319084169912554
 20
10.632272826139527
 10
19.31908416991255
 20
10.632272826139527
 10
19.45413582248944
 20
11.192395340741122
 10
19.579439355726123
 20
11.75251785534271
 10
19.6923051661086
 20
12.312640369944305
 10
19.790310622188475
 20
12.872762884545892
 10
19.871352065654975
 20
13.432885399147487
 10
19.93368996574231
 20
13.993007913749082
 10
19.975986257746325
 20
14.55313042835067
 10
19.997333064190112
 20
15.113252942952265
 10
19.997272182147217
 20
15.67337545755386
 10
19.975804918432797
 20
16.233497972155448
 10
19.933392061553217
 20
16.793620486757042
 10
19.870943991016183
 20
17.35374300135863
 10
19.789801136302177
 20
17.913865515960225
 10
19.6917052049396
 20
18.473988030561816
 10
19.578761797264583
 20
19.034110545163408
 10
19.453395210328605
 20
19.594233059765003
 10
19.318296401074786
 20
20.15435557436659
 10
19.17636522573797
 20
20.714478088968185
 10
19.030648195282954
 20
21.274600603569777
 10
18.884273082941945
 20
21.834723118171368
 10
18.740381787481446
 20
22.394845632772963
 10
18.60206289326861
 20
22.954968147374554
 10
18.472285374715543
 20
23.515090661976146
 10
18.35383486811615
 20
24.075213176577737
 10
18.249253878781765
 20
24.63533569117933
 10
18.16078720691192
 20
25.195458205780923
 10
18.090333763617785
 20
25.755580720382515
 10
18.039405811353276
 20
26.315703234984106
 10
18.00909650364594
 20
26.875825749585697
 10
18.00005642087775
 20
27.435948264187292
 10
18.012479605768434
 20
27.996070778788884
 10
18.046099398305508
 20
28.556193293390475
 10
18.100194159523074
 20
29.116315807992066
 10
18.173602761270153
 20
29.676438322593658
 10
18.26474950948516
 20
30.236560837195253
 10
18.371677966005844
 20
30.796683351796844
 10
18.492092942939458
 20
31.356805866398435
 10
18.623409768196296
 20
31.916928381000027
 10
18.762809764716465
 20
32.47705089560162
 10
18.90730075254457
 20
33.03717341020321
 10
19.053781275093037
 20
33.597295924804804
 10
19.199107170996246
 20
34.1574184394064
 10
19.340159062610173
 20
34.71754095400799
 10
19.47390931253673
 20
35.27766346860958
 10
19.597487010970678
 20
35.83778598321118
 10
19.708239598934835
 20
36.397908497812764
 10
19.80378980467893
 20
36.95803101241435
 10
19.882086671119048
 20
37.51815352701595
 10
19.941449579028635
 20
38.07827604161754
 10
19.94144957902863
 20
38.07827604161754
 10
19.955683887679807
 20
38.20750976610395
 10
19.975504299633325
 20
38.33600537831464
 10
20.000873587814667
 20
38.46352153534808
 10
20.031744103144515
 20
38.589818733934095
 10
20.06805786403413
 20
38.71465976027343
 10
20.109746665287503
 20
38.837810135577215
 10
20.15673220620562
 20
38.9590385564695
 10
20.208926237652356
 20
39.07811732942565
 10
20.26623072780565
 20
39.19482279843066
 10
20.32853804628275
 20
39.30893576505409
 10
20.39573116629365
 20
39.42024190015277
 10
20.46768388444303
 20
39.52853214642787
 10
20.54426105776785
 20
39.63360311108027
 10
20.625318857565475
 20
39.73525744782679
 10
20.71070503953543
 20
39.83330422755973
 10
20.800259229727576
 20
39.92755929695356
 10
20.89381322575949
 20
40.01784562434517
 10
20.9911913127374
 20
40.10399363223816
 10
21.092210593287206
 20
40.18584151580643
 10
21.092210593287206
 20
48.0
 10
-1.059328720387498e-05
 20
48.0
  0
LWPOLYLINE
  5
62
330
17
100
AcDbEntity
  8
BRACKET_OUTLINE
100
AcDbPolyline
 90
87
 70
1
 10
-1.059328720387498e-05
 20
42.825
 10
0.04423733457048584
 20
42.78762013756228
 10
0.08386527177205849
 20
42.74537371962288
 10
0.11834139028087165
 20
42.698827715625455
 10
0.14720300221275195
 20
42.64860679774998
 10
0.17006276935400777
 20
42.59538495747918
 10
0.18661390144665901
 20
42.53987646027368
 10
0.19663427347723328
 20
42.482826259748784
 10
0.19998940671279897
 20
42.425
 10
0.19998940671279897
 20
41.625
 10
9.846436016119522
 20
41.625
 10
9.864614390375248
 20
41.64147591804405
 10
9.884320153161259
 20
41.656090707779
 10
9.905363527209662
 20
41.66870362079045
 10
9.927541853324886
 20
41.67919318783119
 10
9.950641542102542
 20
41.687458388636415
 10
9.974440130912125
 20
41.69341962480417
 10
9.998708426333767
 20
41.69701948637142
 10
10.02321271141616
 20
41.69822330470336
 10
10.047716996498547
 20
41.69701948637142
 10
10.071985291920189
 20
41.69341962480417
 10
10.095783880729773
 20
41.687458388636415
 10
10.118883569507428
 20
41.67919318783119
 10
10.14106189562266
 20
41.66870362079045
 10
10.162105269671056
 20
41.656090707779
 10
10.181811032457073
 20
41.64147591804405
 10
10.199989406712799
 20
41.625
 10
10.216465324756843
 20
41.606821625744274
 10
10.2310801144918
 20
41.587115862958264
 10
10.243693027503252
 20
41.56607248890987
 10
10.25418259454398
 20
41.543894162794636
 10
10.262447795349214
 20
41.52079447401698
 10
10.268409031516963
 20
41.4969958852074
 10
10.272008893084209
 20
41.472727589785755
 10
10.27321271141616
 20
41.44822330470336
 10
10.272008893084209
 20
41.423719019620975
 10
10.268409031516963
 20
41.39945072419933
 10
10.262447795349214
 20
41.37565213538975
 10
10.25418259454398
 20
41.352552446612094
 10
10.243693027503252
 20
41.33037412049686
 10
10.2310801144918
 20
41.30933074644847
 10
10.216465324756843
 20
41.289624983662456
 10
10.199989406712799
 20
41.27144660940673
 10
10.199989406712799
 20
40.378553390593275
 10
10.216465324756843
 20
40.36037501633755
 10
10.2310801144918
 20
40.34066925355154
 10
10.243693027503252
 20
40.319625879503135
 10
10.25418259454398
 20
40.29744755338791
 10
10.262447795349214
 20
40.274347864610256
 10
10.268409031516963
 20
40.25054927580067
 10
10.272008893084209
 20
40.22628098037903
 10
10.27321271141616
 20
40.20177669529664
 10
10.272008893084209
 20
40.17727241021425
 10
10.268409031516963
 20
40.15300411479261
 10
10.262447795349214
 20
40.129205525983025
 10
10.25418259454398
 20
40.10610583720536
 10
10.243693027503252
 20
40.08392751109014
 10
10.2310801144918
 20
40.062884137041735
 10
10.216465324756843
 20
40.043178374255724
 10
10.199989406712799
 20
40.025
 10
10.181811032457073
 20
40.008524081955954
 10
10.162105269671056
 20
39.993909292221005
 10
10.14106189562266
 20
39.98129637920955
 10
10.118883569507428
 20
39.97080681216882
 10
10.095783880729773
 20
39.962541611363584
 10
10.071985291920189
 20
39.95658037519583
 10
10.047716996498547
 20
39.95298051362859
 10
10.02321271141616
 20
39.95177669529664
 10
9.998708426333767
 20
39.95298051362859
 10
9.974440130912125
 20
39.95658037519583
 10
9.950641542102542
 20
39.962541611363584
 10
9.927541853324886
 20
39.97080681216882
 10
9.905363527209662
 20
39.98129637920955
 10
9.884320153161259
 20
39.993909292221005
 10
9.864614390375248
 20
40.008524081955954
 10
9.846436016119522
 20
40.025
 10
0.19998940671279897
 20
40.025
 10
0.19998940671279897
 20
39.225
 10
0.19663427347723328
 20
39.167173740251215
 10
0.18661390144665901
 20
39.11012353972632
 10
0.17006276935400777
 20
39.054615042520815
 10
0.14720300221275195
 20
39.00139320225002
 10
0.11834139028087165
 20
38.95117228437454
 10
0.08386527177205849
 20
38.904626280377116
 10
0.04423733457048584
 20
38.86237986243772
 10
-1.059328720387498e-05
 20
38.825
 10
-1.059328720387498e-05
 20
42.825
  0
LWPOLYLINE
  5
63
330
17
100
AcDbEntity
  8
BRACKET_OUTLINE
100
AcDbPolyline
 90
87
 70
1
 10
-1.059328720387498e-05
 20
27.2
 10
0.04423733457048584
 20
27.16262013756228
 10
0.08386527177205849
 20
27.120373719622883
 10
0.11834139028087165
 20
27.073827715625455
 10
0.14720300221275195
 20
27.023606797749977
 10
0.17006276935400777
 20
26.970384957479187
 10
0.18661390144665901
 20
26.914876460273682
 10
0.19663427347723328
 20
26.857826259748784
 10
0.19998940671279897
 20
26.8
 10
0.19998940671279897
 20
26.0
 10
9.846436016119522
 20
26.0
 10
9.864614390375248
 20
26.016475918044048
 10
9.884320153161259
 20
26.031090707779
 10
9.905363527209662
 20
26.043703620790453
 10
9.927541853324886
 20
26.054193187831185
 10
9.950641542102542
 20
26.062458388636415
 10
9.974440130912125
 20
26.06841962480417
 10
9.998708426333767
 20
26.072019486371413
 10
10.02321271141616
 20
26.073223304703365
 10
10.047716996498547
 20
26.072019486371413
 10
10.071985291920189
 20
26.06841962480417
 10
10.095783880729773
 20
26.062458388636415
 10
10.118883569507428
 20
26.054193187831185
 10
10.14106189562266
 20
26.043703620790453
 10
10.162105269671056
 20
26.031090707779
 10
10.181811032457073
 20
26.016475918044048
 10
10.199989406712799
 20
26.0
 10
10.216465324756843
 20
25.981821625744274
 10
10.2310801144918
 20
25.962115862958264
 10
10.243693027503252
 20
25.941072488909864
 10
10.25418259454398
 20
25.918894162794636
 10
10.262447795349214
 20
25.89579447401698
 10
10.268409031516963
 20
25.871995885207397
 10
10.272008893084209
 20
25.847727589785755
 10
10.27321271141616
 20
25.823223304703365
 10
10.272008893084209
 20
25.798719019620975
 10
10.268409031516963
 20
25.774450724199333
 10
10.262447795349214
 20
25.75065213538975
 10
10.25418259454398
 20
25.72755244661209
 10
10.243693027503252
 20
25.705374120496863
 10
10.2310801144918
 20
25.684330746448463
 10
10.216465324756843
 20
25.664624983662453
 10
10.199989406712799
 20
25.646446609406727
 10
10.199989406712799
 20
24.753553390593275
 10
10.216465324756843
 20
24.73537501633755
 10
10.2310801144918
 20
24.71566925355154
 10
10.243693027503252
 20
24.694625879503135
 10
10.25418259454398
 20
24.67244755338791
 10
10.262447795349214
 20
24.649347864610252
 10
10.268409031516963
 20
24.62554927580067
 10
10.272008893084209
 20
24.601280980379027
 10
10.27321271141616
 20
24.576776695296637
 10
10.272008893084209
 20
24.552272410214247
 10
10.268409031516963
 20
24.528004114792605
 10
10.262447795349214
 20
24.50420552598302
 10
10.25418259454398
 20
24.481105837205366
 10
10.243693027503252
 20
24.45892751109014
 10
10.2310801144918
 20
24.43788413704174
 10
10.216465324756843
 20
24.418178374255724
 10
10.199989406712799
 20
24.400000000000002
 10
10.181811032457073
 20
24.383524081955954
 10
10.162105269671056
 20
24.368909292221
 10
10.14106189562266
 20
24.35629637920955
 10
10.118883569507428
 20
24.345806812168817
 10
10.095783880729773
 20
24.337541611363584
 10
10.071985291920189
 20
24.33158037519583
 10
10.047716996498547
 20
24.32798051362859
 10
10.02321271141616
 20
24.326776695296637
 10
9.998708426333767
 20
24.32798051362859
 10
9.974440130912125
 20
24.33158037519583
 10
9.950641542102542
 20
24.337541611363584
 10
9.927541853324886
 20
24.345806812168817
 10
9.905363527209662
 20
24.35629637920955
 10
9.884320153161259
 20
24.368909292221
 10
9.864614390375248
 20
24.383524081955954
 10
9.846436016119522
 20
24.400000000000002
 10
0.19998940671279897
 20
24.4
 10
0.19998940671279897
 20
23.599999999999998
 10
0.19663427347723328
 20
23.542173740251215
 10
0.18661390144665901
 20
23.48512353972632
 10
0.17006276935400777
 20
23.429615042520812
 10
0.14720300221275195
 20
23.37639320225002
 10
0.11834139028087165
 20
23.326172284374543
 10
0.08386527177205849
 20
23.279626280377116
 10
0.04423733457048584
 20
23.23737986243772
 10
-1.059328720387498e-05
 20
23.2
 10
-1.059328720387498e-05
 20
27.2
  0
LWPOLYLINE
  5
64
330
17
100
AcDbEntity
  8
BRACKET_OUTLINE
100
AcDbPolyline
 90
87
 70
1
 10
-1.059328720387498e-05
 20
10.950000000000003
 10
0.04423733457048584
 20
10.912620137562286
 10
0.08386527177205849
 20
10.87037371962289
 10
0.11834139028087165
 20
10.823827715625463
 10
0.14720300221275195
 20
10.773606797749984
 10
0.17006276935400777
 20
10.72038495747919
 10
0.18661390144665901
 20
10.664876460273682
 10
0.19663427347723328
 20
10.607826259748784
 10
0.19998940671279897
 20
10.550000000000004
 10
0.19998940671279897
 20
9.75
 10
9.846436016119522
 20
9.750000000000007
 10
9.864614390375248
 20
9.766475918044051
 10
9.884320153161259
 20
9.781090707779
 10
9.905363527209662
 20
9.793703620790453
 10
9.927541853324886
 20
9.804193187831189
 10
9.950641542102542
 20
9.812458388636422
 10
9.974440130912125
 20
9.818419624804172
 10
9.998708426333767
 20
9.822019486371417
 10
10.02321271141616
 20
9.823223304703369
 10
10.047716996498547
 20
9.822019486371417
 10
10.071985291920189
 20
9.818419624804172
 10
10.095783880729773
 20
9.812458388636422
 10
10.118883569507428
 20
9.804193187831189
 10
10.14106189562266
 20
9.793703620790453
 10
10.162105269671056
 20
9.781090707779
 10
10.181811032457073
 20
9.766475918044051
 10
10.199989406712799
 20
9.750000000000007
 10
10.216465324756843
 20
9.731821625744281
 10
10.2310801144918
 20
9.712115862958271
 10
10.243693027503252
 20
9.691072488909867
 10
10.25418259454398
 20
9.668894162794636
 10
10.262447795349214
 20
9.64579447401698
 10
10.268409031516963
 20
9.621995885207397
 10
10.272008893084209
 20
9.597727589785755
 10
10.27321271141616
 20
9.573223304703369
 10
10.272008893084209
 20
9.548719019620975
 10
10.268409031516963
 20
9.524450724199333
 10
10.262447795349214
 20
9.50065213538975
 10
10.25418259454398
 20
9.477552446612094
 10
10.243693027503252
 20
9.45537412049687
 10
10.2310801144918
 20
9.434330746448467
 10
10.216465324756843
 20
9.414624983662456
 10
10.199989406712799
 20
9.39644660940673
 10
10.199989406712799
 20
8.503553390593275
 10
10.216465324756843
 20
8.48537501633755
 10
10.2310801144918
 20
8.465669253551539
 10
10.243693027503252
 20
8.444625879503143
 10
10.25418259454398
 20
8.422447553387912
 10
10.262447795349214
 20
8.399347864610256
 10
10.268409031516963
 20
8.375549275800672
 10
10.272008893084209
 20
8.35128098037903
 10
10.27321271141616
 20
8.326776695296644
 10
10.272008893084209
 20
8.30227241021425
 10
10.268409031516963
 20
8.278004114792608
 10
10.262447795349214
 20
8.254205525983025
 10
10.25418259454398
 20
8.23110583720537
 10
10.243693027503252
 20
8.208927511090138
 10
10.2310801144918
 20
8.187884137041742
 10
10.216465324756843
 20
8.168178374255731
 10
10.199989406712799
 20
8.150000000000006
 10
10.181811032457073
 20
8.133524081955954
 10
10.162105269671056
 20
8.118909292221005
 10
10.14106189562266
 20
8.106296379209553
 10
10.118883569507428
 20
8.095806812168817
 10
10.095783880729773
 20
8.08754161136359
 10
10.071985291920189
 20
8.081580375195834
 10
10.047716996498547
 20
8.077980513628589
 10
10.02321271141616
 20
8.076776695296644
 10
9.998708426333767
 20
8.077980513628589
 10
9.974440130912125
 20
8.081580375195834
 10
9.950641542102542
 20
8.08754161136359
 10
9.927541853324886
 20
8.095806812168817
 10
9.905363527209662
 20
8.106296379209553
 10
9.884320153161259
 20
8.118909292221005
 10
9.864614390375248
 20
8.133524081955954
 10
9.846436016119522
 20
8.150000000000006
 10
0.19998940671279897
 20
8.150000000000006
 10
0.19998940671279897
 20
7.350000000000001
 10
0.19663427347723328
 20
7.292173740251222
 10
0.18661390144665901
 20
7.235123539726324
 10
0.17006276935400777
 20
7.179615042520815
 10
0.14720300221275195
 20
7.126393202250021
 10
0.11834139028087165
 20
7.076172284374543
 10
0.08386527177205849
 20
7.029626280377116
 10
0.04423733457048584
 20
6.98737986243772
 10
-1.059328720387498e-05
 20
6.950000000000003
 10
-1.059328720387498e-05
 20
10.950000000000003
  0
LWPOLYLINE
  5
65
330
17
100
AcDbEntity
  8
BRACKET_OUTLINE
100
AcDbPolyline
 90
87
 70
1
 10
14.799989406712793
 20
48.0
 10
14.762609544275076
 20
47.95575207214231
 10
14.72036312633568
 20
47.91612413494074
 10
14.673817122338253
 20
47.881648016431924
 10
14.623596204462775
 20
47.852786404500044
 10
14.57037436419198
 20
47.82992663735879
 10
14.514865866986472
 20
47.81337550526614
 10
14.457815666461574
 20
47.80335513323556
 10
14.399989406712795
 20
47.8
 10
13.59998940671279
 20
47.8
 10
13.59998940671279
 20
38.153553390593274
 10
13.616465324756842
 20
38.13537501633755
 10
13.631080114491791
 20
38.11566925355154
 10
13.643693027503243
 20
38.094625879503134
 10
13.654182594543979
 20
38.07244755338791
 10
13.662447795349205
 20
38.049347864610255
 10
13.668409031516962
 20
38.02554927580067
 10
13.672008893084207
 20
38.00128098037903
 10
13.67321271141616
 20
37.976776695296635
 10
13.672008893084207
 20
37.95227241021425
 10
13.668409031516962
 20
37.92800411479261
 10
13.662447795349205
 20
37.90420552598302
 10
13.654182594543979
 20
37.88110583720537
 10
13.643693027503243
 20
37.85892751109014
 10
13.631080114491791
 20
37.83788413704174
 10
13.616465324756842
 20
37.81817837425572
 10
13.59998940671279
 20
37.8
 10
13.581811032457065
 20
37.78352408195595
 10
13.562105269671054
 20
37.768909292221
 10
13.541061895622658
 20
37.756296379209545
 10
13.518883569507427
 20
37.745806812168816
 10
13.495783880729771
 20
37.73754161136358
 10
13.471985291920188
 20
37.73158037519583
 10
13.447716996498546
 20
37.72798051362859
 10
13.42321271141616
 20
37.726776695296635
 10
13.398708426333766
 20
37.72798051362859
 10
13.374440130912124
 20
37.73158037519583
 10
13.35064154210254
 20
37.73754161136358
 10
13.327541853324885
 20
37.745806812168816
 10
13.305363527209654
 20
37.756296379209545
 10
13.284320153161257
 20
37.768909292221
 10
13.264614390375247
 20
37.78352408195595
 10
13.246436016119521
 20
37.8
 10
12.353542797306066
 20
37.8
 10
12.33536442305034
 20
37.78352408195595
 10
12.31565866026433
 20
37.768909292221
 10
12.294615286215926
 20
37.756296379209545
 10
12.272436960100702
 20
37.745806812168816
 10
12.249337271323046
 20
37.73754161136358
 10
12.225538682513463
 20
37.73158037519583
 10
12.20127038709182
 20
37.72798051362859
 10
12.176766102009427
 20
37.726776695296635
 10
12.15226181692704
 20
37.72798051362859
 10
12.127993521505399
 20
37.73158037519583
 10
12.104194932695815
 20
37.73754161136358
 10
12.08109524391816
 20
37.745806812168816
 10
12.058916917802929
 20
37.756296379209545
 10
12.037873543754532
 20
37.768909292221
 10
12.018167780968515
 20
37.78352408195595
 10
11.999989406712796
 20
37.8
 10
11.983513488668745
 20
37.81817837425572
 10
11.968898698933796
 20
37.83788413704174
 10
11.956285785922343
 20
37.85892751109014
 10
11.945796218881608
 20
37.88110583720537
 10
11.937531018076374
 20
37.90420552598302
 10
11.931569781908625
 20
37.92800411479261
 10
11.92796992034138
 20
37.95227241021425
 10
11.926766102009427
 20
37.976776695296635
 10
11.92796992034138
 20
38.00128098037903
 10
11.931569781908625
 20
38.02554927580067
 10
11.937531018076374
 20
38.049347864610255
 10
11.945796218881608
 20
38.07244755338791
 10
11.956285785922343
 20
38.094625879503134
 10
11.968898698933796
 20
38.11566925355154
 10
11.983513488668745
 20
38.13537501633755
 10
11.999989406712796
 20
38.153553390593274
 10
11.999989406712796
 20
47.8
 10
11.199989406712792
 20
47.8
 10
11.142163146964013
 20
47.80335513323556
 10
11.085112946439114
 20
47.81337550526614
 10
11.029604449233606
 20
47.82992663735879
 10
10.976382608962812
 20
47.852786404500044
 10
10.926161691087334
 20
47.881648016431924
 10
10.879615687089906
 20
47.91612413494074
 10
10.83736926915051
 20
47.95575207214231
 10
10.799989406712793
 20
48.0
 10
14.799989406712793
 20
48.0
  0
LWPOLYLINE
  5
66
330
17
100
AcDbEntity
  8
BRACKET_OUTLINE
100
AcDbPolyline
 90
87
 70
1
 10
10.799989406712793
 20
0.0
 10
10.83736926915051
 20
0.04424792785768972
 10
10.879615687089906
 20
0.08387586505926237
 10
10.926161691087334
 20
0.11835198356807552
 10
10.976382608962812
 20
0.14721359549995583
 10
11.029604449233606
 20
0.17007336264121165
 10
11.085112946439114
 20
0.1866244947338629
 10
11.142163146964013
 20
0.19664486676443715
 10
11.199989406712792
 20
0.20000000000000284
 10
11.999989406712796
 20
0.20000000000000284
 10
11.999989406712789
 20
9.846446609406726
 10
11.983513488668745
 20
9.864624983662452
 10
11.968898698933796
 20
9.884330746448462
 10
11.956285785922343
 20
9.905374120496866
 10
11.945796218881608
 20
9.92755244661209
 10
11.937531018076374
 20
9.950652135389745
 10
11.931569781908625
 20
9.974450724199329
 10
11.92796992034138
 20
9.998719019620971
 10
11.926766102009427
 20
10.023223304703365
 10
11.92796992034138
 20
10.047727589785751
 10
11.931569781908625
 20
10.071995885207393
 10
11.937531018076374
 20
10.095794474016976
 10
11.945796218881608
 20
10.118894162794632
 10
11.956285785922343
 20
10.141072488909863
 10
11.968898698933796
 20
10.16211586295826
 10
11.983513488668745
 20
10.181821625744277
 10
11.999989406712789
 20
10.200000000000003
 10
12.018167780968515
 20
10.216475918044047
 10
12.037873543754525
 20
10.231090707779003
 10
12.058916917802929
 20
10.243703620790455
 10
12.08109524391816
 20
10.254193187831184
 10
12.104194932695815
 20
10.262458388636418
 10
12.127993521505399
 20
10.268419624804167
 10
12.15226181692704
 20
10.272019486371413
 10
12.176766102009427
 20
10.273223304703365
 10
12.20127038709182
 20
10.272019486371413
 10
12.225538682513463
 20
10.268419624804167
 10
12.249337271323046
 20
10.262458388636418
 10
12.272436960100702
 20
10.254193187831184
 10
12.294615286215926
 20
10.243703620790455
 10
12.31565866026433
 20
10.231090707779003
 10
12.33536442305034
 20
10.216475918044047
 10
12.353542797306066
 20
10.200000000000003
 10
13.246436016119521
 20
10.200000000000003
 10
13.264614390375247
 20
10.216475918044047
 10
13.284320153161257
 20
10.231090707779003
 10
13.305363527209654
 20
10.243703620790455
 10
13.327541853324885
 20
10.254193187831184
 10
13.35064154210254
 20
10.262458388636418
 10
13.374440130912124
 20
10.268419624804167
 10
13.398708426333766
 20
10.272019486371413
 10
13.42321271141616
 20
10.273223304703365
 10
13.447716996498546
 20
10.272019486371413
 10
13.471985291920188
 20
10.268419624804167
 10
13.495783880729771
 20
10.262458388636418
 10
13.518883569507427
 20
10.254193187831184
 10
13.541061895622658
 20
10.243703620790455
 10
13.562105269671054
 20
10.231090707779003
 10
13.581811032457065
 20
10.216475918044047
 10
13.59998940671279
 20
10.200000000000003
 10
13.616465324756842
 20
10.181821625744277
 10
13.631080114491791
 20
10.16211586295826
 10
13.643693027503243
 20
10.141072488909863
 10
13.654182594543979
 20
10.118894162794632
 10
13.662447795349205
 20
10.095794474016976
 10
13.668409031516962
 20
10.071995885207393
 10
13.672008893084207
 20
10.047727589785751
 10
13.67321271141616
 20
10.023223304703365
 10
13.672008893084207
 20
9.998719019620971
 10
13.668409031516962
 20
9.974450724199329
 10
13.662447795349205
 20
9.950652135389745
 10
13.654182594543979
 20
9.92755244661209
 10
13.643693027503243
 20
9.905374120496866
 10
13.631080114491791
 20
9.884330746448462
 10
13.616465324756842
 20
9.864624983662452
 10
13.59998940671279
 20
9.846446609406726
 10
13.59998940671279
 20
0.20000000000000284
 10
14.399989406712795
 20
0.20000000000000284
 10
14.457815666461574
 20
0.19664486676443715
 10
14.514865866986472
 20
0.1866244947338629
 10
14.57037436419198
 20
0.17007336264121165
 10
14.623596204462775
 20
0.14721359549995583
 10
14.673817122338253
 20
0.11835198356807552
 10
14.72036312633568
 20
0.08387586505926237
 10
14.762609544275076
 20
0.04424792785768972
 10
14.799989406712793
 20
0.0
 10
10.799989406712793
 20
0.0
  0
LWPOLYLINE
  5
67
330
17
100
AcDbEntity
  8
BRACKET_OUTLINE
100
AcDbPolyline
 90
87
 70
1
 10
3.5999894067127975
 20
48.0
 10
3.5626095442750803
 20
47.95575207214231
 10
3.5203631263356776
 20
47.91612413494074
 10
3.4738171223382572
 20
47.881648016431924
 10
3.423596204462779
 20
47.852786404500044
 10
3.370374364191985
 20
47.82992663735879
 10
3.3148658669864766
 20
47.81337550526614
 10
3.2578156664615783
 20
47.80335513323556
 10
3.199989406712799
 20
47.8
 10
2.3999894067127947
 20
47.8
 10
2.3999894067127947
 20
44.153553390593274
 10
2.416465324756846
 20
44.13537501633755
 10
2.4310801144917953
 20
44.11566925355154
 10
2.4436930275032474
 20
44.094625879503134
 10
2.4541825945439832
 20
44.07244755338791
 10
2.4624477953492097
 20
44.049347864610255
 10
2.4684090315169662
 20
44.02554927580067
 10
2.4720088930842117
 20
44.00128098037903
 10
2.4732127114161635
 20
43.976776695296635
 10
2.4720088930842117
 20
43.95227241021425
 10
2.4684090315169662
 20
43.92800411479261
 10
2.4624477953492097
 20
43.90420552598302
 10
2.4541825945439832
 20
43.88110583720536
 10
2.4436930275032474
 20
43.85892751109014
 10
2.4310801144917953
 20
43.83788413704173
 10
2.416465324756846
 20
43.81817837425572
 10
2.3999894067127947
 20
43.8
 10
2.381811032457069
 20
43.78352408195595
 10
2.3621052696710585
 20
43.768909292221
 10
2.341061895622662
 20
43.756296379209545
 10
2.318883569507431
 20
43.745806812168816
 10
2.2957838807297755
 20
43.73754161136358
 10
2.271985291920192
 20
43.73158037519583
 10
2.24771699649855
 20
43.72798051362859
 10
2.2232127114161635
 20
43.726776695296635
 10
2.19870842633377
 20
43.72798051362859
 10
2.174440130912128
 20
43.73158037519583
 10
2.1506415421025444
 20
43.73754161136358
 10
2.127541853324889
 20
43.745806812168816
 10
2.105363527209658
 20
43.756296379209545
 10
2.0843201531612614
 20
43.768909292221
 10
2.064614390375251
 20
43.78352408195595
 10
2.046436016119525
 20
43.8
 10
1.15354279730607
 20
43.8
 10
1.1353644230503441
 20
43.78352408195595
 10
1.1156586602643337
 20
43.768909292221
 10
1.0946152862159302
 20
43.756296379209545
 10
1.0724369601007062
 20
43.745806812168816
 10
1.0493372713230507
 20
43.73754161136358
 10
1.0255386825134671
 20
43.73158037519583
 10
1.0012703870918251
 20
43.72798051362859
 10
0.9767661020094316
 20
43.726776695296635
 10
0.9522618169270451
 20
43.72798051362859
 10
0.9279935215054032
 20
43.73158037519583
 10
0.9041949326958196
 20
43.73754161136358
 10
0.8810952439181641
 20
43.745806812168816
 10
0.858916917802933
 20
43.756296379209545
 10
0.8378735437545366
 20
43.768909292221
 10
0.8181677809685262
 20
43.78352408195595
 10
0.7999894067128004
 20
43.8
 10
0.7835134886687491
 20
43.81817837425572
 10
0.7688986989337998
 20
43.83788413704173
 10
0.7562857859223477
 20
43.85892751109014
 10
0.7457962188816118
 20
43.88110583720536
 10
0.7375310180763783
 20
43.90420552598302
 10
0.7315697819086289
 20
43.92800411479261
 10
0.7279699203413834
 20
43.95227241021425
 10
0.7267661020094316
 20
43.976776695296635
 10
0.7279699203413834
 20
44.00128098037903
 10
0.7315697819086289
 20
44.02554927580067
 10
0.7375310180763783
 20
44.049347864610255
 10
0.7457962188816118
 20
44.07244755338791
 10
0.7562857859223477
 20
44.094625879503134
 10
0.7688986989337998
 20
44.11566925355154
 10
0.7835134886687491
 20
44.13537501633755
 10
0.7999894067128004
 20
44.153553390593274
 10
0.7999894067128004
 20
47.8
 10
-1.059328720387498e-05
 20
47.8
 10
-0.05783685303598318
 20
47.80335513323556
 10
-0.11488705356088147
 20
47.81337550526614
 10
-0.1703955507663899
 20
47.82992663735879
 10
-0.22361739103718392
 20
47.852786404500044
 10
-0.27383830891266214
 20
47.881648016431924
 10
-0.3203843129100896
 20
47.91612413494074
 10
-0.36263073084948516
 20
47.95575207214231
 10
-0.40001059328720245
 20
48.0
 10
3.5999894067127975
 20
48.0
  0
LWPOLYLINE
  5
68
330
17
100
AcDbEntity
  8
BRACKET_OUTLINE
100
AcDbPolyline
 90
87
 70
1
 10
-0.40001059328720245
 20
0.0
 10
-0.36263073084948516
 20
0.04424792785768972
 10
-0.3203843129100825
 20
0.08387586505926237
 10
-0.27383830891266214
 20
0.11835198356807552
 10
-0.22361739103718392
 20
0.14721359549995583
 10
-0.1703955507663899
 20
0.17007336264121165
 10
-0.11488705356088147
 20
0.1866244947338629
 10
-0.05783685303598318
 20
0.19664486676443715
 10
-1.059328720387498e-05
 20
0.20000000000000284
 10
0.7999894067128004
 20
0.20000000000000284
 10
0.7999894067128004
 20
3.8464466094067262
 10
0.7835134886687491
 20
3.864624983662452
 10
0.7688986989337998
 20
3.8843307464484624
 10
0.7562857859223477
 20
3.905374120496866
 10
0.7457962188816118
 20
3.92755244661209
 10
0.7375310180763783
 20
3.9506521353897455
 10
0.7315697819086289
 20
3.974450724199329
 10
0.7279699203413834
 20
3.998719019620971
 10
0.7267661020094316
 20
4.0232233047033645
 10
0.7279699203413834
 20
4.047727589785751
 10
0.7315697819086289
 20
4.071995885207393
 10
0.7375310180763783
 20
4.0957944740169765
 10
0.7457962188816118
 20
4.118894162794639
 10
0.7562857859223477
 20
4.141072488909863
 10
0.7688986989337998
 20
4.162115862958267
 10
0.7835134886687491
 20
4.181821625744277
 10
0.7999894067128004
 20
4.200000000000003
 10
0.8181677809685262
 20
4.216475918044047
 10
0.8378735437545366
 20
4.231090707779003
 10
0.858916917802933
 20
4.2437036207904555
 10
0.8810952439181641
 20
4.254193187831184
 10
0.9041949326958196
 20
4.262458388636418
 10
0.9279935215054032
 20
4.268419624804167
 10
0.9522618169270451
 20
4.272019486371413
 10
0.9767661020094316
 20
4.2732233047033645
 10
1.0012703870918251
 20
4.272019486371413
 10
1.0255386825134671
 20
4.268419624804167
 10
1.0493372713230507
 20
4.262458388636418
 10
1.0724369601007062
 20
4.254193187831184
 10
1.0946152862159302
 20
4.2437036207904555
 10
1.1156586602643337
 20
4.231090707779003
 10
1.1353644230503441
 20
4.216475918044047
 10
1.15354279730607
 20
4.200000000000003
 10
2.046436016119525
 20
4.200000000000003
 10
2.064614390375251
 20
4.216475918044047
 10
2.0843201531612614
 20
4.231090707779003
 10
2.105363527209658
 20
4.2437036207904555
 10
2.127541853324889
 20
4.254193187831184
 10
2.1506415421025444
 20
4.262458388636418
 10
2.174440130912128
 20
4.268419624804167
 10
2.19870842633377
 20
4.272019486371413
 10
2.2232127114161635
 20
4.2732233047033645
 10
2.24771699649855
 20
4.272019486371413
 10
2.271985291920192
 20
4.268419624804167
 10
2.2957838807297755
 20
4.262458388636418
 10
2.318883569507431
 20
4.254193187831184
 10
2.341061895622662
 20
4.2437036207904555
 10
2.3621052696710585
 20
4.231090707779003
 10
2.381811032457069
 20
4.216475918044047
 10
2.3999894067127947
 20
4.200000000000003
 10
2.416465324756846
 20
4.181821625744277
 10
2.4310801144917953
 20
4.162115862958267
 10
2.4436930275032474
 20
4.141072488909863
 10
2.4541825945439832
 20
4.118894162794639
 10
2.4624477953492097
 20
4.0957944740169765
 10
2.4684090315169662
 20
4.071995885207393
 10
2.4720088930842117
 20
4.047727589785751
 10
2.4732127114161635
 20
4.0232233047033645
 10
2.4720088930842117
 20
3.998719019620971
 10
2.4684090315169662
 20
3.974450724199329
 10
2.4624477953492097
 20
3.9506521353897455
 10
2.4541825945439832
 20
3.92755244661209
 10
2.4436930275032474
 20
3.905374120496866
 10
2.4310801144917953
 20
3.8843307464484624
 10
2.416465324756846
 20
3.864624983662452
 10
2.3999894067127947
 20
3.8464466094067262
 10
2.3999894067127947
 20
0.20000000000000284
 10
3.199989406712799
 20
0.20000000000000284
 10
3.2578156664615783
 20
0.19664486676443715
 10
3.3148658669864766
 20
0.1866244947338629
 10
3.370374364191985
 20
0.17007336264121165
 10
3.423596204462779
 20
0.14721359549995583
 10
3.4738171223382572
 20
0.11835198356807552
 10
3.5203631263356847
 20
0.08387586505926237
 10
3.5626095442750803
 20
0.04424792785768972
 10
3.5999894067127975
 20
0.0
 10
-0.40001059328720245
 20
0.0
  0
LWPOLYLINE
  5
69
330
17
100
AcDbEntity
  8
BRACKET_CUTS
100
AcDbPolyline
 90
2
 70
0
 10
0.19998940671279897
 20
40.025
 10
0.19998940671279897
 20
41.625
  0
LWPOLYLINE
  5
6A
330
17
100
AcDbEntity
  8
BRACKET_CUTS
100
AcDbPolyline
 90
2
 70
0
 10
0.19998940671279897
 20
24.4
 10
0.19998940671279897
 20
26.0
  0
LWPOLYLINE
  5
6B
330
17
100
AcDbEntity
  8
BRACKET_CUTS
100
AcDbPolyline
 90
2
 70
0
 10
0.19998940671279897
 20
8.150000000000006
 10
0.19998940671279897
 20
9.75
  0
LWPOLYLINE
  5
6C
330
17
100
AcDbEntity
  8
BRACKET_CUTS
100
AcDbPolyline
 90
2
 70
0
 10
11.999989406712796
 20
47.8
 10
13.59998940671279
 20
47.8
  0
LWPOLYLINE
  5
6D
330
17
100
AcDbEntity
  8
BRACKET_CUTS
100
AcDbPolyline
 90
2
 70
0
 10
13.59998940671279
 20
0.20000000000000284
 10
11.999989406712796
 20
0.20000000000000284
  0
LWPOLYLINE
  5
6E
330
17
100
AcDbEntity
  8
BRACKET_CUTS
100
AcDbPolyline
 90
2
 70
0
 10
0.7999894067128004
 20
47.8
 10
2.3999894067127947
 20
47.8
  0
LWPOLYLINE
  5
6F
330
17
100
AcDbEntity
  8
BRACKET_CUTS
100
AcDbPolyline
 90
2
 70
0
 10
2.3999894067127947
 20
0.20000000000000284
 10
0.7999894067128004
 20
0.20000000000000284
  0
LWPOLYLINE
  5
70
330
17
100
AcDbEntity
  8
SHELF_OUTLINE
100
AcDbPolyline
 90
110
 70
1
 10
67.92430598250965
 20
36.892700000000005
 10
67.92430598250965
 20
7.892700000000001
 10
64.08915192023375
 20
7.892700000000001
 10
64.08915192023375
 20
7.892700000000001
 10
63.86601433178967
 20
7.901009906319949
 10
63.64411291164988
 20
7.925893588917759
 10
63.42467697982346
 20
7.967213193745913
 10
63.20892219766821
 20
8.024739812774211
 10
62.998043833202665
 20
8.09815475212596
 10
62.793210139395896
 20
8.187051297622173
 10
62.595555882119044
 20
8.290936967952682
 10
62.40617605361324
 20
8.40923624299187
 10
62.226119806301
 20
8.541293752144203
 10
62.05638464054732
 20
8.686377905056418
 10
61.89791087856994
 20
8.843684944582375
 10
61.75157645511299
 20
9.01234339954745
 10
61.61819205374335
 20
9.191418912644433
 10
61.498496615714295
 20
9.379919416714628
 10
61.39315324627713
 20
9.576800630737985
 10
61.30274554111949
 20
9.780971845084704
 10
61.227774353281674
 20
9.991301963978483
 10
61.16865501846211
 20
10.20662577169648
 10
61.12571505408349
 20
10.42575038779163
 10
61.125715054082974
 20
10.425750387791549
 10
61.06153933347402
 20
10.86794372731077
 10
61.008913291910595
 20
11.310137066829991
 10
60.968541423348476
 20
11.752330406349213
 10
60.94096417765887
 20
12.194523745868437
 10
60.92655072573757
 20
12.636717085387659
 10
60.92549401749034
 20
13.07891042490688
 10
60.93780819885236
 20
13.521103764426101
 10
60.963328422419536
 20
13.963297103945322
 10
61.00171305422664
 20
14.405490443464544
 10
61.05244824713071
 20
14.847683782983768
 10
61.11485481957668
 20
15.28987712250299
 10
61.18809734766066
 20
15.732070462022211
 10
61.27119534877729
 20
16.174263801541432
 10
61.36303640713804
 20
16.616457141060653
 10
61.46239106545168
 20
17.058650480579875
 10
61.56792928341535
 20
17.500843820099096
 10
61.67823824268948
 20
17.943037159618317
 10
61.79184126000533
 20
18.38523049913754
 10
61.90721755521908
 20
18.82742383865676
 10
62.02282260968171
 20
19.269617178175984
 10
62.13710884239137
 20
19.711810517695206
 10
62.248546327140794
 20
20.154003857214427
 10
62.355643273323636
 20
20.596197196733648
 10
62.45696599622741
 20
21.03839053625287
 10
62.55115810947479
 20
21.48058387577209
 10
62.63695868268809
 20
21.922777215291312
 10
62.71321912130394
 20
22.364970554810537
 10
62.778918542571645
 20
22.807163894329758
 10
62.833177441899814
 20
23.24935723384898
 10
62.875269466602816
 20
23.6915505733682
 10
62.90463113943424
 20
24.133743912887425
 10
62.92086940174047
 20
24.575937252406646
 10
62.92376687525579
 20
25.018130591925868
 10
62.913284772100326
 20
25.46032393144509
 10
62.88956341402538
 20
25.90251727096431
 10
62.852920353955156
 20
26.34471061048353
 10
62.80384612497124
 20
26.786903950002753
 10
62.74299767364755
 20
27.229097289521974
 10
62.67118956564212
 20
27.671290629041195
 10
62.5893830812748
 20
28.11348396856042
 10
62.498673347065996
 20
28.55567730807964
 10
62.40027467550401
 20
28.997870647598862
 10
62.2955043092944
 20
29.440063987118084
 10
62.1857647877038
 20
29.882257326637305
 10
62.07252517105622
 20
30.324450666156526
 10
61.95730137472573
 20
30.766644005675747
 10
61.84163587589028
 20
31.208837345194972
 10
61.72707706470808
 20
31.651030684714193
 10
61.61515851633813
 20
32.093224024233415
 10
61.61515851645319
 20
32.093224024262064
 10
61.54411763582761
 20
32.426666347672025
 10
61.495964517454865
 20
32.76417466897992
 10
61.47092303594884
 20
33.10417983653636
 10
61.46910961475612
 20
33.44510109029545
 10
61.490532684877266
 20
33.78535341112175
 10
61.53509264566931
 20
34.12335488989855
 10
61.602582327911335
 20
34.457534082177126
 10
61.692687956980556
 20
34.78633731417331
 10
61.80499061166068
 20
35.10823590614428
 10
61.938968171800276
 20
35.42173327956252
 10
62.093997745766174
 20
35.72537191504398
 10
62.26935856640587
 20
36.01774012868162
 10
62.46423534205521
 20
36.297478635279504
 10
62.677722047011606
 20
36.563286867973595
 10
62.908826133850134
 20
36.81392902485791
 10
63.15647314799841
 20
37.04823981450392
 10
63.419511723116166
 20
37.2651298736609
 10
63.69671893405476
 20
37.463590831949276
 10
63.98680598250965
 20
37.642700000000005
 10
64.61180598250965
 20
37.642700000000005
 10
64.61180598250965
 20
37.642700000000005
 10
64.61652182508972
 20
37.55872664292252
 10
64.63061004837328
 20
37.47580929953276
 10
64.65389348477837
 20
37.39499070353362
 10
64.68607933158285
 20
37.317287195661834
 10
64.72676283308843
 20
37.2436759426135
 10
64.77543237065862
 20
37.17508264860595
 10
64.83147589661974
 20
37.11236991411009
 10
64.89418863111561
 20
37.056326388148975
 10
64.96278192512315
 20
37.00765685057879
 10
65.03639317817148
 20
36.966973349073186
 10
65.11409668604327
 20
36.934787502268726
 10
65.19491528204242
 20
36.91150406586363
 10
65.27783262543217
 20
36.897415842580074
 10
65.36180598250965
 20
36.892700000000005
 10
67.92430598250965
 20
36.892700000000005
  0
LWPOLYLINE
  5
71
330
17
100
AcDbEntity
  8
BRACKET_OUTLINE
100
AcDbPolyline
 90
87
 70
1
 10
67.92430598250965
 20
29.7177
 10
67.88005805465195
 20
29.75507986243772
 10
67.84043011745038
 20
29.797326280377117
 10
67.80595399894158
 20
29.843872284374545
 10
67.7770923870097
 20
29.894093202250023
 10
67.75423261986845
 20
29.947315042520813
 10
67.73768148777579
 20
30.00282353972632
 10
67.7276611157452
 20
30.05987374025122
 10
67.72430598250965
 20
30.1177
 10
67.72430598250965
 20
30.917700000000004
 10
64.07785937310292
 20
30.9177
 10
64.0596809988472
 20
30.901224081955952
 10
64.0399752360612
 20
30.886609292221003
 10
64.01893186201278
 20
30.87399637920955
 10
63.99675353589756
 20
30.863506812168815
 10
63.973653847119905
 20
30.855241611363585
 10
63.94985525831032
 20
30.849280375195832
 10
63.92558696288868
 20
30.84568051362859
 10
63.901082677806286
 20
30.84447669529664
 10
63.8765783927239
 20
30.84568051362859
 10
63.85231009730226
 20
30.849280375195832
 10
63.828511508492674
 20
30.855241611363585
 10
63.80541181971501
 20
30.863506812168815
 10
63.78323349359979
 20
30.87399637920955
 10
63.762190119551384
 20
30.886609292221003
 10
63.742484356765374
 20
30.901224081955952
 10
63.72430598250965
 20
30.9177
 10
63.707830064465604
 20
30.935878374255726
 10
63.69321527473065
 20
30.955584137041736
 10
63.680602361719195
 20
30.97662751109014
 10
63.67011279467847
 20
30.998805837205367
 10
63.66184759387323
 20
31.021905525983023
 10
63.655886357705484
 20
31.045704114792606
 10
63.65228649613824
 20
31.06997241021425
 10
63.651082677806286
 20
31.09447669529664
 10
63.65228649613824
 20
31.11898098037903
 10
63.655886357705484
 20
31.14324927580067
 10
63.66184759387323
 20
31.167047864610254
 10
63.67011279467847
 20
31.19014755338791
 10
63.680602361719195
 20
31.212325879503137
 10
63.69321527473065
 20
31.233369253551537
 10
63.707830064465604
 20
31.253075016337547
 10
63.72430598250965
 20
31.271253390593273
 10
63.72430598250965
 20
32.16414660940673
 10
63.707830064465604
 20
32.182324983662454
 10
63.69321527473065
 20
32.202030746448465
 10
63.680602361719195
 20
32.22307412049686
 10
63.67011279467847
 20
32.24525244661209
 10
63.66184759387323
 20
32.26835213538975
 10
63.655886357705484
 20
32.29215072419933
 10
63.65228649613824
 20
32.31641901962097
 10
63.651082677806286
 20
32.34092330470337
 10
63.65228649613824
 20
32.36542758978575
 10
63.655886357705484
 20
32.389695885207395
 10
63.66184759387323
 20
32.41349447401698
 10
63.67011279467847
 20
32.436594162794634
 10
63.680602361719195
 20
32.458772488909865
 10
63.69321527473065
 20
32.47981586295826
 10
63.707830064465604
 20
32.49952162574428
 10
63.72430598250965
 20
32.517700000000005
 10
63.742484356765374
 20
32.53417591804405
 10
63.762190119551384
 20
32.548790707779006
 10
63.78323349359979
 20
32.56140362079046
 10
63.80541181971501
 20
32.571893187831186
 10
63.828511508492674
 20
32.58015838863642
 10
63.85231009730226
 20
32.58611962480417
 10
63.8765783927239
 20
32.589719486371415
 10
63.901082677806286
 20
32.59092330470337
 10
63.92558696288868
 20
32.589719486371415
 10
63.94985525831032
 20
32.58611962480417
 10
63.973653847119905
 20
32.58015838863642
 10
63.99675353589756
 20
32.571893187831186
 10
64.01893186201278
 20
32.56140362079046
 10
64.0399752360612
 20
32.548790707779006
 10
64.0596809988472
 20
32.53417591804405
 10
64.07785937310292
 20
32.517700000000005
 10
67.72430598250965
 20
32.517700000000005
 10
67.72430598250965
 20
33.3177
 10
67.7276611157452
 20
33.37552625974878
 10
67.73768148777579
 20
33.43257646027368
 10
67.75423261986845
 20
33.48808495747919
 10
67.7770923870097
 20
33.54130679774998
 10
67.80595399894158
 20
33.59152771562546
 10
67.84043011745038
 20
33.63807371962288
 10
67.88005805465195
 20
33.68032013756228
 10
67.92430598250965
 20
33.7177
 10
67.92430598250965
 20
29.7177
  0
LWPOLYLINE
  5
72
330
17
100
AcDbEntity
  8
BRACKET_OUTLINE
100
AcDbPolyline
 90
87
 70
1
 10
67.92430598250965
 20
18.2177
 10
67.88005805465195
 20
18.25507986243772
 10
67.84043011745038
 20
18.297326280377117
 10
67.80595399894158
 20
18.343872284374545
 10
67.7770923870097
 20
18.394093202250023
 10
67.75423261986845
 20
18.447315042520813
 10
67.73768148777579
 20
18.502823539726318
 10
67.7276611157452
 20
18.559873740251216
 10
67.72430598250965
 20
18.6177
 10
67.72430598250965
 20
19.4177
 10
64.07785937310292
 20
19.4177
 10
64.0596809988472
 20
19.401224081955952
 10
64.0399752360612
 20
19.386609292221
 10
64.01893186201278
 20
19.373996379209547
 10
63.99675353589756
 20
19.363506812168815
 10
63.973653847119905
 20
19.355241611363585
 10
63.94985525831032
 20
19.34928037519583
 10
63.92558696288868
 20
19.345680513628587
 10
63.901082677806286
 20
19.34447669529664
 10
63.8765783927239
 20
19.345680513628587
 10
63.85231009730226
 20
19.34928037519583
 10
63.828511508492674
 20
19.355241611363585
 10
63.80541181971501
 20
19.363506812168815
 10
63.78323349359979
 20
19.373996379209547
 10
63.762190119551384
 20
19.386609292221
 10
63.742484356765374
 20
19.401224081955952
 10
63.72430598250965
 20
19.4177
 10
63.707830064465604
 20
19.435878374255726
 10
63.69321527473065
 20
19.455584137041736
 10
63.680602361719195
 20
19.476627511090136
 10
63.67011279467847
 20
19.498805837205364
 10
63.66184759387323
 20
19.521905525983023
 10
63.655886357705484
 20
19.545704114792606
 10
63.65228649613824
 20
19.56997241021425
 10
63.651082677806286
 20
19.59447669529664
 10
63.65228649613824
 20
19.61898098037903
 10
63.655886357705484
 20
19.64324927580067
 10
63.66184759387323
 20
19.667047864610254
 10
63.67011279467847
 20
19.69014755338791
 10
63.680602361719195
 20
19.712325879503137
 10
63.69321527473065
 20
19.733369253551537
 10
63.707830064465604
 20
19.753075016337547
 10
63.72430598250965
 20
19.771253390593273
 10
63.72430598250965
 20
20.66414660940673
 10
63.707830064465604
 20
20.68232498366245
 10
63.69321527473065
 20
20.702030746448465
 10
63.680602361719195
 20
20.723074120496864
 10
63.67011279467847
 20
20.745252446612092
 10
63.66184759387323
 20
20.768352135389748
 10
63.655886357705484
 20
20.79215072419933
 10
63.65228649613824
 20
20.816419019620973
 10
63.651082677806286
 20
20.840923304703363
 10
63.65228649613824
 20
20.865427589785753
 10
63.655886357705484
 20
20.889695885207395
 10
63.66184759387323
 20
20.91349447401698
 10
63.67011279467847
 20
20.936594162794634
 10
63.680602361719195
 20
20.958772488909865
 10
63.69321527473065
 20
20.97981586295826
 10
63.707830064465604
 20
20.999521625744276
 10
63.72430598250965
 20
21.0177
 10
63.742484356765374
 20
21.03417591804405
 10
63.762190119551384
 20
21.048790707779
 10
63.78323349359979
 20
21.06140362079045
 10
63.80541181971501
 20
21.071893187831186
 10
63.828511508492674
 20
21.080158388636416
 10
63.85231009730226
 20
21.08611962480417
 10
63.8765783927239
 20
21.089719486371415
 10
63.901082677806286
 20
21.090923304703363
 10
63.92558696288868
 20
21.089719486371415
 10
63.94985525831032
 20
21.08611962480417
 10
63.973653847119905
 20
21.080158388636416
 10
63.99675353589756
 20
21.071893187831186
 10
64.01893186201278
 20
21.06140362079045
 10
64.0399752360612
 20
21.048790707779
 10
64.0596809988472
 20
21.03417591804405
 10
64.07785937310292
 20
21.0177
 10
67.72430598250965
 20
21.0177
 10
67.72430598250965
 20
21.817700000000002
 10
67.7276611157452
 20
21.87552625974878
 10
67.73768148777579
 20
21.93257646027368
 10
67.75423261986845
 20
21.988084957479188
 10
67.7770923870097
 20
22.041306797749982
 10
67.80595399894158
 20
22.09152771562546
 10
67.84043011745038
 20
22.138073719622884
 10
67.88005805465195
 20
22.180320137562283
 10
67.92430598250965
 20
22.2177
 10
67.92430598250965
 20
18.2177
  0
LWPOLYLINE
  5
73
330
17
100
AcDbEntity
  8
BRACKET_OUTLINE
100
AcDbPolyline
 90
87
 70
1
 10
67.92430598250965
 20
9.067700000000002
 10
67.88005805465195
 20
9.105079862437723
 10
67.84043011745038
 20
9.147326280377118
 10
67.80595399894158
 20
9.193872284374546
 10
67.7770923870097
 20
9.244093202250024
 10
67.75423261986845
 20
9.297315042520815
 10
67.73768148777579
 20
9.35282353972632
 10
67.7276611157452
 20
9.409873740251218
 10
67.72430598250965
 20
9.4677
 10
67.72430598250965
 20
10.267700000000001
 10
64.07785937310292
 20
10.267700000000001
 10
64.0596809988472
 20
10.251224081955954
 10
64.0399752360612
 20
10.236609292221
 10
64.01893186201278
 20
10.223996379209549
 10
63.99675353589756
 20
10.213506812168816
 10
63.973653847119905
 20
10.205241611363586
 10
63.94985525831032
 20
10.19928037519583
 10
63.92558696288868
 20
10.195680513628588
 10
63.901082677806286
 20
10.19447669529664
 10
63.8765783927239
 20
10.195680513628588
 10
63.85231009730226
 20
10.19928037519583
 10
63.828511508492674
 20
10.205241611363586
 10
63.80541181971501
 20
10.213506812168816
 10
63.78323349359979
 20
10.223996379209549
 10
63.762190119551384
 20
10.236609292221
 10
63.742484356765374
 20
10.251224081955954
 10
63.72430598250965
 20
10.267700000000001
 10
63.707830064465604
 20
10.285878374255727
 10
63.69321527473065
 20
10.305584137041738
 10
63.680602361719195
 20
10.326627511090138
 10
63.67011279467847
 20
10.348805837205365
 10
63.66184759387323
 20
10.371905525983024
 10
63.655886357705484
 20
10.395704114792608
 10
63.65228649613824
 20
10.41997241021425
 10
63.651082677806286
 20
10.44447669529664
 10
63.65228649613824
 20
10.46898098037903
 10
63.655886357705484
 20
10.493249275800672
 10
63.66184759387323
 20
10.517047864610255
 10
63.67011279467847
 20
10.54014755338791
 10
63.680602361719195
 20
10.562325879503138
 10
63.69321527473065
 20
10.583369253551538
 10
63.707830064465604
 20
10.603075016337549
 10
63.72430598250965
 20
10.621253390593274
 10
63.72430598250965
 20
11.51414660940673
 10
63.707830064465604
 20
11.532324983662452
 10
63.69321527473065
 20
11.552030746448466
 10
63.680602361719195
 20
11.573074120496866
 10
63.67011279467847
 20
11.595252446612093
 10
63.66184759387323
 20
11.618352135389749
 10
63.655886357705484
 20
11.642150724199333
 10
63.65228649613824
 20
11.666419019620974
 10
63.651082677806286
 20
11.690923304703364
 10
63.65228649613824
 20
11.715427589785754
 10
63.655886357705484
 20
11.739695885207396
 10
63.66184759387323
 20
11.76349447401698
 10
63.67011279467847
 20
11.78659416279464
 10
63.680602361719195
 20
11.808772488909863
 10
63.69321527473065
 20
11.829815862958267
 10
63.707830064465604
 20
11.849521625744277
 10
63.72430598250965
 20
11.867700000000003
 10
63.742484356765374
 20
11.88417591804405
 10
63.762190119551384
 20
11.898790707779
 10
63.78323349359979
 20
11.911403620790455
 10
63.80541181971501
 20
11.921893187831188
 10
63.828511508492674
 20
11.930158388636418
 10
63.85231009730226
 20
11.936119624804174
 10
63.8765783927239
 20
11.939719486371413
 10
63.901082677806286
 20
11.940923304703364
 10
63.92558696288868
 20
11.939719486371413
 10
63.94985525831032
 20
11.936119624804174
 10
63.973653847119905
 20
11.930158388636418
 10
63.99675353589756
 20
11.921893187831188
 10
64.01893186201278
 20
11.911403620790455
 10
64.0399752360612
 20
11.898790707779
 10
64.0596809988472
 20
11.88417591804405
 10
64.07785937310292
 20
11.867700000000003
 10
67.72430598250965
 20
11.867700000000003
 10
67.72430598250965
 20
12.667700000000004
 10
67.7276611157452
 20
12.725526259748786
 10
67.73768148777579
 20
12.782576460273681
 10
67.75423261986845
 20
12.83808495747919
 10
67.7770923870097
 20
12.89130679774998
 10
67.80595399894158
 20
12.941527715625458
 10
67.84043011745038
 20
12.988073719622886
 10
67.88005805465195
 20
13.030320137562281
 10
67.92430598250965
 20
13.067700000000002
 10
67.92430598250965
 20
9.067700000000002
  0
LWPOLYLINE
  5
74
330
17
100
AcDbEntity
  8
BRACKET_CUTS
100
AcDbPolyline
 90
2
 70
0
 10
67.72430598250965
 20
32.517700000000005
 10
67.72430598250965
 20
30.917700000000004
  0
LWPOLYLINE
  5
75
330
17
100
AcDbEntity
  8
BRACKET_CUTS
100
AcDbPolyline
 90
2
 70
0
 10
67.72430598250965
 20
21.0177
 10
67.72430598250965
 20
19.4177
  0
LWPOLYLINE
  5
76
330
17
100
AcDbEntity
  8
BRACKET_CUTS
100
AcDbPolyline
 90
2
 70
0
 10
67.72430598250965
 20
11.867700000000003
 10
67.72430598250965
 20
10.267700000000001
  0
LWPOLYLINE
  5
77
330
17
100
AcDbEntity
  8
SHELF_OUTLINE
100
AcDbPolyline
 90
110
 70
1
 10
68.85156084503068
 20
7.529499999999999
 10
68.85156084503068
 20
36.5295
 10
71.28285220162732
 20
36.5295
 10
71.28285220162732
 20
36.5295
 10
71.4989821727662
 20
36.52170451098776
 10
71.71398891802828
 20
36.49835855705034
 10
71.92675504893334
 20
36.45958346693933
 10
72.13617482145769
 20
36.405580754514006
 10
72.34115988257749
 20
36.33663107147527
 10
72.5406449264317
 20
36.25309274882079
 10
72.73359323070864
 20
36.15539993460149
 10
72.91900204448437
 20
36.044060337657235
 10
73.09590779951186
 20
35.91965258905777
 10
73.26339111787809
 20
35.782823234961256
 10
73.42058159000436
 20
35.634283376518624
 10
73.56666229815846
 20
35.474804974286144
 10
73.70087406197021
 20
35.30521683635199
 10
73.82251938388619
 20
35.12640031102674
 10
73.93096607405947
 20
34.93928470648267
 10
74.02565053583562
 20
34.744842461145915
 10
74.10608069476035
 20
34.544084089941194
 10
74.17183855588692
 20
34.33805293265304
 10
74.22258237609273
 20
34.12781973169669
 10
74.22258237609253
 20
34.12781973169665
 10
74.32326667882671
 20
33.65551805366102
 10
74.43201773255248
 20
33.18321637562539
 10
74.54717497062612
 20
32.710914697589764
 10
74.66698000761797
 20
32.23861301955414
 10
74.78960348885636
 20
31.76631134151851
 10
74.91317302363146
 20
31.294009663482882
 10
75.0358017755348
 20
30.821707985447254
 10
75.15561727337645
 20
30.349406307411627
 10
75.27079000275354
 20
29.877104629376
 10
75.37956134169305
 20
29.404802951340372
 10
75.48027041380759
 20
28.932501273304744
 10
75.57137944893175
 20
28.460199595269117
 10
75.65149726399663
 20
27.98789791723349
 10
75.71940050560278
 20
27.51559623919786
 10
75.77405232992987
 20
27.04329456116223
 10
75.81461823475112
 20
26.570992883126603
 10
75.84047880180704
 20
26.098691205090976
 10
75.85123915496932
 20
25.62638952705535
 10
75.84673498977449
 20
25.15408784901972
 10
75.82703508225941
 20
24.681786170984093
 10
75.79244023879042
 20
24.209484492948466
 10
75.7434787029214
 20
23.73718281491284
 10
75.68089808941562
 20
23.26488113687721
 10
75.60565396859427
 20
22.792579458841583
 10
75.5188952753218
 20
22.320277780805956
 10
75.42194676542506
 20
21.84797610277033
 10
75.3162887874265
 20
21.375674424734697
 10
75.20353467846539
 20
20.90337274669907
 10
75.08540612955866
 20
20.431071068663442
 10
74.96370689635988
 20
19.958769390627815
 10
74.84029525683782
 20
19.486467712592187
 10
74.71705563643037
 20
19.01416603455656
 10
74.59586983394155
 20
18.541864356520932
 10
74.4785882875456
 20
18.069562678485305
 10
74.36700181965027
 20
17.597261000449677
 10
74.2628142920585
 20
17.12495932241405
 10
74.16761658896947
 20
16.652657644378422
 10
74.0828623250829
 20
16.180355966342795
 10
74.00984564973075
 20
15.708054288307167
 10
73.94968148595396
 20
15.23575261027154
 10
73.90328850626274
 20
14.763450932235912
 10
73.87137510503067
 20
14.291149254200285
 10
73.85442858171608
 20
13.818847576164657
 10
73.85270770007692
 20
13.34654589812903
 10
73.8662387369956
 20
12.874244220093402
 10
73.89481508124588
 20
12.401942542057775
 10
73.93800038832869
 20
11.929640864022147
 10
73.99513524320405
 20
11.45733918598652
 10
74.06534722918309
 20
10.985037507950894
 10
74.06534722901478
 20
10.985037507923664
 10
74.09791942367437
 20
10.747794001100303
 10
74.11909502362239
 20
10.509263031702972
 10
74.12882545590399
 20
10.269991746166237
 10
74.12708840068647
 20
10.030528989074533
 10
74.11388784245692
 20
9.791424044213041
 10
74.08925406088254
 20
9.553225374611102
 10
74.0532435613546
 20
9.316479364468297
 10
74.00593894537545
 20
9.081729065848993
 10
73.94744872108568
 20
8.849512953020183
 10
73.8779070543664
 20
8.620363687289972
 10
73.79747346108718
 20
8.394806895179912
 10
73.70633244120577
 20
8.17335996273386
 10
73.60469305555901
 20
7.9565308487289865
 10
73.49278844631543
 20
7.744816919511212
 10
73.37087530218976
 20
7.538703808127725
 10
73.23923326964594
 20
7.338664300373576
 10
73.09816431143929
 20
7.145157250307488
 10
72.94799201396911
 20
6.958626527724537
 10
72.78906084503068
 20
6.779499999999999
 10
72.16406084503068
 20
6.779499999999999
 10
72.16406084503068
 20
6.779499999999999
 10
72.1593450024506
 20
6.8634733570774795
 10
72.14525677916704
 20
6.946390700467235
 10
72.12197334276196
 20
7.027209296466374
 10
72.0897874959575
 20
7.104912804338168
 10
72.0491039944519
 20
7.1785240573865
 10
72.0004344568817
 20
7.247117351394049
 10
71.94439093092059
 20
7.30983008588991
 10
71.88167819642473
 20
7.365873611851022
 10
71.81308490241719
 20
7.4145431494212115
 10
71.73947364936885
 20
7.455226650926813
 10
71.66177014149706
 20
7.487412497731274
 10
71.58095154549791
 20
7.510695934136367
 10
71.49803420210816
 20
7.52478415741993
 10
71.41406084503068
 20
7.529499999999999
 10
68.85156084503068
 20
7.529499999999999
  0
LWPOLYLINE
  5
78
330
17
100
AcDbEntity
  8
BRACKET_OUTLINE
100
AcDbPolyline
 90
87
 70
1
 10
68.85156084503068
 20
14.7045
 10
68.89580877288837
 20
14.667120137562279
 10
68.93543671008995
 20
14.624873719622883
 10
68.96991282859875
 20
14.578327715625456
 10
68.99877444053064
 20
14.528106797749977
 10
69.0216342076719
 20
14.474884957479185
 10
69.03818533976454
 20
14.419376460273678
 10
69.04820571179512
 20
14.362326259748782
 10
69.05156084503068
 20
14.304499999999999
 10
69.05156084503068
 20
13.504499999999998
 10
72.6980074544374
 20
13.5045
 10
72.71618582869313
 20
13.520975918044046
 10
72.73589159147915
 20
13.535590707778997
 10
72.75693496552755
 20
13.548203620790451
 10
72.77911329164277
 20
13.558693187831183
 10
72.80221298042042
 20
13.566958388636415
 10
72.82601156923
 20
13.57291962480417
 10
72.85027986465165
 20
13.57651948637141
 10
72.87478414973404
 20
13.577723304703362
 10
72.89928843481643
 20
13.57651948637141
 10
72.92355673023808
 20
13.57291962480417
 10
72.94735531904766
 20
13.566958388636415
 10
72.97045500782532
 20
13.558693187831183
 10
72.99263333394055
 20
13.548203620790451
 10
73.01367670798895
 20
13.535590707778997
 10
73.03338247077495
 20
13.520975918044046
 10
73.05156084503068
 20
13.5045
 10
73.06803676307473
 20
13.486321625744274
 10
73.08265155280968
 20
13.466615862958264
 10
73.09526446582113
 20
13.44557248890986
 10
73.10575403286187
 20
13.423394162794635
 10
73.1140192336671
 20
13.400294474016977
 10
73.11998046983484
 20
13.376495885207394
 10
73.1235803314021
 20
13.352227589785752
 10
73.12478414973404
 20
13.327723304703362
 10
73.1235803314021
 20
13.303219019620972
 10
73.11998046983484
 20
13.27895072419933
 10
73.1140192336671
 20
13.255152135389746
 10
73.10575403286187
 20
13.23205244661209
 10
73.09526446582113
 20
13.209874120496863
 10
73.08265155280968
 20
13.188830746448462
 10
73.06803676307473
 20
13.169124983662451
 10
73.05156084503068
 20
13.150946609406725
 10
73.05156084503068
 20
12.258053390593272
 10
73.06803676307473
 20
12.239875016337546
 10
73.08265155280968
 20
12.220169253551536
 10
73.09526446582113
 20
12.199125879503136
 10
73.10575403286187
 20
12.176947553387908
 10
73.1140192336671
 20
12.15384786461025
 10
73.11998046983484
 20
12.130049275800667
 10
73.1235803314021
 20
12.105780980379025
 10
73.12478414973404
 20
12.081276695296635
 10
73.1235803314021
 20
12.056772410214245
 10
73.11998046983484
 20
12.032504114792603
 10
73.1140192336671
 20
12.00870552598302
 10
73.10575403286187
 20
11.985605837205362
 10
73.09526446582113
 20
11.963427511090137
 10
73.08265155280968
 20
11.942384137041735
 10
73.06803676307473
 20
11.922678374255725
 10
73.05156084503068
 20
11.904499999999999
 10
73.03338247077495
 20
11.888024081955951
 10
73.01367670798895
 20
11.873409292220998
 10
72.99263333394055
 20
11.860796379209546
 10
72.97045500782532
 20
11.850306812168814
 10
72.94735531904766
 20
11.842041611363584
 10
72.92355673023808
 20
11.836080375195827
 10
72.89928843481643
 20
11.832480513628585
 10
72.87478414973404
 20
11.831276695296635
 10
72.85027986465165
 20
11.832480513628585
 10
72.82601156923
 20
11.836080375195827
 10
72.80221298042042
 20
11.842041611363584
 10
72.77911329164277
 20
11.850306812168814
 10
72.75693496552755
 20
11.860796379209546
 10
72.73589159147915
 20
11.873409292220998
 10
72.71618582869313
 20
11.888024081955951
 10
72.6980074544374
 20
11.904499999999999
 10
69.05156084503068
 20
11.904499999999999
 10
69.05156084503068
 20
11.104499999999998
 10
69.04820571179512
 20
11.046673740251215
 10
69.03818533976454
 20
10.989623539726317
 10
69.0216342076719
 20
10.934115042520812
 10
68.99877444053064
 20
10.88089320225002
 10
68.96991282859875
 20
10.830672284374542
 10
68.93543671008995
 20
10.784126280377116
 10
68.89580877288837
 20
10.741879862437717
 10
68.85156084503068
 20
10.7045
 10
68.85156084503068
 20
14.7045
  0
LWPOLYLINE
  5
79
330
17
100
AcDbEntity
  8
BRACKET_OUTLINE
100
AcDbPolyline
 90
87
 70
1
 10
68.85156084503068
 20
26.2045
 10
68.89580877288837
 20
26.16712013756228
 10
68.93543671008995
 20
26.124873719622883
 10
68.96991282859875
 20
26.078327715625456
 10
68.99877444053064
 20
26.028106797749977
 10
69.0216342076719
 20
25.974884957479187
 10
69.03818533976454
 20
25.919376460273682
 10
69.04820571179512
 20
25.862326259748784
 10
69.05156084503068
 20
25.8045
 10
69.05156084503068
 20
25.0045
 10
72.6980074544374
 20
25.0045
 10
72.71618582869313
 20
25.020975918044048
 10
72.73589159147915
 20
25.035590707779
 10
72.75693496552755
 20
25.048203620790453
 10
72.77911329164277
 20
25.058693187831185
 10
72.80221298042042
 20
25.066958388636415
 10
72.82601156923
 20
25.07291962480417
 10
72.85027986465165
 20
25.076519486371414
 10
72.87478414973404
 20
25.077723304703362
 10
72.89928843481643
 20
25.076519486371414
 10
72.92355673023808
 20
25.07291962480417
 10
72.94735531904766
 20
25.066958388636415
 10
72.97045500782532
 20
25.058693187831185
 10
72.99263333394055
 20
25.048203620790453
 10
73.01367670798895
 20
25.035590707779
 10
73.03338247077495
 20
25.020975918044048
 10
73.05156084503068
 20
25.0045
 10
73.06803676307473
 20
24.986321625744274
 10
73.08265155280968
 20
24.966615862958264
 10
73.09526446582113
 20
24.945572488909864
 10
73.10575403286187
 20
24.923394162794636
 10
73.1140192336671
 20
24.900294474016977
 10
73.11998046983484
 20
24.876495885207394
 10
73.1235803314021
 20
24.852227589785752
 10
73.12478414973404
 20
24.827723304703362
 10
73.1235803314021
 20
24.803219019620972
 10
73.11998046983484
 20
24.77895072419933
 10
73.1140192336671
 20
24.755152135389746
 10
73.10575403286187
 20
24.73205244661209
 10
73.09526446582113
 20
24.709874120496863
 10
73.08265155280968
 20
24.688830746448463
 10
73.06803676307473
 20
24.669124983662453
 10
73.05156084503068
 20
24.650946609406727
 10
73.05156084503068
 20
23.758053390593272
 10
73.06803676307473
 20
23.73987501633755
 10
73.08265155280968
 20
23.720169253551536
 10
73.09526446582113
 20
23.699125879503136
 10
73.10575403286187
 20
23.676947553387908
 10
73.1140192336671
 20
23.653847864610253
 10
73.11998046983484
 20
23.63004927580067
 10
73.1235803314021
 20
23.605780980379027
 10
73.12478414973404
 20
23.581276695296637
 10
73.1235803314021
 20
23.556772410214247
 10
73.11998046983484
 20
23.532504114792605
 10
73.1140192336671
 20
23.50870552598302
 10
73.10575403286187
 20
23.485605837205362
 10
73.09526446582113
 20
23.46342751109014
 10
73.08265155280968
 20
23.442384137041735
 10
73.06803676307473
 20
23.422678374255725
 10
73.05156084503068
 20
23.4045
 10
73.03338247077495
 20
23.388024081955955
 10
73.01367670798895
 20
23.373409292220998
 10
72.99263333394055
 20
23.360796379209546
 10
72.97045500782532
 20
23.350306812168817
 10
72.94735531904766
 20
23.342041611363584
 10
72.92355673023808
 20
23.336080375195827
 10
72.89928843481643
 20
23.33248051362859
 10
72.87478414973404
 20
23.331276695296637
 10
72.85027986465165
 20
23.33248051362859
 10
72.82601156923
 20
23.336080375195827
 10
72.80221298042042
 20
23.342041611363584
 10
72.77911329164277
 20
23.350306812168817
 10
72.75693496552755
 20
23.360796379209546
 10
72.73589159147915
 20
23.373409292220998
 10
72.71618582869313
 20
23.388024081955955
 10
72.6980074544374
 20
23.4045
 10
69.05156084503068
 20
23.4045
 10
69.05156084503068
 20
22.6045
 10
69.04820571179512
 20
22.546673740251215
 10
69.03818533976454
 20
22.489623539726317
 10
69.0216342076719
 20
22.434115042520816
 10
68.99877444053064
 20
22.38089320225002
 10
68.96991282859875
 20
22.330672284374543
 10
68.93543671008995
 20
22.284126280377116
 10
68.89580877288837
 20
22.24187986243772
 10
68.85156084503068
 20
22.2045
 10
68.85156084503068
 20
26.2045
  0
LWPOLYLINE
  5
7A
330
17
100
AcDbEntity
  8
BRACKET_OUTLINE
100
AcDbPolyline
 90
87
 70
1
 10
68.85156084503068
 20
35.3545
 10
68.89580877288837
 20
35.31712013756228
 10
68.93543671008995
 20
35.27487371962288
 10
68.96991282859875
 20
35.228327715625454
 10
68.99877444053064
 20
35.178106797749976
 10
69.0216342076719
 20
35.12488495747918
 10
69.03818533976454
 20
35.06937646027368
 10
69.04820571179512
 20
35.01232625974878
 10
69.05156084503068
 20
34.954499999999996
 10
69.05156084503068
 20
34.1545
 10
72.6980074544374
 20
34.1545
 10
72.71618582869313
 20
34.17097591804405
 10
72.73589159147915
 20
34.185590707779
 10
72.75693496552755
 20
34.19820362079045
 10
72.77911329164277
 20
34.20869318783119
 10
72.80221298042042
 20
34.216958388636414
 10
72.82601156923
 20
34.22291962480417
 10
72.85027986465165
 20
34.226519486371416
 10
72.87478414973404
 20
34.22772330470336
 10
72.89928843481643
 20
34.226519486371416
 10
72.92355673023808
 20
34.22291962480417
 10
72.94735531904766
 20
34.216958388636414
 10
72.97045500782532
 20
34.20869318783119
 10
72.99263333394055
 20
34.19820362079045
 10
73.01367670798895
 20
34.185590707779
 10
73.03338247077495
 20
34.17097591804405
 10
73.05156084503068
 20
34.1545
 10
73.06803676307473
 20
34.13632162574427
 10
73.08265155280968
 20
34.11661586295826
 10
73.09526446582113
 20
34.095572488909866
 10
73.10575403286187
 20
34.073394162794635
 10
73.1140192336671
 20
34.05029447401698
 10
73.11998046983484
 20
34.026495885207396
 10
73.1235803314021
 20
34.00222758978575
 10
73.12478414973404
 20
33.97772330470336
 10
73.1235803314021
 20
33.953219019620974
 10
73.11998046983484
 20
33.928950724199325
 10
73.1140192336671
 20
33.90515213538974
 10
73.10575403286187
 20
33.88205244661209
 10
73.09526446582113
 20
33.85987412049686
 10
73.08265155280968
 20
33.838830746448465
 10
73.06803676307473
 20
33.81912498366245
 10
73.05156084503068
 20
33.80094660940672
 10
73.05156084503068
 20
32.90805339059327
 10
73.06803676307473
 20
32.88987501633755
 10
73.08265155280968
 20
32.87016925355154
 10
73.09526446582113
 20
32.849125879503134
 10
73.10575403286187
 20
32.82694755338791
 10
73.1140192336671
 20
32.80384786461025
 10
73.11998046983484
 20
32.780049275800664
 10
73.1235803314021
 20
32.75578098037903
 10
73.12478414973404
 20
32.731276695296636
 10
73.1235803314021
 20
32.70677241021424
 10
73.11998046983484
 20
32.68250411479261
 10
73.1140192336671
 20
32.658705525983024
 10
73.10575403286187
 20
32.63560583720536
 10
73.09526446582113
 20
32.61342751109014
 10
73.08265155280968
 20
32.59238413704173
 10
73.06803676307473
 20
32.57267837425572
 10
73.05156084503068
 20
32.5545
 10
73.03338247077495
 20
32.53802408195595
 10
73.01367670798895
 20
32.523409292221004
 10
72.99263333394055
 20
32.510796379209545
 10
72.97045500782532
 20
32.500306812168816
 10
72.94735531904766
 20
32.49204161136358
 10
72.92355673023808
 20
32.486080375195826
 10
72.89928843481643
 20
32.48248051362859
 10
72.87478414973404
 20
32.481276695296636
 10
72.85027986465165
 20
32.48248051362859
 10
72.82601156923
 20
32.486080375195826
 10
72.80221298042042
 20
32.49204161136358
 10
72.77911329164277
 20
32.500306812168816
 10
72.75693496552755
 20
32.510796379209545
 10
72.73589159147915
 20
32.523409292221004
 10
72.71618582869313
 20
32.53802408195595
 10
72.6980074544374
 20
32.5545
 10
69.05156084503068
 20
32.5545
 10
69.05156084503068
 20
31.754499999999997
 10
69.04820571179512
 20
31.696673740251214
 10
69.03818533976454
 20
31.63962353972632
 10
69.0216342076719
 20
31.58411504252081
 10
68.99877444053064
 20
31.53089320225002
 10
68.96991282859875
 20
31.480672284374542
 10
68.93543671008995
 20
31.434126280377114
 10
68.89580877288837
 20
31.39187986243772
 10
68.85156084503068
 20
31.354499999999998
 10
68.85156084503068
 20
35.3545
  0
LWPOLYLINE
  5
7B
330
17
100
AcDbEntity
  8
BRACKET_CUTS
100
AcDbPolyline
 90
2
 70
0
 10
69.05156084503068
 20
11.904499999999999
 10
69.05156084503068
 20
13.504499999999998
  0
LWPOLYLINE
  5
7C
330
17
100
AcDbEntity
  8
BRACKET_CUTS
100
AcDbPolyline
 90
2
 70
0
 10
69.05156084503068
 20
23.4045
 10
69.05156084503068
 20
25.0045
  0
LWPOLYLINE
  5
7D
330
17
100
AcDbEntity
  8
BRACKET_CUTS
100
AcDbPolyline
 90
2
 70
0
 10
69.05156084503068
 20
32.5545
 10
69.05156084503068
 20
34.1545
  0
ENDSEC
  0
SECTION
  2
OBJECTS
  0
DICTIONARY
  5
A
330
0
100
AcDbDictionary
281
1
  3
ACAD_COLOR
350
B
  3
ACAD_GROUP
350
C
  3
ACAD_LAYOUT
350
D
  3
ACAD_MATERIAL
350
E
  3
ACAD_MLEADERSTYLE
350
F
  3
ACAD_MLINESTYLE
350
10
  3
ACAD_PLOTSETTINGS
350
11
  3
ACAD_PLOTSTYLENAME
350
12
  3
ACAD_SCALELIST
350
14
  3
ACAD_TABLESTYLE
350
15
  3
ACAD_VISUALSTYLE
350
16
  3
EZDXF_META
350
2D
  0
DICTIONARY
  5
B
330
A
100
AcDbDictionary
281
1
  0
DICTIONARY
  5
C
330
A
100
AcDbDictionary
281
1
  0
DICTIONARY
  5
D
330
A
100
AcDbDictionary
281
1
  3
Model
350
1A
  3
Layout1
350
1E
  0
DICTIONARY
  5
E
330
A
100
AcDbDictionary
281
1
  3
ByBlock
350
1F
  3
ByLayer
350
20
  3
Global
350
21
  0
DICTIONARY
  5
F
330
A
100
AcDbDictionary
281
1
  3
Standard
350
2C
  0
DICTIONARY
  5
10
330
A
100
AcDbDictionary
281
1
  3
Standard
350
22
  0
DICTIONARY
  5
11
330
A
100
AcDbDictionary
281
1
  0
ACDBDICTIONARYWDFLT
  5
12
330
A
100
AcDbDictionary
281
1
  3
Normal
350
13
100
AcDbDictionaryWithDefault
340
13
  0
ACDBPLACEHOLDER
  5
13
330
12
  0
DICTIONARY
  5
14
330
A
100
AcDbDictionary
281
1
  0
DICTIONARY
  5
15
330
A
100
AcDbDictionary
281
1
  0
DICTIONARY
  5
16
330
A
100
AcDbDictionary
281
1
  0
LAYOUT
  5
1A
330
D
100
AcDbPlotSettings
  1

  4
A3
  6

 40
7.5
 41
20.0
 42
7.5
 43
20.0
 44
420.0
 45
297.0
 46
0.0
 47
0.0
 48
0.0
 49
0.0
140
0.0
141
0.0
142
1.0
143
1.0
 70
1024
 72
1
 73
0
 74
5
  7

 75
16
 76
0
 77
2
 78
300
147
1.0
148
0.0
149
0.0
100
AcDbLayout
  1
Model
 70
1
 71
0
 10
0.0
 20
0.0
 11
420.0
 21
297.0
 12
0.0
 22
0.0
 32
0.0
 14
1e+20
 24
1e+20
 34
1e+20
 15
-1e+20
 25
-1e+20
 35
-1e+20
146
0.0
 13
0.0
 23
0.0
 33
0.0
 16
1.0
 26
0.0
 36
0.0
 17
0.0
 27
1.0
 37
0.0
 76
1
330
17
  0
LAYOUT
  5
1E
330
D
100
AcDbPlotSettings
  1

  4
A3
  6

 40
7.5
 41
20.0
 42
7.5
 43
20.0
 44
420.0
 45
297.0
 46
0.0
 47
0.0
 48
0.0
 49
0.0
140
0.0
141
0.0
142
1.0
143
1.0
 70
0
 72
1
 73
0
 74
5
  7

 75
16
 76
0
 77
2
 78
300
147
1.0
148
0.0
149
0.0
100
AcDbLayout
  1
Layout1
 70
1
 71
1
 10
0.0
 20
0.0
 11
420.0
 21
297.0
 12
0.0
 22
0.0
 32
0.0
 14
1e+20
 24
1e+20
 34
1e+20
 15
-1e+20
 25
-1e+20
 35
-1e+20
146
0.0
 13
0.0
 23
0.0
 33
0.0
 16
1.0
 26
0.0
 36
0.0
 17
0.0
 27
1.0
 37
0.0
 76
1
330
1B
  0
MATERIAL
  5
1F
102
{ACAD_REACTORS
330
E
102
}
330
E
100
AcDbMaterial
  1
ByBlock
  2

 70
0
 40
1.0
 71
1
 41
1.0
 91
-1023410177
 42
1.0
 72
1
  3

 73
1
 74
1
 75
1
 44
0.5
 73
0
 45
1.0
 46
1.0
 77
1
  4

 78
1
 79
1
170
1
 48
1.0
171
1
  6

172
1
173
1
174
1
140
1.0
141
1.0
175
1
  7

176
1
177
1
178
1
143
1.0
179
1
  8

270
1
271
1
272
1
145
1.0
146
1.0
273
1
  9

274
1
275
1
276
1
 42
1.0
 72
1
  3

 73
1
 74
1
 75
1
 94
63
  0
MATERIAL
  5
20
102
{ACAD_REACTORS
330
E
102
}
330
E
100
AcDbMaterial
  1
ByLayer
  2

 70
0
 40
1.0
 71
1
 41
1.0
 91
-1023410177
 42
1.0
 72
1
  3

 73
1
 74
1
 75
1
 44
0.5
 73
0
 45
1.0
 46
1.0
 77
1
  4

 78
1
 79
1
170
1
 48
1.0
171
1
  6

172
1
173
1
174
1
140
1.0
141
1.0
175
1
  7

176
1
177
1
178
1
143
1.0
179
1
  8

270
1
271
1
272
1
145
1.0
146
1.0
273
1
  9

274
1
275
1
276
1
 42
1.0
 72
1
  3

 73
1
 74
1
 75
1
 94
63
  0
MATERIAL
  5
21
102
{ACAD_REACTORS
330
E
102
}
330
E
100
AcDbMaterial
  1
Global
  2

 70
0
 40
1.0
 71
1
 41
1.0
 91
-1023410177
 42
1.0
 72
1
  3

 73
1
 74
1
 75
1
 44
0.5
 73
0
 45
1.0
 46
1.0
 77
1
  4

 78
1
 79
1
170
1
 48
1.0
171
1
  6

172
1
173
1
174
1
140
1.0
141
1.0
175
1
  7

176
1
177
1
178
1
143
1.0
179
1
  8

270
1
271
1
272
1
145
1.0
146
1.0
273
1
  9

274
1
275
1
276
1
 42
1.0
 72
1
  3

 73
1
 74
1
 75
1
 94
63
  0
MLINESTYLE
  5
22
102
{ACAD_REACTORS
330
10
102
}
330
10
100
AcDbMlineStyle
  2
Standard
 70
0
  3

 62
256
 51
90.0
 52
90.0
 71
2
 49
0.5
 62
256
  6
BYLAYER
 49
-0.5
 62
256
  6
BYLAYER
  0
MLEADERSTYLE
  5
2C
102
{ACAD_REACTORS
330
F
102
}
330
F
100
AcDbMLeaderStyle
179
2
170
2
171
1
172
0
 90
2
 40
0.0
 41
0.0
173
1
 91
-1056964608
 92
-2
290
1
 42
2.0
291
1
 43
8.0
  3
Standard
 44
4.0
300

342
29
174
1
175
1
176
0
178
1
 93
-1056964608
 45
4.0
292
0
297
0
 46
4.0
 94
-1056964608
 47
1.0
 49
1.0
140
1.0
294
1
141
0.0
177
0
142
1.0
295
0
296
0
143
3.75
271
0
272
9
273
9
  0
DICTIONARY
  5
2D
330
A
100
AcDbDictionary
280
1
281
1
  3
CREATED_BY_EZDXF
350
2E
  3
WRITTEN_BY_EZDXF
350
80
  0
DICTIONARYVAR
  5
2E
330
2D
100
DictionaryVariables
280
0
  1
1.4.3 @ 2026-03-26T18:26:43.879337+00:00
  0
DICTIONARYVAR
  5
80
330
2D
100
DictionaryVariables
280
0
  1
1.4.3 @ 2026-03-26T18:26:43.900196+00:00
  0
ENDSEC
  0
EOF
