  0
SECTION
  2
HEADER
  9
$ACADVER
  1
AC1024
  9
$ACADMAINTVER
 70
6
  9
$DWGCODEPAGE
  3
ANSI_1252
  9
$LASTSAVEDBY
  1
ezdxf
  9
$INSBASE
 10
0.0
 20
0.0
 30
0.0
  9
$EXTMIN
 10
1e+20
 20
1e+20
 30
1e+20
  9
$EXTMAX
 10
-1e+20
 20
-1e+20
 30
-1e+20
  9
$LIMMIN
 10
0.0
 20
0.0
  9
$LIMMAX
 10
420.0
 20
297.0
  9
$ORTHOMODE
 70
0
  9
$REGENMODE
 70
1
  9
$FILLMODE
 70
1
  9
$QTEXTMODE
 70
0
  9
$MIRRTEXT
 70
1
  9
$LTSCALE
 40
1.0
  9
$ATTMODE
 70
1
  9
$TEXTSIZE
 40
2.5
  9
$TRACEWID
 40
1.0
  9
$TEXTSTYLE
  7
Standard
  9
$CLAYER
  8
0
  9
$CELTYPE
  6
ByLayer
  9
$CECOLOR
 62
256
  9
$CELTSCALE
 40
1.0
  9
$DISPSILH
 70
0
  9
$DIMSCALE
 40
1.0
  9
$DIMASZ
 40
2.5
  9
$DIMEXO
 40
0.625
  9
$DIMDLI
 40
3.75
  9
$DIMRND
 40
0.0
  9
$DIMDLE
 40
0.0
  9
$DIMEXE
 40
1.25
  9
$DIMTP
 40
0.0
  9
$DIMTM
 40
0.0
  9
$DIMTXT
 40
2.5
  9
$DIMCEN
 40
2.5
  9
$DIMTSZ
 40
0.0
  9
$DIMTOL
 70
0
  9
$DIMLIM
 70
0
  9
$DIMTIH
 70
0
  9
$DIMTOH
 70
0
  9
$DIMSE1
 70
0
  9
$DIMSE2
 70
0
  9
$DIMTAD
 70
1
  9
$DIMZIN
 70
8
  9
$DIMBLK
  1

  9
$DIMASO
 70
1
  9
$DIMSHO
 70
1
  9
$DIMPOST
  1

  9
$DIMAPOST
  1

  9
$DIMALT
 70
0
  9
$DIMALTD
 70
3
  9
$DIMALTF
 40
0.03937007874
  9
$DIMLFAC
 40
1.0
  9
$DIMTOFL
 70
1
  9
$DIMTVP
 40
0.0
  9
$DIMTIX
 70
0
  9
$DIMSOXD
 70
0
  9
$DIMSAH
 70
0
  9
$DIMBLK1
  1

  9
$DIMBLK2
  1

  9
$DIMSTYLE
  2
ISO-25
  9
$DIMCLRD
 70
0
  9
$DIMCLRE
 70
0
  9
$DIMCLRT
 70
0
  9
$DIMTFAC
 40
1.0
  9
$DIMGAP
 40
0.625
  9
$DIMJUST
 70
0
  9
$DIMSD1
 70
0
  9
$DIMSD2
 70
0
  9
$DIMTOLJ
 70
0
  9
$DIMTZIN
 70
8
  9
$DIMALTZ
 70
0
  9
$DIMALTTZ
 70
0
  9
$DIMUPT
 70
0
  9
$DIMDEC
 70
2
  9
$DIMTDEC
 70
2
  9
$DIMALTU
 70
2
  9
$DIMALTTD
 70
3
  9
$DIMTXSTY
  7
Standard
  9
$DIMAUNIT
 70
0
  9
$DIMADEC
 70
0
  9
$DIMALTRND
 40
0.0
  9
$DIMAZIN
 70
0
  9
$DIMDSEP
 70
44
  9
$DIMATFIT
 70
3
  9
$DIMFRAC
 70
0
  9
$DIMLDRBLK
  1

  9
$DIMLUNIT
 70
2
  9
$DIMLWD
 70
-2
  9
$DIMLWE
 70
-2
  9
$DIMTMOVE
 70
0
  9
$DIMFXL
 40
1.0
  9
$DIMFXLON
 70
0
  9
$DIMJOGANG
 40
0.785398163397
  9
$DIMTFILL
 70
0
  9
$DIMTFILLCLR
 70
0
  9
$DIMARCSYM
 70
0
  9
$DIMLTYPE
  6

  9
$DIMLTEX1
  6

  9
$DIMLTEX2
  6

  9
$DIMTXTDIRECTION
 70
0
  9
$LUNITS
 70
2
  9
$LUPREC
 70
4
  9
$SKETCHINC
 40
1.0
  9
$FILLETRAD
 40
10.0
  9
$AUNITS
 70
0
  9
$AUPREC
 70
2
  9
$MENU
  1
.
  9
$ELEVATION
 40
0.0
  9
$PELEVATION
 40
0.0
  9
$THICKNESS
 40
0.0
  9
$LIMCHECK
 70
0
  9
$CHAMFERA
 40
0.0
  9
$CHAMFERB
 40
0.0
  9
$CHAMFERC
 40
0.0
  9
$CHAMFERD
 40
0.0
  9
$SKPOLY
 70
0
  9
$TDCREATE
 40
2461135.7526041665
  9
$TDUCREATE
 40
2458532.153996898
  9
$TDUPDATE
 40
2461135.7526041665
  9
$TDUUPDATE
 40
2458532.1544311
  9
$TDINDWG
 40
0.0
  9
$TDUSRTIMER
 40
0.0
  9
$USRTIMER
 70
1
  9
$ANGBASE
 50
0.0
  9
$ANGDIR
 70
0
  9
$PDMODE
 70
0
  9
$PDSIZE
 40
0.0
  9
$PLINEWID
 40
0.0
  9
$SPLFRAME
 70
0
  9
$SPLINETYPE
 70
6
  9
$SPLINESEGS
 70
8
  9
$HANDSEED
  5
65
  9
$SURFTAB1
 70
6
  9
$SURFTAB2
 70
6
  9
$SURFTYPE
 70
6
  9
$SURFU
 70
6
  9
$SURFV
 70
6
  9
$UCSBASE
  2

  9
$UCSNAME
  2

  9
$UCSORG
 10
0.0
 20
0.0
 30
0.0
  9
$UCSXDIR
 10
1.0
 20
0.0
 30
0.0
  9
$UCSYDIR
 10
0.0
 20
1.0
 30
0.0
  9
$UCSORTHOREF
  2

  9
$UCSORTHOVIEW
 70
0
  9
$UCSORGTOP
 10
0.0
 20
0.0
 30
0.0
  9
$UCSORGBOTTOM
 10
0.0
 20
0.0
 30
0.0
  9
$UCSORGLEFT
 10
0.0
 20
0.0
 30
0.0
  9
$UCSORGRIGHT
 10
0.0
 20
0.0
 30
0.0
  9
$UCSORGFRONT
 10
0.0
 20
0.0
 30
0.0
  9
$UCSORGBACK
 10
0.0
 20
0.0
 30
0.0
  9
$PUCSBASE
  2

  9
$PUCSNAME
  2

  9
$PUCSORG
 10
0.0
 20
0.0
 30
0.0
  9
$PUCSXDIR
 10
1.0
 20
0.0
 30
0.0
  9
$PUCSYDIR
 10
0.0
 20
1.0
 30
0.0
  9
$PUCSORTHOREF
  2

  9
$PUCSORTHOVIEW
 70
0
  9
$PUCSORGTOP
 10
0.0
 20
0.0
 30
0.0
  9
$PUCSORGBOTTOM
 10
0.0
 20
0.0
 30
0.0
  9
$PUCSORGLEFT
 10
0.0
 20
0.0
 30
0.0
  9
$PUCSORGRIGHT
 10
0.0
 20
0.0
 30
0.0
  9
$PUCSORGFRONT
 10
0.0
 20
0.0
 30
0.0
  9
$PUCSORGBACK
 10
0.0
 20
0.0
 30
0.0
  9
$USERI1
 70
0
  9
$USERI2
 70
0
  9
$USERI3
 70
0
  9
$USERI4
 70
0
  9
$USERI5
 70
0
  9
$USERR1
 40
0.0
  9
$USERR2
 40
0.0
  9
$USERR3
 40
0.0
  9
$USERR4
 40
0.0
  9
$USERR5
 40
0.0
  9
$WORLDVIEW
 70
1
  9
$SHADEDGE
 70
3
  9
$SHADEDIF
 70
70
  9
$TILEMODE
 70
1
  9
$MAXACTVP
 70
64
  9
$PINSBASE
 10
0.0
 20
0.0
 30
0.0
  9
$PLIMCHECK
 70
0
  9
$PEXTMIN
 10
1e+20
 20
1e+20
 30
1e+20
  9
$PEXTMAX
 10
-1e+20
 20
-1e+20
 30
-1e+20
  9
$PLIMMIN
 10
0.0
 20
0.0
  9
$PLIMMAX
 10
420.0
 20
297.0
  9
$UNITMODE
 70
0
  9
$VISRETAIN
 70
1
  9
$PLINEGEN
 70
0
  9
$PSLTSCALE
 70
1
  9
$TREEDEPTH
 70
3020
  9
$CMLSTYLE
  2
Standard
  9
$CMLJUST
 70
0
  9
$CMLSCALE
 40
20.0
  9
$PROXYGRAPHICS
 70
1
  9
$MEASUREMENT
 70
1
  9
$CELWEIGHT
370
-1
  9
$ENDCAPS
280
0
  9
$JOINSTYLE
280
0
  9
$LWDISPLAY
290
0
  9
$INSUNITS
 70
1
  9
$HYPERLINKBASE
  1

  9
$STYLESHEET
  1

  9
$XEDIT
290
1
  9
$CEPSNTYPE
380
0
  9
$PSTYLEMODE
290
1
  9
$FINGERPRINTGUID
  2
{4F908FAE-4952-4784-BD83-038D6CE748FD}
  9
$VERSIONGUID
  2
{ACC1B4DE-A729-48C7-B213-830A60B315D3}
  9
$EXTNAMES
290
1
  9
$PSVPSCALE
 40
0.0
  9
$OLESTARTUP
290
0
  9
$SORTENTS
280
127
  9
$INDEXCTL
280
0
  9
$HIDETEXT
280
1
  9
$XCLIPFRAME
280
1
  9
$HALOGAP
280
0
  9
$OBSCOLOR
 70
257
  9
$OBSLTYPE
280
0
  9
$INTERSECTIONDISPLAY
280
0
  9
$INTERSECTIONCOLOR
 70
257
  9
$DIMASSOC
280
2
  9
$PROJECTNAME
  1

  9
$CAMERADISPLAY
290
0
  9
$LENSLENGTH
 40
50.0
  9
$CAMERAHEIGHT
 40
0.0
  9
$STEPSPERSEC
 40
24.0
  9
$STEPSIZE
 40
100.0
  9
$3DDWFPREC
 40
2.0
  9
$PSOLWIDTH
 40
0.005
  9
$PSOLHEIGHT
 40
0.08
  9
$LOFTANG1
 40
1.570796326795
  9
$LOFTANG2
 40
1.570796326795
  9
$LOFTMAG1
 40
0.0
  9
$LOFTMAG2
 40
0.0
  9
$LOFTPARAM
 70
7
  9
$LOFTNORMALS
280
1
  9
$LATITUDE
 40
37.795
  9
$LONGITUDE
 40
-122.394
  9
$NORTHDIRECTION
 40
0.0
  9
$TIMEZONE
 70
-8000
  9
$LIGHTGLYPHDISPLAY
280
1
  9
$TILEMODELIGHTSYNCH
280
1
  9
$CMATERIAL
347
20
  9
$SOLIDHIST
280
0
  9
$SHOWHIST
280
1
  9
$DWFFRAME
280
2
  9
$DGNFRAME
280
2
  9
$REALWORLDSCALE
290
1
  9
$INTERFERECOLOR
 62
256
  9
$CSHADOW
280
0
  9
$SHADOWPLANELOCATION
 40
0.0
  0
ENDSEC
  0
SECTION
  2
CLASSES
  0
CLASS
  1
ACDBDICTIONARYWDFLT
  2
AcDbDictionaryWithDefault
  3
ObjectDBX Classes
 90
0
 91
0
280
0
281
0
  0
CLASS
  1
SUN
  2
AcDbSun
  3
SCENEOE
 90
1153
 91
0
280
0
281
0
  0
CLASS
  1
VISUALSTYLE
  2
AcDbVisualStyle
  3
ObjectDBX Classes
 90
4095
 91
0
280
0
281
0
  0
CLASS
  1
MATERIAL
  2
AcDbMaterial
  3
ObjectDBX Classes
 90
1153
 91
0
280
0
281
0
  0
CLASS
  1
SCALE
  2
AcDbScale
  3
ObjectDBX Classes
 90
1153
 91
0
280
0
281
0
  0
CLASS
  1
TABLESTYLE
  2
AcDbTableStyle
  3
ObjectDBX Classes
 90
4095
 91
0
280
0
281
0
  0
CLASS
  1
MLEADERSTYLE
  2
AcDbMLeaderStyle
  3
ACDB_MLEADERSTYLE_CLASS
 90
4095
 91
0
280
0
281
0
  0
CLASS
  1
DICTIONARYVAR
  2
AcDbDictionaryVar
  3
ObjectDBX Classes
 90
0
 91
0
280
0
281
0
  0
CLASS
  1
CELLSTYLEMAP
  2
AcDbCellStyleMap
  3
ObjectDBX Classes
 90
1152
 91
0
280
0
281
0
  0
CLASS
  1
MENTALRAYRENDERSETTINGS
  2
AcDbMentalRayRenderSettings
  3
SCENEOE
 90
1024
 91
0
280
0
281
0
  0
CLASS
  1
ACDBDETAILVIEWSTYLE
  2
AcDbDetailViewStyle
  3
ObjectDBX Classes
 90
1025
 91
0
280
0
281
0
  0
CLASS
  1
ACDBSECTIONVIEWSTYLE
  2
AcDbSectionViewStyle
  3
ObjectDBX Classes
 90
1025
 91
0
280
0
281
0
  0
CLASS
  1
RASTERVARIABLES
  2
AcDbRasterVariables
  3
ISM
 90
0
 91
0
280
0
281
0
  0
CLASS
  1
ACDBPLACEHOLDER
  2
AcDbPlaceHolder
  3
ObjectDBX Classes
 90
0
 91
0
280
0
281
0
  0
CLASS
  1
LAYOUT
  2
AcDbLayout
  3
ObjectDBX Classes
 90
0
 91
0
280
0
281
0
  0
ENDSEC
  0
SECTION
  2
TABLES
  0
TABLE
  2
VPORT
  5
8
330
0
100
AcDbSymbolTable
 70
1
  0
VPORT
  5
23
330
8
100
AcDbSymbolTableRecord
100
AcDbViewportTableRecord
  2
*Active
 70
0
 10
0.0
 20
0.0
 11
1.0
 21
1.0
 12
0.0
 22
0.0
 13
0.0
 23
0.0
 14
0.5
 24
0.5
 15
0.5
 25
0.5
 16
0.0
 26
0.0
 36
1.0
 17
0.0
 27
0.0
 37
0.0
 40
1000.0
 41
1.34
 42
50.0
 43
0.0
 44
0.0
 50
0.0
 51
0.0
 71
0
 72
1000
 73
1
 74
3
 75
0
 76
0
 77
0
 78
0
281
0
 65
0
146
0.0
  0
ENDTAB
  0
TABLE
  2
LTYPE
  5
2
330
0
100
AcDbSymbolTable
 70
3
  0
LTYPE
  5
24
330
2
100
AcDbSymbolTableRecord
100
AcDbLinetypeTableRecord
  2
ByBlock
 70
0
  3

 72
65
 73
0
 40
0.0
  0
LTYPE
  5
25
330
2
100
AcDbSymbolTableRecord
100
AcDbLinetypeTableRecord
  2
ByLayer
 70
0
  3

 72
65
 73
0
 40
0.0
  0
LTYPE
  5
26
330
2
100
AcDbSymbolTableRecord
100
AcDbLinetypeTableRecord
  2
Continuous
 70
0
  3

 72
65
 73
0
 40
0.0
  0
ENDTAB
  0
TABLE
  2
LAYER
  5
1
330
0
100
AcDbSymbolTable
 70
3
  0
LAYER
  5
27
330
1
100
AcDbSymbolTableRecord
100
AcDbLayerTableRecord
  2
0
 70
0
 62
7
  6
Continuous
370
-3
390
13
347
21
  0
LAYER
  5
28
330
1
100
AcDbSymbolTableRecord
100
AcDbLayerTableRecord
  2
Defpoints
 70
0
 62
7
  6
Continuous
290
0
370
-3
390
13
347
21
  0
LAYER
  5
2F
330
1
100
AcDbSymbolTableRecord
100
AcDbLayerTableRecord
  2
POCKET
 70
0
 62
5
  6
Continuous
370
-3
390
13
347
21
  0
ENDTAB
  0
TABLE
  2
STYLE
  5
5
330
0
100
AcDbSymbolTable
 70
1
  0
STYLE
  5
29
330
5
100
AcDbSymbolTableRecord
100
AcDbTextStyleTableRecord
  2
Standard
 70
0
 40
0.0
 41
1.0
 50
0.0
 71
0
 42
2.5
  3
txt
  4

  0
ENDTAB
  0
TABLE
  2
VIEW
  5
7
330
0
100
AcDbSymbolTable
 70
0
  0
ENDTAB
  0
TABLE
  2
UCS
  5
6
330
0
100
AcDbSymbolTable
 70
0
  0
ENDTAB
  0
TABLE
  2
APPID
  5
3
330
0
100
AcDbSymbolTable
 70
3
  0
APPID
  5
2A
330
3
100
AcDbSymbolTableRecord
100
AcDbRegAppTableRecord
  2
ACAD
 70
0
  0
APPID
  5
62
330
3
100
AcDbSymbolTableRecord
100
AcDbRegAppTableRecord
  2
HATCHBACKGROUNDCOLOR
 70
0
  0
APPID
  5
63
330
3
100
AcDbSymbolTableRecord
100
AcDbRegAppTableRecord
  2
EZDXF
 70
0
  0
ENDTAB
  0
TABLE
  2
DIMSTYLE
  5
4
330
0
100
AcDbSymbolTable
 70
1
100
AcDbDimStyleTable
  0
DIMSTYLE
105
2B
330
4
100
AcDbSymbolTableRecord
100
AcDbDimStyleTableRecord
  2
Standard
 70
0
 40
1.0
 41
2.5
 42
0.625
 43
3.75
 44
1.25
 45
0.0
 46
0.0
 47
0.0
 48
0.0
 49
2.5
140
2.5
141
2.5
142
0.0
143
0.03937007874
144
1.0
145
0.0
146
1.0
147
0.625
148
0.0
 69
0
 70
0
 71
0
 72
0
 73
0
 74
0
 75
0
 76
0
 77
1
 78
8
 79
3
170
0
171
3
172
1
173
0
174
0
175
0
176
0
177
0
178
0
179
2
271
2
272
2
273
2
274
3
275
0
276
0
277
2
278
44
279
0
280
0
281
0
282
0
283
0
284
8
285
0
286
0
288
0
289
3
290
0
371
-2
372
-2
  0
ENDTAB
  0
TABLE
  2
BLOCK_RECORD
  5
9
330
0
100
AcDbSymbolTable
 70
2
  0
BLOCK_RECORD
  5
17
330
9
100
AcDbSymbolTableRecord
100
AcDbBlockTableRecord
  2
*Model_Space
340
1A
 70
0
280
1
281
0
  0
BLOCK_RECORD
  5
1B
330
9
100
AcDbSymbolTableRecord
100
AcDbBlockTableRecord
  2
*Paper_Space
340
1E
 70
0
280
1
281
0
  0
ENDTAB
  0
ENDSEC
  0
SECTION
  2
BLOCKS
  0
BLOCK
  5
18
330
17
100
AcDbEntity
  8
0
100
AcDbBlockBegin
  2
*Model_Space
 70
0
 10
0.0
 20
0.0
 30
0.0
  3
*Model_Space
  1

  0
ENDBLK
  5
19
330
17
100
AcDbEntity
  8
0
100
AcDbBlockEnd
  0
BLOCK
  5
1C
330
1B
100
AcDbEntity
  8
0
100
AcDbBlockBegin
  2
*Paper_Space
 70
0
 10
0.0
 20
0.0
 30
0.0
  3
*Paper_Space
  1

  0
ENDBLK
  5
1D
330
1B
100
AcDbEntity
  8
0
100
AcDbBlockEnd
  0
ENDSEC
  0
SECTION
  2
ENTITIES
  0
LWPOLYLINE
  5
30
330
17
100
AcDbEntity
  8
POCKET
100
AcDbPolyline
 90
5
 70
1
 10
0.0
 20
0.0
 10
96.0
 20
0.0
 10
96.0
 20
48.0
 10
0.0
 20
48.0
 10
0.0
 20
0.0
  0
LWPOLYLINE
  5
31
330
17
100
AcDbEntity
  8
POCKET
100
AcDbPolyline
 90
53
 70
1
 10
72.00397619746441
 20
15.111400154433872
 10
72.00397619746441
 20
21.337846763840595
 10
71.98241455768823
 20
21.362433101885053
 10
71.96424654181493
 20
21.389623459137233
 10
71.94978300963322
 20
21.41895260104596
 10
71.93927143618878
 20
21.449918697861605
 10
71.93289167741759
 20
21.48199191108222
 10
71.93075289276105
 20
21.514623459137233
 10
71.93289167741759
 20
21.54725500719225
 10
71.93927143618878
 20
21.57932822041286
 10
71.94978300963322
 20
21.610294317228508
 10
71.96424654181493
 20
21.639623459137233
 10
71.98241455768823
 20
21.666813816389414
 10
72.00397619746441
 20
21.69140015443387
 10
72.02856253550887
 20
21.71296179421004
 10
72.05575289276105
 20
21.731129810083342
 10
72.08508203466977
 20
21.745593342265053
 10
72.11604813148541
 20
21.7561049157095
 10
72.14812134470603
 20
21.762484674480685
 10
72.18075289276105
 20
21.764623459137233
 10
72.21338444081606
 20
21.762484674480685
 10
72.24545765403667
 20
21.7561049157095
 10
72.27642375085232
 20
21.745593342265053
 10
72.30575289276105
 20
21.731129810083342
 10
72.33294325001323
 20
21.71296179421004
 10
72.35752958805769
 20
21.69140015443387
 10
73.25042280687113
 20
21.69140015443387
 10
73.27500914491559
 20
21.71296179421004
 10
73.30219950216777
 20
21.731129810083342
 10
73.3315286440765
 20
21.745593342265053
 10
73.36249474089215
 20
21.7561049157095
 10
73.39456795411276
 20
21.762484674480685
 10
73.42719950216777
 20
21.764623459137233
 10
73.45983105022279
 20
21.762484674480685
 10
73.4919042634434
 20
21.7561049157095
 10
73.52287036025905
 20
21.745593342265053
 10
73.55219950216777
 20
21.731129810083342
 10
73.57938985941995
 20
21.71296179421004
 10
73.6039761974644
 20
21.69140015443387
 10
73.62553783724059
 20
21.666813816389414
 10
73.64370585311389
 20
21.639623459137233
 10
73.6581693852956
 20
21.610294317228508
 10
73.66868095874004
 20
21.57932822041286
 10
73.67506071751123
 20
21.54725500719225
 10
73.67719950216777
 20
21.514623459137233
 10
73.67506071751123
 20
21.48199191108222
 10
73.66868095874004
 20
21.449918697861605
 10
73.6581693852956
 20
21.41895260104596
 10
73.64370585311389
 20
21.389623459137233
 10
73.62553783724059
 20
21.362433101885053
 10
73.6039761974644
 20
21.337846763840595
 10
73.6039761974644
 20
15.111400154433872
 10
72.00397619746441
 20
15.111400154433872
  0
LWPOLYLINE
  5
32
330
17
100
AcDbEntity
  8
POCKET
100
AcDbPolyline
 90
53
 70
1
 10
86.4539761974644
 20
15.111400154433872
 10
86.4539761974644
 20
21.337846763840595
 10
86.43241455768822
 20
21.362433101885053
 10
86.41424654181492
 20
21.389623459137233
 10
86.39978300963321
 20
21.41895260104596
 10
86.38927143618876
 20
21.449918697861605
 10
86.38289167741758
 20
21.48199191108222
 10
86.38075289276104
 20
21.514623459137233
 10
86.38289167741758
 20
21.54725500719225
 10
86.38927143618876
 20
21.57932822041286
 10
86.39978300963321
 20
21.610294317228508
 10
86.41424654181492
 20
21.639623459137233
 10
86.43241455768822
 20
21.666813816389414
 10
86.4539761974644
 20
21.69140015443387
 10
86.47856253550886
 20
21.71296179421004
 10
86.50575289276104
 20
21.731129810083342
 10
86.53508203466976
 20
21.745593342265053
 10
86.5660481314854
 20
21.7561049157095
 10
86.59812134470602
 20
21.762484674480685
 10
86.63075289276104
 20
21.764623459137233
 10
86.66338444081605
 20
21.762484674480685
 10
86.69545765403666
 20
21.7561049157095
 10
86.7264237508523
 20
21.745593342265053
 10
86.75575289276104
 20
21.731129810083342
 10
86.78294325001322
 20
21.71296179421004
 10
86.80752958805768
 20
21.69140015443387
 10
87.70042280687112
 20
21.69140015443387
 10
87.72500914491557
 20
21.71296179421004
 10
87.75219950216776
 20
21.731129810083342
 10
87.78152864407649
 20
21.745593342265053
 10
87.81249474089213
 20
21.7561049157095
 10
87.84456795411275
 20
21.762484674480685
 10
87.87719950216776
 20
21.764623459137233
 10
87.90983105022278
 20
21.762484674480685
 10
87.94190426344339
 20
21.7561049157095
 10
87.97287036025904
 20
21.745593342265053
 10
88.00219950216776
 20
21.731129810083342
 10
88.02938985941994
 20
21.71296179421004
 10
88.0539761974644
 20
21.69140015443387
 10
88.07553783724057
 20
21.666813816389414
 10
88.09370585311387
 20
21.639623459137233
 10
88.10816938529558
 20
21.610294317228508
 10
88.11868095874003
 20
21.57932822041286
 10
88.12506071751122
 20
21.54725500719225
 10
88.12719950216776
 20
21.514623459137233
 10
88.12506071751122
 20
21.48199191108222
 10
88.11868095874003
 20
21.449918697861605
 10
88.10816938529558
 20
21.41895260104596
 10
88.09370585311387
 20
21.389623459137233
 10
88.07553783724057
 20
21.362433101885053
 10
88.0539761974644
 20
21.337846763840595
 10
88.0539761974644
 20
15.111400154433872
 10
86.4539761974644
 20
15.111400154433872
  0
LWPOLYLINE
  5
33
330
17
100
AcDbEntity
  8
POCKET
100
AcDbPolyline
 90
53
 70
1
 10
23.5531
 20
48.2549596526439
 10
23.5531
 20
42.028513043237176
 10
23.57466163977617
 20
42.00392670519272
 10
23.592829655649474
 20
41.97673634794054
 10
23.607293187831186
 20
41.94740720603181
 10
23.61780476127563
 20
41.916441109216166
 10
23.624184520046814
 20
41.88436789599555
 10
23.626323304703362
 20
41.85173634794054
 10
23.624184520046814
 20
41.81910479988552
 10
23.61780476127563
 20
41.78703158666491
 10
23.607293187831186
 20
41.75606548984926
 10
23.592829655649474
 20
41.72673634794054
 10
23.57466163977617
 20
41.69954599068836
 10
23.5531
 20
41.6749596526439
 10
23.528513661955543
 20
41.653398012867726
 10
23.501323304703362
 20
41.635229996994426
 10
23.471994162794637
 20
41.62076646481272
 10
23.441028065978994
 20
41.61025489136827
 10
23.408954852758377
 20
41.60387513259708
 10
23.376323304703362
 20
41.60173634794054
 10
23.34369175664835
 20
41.60387513259708
 10
23.311618543427734
 20
41.61025489136827
 10
23.28065244661209
 20
41.62076646481272
 10
23.251323304703362
 20
41.635229996994426
 10
23.22413294745118
 20
41.653398012867726
 10
23.199546609406728
 20
41.6749596526439
 10
22.306653390593272
 20
41.6749596526439
 10
22.28206705254882
 20
41.653398012867726
 10
22.254876695296637
 20
41.635229996994426
 10
22.22554755338791
 20
41.62076646481272
 10
22.194581456572266
 20
41.61025489136827
 10
22.16250824335165
 20
41.60387513259708
 10
22.129876695296637
 20
41.60173634794054
 10
22.097245147241622
 20
41.60387513259708
 10
22.065171934021006
 20
41.61025489136827
 10
22.034205837205363
 20
41.62076646481272
 10
22.004876695296637
 20
41.635229996994426
 10
21.977686338044457
 20
41.653398012867726
 10
21.9531
 20
41.6749596526439
 10
21.93153836022383
 20
41.69954599068836
 10
21.913370344350525
 20
41.72673634794054
 10
21.898906812168814
 20
41.75606548984926
 10
21.88839523872437
 20
41.78703158666491
 10
21.882015479953186
 20
41.81910479988552
 10
21.879876695296637
 20
41.85173634794054
 10
21.882015479953186
 20
41.88436789599555
 10
21.88839523872437
 20
41.916441109216166
 10
21.898906812168814
 20
41.94740720603181
 10
21.913370344350525
 20
41.97673634794054
 10
21.93153836022383
 20
42.00392670519272
 10
21.9531
 20
42.028513043237176
 10
21.9531
 20
48.2549596526439
 10
23.5531
 20
48.2549596526439
  0
LWPOLYLINE
  5
34
330
17
100
AcDbEntity
  8
POCKET
100
AcDbPolyline
 90
53
 70
1
 10
9.103100000000001
 20
48.2549596526439
 10
9.103100000000001
 20
42.028513043237176
 10
9.124661639776173
 20
42.00392670519272
 10
9.142829655649473
 20
41.97673634794054
 10
9.157293187831186
 20
41.94740720603181
 10
9.167804761275631
 20
41.916441109216166
 10
9.174184520046817
 20
41.88436789599555
 10
9.176323304703363
 20
41.85173634794054
 10
9.174184520046817
 20
41.81910479988552
 10
9.167804761275631
 20
41.78703158666491
 10
9.157293187831186
 20
41.75606548984926
 10
9.142829655649473
 20
41.72673634794054
 10
9.124661639776173
 20
41.69954599068836
 10
9.103100000000001
 20
41.6749596526439
 10
9.078513661955544
 20
41.653398012867726
 10
9.051323304703363
 20
41.635229996994426
 10
9.021994162794636
 20
41.62076646481272
 10
8.991028065978995
 20
41.61025489136827
 10
8.958954852758376
 20
41.60387513259708
 10
8.926323304703363
 20
41.60173634794054
 10
8.893691756648352
 20
41.60387513259708
 10
8.861618543427733
 20
41.61025489136827
 10
8.830652446612092
 20
41.62076646481272
 10
8.801323304703363
 20
41.635229996994426
 10
8.774132947451184
 20
41.653398012867726
 10
8.749546609406726
 20
41.6749596526439
 10
7.856653390593275
 20
41.6749596526439
 10
7.832067052548817
 20
41.653398012867726
 10
7.804876695296637
 20
41.635229996994426
 10
7.77554755338791
 20
41.62076646481272
 10
7.744581456572268
 20
41.61025489136827
 10
7.7125082433516505
 20
41.60387513259708
 10
7.679876695296637
 20
41.60173634794054
 10
7.647245147241625
 20
41.60387513259708
 10
7.615171934021007
 20
41.61025489136827
 10
7.584205837205365
 20
41.62076646481272
 10
7.554876695296637
 20
41.635229996994426
 10
7.527686338044457
 20
41.653398012867726
 10
7.503100000000001
 20
41.6749596526439
 10
7.481538360223829
 20
41.69954599068836
 10
7.463370344350528
 20
41.72673634794054
 10
7.448906812168816
 20
41.75606548984926
 10
7.43839523872437
 20
41.78703158666491
 10
7.432015479953185
 20
41.81910479988552
 10
7.429876695296637
 20
41.85173634794054
 10
7.432015479953185
 20
41.88436789599555
 10
7.43839523872437
 20
41.916441109216166
 10
7.448906812168816
 20
41.94740720603181
 10
7.463370344350528
 20
41.97673634794054
 10
7.481538360223828
 20
42.00392670519272
 10
7.503100000000001
 20
42.028513043237176
 10
7.503100000000001
 20
48.2549596526439
 10
9.103100000000001
 20
48.2549596526439
  0
LWPOLYLINE
  5
35
330
17
100
AcDbEntity
  8
POCKET
100
AcDbPolyline
 90
53
 70
1
 10
72.76183862907313
 20
-0.2549789795760109
 10
72.76183862907313
 20
5.971467629830714
 10
72.74027698929694
 20
5.996053967875171
 10
72.72210897342364
 20
6.023244325127351
 10
72.70764544124194
 20
6.052573467036078
 10
72.69713386779749
 20
6.083539563851721
 10
72.6907541090263
 20
6.115612777072338
 10
72.68861532436976
 20
6.148244325127351
 10
72.6907541090263
 20
6.180875873182364
 10
72.69713386779749
 20
6.212949086402981
 10
72.70764544124194
 20
6.243915183218624
 10
72.72210897342364
 20
6.273244325127351
 10
72.74027698929694
 20
6.300434682379531
 10
72.76183862907313
 20
6.325021020423987
 10
72.78642496711758
 20
6.34658266020016
 10
72.81361532436976
 20
6.36475067607346
 10
72.84294446627848
 20
6.379214208255172
 10
72.87391056309413
 20
6.389725781699618
 10
72.90598377631474
 20
6.396105540470804
 10
72.93861532436976
 20
6.398244325127351
 10
72.97124687242477
 20
6.396105540470804
 10
73.00332008564538
 20
6.389725781699618
 10
73.03428618246103
 20
6.379214208255172
 10
73.06361532436976
 20
6.36475067607346
 10
73.09080568162194
 20
6.34658266020016
 10
73.1153920196664
 20
6.325021020423987
 10
74.00828523847984
 20
6.325021020423987
 10
74.0328715765243
 20
6.34658266020016
 10
74.06006193377648
 20
6.36475067607346
 10
74.08939107568521
 20
6.379214208255172
 10
74.12035717250086
 20
6.389725781699618
 10
74.15243038572147
 20
6.396105540470804
 10
74.18506193377648
 20
6.398244325127351
 10
74.2176934818315
 20
6.396105540470804
 10
74.24976669505212
 20
6.389725781699618
 10
74.28073279186776
 20
6.379214208255172
 10
74.31006193377648
 20
6.36475067607346
 10
74.33725229102866
 20
6.34658266020016
 10
74.36183862907312
 20
6.325021020423987
 10
74.3834002688493
 20
6.300434682379531
 10
74.4015682847226
 20
6.273244325127351
 10
74.41603181690431
 20
6.243915183218624
 10
74.42654339034875
 20
6.212949086402981
 10
74.43292314911994
 20
6.180875873182364
 10
74.43506193377648
 20
6.148244325127351
 10
74.43292314911994
 20
6.115612777072338
 10
74.42654339034875
 20
6.083539563851721
 10
74.41603181690431
 20
6.052573467036078
 10
74.4015682847226
 20
6.023244325127351
 10
74.3834002688493
 20
5.996053967875171
 10
74.36183862907312
 20
5.971467629830714
 10
74.36183862907312
 20
-0.2549789795760109
 10
72.76183862907313
 20
-0.2549789795760109
  0
LWPOLYLINE
  5
36
330
17
100
AcDbEntity
  8
POCKET
100
AcDbPolyline
 90
53
 70
1
 10
87.21183862907314
 20
-0.2549789795760109
 10
87.21183862907314
 20
5.971467629830714
 10
87.19027698929696
 20
5.996053967875171
 10
87.17210897342366
 20
6.023244325127351
 10
87.15764544124195
 20
6.052573467036078
 10
87.1471338677975
 20
6.083539563851721
 10
87.14075410902632
 20
6.115612777072338
 10
87.13861532436978
 20
6.148244325127351
 10
87.14075410902632
 20
6.180875873182364
 10
87.1471338677975
 20
6.212949086402981
 10
87.15764544124195
 20
6.243915183218624
 10
87.17210897342366
 20
6.273244325127351
 10
87.19027698929696
 20
6.300434682379531
 10
87.21183862907314
 20
6.325021020423987
 10
87.2364249671176
 20
6.34658266020016
 10
87.26361532436978
 20
6.36475067607346
 10
87.2929444662785
 20
6.379214208255172
 10
87.32391056309415
 20
6.389725781699618
 10
87.35598377631476
 20
6.396105540470804
 10
87.38861532436978
 20
6.398244325127351
 10
87.42124687242479
 20
6.396105540470804
 10
87.4533200856454
 20
6.389725781699618
 10
87.48428618246105
 20
6.379214208255172
 10
87.51361532436978
 20
6.36475067607346
 10
87.54080568162196
 20
6.34658266020016
 10
87.56539201966642
 20
6.325021020423987
 10
88.45828523847986
 20
6.325021020423987
 10
88.48287157652432
 20
6.34658266020016
 10
88.5100619337765
 20
6.36475067607346
 10
88.53939107568523
 20
6.379214208255172
 10
88.57035717250088
 20
6.389725781699618
 10
88.60243038572149
 20
6.396105540470804
 10
88.6350619337765
 20
6.398244325127351
 10
88.66769348183152
 20
6.396105540470804
 10
88.69976669505213
 20
6.389725781699618
 10
88.73073279186778
 20
6.379214208255172
 10
88.7600619337765
 20
6.36475067607346
 10
88.78725229102868
 20
6.34658266020016
 10
88.81183862907314
 20
6.325021020423987
 10
88.83340026884932
 20
6.300434682379531
 10
88.85156828472262
 20
6.273244325127351
 10
88.86603181690433
 20
6.243915183218624
 10
88.87654339034877
 20
6.212949086402981
 10
88.88292314911996
 20
6.180875873182364
 10
88.8850619337765
 20
6.148244325127351
 10
88.88292314911996
 20
6.115612777072338
 10
88.87654339034877
 20
6.083539563851721
 10
88.86603181690433
 20
6.052573467036078
 10
88.85156828472262
 20
6.023244325127351
 10
88.83340026884932
 20
5.996053967875171
 10
88.81183862907314
 20
5.971467629830714
 10
88.81183862907314
 20
-0.2549789795760109
 10
87.21183862907314
 20
-0.2549789795760109
  0
LWPOLYLINE
  5
37
330
17
100
AcDbEntity
  8
POCKET
100
AcDbPolyline
 90
53
 70
1
 10
7.625000000000001
 20
15.147040702570349
 10
7.625000000000001
 20
21.373487311977073
 10
7.603438360223828
 20
21.39807365002153
 10
7.585270344350528
 20
21.42526400727371
 10
7.570806812168816
 20
21.454593149182436
 10
7.56029523872437
 20
21.485559245998083
 10
7.553915479953185
 20
21.517632459218696
 10
7.551776695296637
 20
21.55026400727371
 10
7.553915479953185
 20
21.582895555328726
 10
7.56029523872437
 20
21.61496876854934
 10
7.570806812168816
 20
21.645934865364985
 10
7.585270344350528
 20
21.67526400727371
 10
7.603438360223828
 20
21.70245436452589
 10
7.625000000000001
 20
21.72704070257035
 10
7.6495863380444575
 20
21.74860234234652
 10
7.676776695296637
 20
21.76677035821982
 10
7.7061058372053655
 20
21.78123389040153
 10
7.7370719340210075
 20
21.791745463845977
 10
7.769145147241625
 20
21.798125222617163
 10
7.801776695296637
 20
21.80026400727371
 10
7.834408243351651
 20
21.798125222617163
 10
7.866481456572267
 20
21.791745463845977
 10
7.89744755338791
 20
21.78123389040153
 10
7.926776695296637
 20
21.76677035821982
 10
7.953967052548817
 20
21.74860234234652
 10
7.978553390593275
 20
21.72704070257035
 10
8.871446609406727
 20
21.72704070257035
 10
8.896032947451184
 20
21.74860234234652
 10
8.923223304703363
 20
21.76677035821982
 10
8.952552446612092
 20
21.78123389040153
 10
8.983518543427733
 20
21.791745463845977
 10
9.015591756648352
 20
21.798125222617163
 10
9.048223304703363
 20
21.80026400727371
 10
9.080854852758376
 20
21.798125222617163
 10
9.112928065978995
 20
21.791745463845977
 10
9.143894162794636
 20
21.78123389040153
 10
9.173223304703363
 20
21.76677035821982
 10
9.200413661955544
 20
21.74860234234652
 10
9.225000000000001
 20
21.72704070257035
 10
9.246561639776173
 20
21.70245436452589
 10
9.264729655649473
 20
21.67526400727371
 10
9.279193187831186
 20
21.645934865364985
 10
9.289704761275631
 20
21.61496876854934
 10
9.296084520046817
 20
21.582895555328726
 10
9.298223304703363
 20
21.55026400727371
 10
9.296084520046817
 20
21.517632459218696
 10
9.289704761275631
 20
21.485559245998083
 10
9.279193187831186
 20
21.454593149182436
 10
9.264729655649473
 20
21.42526400727371
 10
9.246561639776173
 20
21.39807365002153
 10
9.225000000000001
 20
21.373487311977073
 10
9.225000000000001
 20
15.147040702570349
 10
7.625000000000001
 20
15.147040702570349
  0
LWPOLYLINE
  5
38
330
17
100
AcDbEntity
  8
POCKET
100
AcDbPolyline
 90
53
 70
1
 10
22.075
 20
15.147040702570349
 10
22.075
 20
21.373487311977073
 10
22.05343836022383
 20
21.39807365002153
 10
22.035270344350526
 20
21.42526400727371
 10
22.020806812168814
 20
21.454593149182436
 10
22.01029523872437
 20
21.485559245998083
 10
22.003915479953186
 20
21.517632459218696
 10
22.001776695296638
 20
21.55026400727371
 10
22.003915479953186
 20
21.582895555328726
 10
22.01029523872437
 20
21.61496876854934
 10
22.020806812168814
 20
21.645934865364985
 10
22.035270344350526
 20
21.67526400727371
 10
22.05343836022383
 20
21.70245436452589
 10
22.075
 20
21.72704070257035
 10
22.099586338044457
 20
21.74860234234652
 10
22.126776695296638
 20
21.76677035821982
 10
22.156105837205363
 20
21.78123389040153
 10
22.187071934021006
 20
21.791745463845977
 10
22.219145147241623
 20
21.798125222617163
 10
22.251776695296638
 20
21.80026400727371
 10
22.28440824335165
 20
21.798125222617163
 10
22.316481456572266
 20
21.791745463845977
 10
22.34744755338791
 20
21.78123389040153
 10
22.376776695296638
 20
21.76677035821982
 10
22.40396705254882
 20
21.74860234234652
 10
22.428553390593272
 20
21.72704070257035
 10
23.321446609406728
 20
21.72704070257035
 10
23.34603294745118
 20
21.74860234234652
 10
23.373223304703362
 20
21.76677035821982
 10
23.40255244661209
 20
21.78123389040153
 10
23.433518543427734
 20
21.791745463845977
 10
23.46559175664835
 20
21.798125222617163
 10
23.498223304703362
 20
21.80026400727371
 10
23.530854852758377
 20
21.798125222617163
 10
23.562928065978994
 20
21.791745463845977
 10
23.593894162794637
 20
21.78123389040153
 10
23.623223304703362
 20
21.76677035821982
 10
23.650413661955543
 20
21.74860234234652
 10
23.675
 20
21.72704070257035
 10
23.69656163977617
 20
21.70245436452589
 10
23.714729655649474
 20
21.67526400727371
 10
23.729193187831186
 20
21.645934865364985
 10
23.73970476127563
 20
21.61496876854934
 10
23.746084520046814
 20
21.582895555328726
 10
23.748223304703362
 20
21.55026400727371
 10
23.746084520046814
 20
21.517632459218696
 10
23.73970476127563
 20
21.485559245998083
 10
23.729193187831186
 20
21.454593149182436
 10
23.714729655649474
 20
21.42526400727371
 10
23.69656163977617
 20
21.39807365002153
 10
23.675
 20
21.373487311977073
 10
23.675
 20
15.147040702570349
 10
22.075
 20
15.147040702570349
  0
LWPOLYLINE
  5
39
330
17
100
AcDbEntity
  8
POCKET
100
AcDbPolyline
 90
53
 70
1
 10
11.039907983311409
 20
30.738519899758145
 10
11.039907983311409
 20
36.96496650916487
 10
11.018346343535237
 20
36.989552847209325
 10
11.000178327661937
 20
37.016743204461505
 10
10.985714795480224
 20
37.04607234637023
 10
10.975203222035779
 20
37.07703844318588
 10
10.968823463264593
 20
37.10911165640649
 10
10.966684678608047
 20
37.141743204461505
 10
10.968823463264593
 20
37.17437475251652
 10
10.975203222035779
 20
37.206447965737134
 10
10.985714795480224
 20
37.23741406255278
 10
11.000178327661937
 20
37.266743204461505
 10
11.018346343535237
 20
37.293933561713686
 10
11.039907983311409
 20
37.318519899758144
 10
11.064494321355866
 20
37.34008153953432
 10
11.091684678608047
 20
37.35824955540762
 10
11.121013820516774
 20
37.372713087589325
 10
11.151979917332415
 20
37.38322466103377
 10
11.184053130553034
 20
37.38960441980496
 10
11.216684678608047
 20
37.391743204461505
 10
11.249316226663058
 20
37.38960441980496
 10
11.281389439883677
 20
37.38322466103377
 10
11.312355536699318
 20
37.372713087589325
 10
11.341684678608047
 20
37.35824955540762
 10
11.368875035860226
 20
37.34008153953432
 10
11.393461373904683
 20
37.318519899758144
 10
12.286354592718135
 20
37.318519899758144
 10
12.310940930762593
 20
37.34008153953432
 10
12.338131288014772
 20
37.35824955540762
 10
12.3674604299235
 20
37.372713087589325
 10
12.398426526739142
 20
37.38322466103377
 10
12.43049973995976
 20
37.38960441980496
 10
12.463131288014772
 20
37.391743204461505
 10
12.495762836069785
 20
37.38960441980496
 10
12.527836049290404
 20
37.38322466103377
 10
12.558802146106045
 20
37.372713087589325
 10
12.588131288014772
 20
37.35824955540762
 10
12.615321645266953
 20
37.34008153953432
 10
12.63990798331141
 20
37.318519899758144
 10
12.661469623087582
 20
37.293933561713686
 10
12.679637638960882
 20
37.266743204461505
 10
12.694101171142595
 20
37.23741406255278
 10
12.70461274458704
 20
37.206447965737134
 10
12.710992503358225
 20
37.17437475251652
 10
12.713131288014772
 20
37.141743204461505
 10
12.710992503358225
 20
37.10911165640649
 10
12.70461274458704
 20
37.07703844318588
 10
12.694101171142595
 20
37.04607234637023
 10
12.679637638960882
 20
37.016743204461505
 10
12.661469623087582
 20
36.989552847209325
 10
12.63990798331141
 20
36.96496650916487
 10
12.63990798331141
 20
30.738519899758145
 10
11.039907983311409
 20
30.738519899758145
  0
LWPOLYLINE
  5
3A
330
17
100
AcDbEntity
  8
POCKET
100
AcDbPolyline
 90
53
 70
1
 10
25.489907983311408
 20
30.738519899758145
 10
25.489907983311408
 20
36.96496650916487
 10
25.468346343535238
 20
36.989552847209325
 10
25.450178327661934
 20
37.016743204461505
 10
25.435714795480223
 20
37.04607234637023
 10
25.42520322203578
 20
37.07703844318588
 10
25.418823463264594
 20
37.10911165640649
 10
25.416684678608046
 20
37.141743204461505
 10
25.418823463264594
 20
37.17437475251652
 10
25.42520322203578
 20
37.206447965737134
 10
25.435714795480223
 20
37.23741406255278
 10
25.450178327661934
 20
37.266743204461505
 10
25.468346343535238
 20
37.293933561713686
 10
25.489907983311408
 20
37.318519899758144
 10
25.514494321355865
 20
37.34008153953432
 10
25.541684678608046
 20
37.35824955540762
 10
25.57101382051677
 20
37.372713087589325
 10
25.601979917332415
 20
37.38322466103377
 10
25.63405313055303
 20
37.38960441980496
 10
25.666684678608046
 20
37.391743204461505
 10
25.699316226663058
 20
37.38960441980496
 10
25.731389439883674
 20
37.38322466103377
 10
25.762355536699317
 20
37.372713087589325
 10
25.791684678608046
 20
37.35824955540762
 10
25.818875035860227
 20
37.34008153953432
 10
25.84346137390468
 20
37.318519899758144
 10
26.736354592718136
 20
37.318519899758144
 10
26.76094093076259
 20
37.34008153953432
 10
26.78813128801477
 20
37.35824955540762
 10
26.8174604299235
 20
37.372713087589325
 10
26.848426526739143
 20
37.38322466103377
 10
26.88049973995976
 20
37.38960441980496
 10
26.91313128801477
 20
37.391743204461505
 10
26.945762836069786
 20
37.38960441980496
 10
26.977836049290403
 20
37.38322466103377
 10
27.008802146106046
 20
37.372713087589325
 10
27.03813128801477
 20
37.35824955540762
 10
27.065321645266952
 20
37.34008153953432
 10
27.08990798331141
 20
37.318519899758144
 10
27.11146962308758
 20
37.293933561713686
 10
27.129637638960883
 20
37.266743204461505
 10
27.144101171142594
 20
37.23741406255278
 10
27.154612744587038
 20
37.206447965737134
 10
27.160992503358223
 20
37.17437475251652
 10
27.16313128801477
 20
37.141743204461505
 10
27.160992503358223
 20
37.10911165640649
 10
27.154612744587038
 20
37.07703844318588
 10
27.144101171142594
 20
37.04607234637023
 10
27.129637638960883
 20
37.016743204461505
 10
27.11146962308758
 20
36.989552847209325
 10
27.08990798331141
 20
36.96496650916487
 10
27.08990798331141
 20
30.738519899758145
 10
25.489907983311408
 20
30.738519899758145
  0
LWPOLYLINE
  5
3B
330
17
100
AcDbEntity
  8
POCKET
100
AcDbPolyline
 90
53
 70
1
 10
72.5183
 20
30.509987400727162
 10
72.5183
 20
36.736434010133884
 10
72.49673836022382
 20
36.76102034817834
 10
72.47857034435052
 20
36.78821070543052
 10
72.46410681216881
 20
36.81753984733925
 10
72.45359523872436
 20
36.848505944154894
 10
72.44721547995317
 20
36.88057915737551
 10
72.44507669529663
 20
36.91321070543052
 10
72.44721547995317
 20
36.94584225348554
 10
72.45359523872436
 20
36.97791546670615
 10
72.46410681216881
 20
37.0088815635218
 10
72.47857034435052
 20
37.03821070543052
 10
72.49673836022382
 20
37.0654010626827
 10
72.5183
 20
37.08998740072716
 10
72.54288633804445
 20
37.111549040503334
 10
72.57007669529663
 20
37.129717056376634
 10
72.59940583720535
 20
37.14418058855834
 10
72.630371934021
 20
37.15469216200279
 10
72.66244514724161
 20
37.16107192077398
 10
72.69507669529663
 20
37.16321070543052
 10
72.72770824335164
 20
37.16107192077398
 10
72.75978145657226
 20
37.15469216200279
 10
72.7907475533879
 20
37.14418058855834
 10
72.82007669529663
 20
37.129717056376634
 10
72.84726705254882
 20
37.111549040503334
 10
72.87185339059327
 20
37.08998740072716
 10
73.76474660940671
 20
37.08998740072716
 10
73.78933294745117
 20
37.111549040503334
 10
73.81652330470335
 20
37.129717056376634
 10
73.84585244661208
 20
37.14418058855834
 10
73.87681854342773
 20
37.15469216200279
 10
73.90889175664834
 20
37.16107192077398
 10
73.94152330470335
 20
37.16321070543052
 10
73.97415485275837
 20
37.16107192077398
 10
74.00622806597899
 20
37.15469216200279
 10
74.03719416279463
 20
37.14418058855834
 10
74.06652330470335
 20
37.129717056376634
 10
74.09371366195553
 20
37.111549040503334
 10
74.11829999999999
 20
37.08998740072716
 10
74.13986163977617
 20
37.0654010626827
 10
74.15802965564947
 20
37.03821070543052
 10
74.17249318783118
 20
37.0088815635218
 10
74.18300476127563
 20
36.97791546670615
 10
74.18938452004681
 20
36.94584225348554
 10
74.19152330470335
 20
36.91321070543052
 10
74.18938452004681
 20
36.88057915737551
 10
74.18300476127563
 20
36.848505944154894
 10
74.17249318783118
 20
36.81753984733925
 10
74.15802965564947
 20
36.78821070543052
 10
74.13986163977617
 20
36.76102034817834
 10
74.11829999999999
 20
36.736434010133884
 10
74.11829999999999
 20
30.509987400727162
 10
72.5183
 20
30.509987400727162
  0
LWPOLYLINE
  5
3C
330
17
100
AcDbEntity
  8
POCKET
100
AcDbPolyline
 90
53
 70
1
 10
86.9683
 20
30.509987400727162
 10
86.9683
 20
36.736434010133884
 10
86.94673836022382
 20
36.76102034817834
 10
86.92857034435052
 20
36.78821070543052
 10
86.91410681216881
 20
36.81753984733925
 10
86.90359523872436
 20
36.848505944154894
 10
86.89721547995318
 20
36.88057915737551
 10
86.89507669529664
 20
36.91321070543052
 10
86.89721547995318
 20
36.94584225348554
 10
86.90359523872436
 20
36.97791546670615
 10
86.91410681216881
 20
37.0088815635218
 10
86.92857034435052
 20
37.03821070543052
 10
86.94673836022382
 20
37.0654010626827
 10
86.9683
 20
37.08998740072716
 10
86.99288633804446
 20
37.111549040503334
 10
87.02007669529664
 20
37.129717056376634
 10
87.04940583720536
 20
37.14418058855834
 10
87.080371934021
 20
37.15469216200279
 10
87.11244514724162
 20
37.16107192077398
 10
87.14507669529664
 20
37.16321070543052
 10
87.17770824335165
 20
37.16107192077398
 10
87.20978145657226
 20
37.15469216200279
 10
87.2407475533879
 20
37.14418058855834
 10
87.27007669529664
 20
37.129717056376634
 10
87.29726705254882
 20
37.111549040503334
 10
87.32185339059328
 20
37.08998740072716
 10
88.21474660940672
 20
37.08998740072716
 10
88.23933294745117
 20
37.111549040503334
 10
88.26652330470336
 20
37.129717056376634
 10
88.29585244661209
 20
37.14418058855834
 10
88.32681854342773
 20
37.15469216200279
 10
88.35889175664835
 20
37.16107192077398
 10
88.39152330470336
 20
37.16321070543052
 10
88.42415485275838
 20
37.16107192077398
 10
88.45622806597899
 20
37.15469216200279
 10
88.48719416279464
 20
37.14418058855834
 10
88.51652330470336
 20
37.129717056376634
 10
88.54371366195554
 20
37.111549040503334
 10
88.5683
 20
37.08998740072716
 10
88.58986163977617
 20
37.0654010626827
 10
88.60802965564947
 20
37.03821070543052
 10
88.62249318783118
 20
37.0088815635218
 10
88.63300476127563
 20
36.97791546670615
 10
88.63938452004682
 20
36.94584225348554
 10
88.64152330470336
 20
36.91321070543052
 10
88.63938452004682
 20
36.88057915737551
 10
88.63300476127563
 20
36.848505944154894
 10
88.62249318783118
 20
36.81753984733925
 10
88.60802965564947
 20
36.78821070543052
 10
88.58986163977617
 20
36.76102034817834
 10
88.5683
 20
36.736434010133884
 10
88.5683
 20
30.509987400727162
 10
86.9683
 20
30.509987400727162
  0
LWPOLYLINE
  5
3D
330
17
100
AcDbEntity
  8
POCKET
100
AcDbPolyline
 90
53
 70
1
 10
23.650589406712797
 20
15.265240409400251
 10
23.650589406712797
 20
9.038793799993526
 10
23.672151046488967
 20
9.01420746194907
 10
23.69031906236227
 20
8.98701710469689
 10
23.704782594543982
 20
8.957687962788162
 10
23.715294167988425
 20
8.92672186597252
 10
23.72167392675961
 20
8.894648652751902
 10
23.72381271141616
 20
8.86201710469689
 10
23.72167392675961
 20
8.829385556641876
 10
23.715294167988425
 20
8.79731234342126
 10
23.704782594543982
 20
8.766346246605616
 10
23.69031906236227
 20
8.73701710469689
 10
23.672151046488967
 20
8.709826747444708
 10
23.650589406712797
 20
8.685240409400253
 10
23.62600306866834
 20
8.663678769624081
 10
23.59881271141616
 20
8.64551075375078
 10
23.569483569507433
 20
8.631047221569068
 10
23.53851747269179
 20
8.620535648124623
 10
23.506444259471174
 20
8.614155889353437
 10
23.47381271141616
 20
8.61201710469689
 10
23.441181163361147
 20
8.614155889353437
 10
23.40910795014053
 20
8.620535648124623
 10
23.378141853324887
 20
8.631047221569068
 10
23.34881271141616
 20
8.64551075375078
 10
23.321622354163978
 20
8.663678769624081
 10
23.297036016119524
 20
8.685240409400253
 10
22.40414279730607
 20
8.685240409400253
 10
22.379556459261615
 20
8.663678769624081
 10
22.352366102009434
 20
8.64551075375078
 10
22.323036960100705
 20
8.631047221569068
 10
22.292070863285062
 20
8.620535648124623
 10
22.259997650064445
 20
8.614155889353437
 10
22.227366102009434
 20
8.61201710469689
 10
22.19473455395442
 20
8.614155889353437
 10
22.162661340733802
 20
8.620535648124623
 10
22.13169524391816
 20
8.631047221569068
 10
22.102366102009434
 20
8.64551075375078
 10
22.075175744757253
 20
8.663678769624081
 10
22.050589406712795
 20
8.685240409400253
 10
22.029027766936625
 20
8.709826747444708
 10
22.01085975106332
 20
8.73701710469689
 10
21.99639621888161
 20
8.766346246605616
 10
21.985884645437167
 20
8.79731234342126
 10
21.979504886665982
 20
8.829385556641876
 10
21.977366102009434
 20
8.86201710469689
 10
21.979504886665982
 20
8.894648652751902
 10
21.985884645437167
 20
8.92672186597252
 10
21.99639621888161
 20
8.957687962788162
 10
22.01085975106332
 20
8.98701710469689
 10
22.029027766936625
 20
9.01420746194907
 10
22.050589406712795
 20
9.038793799993526
 10
22.050589406712795
 20
15.265240409400251
 10
23.650589406712797
 20
15.265240409400251
  0
LWPOLYLINE
  5
3E
330
17
100
AcDbEntity
  8
POCKET
100
AcDbPolyline
 90
53
 70
1
 10
9.200589406712796
 20
15.265240409400251
 10
9.200589406712796
 20
9.038793799993526
 10
9.222151046488968
 20
9.01420746194907
 10
9.240319062362268
 20
8.98701710469689
 10
9.254782594543979
 20
8.957687962788162
 10
9.265294167988426
 20
8.92672186597252
 10
9.271673926759611
 20
8.894648652751902
 10
9.273812711416157
 20
8.86201710469689
 10
9.271673926759611
 20
8.829385556641876
 10
9.265294167988426
 20
8.79731234342126
 10
9.254782594543979
 20
8.766346246605616
 10
9.240319062362268
 20
8.73701710469689
 10
9.222151046488968
 20
8.709826747444708
 10
9.200589406712796
 20
8.685240409400253
 10
9.176003068668338
 20
8.663678769624081
 10
9.148812711416157
 20
8.64551075375078
 10
9.11948356950743
 20
8.631047221569068
 10
9.08851747269179
 20
8.620535648124623
 10
9.05644425947117
 20
8.614155889353437
 10
9.023812711416157
 20
8.61201710469689
 10
8.991181163361146
 20
8.614155889353437
 10
8.959107950140528
 20
8.620535648124623
 10
8.928141853324886
 20
8.631047221569068
 10
8.898812711416157
 20
8.64551075375078
 10
8.871622354163978
 20
8.663678769624081
 10
8.847036016119521
 20
8.685240409400253
 10
7.954142797306069
 20
8.685240409400253
 10
7.929556459261612
 20
8.663678769624081
 10
7.902366102009432
 20
8.64551075375078
 10
7.873036960100705
 20
8.631047221569068
 10
7.842070863285063
 20
8.620535648124623
 10
7.809997650064445
 20
8.614155889353437
 10
7.777366102009432
 20
8.61201710469689
 10
7.7447345539544195
 20
8.614155889353437
 10
7.712661340733802
 20
8.620535648124623
 10
7.68169524391816
 20
8.631047221569068
 10
7.652366102009432
 20
8.64551075375078
 10
7.625175744757252
 20
8.663678769624081
 10
7.600589406712795
 20
8.685240409400253
 10
7.5790277669366235
 20
8.709826747444708
 10
7.560859751063322
 20
8.73701710469689
 10
7.54639621888161
 20
8.766346246605616
 10
7.535884645437164
 20
8.79731234342126
 10
7.529504886665979
 20
8.829385556641876
 10
7.527366102009432
 20
8.86201710469689
 10
7.529504886665979
 20
8.894648652751902
 10
7.535884645437164
 20
8.92672186597252
 10
7.54639621888161
 20
8.957687962788162
 10
7.560859751063322
 20
8.98701710469689
 10
7.579027766936623
 20
9.01420746194907
 10
7.600589406712795
 20
9.038793799993526
 10
7.600589406712795
 20
15.265240409400251
 10
9.200589406712796
 20
15.265240409400251
  0
LWPOLYLINE
  5
3F
330
17
100
AcDbEntity
  8
POCKET
100
AcDbPolyline
 90
53
 70
1
 10
88.375
 20
48.254960472238054
 10
88.375
 20
42.02851386283133
 10
88.39656163977618
 20
42.003927524786874
 10
88.41472965564948
 20
41.976737167534694
 10
88.42919318783119
 20
41.94740802562597
 10
88.43970476127564
 20
41.91644192881032
 10
88.44608452004682
 20
41.88436871558971
 10
88.44822330470336
 20
41.851737167534694
 10
88.44608452004682
 20
41.81910561947968
 10
88.43970476127564
 20
41.787032406259065
 10
88.42919318783119
 20
41.75606630944342
 10
88.41472965564948
 20
41.726737167534694
 10
88.39656163977618
 20
41.69954681028251
 10
88.375
 20
41.674960472238055
 10
88.35041366195554
 20
41.65339883246188
 10
88.32322330470336
 20
41.63523081658858
 10
88.29389416279464
 20
41.620767284406874
 10
88.262928065979
 20
41.61025571096243
 10
88.23085485275838
 20
41.60387595219124
 10
88.19822330470336
 20
41.601737167534694
 10
88.16559175664835
 20
41.60387595219124
 10
88.13351854342774
 20
41.61025571096243
 10
88.1025524466121
 20
41.620767284406874
 10
88.07322330470336
 20
41.63523081658858
 10
88.04603294745118
 20
41.65339883246188
 10
88.02144660940672
 20
41.674960472238055
 10
87.12855339059328
 20
41.674960472238055
 10
87.10396705254882
 20
41.65339883246188
 10
87.07677669529664
 20
41.63523081658858
 10
87.04744755338791
 20
41.620767284406874
 10
87.01648145657227
 20
41.61025571096243
 10
86.98440824335165
 20
41.60387595219124
 10
86.95177669529664
 20
41.601737167534694
 10
86.91914514724162
 20
41.60387595219124
 10
86.88707193402101
 20
41.61025571096243
 10
86.85610583720536
 20
41.620767284406874
 10
86.82677669529664
 20
41.63523081658858
 10
86.79958633804446
 20
41.65339883246188
 10
86.775
 20
41.674960472238055
 10
86.75343836022383
 20
41.69954681028251
 10
86.73527034435052
 20
41.726737167534694
 10
86.72080681216882
 20
41.75606630944342
 10
86.71029523872437
 20
41.787032406259065
 10
86.70391547995318
 20
41.81910561947968
 10
86.70177669529664
 20
41.851737167534694
 10
86.70391547995318
 20
41.88436871558971
 10
86.71029523872437
 20
41.91644192881032
 10
86.72080681216882
 20
41.94740802562597
 10
86.73527034435052
 20
41.976737167534694
 10
86.75343836022383
 20
42.003927524786874
 10
86.775
 20
42.02851386283133
 10
86.775
 20
48.254960472238054
 10
88.375
 20
48.254960472238054
  0
LWPOLYLINE
  5
40
330
17
100
AcDbEntity
  8
POCKET
100
AcDbPolyline
 90
53
 70
1
 10
73.925
 20
48.254960472238054
 10
73.925
 20
42.02851386283133
 10
73.94656163977618
 20
42.003927524786874
 10
73.96472965564948
 20
41.976737167534694
 10
73.97919318783119
 20
41.94740802562597
 10
73.98970476127563
 20
41.91644192881032
 10
73.99608452004682
 20
41.88436871558971
 10
73.99822330470336
 20
41.851737167534694
 10
73.99608452004682
 20
41.81910561947968
 10
73.98970476127563
 20
41.787032406259065
 10
73.97919318783119
 20
41.75606630944342
 10
73.96472965564948
 20
41.726737167534694
 10
73.94656163977618
 20
41.69954681028251
 10
73.925
 20
41.674960472238055
 10
73.90041366195554
 20
41.65339883246188
 10
73.87322330470336
 20
41.63523081658858
 10
73.84389416279464
 20
41.620767284406874
 10
73.812928065979
 20
41.61025571096243
 10
73.78085485275838
 20
41.60387595219124
 10
73.74822330470336
 20
41.601737167534694
 10
73.71559175664835
 20
41.60387595219124
 10
73.68351854342774
 20
41.61025571096243
 10
73.65255244661209
 20
41.620767284406874
 10
73.62322330470336
 20
41.63523081658858
 10
73.59603294745118
 20
41.65339883246188
 10
73.57144660940672
 20
41.674960472238055
 10
72.67855339059328
 20
41.674960472238055
 10
72.65396705254882
 20
41.65339883246188
 10
72.62677669529664
 20
41.63523081658858
 10
72.59744755338791
 20
41.620767284406874
 10
72.56648145657226
 20
41.61025571096243
 10
72.53440824335165
 20
41.60387595219124
 10
72.50177669529664
 20
41.601737167534694
 10
72.46914514724162
 20
41.60387595219124
 10
72.437071934021
 20
41.61025571096243
 10
72.40610583720536
 20
41.620767284406874
 10
72.37677669529664
 20
41.63523081658858
 10
72.34958633804446
 20
41.65339883246188
 10
72.325
 20
41.674960472238055
 10
72.30343836022382
 20
41.69954681028251
 10
72.28527034435052
 20
41.726737167534694
 10
72.27080681216881
 20
41.75606630944342
 10
72.26029523872437
 20
41.787032406259065
 10
72.25391547995318
 20
41.81910561947968
 10
72.25177669529664
 20
41.851737167534694
 10
72.25391547995318
 20
41.88436871558971
 10
72.26029523872437
 20
41.91644192881032
 10
72.27080681216881
 20
41.94740802562597
 10
72.28527034435052
 20
41.976737167534694
 10
72.30343836022382
 20
42.003927524786874
 10
72.325
 20
42.02851386283133
 10
72.325
 20
48.254960472238054
 10
73.925
 20
48.254960472238054
  0
LWPOLYLINE
  5
41
330
17
100
AcDbEntity
  8
POCKET
100
AcDbPolyline
 90
53
 70
1
 10
72.85
 20
30.604645264071564
 10
72.85
 20
26.378198654664843
 10
72.87156163977617
 20
26.353612316620385
 10
72.88972965564948
 20
26.326421959368204
 10
72.90419318783118
 20
26.297092817459475
 10
72.91470476127563
 20
26.266126720643836
 10
72.92108452004682
 20
26.234053507423216
 10
72.92322330470336
 20
26.201421959368204
 10
72.92108452004682
 20
26.168790411313193
 10
72.91470476127563
 20
26.136717198092576
 10
72.90419318783118
 20
26.105751101276933
 10
72.88972965564948
 20
26.076421959368204
 10
72.87156163977617
 20
26.049231602116024
 10
72.85
 20
26.024645264071566
 10
72.82541366195554
 20
26.003083624295396
 10
72.79822330470336
 20
25.984915608422096
 10
72.76889416279464
 20
25.970452076240385
 10
72.73792806597899
 20
25.959940502795938
 10
72.70585485275838
 20
25.953560744024752
 10
72.67322330470336
 20
25.951421959368204
 10
72.64059175664835
 20
25.953560744024752
 10
72.60851854342773
 20
25.959940502795938
 10
72.57755244661209
 20
25.970452076240385
 10
72.54822330470336
 20
25.984915608422096
 10
72.52103294745118
 20
26.003083624295396
 10
72.49644660940672
 20
26.024645264071566
 10
71.60355339059328
 20
26.024645264071566
 10
71.57896705254882
 20
26.003083624295396
 10
71.55177669529664
 20
25.984915608422096
 10
71.5224475533879
 20
25.970452076240385
 10
71.49148145657226
 20
25.959940502795938
 10
71.45940824335165
 20
25.953560744024752
 10
71.42677669529664
 20
25.951421959368204
 10
71.39414514724162
 20
25.953560744024752
 10
71.362071934021
 20
25.959940502795938
 10
71.33110583720536
 20
25.970452076240385
 10
71.30177669529664
 20
25.984915608422096
 10
71.27458633804446
 20
26.003083624295396
 10
71.25
 20
26.024645264071566
 10
71.22843836022382
 20
26.049231602116024
 10
71.21027034435052
 20
26.076421959368204
 10
71.19580681216881
 20
26.105751101276933
 10
71.18529523872436
 20
26.136717198092573
 10
71.17891547995318
 20
26.168790411313193
 10
71.17677669529664
 20
26.201421959368204
 10
71.17891547995318
 20
26.234053507423216
 10
71.18529523872436
 20
26.266126720643836
 10
71.19580681216881
 20
26.297092817459475
 10
71.21027034435052
 20
26.326421959368204
 10
71.22843836022382
 20
26.353612316620385
 10
71.25
 20
26.378198654664843
 10
71.25
 20
30.604645264071564
 10
72.85
 20
30.604645264071564
  0
LWPOLYLINE
  5
42
330
17
100
AcDbEntity
  8
POCKET
100
AcDbPolyline
 90
53
 70
1
 10
84.35
 20
30.604645264071564
 10
84.35
 20
26.378198654664843
 10
84.37156163977617
 20
26.353612316620385
 10
84.38972965564948
 20
26.326421959368204
 10
84.40419318783118
 20
26.297092817459475
 10
84.41470476127563
 20
26.266126720643836
 10
84.42108452004682
 20
26.234053507423216
 10
84.42322330470336
 20
26.201421959368204
 10
84.42108452004682
 20
26.168790411313193
 10
84.41470476127563
 20
26.136717198092576
 10
84.40419318783118
 20
26.105751101276933
 10
84.38972965564948
 20
26.076421959368204
 10
84.37156163977617
 20
26.049231602116024
 10
84.35
 20
26.024645264071566
 10
84.32541366195554
 20
26.003083624295396
 10
84.29822330470336
 20
25.984915608422096
 10
84.26889416279464
 20
25.970452076240385
 10
84.23792806597899
 20
25.959940502795938
 10
84.20585485275838
 20
25.953560744024752
 10
84.17322330470336
 20
25.951421959368204
 10
84.14059175664835
 20
25.953560744024752
 10
84.10851854342773
 20
25.959940502795938
 10
84.07755244661209
 20
25.970452076240385
 10
84.04822330470336
 20
25.984915608422096
 10
84.02103294745118
 20
26.003083624295396
 10
83.99644660940672
 20
26.024645264071566
 10
83.10355339059328
 20
26.024645264071566
 10
83.07896705254882
 20
26.003083624295396
 10
83.05177669529664
 20
25.984915608422096
 10
83.0224475533879
 20
25.970452076240385
 10
82.99148145657226
 20
25.959940502795938
 10
82.95940824335165
 20
25.953560744024752
 10
82.92677669529664
 20
25.951421959368204
 10
82.89414514724162
 20
25.953560744024752
 10
82.862071934021
 20
25.959940502795938
 10
82.83110583720536
 20
25.970452076240385
 10
82.80177669529664
 20
25.984915608422096
 10
82.77458633804446
 20
26.003083624295396
 10
82.75
 20
26.024645264071566
 10
82.72843836022382
 20
26.049231602116024
 10
82.71027034435052
 20
26.076421959368204
 10
82.69580681216881
 20
26.105751101276933
 10
82.68529523872436
 20
26.136717198092573
 10
82.67891547995318
 20
26.168790411313193
 10
82.67677669529664
 20
26.201421959368204
 10
82.67891547995318
 20
26.234053507423216
 10
82.68529523872436
 20
26.266126720643836
 10
82.69580681216881
 20
26.297092817459475
 10
82.71027034435052
 20
26.326421959368204
 10
82.72843836022382
 20
26.353612316620385
 10
82.75
 20
26.378198654664843
 10
82.75
 20
30.604645264071564
 10
84.35
 20
30.604645264071564
  0
LWPOLYLINE
  5
43
330
17
100
AcDbEntity
  8
POCKET
100
AcDbPolyline
 90
53
 70
1
 10
93.5
 20
30.604645264071564
 10
93.5
 20
26.378198654664843
 10
93.52156163977618
 20
26.353612316620385
 10
93.53972965564948
 20
26.326421959368204
 10
93.55419318783119
 20
26.297092817459475
 10
93.56470476127564
 20
26.266126720643836
 10
93.57108452004682
 20
26.234053507423216
 10
93.57322330470336
 20
26.201421959368204
 10
93.57108452004682
 20
26.168790411313193
 10
93.56470476127564
 20
26.136717198092576
 10
93.55419318783119
 20
26.105751101276933
 10
93.53972965564948
 20
26.076421959368204
 10
93.52156163977618
 20
26.049231602116024
 10
93.5
 20
26.024645264071566
 10
93.47541366195554
 20
26.003083624295396
 10
93.44822330470336
 20
25.984915608422096
 10
93.41889416279464
 20
25.970452076240385
 10
93.387928065979
 20
25.959940502795938
 10
93.35585485275838
 20
25.953560744024752
 10
93.32322330470336
 20
25.951421959368204
 10
93.29059175664835
 20
25.953560744024752
 10
93.25851854342774
 20
25.959940502795938
 10
93.2275524466121
 20
25.970452076240385
 10
93.19822330470336
 20
25.984915608422096
 10
93.17103294745118
 20
26.003083624295396
 10
93.14644660940672
 20
26.024645264071566
 10
92.25355339059328
 20
26.024645264071566
 10
92.22896705254882
 20
26.003083624295396
 10
92.20177669529664
 20
25.984915608422096
 10
92.17244755338791
 20
25.970452076240385
 10
92.14148145657227
 20
25.959940502795938
 10
92.10940824335165
 20
25.953560744024752
 10
92.07677669529664
 20
25.951421959368204
 10
92.04414514724162
 20
25.953560744024752
 10
92.01207193402101
 20
25.959940502795938
 10
91.98110583720536
 20
25.970452076240385
 10
91.95177669529664
 20
25.984915608422096
 10
91.92458633804446
 20
26.003083624295396
 10
91.9
 20
26.024645264071566
 10
91.87843836022383
 20
26.049231602116024
 10
91.86027034435052
 20
26.076421959368204
 10
91.84580681216882
 20
26.105751101276933
 10
91.83529523872437
 20
26.136717198092573
 10
91.82891547995318
 20
26.168790411313193
 10
91.82677669529664
 20
26.201421959368204
 10
91.82891547995318
 20
26.234053507423216
 10
91.83529523872437
 20
26.266126720643836
 10
91.84580681216882
 20
26.297092817459475
 10
91.86027034435052
 20
26.326421959368204
 10
91.87843836022383
 20
26.353612316620385
 10
91.9
 20
26.378198654664843
 10
91.9
 20
30.604645264071564
 10
93.5
 20
30.604645264071564
  0
LWPOLYLINE
  5
44
330
17
100
AcDbEntity
  8
POCKET
100
AcDbPolyline
 90
53
 70
1
 10
41.50116437730033
 20
48.255010331828124
 10
41.50116437730033
 20
44.0285637224214
 10
41.5227260170765
 20
44.003977384376945
 10
41.5408940329498
 20
43.976787027124765
 10
41.555357565131516
 20
43.94745788521604
 10
41.56586913857596
 20
43.91649178840039
 10
41.572248897347144
 20
43.88441857517978
 10
41.574387682003696
 20
43.851787027124765
 10
41.572248897347144
 20
43.81915547906975
 10
41.56586913857596
 20
43.787082265849136
 10
41.555357565131516
 20
43.75611616903349
 10
41.5408940329498
 20
43.726787027124765
 10
41.5227260170765
 20
43.699596669872584
 10
41.50116437730033
 20
43.675010331828126
 10
41.47657803925588
 20
43.65344869205195
 10
41.449387682003696
 20
43.63528067617865
 10
41.42005854009496
 20
43.620817143996945
 10
41.389092443279324
 20
43.6103055705525
 10
41.357019230058704
 20
43.60392581178131
 10
41.324387682003696
 20
43.601787027124765
 10
41.29175613394868
 20
43.60392581178131
 10
41.25968292072806
 20
43.6103055705525
 10
41.22871682391242
 20
43.620817143996945
 10
41.199387682003696
 20
43.63528067617865
 10
41.172197324751515
 20
43.65344869205195
 10
41.14761098670706
 20
43.675010331828126
 10
40.2547177678936
 20
43.675010331828126
 10
40.230131429849145
 20
43.65344869205195
 10
40.202941072596964
 20
43.63528067617865
 10
40.17361193068824
 20
43.620817143996945
 10
40.1426458338726
 20
43.6103055705525
 10
40.11057262065198
 20
43.60392581178131
 10
40.077941072596964
 20
43.601787027124765
 10
40.045309524541956
 20
43.60392581178131
 10
40.013236311321336
 20
43.6103055705525
 10
39.9822702145057
 20
43.620817143996945
 10
39.952941072596964
 20
43.63528067617865
 10
39.92575071534478
 20
43.65344869205195
 10
39.90116437730033
 20
43.675010331828126
 10
39.87960273752416
 20
43.699596669872584
 10
39.86143472165086
 20
43.726787027124765
 10
39.846971189469144
 20
43.75611616903349
 10
39.8364596160247
 20
43.787082265849136
 10
39.830079857253516
 20
43.81915547906975
 10
39.827941072596964
 20
43.851787027124765
 10
39.830079857253516
 20
43.88441857517978
 10
39.8364596160247
 20
43.91649178840039
 10
39.846971189469144
 20
43.94745788521604
 10
39.86143472165086
 20
43.976787027124765
 10
39.87960273752416
 20
44.003977384376945
 10
39.90116437730033
 20
44.0285637224214
 10
39.90116437730033
 20
48.255010331828124
 10
41.50116437730033
 20
48.255010331828124
  0
LWPOLYLINE
  5
45
330
17
100
AcDbEntity
  8
POCKET
100
AcDbPolyline
 90
53
 70
1
 10
53.00116437730033
 20
48.255010331828124
 10
53.00116437730033
 20
44.0285637224214
 10
53.0227260170765
 20
44.003977384376945
 10
53.0408940329498
 20
43.976787027124765
 10
53.055357565131516
 20
43.94745788521604
 10
53.06586913857596
 20
43.91649178840039
 10
53.072248897347144
 20
43.88441857517978
 10
53.074387682003696
 20
43.851787027124765
 10
53.072248897347144
 20
43.81915547906975
 10
53.06586913857596
 20
43.787082265849136
 10
53.055357565131516
 20
43.75611616903349
 10
53.0408940329498
 20
43.726787027124765
 10
53.0227260170765
 20
43.699596669872584
 10
53.00116437730033
 20
43.675010331828126
 10
52.97657803925588
 20
43.65344869205195
 10
52.949387682003696
 20
43.63528067617865
 10
52.92005854009496
 20
43.620817143996945
 10
52.889092443279324
 20
43.6103055705525
 10
52.857019230058704
 20
43.60392581178131
 10
52.824387682003696
 20
43.601787027124765
 10
52.79175613394868
 20
43.60392581178131
 10
52.75968292072806
 20
43.6103055705525
 10
52.72871682391242
 20
43.620817143996945
 10
52.699387682003696
 20
43.63528067617865
 10
52.672197324751515
 20
43.65344869205195
 10
52.64761098670706
 20
43.675010331828126
 10
51.7547177678936
 20
43.675010331828126
 10
51.730131429849145
 20
43.65344869205195
 10
51.702941072596964
 20
43.63528067617865
 10
51.67361193068824
 20
43.620817143996945
 10
51.6426458338726
 20
43.6103055705525
 10
51.61057262065198
 20
43.60392581178131
 10
51.577941072596964
 20
43.601787027124765
 10
51.545309524541956
 20
43.60392581178131
 10
51.513236311321336
 20
43.6103055705525
 10
51.4822702145057
 20
43.620817143996945
 10
51.452941072596964
 20
43.63528067617865
 10
51.42575071534478
 20
43.65344869205195
 10
51.40116437730033
 20
43.675010331828126
 10
51.37960273752416
 20
43.699596669872584
 10
51.36143472165086
 20
43.726787027124765
 10
51.346971189469144
 20
43.75611616903349
 10
51.3364596160247
 20
43.787082265849136
 10
51.330079857253516
 20
43.81915547906975
 10
51.327941072596964
 20
43.851787027124765
 10
51.330079857253516
 20
43.88441857517978
 10
51.3364596160247
 20
43.91649178840039
 10
51.346971189469144
 20
43.94745788521604
 10
51.36143472165086
 20
43.976787027124765
 10
51.37960273752416
 20
44.003977384376945
 10
51.40116437730033
 20
44.0285637224214
 10
51.40116437730033
 20
48.255010331828124
 10
53.00116437730033
 20
48.255010331828124
  0
LWPOLYLINE
  5
46
330
17
100
AcDbEntity
  8
POCKET
100
AcDbPolyline
 90
53
 70
1
 10
62.15116437730032
 20
48.255010331828124
 10
62.15116437730032
 20
44.0285637224214
 10
62.17272601707649
 20
44.003977384376945
 10
62.19089403294979
 20
43.976787027124765
 10
62.20535756513151
 20
43.94745788521604
 10
62.215869138575954
 20
43.91649178840039
 10
62.222248897347136
 20
43.88441857517978
 10
62.22438768200369
 20
43.851787027124765
 10
62.222248897347136
 20
43.81915547906975
 10
62.215869138575954
 20
43.787082265849136
 10
62.20535756513151
 20
43.75611616903349
 10
62.19089403294979
 20
43.726787027124765
 10
62.17272601707649
 20
43.699596669872584
 10
62.15116437730032
 20
43.675010331828126
 10
62.12657803925587
 20
43.65344869205195
 10
62.09938768200369
 20
43.63528067617865
 10
62.070058540094955
 20
43.620817143996945
 10
62.039092443279316
 20
43.6103055705525
 10
62.007019230058695
 20
43.60392581178131
 10
61.97438768200369
 20
43.601787027124765
 10
61.94175613394867
 20
43.60392581178131
 10
61.90968292072805
 20
43.6103055705525
 10
61.87871682391241
 20
43.620817143996945
 10
61.84938768200369
 20
43.63528067617865
 10
61.82219732475151
 20
43.65344869205195
 10
61.79761098670705
 20
43.675010331828126
 10
60.904717767893594
 20
43.675010331828126
 10
60.880131429849136
 20
43.65344869205195
 10
60.852941072596956
 20
43.63528067617865
 10
60.82361193068823
 20
43.620817143996945
 10
60.79264583387259
 20
43.6103055705525
 10
60.76057262065197
 20
43.60392581178131
 10
60.727941072596956
 20
43.601787027124765
 10
60.69530952454195
 20
43.60392581178131
 10
60.66323631132133
 20
43.6103055705525
 10
60.63227021450569
 20
43.620817143996945
 10
60.602941072596956
 20
43.63528067617865
 10
60.575750715344775
 20
43.65344869205195
 10
60.551164377300324
 20
43.675010331828126
 10
60.52960273752415
 20
43.699596669872584
 10
60.51143472165085
 20
43.726787027124765
 10
60.496971189469136
 20
43.75611616903349
 10
60.48645961602469
 20
43.787082265849136
 10
60.48007985725351
 20
43.81915547906975
 10
60.477941072596956
 20
43.851787027124765
 10
60.48007985725351
 20
43.88441857517978
 10
60.48645961602469
 20
43.91649178840039
 10
60.496971189469136
 20
43.94745788521604
 10
60.51143472165085
 20
43.976787027124765
 10
60.52960273752415
 20
44.003977384376945
 10
60.551164377300324
 20
44.0285637224214
 10
60.551164377300324
 20
48.255010331828124
 10
62.15116437730032
 20
48.255010331828124
  0
LWPOLYLINE
  5
47
330
17
100
AcDbEntity
  8
POCKET
100
AcDbPolyline
 90
53
 70
1
 10
72.4816
 20
15.1837825397203
 10
72.4816
 20
10.957335930313574
 10
72.50316163977618
 20
10.932749592269118
 10
72.52132965564948
 20
10.905559235016938
 10
72.53579318783119
 20
10.87623009310821
 10
72.54630476127564
 20
10.845263996292568
 10
72.55268452004682
 20
10.813190783071951
 10
72.55482330470336
 20
10.780559235016938
 10
72.55268452004682
 20
10.747927686961924
 10
72.54630476127564
 20
10.715854473741308
 10
72.53579318783119
 20
10.684888376925665
 10
72.52132965564948
 20
10.655559235016938
 10
72.50316163977618
 20
10.628368877764757
 10
72.4816
 20
10.603782539720301
 10
72.45701366195554
 20
10.58222089994413
 10
72.42982330470336
 20
10.56405288407083
 10
72.40049416279464
 20
10.549589351889116
 10
72.369528065979
 20
10.539077778444671
 10
72.33745485275838
 20
10.532698019673486
 10
72.30482330470336
 20
10.530559235016938
 10
72.27219175664835
 20
10.532698019673486
 10
72.24011854342774
 20
10.539077778444671
 10
72.2091524466121
 20
10.549589351889116
 10
72.17982330470336
 20
10.56405288407083
 10
72.15263294745118
 20
10.58222089994413
 10
72.12804660940672
 20
10.603782539720301
 10
71.23515339059328
 20
10.603782539720301
 10
71.21056705254883
 20
10.58222089994413
 10
71.18337669529664
 20
10.56405288407083
 10
71.15404755338791
 20
10.549589351889116
 10
71.12308145657227
 20
10.539077778444671
 10
71.09100824335165
 20
10.532698019673486
 10
71.05837669529664
 20
10.530559235016938
 10
71.02574514724162
 20
10.532698019673486
 10
70.99367193402101
 20
10.539077778444671
 10
70.96270583720536
 20
10.549589351889116
 10
70.93337669529664
 20
10.56405288407083
 10
70.90618633804446
 20
10.58222089994413
 10
70.8816
 20
10.603782539720301
 10
70.86003836022383
 20
10.628368877764757
 10
70.84187034435053
 20
10.655559235016938
 10
70.82740681216882
 20
10.684888376925665
 10
70.81689523872437
 20
10.715854473741308
 10
70.81051547995318
 20
10.747927686961924
 10
70.80837669529664
 20
10.780559235016938
 10
70.81051547995318
 20
10.813190783071951
 10
70.81689523872437
 20
10.845263996292568
 10
70.82740681216882
 20
10.87623009310821
 10
70.84187034435053
 20
10.905559235016938
 10
70.86003836022383
 20
10.932749592269118
 10
70.8816
 20
10.957335930313574
 10
70.8816
 20
15.1837825397203
 10
72.4816
 20
15.1837825397203
  0
LWPOLYLINE
  5
48
330
17
100
AcDbEntity
  8
POCKET
100
AcDbPolyline
 90
53
 70
1
 10
83.9816
 20
15.1837825397203
 10
83.9816
 20
10.957335930313574
 10
84.00316163977618
 20
10.932749592269118
 10
84.02132965564948
 20
10.905559235016938
 10
84.03579318783119
 20
10.87623009310821
 10
84.04630476127564
 20
10.845263996292568
 10
84.05268452004682
 20
10.813190783071951
 10
84.05482330470336
 20
10.780559235016938
 10
84.05268452004682
 20
10.747927686961924
 10
84.04630476127564
 20
10.715854473741308
 10
84.03579318783119
 20
10.684888376925665
 10
84.02132965564948
 20
10.655559235016938
 10
84.00316163977618
 20
10.628368877764757
 10
83.9816
 20
10.603782539720301
 10
83.95701366195554
 20
10.58222089994413
 10
83.92982330470336
 20
10.56405288407083
 10
83.90049416279464
 20
10.549589351889116
 10
83.869528065979
 20
10.539077778444671
 10
83.83745485275838
 20
10.532698019673486
 10
83.80482330470336
 20
10.530559235016938
 10
83.77219175664835
 20
10.532698019673486
 10
83.74011854342774
 20
10.539077778444671
 10
83.7091524466121
 20
10.549589351889116
 10
83.67982330470336
 20
10.56405288407083
 10
83.65263294745118
 20
10.58222089994413
 10
83.62804660940672
 20
10.603782539720301
 10
82.73515339059328
 20
10.603782539720301
 10
82.71056705254883
 20
10.58222089994413
 10
82.68337669529664
 20
10.56405288407083
 10
82.65404755338791
 20
10.549589351889116
 10
82.62308145657227
 20
10.539077778444671
 10
82.59100824335165
 20
10.532698019673486
 10
82.55837669529664
 20
10.530559235016938
 10
82.52574514724162
 20
10.532698019673486
 10
82.49367193402101
 20
10.539077778444671
 10
82.46270583720536
 20
10.549589351889116
 10
82.43337669529664
 20
10.56405288407083
 10
82.40618633804446
 20
10.58222089994413
 10
82.3816
 20
10.603782539720301
 10
82.36003836022383
 20
10.628368877764757
 10
82.34187034435053
 20
10.655559235016938
 10
82.32740681216882
 20
10.684888376925665
 10
82.31689523872437
 20
10.715854473741308
 10
82.31051547995318
 20
10.747927686961924
 10
82.30837669529664
 20
10.780559235016938
 10
82.31051547995318
 20
10.813190783071951
 10
82.31689523872437
 20
10.845263996292568
 10
82.32740681216882
 20
10.87623009310821
 10
82.34187034435053
 20
10.905559235016938
 10
82.36003836022383
 20
10.932749592269118
 10
82.3816
 20
10.957335930313574
 10
82.3816
 20
15.1837825397203
 10
83.9816
 20
15.1837825397203
  0
LWPOLYLINE
  5
49
330
17
100
AcDbEntity
  8
POCKET
100
AcDbPolyline
 90
53
 70
1
 10
93.1316
 20
15.1837825397203
 10
93.1316
 20
10.957335930313574
 10
93.15316163977619
 20
10.932749592269118
 10
93.17132965564949
 20
10.905559235016938
 10
93.1857931878312
 20
10.87623009310821
 10
93.19630476127564
 20
10.845263996292568
 10
93.20268452004683
 20
10.813190783071951
 10
93.20482330470337
 20
10.780559235016938
 10
93.20268452004683
 20
10.747927686961924
 10
93.19630476127564
 20
10.715854473741308
 10
93.1857931878312
 20
10.684888376925665
 10
93.17132965564949
 20
10.655559235016938
 10
93.15316163977619
 20
10.628368877764757
 10
93.1316
 20
10.603782539720301
 10
93.10701366195555
 20
10.58222089994413
 10
93.07982330470337
 20
10.56405288407083
 10
93.05049416279465
 20
10.549589351889116
 10
93.019528065979
 20
10.539077778444671
 10
92.98745485275839
 20
10.532698019673486
 10
92.95482330470337
 20
10.530559235016938
 10
92.92219175664836
 20
10.532698019673486
 10
92.89011854342775
 20
10.539077778444671
 10
92.8591524466121
 20
10.549589351889116
 10
92.82982330470337
 20
10.56405288407083
 10
92.80263294745119
 20
10.58222089994413
 10
92.77804660940673
 20
10.603782539720301
 10
91.88515339059329
 20
10.603782539720301
 10
91.86056705254883
 20
10.58222089994413
 10
91.83337669529665
 20
10.56405288407083
 10
91.80404755338792
 20
10.549589351889116
 10
91.77308145657227
 20
10.539077778444671
 10
91.74100824335166
 20
10.532698019673486
 10
91.70837669529665
 20
10.530559235016938
 10
91.67574514724163
 20
10.532698019673486
 10
91.64367193402101
 20
10.539077778444671
 10
91.61270583720537
 20
10.549589351889116
 10
91.58337669529665
 20
10.56405288407083
 10
91.55618633804447
 20
10.58222089994413
 10
91.53160000000001
 20
10.603782539720301
 10
91.51003836022383
 20
10.628368877764757
 10
91.49187034435053
 20
10.655559235016938
 10
91.47740681216882
 20
10.684888376925665
 10
91.46689523872438
 20
10.715854473741308
 10
91.46051547995319
 20
10.747927686961924
 10
91.45837669529665
 20
10.780559235016938
 10
91.46051547995319
 20
10.813190783071951
 10
91.46689523872438
 20
10.845263996292568
 10
91.47740681216882
 20
10.87623009310821
 10
91.49187034435053
 20
10.905559235016938
 10
91.51003836022383
 20
10.932749592269118
 10
91.53160000000001
 20
10.957335930313574
 10
91.53160000000001
 20
15.1837825397203
 10
93.1316
 20
15.1837825397203
  0
LWPOLYLINE
  5
4A
330
17
100
AcDbEntity
  8
POCKET
100
AcDbPolyline
 90
53
 70
1
 10
8.726539792390657
 20
30.77321880626775
 10
8.726539792390657
 20
26.546772196861028
 10
8.748101432166829
 20
26.52218585881657
 10
8.76626944804013
 20
26.49499550156439
 10
8.780732980221842
 20
26.46566635965566
 10
8.791244553666287
 20
26.43470026284002
 10
8.797624312437472
 20
26.4026270496194
 10
8.79976309709402
 20
26.36999550156439
 10
8.797624312437472
 20
26.337363953509378
 10
8.791244553666287
 20
26.30529074028876
 10
8.780732980221842
 20
26.27432464347312
 10
8.76626944804013
 20
26.24499550156439
 10
8.748101432166829
 20
26.21780514431221
 10
8.726539792390657
 20
26.19321880626775
 10
8.701953454346201
 20
26.17165716649158
 10
8.67476309709402
 20
26.15348915061828
 10
8.645433955185293
 20
26.13902561843657
 10
8.61446785836965
 20
26.128514044992123
 10
8.582394645149034
 20
26.122134286220938
 10
8.54976309709402
 20
26.11999550156439
 10
8.517131549039007
 20
26.122134286220938
 10
8.48505833581839
 20
26.128514044992123
 10
8.454092239002748
 20
26.13902561843657
 10
8.42476309709402
 20
26.15348915061828
 10
8.39757273984184
 20
26.17165716649158
 10
8.372986401797384
 20
26.19321880626775
 10
7.48009318298393
 20
26.19321880626775
 10
7.455506844939474
 20
26.17165716649158
 10
7.428316487687294
 20
26.15348915061828
 10
7.398987345778567
 20
26.13902561843657
 10
7.368021248962924
 20
26.128514044992123
 10
7.335948035742307
 20
26.122134286220938
 10
7.303316487687294
 20
26.11999550156439
 10
7.270684939632281
 20
26.122134286220938
 10
7.238611726411664
 20
26.128514044992123
 10
7.207645629596022
 20
26.13902561843657
 10
7.178316487687294
 20
26.15348915061828
 10
7.151126130435114
 20
26.17165716649158
 10
7.126539792390657
 20
26.19321880626775
 10
7.1049781526144855
 20
26.21780514431221
 10
7.086810136741184
 20
26.24499550156439
 10
7.072346604559472
 20
26.27432464347312
 10
7.061835031115027
 20
26.305290740288758
 10
7.055455272343841
 20
26.337363953509378
 10
7.053316487687294
 20
26.36999550156439
 10
7.055455272343841
 20
26.4026270496194
 10
7.061835031115027
 20
26.43470026284002
 10
7.072346604559472
 20
26.46566635965566
 10
7.086810136741184
 20
26.49499550156439
 10
7.1049781526144855
 20
26.52218585881657
 10
7.126539792390657
 20
26.546772196861028
 10
7.126539792390657
 20
30.77321880626775
 10
8.726539792390657
 20
30.77321880626775
  0
LWPOLYLINE
  5
4B
330
17
100
AcDbEntity
  8
POCKET
100
AcDbPolyline
 90
53
 70
1
 10
20.22653979239066
 20
30.77321880626775
 10
20.22653979239066
 20
26.546772196861028
 10
20.24810143216683
 20
26.52218585881657
 10
20.266269448040134
 20
26.49499550156439
 10
20.280732980221845
 20
26.46566635965566
 10
20.29124455366629
 20
26.43470026284002
 10
20.297624312437474
 20
26.4026270496194
 10
20.299763097094022
 20
26.36999550156439
 10
20.297624312437474
 20
26.337363953509378
 10
20.29124455366629
 20
26.30529074028876
 10
20.280732980221845
 20
26.27432464347312
 10
20.266269448040134
 20
26.24499550156439
 10
20.24810143216683
 20
26.21780514431221
 10
20.22653979239066
 20
26.19321880626775
 10
20.201953454346203
 20
26.17165716649158
 10
20.174763097094022
 20
26.15348915061828
 10
20.145433955185297
 20
26.13902561843657
 10
20.114467858369654
 20
26.128514044992123
 10
20.082394645149037
 20
26.122134286220938
 10
20.049763097094022
 20
26.11999550156439
 10
20.01713154903901
 20
26.122134286220938
 10
19.985058335818394
 20
26.128514044992123
 10
19.95409223900275
 20
26.13902561843657
 10
19.924763097094022
 20
26.15348915061828
 10
19.89757273984184
 20
26.17165716649158
 10
19.872986401797387
 20
26.19321880626775
 10
18.980093182983932
 20
26.19321880626775
 10
18.955506844939478
 20
26.17165716649158
 10
18.928316487687297
 20
26.15348915061828
 10
18.89898734577857
 20
26.13902561843657
 10
18.868021248962926
 20
26.128514044992123
 10
18.83594803574231
 20
26.122134286220938
 10
18.803316487687297
 20
26.11999550156439
 10
18.770684939632282
 20
26.122134286220938
 10
18.738611726411666
 20
26.128514044992123
 10
18.707645629596023
 20
26.13902561843657
 10
18.678316487687297
 20
26.15348915061828
 10
18.651126130435117
 20
26.17165716649158
 10
18.62653979239066
 20
26.19321880626775
 10
18.60497815261449
 20
26.21780514431221
 10
18.586810136741185
 20
26.24499550156439
 10
18.572346604559474
 20
26.27432464347312
 10
18.56183503111503
 20
26.305290740288758
 10
18.555455272343846
 20
26.337363953509378
 10
18.553316487687297
 20
26.36999550156439
 10
18.555455272343846
 20
26.4026270496194
 10
18.56183503111503
 20
26.43470026284002
 10
18.572346604559474
 20
26.46566635965566
 10
18.586810136741185
 20
26.49499550156439
 10
18.60497815261449
 20
26.52218585881657
 10
18.62653979239066
 20
26.546772196861028
 10
18.62653979239066
 20
30.77321880626775
 10
20.22653979239066
 20
30.77321880626775
  0
LWPOLYLINE
  5
4C
330
17
100
AcDbEntity
  8
POCKET
100
AcDbPolyline
 90
53
 70
1
 10
29.37653979239066
 20
30.77321880626775
 10
29.37653979239066
 20
26.546772196861028
 10
29.39810143216683
 20
26.52218585881657
 10
29.416269448040133
 20
26.49499550156439
 10
29.430732980221844
 20
26.46566635965566
 10
29.441244553666287
 20
26.43470026284002
 10
29.447624312437473
 20
26.4026270496194
 10
29.44976309709402
 20
26.36999550156439
 10
29.447624312437473
 20
26.337363953509378
 10
29.441244553666287
 20
26.30529074028876
 10
29.430732980221844
 20
26.27432464347312
 10
29.416269448040133
 20
26.24499550156439
 10
29.39810143216683
 20
26.21780514431221
 10
29.37653979239066
 20
26.19321880626775
 10
29.3519534543462
 20
26.17165716649158
 10
29.32476309709402
 20
26.15348915061828
 10
29.295433955185295
 20
26.13902561843657
 10
29.264467858369652
 20
26.128514044992123
 10
29.232394645149036
 20
26.122134286220938
 10
29.19976309709402
 20
26.11999550156439
 10
29.16713154903901
 20
26.122134286220938
 10
29.135058335818393
 20
26.128514044992123
 10
29.10409223900275
 20
26.13902561843657
 10
29.07476309709402
 20
26.15348915061828
 10
29.04757273984184
 20
26.17165716649158
 10
29.022986401797386
 20
26.19321880626775
 10
28.13009318298393
 20
26.19321880626775
 10
28.105506844939477
 20
26.17165716649158
 10
28.078316487687296
 20
26.15348915061828
 10
28.048987345778567
 20
26.13902561843657
 10
28.018021248962924
 20
26.128514044992123
 10
27.985948035742307
 20
26.122134286220938
 10
27.953316487687296
 20
26.11999550156439
 10
27.92068493963228
 20
26.122134286220938
 10
27.888611726411664
 20
26.128514044992123
 10
27.85764562959602
 20
26.13902561843657
 10
27.828316487687296
 20
26.15348915061828
 10
27.801126130435115
 20
26.17165716649158
 10
27.776539792390658
 20
26.19321880626775
 10
27.754978152614488
 20
26.21780514431221
 10
27.736810136741184
 20
26.24499550156439
 10
27.722346604559473
 20
26.27432464347312
 10
27.71183503111503
 20
26.305290740288758
 10
27.705455272343844
 20
26.337363953509378
 10
27.703316487687296
 20
26.36999550156439
 10
27.705455272343844
 20
26.4026270496194
 10
27.71183503111503
 20
26.43470026284002
 10
27.722346604559473
 20
26.46566635965566
 10
27.736810136741184
 20
26.49499550156439
 10
27.754978152614488
 20
26.52218585881657
 10
27.776539792390658
 20
26.546772196861028
 10
27.776539792390658
 20
30.77321880626775
 10
29.37653979239066
 20
30.77321880626775
  0
LWPOLYLINE
  5
4D
330
17
100
AcDbEntity
  8
POCKET
100
AcDbPolyline
 90
53
 70
1
 10
56.5577
 20
26.473400926887763
 10
56.5577
 20
30.699847536294484
 10
56.53613836022382
 20
30.724433874338942
 10
56.51797034435052
 20
30.751624231591123
 10
56.50350681216881
 20
30.78095337349985
 10
56.49299523872436
 20
30.81191947031549
 10
56.48661547995318
 20
30.84399268353611
 10
56.48447669529663
 20
30.876624231591123
 10
56.48661547995318
 20
30.909255779646134
 10
56.49299523872436
 20
30.94132899286675
 10
56.50350681216881
 20
30.972295089682394
 10
56.51797034435052
 20
31.001624231591123
 10
56.53613836022382
 20
31.028814588843304
 10
56.5577
 20
31.05340092688776
 10
56.58228633804445
 20
31.07496256666393
 10
56.60947669529663
 20
31.09313058253723
 10
56.63880583720536
 20
31.107594114718943
 10
56.669771934021
 20
31.11810568816339
 10
56.70184514724162
 20
31.124485446934575
 10
56.73447669529663
 20
31.126624231591123
 10
56.76710824335164
 20
31.124485446934575
 10
56.79918145657226
 20
31.11810568816339
 10
56.8301475533879
 20
31.107594114718943
 10
56.85947669529663
 20
31.09313058253723
 10
56.88666705254881
 20
31.07496256666393
 10
56.91125339059327
 20
31.05340092688776
 10
57.80414660940672
 20
31.05340092688776
 10
57.82873294745118
 20
31.07496256666393
 10
57.85592330470336
 20
31.09313058253723
 10
57.885252446612085
 20
31.107594114718943
 10
57.916218543427725
 20
31.11810568816339
 10
57.948291756648345
 20
31.124485446934575
 10
57.98092330470336
 20
31.126624231591123
 10
58.01355485275837
 20
31.124485446934575
 10
58.04562806597899
 20
31.11810568816339
 10
58.07659416279463
 20
31.107594114718943
 10
58.10592330470336
 20
31.09313058253723
 10
58.13311366195554
 20
31.07496256666393
 10
58.15769999999999
 20
31.05340092688776
 10
58.179261639776165
 20
31.028814588843304
 10
58.197429655649465
 20
31.001624231591123
 10
58.21189318783118
 20
30.972295089682394
 10
58.22240476127563
 20
30.941328992866755
 10
58.22878452004681
 20
30.909255779646134
 10
58.23092330470336
 20
30.876624231591123
 10
58.22878452004681
 20
30.84399268353611
 10
58.22240476127563
 20
30.81191947031549
 10
58.21189318783118
 20
30.78095337349985
 10
58.197429655649465
 20
30.751624231591123
 10
58.179261639776165
 20
30.724433874338942
 10
58.15769999999999
 20
30.699847536294484
 10
58.15769999999999
 20
26.473400926887763
 10
56.5577
 20
26.473400926887763
  0
LWPOLYLINE
  5
4E
330
17
100
AcDbEntity
  8
POCKET
100
AcDbPolyline
 90
53
 70
1
 10
45.0577
 20
26.473400926887763
 10
45.0577
 20
30.699847536294484
 10
45.03613836022382
 20
30.724433874338942
 10
45.01797034435052
 20
30.751624231591123
 10
45.00350681216881
 20
30.78095337349985
 10
44.99299523872436
 20
30.81191947031549
 10
44.98661547995318
 20
30.84399268353611
 10
44.98447669529663
 20
30.876624231591123
 10
44.98661547995318
 20
30.909255779646134
 10
44.99299523872436
 20
30.94132899286675
 10
45.00350681216881
 20
30.972295089682394
 10
45.01797034435052
 20
31.001624231591123
 10
45.03613836022382
 20
31.028814588843304
 10
45.0577
 20
31.05340092688776
 10
45.08228633804445
 20
31.07496256666393
 10
45.10947669529663
 20
31.09313058253723
 10
45.13880583720536
 20
31.107594114718943
 10
45.169771934021
 20
31.11810568816339
 10
45.20184514724162
 20
31.124485446934575
 10
45.23447669529663
 20
31.126624231591123
 10
45.26710824335164
 20
31.124485446934575
 10
45.29918145657226
 20
31.11810568816339
 10
45.3301475533879
 20
31.107594114718943
 10
45.35947669529663
 20
31.09313058253723
 10
45.38666705254881
 20
31.07496256666393
 10
45.41125339059327
 20
31.05340092688776
 10
46.30414660940672
 20
31.05340092688776
 10
46.32873294745118
 20
31.07496256666393
 10
46.35592330470336
 20
31.09313058253723
 10
46.385252446612085
 20
31.107594114718943
 10
46.416218543427725
 20
31.11810568816339
 10
46.448291756648345
 20
31.124485446934575
 10
46.48092330470336
 20
31.126624231591123
 10
46.51355485275837
 20
31.124485446934575
 10
46.54562806597899
 20
31.11810568816339
 10
46.57659416279463
 20
31.107594114718943
 10
46.60592330470336
 20
31.09313058253723
 10
46.63311366195554
 20
31.07496256666393
 10
46.65769999999999
 20
31.05340092688776
 10
46.679261639776165
 20
31.028814588843304
 10
46.697429655649465
 20
31.001624231591123
 10
46.71189318783118
 20
30.972295089682394
 10
46.72240476127563
 20
30.941328992866755
 10
46.72878452004681
 20
30.909255779646134
 10
46.73092330470336
 20
30.876624231591123
 10
46.72878452004681
 20
30.84399268353611
 10
46.72240476127563
 20
30.81191947031549
 10
46.71189318783118
 20
30.78095337349985
 10
46.697429655649465
 20
30.751624231591123
 10
46.679261639776165
 20
30.724433874338942
 10
46.65769999999999
 20
30.699847536294484
 10
46.65769999999999
 20
26.473400926887763
 10
45.0577
 20
26.473400926887763
  0
LWPOLYLINE
  5
4F
330
17
100
AcDbEntity
  8
POCKET
100
AcDbPolyline
 90
53
 70
1
 10
35.907700000000006
 20
26.473400926887763
 10
35.907700000000006
 20
30.699847536294484
 10
35.88613836022383
 20
30.724433874338942
 10
35.86797034435053
 20
30.751624231591123
 10
35.85350681216882
 20
30.78095337349985
 10
35.84299523872437
 20
30.81191947031549
 10
35.83661547995319
 20
30.84399268353611
 10
35.83447669529664
 20
30.876624231591123
 10
35.83661547995319
 20
30.909255779646134
 10
35.84299523872437
 20
30.94132899286675
 10
35.85350681216882
 20
30.972295089682394
 10
35.86797034435053
 20
31.001624231591123
 10
35.88613836022383
 20
31.028814588843304
 10
35.907700000000006
 20
31.05340092688776
 10
35.932286338044456
 20
31.07496256666393
 10
35.95947669529664
 20
31.09313058253723
 10
35.98880583720537
 20
31.107594114718943
 10
36.01977193402101
 20
31.11810568816339
 10
36.05184514724163
 20
31.124485446934575
 10
36.08447669529664
 20
31.126624231591123
 10
36.11710824335165
 20
31.124485446934575
 10
36.14918145657227
 20
31.11810568816339
 10
36.18014755338791
 20
31.107594114718943
 10
36.20947669529664
 20
31.09313058253723
 10
36.23666705254882
 20
31.07496256666393
 10
36.261253390593275
 20
31.05340092688776
 10
37.15414660940673
 20
31.05340092688776
 10
37.17873294745119
 20
31.07496256666393
 10
37.20592330470337
 20
31.09313058253723
 10
37.235252446612094
 20
31.107594114718943
 10
37.26621854342773
 20
31.11810568816339
 10
37.298291756648354
 20
31.124485446934575
 10
37.33092330470337
 20
31.126624231591123
 10
37.36355485275838
 20
31.124485446934575
 10
37.395628065979
 20
31.11810568816339
 10
37.426594162794636
 20
31.107594114718943
 10
37.45592330470337
 20
31.09313058253723
 10
37.48311366195555
 20
31.07496256666393
 10
37.5077
 20
31.05340092688776
 10
37.52926163977617
 20
31.028814588843304
 10
37.54742965564947
 20
31.001624231591123
 10
37.56189318783119
 20
30.972295089682394
 10
37.572404761275635
 20
30.941328992866755
 10
37.57878452004682
 20
30.909255779646134
 10
37.58092330470337
 20
30.876624231591123
 10
37.57878452004682
 20
30.84399268353611
 10
37.572404761275635
 20
30.81191947031549
 10
37.56189318783119
 20
30.78095337349985
 10
37.54742965564947
 20
30.751624231591123
 10
37.52926163977617
 20
30.724433874338942
 10
37.5077
 20
30.699847536294484
 10
37.5077
 20
26.473400926887763
 10
35.907700000000006
 20
26.473400926887763
  0
LWPOLYLINE
  5
50
330
17
100
AcDbEntity
  8
POCKET
100
AcDbPolyline
 90
53
 70
1
 10
40.98389999999999
 20
26.52832790885516
 10
40.98389999999999
 20
22.301881299448436
 10
41.005461639776165
 20
22.277294961403978
 10
41.023629655649465
 20
22.250104604151797
 10
41.03809318783118
 20
22.22077546224307
 10
41.04860476127563
 20
22.18980936542743
 10
41.05498452004681
 20
22.15773615220681
 10
41.05712330470336
 20
22.125104604151797
 10
41.05498452004681
 20
22.092473056096786
 10
41.04860476127563
 20
22.060399842876166
 10
41.03809318783118
 20
22.029433746060526
 10
41.023629655649465
 20
22.000104604151797
 10
41.005461639776165
 20
21.972914246899617
 10
40.98389999999999
 20
21.94832790885516
 10
40.95931366195554
 20
21.92676626907899
 10
40.93212330470336
 20
21.90859825320569
 10
40.90279416279463
 20
21.894134721023974
 10
40.87182806597899
 20
21.88362314757953
 10
40.83975485275837
 20
21.877243388808346
 10
40.80712330470336
 20
21.875104604151797
 10
40.774491756648345
 20
21.877243388808346
 10
40.742418543427725
 20
21.88362314757953
 10
40.711452446612086
 20
21.894134721023974
 10
40.68212330470336
 20
21.90859825320569
 10
40.65493294745118
 20
21.92676626907899
 10
40.63034660940672
 20
21.94832790885516
 10
39.73745339059327
 20
21.94832790885516
 10
39.71286705254881
 20
21.92676626907899
 10
39.68567669529663
 20
21.90859825320569
 10
39.6563475533879
 20
21.894134721023974
 10
39.62538145657226
 20
21.88362314757953
 10
39.59330824335164
 20
21.877243388808346
 10
39.56067669529663
 20
21.875104604151797
 10
39.52804514724162
 20
21.877243388808346
 10
39.495971934021
 20
21.88362314757953
 10
39.46500583720536
 20
21.894134721023974
 10
39.43567669529663
 20
21.90859825320569
 10
39.40848633804445
 20
21.92676626907899
 10
39.3839
 20
21.94832790885516
 10
39.36233836022382
 20
21.972914246899617
 10
39.34417034435052
 20
22.000104604151797
 10
39.32970681216881
 20
22.029433746060526
 10
39.31919523872436
 20
22.060399842876166
 10
39.31281547995318
 20
22.092473056096786
 10
39.31067669529663
 20
22.125104604151797
 10
39.31281547995318
 20
22.15773615220681
 10
39.31919523872436
 20
22.18980936542743
 10
39.32970681216881
 20
22.22077546224307
 10
39.34417034435052
 20
22.250104604151797
 10
39.36233836022382
 20
22.277294961403978
 10
39.3839
 20
22.301881299448436
 10
39.3839
 20
26.52832790885516
 10
40.98389999999999
 20
26.52832790885516
  0
LWPOLYLINE
  5
51
330
17
100
AcDbEntity
  8
POCKET
100
AcDbPolyline
 90
53
 70
1
 10
52.48389999999999
 20
26.52832790885516
 10
52.48389999999999
 20
22.301881299448436
 10
52.505461639776165
 20
22.277294961403978
 10
52.523629655649465
 20
22.250104604151797
 10
52.53809318783118
 20
22.22077546224307
 10
52.54860476127563
 20
22.18980936542743
 10
52.55498452004681
 20
22.15773615220681
 10
52.55712330470336
 20
22.125104604151797
 10
52.55498452004681
 20
22.092473056096786
 10
52.54860476127563
 20
22.060399842876166
 10
52.53809318783118
 20
22.029433746060526
 10
52.523629655649465
 20
22.000104604151797
 10
52.505461639776165
 20
21.972914246899617
 10
52.48389999999999
 20
21.94832790885516
 10
52.45931366195554
 20
21.92676626907899
 10
52.43212330470336
 20
21.90859825320569
 10
52.40279416279463
 20
21.894134721023974
 10
52.37182806597899
 20
21.88362314757953
 10
52.33975485275837
 20
21.877243388808346
 10
52.30712330470336
 20
21.875104604151797
 10
52.274491756648345
 20
21.877243388808346
 10
52.242418543427725
 20
21.88362314757953
 10
52.211452446612086
 20
21.894134721023974
 10
52.18212330470336
 20
21.90859825320569
 10
52.15493294745118
 20
21.92676626907899
 10
52.13034660940672
 20
21.94832790885516
 10
51.23745339059327
 20
21.94832790885516
 10
51.21286705254881
 20
21.92676626907899
 10
51.18567669529663
 20
21.90859825320569
 10
51.1563475533879
 20
21.894134721023974
 10
51.12538145657226
 20
21.88362314757953
 10
51.09330824335164
 20
21.877243388808346
 10
51.06067669529663
 20
21.875104604151797
 10
51.02804514724162
 20
21.877243388808346
 10
50.995971934021
 20
21.88362314757953
 10
50.96500583720536
 20
21.894134721023974
 10
50.93567669529663
 20
21.90859825320569
 10
50.90848633804445
 20
21.92676626907899
 10
50.8839
 20
21.94832790885516
 10
50.86233836022382
 20
21.972914246899617
 10
50.84417034435052
 20
22.000104604151797
 10
50.82970681216881
 20
22.029433746060526
 10
50.81919523872436
 20
22.060399842876166
 10
50.81281547995318
 20
22.092473056096786
 10
50.81067669529663
 20
22.125104604151797
 10
50.81281547995318
 20
22.15773615220681
 10
50.81919523872436
 20
22.18980936542743
 10
50.82970681216881
 20
22.22077546224307
 10
50.84417034435052
 20
22.250104604151797
 10
50.86233836022382
 20
22.277294961403978
 10
50.8839
 20
22.301881299448436
 10
50.8839
 20
26.52832790885516
 10
52.48389999999999
 20
26.52832790885516
  0
LWPOLYLINE
  5
52
330
17
100
AcDbEntity
  8
POCKET
100
AcDbPolyline
 90
53
 70
1
 10
61.6339
 20
26.52832790885516
 10
61.6339
 20
22.301881299448436
 10
61.65546163977617
 20
22.277294961403978
 10
61.67362965564947
 20
22.250104604151797
 10
61.688093187831186
 20
22.22077546224307
 10
61.69860476127563
 20
22.18980936542743
 10
61.704984520046814
 20
22.15773615220681
 10
61.707123304703366
 20
22.125104604151797
 10
61.704984520046814
 20
22.092473056096786
 10
61.69860476127563
 20
22.060399842876166
 10
61.688093187831186
 20
22.029433746060526
 10
61.67362965564947
 20
22.000104604151797
 10
61.65546163977617
 20
21.972914246899617
 10
61.6339
 20
21.94832790885516
 10
61.60931366195555
 20
21.92676626907899
 10
61.582123304703366
 20
21.90859825320569
 10
61.55279416279463
 20
21.894134721023974
 10
61.521828065978994
 20
21.88362314757953
 10
61.489754852758374
 20
21.877243388808346
 10
61.457123304703366
 20
21.875104604151797
 10
61.42449175664835
 20
21.877243388808346
 10
61.39241854342773
 20
21.88362314757953
 10
61.36145244661209
 20
21.894134721023974
 10
61.332123304703366
 20
21.90859825320569
 10
61.304932947451185
 20
21.92676626907899
 10
61.28034660940673
 20
21.94832790885516
 10
60.38745339059327
 20
21.94832790885516
 10
60.362867052548815
 20
21.92676626907899
 10
60.335676695296634
 20
21.90859825320569
 10
60.30634755338791
 20
21.894134721023974
 10
60.27538145657227
 20
21.88362314757953
 10
60.24330824335165
 20
21.877243388808346
 10
60.210676695296634
 20
21.875104604151797
 10
60.178045147241626
 20
21.877243388808346
 10
60.145971934021006
 20
21.88362314757953
 10
60.115005837205366
 20
21.894134721023974
 10
60.085676695296634
 20
21.90859825320569
 10
60.05848633804445
 20
21.92676626907899
 10
60.0339
 20
21.94832790885516
 10
60.01233836022383
 20
21.972914246899617
 10
59.99417034435053
 20
22.000104604151797
 10
59.979706812168814
 20
22.029433746060526
 10
59.96919523872437
 20
22.060399842876166
 10
59.962815479953186
 20
22.092473056096786
 10
59.960676695296634
 20
22.125104604151797
 10
59.962815479953186
 20
22.15773615220681
 10
59.96919523872437
 20
22.18980936542743
 10
59.979706812168814
 20
22.22077546224307
 10
59.99417034435053
 20
22.250104604151797
 10
60.01233836022383
 20
22.277294961403978
 10
60.0339
 20
22.301881299448436
 10
60.0339
 20
26.52832790885516
 10
61.6339
 20
26.52832790885516
  0
LWPOLYLINE
  5
53
330
17
100
AcDbEntity
  8
POCKET
100
AcDbPolyline
 90
53
 70
1
 10
41.67507057675289
 20
13.292103987299383
 10
41.67507057675289
 20
9.065657377892657
 10
41.69663221652906
 20
9.041071039848202
 10
41.71480023240236
 20
9.013880682596021
 10
41.729263764584076
 20
8.984551540687294
 10
41.73977533802852
 20
8.953585443871651
 10
41.746155096799704
 20
8.921512230651034
 10
41.748293881456256
 20
8.888880682596021
 10
41.746155096799704
 20
8.856249134541008
 10
41.73977533802852
 20
8.824175921320391
 10
41.729263764584076
 20
8.793209824504748
 10
41.71480023240236
 20
8.763880682596021
 10
41.69663221652906
 20
8.73669032534384
 10
41.67507057675289
 20
8.712103987299384
 10
41.65048423870844
 20
8.690542347523213
 10
41.623293881456256
 20
8.672374331649912
 10
41.59396473954752
 20
8.6579107994682
 10
41.562998642731884
 20
8.647399226023754
 10
41.530925429511264
 20
8.641019467252569
 10
41.498293881456256
 20
8.638880682596021
 10
41.46566233340124
 20
8.641019467252569
 10
41.43358912018062
 20
8.647399226023754
 10
41.40262302336498
 20
8.6579107994682
 10
41.373293881456256
 20
8.672374331649912
 10
41.346103524204075
 20
8.690542347523213
 10
41.32151718615962
 20
8.712103987299384
 10
40.42862396734616
 20
8.712103987299384
 10
40.404037629301705
 20
8.690542347523213
 10
40.376847272049524
 20
8.672374331649912
 10
40.3475181301408
 20
8.6579107994682
 10
40.31655203332516
 20
8.647399226023754
 10
40.28447882010454
 20
8.641019467252569
 10
40.251847272049524
 20
8.638880682596021
 10
40.219215723994516
 20
8.641019467252569
 10
40.187142510773896
 20
8.647399226023754
 10
40.156176413958256
 20
8.6579107994682
 10
40.126847272049524
 20
8.672374331649912
 10
40.09965691479734
 20
8.690542347523213
 10
40.07507057675289
 20
8.712103987299384
 10
40.05350893697672
 20
8.73669032534384
 10
40.03534092110342
 20
8.763880682596021
 10
40.020877388921704
 20
8.793209824504748
 10
40.01036581547726
 20
8.824175921320391
 10
40.003986056706076
 20
8.856249134541008
 10
40.001847272049524
 20
8.888880682596021
 10
40.003986056706076
 20
8.921512230651034
 10
40.01036581547726
 20
8.953585443871651
 10
40.020877388921704
 20
8.984551540687294
 10
40.03534092110342
 20
9.013880682596021
 10
40.05350893697672
 20
9.041071039848202
 10
40.07507057675289
 20
9.065657377892657
 10
40.07507057675289
 20
13.292103987299383
 10
41.67507057675289
 20
13.292103987299383
  0
LWPOLYLINE
  5
54
330
17
100
AcDbEntity
  8
POCKET
100
AcDbPolyline
 90
53
 70
1
 10
53.17507057675289
 20
13.292103987299383
 10
53.17507057675289
 20
9.065657377892657
 10
53.19663221652906
 20
9.041071039848202
 10
53.21480023240236
 20
9.013880682596021
 10
53.229263764584076
 20
8.984551540687294
 10
53.23977533802852
 20
8.953585443871651
 10
53.246155096799704
 20
8.921512230651034
 10
53.248293881456256
 20
8.888880682596021
 10
53.246155096799704
 20
8.856249134541008
 10
53.23977533802852
 20
8.824175921320391
 10
53.229263764584076
 20
8.793209824504748
 10
53.21480023240236
 20
8.763880682596021
 10
53.19663221652906
 20
8.73669032534384
 10
53.17507057675289
 20
8.712103987299384
 10
53.15048423870844
 20
8.690542347523213
 10
53.123293881456256
 20
8.672374331649912
 10
53.09396473954752
 20
8.6579107994682
 10
53.062998642731884
 20
8.647399226023754
 10
53.030925429511264
 20
8.641019467252569
 10
52.998293881456256
 20
8.638880682596021
 10
52.96566233340124
 20
8.641019467252569
 10
52.93358912018062
 20
8.647399226023754
 10
52.90262302336498
 20
8.6579107994682
 10
52.873293881456256
 20
8.672374331649912
 10
52.846103524204075
 20
8.690542347523213
 10
52.82151718615962
 20
8.712103987299384
 10
51.92862396734616
 20
8.712103987299384
 10
51.904037629301705
 20
8.690542347523213
 10
51.876847272049524
 20
8.672374331649912
 10
51.8475181301408
 20
8.6579107994682
 10
51.81655203332516
 20
8.647399226023754
 10
51.78447882010454
 20
8.641019467252569
 10
51.751847272049524
 20
8.638880682596021
 10
51.719215723994516
 20
8.641019467252569
 10
51.687142510773896
 20
8.647399226023754
 10
51.656176413958256
 20
8.6579107994682
 10
51.626847272049524
 20
8.672374331649912
 10
51.59965691479734
 20
8.690542347523213
 10
51.57507057675289
 20
8.712103987299384
 10
51.55350893697672
 20
8.73669032534384
 10
51.53534092110342
 20
8.763880682596021
 10
51.520877388921704
 20
8.793209824504748
 10
51.51036581547726
 20
8.824175921320391
 10
51.503986056706076
 20
8.856249134541008
 10
51.501847272049524
 20
8.888880682596021
 10
51.503986056706076
 20
8.921512230651034
 10
51.51036581547726
 20
8.953585443871651
 10
51.520877388921704
 20
8.984551540687294
 10
51.53534092110342
 20
9.013880682596021
 10
51.55350893697672
 20
9.041071039848202
 10
51.57507057675289
 20
9.065657377892657
 10
51.57507057675289
 20
13.292103987299383
 10
53.17507057675289
 20
13.292103987299383
  0
LWPOLYLINE
  5
55
330
17
100
AcDbEntity
  8
POCKET
100
AcDbPolyline
 90
53
 70
1
 10
62.325070576752886
 20
13.292103987299383
 10
62.325070576752886
 20
9.065657377892657
 10
62.34663221652906
 20
9.041071039848202
 10
62.36480023240236
 20
9.013880682596021
 10
62.379263764584074
 20
8.984551540687294
 10
62.38977533802852
 20
8.953585443871651
 10
62.3961550967997
 20
8.921512230651034
 10
62.398293881456254
 20
8.888880682596021
 10
62.3961550967997
 20
8.856249134541008
 10
62.38977533802852
 20
8.824175921320391
 10
62.379263764584074
 20
8.793209824504748
 10
62.36480023240236
 20
8.763880682596021
 10
62.34663221652906
 20
8.73669032534384
 10
62.325070576752886
 20
8.712103987299384
 10
62.300484238708435
 20
8.690542347523213
 10
62.273293881456254
 20
8.672374331649912
 10
62.24396473954752
 20
8.6579107994682
 10
62.21299864273188
 20
8.647399226023754
 10
62.18092542951126
 20
8.641019467252569
 10
62.148293881456254
 20
8.638880682596021
 10
62.11566233340124
 20
8.641019467252569
 10
62.08358912018062
 20
8.647399226023754
 10
62.05262302336498
 20
8.6579107994682
 10
62.023293881456254
 20
8.672374331649912
 10
61.996103524204074
 20
8.690542347523213
 10
61.971517186159616
 20
8.712103987299384
 10
61.07862396734616
 20
8.712103987299384
 10
61.0540376293017
 20
8.690542347523213
 10
61.02684727204952
 20
8.672374331649912
 10
60.9975181301408
 20
8.6579107994682
 10
60.96655203332516
 20
8.647399226023754
 10
60.93447882010454
 20
8.641019467252569
 10
60.90184727204952
 20
8.638880682596021
 10
60.869215723994515
 20
8.641019467252569
 10
60.837142510773894
 20
8.647399226023754
 10
60.806176413958255
 20
8.6579107994682
 10
60.77684727204952
 20
8.672374331649912
 10
60.74965691479734
 20
8.690542347523213
 10
60.72507057675289
 20
8.712103987299384
 10
60.70350893697672
 20
8.73669032534384
 10
60.68534092110342
 20
8.763880682596021
 10
60.6708773889217
 20
8.793209824504748
 10
60.660365815477256
 20
8.824175921320391
 10
60.653986056706074
 20
8.856249134541008
 10
60.65184727204952
 20
8.888880682596021
 10
60.653986056706074
 20
8.921512230651034
 10
60.660365815477256
 20
8.953585443871651
 10
60.6708773889217
 20
8.984551540687294
 10
60.68534092110342
 20
9.013880682596021
 10
60.70350893697672
 20
9.041071039848202
 10
60.72507057675289
 20
9.065657377892657
 10
60.72507057675289
 20
13.292103987299383
 10
62.325070576752886
 20
13.292103987299383
  0
LWPOLYLINE
  5
56
330
17
100
AcDbEntity
  8
POCKET
100
AcDbPolyline
 90
53
 70
1
 10
56.8077
 20
-0.25496159096194226
 10
56.8077
 20
3.9714850184447825
 10
56.78613836022382
 20
3.996071356489239
 10
56.76797034435052
 20
4.0232617137414195
 10
56.75350681216881
 20
4.052590855650147
 10
56.74299523872436
 20
4.0835569524657895
 10
56.73661547995318
 20
4.115630165686406
 10
56.73447669529663
 20
4.1482617137414195
 10
56.73661547995318
 20
4.180893261796433
 10
56.74299523872436
 20
4.2129664750170495
 10
56.75350681216881
 20
4.243932571832692
 10
56.76797034435052
 20
4.2732617137414195
 10
56.78613836022382
 20
4.3004520709936
 10
56.8077
 20
4.325038409038056
 10
56.83228633804445
 20
4.346600048814229
 10
56.85947669529663
 20
4.364768064687529
 10
56.88880583720536
 20
4.379231596869241
 10
56.919771934021
 20
4.389743170313687
 10
56.95184514724162
 20
4.396122929084872
 10
56.98447669529663
 20
4.3982617137414195
 10
57.01710824335164
 20
4.396122929084872
 10
57.04918145657226
 20
4.389743170313687
 10
57.0801475533879
 20
4.379231596869241
 10
57.10947669529663
 20
4.364768064687529
 10
57.13666705254881
 20
4.346600048814229
 10
57.16125339059327
 20
4.325038409038056
 10
58.05414660940672
 20
4.325038409038056
 10
58.07873294745118
 20
4.346600048814229
 10
58.10592330470336
 20
4.364768064687529
 10
58.135252446612085
 20
4.379231596869241
 10
58.166218543427725
 20
4.389743170313687
 10
58.198291756648345
 20
4.396122929084872
 10
58.23092330470336
 20
4.3982617137414195
 10
58.26355485275837
 20
4.396122929084872
 10
58.29562806597899
 20
4.389743170313687
 10
58.32659416279463
 20
4.379231596869241
 10
58.35592330470336
 20
4.364768064687529
 10
58.38311366195554
 20
4.346600048814229
 10
58.40769999999999
 20
4.325038409038056
 10
58.429261639776165
 20
4.3004520709936
 10
58.447429655649465
 20
4.2732617137414195
 10
58.46189318783118
 20
4.243932571832692
 10
58.47240476127563
 20
4.2129664750170495
 10
58.47878452004681
 20
4.180893261796433
 10
58.48092330470336
 20
4.1482617137414195
 10
58.47878452004681
 20
4.115630165686406
 10
58.47240476127563
 20
4.0835569524657895
 10
58.46189318783118
 20
4.052590855650147
 10
58.447429655649465
 20
4.0232617137414195
 10
58.429261639776165
 20
3.9960713564892396
 10
58.40769999999999
 20
3.9714850184447825
 10
58.40769999999999
 20
-0.25496159096194226
 10
56.8077
 20
-0.25496159096194226
  0
LWPOLYLINE
  5
57
330
17
100
AcDbEntity
  8
POCKET
100
AcDbPolyline
 90
53
 70
1
 10
45.3077
 20
-0.25496159096194226
 10
45.3077
 20
3.9714850184447825
 10
45.28613836022382
 20
3.996071356489239
 10
45.26797034435052
 20
4.0232617137414195
 10
45.25350681216881
 20
4.052590855650147
 10
45.24299523872436
 20
4.0835569524657895
 10
45.23661547995318
 20
4.115630165686406
 10
45.23447669529663
 20
4.1482617137414195
 10
45.23661547995318
 20
4.180893261796433
 10
45.24299523872436
 20
4.2129664750170495
 10
45.25350681216881
 20
4.243932571832692
 10
45.26797034435052
 20
4.2732617137414195
 10
45.28613836022382
 20
4.3004520709936
 10
45.3077
 20
4.325038409038056
 10
45.33228633804445
 20
4.346600048814229
 10
45.35947669529663
 20
4.364768064687529
 10
45.38880583720536
 20
4.379231596869241
 10
45.419771934021
 20
4.389743170313687
 10
45.45184514724162
 20
4.396122929084872
 10
45.48447669529663
 20
4.3982617137414195
 10
45.51710824335164
 20
4.396122929084872
 10
45.54918145657226
 20
4.389743170313687
 10
45.5801475533879
 20
4.379231596869241
 10
45.60947669529663
 20
4.364768064687529
 10
45.63666705254881
 20
4.346600048814229
 10
45.66125339059327
 20
4.325038409038056
 10
46.55414660940672
 20
4.325038409038056
 10
46.57873294745118
 20
4.346600048814229
 10
46.60592330470336
 20
4.364768064687529
 10
46.635252446612085
 20
4.379231596869241
 10
46.666218543427725
 20
4.389743170313687
 10
46.698291756648345
 20
4.396122929084872
 10
46.73092330470336
 20
4.3982617137414195
 10
46.76355485275837
 20
4.396122929084872
 10
46.79562806597899
 20
4.389743170313687
 10
46.82659416279463
 20
4.379231596869241
 10
46.85592330470336
 20
4.364768064687529
 10
46.88311366195554
 20
4.346600048814229
 10
46.90769999999999
 20
4.325038409038056
 10
46.929261639776165
 20
4.3004520709936
 10
46.947429655649465
 20
4.2732617137414195
 10
46.96189318783118
 20
4.243932571832692
 10
46.97240476127563
 20
4.2129664750170495
 10
46.97878452004681
 20
4.180893261796433
 10
46.98092330470336
 20
4.1482617137414195
 10
46.97878452004681
 20
4.115630165686406
 10
46.97240476127563
 20
4.0835569524657895
 10
46.96189318783118
 20
4.052590855650147
 10
46.947429655649465
 20
4.0232617137414195
 10
46.929261639776165
 20
3.9960713564892396
 10
46.90769999999999
 20
3.9714850184447825
 10
46.90769999999999
 20
-0.25496159096194226
 10
45.3077
 20
-0.25496159096194226
  0
LWPOLYLINE
  5
58
330
17
100
AcDbEntity
  8
POCKET
100
AcDbPolyline
 90
53
 70
1
 10
36.157700000000006
 20
-0.25496159096194226
 10
36.157700000000006
 20
3.9714850184447825
 10
36.13613836022383
 20
3.996071356489239
 10
36.11797034435053
 20
4.0232617137414195
 10
36.10350681216882
 20
4.052590855650147
 10
36.09299523872437
 20
4.0835569524657895
 10
36.08661547995319
 20
4.115630165686406
 10
36.08447669529664
 20
4.1482617137414195
 10
36.08661547995319
 20
4.180893261796433
 10
36.09299523872437
 20
4.2129664750170495
 10
36.10350681216882
 20
4.243932571832692
 10
36.11797034435053
 20
4.2732617137414195
 10
36.13613836022383
 20
4.3004520709936
 10
36.157700000000006
 20
4.325038409038056
 10
36.182286338044456
 20
4.346600048814229
 10
36.20947669529664
 20
4.364768064687529
 10
36.23880583720537
 20
4.379231596869241
 10
36.26977193402101
 20
4.389743170313687
 10
36.30184514724163
 20
4.396122929084872
 10
36.33447669529664
 20
4.3982617137414195
 10
36.36710824335165
 20
4.396122929084872
 10
36.39918145657227
 20
4.389743170313687
 10
36.43014755338791
 20
4.379231596869241
 10
36.45947669529664
 20
4.364768064687529
 10
36.48666705254882
 20
4.346600048814229
 10
36.511253390593275
 20
4.325038409038056
 10
37.40414660940673
 20
4.325038409038056
 10
37.42873294745119
 20
4.346600048814229
 10
37.45592330470337
 20
4.364768064687529
 10
37.485252446612094
 20
4.379231596869241
 10
37.51621854342773
 20
4.389743170313687
 10
37.548291756648354
 20
4.396122929084872
 10
37.58092330470337
 20
4.3982617137414195
 10
37.61355485275838
 20
4.396122929084872
 10
37.645628065979
 20
4.389743170313687
 10
37.676594162794636
 20
4.379231596869241
 10
37.70592330470337
 20
4.364768064687529
 10
37.73311366195555
 20
4.346600048814229
 10
37.7577
 20
4.325038409038056
 10
37.77926163977617
 20
4.3004520709936
 10
37.79742965564947
 20
4.2732617137414195
 10
37.81189318783119
 20
4.243932571832692
 10
37.822404761275635
 20
4.2129664750170495
 10
37.82878452004682
 20
4.180893261796433
 10
37.83092330470337
 20
4.1482617137414195
 10
37.82878452004682
 20
4.115630165686406
 10
37.822404761275635
 20
4.0835569524657895
 10
37.81189318783119
 20
4.052590855650147
 10
37.79742965564947
 20
4.0232617137414195
 10
37.77926163977617
 20
3.9960713564892396
 10
37.7577
 20
3.9714850184447825
 10
37.7577
 20
-0.25496159096194226
 10
36.157700000000006
 20
-0.25496159096194226
  0
LWPOLYLINE
  5
59
330
17
100
AcDbEntity
  8
POCKET
100
AcDbPolyline
 90
53
 70
1
 10
41.161
 20
40.09571769811629
 10
41.161
 20
35.86927108870957
 10
41.182561639776175
 20
35.84468475066511
 10
41.200729655649475
 20
35.81749439341293
 10
41.21519318783119
 20
35.7881652515042
 10
41.22570476127564
 20
35.75719915468856
 10
41.23208452004682
 20
35.725125941467944
 10
41.23422330470337
 20
35.69249439341293
 10
41.23208452004682
 20
35.659862845357914
 10
41.22570476127564
 20
35.6277896321373
 10
41.21519318783119
 20
35.596823535321654
 10
41.200729655649475
 20
35.56749439341293
 10
41.182561639776175
 20
35.54030403616075
 10
41.161
 20
35.51571769811629
 10
41.13641366195555
 20
35.49415605834012
 10
41.10922330470337
 20
35.47598804246682
 10
41.07989416279464
 20
35.46152451028511
 10
41.048928065979
 20
35.45101293684066
 10
41.01685485275838
 20
35.44463317806947
 10
40.98422330470337
 20
35.44249439341293
 10
40.951591756648355
 20
35.44463317806947
 10
40.919518543427735
 20
35.45101293684066
 10
40.888552446612096
 20
35.46152451028511
 10
40.85922330470337
 20
35.47598804246682
 10
40.83203294745119
 20
35.49415605834012
 10
40.80744660940673
 20
35.51571769811629
 10
39.91455339059328
 20
35.51571769811629
 10
39.88996705254882
 20
35.49415605834012
 10
39.86277669529664
 20
35.47598804246682
 10
39.83344755338791
 20
35.46152451028511
 10
39.80248145657227
 20
35.45101293684066
 10
39.77040824335165
 20
35.44463317806947
 10
39.73777669529664
 20
35.44249439341293
 10
39.70514514724163
 20
35.44463317806947
 10
39.67307193402101
 20
35.45101293684066
 10
39.64210583720537
 20
35.46152451028511
 10
39.61277669529664
 20
35.47598804246682
 10
39.58558633804446
 20
35.49415605834012
 10
39.56100000000001
 20
35.51571769811629
 10
39.53943836022383
 20
35.54030403616075
 10
39.52127034435053
 20
35.56749439341293
 10
39.50680681216882
 20
35.596823535321654
 10
39.49629523872437
 20
35.6277896321373
 10
39.48991547995319
 20
35.659862845357914
 10
39.48777669529664
 20
35.69249439341293
 10
39.48991547995319
 20
35.725125941467944
 10
39.49629523872437
 20
35.75719915468856
 10
39.50680681216882
 20
35.7881652515042
 10
39.52127034435053
 20
35.81749439341293
 10
39.53943836022383
 20
35.84468475066511
 10
39.56100000000001
 20
35.86927108870957
 10
39.56100000000001
 20
40.09571769811629
 10
41.161
 20
40.09571769811629
  0
LWPOLYLINE
  5
5A
330
17
100
AcDbEntity
  8
POCKET
100
AcDbPolyline
 90
53
 70
1
 10
52.661
 20
40.09571769811629
 10
52.661
 20
35.86927108870957
 10
52.682561639776175
 20
35.84468475066511
 10
52.700729655649475
 20
35.81749439341293
 10
52.71519318783119
 20
35.7881652515042
 10
52.72570476127564
 20
35.75719915468856
 10
52.73208452004682
 20
35.725125941467944
 10
52.73422330470337
 20
35.69249439341293
 10
52.73208452004682
 20
35.659862845357914
 10
52.72570476127564
 20
35.6277896321373
 10
52.71519318783119
 20
35.596823535321654
 10
52.700729655649475
 20
35.56749439341293
 10
52.682561639776175
 20
35.54030403616075
 10
52.661
 20
35.51571769811629
 10
52.63641366195555
 20
35.49415605834012
 10
52.60922330470337
 20
35.47598804246682
 10
52.57989416279464
 20
35.46152451028511
 10
52.548928065979
 20
35.45101293684066
 10
52.51685485275838
 20
35.44463317806947
 10
52.48422330470337
 20
35.44249439341293
 10
52.451591756648355
 20
35.44463317806947
 10
52.419518543427735
 20
35.45101293684066
 10
52.388552446612096
 20
35.46152451028511
 10
52.35922330470337
 20
35.47598804246682
 10
52.33203294745119
 20
35.49415605834012
 10
52.30744660940673
 20
35.51571769811629
 10
51.41455339059328
 20
35.51571769811629
 10
51.38996705254882
 20
35.49415605834012
 10
51.36277669529664
 20
35.47598804246682
 10
51.33344755338791
 20
35.46152451028511
 10
51.30248145657227
 20
35.45101293684066
 10
51.27040824335165
 20
35.44463317806947
 10
51.23777669529664
 20
35.44249439341293
 10
51.20514514724163
 20
35.44463317806947
 10
51.17307193402101
 20
35.45101293684066
 10
51.14210583720537
 20
35.46152451028511
 10
51.11277669529664
 20
35.47598804246682
 10
51.08558633804446
 20
35.49415605834012
 10
51.06100000000001
 20
35.51571769811629
 10
51.03943836022383
 20
35.54030403616075
 10
51.02127034435053
 20
35.56749439341293
 10
51.00680681216882
 20
35.596823535321654
 10
50.99629523872437
 20
35.6277896321373
 10
50.98991547995319
 20
35.659862845357914
 10
50.98777669529664
 20
35.69249439341293
 10
50.98991547995319
 20
35.725125941467944
 10
50.99629523872437
 20
35.75719915468856
 10
51.00680681216882
 20
35.7881652515042
 10
51.02127034435053
 20
35.81749439341293
 10
51.03943836022383
 20
35.84468475066511
 10
51.06100000000001
 20
35.86927108870957
 10
51.06100000000001
 20
40.09571769811629
 10
52.661
 20
40.09571769811629
  0
LWPOLYLINE
  5
5B
330
17
100
AcDbEntity
  8
POCKET
100
AcDbPolyline
 90
53
 70
1
 10
61.81099999999999
 20
40.09571769811629
 10
61.81099999999999
 20
35.86927108870957
 10
61.832561639776166
 20
35.84468475066511
 10
61.85072965564947
 20
35.81749439341293
 10
61.86519318783118
 20
35.7881652515042
 10
61.87570476127563
 20
35.75719915468856
 10
61.88208452004681
 20
35.725125941467944
 10
61.88422330470336
 20
35.69249439341293
 10
61.88208452004681
 20
35.659862845357914
 10
61.87570476127563
 20
35.6277896321373
 10
61.86519318783118
 20
35.596823535321654
 10
61.85072965564947
 20
35.56749439341293
 10
61.832561639776166
 20
35.54030403616075
 10
61.81099999999999
 20
35.51571769811629
 10
61.78641366195554
 20
35.49415605834012
 10
61.75922330470336
 20
35.47598804246682
 10
61.72989416279463
 20
35.46152451028511
 10
61.69892806597899
 20
35.45101293684066
 10
61.66685485275837
 20
35.44463317806947
 10
61.63422330470336
 20
35.44249439341293
 10
61.60159175664835
 20
35.44463317806947
 10
61.569518543427726
 20
35.45101293684066
 10
61.53855244661209
 20
35.46152451028511
 10
61.50922330470336
 20
35.47598804246682
 10
61.48203294745118
 20
35.49415605834012
 10
61.45744660940672
 20
35.51571769811629
 10
60.56455339059327
 20
35.51571769811629
 10
60.53996705254881
 20
35.49415605834012
 10
60.51277669529663
 20
35.47598804246682
 10
60.483447553387904
 20
35.46152451028511
 10
60.452481456572265
 20
35.45101293684066
 10
60.420408243351645
 20
35.44463317806947
 10
60.38777669529663
 20
35.44249439341293
 10
60.35514514724162
 20
35.44463317806947
 10
60.323071934021
 20
35.45101293684066
 10
60.29210583720536
 20
35.46152451028511
 10
60.26277669529663
 20
35.47598804246682
 10
60.23558633804445
 20
35.49415605834012
 10
60.211
 20
35.51571769811629
 10
60.189438360223825
 20
35.54030403616075
 10
60.171270344350525
 20
35.56749439341293
 10
60.15680681216881
 20
35.596823535321654
 10
60.14629523872436
 20
35.6277896321373
 10
60.13991547995318
 20
35.659862845357914
 10
60.13777669529663
 20
35.69249439341293
 10
60.13991547995318
 20
35.725125941467944
 10
60.14629523872436
 20
35.75719915468856
 10
60.15680681216881
 20
35.7881652515042
 10
60.171270344350525
 20
35.81749439341293
 10
60.189438360223825
 20
35.84468475066511
 10
60.211
 20
35.86927108870957
 10
60.211
 20
40.09571769811629
 10
61.81099999999999
 20
40.09571769811629
  0
LWPOLYLINE
  5
5C
330
17
100
AcDbEntity
  8
POCKET
100
AcDbPolyline
 90
53
 70
1
 10
57.39032294749785
 20
13.149690650501723
 10
57.39032294749785
 20
17.376137259908447
 10
57.36876130772168
 20
17.400723597952904
 10
57.35059329184838
 20
17.427913955205085
 10
57.33612975966666
 20
17.457243097113814
 10
57.325618186222215
 20
17.488209193929453
 10
57.31923842745103
 20
17.520282407150074
 10
57.31709964279448
 20
17.552913955205085
 10
57.31923842745103
 20
17.585545503260096
 10
57.325618186222215
 20
17.617618716480713
 10
57.33612975966666
 20
17.648584813296356
 10
57.35059329184838
 20
17.677913955205085
 10
57.36876130772168
 20
17.705104312457266
 10
57.39032294749785
 20
17.729690650501723
 10
57.4149092855423
 20
17.751252290277893
 10
57.44209964279448
 20
17.769420306151194
 10
57.471428784703214
 20
17.783883838332905
 10
57.50239488151885
 20
17.79439541177735
 10
57.53446809473947
 20
17.800775170548537
 10
57.56709964279448
 20
17.802913955205085
 10
57.599731190849496
 20
17.800775170548537
 10
57.63180440407012
 20
17.79439541177735
 10
57.662770500885756
 20
17.783883838332905
 10
57.69209964279448
 20
17.769420306151194
 10
57.71929000004666
 20
17.751252290277893
 10
57.74387633809112
 20
17.729690650501723
 10
58.636769556904575
 20
17.729690650501723
 10
58.66135589494903
 20
17.751252290277893
 10
58.68854625220121
 20
17.769420306151194
 10
58.71787539410994
 20
17.783883838332905
 10
58.74884149092558
 20
17.79439541177735
 10
58.7809147041462
 20
17.800775170548537
 10
58.81354625220121
 20
17.802913955205085
 10
58.84617780025622
 20
17.800775170548537
 10
58.87825101347684
 20
17.79439541177735
 10
58.90921711029248
 20
17.783883838332905
 10
58.93854625220121
 20
17.769420306151194
 10
58.965736609453394
 20
17.751252290277893
 10
58.990322947497845
 20
17.729690650501723
 10
59.01188458727402
 20
17.705104312457266
 10
59.03005260314732
 20
17.677913955205085
 10
59.04451613532903
 20
17.648584813296356
 10
59.05502770877348
 20
17.617618716480717
 10
59.06140746754466
 20
17.585545503260096
 10
59.06354625220121
 20
17.552913955205085
 10
59.06140746754466
 20
17.520282407150074
 10
59.05502770877348
 20
17.488209193929453
 10
59.04451613532903
 20
17.457243097113814
 10
59.03005260314732
 20
17.427913955205085
 10
59.01188458727402
 20
17.400723597952904
 10
58.990322947497845
 20
17.376137259908447
 10
58.990322947497845
 20
13.149690650501723
 10
57.39032294749785
 20
13.149690650501723
  0
LWPOLYLINE
  5
5D
330
17
100
AcDbEntity
  8
POCKET
100
AcDbPolyline
 90
53
 70
1
 10
45.89032294749785
 20
13.149690650501723
 10
45.89032294749785
 20
17.376137259908447
 10
45.86876130772168
 20
17.400723597952904
 10
45.85059329184838
 20
17.427913955205085
 10
45.83612975966666
 20
17.457243097113814
 10
45.825618186222215
 20
17.488209193929453
 10
45.81923842745103
 20
17.520282407150074
 10
45.81709964279448
 20
17.552913955205085
 10
45.81923842745103
 20
17.585545503260096
 10
45.825618186222215
 20
17.617618716480713
 10
45.83612975966666
 20
17.648584813296356
 10
45.85059329184838
 20
17.677913955205085
 10
45.86876130772168
 20
17.705104312457266
 10
45.89032294749785
 20
17.729690650501723
 10
45.9149092855423
 20
17.751252290277893
 10
45.94209964279448
 20
17.769420306151194
 10
45.971428784703214
 20
17.783883838332905
 10
46.00239488151885
 20
17.79439541177735
 10
46.03446809473947
 20
17.800775170548537
 10
46.06709964279448
 20
17.802913955205085
 10
46.099731190849496
 20
17.800775170548537
 10
46.13180440407012
 20
17.79439541177735
 10
46.162770500885756
 20
17.783883838332905
 10
46.19209964279448
 20
17.769420306151194
 10
46.21929000004666
 20
17.751252290277893
 10
46.24387633809112
 20
17.729690650501723
 10
47.136769556904575
 20
17.729690650501723
 10
47.16135589494903
 20
17.751252290277893
 10
47.18854625220121
 20
17.769420306151194
 10
47.21787539410994
 20
17.783883838332905
 10
47.24884149092558
 20
17.79439541177735
 10
47.2809147041462
 20
17.800775170548537
 10
47.31354625220121
 20
17.802913955205085
 10
47.34617780025622
 20
17.800775170548537
 10
47.37825101347684
 20
17.79439541177735
 10
47.40921711029248
 20
17.783883838332905
 10
47.43854625220121
 20
17.769420306151194
 10
47.465736609453394
 20
17.751252290277893
 10
47.490322947497845
 20
17.729690650501723
 10
47.51188458727402
 20
17.705104312457266
 10
47.53005260314732
 20
17.677913955205085
 10
47.54451613532903
 20
17.648584813296356
 10
47.55502770877348
 20
17.617618716480717
 10
47.56140746754466
 20
17.585545503260096
 10
47.56354625220121
 20
17.552913955205085
 10
47.56140746754466
 20
17.520282407150074
 10
47.55502770877348
 20
17.488209193929453
 10
47.54451613532903
 20
17.457243097113814
 10
47.53005260314732
 20
17.427913955205085
 10
47.51188458727402
 20
17.400723597952904
 10
47.490322947497845
 20
17.376137259908447
 10
47.490322947497845
 20
13.149690650501723
 10
45.89032294749785
 20
13.149690650501723
  0
LWPOLYLINE
  5
5E
330
17
100
AcDbEntity
  8
POCKET
100
AcDbPolyline
 90
53
 70
1
 10
36.74032294749786
 20
13.149690650501723
 10
36.74032294749786
 20
17.376137259908447
 10
36.718761307721685
 20
17.400723597952904
 10
36.700593291848385
 20
17.427913955205085
 10
36.68612975966667
 20
17.457243097113814
 10
36.67561818622222
 20
17.488209193929453
 10
36.66923842745104
 20
17.520282407150074
 10
36.66709964279449
 20
17.552913955205085
 10
36.66923842745104
 20
17.585545503260096
 10
36.67561818622222
 20
17.617618716480713
 10
36.68612975966667
 20
17.648584813296356
 10
36.700593291848385
 20
17.677913955205085
 10
36.718761307721685
 20
17.705104312457266
 10
36.74032294749786
 20
17.729690650501723
 10
36.76490928554231
 20
17.751252290277893
 10
36.79209964279449
 20
17.769420306151194
 10
36.82142878470322
 20
17.783883838332905
 10
36.85239488151886
 20
17.79439541177735
 10
36.88446809473948
 20
17.800775170548537
 10
36.91709964279449
 20
17.802913955205085
 10
36.949731190849505
 20
17.800775170548537
 10
36.981804404070125
 20
17.79439541177735
 10
37.012770500885765
 20
17.783883838332905
 10
37.04209964279449
 20
17.769420306151194
 10
37.06929000004667
 20
17.751252290277893
 10
37.09387633809113
 20
17.729690650501723
 10
37.986769556904584
 20
17.729690650501723
 10
38.01135589494904
 20
17.751252290277893
 10
38.03854625220122
 20
17.769420306151194
 10
38.06787539410995
 20
17.783883838332905
 10
38.09884149092559
 20
17.79439541177735
 10
38.13091470414621
 20
17.800775170548537
 10
38.16354625220122
 20
17.802913955205085
 10
38.19617780025623
 20
17.800775170548537
 10
38.22825101347685
 20
17.79439541177735
 10
38.25921711029249
 20
17.783883838332905
 10
38.28854625220122
 20
17.769420306151194
 10
38.3157366094534
 20
17.751252290277893
 10
38.34032294749785
 20
17.729690650501723
 10
38.36188458727403
 20
17.705104312457266
 10
38.38005260314733
 20
17.677913955205085
 10
38.39451613532904
 20
17.648584813296356
 10
38.40502770877349
 20
17.617618716480717
 10
38.41140746754467
 20
17.585545503260096
 10
38.41354625220122
 20
17.552913955205085
 10
38.41140746754467
 20
17.520282407150074
 10
38.40502770877349
 20
17.488209193929453
 10
38.39451613532904
 20
17.457243097113814
 10
38.38005260314733
 20
17.427913955205085
 10
38.36188458727403
 20
17.400723597952904
 10
38.34032294749785
 20
17.376137259908447
 10
38.34032294749785
 20
13.149690650501723
 10
36.74032294749786
 20
13.149690650501723
  0
LWPOLYLINE
  5
5F
330
17
100
AcDbEntity
  8
POCKET
100
AcDbPolyline
 90
53
 70
1
 10
26.2247
 20
-0.25499907311223957
 10
26.2247
 20
3.971447536294485
 10
26.20313836022383
 20
3.996033874338942
 10
26.184970344350525
 20
4.023224231591122
 10
26.170506812168814
 20
4.052553373499849
 10
26.15999523872437
 20
4.083519470315492
 10
26.153615479953185
 20
4.115592683536109
 10
26.151476695296637
 20
4.148224231591122
 10
26.153615479953185
 20
4.180855779646135
 10
26.15999523872437
 20
4.212928992866752
 10
26.170506812168814
 20
4.243895089682395
 10
26.184970344350525
 20
4.273224231591122
 10
26.20313836022383
 20
4.300414588843303
 10
26.2247
 20
4.325000926887759
 10
26.249286338044456
 20
4.346562566663931
 10
26.276476695296637
 20
4.364730582537232
 10
26.305805837205362
 20
4.379194114718944
 10
26.336771934021005
 20
4.38970568816339
 10
26.368845147241622
 20
4.396085446934575
 10
26.401476695296637
 20
4.398224231591122
 10
26.43410824335165
 20
4.396085446934575
 10
26.466181456572265
 20
4.38970568816339
 10
26.497147553387908
 20
4.379194114718944
 10
26.526476695296637
 20
4.364730582537232
 10
26.553667052548818
 20
4.346562566663931
 10
26.57825339059327
 20
4.325000926887759
 10
27.471146609406727
 20
4.325000926887759
 10
27.49573294745118
 20
4.346562566663931
 10
27.52292330470336
 20
4.364730582537232
 10
27.55225244661209
 20
4.379194114718944
 10
27.583218543427733
 20
4.38970568816339
 10
27.61529175664835
 20
4.396085446934575
 10
27.64792330470336
 20
4.398224231591122
 10
27.680554852758377
 20
4.396085446934575
 10
27.712628065978993
 20
4.38970568816339
 10
27.743594162794636
 20
4.379194114718944
 10
27.77292330470336
 20
4.364730582537232
 10
27.800113661955542
 20
4.346562566663931
 10
27.8247
 20
4.325000926887759
 10
27.84626163977617
 20
4.300414588843303
 10
27.864429655649474
 20
4.273224231591122
 10
27.878893187831185
 20
4.243895089682395
 10
27.889404761275628
 20
4.212928992866752
 10
27.895784520046814
 20
4.180855779646135
 10
27.89792330470336
 20
4.148224231591122
 10
27.895784520046814
 20
4.115592683536109
 10
27.889404761275628
 20
4.083519470315492
 10
27.878893187831185
 20
4.052553373499849
 10
27.864429655649474
 20
4.023224231591122
 10
27.84626163977617
 20
3.9960338743389423
 10
27.8247
 20
3.971447536294485
 10
27.8247
 20
-0.25499907311223957
 10
26.2247
 20
-0.25499907311223957
  0
LWPOLYLINE
  5
60
330
17
100
AcDbEntity
  8
POCKET
100
AcDbPolyline
 90
53
 70
1
 10
14.724699999999999
 20
-0.25499907311223957
 10
14.724699999999999
 20
3.971447536294485
 10
14.703138360223827
 20
3.996033874338942
 10
14.684970344350527
 20
4.023224231591122
 10
14.670506812168814
 20
4.052553373499849
 10
14.659995238724369
 20
4.083519470315492
 10
14.653615479953183
 20
4.115592683536109
 10
14.651476695296637
 20
4.148224231591122
 10
14.653615479953183
 20
4.180855779646135
 10
14.659995238724369
 20
4.212928992866752
 10
14.670506812168814
 20
4.243895089682395
 10
14.684970344350527
 20
4.273224231591122
 10
14.703138360223827
 20
4.300414588843303
 10
14.724699999999999
 20
4.325000926887759
 10
14.749286338044456
 20
4.346562566663931
 10
14.776476695296637
 20
4.364730582537232
 10
14.805805837205364
 20
4.379194114718944
 10
14.836771934021005
 20
4.38970568816339
 10
14.868845147241624
 20
4.396085446934575
 10
14.901476695296637
 20
4.398224231591122
 10
14.934108243351648
 20
4.396085446934575
 10
14.966181456572267
 20
4.38970568816339
 10
14.997147553387908
 20
4.379194114718944
 10
15.026476695296637
 20
4.364730582537232
 10
15.053667052548816
 20
4.346562566663931
 10
15.078253390593273
 20
4.325000926887759
 10
15.971146609406725
 20
4.325000926887759
 10
15.995732947451183
 20
4.346562566663931
 10
16.02292330470336
 20
4.364730582537232
 10
16.05225244661209
 20
4.379194114718944
 10
16.083218543427733
 20
4.38970568816339
 10
16.11529175664835
 20
4.396085446934575
 10
16.14792330470336
 20
4.398224231591122
 10
16.180554852758377
 20
4.396085446934575
 10
16.212628065978993
 20
4.38970568816339
 10
16.243594162794636
 20
4.379194114718944
 10
16.27292330470336
 20
4.364730582537232
 10
16.300113661955542
 20
4.346562566663931
 10
16.3247
 20
4.325000926887759
 10
16.34626163977617
 20
4.300414588843303
 10
16.364429655649474
 20
4.273224231591122
 10
16.378893187831185
 20
4.243895089682395
 10
16.389404761275628
 20
4.212928992866752
 10
16.395784520046814
 20
4.180855779646135
 10
16.39792330470336
 20
4.148224231591122
 10
16.395784520046814
 20
4.115592683536109
 10
16.389404761275628
 20
4.083519470315492
 10
16.378893187831185
 20
4.052553373499849
 10
16.364429655649474
 20
4.023224231591122
 10
16.34626163977617
 20
3.9960338743389423
 10
16.3247
 20
3.971447536294485
 10
16.3247
 20
-0.25499907311223957
 10
14.724699999999999
 20
-0.25499907311223957
  0
LWPOLYLINE
  5
61
330
17
100
AcDbEntity
  8
POCKET
100
AcDbPolyline
 90
53
 70
1
 10
5.574700000000001
 20
-0.25499907311223957
 10
5.574700000000001
 20
3.971447536294485
 10
5.553138360223828
 20
3.996033874338942
 10
5.534970344350528
 20
4.023224231591122
 10
5.520506812168816
 20
4.052553373499849
 10
5.50999523872437
 20
4.083519470315492
 10
5.503615479953185
 20
4.115592683536109
 10
5.501476695296637
 20
4.148224231591122
 10
5.503615479953185
 20
4.180855779646135
 10
5.50999523872437
 20
4.212928992866752
 10
5.520506812168816
 20
4.243895089682395
 10
5.534970344350528
 20
4.273224231591122
 10
5.553138360223828
 20
4.300414588843303
 10
5.574700000000001
 20
4.325000926887759
 10
5.5992863380444575
 20
4.346562566663931
 10
5.626476695296637
 20
4.364730582537232
 10
5.6558058372053654
 20
4.379194114718944
 10
5.6867719340210074
 20
4.38970568816339
 10
5.718845147241625
 20
4.396085446934575
 10
5.751476695296637
 20
4.398224231591122
 10
5.784108243351651
 20
4.396085446934575
 10
5.816181456572267
 20
4.38970568816339
 10
5.84714755338791
 20
4.379194114718944
 10
5.876476695296637
 20
4.364730582537232
 10
5.903667052548817
 20
4.346562566663931
 10
5.928253390593275
 20
4.325000926887759
 10
6.821146609406727
 20
4.325000926887759
 10
6.845732947451184
 20
4.346562566663931
 10
6.872923304703364
 20
4.364730582537232
 10
6.902252446612091
 20
4.379194114718944
 10
6.933218543427733
 20
4.38970568816339
 10
6.965291756648351
 20
4.396085446934575
 10
6.997923304703364
 20
4.398224231591122
 10
7.030554852758376
 20
4.396085446934575
 10
7.062628065978994
 20
4.38970568816339
 10
7.093594162794636
 20
4.379194114718944
 10
7.122923304703364
 20
4.364730582537232
 10
7.150113661955544
 20
4.346562566663931
 10
7.1747000000000005
 20
4.325000926887759
 10
7.196261639776172
 20
4.300414588843303
 10
7.214429655649473
 20
4.273224231591122
 10
7.2288931878311855
 20
4.243895089682395
 10
7.239404761275631
 20
4.212928992866752
 10
7.245784520046817
 20
4.180855779646135
 10
7.247923304703364
 20
4.148224231591122
 10
7.245784520046817
 20
4.115592683536109
 10
7.239404761275631
 20
4.083519470315492
 10
7.2288931878311855
 20
4.052553373499849
 10
7.214429655649473
 20
4.023224231591122
 10
7.196261639776173
 20
3.9960338743389423
 10
7.1747000000000005
 20
3.971447536294485
 10
7.1747000000000005
 20
-0.25499907311223957
 10
5.574700000000001
 20
-0.25499907311223957
  0
ENDSEC
  0
SECTION
  2
OBJECTS
  0
DICTIONARY
  5
A
330
0
100
AcDbDictionary
281
1
  3
ACAD_COLOR
350
B
  3
ACAD_GROUP
350
C
  3
ACAD_LAYOUT
350
D
  3
ACAD_MATERIAL
350
E
  3
ACAD_MLEADERSTYLE
350
F
  3
ACAD_MLINESTYLE
350
10
  3
ACAD_PLOTSETTINGS
350
11
  3
ACAD_PLOTSTYLENAME
350
12
  3
ACAD_SCALELIST
350
14
  3
ACAD_TABLESTYLE
350
15
  3
ACAD_VISUALSTYLE
350
16
  3
EZDXF_META
350
2D
  0
DICTIONARY
  5
B
330
A
100
AcDbDictionary
281
1
  0
DICTIONARY
  5
C
330
A
100
AcDbDictionary
281
1
  0
DICTIONARY
  5
D
330
A
100
AcDbDictionary
281
1
  3
Model
350
1A
  3
Layout1
350
1E
  0
DICTIONARY
  5
E
330
A
100
AcDbDictionary
281
1
  3
ByBlock
350
1F
  3
ByLayer
350
20
  3
Global
350
21
  0
DICTIONARY
  5
F
330
A
100
AcDbDictionary
281
1
  3
Standard
350
2C
  0
DICTIONARY
  5
10
330
A
100
AcDbDictionary
281
1
  3
Standard
350
22
  0
DICTIONARY
  5
11
330
A
100
AcDbDictionary
281
1
  0
ACDBDICTIONARYWDFLT
  5
12
330
A
100
AcDbDictionary
281
1
  3
Normal
350
13
100
AcDbDictionaryWithDefault
340
13
  0
ACDBPLACEHOLDER
  5
13
330
12
  0
DICTIONARY
  5
14
330
A
100
AcDbDictionary
281
1
  0
DICTIONARY
  5
15
330
A
100
AcDbDictionary
281
1
  0
DICTIONARY
  5
16
330
A
100
AcDbDictionary
281
1
  0
LAYOUT
  5
1A
330
D
100
AcDbPlotSettings
  1

  4
A3
  6

 40
7.5
 41
20.0
 42
7.5
 43
20.0
 44
420.0
 45
297.0
 46
0.0
 47
0.0
 48
0.0
 49
0.0
140
0.0
141
0.0
142
1.0
143
1.0
 70
1024
 72
1
 73
0
 74
5
  7

 75
16
 76
0
 77
2
 78
300
147
1.0
148
0.0
149
0.0
100
AcDbLayout
  1
Model
 70
1
 71
0
 10
0.0
 20
0.0
 11
420.0
 21
297.0
 12
0.0
 22
0.0
 32
0.0
 14
1e+20
 24
1e+20
 34
1e+20
 15
-1e+20
 25
-1e+20
 35
-1e+20
146
0.0
 13
0.0
 23
0.0
 33
0.0
 16
1.0
 26
0.0
 36
0.0
 17
0.0
 27
1.0
 37
0.0
 76
1
330
17
  0
LAYOUT
  5
1E
330
D
100
AcDbPlotSettings
  1

  4
A3
  6

 40
7.5
 41
20.0
 42
7.5
 43
20.0
 44
420.0
 45
297.0
 46
0.0
 47
0.0
 48
0.0
 49
0.0
140
0.0
141
0.0
142
1.0
143
1.0
 70
0
 72
1
 73
0
 74
5
  7

 75
16
 76
0
 77
2
 78
300
147
1.0
148
0.0
149
0.0
100
AcDbLayout
  1
Layout1
 70
1
 71
1
 10
0.0
 20
0.0
 11
420.0
 21
297.0
 12
0.0
 22
0.0
 32
0.0
 14
1e+20
 24
1e+20
 34
1e+20
 15
-1e+20
 25
-1e+20
 35
-1e+20
146
0.0
 13
0.0
 23
0.0
 33
0.0
 16
1.0
 26
0.0
 36
0.0
 17
0.0
 27
1.0
 37
0.0
 76
1
330
1B
  0
MATERIAL
  5
1F
102
{ACAD_REACTORS
330
E
102
}
330
E
100
AcDbMaterial
  1
ByBlock
  2

 70
0
 40
1.0
 71
1
 41
1.0
 91
-1023410177
 42
1.0
 72
1
  3

 73
1
 74
1
 75
1
 44
0.5
 73
0
 45
1.0
 46
1.0
 77
1
  4

 78
1
 79
1
170
1
 48
1.0
171
1
  6

172
1
173
1
174
1
140
1.0
141
1.0
175
1
  7

176
1
177
1
178
1
143
1.0
179
1
  8

270
1
271
1
272
1
145
1.0
146
1.0
273
1
  9

274
1
275
1
276
1
 42
1.0
 72
1
  3

 73
1
 74
1
 75
1
 94
63
  0
MATERIAL
  5
20
102
{ACAD_REACTORS
330
E
102
}
330
E
100
AcDbMaterial
  1
ByLayer
  2

 70
0
 40
1.0
 71
1
 41
1.0
 91
-1023410177
 42
1.0
 72
1
  3

 73
1
 74
1
 75
1
 44
0.5
 73
0
 45
1.0
 46
1.0
 77
1
  4

 78
1
 79
1
170
1
 48
1.0
171
1
  6

172
1
173
1
174
1
140
1.0
141
1.0
175
1
  7

176
1
177
1
178
1
143
1.0
179
1
  8

270
1
271
1
272
1
145
1.0
146
1.0
273
1
  9

274
1
275
1
276
1
 42
1.0
 72
1
  3

 73
1
 74
1
 75
1
 94
63
  0
MATERIAL
  5
21
102
{ACAD_REACTORS
330
E
102
}
330
E
100
AcDbMaterial
  1
Global
  2

 70
0
 40
1.0
 71
1
 41
1.0
 91
-1023410177
 42
1.0
 72
1
  3

 73
1
 74
1
 75
1
 44
0.5
 73
0
 45
1.0
 46
1.0
 77
1
  4

 78
1
 79
1
170
1
 48
1.0
171
1
  6

172
1
173
1
174
1
140
1.0
141
1.0
175
1
  7

176
1
177
1
178
1
143
1.0
179
1
  8

270
1
271
1
272
1
145
1.0
146
1.0
273
1
  9

274
1
275
1
276
1
 42
1.0
 72
1
  3

 73
1
 74
1
 75
1
 94
63
  0
MLINESTYLE
  5
22
102
{ACAD_REACTORS
330
10
102
}
330
10
100
AcDbMlineStyle
  2
Standard
 70
0
  3

 62
256
 51
90.0
 52
90.0
 71
2
 49
0.5
 62
256
  6
BYLAYER
 49
-0.5
 62
256
  6
BYLAYER
  0
MLEADERSTYLE
  5
2C
102
{ACAD_REACTORS
330
F
102
}
330
F
100
AcDbMLeaderStyle
179
2
170
2
171
1
172
0
 90
2
 40
0.0
 41
0.0
173
1
 91
-1056964608
 92
-2
290
1
 42
2.0
291
1
 43
8.0
  3
Standard
 44
4.0
300

342
29
174
1
175
1
176
0
178
1
 93
-1056964608
 45
4.0
292
0
297
0
 46
4.0
 94
-1056964608
 47
1.0
 49
1.0
140
1.0
294
1
141
0.0
177
0
142
1.0
295
0
296
0
143
3.75
271
0
272
9
273
9
  0
DICTIONARY
  5
2D
330
A
100
AcDbDictionary
280
1
281
1
  3
CREATED_BY_EZDXF
350
2E
  3
WRITTEN_BY_EZDXF
350
64
  0
DICTIONARYVAR
  5
2E
330
2D
100
DictionaryVariables
280
0
  1
1.4.3 @ 2026-04-05T00:03:45.798116+00:00
  0
DICTIONARYVAR
  5
64
330
2D
100
DictionaryVariables
280
0
  1
1.4.3 @ 2026-04-05T00:03:45.850271+00:00
  0
ENDSEC
  0
EOF
