<?xml version="1.0" encoding="UTF-8"?>
<svg xmlns="http://www.w3.org/2000/svg" width="15.00" height="50.00" viewBox="0 0 15.00 50.00">
  <path d="M 48.000000,0.000000 L 45.437500,0.000000 L 45.437500,0.000000 L 45.353527,-0.004716 L 45.270609,-0.018804 L 45.189791,-0.042088 L 45.112087,-0.074273 L 45.038476,-0.114957 L 44.969883,-0.163626 L 44.907170,-0.219670 L 44.851126,-0.282383 L 44.802457,-0.350976 L 44.761773,-0.424587 L 44.729588,-0.502291 L 44.706304,-0.583109 L 44.692216,-0.666027 L 44.687500,-0.750000 L 44.062500,-0.750000 L 44.062500,-0.750000 L 43.761120,-0.606264 L 43.470006,-0.442734 L 43.190455,-0.260139 L 42.923714,-0.059292 L 42.670973,0.158909 L 42.433360,0.393493 L 42.211932,0.643412 L 42.007679,0.907553 L 41.821511,1.184738 L 41.654258,1.473729 L 41.506667,1.773240 L 41.379394,2.081933 L 41.273009,2.398432 L 41.187984,2.721327 L 41.124700,3.049176 L 41.083439,3.380517 L 41.064385,3.713874 L 41.067622,4.047759 L 41.093137,4.380684 L 41.093137,4.380684 L 41.149013,4.831099 L 41.216709,5.281514 L 41.295283,5.731929 L 41.383645,6.182344 L 41.480567,6.632759 L 41.584703,7.083174 L 41.694607,7.533589 L 41.808753,7.984004 L 41.925555,8.434419 L 42.043391,8.884834 L 42.160624,9.335249 L 42.275626,9.785664 L 42.386800,10.236079 L 42.492602,10.686494 L 42.591563,11.136909 L 42.682308,11.587324 L 42.763576,12.037739 L 42.834239,12.488154 L 42.893316,12.938569 L 42.939986,13.388984 L 42.973600,13.839399 L 42.993693,14.289814 L 42.999985,14.740229 L 42.992388,15.190644 L 42.971008,15.641059 L 42.936143,16.091474 L 42.888275,16.541889 L 42.828071,16.992304 L 42.756366,17.442718 L 42.674156,17.893133 L 42.582583,18.343548 L 42.482918,18.793963 L 42.376547,19.244378 L 42.264946,19.694793 L 42.149665,20.145208 L 42.032305,20.595623 L 41.914497,21.046038 L 41.797876,21.496453 L 41.684063,21.946868 L 41.574637,22.397283 L 41.471119,22.847698 L 41.374947,23.298113 L 41.287456,23.748528 L 41.209861,24.198943 L 41.143240,24.649358 L 41.088518,25.099773 L 41.046455,25.550188 L 41.017636,26.000603 L 41.002461,26.451018 L 41.002461,26.451018 L 40.996764,26.588775 L 40.984743,26.726124 L 40.966424,26.862776 L 40.941847,26.998442 L 40.911061,27.132835 L 40.874134,27.265672 L 40.831142,27.396672 L 40.782177,27.525559 L 40.727341,27.652059 L 40.666752,27.775907 L 40.600536,27.896839 L 40.528833,28.014602 L 40.451796,28.128946 L 40.369586,28.239630 L 40.282378,28.346419 L 40.190355,28.449089 L 40.093712,28.547423 L 39.992653,28.641212 L 39.887392,28.730259 L 48.000000,28.730259 L 48.000000,0.000000 Z" fill="none" stroke="black" stroke-width="0.1"/>
</svg>