  0
SECTION
  2
HEADER
  9
$ACADVER
  1
AC1024
  9
$ACADMAINTVER
 70
6
  9
$DWGCODEPAGE
  3
ANSI_1252
  9
$LASTSAVEDBY
  1
ezdxf
  9
$INSBASE
 10
0.0
 20
0.0
 30
0.0
  9
$EXTMIN
 10
1e+20
 20
1e+20
 30
1e+20
  9
$EXTMAX
 10
-1e+20
 20
-1e+20
 30
-1e+20
  9
$LIMMIN
 10
0.0
 20
0.0
  9
$LIMMAX
 10
420.0
 20
297.0
  9
$ORTHOMODE
 70
0
  9
$REGENMODE
 70
1
  9
$FILLMODE
 70
1
  9
$QTEXTMODE
 70
0
  9
$MIRRTEXT
 70
1
  9
$LTSCALE
 40
1.0
  9
$ATTMODE
 70
1
  9
$TEXTSIZE
 40
2.5
  9
$TRACEWID
 40
1.0
  9
$TEXTSTYLE
  7
Standard
  9
$CLAYER
  8
0
  9
$CELTYPE
  6
ByLayer
  9
$CECOLOR
 62
256
  9
$CELTSCALE
 40
1.0
  9
$DISPSILH
 70
0
  9
$DIMSCALE
 40
1.0
  9
$DIMASZ
 40
2.5
  9
$DIMEXO
 40
0.625
  9
$DIMDLI
 40
3.75
  9
$DIMRND
 40
0.0
  9
$DIMDLE
 40
0.0
  9
$DIMEXE
 40
1.25
  9
$DIMTP
 40
0.0
  9
$DIMTM
 40
0.0
  9
$DIMTXT
 40
2.5
  9
$DIMCEN
 40
2.5
  9
$DIMTSZ
 40
0.0
  9
$DIMTOL
 70
0
  9
$DIMLIM
 70
0
  9
$DIMTIH
 70
0
  9
$DIMTOH
 70
0
  9
$DIMSE1
 70
0
  9
$DIMSE2
 70
0
  9
$DIMTAD
 70
1
  9
$DIMZIN
 70
8
  9
$DIMBLK
  1

  9
$DIMASO
 70
1
  9
$DIMSHO
 70
1
  9
$DIMPOST
  1

  9
$DIMAPOST
  1

  9
$DIMALT
 70
0
  9
$DIMALTD
 70
3
  9
$DIMALTF
 40
0.03937007874
  9
$DIMLFAC
 40
1.0
  9
$DIMTOFL
 70
1
  9
$DIMTVP
 40
0.0
  9
$DIMTIX
 70
0
  9
$DIMSOXD
 70
0
  9
$DIMSAH
 70
0
  9
$DIMBLK1
  1

  9
$DIMBLK2
  1

  9
$DIMSTYLE
  2
ISO-25
  9
$DIMCLRD
 70
0
  9
$DIMCLRE
 70
0
  9
$DIMCLRT
 70
0
  9
$DIMTFAC
 40
1.0
  9
$DIMGAP
 40
0.625
  9
$DIMJUST
 70
0
  9
$DIMSD1
 70
0
  9
$DIMSD2
 70
0
  9
$DIMTOLJ
 70
0
  9
$DIMTZIN
 70
8
  9
$DIMALTZ
 70
0
  9
$DIMALTTZ
 70
0
  9
$DIMUPT
 70
0
  9
$DIMDEC
 70
2
  9
$DIMTDEC
 70
2
  9
$DIMALTU
 70
2
  9
$DIMALTTD
 70
3
  9
$DIMTXSTY
  7
Standard
  9
$DIMAUNIT
 70
0
  9
$DIMADEC
 70
0
  9
$DIMALTRND
 40
0.0
  9
$DIMAZIN
 70
0
  9
$DIMDSEP
 70
44
  9
$DIMATFIT
 70
3
  9
$DIMFRAC
 70
0
  9
$DIMLDRBLK
  1

  9
$DIMLUNIT
 70
2
  9
$DIMLWD
 70
-2
  9
$DIMLWE
 70
-2
  9
$DIMTMOVE
 70
0
  9
$DIMFXL
 40
1.0
  9
$DIMFXLON
 70
0
  9
$DIMJOGANG
 40
0.785398163397
  9
$DIMTFILL
 70
0
  9
$DIMTFILLCLR
 70
0
  9
$DIMARCSYM
 70
0
  9
$DIMLTYPE
  6

  9
$DIMLTEX1
  6

  9
$DIMLTEX2
  6

  9
$DIMTXTDIRECTION
 70
0
  9
$LUNITS
 70
2
  9
$LUPREC
 70
4
  9
$SKETCHINC
 40
1.0
  9
$FILLETRAD
 40
10.0
  9
$AUNITS
 70
0
  9
$AUPREC
 70
2
  9
$MENU
  1
.
  9
$ELEVATION
 40
0.0
  9
$PELEVATION
 40
0.0
  9
$THICKNESS
 40
0.0
  9
$LIMCHECK
 70
0
  9
$CHAMFERA
 40
0.0
  9
$CHAMFERB
 40
0.0
  9
$CHAMFERC
 40
0.0
  9
$CHAMFERD
 40
0.0
  9
$SKPOLY
 70
0
  9
$TDCREATE
 40
2461185.8805671297
  9
$TDUCREATE
 40
2458532.153996898
  9
$TDUPDATE
 40
2461185.8805671297
  9
$TDUUPDATE
 40
2458532.1544311
  9
$TDINDWG
 40
0.0
  9
$TDUSRTIMER
 40
0.0
  9
$USRTIMER
 70
1
  9
$ANGBASE
 50
0.0
  9
$ANGDIR
 70
0
  9
$PDMODE
 70
0
  9
$PDSIZE
 40
0.0
  9
$PLINEWID
 40
0.0
  9
$SPLFRAME
 70
0
  9
$SPLINETYPE
 70
6
  9
$SPLINESEGS
 70
8
  9
$HANDSEED
  5
33
  9
$SURFTAB1
 70
6
  9
$SURFTAB2
 70
6
  9
$SURFTYPE
 70
6
  9
$SURFU
 70
6
  9
$SURFV
 70
6
  9
$UCSBASE
  2

  9
$UCSNAME
  2

  9
$UCSORG
 10
0.0
 20
0.0
 30
0.0
  9
$UCSXDIR
 10
1.0
 20
0.0
 30
0.0
  9
$UCSYDIR
 10
0.0
 20
1.0
 30
0.0
  9
$UCSORTHOREF
  2

  9
$UCSORTHOVIEW
 70
0
  9
$UCSORGTOP
 10
0.0
 20
0.0
 30
0.0
  9
$UCSORGBOTTOM
 10
0.0
 20
0.0
 30
0.0
  9
$UCSORGLEFT
 10
0.0
 20
0.0
 30
0.0
  9
$UCSORGRIGHT
 10
0.0
 20
0.0
 30
0.0
  9
$UCSORGFRONT
 10
0.0
 20
0.0
 30
0.0
  9
$UCSORGBACK
 10
0.0
 20
0.0
 30
0.0
  9
$PUCSBASE
  2

  9
$PUCSNAME
  2

  9
$PUCSORG
 10
0.0
 20
0.0
 30
0.0
  9
$PUCSXDIR
 10
1.0
 20
0.0
 30
0.0
  9
$PUCSYDIR
 10
0.0
 20
1.0
 30
0.0
  9
$PUCSORTHOREF
  2

  9
$PUCSORTHOVIEW
 70
0
  9
$PUCSORGTOP
 10
0.0
 20
0.0
 30
0.0
  9
$PUCSORGBOTTOM
 10
0.0
 20
0.0
 30
0.0
  9
$PUCSORGLEFT
 10
0.0
 20
0.0
 30
0.0
  9
$PUCSORGRIGHT
 10
0.0
 20
0.0
 30
0.0
  9
$PUCSORGFRONT
 10
0.0
 20
0.0
 30
0.0
  9
$PUCSORGBACK
 10
0.0
 20
0.0
 30
0.0
  9
$USERI1
 70
0
  9
$USERI2
 70
0
  9
$USERI3
 70
0
  9
$USERI4
 70
0
  9
$USERI5
 70
0
  9
$USERR1
 40
0.0
  9
$USERR2
 40
0.0
  9
$USERR3
 40
0.0
  9
$USERR4
 40
0.0
  9
$USERR5
 40
0.0
  9
$WORLDVIEW
 70
1
  9
$SHADEDGE
 70
3
  9
$SHADEDIF
 70
70
  9
$TILEMODE
 70
1
  9
$MAXACTVP
 70
64
  9
$PINSBASE
 10
0.0
 20
0.0
 30
0.0
  9
$PLIMCHECK
 70
0
  9
$PEXTMIN
 10
1e+20
 20
1e+20
 30
1e+20
  9
$PEXTMAX
 10
-1e+20
 20
-1e+20
 30
-1e+20
  9
$PLIMMIN
 10
0.0
 20
0.0
  9
$PLIMMAX
 10
420.0
 20
297.0
  9
$UNITMODE
 70
0
  9
$VISRETAIN
 70
1
  9
$PLINEGEN
 70
0
  9
$PSLTSCALE
 70
1
  9
$TREEDEPTH
 70
3020
  9
$CMLSTYLE
  2
Standard
  9
$CMLJUST
 70
0
  9
$CMLSCALE
 40
20.0
  9
$PROXYGRAPHICS
 70
1
  9
$MEASUREMENT
 70
1
  9
$CELWEIGHT
370
-1
  9
$ENDCAPS
280
0
  9
$JOINSTYLE
280
0
  9
$LWDISPLAY
290
0
  9
$INSUNITS
 70
1
  9
$HYPERLINKBASE
  1

  9
$STYLESHEET
  1

  9
$XEDIT
290
1
  9
$CEPSNTYPE
380
0
  9
$PSTYLEMODE
290
1
  9
$FINGERPRINTGUID
  2
{18D5CB9D-CD94-40E8-ADFD-2C56489A2EC4}
  9
$VERSIONGUID
  2
{8F6866F9-9D2D-4C67-ACC3-C0E89FC2F9C1}
  9
$EXTNAMES
290
1
  9
$PSVPSCALE
 40
0.0
  9
$OLESTARTUP
290
0
  9
$SORTENTS
280
127
  9
$INDEXCTL
280
0
  9
$HIDETEXT
280
1
  9
$XCLIPFRAME
280
1
  9
$HALOGAP
280
0
  9
$OBSCOLOR
 70
257
  9
$OBSLTYPE
280
0
  9
$INTERSECTIONDISPLAY
280
0
  9
$INTERSECTIONCOLOR
 70
257
  9
$DIMASSOC
280
2
  9
$PROJECTNAME
  1

  9
$CAMERADISPLAY
290
0
  9
$LENSLENGTH
 40
50.0
  9
$CAMERAHEIGHT
 40
0.0
  9
$STEPSPERSEC
 40
24.0
  9
$STEPSIZE
 40
100.0
  9
$3DDWFPREC
 40
2.0
  9
$PSOLWIDTH
 40
0.005
  9
$PSOLHEIGHT
 40
0.08
  9
$LOFTANG1
 40
1.570796326795
  9
$LOFTANG2
 40
1.570796326795
  9
$LOFTMAG1
 40
0.0
  9
$LOFTMAG2
 40
0.0
  9
$LOFTPARAM
 70
7
  9
$LOFTNORMALS
280
1
  9
$LATITUDE
 40
37.795
  9
$LONGITUDE
 40
-122.394
  9
$NORTHDIRECTION
 40
0.0
  9
$TIMEZONE
 70
-8000
  9
$LIGHTGLYPHDISPLAY
280
1
  9
$TILEMODELIGHTSYNCH
280
1
  9
$CMATERIAL
347
20
  9
$SOLIDHIST
280
0
  9
$SHOWHIST
280
1
  9
$DWFFRAME
280
2
  9
$DGNFRAME
280
2
  9
$REALWORLDSCALE
290
1
  9
$INTERFERECOLOR
 62
256
  9
$CSHADOW
280
0
  9
$SHADOWPLANELOCATION
 40
0.0
  0
ENDSEC
  0
SECTION
  2
CLASSES
  0
CLASS
  1
ACDBDICTIONARYWDFLT
  2
AcDbDictionaryWithDefault
  3
ObjectDBX Classes
 90
0
 91
0
280
0
281
0
  0
CLASS
  1
SUN
  2
AcDbSun
  3
SCENEOE
 90
1153
 91
0
280
0
281
0
  0
CLASS
  1
VISUALSTYLE
  2
AcDbVisualStyle
  3
ObjectDBX Classes
 90
4095
 91
0
280
0
281
0
  0
CLASS
  1
MATERIAL
  2
AcDbMaterial
  3
ObjectDBX Classes
 90
1153
 91
0
280
0
281
0
  0
CLASS
  1
SCALE
  2
AcDbScale
  3
ObjectDBX Classes
 90
1153
 91
0
280
0
281
0
  0
CLASS
  1
TABLESTYLE
  2
AcDbTableStyle
  3
ObjectDBX Classes
 90
4095
 91
0
280
0
281
0
  0
CLASS
  1
MLEADERSTYLE
  2
AcDbMLeaderStyle
  3
ACDB_MLEADERSTYLE_CLASS
 90
4095
 91
0
280
0
281
0
  0
CLASS
  1
DICTIONARYVAR
  2
AcDbDictionaryVar
  3
ObjectDBX Classes
 90
0
 91
0
280
0
281
0
  0
CLASS
  1
CELLSTYLEMAP
  2
AcDbCellStyleMap
  3
ObjectDBX Classes
 90
1152
 91
0
280
0
281
0
  0
CLASS
  1
MENTALRAYRENDERSETTINGS
  2
AcDbMentalRayRenderSettings
  3
SCENEOE
 90
1024
 91
0
280
0
281
0
  0
CLASS
  1
ACDBDETAILVIEWSTYLE
  2
AcDbDetailViewStyle
  3
ObjectDBX Classes
 90
1025
 91
0
280
0
281
0
  0
CLASS
  1
ACDBSECTIONVIEWSTYLE
  2
AcDbSectionViewStyle
  3
ObjectDBX Classes
 90
1025
 91
0
280
0
281
0
  0
CLASS
  1
RASTERVARIABLES
  2
AcDbRasterVariables
  3
ISM
 90
0
 91
0
280
0
281
0
  0
CLASS
  1
LAYOUT
  2
AcDbLayout
  3
ObjectDBX Classes
 90
0
 91
0
280
0
281
0
  0
CLASS
  1
ACDBPLACEHOLDER
  2
AcDbPlaceHolder
  3
ObjectDBX Classes
 90
0
 91
0
280
0
281
0
  0
ENDSEC
  0
SECTION
  2
TABLES
  0
TABLE
  2
VPORT
  5
8
330
0
100
AcDbSymbolTable
 70
1
  0
VPORT
  5
23
330
8
100
AcDbSymbolTableRecord
100
AcDbViewportTableRecord
  2
*Active
 70
0
 10
0.0
 20
0.0
 11
1.0
 21
1.0
 12
0.0
 22
0.0
 13
0.0
 23
0.0
 14
0.5
 24
0.5
 15
0.5
 25
0.5
 16
0.0
 26
0.0
 36
1.0
 17
0.0
 27
0.0
 37
0.0
 40
1000.0
 41
1.34
 42
50.0
 43
0.0
 44
0.0
 50
0.0
 51
0.0
 71
0
 72
1000
 73
1
 74
3
 75
0
 76
0
 77
0
 78
0
281
0
 65
0
146
0.0
  0
ENDTAB
  0
TABLE
  2
LTYPE
  5
2
330
0
100
AcDbSymbolTable
 70
3
  0
LTYPE
  5
24
330
2
100
AcDbSymbolTableRecord
100
AcDbLinetypeTableRecord
  2
ByBlock
 70
0
  3

 72
65
 73
0
 40
0.0
  0
LTYPE
  5
25
330
2
100
AcDbSymbolTableRecord
100
AcDbLinetypeTableRecord
  2
ByLayer
 70
0
  3

 72
65
 73
0
 40
0.0
  0
LTYPE
  5
26
330
2
100
AcDbSymbolTableRecord
100
AcDbLinetypeTableRecord
  2
Continuous
 70
0
  3

 72
65
 73
0
 40
0.0
  0
ENDTAB
  0
TABLE
  2
LAYER
  5
1
330
0
100
AcDbSymbolTable
 70
2
  0
LAYER
  5
27
330
1
100
AcDbSymbolTableRecord
100
AcDbLayerTableRecord
  2
0
 70
0
 62
7
  6
Continuous
370
-3
390
13
347
21
  0
LAYER
  5
28
330
1
100
AcDbSymbolTableRecord
100
AcDbLayerTableRecord
  2
Defpoints
 70
0
 62
7
  6
Continuous
290
0
370
-3
390
13
347
21
  0
ENDTAB
  0
TABLE
  2
STYLE
  5
5
330
0
100
AcDbSymbolTable
 70
1
  0
STYLE
  5
29
330
5
100
AcDbSymbolTableRecord
100
AcDbTextStyleTableRecord
  2
Standard
 70
0
 40
0.0
 41
1.0
 50
0.0
 71
0
 42
2.5
  3
txt
  4

  0
ENDTAB
  0
TABLE
  2
VIEW
  5
7
330
0
100
AcDbSymbolTable
 70
0
  0
ENDTAB
  0
TABLE
  2
UCS
  5
6
330
0
100
AcDbSymbolTable
 70
0
  0
ENDTAB
  0
TABLE
  2
APPID
  5
3
330
0
100
AcDbSymbolTable
 70
3
  0
APPID
  5
2A
330
3
100
AcDbSymbolTableRecord
100
AcDbRegAppTableRecord
  2
ACAD
 70
0
  0
APPID
  5
30
330
3
100
AcDbSymbolTableRecord
100
AcDbRegAppTableRecord
  2
HATCHBACKGROUNDCOLOR
 70
0
  0
APPID
  5
31
330
3
100
AcDbSymbolTableRecord
100
AcDbRegAppTableRecord
  2
EZDXF
 70
0
  0
ENDTAB
  0
TABLE
  2
DIMSTYLE
  5
4
330
0
100
AcDbSymbolTable
 70
1
100
AcDbDimStyleTable
  0
DIMSTYLE
105
2B
330
4
100
AcDbSymbolTableRecord
100
AcDbDimStyleTableRecord
  2
Standard
 70
0
 40
1.0
 41
2.5
 42
0.625
 43
3.75
 44
1.25
 45
0.0
 46
0.0
 47
0.0
 48
0.0
 49
2.5
140
2.5
141
2.5
142
0.0
143
0.03937007874
144
1.0
145
0.0
146
1.0
147
0.625
148
0.0
 69
0
 70
0
 71
0
 72
0
 73
0
 74
0
 75
0
 76
0
 77
1
 78
8
 79
3
170
0
171
3
172
1
173
0
174
0
175
0
176
0
177
0
178
0
179
2
271
2
272
2
273
2
274
3
275
0
276
0
277
2
278
44
279
0
280
0
281
0
282
0
283
0
284
8
285
0
286
0
288
0
289
3
290
0
371
-2
372
-2
  0
ENDTAB
  0
TABLE
  2
BLOCK_RECORD
  5
9
330
0
100
AcDbSymbolTable
 70
2
  0
BLOCK_RECORD
  5
17
330
9
100
AcDbSymbolTableRecord
100
AcDbBlockTableRecord
  2
*Model_Space
340
1A
 70
0
280
1
281
0
  0
BLOCK_RECORD
  5
1B
330
9
100
AcDbSymbolTableRecord
100
AcDbBlockTableRecord
  2
*Paper_Space
340
1E
 70
0
280
1
281
0
  0
ENDTAB
  0
ENDSEC
  0
SECTION
  2
BLOCKS
  0
BLOCK
  5
18
330
17
100
AcDbEntity
  8
0
100
AcDbBlockBegin
  2
*Model_Space
 70
0
 10
0.0
 20
0.0
 30
0.0
  3
*Model_Space
  1

  0
ENDBLK
  5
19
330
17
100
AcDbEntity
  8
0
100
AcDbBlockEnd
  0
BLOCK
  5
1C
330
1B
100
AcDbEntity
  8
0
100
AcDbBlockBegin
  2
*Paper_Space
 70
0
 10
0.0
 20
0.0
 30
0.0
  3
*Paper_Space
  1

  0
ENDBLK
  5
1D
330
1B
100
AcDbEntity
  8
0
100
AcDbBlockEnd
  0
ENDSEC
  0
SECTION
  2
ENTITIES
  0
LWPOLYLINE
  5
2F
330
17
100
AcDbEntity
  8
SHELF
100
AcDbPolyline
 90
628
 70
1
 10
0.0
 20
0.0
 10
4.160398029091792
 20
0.0
 10
4.160398029091792
 20
0.0457779632721202
 10
4.160398029091792
 20
0.0915559265442404
 10
4.160398029091792
 20
0.1373338898163606
 10
4.160398029091792
 20
0.1831118530884808
 10
4.160398029091792
 20
0.228889816360601
 10
4.160398029091792
 20
0.2746677796327212
 10
4.160398029091792
 20
0.3204457429048414
 10
4.160398029091792
 20
0.3662237061769616
 10
4.160398029091792
 20
0.4120016694490818
 10
4.160398029091792
 20
0.457779632721202
 10
4.160398029091792
 20
0.5035575959933222
 10
4.160398029091792
 20
0.5493355592654424
 10
4.160398029091792
 20
0.5951135225375626
 10
4.160398029091792
 20
0.6408914858096828
 10
4.160398029091792
 20
0.6866694490818029
 10
4.160398029091792
 20
0.7324474123539232
 10
4.160398029091792
 20
0.7782253756260434
 10
4.160398029091792
 20
0.8240033388981636
 10
4.160398029091792
 20
0.8697813021702838
 10
4.160398029091792
 20
0.915559265442404
 10
4.160398029091792
 20
0.923
 10
4.166998864220123
 20
0.9613372287145242
 10
4.1748710124590565
 20
1.0071151919866443
 10
4.1827319976399675
 20
1.0528931552587646
 10
4.190581317949362
 20
1.0986711185308848
 10
4.198418472318383
 20
1.144449081803005
 10
4.206242960454801
 20
1.1902270450751251
 10
4.214054282874945
 20
1.2360050083472454
 10
4.221851940935593
 20
1.2817829716193656
 10
4.229635436865796
 20
1.3275609348914859
 10
4.237404273798663
 20
1.3733388981636059
 10
4.245157955803069
 20
1.4191168614357261
 10
4.252895987915324
 20
1.4648948247078464
 10
4.26061787617076
 20
1.5106727879799666
 10
4.268323127635267
 20
1.5564507512520869
 10
4.276011250436764
 20
1.602228714524207
 10
4.283681753796591
 20
1.6480066777963271
 10
4.291334148060844
 20
1.6937846410684474
 10
4.298967944731628
 20
1.7395626043405676
 10
4.3065826564982475
 20
1.7853405676126877
 10
4.3141777972683055
 20
1.831118530884808
 10
4.32175288219874
 20
1.8768964941569282
 10
4.329307427726774
 20
1.9226744574290484
 10
4.336840951600781
 20
1.9684524207011687
 10
4.344352972911072
 20
2.0142303839732887
 10
4.351843012120597
 20
2.060008347245409
 10
4.35931059109555
 20
2.105786310517529
 10
4.3667552331359
 20
2.151564273789649
 10
4.374176463005815
 20
2.1973422370617697
 10
4.381573806964001
 20
2.2431202003338897
 10
4.388946792793945
 20
2.28889816360601
 10
4.396294949834057
 20
2.33467612687813
 10
4.403617809007717
 20
2.3804540901502502
 10
4.410914902853221
 20
2.4262320534223707
 10
4.4181857655536145
 20
2.4720100166944907
 10
4.425429932966438
 20
2.5177879799666107
 10
4.432646942653347
 20
2.563565943238731
 10
4.439836333909639
 20
2.6093439065108512
 10
4.44699764779366
 20
2.6551218697829717
 10
4.454130427156102
 20
2.7008998330550917
 10
4.461234216669184
 20
2.7466777963272118
 10
4.4683085628557215
 20
2.7924557595993322
 10
4.475353014118071
 20
2.8382337228714523
 10
4.482367120766963
 20
2.8840116861435727
 10
4.489350435050201
 20
2.9297896494156928
 10
4.496302511181253
 20
2.975567612687813
 10
4.503222905367702
 20
3.0213455759599332
 10
4.510111175839577
 20
3.0671235392320533
 10
4.516966882877558
 20
3.1129015025041737
 10
4.52378958884104
 20
3.1586794657762938
 10
4.530578858196075
 20
3.204457429048414
 10
4.537334257543174
 20
3.2502353923205343
 10
4.544055355644968
 20
3.2960133555926543
 10
4.550741723453744
 20
3.3417913188647748
 10
4.55739293413883
 20
3.387569282136895
 10
4.564008563113843
 20
3.433347245409015
 10
4.57058818806379
 20
3.4791252086811353
 10
4.577131388972032
 20
3.5249031719532553
 10
4.583637748147092
 20
3.5706811352253753
 10
4.590106850249322
 20
3.616459098497496
 10
4.596538282317412
 20
3.662237061769616
 10
4.602931633794757
 20
3.7080150250417363
 10
4.609286496555661
 20
3.7537929883138563
 10
4.615602464931393
 20
3.7995709515859764
 10
4.621879135736083
 20
3.845348914858097
 10
4.628116108292457
 20
3.891126878130217
 10
4.634312984457418
 20
3.9369048414023373
 10
4.640469368647461
 20
3.9826828046744573
 10
4.646584867863924
 20
4.028460767946577
 10
4.652659091718074
 20
4.074238731218697
 10
4.658691652456035
 20
4.120016694490818
 10
4.664682164983532
 20
4.165794657762938
 10
4.670630246890479
 20
4.211572621035058
 10
4.676535518475388
 20
4.257350584307178
 10
4.682397602769612
 20
4.303128547579298
 10
4.688216125561402
 20
4.348906510851419
 10
4.693990715419802
 20
4.394684474123539
 10
4.699721003718355
 20
4.440462437395659
 10
4.705406624658638
 20
4.486240400667779
 10
4.711047215293608
 20
4.532018363939899
 10
4.716642415550779
 20
4.57779632721202
 10
4.722191868255201
 20
4.62357429048414
 10
4.727695219152261
 20
4.66935225375626
 10
4.733152116930302
 20
4.71513021702838
 10
4.738562213243046
 20
4.7609081803005004
 10
4.743925162731828
 20
4.806686143572621
 10
4.7492406230476485
 20
4.852464106844741
 10
4.7545082548730235
 20
4.898242070116861
 10
4.759727721943646
 20
4.944020033388981
 10
4.764898691069854
 20
4.9897979966611015
 10
4.770020832157897
 20
5.0355759599332215
 10
4.7750938182310065
 20
5.081353923205342
 10
4.780117325450275
 20
5.127131886477462
 10
4.785091033135325
 20
5.1729098497495825
 10
4.790014623784775
 20
5.2186878130217025
 10
4.7948877830965175
 20
5.2644657762938225
 10
4.799710199987775
 20
5.310243739565943
 10
4.804481566614962
 20
5.3560217028380634
 10
4.809201578393334
 20
5.4017996661101835
 10
4.8138699340164335
 20
5.4475776293823035
 10
4.818486335475323
 20
5.4933555926544235
 10
4.823050488077607
 20
5.539133555926544
 10
4.827562100466249
 20
5.5849115191986645
 10
4.832020884638163
 20
5.6306894824707845
 10
4.836426555962606
 20
5.6764674457429045
 10
4.840778833199343
 20
5.7222454090150245
 10
4.845077438516601
 20
5.7680233722871455
 10
4.849322097508805
 20
5.8138013355592655
 10
4.853512539214098
 20
5.8595792988313855
 10
4.857648496131633
 20
5.9053572621035055
 10
4.86172970423865
 20
5.951135225375626
 10
4.865755903007336
 20
5.9969131886477465
 10
4.869726835421446
 20
6.0426911519198665
 10
4.87364224799272
 20
6.0884691151919865
 10
4.877501890777059
 20
6.1342470784641066
 10
4.88130551739048
 20
6.180025041736227
 10
4.885052885024848
 20
6.2258030050083475
 10
4.8887437544633725
 20
6.2715809682804675
 10
4.8923778900958785
 20
6.3173589315525875
 10
4.89595505993385
 20
6.363136894824708
 10
4.899475035625233
 20
6.408914858096828
 10
4.902937592469021
 20
6.4546928213689485
 10
4.906342509429591
 20
6.5004707846410685
 10
4.90968956915082
 20
6.546248747913189
 10
4.912978557969954
 20
6.592026711185309
 10
4.916209265931251
 20
6.637804674457429
 10
4.919381486799386
 20
6.6835826377295495
 10
4.92249501807261
 20
6.7293606010016696
 10
4.925549660995683
 20
6.77513856427379
 10
4.928545220572557
 20
6.82091652754591
 10
4.931481505578827
 20
6.86669449081803
 10
4.934358328573936
 20
6.91247245409015
 10
4.937175505913142
 20
6.958250417362271
 10
4.939932857759241
 20
7.004028380634391
 10
4.9426302080940445
 20
7.049806343906511
 10
4.945267384729618
 20
7.095584307178631
 10
4.9478442193192755
 20
7.141362270450751
 10
4.950360547368319
 20
7.187140233722872
 10
4.952816208244547
 20
7.232918196994992
 10
4.955211045188502
 20
7.278696160267112
 10
4.9575449053234815
 20
7.324474123539232
 10
4.959817639665296
 20
7.370252086811352
 10
4.962029103131778
 20
7.416030050083473
 10
4.964179154552048
 20
7.461808013355593
 10
4.9662676566755195
 20
7.507585976627713
 10
4.968294476180666
 20
7.553363939899833
 10
4.970259483683529
 20
7.599141903171953
 10
4.97216255374598
 20
7.644919866444074
 10
4.9740035648837235
 20
7.690697829716194
 10
4.975782399574056
 20
7.736475792988314
 10
4.977498944263368
 20
7.782253756260434
 10
4.979153089374389
 20
7.828031719532554
 10
4.980744729313188
 20
7.873809682804675
 10
4.982273762475909
 20
7.919587646076795
 10
4.983740091255261
 20
7.965365609348915
 10
4.985143622046746
 20
8.011143572621036
 10
4.986484265254637
 20
8.056921535893155
 10
4.987761935297693
 20
8.102699499165276
 10
4.9889765506146295
 20
8.148477462437395
 10
4.990128033669317
 20
8.194255425709516
 10
4.9912163109557355
 20
8.240033388981637
 10
4.992241313002665
 20
8.285811352253756
 10
4.993202974378121
 20
8.331589315525877
 10
4.9941012336935335
 20
8.377367278797996
 10
4.994936033607661
 20
8.423145242070117
 10
4.995707320830252
 20
8.468923205342238
 10
4.996415046125452
 20
8.514701168614357
 10
4.9970591643149405
 20
8.560479131886478
 10
4.997639634280819
 20
8.606257095158597
 10
4.998156418968232
 20
8.652035058430718
 10
4.998609485387736
 20
8.697813021702839
 10
4.998998804617404
 20
8.743590984974958
 10
4.99932435180467
 20
8.789368948247079
 10
4.9995861061679205
 20
8.835146911519198
 10
4.999784050997814
 20
8.880924874791319
 10
4.9999181736583544
 20
8.92670283806344
 10
4.999988465587693
 20
8.972480801335559
 10
4.999994922298678
 20
9.01825876460768
 10
4.999937543379138
 20
9.064036727879799
 10
4.999816332491913
 20
9.10981469115192
 10
4.999631297374614
 20
9.15559265442404
 10
4.999382449839135
 20
9.20137061769616
 10
4.999069805770896
 20
9.24714858096828
 10
4.998693385127829
 20
9.2929265442404
 10
4.998253211939105
 20
9.33870450751252
 10
4.997749314303602
 20
9.384482470784642
 10
4.997181724388104
 20
9.43026043405676
 10
4.996550478425256
 20
9.476038397328882
 10
4.995855616711246
 20
9.521816360601001
 10
4.995097183603237
 20
9.567594323873122
 10
4.994275227516528
 20
9.613372287145243
 10
4.993389800921472
 20
9.659150250417362
 10
4.9924409603401205
 20
9.704928213689483
 10
4.991428766342618
 20
9.750706176961602
 10
4.990353283543334
 20
9.796484140233723
 10
4.989214580596741
 20
9.842262103505842
 10
4.988012730193027
 20
9.888040066777963
 10
4.986747809053462
 20
9.933818030050084
 10
4.9854198979254924
 20
9.979595993322203
 10
4.984029081577594
 20
10.025373956594324
 10
4.982575448793855
 20
10.071151919866443
 10
4.981059092368313
 20
10.116929883138564
 10
4.979480109099028
 20
10.162707846410685
 10
4.977838599781904
 20
10.208485809682804
 10
4.9761346692042565
 20
10.254263772954925
 10
4.974368426138118
 20
10.300041736227044
 10
4.972539983333303
 20
10.345819699499165
 10
4.970649457510203
 20
10.391597662771286
 10
4.968696969352338
 20
10.437375626043405
 10
4.966682643498655
 20
10.483153589315526
 10
4.964606608535566
 20
10.528931552587645
 10
4.962468996988746
 20
10.574709515859766
 10
4.9602699453146695
 20
10.620487479131887
 10
4.958009593891897
 20
10.666265442404006
 10
4.955688087012122
 20
10.712043405676127
 10
4.953305572870952
 20
10.757821368948246
 10
4.95086220355845
 20
10.803599332220367
 10
4.94835813504943
 20
10.849377295492488
 10
4.945793527193495
 20
10.895155258764607
 10
4.943168543704838
 20
10.940933222036728
 10
4.940483352151784
 20
10.986711185308847
 10
4.937738123946098
 20
11.032489148580968
 10
4.9349330343320466
 20
11.078267111853089
 10
4.932068262375201
 20
11.124045075125208
 10
4.929143990951014
 20
11.169823038397329
 10
4.926160406733145
 20
11.215601001669448
 10
4.92311770018154
 20
11.261378964941569
 10
4.920016065530276
 20
11.30715692821369
 10
4.916855700775162
 20
11.352934891485809
 10
4.913636807661101
 20
11.39871285475793
 10
4.910359591669206
 20
11.444490818030049
 10
4.90702426200369
 20
11.49026878130217
 10
4.903631031578504
 20
11.536046744574291
 10
4.900180117003754
 20
11.58182470784641
 10
4.8966717385718646
 20
11.627602671118531
 10
4.893106120243524
 20
11.67338063439065
 10
4.88948348963338
 20
11.719158597662771
 10
4.885804077995519
 20
11.764936560934892
 10
4.882068120208692
 20
11.810714524207011
 10
4.878275854761334
 20
11.856492487479132
 10
4.874427523736328
 20
11.902270450751251
 10
4.87052337279556
 20
11.948048414023372
 10
4.866563651164232
 20
11.993826377295493
 10
4.8625486116149546
 20
12.039604340567612
 10
4.858478510451611
 20
12.085382303839733
 10
4.854353607492993
 20
12.131160267111852
 10
4.850174166056221
 20
12.176938230383973
 10
4.845940452939928
 20
12.222716193656094
 10
4.841652738407232
 20
12.268494156928213
 10
4.837311296168484
 20
12.314272120200334
 10
4.832916403363794
 20
12.360050083472453
 10
4.82846834054534
 20
12.405828046744574
 10
4.823967391659458
 20
12.451606010016695
 10
4.819413844028518
 20
12.497383973288814
 10
4.8148079883325785
 20
12.543161936560935
 10
4.810150118590837
 20
12.588939899833054
 10
4.805440532142852
 20
12.634717863105175
 10
4.800679529629575
 20
12.680495826377296
 10
4.7958674149741425
 20
12.726273789649415
 10
4.791004495362489
 20
12.772051752921536
 10
4.786091081223731
 20
12.817829716193655
 10
4.781127486210349
 20
12.863607679465776
 10
4.7761140271781715
 20
12.909385642737897
 10
4.77105102416614
 20
12.955163606010016
 10
4.765938800375887
 20
13.000941569282137
 10
4.7607776821510965
 20
13.046719532554256
 10
4.755567998956679
 20
13.092497495826377
 10
4.750310083357736
 20
13.138275459098498
 10
4.745004270998326
 20
13.184053422370617
 10
4.739650900580048
 20
13.229831385642738
 10
4.7342503138404135
 20
13.275609348914857
 10
4.728802855531033
 20
13.321387312186978
 10
4.723308873395607
 20
13.367165275459099
 10
4.717768718147731
 20
13.412943238731218
 10
4.712182743448505
 20
13.458721202003339
 10
4.706551305883954
 20
13.504499165275458
 10
4.700874764942273
 20
13.55027712854758
 10
4.6951534829908725
 20
13.5960550918197
 10
4.689387825253247
 20
13.64183305509182
 10
4.683578159785663
 20
13.68761101836394
 10
4.6777248574536605
 20
13.73338898163606
 10
4.671828291908383
 20
13.77916694490818
 10
4.665888839562722
 20
13.8249449081803
 10
4.659906879567287
 20
13.87072287145242
 10
4.659043643196165
 20
13.877282738680153
 10
4.629689097620925
 20
13.881092737773999
 10
4.601282562747892
 20
13.889415851105634
 10
4.5745135111632065
 20
13.902050063240962
 10
4.550031671082825
 20
13.918688721399077
 10
4.528431256396932
 20
13.938927978411662
 10
4.510236544136912
 20
13.96227659474752
 10
4.495889149423092
 20
13.988167861691219
 10
4.485737306750872
 20
14.015973356281002
 10
4.480027417775808
 20
14.045018194151378
 10
4.478898070746548
 20
14.074597410069174
 10
4.482376676743689
 20
14.103993068580944
 10
4.49037880436848
 20
14.13249168946864
 10
4.502710229029548
 20
14.159401565069475
 10
4.51907164708814
 20
14.184069549140656
 10
4.51907164708814
 20
14.191168614357261
 10
4.51907164708814
 20
14.236946577629382
 10
4.51907164708814
 20
14.282724540901501
 10
4.51907164708814
 20
14.328502504173622
 10
4.51907164708814
 20
14.374280467445743
 10
4.51907164708814
 20
14.420058430717862
 10
4.51907164708814
 20
14.465836393989983
 10
4.51907164708814
 20
14.511614357262102
 10
4.51907164708814
 20
14.557392320534223
 10
4.51907164708814
 20
14.603170283806344
 10
4.51907164708814
 20
14.648948247078463
 10
4.51907164708814
 20
14.694726210350584
 10
4.51907164708814
 20
14.740504173622703
 10
4.51907164708814
 20
14.786282136894824
 10
4.51907164708814
 20
14.832060100166945
 10
4.51907164708814
 20
14.873
 10
4.518349726324627
 20
14.877838063439064
 10
4.511500659838045
 20
14.923616026711185
 10
4.504618941218532
 20
14.969393989983304
 10
4.497705009767164
 20
15.015171953255425
 10
4.4907593068413565
 20
15.060949916527546
 10
4.4837822758266865
 20
15.106727879799665
 10
4.476774362108589
 20
15.152505843071786
 10
4.469736013043928
 20
15.198283806343905
 10
4.4626676779324335
 20
15.244061769616026
 10
4.4555698079880255
 20
15.289839732888147
 10
4.44844285631001
 20
15.335617696160266
 10
4.441287277854148
 20
15.381395659432387
 10
4.4341035294036235
 20
15.427173622704506
 10
4.426892069539877
 20
15.472951585976627
 10
4.419653358613332
 20
15.518729549248748
 10
4.412387858714013
 20
15.564507512520867
 10
4.40509603364204
 20
15.610285475792988
 10
4.397778348878029
 20
15.656063439065107
 10
4.390435271553373
 20
15.701841402337228
 10
4.3830672704204225
 20
15.74761936560935
 10
4.375674815822564
 20
15.793397328881468
 10
4.368258379664194
 20
15.83917529215359
 10
4.360818435380596
 20
15.884953255425708
 10
4.353355457907714
 20
15.93073121869783
 10
4.345869923651842
 20
15.97650918196995
 10
4.338362310459202
 20
16.02228714524207
 10
4.330833097585454
 20
16.06806510851419
 10
4.323282765665086
 20
16.11384307178631
 10
4.315711796680745
 20
16.15962103505843
 10
4.308120673932463
 20
16.20539899833055
 10
4.3005098820068115
 20
16.25117696160267
 10
4.292879906745955
 20
16.29695492487479
 10
4.285231235216648
 20
16.342732888146912
 10
4.277564355679142
 20
16.38851085141903
 10
4.26987975755601
 20
16.43428881469115
 10
4.2621779314009105
 20
16.480066777963273
 10
4.254459368867268
 20
16.525844741235392
 10
4.246724562676891
 20
16.57162270450751
 10
4.238974006588516
 20
16.61740066777963
 10
4.23120819536629
 20
16.663178631051753
 10
4.2234276247481874
 20
16.708956594323872
 10
4.215632791414361
 20
16.75473455759599
 10
4.207824192955436
 20
16.800512520868114
 10
4.200002327840753
 20
16.846290484140233
 10
4.192167695386537
 20
16.892068447412353
 10
4.18432079572403
 20
16.937846410684475
 10
4.176462129767564
 20
16.983624373956594
 10
4.168592199182582
 20
17.029402337228714
 10
4.160711506353616
 20
17.075180300500833
 10
4.152820554352216
 20
17.120958263772955
 10
4.144919846904838
 20
17.166736227045075
 10
4.137009888360682
 20
17.212514190317194
 10
4.1290911836595035
 20
17.258292153589316
 10
4.121164238299378
 20
17.304070116861435
 10
4.11322955830443
 20
17.349848080133555
 10
4.105287650192531
 20
17.395626043405677
 10
4.097339020942967
 20
17.441404006677796
 10
4.089384177964076
 20
17.487181969949916
 10
4.081423629060852
 20
17.532959933222035
 10
4.073457882402535
 20
17.578737896494157
 10
4.065487446490168
 20
17.624515859766277
 10
4.057512830124136
 20
17.670293823038396
 10
4.049534542371686
 20
17.71607178631052
 10
4.041553092534436
 20
17.761849749582638
 10
4.033568990115854
 20
17.807627712854757
 10
4.025582744788741
 20
17.85340567612688
 10
4.017594866362692
 20
17.899183639399
 10
4.009605864751551
 20
17.944961602671118
 10
4.001616249940865
 20
17.990739565943237
 10
3.993626531955318
 20
18.03651752921536
 10
3.9856372208261903
 20
18.08229549248748
 10
3.9776488265587817
 20
18.128073455759598
 10
3.969661859099868
 20
18.17385141903172
 10
3.9616768283051416
 20
18.21962938230384
 10
3.9536942439066665
 20
18.26540734557596
 10
3.9457146154803366
 20
18.31118530884808
 10
3.9377384524133534
 20
18.3569632721202
 10
3.929766263871698
 20
18.40274123539232
 10
3.921798558767639
 20
18.44851919866444
 10
3.913835845727237
 20
18.49429716193656
 10
3.9058786330578803
 20
18.54007512520868
 10
3.897927428715837
 20
18.5858530884808
 10
3.8899827402738265
 20
18.631631051752922
 10
3.882045074888621
 20
18.67740901502504
 10
3.874114939268666
 20
18.72318697829716
 10
3.866192839641741
 20
18.768964941569283
 10
3.858279281722639
 20
18.814742904841403
 10
3.850374770680884
 20
18.86052086811352
 10
3.8424798111084844
 20
18.90629883138564
 10
3.8345949069877205
 20
18.952076794657764
 10
3.826720561658976
 20
18.997854757929883
 10
3.8188572777886023
 20
19.043632721202002
 10
3.8110055573368298
 20
19.089410684474124
 10
3.8031659015257326
 20
19.135188647746244
 10
3.7953388108072215
 20
19.180966611018363
 10
3.787524784831105
 20
19.226744574290485
 10
3.779724322413191
 20
19.272522537562605
 10
3.771937921503446
 20
19.318300500834724
 10
3.764166079154204
 20
19.364078464106843
 10
3.756409291488441
 20
19.409856427378966
 10
3.748668053668104
 20
19.455634390651085
 10
3.740942859862498
 20
19.501412353923204
 10
3.733234203216745
 20
19.547190317195327
 10
3.725542575820302
 20
19.592968280467446
 10
3.7178684686755465
 20
19.638746243739565
 10
3.7102123716664335
 20
19.684524207011684
 10
3.7025747735272247
 20
19.730302170283807
 10
3.694956161811289
 20
19.776080133555926
 10
3.6873570228599792
 20
19.821858096828045
 10
3.6797778417715836
 20
19.867636060100168
 10
3.6722191023703634
 20
19.913414023372287
 10
3.664681287175664
 20
19.959191986644406
 10
3.6571648773711143
 20
20.00496994991653
 10
3.64967035277391
 20
20.050747913188648
 10
3.6421981918041846
 20
20.096525876460767
 10
3.6347488714544647
 20
20.142303839732886
 10
3.6273228672592275
 20
20.18808180300501
 10
3.6199206532645416
 20
20.233859766277128
 10
3.612542701997802
 20
20.279637729549247
 10
3.6051894844375716
 20
20.32541569282137
 10
3.597861469983514
 20
20.37119365609349
 10
3.5905591264264274
 20
20.416971619365608
 10
3.583282919918383
 20
20.46274958263773
 10
3.576033314942972
 20
20.50852754590985
 10
3.5688107742856463
 20
20.55430550918197
 10
3.561615759004185
 20
20.600083472454088
 10
3.5544487283992567
 20
20.64586143572621
 10
3.5473101399851044
 20
20.69163939899833
 10
3.5402004494603325
 20
20.73741736227045
 10
3.533120110678823
 20
20.78319532554257
 10
3.5260695756207623
 20
20.82897328881469
 10
3.519049294363786
 20
20.87475125208681
 10
3.5120597150542503
 20
20.920529215358933
 10
3.5051012838786235
 20
20.96630717863105
 10
3.4981744450350023
 20
21.01208514190317
 10
3.4912796407047577
 20
21.05786310517529
 10
3.4844173110243046
 20
21.103641068447413
 10
3.4775878940570113
 20
21.149419031719532
 10
3.470791825765229
 20
21.19519699499165
 10
3.464029539982464
 20
21.240974958263774
 10
3.4573014683856873
 20
21.286752921535893
 10
3.450608040467771
 20
21.332530884808012
 10
3.443949683510075
 20
21.378308848080135
 10
3.4373268225551747
 20
21.424086811352254
 10
3.4307398803797207
 20
21.469864774624373
 10
3.4241892774674545
 20
21.515642737896492
 10
3.417675431982367
 20
21.561420701168615
 10
3.411198759742003
 20
21.607198664440734
 10
3.404759674190919
 20
21.652976627712853
 10
3.3983585863742864
 20
21.698754590984976
 10
3.391995904911659
 20
21.744532554257095
 10
3.385672035970881
 20
21.790310517529214
 10
3.3793873832421633
 20
21.836088480801337
 10
3.3731423479123137
 20
21.881866444073456
 10
3.366937328639124
 20
21.927644407345575
 10
3.3607727215259224
 20
21.973422370617694
 10
3.354648920096289
 20
22.019200333889817
 10
3.348566315268936
 20
22.064978297161936
 10
3.3425252953327473
 20
22.110756260434055
 10
3.3365262459219984
 20
22.156534223706178
 10
3.3305695499917363
 20
22.202312186978297
 10
3.3246555877933317
 20
22.248090150250416
 10
3.3187847368502066
 20
22.29386811352254
 10
3.3129573719337375
 20
22.339646076794658
 10
3.307173865039325
 20
22.385424040066777
 10
3.3014345853626548
 20
22.431202003338896
 10
3.295739899276123
 20
22.47697996661102
 10
3.290090170305453
 20
22.522757929883138
 10
3.284485759106487
 20
22.568535893155257
 10
3.278927023442164
 20
22.61431385642738
 10
3.2734143181596824
 20
22.6600918196995
 10
3.2679479951678463
 20
22.705869782971618
 10
3.2625284034146027
 20
22.75164774624374
 10
3.2571558888647645
 20
22.79742570951586
 10
3.2518307944779274
 20
22.84320367278798
 10
3.2465534601865746
 20
22.888981636060098
 10
3.24132422287438
 20
22.93475959933222
 10
3.2361434163546985
 20
22.98053756260434
 10
3.2310113713492603
 20
23.02631552587646
 10
3.2259284154670578
 20
23.072093489148582
 10
3.2208948731834326
 20
23.1178714524207
 10
3.215911065819362
 20
23.16364941569282
 10
3.2109773115209457
 20
23.209427378964943
 10
3.2060939252391005
 20
23.255205342237062
 10
3.201261218709451
 20
23.30098330550918
 10
3.1964795004324333
 20
23.3467612687813
 10
3.191749075653597
 20
23.392539232053423
 10
3.1870702463441245
 20
23.438317195325542
 10
3.1824433111815518
 20
23.48409515859766
 10
3.177868565530702
 20
23.529873121869784
 10
3.1733463014248304
 20
23.575651085141903
 10
3.1688768075469844
 20
23.621429048414022
 10
3.1644603692115725
 20
23.66720701168614
 10
3.160097268346151
 20
23.712984974958264
 10
3.1557877834734303
 20
23.758762938230383
 10
3.1515321896934902
 20
23.804540901502502
 10
3.1473307586662234
 20
23.850318864774625
 10
3.1431837585939895
 20
23.896096828046744
 10
3.1390914542044976
 20
23.941874791318863
 10
3.1350541067339046
 20
23.987652754590986
 10
3.1310719739101422
 20
24.033430717863105
 10
3.127145309936459
 20
24.079208681135224
 10
3.123274365475199
 20
24.124986644407343
 10
3.1194593876317978
 20
24.170764607679466
 10
3.1157006199390076
 20
24.216542570951585
 10
3.1119983023413527
 20
24.262320534223704
 10
3.1083526711798104
 20
24.308098497495827
 10
3.104763959176728
 20
24.353876460767946
 10
3.1012323954209613
 20
24.399654424040065
 10
3.0977582053532533
 20
24.445432387312188
 10
3.094341610751845
 20
24.491210350584307
 10
3.0909828297183144
 20
24.536988313856426
 10
3.0876820766636546
 20
24.582766277128545
 10
3.0844395622945875
 20
24.628544240400668
 10
3.0812554936001146
 20
24.674322203672787
 10
3.0781300738383006
 20
24.720100166944906
 10
3.0750635025232986
 20
24.76587813021703
 10
3.072055975412617
 20
24.811656093489148
 10
3.06910768449462
 20
24.857434056761267
 10
3.0662188179762726
 20
24.90321202003339
 10
3.063389560271127
 20
24.94898998330551
 10
3.0606200919875506
 20
24.99476794657763
 10
3.057910589917194
 20
25.040545909849747
 10
3.0552612270237094
 20
25.08632387312187
 10
3.0526721724317056
 20
25.13210183639399
 10
3.0501435914159547
 20
25.17787979966611
 10
3.04767564539084
 20
25.22365776293823
 10
3.0452684919000506
 20
25.26943572621035
 10
3.0429222846065294
 20
25.31521368948247
 10
3.0406371732826583
 20
25.360991652754592
 10
3.0384133038007
 20
25.40676961602671
 10
3.0362508181234857
 20
25.45254757929883
 10
3.0341498542953538
 20
25.49832554257095
 10
3.0321105464333344
 20
25.544103505843072
 10
3.030133024718594
 20
25.58988146911519
 10
3.0282174153881174
 20
25.63565943238731
 10
3.0263638407266553
 20
25.681437395659433
 10
3.0245724190589165
 20
25.727215358931552
 10
3.0228432647420127
 20
25.77299332220367
 10
3.02117648815816
 20
25.818771285475794
 10
3.0195721957076342
 20
25.864549248747913
 10
3.0180304898019745
 20
25.910327212020032
 10
3.0165514688574495
 20
25.95610517529215
 10
3.0151352272887726
 20
26.001883138564274
 10
3.013781855503077
 20
26.047661101836393
 10
3.0124914398941427
 20
26.093439065108512
 10
3.0112640628368816
 20
26.139217028380635
 10
3.01009980268208
 20
26.184994991652754
 10
3.0089987337513966
 20
26.230772954924873
 10
3.0079609263326175
 20
26.276550918196996
 10
3.00698644667517
 20
26.322328881469115
 10
3.006075356985894
 20
26.368106844741234
 10
3.0052277154250686
 20
26.413884808013353
 10
3.0044435761027026
 20
26.459662771285476
 10
3.0026983204422266
 20
26.497999999999987
 10
3.0026852811026594
 20
26.498617258515292
 10
3.002674247582325
 20
26.499234556142472
 10
3.0026652199977257
 20
26.499851886363512
 10
3.002658198444183
 20
26.500469242660053
 10
3.0026531829958376
 20
26.50108661851346
 10
3.002650173705647
 20
26.501704007404896
 10
3.002649170605386
 20
26.502321402815376
 10
3.002650173705647
 20
26.502938798225856
 10
3.0026531829958376
 20
26.50355618711729
 10
3.002658198444183
 20
26.5041735629707
 10
3.0026652199977253
 20
26.50479091926724
 10
3.0026742475823247
 20
26.50540824948828
 10
3.002685281102659
 20
26.50602554711546
 10
3.002698320442226
 20
26.506642805630765
 10
3.002698320442226
 20
26.551218697829714
 10
3.002698320442226
 20
26.596996661101837
 10
3.002698320442226
 20
26.642774624373956
 10
3.002698320442226
 20
26.688552587646075
 10
3.002698320442226
 20
26.734330550918198
 10
3.002698320442226
 20
26.780108514190317
 10
3.002698320442226
 20
26.825886477462436
 10
3.002698320442226
 20
26.871664440734556
 10
3.002698320442226
 20
26.917442404006678
 10
3.002698320442226
 20
26.963220367278797
 10
3.002698320442226
 20
27.008998330550916
 10
3.002698320442226
 20
27.05477629382304
 10
3.002698320442226
 20
27.10055425709516
 10
3.002698320442226
 20
27.146332220367277
 10
3.002698320442226
 20
27.1921101836394
 10
3.002698320442226
 20
27.23788814691152
 10
3.002698320442226
 20
27.28366611018364
 10
3.002698320442226
 20
27.329444073455758
 10
3.002698320442226
 20
27.37522203672788
 10
3.002698320442226
 20
27.421
 10
0.0
 20
27.421
 10
0.0
 20
0.0
  0
ENDSEC
  0
SECTION
  2
OBJECTS
  0
DICTIONARY
  5
A
330
0
100
AcDbDictionary
281
1
  3
ACAD_COLOR
350
B
  3
ACAD_GROUP
350
C
  3
ACAD_LAYOUT
350
D
  3
ACAD_MATERIAL
350
E
  3
ACAD_MLEADERSTYLE
350
F
  3
ACAD_MLINESTYLE
350
10
  3
ACAD_PLOTSETTINGS
350
11
  3
ACAD_PLOTSTYLENAME
350
12
  3
ACAD_SCALELIST
350
14
  3
ACAD_TABLESTYLE
350
15
  3
ACAD_VISUALSTYLE
350
16
  3
EZDXF_META
350
2D
  0
DICTIONARY
  5
B
330
A
100
AcDbDictionary
281
1
  0
DICTIONARY
  5
C
330
A
100
AcDbDictionary
281
1
  0
DICTIONARY
  5
D
330
A
100
AcDbDictionary
281
1
  3
Model
350
1A
  3
Layout1
350
1E
  0
DICTIONARY
  5
E
330
A
100
AcDbDictionary
281
1
  3
ByBlock
350
1F
  3
ByLayer
350
20
  3
Global
350
21
  0
DICTIONARY
  5
F
330
A
100
AcDbDictionary
281
1
  3
Standard
350
2C
  0
DICTIONARY
  5
10
330
A
100
AcDbDictionary
281
1
  3
Standard
350
22
  0
DICTIONARY
  5
11
330
A
100
AcDbDictionary
281
1
  0
ACDBDICTIONARYWDFLT
  5
12
330
A
100
AcDbDictionary
281
1
  3
Normal
350
13
100
AcDbDictionaryWithDefault
340
13
  0
ACDBPLACEHOLDER
  5
13
330
12
  0
DICTIONARY
  5
14
330
A
100
AcDbDictionary
281
1
  0
DICTIONARY
  5
15
330
A
100
AcDbDictionary
281
1
  0
DICTIONARY
  5
16
330
A
100
AcDbDictionary
281
1
  0
LAYOUT
  5
1A
330
D
100
AcDbPlotSettings
  1

  4
A3
  6

 40
7.5
 41
20.0
 42
7.5
 43
20.0
 44
420.0
 45
297.0
 46
0.0
 47
0.0
 48
0.0
 49
0.0
140
0.0
141
0.0
142
1.0
143
1.0
 70
1024
 72
1
 73
0
 74
5
  7

 75
16
 76
0
 77
2
 78
300
147
1.0
148
0.0
149
0.0
100
AcDbLayout
  1
Model
 70
1
 71
0
 10
0.0
 20
0.0
 11
420.0
 21
297.0
 12
0.0
 22
0.0
 32
0.0
 14
1e+20
 24
1e+20
 34
1e+20
 15
-1e+20
 25
-1e+20
 35
-1e+20
146
0.0
 13
0.0
 23
0.0
 33
0.0
 16
1.0
 26
0.0
 36
0.0
 17
0.0
 27
1.0
 37
0.0
 76
1
330
17
  0
LAYOUT
  5
1E
330
D
100
AcDbPlotSettings
  1

  4
A3
  6

 40
7.5
 41
20.0
 42
7.5
 43
20.0
 44
420.0
 45
297.0
 46
0.0
 47
0.0
 48
0.0
 49
0.0
140
0.0
141
0.0
142
1.0
143
1.0
 70
0
 72
1
 73
0
 74
5
  7

 75
16
 76
0
 77
2
 78
300
147
1.0
148
0.0
149
0.0
100
AcDbLayout
  1
Layout1
 70
1
 71
1
 10
0.0
 20
0.0
 11
420.0
 21
297.0
 12
0.0
 22
0.0
 32
0.0
 14
1e+20
 24
1e+20
 34
1e+20
 15
-1e+20
 25
-1e+20
 35
-1e+20
146
0.0
 13
0.0
 23
0.0
 33
0.0
 16
1.0
 26
0.0
 36
0.0
 17
0.0
 27
1.0
 37
0.0
 76
1
330
1B
  0
MATERIAL
  5
1F
102
{ACAD_REACTORS
330
E
102
}
330
E
100
AcDbMaterial
  1
ByBlock
  2

 70
0
 40
1.0
 71
1
 41
1.0
 91
-1023410177
 42
1.0
 72
1
  3

 73
1
 74
1
 75
1
 44
0.5
 73
0
 45
1.0
 46
1.0
 77
1
  4

 78
1
 79
1
170
1
 48
1.0
171
1
  6

172
1
173
1
174
1
140
1.0
141
1.0
175
1
  7

176
1
177
1
178
1
143
1.0
179
1
  8

270
1
271
1
272
1
145
1.0
146
1.0
273
1
  9

274
1
275
1
276
1
 42
1.0
 72
1
  3

 73
1
 74
1
 75
1
 94
63
  0
MATERIAL
  5
20
102
{ACAD_REACTORS
330
E
102
}
330
E
100
AcDbMaterial
  1
ByLayer
  2

 70
0
 40
1.0
 71
1
 41
1.0
 91
-1023410177
 42
1.0
 72
1
  3

 73
1
 74
1
 75
1
 44
0.5
 73
0
 45
1.0
 46
1.0
 77
1
  4

 78
1
 79
1
170
1
 48
1.0
171
1
  6

172
1
173
1
174
1
140
1.0
141
1.0
175
1
  7

176
1
177
1
178
1
143
1.0
179
1
  8

270
1
271
1
272
1
145
1.0
146
1.0
273
1
  9

274
1
275
1
276
1
 42
1.0
 72
1
  3

 73
1
 74
1
 75
1
 94
63
  0
MATERIAL
  5
21
102
{ACAD_REACTORS
330
E
102
}
330
E
100
AcDbMaterial
  1
Global
  2

 70
0
 40
1.0
 71
1
 41
1.0
 91
-1023410177
 42
1.0
 72
1
  3

 73
1
 74
1
 75
1
 44
0.5
 73
0
 45
1.0
 46
1.0
 77
1
  4

 78
1
 79
1
170
1
 48
1.0
171
1
  6

172
1
173
1
174
1
140
1.0
141
1.0
175
1
  7

176
1
177
1
178
1
143
1.0
179
1
  8

270
1
271
1
272
1
145
1.0
146
1.0
273
1
  9

274
1
275
1
276
1
 42
1.0
 72
1
  3

 73
1
 74
1
 75
1
 94
63
  0
MLINESTYLE
  5
22
102
{ACAD_REACTORS
330
10
102
}
330
10
100
AcDbMlineStyle
  2
Standard
 70
0
  3

 62
256
 51
90.0
 52
90.0
 71
2
 49
0.5
 62
256
  6
BYLAYER
 49
-0.5
 62
256
  6
BYLAYER
  0
MLEADERSTYLE
  5
2C
102
{ACAD_REACTORS
330
F
102
}
330
F
100
AcDbMLeaderStyle
179
2
170
2
171
1
172
0
 90
2
 40
0.0
 41
0.0
173
1
 91
-1056964608
 92
-2
290
1
 42
2.0
291
1
 43
8.0
  3
Standard
 44
4.0
300

342
29
174
1
175
1
176
0
178
1
 93
-1056964608
 45
4.0
292
0
297
0
 46
4.0
 94
-1056964608
 47
1.0
 49
1.0
140
1.0
294
1
141
0.0
177
0
142
1.0
295
0
296
0
143
3.75
271
0
272
9
273
9
  0
DICTIONARY
  5
2D
330
A
100
AcDbDictionary
280
1
281
1
  3
CREATED_BY_EZDXF
350
2E
  3
WRITTEN_BY_EZDXF
350
32
  0
DICTIONARYVAR
  5
2E
330
2D
100
DictionaryVariables
280
0
  1
1.4.3 @ 2026-05-25T03:08:01.809266+00:00
  0
DICTIONARYVAR
  5
32
330
2D
100
DictionaryVariables
280
0
  1
1.4.3 @ 2026-05-25T03:08:01.813988+00:00
  0
ENDSEC
  0
EOF
