  0
SECTION
  2
HEADER
  9
$ACADVER
  1
AC1024
  9
$ACADMAINTVER
 70
6
  9
$DWGCODEPAGE
  3
ANSI_1252
  9
$LASTSAVEDBY
  1
ezdxf
  9
$INSBASE
 10
0.0
 20
0.0
 30
0.0
  9
$EXTMIN
 10
1e+20
 20
1e+20
 30
1e+20
  9
$EXTMAX
 10
-1e+20
 20
-1e+20
 30
-1e+20
  9
$LIMMIN
 10
0.0
 20
0.0
  9
$LIMMAX
 10
420.0
 20
297.0
  9
$ORTHOMODE
 70
0
  9
$REGENMODE
 70
1
  9
$FILLMODE
 70
1
  9
$QTEXTMODE
 70
0
  9
$MIRRTEXT
 70
1
  9
$LTSCALE
 40
1.0
  9
$ATTMODE
 70
1
  9
$TEXTSIZE
 40
2.5
  9
$TRACEWID
 40
1.0
  9
$TEXTSTYLE
  7
Standard
  9
$CLAYER
  8
0
  9
$CELTYPE
  6
ByLayer
  9
$CECOLOR
 62
256
  9
$CELTSCALE
 40
1.0
  9
$DISPSILH
 70
0
  9
$DIMSCALE
 40
1.0
  9
$DIMASZ
 40
2.5
  9
$DIMEXO
 40
0.625
  9
$DIMDLI
 40
3.75
  9
$DIMRND
 40
0.0
  9
$DIMDLE
 40
0.0
  9
$DIMEXE
 40
1.25
  9
$DIMTP
 40
0.0
  9
$DIMTM
 40
0.0
  9
$DIMTXT
 40
2.5
  9
$DIMCEN
 40
2.5
  9
$DIMTSZ
 40
0.0
  9
$DIMTOL
 70
0
  9
$DIMLIM
 70
0
  9
$DIMTIH
 70
0
  9
$DIMTOH
 70
0
  9
$DIMSE1
 70
0
  9
$DIMSE2
 70
0
  9
$DIMTAD
 70
1
  9
$DIMZIN
 70
8
  9
$DIMBLK
  1

  9
$DIMASO
 70
1
  9
$DIMSHO
 70
1
  9
$DIMPOST
  1

  9
$DIMAPOST
  1

  9
$DIMALT
 70
0
  9
$DIMALTD
 70
3
  9
$DIMALTF
 40
0.03937007874
  9
$DIMLFAC
 40
1.0
  9
$DIMTOFL
 70
1
  9
$DIMTVP
 40
0.0
  9
$DIMTIX
 70
0
  9
$DIMSOXD
 70
0
  9
$DIMSAH
 70
0
  9
$DIMBLK1
  1

  9
$DIMBLK2
  1

  9
$DIMSTYLE
  2
ISO-25
  9
$DIMCLRD
 70
0
  9
$DIMCLRE
 70
0
  9
$DIMCLRT
 70
0
  9
$DIMTFAC
 40
1.0
  9
$DIMGAP
 40
0.625
  9
$DIMJUST
 70
0
  9
$DIMSD1
 70
0
  9
$DIMSD2
 70
0
  9
$DIMTOLJ
 70
0
  9
$DIMTZIN
 70
8
  9
$DIMALTZ
 70
0
  9
$DIMALTTZ
 70
0
  9
$DIMUPT
 70
0
  9
$DIMDEC
 70
2
  9
$DIMTDEC
 70
2
  9
$DIMALTU
 70
2
  9
$DIMALTTD
 70
3
  9
$DIMTXSTY
  7
Standard
  9
$DIMAUNIT
 70
0
  9
$DIMADEC
 70
0
  9
$DIMALTRND
 40
0.0
  9
$DIMAZIN
 70
0
  9
$DIMDSEP
 70
44
  9
$DIMATFIT
 70
3
  9
$DIMFRAC
 70
0
  9
$DIMLDRBLK
  1

  9
$DIMLUNIT
 70
2
  9
$DIMLWD
 70
-2
  9
$DIMLWE
 70
-2
  9
$DIMTMOVE
 70
0
  9
$DIMFXL
 40
1.0
  9
$DIMFXLON
 70
0
  9
$DIMJOGANG
 40
0.785398163397
  9
$DIMTFILL
 70
0
  9
$DIMTFILLCLR
 70
0
  9
$DIMARCSYM
 70
0
  9
$DIMLTYPE
  6

  9
$DIMLTEX1
  6

  9
$DIMLTEX2
  6

  9
$DIMTXTDIRECTION
 70
0
  9
$LUNITS
 70
2
  9
$LUPREC
 70
4
  9
$SKETCHINC
 40
1.0
  9
$FILLETRAD
 40
10.0
  9
$AUNITS
 70
0
  9
$AUPREC
 70
2
  9
$MENU
  1
.
  9
$ELEVATION
 40
0.0
  9
$PELEVATION
 40
0.0
  9
$THICKNESS
 40
0.0
  9
$LIMCHECK
 70
0
  9
$CHAMFERA
 40
0.0
  9
$CHAMFERB
 40
0.0
  9
$CHAMFERC
 40
0.0
  9
$CHAMFERD
 40
0.0
  9
$SKPOLY
 70
0
  9
$TDCREATE
 40
2461170.0092939814
  9
$TDUCREATE
 40
2458532.153996898
  9
$TDUPDATE
 40
2461170.0093055554
  9
$TDUUPDATE
 40
2458532.1544311
  9
$TDINDWG
 40
0.0
  9
$TDUSRTIMER
 40
0.0
  9
$USRTIMER
 70
1
  9
$ANGBASE
 50
0.0
  9
$ANGDIR
 70
0
  9
$PDMODE
 70
0
  9
$PDSIZE
 40
0.0
  9
$PLINEWID
 40
0.0
  9
$SPLFRAME
 70
0
  9
$SPLINETYPE
 70
6
  9
$SPLINESEGS
 70
8
  9
$HANDSEED
  5
33
  9
$SURFTAB1
 70
6
  9
$SURFTAB2
 70
6
  9
$SURFTYPE
 70
6
  9
$SURFU
 70
6
  9
$SURFV
 70
6
  9
$UCSBASE
  2

  9
$UCSNAME
  2

  9
$UCSORG
 10
0.0
 20
0.0
 30
0.0
  9
$UCSXDIR
 10
1.0
 20
0.0
 30
0.0
  9
$UCSYDIR
 10
0.0
 20
1.0
 30
0.0
  9
$UCSORTHOREF
  2

  9
$UCSORTHOVIEW
 70
0
  9
$UCSORGTOP
 10
0.0
 20
0.0
 30
0.0
  9
$UCSORGBOTTOM
 10
0.0
 20
0.0
 30
0.0
  9
$UCSORGLEFT
 10
0.0
 20
0.0
 30
0.0
  9
$UCSORGRIGHT
 10
0.0
 20
0.0
 30
0.0
  9
$UCSORGFRONT
 10
0.0
 20
0.0
 30
0.0
  9
$UCSORGBACK
 10
0.0
 20
0.0
 30
0.0
  9
$PUCSBASE
  2

  9
$PUCSNAME
  2

  9
$PUCSORG
 10
0.0
 20
0.0
 30
0.0
  9
$PUCSXDIR
 10
1.0
 20
0.0
 30
0.0
  9
$PUCSYDIR
 10
0.0
 20
1.0
 30
0.0
  9
$PUCSORTHOREF
  2

  9
$PUCSORTHOVIEW
 70
0
  9
$PUCSORGTOP
 10
0.0
 20
0.0
 30
0.0
  9
$PUCSORGBOTTOM
 10
0.0
 20
0.0
 30
0.0
  9
$PUCSORGLEFT
 10
0.0
 20
0.0
 30
0.0
  9
$PUCSORGRIGHT
 10
0.0
 20
0.0
 30
0.0
  9
$PUCSORGFRONT
 10
0.0
 20
0.0
 30
0.0
  9
$PUCSORGBACK
 10
0.0
 20
0.0
 30
0.0
  9
$USERI1
 70
0
  9
$USERI2
 70
0
  9
$USERI3
 70
0
  9
$USERI4
 70
0
  9
$USERI5
 70
0
  9
$USERR1
 40
0.0
  9
$USERR2
 40
0.0
  9
$USERR3
 40
0.0
  9
$USERR4
 40
0.0
  9
$USERR5
 40
0.0
  9
$WORLDVIEW
 70
1
  9
$SHADEDGE
 70
3
  9
$SHADEDIF
 70
70
  9
$TILEMODE
 70
1
  9
$MAXACTVP
 70
64
  9
$PINSBASE
 10
0.0
 20
0.0
 30
0.0
  9
$PLIMCHECK
 70
0
  9
$PEXTMIN
 10
1e+20
 20
1e+20
 30
1e+20
  9
$PEXTMAX
 10
-1e+20
 20
-1e+20
 30
-1e+20
  9
$PLIMMIN
 10
0.0
 20
0.0
  9
$PLIMMAX
 10
420.0
 20
297.0
  9
$UNITMODE
 70
0
  9
$VISRETAIN
 70
1
  9
$PLINEGEN
 70
0
  9
$PSLTSCALE
 70
1
  9
$TREEDEPTH
 70
3020
  9
$CMLSTYLE
  2
Standard
  9
$CMLJUST
 70
0
  9
$CMLSCALE
 40
20.0
  9
$PROXYGRAPHICS
 70
1
  9
$MEASUREMENT
 70
1
  9
$CELWEIGHT
370
-1
  9
$ENDCAPS
280
0
  9
$JOINSTYLE
280
0
  9
$LWDISPLAY
290
0
  9
$INSUNITS
 70
1
  9
$HYPERLINKBASE
  1

  9
$STYLESHEET
  1

  9
$XEDIT
290
1
  9
$CEPSNTYPE
380
0
  9
$PSTYLEMODE
290
1
  9
$FINGERPRINTGUID
  2
{C87963FF-39E7-4731-9F4F-A7436DD097B5}
  9
$VERSIONGUID
  2
{2DE51AD5-FDEE-4EB3-A8C9-85B288FEC507}
  9
$EXTNAMES
290
1
  9
$PSVPSCALE
 40
0.0
  9
$OLESTARTUP
290
0
  9
$SORTENTS
280
127
  9
$INDEXCTL
280
0
  9
$HIDETEXT
280
1
  9
$XCLIPFRAME
280
1
  9
$HALOGAP
280
0
  9
$OBSCOLOR
 70
257
  9
$OBSLTYPE
280
0
  9
$INTERSECTIONDISPLAY
280
0
  9
$INTERSECTIONCOLOR
 70
257
  9
$DIMASSOC
280
2
  9
$PROJECTNAME
  1

  9
$CAMERADISPLAY
290
0
  9
$LENSLENGTH
 40
50.0
  9
$CAMERAHEIGHT
 40
0.0
  9
$STEPSPERSEC
 40
24.0
  9
$STEPSIZE
 40
100.0
  9
$3DDWFPREC
 40
2.0
  9
$PSOLWIDTH
 40
0.005
  9
$PSOLHEIGHT
 40
0.08
  9
$LOFTANG1
 40
1.570796326795
  9
$LOFTANG2
 40
1.570796326795
  9
$LOFTMAG1
 40
0.0
  9
$LOFTMAG2
 40
0.0
  9
$LOFTPARAM
 70
7
  9
$LOFTNORMALS
280
1
  9
$LATITUDE
 40
37.795
  9
$LONGITUDE
 40
-122.394
  9
$NORTHDIRECTION
 40
0.0
  9
$TIMEZONE
 70
-8000
  9
$LIGHTGLYPHDISPLAY
280
1
  9
$TILEMODELIGHTSYNCH
280
1
  9
$CMATERIAL
347
20
  9
$SOLIDHIST
280
0
  9
$SHOWHIST
280
1
  9
$DWFFRAME
280
2
  9
$DGNFRAME
280
2
  9
$REALWORLDSCALE
290
1
  9
$INTERFERECOLOR
 62
256
  9
$CSHADOW
280
0
  9
$SHADOWPLANELOCATION
 40
0.0
  0
ENDSEC
  0
SECTION
  2
CLASSES
  0
CLASS
  1
ACDBDICTIONARYWDFLT
  2
AcDbDictionaryWithDefault
  3
ObjectDBX Classes
 90
0
 91
0
280
0
281
0
  0
CLASS
  1
SUN
  2
AcDbSun
  3
SCENEOE
 90
1153
 91
0
280
0
281
0
  0
CLASS
  1
VISUALSTYLE
  2
AcDbVisualStyle
  3
ObjectDBX Classes
 90
4095
 91
0
280
0
281
0
  0
CLASS
  1
MATERIAL
  2
AcDbMaterial
  3
ObjectDBX Classes
 90
1153
 91
0
280
0
281
0
  0
CLASS
  1
SCALE
  2
AcDbScale
  3
ObjectDBX Classes
 90
1153
 91
0
280
0
281
0
  0
CLASS
  1
TABLESTYLE
  2
AcDbTableStyle
  3
ObjectDBX Classes
 90
4095
 91
0
280
0
281
0
  0
CLASS
  1
MLEADERSTYLE
  2
AcDbMLeaderStyle
  3
ACDB_MLEADERSTYLE_CLASS
 90
4095
 91
0
280
0
281
0
  0
CLASS
  1
DICTIONARYVAR
  2
AcDbDictionaryVar
  3
ObjectDBX Classes
 90
0
 91
0
280
0
281
0
  0
CLASS
  1
CELLSTYLEMAP
  2
AcDbCellStyleMap
  3
ObjectDBX Classes
 90
1152
 91
0
280
0
281
0
  0
CLASS
  1
MENTALRAYRENDERSETTINGS
  2
AcDbMentalRayRenderSettings
  3
SCENEOE
 90
1024
 91
0
280
0
281
0
  0
CLASS
  1
ACDBDETAILVIEWSTYLE
  2
AcDbDetailViewStyle
  3
ObjectDBX Classes
 90
1025
 91
0
280
0
281
0
  0
CLASS
  1
ACDBSECTIONVIEWSTYLE
  2
AcDbSectionViewStyle
  3
ObjectDBX Classes
 90
1025
 91
0
280
0
281
0
  0
CLASS
  1
RASTERVARIABLES
  2
AcDbRasterVariables
  3
ISM
 90
0
 91
0
280
0
281
0
  0
CLASS
  1
LAYOUT
  2
AcDbLayout
  3
ObjectDBX Classes
 90
0
 91
0
280
0
281
0
  0
CLASS
  1
ACDBPLACEHOLDER
  2
AcDbPlaceHolder
  3
ObjectDBX Classes
 90
0
 91
0
280
0
281
0
  0
ENDSEC
  0
SECTION
  2
TABLES
  0
TABLE
  2
VPORT
  5
8
330
0
100
AcDbSymbolTable
 70
1
  0
VPORT
  5
23
330
8
100
AcDbSymbolTableRecord
100
AcDbViewportTableRecord
  2
*Active
 70
0
 10
0.0
 20
0.0
 11
1.0
 21
1.0
 12
0.0
 22
0.0
 13
0.0
 23
0.0
 14
0.5
 24
0.5
 15
0.5
 25
0.5
 16
0.0
 26
0.0
 36
1.0
 17
0.0
 27
0.0
 37
0.0
 40
1000.0
 41
1.34
 42
50.0
 43
0.0
 44
0.0
 50
0.0
 51
0.0
 71
0
 72
1000
 73
1
 74
3
 75
0
 76
0
 77
0
 78
0
281
0
 65
0
146
0.0
  0
ENDTAB
  0
TABLE
  2
LTYPE
  5
2
330
0
100
AcDbSymbolTable
 70
3
  0
LTYPE
  5
24
330
2
100
AcDbSymbolTableRecord
100
AcDbLinetypeTableRecord
  2
ByBlock
 70
0
  3

 72
65
 73
0
 40
0.0
  0
LTYPE
  5
25
330
2
100
AcDbSymbolTableRecord
100
AcDbLinetypeTableRecord
  2
ByLayer
 70
0
  3

 72
65
 73
0
 40
0.0
  0
LTYPE
  5
26
330
2
100
AcDbSymbolTableRecord
100
AcDbLinetypeTableRecord
  2
Continuous
 70
0
  3

 72
65
 73
0
 40
0.0
  0
ENDTAB
  0
TABLE
  2
LAYER
  5
1
330
0
100
AcDbSymbolTable
 70
2
  0
LAYER
  5
27
330
1
100
AcDbSymbolTableRecord
100
AcDbLayerTableRecord
  2
0
 70
0
 62
7
  6
Continuous
370
-3
390
13
347
21
  0
LAYER
  5
28
330
1
100
AcDbSymbolTableRecord
100
AcDbLayerTableRecord
  2
Defpoints
 70
0
 62
7
  6
Continuous
290
0
370
-3
390
13
347
21
  0
ENDTAB
  0
TABLE
  2
STYLE
  5
5
330
0
100
AcDbSymbolTable
 70
1
  0
STYLE
  5
29
330
5
100
AcDbSymbolTableRecord
100
AcDbTextStyleTableRecord
  2
Standard
 70
0
 40
0.0
 41
1.0
 50
0.0
 71
0
 42
2.5
  3
txt
  4

  0
ENDTAB
  0
TABLE
  2
VIEW
  5
7
330
0
100
AcDbSymbolTable
 70
0
  0
ENDTAB
  0
TABLE
  2
UCS
  5
6
330
0
100
AcDbSymbolTable
 70
0
  0
ENDTAB
  0
TABLE
  2
APPID
  5
3
330
0
100
AcDbSymbolTable
 70
3
  0
APPID
  5
2A
330
3
100
AcDbSymbolTableRecord
100
AcDbRegAppTableRecord
  2
ACAD
 70
0
  0
APPID
  5
30
330
3
100
AcDbSymbolTableRecord
100
AcDbRegAppTableRecord
  2
HATCHBACKGROUNDCOLOR
 70
0
  0
APPID
  5
31
330
3
100
AcDbSymbolTableRecord
100
AcDbRegAppTableRecord
  2
EZDXF
 70
0
  0
ENDTAB
  0
TABLE
  2
DIMSTYLE
  5
4
330
0
100
AcDbSymbolTable
 70
1
100
AcDbDimStyleTable
  0
DIMSTYLE
105
2B
330
4
100
AcDbSymbolTableRecord
100
AcDbDimStyleTableRecord
  2
Standard
 70
0
 40
1.0
 41
2.5
 42
0.625
 43
3.75
 44
1.25
 45
0.0
 46
0.0
 47
0.0
 48
0.0
 49
2.5
140
2.5
141
2.5
142
0.0
143
0.03937007874
144
1.0
145
0.0
146
1.0
147
0.625
148
0.0
 69
0
 70
0
 71
0
 72
0
 73
0
 74
0
 75
0
 76
0
 77
1
 78
8
 79
3
170
0
171
3
172
1
173
0
174
0
175
0
176
0
177
0
178
0
179
2
271
2
272
2
273
2
274
3
275
0
276
0
277
2
278
44
279
0
280
0
281
0
282
0
283
0
284
8
285
0
286
0
288
0
289
3
290
0
371
-2
372
-2
  0
ENDTAB
  0
TABLE
  2
BLOCK_RECORD
  5
9
330
0
100
AcDbSymbolTable
 70
2
  0
BLOCK_RECORD
  5
17
330
9
100
AcDbSymbolTableRecord
100
AcDbBlockTableRecord
  2
*Model_Space
340
1A
 70
0
280
1
281
0
  0
BLOCK_RECORD
  5
1B
330
9
100
AcDbSymbolTableRecord
100
AcDbBlockTableRecord
  2
*Paper_Space
340
1E
 70
0
280
1
281
0
  0
ENDTAB
  0
ENDSEC
  0
SECTION
  2
BLOCKS
  0
BLOCK
  5
18
330
17
100
AcDbEntity
  8
0
100
AcDbBlockBegin
  2
*Model_Space
 70
0
 10
0.0
 20
0.0
 30
0.0
  3
*Model_Space
  1

  0
ENDBLK
  5
19
330
17
100
AcDbEntity
  8
0
100
AcDbBlockEnd
  0
BLOCK
  5
1C
330
1B
100
AcDbEntity
  8
0
100
AcDbBlockBegin
  2
*Paper_Space
 70
0
 10
0.0
 20
0.0
 30
0.0
  3
*Paper_Space
  1

  0
ENDBLK
  5
1D
330
1B
100
AcDbEntity
  8
0
100
AcDbBlockEnd
  0
ENDSEC
  0
SECTION
  2
ENTITIES
  0
LWPOLYLINE
  5
2F
330
17
100
AcDbEntity
  8
SHELF
100
AcDbPolyline
 90
652
 70
1
 10
0.0
 20
0.0
 10
3.839601970908208
 20
0.0
 10
3.839601970908208
 20
0.13124040066777964
 10
3.839601970908208
 20
0.2624808013355593
 10
3.839601970908208
 20
0.39372120200333893
 10
3.839601970908208
 20
0.5249616026711186
 10
3.839601970908208
 20
0.6562020033388982
 10
3.839601970908208
 20
0.7874424040066779
 10
3.839601970908208
 20
0.9186828046744575
 10
3.839601970908208
 20
0.923
 10
3.81777765328272
 20
1.0499232053422372
 10
3.795305156586511
 20
1.1811636060100168
 10
3.772940053327853
 20
1.3124040066777964
 10
3.7506940773896322
 20
1.443644407345576
 10
3.72857890015442
 20
1.5748848080133557
 10
3.706606124381063
 20
1.7061252086811354
 10
3.684787278117281
 20
1.837365609348915
 10
3.6631338086514598
 20
1.9686060100166947
 10
3.641657076506815
 20
2.0998464106844743
 10
3.6203683494810797
 20
2.231086811352254
 10
3.5992787967348354
 20
2.3623272120200336
 10
3.578399482931598
 20
2.493567612687813
 10
3.557741362432726
 20
2.624808013355593
 10
3.5373152735502007
 20
2.7560484140233728
 10
3.517131932860288
 20
2.887288814691152
 10
3.497201929581075
 20
3.0185292153589316
 10
3.4775357200168164
 20
3.1497696160267115
 10
3.458143622072027
 20
3.2810100166944913
 10
3.439035809838173
 20
3.4122504173622707
 10
3.4202223082558234
 20
3.54349081803005
 10
3.4017129878550483
 20
3.67473121869783
 10
3.3835175595768345
 20
3.80597161936561
 10
3.3656455696782244
 20
3.9372120200333893
 10
3.34810639472386
 20
4.068452420701169
 10
3.330909236666553
 20
4.199692821368949
 10
3.314063118019472
 20
4.3309332220367285
 10
3.2975768771224625
 20
4.462173622704508
 10
3.281459163505003
 20
4.593414023372287
 10
3.2657184333482174
 20
4.724654424040067
 10
3.250362945048325
 20
4.855894824707847
 10
3.2354007548838633
 20
4.987135225375626
 10
3.2208397127889503
 20
5.118375626043406
 10
3.2066874582348053
 20
5.249616026711186
 10
3.1929514162216885
 20
5.380856427378966
 10
3.179638793383365
 20
5.5120968280467455
 10
3.1667565742061354
 20
5.6433372287145245
 10
3.1543115173644116
 20
5.774577629382304
 10
3.1423101521747743
 20
5.905818030050084
 10
3.130758775170352
 20
6.037058430717863
 10
3.11966344679734
 20
6.168298831385643
 10
3.1090299882353776
 20
6.299539232053423
 10
3.0988639783434584
 20
6.430779632721203
 10
3.089170750732973
 20
6.562020033388983
 10
3.079955390969423
 20
6.693260434056762
 10
3.071222733904272
 20
6.8245008347245415
 10
3.0629773611383344
 20
6.955741235392321
 10
3.0552235986180305
 20
7.0869816360601
 10
3.047965514365774
 20
7.21822203672788
 10
3.0412069163456787
 20
7.34946243739566
 10
3.034951350465703
 20
7.48070283806344
 10
3.0292020987172865
 20
7.61194323873122
 10
3.0239621774534466
 20
7.743183639398999
 10
3.0192343358062446
 20
7.874424040066779
 10
3.015021054244453
 20
8.005664440734558
 10
3.0113245432721687
 20
8.136904841402337
 10
3.008146742269075
 20
8.268145242070117
 10
3.0054893184729377
 20
8.399385642737897
 10
3.0033536661048896
 20
8.530626043405677
 10
3.0017409056379503
 20
8.661866444073457
 10
3.000651883209167
 20
8.793106844741237
 10
3.00008717017569
 20
8.924347245409017
 10
3.0000470628150055
 20
9.055587646076795
 10
3.0005315821694976
 20
9.186828046744575
 10
3.001540474035405
 20
9.318068447412355
 10
3.003073209096191
 20
9.449308848080134
 10
3.00512898320025
 20
9.580549248747914
 10
3.007706717782806
 20
9.711789649415694
 10
3.010805060431784
 20
9.843030050083474
 10
3.014422385597355
 20
9.974270450751252
 10
3.0185567954447823
 20
10.105510851419032
 10
3.023206120850123
 20
10.236751252086812
 10
3.0283679225382625
 20
10.367991652754592
 10
3.0340394923626843
 20
10.499232053422372
 10
3.0402178547263015
 20
10.630472454090151
 10
3.0468997681426084
 20
10.761712854757931
 10
3.0540817269363316
 20
10.892953255425711
 10
3.061759963082687
 20
11.024193656093491
 10
3.0699304481842775
 20
11.155434056761269
 10
3.0785888955846032
 20
11.286674457429049
 10
3.087730762617053
 20
11.417914858096829
 10
3.09735125298823
 20
11.549155258764609
 10
3.107445319294326
 20
11.680395659432389
 10
3.118007665669254
 20
11.811636060100168
 10
3.1290327505631295
 20
11.942876460767948
 10
3.1405147896496546
 20
12.074116861435726
 10
3.152447758860869
 20
12.205357262103506
 10
3.1648253975476894
 20
12.336597662771286
 10
3.1776412117645676
 20
12.467838063439066
 10
3.1908884776765447
 20
12.599078464106846
 10
3.204560245086926
 20
12.730318864774626
 10
3.2186493410837054
 20
12.861559265442406
 10
3.2331483738028495
 20
12.992799666110185
 10
3.2480497363064442
 20
13.124040066777965
 10
3.263345610573692
 20
13.255280467445743
 10
3.2790279716026385
 20
13.386520868113523
 10
3.29508859162051
 20
13.517761268781303
 10
3.311519044400421
 20
13.649001669449083
 10
3.328310709682207
 20
13.780242070116863
 10
3.345454777695056
 20
13.911482470784643
 10
3.4809283529118593
 20
13.95
 10
3.4809283529118593
 20
14.042722871452423
 10
3.4809283529118593
 20
14.1739632721202
 10
3.4809283529118593
 20
14.30520367278798
 10
3.4809283529118593
 20
14.43644407345576
 10
3.4809283529118593
 20
14.56768447412354
 10
3.4809283529118593
 20
14.69892487479132
 10
3.4809283529118593
 20
14.8301652754591
 10
3.4809283529118593
 20
14.873
 10
3.4941778574203317
 20
14.96140567612688
 10
3.5140682034877724
 20
15.09264607679466
 10
3.534213494355838
 20
15.22388647746244
 10
3.554603160769334
 20
15.355126878130218
 10
3.5752265052610936
 20
15.486367278797998
 10
3.5960727077644177
 20
15.617607679465777
 10
3.617130831289836
 20
15.748848080133557
 10
3.6383898276632207
 20
15.880088480801337
 10
3.6598385433222145
 20
16.011328881469115
 10
3.681465725167978
 20
16.142569282136897
 10
3.7032600264691276
 20
16.273809682804675
 10
3.72521001281483
 20
16.405050083472457
 10
3.7473041681138684
 20
16.536290484140235
 10
3.769530900636587
 20
16.667530884808016
 10
3.791878549096497
 20
16.798771285475794
 10
3.8143353887683973
 20
16.930011686143573
 10
3.836889637639766
 20
17.061252086811354
 10
3.859529462592201
 20
17.192492487479132
 10
3.882242985609694
 20
17.323732888146914
 10
3.90501829001044
 20
17.454973288814692
 10
3.92784342669895
 20
17.586213689482474
 10
3.950706420435146
 20
17.71745409015025
 10
3.973595276117207
 20
17.848694490818033
 10
3.9964979850747953
 20
17.97993489148581
 10
4.019402531369441
 20
18.11117529215359
 10
4.04229689809871
 20
18.24241569282137
 10
4.065169073700892
 20
18.37365609348915
 10
4.088007058256878
 20
18.50489649415693
 10
4.110798869785946
 20
18.63613689482471
 10
4.133532550532116
 20
18.76737729549249
 10
4.156196173237801
 20
18.89861769616027
 10
4.178777847401469
 20
19.029858096828047
 10
4.201265725516002
 20
19.16109849749583
 10
4.2236480092845134
 20
19.292338898163607
 10
4.245912955810336
 20
19.42357929883139
 10
4.268048883757957
 20
19.554819699499166
 10
4.290044179481635
 20
19.686060100166948
 10
4.31188730311853
 20
19.817300500834726
 10
4.333566794643096
 20
19.948540901502504
 10
4.35507127987961
 20
20.079781302170286
 10
4.376389476469637
 20
20.211021702838064
 10
4.397510199791349
 20
20.342262103505846
 10
4.418422368827544
 20
20.473502504173624
 10
4.43911501197932
 20
20.604742904841405
 10
4.459577272822335
 20
20.735983305509183
 10
4.479798415802655
 20
20.867223706176965
 10
4.4997678318691685
 20
20.998464106844743
 10
4.519475044039644
 20
21.12970450751252
 10
4.538909712897494
 20
21.260944908180303
 10
4.55806164201636
 20
21.39218530884808
 10
4.576920783309693
 20
21.523425709515863
 10
4.5954772423024774
 20
21.65466611018364
 10
4.613721283322404
 20
21.785906510851422
 10
4.6316433346076815
 20
21.9171469115192
 10
4.649233993328895
 20
22.048387312186982
 10
4.666484030522199
 20
22.17962771285476
 10
4.683384395931315
 20
22.310868113522538
 10
4.699926222755755
 20
22.44210851419032
 10
4.716100832302807
 20
22.573348914858098
 10
4.731899738540816
 20
22.70458931552588
 10
4.7473146525514025
 20
22.835829716193658
 10
4.762337486878244
 20
22.96707011686144
 10
4.776960359770178
 20
23.098310517529217
 10
4.79117559931637
 20
23.229550918196995
 10
4.804975747471396
 20
23.360791318864777
 10
4.818353563968112
 20
23.492031719532555
 10
4.831302030116276
 20
23.623272120200337
 10
4.843814352484906
 20
23.754512520868115
 10
4.855883966466471
 20
23.885752921535897
 10
4.867504539721015
 20
24.016993322203675
 10
4.878669975498434
 20
24.148233722871453
 10
4.889374415837141
 20
24.279474123539234
 10
4.899612244637453
 20
24.410714524207012
 10
4.9093780906080875
 20
24.541954924874794
 10
4.918666830084217
 20
24.673195325542572
 10
4.927473589715612
 20
24.804435726210354
 10
4.935793749023439
 20
24.935676126878132
 10
4.943622942824415
 20
25.066916527545914
 10
4.950957063520999
 20
25.19815692821369
 10
4.957792263256449
 20
25.32939732888147
 10
4.964124955933609
 20
25.46063772954925
 10
4.969951819096357
 20
25.59187813021703
 10
4.975269795672737
 20
25.72311853088481
 10
4.980076095578859
 20
25.85435893155259
 10
4.984368197182715
 20
25.98559933222037
 10
4.988143848627161
 20
26.11683973288815
 10
4.991401069011355
 20
26.24808013355593
 10
4.99413814943004
 20
26.37932053422371
 10
4.997301679557774
 20
26.497999999999998
 10
4.997301679557774
 20
26.510560934891487
 10
4.997301679557774
 20
26.64180133555927
 10
4.997301679557774
 20
26.773041736227047
 10
4.997301679557774
 20
26.904282136894828
 10
4.997301679557774
 20
27.035522537562606
 10
4.997301679557774
 20
27.166762938230388
 10
4.997301679557774
 20
27.298003338898166
 10
4.997301679557774
 20
27.421
 10
4.997195021456655
 20
27.429243739565944
 10
4.995219150828898
 20
27.560484140233726
 10
4.992721137073638
 20
27.691724540901504
 10
4.989702290777302
 20
27.822964941569285
 10
4.986164195781849
 20
27.954205342237064
 10
4.982108708353793
 20
28.085445742904845
 10
4.97753795621032
 20
28.216686143572623
 10
4.97245433740297
 20
28.3479265442404
 10
4.966860519059505
 20
28.479166944908183
 10
4.960759435984586
 20
28.61040734557596
 10
4.954154289120029
 20
28.741647746243743
 10
4.947048543865431
 20
28.87288814691152
 10
4.939445928260035
 20
29.004128547579302
 10
4.931350431026814
 20
29.13536894824708
 10
4.922766299479778
 20
29.266609348914862
 10
4.913698037295621
 20
29.39784974958264
 10
4.9041504021508535
 20
29.52909015025042
 10
4.894128403225685
 20
29.6603305509182
 10
4.883637298575952
 20
29.791570951585978
 10
4.8726825923744626
 20
29.92281135225376
 10
4.861270032023241
 20
30.054051752921538
 10
4.849405605138129
 20
30.18529215358932
 10
4.83709553640738
 20
30.316532554257098
 10
4.824346284325873
 20
30.44777295492488
 10
4.811164537806645
 20
30.579013355592657
 10
4.797557212671554
 20
30.710253756260435
 10
4.783531448022873
 20
30.841494156928217
 10
4.769094602497754
 20
30.972734557595995
 10
4.754254250407512
 20
31.103974958263777
 10
4.739018177763748
 20
31.235215358931555
 10
4.723394378193409
 20
31.366455759599337
 10
4.707391048744916
 20
31.497696160267115
 10
4.691016585587575
 20
31.628936560934893
 10
4.674279579606523
 20
31.760176961602674
 10
4.657188811895487
 20
31.891417362270452
 10
4.639753249149792
 20
32.02265776293823
 10
4.6219820389619555
 20
32.153898163606016
 10
4.603884505022409
 20
32.285138564273794
 10
4.585470142227788
 20
32.41637896494157
 10
4.566748611699438
 20
32.54761936560935
 10
4.547729735714688
 20
32.67885976627713
 10
4.528423492553573
 20
32.81010016694491
 10
4.508840011263735
 20
32.94134056761269
 10
4.488989566346178
 20
33.07258096828047
 10
4.468882572364751
 20
33.20382136894825
 10
4.448529578482131
 20
33.33506176961603
 10
4.427941262925195
 20
33.46630217028381
 10
4.407128427382659
 20
33.59754257095159
 10
4.38610199133797
 20
33.72878297161937
 10
4.3648729863403775
 20
33.860023372287145
 10
4.343452550217213
 20
33.99126377295493
 10
4.321851921230429
 20
34.12250417362271
 10
4.300082432180408
 20
34.25374457429049
 10
4.2781555044602
 20
34.384984974958265
 10
4.256082642063283
 20
34.51622537562605
 10
4.233875425547964
 20
34.64746577629383
 10
4.211545505961629
 20
34.778706176961606
 10
4.189104598727999
 20
34.909946577629384
 10
4.166564477500623
 20
35.04118697829716
 10
4.143936967985812
 20
35.17242737896495
 10
4.121233941738264
 20
35.303667779632725
 10
4.098467309932639
 20
35.4349081803005
 10
4.075649017114337
 20
35.56614858096828
 10
4.052791034932787
 20
35.69738898163607
 10
4.029905355860498
 20
35.828629382303845
 10
4.007003986901187
 20
35.95986978297162
 10
3.9840989432902933
 20
36.0911101836394
 10
3.961202242191173
 20
36.22235058430718
 10
3.938325896390264
 20
36.353590984974964
 10
3.915481907994576
 20
36.48483138564274
 10
3.892682262134754
 20
36.61607178631052
 10
3.8699389206770687
 20
36.7473121869783
 10
3.847263815947617
 20
36.87855258764608
 10
3.8246688444719896
 20
37.00979298831386
 10
3.802165860733755
 20
37.14103338898164
 10
3.779766670954991
 20
37.27227378964942
 10
3.757483026902122
 20
37.403514190317196
 10
3.7353266197203503
 20
37.53475459098498
 10
3.7133090737998713
 20
37.66599499165276
 10
3.691441940677124
 20
37.79723539232054
 10
3.669736692974265
 20
37.928475792988316
 10
3.648204718380033
 20
38.059716193656094
 10
3.6268573136751923
 20
38.19095659432388
 10
3.6057056788056476
 20
38.32219699499166
 10
3.584760911006391
 20
38.453437395659435
 10
3.564033998979313
 20
38.58467779632721
 10
3.543535817127965
 20
38.715918196995
 10
3.5232771198522896
 20
38.84715859766278
 10
3.5063675897115867
 20
38.95807166961038
 10
3.4788893205315747
 20
38.96238759756342
 10
3.452335641250429
 20
38.97066918121989
 10
3.427275640989159
 20
38.98273893258974
 10
3.4042463968650356
 20
38.99833817700402
 10
3.3837414635435863
 20
39.01713259693942
 10
3.3662002955484858
 20
39.03871939699391
 10
3.3519988290266665
 20
39.06263593645627
 10
3.341441424816956
 20
39.088369644459156
 10
3.334754345495559
 20
39.11536900521778
 10
3.332080906196053
 20
39.14305537792236
 10
3.3334784031298184
 20
39.17083539796456
 10
3.3389168856337763
 20
39.19811369371923
 10
3.348279798062473
 20
39.224305646339786
 10
3.3613664777677017
 20
39.24884991910387
 10
3.3613664777677004
 20
39.372120200333896
 10
3.3613664777677004
 20
39.503360601001674
 10
3.3613664777677004
 20
39.63460100166945
 10
3.3613664777677004
 20
39.76584140233723
 10
3.3613664777677004
 20
39.89708180300501
 10
3.3613664777677004
 20
39.969
 10
3.353433580918923
 20
40.02832220367279
 10
3.336130876146597
 20
40.15956260434057
 10
3.3191764712439986
 20
40.29080300500835
 10
3.3025792613635097
 20
40.42204340567613
 10
3.2863479542546408
 20
40.55328380634391
 10
3.2704910656955017
 20
40.68452420701169
 10
3.25501691502498
 20
40.81576460767947
 10
3.2399336207779954
 20
40.94700500834725
 10
3.225249096426092
 20
41.078245409015025
 10
3.210971046225626
 20
41.20948580968281
 10
3.1971069611757246
 20
41.34072621035059
 10
3.183664115088111
 20
41.47196661101837
 10
3.1706495607708955
 20
41.603207011686145
 10
3.158070126328308
 20
41.73444741235393
 10
3.1459324115783263
 20
41.86568781302171
 10
3.1342427845900684
 20
41.996928213689486
 10
3.1230073783427783
 20
42.128168614357264
 10
3.1122320875081484
 20
42.25940901502504
 10
3.1019225653576727
 20
42.39064941569283
 10
3.092084220796651
 20
42.521889816360606
 10
3.082722215526398
 20
42.653130217028384
 10
3.0738414613361487
 20
42.78437061769616
 10
3.06544661752608
 20
42.91561101836395
 10
3.0575420884628084
 20
43.046851419031725
 10
3.050132021268626
 20
43.1780918196995
 10
3.04322030364571
 20
43.30933222036728
 10
3.036810561836435
 20
43.44057262103506
 10
3.030906158720857
 20
43.571813021702845
 10
3.0255101920523773
 20
43.70305342237062
 10
3.0206254928325
 20
43.8342938230384
 10
3.0162546238255414
 20
43.96553422370618
 10
3.012399878214074
 20
44.096774624373964
 10
3.009063278395807
 20
44.22801502504174
 10
3.006246574922529
 20
44.35925542570952
 10
3.0039512455816784
 20
44.4904958263773
 10
3.002178494621023
 20
44.621736227045076
 10
3.0009292521168485
 20
44.75297662771286
 10
3.0002041734859923
 20
44.88421702838064
 10
3.000003639141978
 20
45.01545742904842
 10
3.0003277542954305
 20
45.146697829716196
 10
3.0011763488988796
 20
45.277938230383974
 10
3.0025489777359726
 20
45.40917863105176
 10
3.0044449206550587
 20
45.54041903171954
 10
3.006863182947019
 20
45.671659432387315
 10
3.009802495867139
 20
45.80289983305509
 10
3.0132613173007616
 20
45.93414023372288
 10
3.0172378325723552
 20
46.06538063439066
 10
3.021729955397589
 20
46.196621035058435
 10
3.026735328977903
 20
46.32786143572621
 10
3.032251327237007
 20
46.45910183639399
 10
3.0382750561986556
 20
46.590342237061776
 10
3.044803355504974
 20
46.721582637729554
 10
3.0518328000745485
 20
46.85282303839733
 10
3.059359701899396
 20
46.98406343906511
 10
3.0673801119798867
 20
47.115303839732896
 10
3.0758898223965883
 20
47.246544240400674
 10
3.08488436851796
 20
47.37778464106845
 10
3.0943590313427265
 20
47.50902504173623
 10
3.1043088399757077
 20
47.64026544240401
 10
3.114728574235808
 20
47.77150584307179
 10
3.1256127673947893
 20
47.90274624373957
 10
3.1369557090454006
 20
48.03398664440735
 10
3.1487514480973466
 20
48.16522704507513
 10
3.160993795899541
 20
48.296467445742906
 10
3.1736763294869874
 20
48.42770784641069
 10
3.186792394950597
 20
48.55894824707847
 10
3.200335110928175
 20
48.69018864774625
 10
3.214297372214732
 20
48.821429048414025
 10
3.228671853490243
 20
48.95266944908181
 10
3.2434510131628835
 20
49.08390984974959
 10
3.2586270973257427
 20
49.215150250417366
 10
3.2741921438249144
 20
49.346390651085144
 10
3.290137986436859
 20
49.47763105175292
 10
3.3064562591528164
 20
49.60887145242071
 10
3.32313840056805
 20
49.740111853088486
 10
3.340175658373599
 20
49.871352253756264
 10
3.3575590939481894
 20
50.00259265442404
 10
3.3752795870478938
 20
50.13383305509183
 10
3.393327840591078
 20
50.265073455759605
 10
3.4116943855361295
 20
50.39631385642738
 10
3.430369585849409
 20
50.52755425709516
 10
3.4493436435607983
 20
50.65879465776294
 10
3.468606603904229
 20
50.790035058430725
 10
3.4881483605404586
 20
50.9212754590985
 10
3.5079586608593756
 20
51.05251585976628
 10
3.528027111359051
 20
51.18375626043406
 10
3.5483431830987007
 20
51.314996661101844
 10
3.5688962172227034
 20
51.44623706176962
 10
3.5896754305527967
 20
51.5774774624374
 10
3.7440480495607993
 20
51.594
 10
3.7440480495607993
 20
51.70871786310518
 10
3.7440480495607993
 20
51.83995826377296
 10
3.7440480495607993
 20
51.97119866444074
 10
3.7440480495607993
 20
52.10243906510852
 10
3.7440480495607993
 20
52.2336794657763
 10
3.7440480495607993
 20
52.364919866444076
 10
3.7440480495607993
 20
52.49616026711186
 10
3.7440480495607993
 20
52.517
 10
3.762721116549881
 20
52.62740066777964
 10
3.785033033405245
 20
52.75864106844742
 10
3.80745773298204
 20
52.889881469115196
 10
3.829983450130084
 20
53.021121869782974
 10
3.8525983667001857
 20
53.15236227045076
 10
3.875290617744557
 20
53.28360267111854
 10
3.8980482977417616
 20
53.414843071786315
 10
3.9208594668429764
 20
53.54608347245409
 10
3.943712157136245
 20
53.67732387312187
 10
3.9665943789254543
 20
53.808564273789656
 10
3.9894941270207522
 20
53.939804674457434
 10
4.012399387037088
 20
54.07104507512521
 10
4.035298141697572
 20
54.20228547579299
 10
4.058178377138361
 20
54.333525876460776
 10
4.08102808921174
 20
54.464766277128554
 10
4.1038352897841275
 20
54.59600667779633
 10
4.12658801302566
 20
54.72724707846411
 10
4.149274321688081
 20
54.85848747913189
 10
4.1718823133676395
 20
54.98972787979967
 10
4.1944001267496915
 20
55.12096828046745
 10
4.216815947831773
 20
55.25220868113523
 10
4.239118016121818
 20
55.38344908180301
 10
4.261294630808328
 20
55.51468948247079
 10
4.283334156899208
 20
55.64592988313857
 10
4.305225031326092
 20
55.77717028380635
 10
4.326955769010914
 20
55.90841068447413
 10
4.34851496889158
 20
56.039651085141905
 10
4.369891319903545
 20
56.17089148580969
 10
4.391073606914178
 20
56.30213188647747
 10
4.412050716606802
 20
56.43337228714525
 10
4.432811643311306
 20
56.564612687813025
 10
4.453345494778289
 20
56.6958530884808
 10
4.473641497893695
 20
56.82709348914859
 10
4.493689004330935
 20
56.958333889816366
 10
4.513477496137559
 20
57.089574290484144
 10
4.532996591253498
 20
57.22081469115192
 10
4.552236048958047
 20
57.35205509181971
 10
4.57118577524265
 20
57.483295492487485
 10
4.589835828106758
 20
57.614535893155264
 10
4.608176422773901
 20
57.74577629382304
 10
4.626197936825282
 20
57.87701669449082
 10
4.643890915248207
 20
58.008257095158605
 10
4.661246075396653
 20
58.13949749582638
 10
4.678254311861436
 20
58.27073789649416
 10
4.694906701247368
 20
58.40197829716194
 10
4.711194506854932
 20
58.533218697829724
 10
4.727109183264001
 20
58.6644590984975
 10
4.742642380817212
 20
58.79569949916528
 10
4.757785950000615
 20
58.92693989983306
 10
4.772531945719338
 20
59.05818030050084
 10
4.786872631465981
 20
59.18942070116862
 10
4.800800483379593
 20
59.3206611018364
 10
4.8143081941930745
 20
59.45190150250418
 10
4.827388677066946
 20
59.583141903171956
 10
4.840035069307468
 20
59.71438230383974
 10
4.852240735967159
 20
59.84562270450752
 10
4.863999273325836
 20
59.9768631051753
 10
4.8753045122503345
 20
60.108103505843076
 10
4.886150521431146
 20
60.239343906510854
 10
4.8965316104943
 20
60.37058430717864
 10
4.9064423329868125
 20
60.50182470784642
 10
4.9158774892341865
 20
60.633065108514195
 10
4.9248321290684265
 20
60.76430550918197
 10
4.933301554425143
 20
60.89554590984976
 10
4.941281321808411
 20
61.02678631051754
 10
4.948767244622045
 20
61.158026711185315
 10
4.955755395366112
 20
61.28926711185309
 10
4.962242107697493
 20
61.42050751252087
 10
4.968223978353438
 20
61.551747913188656
 10
4.9736978689370925
 20
61.682988313856434
 10
4.978660907564061
 20
61.81422871452421
 10
4.983110490369146
 20
61.94546911519199
 10
4.9870442828724695
 20
62.07670951585977
 10
4.990460221204263
 20
62.207949916527554
 10
4.993356513187671
 20
62.33919031719533
 10
4.995731639279033
 20
62.47043071786311
 10
4.997584353365104
 20
62.60167111853089
 10
4.998913683416832
 20
62.73291151919867
 10
4.999718931999335
 20
62.86415191986645
 10
4.999999676637811
 20
62.99539232053423
 10
4.999755770039192
 20
63.12663272120201
 10
4.998987340169417
 20
63.257873121869785
 10
4.997694790186298
 20
63.38911352253757
 10
4.995878798228002
 20
63.52035392320535
 10
4.993540317057265
 20
63.65159432387313
 10
4.990680573561523
 20
63.782834724540905
 10
4.987301068109223
 20
63.91407512520869
 10
4.983403573762656
 20
64.04531552587646
 10
4.9357521395924016
 20
64.142
 10
4.934440890238616
 20
64.14807437292643
 10
4.9333289888487535
 20
64.15418837788363
 10
4.932417624861042
 20
64.1603354745153
 10
4.931707773192119
 20
64.16650908706595
 10
4.931200193194133
 20
64.17270261141505
 10
4.93089542784244
 20
64.1789094221418
 10
4.930793803154763
 20
64.18512287961249
 10
4.93089542784244
 20
64.19133633708319
 10
4.931200193194133
 20
64.19754314780994
 10
4.931707773192119
 20
64.20373667215904
 10
4.932417624861042
 20
64.20991028470968
 10
4.9333289888487535
 20
64.21605738134136
 10
4.934440890238616
 20
64.22217138629854
 10
4.9357521395924016
 20
64.22824575922499
 10
4.935752139592401
 20
64.30779632721203
 10
4.935752139592401
 20
64.43903672787981
 10
4.935752139592401
 20
64.57027712854759
 10
4.935752139592401
 20
64.70151752921537
 10
4.935752139592401
 20
64.83275792988314
 10
4.935752139592401
 20
64.96399833055092
 10
4.935752139592401
 20
65.065
 10
4.933877907226814
 20
65.0952387312187
 10
4.925442722304778
 20
65.22647913188648
 10
4.91652200255662
 20
65.35771953255426
 10
4.907120428250504
 20
65.48895993322205
 10
4.897242931935617
 20
65.62020033388983
 10
4.886894695854295
 20
65.7514407345576
 10
4.876081149223155
 20
65.88268113522538
 10
4.8648079653846485
 20
66.01392153589316
 10
4.853081058830537
 20
66.14516193656094
 10
4.840906582098841
 20
66.27640233722872
 10
4.828290922545901
 20
66.4076427378965
 10
4.81524069899525
 20
66.53888313856427
 10
4.801762758265032
 20
66.67012353923207
 10
4.787864171575814
 20
66.80136393989984
 10
4.773552230840651
 20
66.93260434056762
 10
4.758834444839385
 20
67.0638447412354
 10
4.743718535279145
 20
67.19508514190318
 10
4.7282124327431445
 20
67.32632554257096
 10
4.712324272529894
 20
67.45756594323873
 10
4.696062390385001
 20
67.58880634390651
 10
4.679435318127808
 20
67.72004674457429
 10
4.662451779175162
 20
67.85128714524208
 10
4.645120683964669
 20
67.98252754590986
 10
4.627451125279814
 20
68.11376794657764
 10
4.609452373479415
 20
68.24500834724542
 10
4.591133871633923
 20
68.3762487479132
 10
4.572505230571101
 20
68.50748914858097
 10
4.553576223833689
 20
68.63872954924875
 10
4.5343567825517015
 20
68.76996994991653
 10
4.514856990232043
 20
68.90121035058431
 10
4.495087077468183
 20
69.0324507512521
 10
4.475057416572667
 20
69.16369115191988
 10
4.454778516135261
 20
69.29493155258766
 10
4.434261015509604
 20
69.42617195325543
 10
4.413515679231265
 20
69.55741235392321
 10
4.3925533913701065
 20
69.68865275459099
 10
4.3713851498199405
 20
69.81989315525877
 10
4.350022060528475
 20
69.95113355592655
 10
4.328475331670561
 20
70.08237395659432
 10
4.306756267767802
 20
70.21361435726212
 10
4.284876263757632
 20
70.3448547579299
 10
4.262846799014933
 20
70.47609515859767
 10
4.240679431329371
 20
70.60733555926545
 10
4.218385790841586
 20
70.73857595993323
 10
4.1959775739414225
 20
70.869816360601
 10
4.173466537131398
 20
71.00105676126879
 10
4.150864490858646
 20
71.13229716193656
 10
4.1281832933185365
 20
71.26353756260434
 10
4.105434844233262
 20
71.39477796327213
 10
4.082631078608643
 20
71.52601836393991
 10
4.059783960472391
 20
71.65725876460769
 10
4.036905476597177
 20
71.78849916527547
 10
4.014007630211749
 20
71.91973956594325
 10
3.991102434703424
 20
72.05097996661102
 10
3.96820190731525
 20
72.1822203672788
 10
3.9453180628411353
 20
72.31346076794658
 10
3.9224629073222745
 20
72.44470116861436
 10
3.8996484317481626
 20
72.57594156928214
 10
3.8768866057654994
 20
72.70718196994993
 10
3.854189371398313
 20
72.8384223706177
 10
3.831568636782543
 20
72.96966277128548
 10
3.8090362699184253
 20
73.10090317195326
 10
3.786604092443933
 20
73.23214357262104
 10
3.764283873432533
 20
73.36338397328882
 10
3.7420873232185294
 20
73.4946243739566
 10
3.720026087253219
 20
73.62586477462438
 10
3.6981117399950865
 20
73.75710517529215
 10
3.6763557788372405
 20
73.88834557595995
 10
3.6547696180753175
 20
74.01958597662772
 10
3.6333645829189196
 20
74.1508263772955
 10
3.612151903549861
 20
74.28206677796328
 10
3.5911427092302093
 20
74.41330717863106
 10
3.5703480224633193
 20
74.54454757929884
 10
3.5497787532108562
 20
74.67578797996661
 10
3.5294456931688694
 20
74.80702838063439
 10
3.5093595101059094
 20
74.93826878130217
 10
3.4895307422661803
 20
75.06950918196996
 10
3.469969792840629
 20
75.20074958263774
 10
3.450686924508877
 20
75.33198998330552
 10
3.43169225405493
 20
75.4632303839733
 10
3.412995747059359
 20
75.59447078464108
 10
3.39460721267086
 20
75.72571118530885
 10
3.376536298459869
 20
75.85695158597663
 10
3.358792485356944
 20
75.98819198664441
 10
3.341385082678598
 20
76.11943238731219
 10
3.3243232232431295
 20
76.25067278797998
 10
3.3076158585790916
 20
76.38191318864776
 10
3.2912717542288648
 20
76.51315358931554
 10
3.279385483863413
 20
76.61082029386975
 10
3.255113681216067
 20
76.61910122329823
 10
3.2321781617585845
 20
76.6305753743852
 10
3.210996780283994
 20
76.64503370329207
 10
3.1919554335141256
 20
76.66221279841204
 10
3.175401029572349
 20
76.68179967938079
 10
3.1616351677769448
 20
76.70343749916424
 10
3.150908643900907
 20
76.72673204533899
 10
3.1434168810050678
 20
76.75125892212067
 10
3.1392963690887075
 20
76.77657128229309
 10
3.1386221784225112
 20
76.80220796817284
 10
3.1414065918676455
 20
76.82770191329159
 10
3.147598881098294
 20
76.85258865172867
 10
3.157086230804577
 20
76.87641478006505
 10
3.169695794038107
 20
76.8987462177933
 10
3.1696957940381063
 20
76.90687479131887
 10
3.1696957940381063
 20
77.03811519198665
 10
3.1696957940381063
 20
77.16935559265443
 10
3.1696957940381063
 20
77.3005959933222
 10
3.1696957940381063
 20
77.43183639399
 10
3.1696957940381063
 20
77.56307679465777
 10
3.1696957940381063
 20
77.613
 10
3.1618700373696065
 20
77.69431719532555
 10
3.149596568492286
 20
77.82555759599333
 10
3.1377692649716096
 20
77.95679799666111
 10
3.1263943320190073
 20
78.08803839732889
 10
3.1154777375090545
 20
78.21927879799667
 10
3.1050252088484163
 20
78.35051919866444
 10
3.0950422299709617
 20
78.48175959933222
 10
3.085534038460601
 20
78.613
 10
0.0
 20
78.613
 10
0.0
 20
0.0
  0
ENDSEC
  0
SECTION
  2
OBJECTS
  0
DICTIONARY
  5
A
330
0
100
AcDbDictionary
281
1
  3
ACAD_COLOR
350
B
  3
ACAD_GROUP
350
C
  3
ACAD_LAYOUT
350
D
  3
ACAD_MATERIAL
350
E
  3
ACAD_MLEADERSTYLE
350
F
  3
ACAD_MLINESTYLE
350
10
  3
ACAD_PLOTSETTINGS
350
11
  3
ACAD_PLOTSTYLENAME
350
12
  3
ACAD_SCALELIST
350
14
  3
ACAD_TABLESTYLE
350
15
  3
ACAD_VISUALSTYLE
350
16
  3
EZDXF_META
350
2D
  0
DICTIONARY
  5
B
330
A
100
AcDbDictionary
281
1
  0
DICTIONARY
  5
C
330
A
100
AcDbDictionary
281
1
  0
DICTIONARY
  5
D
330
A
100
AcDbDictionary
281
1
  3
Model
350
1A
  3
Layout1
350
1E
  0
DICTIONARY
  5
E
330
A
100
AcDbDictionary
281
1
  3
ByBlock
350
1F
  3
ByLayer
350
20
  3
Global
350
21
  0
DICTIONARY
  5
F
330
A
100
AcDbDictionary
281
1
  3
Standard
350
2C
  0
DICTIONARY
  5
10
330
A
100
AcDbDictionary
281
1
  3
Standard
350
22
  0
DICTIONARY
  5
11
330
A
100
AcDbDictionary
281
1
  0
ACDBDICTIONARYWDFLT
  5
12
330
A
100
AcDbDictionary
281
1
  3
Normal
350
13
100
AcDbDictionaryWithDefault
340
13
  0
ACDBPLACEHOLDER
  5
13
330
12
  0
DICTIONARY
  5
14
330
A
100
AcDbDictionary
281
1
  0
DICTIONARY
  5
15
330
A
100
AcDbDictionary
281
1
  0
DICTIONARY
  5
16
330
A
100
AcDbDictionary
281
1
  0
LAYOUT
  5
1A
330
D
100
AcDbPlotSettings
  1

  4
A3
  6

 40
7.5
 41
20.0
 42
7.5
 43
20.0
 44
420.0
 45
297.0
 46
0.0
 47
0.0
 48
0.0
 49
0.0
140
0.0
141
0.0
142
1.0
143
1.0
 70
1024
 72
1
 73
0
 74
5
  7

 75
16
 76
0
 77
2
 78
300
147
1.0
148
0.0
149
0.0
100
AcDbLayout
  1
Model
 70
1
 71
0
 10
0.0
 20
0.0
 11
420.0
 21
297.0
 12
0.0
 22
0.0
 32
0.0
 14
1e+20
 24
1e+20
 34
1e+20
 15
-1e+20
 25
-1e+20
 35
-1e+20
146
0.0
 13
0.0
 23
0.0
 33
0.0
 16
1.0
 26
0.0
 36
0.0
 17
0.0
 27
1.0
 37
0.0
 76
1
330
17
  0
LAYOUT
  5
1E
330
D
100
AcDbPlotSettings
  1

  4
A3
  6

 40
7.5
 41
20.0
 42
7.5
 43
20.0
 44
420.0
 45
297.0
 46
0.0
 47
0.0
 48
0.0
 49
0.0
140
0.0
141
0.0
142
1.0
143
1.0
 70
0
 72
1
 73
0
 74
5
  7

 75
16
 76
0
 77
2
 78
300
147
1.0
148
0.0
149
0.0
100
AcDbLayout
  1
Layout1
 70
1
 71
1
 10
0.0
 20
0.0
 11
420.0
 21
297.0
 12
0.0
 22
0.0
 32
0.0
 14
1e+20
 24
1e+20
 34
1e+20
 15
-1e+20
 25
-1e+20
 35
-1e+20
146
0.0
 13
0.0
 23
0.0
 33
0.0
 16
1.0
 26
0.0
 36
0.0
 17
0.0
 27
1.0
 37
0.0
 76
1
330
1B
  0
MATERIAL
  5
1F
102
{ACAD_REACTORS
330
E
102
}
330
E
100
AcDbMaterial
  1
ByBlock
  2

 70
0
 40
1.0
 71
1
 41
1.0
 91
-1023410177
 42
1.0
 72
1
  3

 73
1
 74
1
 75
1
 44
0.5
 73
0
 45
1.0
 46
1.0
 77
1
  4

 78
1
 79
1
170
1
 48
1.0
171
1
  6

172
1
173
1
174
1
140
1.0
141
1.0
175
1
  7

176
1
177
1
178
1
143
1.0
179
1
  8

270
1
271
1
272
1
145
1.0
146
1.0
273
1
  9

274
1
275
1
276
1
 42
1.0
 72
1
  3

 73
1
 74
1
 75
1
 94
63
  0
MATERIAL
  5
20
102
{ACAD_REACTORS
330
E
102
}
330
E
100
AcDbMaterial
  1
ByLayer
  2

 70
0
 40
1.0
 71
1
 41
1.0
 91
-1023410177
 42
1.0
 72
1
  3

 73
1
 74
1
 75
1
 44
0.5
 73
0
 45
1.0
 46
1.0
 77
1
  4

 78
1
 79
1
170
1
 48
1.0
171
1
  6

172
1
173
1
174
1
140
1.0
141
1.0
175
1
  7

176
1
177
1
178
1
143
1.0
179
1
  8

270
1
271
1
272
1
145
1.0
146
1.0
273
1
  9

274
1
275
1
276
1
 42
1.0
 72
1
  3

 73
1
 74
1
 75
1
 94
63
  0
MATERIAL
  5
21
102
{ACAD_REACTORS
330
E
102
}
330
E
100
AcDbMaterial
  1
Global
  2

 70
0
 40
1.0
 71
1
 41
1.0
 91
-1023410177
 42
1.0
 72
1
  3

 73
1
 74
1
 75
1
 44
0.5
 73
0
 45
1.0
 46
1.0
 77
1
  4

 78
1
 79
1
170
1
 48
1.0
171
1
  6

172
1
173
1
174
1
140
1.0
141
1.0
175
1
  7

176
1
177
1
178
1
143
1.0
179
1
  8

270
1
271
1
272
1
145
1.0
146
1.0
273
1
  9

274
1
275
1
276
1
 42
1.0
 72
1
  3

 73
1
 74
1
 75
1
 94
63
  0
MLINESTYLE
  5
22
102
{ACAD_REACTORS
330
10
102
}
330
10
100
AcDbMlineStyle
  2
Standard
 70
0
  3

 62
256
 51
90.0
 52
90.0
 71
2
 49
0.5
 62
256
  6
BYLAYER
 49
-0.5
 62
256
  6
BYLAYER
  0
MLEADERSTYLE
  5
2C
102
{ACAD_REACTORS
330
F
102
}
330
F
100
AcDbMLeaderStyle
179
2
170
2
171
1
172
0
 90
2
 40
0.0
 41
0.0
173
1
 91
-1056964608
 92
-2
290
1
 42
2.0
291
1
 43
8.0
  3
Standard
 44
4.0
300

342
29
174
1
175
1
176
0
178
1
 93
-1056964608
 45
4.0
292
0
297
0
 46
4.0
 94
-1056964608
 47
1.0
 49
1.0
140
1.0
294
1
141
0.0
177
0
142
1.0
295
0
296
0
143
3.75
271
0
272
9
273
9
  0
DICTIONARY
  5
2D
330
A
100
AcDbDictionary
280
1
281
1
  3
CREATED_BY_EZDXF
350
2E
  3
WRITTEN_BY_EZDXF
350
32
  0
DICTIONARYVAR
  5
2E
330
2D
100
DictionaryVariables
280
0
  1
1.4.3 @ 2026-05-09T06:13:24.000001+00:00
  0
DICTIONARYVAR
  5
32
330
2D
100
DictionaryVariables
280
0
  1
1.4.3 @ 2026-05-09T06:13:24.005289+00:00
  0
ENDSEC
  0
EOF
