  0
SECTION
  2
HEADER
  9
$ACADVER
  1
AC1024
  9
$ACADMAINTVER
 70
6
  9
$DWGCODEPAGE
  3
ANSI_1252
  9
$LASTSAVEDBY
  1
ezdxf
  9
$INSBASE
 10
0.0
 20
0.0
 30
0.0
  9
$EXTMIN
 10
1e+20
 20
1e+20
 30
1e+20
  9
$EXTMAX
 10
-1e+20
 20
-1e+20
 30
-1e+20
  9
$LIMMIN
 10
0.0
 20
0.0
  9
$LIMMAX
 10
420.0
 20
297.0
  9
$ORTHOMODE
 70
0
  9
$REGENMODE
 70
1
  9
$FILLMODE
 70
1
  9
$QTEXTMODE
 70
0
  9
$MIRRTEXT
 70
1
  9
$LTSCALE
 40
1.0
  9
$ATTMODE
 70
1
  9
$TEXTSIZE
 40
2.5
  9
$TRACEWID
 40
1.0
  9
$TEXTSTYLE
  7
Standard
  9
$CLAYER
  8
0
  9
$CELTYPE
  6
ByLayer
  9
$CECOLOR
 62
256
  9
$CELTSCALE
 40
1.0
  9
$DISPSILH
 70
0
  9
$DIMSCALE
 40
1.0
  9
$DIMASZ
 40
2.5
  9
$DIMEXO
 40
0.625
  9
$DIMDLI
 40
3.75
  9
$DIMRND
 40
0.0
  9
$DIMDLE
 40
0.0
  9
$DIMEXE
 40
1.25
  9
$DIMTP
 40
0.0
  9
$DIMTM
 40
0.0
  9
$DIMTXT
 40
2.5
  9
$DIMCEN
 40
2.5
  9
$DIMTSZ
 40
0.0
  9
$DIMTOL
 70
0
  9
$DIMLIM
 70
0
  9
$DIMTIH
 70
0
  9
$DIMTOH
 70
0
  9
$DIMSE1
 70
0
  9
$DIMSE2
 70
0
  9
$DIMTAD
 70
1
  9
$DIMZIN
 70
8
  9
$DIMBLK
  1

  9
$DIMASO
 70
1
  9
$DIMSHO
 70
1
  9
$DIMPOST
  1

  9
$DIMAPOST
  1

  9
$DIMALT
 70
0
  9
$DIMALTD
 70
3
  9
$DIMALTF
 40
0.03937007874
  9
$DIMLFAC
 40
1.0
  9
$DIMTOFL
 70
1
  9
$DIMTVP
 40
0.0
  9
$DIMTIX
 70
0
  9
$DIMSOXD
 70
0
  9
$DIMSAH
 70
0
  9
$DIMBLK1
  1

  9
$DIMBLK2
  1

  9
$DIMSTYLE
  2
ISO-25
  9
$DIMCLRD
 70
0
  9
$DIMCLRE
 70
0
  9
$DIMCLRT
 70
0
  9
$DIMTFAC
 40
1.0
  9
$DIMGAP
 40
0.625
  9
$DIMJUST
 70
0
  9
$DIMSD1
 70
0
  9
$DIMSD2
 70
0
  9
$DIMTOLJ
 70
0
  9
$DIMTZIN
 70
8
  9
$DIMALTZ
 70
0
  9
$DIMALTTZ
 70
0
  9
$DIMUPT
 70
0
  9
$DIMDEC
 70
2
  9
$DIMTDEC
 70
2
  9
$DIMALTU
 70
2
  9
$DIMALTTD
 70
3
  9
$DIMTXSTY
  7
Standard
  9
$DIMAUNIT
 70
0
  9
$DIMADEC
 70
0
  9
$DIMALTRND
 40
0.0
  9
$DIMAZIN
 70
0
  9
$DIMDSEP
 70
44
  9
$DIMATFIT
 70
3
  9
$DIMFRAC
 70
0
  9
$DIMLDRBLK
  1

  9
$DIMLUNIT
 70
2
  9
$DIMLWD
 70
-2
  9
$DIMLWE
 70
-2
  9
$DIMTMOVE
 70
0
  9
$DIMFXL
 40
1.0
  9
$DIMFXLON
 70
0
  9
$DIMJOGANG
 40
0.785398163397
  9
$DIMTFILL
 70
0
  9
$DIMTFILLCLR
 70
0
  9
$DIMARCSYM
 70
0
  9
$DIMLTYPE
  6

  9
$DIMLTEX1
  6

  9
$DIMLTEX2
  6

  9
$DIMTXTDIRECTION
 70
0
  9
$LUNITS
 70
2
  9
$LUPREC
 70
4
  9
$SKETCHINC
 40
1.0
  9
$FILLETRAD
 40
10.0
  9
$AUNITS
 70
0
  9
$AUPREC
 70
2
  9
$MENU
  1
.
  9
$ELEVATION
 40
0.0
  9
$PELEVATION
 40
0.0
  9
$THICKNESS
 40
0.0
  9
$LIMCHECK
 70
0
  9
$CHAMFERA
 40
0.0
  9
$CHAMFERB
 40
0.0
  9
$CHAMFERC
 40
0.0
  9
$CHAMFERD
 40
0.0
  9
$SKPOLY
 70
0
  9
$TDCREATE
 40
2461169.682534722
  9
$TDUCREATE
 40
2458532.153996898
  9
$TDUPDATE
 40
2461169.682534722
  9
$TDUUPDATE
 40
2458532.1544311
  9
$TDINDWG
 40
0.0
  9
$TDUSRTIMER
 40
0.0
  9
$USRTIMER
 70
1
  9
$ANGBASE
 50
0.0
  9
$ANGDIR
 70
0
  9
$PDMODE
 70
0
  9
$PDSIZE
 40
0.0
  9
$PLINEWID
 40
0.0
  9
$SPLFRAME
 70
0
  9
$SPLINETYPE
 70
6
  9
$SPLINESEGS
 70
8
  9
$HANDSEED
  5
33
  9
$SURFTAB1
 70
6
  9
$SURFTAB2
 70
6
  9
$SURFTYPE
 70
6
  9
$SURFU
 70
6
  9
$SURFV
 70
6
  9
$UCSBASE
  2

  9
$UCSNAME
  2

  9
$UCSORG
 10
0.0
 20
0.0
 30
0.0
  9
$UCSXDIR
 10
1.0
 20
0.0
 30
0.0
  9
$UCSYDIR
 10
0.0
 20
1.0
 30
0.0
  9
$UCSORTHOREF
  2

  9
$UCSORTHOVIEW
 70
0
  9
$UCSORGTOP
 10
0.0
 20
0.0
 30
0.0
  9
$UCSORGBOTTOM
 10
0.0
 20
0.0
 30
0.0
  9
$UCSORGLEFT
 10
0.0
 20
0.0
 30
0.0
  9
$UCSORGRIGHT
 10
0.0
 20
0.0
 30
0.0
  9
$UCSORGFRONT
 10
0.0
 20
0.0
 30
0.0
  9
$UCSORGBACK
 10
0.0
 20
0.0
 30
0.0
  9
$PUCSBASE
  2

  9
$PUCSNAME
  2

  9
$PUCSORG
 10
0.0
 20
0.0
 30
0.0
  9
$PUCSXDIR
 10
1.0
 20
0.0
 30
0.0
  9
$PUCSYDIR
 10
0.0
 20
1.0
 30
0.0
  9
$PUCSORTHOREF
  2

  9
$PUCSORTHOVIEW
 70
0
  9
$PUCSORGTOP
 10
0.0
 20
0.0
 30
0.0
  9
$PUCSORGBOTTOM
 10
0.0
 20
0.0
 30
0.0
  9
$PUCSORGLEFT
 10
0.0
 20
0.0
 30
0.0
  9
$PUCSORGRIGHT
 10
0.0
 20
0.0
 30
0.0
  9
$PUCSORGFRONT
 10
0.0
 20
0.0
 30
0.0
  9
$PUCSORGBACK
 10
0.0
 20
0.0
 30
0.0
  9
$USERI1
 70
0
  9
$USERI2
 70
0
  9
$USERI3
 70
0
  9
$USERI4
 70
0
  9
$USERI5
 70
0
  9
$USERR1
 40
0.0
  9
$USERR2
 40
0.0
  9
$USERR3
 40
0.0
  9
$USERR4
 40
0.0
  9
$USERR5
 40
0.0
  9
$WORLDVIEW
 70
1
  9
$SHADEDGE
 70
3
  9
$SHADEDIF
 70
70
  9
$TILEMODE
 70
1
  9
$MAXACTVP
 70
64
  9
$PINSBASE
 10
0.0
 20
0.0
 30
0.0
  9
$PLIMCHECK
 70
0
  9
$PEXTMIN
 10
1e+20
 20
1e+20
 30
1e+20
  9
$PEXTMAX
 10
-1e+20
 20
-1e+20
 30
-1e+20
  9
$PLIMMIN
 10
0.0
 20
0.0
  9
$PLIMMAX
 10
420.0
 20
297.0
  9
$UNITMODE
 70
0
  9
$VISRETAIN
 70
1
  9
$PLINEGEN
 70
0
  9
$PSLTSCALE
 70
1
  9
$TREEDEPTH
 70
3020
  9
$CMLSTYLE
  2
Standard
  9
$CMLJUST
 70
0
  9
$CMLSCALE
 40
20.0
  9
$PROXYGRAPHICS
 70
1
  9
$MEASUREMENT
 70
1
  9
$CELWEIGHT
370
-1
  9
$ENDCAPS
280
0
  9
$JOINSTYLE
280
0
  9
$LWDISPLAY
290
0
  9
$INSUNITS
 70
1
  9
$HYPERLINKBASE
  1

  9
$STYLESHEET
  1

  9
$XEDIT
290
1
  9
$CEPSNTYPE
380
0
  9
$PSTYLEMODE
290
1
  9
$FINGERPRINTGUID
  2
{24FAA081-DCB5-4A5E-90B9-EA5BC799ACBB}
  9
$VERSIONGUID
  2
{EB46580D-FA3F-48B9-89EB-93CD219B181E}
  9
$EXTNAMES
290
1
  9
$PSVPSCALE
 40
0.0
  9
$OLESTARTUP
290
0
  9
$SORTENTS
280
127
  9
$INDEXCTL
280
0
  9
$HIDETEXT
280
1
  9
$XCLIPFRAME
280
1
  9
$HALOGAP
280
0
  9
$OBSCOLOR
 70
257
  9
$OBSLTYPE
280
0
  9
$INTERSECTIONDISPLAY
280
0
  9
$INTERSECTIONCOLOR
 70
257
  9
$DIMASSOC
280
2
  9
$PROJECTNAME
  1

  9
$CAMERADISPLAY
290
0
  9
$LENSLENGTH
 40
50.0
  9
$CAMERAHEIGHT
 40
0.0
  9
$STEPSPERSEC
 40
24.0
  9
$STEPSIZE
 40
100.0
  9
$3DDWFPREC
 40
2.0
  9
$PSOLWIDTH
 40
0.005
  9
$PSOLHEIGHT
 40
0.08
  9
$LOFTANG1
 40
1.570796326795
  9
$LOFTANG2
 40
1.570796326795
  9
$LOFTMAG1
 40
0.0
  9
$LOFTMAG2
 40
0.0
  9
$LOFTPARAM
 70
7
  9
$LOFTNORMALS
280
1
  9
$LATITUDE
 40
37.795
  9
$LONGITUDE
 40
-122.394
  9
$NORTHDIRECTION
 40
0.0
  9
$TIMEZONE
 70
-8000
  9
$LIGHTGLYPHDISPLAY
280
1
  9
$TILEMODELIGHTSYNCH
280
1
  9
$CMATERIAL
347
20
  9
$SOLIDHIST
280
0
  9
$SHOWHIST
280
1
  9
$DWFFRAME
280
2
  9
$DGNFRAME
280
2
  9
$REALWORLDSCALE
290
1
  9
$INTERFERECOLOR
 62
256
  9
$CSHADOW
280
0
  9
$SHADOWPLANELOCATION
 40
0.0
  0
ENDSEC
  0
SECTION
  2
CLASSES
  0
CLASS
  1
ACDBDICTIONARYWDFLT
  2
AcDbDictionaryWithDefault
  3
ObjectDBX Classes
 90
0
 91
0
280
0
281
0
  0
CLASS
  1
SUN
  2
AcDbSun
  3
SCENEOE
 90
1153
 91
0
280
0
281
0
  0
CLASS
  1
VISUALSTYLE
  2
AcDbVisualStyle
  3
ObjectDBX Classes
 90
4095
 91
0
280
0
281
0
  0
CLASS
  1
MATERIAL
  2
AcDbMaterial
  3
ObjectDBX Classes
 90
1153
 91
0
280
0
281
0
  0
CLASS
  1
SCALE
  2
AcDbScale
  3
ObjectDBX Classes
 90
1153
 91
0
280
0
281
0
  0
CLASS
  1
TABLESTYLE
  2
AcDbTableStyle
  3
ObjectDBX Classes
 90
4095
 91
0
280
0
281
0
  0
CLASS
  1
MLEADERSTYLE
  2
AcDbMLeaderStyle
  3
ACDB_MLEADERSTYLE_CLASS
 90
4095
 91
0
280
0
281
0
  0
CLASS
  1
DICTIONARYVAR
  2
AcDbDictionaryVar
  3
ObjectDBX Classes
 90
0
 91
0
280
0
281
0
  0
CLASS
  1
CELLSTYLEMAP
  2
AcDbCellStyleMap
  3
ObjectDBX Classes
 90
1152
 91
0
280
0
281
0
  0
CLASS
  1
MENTALRAYRENDERSETTINGS
  2
AcDbMentalRayRenderSettings
  3
SCENEOE
 90
1024
 91
0
280
0
281
0
  0
CLASS
  1
ACDBDETAILVIEWSTYLE
  2
AcDbDetailViewStyle
  3
ObjectDBX Classes
 90
1025
 91
0
280
0
281
0
  0
CLASS
  1
ACDBSECTIONVIEWSTYLE
  2
AcDbSectionViewStyle
  3
ObjectDBX Classes
 90
1025
 91
0
280
0
281
0
  0
CLASS
  1
RASTERVARIABLES
  2
AcDbRasterVariables
  3
ISM
 90
0
 91
0
280
0
281
0
  0
CLASS
  1
LAYOUT
  2
AcDbLayout
  3
ObjectDBX Classes
 90
0
 91
0
280
0
281
0
  0
CLASS
  1
ACDBPLACEHOLDER
  2
AcDbPlaceHolder
  3
ObjectDBX Classes
 90
0
 91
0
280
0
281
0
  0
ENDSEC
  0
SECTION
  2
TABLES
  0
TABLE
  2
VPORT
  5
8
330
0
100
AcDbSymbolTable
 70
1
  0
VPORT
  5
23
330
8
100
AcDbSymbolTableRecord
100
AcDbViewportTableRecord
  2
*Active
 70
0
 10
0.0
 20
0.0
 11
1.0
 21
1.0
 12
0.0
 22
0.0
 13
0.0
 23
0.0
 14
0.5
 24
0.5
 15
0.5
 25
0.5
 16
0.0
 26
0.0
 36
1.0
 17
0.0
 27
0.0
 37
0.0
 40
1000.0
 41
1.34
 42
50.0
 43
0.0
 44
0.0
 50
0.0
 51
0.0
 71
0
 72
1000
 73
1
 74
3
 75
0
 76
0
 77
0
 78
0
281
0
 65
0
146
0.0
  0
ENDTAB
  0
TABLE
  2
LTYPE
  5
2
330
0
100
AcDbSymbolTable
 70
3
  0
LTYPE
  5
24
330
2
100
AcDbSymbolTableRecord
100
AcDbLinetypeTableRecord
  2
ByBlock
 70
0
  3

 72
65
 73
0
 40
0.0
  0
LTYPE
  5
25
330
2
100
AcDbSymbolTableRecord
100
AcDbLinetypeTableRecord
  2
ByLayer
 70
0
  3

 72
65
 73
0
 40
0.0
  0
LTYPE
  5
26
330
2
100
AcDbSymbolTableRecord
100
AcDbLinetypeTableRecord
  2
Continuous
 70
0
  3

 72
65
 73
0
 40
0.0
  0
ENDTAB
  0
TABLE
  2
LAYER
  5
1
330
0
100
AcDbSymbolTable
 70
2
  0
LAYER
  5
27
330
1
100
AcDbSymbolTableRecord
100
AcDbLayerTableRecord
  2
0
 70
0
 62
7
  6
Continuous
370
-3
390
13
347
21
  0
LAYER
  5
28
330
1
100
AcDbSymbolTableRecord
100
AcDbLayerTableRecord
  2
Defpoints
 70
0
 62
7
  6
Continuous
290
0
370
-3
390
13
347
21
  0
ENDTAB
  0
TABLE
  2
STYLE
  5
5
330
0
100
AcDbSymbolTable
 70
1
  0
STYLE
  5
29
330
5
100
AcDbSymbolTableRecord
100
AcDbTextStyleTableRecord
  2
Standard
 70
0
 40
0.0
 41
1.0
 50
0.0
 71
0
 42
2.5
  3
txt
  4

  0
ENDTAB
  0
TABLE
  2
VIEW
  5
7
330
0
100
AcDbSymbolTable
 70
0
  0
ENDTAB
  0
TABLE
  2
UCS
  5
6
330
0
100
AcDbSymbolTable
 70
0
  0
ENDTAB
  0
TABLE
  2
APPID
  5
3
330
0
100
AcDbSymbolTable
 70
3
  0
APPID
  5
2A
330
3
100
AcDbSymbolTableRecord
100
AcDbRegAppTableRecord
  2
ACAD
 70
0
  0
APPID
  5
30
330
3
100
AcDbSymbolTableRecord
100
AcDbRegAppTableRecord
  2
HATCHBACKGROUNDCOLOR
 70
0
  0
APPID
  5
31
330
3
100
AcDbSymbolTableRecord
100
AcDbRegAppTableRecord
  2
EZDXF
 70
0
  0
ENDTAB
  0
TABLE
  2
DIMSTYLE
  5
4
330
0
100
AcDbSymbolTable
 70
1
100
AcDbDimStyleTable
  0
DIMSTYLE
105
2B
330
4
100
AcDbSymbolTableRecord
100
AcDbDimStyleTableRecord
  2
Standard
 70
0
 40
1.0
 41
2.5
 42
0.625
 43
3.75
 44
1.25
 45
0.0
 46
0.0
 47
0.0
 48
0.0
 49
2.5
140
2.5
141
2.5
142
0.0
143
0.03937007874
144
1.0
145
0.0
146
1.0
147
0.625
148
0.0
 69
0
 70
0
 71
0
 72
0
 73
0
 74
0
 75
0
 76
0
 77
1
 78
8
 79
3
170
0
171
3
172
1
173
0
174
0
175
0
176
0
177
0
178
0
179
2
271
2
272
2
273
2
274
3
275
0
276
0
277
2
278
44
279
0
280
0
281
0
282
0
283
0
284
8
285
0
286
0
288
0
289
3
290
0
371
-2
372
-2
  0
ENDTAB
  0
TABLE
  2
BLOCK_RECORD
  5
9
330
0
100
AcDbSymbolTable
 70
2
  0
BLOCK_RECORD
  5
17
330
9
100
AcDbSymbolTableRecord
100
AcDbBlockTableRecord
  2
*Model_Space
340
1A
 70
0
280
1
281
0
  0
BLOCK_RECORD
  5
1B
330
9
100
AcDbSymbolTableRecord
100
AcDbBlockTableRecord
  2
*Paper_Space
340
1E
 70
0
280
1
281
0
  0
ENDTAB
  0
ENDSEC
  0
SECTION
  2
BLOCKS
  0
BLOCK
  5
18
330
17
100
AcDbEntity
  8
0
100
AcDbBlockBegin
  2
*Model_Space
 70
0
 10
0.0
 20
0.0
 30
0.0
  3
*Model_Space
  1

  0
ENDBLK
  5
19
330
17
100
AcDbEntity
  8
0
100
AcDbBlockEnd
  0
BLOCK
  5
1C
330
1B
100
AcDbEntity
  8
0
100
AcDbBlockBegin
  2
*Paper_Space
 70
0
 10
0.0
 20
0.0
 30
0.0
  3
*Paper_Space
  1

  0
ENDBLK
  5
1D
330
1B
100
AcDbEntity
  8
0
100
AcDbBlockEnd
  0
ENDSEC
  0
SECTION
  2
ENTITIES
  0
LWPOLYLINE
  5
2F
330
17
100
AcDbEntity
  8
SHELF
100
AcDbPolyline
 90
654
 70
1
 10
0.0
 20
0.0
 10
3.839601970908208
 20
0.0
 10
3.839601970908208
 20
0.15302337228714524
 10
3.839601970908208
 20
0.3060467445742905
 10
3.839601970908208
 20
0.45907011686143573
 10
3.839601970908208
 20
0.612093489148581
 10
3.839601970908208
 20
0.7651168614357262
 10
3.839601970908208
 20
0.9181402337228715
 10
3.839601970908208
 20
0.923
 10
3.814133832008693
 20
1.0711636060100167
 10
3.7879609981507705
 20
1.224186978297162
 10
3.761939402043083
 20
1.3772103505843072
 10
3.7360876037034525
 20
1.5302337228714524
 10
3.710424042040693
 20
1.6832570951585977
 10
3.6849670217029833
 20
1.836280467445743
 10
3.6597347000219935
 20
1.9893038397328882
 10
3.6347450740620886
 20
2.1423272120200334
 10
3.610015967783845
 20
2.2953505843071786
 10
3.5855650193310282
 20
2.448373956594324
 10
3.5614096684501155
 20
2.601397328881469
 10
3.5375671440513132
 20
2.7544207011686144
 10
3.514054451919966
 20
2.9074440734557596
 10
3.4908883625871034
 20
3.060467445742905
 10
3.468085399367784
 20
3.21349081803005
 10
3.4456618265757717
 20
3.3665141903171953
 10
3.423633637922938
 20
3.5195375626043406
 10
3.40201654511168
 20
3.672560934891486
 10
3.3808259666284797
 20
3.825584307178631
 10
3.3600770167465965
 20
3.9786076794657763
 10
3.3397844947457522
 20
4.131631051752922
 10
3.3199628743564724
 20
4.284654424040067
 10
3.3006262934366406
 20
4.437677796327212
 10
3.2817885438876058
 20
4.590701168614357
 10
3.263463061817047
 20
4.7437245409015025
 10
3.2456629179556145
 20
4.896747913188648
 10
3.228400808334171
 20
5.049771285475793
 10
3.2116890452282902
 20
5.202794657762938
 10
3.1955395483764777
 20
5.3558180300500835
 10
3.1799638364783576
 20
5.508841402337229
 10
3.1649730189789174
 20
5.661864774624374
 10
3.1505777881446395
 20
5.814888146911519
 10
3.1367884114372018
 20
5.9679115191986645
 10
3.123614724190161
 20
6.12093489148581
 10
3.111066122593861
 20
6.273958263772955
 10
3.099151556993556
 20
6.4269816360601
 10
3.0878795255055405
 20
6.580005008347245
 10
3.077258067955826
 20
6.733028380634391
 10
3.067294760145704
 20
6.886051752921536
 10
3.057996708448272
 20
7.039075125208681
 10
3.0493705447397788
 20
7.192098497495826
 10
3.0414224216694112
 20
7.345121869782972
 10
3.0341580082708917
 20
7.498145242070117
 10
3.0275824859190124
 20
7.651168614357262
 10
3.0217005446339975
 20
7.804191986644407
 10
3.016516379736327
 20
7.957215358931553
 10
3.0120336888544053
 20
8.110238731218697
 10
3.00825566928721
 20
8.263262103505843
 10
3.0051850157238076
 20
8.41628547579299
 10
3.00282391832135
 20
8.569308848080134
 10
3.0011740611429403
 20
8.722332220367278
 10
3.0002366209564637
 20
8.875355592654424
 10
3.0000122663952546
 20
9.02837896494157
 10
3.0005011574811897
 20
9.181402337228715
 10
3.0017029455105533
 20
9.334425709515859
 10
3.0036167733027495
 20
9.487449081803005
 10
3.0062412758116923
 20
9.640472454090151
 10
3.0095745810994297
 20
9.793495826377296
 10
3.0136143116713106
 20
9.94651919866444
 10
3.0183575861717453
 20
10.099542570951586
 10
3.0238010214393443
 20
10.252565943238732
 10
3.0299407349199723
 20
10.405589315525877
 10
3.0367723474359973
 20
10.55861268781302
 10
3.0442909863097602
 20
10.711636060100167
 10
3.0524912888390308
 20
10.864659432387313
 10
3.0613674061219784
 20
11.017682804674457
 10
3.0709130072289312
 20
11.170706176961602
 10
3.081121283717934
 20
11.323729549248748
 10
3.091984954490905
 20
11.476752921535894
 10
3.1034962709869047
 20
11.629776293823038
 10
3.1156470227088366
 20
11.782799666110183
 10
3.128428543079619
 20
11.935823038397329
 10
3.1418317156236566
 20
12.088846410684475
 10
3.1558469804692084
 20
12.24186978297162
 10
3.170464341167011
 20
12.394893155258764
 10
3.1856733718202848
 20
12.54791652754591
 10
3.2014632245210537
 20
12.700939899833056
 10
3.2178226370874654
 20
12.8539632721202
 10
3.234739941096585
 20
13.006986644407345
 10
3.252203070206958
 20
13.16001001669449
 10
3.2701995687649745
 20
13.313033388981637
 10
3.2887166006889212
 20
13.466056761268781
 10
3.3077409586243736
 20
13.619080133555926
 10
3.3272590733644014
 20
13.772103505843072
 10
3.3472570235278574
 20
13.925126878130218
 10
3.4809283529118593
 20
13.95
 10
3.4809283529118593
 20
14.078150250417362
 10
3.4809283529118593
 20
14.231173622704507
 10
3.4809283529118593
 20
14.384196994991653
 10
3.4809283529118593
 20
14.537220367278799
 10
3.4809283529118593
 20
14.690243739565943
 10
3.4809283529118593
 20
14.843267111853088
 10
3.4809283529118593
 20
14.873
 10
3.4994394117057563
 20
14.996290484140234
 10
3.5227360007309487
 20
15.14931385642738
 10
3.54637300040177
 20
15.302337228714524
 10
3.5703335515242927
 20
15.455360601001669
 10
3.5946005641300927
 20
15.608383973288815
 10
3.6191567296657454
 20
15.761407345575961
 10
3.6439845333382292
 20
15.914430717863105
 10
3.669066266607426
 20
16.06745409015025
 10
3.6943840398168173
 20
16.220477462437394
 10
3.719919794953361
 20
16.373500834724542
 10
3.745655318527443
 20
16.526524207011686
 10
3.7715722545637367
 20
16.67954757929883
 10
3.7976521176936786
 20
16.83257095158598
 10
3.823876306340237
 20
16.985594323873123
 10
3.850226115985575
 20
17.138617696160267
 10
3.876682752512123
 20
17.29164106844741
 10
3.903227345607569
 20
17.444664440734556
 10
3.929840962224194
 20
17.597687813021704
 10
3.956504620082945
 20
17.750711185308848
 10
3.983199301212636
 20
17.903734557595993
 10
4.009905965514598
 20
18.05675792988314
 10
4.036605564343107
 20
18.209781302170285
 10
4.063279054091923
 20
18.36280467445743
 10
4.08990740977722
 20
18.515828046744573
 10
4.1164716386072415
 20
18.668851419031718
 10
4.142952793528995
 20
18.821874791318866
 10
4.169331986742312
 20
18.97489816360601
 10
4.195590403171668
 20
19.127921535893154
 10
4.221709313886108
 20
19.280944908180302
 10
4.247670089457737
 20
19.433968280467447
 10
4.273454213249251
 20
19.58699165275459
 10
4.299043294621006
 20
19.740015025041735
 10
4.324419082048217
 20
19.89303839732888
 10
4.349563476138944
 20
20.046061769616028
 10
4.374458542543563
 20
20.199085141903172
 10
4.399086524746515
 20
20.352108514190316
 10
4.423429856731226
 20
20.505131886477464
 10
4.447471175509139
 20
20.65815525876461
 10
4.471193333503945
 20
20.811178631051753
 10
4.494579410782166
 20
20.964202003338897
 10
4.517612727121376
 20
21.11722537562604
 10
4.540276853907435
 20
21.27024874791319
 10
4.562555625852276
 20
21.423272120200334
 10
4.584433152523869
 20
21.57629549248748
 10
4.605893829680136
 20
21.729318864774626
 10
4.62692235039875
 20
21.88234223706177
 10
4.647503715994864
 20
22.035365609348915
 10
4.667623246718985
 20
22.18838898163606
 10
4.687266592227375
 20
22.341412353923204
 10
4.706419741817494
 20
22.49443572621035
 10
4.725069034421196
 20
22.647459098497496
 10
4.743201168348546
 20
22.80048247078464
 10
4.760803210775306
 20
22.953505843071788
 10
4.777862606967333
 20
23.106529215358933
 10
4.794367189235299
 20
23.259552587646077
 10
4.81030518561334
 20
23.41257595993322
 10
4.825665228255476
 20
23.565599332220366
 10
4.840436361543765
 20
23.718622704507514
 10
4.854608049902453
 20
23.871646076794658
 10
4.868170185312516
 20
24.024669449081802
 10
4.88111309452125
 20
24.17769282136895
 10
4.893427545941764
 20
24.330716193656095
 10
4.905104756237444
 20
24.48373956594324
 10
4.916136396586712
 20
24.636762938230383
 10
4.926514598623591
 20
24.789786310517528
 10
4.936231960049854
 20
24.942809682804675
 10
4.9452815499147444
 20
25.09583305509182
 10
4.953656913558507
 20
25.248856427378964
 10
4.961352077216202
 20
25.401879799666112
 10
4.968361552278522
 20
25.554903171953256
 10
4.974680339206564
 20
25.7079265442404
 10
4.980303931097772
 20
25.860949916527545
 10
4.985228316900509
 20
26.01397328881469
 10
4.98944998427495
 20
26.166996661101837
 10
4.992965922098282
 20
26.32002003338898
 10
4.995773622612397
 20
26.473043405676126
 10
4.997301679557774
 20
26.497999999999998
 10
4.997301679557774
 20
26.626066777963274
 10
4.997301679557774
 20
26.77909015025042
 10
4.997301679557774
 20
26.932113522537563
 10
4.997301679557774
 20
27.085136894824707
 10
4.997301679557774
 20
27.23816026711185
 10
4.997301679557774
 20
27.391183639399
 10
4.997301679557774
 20
27.421
 10
4.995492596071664
 20
27.544207011686144
 10
4.992604946000136
 20
27.697230383973288
 10
4.989009316087181
 20
27.850253756260436
 10
4.9847082709316375
 20
28.00327712854758
 10
4.979704878272873
 20
28.156300500834725
 10
4.974002706802698
 20
28.30932387312187
 10
4.967605823619979
 20
28.462347245409013
 10
4.960518791329771
 20
28.61537061769616
 10
4.95274666478901
 20
28.768393989983306
 10
4.9442949875011175
 20
28.92141736227045
 10
4.935169787662076
 20
29.074440734557598
 10
4.9253775738607875
 20
29.227464106844742
 10
4.914925330436793
 20
29.380487479131887
 10
4.903820512498665
 20
29.53351085141903
 10
4.892071040606618
 20
29.686534223706175
 10
4.87968529512313
 20
29.839557595993323
 10
4.866672110235619
 20
29.992580968280468
 10
4.853040767655415
 20
30.145604340567612
 10
4.838800989997539
 20
30.29862771285476
 10
4.823962933846007
 20
30.451651085141904
 10
4.808537182509598
 20
30.60467445742905
 10
4.792534738473269
 20
30.757697829716193
 10
4.775967015550579
 20
30.910721202003337
 10
4.758845830742738
 20
31.063744574290485
 10
4.741183395810078
 20
31.21676794657763
 10
4.722992308561963
 20
31.369791318864774
 10
4.704285543871342
 20
31.522814691151922
 10
4.685076444420374
 20
31.675838063439066
 10
4.665378711183684
 20
31.82886143572621
 10
4.645206393656103
 20
31.981884808013355
 10
4.624573879831788
 20
32.1349081803005
 10
4.6034958859419275
 20
32.287931552587644
 10
4.581987445958327
 20
32.44095492487479
 10
4.560063900870359
 20
32.59397829716194
 10
4.537740887742942
 20
32.747001669449084
 10
4.515034328563322
 20
32.90002504173623
 10
4.49196041888466
 20
33.05304841402337
 10
4.468535616274469
 20
33.20607178631052
 10
4.444776628576189
 20
33.35909515859766
 10
4.420700401992251
 20
33.512118530884806
 10
4.396324108997105
 20
33.66514190317196
 10
4.371665136088896
 20
33.8181652754591
 10
4.346741071388456
 20
33.971188647746246
 10
4.321569692094501
 20
34.12421202003339
 10
4.296168951803975
 20
34.277235392320534
 10
4.270556967706555
 20
34.43025876460768
 10
4.244752007662495
 20
34.58328213689482
 10
4.21877247717299
 20
34.73630550918197
 10
4.192636906252373
 20
34.88932888146911
 10
4.166363936211498
 20
35.04235225375626
 10
4.139972306361751
 20
35.19537562604341
 10
4.113480840649146
 20
35.34839899833055
 10
4.086908434228063
 20
35.501422370617696
 10
4.060274039984199
 20
35.65444574290484
 10
4.03359665501634
 20
35.807469115191985
 10
4.006895307086591
 20
35.96049248747913
 10
3.9801890410487486
 20
36.11351585976628
 10
3.9534969052644735
 20
36.266539232053425
 10
3.9268379380169556
 20
36.41956260434057
 10
3.900231153931782
 20
36.572585976627714
 10
3.8736955304146696
 20
36.72560934891486
 10
3.847249994115751
 20
36.878632721202
 10
3.820913407430048
 20
37.03165609348915
 10
3.7947045550437983
 20
37.18467946577629
 10
3.768642130536185
 20
37.337702838063436
 10
3.742744723046061
 20
37.49072621035059
 10
3.717030804013173
 20
37.64374958263773
 10
3.691518714003312
 20
37.796772954924876
 10
3.6662266496268363
 20
37.94979632721202
 10
3.6411726505598505
 20
38.102819699499165
 10
3.616374586677331
 20
38.25584307178631
 10
3.5918501453073604
 20
38.40886644407345
 10
3.567616818615556
 20
38.561889816360605
 10
3.5436918911287223
 20
38.71491318864775
 10
3.520092427406565
 20
38.86793656093489
 10
3.503429779795572
 20
38.9775704845283
 10
3.473165943093889
 20
38.98064135651463
 10
3.4437800466084925
 20
38.988502600335565
 10
3.416025321739764
 20
39.00095271335207
 10
3.3906131890254594
 20
39.01767256914012
 10
3.368195022716508
 20
39.038233597470594
 10
3.3493454544839656
 20
39.06210876959791
 10
3.334547644223378
 20
39.088686107277866
 10
3.3241808955013616
 20
39.117284369245986
 10
3.318510933090383
 20
39.1471705130742
 10
3.317683091801958
 20
39.17757848481622
 10
3.3217185912049123
 20
39.20772885481779
 10
3.330513991716654
 20
39.236848796378524
 10
3.343843846009154
 20
39.2641918951642
 10
3.3613664777677013
 20
39.28905728160634
 10
3.3613664777677004
 20
39.32700667779633
 10
3.3613664777677004
 20
39.48003005008347
 10
3.3613664777677004
 20
39.633053422370615
 10
3.3613664777677004
 20
39.78607679465776
 10
3.3613664777677004
 20
39.93910016694491
 10
3.3613664777677004
 20
39.969
 10
3.344979091166043
 20
40.092123539232055
 10
3.325034526059467
 20
40.2451469115192
 10
3.305571383044464
 20
40.398170283806344
 10
3.286603544293356
 20
40.55119365609349
 10
3.268144538700518
 20
40.70421702838063
 10
3.250207532232838
 20
40.85724040066778
 10
3.2328053185390333
 20
41.01026377295493
 10
3.2159503098245263
 20
41.16328714524207
 10
3.1996545279983795
 20
41.31631051752922
 10
3.183929596098621
 20
41.46933388981636
 10
3.1687867300020582
 20
41.622357262103506
 10
3.154236730424505
 20
41.77538063439065
 10
3.140289975217125
 20
41.928404006677795
 10
3.126956411964382
 20
42.08142737896494
 10
3.1142455508888847
 20
42.23445075125208
 10
3.102166458068173
 20
42.387474123539235
 10
3.090727748968305
 20
42.54049749582638
 10
3.079937582298832
 20
42.693520868113524
 10
3.069803654193568
 20
42.84654424040067
 10
3.0603331927212825
 20
42.99956761268781
 10
3.051532952730258
 20
43.15259098497496
 10
3.0434092110303532
 20
43.3056143572621
 10
3.0359677619160506
 20
43.45863772954925
 10
3.0292139130336437
 20
43.6116611018364
 10
3.0231524815955404
 20
43.76468447412354
 10
3.017787790944361
 20
43.917707846410686
 10
3.013123667469296
 20
44.07073121869783
 10
3.0091634378769196
 20
44.223754590984974
 10
3.005909926818398
 20
44.37677796327212
 10
3.0033654548747966
 20
44.52980133555926
 10
3.0015318369019153
 20
44.68282470784641
 10
3.0004103807358344
 20
44.83584808013356
 10
3.000001886260094
 20
44.9888714524207
 10
3.0003066448351756
 20
45.14189482470785
 10
3.001324439090685
 20
45.29491819699499
 10
3.003054543080395
 20
45.447941569282136
 10
3.00549572280003
 20
45.60096494156928
 10
3.0086462370674214
 20
45.753988313856425
 10
3.0125038387644194
 20
45.907011686143576
 10
3.0170657764396536
 20
46.06003505843072
 10
3.0223287962710232
 20
46.213058430717865
 10
3.0282891443864943
 20
46.36608180300501
 10
3.0349425695415726
 20
46.519105175292154
 10
3.0422843261515142
 20
46.6721285475793
 10
3.050309177676144
 20
46.82515191986644
 10
3.059011400354831
 20
46.97817529215359
 10
3.068384787288993
 20
47.13119866444073
 10
3.078422652869193
 20
47.28422203672788
 10
3.0891178375436774
 20
47.43724540901503
 10
3.1004627129249576
 20
47.59026878130217
 10
3.112449187230794
 20
47.743292153589316
 10
3.125068711055694
 20
47.89631552587646
 10
3.1383122834688097
 20
48.049338898163604
 10
3.152170458433897
 20
48.20236227045075
 10
3.16663335154674
 20
48.3553856427379
 10
3.1816906470852424
 20
48.508409015025045
 10
3.1973316053671645
 20
48.66143238731219
 10
3.2135450704102557
 20
48.81445575959933
 10
3.2303194778892927
 20
48.96747913188648
 10
3.2476428633843994
 20
49.12050250417362
 10
3.2655028709147107
 20
49.273525876460766
 10
3.2838867617513445
 20
49.42654924874791
 10
3.302781423503338
 20
49.579572621035055
 10
3.3221733794701347
 20
49.73259599332221
 10
3.342048798253888
 20
49.88561936560935
 10
3.3623935036247765
 20
50.038642737896495
 10
3.3831929846322515
 20
50.19166611018364
 10
3.4044324059550477
 20
50.344689482470784
 10
3.426096618482535
 20
50.49771285475793
 10
3.4481701701198855
 20
50.65073622704507
 10
3.4706373168093543
 20
50.803759599332224
 10
3.493482033759797
 20
50.95678297161937
 10
3.516688026876416
 20
51.10980634390651
 10
3.540238744382604
 20
51.26282971619366
 10
3.5641173886255673
 20
51.4158530884808
 10
3.588306928057321
 20
51.568876460767946
 10
3.7440480495607993
 20
51.594
 10
3.7440480495607993
 20
51.72189983305509
 10
3.7440480495607993
 20
51.874923205342235
 10
3.7440480495607993
 20
52.02794657762938
 10
3.7440480495607993
 20
52.18096994991653
 10
3.7440480495607993
 20
52.333993322203675
 10
3.7440480495607993
 20
52.48701669449082
 10
3.7440480495607993
 20
52.517
 10
3.764864683799184
 20
52.64004006677796
 10
3.7909042593560205
 20
52.79306343906511
 10
3.817092973369099
 20
52.94608681135225
 10
3.8434121466230184
 20
53.0991101836394
 10
3.8698430068517546
 20
53.25213355592655
 10
3.896366702128046
 20
53.40515692821369
 10
3.922964314309641
 20
53.55818030050084
 10
3.949616872532717
 20
53.71120367278798
 10
3.976305366742954
 20
53.864227045075125
 10
4.00301076125453
 20
54.01725041736227
 10
4.029714008327403
 20
54.170273789649414
 10
4.05639606175321
 20
54.32329716193656
 10
4.083037890440039
 20
54.4763205342237
 10
4.109620491986464
 20
54.629343906510854
 10
4.136124906235065
 20
54.782367278798
 10
4.162532228795859
 20
54.93539065108514
 10
4.18882362452994
 20
55.08841402337229
 10
4.214980340983719
 20
55.24143739565943
 10
4.240983721764192
 20
55.394460767946576
 10
4.266815219845704
 20
55.54748414023372
 10
4.292456410798687
 20
55.70050751252087
 10
4.31788900593097
 20
55.853530884808016
 10
4.343094865332264
 20
56.00655425709516
 10
4.368056010812548
 20
56.159577629382305
 10
4.392754638725068
 20
56.31260100166945
 10
4.417173132664889
 20
56.465624373956594
 10
4.4412940760338575
 20
56.61864774624374
 10
4.465100264463077
 20
56.77167111853088
 10
4.488574718083993
 20
56.92469449081803
 10
4.511700693639359
 20
57.07771786310518
 10
4.534461696425446
 20
57.23074123539232
 10
4.556841492056955
 20
57.38376460767947
 10
4.5788241180462625
 20
57.53678797996661
 10
4.6003938951887475
 20
57.689811352253756
 10
4.621535438746035
 20
57.8428347245409
 10
4.642233669419237
 20
57.995858096828044
 10
4.662473824104336
 20
58.148881469115196
 10
4.682241466422023
 20
58.30190484140234
 10
4.701522497014511
 20
58.454928213689485
 10
4.720303163601965
 20
58.60795158597663
 10
4.738570070791382
 20
58.76097495826377
 10
4.7563101896309
 20
58.91399833055092
 10
4.77351086690277
 20
59.06702170283806
 10
4.790159834148309
 20
59.220045075125206
 10
4.8062452164184375
 20
59.37306844741235
 10
4.8217555407435375
 20
59.5260918196995
 10
4.836679744316595
 20
59.67911519198665
 10
4.851007182383804
 20
59.83213856427379
 10
4.864727635836976
 20
59.985161936560935
 10
4.877831318502366
 20
60.13818530884808
 10
4.89030888412071
 20
60.291208681135224
 10
4.902151433013474
 20
60.44423205342237
 10
4.913350518430598
 20
60.59725542570952
 10
4.923898152575176
 20
60.750278797996664
 10
4.933786812300784
 20
60.90330217028381
 10
4.943009444477401
 20
61.05632554257095
 10
4.9515594710220805
 20
61.2093489148581
 10
4.959430793590804
 20
61.36237228714524
 10
4.966617797928144
 20
61.515395659432386
 10
4.973115357871663
 20
61.66841903171953
 10
4.978918839008165
 20
61.821442404006675
 10
4.984024101979218
 20
61.974465776293826
 10
4.988427505433561
 20
62.12748914858097
 10
4.992125908624324
 20
62.280512520868115
 10
4.995116673649172
 20
62.43353589315526
 10
4.997397667331804
 20
62.5865592654424
 10
4.998967262743447
 20
62.73958263772955
 10
4.999824340363273
 20
62.89260601001669
 10
4.999968288876902
 20
63.045629382303844
 10
4.999399005612425
 20
63.19865275459099
 10
4.998116896613632
 20
63.35167612687813
 10
4.996122876350403
 20
63.50469949916528
 10
4.9934183670664565
 20
63.65772287145242
 10
4.990005297764929
 20
63.810746243739565
 10
4.985886102832506
 20
63.96376961602671
 10
4.981937269337004
 20
64.08907361553219
 10
4.967285062129348
 20
64.10188929402244
 10
4.954021036795072
 20
64.11613690516093
 10
4.942284421065105
 20
64.13166689686823
 10
4.932198409997943
 20
64.14831625637467
 10
4.92386887284516
 20
64.16591022130706
 10
4.917383241779742
 20
64.18426411410682
 10
4.912809594151826
 20
64.20318528052428
 10
4.9101959379050975
 20
64.22247511184148
 10
4.909569707654579
 20
64.2419311295968
 10
4.91093747671528
 20
64.261349110929
 10
4.914284888104462
 20
64.28052523223164
 10
4.9195768052417534
 20
64.29925820861645
 10
4.926757680765268
 20
64.31735140672893
 10
4.9357521395924016
 20
64.33461490873833
 10
4.935752139592401
 20
64.42283973288815
 10
4.935752139592401
 20
64.57586310517529
 10
4.935752139592401
 20
64.72888647746244
 10
4.935752139592401
 20
64.88190984974958
 10
4.935752139592401
 20
65.03493322203673
 10
4.935752139592401
 20
65.065
 10
4.9279692178372425
 20
65.18795659432388
 10
4.917686685499505
 20
65.34097996661102
 10
4.906749609098994
 20
65.49400333889817
 10
4.8951657895535385
 20
65.6470267111853
 10
4.882943489073351
 20
65.80005008347246
 10
4.870091425267982
 20
65.9530734557596
 10
4.856618764928439
 20
66.10609682804674
 10
4.842535117488939
 20
66.2591202003339
 10
4.827850528172936
 20
66.41214357262103
 10
4.81257547082831
 20
66.56516694490819
 10
4.79672084045687
 20
66.71819031719532
 10
4.780297945443425
 20
66.87121368948247
 10
4.763318499490044
 20
67.02423706176961
 10
4.745794613261195
 20
67.17726043405676
 10
4.727738785745772
 20
67.33028380634391
 10
4.7091638953421295
 20
67.48330717863105
 10
4.690083190672501
 20
67.6363305509182
 10
4.670510281133381
 20
67.78935392320534
 10
4.650459127188541
 20
67.94237729549249
 10
4.629944030411683
 20
68.09540066777963
 10
4.608979623285769
 20
68.24842404006678
 10
4.58758085876635
 20
68.40144741235392
 10
4.565762999616289
 20
68.55447078464107
 10
4.54354160751954
 20
68.70749415692822
 10
4.5209325319817095
 20
68.86051752921536
 10
4.497951899025315
 20
69.01354090150251
 10
4.474616099687846
 20
69.16656427378965
 10
4.45094177833076
 20
69.3195876460768
 10
4.426945820767852
 20
69.47261101836393
 10
4.402645342221336
 20
69.62563439065109
 10
4.378057675114372
 20
69.77865776293822
 10
4.353200356708611
 20
69.93168113522538
 10
4.328091116595689
 20
70.08470450751253
 10
4.302747864051499
 20
70.23772787979966
 10
4.277188675262331
 20
70.39075125208682
 10
4.2514317804319575
 20
70.54377462437395
 10
4.225495550778842
 20
70.6967979966611
 10
4.199398485432811
 20
70.84982136894824
 10
4.1731591982404455
 20
71.00284474123539
 10
4.1467964044886925
 20
71.15586811352254
 10
4.120328907556092
 20
71.30889148580968
 10
4.093775585501185
 20
71.46191485809683
 10
4.067155377597667
 20
71.61493823038397
 10
4.040487270825845
 20
71.76796160267112
 10
4.013790286330117
 20
71.92098497495826
 10
3.9870834658520398
 20
72.07400834724541
 10
3.960385858148725
 20
72.22703171953256
 10
3.93371650540624
 20
72.3800550918197
 10
3.9070944296576675
 20
72.53307846410685
 10
3.8805386192155775
 20
72.68610183639399
 10
3.854068015128503
 20
72.83912520868114
 10
3.8277014976711907
 20
72.99214858096828
 10
3.80145787287812
 20
73.14517195325543
 10
3.7753558591300527
 20
73.29819532554257
 10
3.749414073803041
 20
73.45121869782972
 10
3.723651019989518
 20
73.60424207011687
 10
3.698085073300874
 20
73.757265442404
 10
3.6727344687609746
 20
73.91028881469116
 10
3.6476172877999646
 20
74.0633121869783
 10
3.6227514453575713
 20
74.21633555926545
 10
3.5981546771052453
 20
74.36935893155258
 10
3.5738445267960612
 20
74.52238230383973
 10
3.5498383337516106
 20
74.67540567612687
 10
3.526153220494614
 20
74.82842904841402
 10
3.502806080536224
 20
74.98145242070117
 10
3.479813566326661
 20
75.13447579298831
 10
3.457192077377762
 20
75.28749916527546
 10
3.4349577485659677
 20
75.4405225375626
 10
3.41312643862405
 20
75.59354590984975
 10
3.3917137188298003
 20
75.74656928213689
 10
3.370734861899747
 20
75.89959265442404
 10
3.350204831095818
 20
76.05261602671119
 10
3.330138269552746
 20
76.20563939899833
 10
3.310549489833765
 20
76.35866277128548
 10
3.2914524637221256
 20
76.51168614357262
 10
3.2780776341778357
 20
76.6217711203873
 10
3.251859292963347
 20
76.62959951862517
 10
3.2270372755041716
 20
76.64111267128924
 10
3.204126370663878
 20
76.65607180476712
 10
3.1836017323531216
 20
76.67416667855012
 10
3.165889025216146
 20
76.69502201937422
 10
3.151355596685236
 20
76.71820530408858
 10
3.1403028584876824
 20
76.74323572984098
 10
3.132960035606724
 20
76.76959418554591
 10
3.1294794123380467
 20
76.79673401783485
 10
3.1299331740348335
 20
76.82409236821152
 10
3.1343119100410566
 20
76.85110184628863
 10
3.1425248088609856
 20
76.87720229701239
 10
3.1544015415172493
 20
76.901852417832
 10
3.1696957940381045
 20
76.92454098488324
 10
3.1696957940381063
 20
76.97075626043406
 10
3.1696957940381063
 20
77.12377963272121
 10
3.1696957940381063
 20
77.27680300500835
 10
3.1696957940381063
 20
77.4298263772955
 10
3.1696957940381063
 20
77.58284974958264
 10
3.1696957940381063
 20
77.613
 10
3.1579358852167503
 20
77.73587312186979
 10
3.14383241461941
 20
77.88889649415692
 10
3.1303396093162306
 20
78.04191986644408
 10
3.1174670931099113
 20
78.19494323873121
 10
3.1052240473792256
 20
78.34796661101836
 10
3.0936192045303663
 20
78.50098998330552
 10
3.0826608417685115
 20
78.65401335559265
 10
3.072356775194076
 20
78.8070367278798
 10
3.0627143542278428
 20
78.96006010016694
 10
3.0537404563689554
 20
79.1130834724541
 10
3.0454414822895153
 20
79.26610684474123
 10
3.0378233512692656
 20
79.41913021702838
 10
3.03089149697365
 20
79.57215358931552
 10
3.024650863578216
 20
79.72517696160267
 10
3.019105902242169
 20
79.87820033388982
 10
3.014260567933561
 20
80.03122370617696
 10
3.010118316608385
 20
80.18424707846411
 10
3.0066821027456125
 20
80.33727045075125
 10
3.0039543772398845
 20
80.4902938230384
 10
3.001937085653411
 20
80.64331719532554
 10
3.000631666828284
 20
80.79634056761269
 10
3.0000390518602194
 20
80.94936393989984
 10
3.000159663434449
 20
81.10238731218698
 10
3.000993415524237
 20
81.25541068447413
 10
3.0025397134522396
 20
81.40843405676127
 10
3.0047974543146623
 20
81.56145742904842
 10
3.0077650277679093
 20
81.71448080133555
 10
3.0114403171771693
 20
81.8675041736227
 10
3.015820701126113
 20
82.02052754590986
 10
3.0209030552866314
 20
82.173550918197
 10
3.026683754647279
 20
82.32657429048415
 10
3.033158676098821
 20
82.47959766277128
 10
3.040323201375068
 20
82.63262103505843
 10
3.04817222034687
 20
82.78564440734557
 10
3.056700134666941
 20
82.93866777963272
 10
3.0659008617628984
 20
83.09169115191986
 10
3.075767839175695
 20
83.24471452420701
 10
3.0862940292403134
 20
83.39773789649416
 10
3.0974719241054163
 20
83.5507612687813
 10
3.1092935510883475
 20
83.70378464106845
 10
3.121750478361693
 20
83.85680801335559
 10
3.1348338209673114
 20
84.00983138564274
 10
3.1485342471535733
 20
84.16285475792988
 10
3.1628419850312723
 20
84.31587813021703
 10
3.177746829543462
 20
84.46890150250417
 10
3.193238149744277
 20
84.62192487479132
 10
3.2093048963814774
 20
84.77494824707847
 10
3.225935609777387
 20
84.92797161936561
 10
3.2431184280025707
 20
85.08099499165276
 10
3.2608410953363878
 20
85.2340183639399
 10
3.279090971008453
 20
85.38704173622705
 10
3.2978550382147045
 20
85.54006510851418
 10
3.317119913401728
 20
85.69308848080134
 10
3.336871855812596
 20
85.84611185308849
 10
3.3570967772875524
 20
85.99913522537562
 10
3.3777802523124456
 20
86.15215859766278
 10
3.3989075283077765
 20
86.30518196994991
 10
3.4204635361510736
 20
86.45820534223706
 10
3.442432900924969
 20
86.6112287145242
 10
3.4647999528834585
 20
86.76425208681135
 10
3.4875487386284063
 20
86.9172754590985
 10
3.510663032488365
 20
87.07029883138564
 10
3.534126348091627
 20
87.2233222036728
 10
3.557921950125185
 20
87.37634557595993
 10
3.582032866271289
 20
87.52936894824708
 10
3.60644189931299
 20
87.68239232053422
 10
3.6311316394001687
 20
87.83541569282137
 10
3.656084476467166
 20
87.98843906510851
 10
3.6812826127932494
 20
88.14146243739566
 10
3.7067080756969015
 20
88.29448580968281
 10
3.732342730354934
 20
88.44750918196995
 10
3.758168292737217
 20
88.6005325542571
 10
3.784166342647851
 20
88.75355592654424
 10
3.8103183368634364
 20
88.90657929883139
 10
3.836605622359133
 20
89.05960267111853
 10
3.863009449612998
 20
89.21262604340568
 10
4.028096103174848
 20
89.238
 10
4.028096103174848
 20
89.36564941569281
 10
4.028096103174848
 20
89.51867278797997
 10
4.028096103174848
 20
89.67169616026712
 10
4.028096103174848
 20
89.82471953255425
 10
4.028096103174848
 20
89.9777429048414
 10
4.028096103174848
 20
90.13076627712854
 10
4.028096103174848
 20
90.161
 10
4.049510388017214
 20
90.2837896494157
 10
4.076164422997855
 20
90.43681302170283
 10
4.102764133368963
 20
90.58983639398998
 10
4.129290546770169
 20
90.74285976627714
 10
4.155724743120504
 20
90.89588313856427
 10
4.18204786811321
 20
91.04890651085142
 10
4.2082411466636644
 20
91.20192988313856
 10
4.234285896300794
 20
91.35495325542571
 10
4.260163540492412
 20
91.50797662771285
 10
4.285855621895048
 20
91.661
 10
0.0
 20
91.661
 10
0.0
 20
0.0
  0
ENDSEC
  0
SECTION
  2
OBJECTS
  0
DICTIONARY
  5
A
330
0
100
AcDbDictionary
281
1
  3
ACAD_COLOR
350
B
  3
ACAD_GROUP
350
C
  3
ACAD_LAYOUT
350
D
  3
ACAD_MATERIAL
350
E
  3
ACAD_MLEADERSTYLE
350
F
  3
ACAD_MLINESTYLE
350
10
  3
ACAD_PLOTSETTINGS
350
11
  3
ACAD_PLOTSTYLENAME
350
12
  3
ACAD_SCALELIST
350
14
  3
ACAD_TABLESTYLE
350
15
  3
ACAD_VISUALSTYLE
350
16
  3
EZDXF_META
350
2D
  0
DICTIONARY
  5
B
330
A
100
AcDbDictionary
281
1
  0
DICTIONARY
  5
C
330
A
100
AcDbDictionary
281
1
  0
DICTIONARY
  5
D
330
A
100
AcDbDictionary
281
1
  3
Model
350
1A
  3
Layout1
350
1E
  0
DICTIONARY
  5
E
330
A
100
AcDbDictionary
281
1
  3
ByBlock
350
1F
  3
ByLayer
350
20
  3
Global
350
21
  0
DICTIONARY
  5
F
330
A
100
AcDbDictionary
281
1
  3
Standard
350
2C
  0
DICTIONARY
  5
10
330
A
100
AcDbDictionary
281
1
  3
Standard
350
22
  0
DICTIONARY
  5
11
330
A
100
AcDbDictionary
281
1
  0
ACDBDICTIONARYWDFLT
  5
12
330
A
100
AcDbDictionary
281
1
  3
Normal
350
13
100
AcDbDictionaryWithDefault
340
13
  0
ACDBPLACEHOLDER
  5
13
330
12
  0
DICTIONARY
  5
14
330
A
100
AcDbDictionary
281
1
  0
DICTIONARY
  5
15
330
A
100
AcDbDictionary
281
1
  0
DICTIONARY
  5
16
330
A
100
AcDbDictionary
281
1
  0
LAYOUT
  5
1A
330
D
100
AcDbPlotSettings
  1

  4
A3
  6

 40
7.5
 41
20.0
 42
7.5
 43
20.0
 44
420.0
 45
297.0
 46
0.0
 47
0.0
 48
0.0
 49
0.0
140
0.0
141
0.0
142
1.0
143
1.0
 70
1024
 72
1
 73
0
 74
5
  7

 75
16
 76
0
 77
2
 78
300
147
1.0
148
0.0
149
0.0
100
AcDbLayout
  1
Model
 70
1
 71
0
 10
0.0
 20
0.0
 11
420.0
 21
297.0
 12
0.0
 22
0.0
 32
0.0
 14
1e+20
 24
1e+20
 34
1e+20
 15
-1e+20
 25
-1e+20
 35
-1e+20
146
0.0
 13
0.0
 23
0.0
 33
0.0
 16
1.0
 26
0.0
 36
0.0
 17
0.0
 27
1.0
 37
0.0
 76
1
330
17
  0
LAYOUT
  5
1E
330
D
100
AcDbPlotSettings
  1

  4
A3
  6

 40
7.5
 41
20.0
 42
7.5
 43
20.0
 44
420.0
 45
297.0
 46
0.0
 47
0.0
 48
0.0
 49
0.0
140
0.0
141
0.0
142
1.0
143
1.0
 70
0
 72
1
 73
0
 74
5
  7

 75
16
 76
0
 77
2
 78
300
147
1.0
148
0.0
149
0.0
100
AcDbLayout
  1
Layout1
 70
1
 71
1
 10
0.0
 20
0.0
 11
420.0
 21
297.0
 12
0.0
 22
0.0
 32
0.0
 14
1e+20
 24
1e+20
 34
1e+20
 15
-1e+20
 25
-1e+20
 35
-1e+20
146
0.0
 13
0.0
 23
0.0
 33
0.0
 16
1.0
 26
0.0
 36
0.0
 17
0.0
 27
1.0
 37
0.0
 76
1
330
1B
  0
MATERIAL
  5
1F
102
{ACAD_REACTORS
330
E
102
}
330
E
100
AcDbMaterial
  1
ByBlock
  2

 70
0
 40
1.0
 71
1
 41
1.0
 91
-1023410177
 42
1.0
 72
1
  3

 73
1
 74
1
 75
1
 44
0.5
 73
0
 45
1.0
 46
1.0
 77
1
  4

 78
1
 79
1
170
1
 48
1.0
171
1
  6

172
1
173
1
174
1
140
1.0
141
1.0
175
1
  7

176
1
177
1
178
1
143
1.0
179
1
  8

270
1
271
1
272
1
145
1.0
146
1.0
273
1
  9

274
1
275
1
276
1
 42
1.0
 72
1
  3

 73
1
 74
1
 75
1
 94
63
  0
MATERIAL
  5
20
102
{ACAD_REACTORS
330
E
102
}
330
E
100
AcDbMaterial
  1
ByLayer
  2

 70
0
 40
1.0
 71
1
 41
1.0
 91
-1023410177
 42
1.0
 72
1
  3

 73
1
 74
1
 75
1
 44
0.5
 73
0
 45
1.0
 46
1.0
 77
1
  4

 78
1
 79
1
170
1
 48
1.0
171
1
  6

172
1
173
1
174
1
140
1.0
141
1.0
175
1
  7

176
1
177
1
178
1
143
1.0
179
1
  8

270
1
271
1
272
1
145
1.0
146
1.0
273
1
  9

274
1
275
1
276
1
 42
1.0
 72
1
  3

 73
1
 74
1
 75
1
 94
63
  0
MATERIAL
  5
21
102
{ACAD_REACTORS
330
E
102
}
330
E
100
AcDbMaterial
  1
Global
  2

 70
0
 40
1.0
 71
1
 41
1.0
 91
-1023410177
 42
1.0
 72
1
  3

 73
1
 74
1
 75
1
 44
0.5
 73
0
 45
1.0
 46
1.0
 77
1
  4

 78
1
 79
1
170
1
 48
1.0
171
1
  6

172
1
173
1
174
1
140
1.0
141
1.0
175
1
  7

176
1
177
1
178
1
143
1.0
179
1
  8

270
1
271
1
272
1
145
1.0
146
1.0
273
1
  9

274
1
275
1
276
1
 42
1.0
 72
1
  3

 73
1
 74
1
 75
1
 94
63
  0
MLINESTYLE
  5
22
102
{ACAD_REACTORS
330
10
102
}
330
10
100
AcDbMlineStyle
  2
Standard
 70
0
  3

 62
256
 51
90.0
 52
90.0
 71
2
 49
0.5
 62
256
  6
BYLAYER
 49
-0.5
 62
256
  6
BYLAYER
  0
MLEADERSTYLE
  5
2C
102
{ACAD_REACTORS
330
F
102
}
330
F
100
AcDbMLeaderStyle
179
2
170
2
171
1
172
0
 90
2
 40
0.0
 41
0.0
173
1
 91
-1056964608
 92
-2
290
1
 42
2.0
291
1
 43
8.0
  3
Standard
 44
4.0
300

342
29
174
1
175
1
176
0
178
1
 93
-1056964608
 45
4.0
292
0
297
0
 46
4.0
 94
-1056964608
 47
1.0
 49
1.0
140
1.0
294
1
141
0.0
177
0
142
1.0
295
0
296
0
143
3.75
271
0
272
9
273
9
  0
DICTIONARY
  5
2D
330
A
100
AcDbDictionary
280
1
281
1
  3
CREATED_BY_EZDXF
350
2E
  3
WRITTEN_BY_EZDXF
350
32
  0
DICTIONARYVAR
  5
2E
330
2D
100
DictionaryVariables
280
0
  1
1.4.3 @ 2026-05-08T22:22:51.928877+00:00
  0
DICTIONARYVAR
  5
32
330
2D
100
DictionaryVariables
280
0
  1
1.4.3 @ 2026-05-08T22:22:51.933835+00:00
  0
ENDSEC
  0
EOF
