  0
SECTION
  2
HEADER
  9
$ACADVER
  1
AC1024
  9
$ACADMAINTVER
 70
6
  9
$DWGCODEPAGE
  3
ANSI_1252
  9
$LASTSAVEDBY
  1
ezdxf
  9
$INSBASE
 10
0.0
 20
0.0
 30
0.0
  9
$EXTMIN
 10
1e+20
 20
1e+20
 30
1e+20
  9
$EXTMAX
 10
-1e+20
 20
-1e+20
 30
-1e+20
  9
$LIMMIN
 10
0.0
 20
0.0
  9
$LIMMAX
 10
420.0
 20
297.0
  9
$ORTHOMODE
 70
0
  9
$REGENMODE
 70
1
  9
$FILLMODE
 70
1
  9
$QTEXTMODE
 70
0
  9
$MIRRTEXT
 70
1
  9
$LTSCALE
 40
1.0
  9
$ATTMODE
 70
1
  9
$TEXTSIZE
 40
2.5
  9
$TRACEWID
 40
1.0
  9
$TEXTSTYLE
  7
Standard
  9
$CLAYER
  8
0
  9
$CELTYPE
  6
ByLayer
  9
$CECOLOR
 62
256
  9
$CELTSCALE
 40
1.0
  9
$DISPSILH
 70
0
  9
$DIMSCALE
 40
1.0
  9
$DIMASZ
 40
2.5
  9
$DIMEXO
 40
0.625
  9
$DIMDLI
 40
3.75
  9
$DIMRND
 40
0.0
  9
$DIMDLE
 40
0.0
  9
$DIMEXE
 40
1.25
  9
$DIMTP
 40
0.0
  9
$DIMTM
 40
0.0
  9
$DIMTXT
 40
2.5
  9
$DIMCEN
 40
2.5
  9
$DIMTSZ
 40
0.0
  9
$DIMTOL
 70
0
  9
$DIMLIM
 70
0
  9
$DIMTIH
 70
0
  9
$DIMTOH
 70
0
  9
$DIMSE1
 70
0
  9
$DIMSE2
 70
0
  9
$DIMTAD
 70
1
  9
$DIMZIN
 70
8
  9
$DIMBLK
  1

  9
$DIMASO
 70
1
  9
$DIMSHO
 70
1
  9
$DIMPOST
  1

  9
$DIMAPOST
  1

  9
$DIMALT
 70
0
  9
$DIMALTD
 70
3
  9
$DIMALTF
 40
0.03937007874
  9
$DIMLFAC
 40
1.0
  9
$DIMTOFL
 70
1
  9
$DIMTVP
 40
0.0
  9
$DIMTIX
 70
0
  9
$DIMSOXD
 70
0
  9
$DIMSAH
 70
0
  9
$DIMBLK1
  1

  9
$DIMBLK2
  1

  9
$DIMSTYLE
  2
ISO-25
  9
$DIMCLRD
 70
0
  9
$DIMCLRE
 70
0
  9
$DIMCLRT
 70
0
  9
$DIMTFAC
 40
1.0
  9
$DIMGAP
 40
0.625
  9
$DIMJUST
 70
0
  9
$DIMSD1
 70
0
  9
$DIMSD2
 70
0
  9
$DIMTOLJ
 70
0
  9
$DIMTZIN
 70
8
  9
$DIMALTZ
 70
0
  9
$DIMALTTZ
 70
0
  9
$DIMUPT
 70
0
  9
$DIMDEC
 70
2
  9
$DIMTDEC
 70
2
  9
$DIMALTU
 70
2
  9
$DIMALTTD
 70
3
  9
$DIMTXSTY
  7
Standard
  9
$DIMAUNIT
 70
0
  9
$DIMADEC
 70
0
  9
$DIMALTRND
 40
0.0
  9
$DIMAZIN
 70
0
  9
$DIMDSEP
 70
44
  9
$DIMATFIT
 70
3
  9
$DIMFRAC
 70
0
  9
$DIMLDRBLK
  1

  9
$DIMLUNIT
 70
2
  9
$DIMLWD
 70
-2
  9
$DIMLWE
 70
-2
  9
$DIMTMOVE
 70
0
  9
$DIMFXL
 40
1.0
  9
$DIMFXLON
 70
0
  9
$DIMJOGANG
 40
0.785398163397
  9
$DIMTFILL
 70
0
  9
$DIMTFILLCLR
 70
0
  9
$DIMARCSYM
 70
0
  9
$DIMLTYPE
  6

  9
$DIMLTEX1
  6

  9
$DIMLTEX2
  6

  9
$DIMTXTDIRECTION
 70
0
  9
$LUNITS
 70
2
  9
$LUPREC
 70
4
  9
$SKETCHINC
 40
1.0
  9
$FILLETRAD
 40
10.0
  9
$AUNITS
 70
0
  9
$AUPREC
 70
2
  9
$MENU
  1
.
  9
$ELEVATION
 40
0.0
  9
$PELEVATION
 40
0.0
  9
$THICKNESS
 40
0.0
  9
$LIMCHECK
 70
0
  9
$CHAMFERA
 40
0.0
  9
$CHAMFERB
 40
0.0
  9
$CHAMFERC
 40
0.0
  9
$CHAMFERD
 40
0.0
  9
$SKPOLY
 70
0
  9
$TDCREATE
 40
2461213.449340278
  9
$TDUCREATE
 40
2458532.153996898
  9
$TDUPDATE
 40
2461213.449340278
  9
$TDUUPDATE
 40
2458532.1544311
  9
$TDINDWG
 40
0.0
  9
$TDUSRTIMER
 40
0.0
  9
$USRTIMER
 70
1
  9
$ANGBASE
 50
0.0
  9
$ANGDIR
 70
0
  9
$PDMODE
 70
0
  9
$PDSIZE
 40
0.0
  9
$PLINEWID
 40
0.0
  9
$SPLFRAME
 70
0
  9
$SPLINETYPE
 70
6
  9
$SPLINESEGS
 70
8
  9
$HANDSEED
  5
33
  9
$SURFTAB1
 70
6
  9
$SURFTAB2
 70
6
  9
$SURFTYPE
 70
6
  9
$SURFU
 70
6
  9
$SURFV
 70
6
  9
$UCSBASE
  2

  9
$UCSNAME
  2

  9
$UCSORG
 10
0.0
 20
0.0
 30
0.0
  9
$UCSXDIR
 10
1.0
 20
0.0
 30
0.0
  9
$UCSYDIR
 10
0.0
 20
1.0
 30
0.0
  9
$UCSORTHOREF
  2

  9
$UCSORTHOVIEW
 70
0
  9
$UCSORGTOP
 10
0.0
 20
0.0
 30
0.0
  9
$UCSORGBOTTOM
 10
0.0
 20
0.0
 30
0.0
  9
$UCSORGLEFT
 10
0.0
 20
0.0
 30
0.0
  9
$UCSORGRIGHT
 10
0.0
 20
0.0
 30
0.0
  9
$UCSORGFRONT
 10
0.0
 20
0.0
 30
0.0
  9
$UCSORGBACK
 10
0.0
 20
0.0
 30
0.0
  9
$PUCSBASE
  2

  9
$PUCSNAME
  2

  9
$PUCSORG
 10
0.0
 20
0.0
 30
0.0
  9
$PUCSXDIR
 10
1.0
 20
0.0
 30
0.0
  9
$PUCSYDIR
 10
0.0
 20
1.0
 30
0.0
  9
$PUCSORTHOREF
  2

  9
$PUCSORTHOVIEW
 70
0
  9
$PUCSORGTOP
 10
0.0
 20
0.0
 30
0.0
  9
$PUCSORGBOTTOM
 10
0.0
 20
0.0
 30
0.0
  9
$PUCSORGLEFT
 10
0.0
 20
0.0
 30
0.0
  9
$PUCSORGRIGHT
 10
0.0
 20
0.0
 30
0.0
  9
$PUCSORGFRONT
 10
0.0
 20
0.0
 30
0.0
  9
$PUCSORGBACK
 10
0.0
 20
0.0
 30
0.0
  9
$USERI1
 70
0
  9
$USERI2
 70
0
  9
$USERI3
 70
0
  9
$USERI4
 70
0
  9
$USERI5
 70
0
  9
$USERR1
 40
0.0
  9
$USERR2
 40
0.0
  9
$USERR3
 40
0.0
  9
$USERR4
 40
0.0
  9
$USERR5
 40
0.0
  9
$WORLDVIEW
 70
1
  9
$SHADEDGE
 70
3
  9
$SHADEDIF
 70
70
  9
$TILEMODE
 70
1
  9
$MAXACTVP
 70
64
  9
$PINSBASE
 10
0.0
 20
0.0
 30
0.0
  9
$PLIMCHECK
 70
0
  9
$PEXTMIN
 10
1e+20
 20
1e+20
 30
1e+20
  9
$PEXTMAX
 10
-1e+20
 20
-1e+20
 30
-1e+20
  9
$PLIMMIN
 10
0.0
 20
0.0
  9
$PLIMMAX
 10
420.0
 20
297.0
  9
$UNITMODE
 70
0
  9
$VISRETAIN
 70
1
  9
$PLINEGEN
 70
0
  9
$PSLTSCALE
 70
1
  9
$TREEDEPTH
 70
3020
  9
$CMLSTYLE
  2
Standard
  9
$CMLJUST
 70
0
  9
$CMLSCALE
 40
20.0
  9
$PROXYGRAPHICS
 70
1
  9
$MEASUREMENT
 70
1
  9
$CELWEIGHT
370
-1
  9
$ENDCAPS
280
0
  9
$JOINSTYLE
280
0
  9
$LWDISPLAY
290
0
  9
$INSUNITS
 70
1
  9
$HYPERLINKBASE
  1

  9
$STYLESHEET
  1

  9
$XEDIT
290
1
  9
$CEPSNTYPE
380
0
  9
$PSTYLEMODE
290
1
  9
$FINGERPRINTGUID
  2
{09C3D13F-4425-419E-82B8-820C57DA4F1D}
  9
$VERSIONGUID
  2
{295EE5D1-288D-46AC-BF90-98526DF991DA}
  9
$EXTNAMES
290
1
  9
$PSVPSCALE
 40
0.0
  9
$OLESTARTUP
290
0
  9
$SORTENTS
280
127
  9
$INDEXCTL
280
0
  9
$HIDETEXT
280
1
  9
$XCLIPFRAME
280
1
  9
$HALOGAP
280
0
  9
$OBSCOLOR
 70
257
  9
$OBSLTYPE
280
0
  9
$INTERSECTIONDISPLAY
280
0
  9
$INTERSECTIONCOLOR
 70
257
  9
$DIMASSOC
280
2
  9
$PROJECTNAME
  1

  9
$CAMERADISPLAY
290
0
  9
$LENSLENGTH
 40
50.0
  9
$CAMERAHEIGHT
 40
0.0
  9
$STEPSPERSEC
 40
24.0
  9
$STEPSIZE
 40
100.0
  9
$3DDWFPREC
 40
2.0
  9
$PSOLWIDTH
 40
0.005
  9
$PSOLHEIGHT
 40
0.08
  9
$LOFTANG1
 40
1.570796326795
  9
$LOFTANG2
 40
1.570796326795
  9
$LOFTMAG1
 40
0.0
  9
$LOFTMAG2
 40
0.0
  9
$LOFTPARAM
 70
7
  9
$LOFTNORMALS
280
1
  9
$LATITUDE
 40
37.795
  9
$LONGITUDE
 40
-122.394
  9
$NORTHDIRECTION
 40
0.0
  9
$TIMEZONE
 70
-8000
  9
$LIGHTGLYPHDISPLAY
280
1
  9
$TILEMODELIGHTSYNCH
280
1
  9
$CMATERIAL
347
20
  9
$SOLIDHIST
280
0
  9
$SHOWHIST
280
1
  9
$DWFFRAME
280
2
  9
$DGNFRAME
280
2
  9
$REALWORLDSCALE
290
1
  9
$INTERFERECOLOR
 62
256
  9
$CSHADOW
280
0
  9
$SHADOWPLANELOCATION
 40
0.0
  0
ENDSEC
  0
SECTION
  2
CLASSES
  0
CLASS
  1
ACDBDICTIONARYWDFLT
  2
AcDbDictionaryWithDefault
  3
ObjectDBX Classes
 90
0
 91
0
280
0
281
0
  0
CLASS
  1
SUN
  2
AcDbSun
  3
SCENEOE
 90
1153
 91
0
280
0
281
0
  0
CLASS
  1
VISUALSTYLE
  2
AcDbVisualStyle
  3
ObjectDBX Classes
 90
4095
 91
0
280
0
281
0
  0
CLASS
  1
MATERIAL
  2
AcDbMaterial
  3
ObjectDBX Classes
 90
1153
 91
0
280
0
281
0
  0
CLASS
  1
SCALE
  2
AcDbScale
  3
ObjectDBX Classes
 90
1153
 91
0
280
0
281
0
  0
CLASS
  1
TABLESTYLE
  2
AcDbTableStyle
  3
ObjectDBX Classes
 90
4095
 91
0
280
0
281
0
  0
CLASS
  1
MLEADERSTYLE
  2
AcDbMLeaderStyle
  3
ACDB_MLEADERSTYLE_CLASS
 90
4095
 91
0
280
0
281
0
  0
CLASS
  1
DICTIONARYVAR
  2
AcDbDictionaryVar
  3
ObjectDBX Classes
 90
0
 91
0
280
0
281
0
  0
CLASS
  1
CELLSTYLEMAP
  2
AcDbCellStyleMap
  3
ObjectDBX Classes
 90
1152
 91
0
280
0
281
0
  0
CLASS
  1
MENTALRAYRENDERSETTINGS
  2
AcDbMentalRayRenderSettings
  3
SCENEOE
 90
1024
 91
0
280
0
281
0
  0
CLASS
  1
ACDBDETAILVIEWSTYLE
  2
AcDbDetailViewStyle
  3
ObjectDBX Classes
 90
1025
 91
0
280
0
281
0
  0
CLASS
  1
ACDBSECTIONVIEWSTYLE
  2
AcDbSectionViewStyle
  3
ObjectDBX Classes
 90
1025
 91
0
280
0
281
0
  0
CLASS
  1
RASTERVARIABLES
  2
AcDbRasterVariables
  3
ISM
 90
0
 91
0
280
0
281
0
  0
CLASS
  1
LAYOUT
  2
AcDbLayout
  3
ObjectDBX Classes
 90
0
 91
0
280
0
281
0
  0
CLASS
  1
ACDBPLACEHOLDER
  2
AcDbPlaceHolder
  3
ObjectDBX Classes
 90
0
 91
0
280
0
281
0
  0
ENDSEC
  0
SECTION
  2
TABLES
  0
TABLE
  2
VPORT
  5
8
330
0
100
AcDbSymbolTable
 70
1
  0
VPORT
  5
23
330
8
100
AcDbSymbolTableRecord
100
AcDbViewportTableRecord
  2
*Active
 70
0
 10
0.0
 20
0.0
 11
1.0
 21
1.0
 12
0.0
 22
0.0
 13
0.0
 23
0.0
 14
0.5
 24
0.5
 15
0.5
 25
0.5
 16
0.0
 26
0.0
 36
1.0
 17
0.0
 27
0.0
 37
0.0
 40
1000.0
 41
1.34
 42
50.0
 43
0.0
 44
0.0
 50
0.0
 51
0.0
 71
0
 72
1000
 73
1
 74
3
 75
0
 76
0
 77
0
 78
0
281
0
 65
0
146
0.0
  0
ENDTAB
  0
TABLE
  2
LTYPE
  5
2
330
0
100
AcDbSymbolTable
 70
3
  0
LTYPE
  5
24
330
2
100
AcDbSymbolTableRecord
100
AcDbLinetypeTableRecord
  2
ByBlock
 70
0
  3

 72
65
 73
0
 40
0.0
  0
LTYPE
  5
25
330
2
100
AcDbSymbolTableRecord
100
AcDbLinetypeTableRecord
  2
ByLayer
 70
0
  3

 72
65
 73
0
 40
0.0
  0
LTYPE
  5
26
330
2
100
AcDbSymbolTableRecord
100
AcDbLinetypeTableRecord
  2
Continuous
 70
0
  3

 72
65
 73
0
 40
0.0
  0
ENDTAB
  0
TABLE
  2
LAYER
  5
1
330
0
100
AcDbSymbolTable
 70
2
  0
LAYER
  5
27
330
1
100
AcDbSymbolTableRecord
100
AcDbLayerTableRecord
  2
0
 70
0
 62
7
  6
Continuous
370
-3
390
13
347
21
  0
LAYER
  5
28
330
1
100
AcDbSymbolTableRecord
100
AcDbLayerTableRecord
  2
Defpoints
 70
0
 62
7
  6
Continuous
290
0
370
-3
390
13
347
21
  0
ENDTAB
  0
TABLE
  2
STYLE
  5
5
330
0
100
AcDbSymbolTable
 70
1
  0
STYLE
  5
29
330
5
100
AcDbSymbolTableRecord
100
AcDbTextStyleTableRecord
  2
Standard
 70
0
 40
0.0
 41
1.0
 50
0.0
 71
0
 42
2.5
  3
txt
  4

  0
ENDTAB
  0
TABLE
  2
VIEW
  5
7
330
0
100
AcDbSymbolTable
 70
0
  0
ENDTAB
  0
TABLE
  2
UCS
  5
6
330
0
100
AcDbSymbolTable
 70
0
  0
ENDTAB
  0
TABLE
  2
APPID
  5
3
330
0
100
AcDbSymbolTable
 70
3
  0
APPID
  5
2A
330
3
100
AcDbSymbolTableRecord
100
AcDbRegAppTableRecord
  2
ACAD
 70
0
  0
APPID
  5
30
330
3
100
AcDbSymbolTableRecord
100
AcDbRegAppTableRecord
  2
HATCHBACKGROUNDCOLOR
 70
0
  0
APPID
  5
31
330
3
100
AcDbSymbolTableRecord
100
AcDbRegAppTableRecord
  2
EZDXF
 70
0
  0
ENDTAB
  0
TABLE
  2
DIMSTYLE
  5
4
330
0
100
AcDbSymbolTable
 70
1
100
AcDbDimStyleTable
  0
DIMSTYLE
105
2B
330
4
100
AcDbSymbolTableRecord
100
AcDbDimStyleTableRecord
  2
Standard
 70
0
 40
1.0
 41
2.5
 42
0.625
 43
3.75
 44
1.25
 45
0.0
 46
0.0
 47
0.0
 48
0.0
 49
2.5
140
2.5
141
2.5
142
0.0
143
0.03937007874
144
1.0
145
0.0
146
1.0
147
0.625
148
0.0
 69
0
 70
0
 71
0
 72
0
 73
0
 74
0
 75
0
 76
0
 77
1
 78
8
 79
3
170
0
171
3
172
1
173
0
174
0
175
0
176
0
177
0
178
0
179
2
271
2
272
2
273
2
274
3
275
0
276
0
277
2
278
44
279
0
280
0
281
0
282
0
283
0
284
8
285
0
286
0
288
0
289
3
290
0
371
-2
372
-2
  0
ENDTAB
  0
TABLE
  2
BLOCK_RECORD
  5
9
330
0
100
AcDbSymbolTable
 70
2
  0
BLOCK_RECORD
  5
17
330
9
100
AcDbSymbolTableRecord
100
AcDbBlockTableRecord
  2
*Model_Space
340
1A
 70
0
280
1
281
0
  0
BLOCK_RECORD
  5
1B
330
9
100
AcDbSymbolTableRecord
100
AcDbBlockTableRecord
  2
*Paper_Space
340
1E
 70
0
280
1
281
0
  0
ENDTAB
  0
ENDSEC
  0
SECTION
  2
BLOCKS
  0
BLOCK
  5
18
330
17
100
AcDbEntity
  8
0
100
AcDbBlockBegin
  2
*Model_Space
 70
0
 10
0.0
 20
0.0
 30
0.0
  3
*Model_Space
  1

  0
ENDBLK
  5
19
330
17
100
AcDbEntity
  8
0
100
AcDbBlockEnd
  0
BLOCK
  5
1C
330
1B
100
AcDbEntity
  8
0
100
AcDbBlockBegin
  2
*Paper_Space
 70
0
 10
0.0
 20
0.0
 30
0.0
  3
*Paper_Space
  1

  0
ENDBLK
  5
1D
330
1B
100
AcDbEntity
  8
0
100
AcDbBlockEnd
  0
ENDSEC
  0
SECTION
  2
ENTITIES
  0
LWPOLYLINE
  5
2F
330
17
100
AcDbEntity
  8
SHELF
100
AcDbPolyline
 90
666
 70
1
 10
0.0
 20
0.0
 10
4.0
 20
0.0
 10
3.9762223485972226
 20
0.13624874791318864
 10
3.952458142425351
 20
0.2724974958263773
 10
3.9287208191125957
 20
0.4087462437395659
 10
3.905023801086077
 20
0.5449949916527546
 10
3.8813804879820215
 20
0.6812437395659432
 10
3.857804249068852
 20
0.8174924874791318
 10
3.834308415687445
 20
0.9537412353923205
 10
3.810906273712834
 20
1.0899899833055091
 10
3.7876110560416247
 20
1.2262387312186978
 10
3.7644359351093657
 20
1.3624874791318864
 10
3.741394015442106
 20
1.498736227045075
 10
3.7184983262463547
 20
1.6349849749582637
 10
3.6957618140416315
 20
1.7712337228714523
 10
3.6735593037627567
 20
1.905296834454721
 10
3.645425611344235
 20
1.9077671914499672
 10
3.6179689000313715
 20
1.9143805352839132
 10
3.5917958089856095
 20
1.9249907481891377
 10
3.5674846165675107
 20
1.939363404032583
 10
3.545572463631789
 20
1.9571809478168838
 10
3.5265434857302553
 20
1.978049711862866
 10
3.510818116434352
 20
2.001508613654966
 10
3.4987437981137917
 20
2.0270393431760296
 10
3.4905873054109393
 20
2.0540778146485863
 10
3.4865288510190484
 20
2.0820266296634107
 10
3.4866581039935647
 20
2.1102682763302134
 10
3.4909722085694552
 20
2.138178772823329
 10
3.499375847257583
 20
2.165141453876654
 10
3.5116833468260467
 20
2.1905605956236958
 10
3.5116833468260467
 20
2.3162287145242066
 10
3.5116833468260467
 20
2.4524774624373955
 10
3.5116833468260467
 20
2.5887262103505844
 10
3.5116833468260467
 20
2.724974958263773
 10
3.5116833468260467
 20
2.861223706176961
 10
3.5116833468260467
 20
2.923
 10
3.500382087069092
 20
2.99747245409015
 10
3.4799260504129808
 20
3.133721202003339
 10
3.4597640930257527
 20
3.2699699499165273
 10
3.439907615620119
 20
3.4062186978297158
 10
3.420367846173107
 20
3.5424674457429046
 10
3.401155833577123
 20
3.6787161936560935
 10
3.382282441392288
 20
3.814964941569282
 10
3.363758341703561
 20
3.9512136894824703
 10
3.3455940090861382
 20
4.08746243739566
 10
3.327799714682539
 20
4.223711185308848
 10
3.310385520394714
 20
4.3599599332220365
 10
3.2933612731944812
 20
4.496208681135225
 10
3.2767365995554867
 20
4.632457429048413
 10
3.260520900009853
 20
4.768706176961603
 10
3.244723343832585
 20
4.904954924874791
 10
3.229352863856744
 20
5.041203672787979
 10
3.214418151422315
 20
5.177452420701169
 10
3.1999276514616337
 20
5.313701168614357
 10
3.1858895577241424
 20
5.449949916527546
 10
3.1723118081431796
 20
5.586198664440734
 10
3.159202080347422
 20
5.722447412353922
 10
3.1465677873195217
 20
5.858696160267112
 10
3.1344160732043815
 20
5.9949449081803
 10
3.1227538092694545
 20
6.1311936560934885
 10
3.1115875900193375
 20
6.267442404006678
 10
3.1009237294668663
 20
6.403691151919866
 10
3.0907682575628153
 20
6.539939899833055
 10
3.0811269167862196
 20
6.676188647746243
 10
3.0720051588972557
 20
6.8124373956594315
 10
3.0634081418545036
 20
6.948686143572621
 10
3.055340726898348
 20
7.084934891485809
 10
3.0478074758021556
 20
7.221183639398998
 10
3.040812648292791
 20
7.357432387312187
 10
3.0343601996419265
 20
7.493681135225375
 10
3.0284537784295047
 20
7.629929883138564
 10
3.023096724480629
 20
7.766178631051752
 10
3.0182920669770334
 20
7.902427378964941
 10
3.0140425227442136
 20
8.03867612687813
 10
3.0103504947151793
 20
8.17492487479132
 10
3.0072180705717004
 20
8.311173622704507
 10
3.0046470215638132
 20
8.447422370617696
 10
3.002638801508255
 20
8.583671118530884
 10
3.0011945459663933
 20
8.719919866444073
 10
3.0003150716021167
 20
8.856168614357262
 10
3.000000875720046
 20
8.99241736227045
 10
3.0002521359843284
 20
9.128666110183639
 10
3.0010687103181795
 20
9.264914858096827
 10
3.0024501369842183
 20
9.401163606010016
 10
3.0043956348455625
 20
9.537412353923205
 10
3.006904103807525
 20
9.673661101836393
 10
3.0099741254396704
 20
9.809909849749582
 10
3.013603963777878
 20
9.946158597662771
 10
3.017791566305952
 20
10.082407345575959
 10
3.0225345651162296
 20
10.218656093489148
 10
3.0278302782485342
 20
10.354904841402337
 10
3.0336757112067025
 20
10.491153589315525
 10
3.040067558651846
 20
10.627402337228714
 10
3.047002206271375
 20
10.763651085141902
 10
3.0544757328227363
 20
10.899899833055091
 10
3.062483912350706
 20
11.03614858096828
 10
3.071022216576983
 20
11.172397328881468
 10
3.080085817460736
 20
11.308646076794657
 10
3.0896695899286475
 20
11.444894824707845
 10
3.0997681147729264
 20
11.581143572621034
 10
3.1103756817156283
 20
11.717392320534223
 10
3.121486292637575
 20
11.853641068447411
 10
3.1330936649700307
 20
11.9898898163606
 10
3.1451912352472173
 20
12.12613856427379
 10
3.1577721628176763
 20
12.262387312186977
 10
3.1708293337123563
 20
12.398636060100166
 10
3.1843553646672547
 20
12.534884808013356
 10
3.198342607298334
 20
12.671133555926543
 10
3.2127831524263537
 20
12.807382303839733
 10
3.2276688345491618
 20
12.94363105175292
 10
3.2429912364589386
 20
13.07987979966611
 10
3.2587416940017606
 20
13.216128547579299
 10
3.274911300976802
 20
13.352377295492486
 10
3.2914909141724094
 20
13.488626043405676
 10
3.308471158536185
 20
13.624874791318863
 10
3.3258424324761804
 20
13.761123539232052
 10
3.343594913290173
 20
13.897372287145242
 10
3.4809283529118593
 20
13.95
 10
3.4809283529118593
 20
14.03362103505843
 10
3.4809283529118593
 20
14.169869782971618
 10
3.4809283529118593
 20
14.306118530884808
 10
3.4809283529118593
 20
14.442367278797995
 10
3.4809283529118593
 20
14.578616026711185
 10
3.4809283529118593
 20
14.714864774624374
 10
3.4809283529118593
 20
14.851113522537561
 10
3.4809283529118593
 20
14.873
 10
3.4980910256745927
 20
14.98736227045075
 10
3.5187987064614523
 20
15.123611018363938
 10
3.5397784857156576
 20
15.259859766277128
 10
3.561018500281694
 20
15.396108514190317
 10
3.582506739852256
 20
15.532357262103504
 10
3.604231053759566
 20
15.668606010016694
 10
3.626179157846039
 20
15.804854757929881
 10
3.648338641410455
 20
15.94110350584307
 10
3.6706969742256557
 20
16.07735225375626
 10
3.693241513623858
 20
16.21360100166945
 10
3.7159595116455293
 20
16.34984974958264
 10
3.738838122247804
 20
16.486098497495824
 10
3.7618644085683712
 20
16.622347245409014
 10
3.785025350240699
 20
16.758595993322203
 10
3.8083078507564956
 20
16.894844741235392
 10
3.831698744871211
 20
17.03109348914858
 10
3.8551848060484186
 20
17.167342237061767
 10
3.878752753938841
 20
17.303590984974957
 10
3.902389261889817
 20
17.439839732888146
 10
3.926080964480942
 20
17.576088480801335
 10
3.9498144650816376
 20
17.712337228714524
 10
3.9735763434263616
 20
17.84858597662771
 10
3.9973531632031887
 20
17.9848347245409
 10
4.021131479651461
 20
18.12108347245409
 10
4.04489784716422
 20
18.257332220367278
 10
4.068638826891109
 20
18.393580968280467
 10
4.092340994337464
 20
18.529829716193653
 10
4.115990946955287
 20
18.666078464106842
 10
4.139575311721796
 20
18.80232721202003
 10
4.163080752701295
 20
18.93857595993322
 10
4.186493978586076
 20
19.07482470784641
 10
4.209801750212057
 20
19.2110734557596
 10
4.2329908880449745
 20
19.347322203672785
 10
4.25604827963283
 20
19.483570951585975
 10
4.278960887020414
 20
19.619819699499164
 10
4.301715754121703
 20
19.756068447412353
 10
4.324300014045969
 20
19.892317195325543
 10
4.3467008963734415
 20
20.02856594323873
 10
4.368905734376434
 20
20.164814691151918
 10
4.390901972181823
 20
20.301063439065107
 10
4.412677171870853
 20
20.437312186978296
 10
4.434219020512238
 20
20.573560934891486
 10
4.455515337124594
 20
20.709809682804675
 10
4.476554079564251
 20
20.84605843071786
 10
4.497323351334567
 20
20.98230717863105
 10
4.517811408312882
 20
21.11855592654424
 10
4.538006665391302
 20
21.25480467445743
 10
4.557897703027588
 20
21.391053422370618
 10
4.577473273702397
 20
21.527302170283804
 10
4.5967223082792845
 20
21.663550918196993
 10
4.615633922263802
 20
21.799799666110182
 10
4.634197421958222
 20
21.93604841402337
 10
4.65240231050835
 20
22.07229716193656
 10
4.670238293839047
 20
22.208545909849747
 10
4.6876952864750825
 20
22.344794657762936
 10
4.704763417244029
 20
22.481043405676125
 10
4.7214330348579825
 20
22.617292153589315
 10
4.737694713370953
 20
22.753540901502504
 10
4.753539257508821
 20
22.88978964941569
 10
4.768957707868875
 20
23.02603839732888
 10
4.783941345985955
 20
23.162287145242068
 10
4.798481699262371
 20
23.298535893155258
 10
4.812570545758796
 20
23.434784641068447
 10
4.826199918843406
 20
23.571033388981636
 10
4.839362111696669
 20
23.707282136894822
 10
4.852049681669221
 20
23.84353088480801
 10
4.864255454490355
 20
23.9797796327212
 10
4.875972528324763
 20
24.11602838063439
 10
4.887194277675228
 20
24.25227712854758
 10
4.897914357129049
 20
24.388525876460765
 10
4.908126704946102
 20
24.524774624373954
 10
4.917825546486487
 20
24.661023372287143
 10
4.927005397475841
 20
24.797272120200333
 10
4.9356610671064525
 20
24.933520868113522
 10
4.943787660972443
 20
25.06976961602671
 10
4.951380583837338
 20
25.206018363939897
 10
4.958435542232473
 20
25.342267111853086
 10
4.96494854688477
 20
25.478515859766276
 10
4.970915914972491
 20
25.614764607679465
 10
4.976334272207719
 20
25.751013355592654
 10
4.981200554744367
 20
25.88726210350584
 10
4.985512010910658
 20
26.02351085141903
 10
4.989266202765067
 20
26.15975959933222
 10
4.9924610074748745
 20
26.296008347245408
 10
4.995094618516542
 20
26.432257095158597
 10
4.997301679557774
 20
26.497999999999998
 10
4.997301679557774
 20
26.568505843071783
 10
4.997301679557774
 20
26.704754590984972
 10
4.997301679557774
 20
26.84100333889816
 10
4.997301679557774
 20
26.97725208681135
 10
4.997301679557774
 20
27.11350083472454
 10
4.997301679557774
 20
27.249749582637726
 10
4.997301679557774
 20
27.385998330550915
 10
4.997301679557774
 20
27.421
 10
4.99584877691014
 20
27.522247078464105
 10
4.993402905567828
 20
27.658495826377294
 10
4.9903953079548415
 20
27.794744574290483
 10
4.986827684737227
 20
27.930993322203673
 10
4.982702053251226
 20
28.06724207011686
 10
4.9780207463625645
 20
28.203490818030048
 10
4.972786411147312
 20
28.339739565943237
 10
4.967002007395082
 20
28.475988313856426
 10
4.960670805935392
 20
28.612237061769616
 10
4.953796386788157
 20
28.7484858096828
 10
4.9463826371393385
 20
28.88473455759599
 10
4.938433749142917
 20
29.02098330550918
 10
4.929954217550402
 20
29.15723205342237
 10
4.92094883716925
 20
29.29348080133556
 10
4.911422700151604
 20
29.429729549248748
 10
4.901381193114913
 20
29.565978297161934
 10
4.89082999409602
 20
29.702227045075123
 10
4.879775069340487
 20
29.838475792988312
 10
4.868222669928936
 20
29.9747245409015
 10
4.856179328242344
 20
30.11097328881469
 10
4.843651854268251
 20
30.247222036727877
 10
4.83064733175002
 20
30.383470784641066
 10
4.817173114181276
 20
30.519719532554255
 10
4.803236820647834
 20
30.655968280467444
 10
4.78884633151943
 20
30.792217028380634
 10
4.77400978399372
 20
30.92846577629382
 10
4.7587355674950365
 20
31.06471452420701
 10
4.743032318930544
 20
31.200963272120198
 10
4.726908917806434
 20
31.337212020033387
 10
4.710374481206963
 20
31.473460767946577
 10
4.693438358639116
 20
31.609709515859763
 10
4.676110126745878
 20
31.745958263772952
 10
4.658399583891065
 20
31.88220701168614
 10
4.6403167446187545
 20
32.01845575959933
 10
4.6218718339905145
 20
32.15470450751252
 10
4.6030752818035605
 20
32.290953255425705
 10
4.583937716693165
 20
32.4272020033389
 10
4.564469960122622
 20
32.563450751252084
 10
4.544683020264181
 20
32.69969949916528
 10
4.524588085774399
 20
32.83594824707846
 10
4.504196519467448
 20
32.97219699499165
 10
4.4835198518899215
 20
33.10844574290484
 10
4.4625697748008335
 20
33.24469449081803
 10
4.441358134560407
 20
33.38094323873122
 10
4.419896925431501
 20
33.517191986644406
 10
4.398198282797346
 20
33.65344073455759
 10
4.376274476299539
 20
33.789689482470784
 10
4.354137902900066
 20
33.92593823038397
 10
4.33180107987138
 20
34.06218697829716
 10
4.309276637718409
 20
34.19843572621035
 10
4.286577313036573
 20
34.334684474123534
 10
4.263715941309765
 20
34.47093322203673
 10
4.240705449652464
 20
34.60718196994991
 10
4.217558849500002
 20
34.743430717863106
 10
4.194289229251169
 20
34.87967946577629
 10
4.1709097468672764
 20
35.01592821368948
 10
4.147433622431912
 20
35.15217696160267
 10
4.123874130675559
 20
35.288425709515856
 10
4.100244593469301
 20
35.42467445742905
 10
4.07655837229189
 20
35.560923205342235
 10
4.052828860674398
 20
35.69717195325542
 10
4.029069476626775
 20
35.83342070116861
 10
4.005293655050527
 20
35.9696694490818
 10
3.9815148401418723
 20
36.10591819699499
 10
3.9577464777896294
 20
36.24216694490818
 10
3.9340020079721505
 20
36.37841569282136
 10
3.910294857157588
 20
36.514664440734556
 10
3.8866384307118294
 20
36.65091318864774
 10
3.863046105318316
 20
36.787161936560935
 10
3.839531221414138
 20
36.92341068447412
 10
3.816107075646569
 20
37.059659432387306
 10
3.7927869133544068
 20
37.1959081803005
 10
3.7695839210783015
 20
37.332156928213685
 10
3.746511219104339
 20
37.46840567612688
 10
3.7235818540450865
 20
37.60465442404006
 10
3.700808791462309
 20
37.740903171953256
 10
3.6782049085354864
 20
37.87715191986644
 10
3.6557829867803457
 20
38.01340066777963
 10
3.633555704821458
 20
38.14964941569282
 10
3.611535631223035
 20
38.28589816360601
 10
3.5897352173819335
 20
38.4221469115192
 10
3.5681667904869547
 20
38.558395659432385
 10
3.546842546548329
 20
38.69464440734557
 10
3.5257745435014187
 20
38.830893155258764
 10
3.5070424279815753
 20
38.95359728024952
 10
3.4801470443725733
 20
38.958099642364886
 10
3.454173205847206
 20
38.96640582297643
 10
3.4296559539980653
 20
38.97834472099337
 10
3.4071003258246884
 20
38.99367040407106
 10
3.3869709503501597
 20
39.012067174632726
 10
3.369682477611717
 20
39.03315607300285
 10
3.3555910371809836
 20
39.05650268369221
 10
3.344986902161898
 20
39.08162608403114
 10
3.338088509782486
 20
39.10800875081585
 10
3.3350379617517962
 20
39.135107220898234
 10
3.335898097071273
 20
39.162363286119124
 10
3.340651197598458
 20
39.189215491977706
 10
3.349199353027436
 20
39.215110703173124
 10
3.3613664777677017
 20
39.239515497776814
 10
3.3613664777677004
 20
39.23963939899833
 10
3.3613664777677004
 20
39.375888146911514
 10
3.3613664777677004
 20
39.51213689482471
 10
3.3613664777677004
 20
39.64838564273789
 10
3.3613664777677004
 20
39.784634390651085
 10
3.3613664777677004
 20
39.92088313856427
 10
3.3613664777677004
 20
39.969
 10
3.349605940469413
 20
40.05713188647746
 10
3.331728393166185
 20
40.19338063439065
 10
3.314228724481393
 20
40.329629382303835
 10
3.297116829718915
 20
40.46587813021703
 10
3.280402384913298
 20
40.602126878130214
 10
3.2640948413583644
 20
40.7383756260434
 10
3.248203420262924
 20
40.87462437395659
 10
3.232737107536579
 20
41.01087312186978
 10
3.217704648708583
 20
41.14712186978297
 10
3.203114543982616
 20
41.28337061769616
 10
3.188975043430297
 20
41.41961936560935
 10
3.1752941423261207
 20
41.555868113522536
 10
3.16207957662648
 20
41.69211686143572
 10
3.1493388185953126
 20
41.828365609348914
 10
3.137079072578869
 20
41.9646143572621
 10
3.1253072709319536
 20
42.10086310517529
 10
3.1140300700979937
 20
42.23711185308848
 10
3.103253846845097
 20
42.373360601001664
 10
3.0929846946602733
 20
42.50960934891486
 10
3.083228420303828
 20
42.64585809682804
 10
3.0739905405258927
 20
42.782106844741236
 10
3.0652762789469423
 20
42.91835559265442
 10
3.0570905631040612
 20
43.05460434056761
 10
3.0494380216646393
 20
43.1908530884808
 10
3.042322981809058
 20
43.327101836393986
 10
3.0357494667838587
 20
43.46335058430718
 10
3.0297211936267705
 20
43.599599332220365
 10
3.024241571064888
 20
43.73584808013355
 10
3.0193136975871795
 20
43.87209682804674
 10
3.0149403596924342
 20
44.00834557595993
 10
3.011124030313608
 20
44.14459432387312
 10
3.007866867419497
 20
44.28084307178631
 10
3.0051707127944907
 20
44.41709181969949
 10
3.003037090997128
 20
44.553340567612686
 10
3.001467208498026
 20
44.68958931552587
 10
3.0004619529976693
 20
44.825838063439065
 10
3.0000218929244573
 20
44.96208681135225
 10
3.0001472771132813
 20
45.098335559265436
 10
3.000838034664819
 20
45.23458430717863
 10
3.0020937749856245
 20
45.370833055091815
 10
3.0039137880089943
 20
45.50708180300501
 10
3.0062970445964763
 20
45.64333055091819
 10
3.009242197119804
 20
45.77957929883138
 10
3.012747580222924
 20
45.91582804674457
 10
3.0168112117636783
 20
46.05207679465776
 10
3.0214307939346243
 20
46.18832554257095
 10
3.0266037145623415
 20
46.324574290484136
 10
3.0323270485845057
 20
46.46082303839733
 10
3.0385975597038817
 20
46.597071786310515
 10
3.045411702218311
 20
46.7333205342237
 10
3.052765623025654
 20
46.869569282136894
 10
3.0606551638025468
 20
47.00581803005008
 10
3.0690758633557595
 20
47.14206677796327
 10
3.0780229601448044
 20
47.27831552587646
 10
3.0874913949743767
 20
47.414564273789644
 10
3.097475813855121
 20
47.55081302170284
 10
3.1079705710310654
 20
47.68706176961602
 10
3.118969732172066
 20
47.823310517529215
 10
3.1304670777294046
 20
47.9595592654424
 10
3.1424561064526726
 20
48.09580801335559
 10
3.154930039065956
 20
48.23205676126878
 10
3.167881822101212
 20
48.368305509181965
 10
3.1813041318867032
 20
48.50455425709516
 10
3.1951893786882173
 20
48.640803005008344
 10
3.2095297110007284
 20
48.77705175292153
 10
3.2243170199880917
 20
48.91330050083472
 10
3.2395429440682286
 20
49.04954924874791
 10
3.2551988736412447
 20
49.1857979966611
 10
3.271275955957783
 20
49.32204674457429
 10
3.2877651001248718
 20
49.45829549248747
 10
3.304656982246428
 20
49.594544240400666
 10
3.3219420506955184
 20
49.73079298831385
 10
3.339610531515389
 20
49.867041736227044
 10
3.3576524339462126
 20
50.00329048414023
 10
3.3760575560744384
 20
50.13953923205342
 10
3.394815490601516
 20
50.27578797996661
 10
3.4139156307287877
 20
50.412036727879794
 10
3.4333471761551637
 20
50.54828547579299
 10
3.453099139184226
 20
50.68453422370617
 10
3.4731603509373006
 20
50.820782971619366
 10
3.4935194676689596
 20
50.95703171953255
 10
3.5141649771814345
 20
51.09328046744574
 10
3.5350852053342545
 20
51.22952921535893
 10
3.556268322645463
 20
51.365777963272116
 10
3.5777023509806947
 20
51.50202671118531
 10
3.7440480495607993
 20
51.594
 10
3.7440480495607993
 20
51.638275459098494
 10
3.7440480495607993
 20
51.77452420701168
 10
3.7440480495607993
 20
51.91077295492487
 10
3.7440480495607993
 20
52.04702170283806
 10
3.7440480495607993
 20
52.18327045075125
 10
3.7440480495607993
 20
52.31951919866444
 10
3.7440480495607993
 20
52.45576794657762
 10
3.7440480495607993
 20
52.517
 10
3.7567263784506633
 20
52.592016694490816
 10
3.7798584749237913
 20
52.728265442404
 10
3.803115051884353
 20
52.864514190317195
 10
3.8264829587464453
 20
53.00076293823038
 10
3.849948981971932
 20
53.137011686143566
 10
3.8734998525421354
 20
53.27326043405676
 10
3.8971222534608723
 20
53.409509181969945
 10
3.920802827284656
 20
53.54575792988314
 10
3.944528183675742
 20
53.68200667779632
 10
3.9682849069737856
 20
53.81825542570951
 10
3.992059563781819
 20
53.9545041736227
 10
4.01583871056225
 20
54.09075292153589
 10
4.0396089012386
 20
54.22700166944908
 10
4.063356694798679
 20
54.363250417362266
 10
4.087068662894898
 20
54.49949916527545
 10
4.110731397437414
 20
54.635747913188645
 10
4.134331518175823
 20
54.77199666110183
 10
4.157855680265112
 20
54.908245409015024
 10
4.1812905818115915
 20
55.04449415692821
 10
4.204622971394539
 20
55.1807429048414
 10
4.227839655559297
 20
55.31699165275459
 10
4.250927506277616
 20
55.453240400667774
 10
4.273873468370966
 20
55.58948914858097
 10
4.296664566892686
 20
55.72573789649415
 10
4.31928791446475
 20
55.861986644407345
 10
4.341730718565014
 20
55.99823539232053
 10
4.3639802887608505
 20
56.13448414023372
 10
4.38602404388502
 20
56.27073288814691
 10
4.4078495191497815
 20
56.406981636060095
 10
4.429444373195195
 20
56.54323038397329
 10
4.450796395067611
 20
56.679479131886474
 10
4.471893511124457
 20
56.81572787979966
 10
4.4927237918613425
 20
56.95197662771285
 10
4.5132754586576755
 20
57.08822537562604
 10
4.5335368904369755
 20
57.22447412353923
 10
4.553496630238072
 20
57.36072287145242
 10
4.573143391693533
 20
57.4969716193656
 10
4.59246606541161
 20
57.633220367278795
 10
4.611453725258114
 20
57.76946911519198
 10
4.63009563453468
 20
57.905717863105174
 10
4.648381252049898
 20
58.04196661101836
 10
4.666300238079894
 20
58.178215358931546
 10
4.683842460215014
 20
58.31446410684474
 10
4.700997999089239
 20
58.450712854757924
 10
4.717757153989177
 20
58.58696160267112
 10
4.734110448339383
 20
58.7232103505843
 10
4.7500486350609545
 20
58.859459098497496
 10
4.765562701800356
 20
58.99570784641068
 10
4.780643876025512
 20
59.13195659432387
 10
4.795283629986296
 20
59.26820534223706
 10
4.8094736855366005
 20
59.404454090150246
 10
4.82320601881527
 20
59.54070283806344
 10
4.836472864783249
 20
59.676951585976624
 10
4.849266721614372
 20
59.81320033388981
 10
4.861580354937322
 20
59.949449081803
 10
4.8734068019263574
 20
60.08569782971619
 10
4.884739375238482
 20
60.22194657762938
 10
4.895571666794849
 20
60.35819532554257
 10
4.905897551404256
 20
60.49444407345575
 10
4.915711190226671
 20
60.630692821368946
 10
4.925007034074843
 20
60.76694156928213
 10
4.933779826552133
 20
60.903190317195325
 10
4.942024607024765
 20
61.03943906510851
 10
4.949736713426867
 20
61.175687813021696
 10
4.956911784896651
 20
61.31193656093489
 10
4.9635457642423
 20
61.448185308848075
 10
4.969634900236137
 20
61.58443405676127
 10
4.9751757497357705
 20
61.72068280467445
 10
4.980165179631052
 20
61.85693155258764
 10
4.984600368615709
 20
61.99318030050083
 10
4.988478808782674
 20
62.12942904841402
 10
4.991798307042196
 20
62.26567779632721
 10
4.994556986361937
 20
62.401926544240396
 10
4.996753286828355
 20
62.53817529215358
 10
4.9983859665287635
 20
62.674424040066775
 10
4.9994541022535826
 20
62.81067278797996
 10
4.9999570900183725
 20
62.94692153589315
 10
4.999894645405361
 20
63.08317028380634
 10
4.99926680372427
 20
63.219419031719525
 10
4.998073919992347
 20
63.35566777963272
 10
4.996316668733621
 20
63.491916527545904
 10
4.993996043597487
 20
63.6281652754591
 10
4.99111335679684
 20
63.76441402337228
 10
4.987670238366079
 20
63.900662771285475
 10
4.983668635239388
 20
64.03691151919865
 10
4.935752139592401
 20
64.142
 10
4.968137060813734
 20
64.07006578376851
 10
5.026946939682248
 20
64.01748524806546
 10
5.10204348320507
 20
63.993322803274516
 10
5.180480724214189
 20
64.00174383707252
 10
5.248736789408678
 20
64.0412966391416
 10
5.295044948422885
 20
64.10516266294195
 10
5.311422092073807
 20
64.18233198167152
 10
5.295044948422885
 20
64.2595013004011
 10
5.248736789408678
 20
64.32336732420144
 10
5.18048072421419
 20
64.36292012627052
 10
5.10204348320507
 20
64.37134116006854
 10
5.026946939682248
 20
64.3471787152776
 10
4.968137060813734
 20
64.29459817957454
 10
4.935752139592401
 20
64.22266396334305
 10
4.935752139592401
 20
64.30940901502504
 10
4.935752139592401
 20
64.44565776293823
 10
4.935752139592401
 20
64.58190651085141
 10
4.935752139592401
 20
64.7181552587646
 10
4.935752139592401
 20
64.8544040066778
 10
4.935752139592401
 20
64.99065275459098
 10
4.935752139592401
 20
65.065
 10
4.931887533909512
 20
65.12690150250417
 10
4.9229987833937665
 20
65.26315025041735
 10
4.91358811708582
 20
65.39939899833055
 10
4.903660856309441
 20
65.53564774624374
 10
4.893222614500166
 20
65.67189649415693
 10
4.882279294031152
 20
65.80814524207011
 10
4.870837082875639
 20
65.9443939899833
 10
4.858902451107918
 20
66.0806427378965
 10
4.846482147244788
 20
66.21689148580968
 10
4.833583194429558
 20
66.35314023372287
 10
4.820212886460765
 20
66.48938898163605
 10
4.806378783667848
 20
66.62563772954924
 10
4.792088708636114
 20
66.76188647746244
 10
4.777350741783398
 20
66.89813522537563
 10
4.762173216790936
 20
67.03438397328881
 10
4.746564715891042
 20
67.170632721202
 10
4.730534065014208
 20
67.30688146911518
 10
4.714090328798445
 20
67.44313021702838
 10
4.697242805463607
 20
67.57937896494157
 10
4.680001021553657
 20
67.71562771285475
 10
4.66237472654982
 20
67.85187646076794
 10
4.644373887357668
 20
67.98812520868113
 10
4.626008682671278
 20
68.12437395659433
 10
4.6072894972176135
 20
68.26062270450751
 10
4.5882269158844124
 20
68.3968714524207
 10
4.568831717734896
 20
68.53312020033388
 10
4.549114869912669
 20
68.66936894824707
 10
4.529087521440283
 20
68.80561769616027
 10
4.508760996914948
 20
68.94186644407345
 10
4.488146790104949
 20
69.07811519198664
 10
4.467256557450445
 20
69.21436393989983
 10
4.4461021114722294
 20
69.35061268781301
 10
4.424695414092275
 20
69.48686143572621
 10
4.403048569869796
 20
69.6231101836394
 10
4.381173819156622
 20
69.75935893155258
 10
4.359083531175827
 20
69.89560767946577
 10
4.336790197027463
 20
70.03185642737895
 10
4.314306422625382
 20
70.16810517529215
 10
4.291644921569154
 20
70.30435392320534
 10
4.2688185079550545
 20
70.44060267111853
 10
4.2458400891302635
 20
70.57685141903171
 10
4.22272265839432
 20
70.7131001669449
 10
4.199479287651963
 20
70.8493489148581
 10
4.176123120021557
 20
70.98559766277128
 10
4.152667362403207
 20
71.12184641068447
 10
4.1291252780108385
 20
71.25809515859765
 10
4.105510178872432
 20
71.39434390651084
 10
4.081835418302629
 20
71.53059265442404
 10
4.058114383352035
 20
71.66684140233723
 10
4.034360487237408
 20
71.80309015025041
 10
4.010587161757063
 20
71.9393388981636
 10
3.986807849695791
 20
72.07558764607678
 10
3.9630359972235207
 20
72.21183639398998
 10
3.93928504629212
 20
72.34808514190317
 10
3.9155684270345357
 20
72.48433388981636
 10
3.8918995501706384
 20
72.62058263772954
 10
3.8682917994240498
 20
72.75683138564273
 10
3.84475852395422
 20
72.89308013355593
 10
3.8213130308080636
 20
73.02932888146911
 10
3.7979685773953946
 20
73.1655776293823
 10
3.774738363992436
 20
73.30182637729548
 10
3.7516355262776377
 20
73.43807512520867
 10
3.728673127904029
 20
73.57432387312187
 10
3.7058641531122736
 20
73.71057262103506
 10
3.683221499388653
 20
73.84682136894824
 10
3.660757970172102
 20
73.98307011686143
 10
3.638486267614405
 20
74.11931886477461
 10
3.6164189853976887
 20
74.25556761268781
 10
3.594568601613246
 20
74.391816360601
 10
3.5729474717057115
 20
74.52806510851418
 10
3.5515678214865853
 20
74.66431385642737
 10
3.5304417402210744
 20
74.80056260434057
 10
3.509581173792143
 20
74.93681135225376
 10
3.4889979179456287
 20
75.07306010016694
 10
3.46870361162025
 20
75.20930884808013
 10
3.4487097303663043
 20
75.34555759599331
 10
3.429027579856731
 20
75.48180634390651
 10
3.409668289494267
 20
75.6180550918197
 10
3.3906428061182177
 20
75.75430383973288
 10
3.3719618878145132
 20
75.89055258764607
 10
3.3536360978324837
 20
76.02680133555926
 10
3.3356757986117813
 20
76.16305008347246
 10
3.318091145922889
 20
76.29929883138564
 10
3.3008920831244564
 20
76.43554757929883
 10
3.284088335540768
 20
76.57179632721201
 10
3.169695794038108
 20
76.69
 10
3.166048603142639
 20
76.69977720552392
 10
3.1629437011162977
 20
76.70973990258302
 10
3.1603904539045864
 20
76.71985803867426
 10
3.1583965633847413
 20
76.73010109241227
 10
3.1569680441329986
 20
76.74043816559728
 10
3.1561092052816107
 20
76.7508380764196
 10
3.155822637520335
 20
76.76126945351963
 10
3.1561092052816107
 20
76.77170083061966
 10
3.1569680441329986
 20
76.78210074144198
 10
3.158396563384741
 20
76.792437814627
 10
3.160390453904586
 20
76.802680868365
 10
3.1629437011162973
 20
76.81279900445624
 10
3.1660486031426385
 20
76.82276170151535
 10
3.1696957940381076
 20
76.83253890703926
 10
3.1696957940381063
 20
76.8442938230384
 10
3.1696957940381063
 20
76.98054257095158
 10
3.1696957940381063
 20
77.11679131886477
 10
3.1696957940381063
 20
77.25304006677796
 10
3.1696957940381063
 20
77.38928881469114
 10
3.1696957940381063
 20
77.52553756260434
 10
3.1696957940381063
 20
77.613
 10
3.1649805539329
 20
77.66178631051753
 10
3.152133687932476
 20
77.79803505843071
 10
3.1397662535693467
 20
77.9342838063439
 10
3.127885244091409
 20
78.07053255425708
 10
3.116497377694379
 20
78.20678130217028
 10
3.105609093722946
 20
78.34303005008347
 10
3.095226549029598
 20
78.47927879799666
 10
3.0853556144931855
 20
78.61552754590984
 10
3.076001871699201
 20
78.75177629382303
 10
3.067170609783628
 20
78.88802504173623
 10
3.058866822442175
 20
79.02427378964941
 10
3.0510952051065408
 20
79.1605225375626
 10
3.043860152289364
 20
79.29677128547578
 10
3.0371657550993105
 20
79.43302003338897
 10
3.031015798927734
 20
79.56926878130217
 10
3.0254137613081977
 20
79.70551752921536
 10
3.020362809950078
 20
79.84176627712854
 10
3.0158658009473673
 20
79.97801502504173
 10
3.0119252771636735
 20
80.11426377295491
 10
3.0085434667943396
 20
80.25051252086811
 10
3.0057222821065013
 20
80.3867612687813
 10
3.003463318357776
 20
80.52301001669449
 10
3.0017678528942193
 20
80.65925876460767
 10
3.000636844428038
 20
80.79550751252086
 10
3.0000709324954795
 20
80.93175626043406
 10
3.0000704370952063
 20
81.06800500834724
 10
3.0006353585073455
 20
81.20425375626043
 10
3.001765377293332
 20
81.34050250417361
 10
3.0034598544765387
 20
81.4767512520868
 10
3.005717831903588
 20
81.613
 10
0.0
 20
81.613
 10
0.0
 20
0.0
  0
ENDSEC
  0
SECTION
  2
OBJECTS
  0
DICTIONARY
  5
A
330
0
100
AcDbDictionary
281
1
  3
ACAD_COLOR
350
B
  3
ACAD_GROUP
350
C
  3
ACAD_LAYOUT
350
D
  3
ACAD_MATERIAL
350
E
  3
ACAD_MLEADERSTYLE
350
F
  3
ACAD_MLINESTYLE
350
10
  3
ACAD_PLOTSETTINGS
350
11
  3
ACAD_PLOTSTYLENAME
350
12
  3
ACAD_SCALELIST
350
14
  3
ACAD_TABLESTYLE
350
15
  3
ACAD_VISUALSTYLE
350
16
  3
EZDXF_META
350
2D
  0
DICTIONARY
  5
B
330
A
100
AcDbDictionary
281
1
  0
DICTIONARY
  5
C
330
A
100
AcDbDictionary
281
1
  0
DICTIONARY
  5
D
330
A
100
AcDbDictionary
281
1
  3
Model
350
1A
  3
Layout1
350
1E
  0
DICTIONARY
  5
E
330
A
100
AcDbDictionary
281
1
  3
ByBlock
350
1F
  3
ByLayer
350
20
  3
Global
350
21
  0
DICTIONARY
  5
F
330
A
100
AcDbDictionary
281
1
  3
Standard
350
2C
  0
DICTIONARY
  5
10
330
A
100
AcDbDictionary
281
1
  3
Standard
350
22
  0
DICTIONARY
  5
11
330
A
100
AcDbDictionary
281
1
  0
ACDBDICTIONARYWDFLT
  5
12
330
A
100
AcDbDictionary
281
1
  3
Normal
350
13
100
AcDbDictionaryWithDefault
340
13
  0
ACDBPLACEHOLDER
  5
13
330
12
  0
DICTIONARY
  5
14
330
A
100
AcDbDictionary
281
1
  0
DICTIONARY
  5
15
330
A
100
AcDbDictionary
281
1
  0
DICTIONARY
  5
16
330
A
100
AcDbDictionary
281
1
  0
LAYOUT
  5
1A
330
D
100
AcDbPlotSettings
  1

  4
A3
  6

 40
7.5
 41
20.0
 42
7.5
 43
20.0
 44
420.0
 45
297.0
 46
0.0
 47
0.0
 48
0.0
 49
0.0
140
0.0
141
0.0
142
1.0
143
1.0
 70
1024
 72
1
 73
0
 74
5
  7

 75
16
 76
0
 77
2
 78
300
147
1.0
148
0.0
149
0.0
100
AcDbLayout
  1
Model
 70
1
 71
0
 10
0.0
 20
0.0
 11
420.0
 21
297.0
 12
0.0
 22
0.0
 32
0.0
 14
1e+20
 24
1e+20
 34
1e+20
 15
-1e+20
 25
-1e+20
 35
-1e+20
146
0.0
 13
0.0
 23
0.0
 33
0.0
 16
1.0
 26
0.0
 36
0.0
 17
0.0
 27
1.0
 37
0.0
 76
1
330
17
  0
LAYOUT
  5
1E
330
D
100
AcDbPlotSettings
  1

  4
A3
  6

 40
7.5
 41
20.0
 42
7.5
 43
20.0
 44
420.0
 45
297.0
 46
0.0
 47
0.0
 48
0.0
 49
0.0
140
0.0
141
0.0
142
1.0
143
1.0
 70
0
 72
1
 73
0
 74
5
  7

 75
16
 76
0
 77
2
 78
300
147
1.0
148
0.0
149
0.0
100
AcDbLayout
  1
Layout1
 70
1
 71
1
 10
0.0
 20
0.0
 11
420.0
 21
297.0
 12
0.0
 22
0.0
 32
0.0
 14
1e+20
 24
1e+20
 34
1e+20
 15
-1e+20
 25
-1e+20
 35
-1e+20
146
0.0
 13
0.0
 23
0.0
 33
0.0
 16
1.0
 26
0.0
 36
0.0
 17
0.0
 27
1.0
 37
0.0
 76
1
330
1B
  0
MATERIAL
  5
1F
102
{ACAD_REACTORS
330
E
102
}
330
E
100
AcDbMaterial
  1
ByBlock
  2

 70
0
 40
1.0
 71
1
 41
1.0
 91
-1023410177
 42
1.0
 72
1
  3

 73
1
 74
1
 75
1
 44
0.5
 73
0
 45
1.0
 46
1.0
 77
1
  4

 78
1
 79
1
170
1
 48
1.0
171
1
  6

172
1
173
1
174
1
140
1.0
141
1.0
175
1
  7

176
1
177
1
178
1
143
1.0
179
1
  8

270
1
271
1
272
1
145
1.0
146
1.0
273
1
  9

274
1
275
1
276
1
 42
1.0
 72
1
  3

 73
1
 74
1
 75
1
 94
63
  0
MATERIAL
  5
20
102
{ACAD_REACTORS
330
E
102
}
330
E
100
AcDbMaterial
  1
ByLayer
  2

 70
0
 40
1.0
 71
1
 41
1.0
 91
-1023410177
 42
1.0
 72
1
  3

 73
1
 74
1
 75
1
 44
0.5
 73
0
 45
1.0
 46
1.0
 77
1
  4

 78
1
 79
1
170
1
 48
1.0
171
1
  6

172
1
173
1
174
1
140
1.0
141
1.0
175
1
  7

176
1
177
1
178
1
143
1.0
179
1
  8

270
1
271
1
272
1
145
1.0
146
1.0
273
1
  9

274
1
275
1
276
1
 42
1.0
 72
1
  3

 73
1
 74
1
 75
1
 94
63
  0
MATERIAL
  5
21
102
{ACAD_REACTORS
330
E
102
}
330
E
100
AcDbMaterial
  1
Global
  2

 70
0
 40
1.0
 71
1
 41
1.0
 91
-1023410177
 42
1.0
 72
1
  3

 73
1
 74
1
 75
1
 44
0.5
 73
0
 45
1.0
 46
1.0
 77
1
  4

 78
1
 79
1
170
1
 48
1.0
171
1
  6

172
1
173
1
174
1
140
1.0
141
1.0
175
1
  7

176
1
177
1
178
1
143
1.0
179
1
  8

270
1
271
1
272
1
145
1.0
146
1.0
273
1
  9

274
1
275
1
276
1
 42
1.0
 72
1
  3

 73
1
 74
1
 75
1
 94
63
  0
MLINESTYLE
  5
22
102
{ACAD_REACTORS
330
10
102
}
330
10
100
AcDbMlineStyle
  2
Standard
 70
0
  3

 62
256
 51
90.0
 52
90.0
 71
2
 49
0.5
 62
256
  6
BYLAYER
 49
-0.5
 62
256
  6
BYLAYER
  0
MLEADERSTYLE
  5
2C
102
{ACAD_REACTORS
330
F
102
}
330
F
100
AcDbMLeaderStyle
179
2
170
2
171
1
172
0
 90
2
 40
0.0
 41
0.0
173
1
 91
-1056964608
 92
-2
290
1
 42
2.0
291
1
 43
8.0
  3
Standard
 44
4.0
300

342
29
174
1
175
1
176
0
178
1
 93
-1056964608
 45
4.0
292
0
297
0
 46
4.0
 94
-1056964608
 47
1.0
 49
1.0
140
1.0
294
1
141
0.0
177
0
142
1.0
295
0
296
0
143
3.75
271
0
272
9
273
9
  0
DICTIONARY
  5
2D
330
A
100
AcDbDictionary
280
1
281
1
  3
CREATED_BY_EZDXF
350
2E
  3
WRITTEN_BY_EZDXF
350
32
  0
DICTIONARYVAR
  5
2E
330
2D
100
DictionaryVariables
280
0
  1
1.4.3 @ 2026-06-21T16:47:03.844155+00:00
  0
DICTIONARYVAR
  5
32
330
2D
100
DictionaryVariables
280
0
  1
1.4.3 @ 2026-06-21T16:47:03.849146+00:00
  0
ENDSEC
  0
EOF
