  0
SECTION
  2
HEADER
  9
$ACADVER
  1
AC1024
  9
$ACADMAINTVER
 70
6
  9
$DWGCODEPAGE
  3
ANSI_1252
  9
$LASTSAVEDBY
  1
ezdxf
  9
$INSBASE
 10
0.0
 20
0.0
 30
0.0
  9
$EXTMIN
 10
1e+20
 20
1e+20
 30
1e+20
  9
$EXTMAX
 10
-1e+20
 20
-1e+20
 30
-1e+20
  9
$LIMMIN
 10
0.0
 20
0.0
  9
$LIMMAX
 10
420.0
 20
297.0
  9
$ORTHOMODE
 70
0
  9
$REGENMODE
 70
1
  9
$FILLMODE
 70
1
  9
$QTEXTMODE
 70
0
  9
$MIRRTEXT
 70
1
  9
$LTSCALE
 40
1.0
  9
$ATTMODE
 70
1
  9
$TEXTSIZE
 40
2.5
  9
$TRACEWID
 40
1.0
  9
$TEXTSTYLE
  7
Standard
  9
$CLAYER
  8
0
  9
$CELTYPE
  6
ByLayer
  9
$CECOLOR
 62
256
  9
$CELTSCALE
 40
1.0
  9
$DISPSILH
 70
0
  9
$DIMSCALE
 40
1.0
  9
$DIMASZ
 40
2.5
  9
$DIMEXO
 40
0.625
  9
$DIMDLI
 40
3.75
  9
$DIMRND
 40
0.0
  9
$DIMDLE
 40
0.0
  9
$DIMEXE
 40
1.25
  9
$DIMTP
 40
0.0
  9
$DIMTM
 40
0.0
  9
$DIMTXT
 40
2.5
  9
$DIMCEN
 40
2.5
  9
$DIMTSZ
 40
0.0
  9
$DIMTOL
 70
0
  9
$DIMLIM
 70
0
  9
$DIMTIH
 70
0
  9
$DIMTOH
 70
0
  9
$DIMSE1
 70
0
  9
$DIMSE2
 70
0
  9
$DIMTAD
 70
1
  9
$DIMZIN
 70
8
  9
$DIMBLK
  1

  9
$DIMASO
 70
1
  9
$DIMSHO
 70
1
  9
$DIMPOST
  1

  9
$DIMAPOST
  1

  9
$DIMALT
 70
0
  9
$DIMALTD
 70
3
  9
$DIMALTF
 40
0.03937007874
  9
$DIMLFAC
 40
1.0
  9
$DIMTOFL
 70
1
  9
$DIMTVP
 40
0.0
  9
$DIMTIX
 70
0
  9
$DIMSOXD
 70
0
  9
$DIMSAH
 70
0
  9
$DIMBLK1
  1

  9
$DIMBLK2
  1

  9
$DIMSTYLE
  2
ISO-25
  9
$DIMCLRD
 70
0
  9
$DIMCLRE
 70
0
  9
$DIMCLRT
 70
0
  9
$DIMTFAC
 40
1.0
  9
$DIMGAP
 40
0.625
  9
$DIMJUST
 70
0
  9
$DIMSD1
 70
0
  9
$DIMSD2
 70
0
  9
$DIMTOLJ
 70
0
  9
$DIMTZIN
 70
8
  9
$DIMALTZ
 70
0
  9
$DIMALTTZ
 70
0
  9
$DIMUPT
 70
0
  9
$DIMDEC
 70
2
  9
$DIMTDEC
 70
2
  9
$DIMALTU
 70
2
  9
$DIMALTTD
 70
3
  9
$DIMTXSTY
  7
Standard
  9
$DIMAUNIT
 70
0
  9
$DIMADEC
 70
0
  9
$DIMALTRND
 40
0.0
  9
$DIMAZIN
 70
0
  9
$DIMDSEP
 70
44
  9
$DIMATFIT
 70
3
  9
$DIMFRAC
 70
0
  9
$DIMLDRBLK
  1

  9
$DIMLUNIT
 70
2
  9
$DIMLWD
 70
-2
  9
$DIMLWE
 70
-2
  9
$DIMTMOVE
 70
0
  9
$DIMFXL
 40
1.0
  9
$DIMFXLON
 70
0
  9
$DIMJOGANG
 40
0.785398163397
  9
$DIMTFILL
 70
0
  9
$DIMTFILLCLR
 70
0
  9
$DIMARCSYM
 70
0
  9
$DIMLTYPE
  6

  9
$DIMLTEX1
  6

  9
$DIMLTEX2
  6

  9
$DIMTXTDIRECTION
 70
0
  9
$LUNITS
 70
2
  9
$LUPREC
 70
4
  9
$SKETCHINC
 40
1.0
  9
$FILLETRAD
 40
10.0
  9
$AUNITS
 70
0
  9
$AUPREC
 70
2
  9
$MENU
  1
.
  9
$ELEVATION
 40
0.0
  9
$PELEVATION
 40
0.0
  9
$THICKNESS
 40
0.0
  9
$LIMCHECK
 70
0
  9
$CHAMFERA
 40
0.0
  9
$CHAMFERB
 40
0.0
  9
$CHAMFERC
 40
0.0
  9
$CHAMFERD
 40
0.0
  9
$SKPOLY
 70
0
  9
$TDCREATE
 40
2461169.682534722
  9
$TDUCREATE
 40
2458532.153996898
  9
$TDUPDATE
 40
2461169.682534722
  9
$TDUUPDATE
 40
2458532.1544311
  9
$TDINDWG
 40
0.0
  9
$TDUSRTIMER
 40
0.0
  9
$USRTIMER
 70
1
  9
$ANGBASE
 50
0.0
  9
$ANGDIR
 70
0
  9
$PDMODE
 70
0
  9
$PDSIZE
 40
0.0
  9
$PLINEWID
 40
0.0
  9
$SPLFRAME
 70
0
  9
$SPLINETYPE
 70
6
  9
$SPLINESEGS
 70
8
  9
$HANDSEED
  5
33
  9
$SURFTAB1
 70
6
  9
$SURFTAB2
 70
6
  9
$SURFTYPE
 70
6
  9
$SURFU
 70
6
  9
$SURFV
 70
6
  9
$UCSBASE
  2

  9
$UCSNAME
  2

  9
$UCSORG
 10
0.0
 20
0.0
 30
0.0
  9
$UCSXDIR
 10
1.0
 20
0.0
 30
0.0
  9
$UCSYDIR
 10
0.0
 20
1.0
 30
0.0
  9
$UCSORTHOREF
  2

  9
$UCSORTHOVIEW
 70
0
  9
$UCSORGTOP
 10
0.0
 20
0.0
 30
0.0
  9
$UCSORGBOTTOM
 10
0.0
 20
0.0
 30
0.0
  9
$UCSORGLEFT
 10
0.0
 20
0.0
 30
0.0
  9
$UCSORGRIGHT
 10
0.0
 20
0.0
 30
0.0
  9
$UCSORGFRONT
 10
0.0
 20
0.0
 30
0.0
  9
$UCSORGBACK
 10
0.0
 20
0.0
 30
0.0
  9
$PUCSBASE
  2

  9
$PUCSNAME
  2

  9
$PUCSORG
 10
0.0
 20
0.0
 30
0.0
  9
$PUCSXDIR
 10
1.0
 20
0.0
 30
0.0
  9
$PUCSYDIR
 10
0.0
 20
1.0
 30
0.0
  9
$PUCSORTHOREF
  2

  9
$PUCSORTHOVIEW
 70
0
  9
$PUCSORGTOP
 10
0.0
 20
0.0
 30
0.0
  9
$PUCSORGBOTTOM
 10
0.0
 20
0.0
 30
0.0
  9
$PUCSORGLEFT
 10
0.0
 20
0.0
 30
0.0
  9
$PUCSORGRIGHT
 10
0.0
 20
0.0
 30
0.0
  9
$PUCSORGFRONT
 10
0.0
 20
0.0
 30
0.0
  9
$PUCSORGBACK
 10
0.0
 20
0.0
 30
0.0
  9
$USERI1
 70
0
  9
$USERI2
 70
0
  9
$USERI3
 70
0
  9
$USERI4
 70
0
  9
$USERI5
 70
0
  9
$USERR1
 40
0.0
  9
$USERR2
 40
0.0
  9
$USERR3
 40
0.0
  9
$USERR4
 40
0.0
  9
$USERR5
 40
0.0
  9
$WORLDVIEW
 70
1
  9
$SHADEDGE
 70
3
  9
$SHADEDIF
 70
70
  9
$TILEMODE
 70
1
  9
$MAXACTVP
 70
64
  9
$PINSBASE
 10
0.0
 20
0.0
 30
0.0
  9
$PLIMCHECK
 70
0
  9
$PEXTMIN
 10
1e+20
 20
1e+20
 30
1e+20
  9
$PEXTMAX
 10
-1e+20
 20
-1e+20
 30
-1e+20
  9
$PLIMMIN
 10
0.0
 20
0.0
  9
$PLIMMAX
 10
420.0
 20
297.0
  9
$UNITMODE
 70
0
  9
$VISRETAIN
 70
1
  9
$PLINEGEN
 70
0
  9
$PSLTSCALE
 70
1
  9
$TREEDEPTH
 70
3020
  9
$CMLSTYLE
  2
Standard
  9
$CMLJUST
 70
0
  9
$CMLSCALE
 40
20.0
  9
$PROXYGRAPHICS
 70
1
  9
$MEASUREMENT
 70
1
  9
$CELWEIGHT
370
-1
  9
$ENDCAPS
280
0
  9
$JOINSTYLE
280
0
  9
$LWDISPLAY
290
0
  9
$INSUNITS
 70
1
  9
$HYPERLINKBASE
  1

  9
$STYLESHEET
  1

  9
$XEDIT
290
1
  9
$CEPSNTYPE
380
0
  9
$PSTYLEMODE
290
1
  9
$FINGERPRINTGUID
  2
{1EB2FE83-3C5D-4A5B-B337-7AA98AA9AFF8}
  9
$VERSIONGUID
  2
{4BAE6786-1F52-41C6-8950-B45D680C32A9}
  9
$EXTNAMES
290
1
  9
$PSVPSCALE
 40
0.0
  9
$OLESTARTUP
290
0
  9
$SORTENTS
280
127
  9
$INDEXCTL
280
0
  9
$HIDETEXT
280
1
  9
$XCLIPFRAME
280
1
  9
$HALOGAP
280
0
  9
$OBSCOLOR
 70
257
  9
$OBSLTYPE
280
0
  9
$INTERSECTIONDISPLAY
280
0
  9
$INTERSECTIONCOLOR
 70
257
  9
$DIMASSOC
280
2
  9
$PROJECTNAME
  1

  9
$CAMERADISPLAY
290
0
  9
$LENSLENGTH
 40
50.0
  9
$CAMERAHEIGHT
 40
0.0
  9
$STEPSPERSEC
 40
24.0
  9
$STEPSIZE
 40
100.0
  9
$3DDWFPREC
 40
2.0
  9
$PSOLWIDTH
 40
0.005
  9
$PSOLHEIGHT
 40
0.08
  9
$LOFTANG1
 40
1.570796326795
  9
$LOFTANG2
 40
1.570796326795
  9
$LOFTMAG1
 40
0.0
  9
$LOFTMAG2
 40
0.0
  9
$LOFTPARAM
 70
7
  9
$LOFTNORMALS
280
1
  9
$LATITUDE
 40
37.795
  9
$LONGITUDE
 40
-122.394
  9
$NORTHDIRECTION
 40
0.0
  9
$TIMEZONE
 70
-8000
  9
$LIGHTGLYPHDISPLAY
280
1
  9
$TILEMODELIGHTSYNCH
280
1
  9
$CMATERIAL
347
20
  9
$SOLIDHIST
280
0
  9
$SHOWHIST
280
1
  9
$DWFFRAME
280
2
  9
$DGNFRAME
280
2
  9
$REALWORLDSCALE
290
1
  9
$INTERFERECOLOR
 62
256
  9
$CSHADOW
280
0
  9
$SHADOWPLANELOCATION
 40
0.0
  0
ENDSEC
  0
SECTION
  2
CLASSES
  0
CLASS
  1
ACDBDICTIONARYWDFLT
  2
AcDbDictionaryWithDefault
  3
ObjectDBX Classes
 90
0
 91
0
280
0
281
0
  0
CLASS
  1
SUN
  2
AcDbSun
  3
SCENEOE
 90
1153
 91
0
280
0
281
0
  0
CLASS
  1
VISUALSTYLE
  2
AcDbVisualStyle
  3
ObjectDBX Classes
 90
4095
 91
0
280
0
281
0
  0
CLASS
  1
MATERIAL
  2
AcDbMaterial
  3
ObjectDBX Classes
 90
1153
 91
0
280
0
281
0
  0
CLASS
  1
SCALE
  2
AcDbScale
  3
ObjectDBX Classes
 90
1153
 91
0
280
0
281
0
  0
CLASS
  1
TABLESTYLE
  2
AcDbTableStyle
  3
ObjectDBX Classes
 90
4095
 91
0
280
0
281
0
  0
CLASS
  1
MLEADERSTYLE
  2
AcDbMLeaderStyle
  3
ACDB_MLEADERSTYLE_CLASS
 90
4095
 91
0
280
0
281
0
  0
CLASS
  1
DICTIONARYVAR
  2
AcDbDictionaryVar
  3
ObjectDBX Classes
 90
0
 91
0
280
0
281
0
  0
CLASS
  1
CELLSTYLEMAP
  2
AcDbCellStyleMap
  3
ObjectDBX Classes
 90
1152
 91
0
280
0
281
0
  0
CLASS
  1
MENTALRAYRENDERSETTINGS
  2
AcDbMentalRayRenderSettings
  3
SCENEOE
 90
1024
 91
0
280
0
281
0
  0
CLASS
  1
ACDBDETAILVIEWSTYLE
  2
AcDbDetailViewStyle
  3
ObjectDBX Classes
 90
1025
 91
0
280
0
281
0
  0
CLASS
  1
ACDBSECTIONVIEWSTYLE
  2
AcDbSectionViewStyle
  3
ObjectDBX Classes
 90
1025
 91
0
280
0
281
0
  0
CLASS
  1
RASTERVARIABLES
  2
AcDbRasterVariables
  3
ISM
 90
0
 91
0
280
0
281
0
  0
CLASS
  1
LAYOUT
  2
AcDbLayout
  3
ObjectDBX Classes
 90
0
 91
0
280
0
281
0
  0
CLASS
  1
ACDBPLACEHOLDER
  2
AcDbPlaceHolder
  3
ObjectDBX Classes
 90
0
 91
0
280
0
281
0
  0
ENDSEC
  0
SECTION
  2
TABLES
  0
TABLE
  2
VPORT
  5
8
330
0
100
AcDbSymbolTable
 70
1
  0
VPORT
  5
23
330
8
100
AcDbSymbolTableRecord
100
AcDbViewportTableRecord
  2
*Active
 70
0
 10
0.0
 20
0.0
 11
1.0
 21
1.0
 12
0.0
 22
0.0
 13
0.0
 23
0.0
 14
0.5
 24
0.5
 15
0.5
 25
0.5
 16
0.0
 26
0.0
 36
1.0
 17
0.0
 27
0.0
 37
0.0
 40
1000.0
 41
1.34
 42
50.0
 43
0.0
 44
0.0
 50
0.0
 51
0.0
 71
0
 72
1000
 73
1
 74
3
 75
0
 76
0
 77
0
 78
0
281
0
 65
0
146
0.0
  0
ENDTAB
  0
TABLE
  2
LTYPE
  5
2
330
0
100
AcDbSymbolTable
 70
3
  0
LTYPE
  5
24
330
2
100
AcDbSymbolTableRecord
100
AcDbLinetypeTableRecord
  2
ByBlock
 70
0
  3

 72
65
 73
0
 40
0.0
  0
LTYPE
  5
25
330
2
100
AcDbSymbolTableRecord
100
AcDbLinetypeTableRecord
  2
ByLayer
 70
0
  3

 72
65
 73
0
 40
0.0
  0
LTYPE
  5
26
330
2
100
AcDbSymbolTableRecord
100
AcDbLinetypeTableRecord
  2
Continuous
 70
0
  3

 72
65
 73
0
 40
0.0
  0
ENDTAB
  0
TABLE
  2
LAYER
  5
1
330
0
100
AcDbSymbolTable
 70
2
  0
LAYER
  5
27
330
1
100
AcDbSymbolTableRecord
100
AcDbLayerTableRecord
  2
0
 70
0
 62
7
  6
Continuous
370
-3
390
13
347
21
  0
LAYER
  5
28
330
1
100
AcDbSymbolTableRecord
100
AcDbLayerTableRecord
  2
Defpoints
 70
0
 62
7
  6
Continuous
290
0
370
-3
390
13
347
21
  0
ENDTAB
  0
TABLE
  2
STYLE
  5
5
330
0
100
AcDbSymbolTable
 70
1
  0
STYLE
  5
29
330
5
100
AcDbSymbolTableRecord
100
AcDbTextStyleTableRecord
  2
Standard
 70
0
 40
0.0
 41
1.0
 50
0.0
 71
0
 42
2.5
  3
txt
  4

  0
ENDTAB
  0
TABLE
  2
VIEW
  5
7
330
0
100
AcDbSymbolTable
 70
0
  0
ENDTAB
  0
TABLE
  2
UCS
  5
6
330
0
100
AcDbSymbolTable
 70
0
  0
ENDTAB
  0
TABLE
  2
APPID
  5
3
330
0
100
AcDbSymbolTable
 70
3
  0
APPID
  5
2A
330
3
100
AcDbSymbolTableRecord
100
AcDbRegAppTableRecord
  2
ACAD
 70
0
  0
APPID
  5
30
330
3
100
AcDbSymbolTableRecord
100
AcDbRegAppTableRecord
  2
HATCHBACKGROUNDCOLOR
 70
0
  0
APPID
  5
31
330
3
100
AcDbSymbolTableRecord
100
AcDbRegAppTableRecord
  2
EZDXF
 70
0
  0
ENDTAB
  0
TABLE
  2
DIMSTYLE
  5
4
330
0
100
AcDbSymbolTable
 70
1
100
AcDbDimStyleTable
  0
DIMSTYLE
105
2B
330
4
100
AcDbSymbolTableRecord
100
AcDbDimStyleTableRecord
  2
Standard
 70
0
 40
1.0
 41
2.5
 42
0.625
 43
3.75
 44
1.25
 45
0.0
 46
0.0
 47
0.0
 48
0.0
 49
2.5
140
2.5
141
2.5
142
0.0
143
0.03937007874
144
1.0
145
0.0
146
1.0
147
0.625
148
0.0
 69
0
 70
0
 71
0
 72
0
 73
0
 74
0
 75
0
 76
0
 77
1
 78
8
 79
3
170
0
171
3
172
1
173
0
174
0
175
0
176
0
177
0
178
0
179
2
271
2
272
2
273
2
274
3
275
0
276
0
277
2
278
44
279
0
280
0
281
0
282
0
283
0
284
8
285
0
286
0
288
0
289
3
290
0
371
-2
372
-2
  0
ENDTAB
  0
TABLE
  2
BLOCK_RECORD
  5
9
330
0
100
AcDbSymbolTable
 70
2
  0
BLOCK_RECORD
  5
17
330
9
100
AcDbSymbolTableRecord
100
AcDbBlockTableRecord
  2
*Model_Space
340
1A
 70
0
280
1
281
0
  0
BLOCK_RECORD
  5
1B
330
9
100
AcDbSymbolTableRecord
100
AcDbBlockTableRecord
  2
*Paper_Space
340
1E
 70
0
280
1
281
0
  0
ENDTAB
  0
ENDSEC
  0
SECTION
  2
BLOCKS
  0
BLOCK
  5
18
330
17
100
AcDbEntity
  8
0
100
AcDbBlockBegin
  2
*Model_Space
 70
0
 10
0.0
 20
0.0
 30
0.0
  3
*Model_Space
  1

  0
ENDBLK
  5
19
330
17
100
AcDbEntity
  8
0
100
AcDbBlockEnd
  0
BLOCK
  5
1C
330
1B
100
AcDbEntity
  8
0
100
AcDbBlockBegin
  2
*Paper_Space
 70
0
 10
0.0
 20
0.0
 30
0.0
  3
*Paper_Space
  1

  0
ENDBLK
  5
1D
330
1B
100
AcDbEntity
  8
0
100
AcDbBlockEnd
  0
ENDSEC
  0
SECTION
  2
ENTITIES
  0
LWPOLYLINE
  5
2F
330
17
100
AcDbEntity
  8
SHELF
100
AcDbPolyline
 90
668
 70
1
 10
0.0
 20
0.0
 10
4.160398029091792
 20
0.0
 10
4.160398029091792
 20
0.15302337228714524
 10
4.160398029091792
 20
0.3060467445742905
 10
4.160398029091792
 20
0.45907011686143573
 10
4.160398029091792
 20
0.612093489148581
 10
4.160398029091792
 20
0.7651168614357262
 10
4.160398029091792
 20
0.9181402337228715
 10
4.160398029091792
 20
0.923
 10
4.185866167991307
 20
1.0711636060100167
 10
4.21203900184923
 20
1.224186978297162
 10
4.238060597956917
 20
1.3772103505843072
 10
4.263912396296548
 20
1.5302337228714524
 10
4.289575957959308
 20
1.6832570951585977
 10
4.315032978297017
 20
1.836280467445743
 10
4.340265299978007
 20
1.9893038397328882
 10
4.365254925937911
 20
2.1423272120200334
 10
4.389984032216155
 20
2.2953505843071786
 10
4.414434980668972
 20
2.448373956594324
 10
4.438590331549885
 20
2.601397328881469
 10
4.462432855948687
 20
2.7544207011686144
 10
4.485945548080034
 20
2.9074440734557596
 10
4.509111637412897
 20
3.060467445742905
 10
4.531914600632216
 20
3.21349081803005
 10
4.554338173424228
 20
3.3665141903171953
 10
4.576366362077062
 20
3.5195375626043406
 10
4.59798345488832
 20
3.672560934891486
 10
4.619174033371521
 20
3.825584307178631
 10
4.6399229832534035
 20
3.9786076794657763
 10
4.660215505254248
 20
4.131631051752922
 10
4.680037125643527
 20
4.284654424040067
 10
4.699373706563359
 20
4.437677796327212
 10
4.718211456112394
 20
4.590701168614357
 10
4.736536938182953
 20
4.7437245409015025
 10
4.754337082044386
 20
4.896747913188648
 10
4.77159919166583
 20
5.049771285475793
 10
4.78831095477171
 20
5.202794657762938
 10
4.804460451623522
 20
5.3558180300500835
 10
4.820036163521642
 20
5.508841402337229
 10
4.835026981021082
 20
5.661864774624374
 10
4.8494222118553605
 20
5.814888146911519
 10
4.863211588562798
 20
5.9679115191986645
 10
4.876385275809839
 20
6.12093489148581
 10
4.888933877406139
 20
6.273958263772955
 10
4.900848443006444
 20
6.4269816360601
 10
4.9121204744944595
 20
6.580005008347245
 10
4.9227419320441745
 20
6.733028380634391
 10
4.932705239854296
 20
6.886051752921536
 10
4.942003291551728
 20
7.039075125208681
 10
4.950629455260222
 20
7.192098497495826
 10
4.958577578330589
 20
7.345121869782972
 10
4.965841991729109
 20
7.498145242070117
 10
4.972417514080988
 20
7.651168614357262
 10
4.9782994553660025
 20
7.804191986644407
 10
4.983483620263673
 20
7.957215358931553
 10
4.987966311145595
 20
8.110238731218697
 10
4.991744330712789
 20
8.263262103505843
 10
4.994814984276193
 20
8.41628547579299
 10
4.99717608167865
 20
8.569308848080134
 10
4.99882593885706
 20
8.722332220367278
 10
4.999763379043536
 20
8.875355592654424
 10
4.999987733604746
 20
9.02837896494157
 10
4.99949884251881
 20
9.181402337228715
 10
4.998297054489447
 20
9.334425709515859
 10
4.996383226697251
 20
9.487449081803005
 10
4.993758724188307
 20
9.640472454090151
 10
4.99042541890057
 20
9.793495826377296
 10
4.9863856883286894
 20
9.94651919866444
 10
4.981642413828255
 20
10.099542570951586
 10
4.976198978560656
 20
10.252565943238732
 10
4.970059265080028
 20
10.405589315525877
 10
4.963227652564003
 20
10.55861268781302
 10
4.95570901369024
 20
10.711636060100167
 10
4.947508711160969
 20
10.864659432387313
 10
4.938632593878022
 20
11.017682804674457
 10
4.929086992771069
 20
11.170706176961602
 10
4.918878716282066
 20
11.323729549248748
 10
4.908015045509095
 20
11.476752921535894
 10
4.896503729013095
 20
11.629776293823038
 10
4.884352977291163
 20
11.782799666110183
 10
4.871571456920381
 20
11.935823038397329
 10
4.858168284376343
 20
12.088846410684475
 10
4.844153019530791
 20
12.24186978297162
 10
4.829535658832989
 20
12.394893155258764
 10
4.814326628179716
 20
12.54791652754591
 10
4.798536775478946
 20
12.700939899833056
 10
4.782177362912535
 20
12.8539632721202
 10
4.765260058903415
 20
13.006986644407345
 10
4.747796929793042
 20
13.16001001669449
 10
4.7298004312350255
 20
13.313033388981637
 10
4.711283399311078
 20
13.466056761268781
 10
4.6922590413756256
 20
13.619080133555926
 10
4.672740926635599
 20
13.772103505843072
 10
4.6584363354661
 20
13.881561563396668
 10
4.628422745980548
 20
13.885033678886353
 10
4.599339024664432
 20
13.893219538290685
 10
4.571920619989412
 20
13.905912143415632
 10
4.546860869083652
 20
13.922790532684818
 10
4.524793465115348
 20
13.943427897387723
 10
4.506276432910334
 20
13.96730237451497
 10
4.49177801801693
 20
13.99381024325917
 10
4.4816648460453505
 20
14.022281191477559
 10
4.476192651699876
 20
14.05199526606901
 10
4.475499811941426
 20
14.082201078636297
 10
4.479603846809336
 20
14.112134806061794
 10
4.488400976387054
 20
14.141039505523539
 10
4.501668745114901
 20
14.168184255527276
 10
4.51907164708814
 20
14.192882638929653
 10
4.51907164708814
 20
14.231173622704507
 10
4.51907164708814
 20
14.384196994991653
 10
4.51907164708814
 20
14.537220367278799
 10
4.51907164708814
 20
14.690243739565943
 10
4.51907164708814
 20
14.843267111853088
 10
4.51907164708814
 20
14.873
 10
4.500560588294244
 20
14.996290484140234
 10
4.477263999269051
 20
15.14931385642738
 10
4.45362699959823
 20
15.302337228714524
 10
4.429666448475707
 20
15.455360601001669
 10
4.405399435869907
 20
15.608383973288815
 10
4.380843270334254
 20
15.761407345575961
 10
4.356015466661771
 20
15.914430717863105
 10
4.330933733392574
 20
16.06745409015025
 10
4.305615960183182
 20
16.220477462437394
 10
4.280080205046639
 20
16.373500834724542
 10
4.254344681472557
 20
16.526524207011686
 10
4.228427745436263
 20
16.67954757929883
 10
4.202347882306322
 20
16.83257095158598
 10
4.176123693659762
 20
16.985594323873123
 10
4.149773884014425
 20
17.138617696160267
 10
4.123317247487877
 20
17.29164106844741
 10
4.0967726543924305
 20
17.444664440734556
 10
4.070159037775806
 20
17.597687813021704
 10
4.043495379917055
 20
17.750711185308848
 10
4.016800698787364
 20
17.903734557595993
 10
3.990094034485402
 20
18.05675792988314
 10
3.963394435656893
 20
18.209781302170285
 10
3.936720945908077
 20
18.36280467445743
 10
3.91009259022278
 20
18.515828046744573
 10
3.883528361392758
 20
18.668851419031718
 10
3.8570472064710053
 20
18.821874791318866
 10
3.8306680132576876
 20
18.97489816360601
 10
3.804409596828332
 20
19.127921535893154
 10
3.7782906861138925
 20
19.280944908180302
 10
3.7523299105422634
 20
19.433968280467447
 10
3.7265457867507483
 20
19.58699165275459
 10
3.7009567053789936
 20
19.740015025041735
 10
3.675580917951783
 20
19.89303839732888
 10
3.650436523861056
 20
20.046061769616028
 10
3.6255414574564377
 20
20.199085141903172
 10
3.6009134752534853
 20
20.352108514190316
 10
3.576570143268774
 20
20.505131886477464
 10
3.552528824490861
 20
20.65815525876461
 10
3.5288066664960547
 20
20.811178631051753
 10
3.5054205892178327
 20
20.964202003338897
 10
3.482387272878624
 20
21.11722537562604
 10
3.459723146092565
 20
21.27024874791319
 10
3.4374443741477236
 20
21.423272120200334
 10
3.415566847476131
 20
21.57629549248748
 10
3.394106170319864
 20
21.729318864774626
 10
3.3730776496012496
 20
21.88234223706177
 10
3.352496284005136
 20
22.035365609348915
 10
3.3323767532810153
 20
22.18838898163606
 10
3.312733407772625
 20
22.341412353923204
 10
3.2935802581825055
 20
22.49443572621035
 10
3.2749309655788035
 20
22.647459098497496
 10
3.2567988316514547
 20
22.80048247078464
 10
3.2391967892246942
 20
22.953505843071788
 10
3.222137393032667
 20
23.106529215358933
 10
3.2056328107647016
 20
23.259552587646077
 10
3.1896948143866597
 20
23.41257595993322
 10
3.1743347717445243
 20
23.565599332220366
 10
3.159563638456235
 20
23.718622704507514
 10
3.1453919500975474
 20
23.871646076794658
 10
3.1318298146874843
 20
24.024669449081802
 10
3.1188869054787496
 20
24.17769282136895
 10
3.1065724540582362
 20
24.330716193656095
 10
3.094895243762556
 20
24.48373956594324
 10
3.0838636034132882
 20
24.636762938230383
 10
3.073485401376409
 20
24.789786310517528
 10
3.0637680399501455
 20
24.942809682804675
 10
3.0547184500852556
 20
25.09583305509182
 10
3.0463430864414933
 20
25.248856427378964
 10
3.038647922783798
 20
25.401879799666112
 10
3.0316384477214777
 20
25.554903171953256
 10
3.0253196607934356
 20
25.7079265442404
 10
3.019696068902227
 20
25.860949916527545
 10
3.0147716830994913
 20
26.01397328881469
 10
3.01055001572505
 20
26.166996661101837
 10
3.0070340779017175
 20
26.32002003338898
 10
3.0042263773876035
 20
26.473043405676126
 10
3.0026983204422257
 20
26.498000000000005
 10
3.0026983204422257
 20
26.498000000000005
 10
3.0026983204422257
 20
26.498
 10
3.0026983204422257
 20
26.498
 10
3.0026983204422257
 20
26.498
 10
3.0026983204422257
 20
26.498
 10
3.0026983204422257
 20
26.497999999999998
 10
3.002698320442226
 20
26.497999999999998
 10
3.002698320442226
 20
26.497999999999998
 10
3.002698320442226
 20
26.497999999999994
 10
3.002698320442226
 20
26.497999999999994
 10
3.002698320442226
 20
26.497999999999994
 10
3.002698320442226
 20
26.497999999999994
 10
3.002698320442226
 20
26.49799999999999
 10
3.002698320442226
 20
26.49799999999999
 10
3.002698320442226
 20
26.626066777963274
 10
3.002698320442226
 20
26.77909015025042
 10
3.002698320442226
 20
26.932113522537563
 10
3.002698320442226
 20
27.085136894824707
 10
3.002698320442226
 20
27.23816026711185
 10
3.002698320442226
 20
27.391183639399
 10
3.002698320442226
 20
27.421
 10
3.004507403928337
 20
27.544207011686144
 10
3.007395053999864
 20
27.697230383973288
 10
3.01099068391282
 20
27.850253756260436
 10
3.0152917290683625
 20
28.00327712854758
 10
3.020295121727127
 20
28.156300500834725
 10
3.0259972931973023
 20
28.30932387312187
 10
3.032394176380021
 20
28.462347245409013
 10
3.039481208670229
 20
28.61537061769616
 10
3.04725333521099
 20
28.768393989983306
 10
3.0557050124988825
 20
28.92141736227045
 10
3.0648302123379234
 20
29.074440734557598
 10
3.074622426139213
 20
29.227464106844742
 10
3.085074669563207
 20
29.380487479131887
 10
3.096179487501335
 20
29.53351085141903
 10
3.1079289593933828
 20
29.686534223706175
 10
3.1203147048768702
 20
29.839557595993323
 10
3.133327889764381
 20
29.992580968280468
 10
3.1469592323445847
 20
30.145604340567612
 10
3.161199010002461
 20
30.29862771285476
 10
3.1760370661539943
 20
30.451651085141904
 10
3.1914628174904025
 20
30.60467445742905
 10
3.2074652615267314
 20
30.757697829716193
 10
3.2240329844494204
 20
30.910721202003337
 10
3.2411541692572623
 20
31.063744574290485
 10
3.258816604189922
 20
31.21676794657763
 10
3.277007691438037
 20
31.369791318864774
 10
3.2957144561286578
 20
31.522814691151922
 10
3.3149235555796266
 20
31.675838063439066
 10
3.334621288816315
 20
31.82886143572621
 10
3.3547936063438963
 20
31.981884808013355
 10
3.3754261201682123
 20
32.1349081803005
 10
3.3965041140580734
 20
32.287931552587644
 10
3.4180125540416735
 20
32.44095492487479
 10
3.439936099129641
 20
32.59397829716194
 10
3.4622591122570583
 20
32.747001669449084
 10
3.4849656714366772
 20
32.90002504173623
 10
3.508039581115341
 20
33.05304841402337
 10
3.5314643837255324
 20
33.20607178631052
 10
3.5552233714238106
 20
33.35909515859766
 10
3.5792995980077493
 20
33.512118530884806
 10
3.6036758910028954
 20
33.66514190317196
 10
3.628334863911105
 20
33.8181652754591
 10
3.6532589286115456
 20
33.971188647746246
 10
3.6784303079054994
 20
34.12421202003339
 10
3.703831048196025
 20
34.277235392320534
 10
3.7294430322934446
 20
34.43025876460768
 10
3.7552479923375044
 20
34.58328213689482
 10
3.78122752282701
 20
34.73630550918197
 10
3.807363093747628
 20
34.88932888146911
 10
3.833636063788502
 20
35.04235225375626
 10
3.8600276936382483
 20
35.19537562604341
 10
3.8865191593508532
 20
35.34839899833055
 10
3.9130915657719374
 20
35.501422370617696
 10
3.9397259600158017
 20
35.65444574290484
 10
3.9664033449836613
 20
35.807469115191985
 10
3.9931046929134095
 20
35.96049248747913
 10
4.0198109589512505
 20
36.11351585976628
 10
4.0465030947355265
 20
36.266539232053425
 10
4.073162061983045
 20
36.41956260434057
 10
4.099768846068219
 20
36.572585976627714
 10
4.12630446958533
 20
36.72560934891486
 10
4.152750005884249
 20
36.878632721202
 10
4.179086592569951
 20
37.03165609348915
 10
4.2052954449562
 20
37.18467946577629
 10
4.231357869463816
 20
37.337702838063436
 10
4.25725527695394
 20
37.49072621035059
 10
4.282969195986827
 20
37.64374958263773
 10
4.308481285996687
 20
37.796772954924876
 10
4.333773350373163
 20
37.94979632721202
 10
4.3588273494401495
 20
38.102819699499165
 10
4.383625413322669
 20
38.25584307178631
 10
4.408149854692641
 20
38.40886644407345
 10
4.432383181384443
 20
38.561889816360605
 10
4.456308108871277
 20
38.71491318864775
 10
4.479907572593435
 20
38.86793656093489
 10
4.503164740129668
 20
39.02095993322204
 10
4.6386335222323
 20
39.046
 10
4.6386335222323
 20
39.17398330550918
 10
4.6386335222323
 20
39.32700667779633
 10
4.6386335222323
 20
39.48003005008347
 10
4.6386335222323
 20
39.633053422370615
 10
4.6386335222323
 20
39.78607679465776
 10
4.6386335222323
 20
39.93910016694491
 10
4.6386335222323
 20
39.969
 10
4.655020908833957
 20
40.092123539232055
 10
4.674965473940533
 20
40.2451469115192
 10
4.694428616955536
 20
40.398170283806344
 10
4.7133964557066435
 20
40.55119365609349
 10
4.731855461299482
 20
40.70421702838063
 10
4.749792467767163
 20
40.85724040066778
 10
4.767194681460967
 20
41.01026377295493
 10
4.784049690175474
 20
41.16328714524207
 10
4.80034547200162
 20
41.31631051752922
 10
4.816070403901379
 20
41.46933388981636
 10
4.831213269997942
 20
41.622357262103506
 10
4.845763269575495
 20
41.77538063439065
 10
4.859710024782875
 20
41.928404006677795
 10
4.8730435880356175
 20
42.08142737896494
 10
4.885754449111115
 20
42.23445075125208
 10
4.897833541931828
 20
42.387474123539235
 10
4.909272251031695
 20
42.54049749582638
 10
4.9200624177011685
 20
42.693520868113524
 10
4.930196345806432
 20
42.84654424040067
 10
4.9396668072787175
 20
42.99956761268781
 10
4.948467047269742
 20
43.15259098497496
 10
4.956590788969647
 20
43.3056143572621
 10
4.96403223808395
 20
43.45863772954925
 10
4.970786086966356
 20
43.6116611018364
 10
4.97684751840446
 20
43.76468447412354
 10
4.982212209055639
 20
43.917707846410686
 10
4.986876332530704
 20
44.07073121869783
 10
4.99083656212308
 20
44.223754590984974
 10
4.994090073181602
 20
44.37677796327212
 10
4.996634545125203
 20
44.52980133555926
 10
4.998468163098085
 20
44.68282470784641
 10
4.999589619264166
 20
44.83584808013356
 10
4.999998113739906
 20
44.9888714524207
 10
4.999693355164824
 20
45.14189482470785
 10
4.998675560909315
 20
45.29491819699499
 10
4.996945456919605
 20
45.447941569282136
 10
4.994504277199971
 20
45.60096494156928
 10
4.991353762932579
 20
45.753988313856425
 10
4.987496161235581
 20
45.907011686143576
 10
4.982934223560346
 20
46.06003505843072
 10
4.977671203728977
 20
46.213058430717865
 10
4.971710855613505
 20
46.36608180300501
 10
4.965057430458428
 20
46.519105175292154
 10
4.957715673848486
 20
46.6721285475793
 10
4.9496908223238565
 20
46.82515191986644
 10
4.940988599645169
 20
46.97817529215359
 10
4.931615212711007
 20
47.13119866444073
 10
4.921577347130807
 20
47.28422203672788
 10
4.910882162456322
 20
47.43724540901503
 10
4.899537287075042
 20
47.59026878130217
 10
4.887550812769206
 20
47.743292153589316
 10
4.874931288944306
 20
47.89631552587646
 10
4.86168771653119
 20
48.049338898163604
 10
4.847829541566103
 20
48.20236227045075
 10
4.83336664845326
 20
48.3553856427379
 10
4.818309352914758
 20
48.508409015025045
 10
4.8026683946328355
 20
48.66143238731219
 10
4.786454929589744
 20
48.81445575959933
 10
4.769680522110708
 20
48.96747913188648
 10
4.7523571366156006
 20
49.12050250417362
 10
4.734497129085289
 20
49.273525876460766
 10
4.7161132382486555
 20
49.42654924874791
 10
4.697218576496662
 20
49.579572621035055
 10
4.677826620529865
 20
49.73259599332221
 10
4.657951201746112
 20
49.88561936560935
 10
4.6376064963752235
 20
50.038642737896495
 10
4.6168070153677485
 20
50.19166611018364
 10
4.595567594044952
 20
50.344689482470784
 10
4.573903381517464
 20
50.49771285475793
 10
4.5518298298801145
 20
50.65073622704507
 10
4.529362683190646
 20
50.803759599332224
 10
4.506517966240203
 20
50.95678297161937
 10
4.483311973123584
 20
51.10980634390651
 10
4.459761255617396
 20
51.26282971619366
 10
4.435882611374433
 20
51.4158530884808
 10
4.418154604949572
 20
51.528000710584735
 10
4.386046995942187
 20
51.52774707514742
 10
4.354355150722959
 20
51.53290360825666
 10
4.323984141764048
 20
51.54332304691351
 10
4.295801320397325
 20
51.55870782727975
 10
4.270611546536448
 20
51.57861858266331
 10
4.249134203061892
 20
51.60248669118456
 10
4.231982651304293
 20
51.629630514780594
 10
4.2196467143472605
 20
51.659274865785434
 10
4.212478688400778
 20
51.69057314514927
 10
4.210683281739766
 20
51.72263152006173
 10
4.214311768536933
 20
51.75453445050188
 10
4.2232605245478405
 20
51.78537083571421
 10
4.237273986466864
 20
51.814260033905754
 10
4.255951950439202
 20
51.840377012080005
 10
4.255951950439201
 20
51.874923205342235
 10
4.255951950439201
 20
52.02794657762938
 10
4.255951950439201
 20
52.18096994991653
 10
4.255951950439201
 20
52.333993322203675
 10
4.255951950439201
 20
52.48701669449082
 10
4.255951950439201
 20
52.517
 10
4.235135316200815
 20
52.64004006677796
 10
4.2090957406439795
 20
52.79306343906511
 10
4.182907026630901
 20
52.94608681135225
 10
4.156587853376982
 20
53.0991101836394
 10
4.130156993148245
 20
53.25213355592655
 10
4.103633297871954
 20
53.40515692821369
 10
4.077035685690359
 20
53.55818030050084
 10
4.050383127467283
 20
53.71120367278798
 10
4.023694633257046
 20
53.864227045075125
 10
3.9969892387454697
 20
54.01725041736227
 10
3.9702859916725965
 20
54.170273789649414
 10
3.9436039382467896
 20
54.32329716193656
 10
3.9169621095599605
 20
54.4763205342237
 10
3.890379508013536
 20
54.629343906510854
 10
3.8638750937649347
 20
54.782367278798
 10
3.8374677712041403
 20
54.93539065108514
 10
3.8111763754700596
 20
55.08841402337229
 10
3.785019659016281
 20
55.24143739565943
 10
3.7590162782358076
 20
55.394460767946576
 10
3.7331847801542963
 20
55.54748414023372
 10
3.707543589201313
 20
55.70050751252087
 10
3.68211099406903
 20
55.853530884808016
 10
3.6569051346677357
 20
56.00655425709516
 10
3.6319439891874516
 20
56.159577629382305
 10
3.607245361274931
 20
56.31260100166945
 10
3.582826867335111
 20
56.465624373956594
 10
3.5587059239661425
 20
56.61864774624374
 10
3.5348997355369227
 20
56.77167111853088
 10
3.511425281916007
 20
56.92469449081803
 10
3.4882993063606413
 20
57.07771786310518
 10
3.4655383035745544
 20
57.23074123539232
 10
3.4431585079430453
 20
57.38376460767947
 10
3.4211758819537375
 20
57.53678797996661
 10
3.3996061048112525
 20
57.689811352253756
 10
3.3784645612539657
 20
57.8428347245409
 10
3.3577663305807626
 20
57.995858096828044
 10
3.337526175895664
 20
58.148881469115196
 10
3.317758533577977
 20
58.30190484140234
 10
3.298477502985489
 20
58.454928213689485
 10
3.2796968363980348
 20
58.60795158597663
 10
3.261429929208618
 20
58.76097495826377
 10
3.2436898103691
 20
58.91399833055092
 10
3.2264891330972305
 20
59.06702170283806
 10
3.2098401658516913
 20
59.220045075125206
 10
3.193754783581562
 20
59.37306844741235
 10
3.1782444592564625
 20
59.5260918196995
 10
3.163320255683405
 20
59.67911519198665
 10
3.148992817616196
 20
59.83213856427379
 10
3.135272364163024
 20
59.985161936560935
 10
3.1221686814976337
 20
60.13818530884808
 10
3.1096911158792904
 20
60.291208681135224
 10
3.097848566986526
 20
60.44423205342237
 10
3.0866494815694017
 20
60.59725542570952
 10
3.076101847424824
 20
60.750278797996664
 10
3.0662131876992156
 20
60.90330217028381
 10
3.0569905555225994
 20
61.05632554257095
 10
3.0484405289779195
 20
61.2093489148581
 10
3.0405692064091956
 20
61.36237228714524
 10
3.0333822020718553
 20
61.515395659432386
 10
3.026884642128337
 20
61.66841903171953
 10
3.0210811609918347
 20
61.821442404006675
 10
3.0159758980207823
 20
61.974465776293826
 10
3.011572494566439
 20
62.12748914858097
 10
3.0078740913756756
 20
62.280512520868115
 10
3.004883326350827
 20
62.43353589315526
 10
3.0026023326681957
 20
62.5865592654424
 10
3.0010327372565535
 20
62.73958263772955
 10
3.000175659636727
 20
62.89260601001669
 10
3.0000317111230976
 20
63.045629382303844
 10
3.0006009943875753
 20
63.19865275459099
 10
3.001883103386368
 20
63.35167612687813
 10
3.0038771236495974
 20
63.50469949916528
 10
3.0065816329335435
 20
63.65772287145242
 10
3.009994702235071
 20
63.810746243739565
 10
3.0141138971674946
 20
63.96376961602671
 10
3.0189362796969212
 20
64.11679298831386
 10
3.0642478604075993
 20
64.142
 10
3.0642478604075993
 20
64.269816360601
 10
3.0642478604075993
 20
64.42283973288815
 10
3.0642478604075993
 20
64.57586310517529
 10
3.0642478604075993
 20
64.72888647746244
 10
3.0642478604075993
 20
64.88190984974958
 10
3.0642478604075993
 20
65.03493322203673
 10
3.0642478604075993
 20
65.065
 10
3.0720307821627575
 20
65.18795659432388
 10
3.082313314500495
 20
65.34097996661102
 10
3.093250390901006
 20
65.49400333889817
 10
3.104834210446461
 20
65.6470267111853
 10
3.1170565109266493
 20
65.80005008347246
 10
3.129908574732018
 20
65.9530734557596
 10
3.143381235071561
 20
66.10609682804674
 10
3.1574648825110607
 20
66.2591202003339
 10
3.172149471827064
 20
66.41214357262103
 10
3.1874245291716896
 20
66.56516694490819
 10
3.20327915954313
 20
66.71819031719532
 10
3.219702054556575
 20
66.87121368948247
 10
3.2366815005099565
 20
67.02423706176961
 10
3.254205386738805
 20
67.17726043405676
 10
3.272261214254228
 20
67.33028380634391
 10
3.2908361046578705
 20
67.48330717863105
 10
3.3099168093274995
 20
67.6363305509182
 10
3.3294897188666197
 20
67.78935392320534
 10
3.349540872811459
 20
67.94237729549249
 10
3.370055969588317
 20
68.09540066777963
 10
3.3910203767142306
 20
68.24842404006678
 10
3.4124191412336504
 20
68.40144741235392
 10
3.4342370003837113
 20
68.55447078464107
 10
3.45645839248046
 20
68.70749415692822
 10
3.4790674680182905
 20
68.86051752921536
 10
3.502048100974685
 20
69.01354090150251
 10
3.5253839003121543
 20
69.16656427378965
 10
3.5490582216692403
 20
69.3195876460768
 10
3.5730541792321486
 20
69.47261101836393
 10
3.5973546577786637
 20
69.62563439065109
 10
3.6219423248856284
 20
69.77865776293822
 10
3.6467996432913887
 20
69.93168113522538
 10
3.6719088834043108
 20
70.08470450751253
 10
3.6972521359485007
 20
70.23772787979966
 10
3.722811324737669
 20
70.39075125208682
 10
3.7485682195680425
 20
70.54377462437395
 10
3.774504449221158
 20
70.6967979966611
 10
3.8006015145671896
 20
70.84982136894824
 10
3.8268408017595545
 20
71.00284474123539
 10
3.8532035955113075
 20
71.15586811352254
 10
3.8796710924439077
 20
71.30889148580968
 10
3.9062244144988143
 20
71.46191485809683
 10
3.932844622402333
 20
71.61493823038397
 10
3.9595127291741554
 20
71.76796160267112
 10
3.986209713669883
 20
71.92098497495826
 10
4.01291653414796
 20
72.07400834724541
 10
4.039614141851275
 20
72.22703171953256
 10
4.06628349459376
 20
72.3800550918197
 10
4.0929055703423325
 20
72.53307846410685
 10
4.119461380784423
 20
72.68610183639399
 10
4.145931984871497
 20
72.83912520868114
 10
4.172298502328809
 20
72.99214858096828
 10
4.19854212712188
 20
73.14517195325543
 10
4.224644140869947
 20
73.29819532554257
 10
4.250585926196959
 20
73.45121869782972
 10
4.276348980010482
 20
73.60424207011687
 10
4.301914926699126
 20
73.757265442404
 10
4.327265531239024
 20
73.91028881469116
 10
4.352382712200037
 20
74.0633121869783
 10
4.377248554642427
 20
74.21633555926545
 10
4.401845322894757
 20
74.36935893155258
 10
4.426155473203939
 20
74.52238230383973
 10
4.450161666248389
 20
74.67540567612687
 10
4.473846779505387
 20
74.82842904841402
 10
4.497193919463776
 20
74.98145242070117
 10
4.520186433673339
 20
75.13447579298831
 10
4.542807922622238
 20
75.28749916527546
 10
4.565042251434033
 20
75.4405225375626
 10
4.586873561375952
 20
75.59354590984975
 10
4.6082862811702
 20
75.74656928213689
 10
4.629265138100255
 20
75.89959265442404
 10
4.649795168904183
 20
76.05261602671119
 10
4.669861730447254
 20
76.20563939899833
 10
4.689450510166236
 20
76.35866277128548
 10
4.708547536277875
 20
76.51168614357262
 10
4.727139187744346
 20
76.66470951585977
 10
4.830304205961894
 20
76.69
 10
4.830304205961894
 20
76.8177328881469
 10
4.830304205961894
 20
76.97075626043406
 10
4.830304205961894
 20
77.12377963272121
 10
4.830304205961894
 20
77.27680300500835
 10
4.830304205961894
 20
77.4298263772955
 10
4.830304205961894
 20
77.58284974958264
 10
4.830304205961894
 20
77.613
 10
4.84206411478325
 20
77.73587312186979
 10
4.8561675853805895
 20
77.88889649415692
 10
4.869660390683769
 20
78.04191986644408
 10
4.882532906890089
 20
78.19494323873121
 10
4.8947759526207735
 20
78.34796661101836
 10
4.906380795469634
 20
78.50098998330552
 10
4.9173391582314885
 20
78.65401335559265
 10
4.927643224805924
 20
78.8070367278798
 10
4.937285645772157
 20
78.96006010016694
 10
4.946259543631045
 20
79.1130834724541
 10
4.954558517710485
 20
79.26610684474123
 10
4.962176648730734
 20
79.41913021702838
 10
4.969108503026351
 20
79.57215358931552
 10
4.975349136421785
 20
79.72517696160267
 10
4.98089409775783
 20
79.87820033388982
 10
4.985739432066439
 20
80.03122370617696
 10
4.989881683391615
 20
80.18424707846411
 10
4.9933178972543875
 20
80.33727045075125
 10
4.996045622760116
 20
80.4902938230384
 10
4.99806291434659
 20
80.64331719532554
 10
4.9993683331717165
 20
80.79634056761269
 10
4.999960948139781
 20
80.94936393989984
 10
4.999840336565551
 20
81.10238731218698
 10
4.999006584475763
 20
81.25541068447413
 10
4.99746028654776
 20
81.40843405676127
 10
4.995202545685338
 20
81.56145742904842
 10
4.99223497223209
 20
81.71448080133555
 10
4.988559682822831
 20
81.8675041736227
 10
4.984179298873887
 20
82.02052754590986
 10
4.979096944713368
 20
82.173550918197
 10
4.973316245352721
 20
82.32657429048415
 10
4.966841323901179
 20
82.47959766277128
 10
4.9596767986249315
 20
82.63262103505843
 10
4.951827779653129
 20
82.78564440734557
 10
4.943299865333059
 20
82.93866777963272
 10
4.934099138237102
 20
83.09169115191986
 10
4.924232160824305
 20
83.24471452420701
 10
4.913705970759686
 20
83.39773789649416
 10
4.902528075894585
 20
83.5507612687813
 10
4.8907064489116525
 20
83.70378464106845
 10
4.878249521638308
 20
83.85680801335559
 10
4.8651661790326886
 20
84.00983138564274
 10
4.851465752846426
 20
84.16285475792988
 10
4.837158014968729
 20
84.31587813021703
 10
4.822253170456538
 20
84.46890150250417
 10
4.8067618502557234
 20
84.62192487479132
 10
4.790695103618524
 20
84.77494824707847
 10
4.7740643902226125
 20
84.92797161936561
 10
4.756881571997429
 20
85.08099499165276
 10
4.739158904663611
 20
85.2340183639399
 10
4.720909028991548
 20
85.38704173622705
 10
4.702144961785294
 20
85.54006510851418
 10
4.682880086598273
 20
85.69308848080134
 10
4.663128144187404
 20
85.84611185308849
 10
4.642903222712446
 20
85.99913522537562
 10
4.622219747687556
 20
86.15215859766278
 10
4.6010924716922235
 20
86.30518196994991
 10
4.579536463848925
 20
86.45820534223706
 10
4.5575670990750305
 20
86.6112287145242
 10
4.5352000471165415
 20
86.76425208681135
 10
4.512451261371595
 20
86.9172754590985
 10
4.489336967511635
 20
87.07029883138564
 10
4.465873651908373
 20
87.2233222036728
 10
4.442078049874813
 20
87.37634557595993
 10
4.417967133728711
 20
87.52936894824708
 10
4.3935581006870095
 20
87.68239232053422
 10
4.36886836059983
 20
87.83541569282137
 10
4.343915523532834
 20
87.98843906510851
 10
4.318717387206751
 20
88.14146243739566
 10
4.293291924303097
 20
88.29448580968281
 10
4.267657269645066
 20
88.44750918196995
 10
4.241831707262781
 20
88.6005325542571
 10
4.21583365735215
 20
88.75355592654424
 10
4.189681663136564
 20
88.90657929883139
 10
4.163394377640868
 20
89.05960267111853
 10
4.143700134308266
 20
89.17374065196589
 10
4.11087821173403
 20
89.17179682965512
 10
4.078212618501324
 20
89.17554063325579
 10
4.0466815642984315
 20
89.18485995015668
 10
4.017229283705247
 20
89.19947570242965
 10
3.9907377599759264
 20
89.21895020414713
 10
3.9680003130108554
 20
89.24270026840294
 10
3.949697842457245
 20
89.27001467153168
 10
3.9363784373667015
 20
89.30007545153951
 10
3.928440963022611
 20
89.33198240294013
 10
3.926123116449136
 20
89.36478003446905
 10
3.929494308293681
 20
89.39748618239558
 10
3.9384535842432493
 20
89.42912142257335
 10
3.9527326482203318
 20
89.45873840045061
 10
3.971903896825152
 20
89.48545020071899
 10
3.971903896825152
 20
89.51867278797997
 10
3.971903896825152
 20
89.67169616026712
 10
3.971903896825152
 20
89.82471953255425
 10
3.971903896825152
 20
89.9777429048414
 10
3.971903896825152
 20
90.13076627712854
 10
3.971903896825152
 20
90.161
 10
3.9504896119827864
 20
90.2837896494157
 10
3.923835577002143
 20
90.43681302170283
 10
3.8972358666310374
 20
90.58983639398998
 10
3.870709453229831
 20
90.74285976627714
 10
3.844275256879498
 20
90.89588313856427
 10
3.81795213188679
 20
91.04890651085142
 10
3.7917588533363333
 20
91.20192988313856
 10
3.7657141036992074
 20
91.35495325542571
 10
3.739836459507588
 20
91.50797662771285
 10
3.7141443781049506
 20
91.661
 10
0.0
 20
91.661
 10
0.0
 20
0.0
  0
ENDSEC
  0
SECTION
  2
OBJECTS
  0
DICTIONARY
  5
A
330
0
100
AcDbDictionary
281
1
  3
ACAD_COLOR
350
B
  3
ACAD_GROUP
350
C
  3
ACAD_LAYOUT
350
D
  3
ACAD_MATERIAL
350
E
  3
ACAD_MLEADERSTYLE
350
F
  3
ACAD_MLINESTYLE
350
10
  3
ACAD_PLOTSETTINGS
350
11
  3
ACAD_PLOTSTYLENAME
350
12
  3
ACAD_SCALELIST
350
14
  3
ACAD_TABLESTYLE
350
15
  3
ACAD_VISUALSTYLE
350
16
  3
EZDXF_META
350
2D
  0
DICTIONARY
  5
B
330
A
100
AcDbDictionary
281
1
  0
DICTIONARY
  5
C
330
A
100
AcDbDictionary
281
1
  0
DICTIONARY
  5
D
330
A
100
AcDbDictionary
281
1
  3
Model
350
1A
  3
Layout1
350
1E
  0
DICTIONARY
  5
E
330
A
100
AcDbDictionary
281
1
  3
ByBlock
350
1F
  3
ByLayer
350
20
  3
Global
350
21
  0
DICTIONARY
  5
F
330
A
100
AcDbDictionary
281
1
  3
Standard
350
2C
  0
DICTIONARY
  5
10
330
A
100
AcDbDictionary
281
1
  3
Standard
350
22
  0
DICTIONARY
  5
11
330
A
100
AcDbDictionary
281
1
  0
ACDBDICTIONARYWDFLT
  5
12
330
A
100
AcDbDictionary
281
1
  3
Normal
350
13
100
AcDbDictionaryWithDefault
340
13
  0
ACDBPLACEHOLDER
  5
13
330
12
  0
DICTIONARY
  5
14
330
A
100
AcDbDictionary
281
1
  0
DICTIONARY
  5
15
330
A
100
AcDbDictionary
281
1
  0
DICTIONARY
  5
16
330
A
100
AcDbDictionary
281
1
  0
LAYOUT
  5
1A
330
D
100
AcDbPlotSettings
  1

  4
A3
  6

 40
7.5
 41
20.0
 42
7.5
 43
20.0
 44
420.0
 45
297.0
 46
0.0
 47
0.0
 48
0.0
 49
0.0
140
0.0
141
0.0
142
1.0
143
1.0
 70
1024
 72
1
 73
0
 74
5
  7

 75
16
 76
0
 77
2
 78
300
147
1.0
148
0.0
149
0.0
100
AcDbLayout
  1
Model
 70
1
 71
0
 10
0.0
 20
0.0
 11
420.0
 21
297.0
 12
0.0
 22
0.0
 32
0.0
 14
1e+20
 24
1e+20
 34
1e+20
 15
-1e+20
 25
-1e+20
 35
-1e+20
146
0.0
 13
0.0
 23
0.0
 33
0.0
 16
1.0
 26
0.0
 36
0.0
 17
0.0
 27
1.0
 37
0.0
 76
1
330
17
  0
LAYOUT
  5
1E
330
D
100
AcDbPlotSettings
  1

  4
A3
  6

 40
7.5
 41
20.0
 42
7.5
 43
20.0
 44
420.0
 45
297.0
 46
0.0
 47
0.0
 48
0.0
 49
0.0
140
0.0
141
0.0
142
1.0
143
1.0
 70
0
 72
1
 73
0
 74
5
  7

 75
16
 76
0
 77
2
 78
300
147
1.0
148
0.0
149
0.0
100
AcDbLayout
  1
Layout1
 70
1
 71
1
 10
0.0
 20
0.0
 11
420.0
 21
297.0
 12
0.0
 22
0.0
 32
0.0
 14
1e+20
 24
1e+20
 34
1e+20
 15
-1e+20
 25
-1e+20
 35
-1e+20
146
0.0
 13
0.0
 23
0.0
 33
0.0
 16
1.0
 26
0.0
 36
0.0
 17
0.0
 27
1.0
 37
0.0
 76
1
330
1B
  0
MATERIAL
  5
1F
102
{ACAD_REACTORS
330
E
102
}
330
E
100
AcDbMaterial
  1
ByBlock
  2

 70
0
 40
1.0
 71
1
 41
1.0
 91
-1023410177
 42
1.0
 72
1
  3

 73
1
 74
1
 75
1
 44
0.5
 73
0
 45
1.0
 46
1.0
 77
1
  4

 78
1
 79
1
170
1
 48
1.0
171
1
  6

172
1
173
1
174
1
140
1.0
141
1.0
175
1
  7

176
1
177
1
178
1
143
1.0
179
1
  8

270
1
271
1
272
1
145
1.0
146
1.0
273
1
  9

274
1
275
1
276
1
 42
1.0
 72
1
  3

 73
1
 74
1
 75
1
 94
63
  0
MATERIAL
  5
20
102
{ACAD_REACTORS
330
E
102
}
330
E
100
AcDbMaterial
  1
ByLayer
  2

 70
0
 40
1.0
 71
1
 41
1.0
 91
-1023410177
 42
1.0
 72
1
  3

 73
1
 74
1
 75
1
 44
0.5
 73
0
 45
1.0
 46
1.0
 77
1
  4

 78
1
 79
1
170
1
 48
1.0
171
1
  6

172
1
173
1
174
1
140
1.0
141
1.0
175
1
  7

176
1
177
1
178
1
143
1.0
179
1
  8

270
1
271
1
272
1
145
1.0
146
1.0
273
1
  9

274
1
275
1
276
1
 42
1.0
 72
1
  3

 73
1
 74
1
 75
1
 94
63
  0
MATERIAL
  5
21
102
{ACAD_REACTORS
330
E
102
}
330
E
100
AcDbMaterial
  1
Global
  2

 70
0
 40
1.0
 71
1
 41
1.0
 91
-1023410177
 42
1.0
 72
1
  3

 73
1
 74
1
 75
1
 44
0.5
 73
0
 45
1.0
 46
1.0
 77
1
  4

 78
1
 79
1
170
1
 48
1.0
171
1
  6

172
1
173
1
174
1
140
1.0
141
1.0
175
1
  7

176
1
177
1
178
1
143
1.0
179
1
  8

270
1
271
1
272
1
145
1.0
146
1.0
273
1
  9

274
1
275
1
276
1
 42
1.0
 72
1
  3

 73
1
 74
1
 75
1
 94
63
  0
MLINESTYLE
  5
22
102
{ACAD_REACTORS
330
10
102
}
330
10
100
AcDbMlineStyle
  2
Standard
 70
0
  3

 62
256
 51
90.0
 52
90.0
 71
2
 49
0.5
 62
256
  6
BYLAYER
 49
-0.5
 62
256
  6
BYLAYER
  0
MLEADERSTYLE
  5
2C
102
{ACAD_REACTORS
330
F
102
}
330
F
100
AcDbMLeaderStyle
179
2
170
2
171
1
172
0
 90
2
 40
0.0
 41
0.0
173
1
 91
-1056964608
 92
-2
290
1
 42
2.0
291
1
 43
8.0
  3
Standard
 44
4.0
300

342
29
174
1
175
1
176
0
178
1
 93
-1056964608
 45
4.0
292
0
297
0
 46
4.0
 94
-1056964608
 47
1.0
 49
1.0
140
1.0
294
1
141
0.0
177
0
142
1.0
295
0
296
0
143
3.75
271
0
272
9
273
9
  0
DICTIONARY
  5
2D
330
A
100
AcDbDictionary
280
1
281
1
  3
CREATED_BY_EZDXF
350
2E
  3
WRITTEN_BY_EZDXF
350
32
  0
DICTIONARYVAR
  5
2E
330
2D
100
DictionaryVariables
280
0
  1
1.4.3 @ 2026-05-08T22:22:51.915028+00:00
  0
DICTIONARYVAR
  5
32
330
2D
100
DictionaryVariables
280
0
  1
1.4.3 @ 2026-05-08T22:22:51.919871+00:00
  0
ENDSEC
  0
EOF
