  0
SECTION
  2
HEADER
  9
$ACADVER
  1
AC1024
  9
$ACADMAINTVER
 70
6
  9
$DWGCODEPAGE
  3
ANSI_1252
  9
$LASTSAVEDBY
  1
ezdxf
  9
$INSBASE
 10
0.0
 20
0.0
 30
0.0
  9
$EXTMIN
 10
1e+20
 20
1e+20
 30
1e+20
  9
$EXTMAX
 10
-1e+20
 20
-1e+20
 30
-1e+20
  9
$LIMMIN
 10
0.0
 20
0.0
  9
$LIMMAX
 10
420.0
 20
297.0
  9
$ORTHOMODE
 70
0
  9
$REGENMODE
 70
1
  9
$FILLMODE
 70
1
  9
$QTEXTMODE
 70
0
  9
$MIRRTEXT
 70
1
  9
$LTSCALE
 40
1.0
  9
$ATTMODE
 70
1
  9
$TEXTSIZE
 40
2.5
  9
$TRACEWID
 40
1.0
  9
$TEXTSTYLE
  7
Standard
  9
$CLAYER
  8
0
  9
$CELTYPE
  6
ByLayer
  9
$CECOLOR
 62
256
  9
$CELTSCALE
 40
1.0
  9
$DISPSILH
 70
0
  9
$DIMSCALE
 40
1.0
  9
$DIMASZ
 40
2.5
  9
$DIMEXO
 40
0.625
  9
$DIMDLI
 40
3.75
  9
$DIMRND
 40
0.0
  9
$DIMDLE
 40
0.0
  9
$DIMEXE
 40
1.25
  9
$DIMTP
 40
0.0
  9
$DIMTM
 40
0.0
  9
$DIMTXT
 40
2.5
  9
$DIMCEN
 40
2.5
  9
$DIMTSZ
 40
0.0
  9
$DIMTOL
 70
0
  9
$DIMLIM
 70
0
  9
$DIMTIH
 70
0
  9
$DIMTOH
 70
0
  9
$DIMSE1
 70
0
  9
$DIMSE2
 70
0
  9
$DIMTAD
 70
1
  9
$DIMZIN
 70
8
  9
$DIMBLK
  1

  9
$DIMASO
 70
1
  9
$DIMSHO
 70
1
  9
$DIMPOST
  1

  9
$DIMAPOST
  1

  9
$DIMALT
 70
0
  9
$DIMALTD
 70
3
  9
$DIMALTF
 40
0.03937007874
  9
$DIMLFAC
 40
1.0
  9
$DIMTOFL
 70
1
  9
$DIMTVP
 40
0.0
  9
$DIMTIX
 70
0
  9
$DIMSOXD
 70
0
  9
$DIMSAH
 70
0
  9
$DIMBLK1
  1

  9
$DIMBLK2
  1

  9
$DIMSTYLE
  2
ISO-25
  9
$DIMCLRD
 70
0
  9
$DIMCLRE
 70
0
  9
$DIMCLRT
 70
0
  9
$DIMTFAC
 40
1.0
  9
$DIMGAP
 40
0.625
  9
$DIMJUST
 70
0
  9
$DIMSD1
 70
0
  9
$DIMSD2
 70
0
  9
$DIMTOLJ
 70
0
  9
$DIMTZIN
 70
8
  9
$DIMALTZ
 70
0
  9
$DIMALTTZ
 70
0
  9
$DIMUPT
 70
0
  9
$DIMDEC
 70
2
  9
$DIMTDEC
 70
2
  9
$DIMALTU
 70
2
  9
$DIMALTTD
 70
3
  9
$DIMTXSTY
  7
Standard
  9
$DIMAUNIT
 70
0
  9
$DIMADEC
 70
0
  9
$DIMALTRND
 40
0.0
  9
$DIMAZIN
 70
0
  9
$DIMDSEP
 70
44
  9
$DIMATFIT
 70
3
  9
$DIMFRAC
 70
0
  9
$DIMLDRBLK
  1

  9
$DIMLUNIT
 70
2
  9
$DIMLWD
 70
-2
  9
$DIMLWE
 70
-2
  9
$DIMTMOVE
 70
0
  9
$DIMFXL
 40
1.0
  9
$DIMFXLON
 70
0
  9
$DIMJOGANG
 40
0.785398163397
  9
$DIMTFILL
 70
0
  9
$DIMTFILLCLR
 70
0
  9
$DIMARCSYM
 70
0
  9
$DIMLTYPE
  6

  9
$DIMLTEX1
  6

  9
$DIMLTEX2
  6

  9
$DIMTXTDIRECTION
 70
0
  9
$LUNITS
 70
2
  9
$LUPREC
 70
4
  9
$SKETCHINC
 40
1.0
  9
$FILLETRAD
 40
10.0
  9
$AUNITS
 70
0
  9
$AUPREC
 70
2
  9
$MENU
  1
.
  9
$ELEVATION
 40
0.0
  9
$PELEVATION
 40
0.0
  9
$THICKNESS
 40
0.0
  9
$LIMCHECK
 70
0
  9
$CHAMFERA
 40
0.0
  9
$CHAMFERB
 40
0.0
  9
$CHAMFERC
 40
0.0
  9
$CHAMFERD
 40
0.0
  9
$SKPOLY
 70
0
  9
$TDCREATE
 40
2461185.8805671297
  9
$TDUCREATE
 40
2458532.153996898
  9
$TDUPDATE
 40
2461185.8805671297
  9
$TDUUPDATE
 40
2458532.1544311
  9
$TDINDWG
 40
0.0
  9
$TDUSRTIMER
 40
0.0
  9
$USRTIMER
 70
1
  9
$ANGBASE
 50
0.0
  9
$ANGDIR
 70
0
  9
$PDMODE
 70
0
  9
$PDSIZE
 40
0.0
  9
$PLINEWID
 40
0.0
  9
$SPLFRAME
 70
0
  9
$SPLINETYPE
 70
6
  9
$SPLINESEGS
 70
8
  9
$HANDSEED
  5
33
  9
$SURFTAB1
 70
6
  9
$SURFTAB2
 70
6
  9
$SURFTYPE
 70
6
  9
$SURFU
 70
6
  9
$SURFV
 70
6
  9
$UCSBASE
  2

  9
$UCSNAME
  2

  9
$UCSORG
 10
0.0
 20
0.0
 30
0.0
  9
$UCSXDIR
 10
1.0
 20
0.0
 30
0.0
  9
$UCSYDIR
 10
0.0
 20
1.0
 30
0.0
  9
$UCSORTHOREF
  2

  9
$UCSORTHOVIEW
 70
0
  9
$UCSORGTOP
 10
0.0
 20
0.0
 30
0.0
  9
$UCSORGBOTTOM
 10
0.0
 20
0.0
 30
0.0
  9
$UCSORGLEFT
 10
0.0
 20
0.0
 30
0.0
  9
$UCSORGRIGHT
 10
0.0
 20
0.0
 30
0.0
  9
$UCSORGFRONT
 10
0.0
 20
0.0
 30
0.0
  9
$UCSORGBACK
 10
0.0
 20
0.0
 30
0.0
  9
$PUCSBASE
  2

  9
$PUCSNAME
  2

  9
$PUCSORG
 10
0.0
 20
0.0
 30
0.0
  9
$PUCSXDIR
 10
1.0
 20
0.0
 30
0.0
  9
$PUCSYDIR
 10
0.0
 20
1.0
 30
0.0
  9
$PUCSORTHOREF
  2

  9
$PUCSORTHOVIEW
 70
0
  9
$PUCSORGTOP
 10
0.0
 20
0.0
 30
0.0
  9
$PUCSORGBOTTOM
 10
0.0
 20
0.0
 30
0.0
  9
$PUCSORGLEFT
 10
0.0
 20
0.0
 30
0.0
  9
$PUCSORGRIGHT
 10
0.0
 20
0.0
 30
0.0
  9
$PUCSORGFRONT
 10
0.0
 20
0.0
 30
0.0
  9
$PUCSORGBACK
 10
0.0
 20
0.0
 30
0.0
  9
$USERI1
 70
0
  9
$USERI2
 70
0
  9
$USERI3
 70
0
  9
$USERI4
 70
0
  9
$USERI5
 70
0
  9
$USERR1
 40
0.0
  9
$USERR2
 40
0.0
  9
$USERR3
 40
0.0
  9
$USERR4
 40
0.0
  9
$USERR5
 40
0.0
  9
$WORLDVIEW
 70
1
  9
$SHADEDGE
 70
3
  9
$SHADEDIF
 70
70
  9
$TILEMODE
 70
1
  9
$MAXACTVP
 70
64
  9
$PINSBASE
 10
0.0
 20
0.0
 30
0.0
  9
$PLIMCHECK
 70
0
  9
$PEXTMIN
 10
1e+20
 20
1e+20
 30
1e+20
  9
$PEXTMAX
 10
-1e+20
 20
-1e+20
 30
-1e+20
  9
$PLIMMIN
 10
0.0
 20
0.0
  9
$PLIMMAX
 10
420.0
 20
297.0
  9
$UNITMODE
 70
0
  9
$VISRETAIN
 70
1
  9
$PLINEGEN
 70
0
  9
$PSLTSCALE
 70
1
  9
$TREEDEPTH
 70
3020
  9
$CMLSTYLE
  2
Standard
  9
$CMLJUST
 70
0
  9
$CMLSCALE
 40
20.0
  9
$PROXYGRAPHICS
 70
1
  9
$MEASUREMENT
 70
1
  9
$CELWEIGHT
370
-1
  9
$ENDCAPS
280
0
  9
$JOINSTYLE
280
0
  9
$LWDISPLAY
290
0
  9
$INSUNITS
 70
1
  9
$HYPERLINKBASE
  1

  9
$STYLESHEET
  1

  9
$XEDIT
290
1
  9
$CEPSNTYPE
380
0
  9
$PSTYLEMODE
290
1
  9
$FINGERPRINTGUID
  2
{F04CDC2A-4481-4201-835A-ED2400E0F81F}
  9
$VERSIONGUID
  2
{CBDB842C-9758-492C-AFF6-3F2B47278555}
  9
$EXTNAMES
290
1
  9
$PSVPSCALE
 40
0.0
  9
$OLESTARTUP
290
0
  9
$SORTENTS
280
127
  9
$INDEXCTL
280
0
  9
$HIDETEXT
280
1
  9
$XCLIPFRAME
280
1
  9
$HALOGAP
280
0
  9
$OBSCOLOR
 70
257
  9
$OBSLTYPE
280
0
  9
$INTERSECTIONDISPLAY
280
0
  9
$INTERSECTIONCOLOR
 70
257
  9
$DIMASSOC
280
2
  9
$PROJECTNAME
  1

  9
$CAMERADISPLAY
290
0
  9
$LENSLENGTH
 40
50.0
  9
$CAMERAHEIGHT
 40
0.0
  9
$STEPSPERSEC
 40
24.0
  9
$STEPSIZE
 40
100.0
  9
$3DDWFPREC
 40
2.0
  9
$PSOLWIDTH
 40
0.005
  9
$PSOLHEIGHT
 40
0.08
  9
$LOFTANG1
 40
1.570796326795
  9
$LOFTANG2
 40
1.570796326795
  9
$LOFTMAG1
 40
0.0
  9
$LOFTMAG2
 40
0.0
  9
$LOFTPARAM
 70
7
  9
$LOFTNORMALS
280
1
  9
$LATITUDE
 40
37.795
  9
$LONGITUDE
 40
-122.394
  9
$NORTHDIRECTION
 40
0.0
  9
$TIMEZONE
 70
-8000
  9
$LIGHTGLYPHDISPLAY
280
1
  9
$TILEMODELIGHTSYNCH
280
1
  9
$CMATERIAL
347
20
  9
$SOLIDHIST
280
0
  9
$SHOWHIST
280
1
  9
$DWFFRAME
280
2
  9
$DGNFRAME
280
2
  9
$REALWORLDSCALE
290
1
  9
$INTERFERECOLOR
 62
256
  9
$CSHADOW
280
0
  9
$SHADOWPLANELOCATION
 40
0.0
  0
ENDSEC
  0
SECTION
  2
CLASSES
  0
CLASS
  1
ACDBDICTIONARYWDFLT
  2
AcDbDictionaryWithDefault
  3
ObjectDBX Classes
 90
0
 91
0
280
0
281
0
  0
CLASS
  1
SUN
  2
AcDbSun
  3
SCENEOE
 90
1153
 91
0
280
0
281
0
  0
CLASS
  1
VISUALSTYLE
  2
AcDbVisualStyle
  3
ObjectDBX Classes
 90
4095
 91
0
280
0
281
0
  0
CLASS
  1
MATERIAL
  2
AcDbMaterial
  3
ObjectDBX Classes
 90
1153
 91
0
280
0
281
0
  0
CLASS
  1
SCALE
  2
AcDbScale
  3
ObjectDBX Classes
 90
1153
 91
0
280
0
281
0
  0
CLASS
  1
TABLESTYLE
  2
AcDbTableStyle
  3
ObjectDBX Classes
 90
4095
 91
0
280
0
281
0
  0
CLASS
  1
MLEADERSTYLE
  2
AcDbMLeaderStyle
  3
ACDB_MLEADERSTYLE_CLASS
 90
4095
 91
0
280
0
281
0
  0
CLASS
  1
DICTIONARYVAR
  2
AcDbDictionaryVar
  3
ObjectDBX Classes
 90
0
 91
0
280
0
281
0
  0
CLASS
  1
CELLSTYLEMAP
  2
AcDbCellStyleMap
  3
ObjectDBX Classes
 90
1152
 91
0
280
0
281
0
  0
CLASS
  1
MENTALRAYRENDERSETTINGS
  2
AcDbMentalRayRenderSettings
  3
SCENEOE
 90
1024
 91
0
280
0
281
0
  0
CLASS
  1
ACDBDETAILVIEWSTYLE
  2
AcDbDetailViewStyle
  3
ObjectDBX Classes
 90
1025
 91
0
280
0
281
0
  0
CLASS
  1
ACDBSECTIONVIEWSTYLE
  2
AcDbSectionViewStyle
  3
ObjectDBX Classes
 90
1025
 91
0
280
0
281
0
  0
CLASS
  1
RASTERVARIABLES
  2
AcDbRasterVariables
  3
ISM
 90
0
 91
0
280
0
281
0
  0
CLASS
  1
LAYOUT
  2
AcDbLayout
  3
ObjectDBX Classes
 90
0
 91
0
280
0
281
0
  0
CLASS
  1
ACDBPLACEHOLDER
  2
AcDbPlaceHolder
  3
ObjectDBX Classes
 90
0
 91
0
280
0
281
0
  0
ENDSEC
  0
SECTION
  2
TABLES
  0
TABLE
  2
VPORT
  5
8
330
0
100
AcDbSymbolTable
 70
1
  0
VPORT
  5
23
330
8
100
AcDbSymbolTableRecord
100
AcDbViewportTableRecord
  2
*Active
 70
0
 10
0.0
 20
0.0
 11
1.0
 21
1.0
 12
0.0
 22
0.0
 13
0.0
 23
0.0
 14
0.5
 24
0.5
 15
0.5
 25
0.5
 16
0.0
 26
0.0
 36
1.0
 17
0.0
 27
0.0
 37
0.0
 40
1000.0
 41
1.34
 42
50.0
 43
0.0
 44
0.0
 50
0.0
 51
0.0
 71
0
 72
1000
 73
1
 74
3
 75
0
 76
0
 77
0
 78
0
281
0
 65
0
146
0.0
  0
ENDTAB
  0
TABLE
  2
LTYPE
  5
2
330
0
100
AcDbSymbolTable
 70
3
  0
LTYPE
  5
24
330
2
100
AcDbSymbolTableRecord
100
AcDbLinetypeTableRecord
  2
ByBlock
 70
0
  3

 72
65
 73
0
 40
0.0
  0
LTYPE
  5
25
330
2
100
AcDbSymbolTableRecord
100
AcDbLinetypeTableRecord
  2
ByLayer
 70
0
  3

 72
65
 73
0
 40
0.0
  0
LTYPE
  5
26
330
2
100
AcDbSymbolTableRecord
100
AcDbLinetypeTableRecord
  2
Continuous
 70
0
  3

 72
65
 73
0
 40
0.0
  0
ENDTAB
  0
TABLE
  2
LAYER
  5
1
330
0
100
AcDbSymbolTable
 70
2
  0
LAYER
  5
27
330
1
100
AcDbSymbolTableRecord
100
AcDbLayerTableRecord
  2
0
 70
0
 62
7
  6
Continuous
370
-3
390
13
347
21
  0
LAYER
  5
28
330
1
100
AcDbSymbolTableRecord
100
AcDbLayerTableRecord
  2
Defpoints
 70
0
 62
7
  6
Continuous
290
0
370
-3
390
13
347
21
  0
ENDTAB
  0
TABLE
  2
STYLE
  5
5
330
0
100
AcDbSymbolTable
 70
1
  0
STYLE
  5
29
330
5
100
AcDbSymbolTableRecord
100
AcDbTextStyleTableRecord
  2
Standard
 70
0
 40
0.0
 41
1.0
 50
0.0
 71
0
 42
2.5
  3
txt
  4

  0
ENDTAB
  0
TABLE
  2
VIEW
  5
7
330
0
100
AcDbSymbolTable
 70
0
  0
ENDTAB
  0
TABLE
  2
UCS
  5
6
330
0
100
AcDbSymbolTable
 70
0
  0
ENDTAB
  0
TABLE
  2
APPID
  5
3
330
0
100
AcDbSymbolTable
 70
3
  0
APPID
  5
2A
330
3
100
AcDbSymbolTableRecord
100
AcDbRegAppTableRecord
  2
ACAD
 70
0
  0
APPID
  5
30
330
3
100
AcDbSymbolTableRecord
100
AcDbRegAppTableRecord
  2
HATCHBACKGROUNDCOLOR
 70
0
  0
APPID
  5
31
330
3
100
AcDbSymbolTableRecord
100
AcDbRegAppTableRecord
  2
EZDXF
 70
0
  0
ENDTAB
  0
TABLE
  2
DIMSTYLE
  5
4
330
0
100
AcDbSymbolTable
 70
1
100
AcDbDimStyleTable
  0
DIMSTYLE
105
2B
330
4
100
AcDbSymbolTableRecord
100
AcDbDimStyleTableRecord
  2
Standard
 70
0
 40
1.0
 41
2.5
 42
0.625
 43
3.75
 44
1.25
 45
0.0
 46
0.0
 47
0.0
 48
0.0
 49
2.5
140
2.5
141
2.5
142
0.0
143
0.03937007874
144
1.0
145
0.0
146
1.0
147
0.625
148
0.0
 69
0
 70
0
 71
0
 72
0
 73
0
 74
0
 75
0
 76
0
 77
1
 78
8
 79
3
170
0
171
3
172
1
173
0
174
0
175
0
176
0
177
0
178
0
179
2
271
2
272
2
273
2
274
3
275
0
276
0
277
2
278
44
279
0
280
0
281
0
282
0
283
0
284
8
285
0
286
0
288
0
289
3
290
0
371
-2
372
-2
  0
ENDTAB
  0
TABLE
  2
BLOCK_RECORD
  5
9
330
0
100
AcDbSymbolTable
 70
2
  0
BLOCK_RECORD
  5
17
330
9
100
AcDbSymbolTableRecord
100
AcDbBlockTableRecord
  2
*Model_Space
340
1A
 70
0
280
1
281
0
  0
BLOCK_RECORD
  5
1B
330
9
100
AcDbSymbolTableRecord
100
AcDbBlockTableRecord
  2
*Paper_Space
340
1E
 70
0
280
1
281
0
  0
ENDTAB
  0
ENDSEC
  0
SECTION
  2
BLOCKS
  0
BLOCK
  5
18
330
17
100
AcDbEntity
  8
0
100
AcDbBlockBegin
  2
*Model_Space
 70
0
 10
0.0
 20
0.0
 30
0.0
  3
*Model_Space
  1

  0
ENDBLK
  5
19
330
17
100
AcDbEntity
  8
0
100
AcDbBlockEnd
  0
BLOCK
  5
1C
330
1B
100
AcDbEntity
  8
0
100
AcDbBlockBegin
  2
*Paper_Space
 70
0
 10
0.0
 20
0.0
 30
0.0
  3
*Paper_Space
  1

  0
ENDBLK
  5
1D
330
1B
100
AcDbEntity
  8
0
100
AcDbBlockEnd
  0
ENDSEC
  0
SECTION
  2
ENTITIES
  0
LWPOLYLINE
  5
2F
330
17
100
AcDbEntity
  8
SHELF
100
AcDbPolyline
 90
652
 70
1
 10
0.0
 20
0.0
 10
4.160398029091792
 20
0.0
 10
4.160398029091792
 20
0.13124040066777964
 10
4.160398029091792
 20
0.2624808013355593
 10
4.160398029091792
 20
0.39372120200333893
 10
4.160398029091792
 20
0.5249616026711186
 10
4.160398029091792
 20
0.6562020033388982
 10
4.160398029091792
 20
0.7874424040066779
 10
4.160398029091792
 20
0.9186828046744575
 10
4.160398029091792
 20
0.923
 10
4.18222234671728
 20
1.0499232053422372
 10
4.204694843413489
 20
1.1811636060100168
 10
4.2270599466721475
 20
1.3124040066777964
 10
4.249305922610368
 20
1.443644407345576
 10
4.27142109984558
 20
1.5748848080133557
 10
4.293393875618937
 20
1.7061252086811354
 10
4.315212721882719
 20
1.837365609348915
 10
4.33686619134854
 20
1.9686060100166947
 10
4.3583429234931845
 20
2.0998464106844743
 10
4.37963165051892
 20
2.231086811352254
 10
4.400721203265165
 20
2.3623272120200336
 10
4.421600517068402
 20
2.493567612687813
 10
4.4422586375672735
 20
2.624808013355593
 10
4.462684726449799
 20
2.7560484140233728
 10
4.482868067139712
 20
2.887288814691152
 10
4.502798070418926
 20
3.0185292153589316
 10
4.522464279983184
 20
3.1497696160267115
 10
4.541856377927973
 20
3.2810100166944913
 10
4.560964190161827
 20
3.4122504173622707
 10
4.579777691744177
 20
3.54349081803005
 10
4.598287012144952
 20
3.67473121869783
 10
4.616482440423166
 20
3.80597161936561
 10
4.634354430321776
 20
3.9372120200333893
 10
4.651893605276141
 20
4.068452420701169
 10
4.669090763333447
 20
4.199692821368949
 10
4.685936881980528
 20
4.3309332220367285
 10
4.702423122877538
 20
4.462173622704508
 10
4.718540836494997
 20
4.593414023372287
 10
4.734281566651783
 20
4.724654424040067
 10
4.749637054951675
 20
4.855894824707847
 10
4.764599245116137
 20
4.987135225375626
 10
4.77916028721105
 20
5.118375626043406
 10
4.793312541765195
 20
5.249616026711186
 10
4.807048583778312
 20
5.380856427378966
 10
4.820361206616635
 20
5.5120968280467455
 10
4.833243425793865
 20
5.6433372287145245
 10
4.845688482635588
 20
5.774577629382304
 10
4.857689847825226
 20
5.905818030050084
 10
4.869241224829649
 20
6.037058430717863
 10
4.88033655320266
 20
6.168298831385643
 10
4.890970011764622
 20
6.299539232053423
 10
4.901136021656542
 20
6.430779632721203
 10
4.910829249267027
 20
6.562020033388983
 10
4.920044609030577
 20
6.693260434056762
 10
4.928777266095728
 20
6.8245008347245415
 10
4.937022638861666
 20
6.955741235392321
 10
4.9447764013819695
 20
7.0869816360601
 10
4.9520344856342255
 20
7.21822203672788
 10
4.958793083654321
 20
7.34946243739566
 10
4.965048649534297
 20
7.48070283806344
 10
4.9707979012827135
 20
7.61194323873122
 10
4.976037822546553
 20
7.743183639398999
 10
4.980765664193755
 20
7.874424040066779
 10
4.984978945755548
 20
8.005664440734558
 10
4.988675456727831
 20
8.136904841402337
 10
4.991853257730925
 20
8.268145242070117
 10
4.994510681527062
 20
8.399385642737897
 10
4.996646333895111
 20
8.530626043405677
 10
4.99825909436205
 20
8.661866444073457
 10
4.9993481167908325
 20
8.793106844741237
 10
4.99991282982431
 20
8.924347245409017
 10
4.999952937184994
 20
9.055587646076795
 10
4.999468417830502
 20
9.186828046744575
 10
4.998459525964595
 20
9.318068447412355
 10
4.996926790903809
 20
9.449308848080134
 10
4.99487101679975
 20
9.580549248747914
 10
4.992293282217194
 20
9.711789649415694
 10
4.989194939568216
 20
9.843030050083474
 10
4.985577614402645
 20
9.974270450751252
 10
4.981443204555218
 20
10.105510851419032
 10
4.976793879149877
 20
10.236751252086812
 10
4.971632077461738
 20
10.367991652754592
 10
4.965960507637316
 20
10.499232053422372
 10
4.9597821452736985
 20
10.630472454090151
 10
4.953100231857391
 20
10.761712854757931
 10
4.945918273063668
 20
10.892953255425711
 10
4.938240036917313
 20
11.024193656093491
 10
4.9300695518157225
 20
11.155434056761269
 10
4.921411104415397
 20
11.286674457429049
 10
4.912269237382946
 20
11.417914858096829
 10
4.90264874701177
 20
11.549155258764609
 10
4.892554680705674
 20
11.680395659432389
 10
4.8819923343307465
 20
11.811636060100168
 10
4.8709672494368705
 20
11.942876460767948
 10
4.859485210350345
 20
12.074116861435726
 10
4.847552241139131
 20
12.205357262103506
 10
4.835174602452311
 20
12.336597662771286
 10
4.822358788235433
 20
12.467838063439066
 10
4.809111522323455
 20
12.599078464106846
 10
4.795439754913074
 20
12.730318864774626
 10
4.781350658916295
 20
12.861559265442406
 10
4.766851626197151
 20
12.992799666110185
 10
4.751950263693555
 20
13.124040066777965
 10
4.736654389426308
 20
13.255280467445743
 10
4.7209720283973615
 20
13.386520868113523
 10
4.704911408379489
 20
13.517761268781303
 10
4.688480955599578
 20
13.649001669449083
 10
4.671689290317793
 20
13.780242070116863
 10
4.659329953406335
 20
13.874854639725909
 10
4.630346767726647
 20
13.878846270177398
 10
4.602320007283648
 20
13.887240248070823
 10
4.57591420765801
 20
13.899837545873732
 10
4.551755470229627
 20
13.91633947217556
 10
4.530416616842746
 20
13.936354753885738
 10
4.512403607768985
 20
13.959408813613107
 10
4.498143545008551
 20
13.984955022253002
 10
4.487974545380407
 20
14.012387659974653
 10
4.482137723518067
 20
14.0410562782942
 10
4.480771474860184
 20
14.07028112269771
 10
4.483908194190559
 20
14.09936925013223
 10
4.491473507533442
 20
14.12763095920703
 10
4.503288035616456
 20
14.154396143532571
 10
4.51907164708814
 20
14.179030180447285
 10
4.51907164708814
 20
14.30520367278798
 10
4.51907164708814
 20
14.43644407345576
 10
4.51907164708814
 20
14.56768447412354
 10
4.51907164708814
 20
14.69892487479132
 10
4.51907164708814
 20
14.8301652754591
 10
4.51907164708814
 20
14.873
 10
4.505822142579669
 20
14.96140567612688
 10
4.485931796512228
 20
15.09264607679466
 10
4.465786505644162
 20
15.22388647746244
 10
4.445396839230666
 20
15.355126878130218
 10
4.424773494738906
 20
15.486367278797998
 10
4.403927292235582
 20
15.617607679465777
 10
4.3828691687101635
 20
15.748848080133557
 10
4.361610172336779
 20
15.880088480801337
 10
4.340161456677785
 20
16.011328881469115
 10
4.318534274832022
 20
16.142569282136897
 10
4.2967399735308724
 20
16.273809682804675
 10
4.27478998718517
 20
16.405050083472457
 10
4.252695831886131
 20
16.536290484140235
 10
4.230469099363413
 20
16.667530884808016
 10
4.208121450903503
 20
16.798771285475794
 10
4.185664611231602
 20
16.930011686143573
 10
4.163110362360234
 20
17.061252086811354
 10
4.140470537407799
 20
17.192492487479132
 10
4.117757014390306
 20
17.323732888146914
 10
4.094981709989559
 20
17.454973288814692
 10
4.07215657330105
 20
17.586213689482474
 10
4.0492935795648535
 20
17.71745409015025
 10
4.026404723882793
 20
17.848694490818033
 10
4.003502014925204
 20
17.97993489148581
 10
3.9805974686305583
 20
18.11117529215359
 10
3.9577031019012887
 20
18.24241569282137
 10
3.9348309262991084
 20
18.37365609348915
 10
3.9119929417431223
 20
18.50489649415693
 10
3.8892011302140537
 20
18.63613689482471
 10
3.866467449467884
 20
18.76737729549249
 10
3.8438038267621986
 20
18.89861769616027
 10
3.821222152598531
 20
19.029858096828047
 10
3.798734274483998
 20
19.16109849749583
 10
3.776351990715487
 20
19.292338898163607
 10
3.754087044189663
 20
19.42357929883139
 10
3.731951116242044
 20
19.554819699499166
 10
3.7099558205183647
 20
19.686060100166948
 10
3.68811269688147
 20
19.817300500834726
 10
3.666433205356904
 20
19.948540901502504
 10
3.644928720120391
 20
20.079781302170286
 10
3.6236105235303633
 20
20.211021702838064
 10
3.6024898002086507
 20
20.342262103505846
 10
3.5815776311724554
 20
20.473502504173624
 10
3.56088498802068
 20
20.604742904841405
 10
3.5404227271776647
 20
20.735983305509183
 10
3.520201584197345
 20
20.867223706176965
 10
3.5002321681308315
 20
20.998464106844743
 10
3.480524955960356
 20
21.12970450751252
 10
3.461090287102506
 20
21.260944908180303
 10
3.4419383579836387
 20
21.39218530884808
 10
3.423079216690307
 20
21.523425709515863
 10
3.4045227576975217
 20
21.65466611018364
 10
3.3862787166775963
 20
21.785906510851422
 10
3.3683566653923185
 20
21.9171469115192
 10
3.3507660066711047
 20
22.048387312186982
 10
3.333515969477801
 20
22.17962771285476
 10
3.3166156040686854
 20
22.310868113522538
 10
3.3000737772442448
 20
22.44210851419032
 10
3.2838991676971934
 20
22.573348914858098
 10
3.268100261459183
 20
22.70458931552588
 10
3.252685347448597
 20
22.835829716193658
 10
3.237662513121756
 20
22.96707011686144
 10
3.223039640229822
 20
23.098310517529217
 10
3.20882440068363
 20
23.229550918196995
 10
3.1950242525286043
 20
23.360791318864777
 10
3.1816464360318877
 20
23.492031719532555
 10
3.168697969883724
 20
23.623272120200337
 10
3.156185647515094
 20
23.754512520868115
 10
3.144116033533529
 20
23.885752921535897
 10
3.1324954602789847
 20
24.016993322203675
 10
3.121330024501565
 20
24.148233722871453
 10
3.1106255841628587
 20
24.279474123539234
 10
3.100387755362547
 20
24.410714524207012
 10
3.0906219093919125
 20
24.541954924874794
 10
3.081333169915782
 20
24.673195325542572
 10
3.072526410284388
 20
24.804435726210354
 10
3.0642062509765604
 20
24.935676126878132
 10
3.056377057175584
 20
25.066916527545914
 10
3.049042936479001
 20
25.19815692821369
 10
3.042207736743551
 20
25.32939732888147
 10
3.0358750440663913
 20
25.46063772954925
 10
3.0300481809036435
 20
25.59187813021703
 10
3.0247302043272626
 20
25.72311853088481
 10
3.0199239044211406
 20
25.85435893155259
 10
3.0156318028172846
 20
25.98559933222037
 10
3.0118561513728386
 20
26.11683973288815
 10
3.008598930988645
 20
26.24808013355593
 10
3.0058618505699597
 20
26.37932053422371
 10
3.002698320442226
 20
26.497999999999998
 10
3.002698320442226
 20
26.497999999999998
 10
3.002698320442226
 20
26.497999999999998
 10
3.002698320442226
 20
26.497999999999998
 10
3.002698320442226
 20
26.497999999999998
 10
3.002698320442226
 20
26.497999999999998
 10
3.002698320442226
 20
26.497999999999998
 10
3.002698320442226
 20
26.497999999999998
 10
3.002698320442226
 20
26.497999999999998
 10
3.002698320442226
 20
26.497999999999998
 10
3.002698320442226
 20
26.497999999999998
 10
3.002698320442226
 20
26.497999999999998
 10
3.002698320442226
 20
26.497999999999998
 10
3.002698320442226
 20
26.497999999999998
 10
3.002698320442226
 20
26.497999999999998
 10
3.002698320442226
 20
26.510560934891487
 10
3.002698320442226
 20
26.64180133555927
 10
3.002698320442226
 20
26.773041736227047
 10
3.002698320442226
 20
26.904282136894828
 10
3.002698320442226
 20
27.035522537562606
 10
3.002698320442226
 20
27.166762938230388
 10
3.002698320442226
 20
27.298003338898166
 10
3.002698320442226
 20
27.421
 10
3.0028049785433457
 20
27.429243739565944
 10
3.0047808491711017
 20
27.560484140233726
 10
3.0072788629263623
 20
27.691724540901504
 10
3.010297709222698
 20
27.822964941569285
 10
3.0138358042181514
 20
27.954205342237064
 10
3.0178912916462073
 20
28.085445742904845
 10
3.0224620437896803
 20
28.216686143572623
 10
3.027545662597029
 20
28.3479265442404
 10
3.033139480940495
 20
28.479166944908183
 10
3.039240564015415
 20
28.61040734557596
 10
3.045845710879971
 20
28.741647746243743
 10
3.052951456134569
 20
28.87288814691152
 10
3.060554071739965
 20
29.004128547579302
 10
3.068649568973186
 20
29.13536894824708
 10
3.077233700520222
 20
29.266609348914862
 10
3.086301962704379
 20
29.39784974958264
 10
3.095849597849147
 20
29.52909015025042
 10
3.1058715967743153
 20
29.6603305509182
 10
3.116362701424049
 20
29.791570951585978
 10
3.1273174076255374
 20
29.92281135225376
 10
3.1387299679767584
 20
30.054051752921538
 10
3.150594394861871
 20
30.18529215358932
 10
3.1629044635926196
 20
30.316532554257098
 10
3.175653715674127
 20
30.44777295492488
 10
3.188835462193355
 20
30.579013355592657
 10
3.2024427873284456
 20
30.710253756260435
 10
3.2164685519771274
 20
30.841494156928217
 10
3.230905397502246
 20
30.972734557595995
 10
3.245745749592488
 20
31.103974958263777
 10
3.2609818222362517
 20
31.235215358931555
 10
3.276605621806592
 20
31.366455759599337
 10
3.292608951255085
 20
31.497696160267115
 10
3.308983414412424
 20
31.628936560934893
 10
3.3257204203934774
 20
31.760176961602674
 10
3.3428111881045126
 20
31.891417362270452
 10
3.3602467508502087
 20
32.02265776293823
 10
3.3780179610380436
 20
32.153898163606016
 10
3.3961154949775914
 20
32.285138564273794
 10
3.4145298577722123
 20
32.41637896494157
 10
3.433251388300562
 20
32.54761936560935
 10
3.452270264285313
 20
32.67885976627713
 10
3.471576507446426
 20
32.81010016694491
 10
3.491159988736265
 20
32.94134056761269
 10
3.5110104336538233
 20
33.07258096828047
 10
3.5311174276352495
 20
33.20382136894825
 10
3.551470421517869
 20
33.33506176961603
 10
3.5720587370748054
 20
33.46630217028381
 10
3.5928715726173412
 20
33.59754257095159
 10
3.613898008662031
 20
33.72878297161937
 10
3.635127013659624
 20
33.860023372287145
 10
3.6565474497827872
 20
33.99126377295493
 10
3.678148078769571
 20
34.12250417362271
 10
3.6999175678195937
 20
34.25374457429049
 10
3.7218444955398002
 20
34.384984974958265
 10
3.743917357936717
 20
34.51622537562605
 10
3.7661245744520353
 20
34.64746577629383
 10
3.7884544940383718
 20
34.778706176961606
 10
3.8108954012720013
 20
34.909946577629384
 10
3.8334355224993772
 20
35.04118697829716
 10
3.856063032014189
 20
35.17242737896495
 10
3.8787660582617356
 20
35.303667779632725
 10
3.901532690067362
 20
35.4349081803005
 10
3.9243509828856626
 20
35.56614858096828
 10
3.947208965067213
 20
35.69738898163607
 10
3.9700946441395035
 20
35.828629382303845
 10
3.9929960130988142
 20
35.95986978297162
 10
4.015901056709707
 20
36.0911101836394
 10
4.038797757808827
 20
36.22235058430718
 10
4.061674103609736
 20
36.353590984974964
 10
4.084518092005425
 20
36.48483138564274
 10
4.107317737865247
 20
36.61607178631052
 10
4.13006107932293
 20
36.7473121869783
 10
4.152736184052382
 20
36.87855258764608
 10
4.175331155528011
 20
37.00979298831386
 10
4.197834139266245
 20
37.14103338898164
 10
4.220233329045009
 20
37.27227378964942
 10
4.242516973097877
 20
37.403514190317196
 10
4.264673380279651
 20
37.53475459098498
 10
4.286690926200129
 20
37.66599499165276
 10
4.308558059322876
 20
37.79723539232054
 10
4.330263307025735
 20
37.928475792988316
 10
4.351795281619967
 20
38.059716193656094
 10
4.373142686324809
 20
38.19095659432388
 10
4.394294321194352
 20
38.32219699499166
 10
4.415239088993609
 20
38.453437395659435
 10
4.435966001020686
 20
38.58467779632721
 10
4.456464182872036
 20
38.715918196995
 10
4.476722880147711
 20
38.84715859766278
 10
4.496731464093686
 20
38.978398998330555
 10
4.6386335222323
 20
39.046
 10
4.6386335222323
 20
39.10963939899833
 10
4.6386335222323
 20
39.24087979966611
 10
4.6386335222323
 20
39.372120200333896
 10
4.6386335222323
 20
39.503360601001674
 10
4.6386335222323
 20
39.63460100166945
 10
4.6386335222323
 20
39.76584140233723
 10
4.6386335222323
 20
39.89708180300501
 10
4.6386335222323
 20
39.969
 10
4.646566419081077
 20
40.02832220367279
 10
4.663869123853402
 20
40.15956260434057
 10
4.680823528756001
 20
40.29080300500835
 10
4.69742073863649
 20
40.42204340567613
 10
4.713652045745359
 20
40.55328380634391
 10
4.729508934304499
 20
40.68452420701169
 10
4.74498308497502
 20
40.81576460767947
 10
4.760066379222005
 20
40.94700500834725
 10
4.774750903573908
 20
41.078245409015025
 10
4.789028953774374
 20
41.20948580968281
 10
4.802893038824275
 20
41.34072621035059
 10
4.816335884911889
 20
41.47196661101837
 10
4.8293504392291045
 20
41.603207011686145
 10
4.841929873671692
 20
41.73444741235393
 10
4.854067588421674
 20
41.86568781302171
 10
4.865757215409931
 20
41.996928213689486
 10
4.876992621657221
 20
42.128168614357264
 10
4.887767912491851
 20
42.25940901502504
 10
4.898077434642327
 20
42.39064941569283
 10
4.907915779203348
 20
42.521889816360606
 10
4.917277784473602
 20
42.653130217028384
 10
4.926158538663852
 20
42.78437061769616
 10
4.93455338247392
 20
42.91561101836395
 10
4.942457911537192
 20
43.046851419031725
 10
4.949867978731374
 20
43.1780918196995
 10
4.95677969635429
 20
43.30933222036728
 10
4.963189438163565
 20
43.44057262103506
 10
4.969093841279143
 20
43.571813021702845
 10
4.974489807947623
 20
43.70305342237062
 10
4.9793745071675
 20
43.8342938230384
 10
4.9837453761744595
 20
43.96553422370618
 10
4.987600121785926
 20
44.096774624373964
 10
4.990936721604193
 20
44.22801502504174
 10
4.993753425077471
 20
44.35925542570952
 10
4.996048754418322
 20
44.4904958263773
 10
4.997821505378977
 20
44.621736227045076
 10
4.9990707478831515
 20
44.75297662771286
 10
4.999795826514007
 20
44.88421702838064
 10
4.999996360858022
 20
45.01545742904842
 10
4.999672245704569
 20
45.146697829716196
 10
4.99882365110112
 20
45.277938230383974
 10
4.997451022264028
 20
45.40917863105176
 10
4.995555079344941
 20
45.54041903171954
 10
4.9931368170529815
 20
45.671659432387315
 10
4.990197504132861
 20
45.80289983305509
 10
4.986738682699238
 20
45.93414023372288
 10
4.982762167427644
 20
46.06538063439066
 10
4.978270044602411
 20
46.196621035058435
 10
4.973264671022097
 20
46.32786143572621
 10
4.967748672762993
 20
46.45910183639399
 10
4.961724943801344
 20
46.590342237061776
 10
4.955196644495026
 20
46.721582637729554
 10
4.948167199925451
 20
46.85282303839733
 10
4.940640298100604
 20
46.98406343906511
 10
4.932619888020113
 20
47.115303839732896
 10
4.924110177603412
 20
47.246544240400674
 10
4.91511563148204
 20
47.37778464106845
 10
4.9056409686572735
 20
47.50902504173623
 10
4.895691160024292
 20
47.64026544240401
 10
4.885271425764191
 20
47.77150584307179
 10
4.87438723260521
 20
47.90274624373957
 10
4.8630442909545994
 20
48.03398664440735
 10
4.851248551902653
 20
48.16522704507513
 10
4.839006204100459
 20
48.296467445742906
 10
4.826323670513013
 20
48.42770784641069
 10
4.813207605049403
 20
48.55894824707847
 10
4.799664889071825
 20
48.69018864774625
 10
4.785702627785268
 20
48.821429048414025
 10
4.771328146509757
 20
48.95266944908181
 10
4.7565489868371165
 20
49.08390984974959
 10
4.741372902674257
 20
49.215150250417366
 10
4.725807856175085
 20
49.346390651085144
 10
4.709862013563141
 20
49.47763105175292
 10
4.693543740847184
 20
49.60887145242071
 10
4.67686159943195
 20
49.740111853088486
 10
4.6598243416264005
 20
49.871352253756264
 10
4.642440906051811
 20
50.00259265442404
 10
4.624720412952106
 20
50.13383305509183
 10
4.606672159408922
 20
50.265073455759605
 10
4.58830561446387
 20
50.39631385642738
 10
4.569630414150591
 20
50.52755425709516
 10
4.550656356439202
 20
50.65879465776294
 10
4.531393396095771
 20
50.790035058430725
 10
4.511851639459541
 20
50.9212754590985
 10
4.492041339140624
 20
51.05251585976628
 10
4.471972888640948
 20
51.18375626043406
 10
4.451656816901299
 20
51.314996661101844
 10
4.4311037827772966
 20
51.44623706176962
 10
4.41751207039673
 20
51.532081590638455
 10
4.384857423312662
 20
51.53140621442612
 10
4.3525695911361195
 20
51.53633348573514
 10
4.321602703554394
 20
51.5467177999982
 10
4.29287185535004
 20
51.56225229293075
 10
4.267226064662861
 20
51.58247790860105
 10
4.245423183866311
 20
51.60679696487766
 10
4.228107504460754
 20
51.634490815385256
 10
4.215790717775792
 20
51.664741086044714
 10
4.20883679410723
 20
51.69665385864167
 10
4.207451227121507
 20
51.72928608678106
 10
4.21167496136354
 20
51.76167346361627
 10
4.221383182314673
 20
51.79285891784059
 10
4.236289004755433
 20
51.821920895863045
 10
4.255951950439202
 20
51.84800059440905
 10
4.255951950439201
 20
51.97119866444074
 10
4.255951950439201
 20
52.10243906510852
 10
4.255951950439201
 20
52.2336794657763
 10
4.255951950439201
 20
52.364919866444076
 10
4.255951950439201
 20
52.49616026711186
 10
4.255951950439201
 20
52.517
 10
4.237278883450119
 20
52.62740066777964
 10
4.214966966594755
 20
52.75864106844742
 10
4.19254226701796
 20
52.889881469115196
 10
4.170016549869916
 20
53.021121869782974
 10
4.147401633299815
 20
53.15236227045076
 10
4.124709382255443
 20
53.28360267111854
 10
4.101951702258238
 20
53.414843071786315
 10
4.079140533157023
 20
53.54608347245409
 10
4.056287842863755
 20
53.67732387312187
 10
4.033405621074546
 20
53.808564273789656
 10
4.010505872979247
 20
53.939804674457434
 10
3.987600612962912
 20
54.07104507512521
 10
3.964701858302428
 20
54.20228547579299
 10
3.9418216228616383
 20
54.333525876460776
 10
3.91897191078826
 20
54.464766277128554
 10
3.896164710215872
 20
54.59600667779633
 10
3.87341198697434
 20
54.72724707846411
 10
3.8507256783119193
 20
54.85848747913189
 10
3.8281176866323605
 20
54.98972787979967
 10
3.805599873250308
 20
55.12096828046745
 10
3.7831840521682274
 20
55.25220868113523
 10
3.760881983878182
 20
55.38344908180301
 10
3.738705369191672
 20
55.51468948247079
 10
3.7166658431007913
 20
55.64592988313857
 10
3.6947749686739075
 20
55.77717028380635
 10
3.673044230989086
 20
55.90841068447413
 10
3.65148503110842
 20
56.039651085141905
 10
3.6301086800964546
 20
56.17089148580969
 10
3.608926393085822
 20
56.30213188647747
 10
3.5879492833931974
 20
56.43337228714525
 10
3.567188356688694
 20
56.564612687813025
 10
3.546654505221711
 20
56.6958530884808
 10
3.5263585021063046
 20
56.82709348914859
 10
3.5063109956690646
 20
56.958333889816366
 10
3.486522503862441
 20
57.089574290484144
 10
3.467003408746501
 20
57.22081469115192
 10
3.4477639510419533
 20
57.35205509181971
 10
3.4288142247573496
 20
57.483295492487485
 10
3.410164171893242
 20
57.614535893155264
 10
3.3918235772260994
 20
57.74577629382304
 10
3.373802063174718
 20
57.87701669449082
 10
3.356109084751793
 20
58.008257095158605
 10
3.3387539246033473
 20
58.13949749582638
 10
3.321745688138564
 20
58.27073789649416
 10
3.305093298752632
 20
58.40197829716194
 10
3.2888054931450683
 20
58.533218697829724
 10
3.2728908167359987
 20
58.6644590984975
 10
3.2573576191827884
 20
58.79569949916528
 10
3.242214049999385
 20
58.92693989983306
 10
3.2274680542806617
 20
59.05818030050084
 10
3.213127368534019
 20
59.18942070116862
 10
3.199199516620407
 20
59.3206611018364
 10
3.1856918058069255
 20
59.45190150250418
 10
3.172611322933054
 20
59.583141903171956
 10
3.159964930692532
 20
59.71438230383974
 10
3.1477592640328402
 20
59.84562270450752
 10
3.136000726674163
 20
59.9768631051753
 10
3.1246954877496655
 20
60.108103505843076
 10
3.113849478568854
 20
60.239343906510854
 10
3.1034683895057005
 20
60.37058430717864
 10
3.0935576670131875
 20
60.50182470784642
 10
3.084122510765813
 20
60.633065108514195
 10
3.0751678709315735
 20
60.76430550918197
 10
3.066698445574857
 20
60.89554590984976
 10
3.0587186781915894
 20
61.02678631051754
 10
3.051232755377954
 20
61.158026711185315
 10
3.0442446046338874
 20
61.28926711185309
 10
3.037757892302507
 20
61.42050751252087
 10
3.0317760216465617
 20
61.551747913188656
 10
3.026302131062908
 20
61.682988313856434
 10
3.021339092435939
 20
61.81422871452421
 10
3.016889509630854
 20
61.94546911519199
 10
3.01295571712753
 20
62.07670951585977
 10
3.009539778795738
 20
62.207949916527554
 10
3.0066434868123286
 20
62.33919031719533
 10
3.004268360720966
 20
62.47043071786311
 10
3.0024156466348955
 20
62.60167111853089
 10
3.0010863165831676
 20
62.73291151919867
 10
3.000281068000665
 20
62.86415191986645
 10
3.0000003233621886
 20
62.99539232053423
 10
3.000244229960808
 20
63.12663272120201
 10
3.0010126598305833
 20
63.257873121869785
 10
3.002305209813702
 20
63.38911352253757
 10
3.0041212017719983
 20
63.52035392320535
 10
3.0064596829427352
 20
63.65159432387313
 10
3.0093194264384775
 20
63.782834724540905
 10
3.0126989318907773
 20
63.91407512520869
 10
3.0165964262373444
 20
64.04531552587646
 10
3.0642478604075993
 20
64.142
 10
3.0642478604075993
 20
64.17655592654424
 10
3.0642478604075993
 20
64.30779632721203
 10
3.0642478604075993
 20
64.43903672787981
 10
3.0642478604075993
 20
64.57027712854759
 10
3.0642478604075993
 20
64.70151752921537
 10
3.0642478604075993
 20
64.83275792988314
 10
3.0642478604075993
 20
64.96399833055092
 10
3.0642478604075993
 20
65.065
 10
3.0661220927731856
 20
65.0952387312187
 10
3.074557277695222
 20
65.22647913188648
 10
3.0834779974433797
 20
65.35771953255426
 10
3.092879571749496
 20
65.48895993322205
 10
3.102757068064383
 20
65.62020033388983
 10
3.113105304145705
 20
65.7514407345576
 10
3.123918850776845
 20
65.88268113522538
 10
3.1351920346153515
 20
66.01392153589316
 10
3.1469189411694627
 20
66.14516193656094
 10
3.15909341790116
 20
66.27640233722872
 10
3.171709077454099
 20
66.4076427378965
 10
3.1847593010047497
 20
66.53888313856427
 10
3.1982372417349683
 20
66.67012353923207
 10
3.2121358284241865
 20
66.80136393989984
 10
3.226447769159349
 20
66.93260434056762
 10
3.241165555160615
 20
67.0638447412354
 10
3.256281464720855
 20
67.19508514190318
 10
3.2717875672568555
 20
67.32632554257096
 10
3.287675727470105
 20
67.45756594323873
 10
3.303937609614999
 20
67.58880634390651
 10
3.320564681872192
 20
67.72004674457429
 10
3.3375482208248384
 20
67.85128714524208
 10
3.3548793160353307
 20
67.98252754590986
 10
3.372548874720186
 20
68.11376794657764
 10
3.3905476265205854
 20
68.24500834724542
 10
3.408866128366077
 20
68.3762487479132
 10
3.427494769428899
 20
68.50748914858097
 10
3.4464237761663115
 20
68.63872954924875
 10
3.465643217448299
 20
68.76996994991653
 10
3.4851430097679574
 20
68.90121035058431
 10
3.504912922531817
 20
69.0324507512521
 10
3.5249425834273334
 20
69.16369115191988
 10
3.5452214838647396
 20
69.29493155258766
 10
3.5657389844903964
 20
69.42617195325543
 10
3.5864843207687347
 20
69.55741235392321
 10
3.607446608629894
 20
69.68865275459099
 10
3.6286148501800595
 20
69.81989315525877
 10
3.6499779394715253
 20
69.95113355592655
 10
3.6715246683294387
 20
70.08237395659432
 10
3.6932437322321983
 20
70.21361435726212
 10
3.715123736242368
 20
70.3448547579299
 10
3.7371532009850674
 20
70.47609515859767
 10
3.759320568670629
 20
70.60733555926545
 10
3.781614209158415
 20
70.73857595993323
 10
3.804022426058578
 20
70.869816360601
 10
3.826533462868602
 20
71.00105676126879
 10
3.8491355091413544
 20
71.13229716193656
 10
3.871816706681464
 20
71.26353756260434
 10
3.8945651557667382
 20
71.39477796327213
 10
3.9173689213913563
 20
71.52601836393991
 10
3.9402160395276096
 20
71.65725876460769
 10
3.9630945234028236
 20
71.78849916527547
 10
3.985992369788251
 20
71.91973956594325
 10
4.008897565296576
 20
72.05097996661102
 10
4.03179809268475
 20
72.1822203672788
 10
4.054681937158865
 20
72.31346076794658
 10
4.0775370926777255
 20
72.44470116861436
 10
4.100351568251837
 20
72.57594156928214
 10
4.123113394234501
 20
72.70718196994993
 10
4.145810628601687
 20
72.8384223706177
 10
4.168431363217457
 20
72.96966277128548
 10
4.190963730081575
 20
73.10090317195326
 10
4.213395907556067
 20
73.23214357262104
 10
4.235716126567468
 20
73.36338397328882
 10
4.257912676781471
 20
73.4946243739566
 10
4.279973912746781
 20
73.62586477462438
 10
4.301888260004915
 20
73.75710517529215
 10
4.323644221162759
 20
73.88834557595995
 10
4.345230381924683
 20
74.01958597662772
 10
4.36663541708108
 20
74.1508263772955
 10
4.387848096450139
 20
74.28206677796328
 10
4.408857290769791
 20
74.41330717863106
 10
4.429651977536681
 20
74.54454757929884
 10
4.450221246789144
 20
74.67578797996661
 10
4.470554306831133
 20
74.80702838063439
 10
4.490640489894089
 20
74.93826878130217
 10
4.510469257733819
 20
75.06950918196996
 10
4.530030207159372
 20
75.20074958263774
 10
4.5493130754911215
 20
75.33198998330552
 10
4.56830774594507
 20
75.4632303839733
 10
4.587004252940641
 20
75.59447078464108
 10
4.605392787329141
 20
75.72571118530885
 10
4.623463701540132
 20
75.85695158597663
 10
4.641207514643054
 20
75.98819198664441
 10
4.658614917321402
 20
76.11943238731219
 10
4.675676776756871
 20
76.25067278797998
 10
4.6923841414209075
 20
76.38191318864776
 10
4.708728245771137
 20
76.51315358931554
 10
4.724700514850221
 20
76.64439398998331
 10
4.830304205961894
 20
76.69
 10
4.830304205961894
 20
76.77563439065109
 10
4.830304205961894
 20
76.90687479131887
 10
4.830304205961894
 20
77.03811519198665
 10
4.830304205961894
 20
77.16935559265443
 10
4.830304205961894
 20
77.3005959933222
 10
4.830304205961894
 20
77.43183639399
 10
4.830304205961894
 20
77.56307679465777
 10
4.830304205961894
 20
77.613
 10
4.8381299626303935
 20
77.69431719532555
 10
4.850403431507714
 20
77.82555759599333
 10
4.86223073502839
 20
77.95679799666111
 10
4.873605667980993
 20
78.08803839732889
 10
4.884522262490946
 20
78.21927879799667
 10
4.894974791151583
 20
78.35051919866444
 10
4.904957770029038
 20
78.48175959933222
 10
4.914465961539399
 20
78.613
 10
0.0
 20
78.613
 10
0.0
 20
0.0
  0
ENDSEC
  0
SECTION
  2
OBJECTS
  0
DICTIONARY
  5
A
330
0
100
AcDbDictionary
281
1
  3
ACAD_COLOR
350
B
  3
ACAD_GROUP
350
C
  3
ACAD_LAYOUT
350
D
  3
ACAD_MATERIAL
350
E
  3
ACAD_MLEADERSTYLE
350
F
  3
ACAD_MLINESTYLE
350
10
  3
ACAD_PLOTSETTINGS
350
11
  3
ACAD_PLOTSTYLENAME
350
12
  3
ACAD_SCALELIST
350
14
  3
ACAD_TABLESTYLE
350
15
  3
ACAD_VISUALSTYLE
350
16
  3
EZDXF_META
350
2D
  0
DICTIONARY
  5
B
330
A
100
AcDbDictionary
281
1
  0
DICTIONARY
  5
C
330
A
100
AcDbDictionary
281
1
  0
DICTIONARY
  5
D
330
A
100
AcDbDictionary
281
1
  3
Model
350
1A
  3
Layout1
350
1E
  0
DICTIONARY
  5
E
330
A
100
AcDbDictionary
281
1
  3
ByBlock
350
1F
  3
ByLayer
350
20
  3
Global
350
21
  0
DICTIONARY
  5
F
330
A
100
AcDbDictionary
281
1
  3
Standard
350
2C
  0
DICTIONARY
  5
10
330
A
100
AcDbDictionary
281
1
  3
Standard
350
22
  0
DICTIONARY
  5
11
330
A
100
AcDbDictionary
281
1
  0
ACDBDICTIONARYWDFLT
  5
12
330
A
100
AcDbDictionary
281
1
  3
Normal
350
13
100
AcDbDictionaryWithDefault
340
13
  0
ACDBPLACEHOLDER
  5
13
330
12
  0
DICTIONARY
  5
14
330
A
100
AcDbDictionary
281
1
  0
DICTIONARY
  5
15
330
A
100
AcDbDictionary
281
1
  0
DICTIONARY
  5
16
330
A
100
AcDbDictionary
281
1
  0
LAYOUT
  5
1A
330
D
100
AcDbPlotSettings
  1

  4
A3
  6

 40
7.5
 41
20.0
 42
7.5
 43
20.0
 44
420.0
 45
297.0
 46
0.0
 47
0.0
 48
0.0
 49
0.0
140
0.0
141
0.0
142
1.0
143
1.0
 70
1024
 72
1
 73
0
 74
5
  7

 75
16
 76
0
 77
2
 78
300
147
1.0
148
0.0
149
0.0
100
AcDbLayout
  1
Model
 70
1
 71
0
 10
0.0
 20
0.0
 11
420.0
 21
297.0
 12
0.0
 22
0.0
 32
0.0
 14
1e+20
 24
1e+20
 34
1e+20
 15
-1e+20
 25
-1e+20
 35
-1e+20
146
0.0
 13
0.0
 23
0.0
 33
0.0
 16
1.0
 26
0.0
 36
0.0
 17
0.0
 27
1.0
 37
0.0
 76
1
330
17
  0
LAYOUT
  5
1E
330
D
100
AcDbPlotSettings
  1

  4
A3
  6

 40
7.5
 41
20.0
 42
7.5
 43
20.0
 44
420.0
 45
297.0
 46
0.0
 47
0.0
 48
0.0
 49
0.0
140
0.0
141
0.0
142
1.0
143
1.0
 70
0
 72
1
 73
0
 74
5
  7

 75
16
 76
0
 77
2
 78
300
147
1.0
148
0.0
149
0.0
100
AcDbLayout
  1
Layout1
 70
1
 71
1
 10
0.0
 20
0.0
 11
420.0
 21
297.0
 12
0.0
 22
0.0
 32
0.0
 14
1e+20
 24
1e+20
 34
1e+20
 15
-1e+20
 25
-1e+20
 35
-1e+20
146
0.0
 13
0.0
 23
0.0
 33
0.0
 16
1.0
 26
0.0
 36
0.0
 17
0.0
 27
1.0
 37
0.0
 76
1
330
1B
  0
MATERIAL
  5
1F
102
{ACAD_REACTORS
330
E
102
}
330
E
100
AcDbMaterial
  1
ByBlock
  2

 70
0
 40
1.0
 71
1
 41
1.0
 91
-1023410177
 42
1.0
 72
1
  3

 73
1
 74
1
 75
1
 44
0.5
 73
0
 45
1.0
 46
1.0
 77
1
  4

 78
1
 79
1
170
1
 48
1.0
171
1
  6

172
1
173
1
174
1
140
1.0
141
1.0
175
1
  7

176
1
177
1
178
1
143
1.0
179
1
  8

270
1
271
1
272
1
145
1.0
146
1.0
273
1
  9

274
1
275
1
276
1
 42
1.0
 72
1
  3

 73
1
 74
1
 75
1
 94
63
  0
MATERIAL
  5
20
102
{ACAD_REACTORS
330
E
102
}
330
E
100
AcDbMaterial
  1
ByLayer
  2

 70
0
 40
1.0
 71
1
 41
1.0
 91
-1023410177
 42
1.0
 72
1
  3

 73
1
 74
1
 75
1
 44
0.5
 73
0
 45
1.0
 46
1.0
 77
1
  4

 78
1
 79
1
170
1
 48
1.0
171
1
  6

172
1
173
1
174
1
140
1.0
141
1.0
175
1
  7

176
1
177
1
178
1
143
1.0
179
1
  8

270
1
271
1
272
1
145
1.0
146
1.0
273
1
  9

274
1
275
1
276
1
 42
1.0
 72
1
  3

 73
1
 74
1
 75
1
 94
63
  0
MATERIAL
  5
21
102
{ACAD_REACTORS
330
E
102
}
330
E
100
AcDbMaterial
  1
Global
  2

 70
0
 40
1.0
 71
1
 41
1.0
 91
-1023410177
 42
1.0
 72
1
  3

 73
1
 74
1
 75
1
 44
0.5
 73
0
 45
1.0
 46
1.0
 77
1
  4

 78
1
 79
1
170
1
 48
1.0
171
1
  6

172
1
173
1
174
1
140
1.0
141
1.0
175
1
  7

176
1
177
1
178
1
143
1.0
179
1
  8

270
1
271
1
272
1
145
1.0
146
1.0
273
1
  9

274
1
275
1
276
1
 42
1.0
 72
1
  3

 73
1
 74
1
 75
1
 94
63
  0
MLINESTYLE
  5
22
102
{ACAD_REACTORS
330
10
102
}
330
10
100
AcDbMlineStyle
  2
Standard
 70
0
  3

 62
256
 51
90.0
 52
90.0
 71
2
 49
0.5
 62
256
  6
BYLAYER
 49
-0.5
 62
256
  6
BYLAYER
  0
MLEADERSTYLE
  5
2C
102
{ACAD_REACTORS
330
F
102
}
330
F
100
AcDbMLeaderStyle
179
2
170
2
171
1
172
0
 90
2
 40
0.0
 41
0.0
173
1
 91
-1056964608
 92
-2
290
1
 42
2.0
291
1
 43
8.0
  3
Standard
 44
4.0
300

342
29
174
1
175
1
176
0
178
1
 93
-1056964608
 45
4.0
292
0
297
0
 46
4.0
 94
-1056964608
 47
1.0
 49
1.0
140
1.0
294
1
141
0.0
177
0
142
1.0
295
0
296
0
143
3.75
271
0
272
9
273
9
  0
DICTIONARY
  5
2D
330
A
100
AcDbDictionary
280
1
281
1
  3
CREATED_BY_EZDXF
350
2E
  3
WRITTEN_BY_EZDXF
350
32
  0
DICTIONARYVAR
  5
2E
330
2D
100
DictionaryVariables
280
0
  1
1.4.3 @ 2026-05-25T03:08:01.779950+00:00
  0
DICTIONARYVAR
  5
32
330
2D
100
DictionaryVariables
280
0
  1
1.4.3 @ 2026-05-25T03:08:01.785221+00:00
  0
ENDSEC
  0
EOF
