  0
SECTION
  2
HEADER
  9
$ACADVER
  1
AC1024
  9
$ACADMAINTVER
 70
6
  9
$DWGCODEPAGE
  3
ANSI_1252
  9
$LASTSAVEDBY
  1
ezdxf
  9
$INSBASE
 10
0.0
 20
0.0
 30
0.0
  9
$EXTMIN
 10
1e+20
 20
1e+20
 30
1e+20
  9
$EXTMAX
 10
-1e+20
 20
-1e+20
 30
-1e+20
  9
$LIMMIN
 10
0.0
 20
0.0
  9
$LIMMAX
 10
420.0
 20
297.0
  9
$ORTHOMODE
 70
0
  9
$REGENMODE
 70
1
  9
$FILLMODE
 70
1
  9
$QTEXTMODE
 70
0
  9
$MIRRTEXT
 70
1
  9
$LTSCALE
 40
1.0
  9
$ATTMODE
 70
1
  9
$TEXTSIZE
 40
2.5
  9
$TRACEWID
 40
1.0
  9
$TEXTSTYLE
  7
Standard
  9
$CLAYER
  8
0
  9
$CELTYPE
  6
ByLayer
  9
$CECOLOR
 62
256
  9
$CELTSCALE
 40
1.0
  9
$DISPSILH
 70
0
  9
$DIMSCALE
 40
1.0
  9
$DIMASZ
 40
2.5
  9
$DIMEXO
 40
0.625
  9
$DIMDLI
 40
3.75
  9
$DIMRND
 40
0.0
  9
$DIMDLE
 40
0.0
  9
$DIMEXE
 40
1.25
  9
$DIMTP
 40
0.0
  9
$DIMTM
 40
0.0
  9
$DIMTXT
 40
2.5
  9
$DIMCEN
 40
2.5
  9
$DIMTSZ
 40
0.0
  9
$DIMTOL
 70
0
  9
$DIMLIM
 70
0
  9
$DIMTIH
 70
0
  9
$DIMTOH
 70
0
  9
$DIMSE1
 70
0
  9
$DIMSE2
 70
0
  9
$DIMTAD
 70
1
  9
$DIMZIN
 70
8
  9
$DIMBLK
  1

  9
$DIMASO
 70
1
  9
$DIMSHO
 70
1
  9
$DIMPOST
  1

  9
$DIMAPOST
  1

  9
$DIMALT
 70
0
  9
$DIMALTD
 70
3
  9
$DIMALTF
 40
0.03937007874
  9
$DIMLFAC
 40
1.0
  9
$DIMTOFL
 70
1
  9
$DIMTVP
 40
0.0
  9
$DIMTIX
 70
0
  9
$DIMSOXD
 70
0
  9
$DIMSAH
 70
0
  9
$DIMBLK1
  1

  9
$DIMBLK2
  1

  9
$DIMSTYLE
  2
ISO-25
  9
$DIMCLRD
 70
0
  9
$DIMCLRE
 70
0
  9
$DIMCLRT
 70
0
  9
$DIMTFAC
 40
1.0
  9
$DIMGAP
 40
0.625
  9
$DIMJUST
 70
0
  9
$DIMSD1
 70
0
  9
$DIMSD2
 70
0
  9
$DIMTOLJ
 70
0
  9
$DIMTZIN
 70
8
  9
$DIMALTZ
 70
0
  9
$DIMALTTZ
 70
0
  9
$DIMUPT
 70
0
  9
$DIMDEC
 70
2
  9
$DIMTDEC
 70
2
  9
$DIMALTU
 70
2
  9
$DIMALTTD
 70
3
  9
$DIMTXSTY
  7
Standard
  9
$DIMAUNIT
 70
0
  9
$DIMADEC
 70
0
  9
$DIMALTRND
 40
0.0
  9
$DIMAZIN
 70
0
  9
$DIMDSEP
 70
44
  9
$DIMATFIT
 70
3
  9
$DIMFRAC
 70
0
  9
$DIMLDRBLK
  1

  9
$DIMLUNIT
 70
2
  9
$DIMLWD
 70
-2
  9
$DIMLWE
 70
-2
  9
$DIMTMOVE
 70
0
  9
$DIMFXL
 40
1.0
  9
$DIMFXLON
 70
0
  9
$DIMJOGANG
 40
0.785398163397
  9
$DIMTFILL
 70
0
  9
$DIMTFILLCLR
 70
0
  9
$DIMARCSYM
 70
0
  9
$DIMLTYPE
  6

  9
$DIMLTEX1
  6

  9
$DIMLTEX2
  6

  9
$DIMTXTDIRECTION
 70
0
  9
$LUNITS
 70
2
  9
$LUPREC
 70
4
  9
$SKETCHINC
 40
1.0
  9
$FILLETRAD
 40
10.0
  9
$AUNITS
 70
0
  9
$AUPREC
 70
2
  9
$MENU
  1
.
  9
$ELEVATION
 40
0.0
  9
$PELEVATION
 40
0.0
  9
$THICKNESS
 40
0.0
  9
$LIMCHECK
 70
0
  9
$CHAMFERA
 40
0.0
  9
$CHAMFERB
 40
0.0
  9
$CHAMFERC
 40
0.0
  9
$CHAMFERD
 40
0.0
  9
$SKPOLY
 70
0
  9
$TDCREATE
 40
2461185.8939814814
  9
$TDUCREATE
 40
2458532.153996898
  9
$TDUPDATE
 40
2461185.8939814814
  9
$TDUUPDATE
 40
2458532.1544311
  9
$TDINDWG
 40
0.0
  9
$TDUSRTIMER
 40
0.0
  9
$USRTIMER
 70
1
  9
$ANGBASE
 50
0.0
  9
$ANGDIR
 70
0
  9
$PDMODE
 70
0
  9
$PDSIZE
 40
0.0
  9
$PLINEWID
 40
0.0
  9
$SPLFRAME
 70
0
  9
$SPLINETYPE
 70
6
  9
$SPLINESEGS
 70
8
  9
$HANDSEED
  5
33
  9
$SURFTAB1
 70
6
  9
$SURFTAB2
 70
6
  9
$SURFTYPE
 70
6
  9
$SURFU
 70
6
  9
$SURFV
 70
6
  9
$UCSBASE
  2

  9
$UCSNAME
  2

  9
$UCSORG
 10
0.0
 20
0.0
 30
0.0
  9
$UCSXDIR
 10
1.0
 20
0.0
 30
0.0
  9
$UCSYDIR
 10
0.0
 20
1.0
 30
0.0
  9
$UCSORTHOREF
  2

  9
$UCSORTHOVIEW
 70
0
  9
$UCSORGTOP
 10
0.0
 20
0.0
 30
0.0
  9
$UCSORGBOTTOM
 10
0.0
 20
0.0
 30
0.0
  9
$UCSORGLEFT
 10
0.0
 20
0.0
 30
0.0
  9
$UCSORGRIGHT
 10
0.0
 20
0.0
 30
0.0
  9
$UCSORGFRONT
 10
0.0
 20
0.0
 30
0.0
  9
$UCSORGBACK
 10
0.0
 20
0.0
 30
0.0
  9
$PUCSBASE
  2

  9
$PUCSNAME
  2

  9
$PUCSORG
 10
0.0
 20
0.0
 30
0.0
  9
$PUCSXDIR
 10
1.0
 20
0.0
 30
0.0
  9
$PUCSYDIR
 10
0.0
 20
1.0
 30
0.0
  9
$PUCSORTHOREF
  2

  9
$PUCSORTHOVIEW
 70
0
  9
$PUCSORGTOP
 10
0.0
 20
0.0
 30
0.0
  9
$PUCSORGBOTTOM
 10
0.0
 20
0.0
 30
0.0
  9
$PUCSORGLEFT
 10
0.0
 20
0.0
 30
0.0
  9
$PUCSORGRIGHT
 10
0.0
 20
0.0
 30
0.0
  9
$PUCSORGFRONT
 10
0.0
 20
0.0
 30
0.0
  9
$PUCSORGBACK
 10
0.0
 20
0.0
 30
0.0
  9
$USERI1
 70
0
  9
$USERI2
 70
0
  9
$USERI3
 70
0
  9
$USERI4
 70
0
  9
$USERI5
 70
0
  9
$USERR1
 40
0.0
  9
$USERR2
 40
0.0
  9
$USERR3
 40
0.0
  9
$USERR4
 40
0.0
  9
$USERR5
 40
0.0
  9
$WORLDVIEW
 70
1
  9
$SHADEDGE
 70
3
  9
$SHADEDIF
 70
70
  9
$TILEMODE
 70
1
  9
$MAXACTVP
 70
64
  9
$PINSBASE
 10
0.0
 20
0.0
 30
0.0
  9
$PLIMCHECK
 70
0
  9
$PEXTMIN
 10
1e+20
 20
1e+20
 30
1e+20
  9
$PEXTMAX
 10
-1e+20
 20
-1e+20
 30
-1e+20
  9
$PLIMMIN
 10
0.0
 20
0.0
  9
$PLIMMAX
 10
420.0
 20
297.0
  9
$UNITMODE
 70
0
  9
$VISRETAIN
 70
1
  9
$PLINEGEN
 70
0
  9
$PSLTSCALE
 70
1
  9
$TREEDEPTH
 70
3020
  9
$CMLSTYLE
  2
Standard
  9
$CMLJUST
 70
0
  9
$CMLSCALE
 40
20.0
  9
$PROXYGRAPHICS
 70
1
  9
$MEASUREMENT
 70
1
  9
$CELWEIGHT
370
-1
  9
$ENDCAPS
280
0
  9
$JOINSTYLE
280
0
  9
$LWDISPLAY
290
0
  9
$INSUNITS
 70
1
  9
$HYPERLINKBASE
  1

  9
$STYLESHEET
  1

  9
$XEDIT
290
1
  9
$CEPSNTYPE
380
0
  9
$PSTYLEMODE
290
1
  9
$FINGERPRINTGUID
  2
{DD371910-A712-4017-A8EA-4CBC7BE89FCF}
  9
$VERSIONGUID
  2
{B548B2D2-3865-476E-BD12-B20E47D241EE}
  9
$EXTNAMES
290
1
  9
$PSVPSCALE
 40
0.0
  9
$OLESTARTUP
290
0
  9
$SORTENTS
280
127
  9
$INDEXCTL
280
0
  9
$HIDETEXT
280
1
  9
$XCLIPFRAME
280
1
  9
$HALOGAP
280
0
  9
$OBSCOLOR
 70
257
  9
$OBSLTYPE
280
0
  9
$INTERSECTIONDISPLAY
280
0
  9
$INTERSECTIONCOLOR
 70
257
  9
$DIMASSOC
280
2
  9
$PROJECTNAME
  1

  9
$CAMERADISPLAY
290
0
  9
$LENSLENGTH
 40
50.0
  9
$CAMERAHEIGHT
 40
0.0
  9
$STEPSPERSEC
 40
24.0
  9
$STEPSIZE
 40
100.0
  9
$3DDWFPREC
 40
2.0
  9
$PSOLWIDTH
 40
0.005
  9
$PSOLHEIGHT
 40
0.08
  9
$LOFTANG1
 40
1.570796326795
  9
$LOFTANG2
 40
1.570796326795
  9
$LOFTMAG1
 40
0.0
  9
$LOFTMAG2
 40
0.0
  9
$LOFTPARAM
 70
7
  9
$LOFTNORMALS
280
1
  9
$LATITUDE
 40
37.795
  9
$LONGITUDE
 40
-122.394
  9
$NORTHDIRECTION
 40
0.0
  9
$TIMEZONE
 70
-8000
  9
$LIGHTGLYPHDISPLAY
280
1
  9
$TILEMODELIGHTSYNCH
280
1
  9
$CMATERIAL
347
20
  9
$SOLIDHIST
280
0
  9
$SHOWHIST
280
1
  9
$DWFFRAME
280
2
  9
$DGNFRAME
280
2
  9
$REALWORLDSCALE
290
1
  9
$INTERFERECOLOR
 62
256
  9
$CSHADOW
280
0
  9
$SHADOWPLANELOCATION
 40
0.0
  0
ENDSEC
  0
SECTION
  2
CLASSES
  0
CLASS
  1
ACDBDICTIONARYWDFLT
  2
AcDbDictionaryWithDefault
  3
ObjectDBX Classes
 90
0
 91
0
280
0
281
0
  0
CLASS
  1
SUN
  2
AcDbSun
  3
SCENEOE
 90
1153
 91
0
280
0
281
0
  0
CLASS
  1
VISUALSTYLE
  2
AcDbVisualStyle
  3
ObjectDBX Classes
 90
4095
 91
0
280
0
281
0
  0
CLASS
  1
MATERIAL
  2
AcDbMaterial
  3
ObjectDBX Classes
 90
1153
 91
0
280
0
281
0
  0
CLASS
  1
SCALE
  2
AcDbScale
  3
ObjectDBX Classes
 90
1153
 91
0
280
0
281
0
  0
CLASS
  1
TABLESTYLE
  2
AcDbTableStyle
  3
ObjectDBX Classes
 90
4095
 91
0
280
0
281
0
  0
CLASS
  1
MLEADERSTYLE
  2
AcDbMLeaderStyle
  3
ACDB_MLEADERSTYLE_CLASS
 90
4095
 91
0
280
0
281
0
  0
CLASS
  1
DICTIONARYVAR
  2
AcDbDictionaryVar
  3
ObjectDBX Classes
 90
0
 91
0
280
0
281
0
  0
CLASS
  1
CELLSTYLEMAP
  2
AcDbCellStyleMap
  3
ObjectDBX Classes
 90
1152
 91
0
280
0
281
0
  0
CLASS
  1
MENTALRAYRENDERSETTINGS
  2
AcDbMentalRayRenderSettings
  3
SCENEOE
 90
1024
 91
0
280
0
281
0
  0
CLASS
  1
ACDBDETAILVIEWSTYLE
  2
AcDbDetailViewStyle
  3
ObjectDBX Classes
 90
1025
 91
0
280
0
281
0
  0
CLASS
  1
ACDBSECTIONVIEWSTYLE
  2
AcDbSectionViewStyle
  3
ObjectDBX Classes
 90
1025
 91
0
280
0
281
0
  0
CLASS
  1
RASTERVARIABLES
  2
AcDbRasterVariables
  3
ISM
 90
0
 91
0
280
0
281
0
  0
CLASS
  1
ACDBPLACEHOLDER
  2
AcDbPlaceHolder
  3
ObjectDBX Classes
 90
0
 91
0
280
0
281
0
  0
CLASS
  1
LAYOUT
  2
AcDbLayout
  3
ObjectDBX Classes
 90
0
 91
0
280
0
281
0
  0
ENDSEC
  0
SECTION
  2
TABLES
  0
TABLE
  2
VPORT
  5
8
330
0
100
AcDbSymbolTable
 70
1
  0
VPORT
  5
23
330
8
100
AcDbSymbolTableRecord
100
AcDbViewportTableRecord
  2
*Active
 70
0
 10
0.0
 20
0.0
 11
1.0
 21
1.0
 12
0.0
 22
0.0
 13
0.0
 23
0.0
 14
0.5
 24
0.5
 15
0.5
 25
0.5
 16
0.0
 26
0.0
 36
1.0
 17
0.0
 27
0.0
 37
0.0
 40
1000.0
 41
1.34
 42
50.0
 43
0.0
 44
0.0
 50
0.0
 51
0.0
 71
0
 72
1000
 73
1
 74
3
 75
0
 76
0
 77
0
 78
0
281
0
 65
0
146
0.0
  0
ENDTAB
  0
TABLE
  2
LTYPE
  5
2
330
0
100
AcDbSymbolTable
 70
3
  0
LTYPE
  5
24
330
2
100
AcDbSymbolTableRecord
100
AcDbLinetypeTableRecord
  2
ByBlock
 70
0
  3

 72
65
 73
0
 40
0.0
  0
LTYPE
  5
25
330
2
100
AcDbSymbolTableRecord
100
AcDbLinetypeTableRecord
  2
ByLayer
 70
0
  3

 72
65
 73
0
 40
0.0
  0
LTYPE
  5
26
330
2
100
AcDbSymbolTableRecord
100
AcDbLinetypeTableRecord
  2
Continuous
 70
0
  3

 72
65
 73
0
 40
0.0
  0
ENDTAB
  0
TABLE
  2
LAYER
  5
1
330
0
100
AcDbSymbolTable
 70
2
  0
LAYER
  5
27
330
1
100
AcDbSymbolTableRecord
100
AcDbLayerTableRecord
  2
0
 70
0
 62
7
  6
Continuous
370
-3
390
13
347
21
  0
LAYER
  5
28
330
1
100
AcDbSymbolTableRecord
100
AcDbLayerTableRecord
  2
Defpoints
 70
0
 62
7
  6
Continuous
290
0
370
-3
390
13
347
21
  0
ENDTAB
  0
TABLE
  2
STYLE
  5
5
330
0
100
AcDbSymbolTable
 70
1
  0
STYLE
  5
29
330
5
100
AcDbSymbolTableRecord
100
AcDbTextStyleTableRecord
  2
Standard
 70
0
 40
0.0
 41
1.0
 50
0.0
 71
0
 42
2.5
  3
txt
  4

  0
ENDTAB
  0
TABLE
  2
VIEW
  5
7
330
0
100
AcDbSymbolTable
 70
0
  0
ENDTAB
  0
TABLE
  2
UCS
  5
6
330
0
100
AcDbSymbolTable
 70
0
  0
ENDTAB
  0
TABLE
  2
APPID
  5
3
330
0
100
AcDbSymbolTable
 70
3
  0
APPID
  5
2A
330
3
100
AcDbSymbolTableRecord
100
AcDbRegAppTableRecord
  2
ACAD
 70
0
  0
APPID
  5
30
330
3
100
AcDbSymbolTableRecord
100
AcDbRegAppTableRecord
  2
HATCHBACKGROUNDCOLOR
 70
0
  0
APPID
  5
31
330
3
100
AcDbSymbolTableRecord
100
AcDbRegAppTableRecord
  2
EZDXF
 70
0
  0
ENDTAB
  0
TABLE
  2
DIMSTYLE
  5
4
330
0
100
AcDbSymbolTable
 70
1
100
AcDbDimStyleTable
  0
DIMSTYLE
105
2B
330
4
100
AcDbSymbolTableRecord
100
AcDbDimStyleTableRecord
  2
Standard
 70
0
 40
1.0
 41
2.5
 42
0.625
 43
3.75
 44
1.25
 45
0.0
 46
0.0
 47
0.0
 48
0.0
 49
2.5
140
2.5
141
2.5
142
0.0
143
0.03937007874
144
1.0
145
0.0
146
1.0
147
0.625
148
0.0
 69
0
 70
0
 71
0
 72
0
 73
0
 74
0
 75
0
 76
0
 77
1
 78
8
 79
3
170
0
171
3
172
1
173
0
174
0
175
0
176
0
177
0
178
0
179
2
271
2
272
2
273
2
274
3
275
0
276
0
277
2
278
44
279
0
280
0
281
0
282
0
283
0
284
8
285
0
286
0
288
0
289
3
290
0
371
-2
372
-2
  0
ENDTAB
  0
TABLE
  2
BLOCK_RECORD
  5
9
330
0
100
AcDbSymbolTable
 70
2
  0
BLOCK_RECORD
  5
17
330
9
100
AcDbSymbolTableRecord
100
AcDbBlockTableRecord
  2
*Model_Space
340
1A
 70
0
280
1
281
0
  0
BLOCK_RECORD
  5
1B
330
9
100
AcDbSymbolTableRecord
100
AcDbBlockTableRecord
  2
*Paper_Space
340
1E
 70
0
280
1
281
0
  0
ENDTAB
  0
ENDSEC
  0
SECTION
  2
BLOCKS
  0
BLOCK
  5
18
330
17
100
AcDbEntity
  8
0
100
AcDbBlockBegin
  2
*Model_Space
 70
0
 10
0.0
 20
0.0
 30
0.0
  3
*Model_Space
  1

  0
ENDBLK
  5
19
330
17
100
AcDbEntity
  8
0
100
AcDbBlockEnd
  0
BLOCK
  5
1C
330
1B
100
AcDbEntity
  8
0
100
AcDbBlockBegin
  2
*Paper_Space
 70
0
 10
0.0
 20
0.0
 30
0.0
  3
*Paper_Space
  1

  0
ENDBLK
  5
1D
330
1B
100
AcDbEntity
  8
0
100
AcDbBlockEnd
  0
ENDSEC
  0
SECTION
  2
ENTITIES
  0
LWPOLYLINE
  5
2F
330
17
100
AcDbEntity
  8
SHELF
100
AcDbPolyline
 90
654
 70
1
 10
0.0
 20
0.0
 10
4.0
 20
0.0
 10
4.023777651402778
 20
0.13624874791318864
 10
4.047541857574649
 20
0.2724974958263773
 10
4.071279180887404
 20
0.4087462437395659
 10
4.0949761989139235
 20
0.5449949916527546
 10
4.118619512017979
 20
0.6812437395659432
 10
4.142195750931148
 20
0.8174924874791318
 10
4.165691584312555
 20
0.9537412353923205
 10
4.189093726287166
 20
1.0899899833055091
 10
4.212388943958375
 20
1.2262387312186978
 10
4.235564064890634
 20
1.3624874791318864
 10
4.258605984557895
 20
1.498736227045075
 10
4.281501673753645
 20
1.6349849749582637
 10
4.3042381859583685
 20
1.7712337228714523
 10
4.326802664660233
 20
1.907482470784641
 10
4.488316653173953
 20
2.0
 10
4.488316653173953
 20
2.04373121869783
 10
4.488316653173953
 20
2.1799799666110182
 10
4.488316653173953
 20
2.3162287145242066
 10
4.488316653173953
 20
2.4524774624373955
 10
4.488316653173953
 20
2.5887262103505844
 10
4.488316653173953
 20
2.724974958263773
 10
4.488316653173953
 20
2.861223706176961
 10
4.488316653173953
 20
2.923
 10
4.4996179129309075
 20
2.99747245409015
 10
4.52007394958702
 20
3.133721202003339
 10
4.540235906974248
 20
3.2699699499165273
 10
4.560092384379881
 20
3.4062186978297158
 10
4.579632153826894
 20
3.5424674457429046
 10
4.598844166422877
 20
3.6787161936560935
 10
4.617717558607712
 20
3.814964941569282
 10
4.63624165829644
 20
3.9512136894824703
 10
4.654405990913862
 20
4.08746243739566
 10
4.672200285317461
 20
4.223711185308848
 10
4.689614479605286
 20
4.3599599332220365
 10
4.706638726805519
 20
4.496208681135225
 10
4.723263400444513
 20
4.632457429048413
 10
4.739479099990147
 20
4.768706176961603
 10
4.755276656167415
 20
4.904954924874791
 10
4.770647136143256
 20
5.041203672787979
 10
4.785581848577685
 20
5.177452420701169
 10
4.800072348538366
 20
5.313701168614357
 10
4.814110442275857
 20
5.449949916527546
 10
4.82768819185682
 20
5.586198664440734
 10
4.840797919652577
 20
5.722447412353922
 10
4.853432212680478
 20
5.858696160267112
 10
4.865583926795619
 20
5.9949449081803
 10
4.8772461907305455
 20
6.1311936560934885
 10
4.8884124099806625
 20
6.267442404006678
 10
4.899076270533134
 20
6.403691151919866
 10
4.909231742437185
 20
6.539939899833055
 10
4.91887308321378
 20
6.676188647746243
 10
4.927994841102745
 20
6.8124373956594315
 10
4.936591858145497
 20
6.948686143572621
 10
4.944659273101652
 20
7.084934891485809
 10
4.952192524197844
 20
7.221183639398998
 10
4.959187351707209
 20
7.357432387312187
 10
4.9656398003580735
 20
7.493681135225375
 10
4.971546221570495
 20
7.629929883138564
 10
4.976903275519371
 20
7.766178631051752
 10
4.9817079330229666
 20
7.902427378964941
 10
4.985957477255787
 20
8.03867612687813
 10
4.989649505284821
 20
8.17492487479132
 10
4.9927819294283
 20
8.311173622704507
 10
4.995352978436187
 20
8.447422370617696
 10
4.997361198491745
 20
8.583671118530884
 10
4.998805454033606
 20
8.719919866444073
 10
4.999684928397883
 20
8.856168614357262
 10
4.999999124279954
 20
8.99241736227045
 10
4.999747864015672
 20
9.128666110183639
 10
4.9989312896818205
 20
9.264914858096827
 10
4.997549863015782
 20
9.401163606010016
 10
4.9956043651544375
 20
9.537412353923205
 10
4.993095896192475
 20
9.673661101836393
 10
4.990025874560329
 20
9.809909849749582
 10
4.986396036222121
 20
9.946158597662771
 10
4.982208433694048
 20
10.082407345575959
 10
4.97746543488377
 20
10.218656093489148
 10
4.972169721751466
 20
10.354904841402337
 10
4.966324288793297
 20
10.491153589315525
 10
4.959932441348154
 20
10.627402337228714
 10
4.952997793728625
 20
10.763651085141902
 10
4.945524267177264
 20
10.899899833055091
 10
4.937516087649294
 20
11.03614858096828
 10
4.928977783423017
 20
11.172397328881468
 10
4.919914182539264
 20
11.308646076794657
 10
4.910330410071352
 20
11.444894824707845
 10
4.900231885227074
 20
11.581143572621034
 10
4.889624318284372
 20
11.717392320534223
 10
4.8785137073624245
 20
11.853641068447411
 10
4.866906335029969
 20
11.9898898163606
 10
4.854808764752782
 20
12.12613856427379
 10
4.842227837182324
 20
12.262387312186977
 10
4.829170666287643
 20
12.398636060100166
 10
4.815644635332745
 20
12.534884808013356
 10
4.8016573927016655
 20
12.671133555926543
 10
4.787216847573646
 20
12.807382303839733
 10
4.772331165450838
 20
12.94363105175292
 10
4.757008763541061
 20
13.07987979966611
 10
4.741258305998239
 20
13.216128547579299
 10
4.725088699023197
 20
13.352377295492486
 10
4.708509085827591
 20
13.488626043405676
 10
4.691528841463815
 20
13.624874791318863
 10
4.674157567523819
 20
13.761123539232052
 10
4.660194436240933
 20
13.868289358712403
 10
4.632175040745989
 20
13.87269660144226
 10
4.605123953699621
 20
13.881225903992402
 10
4.579644024921496
 20
13.893687185701904
 10
4.556303090019943
 20
13.909802739378508
 10
4.535621315832331
 20
13.929213420171168
 10
4.518059608192794
 20
13.95148664933008
 10
4.504009340367234
 20
13.97612605448548
 10
4.493783631063612
 20
14.002582531605833
 10
4.487610366392348
 20
14.030266482112951
 10
4.485627121286659
 20
14.058560952442553
 10
4.487878093562043
 20
14.086835383227228
 10
4.494313118941258
 20
14.114459661692933
 10
4.50478878899555
 20
14.140818164102887
 10
4.51907164708814
 20
14.165323475304522
 10
4.51907164708814
 20
14.169869782971618
 10
4.51907164708814
 20
14.306118530884808
 10
4.51907164708814
 20
14.442367278797995
 10
4.51907164708814
 20
14.578616026711185
 10
4.51907164708814
 20
14.714864774624374
 10
4.51907164708814
 20
14.851113522537561
 10
4.51907164708814
 20
14.873
 10
4.501908974325407
 20
14.98736227045075
 10
4.481201293538548
 20
15.123611018363938
 10
4.460221514284342
 20
15.259859766277128
 10
4.438981499718306
 20
15.396108514190317
 10
4.417493260147744
 20
15.532357262103504
 10
4.395768946240434
 20
15.668606010016694
 10
4.37382084215396
 20
15.804854757929881
 10
4.351661358589545
 20
15.94110350584307
 10
4.329303025774345
 20
16.07735225375626
 10
4.306758486376142
 20
16.21360100166945
 10
4.284040488354471
 20
16.34984974958264
 10
4.261161877752195
 20
16.486098497495824
 10
4.238135591431629
 20
16.622347245409014
 10
4.2149746497593
 20
16.758595993322203
 10
4.191692149243504
 20
16.894844741235392
 10
4.168301255128788
 20
17.03109348914858
 10
4.144815193951581
 20
17.167342237061767
 10
4.121247246061158
 20
17.303590984974957
 10
4.097610738110183
 20
17.439839732888146
 10
4.073919035519058
 20
17.576088480801335
 10
4.050185534918363
 20
17.712337228714524
 10
4.026423656573639
 20
17.84858597662771
 10
4.002646836796812
 20
17.9848347245409
 10
3.9788685203485388
 20
18.12108347245409
 10
3.9551021528357797
 20
18.257332220367278
 10
3.931361173108891
 20
18.393580968280467
 10
3.9076590056625355
 20
18.529829716193653
 10
3.8840090530447133
 20
18.666078464106842
 10
3.8604246882782047
 20
18.80232721202003
 10
3.8369192472987046
 20
18.93857595993322
 10
3.8135060214139247
 20
19.07482470784641
 10
3.7901982497879434
 20
19.2110734557596
 10
3.7670091119550255
 20
19.347322203672785
 10
3.7439517203671704
 20
19.483570951585975
 10
3.721039112979586
 20
19.619819699499164
 10
3.6982842458782965
 20
19.756068447412353
 10
3.6756999859540307
 20
19.892317195325543
 10
3.653299103626558
 20
20.02856594323873
 10
3.631094265623565
 20
20.164814691151918
 10
3.6090980278181766
 20
20.301063439065107
 10
3.587322828129147
 20
20.437312186978296
 10
3.5657809794877613
 20
20.573560934891486
 10
3.544484662875406
 20
20.709809682804675
 10
3.523445920435749
 20
20.84605843071786
 10
3.502676648665432
 20
20.98230717863105
 10
3.4821885916871183
 20
21.11855592654424
 10
3.461993334608697
 20
21.25480467445743
 10
3.442102296972412
 20
21.391053422370618
 10
3.4225267262976025
 20
21.527302170283804
 10
3.4032776917207155
 20
21.663550918196993
 10
3.384366077736198
 20
21.799799666110182
 10
3.365802578041779
 20
21.93604841402337
 10
3.3475976894916504
 20
22.07229716193656
 10
3.329761706160953
 20
22.208545909849747
 10
3.3123047135249175
 20
22.344794657762936
 10
3.295236582755971
 20
22.481043405676125
 10
3.2785669651420175
 20
22.617292153589315
 10
3.262305286629047
 20
22.753540901502504
 10
3.2464607424911778
 20
22.88978964941569
 10
3.231042292131125
 20
23.02603839732888
 10
3.216058654014045
 20
23.162287145242068
 10
3.201518300737628
 20
23.298535893155258
 10
3.1874294542412036
 20
23.434784641068447
 10
3.1738000811565943
 20
23.571033388981636
 10
3.160637888303331
 20
23.707282136894822
 10
3.1479503183307793
 20
23.84353088480801
 10
3.1357445455096453
 20
23.9797796327212
 10
3.1240274716752374
 20
24.11602838063439
 10
3.1128057223247723
 20
24.25227712854758
 10
3.102085642870951
 20
24.388525876460765
 10
3.0918732950538983
 20
24.524774624373954
 10
3.082174453513513
 20
24.661023372287143
 10
3.072994602524159
 20
24.797272120200333
 10
3.0643389328935475
 20
24.933520868113522
 10
3.0562123390275566
 20
25.06976961602671
 10
3.0486194161626625
 20
25.206018363939897
 10
3.0415644577675267
 20
25.342267111853086
 10
3.03505145311523
 20
25.478515859766276
 10
3.0290840850275087
 20
25.614764607679465
 10
3.023665727792281
 20
25.751013355592654
 10
3.0187994452556324
 20
25.88726210350584
 10
3.014487989089342
 20
26.02351085141903
 10
3.0107337972349333
 20
26.15975959933222
 10
3.007538992525125
 20
26.296008347245408
 10
3.0049053814834585
 20
26.432257095158597
 10
3.0026983204422257
 20
26.498000000000008
 10
3.0026983204422257
 20
26.498000000000008
 10
3.0026983204422257
 20
26.498000000000005
 10
3.0026983204422257
 20
26.498000000000005
 10
3.0026983204422257
 20
26.498
 10
3.0026983204422257
 20
26.498
 10
3.002698320442226
 20
26.497999999999998
 10
3.002698320442226
 20
26.497999999999998
 10
3.002698320442226
 20
26.497999999999998
 10
3.002698320442226
 20
26.497999999999994
 10
3.002698320442226
 20
26.497999999999994
 10
3.002698320442226
 20
26.49799999999999
 10
3.002698320442226
 20
26.49799999999999
 10
3.002698320442226
 20
26.497999999999987
 10
3.002698320442226
 20
26.497999999999987
 10
3.002698320442226
 20
26.568505843071783
 10
3.002698320442226
 20
26.704754590984972
 10
3.002698320442226
 20
26.84100333889816
 10
3.002698320442226
 20
26.97725208681135
 10
3.002698320442226
 20
27.11350083472454
 10
3.002698320442226
 20
27.249749582637726
 10
3.002698320442226
 20
27.385998330550915
 10
3.002698320442226
 20
27.421
 10
3.0041512230898597
 20
27.522247078464105
 10
3.006597094432172
 20
27.658495826377294
 10
3.0096046920451585
 20
27.794744574290483
 10
3.0131723152627736
 20
27.930993322203673
 10
3.0172979467487737
 20
28.06724207011686
 10
3.021979253637436
 20
28.203490818030048
 10
3.0272135888526877
 20
28.339739565943237
 10
3.032997992604918
 20
28.475988313856426
 10
3.0393291940646083
 20
28.612237061769616
 10
3.0462036132118437
 20
28.7484858096828
 10
3.053617362860661
 20
28.88473455759599
 10
3.0615662508570827
 20
29.02098330550918
 10
3.070045782449598
 20
29.15723205342237
 10
3.079051162830751
 20
29.29348080133556
 10
3.088577299848396
 20
29.429729549248748
 10
3.098618806885087
 20
29.565978297161934
 10
3.10917000590398
 20
29.702227045075123
 10
3.1202249306595142
 20
29.838475792988312
 10
3.1317773300710634
 20
29.9747245409015
 10
3.1438206717576564
 20
30.11097328881469
 10
3.156348145731749
 20
30.247222036727877
 10
3.16935266824998
 20
30.383470784641066
 10
3.182826885818724
 20
30.519719532554255
 10
3.1967631793521663
 20
30.655968280467444
 10
3.211153668480569
 20
30.792217028380634
 10
3.22599021600628
 20
30.92846577629382
 10
3.2412644325049635
 20
31.06471452420701
 10
3.2569676810694568
 20
31.200963272120198
 10
3.273091082193565
 20
31.337212020033387
 10
3.289625518793037
 20
31.473460767946577
 10
3.3065616413608847
 20
31.609709515859763
 10
3.3238898732541218
 20
31.745958263772952
 10
3.341600416108936
 20
31.88220701168614
 10
3.3596832553812446
 20
32.01845575959933
 10
3.3781281660094855
 20
32.15470450751252
 10
3.396924718196439
 20
32.290953255425705
 10
3.4160622833068355
 20
32.4272020033389
 10
3.4355300398773783
 20
32.563450751252084
 10
3.4553169797358194
 20
32.69969949916528
 10
3.4754119142256004
 20
32.83594824707846
 10
3.495803480532553
 20
32.97219699499165
 10
3.5164801481100785
 20
33.10844574290484
 10
3.537430225199167
 20
33.24469449081803
 10
3.558641865439593
 20
33.38094323873122
 10
3.5801030745685
 20
33.517191986644406
 10
3.601801717202653
 20
33.65344073455759
 10
3.6237255237004615
 20
33.789689482470784
 10
3.6458620970999336
 20
33.92593823038397
 10
3.668198920128621
 20
34.06218697829716
 10
3.69072336228159
 20
34.19843572621035
 10
3.7134226869634275
 20
34.334684474123534
 10
3.7362840586902357
 20
34.47093322203673
 10
3.759294550347536
 20
34.60718196994991
 10
3.7824411504999973
 20
34.743430717863106
 10
3.8057107707488314
 20
34.87967946577629
 10
3.8290902531327244
 20
35.01592821368948
 10
3.8525663775680883
 20
35.15217696160267
 10
3.876125869324441
 20
35.288425709515856
 10
3.8997554065306983
 20
35.42467445742905
 10
3.9234416277081103
 20
35.560923205342235
 10
3.947171139325601
 20
35.69717195325542
 10
3.9709305233732253
 20
35.83342070116861
 10
3.9947063449494733
 20
35.9696694490818
 10
4.018485159858128
 20
36.10591819699499
 10
4.04225352221037
 20
36.24216694490818
 10
4.06599799202785
 20
36.37841569282136
 10
4.089705142842412
 20
36.514664440734556
 10
4.113361569288171
 20
36.65091318864774
 10
4.136953894681683
 20
36.787161936560935
 10
4.160468778585862
 20
36.92341068447412
 10
4.183892924353431
 20
37.059659432387306
 10
4.207213086645594
 20
37.1959081803005
 10
4.2304160789216985
 20
37.332156928213685
 10
4.253488780895662
 20
37.46840567612688
 10
4.276418145954913
 20
37.60465442404006
 10
4.299191208537692
 20
37.740903171953256
 10
4.321795091464514
 20
37.87715191986644
 10
4.344217013219654
 20
38.01340066777963
 10
4.366444295178542
 20
38.14964941569282
 10
4.388464368776965
 20
38.28589816360601
 10
4.410264782618066
 20
38.4221469115192
 10
4.431833209513045
 20
38.558395659432385
 10
4.453157453451671
 20
38.69464440734557
 10
4.474225456498582
 20
38.830893155258764
 10
4.495025305611529
 20
38.96714190317195
 10
4.6386335222323
 20
39.046
 10
4.6386335222323
 20
39.10339065108514
 10
4.6386335222323
 20
39.23963939899833
 10
4.6386335222323
 20
39.375888146911514
 10
4.6386335222323
 20
39.51213689482471
 10
4.6386335222323
 20
39.64838564273789
 10
4.6386335222323
 20
39.784634390651085
 10
4.6386335222323
 20
39.92088313856427
 10
4.6386335222323
 20
39.969
 10
4.650394059530587
 20
40.05713188647746
 10
4.668271606833814
 20
40.19338063439065
 10
4.685771275518608
 20
40.329629382303835
 10
4.702883170281085
 20
40.46587813021703
 10
4.719597615086702
 20
40.602126878130214
 10
4.735905158641636
 20
40.7383756260434
 10
4.751796579737076
 20
40.87462437395659
 10
4.76726289246342
 20
41.01087312186978
 10
4.782295351291418
 20
41.14712186978297
 10
4.796885456017384
 20
41.28337061769616
 10
4.811024956569704
 20
41.41961936560935
 10
4.824705857673879
 20
41.555868113522536
 10
4.83792042337352
 20
41.69211686143572
 10
4.850661181404687
 20
41.828365609348914
 10
4.862920927421131
 20
41.9646143572621
 10
4.874692729068046
 20
42.10086310517529
 10
4.885969929902006
 20
42.23711185308848
 10
4.896746153154902
 20
42.373360601001664
 10
4.907015305339727
 20
42.50960934891486
 10
4.916771579696172
 20
42.64585809682804
 10
4.926009459474107
 20
42.782106844741236
 10
4.934723721053058
 20
42.91835559265442
 10
4.942909436895938
 20
43.05460434056761
 10
4.950561978335361
 20
43.1908530884808
 10
4.957677018190942
 20
43.327101836393986
 10
4.964250533216141
 20
43.46335058430718
 10
4.970278806373229
 20
43.599599332220365
 10
4.975758428935112
 20
43.73584808013355
 10
4.9806863024128205
 20
43.87209682804674
 10
4.985059640307567
 20
44.00834557595993
 10
4.988875969686392
 20
44.14459432387312
 10
4.992133132580503
 20
44.28084307178631
 10
4.994829287205509
 20
44.41709181969949
 10
4.996962909002872
 20
44.553340567612686
 10
4.998532791501974
 20
44.68958931552587
 10
4.999538047002331
 20
44.825838063439065
 10
4.999978107075543
 20
44.96208681135225
 10
4.999852722886718
 20
45.098335559265436
 10
4.9991619653351815
 20
45.23458430717863
 10
4.9979062250143755
 20
45.370833055091815
 10
4.996086211991006
 20
45.50708180300501
 10
4.993702955403524
 20
45.64333055091819
 10
4.9907578028801955
 20
45.77957929883138
 10
4.987252419777076
 20
45.91582804674457
 10
4.983188788236322
 20
46.05207679465776
 10
4.978569206065376
 20
46.18832554257095
 10
4.9733962854376585
 20
46.324574290484136
 10
4.967672951415494
 20
46.46082303839733
 10
4.961402440296118
 20
46.597071786310515
 10
4.954588297781688
 20
46.7333205342237
 10
4.947234376974346
 20
46.869569282136894
 10
4.939344836197453
 20
47.00581803005008
 10
4.93092413664424
 20
47.14206677796327
 10
4.921977039855196
 20
47.27831552587646
 10
4.912508605025623
 20
47.414564273789644
 10
4.902524186144879
 20
47.55081302170284
 10
4.892029428968935
 20
47.68706176961602
 10
4.881030267827934
 20
47.823310517529215
 10
4.869532922270595
 20
47.9595592654424
 10
4.857543893547327
 20
48.09580801335559
 10
4.845069960934044
 20
48.23205676126878
 10
4.832118177898788
 20
48.368305509181965
 10
4.818695868113297
 20
48.50455425709516
 10
4.804810621311782
 20
48.640803005008344
 10
4.790470288999272
 20
48.77705175292153
 10
4.775682980011908
 20
48.91330050083472
 10
4.760457055931772
 20
49.04954924874791
 10
4.744801126358755
 20
49.1857979966611
 10
4.728724044042217
 20
49.32204674457429
 10
4.712234899875128
 20
49.45829549248747
 10
4.695343017753572
 20
49.594544240400666
 10
4.678057949304481
 20
49.73079298831385
 10
4.660389468484611
 20
49.867041736227044
 10
4.642347566053787
 20
50.00329048414023
 10
4.623942443925562
 20
50.13953923205342
 10
4.605184509398484
 20
50.27578797996661
 10
4.586084369271212
 20
50.412036727879794
 10
4.566652823844836
 20
50.54828547579299
 10
4.546900860815774
 20
50.68453422370617
 10
4.526839649062699
 20
50.820782971619366
 10
4.50648053233104
 20
50.95703171953255
 10
4.4858350228185655
 20
51.09328046744574
 10
4.464914794665746
 20
51.22952921535893
 10
4.443731677354537
 20
51.365777963272116
 10
4.422531101395381
 20
51.50054273470454
 10
4.393852422973944
 20
51.50227424730309
 10
4.3657627104281005
 20
51.50831020463985
 10
4.33890426478376
 20
51.51851258815789
 10
4.313891232845145
 20
51.53264810955319
 10
4.291295564077704
 20
51.55039354515876
 10
4.271633932377857
 20
51.57134312679608
 10
4.255355921777168
 20
51.59501782009426
 10
4.242833746227325
 20
51.620876278118246
 10
4.234353738533948
 20
51.648327219839786
 10
4.230109803053739
 20
51.676742950404375
 10
4.23019898186601
 20
51.705473714038824
 10
4.234619235802778
 20
51.73386255140518
 10
4.243269491076484
 20
51.76126032167174
 10
4.255951950439202
 20
51.7870405458056
 10
4.255951950439201
 20
51.91077295492487
 10
4.255951950439201
 20
52.04702170283806
 10
4.255951950439201
 20
52.18327045075125
 10
4.255951950439201
 20
52.31951919866444
 10
4.255951950439201
 20
52.45576794657762
 10
4.255951950439201
 20
52.517
 10
4.243273621549337
 20
52.592016694490816
 10
4.220141525076208
 20
52.728265442404
 10
4.196884948115647
 20
52.864514190317195
 10
4.173517041253555
 20
53.00076293823038
 10
4.150051018028068
 20
53.137011686143566
 10
4.126500147457865
 20
53.27326043405676
 10
4.102877746539128
 20
53.409509181969945
 10
4.079197172715344
 20
53.54575792988314
 10
4.055471816324258
 20
53.68200667779632
 10
4.0317150930262144
 20
53.81825542570951
 10
4.007940436218181
 20
53.9545041736227
 10
3.9841612894377496
 20
54.09075292153589
 10
3.9603910987614004
 20
54.22700166944908
 10
3.9366433052013208
 20
54.363250417362266
 10
3.9129313371051024
 20
54.49949916527545
 10
3.889268602562586
 20
54.635747913188645
 10
3.865668481824177
 20
54.77199666110183
 10
3.8421443197348877
 20
54.908245409015024
 10
3.818709418188409
 20
55.04449415692821
 10
3.7953770286054613
 20
55.1807429048414
 10
3.7721603444407026
 20
55.31699165275459
 10
3.749072493722384
 20
55.453240400667774
 10
3.7261265316290335
 20
55.58948914858097
 10
3.7033354331073136
 20
55.72573789649415
 10
3.68071208553525
 20
55.861986644407345
 10
3.6582692814349858
 20
55.99823539232053
 10
3.636019711239149
 20
56.13448414023372
 10
3.61397595611498
 20
56.27073288814691
 10
3.5921504808502185
 20
56.406981636060095
 10
3.570555626804805
 20
56.54323038397329
 10
3.5492036049323885
 20
56.679479131886474
 10
3.528106488875543
 20
56.81572787979966
 10
3.507276208138657
 20
56.95197662771285
 10
3.4867245413423245
 20
57.08822537562604
 10
3.4664631095630245
 20
57.22447412353923
 10
3.446503369761927
 20
57.36072287145242
 10
3.4268566083064673
 20
57.4969716193656
 10
3.4075339345883897
 20
57.633220367278795
 10
3.388546274741886
 20
57.76946911519198
 10
3.36990436546532
 20
57.905717863105174
 10
3.351618747950102
 20
58.04196661101836
 10
3.333699761920106
 20
58.178215358931546
 10
3.316157539784986
 20
58.31446410684474
 10
3.299002000910761
 20
58.450712854757924
 10
3.2822428460108233
 20
58.58696160267112
 10
3.2658895516606177
 20
58.7232103505843
 10
3.249951364939045
 20
58.859459098497496
 10
3.2344372981996443
 20
58.99570784641068
 10
3.2193561239744874
 20
59.13195659432387
 10
3.204716370013703
 20
59.26820534223706
 10
3.190526314463399
 20
59.404454090150246
 10
3.1767939811847294
 20
59.54070283806344
 10
3.163527135216751
 20
59.676951585976624
 10
3.150733278385628
 20
59.81320033388981
 10
3.1384196450626773
 20
59.949449081803
 10
3.126593198073642
 20
60.08569782971619
 10
3.1152606247615187
 20
60.22194657762938
 10
3.104428333205151
 20
60.35819532554257
 10
3.094102448595744
 20
60.49444407345575
 10
3.084288809773329
 20
60.630692821368946
 10
3.0749929659251567
 20
60.76694156928213
 10
3.066220173447867
 20
60.903190317195325
 10
3.057975392975235
 20
61.03943906510851
 10
3.0502632865731334
 20
61.175687813021696
 10
3.0430882151033494
 20
61.31193656093489
 10
3.0364542357576996
 20
61.448185308848075
 10
3.0303650997638627
 20
61.58443405676127
 10
3.0248242502642295
 20
61.72068280467445
 10
3.0198348203689482
 20
61.85693155258764
 10
3.015399631384291
 20
61.99318030050083
 10
3.011521191217326
 20
62.12942904841402
 10
3.0082016929578037
 20
62.26567779632721
 10
3.0054430136380623
 20
62.401926544240396
 10
3.003246713171645
 20
62.53817529215358
 10
3.0016140334712365
 20
62.674424040066775
 10
3.0005458977464174
 20
62.81067278797996
 10
3.0000429099816275
 20
62.94692153589315
 10
3.0001053545946386
 20
63.08317028380634
 10
3.00073319627573
 20
63.219419031719525
 10
3.0019260800076535
 20
63.35566777963272
 10
3.0036833312663793
 20
63.491916527545904
 10
3.0060039564025134
 20
63.6281652754591
 10
3.008886643203159
 20
63.76441402337228
 10
3.0123297616339206
 20
63.900662771285475
 10
3.016331364760612
 20
64.03691151919865
 10
3.0642478604075993
 20
64.142
 10
3.0642478604075993
 20
64.17316026711185
 10
3.0642478604075993
 20
64.30940901502504
 10
3.0642478604075993
 20
64.44565776293823
 10
3.0642478604075993
 20
64.58190651085141
 10
3.0642478604075993
 20
64.7181552587646
 10
3.0642478604075993
 20
64.8544040066778
 10
3.0642478604075993
 20
64.99065275459098
 10
3.0642478604075993
 20
65.065
 10
3.0681124660904877
 20
65.12690150250417
 10
3.0770012166062335
 20
65.26315025041735
 10
3.08641188291418
 20
65.39939899833055
 10
3.0963391436905594
 20
65.53564774624374
 10
3.106777385499834
 20
65.67189649415693
 10
3.117720705968848
 20
65.80814524207011
 10
3.129162917124361
 20
65.9443939899833
 10
3.1410975488920823
 20
66.0806427378965
 10
3.1535178527552126
 20
66.21689148580968
 10
3.1664168055704427
 20
66.35314023372287
 10
3.179787113539235
 20
66.48938898163605
 10
3.1936212163321516
 20
66.62563772954924
 10
3.2079112913638865
 20
66.76188647746244
 10
3.2226492582166024
 20
66.89813522537563
 10
3.237826783209064
 20
67.03438397328881
 10
3.2534352841089587
 20
67.170632721202
 10
3.269465934985792
 20
67.30688146911518
 10
3.285909671201555
 20
67.44313021702838
 10
3.302757194536393
 20
67.57937896494157
 10
3.3199989784463426
 20
67.71562771285475
 10
3.33762527345018
 20
67.85187646076794
 10
3.3556261126423323
 20
67.98812520868113
 10
3.3739913173287217
 20
68.12437395659433
 10
3.3927105027823865
 20
68.26062270450751
 10
3.4117730841155876
 20
68.3968714524207
 10
3.431168282265104
 20
68.53312020033388
 10
3.450885130087331
 20
68.66936894824707
 10
3.470912478559718
 20
68.80561769616027
 10
3.4912390030850533
 20
68.94186644407345
 10
3.511853209895051
 20
69.07811519198664
 10
3.532743442549555
 20
69.21436393989983
 10
3.5538978885277706
 20
69.35061268781301
 10
3.5753045859077255
 20
69.48686143572621
 10
3.5969514301302037
 20
69.6231101836394
 10
3.618826180843378
 20
69.75935893155258
 10
3.6409164688241735
 20
69.89560767946577
 10
3.663209802972537
 20
70.03185642737895
 10
3.6856935773746184
 20
70.16810517529215
 10
3.708355078430846
 20
70.30435392320534
 10
3.731181492044946
 20
70.44060267111853
 10
3.754159910869737
 20
70.57685141903171
 10
3.777277341605681
 20
70.7131001669449
 10
3.800520712348037
 20
70.8493489148581
 10
3.8238768799784437
 20
70.98559766277128
 10
3.8473326375967924
 20
71.12184641068447
 10
3.8708747219891615
 20
71.25809515859765
 10
3.8944898211275683
 20
71.39434390651084
 10
3.9181645816973716
 20
71.53059265442404
 10
3.941885616647965
 20
71.66684140233723
 10
3.965639512762592
 20
71.80309015025041
 10
3.989412838242937
 20
71.9393388981636
 10
4.013192150304209
 20
72.07558764607678
 10
4.03696400277648
 20
72.21183639398998
 10
4.060714953707881
 20
72.34808514190317
 10
4.084431572965465
 20
72.48433388981636
 10
4.108100449829362
 20
72.62058263772954
 10
4.13170820057595
 20
72.75683138564273
 10
4.15524147604578
 20
72.89308013355593
 10
4.178686969191936
 20
73.02932888146911
 10
4.202031422604605
 20
73.1655776293823
 10
4.225261636007564
 20
73.30182637729548
 10
4.248364473722362
 20
73.43807512520867
 10
4.271326872095972
 20
73.57432387312187
 10
4.294135846887727
 20
73.71057262103506
 10
4.3167785006113455
 20
73.84682136894824
 10
4.339242029827896
 20
73.98307011686143
 10
4.361513732385595
 20
74.11931886477461
 10
4.383581014602312
 20
74.25556761268781
 10
4.405431398386752
 20
74.391816360601
 10
4.427052528294289
 20
74.52806510851418
 10
4.448432178513415
 20
74.66431385642737
 10
4.469558259778926
 20
74.80056260434057
 10
4.490418826207855
 20
74.93681135225376
 10
4.51100208205437
 20
75.07306010016694
 10
4.531296388379752
 20
75.20930884808013
 10
4.551290269633697
 20
75.34555759599331
 10
4.570972420143268
 20
75.48180634390651
 10
4.590331710505733
 20
75.6180550918197
 10
4.609357193881783
 20
75.75430383973288
 10
4.628038112185488
 20
75.89055258764607
 10
4.646363902167517
 20
76.02680133555926
 10
4.664324201388219
 20
76.16305008347246
 10
4.681908854077112
 20
76.29929883138564
 10
4.699107916875545
 20
76.43554757929883
 10
4.715911664459232
 20
76.57179632721201
 10
4.830304205961894
 20
76.69
 10
4.830304205961894
 20
76.7080450751252
 10
4.830304205961894
 20
76.8442938230384
 10
4.830304205961894
 20
76.98054257095158
 10
4.830304205961894
 20
77.11679131886477
 10
4.830304205961894
 20
77.25304006677796
 10
4.830304205961894
 20
77.38928881469114
 10
4.830304205961894
 20
77.52553756260434
 10
4.830304205961894
 20
77.613
 10
4.8350194460671
 20
77.66178631051753
 10
4.847866312067524
 20
77.79803505843071
 10
4.860233746430652
 20
77.9342838063439
 10
4.872114755908591
 20
78.07053255425708
 10
4.883502622305621
 20
78.20678130217028
 10
4.894390906277053
 20
78.34303005008347
 10
4.904773450970402
 20
78.47927879799666
 10
4.914644385506815
 20
78.61552754590984
 10
4.923998128300799
 20
78.75177629382303
 10
4.932829390216371
 20
78.88802504173623
 10
4.941133177557825
 20
79.02427378964941
 10
4.94890479489346
 20
79.1605225375626
 10
4.956139847710637
 20
79.29677128547578
 10
4.962834244900689
 20
79.43302003338897
 10
4.968984201072266
 20
79.56926878130217
 10
4.974586238691803
 20
79.70551752921536
 10
4.979637190049922
 20
79.84176627712854
 10
4.984134199052632
 20
79.97801502504173
 10
4.988074722836327
 20
80.11426377295491
 10
4.99145653320566
 20
80.25051252086811
 10
4.994277717893499
 20
80.3867612687813
 10
4.996536681642224
 20
80.52301001669449
 10
4.998232147105781
 20
80.65925876460767
 10
4.999363155571962
 20
80.79550751252086
 10
4.99992906750452
 20
80.93175626043406
 10
4.999929562904794
 20
81.06800500834724
 10
4.9993646414926545
 20
81.20425375626043
 10
4.998234622706668
 20
81.34050250417361
 10
4.996540145523461
 20
81.4767512520868
 10
4.994282168096412
 20
81.613
 10
0.0
 20
81.613
 10
0.0
 20
0.0
  0
ENDSEC
  0
SECTION
  2
OBJECTS
  0
DICTIONARY
  5
A
330
0
100
AcDbDictionary
281
1
  3
ACAD_COLOR
350
B
  3
ACAD_GROUP
350
C
  3
ACAD_LAYOUT
350
D
  3
ACAD_MATERIAL
350
E
  3
ACAD_MLEADERSTYLE
350
F
  3
ACAD_MLINESTYLE
350
10
  3
ACAD_PLOTSETTINGS
350
11
  3
ACAD_PLOTSTYLENAME
350
12
  3
ACAD_SCALELIST
350
14
  3
ACAD_TABLESTYLE
350
15
  3
ACAD_VISUALSTYLE
350
16
  3
EZDXF_META
350
2D
  0
DICTIONARY
  5
B
330
A
100
AcDbDictionary
281
1
  0
DICTIONARY
  5
C
330
A
100
AcDbDictionary
281
1
  0
DICTIONARY
  5
D
330
A
100
AcDbDictionary
281
1
  3
Model
350
1A
  3
Layout1
350
1E
  0
DICTIONARY
  5
E
330
A
100
AcDbDictionary
281
1
  3
ByBlock
350
1F
  3
ByLayer
350
20
  3
Global
350
21
  0
DICTIONARY
  5
F
330
A
100
AcDbDictionary
281
1
  3
Standard
350
2C
  0
DICTIONARY
  5
10
330
A
100
AcDbDictionary
281
1
  3
Standard
350
22
  0
DICTIONARY
  5
11
330
A
100
AcDbDictionary
281
1
  0
ACDBDICTIONARYWDFLT
  5
12
330
A
100
AcDbDictionary
281
1
  3
Normal
350
13
100
AcDbDictionaryWithDefault
340
13
  0
ACDBPLACEHOLDER
  5
13
330
12
  0
DICTIONARY
  5
14
330
A
100
AcDbDictionary
281
1
  0
DICTIONARY
  5
15
330
A
100
AcDbDictionary
281
1
  0
DICTIONARY
  5
16
330
A
100
AcDbDictionary
281
1
  0
LAYOUT
  5
1A
330
D
100
AcDbPlotSettings
  1

  4
A3
  6

 40
7.5
 41
20.0
 42
7.5
 43
20.0
 44
420.0
 45
297.0
 46
0.0
 47
0.0
 48
0.0
 49
0.0
140
0.0
141
0.0
142
1.0
143
1.0
 70
1024
 72
1
 73
0
 74
5
  7

 75
16
 76
0
 77
2
 78
300
147
1.0
148
0.0
149
0.0
100
AcDbLayout
  1
Model
 70
1
 71
0
 10
0.0
 20
0.0
 11
420.0
 21
297.0
 12
0.0
 22
0.0
 32
0.0
 14
1e+20
 24
1e+20
 34
1e+20
 15
-1e+20
 25
-1e+20
 35
-1e+20
146
0.0
 13
0.0
 23
0.0
 33
0.0
 16
1.0
 26
0.0
 36
0.0
 17
0.0
 27
1.0
 37
0.0
 76
1
330
17
  0
LAYOUT
  5
1E
330
D
100
AcDbPlotSettings
  1

  4
A3
  6

 40
7.5
 41
20.0
 42
7.5
 43
20.0
 44
420.0
 45
297.0
 46
0.0
 47
0.0
 48
0.0
 49
0.0
140
0.0
141
0.0
142
1.0
143
1.0
 70
0
 72
1
 73
0
 74
5
  7

 75
16
 76
0
 77
2
 78
300
147
1.0
148
0.0
149
0.0
100
AcDbLayout
  1
Layout1
 70
1
 71
1
 10
0.0
 20
0.0
 11
420.0
 21
297.0
 12
0.0
 22
0.0
 32
0.0
 14
1e+20
 24
1e+20
 34
1e+20
 15
-1e+20
 25
-1e+20
 35
-1e+20
146
0.0
 13
0.0
 23
0.0
 33
0.0
 16
1.0
 26
0.0
 36
0.0
 17
0.0
 27
1.0
 37
0.0
 76
1
330
1B
  0
MATERIAL
  5
1F
102
{ACAD_REACTORS
330
E
102
}
330
E
100
AcDbMaterial
  1
ByBlock
  2

 70
0
 40
1.0
 71
1
 41
1.0
 91
-1023410177
 42
1.0
 72
1
  3

 73
1
 74
1
 75
1
 44
0.5
 73
0
 45
1.0
 46
1.0
 77
1
  4

 78
1
 79
1
170
1
 48
1.0
171
1
  6

172
1
173
1
174
1
140
1.0
141
1.0
175
1
  7

176
1
177
1
178
1
143
1.0
179
1
  8

270
1
271
1
272
1
145
1.0
146
1.0
273
1
  9

274
1
275
1
276
1
 42
1.0
 72
1
  3

 73
1
 74
1
 75
1
 94
63
  0
MATERIAL
  5
20
102
{ACAD_REACTORS
330
E
102
}
330
E
100
AcDbMaterial
  1
ByLayer
  2

 70
0
 40
1.0
 71
1
 41
1.0
 91
-1023410177
 42
1.0
 72
1
  3

 73
1
 74
1
 75
1
 44
0.5
 73
0
 45
1.0
 46
1.0
 77
1
  4

 78
1
 79
1
170
1
 48
1.0
171
1
  6

172
1
173
1
174
1
140
1.0
141
1.0
175
1
  7

176
1
177
1
178
1
143
1.0
179
1
  8

270
1
271
1
272
1
145
1.0
146
1.0
273
1
  9

274
1
275
1
276
1
 42
1.0
 72
1
  3

 73
1
 74
1
 75
1
 94
63
  0
MATERIAL
  5
21
102
{ACAD_REACTORS
330
E
102
}
330
E
100
AcDbMaterial
  1
Global
  2

 70
0
 40
1.0
 71
1
 41
1.0
 91
-1023410177
 42
1.0
 72
1
  3

 73
1
 74
1
 75
1
 44
0.5
 73
0
 45
1.0
 46
1.0
 77
1
  4

 78
1
 79
1
170
1
 48
1.0
171
1
  6

172
1
173
1
174
1
140
1.0
141
1.0
175
1
  7

176
1
177
1
178
1
143
1.0
179
1
  8

270
1
271
1
272
1
145
1.0
146
1.0
273
1
  9

274
1
275
1
276
1
 42
1.0
 72
1
  3

 73
1
 74
1
 75
1
 94
63
  0
MLINESTYLE
  5
22
102
{ACAD_REACTORS
330
10
102
}
330
10
100
AcDbMlineStyle
  2
Standard
 70
0
  3

 62
256
 51
90.0
 52
90.0
 71
2
 49
0.5
 62
256
  6
BYLAYER
 49
-0.5
 62
256
  6
BYLAYER
  0
MLEADERSTYLE
  5
2C
102
{ACAD_REACTORS
330
F
102
}
330
F
100
AcDbMLeaderStyle
179
2
170
2
171
1
172
0
 90
2
 40
0.0
 41
0.0
173
1
 91
-1056964608
 92
-2
290
1
 42
2.0
291
1
 43
8.0
  3
Standard
 44
4.0
300

342
29
174
1
175
1
176
0
178
1
 93
-1056964608
 45
4.0
292
0
297
0
 46
4.0
 94
-1056964608
 47
1.0
 49
1.0
140
1.0
294
1
141
0.0
177
0
142
1.0
295
0
296
0
143
3.75
271
0
272
9
273
9
  0
DICTIONARY
  5
2D
330
A
100
AcDbDictionary
280
1
281
1
  3
CREATED_BY_EZDXF
350
2E
  3
WRITTEN_BY_EZDXF
350
32
  0
DICTIONARYVAR
  5
2E
330
2D
100
DictionaryVariables
280
0
  1
1.4.3 @ 2026-05-25T03:27:20.066650+00:00
  0
DICTIONARYVAR
  5
32
330
2D
100
DictionaryVariables
280
0
  1
1.4.3 @ 2026-05-25T03:27:20.071307+00:00
  0
ENDSEC
  0
EOF
