  0
SECTION
  2
HEADER
  9
$ACADVER
  1
AC1024
  9
$ACADMAINTVER
 70
6
  9
$DWGCODEPAGE
  3
ANSI_1252
  9
$LASTSAVEDBY
  1
ezdxf
  9
$INSBASE
 10
0.0
 20
0.0
 30
0.0
  9
$EXTMIN
 10
1e+20
 20
1e+20
 30
1e+20
  9
$EXTMAX
 10
-1e+20
 20
-1e+20
 30
-1e+20
  9
$LIMMIN
 10
0.0
 20
0.0
  9
$LIMMAX
 10
420.0
 20
297.0
  9
$ORTHOMODE
 70
0
  9
$REGENMODE
 70
1
  9
$FILLMODE
 70
1
  9
$QTEXTMODE
 70
0
  9
$MIRRTEXT
 70
1
  9
$LTSCALE
 40
1.0
  9
$ATTMODE
 70
1
  9
$TEXTSIZE
 40
2.5
  9
$TRACEWID
 40
1.0
  9
$TEXTSTYLE
  7
Standard
  9
$CLAYER
  8
0
  9
$CELTYPE
  6
ByLayer
  9
$CECOLOR
 62
256
  9
$CELTSCALE
 40
1.0
  9
$DISPSILH
 70
0
  9
$DIMSCALE
 40
1.0
  9
$DIMASZ
 40
2.5
  9
$DIMEXO
 40
0.625
  9
$DIMDLI
 40
3.75
  9
$DIMRND
 40
0.0
  9
$DIMDLE
 40
0.0
  9
$DIMEXE
 40
1.25
  9
$DIMTP
 40
0.0
  9
$DIMTM
 40
0.0
  9
$DIMTXT
 40
2.5
  9
$DIMCEN
 40
2.5
  9
$DIMTSZ
 40
0.0
  9
$DIMTOL
 70
0
  9
$DIMLIM
 70
0
  9
$DIMTIH
 70
0
  9
$DIMTOH
 70
0
  9
$DIMSE1
 70
0
  9
$DIMSE2
 70
0
  9
$DIMTAD
 70
1
  9
$DIMZIN
 70
8
  9
$DIMBLK
  1

  9
$DIMASO
 70
1
  9
$DIMSHO
 70
1
  9
$DIMPOST
  1

  9
$DIMAPOST
  1

  9
$DIMALT
 70
0
  9
$DIMALTD
 70
3
  9
$DIMALTF
 40
0.03937007874
  9
$DIMLFAC
 40
1.0
  9
$DIMTOFL
 70
1
  9
$DIMTVP
 40
0.0
  9
$DIMTIX
 70
0
  9
$DIMSOXD
 70
0
  9
$DIMSAH
 70
0
  9
$DIMBLK1
  1

  9
$DIMBLK2
  1

  9
$DIMSTYLE
  2
ISO-25
  9
$DIMCLRD
 70
0
  9
$DIMCLRE
 70
0
  9
$DIMCLRT
 70
0
  9
$DIMTFAC
 40
1.0
  9
$DIMGAP
 40
0.625
  9
$DIMJUST
 70
0
  9
$DIMSD1
 70
0
  9
$DIMSD2
 70
0
  9
$DIMTOLJ
 70
0
  9
$DIMTZIN
 70
8
  9
$DIMALTZ
 70
0
  9
$DIMALTTZ
 70
0
  9
$DIMUPT
 70
0
  9
$DIMDEC
 70
2
  9
$DIMTDEC
 70
2
  9
$DIMALTU
 70
2
  9
$DIMALTTD
 70
3
  9
$DIMTXSTY
  7
Standard
  9
$DIMAUNIT
 70
0
  9
$DIMADEC
 70
0
  9
$DIMALTRND
 40
0.0
  9
$DIMAZIN
 70
0
  9
$DIMDSEP
 70
44
  9
$DIMATFIT
 70
3
  9
$DIMFRAC
 70
0
  9
$DIMLDRBLK
  1

  9
$DIMLUNIT
 70
2
  9
$DIMLWD
 70
-2
  9
$DIMLWE
 70
-2
  9
$DIMTMOVE
 70
0
  9
$DIMFXL
 40
1.0
  9
$DIMFXLON
 70
0
  9
$DIMJOGANG
 40
0.785398163397
  9
$DIMTFILL
 70
0
  9
$DIMTFILLCLR
 70
0
  9
$DIMARCSYM
 70
0
  9
$DIMLTYPE
  6

  9
$DIMLTEX1
  6

  9
$DIMLTEX2
  6

  9
$DIMTXTDIRECTION
 70
0
  9
$LUNITS
 70
2
  9
$LUPREC
 70
4
  9
$SKETCHINC
 40
1.0
  9
$FILLETRAD
 40
10.0
  9
$AUNITS
 70
0
  9
$AUPREC
 70
2
  9
$MENU
  1
.
  9
$ELEVATION
 40
0.0
  9
$PELEVATION
 40
0.0
  9
$THICKNESS
 40
0.0
  9
$LIMCHECK
 70
0
  9
$CHAMFERA
 40
0.0
  9
$CHAMFERB
 40
0.0
  9
$CHAMFERC
 40
0.0
  9
$CHAMFERD
 40
0.0
  9
$SKPOLY
 70
0
  9
$TDCREATE
 40
2461169.682534722
  9
$TDUCREATE
 40
2458532.153996898
  9
$TDUPDATE
 40
2461169.682534722
  9
$TDUUPDATE
 40
2458532.1544311
  9
$TDINDWG
 40
0.0
  9
$TDUSRTIMER
 40
0.0
  9
$USRTIMER
 70
1
  9
$ANGBASE
 50
0.0
  9
$ANGDIR
 70
0
  9
$PDMODE
 70
0
  9
$PDSIZE
 40
0.0
  9
$PLINEWID
 40
0.0
  9
$SPLFRAME
 70
0
  9
$SPLINETYPE
 70
6
  9
$SPLINESEGS
 70
8
  9
$HANDSEED
  5
33
  9
$SURFTAB1
 70
6
  9
$SURFTAB2
 70
6
  9
$SURFTYPE
 70
6
  9
$SURFU
 70
6
  9
$SURFV
 70
6
  9
$UCSBASE
  2

  9
$UCSNAME
  2

  9
$UCSORG
 10
0.0
 20
0.0
 30
0.0
  9
$UCSXDIR
 10
1.0
 20
0.0
 30
0.0
  9
$UCSYDIR
 10
0.0
 20
1.0
 30
0.0
  9
$UCSORTHOREF
  2

  9
$UCSORTHOVIEW
 70
0
  9
$UCSORGTOP
 10
0.0
 20
0.0
 30
0.0
  9
$UCSORGBOTTOM
 10
0.0
 20
0.0
 30
0.0
  9
$UCSORGLEFT
 10
0.0
 20
0.0
 30
0.0
  9
$UCSORGRIGHT
 10
0.0
 20
0.0
 30
0.0
  9
$UCSORGFRONT
 10
0.0
 20
0.0
 30
0.0
  9
$UCSORGBACK
 10
0.0
 20
0.0
 30
0.0
  9
$PUCSBASE
  2

  9
$PUCSNAME
  2

  9
$PUCSORG
 10
0.0
 20
0.0
 30
0.0
  9
$PUCSXDIR
 10
1.0
 20
0.0
 30
0.0
  9
$PUCSYDIR
 10
0.0
 20
1.0
 30
0.0
  9
$PUCSORTHOREF
  2

  9
$PUCSORTHOVIEW
 70
0
  9
$PUCSORGTOP
 10
0.0
 20
0.0
 30
0.0
  9
$PUCSORGBOTTOM
 10
0.0
 20
0.0
 30
0.0
  9
$PUCSORGLEFT
 10
0.0
 20
0.0
 30
0.0
  9
$PUCSORGRIGHT
 10
0.0
 20
0.0
 30
0.0
  9
$PUCSORGFRONT
 10
0.0
 20
0.0
 30
0.0
  9
$PUCSORGBACK
 10
0.0
 20
0.0
 30
0.0
  9
$USERI1
 70
0
  9
$USERI2
 70
0
  9
$USERI3
 70
0
  9
$USERI4
 70
0
  9
$USERI5
 70
0
  9
$USERR1
 40
0.0
  9
$USERR2
 40
0.0
  9
$USERR3
 40
0.0
  9
$USERR4
 40
0.0
  9
$USERR5
 40
0.0
  9
$WORLDVIEW
 70
1
  9
$SHADEDGE
 70
3
  9
$SHADEDIF
 70
70
  9
$TILEMODE
 70
1
  9
$MAXACTVP
 70
64
  9
$PINSBASE
 10
0.0
 20
0.0
 30
0.0
  9
$PLIMCHECK
 70
0
  9
$PEXTMIN
 10
1e+20
 20
1e+20
 30
1e+20
  9
$PEXTMAX
 10
-1e+20
 20
-1e+20
 30
-1e+20
  9
$PLIMMIN
 10
0.0
 20
0.0
  9
$PLIMMAX
 10
420.0
 20
297.0
  9
$UNITMODE
 70
0
  9
$VISRETAIN
 70
1
  9
$PLINEGEN
 70
0
  9
$PSLTSCALE
 70
1
  9
$TREEDEPTH
 70
3020
  9
$CMLSTYLE
  2
Standard
  9
$CMLJUST
 70
0
  9
$CMLSCALE
 40
20.0
  9
$PROXYGRAPHICS
 70
1
  9
$MEASUREMENT
 70
1
  9
$CELWEIGHT
370
-1
  9
$ENDCAPS
280
0
  9
$JOINSTYLE
280
0
  9
$LWDISPLAY
290
0
  9
$INSUNITS
 70
1
  9
$HYPERLINKBASE
  1

  9
$STYLESHEET
  1

  9
$XEDIT
290
1
  9
$CEPSNTYPE
380
0
  9
$PSTYLEMODE
290
1
  9
$FINGERPRINTGUID
  2
{23A742DC-403F-49AA-B5D8-DEBB00A516A9}
  9
$VERSIONGUID
  2
{FA120FB1-05BA-4CEC-AF6C-6E68C7A114AF}
  9
$EXTNAMES
290
1
  9
$PSVPSCALE
 40
0.0
  9
$OLESTARTUP
290
0
  9
$SORTENTS
280
127
  9
$INDEXCTL
280
0
  9
$HIDETEXT
280
1
  9
$XCLIPFRAME
280
1
  9
$HALOGAP
280
0
  9
$OBSCOLOR
 70
257
  9
$OBSLTYPE
280
0
  9
$INTERSECTIONDISPLAY
280
0
  9
$INTERSECTIONCOLOR
 70
257
  9
$DIMASSOC
280
2
  9
$PROJECTNAME
  1

  9
$CAMERADISPLAY
290
0
  9
$LENSLENGTH
 40
50.0
  9
$CAMERAHEIGHT
 40
0.0
  9
$STEPSPERSEC
 40
24.0
  9
$STEPSIZE
 40
100.0
  9
$3DDWFPREC
 40
2.0
  9
$PSOLWIDTH
 40
0.005
  9
$PSOLHEIGHT
 40
0.08
  9
$LOFTANG1
 40
1.570796326795
  9
$LOFTANG2
 40
1.570796326795
  9
$LOFTMAG1
 40
0.0
  9
$LOFTMAG2
 40
0.0
  9
$LOFTPARAM
 70
7
  9
$LOFTNORMALS
280
1
  9
$LATITUDE
 40
37.795
  9
$LONGITUDE
 40
-122.394
  9
$NORTHDIRECTION
 40
0.0
  9
$TIMEZONE
 70
-8000
  9
$LIGHTGLYPHDISPLAY
280
1
  9
$TILEMODELIGHTSYNCH
280
1
  9
$CMATERIAL
347
20
  9
$SOLIDHIST
280
0
  9
$SHOWHIST
280
1
  9
$DWFFRAME
280
2
  9
$DGNFRAME
280
2
  9
$REALWORLDSCALE
290
1
  9
$INTERFERECOLOR
 62
256
  9
$CSHADOW
280
0
  9
$SHADOWPLANELOCATION
 40
0.0
  0
ENDSEC
  0
SECTION
  2
CLASSES
  0
CLASS
  1
ACDBDICTIONARYWDFLT
  2
AcDbDictionaryWithDefault
  3
ObjectDBX Classes
 90
0
 91
0
280
0
281
0
  0
CLASS
  1
SUN
  2
AcDbSun
  3
SCENEOE
 90
1153
 91
0
280
0
281
0
  0
CLASS
  1
VISUALSTYLE
  2
AcDbVisualStyle
  3
ObjectDBX Classes
 90
4095
 91
0
280
0
281
0
  0
CLASS
  1
MATERIAL
  2
AcDbMaterial
  3
ObjectDBX Classes
 90
1153
 91
0
280
0
281
0
  0
CLASS
  1
SCALE
  2
AcDbScale
  3
ObjectDBX Classes
 90
1153
 91
0
280
0
281
0
  0
CLASS
  1
TABLESTYLE
  2
AcDbTableStyle
  3
ObjectDBX Classes
 90
4095
 91
0
280
0
281
0
  0
CLASS
  1
MLEADERSTYLE
  2
AcDbMLeaderStyle
  3
ACDB_MLEADERSTYLE_CLASS
 90
4095
 91
0
280
0
281
0
  0
CLASS
  1
DICTIONARYVAR
  2
AcDbDictionaryVar
  3
ObjectDBX Classes
 90
0
 91
0
280
0
281
0
  0
CLASS
  1
CELLSTYLEMAP
  2
AcDbCellStyleMap
  3
ObjectDBX Classes
 90
1152
 91
0
280
0
281
0
  0
CLASS
  1
MENTALRAYRENDERSETTINGS
  2
AcDbMentalRayRenderSettings
  3
SCENEOE
 90
1024
 91
0
280
0
281
0
  0
CLASS
  1
ACDBDETAILVIEWSTYLE
  2
AcDbDetailViewStyle
  3
ObjectDBX Classes
 90
1025
 91
0
280
0
281
0
  0
CLASS
  1
ACDBSECTIONVIEWSTYLE
  2
AcDbSectionViewStyle
  3
ObjectDBX Classes
 90
1025
 91
0
280
0
281
0
  0
CLASS
  1
RASTERVARIABLES
  2
AcDbRasterVariables
  3
ISM
 90
0
 91
0
280
0
281
0
  0
CLASS
  1
LAYOUT
  2
AcDbLayout
  3
ObjectDBX Classes
 90
0
 91
0
280
0
281
0
  0
CLASS
  1
ACDBPLACEHOLDER
  2
AcDbPlaceHolder
  3
ObjectDBX Classes
 90
0
 91
0
280
0
281
0
  0
ENDSEC
  0
SECTION
  2
TABLES
  0
TABLE
  2
VPORT
  5
8
330
0
100
AcDbSymbolTable
 70
1
  0
VPORT
  5
23
330
8
100
AcDbSymbolTableRecord
100
AcDbViewportTableRecord
  2
*Active
 70
0
 10
0.0
 20
0.0
 11
1.0
 21
1.0
 12
0.0
 22
0.0
 13
0.0
 23
0.0
 14
0.5
 24
0.5
 15
0.5
 25
0.5
 16
0.0
 26
0.0
 36
1.0
 17
0.0
 27
0.0
 37
0.0
 40
1000.0
 41
1.34
 42
50.0
 43
0.0
 44
0.0
 50
0.0
 51
0.0
 71
0
 72
1000
 73
1
 74
3
 75
0
 76
0
 77
0
 78
0
281
0
 65
0
146
0.0
  0
ENDTAB
  0
TABLE
  2
LTYPE
  5
2
330
0
100
AcDbSymbolTable
 70
3
  0
LTYPE
  5
24
330
2
100
AcDbSymbolTableRecord
100
AcDbLinetypeTableRecord
  2
ByBlock
 70
0
  3

 72
65
 73
0
 40
0.0
  0
LTYPE
  5
25
330
2
100
AcDbSymbolTableRecord
100
AcDbLinetypeTableRecord
  2
ByLayer
 70
0
  3

 72
65
 73
0
 40
0.0
  0
LTYPE
  5
26
330
2
100
AcDbSymbolTableRecord
100
AcDbLinetypeTableRecord
  2
Continuous
 70
0
  3

 72
65
 73
0
 40
0.0
  0
ENDTAB
  0
TABLE
  2
LAYER
  5
1
330
0
100
AcDbSymbolTable
 70
2
  0
LAYER
  5
27
330
1
100
AcDbSymbolTableRecord
100
AcDbLayerTableRecord
  2
0
 70
0
 62
7
  6
Continuous
370
-3
390
13
347
21
  0
LAYER
  5
28
330
1
100
AcDbSymbolTableRecord
100
AcDbLayerTableRecord
  2
Defpoints
 70
0
 62
7
  6
Continuous
290
0
370
-3
390
13
347
21
  0
ENDTAB
  0
TABLE
  2
STYLE
  5
5
330
0
100
AcDbSymbolTable
 70
1
  0
STYLE
  5
29
330
5
100
AcDbSymbolTableRecord
100
AcDbTextStyleTableRecord
  2
Standard
 70
0
 40
0.0
 41
1.0
 50
0.0
 71
0
 42
2.5
  3
txt
  4

  0
ENDTAB
  0
TABLE
  2
VIEW
  5
7
330
0
100
AcDbSymbolTable
 70
0
  0
ENDTAB
  0
TABLE
  2
UCS
  5
6
330
0
100
AcDbSymbolTable
 70
0
  0
ENDTAB
  0
TABLE
  2
APPID
  5
3
330
0
100
AcDbSymbolTable
 70
3
  0
APPID
  5
2A
330
3
100
AcDbSymbolTableRecord
100
AcDbRegAppTableRecord
  2
ACAD
 70
0
  0
APPID
  5
30
330
3
100
AcDbSymbolTableRecord
100
AcDbRegAppTableRecord
  2
HATCHBACKGROUNDCOLOR
 70
0
  0
APPID
  5
31
330
3
100
AcDbSymbolTableRecord
100
AcDbRegAppTableRecord
  2
EZDXF
 70
0
  0
ENDTAB
  0
TABLE
  2
DIMSTYLE
  5
4
330
0
100
AcDbSymbolTable
 70
1
100
AcDbDimStyleTable
  0
DIMSTYLE
105
2B
330
4
100
AcDbSymbolTableRecord
100
AcDbDimStyleTableRecord
  2
Standard
 70
0
 40
1.0
 41
2.5
 42
0.625
 43
3.75
 44
1.25
 45
0.0
 46
0.0
 47
0.0
 48
0.0
 49
2.5
140
2.5
141
2.5
142
0.0
143
0.03937007874
144
1.0
145
0.0
146
1.0
147
0.625
148
0.0
 69
0
 70
0
 71
0
 72
0
 73
0
 74
0
 75
0
 76
0
 77
1
 78
8
 79
3
170
0
171
3
172
1
173
0
174
0
175
0
176
0
177
0
178
0
179
2
271
2
272
2
273
2
274
3
275
0
276
0
277
2
278
44
279
0
280
0
281
0
282
0
283
0
284
8
285
0
286
0
288
0
289
3
290
0
371
-2
372
-2
  0
ENDTAB
  0
TABLE
  2
BLOCK_RECORD
  5
9
330
0
100
AcDbSymbolTable
 70
2
  0
BLOCK_RECORD
  5
17
330
9
100
AcDbSymbolTableRecord
100
AcDbBlockTableRecord
  2
*Model_Space
340
1A
 70
0
280
1
281
0
  0
BLOCK_RECORD
  5
1B
330
9
100
AcDbSymbolTableRecord
100
AcDbBlockTableRecord
  2
*Paper_Space
340
1E
 70
0
280
1
281
0
  0
ENDTAB
  0
ENDSEC
  0
SECTION
  2
BLOCKS
  0
BLOCK
  5
18
330
17
100
AcDbEntity
  8
0
100
AcDbBlockBegin
  2
*Model_Space
 70
0
 10
0.0
 20
0.0
 30
0.0
  3
*Model_Space
  1

  0
ENDBLK
  5
19
330
17
100
AcDbEntity
  8
0
100
AcDbBlockEnd
  0
BLOCK
  5
1C
330
1B
100
AcDbEntity
  8
0
100
AcDbBlockBegin
  2
*Paper_Space
 70
0
 10
0.0
 20
0.0
 30
0.0
  3
*Paper_Space
  1

  0
ENDBLK
  5
1D
330
1B
100
AcDbEntity
  8
0
100
AcDbBlockEnd
  0
ENDSEC
  0
SECTION
  2
ENTITIES
  0
LWPOLYLINE
  5
2F
330
17
100
AcDbEntity
  8
SHELF
100
AcDbPolyline
 90
715
 70
1
 10
1.75
 20
0.0
 10
6.0
 20
0.0
 10
6.0
 20
0.6542994231491119
 10
5.97347269057207
 20
0.6875636170366419
 10
5.955012455666854
 20
0.7258966898030741
 10
5.945544968545728
 20
0.7673764611149274
 10
5.945544968545728
 20
0.8099229620341843
 10
5.955012455666854
 20
0.8514027333460376
 10
5.97347269057207
 20
0.8897358061124698
 10
6.0
 20
0.9229999999999998
 10
6.03326419388753
 20
0.9495273094279298
 10
6.071597266653962
 20
0.9679875443331458
 10
6.113077037965815
 20
0.977455031454272
 10
6.155623538885072
 20
0.977455031454272
 10
6.197103310196925
 20
0.9679875443331459
 10
6.235436382963358
 20
0.9495273094279301
 10
6.268700576850888
 20
0.9230000000000002
 10
7.75
 20
0.923
 10
7.75
 20
4.9966327564824455
 10
7.72347269057207
 20
5.0298969503699755
 10
7.705012455666854
 20
5.068230023136408
 10
7.695544968545728
 20
5.109709794448261
 10
7.695544968545728
 20
5.152256295367518
 10
7.705012455666854
 20
5.193736066679371
 10
7.72347269057207
 20
5.232069139445803
 10
7.75
 20
5.265333333333333
 10
7.78326419388753
 20
5.2918606427612636
 10
7.821597266653963
 20
5.310320877666479
 10
7.863077037965815
 20
5.319788364787605
 10
7.905623538885072
 20
5.319788364787605
 10
7.947103310196925
 20
5.310320877666479
 10
7.985436382963358
 20
5.2918606427612636
 10
8.018700576850888
 20
5.265333333333333
 10
8.673
 20
5.265333333333333
 10
8.673
 20
9.607666666666667
 10
8.018700576850888
 20
9.607666666666667
 10
7.985436382963357
 20
9.581139357238737
 10
7.947103310196925
 20
9.562679122333522
 10
7.905623538885072
 20
9.553211635212396
 10
7.863077037965815
 20
9.553211635212396
 10
7.821597266653962
 20
9.562679122333522
 10
7.78326419388753
 20
9.581139357238738
 10
7.75
 20
9.607666666666667
 10
7.72347269057207
 20
9.640930860554198
 10
7.705012455666854
 20
9.67926393332063
 10
7.695544968545728
 20
9.720743704632483
 10
7.695544968545728
 20
9.76329020555174
 10
7.7050124556668536
 20
9.804769976863593
 10
7.72347269057207
 20
9.843103049630026
 10
7.749999999999999
 20
9.876367243517555
 10
7.75
 20
13.95
 10
6.268700576850888
 20
13.95
 10
6.235436382963357
 20
13.92347269057207
 10
6.197103310196925
 20
13.905012455666855
 10
6.155623538885072
 20
13.895544968545728
 10
6.113077037965815
 20
13.895544968545728
 10
6.071597266653962
 20
13.905012455666855
 10
6.03326419388753
 20
13.923472690572071
 10
6.0
 20
13.95
 10
5.97347269057207
 20
13.98326419388753
 10
5.955012455666854
 20
14.021597266653963
 10
5.945544968545728
 20
14.063077037965815
 10
5.945544968545728
 20
14.105623538885073
 10
5.9550124556668536
 20
14.147103310196925
 10
5.97347269057207
 20
14.185436382963358
 10
5.999999999999999
 20
14.218700576850887
 10
5.999999999999999
 20
14.604299423149111
 10
5.97347269057207
 20
14.63756361703664
 10
5.9550124556668536
 20
14.675896689803073
 10
5.945544968545728
 20
14.717376461114926
 10
5.945544968545728
 20
14.759922962034183
 10
5.955012455666854
 20
14.801402733346036
 10
5.97347269057207
 20
14.839735806112468
 10
6.0
 20
14.873
 10
6.03326419388753
 20
14.899527309427928
 10
6.071597266653962
 20
14.917987544333144
 10
6.113077037965815
 20
14.92745503145427
 10
6.155623538885072
 20
14.92745503145427
 10
6.197103310196925
 20
14.917987544333144
 10
6.235436382963357
 20
14.89952730942793
 10
6.268700576850888
 20
14.873
 10
7.75
 20
14.873
 10
8.673
 20
14.873
 10
8.673
 20
18.747999999999998
 10
8.018700576850888
 20
18.747999999999998
 10
7.985436382963357
 20
18.721472690572067
 10
7.947103310196925
 20
18.70301245566685
 10
7.905623538885072
 20
18.693544968545726
 10
7.863077037965815
 20
18.693544968545726
 10
7.821597266653962
 20
18.70301245566685
 10
7.783264193887529
 20
18.721472690572067
 10
7.749999999999999
 20
18.747999999999998
 10
7.72347269057207
 20
18.78126419388753
 10
7.7050124556668536
 20
18.81959726665396
 10
7.695544968545728
 20
18.861077037965813
 10
7.695544968545728
 20
18.90362353888507
 10
7.705012455666854
 20
18.945103310196924
 10
7.72347269057207
 20
18.983436382963358
 10
7.75
 20
19.016700576850887
 10
7.75
 20
22.354299423149108
 10
7.72347269057207
 20
22.387563617036637
 10
7.705012455666854
 20
22.42589668980307
 10
7.695544968545728
 20
22.467376461114924
 10
7.695544968545728
 20
22.50992296203418
 10
7.7050124556668536
 20
22.551402733346034
 10
7.72347269057207
 20
22.589735806112465
 10
7.749999999999999
 20
22.622999999999998
 10
7.783264193887529
 20
22.649527309427928
 10
7.821597266653962
 20
22.667987544333144
 10
7.863077037965815
 20
22.67745503145427
 10
7.905623538885072
 20
22.67745503145427
 10
7.947103310196925
 20
22.667987544333144
 10
7.985436382963357
 20
22.649527309427928
 10
8.018700576850888
 20
22.622999999999998
 10
8.673
 20
22.622999999999998
 10
8.673
 20
26.497999999999998
 10
7.75
 20
26.497999999999998
 10
6.268700576850888
 20
26.497999999999998
 10
6.235436382963357
 20
26.471472690572067
 10
6.197103310196925
 20
26.45301245566685
 10
6.155623538885072
 20
26.443544968545726
 10
6.113077037965815
 20
26.443544968545726
 10
6.071597266653962
 20
26.45301245566685
 10
6.033264193887529
 20
26.471472690572067
 10
5.999999999999999
 20
26.497999999999998
 10
5.97347269057207
 20
26.53126419388753
 10
5.9550124556668536
 20
26.56959726665396
 10
5.945544968545728
 20
26.611077037965813
 10
5.945544968545728
 20
26.65362353888507
 10
5.955012455666854
 20
26.695103310196924
 10
5.97347269057207
 20
26.733436382963358
 10
6.0
 20
26.766700576850887
 10
6.0
 20
27.15229942314911
 10
5.97347269057207
 20
27.18556361703664
 10
5.955012455666854
 20
27.223896689803073
 10
5.945544968545728
 20
27.265376461114926
 10
5.945544968545728
 20
27.307922962034183
 10
5.9550124556668536
 20
27.349402733346036
 10
5.97347269057207
 20
27.387735806112467
 10
5.999999999999999
 20
27.421
 10
6.033264193887529
 20
27.44752730942793
 10
6.071597266653962
 20
27.465987544333146
 10
6.113077037965815
 20
27.47545503145427
 10
6.155623538885072
 20
27.47545503145427
 10
6.197103310196925
 20
27.465987544333146
 10
6.235436382963357
 20
27.44752730942793
 10
6.268700576850888
 20
27.421
 10
7.75
 20
27.421
 10
7.75
 20
31.02729942314911
 10
7.72347269057207
 20
31.06056361703664
 10
7.705012455666854
 20
31.098896689803073
 10
7.695544968545728
 20
31.140376461114926
 10
7.695544968545728
 20
31.182922962034183
 10
7.7050124556668536
 20
31.224402733346036
 10
7.72347269057207
 20
31.262735806112467
 10
7.749999999999999
 20
31.296
 10
7.783264193887529
 20
31.32252730942793
 10
7.821597266653962
 20
31.340987544333146
 10
7.863077037965815
 20
31.35045503145427
 10
7.905623538885072
 20
31.35045503145427
 10
7.947103310196925
 20
31.340987544333146
 10
7.985436382963357
 20
31.32252730942793
 10
8.018700576850888
 20
31.296
 10
8.673
 20
31.296
 10
8.673
 20
35.171
 10
8.018700576850888
 20
35.171
 10
7.985436382963357
 20
35.14447269057207
 10
7.947103310196925
 20
35.12601245566685
 10
7.905623538885072
 20
35.116544968545725
 10
7.863077037965815
 20
35.116544968545725
 10
7.821597266653962
 20
35.12601245566685
 10
7.783264193887529
 20
35.14447269057207
 10
7.749999999999999
 20
35.171
 10
7.72347269057207
 20
35.20426419388753
 10
7.7050124556668536
 20
35.242597266653966
 10
7.695544968545728
 20
35.284077037965815
 10
7.695544968545728
 20
35.32662353888507
 10
7.705012455666854
 20
35.36810331019693
 10
7.72347269057207
 20
35.406436382963356
 10
7.75
 20
35.43970057685089
 10
7.75
 20
39.046
 10
6.268700576850888
 20
39.046
 10
6.235436382963357
 20
39.01947269057207
 10
6.197103310196925
 20
39.00101245566685
 10
6.155623538885072
 20
38.991544968545725
 10
6.113077037965815
 20
38.991544968545725
 10
6.071597266653962
 20
39.00101245566685
 10
6.033264193887529
 20
39.01947269057207
 10
5.999999999999999
 20
39.046
 10
5.97347269057207
 20
39.07926419388753
 10
5.9550124556668536
 20
39.117597266653966
 10
5.945544968545728
 20
39.159077037965815
 10
5.945544968545728
 20
39.20162353888507
 10
5.955012455666854
 20
39.24310331019693
 10
5.97347269057207
 20
39.281436382963356
 10
6.0
 20
39.31470057685089
 10
6.0
 20
39.70029942314911
 10
5.97347269057207
 20
39.733563617036644
 10
5.955012455666854
 20
39.77189668980307
 10
5.945544968545728
 20
39.81337646111493
 10
5.945544968545728
 20
39.855922962034185
 10
5.9550124556668536
 20
39.897402733346034
 10
5.97347269057207
 20
39.93573580611247
 10
5.999999999999999
 20
39.969
 10
6.033264193887529
 20
39.99552730942793
 10
6.071597266653962
 20
40.01398754433315
 10
6.113077037965815
 20
40.023455031454276
 10
6.155623538885072
 20
40.023455031454276
 10
6.197103310196925
 20
40.01398754433315
 10
6.235436382963357
 20
39.99552730942793
 10
6.268700576850888
 20
39.969
 10
7.75
 20
39.969
 10
8.673
 20
39.969
 10
8.673
 20
43.844
 10
8.018700576850888
 20
43.844
 10
7.985436382963357
 20
43.817472690572075
 10
7.947103310196925
 20
43.799012455666855
 10
7.905623538885072
 20
43.78954496854573
 10
7.863077037965815
 20
43.78954496854573
 10
7.821597266653962
 20
43.799012455666855
 10
7.783264193887529
 20
43.817472690572075
 10
7.749999999999999
 20
43.844
 10
7.72347269057207
 20
43.877264193887534
 10
7.7050124556668536
 20
43.91559726665397
 10
7.695544968545728
 20
43.95707703796582
 10
7.695544968545728
 20
43.999623538885075
 10
7.705012455666854
 20
44.04110331019693
 10
7.72347269057207
 20
44.07943638296336
 10
7.75
 20
44.11270057685089
 10
7.75
 20
47.45029942314911
 10
7.72347269057207
 20
47.483563617036644
 10
7.705012455666854
 20
47.52189668980307
 10
7.695544968545728
 20
47.56337646111493
 10
7.695544968545728
 20
47.605922962034185
 10
7.7050124556668536
 20
47.647402733346034
 10
7.72347269057207
 20
47.68573580611247
 10
7.749999999999999
 20
47.719
 10
7.783264193887529
 20
47.74552730942793
 10
7.821597266653962
 20
47.76398754433315
 10
7.863077037965815
 20
47.773455031454276
 10
7.905623538885072
 20
47.773455031454276
 10
7.947103310196925
 20
47.76398754433315
 10
7.985436382963357
 20
47.74552730942793
 10
8.018700576850888
 20
47.719
 10
8.673
 20
47.719
 10
8.673
 20
51.594
 10
7.75
 20
51.594
 10
6.268700576850888
 20
51.594
 10
6.235436382963357
 20
51.567472690572075
 10
6.197103310196925
 20
51.549012455666855
 10
6.155623538885072
 20
51.53954496854573
 10
6.113077037965815
 20
51.53954496854573
 10
6.071597266653962
 20
51.549012455666855
 10
6.033264193887529
 20
51.567472690572075
 10
5.999999999999999
 20
51.594
 10
5.97347269057207
 20
51.627264193887534
 10
5.9550124556668536
 20
51.66559726665397
 10
5.945544968545728
 20
51.70707703796582
 10
5.945544968545728
 20
51.749623538885075
 10
5.955012455666854
 20
51.79110331019693
 10
5.97347269057207
 20
51.82943638296336
 10
6.0
 20
51.86270057685089
 10
6.0
 20
52.24829942314911
 10
5.97347269057207
 20
52.281563617036646
 10
5.955012455666854
 20
52.31989668980307
 10
5.945544968545728
 20
52.36137646111493
 10
5.945544968545728
 20
52.40392296203419
 10
5.9550124556668536
 20
52.445402733346036
 10
5.97347269057207
 20
52.48373580611247
 10
5.999999999999999
 20
52.517
 10
6.033264193887529
 20
52.54352730942793
 10
6.071597266653962
 20
52.56198754433315
 10
6.113077037965815
 20
52.57145503145428
 10
6.155623538885072
 20
52.57145503145428
 10
6.197103310196925
 20
52.56198754433315
 10
6.235436382963357
 20
52.54352730942793
 10
6.268700576850888
 20
52.517
 10
7.75
 20
52.517
 10
7.75
 20
56.12329942314911
 10
7.72347269057207
 20
56.156563617036646
 10
7.705012455666854
 20
56.19489668980307
 10
7.695544968545728
 20
56.23637646111493
 10
7.695544968545728
 20
56.27892296203419
 10
7.7050124556668536
 20
56.320402733346036
 10
7.72347269057207
 20
56.35873580611247
 10
7.749999999999999
 20
56.392
 10
7.783264193887529
 20
56.41852730942793
 10
7.821597266653962
 20
56.43698754433315
 10
7.863077037965815
 20
56.44645503145428
 10
7.905623538885072
 20
56.44645503145428
 10
7.947103310196925
 20
56.43698754433315
 10
7.985436382963357
 20
56.41852730942793
 10
8.018700576850888
 20
56.392
 10
8.673
 20
56.392
 10
8.673
 20
60.266999999999996
 10
8.018700576850888
 20
60.266999999999996
 10
7.985436382963357
 20
60.24047269057207
 10
7.947103310196925
 20
60.22201245566685
 10
7.905623538885072
 20
60.21254496854572
 10
7.863077037965815
 20
60.21254496854572
 10
7.821597266653962
 20
60.22201245566685
 10
7.783264193887529
 20
60.24047269057207
 10
7.749999999999999
 20
60.266999999999996
 10
7.72347269057207
 20
60.30026419388753
 10
7.7050124556668536
 20
60.33859726665396
 10
7.695544968545728
 20
60.38007703796581
 10
7.695544968545728
 20
60.42262353888507
 10
7.705012455666854
 20
60.464103310196926
 10
7.72347269057207
 20
60.50243638296335
 10
7.75
 20
60.535700576850886
 10
7.75
 20
64.142
 10
6.268700576850891
 20
64.142
 10
6.2354363829633614
 20
64.11547269057206
 10
6.197103310196929
 20
64.09701245566684
 10
6.155623538885075
 20
64.08754496854571
 10
6.113077037965817
 20
64.08754496854571
 10
6.071597266653963
 20
64.09701245566684
 10
6.03326419388753
 20
64.11547269057206
 10
5.999999999999999
 20
64.142
 10
5.973472690572069
 20
64.17526419388751
 10
5.9550124556668536
 20
64.21359726665395
 10
5.945544968545727
 20
64.2550770379658
 10
5.945544968545728
 20
64.29762353888506
 10
5.955012455666855
 20
64.33910331019692
 10
5.9734726905720725
 20
64.37743638296335
 10
6.0000000000000036
 20
64.41070057685089
 10
6.0000000000000036
 20
64.79629942314911
 10
5.9734726905720725
 20
64.82956361703664
 10
5.955012455666855
 20
64.86789668980308
 10
5.945544968545728
 20
64.90937646111493
 10
5.945544968545727
 20
64.95192296203419
 10
5.9550124556668536
 20
64.99340273334604
 10
5.973472690572069
 20
65.03173580611248
 10
5.999999999999999
 20
65.065
 10
6.03326419388753
 20
65.09152730942793
 10
6.071597266653963
 20
65.10998754433315
 10
6.113077037965817
 20
65.11945503145428
 10
6.155623538885075
 20
65.11945503145428
 10
6.197103310196928
 20
65.10998754433315
 10
6.235436382963361
 20
65.09152730942793
 10
6.268700576850891
 20
65.065
 10
7.75
 20
65.065
 10
8.673
 20
65.065
 10
8.673
 20
68.94
 10
8.018700576850891
 20
68.94
 10
7.9854363829633614
 20
68.91347269057206
 10
7.947103310196929
 20
68.89501245566684
 10
7.905623538885075
 20
68.88554496854572
 10
7.863077037965817
 20
68.88554496854572
 10
7.821597266653963
 20
68.89501245566684
 10
7.78326419388753
 20
68.91347269057206
 10
7.749999999999999
 20
68.94
 10
7.723472690572069
 20
68.97326419388752
 10
7.7050124556668536
 20
69.01159726665395
 10
7.695544968545727
 20
69.0530770379658
 10
7.695544968545728
 20
69.09562353888506
 10
7.705012455666855
 20
69.13710331019692
 10
7.7234726905720725
 20
69.17543638296335
 10
7.7500000000000036
 20
69.20870057685089
 10
7.7500000000000036
 20
72.54629942314911
 10
7.7234726905720725
 20
72.57956361703664
 10
7.705012455666855
 20
72.61789668980308
 10
7.695544968545728
 20
72.65937646111493
 10
7.695544968545727
 20
72.70192296203419
 10
7.7050124556668536
 20
72.74340273334604
 10
7.723472690572069
 20
72.78173580611248
 10
7.749999999999999
 20
72.815
 10
7.78326419388753
 20
72.84152730942793
 10
7.821597266653963
 20
72.85998754433315
 10
7.863077037965817
 20
72.86945503145428
 10
7.905623538885075
 20
72.86945503145428
 10
7.947103310196928
 20
72.85998754433315
 10
7.985436382963361
 20
72.84152730942793
 10
8.018700576850891
 20
72.815
 10
8.673
 20
72.815
 10
8.673
 20
76.69
 10
7.75
 20
76.69
 10
6.268700576850891
 20
76.69
 10
6.2354363829633614
 20
76.66347269057206
 10
6.197103310196929
 20
76.64501245566684
 10
6.155623538885075
 20
76.63554496854572
 10
6.113077037965817
 20
76.63554496854572
 10
6.071597266653963
 20
76.64501245566684
 10
6.03326419388753
 20
76.66347269057206
 10
5.999999999999999
 20
76.69
 10
5.973472690572069
 20
76.72326419388752
 10
5.9550124556668536
 20
76.76159726665395
 10
5.945544968545727
 20
76.8030770379658
 10
5.945544968545728
 20
76.84562353888506
 10
5.955012455666855
 20
76.88710331019692
 10
5.9734726905720725
 20
76.92543638296335
 10
6.0000000000000036
 20
76.95870057685089
 10
6.0000000000000036
 20
77.34429942314911
 10
5.9734726905720725
 20
77.37756361703664
 10
5.955012455666855
 20
77.41589668980308
 10
5.945544968545728
 20
77.45737646111493
 10
5.945544968545727
 20
77.49992296203419
 10
5.9550124556668536
 20
77.54140273334605
 10
5.973472690572069
 20
77.57973580611248
 10
5.999999999999999
 20
77.613
 10
6.03326419388753
 20
77.63952730942793
 10
6.071597266653963
 20
77.65798754433315
 10
6.113077037965817
 20
77.66745503145428
 10
6.155623538885075
 20
77.66745503145428
 10
6.197103310196928
 20
77.65798754433315
 10
6.235436382963361
 20
77.63952730942793
 10
6.268700576850891
 20
77.613
 10
7.75
 20
77.613
 10
7.7500000000000036
 20
81.21929942314911
 10
7.7234726905720725
 20
81.25256361703664
 10
7.705012455666855
 20
81.29089668980308
 10
7.695544968545728
 20
81.33237646111493
 10
7.695544968545727
 20
81.37492296203419
 10
7.7050124556668536
 20
81.41640273334605
 10
7.723472690572069
 20
81.45473580611248
 10
7.749999999999999
 20
81.488
 10
7.78326419388753
 20
81.51452730942793
 10
7.821597266653963
 20
81.53298754433315
 10
7.863077037965817
 20
81.54245503145428
 10
7.905623538885075
 20
81.54245503145428
 10
7.947103310196928
 20
81.53298754433315
 10
7.985436382963361
 20
81.51452730942793
 10
8.018700576850891
 20
81.488
 10
8.673
 20
81.488
 10
8.673
 20
85.363
 10
8.018700576850891
 20
85.363
 10
7.9854363829633614
 20
85.33647269057207
 10
7.947103310196929
 20
85.31801245566685
 10
7.905623538885075
 20
85.30854496854572
 10
7.863077037965817
 20
85.30854496854572
 10
7.821597266653963
 20
85.31801245566685
 10
7.78326419388753
 20
85.33647269057207
 10
7.749999999999999
 20
85.363
 10
7.723472690572069
 20
85.39626419388752
 10
7.7050124556668536
 20
85.43459726665395
 10
7.695544968545727
 20
85.47607703796581
 10
7.695544968545728
 20
85.51862353888507
 10
7.705012455666855
 20
85.56010331019692
 10
7.7234726905720725
 20
85.59843638296336
 10
7.7500000000000036
 20
85.63170057685089
 10
7.75
 20
89.238
 10
6.268700576850891
 20
89.238
 10
6.2354363829633614
 20
89.21147269057207
 10
6.197103310196929
 20
89.19301245566685
 10
6.155623538885075
 20
89.18354496854572
 10
6.113077037965817
 20
89.18354496854572
 10
6.071597266653963
 20
89.19301245566685
 10
6.03326419388753
 20
89.21147269057207
 10
5.999999999999999
 20
89.238
 10
5.973472690572069
 20
89.27126419388752
 10
5.9550124556668536
 20
89.30959726665395
 10
5.945544968545727
 20
89.35107703796581
 10
5.945544968545728
 20
89.39362353888507
 10
5.955012455666855
 20
89.43510331019692
 10
5.9734726905720725
 20
89.47343638296336
 10
6.0000000000000036
 20
89.50670057685089
 10
6.0000000000000036
 20
89.89229942314911
 10
5.9734726905720725
 20
89.92556361703664
 10
5.955012455666855
 20
89.96389668980308
 10
5.945544968545728
 20
90.00537646111493
 10
5.945544968545727
 20
90.04792296203419
 10
5.9550124556668536
 20
90.08940273334605
 10
5.973472690572069
 20
90.12773580611248
 10
5.999999999999999
 20
90.161
 10
6.03326419388753
 20
90.18752730942794
 10
6.071597266653963
 20
90.20598754433315
 10
6.113077037965817
 20
90.21545503145428
 10
6.155623538885075
 20
90.21545503145428
 10
6.197103310196928
 20
90.20598754433315
 10
6.235436382963361
 20
90.18752730942794
 10
6.268700576850891
 20
90.161
 10
7.75
 20
90.161
 10
7.75
 20
91.661
 10
0.0
 20
91.661
 10
0.0
 20
90.161
 10
1.4812994231491088
 20
90.161
 10
1.514563617036639
 20
90.18752730942794
 10
1.5528966898030714
 20
90.20598754433315
 10
1.5943764611149251
 20
90.21545503145428
 10
1.636922962034183
 20
90.21545503145428
 10
1.678402733346037
 20
90.20598754433315
 10
1.7167358061124698
 20
90.18752730942794
 10
1.7500000000000004
 20
90.161
 10
1.7765273094279308
 20
90.12773580611248
 10
1.7949875443331467
 20
90.08940273334605
 10
1.8044550314542724
 20
90.04792296203419
 10
1.8044550314542718
 20
90.00537646111493
 10
1.7949875443331444
 20
89.96389668980308
 10
1.7765273094279275
 20
89.92556361703664
 10
1.749999999999996
 20
89.89229942314911
 10
1.749999999999996
 20
89.50670057685089
 10
1.7765273094279275
 20
89.47343638296336
 10
1.7949875443331444
 20
89.43510331019692
 10
1.8044550314542718
 20
89.39362353888507
 10
1.8044550314542724
 20
89.35107703796581
 10
1.7949875443331467
 20
89.30959726665395
 10
1.7765273094279308
 20
89.27126419388752
 10
1.7500000000000004
 20
89.238
 10
1.7167358061124698
 20
89.21147269057207
 10
1.678402733346037
 20
89.19301245566685
 10
1.636922962034183
 20
89.18354496854572
 10
1.5943764611149251
 20
89.18354496854572
 10
1.5528966898030714
 20
89.19301245566685
 10
1.514563617036639
 20
89.21147269057207
 10
1.4812994231491088
 20
89.238
 10
0.0
 20
89.238
 10
0.0
 20
77.613
 10
1.4812994231491088
 20
77.613
 10
1.514563617036639
 20
77.63952730942793
 10
1.5528966898030714
 20
77.65798754433315
 10
1.5943764611149251
 20
77.66745503145428
 10
1.636922962034183
 20
77.66745503145428
 10
1.678402733346037
 20
77.65798754433315
 10
1.7167358061124698
 20
77.63952730942793
 10
1.7500000000000004
 20
77.613
 10
1.7765273094279308
 20
77.57973580611248
 10
1.7949875443331467
 20
77.54140273334605
 10
1.8044550314542724
 20
77.49992296203419
 10
1.8044550314542718
 20
77.45737646111493
 10
1.7949875443331444
 20
77.41589668980308
 10
1.7765273094279275
 20
77.37756361703664
 10
1.749999999999996
 20
77.34429942314911
 10
1.749999999999996
 20
76.95870057685089
 10
1.7765273094279275
 20
76.92543638296335
 10
1.7949875443331444
 20
76.88710331019692
 10
1.8044550314542718
 20
76.84562353888506
 10
1.8044550314542724
 20
76.8030770379658
 10
1.7949875443331467
 20
76.76159726665395
 10
1.7765273094279308
 20
76.72326419388752
 10
1.7500000000000004
 20
76.69
 10
1.7167358061124698
 20
76.66347269057206
 10
1.678402733346037
 20
76.64501245566684
 10
1.636922962034183
 20
76.63554496854572
 10
1.5943764611149251
 20
76.63554496854572
 10
1.5528966898030714
 20
76.64501245566684
 10
1.514563617036639
 20
76.66347269057206
 10
1.4812994231491088
 20
76.69
 10
0.0
 20
76.69
 10
0.0
 20
65.065
 10
1.4812994231491088
 20
65.065
 10
1.514563617036639
 20
65.09152730942793
 10
1.5528966898030714
 20
65.10998754433315
 10
1.5943764611149251
 20
65.11945503145428
 10
1.636922962034183
 20
65.11945503145428
 10
1.678402733346037
 20
65.10998754433315
 10
1.7167358061124698
 20
65.09152730942793
 10
1.7500000000000004
 20
65.065
 10
1.7765273094279308
 20
65.03173580611248
 10
1.7949875443331467
 20
64.99340273334604
 10
1.8044550314542724
 20
64.95192296203419
 10
1.8044550314542718
 20
64.90937646111493
 10
1.7949875443331444
 20
64.86789668980308
 10
1.7765273094279275
 20
64.82956361703664
 10
1.749999999999996
 20
64.79629942314911
 10
1.749999999999996
 20
64.41070057685089
 10
1.7765273094279275
 20
64.37743638296335
 10
1.7949875443331444
 20
64.33910331019692
 10
1.8044550314542718
 20
64.29762353888506
 10
1.8044550314542724
 20
64.2550770379658
 10
1.7949875443331467
 20
64.21359726665395
 10
1.7765273094279308
 20
64.17526419388751
 10
1.7500000000000004
 20
64.142
 10
1.7167358061124698
 20
64.11547269057206
 10
1.678402733346037
 20
64.09701245566684
 10
1.636922962034183
 20
64.08754496854571
 10
1.5943764611149251
 20
64.08754496854571
 10
1.5528966898030714
 20
64.09701245566684
 10
1.514563617036639
 20
64.11547269057206
 10
1.4812994231491088
 20
64.142
 10
0.0
 20
64.142
 10
0.0
 20
52.517
 10
1.4812994231491123
 20
52.517
 10
1.5145636170366426
 20
52.54352730942793
 10
1.5528966898030747
 20
52.56198754433315
 10
1.594376461114928
 20
52.57145503145428
 10
1.636922962034185
 20
52.57145503145428
 10
1.6784027333460383
 20
52.56198754433315
 10
1.7167358061124705
 20
52.54352730942793
 10
1.7500000000000004
 20
52.517
 10
1.7765273094279304
 20
52.48373580611247
 10
1.794987544333146
 20
52.445402733346036
 10
1.8044550314542722
 20
52.40392296203419
 10
1.804455031454272
 20
52.36137646111493
 10
1.7949875443331458
 20
52.31989668980307
 10
1.7765273094279297
 20
52.281563617036646
 10
1.7499999999999996
 20
52.24829942314911
 10
1.7499999999999996
 20
51.86270057685089
 10
1.7765273094279297
 20
51.82943638296336
 10
1.7949875443331458
 20
51.79110331019693
 10
1.804455031454272
 20
51.749623538885075
 10
1.8044550314542722
 20
51.70707703796582
 10
1.794987544333146
 20
51.66559726665397
 10
1.7765273094279304
 20
51.627264193887534
 10
1.7500000000000004
 20
51.594
 10
1.7167358061124705
 20
51.567472690572075
 10
1.6784027333460383
 20
51.549012455666855
 10
1.6369229620341852
 20
51.53954496854573
 10
1.594376461114928
 20
51.53954496854573
 10
1.5528966898030747
 20
51.549012455666855
 10
1.5145636170366426
 20
51.567472690572075
 10
1.4812994231491123
 20
51.594
 10
0.0
 20
51.594
 10
0.0
 20
39.969
 10
1.4812994231491123
 20
39.969
 10
1.5145636170366426
 20
39.99552730942793
 10
1.5528966898030747
 20
40.01398754433315
 10
1.594376461114928
 20
40.023455031454276
 10
1.636922962034185
 20
40.023455031454276
 10
1.6784027333460383
 20
40.01398754433315
 10
1.7167358061124705
 20
39.99552730942793
 10
1.7500000000000004
 20
39.969
 10
1.7765273094279304
 20
39.93573580611247
 10
1.794987544333146
 20
39.897402733346034
 10
1.8044550314542722
 20
39.855922962034185
 10
1.804455031454272
 20
39.81337646111493
 10
1.7949875443331458
 20
39.77189668980307
 10
1.7765273094279297
 20
39.733563617036644
 10
1.7499999999999996
 20
39.70029942314911
 10
1.7499999999999996
 20
39.31470057685089
 10
1.7765273094279297
 20
39.281436382963356
 10
1.7949875443331458
 20
39.24310331019693
 10
1.804455031454272
 20
39.20162353888507
 10
1.8044550314542722
 20
39.159077037965815
 10
1.794987544333146
 20
39.117597266653966
 10
1.7765273094279304
 20
39.07926419388753
 10
1.7500000000000004
 20
39.046
 10
1.7167358061124705
 20
39.01947269057207
 10
1.6784027333460383
 20
39.00101245566685
 10
1.6369229620341852
 20
38.991544968545725
 10
1.594376461114928
 20
38.991544968545725
 10
1.5528966898030747
 20
39.00101245566685
 10
1.5145636170366426
 20
39.01947269057207
 10
1.4812994231491123
 20
39.046
 10
0.0
 20
39.046
 10
0.0
 20
27.421
 10
1.4812994231491123
 20
27.421
 10
1.5145636170366426
 20
27.44752730942793
 10
1.5528966898030747
 20
27.465987544333146
 10
1.594376461114928
 20
27.47545503145427
 10
1.636922962034185
 20
27.47545503145427
 10
1.6784027333460383
 20
27.465987544333146
 10
1.7167358061124705
 20
27.44752730942793
 10
1.7500000000000004
 20
27.421
 10
1.7765273094279304
 20
27.387735806112467
 10
1.794987544333146
 20
27.349402733346036
 10
1.8044550314542722
 20
27.307922962034183
 10
1.804455031454272
 20
27.265376461114926
 10
1.7949875443331458
 20
27.223896689803073
 10
1.7765273094279297
 20
27.18556361703664
 10
1.7499999999999996
 20
27.15229942314911
 10
1.7499999999999996
 20
26.766700576850887
 10
1.7765273094279297
 20
26.733436382963358
 10
1.7949875443331458
 20
26.695103310196924
 10
1.804455031454272
 20
26.65362353888507
 10
1.8044550314542722
 20
26.611077037965813
 10
1.794987544333146
 20
26.56959726665396
 10
1.7765273094279304
 20
26.53126419388753
 10
1.7500000000000004
 20
26.497999999999998
 10
1.7167358061124705
 20
26.471472690572067
 10
1.6784027333460383
 20
26.45301245566685
 10
1.6369229620341852
 20
26.443544968545726
 10
1.594376461114928
 20
26.443544968545726
 10
1.5528966898030747
 20
26.45301245566685
 10
1.5145636170366426
 20
26.471472690572067
 10
1.4812994231491123
 20
26.497999999999998
 10
0.0
 20
26.497999999999998
 10
0.0
 20
14.873
 10
1.4812994231491123
 20
14.873
 10
1.5145636170366423
 20
14.89952730942793
 10
1.5528966898030745
 20
14.917987544333144
 10
1.5943764611149278
 20
14.92745503145427
 10
1.6369229620341847
 20
14.92745503145427
 10
1.6784027333460378
 20
14.917987544333144
 10
1.71673580611247
 20
14.899527309427928
 10
1.75
 20
14.873
 10
1.77652730942793
 20
14.839735806112468
 10
1.7949875443331458
 20
14.801402733346036
 10
1.804455031454272
 20
14.759922962034183
 10
1.8044550314542722
 20
14.717376461114926
 10
1.794987544333146
 20
14.675896689803073
 10
1.7765273094279304
 20
14.63756361703664
 10
1.7500000000000004
 20
14.604299423149111
 10
1.7500000000000004
 20
14.218700576850887
 10
1.7765273094279304
 20
14.185436382963358
 10
1.794987544333146
 20
14.147103310196925
 10
1.8044550314542722
 20
14.105623538885073
 10
1.804455031454272
 20
14.063077037965815
 10
1.7949875443331458
 20
14.021597266653963
 10
1.77652730942793
 20
13.98326419388753
 10
1.75
 20
13.95
 10
1.71673580611247
 20
13.923472690572071
 10
1.6784027333460378
 20
13.905012455666855
 10
1.6369229620341847
 20
13.895544968545728
 10
1.5943764611149278
 20
13.895544968545728
 10
1.5528966898030745
 20
13.905012455666855
 10
1.5145636170366423
 20
13.92347269057207
 10
1.4812994231491123
 20
13.95
 10
0.0
 20
13.95
 10
0.0
 20
0.923
 10
1.481299423149112
 20
0.9229999999999999
 10
1.514563617036642
 20
0.94952730942793
 10
1.5528966898030743
 20
0.9679875443331458
 10
1.5943764611149276
 20
0.977455031454272
 10
1.6369229620341845
 20
0.977455031454272
 10
1.6784027333460378
 20
0.9679875443331458
 10
1.71673580611247
 20
0.94952730942793
 10
1.75
 20
0.923
 10
1.7765273094279301
 20
0.8897358061124699
 10
1.794987544333146
 20
0.8514027333460377
 10
1.8044550314542722
 20
0.8099229620341845
 10
1.8044550314542722
 20
0.7673764611149275
 10
1.794987544333146
 20
0.7258966898030742
 10
1.77652730942793
 20
0.6875636170366419
 10
1.75
 20
0.6542994231491119
 10
1.75
 20
0.0
  0
ENDSEC
  0
SECTION
  2
OBJECTS
  0
DICTIONARY
  5
A
330
0
100
AcDbDictionary
281
1
  3
ACAD_COLOR
350
B
  3
ACAD_GROUP
350
C
  3
ACAD_LAYOUT
350
D
  3
ACAD_MATERIAL
350
E
  3
ACAD_MLEADERSTYLE
350
F
  3
ACAD_MLINESTYLE
350
10
  3
ACAD_PLOTSETTINGS
350
11
  3
ACAD_PLOTSTYLENAME
350
12
  3
ACAD_SCALELIST
350
14
  3
ACAD_TABLESTYLE
350
15
  3
ACAD_VISUALSTYLE
350
16
  3
EZDXF_META
350
2D
  0
DICTIONARY
  5
B
330
A
100
AcDbDictionary
281
1
  0
DICTIONARY
  5
C
330
A
100
AcDbDictionary
281
1
  0
DICTIONARY
  5
D
330
A
100
AcDbDictionary
281
1
  3
Model
350
1A
  3
Layout1
350
1E
  0
DICTIONARY
  5
E
330
A
100
AcDbDictionary
281
1
  3
ByBlock
350
1F
  3
ByLayer
350
20
  3
Global
350
21
  0
DICTIONARY
  5
F
330
A
100
AcDbDictionary
281
1
  3
Standard
350
2C
  0
DICTIONARY
  5
10
330
A
100
AcDbDictionary
281
1
  3
Standard
350
22
  0
DICTIONARY
  5
11
330
A
100
AcDbDictionary
281
1
  0
ACDBDICTIONARYWDFLT
  5
12
330
A
100
AcDbDictionary
281
1
  3
Normal
350
13
100
AcDbDictionaryWithDefault
340
13
  0
ACDBPLACEHOLDER
  5
13
330
12
  0
DICTIONARY
  5
14
330
A
100
AcDbDictionary
281
1
  0
DICTIONARY
  5
15
330
A
100
AcDbDictionary
281
1
  0
DICTIONARY
  5
16
330
A
100
AcDbDictionary
281
1
  0
LAYOUT
  5
1A
330
D
100
AcDbPlotSettings
  1

  4
A3
  6

 40
7.5
 41
20.0
 42
7.5
 43
20.0
 44
420.0
 45
297.0
 46
0.0
 47
0.0
 48
0.0
 49
0.0
140
0.0
141
0.0
142
1.0
143
1.0
 70
1024
 72
1
 73
0
 74
5
  7

 75
16
 76
0
 77
2
 78
300
147
1.0
148
0.0
149
0.0
100
AcDbLayout
  1
Model
 70
1
 71
0
 10
0.0
 20
0.0
 11
420.0
 21
297.0
 12
0.0
 22
0.0
 32
0.0
 14
1e+20
 24
1e+20
 34
1e+20
 15
-1e+20
 25
-1e+20
 35
-1e+20
146
0.0
 13
0.0
 23
0.0
 33
0.0
 16
1.0
 26
0.0
 36
0.0
 17
0.0
 27
1.0
 37
0.0
 76
1
330
17
  0
LAYOUT
  5
1E
330
D
100
AcDbPlotSettings
  1

  4
A3
  6

 40
7.5
 41
20.0
 42
7.5
 43
20.0
 44
420.0
 45
297.0
 46
0.0
 47
0.0
 48
0.0
 49
0.0
140
0.0
141
0.0
142
1.0
143
1.0
 70
0
 72
1
 73
0
 74
5
  7

 75
16
 76
0
 77
2
 78
300
147
1.0
148
0.0
149
0.0
100
AcDbLayout
  1
Layout1
 70
1
 71
1
 10
0.0
 20
0.0
 11
420.0
 21
297.0
 12
0.0
 22
0.0
 32
0.0
 14
1e+20
 24
1e+20
 34
1e+20
 15
-1e+20
 25
-1e+20
 35
-1e+20
146
0.0
 13
0.0
 23
0.0
 33
0.0
 16
1.0
 26
0.0
 36
0.0
 17
0.0
 27
1.0
 37
0.0
 76
1
330
1B
  0
MATERIAL
  5
1F
102
{ACAD_REACTORS
330
E
102
}
330
E
100
AcDbMaterial
  1
ByBlock
  2

 70
0
 40
1.0
 71
1
 41
1.0
 91
-1023410177
 42
1.0
 72
1
  3

 73
1
 74
1
 75
1
 44
0.5
 73
0
 45
1.0
 46
1.0
 77
1
  4

 78
1
 79
1
170
1
 48
1.0
171
1
  6

172
1
173
1
174
1
140
1.0
141
1.0
175
1
  7

176
1
177
1
178
1
143
1.0
179
1
  8

270
1
271
1
272
1
145
1.0
146
1.0
273
1
  9

274
1
275
1
276
1
 42
1.0
 72
1
  3

 73
1
 74
1
 75
1
 94
63
  0
MATERIAL
  5
20
102
{ACAD_REACTORS
330
E
102
}
330
E
100
AcDbMaterial
  1
ByLayer
  2

 70
0
 40
1.0
 71
1
 41
1.0
 91
-1023410177
 42
1.0
 72
1
  3

 73
1
 74
1
 75
1
 44
0.5
 73
0
 45
1.0
 46
1.0
 77
1
  4

 78
1
 79
1
170
1
 48
1.0
171
1
  6

172
1
173
1
174
1
140
1.0
141
1.0
175
1
  7

176
1
177
1
178
1
143
1.0
179
1
  8

270
1
271
1
272
1
145
1.0
146
1.0
273
1
  9

274
1
275
1
276
1
 42
1.0
 72
1
  3

 73
1
 74
1
 75
1
 94
63
  0
MATERIAL
  5
21
102
{ACAD_REACTORS
330
E
102
}
330
E
100
AcDbMaterial
  1
Global
  2

 70
0
 40
1.0
 71
1
 41
1.0
 91
-1023410177
 42
1.0
 72
1
  3

 73
1
 74
1
 75
1
 44
0.5
 73
0
 45
1.0
 46
1.0
 77
1
  4

 78
1
 79
1
170
1
 48
1.0
171
1
  6

172
1
173
1
174
1
140
1.0
141
1.0
175
1
  7

176
1
177
1
178
1
143
1.0
179
1
  8

270
1
271
1
272
1
145
1.0
146
1.0
273
1
  9

274
1
275
1
276
1
 42
1.0
 72
1
  3

 73
1
 74
1
 75
1
 94
63
  0
MLINESTYLE
  5
22
102
{ACAD_REACTORS
330
10
102
}
330
10
100
AcDbMlineStyle
  2
Standard
 70
0
  3

 62
256
 51
90.0
 52
90.0
 71
2
 49
0.5
 62
256
  6
BYLAYER
 49
-0.5
 62
256
  6
BYLAYER
  0
MLEADERSTYLE
  5
2C
102
{ACAD_REACTORS
330
F
102
}
330
F
100
AcDbMLeaderStyle
179
2
170
2
171
1
172
0
 90
2
 40
0.0
 41
0.0
173
1
 91
-1056964608
 92
-2
290
1
 42
2.0
291
1
 43
8.0
  3
Standard
 44
4.0
300

342
29
174
1
175
1
176
0
178
1
 93
-1056964608
 45
4.0
292
0
297
0
 46
4.0
 94
-1056964608
 47
1.0
 49
1.0
140
1.0
294
1
141
0.0
177
0
142
1.0
295
0
296
0
143
3.75
271
0
272
9
273
9
  0
DICTIONARY
  5
2D
330
A
100
AcDbDictionary
280
1
281
1
  3
CREATED_BY_EZDXF
350
2E
  3
WRITTEN_BY_EZDXF
350
32
  0
DICTIONARYVAR
  5
2E
330
2D
100
DictionaryVariables
280
0
  1
1.4.3 @ 2026-05-08T22:22:51.885167+00:00
  0
DICTIONARYVAR
  5
32
330
2D
100
DictionaryVariables
280
0
  1
1.4.3 @ 2026-05-08T22:22:51.891437+00:00
  0
ENDSEC
  0
EOF
