  0
SECTION
  2
HEADER
  9
$ACADVER
  1
AC1024
  9
$ACADMAINTVER
 70
6
  9
$DWGCODEPAGE
  3
ANSI_1252
  9
$LASTSAVEDBY
  1
ezdxf
  9
$INSBASE
 10
0.0
 20
0.0
 30
0.0
  9
$EXTMIN
 10
1e+20
 20
1e+20
 30
1e+20
  9
$EXTMAX
 10
-1e+20
 20
-1e+20
 30
-1e+20
  9
$LIMMIN
 10
0.0
 20
0.0
  9
$LIMMAX
 10
420.0
 20
297.0
  9
$ORTHOMODE
 70
0
  9
$REGENMODE
 70
1
  9
$FILLMODE
 70
1
  9
$QTEXTMODE
 70
0
  9
$MIRRTEXT
 70
1
  9
$LTSCALE
 40
1.0
  9
$ATTMODE
 70
1
  9
$TEXTSIZE
 40
2.5
  9
$TRACEWID
 40
1.0
  9
$TEXTSTYLE
  7
Standard
  9
$CLAYER
  8
0
  9
$CELTYPE
  6
ByLayer
  9
$CECOLOR
 62
256
  9
$CELTSCALE
 40
1.0
  9
$DISPSILH
 70
0
  9
$DIMSCALE
 40
1.0
  9
$DIMASZ
 40
2.5
  9
$DIMEXO
 40
0.625
  9
$DIMDLI
 40
3.75
  9
$DIMRND
 40
0.0
  9
$DIMDLE
 40
0.0
  9
$DIMEXE
 40
1.25
  9
$DIMTP
 40
0.0
  9
$DIMTM
 40
0.0
  9
$DIMTXT
 40
2.5
  9
$DIMCEN
 40
2.5
  9
$DIMTSZ
 40
0.0
  9
$DIMTOL
 70
0
  9
$DIMLIM
 70
0
  9
$DIMTIH
 70
0
  9
$DIMTOH
 70
0
  9
$DIMSE1
 70
0
  9
$DIMSE2
 70
0
  9
$DIMTAD
 70
1
  9
$DIMZIN
 70
8
  9
$DIMBLK
  1

  9
$DIMASO
 70
1
  9
$DIMSHO
 70
1
  9
$DIMPOST
  1

  9
$DIMAPOST
  1

  9
$DIMALT
 70
0
  9
$DIMALTD
 70
3
  9
$DIMALTF
 40
0.03937007874
  9
$DIMLFAC
 40
1.0
  9
$DIMTOFL
 70
1
  9
$DIMTVP
 40
0.0
  9
$DIMTIX
 70
0
  9
$DIMSOXD
 70
0
  9
$DIMSAH
 70
0
  9
$DIMBLK1
  1

  9
$DIMBLK2
  1

  9
$DIMSTYLE
  2
ISO-25
  9
$DIMCLRD
 70
0
  9
$DIMCLRE
 70
0
  9
$DIMCLRT
 70
0
  9
$DIMTFAC
 40
1.0
  9
$DIMGAP
 40
0.625
  9
$DIMJUST
 70
0
  9
$DIMSD1
 70
0
  9
$DIMSD2
 70
0
  9
$DIMTOLJ
 70
0
  9
$DIMTZIN
 70
8
  9
$DIMALTZ
 70
0
  9
$DIMALTTZ
 70
0
  9
$DIMUPT
 70
0
  9
$DIMDEC
 70
2
  9
$DIMTDEC
 70
2
  9
$DIMALTU
 70
2
  9
$DIMALTTD
 70
3
  9
$DIMTXSTY
  7
Standard
  9
$DIMAUNIT
 70
0
  9
$DIMADEC
 70
0
  9
$DIMALTRND
 40
0.0
  9
$DIMAZIN
 70
0
  9
$DIMDSEP
 70
44
  9
$DIMATFIT
 70
3
  9
$DIMFRAC
 70
0
  9
$DIMLDRBLK
  1

  9
$DIMLUNIT
 70
2
  9
$DIMLWD
 70
-2
  9
$DIMLWE
 70
-2
  9
$DIMTMOVE
 70
0
  9
$DIMFXL
 40
1.0
  9
$DIMFXLON
 70
0
  9
$DIMJOGANG
 40
0.785398163397
  9
$DIMTFILL
 70
0
  9
$DIMTFILLCLR
 70
0
  9
$DIMARCSYM
 70
0
  9
$DIMLTYPE
  6

  9
$DIMLTEX1
  6

  9
$DIMLTEX2
  6

  9
$DIMTXTDIRECTION
 70
0
  9
$LUNITS
 70
2
  9
$LUPREC
 70
4
  9
$SKETCHINC
 40
1.0
  9
$FILLETRAD
 40
10.0
  9
$AUNITS
 70
0
  9
$AUPREC
 70
2
  9
$MENU
  1
.
  9
$ELEVATION
 40
0.0
  9
$PELEVATION
 40
0.0
  9
$THICKNESS
 40
0.0
  9
$LIMCHECK
 70
0
  9
$CHAMFERA
 40
0.0
  9
$CHAMFERB
 40
0.0
  9
$CHAMFERC
 40
0.0
  9
$CHAMFERD
 40
0.0
  9
$SKPOLY
 70
0
  9
$TDCREATE
 40
2461122.0046527777
  9
$TDUCREATE
 40
2458532.153996898
  9
$TDUPDATE
 40
2461122.0046527777
  9
$TDUUPDATE
 40
2458532.1544311
  9
$TDINDWG
 40
0.0
  9
$TDUSRTIMER
 40
0.0
  9
$USRTIMER
 70
1
  9
$ANGBASE
 50
0.0
  9
$ANGDIR
 70
0
  9
$PDMODE
 70
0
  9
$PDSIZE
 40
0.0
  9
$PLINEWID
 40
0.0
  9
$SPLFRAME
 70
0
  9
$SPLINETYPE
 70
6
  9
$SPLINESEGS
 70
8
  9
$HANDSEED
  5
34
  9
$SURFTAB1
 70
6
  9
$SURFTAB2
 70
6
  9
$SURFTYPE
 70
6
  9
$SURFU
 70
6
  9
$SURFV
 70
6
  9
$UCSBASE
  2

  9
$UCSNAME
  2

  9
$UCSORG
 10
0.0
 20
0.0
 30
0.0
  9
$UCSXDIR
 10
1.0
 20
0.0
 30
0.0
  9
$UCSYDIR
 10
0.0
 20
1.0
 30
0.0
  9
$UCSORTHOREF
  2

  9
$UCSORTHOVIEW
 70
0
  9
$UCSORGTOP
 10
0.0
 20
0.0
 30
0.0
  9
$UCSORGBOTTOM
 10
0.0
 20
0.0
 30
0.0
  9
$UCSORGLEFT
 10
0.0
 20
0.0
 30
0.0
  9
$UCSORGRIGHT
 10
0.0
 20
0.0
 30
0.0
  9
$UCSORGFRONT
 10
0.0
 20
0.0
 30
0.0
  9
$UCSORGBACK
 10
0.0
 20
0.0
 30
0.0
  9
$PUCSBASE
  2

  9
$PUCSNAME
  2

  9
$PUCSORG
 10
0.0
 20
0.0
 30
0.0
  9
$PUCSXDIR
 10
1.0
 20
0.0
 30
0.0
  9
$PUCSYDIR
 10
0.0
 20
1.0
 30
0.0
  9
$PUCSORTHOREF
  2

  9
$PUCSORTHOVIEW
 70
0
  9
$PUCSORGTOP
 10
0.0
 20
0.0
 30
0.0
  9
$PUCSORGBOTTOM
 10
0.0
 20
0.0
 30
0.0
  9
$PUCSORGLEFT
 10
0.0
 20
0.0
 30
0.0
  9
$PUCSORGRIGHT
 10
0.0
 20
0.0
 30
0.0
  9
$PUCSORGFRONT
 10
0.0
 20
0.0
 30
0.0
  9
$PUCSORGBACK
 10
0.0
 20
0.0
 30
0.0
  9
$USERI1
 70
0
  9
$USERI2
 70
0
  9
$USERI3
 70
0
  9
$USERI4
 70
0
  9
$USERI5
 70
0
  9
$USERR1
 40
0.0
  9
$USERR2
 40
0.0
  9
$USERR3
 40
0.0
  9
$USERR4
 40
0.0
  9
$USERR5
 40
0.0
  9
$WORLDVIEW
 70
1
  9
$SHADEDGE
 70
3
  9
$SHADEDIF
 70
70
  9
$TILEMODE
 70
1
  9
$MAXACTVP
 70
64
  9
$PINSBASE
 10
0.0
 20
0.0
 30
0.0
  9
$PLIMCHECK
 70
0
  9
$PEXTMIN
 10
1e+20
 20
1e+20
 30
1e+20
  9
$PEXTMAX
 10
-1e+20
 20
-1e+20
 30
-1e+20
  9
$PLIMMIN
 10
0.0
 20
0.0
  9
$PLIMMAX
 10
420.0
 20
297.0
  9
$UNITMODE
 70
0
  9
$VISRETAIN
 70
1
  9
$PLINEGEN
 70
0
  9
$PSLTSCALE
 70
1
  9
$TREEDEPTH
 70
3020
  9
$CMLSTYLE
  2
Standard
  9
$CMLJUST
 70
0
  9
$CMLSCALE
 40
20.0
  9
$PROXYGRAPHICS
 70
1
  9
$MEASUREMENT
 70
1
  9
$CELWEIGHT
370
-1
  9
$ENDCAPS
280
0
  9
$JOINSTYLE
280
0
  9
$LWDISPLAY
290
0
  9
$INSUNITS
 70
6
  9
$HYPERLINKBASE
  1

  9
$STYLESHEET
  1

  9
$XEDIT
290
1
  9
$CEPSNTYPE
380
0
  9
$PSTYLEMODE
290
1
  9
$FINGERPRINTGUID
  2
{08B9E0F4-7B72-4399-9304-EE499AA0A16C}
  9
$VERSIONGUID
  2
{E98F893B-137A-488E-BEB7-FC5784E06152}
  9
$EXTNAMES
290
1
  9
$PSVPSCALE
 40
0.0
  9
$OLESTARTUP
290
0
  9
$SORTENTS
280
127
  9
$INDEXCTL
280
0
  9
$HIDETEXT
280
1
  9
$XCLIPFRAME
280
1
  9
$HALOGAP
280
0
  9
$OBSCOLOR
 70
257
  9
$OBSLTYPE
280
0
  9
$INTERSECTIONDISPLAY
280
0
  9
$INTERSECTIONCOLOR
 70
257
  9
$DIMASSOC
280
2
  9
$PROJECTNAME
  1

  9
$CAMERADISPLAY
290
0
  9
$LENSLENGTH
 40
50.0
  9
$CAMERAHEIGHT
 40
0.0
  9
$STEPSPERSEC
 40
24.0
  9
$STEPSIZE
 40
100.0
  9
$3DDWFPREC
 40
2.0
  9
$PSOLWIDTH
 40
0.005
  9
$PSOLHEIGHT
 40
0.08
  9
$LOFTANG1
 40
1.570796326795
  9
$LOFTANG2
 40
1.570796326795
  9
$LOFTMAG1
 40
0.0
  9
$LOFTMAG2
 40
0.0
  9
$LOFTPARAM
 70
7
  9
$LOFTNORMALS
280
1
  9
$LATITUDE
 40
37.795
  9
$LONGITUDE
 40
-122.394
  9
$NORTHDIRECTION
 40
0.0
  9
$TIMEZONE
 70
-8000
  9
$LIGHTGLYPHDISPLAY
280
1
  9
$TILEMODELIGHTSYNCH
280
1
  9
$CMATERIAL
347
20
  9
$SOLIDHIST
280
0
  9
$SHOWHIST
280
1
  9
$DWFFRAME
280
2
  9
$DGNFRAME
280
2
  9
$REALWORLDSCALE
290
1
  9
$INTERFERECOLOR
 62
256
  9
$CSHADOW
280
0
  9
$SHADOWPLANELOCATION
 40
0.0
  0
ENDSEC
  0
SECTION
  2
CLASSES
  0
CLASS
  1
ACDBDICTIONARYWDFLT
  2
AcDbDictionaryWithDefault
  3
ObjectDBX Classes
 90
0
 91
0
280
0
281
0
  0
CLASS
  1
SUN
  2
AcDbSun
  3
SCENEOE
 90
1153
 91
0
280
0
281
0
  0
CLASS
  1
VISUALSTYLE
  2
AcDbVisualStyle
  3
ObjectDBX Classes
 90
4095
 91
0
280
0
281
0
  0
CLASS
  1
MATERIAL
  2
AcDbMaterial
  3
ObjectDBX Classes
 90
1153
 91
0
280
0
281
0
  0
CLASS
  1
SCALE
  2
AcDbScale
  3
ObjectDBX Classes
 90
1153
 91
0
280
0
281
0
  0
CLASS
  1
TABLESTYLE
  2
AcDbTableStyle
  3
ObjectDBX Classes
 90
4095
 91
0
280
0
281
0
  0
CLASS
  1
MLEADERSTYLE
  2
AcDbMLeaderStyle
  3
ACDB_MLEADERSTYLE_CLASS
 90
4095
 91
0
280
0
281
0
  0
CLASS
  1
DICTIONARYVAR
  2
AcDbDictionaryVar
  3
ObjectDBX Classes
 90
0
 91
0
280
0
281
0
  0
CLASS
  1
CELLSTYLEMAP
  2
AcDbCellStyleMap
  3
ObjectDBX Classes
 90
1152
 91
0
280
0
281
0
  0
CLASS
  1
MENTALRAYRENDERSETTINGS
  2
AcDbMentalRayRenderSettings
  3
SCENEOE
 90
1024
 91
0
280
0
281
0
  0
CLASS
  1
ACDBDETAILVIEWSTYLE
  2
AcDbDetailViewStyle
  3
ObjectDBX Classes
 90
1025
 91
0
280
0
281
0
  0
CLASS
  1
ACDBSECTIONVIEWSTYLE
  2
AcDbSectionViewStyle
  3
ObjectDBX Classes
 90
1025
 91
0
280
0
281
0
  0
CLASS
  1
RASTERVARIABLES
  2
AcDbRasterVariables
  3
ISM
 90
0
 91
0
280
0
281
0
  0
CLASS
  1
ACDBPLACEHOLDER
  2
AcDbPlaceHolder
  3
ObjectDBX Classes
 90
0
 91
0
280
0
281
0
  0
CLASS
  1
LAYOUT
  2
AcDbLayout
  3
ObjectDBX Classes
 90
0
 91
0
280
0
281
0
  0
ENDSEC
  0
SECTION
  2
TABLES
  0
TABLE
  2
VPORT
  5
8
330
0
100
AcDbSymbolTable
 70
1
  0
VPORT
  5
23
330
8
100
AcDbSymbolTableRecord
100
AcDbViewportTableRecord
  2
*Active
 70
0
 10
0.0
 20
0.0
 11
1.0
 21
1.0
 12
0.0
 22
0.0
 13
0.0
 23
0.0
 14
0.5
 24
0.5
 15
0.5
 25
0.5
 16
0.0
 26
0.0
 36
1.0
 17
0.0
 27
0.0
 37
0.0
 40
1000.0
 41
1.34
 42
50.0
 43
0.0
 44
0.0
 50
0.0
 51
0.0
 71
0
 72
1000
 73
1
 74
3
 75
0
 76
0
 77
0
 78
0
281
0
 65
0
146
0.0
  0
ENDTAB
  0
TABLE
  2
LTYPE
  5
2
330
0
100
AcDbSymbolTable
 70
3
  0
LTYPE
  5
24
330
2
100
AcDbSymbolTableRecord
100
AcDbLinetypeTableRecord
  2
ByBlock
 70
0
  3

 72
65
 73
0
 40
0.0
  0
LTYPE
  5
25
330
2
100
AcDbSymbolTableRecord
100
AcDbLinetypeTableRecord
  2
ByLayer
 70
0
  3

 72
65
 73
0
 40
0.0
  0
LTYPE
  5
26
330
2
100
AcDbSymbolTableRecord
100
AcDbLinetypeTableRecord
  2
Continuous
 70
0
  3

 72
65
 73
0
 40
0.0
  0
ENDTAB
  0
TABLE
  2
LAYER
  5
1
330
0
100
AcDbSymbolTable
 70
2
  0
LAYER
  5
27
330
1
100
AcDbSymbolTableRecord
100
AcDbLayerTableRecord
  2
0
 70
0
 62
7
  6
Continuous
370
-3
390
13
347
21
  0
LAYER
  5
28
330
1
100
AcDbSymbolTableRecord
100
AcDbLayerTableRecord
  2
Defpoints
 70
0
 62
7
  6
Continuous
290
0
370
-3
390
13
347
21
  0
ENDTAB
  0
TABLE
  2
STYLE
  5
5
330
0
100
AcDbSymbolTable
 70
1
  0
STYLE
  5
29
330
5
100
AcDbSymbolTableRecord
100
AcDbTextStyleTableRecord
  2
Standard
 70
0
 40
0.0
 41
1.0
 50
0.0
 71
0
 42
2.5
  3
txt
  4

  0
ENDTAB
  0
TABLE
  2
VIEW
  5
7
330
0
100
AcDbSymbolTable
 70
0
  0
ENDTAB
  0
TABLE
  2
UCS
  5
6
330
0
100
AcDbSymbolTable
 70
0
  0
ENDTAB
  0
TABLE
  2
APPID
  5
3
330
0
100
AcDbSymbolTable
 70
3
  0
APPID
  5
2A
330
3
100
AcDbSymbolTableRecord
100
AcDbRegAppTableRecord
  2
ACAD
 70
0
  0
APPID
  5
31
330
3
100
AcDbSymbolTableRecord
100
AcDbRegAppTableRecord
  2
HATCHBACKGROUNDCOLOR
 70
0
  0
APPID
  5
32
330
3
100
AcDbSymbolTableRecord
100
AcDbRegAppTableRecord
  2
EZDXF
 70
0
  0
ENDTAB
  0
TABLE
  2
DIMSTYLE
  5
4
330
0
100
AcDbSymbolTable
 70
1
100
AcDbDimStyleTable
  0
DIMSTYLE
105
2B
330
4
100
AcDbSymbolTableRecord
100
AcDbDimStyleTableRecord
  2
Standard
 70
0
 40
1.0
 41
2.5
 42
0.625
 43
3.75
 44
1.25
 45
0.0
 46
0.0
 47
0.0
 48
0.0
 49
2.5
140
2.5
141
2.5
142
0.0
143
0.03937007874
144
1.0
145
0.0
146
1.0
147
0.625
148
0.0
 69
0
 70
0
 71
0
 72
0
 73
0
 74
0
 75
0
 76
0
 77
1
 78
8
 79
3
170
0
171
3
172
1
173
0
174
0
175
0
176
0
177
0
178
0
179
2
271
2
272
2
273
2
274
3
275
0
276
0
277
2
278
44
279
0
280
0
281
0
282
0
283
0
284
8
285
0
286
0
288
0
289
3
290
0
371
-2
372
-2
  0
ENDTAB
  0
TABLE
  2
BLOCK_RECORD
  5
9
330
0
100
AcDbSymbolTable
 70
2
  0
BLOCK_RECORD
  5
17
330
9
100
AcDbSymbolTableRecord
100
AcDbBlockTableRecord
  2
*Model_Space
340
1A
 70
0
280
1
281
0
  0
BLOCK_RECORD
  5
1B
330
9
100
AcDbSymbolTableRecord
100
AcDbBlockTableRecord
  2
*Paper_Space
340
1E
 70
0
280
1
281
0
  0
ENDTAB
  0
ENDSEC
  0
SECTION
  2
BLOCKS
  0
BLOCK
  5
18
330
17
100
AcDbEntity
  8
0
100
AcDbBlockBegin
  2
*Model_Space
 70
0
 10
0.0
 20
0.0
 30
0.0
  3
*Model_Space
  1

  0
ENDBLK
  5
19
330
17
100
AcDbEntity
  8
0
100
AcDbBlockEnd
  0
BLOCK
  5
1C
330
1B
100
AcDbEntity
  8
0
100
AcDbBlockBegin
  2
*Paper_Space
 70
0
 10
0.0
 20
0.0
 30
0.0
  3
*Paper_Space
  1

  0
ENDBLK
  5
1D
330
1B
100
AcDbEntity
  8
0
100
AcDbBlockEnd
  0
ENDSEC
  0
SECTION
  2
ENTITIES
  0
LWPOLYLINE
  5
2F
330
17
100
AcDbEntity
  8
SHELF_TEST
 62
3
100
AcDbPolyline
 90
133
 70
1
 10
29.0
 20
8.99992094447611
 10
26.375
 20
8.99992094447611
 10
26.375
 20
5.249920944476109
 10
26.351915638615882
 20
4.95660632252568
 10
26.283230968053413
 20
4.670514080023082
 10
26.17063723285319
 20
4.398688757464463
 10
26.016906864453027
 20
4.14782359642772
 10
25.825825214724777
 20
3.924095729751336
 10
25.60209734804839
 20
3.733014080023082
 10
25.35123218701165
 20
3.579283711622921
 10
25.079406864453027
 20
3.4666899764226926
 10
24.793314621950433
 20
3.3980053058602238
 10
24.5
 20
3.3749209444761092
 10
24.206685378049567
 20
3.3980053058602238
 10
23.920593135546973
 20
3.4666899764226926
 10
23.64876781298835
 20
3.579283711622921
 10
23.39790265195161
 20
3.733014080023082
 10
23.174174785275223
 20
3.924095729751336
 10
22.983093135546973
 20
4.14782359642772
 10
22.82936276714681
 20
4.398688757464463
 10
22.716769031946587
 20
4.670514080023082
 10
22.648084361384115
 20
4.95660632252568
 10
22.625
 20
5.249920944476109
 10
22.625
 20
8.99992094447611
 10
0.0
 20
8.99992094447611
 10
0.0
 20
3.5833729618127137
 10
0.0
 20
3.5833729618127137
 10
0.01365001913017494
 20
3.2975167186435286
 10
0.05447586117253067
 20
3.0142617709328476
 10
0.12210601044381164
 20
2.7361857423172964
 10
0.21592503172313116
 20
2.4658191282037194
 10
0.3350791707203342
 20
2.2056222682286446
 10
0.47848412325091516
 20
1.9579629571362673
 10
0.6448349024179407
 20
1.725094897816021
 10
0.8326177140094408
 20
1.5091371925776116
 10
1.0401237320450605
 20
1.312055059292895
 10
1.26546464911425
 20
1.135641947888253
 10
1.5065898599978134
 20
0.9815032199273404
 10
1.7613051222015272
 20
0.8510415398003985
 10
2.027292523590841
 20
0.7454441104604186
 10
2.302131575420855
 20
0.6656718698611357
 10
2.5833212388147686
 20
0.6124507464093654
 10
2.86830268424956
 20
0.5862650530072742
 10
3.1544825769372764
 20
0.587353079798774
 10
3.439256676204675
 20
0.6157049257261917
 10
3.720033534116574
 20
0.6710625886300008
 10
3.7200335341166237
 20
0.6710625886298089
 10
4.213160102349029
 20
0.7953804994802312
 10
4.706286670581431
 20
0.923102727186901
 10
5.199413238813836
 20
1.0521034969051115
 10
5.692539807046238
 20
1.1802357540763708
 10
6.185666375278643
 20
1.305366899434432
 10
6.678792943511045
 20
1.4254142834211976
 10
7.17191951174345
 20
1.5383798692529638
 10
7.665046079975852
 20
1.6423834877141559
 10
8.158172648208257
 20
1.7356941301944815
 10
8.651299216440659
 20
1.816758759136654
 10
9.144425784673064
 20
1.8842281563811127
 10
9.637552352905466
 20
1.9369793791948169
 10
10.130678921137871
 20
1.9741344502319436
 10
10.623805489370273
 20
1.9950749703556738
 10
11.116932057602678
 20
1.9994524111092744
 10
11.61005862583508
 20
1.987193915531158
 10
12.103185194067485
 20
1.9585035107667963
 10
12.59631176229989
 20
1.9138587122951307
 10
13.089438330532293
 20
1.8540025762876908
 10
13.582564898764694
 20
1.7799313323789647
 10
14.0756914669971
 20
1.69287780268494
 10
14.568818035229503
 20
1.5942908830391005
 10
15.061944603461907
 20
1.4858114279549
 10
15.55507117169431
 20
1.3692449406789393
 10
16.048197739926714
 20
1.2465315228743137
 10
16.54132430815912
 20
1.1197135840836836
 10
17.03445087639152
 20
0.9909018484071765
 10
17.527577444623923
 20
0.8622402241708542
 10
18.020704012856328
 20
0.7358701212858492
 10
18.513830581088733
 20
0.6138948101903665
 10
19.006957149321135
 20
0.49834441557499787
 10
19.500083717553537
 20
0.3911421275263862
 10
19.993210285785942
 20
0.29407219246211724
 10
20.486336854018347
 20
0.20875021660705073
 10
20.97946342225075
 20
0.13659627627235693
 10
21.472589990483154
 20
0.07881128248240543
 10
21.965716558715556
 20
0.03635699333057829
 10
22.45884312694796
 20
0.009940006732904294
 10
22.951969695180363
 20
0.0
 10
23.44509626341277
 20
0.006702411964617738
 10
23.93822283164517
 20
0.02993568946166647
 10
24.431349399877575
 20
0.06931314398946853
 10
24.924475968109977
 20
0.12417938765048575
 10
25.417602536342383
 20
0.19362124125349567
 10
25.910729104574784
 20
0.27648293302556226
 10
26.40385567280719
 20
0.3713853349705474
 10
26.89698224103959
 20
0.4767489167092762
 10
27.390108809271997
 20
0.5908200347637731
 10
27.8832353775044
 20
0.7117001197336918
 10
27.883235377653367
 20
0.7117001191394579
 10
27.98980473893127
 20
0.7396674395030587
 10
28.095731987390632
 20
0.7699761479105192
 10
28.20096568815024
 20
0.8026115274232097
 10
28.305454743093453
 20
0.8375577313454556
 10
28.409148415679788
 20
0.8747977909192315
 10
28.511996355580983
 20
0.9143136235636362
 10
28.613948623129495
 20
0.9560860416551975
 10
28.714955713567612
 20
1.0000947618447924
 10
28.814968581085367
 20
1.0463184149065867
 10
28.913938662635612
 20
1.0947345561142185
 10
29.011817901514704
 20
1.1453196761392874
 10
29.10855877069726
 20
1.1980492124666924
 10
29.20411429591381
 20
1.2528975613214186
 10
29.298438078459956
 20
1.3098380901009108
 10
29.39148431772611
 20
1.3688431503070149
 10
29.48320783343682
 20
1.4298840909711856
 10
29.57356408758885
 20
1.4929312725665156
 10
29.662509206077402
 20
1.557954081399707
 10
29.75
 20
1.6249209444761092
 10
29.75
 20
2.2499209444761092
 10
29.75
 20
2.2499209444761092
 10
29.666026642922517
 20
2.254636787056178
 10
29.583109299532765
 20
2.268725010339743
 10
29.502290703533625
 20
2.2920084467448376
 10
29.424587195661832
 20
2.324194293549297
 10
29.3509759426135
 20
2.3648777950548947
 10
29.28238264860595
 20
2.413547332625086
 10
29.21966991411009
 20
2.4695908585862014
 10
29.163626388148977
 20
2.532303593082055
 10
29.114956850578785
 20
2.600896887089604
 10
29.074273349073184
 20
2.674508140137938
 10
29.042087502268725
 20
2.752211648009734
 10
29.018804065863634
 20
2.8330302440088744
 10
29.00471584258007
 20
2.9159475873986267
 10
29.0
 20
2.9999209444761092
 10
29.0
 20
8.99992094447611
  0
LWPOLYLINE
  5
30
330
17
100
AcDbEntity
  8
SHELF_TEST
 62
3
100
AcDbPolyline
 90
133
 70
1
 10
-5.75
 20
9.449920944476112
 10
-5.75
 20
15.449920944476112
 10
-5.75
 20
15.449920944476112
 10
-5.754715842580069
 20
15.533894301553595
 10
-5.76880406586363
 20
15.616811644943345
 10
-5.792087502268725
 20
15.697630240942484
 10
-5.824273349073184
 20
15.775333748814278
 10
-5.8649568505787855
 20
15.848945001862612
 10
-5.913626388148977
 20
15.917538295870159
 10
-5.969669914110089
 20
15.980251030366011
 10
-6.0323826486059495
 20
16.036294556327125
 10
-6.100975942613498
 20
16.084964093897316
 10
-6.174587195661832
 20
16.125647595402913
 10
-6.252290703533625
 20
16.157833442207373
 10
-6.333109299532765
 20
16.181116878612468
 10
-6.4160266429225175
 20
16.195205101896033
 10
-6.5
 20
16.1999209444761
 10
-6.5
 20
16.8249209444761
 10
-6.5
 20
16.8249209444761
 10
-6.387881476808225
 20
16.849807853726244
 10
-6.27522092872535
 20
16.87211306388878
 10
-6.162077795102764
 20
16.89182480680488
 10
-6.048511769902472
 20
16.908932682620883
 10
-5.9345827702027485
 20
16.923427665275216
 10
-5.820350904586075
 20
16.935302107260565
 10
-5.705876441426039
 20
16.944549743658623
 10
-5.591219777089929
 20
16.951165695445457
 10
-5.476441404073803
 20
16.95514647206569
 10
-5.361601879086837
 20
16.95648997327407
 10
-5.246761791101793
 20
16.955195490243586
 10
-5.131981729388471
 20
16.951263705939414
 10
-5.017322251546993
 20
16.94469669475861
 10
-4.902843851557815
 20
16.935497921435644
 10
-4.788606927865288
 20
16.923672239214444
 10
-4.6746717515116245
 20
16.909225887287807
 10
-4.561098434338085
 20
16.89216648750565
 10
-4.447946897270164
 20
16.87250304035373
 10
-4.335276838703507
 20
16.85024592020501
 10
-4.335276838554165
 20
16.85024592091784
 10
-3.7993955942888853
 20
16.744236756054402
 10
-3.2635143500236055
 20
16.652094265446028
 10
-2.727633105758329
 20
16.575629046415546
 10
-2.1917518614930493
 20
16.51634363834464
 10
-1.6558706172277695
 20
16.4754029978177
 10
-1.1199893729624897
 20
16.453611607258015
 10
-0.5841081286972098
 20
16.451397666871028
 10
-0.04822688443193357
 20
16.468804680522435
 10
0.4876543598333498
 20
16.50549060088851
 10
1.023535604098626
 20
16.56073455067624
 10
1.559416848363906
 20
16.633450987841695
 10
2.0952980926291858
 20
16.72221103646034
 10
2.6311793368944656
 20
16.825270564098357
 10
3.1670605811597454
 20
16.940604453965424
 10
3.7029418254250217
 20
17.065946398402115
 10
4.238823069690305
 20
17.19883343176102
 10
4.774704313955581
 20
17.336654327611765
 10
5.310585558220861
 20
17.476700909266153
 10
5.846466802486141
 20
17.616221265373202
 10
6.382348046751421
 20
17.75247382489896
 10
6.918229291016701
 20
17.88278122891948
 10
7.454110535281977
 20
18.004582940647598
 10
7.98999177954726
 20
18.11548555990805
 10
8.525873023812537
 20
18.21330985338295
 10
9.061754268077816
 20
18.296133576484554
 10
9.597635512343096
 20
18.362329245406816
 10
10.133516756608376
 20
18.410596117135928
 10
10.669398000873652
 20
18.439985749013598
 10
11.205279245138932
 20
18.44992063560836
 10
11.741160489404212
 20
18.440205556680848
 10
12.277041733669492
 20
18.411031413256
 10
12.812922977934772
 20
18.362971476423322
 10
13.348804222200052
 20
18.296970122576273
 10
13.884685466465331
 20
18.214324276442934
 10
14.420566710730611
 20
18.11665792655199
 10
14.956447954995888
 20
18.005890213904248
 10
15.492329199261167
 20
17.884197720906496
 10
16.028210443526447
 20
17.753971701589027
 10
16.564091687791727
 20
17.61777109353191
 10
17.099972932057007
 20
17.47827223481421
 10
17.635854176322287
 20
17.33821627404679
 10
18.171735420587563
 20
17.200355306879946
 10
18.707616664852843
 20
17.067398297402082
 10
19.243497909118123
 20
16.941957847072334
 10
19.779379153383402
 20
16.8264988571761
 10
20.315260397648682
 20
16.72329009358484
 10
20.851141641913962
 20
16.63435960557111
 10
21.38702288617924
 20
16.561454874697997
 10
21.92290413044452
 20
16.506008476856042
 10
21.92290413044452
 20
16.506008476856042
 10
22.045122243894735
 20
16.49795301006063
 10
22.167567312438766
 20
16.49489310975677
 10
22.290035231605476
 20
16.496833876511925
 10
22.412321858833884
 20
16.503772075249525
 10
22.534223353759696
 20
16.51569614064154
 10
22.655536517998144
 20
16.532586196386784
 10
22.776059133856645
 20
16.55441408834287
 10
22.895590301412792
 20
16.5811434314565
 10
23.01393077339572
 20
16.61272967041398
 10
23.13088328731267
 20
16.64912015391074
 10
23.246252894267087
 20
16.690254222416126
 10
23.3598472839202
 20
16.736063309287164
 10
23.47147710505436
 20
16.78647105506276
 10
23.580956281203804
 20
16.84139343474774
 10
23.688102320826694
 20
16.900738897874678
 10
23.79273662150147
 20
16.96440852110997
 10
23.89468476764033
 20
17.03229617314972
 10
23.99377682122375
 20
17.10428869163076
 10
24.089847605071206
 20
17.180266071761675
 10
24.089847605071206
 20
9.449920944476112
 10
0.625
 20
9.449920944476112
 10
0.625
 20
13.199920944476112
 10
0.6019156386158855
 20
13.493235566426542
 10
0.5332309680534131
 20
13.779327808929139
 10
0.42063723285318844
 20
14.051153131487759
 10
0.266906864453027
 20
14.302018292524501
 10
0.07582521472477666
 20
14.525746159200885
 10
-0.14790265195161112
 20
14.716827808929139
 10
-0.39876781298834985
 20
14.8705581773293
 10
-0.670593135546973
 20
14.983151912529529
 10
-0.956685378049567
 20
15.051836583091998
 10
-1.25
 20
15.074920944476112
 10
-1.543314621950433
 20
15.051836583091998
 10
-1.829406864453027
 20
14.983151912529529
 10
-2.10123218701165
 20
14.8705581773293
 10
-2.352097348048389
 20
14.716827808929139
 10
-2.5758252147247767
 20
14.525746159200885
 10
-2.766906864453027
 20
14.302018292524501
 10
-2.9206372328531884
 20
14.051153131487759
 10
-3.033230968053413
 20
13.779327808929139
 10
-3.101915638615882
 20
13.493235566426542
 10
-3.125
 20
13.199920944476112
 10
-3.125
 20
9.449920944476112
 10
-5.75
 20
9.449920944476112
  0
ENDSEC
  0
SECTION
  2
OBJECTS
  0
DICTIONARY
  5
A
330
0
100
AcDbDictionary
281
1
  3
ACAD_COLOR
350
B
  3
ACAD_GROUP
350
C
  3
ACAD_LAYOUT
350
D
  3
ACAD_MATERIAL
350
E
  3
ACAD_MLEADERSTYLE
350
F
  3
ACAD_MLINESTYLE
350
10
  3
ACAD_PLOTSETTINGS
350
11
  3
ACAD_PLOTSTYLENAME
350
12
  3
ACAD_SCALELIST
350
14
  3
ACAD_TABLESTYLE
350
15
  3
ACAD_VISUALSTYLE
350
16
  3
EZDXF_META
350
2D
  0
DICTIONARY
  5
B
330
A
100
AcDbDictionary
281
1
  0
DICTIONARY
  5
C
330
A
100
AcDbDictionary
281
1
  0
DICTIONARY
  5
D
330
A
100
AcDbDictionary
281
1
  3
Model
350
1A
  3
Layout1
350
1E
  0
DICTIONARY
  5
E
330
A
100
AcDbDictionary
281
1
  3
ByBlock
350
1F
  3
ByLayer
350
20
  3
Global
350
21
  0
DICTIONARY
  5
F
330
A
100
AcDbDictionary
281
1
  3
Standard
350
2C
  0
DICTIONARY
  5
10
330
A
100
AcDbDictionary
281
1
  3
Standard
350
22
  0
DICTIONARY
  5
11
330
A
100
AcDbDictionary
281
1
  0
ACDBDICTIONARYWDFLT
  5
12
330
A
100
AcDbDictionary
281
1
  3
Normal
350
13
100
AcDbDictionaryWithDefault
340
13
  0
ACDBPLACEHOLDER
  5
13
330
12
  0
DICTIONARY
  5
14
330
A
100
AcDbDictionary
281
1
  0
DICTIONARY
  5
15
330
A
100
AcDbDictionary
281
1
  0
DICTIONARY
  5
16
330
A
100
AcDbDictionary
281
1
  0
LAYOUT
  5
1A
330
D
100
AcDbPlotSettings
  1

  4
A3
  6

 40
7.5
 41
20.0
 42
7.5
 43
20.0
 44
420.0
 45
297.0
 46
0.0
 47
0.0
 48
0.0
 49
0.0
140
0.0
141
0.0
142
1.0
143
1.0
 70
1024
 72
1
 73
0
 74
5
  7

 75
16
 76
0
 77
2
 78
300
147
1.0
148
0.0
149
0.0
100
AcDbLayout
  1
Model
 70
1
 71
0
 10
0.0
 20
0.0
 11
420.0
 21
297.0
 12
0.0
 22
0.0
 32
0.0
 14
1e+20
 24
1e+20
 34
1e+20
 15
-1e+20
 25
-1e+20
 35
-1e+20
146
0.0
 13
0.0
 23
0.0
 33
0.0
 16
1.0
 26
0.0
 36
0.0
 17
0.0
 27
1.0
 37
0.0
 76
1
330
17
  0
LAYOUT
  5
1E
330
D
100
AcDbPlotSettings
  1

  4
A3
  6

 40
7.5
 41
20.0
 42
7.5
 43
20.0
 44
420.0
 45
297.0
 46
0.0
 47
0.0
 48
0.0
 49
0.0
140
0.0
141
0.0
142
1.0
143
1.0
 70
0
 72
1
 73
0
 74
5
  7

 75
16
 76
0
 77
2
 78
300
147
1.0
148
0.0
149
0.0
100
AcDbLayout
  1
Layout1
 70
1
 71
1
 10
0.0
 20
0.0
 11
420.0
 21
297.0
 12
0.0
 22
0.0
 32
0.0
 14
1e+20
 24
1e+20
 34
1e+20
 15
-1e+20
 25
-1e+20
 35
-1e+20
146
0.0
 13
0.0
 23
0.0
 33
0.0
 16
1.0
 26
0.0
 36
0.0
 17
0.0
 27
1.0
 37
0.0
 76
1
330
1B
  0
MATERIAL
  5
1F
102
{ACAD_REACTORS
330
E
102
}
330
E
100
AcDbMaterial
  1
ByBlock
  2

 70
0
 40
1.0
 71
1
 41
1.0
 91
-1023410177
 42
1.0
 72
1
  3

 73
1
 74
1
 75
1
 44
0.5
 73
0
 45
1.0
 46
1.0
 77
1
  4

 78
1
 79
1
170
1
 48
1.0
171
1
  6

172
1
173
1
174
1
140
1.0
141
1.0
175
1
  7

176
1
177
1
178
1
143
1.0
179
1
  8

270
1
271
1
272
1
145
1.0
146
1.0
273
1
  9

274
1
275
1
276
1
 42
1.0
 72
1
  3

 73
1
 74
1
 75
1
 94
63
  0
MATERIAL
  5
20
102
{ACAD_REACTORS
330
E
102
}
330
E
100
AcDbMaterial
  1
ByLayer
  2

 70
0
 40
1.0
 71
1
 41
1.0
 91
-1023410177
 42
1.0
 72
1
  3

 73
1
 74
1
 75
1
 44
0.5
 73
0
 45
1.0
 46
1.0
 77
1
  4

 78
1
 79
1
170
1
 48
1.0
171
1
  6

172
1
173
1
174
1
140
1.0
141
1.0
175
1
  7

176
1
177
1
178
1
143
1.0
179
1
  8

270
1
271
1
272
1
145
1.0
146
1.0
273
1
  9

274
1
275
1
276
1
 42
1.0
 72
1
  3

 73
1
 74
1
 75
1
 94
63
  0
MATERIAL
  5
21
102
{ACAD_REACTORS
330
E
102
}
330
E
100
AcDbMaterial
  1
Global
  2

 70
0
 40
1.0
 71
1
 41
1.0
 91
-1023410177
 42
1.0
 72
1
  3

 73
1
 74
1
 75
1
 44
0.5
 73
0
 45
1.0
 46
1.0
 77
1
  4

 78
1
 79
1
170
1
 48
1.0
171
1
  6

172
1
173
1
174
1
140
1.0
141
1.0
175
1
  7

176
1
177
1
178
1
143
1.0
179
1
  8

270
1
271
1
272
1
145
1.0
146
1.0
273
1
  9

274
1
275
1
276
1
 42
1.0
 72
1
  3

 73
1
 74
1
 75
1
 94
63
  0
MLINESTYLE
  5
22
102
{ACAD_REACTORS
330
10
102
}
330
10
100
AcDbMlineStyle
  2
Standard
 70
0
  3

 62
256
 51
90.0
 52
90.0
 71
2
 49
0.5
 62
256
  6
BYLAYER
 49
-0.5
 62
256
  6
BYLAYER
  0
MLEADERSTYLE
  5
2C
102
{ACAD_REACTORS
330
F
102
}
330
F
100
AcDbMLeaderStyle
179
2
170
2
171
1
172
0
 90
2
 40
0.0
 41
0.0
173
1
 91
-1056964608
 92
-2
290
1
 42
2.0
291
1
 43
8.0
  3
Standard
 44
4.0
300

342
29
174
1
175
1
176
0
178
1
 93
-1056964608
 45
4.0
292
0
297
0
 46
4.0
 94
-1056964608
 47
1.0
 49
1.0
140
1.0
294
1
141
0.0
177
0
142
1.0
295
0
296
0
143
3.75
271
0
272
9
273
9
  0
DICTIONARY
  5
2D
330
A
100
AcDbDictionary
280
1
281
1
  3
CREATED_BY_EZDXF
350
2E
  3
WRITTEN_BY_EZDXF
350
33
  0
DICTIONARYVAR
  5
2E
330
2D
100
DictionaryVariables
280
0
  1
1.4.3 @ 2026-03-22T06:06:42.314360+00:00
  0
DICTIONARYVAR
  5
33
330
2D
100
DictionaryVariables
280
0
  1
1.4.3 @ 2026-03-22T06:06:42.317399+00:00
  0
ENDSEC
  0
EOF
