  0
SECTION
  2
HEADER
  9
$ACADVER
  1
AC1024
  9
$ACADMAINTVER
 70
6
  9
$DWGCODEPAGE
  3
ANSI_1252
  9
$LASTSAVEDBY
  1
ezdxf
  9
$INSBASE
 10
0.0
 20
0.0
 30
0.0
  9
$EXTMIN
 10
1e+20
 20
1e+20
 30
1e+20
  9
$EXTMAX
 10
-1e+20
 20
-1e+20
 30
-1e+20
  9
$LIMMIN
 10
0.0
 20
0.0
  9
$LIMMAX
 10
420.0
 20
297.0
  9
$ORTHOMODE
 70
0
  9
$REGENMODE
 70
1
  9
$FILLMODE
 70
1
  9
$QTEXTMODE
 70
0
  9
$MIRRTEXT
 70
1
  9
$LTSCALE
 40
1.0
  9
$ATTMODE
 70
1
  9
$TEXTSIZE
 40
2.5
  9
$TRACEWID
 40
1.0
  9
$TEXTSTYLE
  7
Standard
  9
$CLAYER
  8
0
  9
$CELTYPE
  6
ByLayer
  9
$CECOLOR
 62
256
  9
$CELTSCALE
 40
1.0
  9
$DISPSILH
 70
0
  9
$DIMSCALE
 40
1.0
  9
$DIMASZ
 40
2.5
  9
$DIMEXO
 40
0.625
  9
$DIMDLI
 40
3.75
  9
$DIMRND
 40
0.0
  9
$DIMDLE
 40
0.0
  9
$DIMEXE
 40
1.25
  9
$DIMTP
 40
0.0
  9
$DIMTM
 40
0.0
  9
$DIMTXT
 40
2.5
  9
$DIMCEN
 40
2.5
  9
$DIMTSZ
 40
0.0
  9
$DIMTOL
 70
0
  9
$DIMLIM
 70
0
  9
$DIMTIH
 70
0
  9
$DIMTOH
 70
0
  9
$DIMSE1
 70
0
  9
$DIMSE2
 70
0
  9
$DIMTAD
 70
1
  9
$DIMZIN
 70
8
  9
$DIMBLK
  1

  9
$DIMASO
 70
1
  9
$DIMSHO
 70
1
  9
$DIMPOST
  1

  9
$DIMAPOST
  1

  9
$DIMALT
 70
0
  9
$DIMALTD
 70
3
  9
$DIMALTF
 40
0.03937007874
  9
$DIMLFAC
 40
1.0
  9
$DIMTOFL
 70
1
  9
$DIMTVP
 40
0.0
  9
$DIMTIX
 70
0
  9
$DIMSOXD
 70
0
  9
$DIMSAH
 70
0
  9
$DIMBLK1
  1

  9
$DIMBLK2
  1

  9
$DIMSTYLE
  2
ISO-25
  9
$DIMCLRD
 70
0
  9
$DIMCLRE
 70
0
  9
$DIMCLRT
 70
0
  9
$DIMTFAC
 40
1.0
  9
$DIMGAP
 40
0.625
  9
$DIMJUST
 70
0
  9
$DIMSD1
 70
0
  9
$DIMSD2
 70
0
  9
$DIMTOLJ
 70
0
  9
$DIMTZIN
 70
8
  9
$DIMALTZ
 70
0
  9
$DIMALTTZ
 70
0
  9
$DIMUPT
 70
0
  9
$DIMDEC
 70
2
  9
$DIMTDEC
 70
2
  9
$DIMALTU
 70
2
  9
$DIMALTTD
 70
3
  9
$DIMTXSTY
  7
Standard
  9
$DIMAUNIT
 70
0
  9
$DIMADEC
 70
0
  9
$DIMALTRND
 40
0.0
  9
$DIMAZIN
 70
0
  9
$DIMDSEP
 70
44
  9
$DIMATFIT
 70
3
  9
$DIMFRAC
 70
0
  9
$DIMLDRBLK
  1

  9
$DIMLUNIT
 70
2
  9
$DIMLWD
 70
-2
  9
$DIMLWE
 70
-2
  9
$DIMTMOVE
 70
0
  9
$DIMFXL
 40
1.0
  9
$DIMFXLON
 70
0
  9
$DIMJOGANG
 40
0.785398163397
  9
$DIMTFILL
 70
0
  9
$DIMTFILLCLR
 70
0
  9
$DIMARCSYM
 70
0
  9
$DIMLTYPE
  6

  9
$DIMLTEX1
  6

  9
$DIMLTEX2
  6

  9
$DIMTXTDIRECTION
 70
0
  9
$LUNITS
 70
2
  9
$LUPREC
 70
4
  9
$SKETCHINC
 40
1.0
  9
$FILLETRAD
 40
10.0
  9
$AUNITS
 70
0
  9
$AUPREC
 70
2
  9
$MENU
  1
.
  9
$ELEVATION
 40
0.0
  9
$PELEVATION
 40
0.0
  9
$THICKNESS
 40
0.0
  9
$LIMCHECK
 70
0
  9
$CHAMFERA
 40
0.0
  9
$CHAMFERB
 40
0.0
  9
$CHAMFERC
 40
0.0
  9
$CHAMFERD
 40
0.0
  9
$SKPOLY
 70
0
  9
$TDCREATE
 40
2461169.128298611
  9
$TDUCREATE
 40
2458532.153996898
  9
$TDUPDATE
 40
2461169.128298611
  9
$TDUUPDATE
 40
2458532.1544311
  9
$TDINDWG
 40
0.0
  9
$TDUSRTIMER
 40
0.0
  9
$USRTIMER
 70
1
  9
$ANGBASE
 50
0.0
  9
$ANGDIR
 70
0
  9
$PDMODE
 70
0
  9
$PDSIZE
 40
0.0
  9
$PLINEWID
 40
0.0
  9
$SPLFRAME
 70
0
  9
$SPLINETYPE
 70
6
  9
$SPLINESEGS
 70
8
  9
$HANDSEED
  5
65
  9
$SURFTAB1
 70
6
  9
$SURFTAB2
 70
6
  9
$SURFTYPE
 70
6
  9
$SURFU
 70
6
  9
$SURFV
 70
6
  9
$UCSBASE
  2

  9
$UCSNAME
  2

  9
$UCSORG
 10
0.0
 20
0.0
 30
0.0
  9
$UCSXDIR
 10
1.0
 20
0.0
 30
0.0
  9
$UCSYDIR
 10
0.0
 20
1.0
 30
0.0
  9
$UCSORTHOREF
  2

  9
$UCSORTHOVIEW
 70
0
  9
$UCSORGTOP
 10
0.0
 20
0.0
 30
0.0
  9
$UCSORGBOTTOM
 10
0.0
 20
0.0
 30
0.0
  9
$UCSORGLEFT
 10
0.0
 20
0.0
 30
0.0
  9
$UCSORGRIGHT
 10
0.0
 20
0.0
 30
0.0
  9
$UCSORGFRONT
 10
0.0
 20
0.0
 30
0.0
  9
$UCSORGBACK
 10
0.0
 20
0.0
 30
0.0
  9
$PUCSBASE
  2

  9
$PUCSNAME
  2

  9
$PUCSORG
 10
0.0
 20
0.0
 30
0.0
  9
$PUCSXDIR
 10
1.0
 20
0.0
 30
0.0
  9
$PUCSYDIR
 10
0.0
 20
1.0
 30
0.0
  9
$PUCSORTHOREF
  2

  9
$PUCSORTHOVIEW
 70
0
  9
$PUCSORGTOP
 10
0.0
 20
0.0
 30
0.0
  9
$PUCSORGBOTTOM
 10
0.0
 20
0.0
 30
0.0
  9
$PUCSORGLEFT
 10
0.0
 20
0.0
 30
0.0
  9
$PUCSORGRIGHT
 10
0.0
 20
0.0
 30
0.0
  9
$PUCSORGFRONT
 10
0.0
 20
0.0
 30
0.0
  9
$PUCSORGBACK
 10
0.0
 20
0.0
 30
0.0
  9
$USERI1
 70
0
  9
$USERI2
 70
0
  9
$USERI3
 70
0
  9
$USERI4
 70
0
  9
$USERI5
 70
0
  9
$USERR1
 40
0.0
  9
$USERR2
 40
0.0
  9
$USERR3
 40
0.0
  9
$USERR4
 40
0.0
  9
$USERR5
 40
0.0
  9
$WORLDVIEW
 70
1
  9
$SHADEDGE
 70
3
  9
$SHADEDIF
 70
70
  9
$TILEMODE
 70
1
  9
$MAXACTVP
 70
64
  9
$PINSBASE
 10
0.0
 20
0.0
 30
0.0
  9
$PLIMCHECK
 70
0
  9
$PEXTMIN
 10
1e+20
 20
1e+20
 30
1e+20
  9
$PEXTMAX
 10
-1e+20
 20
-1e+20
 30
-1e+20
  9
$PLIMMIN
 10
0.0
 20
0.0
  9
$PLIMMAX
 10
420.0
 20
297.0
  9
$UNITMODE
 70
0
  9
$VISRETAIN
 70
1
  9
$PLINEGEN
 70
0
  9
$PSLTSCALE
 70
1
  9
$TREEDEPTH
 70
3020
  9
$CMLSTYLE
  2
Standard
  9
$CMLJUST
 70
0
  9
$CMLSCALE
 40
20.0
  9
$PROXYGRAPHICS
 70
1
  9
$MEASUREMENT
 70
1
  9
$CELWEIGHT
370
-1
  9
$ENDCAPS
280
0
  9
$JOINSTYLE
280
0
  9
$LWDISPLAY
290
0
  9
$INSUNITS
 70
1
  9
$HYPERLINKBASE
  1

  9
$STYLESHEET
  1

  9
$XEDIT
290
1
  9
$CEPSNTYPE
380
0
  9
$PSTYLEMODE
290
1
  9
$FINGERPRINTGUID
  2
{C662B888-B545-4F07-8CD3-46B809E8E757}
  9
$VERSIONGUID
  2
{584D3245-9F71-4599-A6B1-9D2B49433FAB}
  9
$EXTNAMES
290
1
  9
$PSVPSCALE
 40
0.0
  9
$OLESTARTUP
290
0
  9
$SORTENTS
280
127
  9
$INDEXCTL
280
0
  9
$HIDETEXT
280
1
  9
$XCLIPFRAME
280
1
  9
$HALOGAP
280
0
  9
$OBSCOLOR
 70
257
  9
$OBSLTYPE
280
0
  9
$INTERSECTIONDISPLAY
280
0
  9
$INTERSECTIONCOLOR
 70
257
  9
$DIMASSOC
280
2
  9
$PROJECTNAME
  1

  9
$CAMERADISPLAY
290
0
  9
$LENSLENGTH
 40
50.0
  9
$CAMERAHEIGHT
 40
0.0
  9
$STEPSPERSEC
 40
24.0
  9
$STEPSIZE
 40
100.0
  9
$3DDWFPREC
 40
2.0
  9
$PSOLWIDTH
 40
0.005
  9
$PSOLHEIGHT
 40
0.08
  9
$LOFTANG1
 40
1.570796326795
  9
$LOFTANG2
 40
1.570796326795
  9
$LOFTMAG1
 40
0.0
  9
$LOFTMAG2
 40
0.0
  9
$LOFTPARAM
 70
7
  9
$LOFTNORMALS
280
1
  9
$LATITUDE
 40
37.795
  9
$LONGITUDE
 40
-122.394
  9
$NORTHDIRECTION
 40
0.0
  9
$TIMEZONE
 70
-8000
  9
$LIGHTGLYPHDISPLAY
280
1
  9
$TILEMODELIGHTSYNCH
280
1
  9
$CMATERIAL
347
20
  9
$SOLIDHIST
280
0
  9
$SHOWHIST
280
1
  9
$DWFFRAME
280
2
  9
$DGNFRAME
280
2
  9
$REALWORLDSCALE
290
1
  9
$INTERFERECOLOR
 62
256
  9
$CSHADOW
280
0
  9
$SHADOWPLANELOCATION
 40
0.0
  0
ENDSEC
  0
SECTION
  2
CLASSES
  0
CLASS
  1
ACDBDICTIONARYWDFLT
  2
AcDbDictionaryWithDefault
  3
ObjectDBX Classes
 90
0
 91
0
280
0
281
0
  0
CLASS
  1
SUN
  2
AcDbSun
  3
SCENEOE
 90
1153
 91
0
280
0
281
0
  0
CLASS
  1
VISUALSTYLE
  2
AcDbVisualStyle
  3
ObjectDBX Classes
 90
4095
 91
0
280
0
281
0
  0
CLASS
  1
MATERIAL
  2
AcDbMaterial
  3
ObjectDBX Classes
 90
1153
 91
0
280
0
281
0
  0
CLASS
  1
SCALE
  2
AcDbScale
  3
ObjectDBX Classes
 90
1153
 91
0
280
0
281
0
  0
CLASS
  1
TABLESTYLE
  2
AcDbTableStyle
  3
ObjectDBX Classes
 90
4095
 91
0
280
0
281
0
  0
CLASS
  1
MLEADERSTYLE
  2
AcDbMLeaderStyle
  3
ACDB_MLEADERSTYLE_CLASS
 90
4095
 91
0
280
0
281
0
  0
CLASS
  1
DICTIONARYVAR
  2
AcDbDictionaryVar
  3
ObjectDBX Classes
 90
0
 91
0
280
0
281
0
  0
CLASS
  1
CELLSTYLEMAP
  2
AcDbCellStyleMap
  3
ObjectDBX Classes
 90
1152
 91
0
280
0
281
0
  0
CLASS
  1
MENTALRAYRENDERSETTINGS
  2
AcDbMentalRayRenderSettings
  3
SCENEOE
 90
1024
 91
0
280
0
281
0
  0
CLASS
  1
ACDBDETAILVIEWSTYLE
  2
AcDbDetailViewStyle
  3
ObjectDBX Classes
 90
1025
 91
0
280
0
281
0
  0
CLASS
  1
ACDBSECTIONVIEWSTYLE
  2
AcDbSectionViewStyle
  3
ObjectDBX Classes
 90
1025
 91
0
280
0
281
0
  0
CLASS
  1
RASTERVARIABLES
  2
AcDbRasterVariables
  3
ISM
 90
0
 91
0
280
0
281
0
  0
CLASS
  1
LAYOUT
  2
AcDbLayout
  3
ObjectDBX Classes
 90
0
 91
0
280
0
281
0
  0
CLASS
  1
ACDBPLACEHOLDER
  2
AcDbPlaceHolder
  3
ObjectDBX Classes
 90
0
 91
0
280
0
281
0
  0
ENDSEC
  0
SECTION
  2
TABLES
  0
TABLE
  2
VPORT
  5
8
330
0
100
AcDbSymbolTable
 70
1
  0
VPORT
  5
23
330
8
100
AcDbSymbolTableRecord
100
AcDbViewportTableRecord
  2
*Active
 70
0
 10
0.0
 20
0.0
 11
1.0
 21
1.0
 12
0.0
 22
0.0
 13
0.0
 23
0.0
 14
0.5
 24
0.5
 15
0.5
 25
0.5
 16
0.0
 26
0.0
 36
1.0
 17
0.0
 27
0.0
 37
0.0
 40
1000.0
 41
1.34
 42
50.0
 43
0.0
 44
0.0
 50
0.0
 51
0.0
 71
0
 72
1000
 73
1
 74
3
 75
0
 76
0
 77
0
 78
0
281
0
 65
0
146
0.0
  0
ENDTAB
  0
TABLE
  2
LTYPE
  5
2
330
0
100
AcDbSymbolTable
 70
3
  0
LTYPE
  5
24
330
2
100
AcDbSymbolTableRecord
100
AcDbLinetypeTableRecord
  2
ByBlock
 70
0
  3

 72
65
 73
0
 40
0.0
  0
LTYPE
  5
25
330
2
100
AcDbSymbolTableRecord
100
AcDbLinetypeTableRecord
  2
ByLayer
 70
0
  3

 72
65
 73
0
 40
0.0
  0
LTYPE
  5
26
330
2
100
AcDbSymbolTableRecord
100
AcDbLinetypeTableRecord
  2
Continuous
 70
0
  3

 72
65
 73
0
 40
0.0
  0
ENDTAB
  0
TABLE
  2
LAYER
  5
1
330
0
100
AcDbSymbolTable
 70
3
  0
LAYER
  5
27
330
1
100
AcDbSymbolTableRecord
100
AcDbLayerTableRecord
  2
0
 70
0
 62
7
  6
Continuous
370
-3
390
13
347
21
  0
LAYER
  5
28
330
1
100
AcDbSymbolTableRecord
100
AcDbLayerTableRecord
  2
Defpoints
 70
0
 62
7
  6
Continuous
290
0
370
-3
390
13
347
21
  0
LAYER
  5
2F
330
1
100
AcDbSymbolTableRecord
100
AcDbLayerTableRecord
  2
POCKET
 70
0
 62
5
  6
Continuous
370
-3
390
13
347
21
  0
ENDTAB
  0
TABLE
  2
STYLE
  5
5
330
0
100
AcDbSymbolTable
 70
1
  0
STYLE
  5
29
330
5
100
AcDbSymbolTableRecord
100
AcDbTextStyleTableRecord
  2
Standard
 70
0
 40
0.0
 41
1.0
 50
0.0
 71
0
 42
2.5
  3
txt
  4

  0
ENDTAB
  0
TABLE
  2
VIEW
  5
7
330
0
100
AcDbSymbolTable
 70
0
  0
ENDTAB
  0
TABLE
  2
UCS
  5
6
330
0
100
AcDbSymbolTable
 70
0
  0
ENDTAB
  0
TABLE
  2
APPID
  5
3
330
0
100
AcDbSymbolTable
 70
3
  0
APPID
  5
2A
330
3
100
AcDbSymbolTableRecord
100
AcDbRegAppTableRecord
  2
ACAD
 70
0
  0
APPID
  5
62
330
3
100
AcDbSymbolTableRecord
100
AcDbRegAppTableRecord
  2
HATCHBACKGROUNDCOLOR
 70
0
  0
APPID
  5
63
330
3
100
AcDbSymbolTableRecord
100
AcDbRegAppTableRecord
  2
EZDXF
 70
0
  0
ENDTAB
  0
TABLE
  2
DIMSTYLE
  5
4
330
0
100
AcDbSymbolTable
 70
1
100
AcDbDimStyleTable
  0
DIMSTYLE
105
2B
330
4
100
AcDbSymbolTableRecord
100
AcDbDimStyleTableRecord
  2
Standard
 70
0
 40
1.0
 41
2.5
 42
0.625
 43
3.75
 44
1.25
 45
0.0
 46
0.0
 47
0.0
 48
0.0
 49
2.5
140
2.5
141
2.5
142
0.0
143
0.03937007874
144
1.0
145
0.0
146
1.0
147
0.625
148
0.0
 69
0
 70
0
 71
0
 72
0
 73
0
 74
0
 75
0
 76
0
 77
1
 78
8
 79
3
170
0
171
3
172
1
173
0
174
0
175
0
176
0
177
0
178
0
179
2
271
2
272
2
273
2
274
3
275
0
276
0
277
2
278
44
279
0
280
0
281
0
282
0
283
0
284
8
285
0
286
0
288
0
289
3
290
0
371
-2
372
-2
  0
ENDTAB
  0
TABLE
  2
BLOCK_RECORD
  5
9
330
0
100
AcDbSymbolTable
 70
2
  0
BLOCK_RECORD
  5
17
330
9
100
AcDbSymbolTableRecord
100
AcDbBlockTableRecord
  2
*Model_Space
340
1A
 70
0
280
1
281
0
  0
BLOCK_RECORD
  5
1B
330
9
100
AcDbSymbolTableRecord
100
AcDbBlockTableRecord
  2
*Paper_Space
340
1E
 70
0
280
1
281
0
  0
ENDTAB
  0
ENDSEC
  0
SECTION
  2
BLOCKS
  0
BLOCK
  5
18
330
17
100
AcDbEntity
  8
0
100
AcDbBlockBegin
  2
*Model_Space
 70
0
 10
0.0
 20
0.0
 30
0.0
  3
*Model_Space
  1

  0
ENDBLK
  5
19
330
17
100
AcDbEntity
  8
0
100
AcDbBlockEnd
  0
BLOCK
  5
1C
330
1B
100
AcDbEntity
  8
0
100
AcDbBlockBegin
  2
*Paper_Space
 70
0
 10
0.0
 20
0.0
 30
0.0
  3
*Paper_Space
  1

  0
ENDBLK
  5
1D
330
1B
100
AcDbEntity
  8
0
100
AcDbBlockEnd
  0
ENDSEC
  0
SECTION
  2
ENTITIES
  0
LWPOLYLINE
  5
30
330
17
100
AcDbEntity
  8
POCKET
100
AcDbPolyline
 90
5
 70
1
 10
0.0
 20
0.0
 10
96.0
 20
0.0
 10
96.0
 20
48.0
 10
0.0
 20
48.0
 10
0.0
 20
0.0
  0
LWPOLYLINE
  5
31
330
17
100
AcDbEntity
  8
POCKET
100
AcDbPolyline
 90
53
 70
1
 10
73.22897619746439
 20
15.111400154433872
 10
73.22897619746439
 20
21.337846763840595
 10
73.20741455768822
 20
21.362433101885053
 10
73.18924654181492
 20
21.389623459137233
 10
73.17478300963322
 20
21.41895260104596
 10
73.16427143618877
 20
21.449918697861605
 10
73.15789167741758
 20
21.48199191108222
 10
73.15575289276103
 20
21.514623459137233
 10
73.15789167741758
 20
21.54725500719225
 10
73.16427143618877
 20
21.57932822041286
 10
73.17478300963322
 20
21.610294317228508
 10
73.18924654181492
 20
21.639623459137233
 10
73.20741455768822
 20
21.666813816389414
 10
73.22897619746439
 20
21.69140015443387
 10
73.25356253550885
 20
21.71296179421004
 10
73.28075289276103
 20
21.731129810083342
 10
73.31008203466976
 20
21.745593342265053
 10
73.34104813148541
 20
21.7561049157095
 10
73.37312134470602
 20
21.762484674480685
 10
73.40575289276103
 20
21.764623459137233
 10
73.43838444081605
 20
21.762484674480685
 10
73.47045765403666
 20
21.7561049157095
 10
73.50142375085231
 20
21.745593342265053
 10
73.53075289276103
 20
21.731129810083342
 10
73.55794325001321
 20
21.71296179421004
 10
73.58252958805767
 20
21.69140015443387
 10
74.49042280687112
 20
21.69140015443387
 10
74.51500914491558
 20
21.71296179421004
 10
74.54219950216776
 20
21.731129810083342
 10
74.57152864407648
 20
21.745593342265053
 10
74.60249474089213
 20
21.7561049157095
 10
74.63456795411274
 20
21.762484674480685
 10
74.66719950216776
 20
21.764623459137233
 10
74.69983105022277
 20
21.762484674480685
 10
74.73190426344338
 20
21.7561049157095
 10
74.76287036025903
 20
21.745593342265053
 10
74.79219950216776
 20
21.731129810083342
 10
74.81938985941994
 20
21.71296179421004
 10
74.8439761974644
 20
21.69140015443387
 10
74.86553783724057
 20
21.666813816389414
 10
74.88370585311387
 20
21.639623459137233
 10
74.89816938529557
 20
21.610294317228508
 10
74.90868095874002
 20
21.57932822041286
 10
74.91506071751121
 20
21.54725500719225
 10
74.91719950216776
 20
21.514623459137233
 10
74.91506071751121
 20
21.48199191108222
 10
74.90868095874002
 20
21.449918697861605
 10
74.89816938529557
 20
21.41895260104596
 10
74.88370585311387
 20
21.389623459137233
 10
74.86553783724057
 20
21.362433101885053
 10
74.8439761974644
 20
21.337846763840595
 10
74.8439761974644
 20
15.111400154433872
 10
73.22897619746439
 20
15.111400154433872
  0
LWPOLYLINE
  5
32
330
17
100
AcDbEntity
  8
POCKET
100
AcDbPolyline
 90
53
 70
1
 10
87.67897619746441
 20
15.111400154433872
 10
87.67897619746441
 20
21.337846763840595
 10
87.65741455768824
 20
21.362433101885053
 10
87.63924654181494
 20
21.389623459137233
 10
87.62478300963323
 20
21.41895260104596
 10
87.61427143618879
 20
21.449918697861605
 10
87.6078916774176
 20
21.48199191108222
 10
87.60575289276105
 20
21.514623459137233
 10
87.6078916774176
 20
21.54725500719225
 10
87.61427143618879
 20
21.57932822041286
 10
87.62478300963323
 20
21.610294317228508
 10
87.63924654181494
 20
21.639623459137233
 10
87.65741455768824
 20
21.666813816389414
 10
87.67897619746441
 20
21.69140015443387
 10
87.70356253550887
 20
21.71296179421004
 10
87.73075289276105
 20
21.731129810083342
 10
87.76008203466978
 20
21.745593342265053
 10
87.79104813148543
 20
21.7561049157095
 10
87.82312134470604
 20
21.762484674480685
 10
87.85575289276105
 20
21.764623459137233
 10
87.88838444081607
 20
21.762484674480685
 10
87.92045765403668
 20
21.7561049157095
 10
87.95142375085233
 20
21.745593342265053
 10
87.98075289276105
 20
21.731129810083342
 10
88.00794325001323
 20
21.71296179421004
 10
88.03252958805768
 20
21.69140015443387
 10
88.94042280687114
 20
21.69140015443387
 10
88.9650091449156
 20
21.71296179421004
 10
88.99219950216778
 20
21.731129810083342
 10
89.0215286440765
 20
21.745593342265053
 10
89.05249474089214
 20
21.7561049157095
 10
89.08456795411276
 20
21.762484674480685
 10
89.11719950216778
 20
21.764623459137233
 10
89.14983105022279
 20
21.762484674480685
 10
89.1819042634434
 20
21.7561049157095
 10
89.21287036025905
 20
21.745593342265053
 10
89.24219950216778
 20
21.731129810083342
 10
89.26938985941996
 20
21.71296179421004
 10
89.29397619746442
 20
21.69140015443387
 10
89.31553783724058
 20
21.666813816389414
 10
89.33370585311388
 20
21.639623459137233
 10
89.34816938529559
 20
21.610294317228508
 10
89.35868095874004
 20
21.57932822041286
 10
89.36506071751123
 20
21.54725500719225
 10
89.36719950216778
 20
21.514623459137233
 10
89.36506071751123
 20
21.48199191108222
 10
89.35868095874004
 20
21.449918697861605
 10
89.34816938529559
 20
21.41895260104596
 10
89.33370585311388
 20
21.389623459137233
 10
89.31553783724058
 20
21.362433101885053
 10
89.29397619746442
 20
21.337846763840595
 10
89.29397619746442
 20
15.111400154433872
 10
87.67897619746441
 20
15.111400154433872
  0
LWPOLYLINE
  5
33
330
17
100
AcDbEntity
  8
POCKET
100
AcDbPolyline
 90
53
 70
1
 10
22.3281
 20
48.25495965264333
 10
22.3281
 20
42.02851304323661
 10
22.349661639776173
 20
42.00392670519215
 10
22.367829655649473
 20
41.97673634793997
 10
22.382293187831184
 20
41.947407206031244
 10
22.39280476127563
 20
41.9164411092156
 10
22.399184520046816
 20
41.884367895994984
 10
22.401323304703364
 20
41.85173634793997
 10
22.399184520046816
 20
41.819104799884954
 10
22.39280476127563
 20
41.78703158666434
 10
22.382293187831184
 20
41.756065489848694
 10
22.367829655649473
 20
41.72673634793997
 10
22.349661639776173
 20
41.69954599068779
 10
22.3281
 20
41.67495965264333
 10
22.303513661955545
 20
41.65339801286716
 10
22.276323304703364
 20
41.63522999699386
 10
22.246994162794635
 20
41.62076646481215
 10
22.216028065978996
 20
41.6102548913677
 10
22.183954852758376
 20
41.603875132596514
 10
22.151323304703364
 20
41.60173634793997
 10
22.118691756648353
 20
41.603875132596514
 10
22.086618543427733
 20
41.6102548913677
 10
22.055652446612093
 20
41.62076646481215
 10
22.026323304703364
 20
41.63522999699386
 10
21.999132947451184
 20
41.65339801286716
 10
21.974546609406726
 20
41.67495965264333
 10
21.066653390593277
 20
41.67495965264333
 10
21.04206705254882
 20
41.65339801286716
 10
21.01487669529664
 20
41.63522999699386
 10
20.98554755338791
 20
41.62076646481215
 10
20.95458145657227
 20
41.6102548913677
 10
20.92250824335165
 20
41.603875132596514
 10
20.88987669529664
 20
41.60173634793997
 10
20.857245147241628
 20
41.603875132596514
 10
20.82517193402101
 20
41.6102548913677
 10
20.794205837205368
 20
41.62076646481215
 10
20.76487669529664
 20
41.63522999699386
 10
20.73768633804446
 20
41.65339801286716
 10
20.713100000000004
 20
41.67495965264333
 10
20.69153836022383
 20
41.69954599068779
 10
20.67337034435053
 20
41.72673634793997
 10
20.65890681216882
 20
41.756065489848694
 10
20.648395238724373
 20
41.78703158666434
 10
20.642015479953187
 20
41.819104799884954
 10
20.63987669529664
 20
41.85173634793997
 10
20.642015479953187
 20
41.884367895994984
 10
20.648395238724373
 20
41.9164411092156
 10
20.65890681216882
 20
41.947407206031244
 10
20.67337034435053
 20
41.97673634793997
 10
20.69153836022383
 20
42.00392670519215
 10
20.713100000000004
 20
42.02851304323661
 10
20.713100000000004
 20
48.25495965264333
 10
22.3281
 20
48.25495965264333
  0
LWPOLYLINE
  5
34
330
17
100
AcDbEntity
  8
POCKET
100
AcDbPolyline
 90
53
 70
1
 10
7.8781
 20
48.25495965264333
 10
7.8781
 20
42.02851304323661
 10
7.899661639776172
 20
42.00392670519215
 10
7.917829655649473
 20
41.97673634793997
 10
7.932293187831185
 20
41.947407206031244
 10
7.94280476127563
 20
41.9164411092156
 10
7.949184520046815
 20
41.884367895994984
 10
7.951323304703363
 20
41.85173634793997
 10
7.949184520046815
 20
41.819104799884954
 10
7.94280476127563
 20
41.78703158666434
 10
7.932293187831185
 20
41.756065489848694
 10
7.917829655649473
 20
41.72673634793997
 10
7.899661639776172
 20
41.69954599068779
 10
7.8781
 20
41.67495965264333
 10
7.853513661955543
 20
41.65339801286716
 10
7.826323304703363
 20
41.63522999699386
 10
7.796994162794635
 20
41.62076646481215
 10
7.766028065978993
 20
41.6102548913677
 10
7.733954852758376
 20
41.603875132596514
 10
7.701323304703363
 20
41.60173634793997
 10
7.66869175664835
 20
41.603875132596514
 10
7.6366185434277325
 20
41.6102548913677
 10
7.6056524466120905
 20
41.62076646481215
 10
7.576323304703363
 20
41.63522999699386
 10
7.549132947451183
 20
41.65339801286716
 10
7.524546609406726
 20
41.67495965264333
 10
6.616653390593272
 20
41.67495965264333
 10
6.592067052548815
 20
41.65339801286716
 10
6.564876695296634
 20
41.63522999699386
 10
6.535547553387907
 20
41.62076646481215
 10
6.504581456572265
 20
41.6102548913677
 10
6.472508243351648
 20
41.603875132596514
 10
6.439876695296634
 20
41.60173634793997
 10
6.407245147241622
 20
41.603875132596514
 10
6.3751719340210045
 20
41.6102548913677
 10
6.3442058372053625
 20
41.62076646481215
 10
6.314876695296634
 20
41.63522999699386
 10
6.2876863380444545
 20
41.65339801286716
 10
6.263099999999998
 20
41.67495965264333
 10
6.241538360223826
 20
41.69954599068779
 10
6.223370344350525
 20
41.72673634793997
 10
6.208906812168813
 20
41.756065489848694
 10
6.198395238724368
 20
41.78703158666434
 10
6.192015479953183
 20
41.819104799884954
 10
6.189876695296634
 20
41.85173634793997
 10
6.192015479953183
 20
41.884367895994984
 10
6.198395238724368
 20
41.9164411092156
 10
6.208906812168813
 20
41.947407206031244
 10
6.223370344350525
 20
41.97673634793997
 10
6.241538360223826
 20
42.00392670519215
 10
6.263099999999998
 20
42.02851304323661
 10
6.263099999999998
 20
48.25495965264333
 10
7.8781
 20
48.25495965264333
  0
LWPOLYLINE
  5
35
330
17
100
AcDbEntity
  8
POCKET
100
AcDbPolyline
 90
53
 70
1
 10
73.98683862907313
 20
-0.2549789795760109
 10
73.98683862907313
 20
5.971467629830714
 10
73.96527698929697
 20
5.996053967875171
 10
73.94710897342367
 20
6.023244325127351
 10
73.93264544124196
 20
6.052573467036078
 10
73.92213386779751
 20
6.083539563851721
 10
73.91575410902632
 20
6.115612777072338
 10
73.91361532436977
 20
6.148244325127351
 10
73.91575410902632
 20
6.180875873182364
 10
73.92213386779751
 20
6.212949086402981
 10
73.93264544124196
 20
6.243915183218624
 10
73.94710897342367
 20
6.273244325127351
 10
73.96527698929697
 20
6.300434682379531
 10
73.98683862907313
 20
6.325021020423987
 10
74.01142496711759
 20
6.34658266020016
 10
74.03861532436977
 20
6.36475067607346
 10
74.0679444662785
 20
6.379214208255172
 10
74.09891056309415
 20
6.389725781699618
 10
74.13098377631476
 20
6.396105540470804
 10
74.16361532436977
 20
6.398244325127351
 10
74.1962468724248
 20
6.396105540470804
 10
74.22832008564541
 20
6.389725781699618
 10
74.25928618246105
 20
6.379214208255172
 10
74.28861532436977
 20
6.36475067607346
 10
74.31580568162195
 20
6.34658266020016
 10
74.34039201966641
 20
6.325021020423987
 10
75.24828523847987
 20
6.325021020423987
 10
75.27287157652432
 20
6.34658266020016
 10
75.3000619337765
 20
6.36475067607346
 10
75.32939107568522
 20
6.379214208255172
 10
75.36035717250087
 20
6.389725781699618
 10
75.39243038572148
 20
6.396105540470804
 10
75.4250619337765
 20
6.398244325127351
 10
75.45769348183151
 20
6.396105540470804
 10
75.48976669505213
 20
6.389725781699618
 10
75.52073279186777
 20
6.379214208255172
 10
75.5500619337765
 20
6.36475067607346
 10
75.57725229102869
 20
6.34658266020016
 10
75.60183862907314
 20
6.325021020423987
 10
75.62340026884931
 20
6.300434682379531
 10
75.64156828472261
 20
6.273244325127351
 10
75.65603181690432
 20
6.243915183218624
 10
75.66654339034876
 20
6.212949086402981
 10
75.67292314911995
 20
6.180875873182364
 10
75.6750619337765
 20
6.148244325127351
 10
75.67292314911995
 20
6.115612777072338
 10
75.66654339034876
 20
6.083539563851721
 10
75.65603181690432
 20
6.052573467036078
 10
75.64156828472261
 20
6.023244325127351
 10
75.62340026884931
 20
5.996053967875171
 10
75.60183862907314
 20
5.971467629830714
 10
75.60183862907314
 20
-0.2549789795760109
 10
73.98683862907313
 20
-0.2549789795760109
  0
LWPOLYLINE
  5
36
330
17
100
AcDbEntity
  8
POCKET
100
AcDbPolyline
 90
53
 70
1
 10
88.43683862907312
 20
-0.2549789795760109
 10
88.43683862907312
 20
5.971467629830714
 10
88.41527698929696
 20
5.996053967875171
 10
88.39710897342366
 20
6.023244325127351
 10
88.38264544124195
 20
6.052573467036078
 10
88.3721338677975
 20
6.083539563851721
 10
88.36575410902631
 20
6.115612777072338
 10
88.36361532436976
 20
6.148244325127351
 10
88.36575410902631
 20
6.180875873182364
 10
88.3721338677975
 20
6.212949086402981
 10
88.38264544124195
 20
6.243915183218624
 10
88.39710897342366
 20
6.273244325127351
 10
88.41527698929696
 20
6.300434682379531
 10
88.43683862907312
 20
6.325021020423987
 10
88.46142496711758
 20
6.34658266020016
 10
88.48861532436976
 20
6.36475067607346
 10
88.5179444662785
 20
6.379214208255172
 10
88.54891056309414
 20
6.389725781699618
 10
88.58098377631475
 20
6.396105540470804
 10
88.61361532436976
 20
6.398244325127351
 10
88.64624687242478
 20
6.396105540470804
 10
88.6783200856454
 20
6.389725781699618
 10
88.70928618246104
 20
6.379214208255172
 10
88.73861532436976
 20
6.36475067607346
 10
88.76580568162194
 20
6.34658266020016
 10
88.7903920196664
 20
6.325021020423987
 10
89.69828523847985
 20
6.325021020423987
 10
89.72287157652431
 20
6.34658266020016
 10
89.7500619337765
 20
6.36475067607346
 10
89.77939107568521
 20
6.379214208255172
 10
89.81035717250086
 20
6.389725781699618
 10
89.84243038572147
 20
6.396105540470804
 10
89.8750619337765
 20
6.398244325127351
 10
89.9076934818315
 20
6.396105540470804
 10
89.93976669505211
 20
6.389725781699618
 10
89.97073279186776
 20
6.379214208255172
 10
90.0000619337765
 20
6.36475067607346
 10
90.02725229102867
 20
6.34658266020016
 10
90.05183862907313
 20
6.325021020423987
 10
90.0734002688493
 20
6.300434682379531
 10
90.0915682847226
 20
6.273244325127351
 10
90.1060318169043
 20
6.243915183218624
 10
90.11654339034875
 20
6.212949086402981
 10
90.12292314911994
 20
6.180875873182364
 10
90.1250619337765
 20
6.148244325127351
 10
90.12292314911994
 20
6.115612777072338
 10
90.11654339034875
 20
6.083539563851721
 10
90.1060318169043
 20
6.052573467036078
 10
90.0915682847226
 20
6.023244325127351
 10
90.0734002688493
 20
5.996053967875171
 10
90.05183862907313
 20
5.971467629830714
 10
90.05183862907313
 20
-0.2549789795760109
 10
88.43683862907312
 20
-0.2549789795760109
  0
LWPOLYLINE
  5
37
330
17
100
AcDbEntity
  8
POCKET
100
AcDbPolyline
 90
53
 70
1
 10
8.849999999999998
 20
15.147040702570349
 10
8.849999999999998
 20
21.373487311977073
 10
8.828438360223826
 20
21.39807365002153
 10
8.810270344350526
 20
21.42526400727371
 10
8.795806812168815
 20
21.454593149182436
 10
8.785295238724368
 20
21.485559245998083
 10
8.778915479953183
 20
21.517632459218696
 10
8.776776695296636
 20
21.55026400727371
 10
8.778915479953183
 20
21.582895555328726
 10
8.785295238724368
 20
21.61496876854934
 10
8.795806812168815
 20
21.645934865364985
 10
8.810270344350526
 20
21.67526400727371
 10
8.828438360223826
 20
21.70245436452589
 10
8.849999999999998
 20
21.72704070257035
 10
8.874586338044455
 20
21.74860234234652
 10
8.901776695296636
 20
21.76677035821982
 10
8.931105837205363
 20
21.78123389040153
 10
8.962071934021004
 20
21.791745463845977
 10
8.994145147241623
 20
21.798125222617163
 10
9.026776695296636
 20
21.80026400727371
 10
9.059408243351648
 20
21.798125222617163
 10
9.091481456572266
 20
21.791745463845977
 10
9.122447553387907
 20
21.78123389040153
 10
9.151776695296636
 20
21.76677035821982
 10
9.178967052548815
 20
21.74860234234652
 10
9.203553390593273
 20
21.72704070257035
 10
10.111446609406725
 20
21.72704070257035
 10
10.136032947451183
 20
21.74860234234652
 10
10.163223304703362
 20
21.76677035821982
 10
10.19255244661209
 20
21.78123389040153
 10
10.223518543427732
 20
21.791745463845977
 10
10.25559175664835
 20
21.798125222617163
 10
10.288223304703362
 20
21.80026400727371
 10
10.320854852758375
 20
21.798125222617163
 10
10.352928065978992
 20
21.791745463845977
 10
10.383894162794634
 20
21.78123389040153
 10
10.413223304703362
 20
21.76677035821982
 10
10.440413661955542
 20
21.74860234234652
 10
10.465
 20
21.72704070257035
 10
10.486561639776172
 20
21.70245436452589
 10
10.504729655649472
 20
21.67526400727371
 10
10.519193187831183
 20
21.645934865364985
 10
10.52970476127563
 20
21.61496876854934
 10
10.536084520046815
 20
21.582895555328726
 10
10.538223304703362
 20
21.55026400727371
 10
10.536084520046815
 20
21.517632459218696
 10
10.52970476127563
 20
21.485559245998083
 10
10.519193187831183
 20
21.454593149182436
 10
10.504729655649472
 20
21.42526400727371
 10
10.486561639776172
 20
21.39807365002153
 10
10.465
 20
21.373487311977073
 10
10.465
 20
15.147040702570349
 10
8.849999999999998
 20
15.147040702570349
  0
LWPOLYLINE
  5
38
330
17
100
AcDbEntity
  8
POCKET
100
AcDbPolyline
 90
53
 70
1
 10
23.3
 20
15.147040702570349
 10
23.3
 20
21.373487311977073
 10
23.278438360223827
 20
21.39807365002153
 10
23.260270344350527
 20
21.42526400727371
 10
23.245806812168816
 20
21.454593149182436
 10
23.23529523872437
 20
21.485559245998083
 10
23.228915479953184
 20
21.517632459218696
 10
23.22677669529664
 20
21.55026400727371
 10
23.228915479953184
 20
21.582895555328726
 10
23.23529523872437
 20
21.61496876854934
 10
23.245806812168816
 20
21.645934865364985
 10
23.260270344350527
 20
21.67526400727371
 10
23.278438360223827
 20
21.70245436452589
 10
23.3
 20
21.72704070257035
 10
23.32458633804446
 20
21.74860234234652
 10
23.35177669529664
 20
21.76677035821982
 10
23.381105837205364
 20
21.78123389040153
 10
23.412071934021007
 20
21.791745463845977
 10
23.444145147241624
 20
21.798125222617163
 10
23.47677669529664
 20
21.80026400727371
 10
23.50940824335165
 20
21.798125222617163
 10
23.541481456572267
 20
21.791745463845977
 10
23.57244755338791
 20
21.78123389040153
 10
23.60177669529664
 20
21.76677035821982
 10
23.628967052548816
 20
21.74860234234652
 10
23.653553390593274
 20
21.72704070257035
 10
24.56144660940673
 20
21.72704070257035
 10
24.586032947451187
 20
21.74860234234652
 10
24.613223304703364
 20
21.76677035821982
 10
24.642552446612093
 20
21.78123389040153
 10
24.673518543427736
 20
21.791745463845977
 10
24.705591756648353
 20
21.798125222617163
 10
24.738223304703364
 20
21.80026400727371
 10
24.77085485275838
 20
21.798125222617163
 10
24.802928065978996
 20
21.791745463845977
 10
24.83389416279464
 20
21.78123389040153
 10
24.863223304703364
 20
21.76677035821982
 10
24.890413661955545
 20
21.74860234234652
 10
24.915000000000003
 20
21.72704070257035
 10
24.936561639776176
 20
21.70245436452589
 10
24.954729655649476
 20
21.67526400727371
 10
24.969193187831188
 20
21.645934865364985
 10
24.979704761275634
 20
21.61496876854934
 10
24.98608452004682
 20
21.582895555328726
 10
24.988223304703364
 20
21.55026400727371
 10
24.98608452004682
 20
21.517632459218696
 10
24.979704761275634
 20
21.485559245998083
 10
24.969193187831188
 20
21.454593149182436
 10
24.954729655649476
 20
21.42526400727371
 10
24.936561639776176
 20
21.39807365002153
 10
24.915000000000003
 20
21.373487311977073
 10
24.915000000000003
 20
15.147040702570349
 10
23.3
 20
15.147040702570349
  0
LWPOLYLINE
  5
39
330
17
100
AcDbEntity
  8
POCKET
100
AcDbPolyline
 90
53
 70
1
 10
12.264907983311407
 20
30.738519899758145
 10
12.264907983311407
 20
36.96496650916487
 10
12.243346343535235
 20
36.989552847209325
 10
12.225178327661935
 20
37.016743204461505
 10
12.210714795480223
 20
37.04607234637023
 10
12.200203222035777
 20
37.07703844318588
 10
12.193823463264591
 20
37.10911165640649
 10
12.191684678608045
 20
37.141743204461505
 10
12.193823463264591
 20
37.17437475251652
 10
12.200203222035777
 20
37.206447965737134
 10
12.210714795480223
 20
37.23741406255278
 10
12.225178327661935
 20
37.266743204461505
 10
12.243346343535235
 20
37.293933561713686
 10
12.264907983311407
 20
37.318519899758144
 10
12.289494321355864
 20
37.34008153953432
 10
12.316684678608045
 20
37.35824955540762
 10
12.346013820516772
 20
37.372713087589325
 10
12.376979917332413
 20
37.38322466103377
 10
12.409053130553032
 20
37.38960441980496
 10
12.441684678608045
 20
37.391743204461505
 10
12.474316226663056
 20
37.38960441980496
 10
12.506389439883675
 20
37.38322466103377
 10
12.537355536699316
 20
37.372713087589325
 10
12.566684678608045
 20
37.35824955540762
 10
12.593875035860224
 20
37.34008153953432
 10
12.618461373904681
 20
37.318519899758144
 10
13.526354592718134
 20
37.318519899758144
 10
13.550940930762591
 20
37.34008153953432
 10
13.57813128801477
 20
37.35824955540762
 10
13.6074604299235
 20
37.372713087589325
 10
13.63842652673914
 20
37.38322466103377
 10
13.670499739959759
 20
37.38960441980496
 10
13.70313128801477
 20
37.391743204461505
 10
13.735762836069783
 20
37.38960441980496
 10
13.7678360492904
 20
37.38322466103377
 10
13.798802146106043
 20
37.372713087589325
 10
13.82813128801477
 20
37.35824955540762
 10
13.855321645266951
 20
37.34008153953432
 10
13.879907983311409
 20
37.318519899758144
 10
13.90146962308758
 20
37.293933561713686
 10
13.91963763896088
 20
37.266743204461505
 10
13.934101171142592
 20
37.23741406255278
 10
13.944612744587038
 20
37.206447965737134
 10
13.950992503358224
 20
37.17437475251652
 10
13.95313128801477
 20
37.141743204461505
 10
13.950992503358224
 20
37.10911165640649
 10
13.944612744587038
 20
37.07703844318588
 10
13.934101171142592
 20
37.04607234637023
 10
13.91963763896088
 20
37.016743204461505
 10
13.90146962308758
 20
36.989552847209325
 10
13.879907983311409
 20
36.96496650916487
 10
13.879907983311409
 20
30.738519899758145
 10
12.264907983311407
 20
30.738519899758145
  0
LWPOLYLINE
  5
3A
330
17
100
AcDbEntity
  8
POCKET
100
AcDbPolyline
 90
53
 70
1
 10
26.71490798331141
 20
30.738519899758145
 10
26.71490798331141
 20
36.96496650916487
 10
26.693346343535236
 20
36.989552847209325
 10
26.675178327661936
 20
37.016743204461505
 10
26.660714795480224
 20
37.04607234637023
 10
26.650203222035778
 20
37.07703844318588
 10
26.643823463264592
 20
37.10911165640649
 10
26.641684678608048
 20
37.141743204461505
 10
26.643823463264592
 20
37.17437475251652
 10
26.650203222035778
 20
37.206447965737134
 10
26.660714795480224
 20
37.23741406255278
 10
26.675178327661936
 20
37.266743204461505
 10
26.693346343535236
 20
37.293933561713686
 10
26.71490798331141
 20
37.318519899758144
 10
26.739494321355867
 20
37.34008153953432
 10
26.766684678608048
 20
37.35824955540762
 10
26.796013820516773
 20
37.372713087589325
 10
26.826979917332416
 20
37.38322466103377
 10
26.859053130553033
 20
37.38960441980496
 10
26.891684678608048
 20
37.391743204461505
 10
26.92431622666306
 20
37.38960441980496
 10
26.956389439883676
 20
37.38322466103377
 10
26.98735553669932
 20
37.372713087589325
 10
27.016684678608048
 20
37.35824955540762
 10
27.043875035860225
 20
37.34008153953432
 10
27.068461373904682
 20
37.318519899758144
 10
27.97635459271814
 20
37.318519899758144
 10
28.000940930762596
 20
37.34008153953432
 10
28.028131288014773
 20
37.35824955540762
 10
28.057460429923502
 20
37.372713087589325
 10
28.088426526739145
 20
37.38322466103377
 10
28.12049973995976
 20
37.38960441980496
 10
28.153131288014773
 20
37.391743204461505
 10
28.185762836069788
 20
37.38960441980496
 10
28.217836049290405
 20
37.38322466103377
 10
28.248802146106048
 20
37.372713087589325
 10
28.278131288014773
 20
37.35824955540762
 10
28.305321645266954
 20
37.34008153953432
 10
28.32990798331141
 20
37.318519899758144
 10
28.351469623087585
 20
37.293933561713686
 10
28.369637638960885
 20
37.266743204461505
 10
28.384101171142596
 20
37.23741406255278
 10
28.394612744587043
 20
37.206447965737134
 10
28.40099250335823
 20
37.17437475251652
 10
28.403131288014773
 20
37.141743204461505
 10
28.40099250335823
 20
37.10911165640649
 10
28.394612744587043
 20
37.07703844318588
 10
28.384101171142596
 20
37.04607234637023
 10
28.369637638960885
 20
37.016743204461505
 10
28.351469623087585
 20
36.989552847209325
 10
28.32990798331141
 20
36.96496650916487
 10
28.32990798331141
 20
30.738519899758145
 10
26.71490798331141
 20
30.738519899758145
  0
LWPOLYLINE
  5
3B
330
17
100
AcDbEntity
  8
POCKET
100
AcDbPolyline
 90
53
 70
1
 10
73.74329999999999
 20
30.509987400727162
 10
73.74329999999999
 20
36.736434010133884
 10
73.72173836022382
 20
36.76102034817834
 10
73.70357034435052
 20
36.78821070543052
 10
73.6891068121688
 20
36.81753984733925
 10
73.67859523872436
 20
36.848505944154894
 10
73.67221547995318
 20
36.88057915737551
 10
73.67007669529663
 20
36.91321070543052
 10
73.67221547995318
 20
36.94584225348554
 10
73.67859523872436
 20
36.97791546670615
 10
73.6891068121688
 20
37.0088815635218
 10
73.70357034435052
 20
37.03821070543052
 10
73.72173836022382
 20
37.0654010626827
 10
73.74329999999999
 20
37.08998740072716
 10
73.76788633804445
 20
37.111549040503334
 10
73.79507669529663
 20
37.129717056376634
 10
73.82440583720536
 20
37.14418058855834
 10
73.855371934021
 20
37.15469216200279
 10
73.88744514724162
 20
37.16107192077398
 10
73.92007669529663
 20
37.16321070543052
 10
73.95270824335164
 20
37.16107192077398
 10
73.98478145657226
 20
37.15469216200279
 10
74.0157475533879
 20
37.14418058855834
 10
74.04507669529663
 20
37.129717056376634
 10
74.07226705254881
 20
37.111549040503334
 10
74.09685339059327
 20
37.08998740072716
 10
75.00474660940672
 20
37.08998740072716
 10
75.02933294745118
 20
37.111549040503334
 10
75.05652330470336
 20
37.129717056376634
 10
75.0858524466121
 20
37.14418058855834
 10
75.11681854342773
 20
37.15469216200279
 10
75.14889175664835
 20
37.16107192077398
 10
75.18152330470336
 20
37.16321070543052
 10
75.21415485275837
 20
37.16107192077398
 10
75.246228065979
 20
37.15469216200279
 10
75.27719416279463
 20
37.14418058855834
 10
75.30652330470336
 20
37.129717056376634
 10
75.33371366195554
 20
37.111549040503334
 10
75.3583
 20
37.08998740072716
 10
75.37986163977617
 20
37.0654010626827
 10
75.39802965564947
 20
37.03821070543052
 10
75.41249318783119
 20
37.0088815635218
 10
75.42300476127564
 20
36.97791546670615
 10
75.42938452004681
 20
36.94584225348554
 10
75.43152330470336
 20
36.91321070543052
 10
75.42938452004681
 20
36.88057915737551
 10
75.42300476127564
 20
36.848505944154894
 10
75.41249318783119
 20
36.81753984733925
 10
75.39802965564947
 20
36.78821070543052
 10
75.37986163977617
 20
36.76102034817834
 10
75.3583
 20
36.736434010133884
 10
75.3583
 20
30.509987400727162
 10
73.74329999999999
 20
30.509987400727162
  0
LWPOLYLINE
  5
3C
330
17
100
AcDbEntity
  8
POCKET
100
AcDbPolyline
 90
53
 70
1
 10
88.1933
 20
30.509987400727162
 10
88.1933
 20
36.736434010133884
 10
88.17173836022383
 20
36.76102034817834
 10
88.15357034435053
 20
36.78821070543052
 10
88.1391068121688
 20
36.81753984733925
 10
88.12859523872436
 20
36.848505944154894
 10
88.12221547995318
 20
36.88057915737551
 10
88.12007669529663
 20
36.91321070543052
 10
88.12221547995318
 20
36.94584225348554
 10
88.12859523872436
 20
36.97791546670615
 10
88.1391068121688
 20
37.0088815635218
 10
88.15357034435053
 20
37.03821070543052
 10
88.17173836022383
 20
37.0654010626827
 10
88.1933
 20
37.08998740072716
 10
88.21788633804445
 20
37.111549040503334
 10
88.24507669529663
 20
37.129717056376634
 10
88.27440583720536
 20
37.14418058855834
 10
88.305371934021
 20
37.15469216200279
 10
88.33744514724162
 20
37.16107192077398
 10
88.37007669529663
 20
37.16321070543052
 10
88.40270824335164
 20
37.16107192077398
 10
88.43478145657227
 20
37.15469216200279
 10
88.4657475533879
 20
37.14418058855834
 10
88.49507669529663
 20
37.129717056376634
 10
88.52226705254881
 20
37.111549040503334
 10
88.54685339059327
 20
37.08998740072716
 10
89.45474660940673
 20
37.08998740072716
 10
89.47933294745118
 20
37.111549040503334
 10
89.50652330470336
 20
37.129717056376634
 10
89.5358524466121
 20
37.14418058855834
 10
89.56681854342773
 20
37.15469216200279
 10
89.59889175664836
 20
37.16107192077398
 10
89.63152330470336
 20
37.16321070543052
 10
89.66415485275837
 20
37.16107192077398
 10
89.696228065979
 20
37.15469216200279
 10
89.72719416279463
 20
37.14418058855834
 10
89.75652330470336
 20
37.129717056376634
 10
89.78371366195555
 20
37.111549040503334
 10
89.8083
 20
37.08998740072716
 10
89.82986163977617
 20
37.0654010626827
 10
89.84802965564947
 20
37.03821070543052
 10
89.86249318783119
 20
37.0088815635218
 10
89.87300476127564
 20
36.97791546670615
 10
89.87938452004681
 20
36.94584225348554
 10
89.88152330470336
 20
36.91321070543052
 10
89.87938452004681
 20
36.88057915737551
 10
89.87300476127564
 20
36.848505944154894
 10
89.86249318783119
 20
36.81753984733925
 10
89.84802965564947
 20
36.78821070543052
 10
89.82986163977617
 20
36.76102034817834
 10
89.8083
 20
36.736434010133884
 10
89.8083
 20
30.509987400727162
 10
88.1933
 20
30.509987400727162
  0
LWPOLYLINE
  5
3D
330
17
100
AcDbEntity
  8
POCKET
100
AcDbPolyline
 90
53
 70
1
 10
22.425589406712795
 20
15.265240409397835
 10
22.425589406712795
 20
9.03879379999111
 10
22.44715104648897
 20
9.014207461946654
 10
22.46531906236227
 20
8.987017104694473
 10
22.47978259454398
 20
8.957687962785746
 10
22.490294167988427
 20
8.926721865970103
 10
22.496673926759613
 20
8.894648652749487
 10
22.49881271141616
 20
8.862017104694473
 10
22.496673926759613
 20
8.82938555663946
 10
22.490294167988427
 20
8.797312343418843
 10
22.47978259454398
 20
8.7663462466032
 10
22.46531906236227
 20
8.737017104694473
 10
22.44715104648897
 20
8.709826747442293
 10
22.425589406712795
 20
8.685240409397837
 10
22.40100306866834
 20
8.663678769621665
 10
22.37381271141616
 20
8.645510753748365
 10
22.34448356950743
 20
8.631047221566652
 10
22.313517472691792
 20
8.620535648122207
 10
22.281444259471172
 20
8.614155889351022
 10
22.24881271141616
 20
8.612017104694473
 10
22.21618116336115
 20
8.614155889351022
 10
22.18410795014053
 20
8.620535648122207
 10
22.15314185332489
 20
8.631047221566652
 10
22.12381271141616
 20
8.645510753748365
 10
22.09662235416398
 20
8.663678769621665
 10
22.072036016119522
 20
8.685240409397837
 10
21.164142797306074
 20
8.685240409397837
 10
21.139556459261616
 20
8.663678769621665
 10
21.112366102009435
 20
8.645510753748365
 10
21.083036960100706
 20
8.631047221566652
 10
21.052070863285067
 20
8.620535648122207
 10
21.019997650064447
 20
8.614155889351022
 10
20.987366102009435
 20
8.612017104694473
 10
20.954734553954424
 20
8.614155889351022
 10
20.922661340733807
 20
8.620535648122207
 10
20.891695243918164
 20
8.631047221566652
 10
20.862366102009435
 20
8.645510753748365
 10
20.835175744757255
 20
8.663678769621665
 10
20.8105894067128
 20
8.685240409397837
 10
20.789027766936627
 20
8.709826747442293
 10
20.770859751063327
 20
8.737017104694473
 10
20.756396218881616
 20
8.7663462466032
 10
20.74588464543717
 20
8.797312343418843
 10
20.739504886665983
 20
8.82938555663946
 10
20.737366102009435
 20
8.862017104694473
 10
20.739504886665983
 20
8.894648652749487
 10
20.74588464543717
 20
8.926721865970103
 10
20.756396218881616
 20
8.957687962785746
 10
20.770859751063327
 20
8.987017104694473
 10
20.789027766936627
 20
9.014207461946654
 10
20.8105894067128
 20
9.03879379999111
 10
20.8105894067128
 20
15.265240409397835
 10
22.425589406712795
 20
15.265240409397835
  0
LWPOLYLINE
  5
3E
330
17
100
AcDbEntity
  8
POCKET
100
AcDbPolyline
 90
53
 70
1
 10
7.975589406712794
 20
15.265240409397835
 10
7.975589406712794
 20
9.03879379999111
 10
7.997151046488966
 20
9.014207461946654
 10
8.015319062362266
 20
8.987017104694473
 10
8.02978259454398
 20
8.957687962785746
 10
8.040294167988424
 20
8.926721865970103
 10
8.04667392675961
 20
8.894648652749487
 10
8.048812711416158
 20
8.862017104694473
 10
8.04667392675961
 20
8.82938555663946
 10
8.040294167988424
 20
8.797312343418843
 10
8.02978259454398
 20
8.7663462466032
 10
8.015319062362266
 20
8.737017104694473
 10
7.997151046488966
 20
8.709826747442293
 10
7.975589406712794
 20
8.685240409397837
 10
7.951003068668338
 20
8.663678769621665
 10
7.923812711416158
 20
8.645510753748365
 10
7.89448356950743
 20
8.631047221566652
 10
7.863517472691788
 20
8.620535648122207
 10
7.83144425947117
 20
8.614155889351022
 10
7.798812711416158
 20
8.612017104694473
 10
7.766181163361145
 20
8.614155889351022
 10
7.734107950140527
 20
8.620535648122207
 10
7.703141853324885
 20
8.631047221566652
 10
7.673812711416158
 20
8.645510753748365
 10
7.646622354163977
 20
8.663678769621665
 10
7.62203601611952
 20
8.685240409397837
 10
6.714142797306066
 20
8.685240409397837
 10
6.68955645926161
 20
8.663678769621665
 10
6.662366102009429
 20
8.645510753748365
 10
6.633036960100702
 20
8.631047221566652
 10
6.60207086328506
 20
8.620535648122207
 10
6.569997650064442
 20
8.614155889351022
 10
6.537366102009429
 20
8.612017104694473
 10
6.504734553954417
 20
8.614155889351022
 10
6.472661340733799
 20
8.620535648122207
 10
6.441695243918157
 20
8.631047221566652
 10
6.412366102009429
 20
8.645510753748365
 10
6.385175744757249
 20
8.663678769621665
 10
6.360589406712792
 20
8.685240409397837
 10
6.339027766936621
 20
8.709826747442293
 10
6.3208597510633195
 20
8.737017104694473
 10
6.306396218881607
 20
8.7663462466032
 10
6.295884645437162
 20
8.797312343418843
 10
6.289504886665977
 20
8.82938555663946
 10
6.287366102009429
 20
8.862017104694473
 10
6.289504886665977
 20
8.894648652749487
 10
6.295884645437162
 20
8.926721865970103
 10
6.306396218881607
 20
8.957687962785746
 10
6.3208597510633195
 20
8.987017104694473
 10
6.339027766936621
 20
9.014207461946654
 10
6.360589406712792
 20
9.03879379999111
 10
6.360589406712792
 20
15.265240409397835
 10
7.975589406712794
 20
15.265240409397835
  0
LWPOLYLINE
  5
3F
330
17
100
AcDbEntity
  8
POCKET
100
AcDbPolyline
 90
53
 70
1
 10
87.15
 20
48.254960472238054
 10
87.15
 20
42.02851386283133
 10
87.17156163977617
 20
42.003927524786874
 10
87.18972965564947
 20
41.976737167534694
 10
87.2041931878312
 20
41.94740802562597
 10
87.21470476127564
 20
41.91644192881032
 10
87.22108452004682
 20
41.88436871558971
 10
87.22322330470337
 20
41.851737167534694
 10
87.22108452004682
 20
41.81910561947968
 10
87.21470476127564
 20
41.787032406259065
 10
87.2041931878312
 20
41.75606630944342
 10
87.18972965564947
 20
41.726737167534694
 10
87.17156163977617
 20
41.69954681028251
 10
87.15
 20
41.674960472238055
 10
87.12541366195555
 20
41.65339883246188
 10
87.09822330470337
 20
41.63523081658858
 10
87.06889416279463
 20
41.620767284406874
 10
87.037928065979
 20
41.61025571096243
 10
87.00585485275838
 20
41.60387595219124
 10
86.97322330470337
 20
41.601737167534694
 10
86.94059175664836
 20
41.60387595219124
 10
86.90851854342773
 20
41.61025571096243
 10
86.8775524466121
 20
41.620767284406874
 10
86.84822330470337
 20
41.63523081658858
 10
86.82103294745119
 20
41.65339883246188
 10
86.79644660940673
 20
41.674960472238055
 10
85.88855339059327
 20
41.674960472238055
 10
85.86396705254882
 20
41.65339883246188
 10
85.83677669529663
 20
41.63523081658858
 10
85.8074475533879
 20
41.620767284406874
 10
85.77648145657227
 20
41.61025571096243
 10
85.74440824335164
 20
41.60387595219124
 10
85.71177669529663
 20
41.601737167534694
 10
85.67914514724163
 20
41.60387595219124
 10
85.647071934021
 20
41.61025571096243
 10
85.61610583720537
 20
41.620767284406874
 10
85.58677669529663
 20
41.63523081658858
 10
85.55958633804445
 20
41.65339883246188
 10
85.535
 20
41.674960472238055
 10
85.51343836022383
 20
41.69954681028251
 10
85.49527034435053
 20
41.726737167534694
 10
85.48080681216881
 20
41.75606630944342
 10
85.47029523872436
 20
41.787032406259065
 10
85.46391547995319
 20
41.81910561947968
 10
85.46177669529663
 20
41.851737167534694
 10
85.46391547995319
 20
41.88436871558971
 10
85.47029523872436
 20
41.91644192881032
 10
85.48080681216881
 20
41.94740802562597
 10
85.49527034435053
 20
41.976737167534694
 10
85.51343836022383
 20
42.003927524786874
 10
85.535
 20
42.02851386283133
 10
85.535
 20
48.254960472238054
 10
87.15
 20
48.254960472238054
  0
LWPOLYLINE
  5
40
330
17
100
AcDbEntity
  8
POCKET
100
AcDbPolyline
 90
53
 70
1
 10
72.7
 20
48.254960472238054
 10
72.7
 20
42.02851386283133
 10
72.72156163977617
 20
42.003927524786874
 10
72.73972965564947
 20
41.976737167534694
 10
72.75419318783119
 20
41.94740802562597
 10
72.76470476127564
 20
41.91644192881032
 10
72.77108452004681
 20
41.88436871558971
 10
72.77322330470336
 20
41.851737167534694
 10
72.77108452004681
 20
41.81910561947968
 10
72.76470476127564
 20
41.787032406259065
 10
72.75419318783119
 20
41.75606630944342
 10
72.73972965564947
 20
41.726737167534694
 10
72.72156163977617
 20
41.69954681028251
 10
72.7
 20
41.674960472238055
 10
72.67541366195555
 20
41.65339883246188
 10
72.64822330470336
 20
41.63523081658858
 10
72.61889416279463
 20
41.620767284406874
 10
72.587928065979
 20
41.61025571096243
 10
72.55585485275837
 20
41.60387595219124
 10
72.52322330470336
 20
41.601737167534694
 10
72.49059175664836
 20
41.60387595219124
 10
72.45851854342773
 20
41.61025571096243
 10
72.4275524466121
 20
41.620767284406874
 10
72.39822330470336
 20
41.63523081658858
 10
72.37103294745118
 20
41.65339883246188
 10
72.34644660940673
 20
41.674960472238055
 10
71.43855339059327
 20
41.674960472238055
 10
71.41396705254881
 20
41.65339883246188
 10
71.38677669529663
 20
41.63523081658858
 10
71.3574475533879
 20
41.620767284406874
 10
71.32648145657227
 20
41.61025571096243
 10
71.29440824335164
 20
41.60387595219124
 10
71.26177669529663
 20
41.601737167534694
 10
71.22914514724162
 20
41.60387595219124
 10
71.197071934021
 20
41.61025571096243
 10
71.16610583720536
 20
41.620767284406874
 10
71.13677669529663
 20
41.63523081658858
 10
71.10958633804445
 20
41.65339883246188
 10
71.085
 20
41.674960472238055
 10
71.06343836022383
 20
41.69954681028251
 10
71.04527034435053
 20
41.726737167534694
 10
71.0308068121688
 20
41.75606630944342
 10
71.02029523872436
 20
41.787032406259065
 10
71.01391547995318
 20
41.81910561947968
 10
71.01177669529663
 20
41.851737167534694
 10
71.01391547995318
 20
41.88436871558971
 10
71.02029523872436
 20
41.91644192881032
 10
71.0308068121688
 20
41.94740802562597
 10
71.04527034435053
 20
41.976737167534694
 10
71.06343836022383
 20
42.003927524786874
 10
71.085
 20
42.02851386283133
 10
71.085
 20
48.254960472238054
 10
72.7
 20
48.254960472238054
  0
LWPOLYLINE
  5
41
330
17
100
AcDbEntity
  8
POCKET
100
AcDbPolyline
 90
53
 70
1
 10
72.16499999999999
 20
30.604645264071564
 10
72.16499999999999
 20
26.378198654664843
 10
72.18656163977616
 20
26.353612316620385
 10
72.20472965564946
 20
26.326421959368204
 10
72.21919318783117
 20
26.297092817459475
 10
72.22970476127561
 20
26.266126720643836
 10
72.2360845200468
 20
26.234053507423216
 10
72.23822330470335
 20
26.201421959368204
 10
72.2360845200468
 20
26.168790411313193
 10
72.22970476127561
 20
26.136717198092576
 10
72.21919318783117
 20
26.105751101276933
 10
72.20472965564946
 20
26.076421959368204
 10
72.18656163977616
 20
26.049231602116024
 10
72.16499999999999
 20
26.024645264071566
 10
72.14041366195553
 20
26.003083624295396
 10
72.11322330470335
 20
25.984915608422096
 10
72.08389416279462
 20
25.970452076240385
 10
72.05292806597897
 20
25.959940502795938
 10
72.02085485275836
 20
25.953560744024752
 10
71.98822330470335
 20
25.951421959368204
 10
71.95559175664833
 20
25.953560744024752
 10
71.92351854342772
 20
25.959940502795938
 10
71.89255244661207
 20
25.970452076240385
 10
71.86322330470335
 20
25.984915608422096
 10
71.83603294745117
 20
26.003083624295396
 10
71.81144660940672
 20
26.024645264071566
 10
70.90355339059326
 20
26.024645264071566
 10
70.8789670525488
 20
26.003083624295396
 10
70.85177669529662
 20
25.984915608422096
 10
70.8224475533879
 20
25.970452076240385
 10
70.79148145657226
 20
25.959940502795938
 10
70.75940824335164
 20
25.953560744024752
 10
70.72677669529662
 20
25.951421959368204
 10
70.69414514724161
 20
25.953560744024752
 10
70.662071934021
 20
25.959940502795938
 10
70.63110583720535
 20
25.970452076240385
 10
70.60177669529662
 20
25.984915608422096
 10
70.57458633804444
 20
26.003083624295396
 10
70.54999999999998
 20
26.024645264071566
 10
70.52843836022382
 20
26.049231602116024
 10
70.51027034435052
 20
26.076421959368204
 10
70.49580681216881
 20
26.105751101276933
 10
70.48529523872436
 20
26.136717198092573
 10
70.47891547995317
 20
26.168790411313193
 10
70.47677669529662
 20
26.201421959368204
 10
70.47891547995317
 20
26.234053507423216
 10
70.48529523872436
 20
26.266126720643836
 10
70.49580681216881
 20
26.297092817459475
 10
70.51027034435052
 20
26.326421959368204
 10
70.52843836022382
 20
26.353612316620385
 10
70.54999999999998
 20
26.378198654664843
 10
70.54999999999998
 20
30.604645264071564
 10
72.16499999999999
 20
30.604645264071564
  0
LWPOLYLINE
  5
42
330
17
100
AcDbEntity
  8
POCKET
100
AcDbPolyline
 90
53
 70
1
 10
85.59
 20
30.604645264071564
 10
85.59
 20
26.378198654664843
 10
85.61156163977617
 20
26.353612316620385
 10
85.62972965564947
 20
26.326421959368204
 10
85.64419318783119
 20
26.297092817459475
 10
85.65470476127564
 20
26.266126720643836
 10
85.66108452004681
 20
26.234053507423216
 10
85.66322330470337
 20
26.201421959368204
 10
85.66108452004681
 20
26.168790411313193
 10
85.65470476127564
 20
26.136717198092576
 10
85.64419318783119
 20
26.105751101276933
 10
85.62972965564947
 20
26.076421959368204
 10
85.61156163977617
 20
26.049231602116024
 10
85.59
 20
26.024645264071566
 10
85.56541366195555
 20
26.003083624295396
 10
85.53822330470337
 20
25.984915608422096
 10
85.50889416279463
 20
25.970452076240385
 10
85.477928065979
 20
25.959940502795938
 10
85.44585485275837
 20
25.953560744024752
 10
85.41322330470337
 20
25.951421959368204
 10
85.38059175664836
 20
25.953560744024752
 10
85.34851854342773
 20
25.959940502795938
 10
85.3175524466121
 20
25.970452076240385
 10
85.28822330470337
 20
25.984915608422096
 10
85.26103294745118
 20
26.003083624295396
 10
85.23644660940673
 20
26.024645264071566
 10
84.32855339059327
 20
26.024645264071566
 10
84.30396705254881
 20
26.003083624295396
 10
84.27677669529663
 20
25.984915608422096
 10
84.2474475533879
 20
25.970452076240385
 10
84.21648145657227
 20
25.959940502795938
 10
84.18440824335164
 20
25.953560744024752
 10
84.15177669529663
 20
25.951421959368204
 10
84.11914514724162
 20
25.953560744024752
 10
84.087071934021
 20
25.959940502795938
 10
84.05610583720537
 20
25.970452076240385
 10
84.02677669529663
 20
25.984915608422096
 10
83.99958633804445
 20
26.003083624295396
 10
83.975
 20
26.024645264071566
 10
83.95343836022383
 20
26.049231602116024
 10
83.93527034435053
 20
26.076421959368204
 10
83.9208068121688
 20
26.105751101276933
 10
83.91029523872436
 20
26.136717198092573
 10
83.90391547995318
 20
26.168790411313193
 10
83.90177669529663
 20
26.201421959368204
 10
83.90391547995318
 20
26.234053507423216
 10
83.91029523872436
 20
26.266126720643836
 10
83.9208068121688
 20
26.297092817459475
 10
83.93527034435053
 20
26.326421959368204
 10
83.95343836022383
 20
26.353612316620385
 10
83.975
 20
26.378198654664843
 10
83.975
 20
30.604645264071564
 10
85.59
 20
30.604645264071564
  0
LWPOLYLINE
  5
43
330
17
100
AcDbEntity
  8
POCKET
100
AcDbPolyline
 90
53
 70
1
 10
94.74000000000001
 20
30.604645264071564
 10
94.74000000000001
 20
26.378198654664843
 10
94.76156163977618
 20
26.353612316620385
 10
94.77972965564948
 20
26.326421959368204
 10
94.79419318783118
 20
26.297092817459475
 10
94.80470476127563
 20
26.266126720643836
 10
94.81108452004682
 20
26.234053507423216
 10
94.81322330470337
 20
26.201421959368204
 10
94.81108452004682
 20
26.168790411313193
 10
94.80470476127563
 20
26.136717198092576
 10
94.79419318783118
 20
26.105751101276933
 10
94.77972965564948
 20
26.076421959368204
 10
94.76156163977618
 20
26.049231602116024
 10
94.74000000000001
 20
26.024645264071566
 10
94.71541366195555
 20
26.003083624295396
 10
94.68822330470337
 20
25.984915608422096
 10
94.65889416279464
 20
25.970452076240385
 10
94.62792806597899
 20
25.959940502795938
 10
94.59585485275838
 20
25.953560744024752
 10
94.56322330470337
 20
25.951421959368204
 10
94.53059175664835
 20
25.953560744024752
 10
94.49851854342774
 20
25.959940502795938
 10
94.46755244661209
 20
25.970452076240385
 10
94.43822330470337
 20
25.984915608422096
 10
94.41103294745119
 20
26.003083624295396
 10
94.38644660940673
 20
26.024645264071566
 10
93.47855339059328
 20
26.024645264071566
 10
93.45396705254882
 20
26.003083624295396
 10
93.42677669529664
 20
25.984915608422096
 10
93.39744755338792
 20
25.970452076240385
 10
93.36648145657227
 20
25.959940502795938
 10
93.33440824335166
 20
25.953560744024752
 10
93.30177669529664
 20
25.951421959368204
 10
93.26914514724163
 20
25.953560744024752
 10
93.23707193402102
 20
25.959940502795938
 10
93.20610583720537
 20
25.970452076240385
 10
93.17677669529664
 20
25.984915608422096
 10
93.14958633804446
 20
26.003083624295396
 10
93.125
 20
26.024645264071566
 10
93.10343836022383
 20
26.049231602116024
 10
93.08527034435053
 20
26.076421959368204
 10
93.07080681216883
 20
26.105751101276933
 10
93.06029523872438
 20
26.136717198092573
 10
93.05391547995319
 20
26.168790411313193
 10
93.05177669529664
 20
26.201421959368204
 10
93.05391547995319
 20
26.234053507423216
 10
93.06029523872438
 20
26.266126720643836
 10
93.07080681216883
 20
26.297092817459475
 10
93.08527034435053
 20
26.326421959368204
 10
93.10343836022383
 20
26.353612316620385
 10
93.125
 20
26.378198654664843
 10
93.125
 20
30.604645264071564
 10
94.74000000000001
 20
30.604645264071564
  0
LWPOLYLINE
  5
44
330
17
100
AcDbEntity
  8
POCKET
100
AcDbPolyline
 90
53
 70
1
 10
40.816164377300325
 20
48.255010331828124
 10
40.816164377300325
 20
44.0285637224214
 10
40.8377260170765
 20
44.003977384376945
 10
40.8558940329498
 20
43.976787027124765
 10
40.870357565131506
 20
43.94745788521604
 10
40.88086913857595
 20
43.91649178840039
 10
40.88724889734714
 20
43.88441857517978
 10
40.88938768200369
 20
43.851787027124765
 10
40.88724889734714
 20
43.81915547906975
 10
40.88086913857595
 20
43.787082265849136
 10
40.870357565131506
 20
43.75611616903349
 10
40.8558940329498
 20
43.726787027124765
 10
40.8377260170765
 20
43.699596669872584
 10
40.816164377300325
 20
43.675010331828126
 10
40.79157803925587
 20
43.65344869205195
 10
40.76438768200369
 20
43.63528067617865
 10
40.73505854009496
 20
43.620817143996945
 10
40.70409244327932
 20
43.6103055705525
 10
40.6720192300587
 20
43.60392581178131
 10
40.63938768200369
 20
43.601787027124765
 10
40.60675613394868
 20
43.60392581178131
 10
40.57468292072806
 20
43.6103055705525
 10
40.54371682391242
 20
43.620817143996945
 10
40.51438768200369
 20
43.63528067617865
 10
40.487197324751506
 20
43.65344869205195
 10
40.46261098670705
 20
43.675010331828126
 10
39.55471776789361
 20
43.675010331828126
 10
39.53013142984915
 20
43.65344869205195
 10
39.50294107259697
 20
43.63528067617865
 10
39.473611930688236
 20
43.620817143996945
 10
39.4426458338726
 20
43.6103055705525
 10
39.410572620651976
 20
43.60392581178131
 10
39.37794107259697
 20
43.601787027124765
 10
39.34530952454195
 20
43.60392581178131
 10
39.31323631132134
 20
43.6103055705525
 10
39.282270214505694
 20
43.620817143996945
 10
39.25294107259697
 20
43.63528067617865
 10
39.22575071534479
 20
43.65344869205195
 10
39.20116437730033
 20
43.675010331828126
 10
39.17960273752416
 20
43.699596669872584
 10
39.161434721650856
 20
43.726787027124765
 10
39.14697118946915
 20
43.75611616903349
 10
39.1364596160247
 20
43.787082265849136
 10
39.13007985725351
 20
43.81915547906975
 10
39.12794107259697
 20
43.851787027124765
 10
39.13007985725351
 20
43.88441857517978
 10
39.1364596160247
 20
43.91649178840039
 10
39.14697118946915
 20
43.94745788521604
 10
39.161434721650856
 20
43.976787027124765
 10
39.17960273752416
 20
44.003977384376945
 10
39.20116437730033
 20
44.0285637224214
 10
39.20116437730033
 20
48.255010331828124
 10
40.816164377300325
 20
48.255010331828124
  0
LWPOLYLINE
  5
45
330
17
100
AcDbEntity
  8
POCKET
100
AcDbPolyline
 90
53
 70
1
 10
54.24116437730032
 20
48.255010331828124
 10
54.24116437730032
 20
44.0285637224214
 10
54.262726017076496
 20
44.003977384376945
 10
54.280894032949796
 20
43.976787027124765
 10
54.2953575651315
 20
43.94745788521604
 10
54.30586913857595
 20
43.91649178840039
 10
54.31224889734714
 20
43.88441857517978
 10
54.314387682003684
 20
43.851787027124765
 10
54.31224889734714
 20
43.81915547906975
 10
54.30586913857595
 20
43.787082265849136
 10
54.2953575651315
 20
43.75611616903349
 10
54.280894032949796
 20
43.726787027124765
 10
54.262726017076496
 20
43.699596669872584
 10
54.24116437730032
 20
43.675010331828126
 10
54.216578039255864
 20
43.65344869205195
 10
54.189387682003684
 20
43.63528067617865
 10
54.16005854009496
 20
43.620817143996945
 10
54.12909244327932
 20
43.6103055705525
 10
54.0970192300587
 20
43.60392581178131
 10
54.064387682003684
 20
43.601787027124765
 10
54.031756133948676
 20
43.60392581178131
 10
53.999682920728056
 20
43.6103055705525
 10
53.968716823912416
 20
43.620817143996945
 10
53.939387682003684
 20
43.63528067617865
 10
53.9121973247515
 20
43.65344869205195
 10
53.887610986707045
 20
43.675010331828126
 10
52.979717767893604
 20
43.675010331828126
 10
52.955131429849146
 20
43.65344869205195
 10
52.927941072596965
 20
43.63528067617865
 10
52.89861193068823
 20
43.620817143996945
 10
52.867645833872594
 20
43.6103055705525
 10
52.83557262065197
 20
43.60392581178131
 10
52.802941072596965
 20
43.601787027124765
 10
52.77030952454195
 20
43.60392581178131
 10
52.73823631132134
 20
43.6103055705525
 10
52.70727021450569
 20
43.620817143996945
 10
52.677941072596965
 20
43.63528067617865
 10
52.650750715344785
 20
43.65344869205195
 10
52.62616437730033
 20
43.675010331828126
 10
52.604602737524154
 20
43.699596669872584
 10
52.58643472165085
 20
43.726787027124765
 10
52.571971189469146
 20
43.75611616903349
 10
52.5614596160247
 20
43.787082265849136
 10
52.55507985725351
 20
43.81915547906975
 10
52.552941072596965
 20
43.851787027124765
 10
52.55507985725351
 20
43.88441857517978
 10
52.5614596160247
 20
43.91649178840039
 10
52.571971189469146
 20
43.94745788521604
 10
52.58643472165085
 20
43.976787027124765
 10
52.604602737524154
 20
44.003977384376945
 10
52.62616437730033
 20
44.0285637224214
 10
52.62616437730033
 20
48.255010331828124
 10
54.24116437730032
 20
48.255010331828124
  0
LWPOLYLINE
  5
46
330
17
100
AcDbEntity
  8
POCKET
100
AcDbPolyline
 90
53
 70
1
 10
63.39116437730033
 20
48.255010331828124
 10
63.39116437730033
 20
44.0285637224214
 10
63.4127260170765
 20
44.003977384376945
 10
63.4308940329498
 20
43.976787027124765
 10
63.44535756513151
 20
43.94745788521604
 10
63.455869138575956
 20
43.91649178840039
 10
63.462248897347145
 20
43.88441857517978
 10
63.46438768200369
 20
43.851787027124765
 10
63.462248897347145
 20
43.81915547906975
 10
63.455869138575956
 20
43.787082265849136
 10
63.44535756513151
 20
43.75611616903349
 10
63.4308940329498
 20
43.726787027124765
 10
63.4127260170765
 20
43.699596669872584
 10
63.39116437730033
 20
43.675010331828126
 10
63.36657803925587
 20
43.65344869205195
 10
63.33938768200369
 20
43.63528067617865
 10
63.310058540094964
 20
43.620817143996945
 10
63.279092443279325
 20
43.6103055705525
 10
63.247019230058704
 20
43.60392581178131
 10
63.21438768200369
 20
43.601787027124765
 10
63.18175613394868
 20
43.60392581178131
 10
63.14968292072806
 20
43.6103055705525
 10
63.11871682391242
 20
43.620817143996945
 10
63.08938768200369
 20
43.63528067617865
 10
63.06219732475151
 20
43.65344869205195
 10
63.03761098670705
 20
43.675010331828126
 10
62.129717767893595
 20
43.675010331828126
 10
62.10513142984914
 20
43.65344869205195
 10
62.07794107259696
 20
43.63528067617865
 10
62.048611930688224
 20
43.620817143996945
 10
62.017645833872585
 20
43.6103055705525
 10
61.985572620651965
 20
43.60392581178131
 10
61.95294107259696
 20
43.601787027124765
 10
61.92030952454194
 20
43.60392581178131
 10
61.88823631132133
 20
43.6103055705525
 10
61.85727021450568
 20
43.620817143996945
 10
61.82794107259696
 20
43.63528067617865
 10
61.800750715344776
 20
43.65344869205195
 10
61.77616437730032
 20
43.675010331828126
 10
61.754602737524145
 20
43.699596669872584
 10
61.736434721650845
 20
43.726787027124765
 10
61.72197118946914
 20
43.75611616903349
 10
61.71145961602469
 20
43.787082265849136
 10
61.7050798572535
 20
43.81915547906975
 10
61.70294107259696
 20
43.851787027124765
 10
61.7050798572535
 20
43.88441857517978
 10
61.71145961602469
 20
43.91649178840039
 10
61.72197118946914
 20
43.94745788521604
 10
61.736434721650845
 20
43.976787027124765
 10
61.754602737524145
 20
44.003977384376945
 10
61.77616437730032
 20
44.0285637224214
 10
61.77616437730032
 20
48.255010331828124
 10
63.39116437730033
 20
48.255010331828124
  0
LWPOLYLINE
  5
47
330
17
100
AcDbEntity
  8
POCKET
100
AcDbPolyline
 90
53
 70
1
 10
71.79660000000001
 20
15.1837825397203
 10
71.79660000000001
 20
10.957335930313574
 10
71.81816163977618
 20
10.932749592269118
 10
71.83632965564948
 20
10.905559235016938
 10
71.8507931878312
 20
10.87623009310821
 10
71.86130476127565
 20
10.845263996292568
 10
71.86768452004682
 20
10.813190783071951
 10
71.86982330470337
 20
10.780559235016938
 10
71.86768452004682
 20
10.747927686961924
 10
71.86130476127565
 20
10.715854473741308
 10
71.8507931878312
 20
10.684888376925665
 10
71.83632965564948
 20
10.655559235016938
 10
71.81816163977618
 20
10.628368877764757
 10
71.79660000000001
 20
10.603782539720301
 10
71.77201366195555
 20
10.58222089994413
 10
71.74482330470337
 20
10.56405288407083
 10
71.71549416279464
 20
10.549589351889116
 10
71.68452806597901
 20
10.539077778444671
 10
71.65245485275838
 20
10.532698019673486
 10
71.61982330470337
 20
10.530559235016938
 10
71.58719175664837
 20
10.532698019673486
 10
71.55511854342774
 20
10.539077778444671
 10
71.5241524466121
 20
10.549589351889116
 10
71.49482330470337
 20
10.56405288407083
 10
71.4676329474512
 20
10.58222089994413
 10
71.44304660940674
 20
10.603782539720301
 10
70.53515339059328
 20
10.603782539720301
 10
70.51056705254882
 20
10.58222089994413
 10
70.48337669529664
 20
10.56405288407083
 10
70.45404755338791
 20
10.549589351889116
 10
70.42308145657228
 20
10.539077778444671
 10
70.39100824335165
 20
10.532698019673486
 10
70.35837669529664
 20
10.530559235016938
 10
70.32574514724163
 20
10.532698019673486
 10
70.293671934021
 20
10.539077778444671
 10
70.26270583720537
 20
10.549589351889116
 10
70.23337669529664
 20
10.56405288407083
 10
70.20618633804446
 20
10.58222089994413
 10
70.1816
 20
10.603782539720301
 10
70.16003836022384
 20
10.628368877764757
 10
70.14187034435054
 20
10.655559235016938
 10
70.12740681216881
 20
10.684888376925665
 10
70.11689523872437
 20
10.715854473741308
 10
70.1105154799532
 20
10.747927686961924
 10
70.10837669529664
 20
10.780559235016938
 10
70.1105154799532
 20
10.813190783071951
 10
70.11689523872437
 20
10.845263996292568
 10
70.12740681216881
 20
10.87623009310821
 10
70.14187034435054
 20
10.905559235016938
 10
70.16003836022384
 20
10.932749592269118
 10
70.1816
 20
10.957335930313574
 10
70.1816
 20
15.1837825397203
 10
71.79660000000001
 20
15.1837825397203
  0
LWPOLYLINE
  5
48
330
17
100
AcDbEntity
  8
POCKET
100
AcDbPolyline
 90
53
 70
1
 10
85.22160000000001
 20
15.1837825397203
 10
85.22160000000001
 20
10.957335930313574
 10
85.24316163977618
 20
10.932749592269118
 10
85.26132965564948
 20
10.905559235016938
 10
85.2757931878312
 20
10.87623009310821
 10
85.28630476127564
 20
10.845263996292568
 10
85.29268452004682
 20
10.813190783071951
 10
85.29482330470337
 20
10.780559235016938
 10
85.29268452004682
 20
10.747927686961924
 10
85.28630476127564
 20
10.715854473741308
 10
85.2757931878312
 20
10.684888376925665
 10
85.26132965564948
 20
10.655559235016938
 10
85.24316163977618
 20
10.628368877764757
 10
85.22160000000001
 20
10.603782539720301
 10
85.19701366195555
 20
10.58222089994413
 10
85.16982330470337
 20
10.56405288407083
 10
85.14049416279464
 20
10.549589351889116
 10
85.109528065979
 20
10.539077778444671
 10
85.07745485275838
 20
10.532698019673486
 10
85.04482330470337
 20
10.530559235016938
 10
85.01219175664836
 20
10.532698019673486
 10
84.98011854342774
 20
10.539077778444671
 10
84.9491524466121
 20
10.549589351889116
 10
84.91982330470337
 20
10.56405288407083
 10
84.89263294745119
 20
10.58222089994413
 10
84.86804660940673
 20
10.603782539720301
 10
83.96015339059328
 20
10.603782539720301
 10
83.93556705254882
 20
10.58222089994413
 10
83.90837669529664
 20
10.56405288407083
 10
83.8790475533879
 20
10.549589351889116
 10
83.84808145657227
 20
10.539077778444671
 10
83.81600824335165
 20
10.532698019673486
 10
83.78337669529664
 20
10.530559235016938
 10
83.75074514724163
 20
10.532698019673486
 10
83.718671934021
 20
10.539077778444671
 10
83.68770583720537
 20
10.549589351889116
 10
83.65837669529664
 20
10.56405288407083
 10
83.63118633804446
 20
10.58222089994413
 10
83.6066
 20
10.603782539720301
 10
83.58503836022383
 20
10.628368877764757
 10
83.56687034435053
 20
10.655559235016938
 10
83.55240681216881
 20
10.684888376925665
 10
83.54189523872436
 20
10.715854473741308
 10
83.53551547995319
 20
10.747927686961924
 10
83.53337669529664
 20
10.780559235016938
 10
83.53551547995319
 20
10.813190783071951
 10
83.54189523872436
 20
10.845263996292568
 10
83.55240681216881
 20
10.87623009310821
 10
83.56687034435053
 20
10.905559235016938
 10
83.58503836022383
 20
10.932749592269118
 10
83.6066
 20
10.957335930313574
 10
83.6066
 20
15.1837825397203
 10
85.22160000000001
 20
15.1837825397203
  0
LWPOLYLINE
  5
49
330
17
100
AcDbEntity
  8
POCKET
100
AcDbPolyline
 90
53
 70
1
 10
94.3716
 20
15.1837825397203
 10
94.3716
 20
10.957335930313574
 10
94.39316163977617
 20
10.932749592269118
 10
94.41132965564947
 20
10.905559235016938
 10
94.42579318783118
 20
10.87623009310821
 10
94.43630476127562
 20
10.845263996292568
 10
94.44268452004681
 20
10.813190783071951
 10
94.44482330470336
 20
10.780559235016938
 10
94.44268452004681
 20
10.747927686961924
 10
94.43630476127562
 20
10.715854473741308
 10
94.42579318783118
 20
10.684888376925665
 10
94.41132965564947
 20
10.655559235016938
 10
94.39316163977617
 20
10.628368877764757
 10
94.3716
 20
10.603782539720301
 10
94.34701366195554
 20
10.58222089994413
 10
94.31982330470336
 20
10.56405288407083
 10
94.29049416279463
 20
10.549589351889116
 10
94.25952806597898
 20
10.539077778444671
 10
94.22745485275837
 20
10.532698019673486
 10
94.19482330470336
 20
10.530559235016938
 10
94.16219175664834
 20
10.532698019673486
 10
94.13011854342773
 20
10.539077778444671
 10
94.09915244661208
 20
10.549589351889116
 10
94.06982330470336
 20
10.56405288407083
 10
94.04263294745118
 20
10.58222089994413
 10
94.01804660940672
 20
10.603782539720301
 10
93.11015339059327
 20
10.603782539720301
 10
93.08556705254881
 20
10.58222089994413
 10
93.05837669529663
 20
10.56405288407083
 10
93.02904755338791
 20
10.549589351889116
 10
92.99808145657227
 20
10.539077778444671
 10
92.96600824335165
 20
10.532698019673486
 10
92.93337669529663
 20
10.530559235016938
 10
92.90074514724162
 20
10.532698019673486
 10
92.86867193402101
 20
10.539077778444671
 10
92.83770583720536
 20
10.549589351889116
 10
92.80837669529663
 20
10.56405288407083
 10
92.78118633804445
 20
10.58222089994413
 10
92.75659999999999
 20
10.603782539720301
 10
92.73503836022383
 20
10.628368877764757
 10
92.71687034435053
 20
10.655559235016938
 10
92.70240681216882
 20
10.684888376925665
 10
92.69189523872437
 20
10.715854473741308
 10
92.68551547995318
 20
10.747927686961924
 10
92.68337669529663
 20
10.780559235016938
 10
92.68551547995318
 20
10.813190783071951
 10
92.69189523872437
 20
10.845263996292568
 10
92.70240681216882
 20
10.87623009310821
 10
92.71687034435053
 20
10.905559235016938
 10
92.73503836022383
 20
10.932749592269118
 10
92.75659999999999
 20
10.957335930313574
 10
92.75659999999999
 20
15.1837825397203
 10
94.3716
 20
15.1837825397203
  0
LWPOLYLINE
  5
4A
330
17
100
AcDbEntity
  8
POCKET
100
AcDbPolyline
 90
53
 70
1
 10
8.041539792390658
 20
30.77321880626775
 10
8.041539792390658
 20
26.546772196861028
 10
8.06310143216683
 20
26.52218585881657
 10
8.081269448040132
 20
26.49499550156439
 10
8.095732980221843
 20
26.46566635965566
 10
8.106244553666288
 20
26.43470026284002
 10
8.112624312437474
 20
26.4026270496194
 10
8.114763097094022
 20
26.36999550156439
 10
8.112624312437474
 20
26.337363953509378
 10
8.106244553666288
 20
26.30529074028876
 10
8.095732980221843
 20
26.27432464347312
 10
8.081269448040132
 20
26.24499550156439
 10
8.06310143216683
 20
26.21780514431221
 10
8.041539792390658
 20
26.19321880626775
 10
8.0169534543462
 20
26.17165716649158
 10
7.989763097094022
 20
26.15348915061828
 10
7.960433955185294
 20
26.13902561843657
 10
7.929467858369652
 20
26.128514044992123
 10
7.897394645149034
 20
26.122134286220938
 10
7.864763097094022
 20
26.11999550156439
 10
7.832131549039008
 20
26.122134286220938
 10
7.800058335818391
 20
26.128514044992123
 10
7.769092239002749
 20
26.13902561843657
 10
7.739763097094022
 20
26.15348915061828
 10
7.712572739841841
 20
26.17165716649158
 10
7.687986401797384
 20
26.19321880626775
 10
6.78009318298393
 20
26.19321880626775
 10
6.7555068449394735
 20
26.17165716649158
 10
6.728316487687293
 20
26.15348915061828
 10
6.698987345778566
 20
26.13902561843657
 10
6.668021248962924
 20
26.128514044992123
 10
6.635948035742306
 20
26.122134286220938
 10
6.603316487687293
 20
26.11999550156439
 10
6.57068493963228
 20
26.122134286220938
 10
6.538611726411663
 20
26.128514044992123
 10
6.507645629596021
 20
26.13902561843657
 10
6.478316487687293
 20
26.15348915061828
 10
6.451126130435113
 20
26.17165716649158
 10
6.426539792390656
 20
26.19321880626775
 10
6.404978152614484
 20
26.21780514431221
 10
6.386810136741183
 20
26.24499550156439
 10
6.372346604559471
 20
26.27432464347312
 10
6.361835031115026
 20
26.305290740288758
 10
6.355455272343841
 20
26.337363953509378
 10
6.353316487687293
 20
26.36999550156439
 10
6.355455272343841
 20
26.4026270496194
 10
6.361835031115026
 20
26.43470026284002
 10
6.372346604559471
 20
26.46566635965566
 10
6.386810136741183
 20
26.49499550156439
 10
6.404978152614484
 20
26.52218585881657
 10
6.426539792390656
 20
26.546772196861028
 10
6.426539792390656
 20
30.77321880626775
 10
8.041539792390658
 20
30.77321880626775
  0
LWPOLYLINE
  5
4B
330
17
100
AcDbEntity
  8
POCKET
100
AcDbPolyline
 90
53
 70
1
 10
21.466539792390655
 20
30.77321880626775
 10
21.466539792390655
 20
26.546772196861028
 10
21.48810143216683
 20
26.52218585881657
 10
21.50626944804013
 20
26.49499550156439
 10
21.52073298022184
 20
26.46566635965566
 10
21.531244553666287
 20
26.43470026284002
 10
21.537624312437472
 20
26.4026270496194
 10
21.539763097094017
 20
26.36999550156439
 10
21.537624312437472
 20
26.337363953509378
 10
21.531244553666287
 20
26.30529074028876
 10
21.52073298022184
 20
26.27432464347312
 10
21.50626944804013
 20
26.24499550156439
 10
21.48810143216683
 20
26.21780514431221
 10
21.466539792390655
 20
26.19321880626775
 10
21.441953454346198
 20
26.17165716649158
 10
21.414763097094017
 20
26.15348915061828
 10
21.38543395518529
 20
26.13902561843657
 10
21.35446785836965
 20
26.128514044992123
 10
21.322394645149032
 20
26.122134286220938
 10
21.289763097094017
 20
26.11999550156439
 10
21.257131549039006
 20
26.122134286220938
 10
21.22505833581839
 20
26.128514044992123
 10
21.194092239002746
 20
26.13902561843657
 10
21.164763097094017
 20
26.15348915061828
 10
21.13757273984184
 20
26.17165716649158
 10
21.112986401797382
 20
26.19321880626775
 10
20.205093182983926
 20
26.19321880626775
 10
20.18050684493947
 20
26.17165716649158
 10
20.15331648768729
 20
26.15348915061828
 10
20.123987345778563
 20
26.13902561843657
 10
20.09302124896292
 20
26.128514044992123
 10
20.060948035742303
 20
26.122134286220938
 10
20.02831648768729
 20
26.11999550156439
 10
19.995684939632277
 20
26.122134286220938
 10
19.96361172641166
 20
26.128514044992123
 10
19.932645629596017
 20
26.13902561843657
 10
19.90331648768729
 20
26.15348915061828
 10
19.87612613043511
 20
26.17165716649158
 10
19.851539792390653
 20
26.19321880626775
 10
19.82997815261448
 20
26.21780514431221
 10
19.81181013674118
 20
26.24499550156439
 10
19.79734660455947
 20
26.27432464347312
 10
19.78683503111502
 20
26.305290740288758
 10
19.780455272343836
 20
26.337363953509378
 10
19.77831648768729
 20
26.36999550156439
 10
19.780455272343836
 20
26.4026270496194
 10
19.78683503111502
 20
26.43470026284002
 10
19.79734660455947
 20
26.46566635965566
 10
19.81181013674118
 20
26.49499550156439
 10
19.82997815261448
 20
26.52218585881657
 10
19.851539792390653
 20
26.546772196861028
 10
19.851539792390653
 20
30.77321880626775
 10
21.466539792390655
 20
30.77321880626775
  0
LWPOLYLINE
  5
4C
330
17
100
AcDbEntity
  8
POCKET
100
AcDbPolyline
 90
53
 70
1
 10
30.616539792390654
 20
30.77321880626775
 10
30.616539792390654
 20
26.546772196861028
 10
30.638101432166827
 20
26.52218585881657
 10
30.656269448040128
 20
26.49499550156439
 10
30.67073298022184
 20
26.46566635965566
 10
30.681244553666286
 20
26.43470026284002
 10
30.68762431243747
 20
26.4026270496194
 10
30.689763097094016
 20
26.36999550156439
 10
30.68762431243747
 20
26.337363953509378
 10
30.681244553666286
 20
26.30529074028876
 10
30.67073298022184
 20
26.27432464347312
 10
30.656269448040128
 20
26.24499550156439
 10
30.638101432166827
 20
26.21780514431221
 10
30.616539792390654
 20
26.19321880626775
 10
30.591953454346196
 20
26.17165716649158
 10
30.564763097094016
 20
26.15348915061828
 10
30.53543395518529
 20
26.13902561843657
 10
30.504467858369647
 20
26.128514044992123
 10
30.47239464514903
 20
26.122134286220938
 10
30.439763097094016
 20
26.11999550156439
 10
30.407131549039004
 20
26.122134286220938
 10
30.375058335818387
 20
26.128514044992123
 10
30.344092239002745
 20
26.13902561843657
 10
30.314763097094016
 20
26.15348915061828
 10
30.28757273984184
 20
26.17165716649158
 10
30.26298640179738
 20
26.19321880626775
 10
29.355093182983925
 20
26.19321880626775
 10
29.330506844939467
 20
26.17165716649158
 10
29.30331648768729
 20
26.15348915061828
 10
29.27398734577856
 20
26.13902561843657
 10
29.24302124896292
 20
26.128514044992123
 10
29.2109480357423
 20
26.122134286220938
 10
29.17831648768729
 20
26.11999550156439
 10
29.145684939632275
 20
26.122134286220938
 10
29.11361172641166
 20
26.128514044992123
 10
29.082645629596016
 20
26.13902561843657
 10
29.05331648768729
 20
26.15348915061828
 10
29.02612613043511
 20
26.17165716649158
 10
29.001539792390652
 20
26.19321880626775
 10
28.97997815261448
 20
26.21780514431221
 10
28.961810136741178
 20
26.24499550156439
 10
28.947346604559467
 20
26.27432464347312
 10
28.93683503111502
 20
26.305290740288758
 10
28.930455272343835
 20
26.337363953509378
 10
28.92831648768729
 20
26.36999550156439
 10
28.930455272343835
 20
26.4026270496194
 10
28.93683503111502
 20
26.43470026284002
 10
28.947346604559467
 20
26.46566635965566
 10
28.961810136741178
 20
26.49499550156439
 10
28.97997815261448
 20
26.52218585881657
 10
29.001539792390652
 20
26.546772196861028
 10
29.001539792390652
 20
30.77321880626775
 10
30.616539792390654
 20
30.77321880626775
  0
LWPOLYLINE
  5
4D
330
17
100
AcDbEntity
  8
POCKET
100
AcDbPolyline
 90
53
 70
1
 10
57.2427
 20
26.473400926887763
 10
57.2427
 20
30.699847536294484
 10
57.221138360223826
 20
30.724433874338942
 10
57.202970344350526
 20
30.751624231591123
 10
57.18850681216882
 20
30.78095337349985
 10
57.17799523872437
 20
30.81191947031549
 10
57.17161547995318
 20
30.84399268353611
 10
57.16947669529664
 20
30.876624231591123
 10
57.17161547995318
 20
30.909255779646134
 10
57.17799523872437
 20
30.94132899286675
 10
57.18850681216882
 20
30.972295089682394
 10
57.202970344350526
 20
31.001624231591123
 10
57.221138360223826
 20
31.028814588843304
 10
57.2427
 20
31.05340092688776
 10
57.26728633804446
 20
31.07496256666393
 10
57.29447669529664
 20
31.09313058253723
 10
57.32380583720536
 20
31.107594114718943
 10
57.354771934021
 20
31.11810568816339
 10
57.38684514724162
 20
31.124485446934575
 10
57.41947669529664
 20
31.126624231591123
 10
57.452108243351645
 20
31.124485446934575
 10
57.484181456572266
 20
31.11810568816339
 10
57.515147553387905
 20
31.107594114718943
 10
57.54447669529664
 20
31.09313058253723
 10
57.57166705254882
 20
31.07496256666393
 10
57.596253390593276
 20
31.05340092688776
 10
58.50414660940672
 20
31.05340092688776
 10
58.528732947451175
 20
31.07496256666393
 10
58.555923304703356
 20
31.09313058253723
 10
58.58525244661209
 20
31.107594114718943
 10
58.61621854342773
 20
31.11810568816339
 10
58.64829175664835
 20
31.124485446934575
 10
58.680923304703356
 20
31.126624231591123
 10
58.71355485275837
 20
31.124485446934575
 10
58.745628065978984
 20
31.11810568816339
 10
58.77659416279463
 20
31.107594114718943
 10
58.805923304703356
 20
31.09313058253723
 10
58.83311366195554
 20
31.07496256666393
 10
58.857699999999994
 20
31.05340092688776
 10
58.87926163977617
 20
31.028814588843304
 10
58.89742965564947
 20
31.001624231591123
 10
58.911893187831176
 20
30.972295089682394
 10
58.92240476127562
 20
30.941328992866755
 10
58.92878452004681
 20
30.909255779646134
 10
58.930923304703356
 20
30.876624231591123
 10
58.92878452004681
 20
30.84399268353611
 10
58.92240476127562
 20
30.81191947031549
 10
58.911893187831176
 20
30.78095337349985
 10
58.89742965564947
 20
30.751624231591123
 10
58.87926163977617
 20
30.724433874338942
 10
58.857699999999994
 20
30.699847536294484
 10
58.857699999999994
 20
26.473400926887763
 10
57.2427
 20
26.473400926887763
  0
LWPOLYLINE
  5
4E
330
17
100
AcDbEntity
  8
POCKET
100
AcDbPolyline
 90
53
 70
1
 10
43.8177
 20
26.473400926887763
 10
43.8177
 20
30.699847536294484
 10
43.79613836022383
 20
30.724433874338942
 10
43.77797034435053
 20
30.751624231591123
 10
43.76350681216882
 20
30.78095337349985
 10
43.752995238724374
 20
30.81191947031549
 10
43.746615479953185
 20
30.84399268353611
 10
43.74447669529664
 20
30.876624231591123
 10
43.746615479953185
 20
30.909255779646134
 10
43.752995238724374
 20
30.94132899286675
 10
43.76350681216882
 20
30.972295089682394
 10
43.77797034435053
 20
31.001624231591123
 10
43.79613836022383
 20
31.028814588843304
 10
43.8177
 20
31.05340092688776
 10
43.84228633804446
 20
31.07496256666393
 10
43.86947669529664
 20
31.09313058253723
 10
43.898805837205366
 20
31.107594114718943
 10
43.929771934021005
 20
31.11810568816339
 10
43.961845147241625
 20
31.124485446934575
 10
43.99447669529664
 20
31.126624231591123
 10
44.02710824335165
 20
31.124485446934575
 10
44.05918145657227
 20
31.11810568816339
 10
44.09014755338791
 20
31.107594114718943
 10
44.11947669529664
 20
31.09313058253723
 10
44.14666705254882
 20
31.07496256666393
 10
44.17125339059328
 20
31.05340092688776
 10
45.07914660940672
 20
31.05340092688776
 10
45.10373294745118
 20
31.07496256666393
 10
45.13092330470336
 20
31.09313058253723
 10
45.16025244661209
 20
31.107594114718943
 10
45.19121854342773
 20
31.11810568816339
 10
45.22329175664835
 20
31.124485446934575
 10
45.25592330470336
 20
31.126624231591123
 10
45.288554852758374
 20
31.124485446934575
 10
45.32062806597899
 20
31.11810568816339
 10
45.35159416279463
 20
31.107594114718943
 10
45.38092330470336
 20
31.09313058253723
 10
45.40811366195554
 20
31.07496256666393
 10
45.4327
 20
31.05340092688776
 10
45.45426163977617
 20
31.028814588843304
 10
45.47242965564947
 20
31.001624231591123
 10
45.48689318783118
 20
30.972295089682394
 10
45.497404761275625
 20
30.941328992866755
 10
45.503784520046814
 20
30.909255779646134
 10
45.50592330470336
 20
30.876624231591123
 10
45.503784520046814
 20
30.84399268353611
 10
45.497404761275625
 20
30.81191947031549
 10
45.48689318783118
 20
30.78095337349985
 10
45.47242965564947
 20
30.751624231591123
 10
45.45426163977617
 20
30.724433874338942
 10
45.4327
 20
30.699847536294484
 10
45.4327
 20
26.473400926887763
 10
43.8177
 20
26.473400926887763
  0
LWPOLYLINE
  5
4F
330
17
100
AcDbEntity
  8
POCKET
100
AcDbPolyline
 90
53
 70
1
 10
34.667699999999996
 20
26.473400926887763
 10
34.667699999999996
 20
30.699847536294484
 10
34.64613836022382
 20
30.724433874338942
 10
34.62797034435052
 20
30.751624231591123
 10
34.613506812168815
 20
30.78095337349985
 10
34.60299523872437
 20
30.81191947031549
 10
34.59661547995318
 20
30.84399268353611
 10
34.594476695296635
 20
30.876624231591123
 10
34.59661547995318
 20
30.909255779646134
 10
34.60299523872437
 20
30.94132899286675
 10
34.613506812168815
 20
30.972295089682394
 10
34.62797034435052
 20
31.001624231591123
 10
34.64613836022382
 20
31.028814588843304
 10
34.667699999999996
 20
31.05340092688776
 10
34.692286338044454
 20
31.07496256666393
 10
34.719476695296635
 20
31.09313058253723
 10
34.74880583720536
 20
31.107594114718943
 10
34.779771934021
 20
31.11810568816339
 10
34.81184514724162
 20
31.124485446934575
 10
34.844476695296635
 20
31.126624231591123
 10
34.87710824335164
 20
31.124485446934575
 10
34.90918145657226
 20
31.11810568816339
 10
34.9401475533879
 20
31.107594114718943
 10
34.969476695296635
 20
31.09313058253723
 10
34.996667052548815
 20
31.07496256666393
 10
35.02125339059327
 20
31.05340092688776
 10
35.92914660940673
 20
31.05340092688776
 10
35.953732947451186
 20
31.07496256666393
 10
35.98092330470337
 20
31.09313058253723
 10
36.0102524466121
 20
31.107594114718943
 10
36.04121854342774
 20
31.11810568816339
 10
36.07329175664836
 20
31.124485446934575
 10
36.10592330470337
 20
31.126624231591123
 10
36.13855485275838
 20
31.124485446934575
 10
36.170628065978995
 20
31.11810568816339
 10
36.20159416279464
 20
31.107594114718943
 10
36.23092330470337
 20
31.09313058253723
 10
36.25811366195555
 20
31.07496256666393
 10
36.282700000000006
 20
31.05340092688776
 10
36.30426163977618
 20
31.028814588843304
 10
36.32242965564948
 20
31.001624231591123
 10
36.33689318783119
 20
30.972295089682394
 10
36.347404761275634
 20
30.941328992866755
 10
36.35378452004682
 20
30.909255779646134
 10
36.35592330470337
 20
30.876624231591123
 10
36.35378452004682
 20
30.84399268353611
 10
36.347404761275634
 20
30.81191947031549
 10
36.33689318783119
 20
30.78095337349985
 10
36.32242965564948
 20
30.751624231591123
 10
36.30426163977618
 20
30.724433874338942
 10
36.282700000000006
 20
30.699847536294484
 10
36.282700000000006
 20
26.473400926887763
 10
34.667699999999996
 20
26.473400926887763
  0
LWPOLYLINE
  5
50
330
17
100
AcDbEntity
  8
POCKET
100
AcDbPolyline
 90
53
 70
1
 10
40.2989
 20
26.52832790885516
 10
40.2989
 20
22.301881299448436
 10
40.32046163977617
 20
22.277294961403978
 10
40.33862965564947
 20
22.250104604151797
 10
40.353093187831185
 20
22.22077546224307
 10
40.36360476127563
 20
22.18980936542743
 10
40.36998452004681
 20
22.15773615220681
 10
40.372123304703365
 20
22.125104604151797
 10
40.36998452004681
 20
22.092473056096786
 10
40.36360476127563
 20
22.060399842876166
 10
40.353093187831185
 20
22.029433746060526
 10
40.33862965564947
 20
22.000104604151797
 10
40.32046163977617
 20
21.972914246899617
 10
40.2989
 20
21.94832790885516
 10
40.274313661955546
 20
21.92676626907899
 10
40.247123304703365
 20
21.90859825320569
 10
40.21779416279463
 20
21.894134721023974
 10
40.18682806597899
 20
21.88362314757953
 10
40.15475485275837
 20
21.877243388808346
 10
40.122123304703365
 20
21.875104604151797
 10
40.08949175664835
 20
21.877243388808346
 10
40.05741854342773
 20
21.88362314757953
 10
40.02645244661209
 20
21.894134721023974
 10
39.997123304703365
 20
21.90859825320569
 10
39.969932947451184
 20
21.92676626907899
 10
39.94534660940673
 20
21.94832790885516
 10
39.03745339059327
 20
21.94832790885516
 10
39.01286705254881
 20
21.92676626907899
 10
38.98567669529663
 20
21.90859825320569
 10
38.95634755338791
 20
21.894134721023974
 10
38.92538145657227
 20
21.88362314757953
 10
38.89330824335165
 20
21.877243388808346
 10
38.86067669529663
 20
21.875104604151797
 10
38.828045147241625
 20
21.877243388808346
 10
38.795971934021004
 20
21.88362314757953
 10
38.765005837205365
 20
21.894134721023974
 10
38.73567669529663
 20
21.90859825320569
 10
38.70848633804445
 20
21.92676626907899
 10
38.683899999999994
 20
21.94832790885516
 10
38.66233836022383
 20
21.972914246899617
 10
38.64417034435053
 20
22.000104604151797
 10
38.62970681216881
 20
22.029433746060526
 10
38.619195238724366
 20
22.060399842876166
 10
38.612815479953184
 20
22.092473056096786
 10
38.61067669529663
 20
22.125104604151797
 10
38.612815479953184
 20
22.15773615220681
 10
38.619195238724366
 20
22.18980936542743
 10
38.62970681216881
 20
22.22077546224307
 10
38.64417034435053
 20
22.250104604151797
 10
38.66233836022383
 20
22.277294961403978
 10
38.683899999999994
 20
22.301881299448436
 10
38.683899999999994
 20
26.52832790885516
 10
40.2989
 20
26.52832790885516
  0
LWPOLYLINE
  5
51
330
17
100
AcDbEntity
  8
POCKET
100
AcDbPolyline
 90
53
 70
1
 10
53.7239
 20
26.52832790885516
 10
53.7239
 20
22.301881299448436
 10
53.745461639776174
 20
22.277294961403978
 10
53.763629655649474
 20
22.250104604151797
 10
53.77809318783118
 20
22.22077546224307
 10
53.78860476127563
 20
22.18980936542743
 10
53.79498452004682
 20
22.15773615220681
 10
53.79712330470336
 20
22.125104604151797
 10
53.79498452004682
 20
22.092473056096786
 10
53.78860476127563
 20
22.060399842876166
 10
53.77809318783118
 20
22.029433746060526
 10
53.763629655649474
 20
22.000104604151797
 10
53.745461639776174
 20
21.972914246899617
 10
53.7239
 20
21.94832790885516
 10
53.69931366195554
 20
21.92676626907899
 10
53.67212330470336
 20
21.90859825320569
 10
53.64279416279464
 20
21.894134721023974
 10
53.611828065979
 20
21.88362314757953
 10
53.57975485275838
 20
21.877243388808346
 10
53.54712330470336
 20
21.875104604151797
 10
53.514491756648354
 20
21.877243388808346
 10
53.482418543427734
 20
21.88362314757953
 10
53.451452446612095
 20
21.894134721023974
 10
53.42212330470336
 20
21.90859825320569
 10
53.39493294745118
 20
21.92676626907899
 10
53.370346609406724
 20
21.94832790885516
 10
52.46245339059327
 20
21.94832790885516
 10
52.43786705254881
 20
21.92676626907899
 10
52.41067669529663
 20
21.90859825320569
 10
52.3813475533879
 20
21.894134721023974
 10
52.35038145657226
 20
21.88362314757953
 10
52.31830824335164
 20
21.877243388808346
 10
52.28567669529663
 20
21.875104604151797
 10
52.253045147241615
 20
21.877243388808346
 10
52.220971934021
 20
21.88362314757953
 10
52.190005837205355
 20
21.894134721023974
 10
52.16067669529663
 20
21.90859825320569
 10
52.13348633804445
 20
21.92676626907899
 10
52.10889999999999
 20
21.94832790885516
 10
52.08733836022382
 20
21.972914246899617
 10
52.06917034435052
 20
22.000104604151797
 10
52.05470681216881
 20
22.029433746060526
 10
52.04419523872436
 20
22.060399842876166
 10
52.037815479953174
 20
22.092473056096786
 10
52.03567669529663
 20
22.125104604151797
 10
52.037815479953174
 20
22.15773615220681
 10
52.04419523872436
 20
22.18980936542743
 10
52.05470681216881
 20
22.22077546224307
 10
52.06917034435052
 20
22.250104604151797
 10
52.08733836022382
 20
22.277294961403978
 10
52.10889999999999
 20
22.301881299448436
 10
52.10889999999999
 20
26.52832790885516
 10
53.7239
 20
26.52832790885516
  0
LWPOLYLINE
  5
52
330
17
100
AcDbEntity
  8
POCKET
100
AcDbPolyline
 90
53
 70
1
 10
62.87389999999999
 20
26.52832790885516
 10
62.87389999999999
 20
22.301881299448436
 10
62.895461639776165
 20
22.277294961403978
 10
62.913629655649466
 20
22.250104604151797
 10
62.92809318783117
 20
22.22077546224307
 10
62.93860476127562
 20
22.18980936542743
 10
62.94498452004681
 20
22.15773615220681
 10
62.947123304703354
 20
22.125104604151797
 10
62.94498452004681
 20
22.092473056096786
 10
62.93860476127562
 20
22.060399842876166
 10
62.92809318783117
 20
22.029433746060526
 10
62.913629655649466
 20
22.000104604151797
 10
62.895461639776165
 20
21.972914246899617
 10
62.87389999999999
 20
21.94832790885516
 10
62.849313661955534
 20
21.92676626907899
 10
62.822123304703354
 20
21.90859825320569
 10
62.79279416279463
 20
21.894134721023974
 10
62.76182806597899
 20
21.88362314757953
 10
62.72975485275837
 20
21.877243388808346
 10
62.697123304703354
 20
21.875104604151797
 10
62.664491756648346
 20
21.877243388808346
 10
62.632418543427725
 20
21.88362314757953
 10
62.601452446612086
 20
21.894134721023974
 10
62.572123304703354
 20
21.90859825320569
 10
62.54493294745117
 20
21.92676626907899
 10
62.520346609406715
 20
21.94832790885516
 10
61.612453390593274
 20
21.94832790885516
 10
61.587867052548816
 20
21.92676626907899
 10
61.560676695296635
 20
21.90859825320569
 10
61.5313475533879
 20
21.894134721023974
 10
61.50038145657226
 20
21.88362314757953
 10
61.46830824335164
 20
21.877243388808346
 10
61.435676695296635
 20
21.875104604151797
 10
61.40304514724162
 20
21.877243388808346
 10
61.37097193402101
 20
21.88362314757953
 10
61.34000583720536
 20
21.894134721023974
 10
61.310676695296635
 20
21.90859825320569
 10
61.283486338044455
 20
21.92676626907899
 10
61.2589
 20
21.94832790885516
 10
61.23733836022382
 20
21.972914246899617
 10
61.21917034435052
 20
22.000104604151797
 10
61.204706812168816
 20
22.029433746060526
 10
61.19419523872437
 20
22.060399842876166
 10
61.18781547995318
 20
22.092473056096786
 10
61.185676695296635
 20
22.125104604151797
 10
61.18781547995318
 20
22.15773615220681
 10
61.19419523872437
 20
22.18980936542743
 10
61.204706812168816
 20
22.22077546224307
 10
61.21917034435052
 20
22.250104604151797
 10
61.23733836022382
 20
22.277294961403978
 10
61.2589
 20
22.301881299448436
 10
61.2589
 20
26.52832790885516
 10
62.87389999999999
 20
26.52832790885516
  0
LWPOLYLINE
  5
53
330
17
100
AcDbEntity
  8
POCKET
100
AcDbPolyline
 90
53
 70
1
 10
40.990070576752885
 20
13.292103987299383
 10
40.990070576752885
 20
9.065657377892657
 10
41.01163221652906
 20
9.041071039848202
 10
41.02980023240236
 20
9.013880682596021
 10
41.044263764584066
 20
8.984551540687294
 10
41.05477533802851
 20
8.953585443871651
 10
41.0611550967997
 20
8.921512230651034
 10
41.06329388145625
 20
8.888880682596021
 10
41.0611550967997
 20
8.856249134541008
 10
41.05477533802851
 20
8.824175921320391
 10
41.044263764584066
 20
8.793209824504748
 10
41.02980023240236
 20
8.763880682596021
 10
41.01163221652906
 20
8.73669032534384
 10
40.990070576752885
 20
8.712103987299384
 10
40.96548423870843
 20
8.690542347523213
 10
40.93829388145625
 20
8.672374331649912
 10
40.90896473954752
 20
8.6579107994682
 10
40.87799864273188
 20
8.647399226023754
 10
40.84592542951126
 20
8.641019467252569
 10
40.81329388145625
 20
8.638880682596021
 10
40.78066233340124
 20
8.641019467252569
 10
40.74858912018062
 20
8.647399226023754
 10
40.71762302336498
 20
8.6579107994682
 10
40.68829388145625
 20
8.672374331649912
 10
40.661103524204066
 20
8.690542347523213
 10
40.63651718615961
 20
8.712103987299384
 10
39.72862396734617
 20
8.712103987299384
 10
39.70403762930171
 20
8.690542347523213
 10
39.67684727204953
 20
8.672374331649912
 10
39.647518130140796
 20
8.6579107994682
 10
39.616552033325156
 20
8.647399226023754
 10
39.584478820104536
 20
8.641019467252569
 10
39.55184727204953
 20
8.638880682596021
 10
39.51921572399451
 20
8.641019467252569
 10
39.4871425107739
 20
8.647399226023754
 10
39.456176413958254
 20
8.6579107994682
 10
39.42684727204953
 20
8.672374331649912
 10
39.39965691479735
 20
8.690542347523213
 10
39.37507057675289
 20
8.712103987299384
 10
39.353508936976716
 20
8.73669032534384
 10
39.335340921103416
 20
8.763880682596021
 10
39.32087738892171
 20
8.793209824504748
 10
39.31036581547726
 20
8.824175921320391
 10
39.30398605670607
 20
8.856249134541008
 10
39.30184727204953
 20
8.888880682596021
 10
39.30398605670607
 20
8.921512230651034
 10
39.31036581547726
 20
8.953585443871651
 10
39.32087738892171
 20
8.984551540687294
 10
39.335340921103416
 20
9.013880682596021
 10
39.353508936976716
 20
9.041071039848202
 10
39.37507057675289
 20
9.065657377892657
 10
39.37507057675289
 20
13.292103987299383
 10
40.990070576752885
 20
13.292103987299383
  0
LWPOLYLINE
  5
54
330
17
100
AcDbEntity
  8
POCKET
100
AcDbPolyline
 90
53
 70
1
 10
54.415070576752896
 20
13.292103987299383
 10
54.415070576752896
 20
9.065657377892657
 10
54.43663221652906
 20
9.041071039848202
 10
54.45480023240236
 20
9.013880682596021
 10
54.46926376458408
 20
8.984551540687294
 10
54.479775338028524
 20
8.953585443871651
 10
54.486155096799706
 20
8.921512230651034
 10
54.48829388145626
 20
8.888880682596021
 10
54.486155096799706
 20
8.856249134541008
 10
54.479775338028524
 20
8.824175921320391
 10
54.46926376458408
 20
8.793209824504748
 10
54.45480023240236
 20
8.763880682596021
 10
54.43663221652906
 20
8.73669032534384
 10
54.415070576752896
 20
8.712103987299384
 10
54.39048423870844
 20
8.690542347523213
 10
54.36329388145626
 20
8.672374331649912
 10
54.333964739547525
 20
8.6579107994682
 10
54.302998642731886
 20
8.647399226023754
 10
54.270925429511266
 20
8.641019467252569
 10
54.23829388145626
 20
8.638880682596021
 10
54.20566233340124
 20
8.641019467252569
 10
54.17358912018062
 20
8.647399226023754
 10
54.14262302336498
 20
8.6579107994682
 10
54.11329388145626
 20
8.672374331649912
 10
54.08610352420408
 20
8.690542347523213
 10
54.06151718615962
 20
8.712103987299384
 10
53.153623967346164
 20
8.712103987299384
 10
53.129037629301706
 20
8.690542347523213
 10
53.101847272049525
 20
8.672374331649912
 10
53.0725181301408
 20
8.6579107994682
 10
53.04155203332516
 20
8.647399226023754
 10
53.00947882010454
 20
8.641019467252569
 10
52.976847272049525
 20
8.638880682596021
 10
52.94421572399452
 20
8.641019467252569
 10
52.9121425107739
 20
8.647399226023754
 10
52.88117641395826
 20
8.6579107994682
 10
52.851847272049525
 20
8.672374331649912
 10
52.824656914797345
 20
8.690542347523213
 10
52.80007057675289
 20
8.712103987299384
 10
52.77850893697672
 20
8.73669032534384
 10
52.76034092110342
 20
8.763880682596021
 10
52.745877388921706
 20
8.793209824504748
 10
52.73536581547726
 20
8.824175921320391
 10
52.72898605670608
 20
8.856249134541008
 10
52.726847272049525
 20
8.888880682596021
 10
52.72898605670608
 20
8.921512230651034
 10
52.73536581547726
 20
8.953585443871651
 10
52.745877388921706
 20
8.984551540687294
 10
52.76034092110342
 20
9.013880682596021
 10
52.77850893697672
 20
9.041071039848202
 10
52.80007057675289
 20
9.065657377892657
 10
52.80007057675289
 20
13.292103987299383
 10
54.415070576752896
 20
13.292103987299383
  0
LWPOLYLINE
  5
55
330
17
100
AcDbEntity
  8
POCKET
100
AcDbPolyline
 90
53
 70
1
 10
63.56507057675289
 20
13.292103987299383
 10
63.56507057675289
 20
9.065657377892657
 10
63.586632216529054
 20
9.041071039848202
 10
63.604800232402354
 20
9.013880682596021
 10
63.61926376458407
 20
8.984551540687294
 10
63.629775338028516
 20
8.953585443871651
 10
63.6361550967997
 20
8.921512230651034
 10
63.63829388145625
 20
8.888880682596021
 10
63.6361550967997
 20
8.856249134541008
 10
63.629775338028516
 20
8.824175921320391
 10
63.61926376458407
 20
8.793209824504748
 10
63.604800232402354
 20
8.763880682596021
 10
63.586632216529054
 20
8.73669032534384
 10
63.56507057675289
 20
8.712103987299384
 10
63.54048423870843
 20
8.690542347523213
 10
63.51329388145625
 20
8.672374331649912
 10
63.48396473954752
 20
8.6579107994682
 10
63.45299864273188
 20
8.647399226023754
 10
63.42092542951126
 20
8.641019467252569
 10
63.38829388145625
 20
8.638880682596021
 10
63.355662333401234
 20
8.641019467252569
 10
63.323589120180614
 20
8.647399226023754
 10
63.292623023364975
 20
8.6579107994682
 10
63.26329388145625
 20
8.672374331649912
 10
63.23610352420407
 20
8.690542347523213
 10
63.21151718615961
 20
8.712103987299384
 10
62.303623967346155
 20
8.712103987299384
 10
62.2790376293017
 20
8.690542347523213
 10
62.25184727204952
 20
8.672374331649912
 10
62.22251813014079
 20
8.6579107994682
 10
62.19155203332515
 20
8.647399226023754
 10
62.15947882010453
 20
8.641019467252569
 10
62.12684727204952
 20
8.638880682596021
 10
62.09421572399451
 20
8.641019467252569
 10
62.06214251077389
 20
8.647399226023754
 10
62.03117641395825
 20
8.6579107994682
 10
62.00184727204952
 20
8.672374331649912
 10
61.974656914797336
 20
8.690542347523213
 10
61.95007057675288
 20
8.712103987299384
 10
61.92850893697671
 20
8.73669032534384
 10
61.91034092110341
 20
8.763880682596021
 10
61.8958773889217
 20
8.793209824504748
 10
61.88536581547725
 20
8.824175921320391
 10
61.87898605670607
 20
8.856249134541008
 10
61.87684727204952
 20
8.888880682596021
 10
61.87898605670607
 20
8.921512230651034
 10
61.88536581547725
 20
8.953585443871651
 10
61.8958773889217
 20
8.984551540687294
 10
61.91034092110341
 20
9.013880682596021
 10
61.92850893697671
 20
9.041071039848202
 10
61.95007057675288
 20
9.065657377892657
 10
61.95007057675288
 20
13.292103987299383
 10
63.56507057675289
 20
13.292103987299383
  0
LWPOLYLINE
  5
56
330
17
100
AcDbEntity
  8
POCKET
100
AcDbPolyline
 90
53
 70
1
 10
57.4927
 20
-0.25496159096194226
 10
57.4927
 20
3.9714850184447825
 10
57.471138360223826
 20
3.996071356489239
 10
57.452970344350526
 20
4.0232617137414195
 10
57.43850681216882
 20
4.052590855650147
 10
57.42799523872437
 20
4.0835569524657895
 10
57.42161547995318
 20
4.115630165686406
 10
57.41947669529664
 20
4.1482617137414195
 10
57.42161547995318
 20
4.180893261796433
 10
57.42799523872437
 20
4.2129664750170495
 10
57.43850681216882
 20
4.243932571832692
 10
57.452970344350526
 20
4.2732617137414195
 10
57.471138360223826
 20
4.3004520709936
 10
57.4927
 20
4.325038409038056
 10
57.51728633804446
 20
4.346600048814229
 10
57.54447669529664
 20
4.364768064687529
 10
57.57380583720536
 20
4.379231596869241
 10
57.604771934021
 20
4.389743170313687
 10
57.63684514724162
 20
4.396122929084872
 10
57.66947669529664
 20
4.3982617137414195
 10
57.702108243351645
 20
4.396122929084872
 10
57.734181456572266
 20
4.389743170313687
 10
57.765147553387905
 20
4.379231596869241
 10
57.79447669529664
 20
4.364768064687529
 10
57.82166705254882
 20
4.346600048814229
 10
57.846253390593276
 20
4.325038409038056
 10
58.75414660940672
 20
4.325038409038056
 10
58.778732947451175
 20
4.346600048814229
 10
58.805923304703356
 20
4.364768064687529
 10
58.83525244661209
 20
4.379231596869241
 10
58.86621854342773
 20
4.389743170313687
 10
58.89829175664835
 20
4.396122929084872
 10
58.930923304703356
 20
4.3982617137414195
 10
58.96355485275837
 20
4.396122929084872
 10
58.995628065978984
 20
4.389743170313687
 10
59.02659416279463
 20
4.379231596869241
 10
59.055923304703356
 20
4.364768064687529
 10
59.08311366195554
 20
4.346600048814229
 10
59.107699999999994
 20
4.325038409038056
 10
59.12926163977617
 20
4.3004520709936
 10
59.14742965564947
 20
4.2732617137414195
 10
59.161893187831176
 20
4.243932571832692
 10
59.17240476127562
 20
4.2129664750170495
 10
59.17878452004681
 20
4.180893261796433
 10
59.180923304703356
 20
4.1482617137414195
 10
59.17878452004681
 20
4.115630165686406
 10
59.17240476127562
 20
4.0835569524657895
 10
59.161893187831176
 20
4.052590855650147
 10
59.14742965564947
 20
4.0232617137414195
 10
59.12926163977617
 20
3.9960713564892396
 10
59.107699999999994
 20
3.9714850184447825
 10
59.107699999999994
 20
-0.25496159096194226
 10
57.4927
 20
-0.25496159096194226
  0
LWPOLYLINE
  5
57
330
17
100
AcDbEntity
  8
POCKET
100
AcDbPolyline
 90
53
 70
1
 10
44.0677
 20
-0.25496159096194226
 10
44.0677
 20
3.9714850184447825
 10
44.04613836022383
 20
3.996071356489239
 10
44.02797034435053
 20
4.0232617137414195
 10
44.01350681216882
 20
4.052590855650147
 10
44.002995238724374
 20
4.0835569524657895
 10
43.996615479953185
 20
4.115630165686406
 10
43.99447669529664
 20
4.1482617137414195
 10
43.996615479953185
 20
4.180893261796433
 10
44.002995238724374
 20
4.2129664750170495
 10
44.01350681216882
 20
4.243932571832692
 10
44.02797034435053
 20
4.2732617137414195
 10
44.04613836022383
 20
4.3004520709936
 10
44.0677
 20
4.325038409038056
 10
44.09228633804446
 20
4.346600048814229
 10
44.11947669529664
 20
4.364768064687529
 10
44.148805837205366
 20
4.379231596869241
 10
44.179771934021005
 20
4.389743170313687
 10
44.211845147241625
 20
4.396122929084872
 10
44.24447669529664
 20
4.3982617137414195
 10
44.27710824335165
 20
4.396122929084872
 10
44.30918145657227
 20
4.389743170313687
 10
44.34014755338791
 20
4.379231596869241
 10
44.36947669529664
 20
4.364768064687529
 10
44.39666705254882
 20
4.346600048814229
 10
44.42125339059328
 20
4.325038409038056
 10
45.32914660940672
 20
4.325038409038056
 10
45.35373294745118
 20
4.346600048814229
 10
45.38092330470336
 20
4.364768064687529
 10
45.41025244661209
 20
4.379231596869241
 10
45.44121854342773
 20
4.389743170313687
 10
45.47329175664835
 20
4.396122929084872
 10
45.50592330470336
 20
4.3982617137414195
 10
45.538554852758374
 20
4.396122929084872
 10
45.57062806597899
 20
4.389743170313687
 10
45.60159416279463
 20
4.379231596869241
 10
45.63092330470336
 20
4.364768064687529
 10
45.65811366195554
 20
4.346600048814229
 10
45.6827
 20
4.325038409038056
 10
45.70426163977617
 20
4.3004520709936
 10
45.72242965564947
 20
4.2732617137414195
 10
45.73689318783118
 20
4.243932571832692
 10
45.747404761275625
 20
4.2129664750170495
 10
45.753784520046814
 20
4.180893261796433
 10
45.75592330470336
 20
4.1482617137414195
 10
45.753784520046814
 20
4.115630165686406
 10
45.747404761275625
 20
4.0835569524657895
 10
45.73689318783118
 20
4.052590855650147
 10
45.72242965564947
 20
4.0232617137414195
 10
45.70426163977617
 20
3.9960713564892396
 10
45.6827
 20
3.9714850184447825
 10
45.6827
 20
-0.25496159096194226
 10
44.0677
 20
-0.25496159096194226
  0
LWPOLYLINE
  5
58
330
17
100
AcDbEntity
  8
POCKET
100
AcDbPolyline
 90
53
 70
1
 10
34.917699999999996
 20
-0.25496159096194226
 10
34.917699999999996
 20
3.9714850184447825
 10
34.89613836022382
 20
3.996071356489239
 10
34.87797034435052
 20
4.0232617137414195
 10
34.863506812168815
 20
4.052590855650147
 10
34.85299523872437
 20
4.0835569524657895
 10
34.84661547995318
 20
4.115630165686406
 10
34.844476695296635
 20
4.1482617137414195
 10
34.84661547995318
 20
4.180893261796433
 10
34.85299523872437
 20
4.2129664750170495
 10
34.863506812168815
 20
4.243932571832692
 10
34.87797034435052
 20
4.2732617137414195
 10
34.89613836022382
 20
4.3004520709936
 10
34.917699999999996
 20
4.325038409038056
 10
34.942286338044454
 20
4.346600048814229
 10
34.969476695296635
 20
4.364768064687529
 10
34.99880583720536
 20
4.379231596869241
 10
35.029771934021
 20
4.389743170313687
 10
35.06184514724162
 20
4.396122929084872
 10
35.094476695296635
 20
4.3982617137414195
 10
35.12710824335164
 20
4.396122929084872
 10
35.15918145657226
 20
4.389743170313687
 10
35.1901475533879
 20
4.379231596869241
 10
35.219476695296635
 20
4.364768064687529
 10
35.246667052548815
 20
4.346600048814229
 10
35.27125339059327
 20
4.325038409038056
 10
36.17914660940673
 20
4.325038409038056
 10
36.203732947451186
 20
4.346600048814229
 10
36.23092330470337
 20
4.364768064687529
 10
36.2602524466121
 20
4.379231596869241
 10
36.29121854342774
 20
4.389743170313687
 10
36.32329175664836
 20
4.396122929084872
 10
36.35592330470337
 20
4.3982617137414195
 10
36.38855485275838
 20
4.396122929084872
 10
36.420628065978995
 20
4.389743170313687
 10
36.45159416279464
 20
4.379231596869241
 10
36.48092330470337
 20
4.364768064687529
 10
36.50811366195555
 20
4.346600048814229
 10
36.532700000000006
 20
4.325038409038056
 10
36.55426163977618
 20
4.3004520709936
 10
36.57242965564948
 20
4.2732617137414195
 10
36.58689318783119
 20
4.243932571832692
 10
36.597404761275634
 20
4.2129664750170495
 10
36.60378452004682
 20
4.180893261796433
 10
36.60592330470337
 20
4.1482617137414195
 10
36.60378452004682
 20
4.115630165686406
 10
36.597404761275634
 20
4.0835569524657895
 10
36.58689318783119
 20
4.052590855650147
 10
36.57242965564948
 20
4.0232617137414195
 10
36.55426163977618
 20
3.9960713564892396
 10
36.532700000000006
 20
3.9714850184447825
 10
36.532700000000006
 20
-0.25496159096194226
 10
34.917699999999996
 20
-0.25496159096194226
  0
LWPOLYLINE
  5
59
330
17
100
AcDbEntity
  8
POCKET
100
AcDbPolyline
 90
53
 70
1
 10
40.476
 20
40.0957176981163
 10
40.476
 20
35.86927108870958
 10
40.49756163977617
 20
35.844684750665124
 10
40.51572965564947
 20
35.81749439341294
 10
40.53019318783118
 20
35.78816525150422
 10
40.54070476127563
 20
35.75719915468857
 10
40.547084520046816
 20
35.72512594146796
 10
40.54922330470336
 20
35.69249439341294
 10
40.547084520046816
 20
35.65986284535793
 10
40.54070476127563
 20
35.627789632137315
 10
40.53019318783118
 20
35.59682353532167
 10
40.51572965564947
 20
35.56749439341294
 10
40.49756163977617
 20
35.54030403616076
 10
40.476
 20
35.515717698116305
 10
40.45141366195554
 20
35.49415605834013
 10
40.42422330470336
 20
35.47598804246683
 10
40.394894162794635
 20
35.46152451028512
 10
40.363928065978996
 20
35.45101293684068
 10
40.331854852758376
 20
35.44463317806949
 10
40.29922330470336
 20
35.44249439341294
 10
40.26659175664835
 20
35.44463317806949
 10
40.23451854342773
 20
35.45101293684068
 10
40.20355244661209
 20
35.46152451028512
 10
40.17422330470336
 20
35.47598804246683
 10
40.14703294745118
 20
35.49415605834013
 10
40.12244660940672
 20
35.515717698116305
 10
39.21455339059328
 20
35.515717698116305
 10
39.18996705254882
 20
35.49415605834013
 10
39.16277669529664
 20
35.47598804246683
 10
39.13344755338791
 20
35.46152451028512
 10
39.10248145657227
 20
35.45101293684068
 10
39.07040824335165
 20
35.44463317806949
 10
39.03777669529664
 20
35.44249439341294
 10
39.00514514724163
 20
35.44463317806949
 10
38.973071934021014
 20
35.45101293684068
 10
38.94210583720537
 20
35.46152451028512
 10
38.91277669529664
 20
35.47598804246683
 10
38.88558633804446
 20
35.49415605834013
 10
38.861000000000004
 20
35.515717698116305
 10
38.83943836022383
 20
35.54030403616076
 10
38.82127034435053
 20
35.56749439341294
 10
38.80680681216882
 20
35.59682353532167
 10
38.796295238724376
 20
35.627789632137315
 10
38.78991547995319
 20
35.65986284535793
 10
38.78777669529664
 20
35.69249439341294
 10
38.78991547995319
 20
35.72512594146796
 10
38.796295238724376
 20
35.75719915468857
 10
38.80680681216882
 20
35.78816525150422
 10
38.82127034435053
 20
35.81749439341294
 10
38.83943836022383
 20
35.844684750665124
 10
38.861000000000004
 20
35.86927108870958
 10
38.861000000000004
 20
40.0957176981163
 10
40.476
 20
40.0957176981163
  0
LWPOLYLINE
  5
5A
330
17
100
AcDbEntity
  8
POCKET
100
AcDbPolyline
 90
53
 70
1
 10
53.900999999999996
 20
40.0957176981163
 10
53.900999999999996
 20
35.86927108870958
 10
53.92256163977617
 20
35.844684750665124
 10
53.94072965564947
 20
35.81749439341294
 10
53.95519318783118
 20
35.78816525150422
 10
53.965704761275624
 20
35.75719915468857
 10
53.97208452004681
 20
35.72512594146796
 10
53.97422330470336
 20
35.69249439341294
 10
53.97208452004681
 20
35.65986284535793
 10
53.965704761275624
 20
35.627789632137315
 10
53.95519318783118
 20
35.59682353532167
 10
53.94072965564947
 20
35.56749439341294
 10
53.92256163977617
 20
35.54030403616076
 10
53.900999999999996
 20
35.515717698116305
 10
53.87641366195554
 20
35.49415605834013
 10
53.84922330470336
 20
35.47598804246683
 10
53.81989416279463
 20
35.46152451028512
 10
53.78892806597899
 20
35.45101293684068
 10
53.75685485275837
 20
35.44463317806949
 10
53.72422330470336
 20
35.44249439341294
 10
53.69159175664835
 20
35.44463317806949
 10
53.65951854342773
 20
35.45101293684068
 10
53.62855244661209
 20
35.46152451028512
 10
53.59922330470336
 20
35.47598804246683
 10
53.57203294745118
 20
35.49415605834013
 10
53.54744660940672
 20
35.515717698116305
 10
52.63955339059328
 20
35.515717698116305
 10
52.61496705254882
 20
35.49415605834013
 10
52.58777669529664
 20
35.47598804246683
 10
52.55844755338791
 20
35.46152451028512
 10
52.52748145657227
 20
35.45101293684068
 10
52.49540824335165
 20
35.44463317806949
 10
52.46277669529664
 20
35.44249439341294
 10
52.430145147241625
 20
35.44463317806949
 10
52.39807193402101
 20
35.45101293684068
 10
52.367105837205365
 20
35.46152451028512
 10
52.33777669529664
 20
35.47598804246683
 10
52.31058633804446
 20
35.49415605834013
 10
52.286
 20
35.515717698116305
 10
52.26443836022383
 20
35.54030403616076
 10
52.24627034435053
 20
35.56749439341294
 10
52.23180681216882
 20
35.59682353532167
 10
52.22129523872437
 20
35.627789632137315
 10
52.214915479953184
 20
35.65986284535793
 10
52.21277669529664
 20
35.69249439341294
 10
52.214915479953184
 20
35.72512594146796
 10
52.22129523872437
 20
35.75719915468857
 10
52.23180681216882
 20
35.78816525150422
 10
52.24627034435053
 20
35.81749439341294
 10
52.26443836022383
 20
35.844684750665124
 10
52.286
 20
35.86927108870958
 10
52.286
 20
40.0957176981163
 10
53.900999999999996
 20
40.0957176981163
  0
LWPOLYLINE
  5
5B
330
17
100
AcDbEntity
  8
POCKET
100
AcDbPolyline
 90
53
 70
1
 10
63.051
 20
40.0957176981163
 10
63.051
 20
35.86927108870958
 10
63.072561639776175
 20
35.844684750665124
 10
63.090729655649476
 20
35.81749439341294
 10
63.10519318783118
 20
35.78816525150422
 10
63.11570476127563
 20
35.75719915468857
 10
63.12208452004682
 20
35.72512594146796
 10
63.124223304703364
 20
35.69249439341294
 10
63.12208452004682
 20
35.65986284535793
 10
63.11570476127563
 20
35.627789632137315
 10
63.10519318783118
 20
35.59682353532167
 10
63.090729655649476
 20
35.56749439341294
 10
63.072561639776175
 20
35.54030403616076
 10
63.051
 20
35.515717698116305
 10
63.026413661955544
 20
35.49415605834013
 10
62.999223304703364
 20
35.47598804246683
 10
62.96989416279464
 20
35.46152451028512
 10
62.938928065979
 20
35.45101293684068
 10
62.90685485275838
 20
35.44463317806949
 10
62.874223304703364
 20
35.44249439341294
 10
62.841591756648356
 20
35.44463317806949
 10
62.809518543427735
 20
35.45101293684068
 10
62.778552446612096
 20
35.46152451028512
 10
62.749223304703364
 20
35.47598804246683
 10
62.72203294745118
 20
35.49415605834013
 10
62.697446609406725
 20
35.515717698116305
 10
61.78955339059327
 20
35.515717698116305
 10
61.76496705254881
 20
35.49415605834013
 10
61.73777669529663
 20
35.47598804246683
 10
61.7084475533879
 20
35.46152451028512
 10
61.67748145657226
 20
35.45101293684068
 10
61.64540824335164
 20
35.44463317806949
 10
61.61277669529663
 20
35.44249439341294
 10
61.580145147241616
 20
35.44463317806949
 10
61.548071934021
 20
35.45101293684068
 10
61.51710583720536
 20
35.46152451028512
 10
61.48777669529663
 20
35.47598804246683
 10
61.46058633804445
 20
35.49415605834013
 10
61.43599999999999
 20
35.515717698116305
 10
61.41443836022382
 20
35.54030403616076
 10
61.39627034435052
 20
35.56749439341294
 10
61.38180681216881
 20
35.59682353532167
 10
61.371295238724365
 20
35.627789632137315
 10
61.364915479953176
 20
35.65986284535793
 10
61.36277669529663
 20
35.69249439341294
 10
61.364915479953176
 20
35.72512594146796
 10
61.371295238724365
 20
35.75719915468857
 10
61.38180681216881
 20
35.78816525150422
 10
61.39627034435052
 20
35.81749439341294
 10
61.41443836022382
 20
35.844684750665124
 10
61.43599999999999
 20
35.86927108870958
 10
61.43599999999999
 20
40.0957176981163
 10
63.051
 20
40.0957176981163
  0
LWPOLYLINE
  5
5C
330
17
100
AcDbEntity
  8
POCKET
100
AcDbPolyline
 90
53
 70
1
 10
58.07532294749785
 20
13.149690650501723
 10
58.07532294749785
 20
17.376137259908447
 10
58.05376130772168
 20
17.400723597952904
 10
58.03559329184838
 20
17.427913955205085
 10
58.02112975966667
 20
17.457243097113814
 10
58.010618186222224
 20
17.488209193929453
 10
58.004238427451035
 20
17.520282407150074
 10
58.00209964279449
 20
17.552913955205085
 10
58.004238427451035
 20
17.585545503260096
 10
58.010618186222224
 20
17.617618716480713
 10
58.02112975966667
 20
17.648584813296356
 10
58.03559329184838
 20
17.677913955205085
 10
58.05376130772168
 20
17.705104312457266
 10
58.07532294749785
 20
17.729690650501723
 10
58.09990928554231
 20
17.751252290277893
 10
58.12709964279449
 20
17.769420306151194
 10
58.156428784703216
 20
17.783883838332905
 10
58.187394881518856
 20
17.79439541177735
 10
58.219468094739476
 20
17.800775170548537
 10
58.25209964279449
 20
17.802913955205085
 10
58.2847311908495
 20
17.800775170548537
 10
58.31680440407012
 20
17.79439541177735
 10
58.34777050088576
 20
17.783883838332905
 10
58.37709964279449
 20
17.769420306151194
 10
58.40429000004667
 20
17.751252290277893
 10
58.42887633809113
 20
17.729690650501723
 10
59.33676955690457
 20
17.729690650501723
 10
59.36135589494903
 20
17.751252290277893
 10
59.38854625220121
 20
17.769420306151194
 10
59.41787539410994
 20
17.783883838332905
 10
59.44884149092558
 20
17.79439541177735
 10
59.4809147041462
 20
17.800775170548537
 10
59.51354625220121
 20
17.802913955205085
 10
59.546177800256224
 20
17.800775170548537
 10
59.57825101347684
 20
17.79439541177735
 10
59.609217110292484
 20
17.783883838332905
 10
59.63854625220121
 20
17.769420306151194
 10
59.66573660945339
 20
17.751252290277893
 10
59.69032294749785
 20
17.729690650501723
 10
59.71188458727402
 20
17.705104312457266
 10
59.73005260314732
 20
17.677913955205085
 10
59.74451613532903
 20
17.648584813296356
 10
59.755027708773476
 20
17.617618716480717
 10
59.761407467544664
 20
17.585545503260096
 10
59.76354625220121
 20
17.552913955205085
 10
59.761407467544664
 20
17.520282407150074
 10
59.755027708773476
 20
17.488209193929453
 10
59.74451613532903
 20
17.457243097113814
 10
59.73005260314732
 20
17.427913955205085
 10
59.71188458727402
 20
17.400723597952904
 10
59.69032294749785
 20
17.376137259908447
 10
59.69032294749785
 20
13.149690650501723
 10
58.07532294749785
 20
13.149690650501723
  0
LWPOLYLINE
  5
5D
330
17
100
AcDbEntity
  8
POCKET
100
AcDbPolyline
 90
53
 70
1
 10
44.650322947497855
 20
13.149690650501723
 10
44.650322947497855
 20
17.376137259908447
 10
44.62876130772168
 20
17.400723597952904
 10
44.61059329184838
 20
17.427913955205085
 10
44.596129759666674
 20
17.457243097113814
 10
44.58561818622223
 20
17.488209193929453
 10
44.57923842745104
 20
17.520282407150074
 10
44.577099642794494
 20
17.552913955205085
 10
44.57923842745104
 20
17.585545503260096
 10
44.58561818622223
 20
17.617618716480713
 10
44.596129759666674
 20
17.648584813296356
 10
44.61059329184838
 20
17.677913955205085
 10
44.62876130772168
 20
17.705104312457266
 10
44.650322947497855
 20
17.729690650501723
 10
44.67490928554231
 20
17.751252290277893
 10
44.702099642794494
 20
17.769420306151194
 10
44.73142878470322
 20
17.783883838332905
 10
44.76239488151886
 20
17.79439541177735
 10
44.79446809473948
 20
17.800775170548537
 10
44.827099642794494
 20
17.802913955205085
 10
44.8597311908495
 20
17.800775170548537
 10
44.89180440407012
 20
17.79439541177735
 10
44.92277050088576
 20
17.783883838332905
 10
44.952099642794494
 20
17.769420306151194
 10
44.979290000046674
 20
17.751252290277893
 10
45.00387633809113
 20
17.729690650501723
 10
45.911769556904574
 20
17.729690650501723
 10
45.93635589494903
 20
17.751252290277893
 10
45.96354625220121
 20
17.769420306151194
 10
45.992875394109944
 20
17.783883838332905
 10
46.023841490925584
 20
17.79439541177735
 10
46.055914704146204
 20
17.800775170548537
 10
46.08854625220121
 20
17.802913955205085
 10
46.12117780025623
 20
17.800775170548537
 10
46.15325101347684
 20
17.79439541177735
 10
46.18421711029249
 20
17.783883838332905
 10
46.21354625220121
 20
17.769420306151194
 10
46.24073660945339
 20
17.751252290277893
 10
46.26532294749785
 20
17.729690650501723
 10
46.286884587274024
 20
17.705104312457266
 10
46.305052603147324
 20
17.677913955205085
 10
46.31951613532903
 20
17.648584813296356
 10
46.33002770877348
 20
17.617618716480717
 10
46.33640746754467
 20
17.585545503260096
 10
46.33854625220121
 20
17.552913955205085
 10
46.33640746754467
 20
17.520282407150074
 10
46.33002770877348
 20
17.488209193929453
 10
46.31951613532903
 20
17.457243097113814
 10
46.305052603147324
 20
17.427913955205085
 10
46.286884587274024
 20
17.400723597952904
 10
46.26532294749785
 20
17.376137259908447
 10
46.26532294749785
 20
13.149690650501723
 10
44.650322947497855
 20
13.149690650501723
  0
LWPOLYLINE
  5
5E
330
17
100
AcDbEntity
  8
POCKET
100
AcDbPolyline
 90
53
 70
1
 10
35.50032294749785
 20
13.149690650501723
 10
35.50032294749785
 20
17.376137259908447
 10
35.478761307721676
 20
17.400723597952904
 10
35.460593291848376
 20
17.427913955205085
 10
35.44612975966667
 20
17.457243097113814
 10
35.43561818622222
 20
17.488209193929453
 10
35.42923842745103
 20
17.520282407150074
 10
35.42709964279449
 20
17.552913955205085
 10
35.42923842745103
 20
17.585545503260096
 10
35.43561818622222
 20
17.617618716480713
 10
35.44612975966667
 20
17.648584813296356
 10
35.460593291848376
 20
17.677913955205085
 10
35.478761307721676
 20
17.705104312457266
 10
35.50032294749785
 20
17.729690650501723
 10
35.52490928554231
 20
17.751252290277893
 10
35.55209964279449
 20
17.769420306151194
 10
35.58142878470321
 20
17.783883838332905
 10
35.61239488151885
 20
17.79439541177735
 10
35.64446809473947
 20
17.800775170548537
 10
35.67709964279449
 20
17.802913955205085
 10
35.709731190849496
 20
17.800775170548537
 10
35.741804404070116
 20
17.79439541177735
 10
35.772770500885755
 20
17.783883838332905
 10
35.80209964279449
 20
17.769420306151194
 10
35.82929000004667
 20
17.751252290277893
 10
35.853876338091126
 20
17.729690650501723
 10
36.76176955690458
 20
17.729690650501723
 10
36.78635589494904
 20
17.751252290277893
 10
36.81354625220122
 20
17.769420306151194
 10
36.84287539410995
 20
17.783883838332905
 10
36.87384149092559
 20
17.79439541177735
 10
36.90591470414621
 20
17.800775170548537
 10
36.93854625220122
 20
17.802913955205085
 10
36.971177800256235
 20
17.800775170548537
 10
37.00325101347685
 20
17.79439541177735
 10
37.034217110292495
 20
17.783883838332905
 10
37.06354625220122
 20
17.769420306151194
 10
37.0907366094534
 20
17.751252290277893
 10
37.11532294749786
 20
17.729690650501723
 10
37.13688458727403
 20
17.705104312457266
 10
37.15505260314733
 20
17.677913955205085
 10
37.16951613532904
 20
17.648584813296356
 10
37.18002770877349
 20
17.617618716480717
 10
37.186407467544676
 20
17.585545503260096
 10
37.18854625220122
 20
17.552913955205085
 10
37.186407467544676
 20
17.520282407150074
 10
37.18002770877349
 20
17.488209193929453
 10
37.16951613532904
 20
17.457243097113814
 10
37.15505260314733
 20
17.427913955205085
 10
37.13688458727403
 20
17.400723597952904
 10
37.11532294749786
 20
17.376137259908447
 10
37.11532294749786
 20
13.149690650501723
 10
35.50032294749785
 20
13.149690650501723
  0
LWPOLYLINE
  5
5F
330
17
100
AcDbEntity
  8
POCKET
100
AcDbPolyline
 90
53
 70
1
 10
26.9097
 20
-0.25499907311223957
 10
26.9097
 20
3.971447536294485
 10
26.888138360223827
 20
3.996033874338942
 10
26.869970344350527
 20
4.023224231591122
 10
26.855506812168816
 20
4.052553373499849
 10
26.84499523872437
 20
4.083519470315492
 10
26.838615479953184
 20
4.115592683536109
 10
26.836476695296636
 20
4.148224231591122
 10
26.838615479953184
 20
4.180855779646135
 10
26.84499523872437
 20
4.212928992866752
 10
26.855506812168816
 20
4.243895089682395
 10
26.869970344350527
 20
4.273224231591122
 10
26.888138360223827
 20
4.300414588843303
 10
26.9097
 20
4.325000926887759
 10
26.934286338044455
 20
4.346562566663931
 10
26.961476695296636
 20
4.364730582537232
 10
26.990805837205365
 20
4.379194114718944
 10
27.021771934021004
 20
4.38970568816339
 10
27.053845147241624
 20
4.396085446934575
 10
27.086476695296636
 20
4.398224231591122
 10
27.119108243351647
 20
4.396085446934575
 10
27.151181456572267
 20
4.38970568816339
 10
27.182147553387907
 20
4.379194114718944
 10
27.211476695296636
 20
4.364730582537232
 10
27.238667052548816
 20
4.346562566663931
 10
27.263253390593274
 20
4.325000926887759
 10
28.171146609406723
 20
4.325000926887759
 10
28.19573294745118
 20
4.346562566663931
 10
28.22292330470336
 20
4.364730582537232
 10
28.25225244661209
 20
4.379194114718944
 10
28.28321854342773
 20
4.38970568816339
 10
28.31529175664835
 20
4.396085446934575
 10
28.34792330470336
 20
4.398224231591122
 10
28.380554852758372
 20
4.396085446934575
 10
28.41262806597899
 20
4.38970568816339
 10
28.443594162794632
 20
4.379194114718944
 10
28.47292330470336
 20
4.364730582537232
 10
28.50011366195554
 20
4.346562566663931
 10
28.524699999999996
 20
4.325000926887759
 10
28.54626163977617
 20
4.300414588843303
 10
28.56442965564947
 20
4.273224231591122
 10
28.57889318783118
 20
4.243895089682395
 10
28.589404761275627
 20
4.212928992866752
 10
28.595784520046813
 20
4.180855779646135
 10
28.59792330470336
 20
4.148224231591122
 10
28.595784520046813
 20
4.115592683536109
 10
28.589404761275627
 20
4.083519470315492
 10
28.57889318783118
 20
4.052553373499849
 10
28.56442965564947
 20
4.023224231591122
 10
28.54626163977617
 20
3.9960338743389423
 10
28.524699999999996
 20
3.971447536294485
 10
28.524699999999996
 20
-0.25499907311223957
 10
26.9097
 20
-0.25499907311223957
  0
LWPOLYLINE
  5
60
330
17
100
AcDbEntity
  8
POCKET
100
AcDbPolyline
 90
53
 70
1
 10
13.4847
 20
-0.25499907311223957
 10
13.4847
 20
3.971447536294485
 10
13.463138360223828
 20
3.996033874338942
 10
13.444970344350526
 20
4.023224231591122
 10
13.430506812168815
 20
4.052553373499849
 10
13.41999523872437
 20
4.083519470315492
 10
13.413615479953185
 20
4.115592683536109
 10
13.411476695296637
 20
4.148224231591122
 10
13.413615479953185
 20
4.180855779646135
 10
13.41999523872437
 20
4.212928992866752
 10
13.430506812168815
 20
4.243895089682395
 10
13.444970344350526
 20
4.273224231591122
 10
13.463138360223828
 20
4.300414588843303
 10
13.4847
 20
4.325000926887759
 10
13.509286338044458
 20
4.346562566663931
 10
13.536476695296637
 20
4.364730582537232
 10
13.565805837205364
 20
4.379194114718944
 10
13.596771934021007
 20
4.38970568816339
 10
13.628845147241623
 20
4.396085446934575
 10
13.661476695296637
 20
4.398224231591122
 10
13.69410824335165
 20
4.396085446934575
 10
13.726181456572267
 20
4.38970568816339
 10
13.75714755338791
 20
4.379194114718944
 10
13.786476695296637
 20
4.364730582537232
 10
13.813667052548817
 20
4.346562566663931
 10
13.838253390593273
 20
4.325000926887759
 10
14.746146609406729
 20
4.325000926887759
 10
14.770732947451185
 20
4.346562566663931
 10
14.797923304703366
 20
4.364730582537232
 10
14.827252446612093
 20
4.379194114718944
 10
14.858218543427736
 20
4.38970568816339
 10
14.890291756648352
 20
4.396085446934575
 10
14.922923304703366
 20
4.398224231591122
 10
14.955554852758379
 20
4.396085446934575
 10
14.987628065978996
 20
4.38970568816339
 10
15.018594162794638
 20
4.379194114718944
 10
15.047923304703366
 20
4.364730582537232
 10
15.075113661955545
 20
4.346562566663931
 10
15.099700000000002
 20
4.325000926887759
 10
15.121261639776174
 20
4.300414588843303
 10
15.139429655649474
 20
4.273224231591122
 10
15.153893187831187
 20
4.243895089682395
 10
15.164404761275632
 20
4.212928992866752
 10
15.170784520046817
 20
4.180855779646135
 10
15.172923304703366
 20
4.148224231591122
 10
15.170784520046817
 20
4.115592683536109
 10
15.164404761275632
 20
4.083519470315492
 10
15.153893187831187
 20
4.052553373499849
 10
15.139429655649476
 20
4.023224231591122
 10
15.121261639776174
 20
3.9960338743389423
 10
15.099700000000002
 20
3.971447536294485
 10
15.099700000000002
 20
-0.25499907311223957
 10
13.4847
 20
-0.25499907311223957
  0
LWPOLYLINE
  5
61
330
17
100
AcDbEntity
  8
POCKET
100
AcDbPolyline
 90
53
 70
1
 10
4.3347000000000016
 20
-0.25499907311223957
 10
4.3347000000000016
 20
3.971447536294485
 10
4.31313836022383
 20
3.996033874338942
 10
4.294970344350529
 20
4.023224231591122
 10
4.280506812168817
 20
4.052553373499849
 10
4.269995238724372
 20
4.083519470315492
 10
4.263615479953186
 20
4.115592683536109
 10
4.261476695296638
 20
4.148224231591122
 10
4.263615479953186
 20
4.180855779646135
 10
4.269995238724372
 20
4.212928992866752
 10
4.280506812168817
 20
4.243895089682395
 10
4.294970344350529
 20
4.273224231591122
 10
4.31313836022383
 20
4.300414588843303
 10
4.3347000000000016
 20
4.325000926887759
 10
4.359286338044458
 20
4.346562566663931
 10
4.386476695296638
 20
4.364730582537232
 10
4.415805837205366
 20
4.379194114718944
 10
4.446771934021008
 20
4.38970568816339
 10
4.478845147241626
 20
4.396085446934575
 10
4.511476695296638
 20
4.398224231591122
 10
4.544108243351651
 20
4.396085446934575
 10
4.576181456572269
 20
4.38970568816339
 10
4.607147553387911
 20
4.379194114718944
 10
4.636476695296638
 20
4.364730582537232
 10
4.663667052548819
 20
4.346562566663931
 10
4.6882533905932755
 20
4.325000926887759
 10
5.59614660940673
 20
4.325000926887759
 10
5.620732947451186
 20
4.346562566663931
 10
5.647923304703367
 20
4.364730582537232
 10
5.677252446612094
 20
4.379194114718944
 10
5.708218543427736
 20
4.38970568816339
 10
5.740291756648354
 20
4.396085446934575
 10
5.772923304703367
 20
4.398224231591122
 10
5.805554852758379
 20
4.396085446934575
 10
5.837628065978997
 20
4.38970568816339
 10
5.868594162794639
 20
4.379194114718944
 10
5.897923304703367
 20
4.364730582537232
 10
5.925113661955547
 20
4.346562566663931
 10
5.9497000000000035
 20
4.325000926887759
 10
5.971261639776175
 20
4.300414588843303
 10
5.989429655649476
 20
4.273224231591122
 10
6.0038931878311885
 20
4.243895089682395
 10
6.0144047612756335
 20
4.212928992866752
 10
6.020784520046819
 20
4.180855779646135
 10
6.022923304703367
 20
4.148224231591122
 10
6.020784520046819
 20
4.115592683536109
 10
6.0144047612756335
 20
4.083519470315492
 10
6.0038931878311885
 20
4.052553373499849
 10
5.989429655649476
 20
4.023224231591122
 10
5.971261639776175
 20
3.9960338743389423
 10
5.9497000000000035
 20
3.971447536294485
 10
5.9497000000000035
 20
-0.25499907311223957
 10
4.3347000000000016
 20
-0.25499907311223957
  0
ENDSEC
  0
SECTION
  2
OBJECTS
  0
DICTIONARY
  5
A
330
0
100
AcDbDictionary
281
1
  3
ACAD_COLOR
350
B
  3
ACAD_GROUP
350
C
  3
ACAD_LAYOUT
350
D
  3
ACAD_MATERIAL
350
E
  3
ACAD_MLEADERSTYLE
350
F
  3
ACAD_MLINESTYLE
350
10
  3
ACAD_PLOTSETTINGS
350
11
  3
ACAD_PLOTSTYLENAME
350
12
  3
ACAD_SCALELIST
350
14
  3
ACAD_TABLESTYLE
350
15
  3
ACAD_VISUALSTYLE
350
16
  3
EZDXF_META
350
2D
  0
DICTIONARY
  5
B
330
A
100
AcDbDictionary
281
1
  0
DICTIONARY
  5
C
330
A
100
AcDbDictionary
281
1
  0
DICTIONARY
  5
D
330
A
100
AcDbDictionary
281
1
  3
Model
350
1A
  3
Layout1
350
1E
  0
DICTIONARY
  5
E
330
A
100
AcDbDictionary
281
1
  3
ByBlock
350
1F
  3
ByLayer
350
20
  3
Global
350
21
  0
DICTIONARY
  5
F
330
A
100
AcDbDictionary
281
1
  3
Standard
350
2C
  0
DICTIONARY
  5
10
330
A
100
AcDbDictionary
281
1
  3
Standard
350
22
  0
DICTIONARY
  5
11
330
A
100
AcDbDictionary
281
1
  0
ACDBDICTIONARYWDFLT
  5
12
330
A
100
AcDbDictionary
281
1
  3
Normal
350
13
100
AcDbDictionaryWithDefault
340
13
  0
ACDBPLACEHOLDER
  5
13
330
12
  0
DICTIONARY
  5
14
330
A
100
AcDbDictionary
281
1
  0
DICTIONARY
  5
15
330
A
100
AcDbDictionary
281
1
  0
DICTIONARY
  5
16
330
A
100
AcDbDictionary
281
1
  0
LAYOUT
  5
1A
330
D
100
AcDbPlotSettings
  1

  4
A3
  6

 40
7.5
 41
20.0
 42
7.5
 43
20.0
 44
420.0
 45
297.0
 46
0.0
 47
0.0
 48
0.0
 49
0.0
140
0.0
141
0.0
142
1.0
143
1.0
 70
1024
 72
1
 73
0
 74
5
  7

 75
16
 76
0
 77
2
 78
300
147
1.0
148
0.0
149
0.0
100
AcDbLayout
  1
Model
 70
1
 71
0
 10
0.0
 20
0.0
 11
420.0
 21
297.0
 12
0.0
 22
0.0
 32
0.0
 14
1e+20
 24
1e+20
 34
1e+20
 15
-1e+20
 25
-1e+20
 35
-1e+20
146
0.0
 13
0.0
 23
0.0
 33
0.0
 16
1.0
 26
0.0
 36
0.0
 17
0.0
 27
1.0
 37
0.0
 76
1
330
17
  0
LAYOUT
  5
1E
330
D
100
AcDbPlotSettings
  1

  4
A3
  6

 40
7.5
 41
20.0
 42
7.5
 43
20.0
 44
420.0
 45
297.0
 46
0.0
 47
0.0
 48
0.0
 49
0.0
140
0.0
141
0.0
142
1.0
143
1.0
 70
0
 72
1
 73
0
 74
5
  7

 75
16
 76
0
 77
2
 78
300
147
1.0
148
0.0
149
0.0
100
AcDbLayout
  1
Layout1
 70
1
 71
1
 10
0.0
 20
0.0
 11
420.0
 21
297.0
 12
0.0
 22
0.0
 32
0.0
 14
1e+20
 24
1e+20
 34
1e+20
 15
-1e+20
 25
-1e+20
 35
-1e+20
146
0.0
 13
0.0
 23
0.0
 33
0.0
 16
1.0
 26
0.0
 36
0.0
 17
0.0
 27
1.0
 37
0.0
 76
1
330
1B
  0
MATERIAL
  5
1F
102
{ACAD_REACTORS
330
E
102
}
330
E
100
AcDbMaterial
  1
ByBlock
  2

 70
0
 40
1.0
 71
1
 41
1.0
 91
-1023410177
 42
1.0
 72
1
  3

 73
1
 74
1
 75
1
 44
0.5
 73
0
 45
1.0
 46
1.0
 77
1
  4

 78
1
 79
1
170
1
 48
1.0
171
1
  6

172
1
173
1
174
1
140
1.0
141
1.0
175
1
  7

176
1
177
1
178
1
143
1.0
179
1
  8

270
1
271
1
272
1
145
1.0
146
1.0
273
1
  9

274
1
275
1
276
1
 42
1.0
 72
1
  3

 73
1
 74
1
 75
1
 94
63
  0
MATERIAL
  5
20
102
{ACAD_REACTORS
330
E
102
}
330
E
100
AcDbMaterial
  1
ByLayer
  2

 70
0
 40
1.0
 71
1
 41
1.0
 91
-1023410177
 42
1.0
 72
1
  3

 73
1
 74
1
 75
1
 44
0.5
 73
0
 45
1.0
 46
1.0
 77
1
  4

 78
1
 79
1
170
1
 48
1.0
171
1
  6

172
1
173
1
174
1
140
1.0
141
1.0
175
1
  7

176
1
177
1
178
1
143
1.0
179
1
  8

270
1
271
1
272
1
145
1.0
146
1.0
273
1
  9

274
1
275
1
276
1
 42
1.0
 72
1
  3

 73
1
 74
1
 75
1
 94
63
  0
MATERIAL
  5
21
102
{ACAD_REACTORS
330
E
102
}
330
E
100
AcDbMaterial
  1
Global
  2

 70
0
 40
1.0
 71
1
 41
1.0
 91
-1023410177
 42
1.0
 72
1
  3

 73
1
 74
1
 75
1
 44
0.5
 73
0
 45
1.0
 46
1.0
 77
1
  4

 78
1
 79
1
170
1
 48
1.0
171
1
  6

172
1
173
1
174
1
140
1.0
141
1.0
175
1
  7

176
1
177
1
178
1
143
1.0
179
1
  8

270
1
271
1
272
1
145
1.0
146
1.0
273
1
  9

274
1
275
1
276
1
 42
1.0
 72
1
  3

 73
1
 74
1
 75
1
 94
63
  0
MLINESTYLE
  5
22
102
{ACAD_REACTORS
330
10
102
}
330
10
100
AcDbMlineStyle
  2
Standard
 70
0
  3

 62
256
 51
90.0
 52
90.0
 71
2
 49
0.5
 62
256
  6
BYLAYER
 49
-0.5
 62
256
  6
BYLAYER
  0
MLEADERSTYLE
  5
2C
102
{ACAD_REACTORS
330
F
102
}
330
F
100
AcDbMLeaderStyle
179
2
170
2
171
1
172
0
 90
2
 40
0.0
 41
0.0
173
1
 91
-1056964608
 92
-2
290
1
 42
2.0
291
1
 43
8.0
  3
Standard
 44
4.0
300

342
29
174
1
175
1
176
0
178
1
 93
-1056964608
 45
4.0
292
0
297
0
 46
4.0
 94
-1056964608
 47
1.0
 49
1.0
140
1.0
294
1
141
0.0
177
0
142
1.0
295
0
296
0
143
3.75
271
0
272
9
273
9
  0
DICTIONARY
  5
2D
330
A
100
AcDbDictionary
280
1
281
1
  3
CREATED_BY_EZDXF
350
2E
  3
WRITTEN_BY_EZDXF
350
64
  0
DICTIONARYVAR
  5
2E
330
2D
100
DictionaryVariables
280
0
  1
1.4.3 @ 2026-05-08T09:04:45.802115+00:00
  0
DICTIONARYVAR
  5
64
330
2D
100
DictionaryVariables
280
0
  1
1.4.3 @ 2026-05-08T09:04:45.901594+00:00
  0
ENDSEC
  0
EOF
