  0
SECTION
  2
HEADER
  9
$ACADVER
  1
AC1024
  9
$ACADMAINTVER
 70
6
  9
$DWGCODEPAGE
  3
ANSI_1252
  9
$LASTSAVEDBY
  1
ezdxf
  9
$INSBASE
 10
0.0
 20
0.0
 30
0.0
  9
$EXTMIN
 10
1e+20
 20
1e+20
 30
1e+20
  9
$EXTMAX
 10
-1e+20
 20
-1e+20
 30
-1e+20
  9
$LIMMIN
 10
0.0
 20
0.0
  9
$LIMMAX
 10
420.0
 20
297.0
  9
$ORTHOMODE
 70
0
  9
$REGENMODE
 70
1
  9
$FILLMODE
 70
1
  9
$QTEXTMODE
 70
0
  9
$MIRRTEXT
 70
1
  9
$LTSCALE
 40
1.0
  9
$ATTMODE
 70
1
  9
$TEXTSIZE
 40
2.5
  9
$TRACEWID
 40
1.0
  9
$TEXTSTYLE
  7
Standard
  9
$CLAYER
  8
0
  9
$CELTYPE
  6
ByLayer
  9
$CECOLOR
 62
256
  9
$CELTSCALE
 40
1.0
  9
$DISPSILH
 70
0
  9
$DIMSCALE
 40
1.0
  9
$DIMASZ
 40
2.5
  9
$DIMEXO
 40
0.625
  9
$DIMDLI
 40
3.75
  9
$DIMRND
 40
0.0
  9
$DIMDLE
 40
0.0
  9
$DIMEXE
 40
1.25
  9
$DIMTP
 40
0.0
  9
$DIMTM
 40
0.0
  9
$DIMTXT
 40
2.5
  9
$DIMCEN
 40
2.5
  9
$DIMTSZ
 40
0.0
  9
$DIMTOL
 70
0
  9
$DIMLIM
 70
0
  9
$DIMTIH
 70
0
  9
$DIMTOH
 70
0
  9
$DIMSE1
 70
0
  9
$DIMSE2
 70
0
  9
$DIMTAD
 70
1
  9
$DIMZIN
 70
8
  9
$DIMBLK
  1

  9
$DIMASO
 70
1
  9
$DIMSHO
 70
1
  9
$DIMPOST
  1

  9
$DIMAPOST
  1

  9
$DIMALT
 70
0
  9
$DIMALTD
 70
3
  9
$DIMALTF
 40
0.03937007874
  9
$DIMLFAC
 40
1.0
  9
$DIMTOFL
 70
1
  9
$DIMTVP
 40
0.0
  9
$DIMTIX
 70
0
  9
$DIMSOXD
 70
0
  9
$DIMSAH
 70
0
  9
$DIMBLK1
  1

  9
$DIMBLK2
  1

  9
$DIMSTYLE
  2
ISO-25
  9
$DIMCLRD
 70
0
  9
$DIMCLRE
 70
0
  9
$DIMCLRT
 70
0
  9
$DIMTFAC
 40
1.0
  9
$DIMGAP
 40
0.625
  9
$DIMJUST
 70
0
  9
$DIMSD1
 70
0
  9
$DIMSD2
 70
0
  9
$DIMTOLJ
 70
0
  9
$DIMTZIN
 70
8
  9
$DIMALTZ
 70
0
  9
$DIMALTTZ
 70
0
  9
$DIMUPT
 70
0
  9
$DIMDEC
 70
2
  9
$DIMTDEC
 70
2
  9
$DIMALTU
 70
2
  9
$DIMALTTD
 70
3
  9
$DIMTXSTY
  7
Standard
  9
$DIMAUNIT
 70
0
  9
$DIMADEC
 70
0
  9
$DIMALTRND
 40
0.0
  9
$DIMAZIN
 70
0
  9
$DIMDSEP
 70
44
  9
$DIMATFIT
 70
3
  9
$DIMFRAC
 70
0
  9
$DIMLDRBLK
  1

  9
$DIMLUNIT
 70
2
  9
$DIMLWD
 70
-2
  9
$DIMLWE
 70
-2
  9
$DIMTMOVE
 70
0
  9
$DIMFXL
 40
1.0
  9
$DIMFXLON
 70
0
  9
$DIMJOGANG
 40
0.785398163397
  9
$DIMTFILL
 70
0
  9
$DIMTFILLCLR
 70
0
  9
$DIMARCSYM
 70
0
  9
$DIMLTYPE
  6

  9
$DIMLTEX1
  6

  9
$DIMLTEX2
  6

  9
$DIMTXTDIRECTION
 70
0
  9
$LUNITS
 70
2
  9
$LUPREC
 70
4
  9
$SKETCHINC
 40
1.0
  9
$FILLETRAD
 40
10.0
  9
$AUNITS
 70
0
  9
$AUPREC
 70
2
  9
$MENU
  1
.
  9
$ELEVATION
 40
0.0
  9
$PELEVATION
 40
0.0
  9
$THICKNESS
 40
0.0
  9
$LIMCHECK
 70
0
  9
$CHAMFERA
 40
0.0
  9
$CHAMFERB
 40
0.0
  9
$CHAMFERC
 40
0.0
  9
$CHAMFERD
 40
0.0
  9
$SKPOLY
 70
0
  9
$TDCREATE
 40
2461169.128275463
  9
$TDUCREATE
 40
2458532.153996898
  9
$TDUPDATE
 40
2461169.128275463
  9
$TDUUPDATE
 40
2458532.1544311
  9
$TDINDWG
 40
0.0
  9
$TDUSRTIMER
 40
0.0
  9
$USRTIMER
 70
1
  9
$ANGBASE
 50
0.0
  9
$ANGDIR
 70
0
  9
$PDMODE
 70
0
  9
$PDSIZE
 40
0.0
  9
$PLINEWID
 40
0.0
  9
$SPLFRAME
 70
0
  9
$SPLINETYPE
 70
6
  9
$SPLINESEGS
 70
8
  9
$HANDSEED
  5
72
  9
$SURFTAB1
 70
6
  9
$SURFTAB2
 70
6
  9
$SURFTYPE
 70
6
  9
$SURFU
 70
6
  9
$SURFV
 70
6
  9
$UCSBASE
  2

  9
$UCSNAME
  2

  9
$UCSORG
 10
0.0
 20
0.0
 30
0.0
  9
$UCSXDIR
 10
1.0
 20
0.0
 30
0.0
  9
$UCSYDIR
 10
0.0
 20
1.0
 30
0.0
  9
$UCSORTHOREF
  2

  9
$UCSORTHOVIEW
 70
0
  9
$UCSORGTOP
 10
0.0
 20
0.0
 30
0.0
  9
$UCSORGBOTTOM
 10
0.0
 20
0.0
 30
0.0
  9
$UCSORGLEFT
 10
0.0
 20
0.0
 30
0.0
  9
$UCSORGRIGHT
 10
0.0
 20
0.0
 30
0.0
  9
$UCSORGFRONT
 10
0.0
 20
0.0
 30
0.0
  9
$UCSORGBACK
 10
0.0
 20
0.0
 30
0.0
  9
$PUCSBASE
  2

  9
$PUCSNAME
  2

  9
$PUCSORG
 10
0.0
 20
0.0
 30
0.0
  9
$PUCSXDIR
 10
1.0
 20
0.0
 30
0.0
  9
$PUCSYDIR
 10
0.0
 20
1.0
 30
0.0
  9
$PUCSORTHOREF
  2

  9
$PUCSORTHOVIEW
 70
0
  9
$PUCSORGTOP
 10
0.0
 20
0.0
 30
0.0
  9
$PUCSORGBOTTOM
 10
0.0
 20
0.0
 30
0.0
  9
$PUCSORGLEFT
 10
0.0
 20
0.0
 30
0.0
  9
$PUCSORGRIGHT
 10
0.0
 20
0.0
 30
0.0
  9
$PUCSORGFRONT
 10
0.0
 20
0.0
 30
0.0
  9
$PUCSORGBACK
 10
0.0
 20
0.0
 30
0.0
  9
$USERI1
 70
0
  9
$USERI2
 70
0
  9
$USERI3
 70
0
  9
$USERI4
 70
0
  9
$USERI5
 70
0
  9
$USERR1
 40
0.0
  9
$USERR2
 40
0.0
  9
$USERR3
 40
0.0
  9
$USERR4
 40
0.0
  9
$USERR5
 40
0.0
  9
$WORLDVIEW
 70
1
  9
$SHADEDGE
 70
3
  9
$SHADEDIF
 70
70
  9
$TILEMODE
 70
1
  9
$MAXACTVP
 70
64
  9
$PINSBASE
 10
0.0
 20
0.0
 30
0.0
  9
$PLIMCHECK
 70
0
  9
$PEXTMIN
 10
1e+20
 20
1e+20
 30
1e+20
  9
$PEXTMAX
 10
-1e+20
 20
-1e+20
 30
-1e+20
  9
$PLIMMIN
 10
0.0
 20
0.0
  9
$PLIMMAX
 10
420.0
 20
297.0
  9
$UNITMODE
 70
0
  9
$VISRETAIN
 70
1
  9
$PLINEGEN
 70
0
  9
$PSLTSCALE
 70
1
  9
$TREEDEPTH
 70
3020
  9
$CMLSTYLE
  2
Standard
  9
$CMLJUST
 70
0
  9
$CMLSCALE
 40
20.0
  9
$PROXYGRAPHICS
 70
1
  9
$MEASUREMENT
 70
1
  9
$CELWEIGHT
370
-1
  9
$ENDCAPS
280
0
  9
$JOINSTYLE
280
0
  9
$LWDISPLAY
290
0
  9
$INSUNITS
 70
1
  9
$HYPERLINKBASE
  1

  9
$STYLESHEET
  1

  9
$XEDIT
290
1
  9
$CEPSNTYPE
380
0
  9
$PSTYLEMODE
290
1
  9
$FINGERPRINTGUID
  2
{C969FBBD-B8AB-4FA5-A1C8-09C4CDA90B2C}
  9
$VERSIONGUID
  2
{800F9657-DC63-4C4D-940F-C3357AA42469}
  9
$EXTNAMES
290
1
  9
$PSVPSCALE
 40
0.0
  9
$OLESTARTUP
290
0
  9
$SORTENTS
280
127
  9
$INDEXCTL
280
0
  9
$HIDETEXT
280
1
  9
$XCLIPFRAME
280
1
  9
$HALOGAP
280
0
  9
$OBSCOLOR
 70
257
  9
$OBSLTYPE
280
0
  9
$INTERSECTIONDISPLAY
280
0
  9
$INTERSECTIONCOLOR
 70
257
  9
$DIMASSOC
280
2
  9
$PROJECTNAME
  1

  9
$CAMERADISPLAY
290
0
  9
$LENSLENGTH
 40
50.0
  9
$CAMERAHEIGHT
 40
0.0
  9
$STEPSPERSEC
 40
24.0
  9
$STEPSIZE
 40
100.0
  9
$3DDWFPREC
 40
2.0
  9
$PSOLWIDTH
 40
0.005
  9
$PSOLHEIGHT
 40
0.08
  9
$LOFTANG1
 40
1.570796326795
  9
$LOFTANG2
 40
1.570796326795
  9
$LOFTMAG1
 40
0.0
  9
$LOFTMAG2
 40
0.0
  9
$LOFTPARAM
 70
7
  9
$LOFTNORMALS
280
1
  9
$LATITUDE
 40
37.795
  9
$LONGITUDE
 40
-122.394
  9
$NORTHDIRECTION
 40
0.0
  9
$TIMEZONE
 70
-8000
  9
$LIGHTGLYPHDISPLAY
280
1
  9
$TILEMODELIGHTSYNCH
280
1
  9
$CMATERIAL
347
20
  9
$SOLIDHIST
280
0
  9
$SHOWHIST
280
1
  9
$DWFFRAME
280
2
  9
$DGNFRAME
280
2
  9
$REALWORLDSCALE
290
1
  9
$INTERFERECOLOR
 62
256
  9
$CSHADOW
280
0
  9
$SHADOWPLANELOCATION
 40
0.0
  0
ENDSEC
  0
SECTION
  2
CLASSES
  0
CLASS
  1
ACDBDICTIONARYWDFLT
  2
AcDbDictionaryWithDefault
  3
ObjectDBX Classes
 90
0
 91
0
280
0
281
0
  0
CLASS
  1
SUN
  2
AcDbSun
  3
SCENEOE
 90
1153
 91
0
280
0
281
0
  0
CLASS
  1
VISUALSTYLE
  2
AcDbVisualStyle
  3
ObjectDBX Classes
 90
4095
 91
0
280
0
281
0
  0
CLASS
  1
MATERIAL
  2
AcDbMaterial
  3
ObjectDBX Classes
 90
1153
 91
0
280
0
281
0
  0
CLASS
  1
SCALE
  2
AcDbScale
  3
ObjectDBX Classes
 90
1153
 91
0
280
0
281
0
  0
CLASS
  1
TABLESTYLE
  2
AcDbTableStyle
  3
ObjectDBX Classes
 90
4095
 91
0
280
0
281
0
  0
CLASS
  1
MLEADERSTYLE
  2
AcDbMLeaderStyle
  3
ACDB_MLEADERSTYLE_CLASS
 90
4095
 91
0
280
0
281
0
  0
CLASS
  1
DICTIONARYVAR
  2
AcDbDictionaryVar
  3
ObjectDBX Classes
 90
0
 91
0
280
0
281
0
  0
CLASS
  1
CELLSTYLEMAP
  2
AcDbCellStyleMap
  3
ObjectDBX Classes
 90
1152
 91
0
280
0
281
0
  0
CLASS
  1
MENTALRAYRENDERSETTINGS
  2
AcDbMentalRayRenderSettings
  3
SCENEOE
 90
1024
 91
0
280
0
281
0
  0
CLASS
  1
ACDBDETAILVIEWSTYLE
  2
AcDbDetailViewStyle
  3
ObjectDBX Classes
 90
1025
 91
0
280
0
281
0
  0
CLASS
  1
ACDBSECTIONVIEWSTYLE
  2
AcDbSectionViewStyle
  3
ObjectDBX Classes
 90
1025
 91
0
280
0
281
0
  0
CLASS
  1
RASTERVARIABLES
  2
AcDbRasterVariables
  3
ISM
 90
0
 91
0
280
0
281
0
  0
CLASS
  1
ACDBPLACEHOLDER
  2
AcDbPlaceHolder
  3
ObjectDBX Classes
 90
0
 91
0
280
0
281
0
  0
CLASS
  1
LAYOUT
  2
AcDbLayout
  3
ObjectDBX Classes
 90
0
 91
0
280
0
281
0
  0
ENDSEC
  0
SECTION
  2
TABLES
  0
TABLE
  2
VPORT
  5
8
330
0
100
AcDbSymbolTable
 70
1
  0
VPORT
  5
23
330
8
100
AcDbSymbolTableRecord
100
AcDbViewportTableRecord
  2
*Active
 70
0
 10
0.0
 20
0.0
 11
1.0
 21
1.0
 12
0.0
 22
0.0
 13
0.0
 23
0.0
 14
0.5
 24
0.5
 15
0.5
 25
0.5
 16
0.0
 26
0.0
 36
1.0
 17
0.0
 27
0.0
 37
0.0
 40
1000.0
 41
1.34
 42
50.0
 43
0.0
 44
0.0
 50
0.0
 51
0.0
 71
0
 72
1000
 73
1
 74
3
 75
0
 76
0
 77
0
 78
0
281
0
 65
0
146
0.0
  0
ENDTAB
  0
TABLE
  2
LTYPE
  5
2
330
0
100
AcDbSymbolTable
 70
3
  0
LTYPE
  5
24
330
2
100
AcDbSymbolTableRecord
100
AcDbLinetypeTableRecord
  2
ByBlock
 70
0
  3

 72
65
 73
0
 40
0.0
  0
LTYPE
  5
25
330
2
100
AcDbSymbolTableRecord
100
AcDbLinetypeTableRecord
  2
ByLayer
 70
0
  3

 72
65
 73
0
 40
0.0
  0
LTYPE
  5
26
330
2
100
AcDbSymbolTableRecord
100
AcDbLinetypeTableRecord
  2
Continuous
 70
0
  3

 72
65
 73
0
 40
0.0
  0
ENDTAB
  0
TABLE
  2
LAYER
  5
1
330
0
100
AcDbSymbolTable
 70
2
  0
LAYER
  5
27
330
1
100
AcDbSymbolTableRecord
100
AcDbLayerTableRecord
  2
0
 70
0
 62
7
  6
Continuous
370
-3
390
13
347
21
  0
LAYER
  5
28
330
1
100
AcDbSymbolTableRecord
100
AcDbLayerTableRecord
  2
Defpoints
 70
0
 62
7
  6
Continuous
290
0
370
-3
390
13
347
21
  0
ENDTAB
  0
TABLE
  2
STYLE
  5
5
330
0
100
AcDbSymbolTable
 70
1
  0
STYLE
  5
29
330
5
100
AcDbSymbolTableRecord
100
AcDbTextStyleTableRecord
  2
Standard
 70
0
 40
0.0
 41
1.0
 50
0.0
 71
0
 42
2.5
  3
txt
  4

  0
ENDTAB
  0
TABLE
  2
VIEW
  5
7
330
0
100
AcDbSymbolTable
 70
0
  0
ENDTAB
  0
TABLE
  2
UCS
  5
6
330
0
100
AcDbSymbolTable
 70
0
  0
ENDTAB
  0
TABLE
  2
APPID
  5
3
330
0
100
AcDbSymbolTable
 70
3
  0
APPID
  5
2A
330
3
100
AcDbSymbolTableRecord
100
AcDbRegAppTableRecord
  2
ACAD
 70
0
  0
APPID
  5
6F
330
3
100
AcDbSymbolTableRecord
100
AcDbRegAppTableRecord
  2
HATCHBACKGROUNDCOLOR
 70
0
  0
APPID
  5
70
330
3
100
AcDbSymbolTableRecord
100
AcDbRegAppTableRecord
  2
EZDXF
 70
0
  0
ENDTAB
  0
TABLE
  2
DIMSTYLE
  5
4
330
0
100
AcDbSymbolTable
 70
1
100
AcDbDimStyleTable
  0
DIMSTYLE
105
2B
330
4
100
AcDbSymbolTableRecord
100
AcDbDimStyleTableRecord
  2
Standard
 70
0
 40
1.0
 41
2.5
 42
0.625
 43
3.75
 44
1.25
 45
0.0
 46
0.0
 47
0.0
 48
0.0
 49
2.5
140
2.5
141
2.5
142
0.0
143
0.03937007874
144
1.0
145
0.0
146
1.0
147
0.625
148
0.0
 69
0
 70
0
 71
0
 72
0
 73
0
 74
0
 75
0
 76
0
 77
1
 78
8
 79
3
170
0
171
3
172
1
173
0
174
0
175
0
176
0
177
0
178
0
179
2
271
2
272
2
273
2
274
3
275
0
276
0
277
2
278
44
279
0
280
0
281
0
282
0
283
0
284
8
285
0
286
0
288
0
289
3
290
0
371
-2
372
-2
  0
ENDTAB
  0
TABLE
  2
BLOCK_RECORD
  5
9
330
0
100
AcDbSymbolTable
 70
2
  0
BLOCK_RECORD
  5
17
330
9
100
AcDbSymbolTableRecord
100
AcDbBlockTableRecord
  2
*Model_Space
340
1A
 70
0
280
1
281
0
  0
BLOCK_RECORD
  5
1B
330
9
100
AcDbSymbolTableRecord
100
AcDbBlockTableRecord
  2
*Paper_Space
340
1E
 70
0
280
1
281
0
  0
ENDTAB
  0
ENDSEC
  0
SECTION
  2
BLOCKS
  0
BLOCK
  5
18
330
17
100
AcDbEntity
  8
0
100
AcDbBlockBegin
  2
*Model_Space
 70
0
 10
0.0
 20
0.0
 30
0.0
  3
*Model_Space
  1

  0
ENDBLK
  5
19
330
17
100
AcDbEntity
  8
0
100
AcDbBlockEnd
  0
BLOCK
  5
1C
330
1B
100
AcDbEntity
  8
0
100
AcDbBlockBegin
  2
*Paper_Space
 70
0
 10
0.0
 20
0.0
 30
0.0
  3
*Paper_Space
  1

  0
ENDBLK
  5
1D
330
1B
100
AcDbEntity
  8
0
100
AcDbBlockEnd
  0
ENDSEC
  0
SECTION
  2
ENTITIES
  0
LWPOLYLINE
  5
2F
330
17
100
AcDbEntity
  8
PLYWOOD_BOUNDARY
 62
7
100
AcDbPolyline
 90
5
 70
0
 10
0.0
 20
0.0
 10
96.0
 20
0.0
 10
96.0
 20
48.0
 10
0.0
 20
48.0
 10
0.0
 20
0.0
  0
LWPOLYLINE
  5
30
330
17
100
AcDbEntity
  8
SHELF_R
 62
3
100
AcDbPolyline
 90
110
 70
1
 10
0.75
 20
23.33617429837347
 10
0.75
 20
20.77367429837347
 10
0.75
 20
20.77367429837347
 10
0.7452841574199319
 20
20.68970094129599
 10
0.7311959341363677
 20
20.606783597906237
 10
0.7079124977312756
 20
20.525965001907103
 10
0.6757266509268144
 20
20.4482614940353
 10
0.6350431494212132
 20
20.374650240986973
 10
0.5863736118510224
 20
20.30605694697943
 10
0.5303300858899107
 20
20.24334421248357
 10
0.4676173513940502
 20
20.187300686522455
 10
0.3990240573865025
 20
20.138631148952264
 10
0.32541280433816866
 20
20.097947647446667
 10
0.2477092964663754
 20
20.0657618006422
 10
0.16689070046723586
 20
20.042478364237105
 10
0.08397335707748099
 20
20.02839014095354
 10
1.1102230246251565e-16
 20
20.02367429837347
 10
0.0
 20
19.39867429837347
 10
0.0
 20
19.39867429837347
 10
0.13857465088649068
 20
19.102162612730275
 10
0.29625138211428226
 20
18.815352288612395
 10
0.47235456709484414
 20
18.53947227514461
 10
0.6661296240127665
 20
18.27570468633254
 10
0.8767462491217168
 20
18.025179735840574
 10
1.1033019745001287
 20
17.788970894156897
 10
1.3448260350220522
 20
17.568090288896315
 10
1.6002835279736383
 20
17.363484367950285
 10
1.8685798474917776
 20
17.176029844067017
 10
2.148565374823849
 20
17.006529938238536
 10
2.439040404311341
 20
16.855710937991475
 10
2.7387602839900866
 20
16.724219085328883
 10
3.0464407487802245
 20
16.61261780765785
 10
3.3607634234137924
 20
16.521385303568117
 10
3.6803814715205334
 20
16.450912493806342
 10
4.003925366666243
 20
16.40150134622582
 10
4.330008760615419
 20
16.3733635818891
 10
4.657234423673388
 20
16.366619767867682
 10
4.984200231654225
 20
16.381298800626034
 10
4.9842002317402745
 20
16.3812987995194
 10
5.456634206161171
 20
16.425234111552356
 10
5.929068180582068
 20
16.48308674490214
 10
6.401502155002965
 20
16.55397282848807
 10
6.873936129423862
 20
16.636809366503805
 10
7.346370103844759
 20
16.73033078440008
 10
7.818804078265655
 20
16.833108264300947
 10
8.291238052686552
 20
16.94357157444736
 10
8.76367202710745
 20
17.060033059158684
 10
9.236106001528347
 20
17.180713422793758
 10
9.708539975949243
 20
17.303768913785092
 10
10.180973950370142
 20
17.427319493429046
 10
10.653407924791036
 20
17.54947755906997
 10
11.125841899211935
 20
17.668376782846202
 10
11.598275873632831
 20
17.782200625400343
 10
12.070709848053728
 20
17.889210088921907
 10
12.543143822474626
 20
17.98777028551232
 10
13.015577796895522
 20
18.07637541496117
 10
13.488011771316419
 20
18.153671770324017
 10
13.960445745737315
 20
18.21847841982315
 10
14.432879720158212
 20
18.26980524909367
 10
14.90531369457911
 20
18.30686808812589
 10
15.377747669000007
 20
18.32910069179504
 10
15.850181643420903
 20
18.33616339094015
 10
16.322615617841798
 20
18.327948281820873
 10
16.795049592262696
 20
18.304580874668225
 10
17.267483566683595
 20
18.26641817614233
 10
17.73991754110449
 20
18.214043234993675
 10
18.212351515525388
 20
18.14825623425896
 10
18.684785489946286
 20
18.07006226608464
 10
19.15721946436718
 20
17.980655975954456
 10
19.62965343878808
 20
17.8814033109256
 10
20.102087413208977
 20
17.77382065072394
 10
20.574521387629872
 20
17.65955164053255
 10
21.04695536205077
 20
17.540342079421876
 10
21.519389336471665
 20
17.418013248075354
 10
21.991823310892563
 20
17.2944340833088
 10
22.46425728531346
 20
17.17149262450065
 10
22.936691259734356
 20
17.051067168173716
 10
23.409125234155255
 20
16.934997571428035
 10
23.88155920857615
 20
16.825057142650238
 10
24.353993182997048
 20
16.72292554895256
 10
24.826427157417946
 20
16.63016315426082
 10
25.29886113183884
 20
16.5481871801135
 10
25.77129510625974
 20
16.478250053386688
 10
26.243729080680634
 20
16.42142027174763
 10
26.716163055101532
 20
16.37856607917422
 10
27.18859702952243
 20
16.350342200945313
 10
27.661031003943325
 20
16.33717984076428
 10
28.133464978364223
 20
16.3392800928397
 10
28.133464978364223
 20
16.339280092839708
 10
28.278003093238738
 20
16.33877742361304
 10
28.42234923999531
 20
16.331313561049974
 10
28.566168350821172
 20
16.316905830864847
 10
28.709126581301497
 20
16.2955876774325
 10
28.850892085365704
 20
16.267408586154545
 10
28.99113578559511
 20
16.232433968589874
 10
29.129532137103716
 20
16.19074501061614
 10
29.265759883219033
 20
16.1424384839746
 10
29.399502801208737
 20
16.087626521635798
 10
29.530450436322138
 20
16.026436357507585
 10
29.65829882244258
 20
15.959010031089575
 10
29.78275118767788
 20
15.885504057759723
 10
29.903518643250962
 20
15.806089065458307
 10
30.020320854091572
 20
15.72094939861273
 10
30.132886689572448
 20
15.630282690222485
 10
30.24095485287942
 20
15.534299403097654
 10
30.34427448755443
 20
15.433222341315803
 10
30.44260575980362
 20
15.327286133031356
 10
30.535720415218687
 20
15.21673668583797
 10
30.535720415218687
 20
23.33617429837347
 10
0.75
 20
23.33617429837347
  0
LWPOLYLINE
  5
31
330
17
100
AcDbEntity
  8
BRACKET_OUTLINE
 62
6
100
AcDbPolyline
 90
87
 70
1
 10
7.24
 20
23.33617429837347
 10
7.20262013756228
 20
23.29192637051579
 10
7.160373719622884
 20
23.252298433314216
 10
7.113827715625457
 20
23.217822314805396
 10
7.063606797749979
 20
23.188960702873523
 10
7.010384957479186
 20
23.166100935732267
 10
6.954876460273681
 20
23.14954980363961
 10
6.897826259748783
 20
23.13952943160904
 10
6.84
 20
23.13617429837347
 10
6.04
 20
23.13617429837347
 10
6.04
 20
19.489727688966745
 10
6.056475918044048
 20
19.47154931471102
 10
6.071090707779
 20
19.451843551925016
 10
6.083703620790452
 20
19.430800177876613
 10
6.094193187831185
 20
19.40862185176139
 10
6.102458388636416
 20
19.385522162983726
 10
6.108419624804171
 20
19.361723574174142
 10
6.112019486371413
 20
19.337455278752508
 10
6.1132233047033635
 20
19.312950993670107
 10
6.112019486371413
 20
19.28844670858772
 10
6.108419624804171
 20
19.264178413166086
 10
6.102458388636416
 20
19.240379824356502
 10
6.094193187831185
 20
19.21728013557884
 10
6.083703620790452
 20
19.195101809463615
 10
6.071090707779
 20
19.174058435415212
 10
6.056475918044048
 20
19.154352672629194
 10
6.04
 20
19.13617429837347
 10
6.021821625744274
 20
19.11969838032943
 10
6.002115862958264
 20
19.105083590594468
 10
5.981072488909863
 20
19.092470677583016
 10
5.9588941627946355
 20
19.081981110542294
 10
5.935794474016979
 20
19.073715909737054
 10
5.9119958852073955
 20
19.067754673569304
 10
5.8877275897857535
 20
19.064154812002066
 10
5.8632233047033635
 20
19.062950993670107
 10
5.8387190196209735
 20
19.064154812002066
 10
5.8144507241993315
 20
19.067754673569304
 10
5.790652135389748
 20
19.073715909737054
 10
5.767552446612091
 20
19.081981110542294
 10
5.745374120496864
 20
19.092470677583016
 10
5.724330746448463
 20
19.105083590594468
 10
5.704624983662452
 20
19.11969838032943
 10
5.686446609406726
 20
19.13617429837347
 10
4.778553390593274
 20
19.13617429837347
 10
4.760375016337549
 20
19.11969838032943
 10
4.740669253551538
 20
19.105083590594468
 10
4.719625879503137
 20
19.092470677583016
 10
4.697447553387909
 20
19.081981110542294
 10
4.674347864610253
 20
19.073715909737054
 10
4.650549275800669
 20
19.067754673569304
 10
4.626280980379027
 20
19.064154812002066
 10
4.601776695296637
 20
19.062950993670107
 10
4.577272410214247
 20
19.064154812002066
 10
4.553004114792605
 20
19.067754673569304
 10
4.529205525983022
 20
19.073715909737054
 10
4.506105837205364
 20
19.081981110542294
 10
4.483927511090138
 20
19.092470677583016
 10
4.462884137041737
 20
19.105083590594468
 10
4.443178374255726
 20
19.11969838032943
 10
4.425000000000001
 20
19.13617429837347
 10
4.408524081955953
 20
19.154352672629194
 10
4.393909292221
 20
19.174058435415212
 10
4.381296379209548
 20
19.195101809463615
 10
4.370806812168816
 20
19.21728013557884
 10
4.362541611363585
 20
19.240379824356502
 10
4.356580375195829
 20
19.264178413166086
 10
4.352980513628587
 20
19.28844670858772
 10
4.351776695296637
 20
19.312950993670107
 10
4.352980513628587
 20
19.337455278752508
 10
4.356580375195829
 20
19.361723574174142
 10
4.362541611363585
 20
19.385522162983726
 10
4.370806812168816
 20
19.40862185176139
 10
4.381296379209548
 20
19.430800177876613
 10
4.393909292221
 20
19.451843551925016
 10
4.408524081955953
 20
19.47154931471102
 10
4.425
 20
19.489727688966745
 10
4.425
 20
23.13617429837347
 10
3.625
 20
23.13617429837347
 10
3.567173740251217
 20
23.13952943160904
 10
3.5101235397263197
 20
23.14954980363961
 10
3.454615042520814
 20
23.166100935732267
 10
3.401393202250021
 20
23.188960702873523
 10
3.3511722843745426
 20
23.217822314805396
 10
3.304626280377116
 20
23.252298433314216
 10
3.2623798624377196
 20
23.29192637051579
 10
3.225
 20
23.33617429837347
 10
7.24
 20
23.33617429837347
  0
LWPOLYLINE
  5
32
330
17
100
AcDbEntity
  8
BRACKET_OUTLINE
 62
6
100
AcDbPolyline
 90
87
 70
1
 10
20.665
 20
23.33617429837347
 10
20.62762013756228
 20
23.29192637051579
 10
20.585373719622883
 20
23.252298433314216
 10
20.538827715625455
 20
23.217822314805396
 10
20.488606797749977
 20
23.188960702873523
 10
20.435384957479187
 20
23.166100935732267
 10
20.379876460273678
 20
23.14954980363961
 10
20.322826259748783
 20
23.13952943160904
 10
20.265
 20
23.13617429837347
 10
19.465
 20
23.13617429837347
 10
19.465
 20
19.489727688966745
 10
19.481475918044048
 20
19.47154931471102
 10
19.496090707778997
 20
19.451843551925016
 10
19.508703620790453
 20
19.430800177876613
 10
19.519193187831185
 20
19.40862185176139
 10
19.527458388636415
 20
19.385522162983726
 10
19.53341962480417
 20
19.361723574174142
 10
19.53701948637141
 20
19.337455278752508
 10
19.53822330470336
 20
19.312950993670107
 10
19.53701948637141
 20
19.28844670858772
 10
19.53341962480417
 20
19.264178413166086
 10
19.527458388636415
 20
19.240379824356502
 10
19.519193187831185
 20
19.21728013557884
 10
19.508703620790453
 20
19.195101809463615
 10
19.496090707778997
 20
19.174058435415212
 10
19.481475918044048
 20
19.154352672629194
 10
19.465
 20
19.13617429837347
 10
19.446821625744274
 20
19.11969838032943
 10
19.427115862958264
 20
19.105083590594468
 10
19.40607248890986
 20
19.092470677583016
 10
19.383894162794636
 20
19.081981110542294
 10
19.360794474016977
 20
19.073715909737054
 10
19.336995885207394
 20
19.067754673569304
 10
19.31272758978575
 20
19.064154812002066
 10
19.28822330470336
 20
19.062950993670107
 10
19.26371901962097
 20
19.064154812002066
 10
19.23945072419933
 20
19.067754673569304
 10
19.215652135389746
 20
19.073715909737054
 10
19.19255244661209
 20
19.081981110542294
 10
19.170374120496863
 20
19.092470677583016
 10
19.149330746448463
 20
19.105083590594468
 10
19.129624983662453
 20
19.11969838032943
 10
19.111446609406727
 20
19.13617429837347
 10
18.203553390593274
 20
19.13617429837347
 10
18.18537501633755
 20
19.11969838032943
 10
18.16566925355154
 20
19.105083590594468
 10
18.144625879503135
 20
19.092470677583016
 10
18.122447553387907
 20
19.081981110542294
 10
18.09934786461025
 20
19.073715909737054
 10
18.075549275800668
 20
19.067754673569304
 10
18.051280980379026
 20
19.064154812002066
 10
18.026776695296636
 20
19.062950993670107
 10
18.002272410214246
 20
19.064154812002066
 10
17.978004114792604
 20
19.067754673569304
 10
17.95420552598302
 20
19.073715909737054
 10
17.931105837205365
 20
19.081981110542294
 10
17.908927511090138
 20
19.092470677583016
 10
17.887884137041734
 20
19.105083590594468
 10
17.868178374255724
 20
19.11969838032943
 10
17.849999999999998
 20
19.13617429837347
 10
17.83352408195595
 20
19.154352672629194
 10
17.818909292221
 20
19.174058435415212
 10
17.80629637920955
 20
19.195101809463615
 10
17.795806812168813
 20
19.21728013557884
 10
17.787541611363583
 20
19.240379824356502
 10
17.78158037519583
 20
19.264178413166086
 10
17.777980513628588
 20
19.28844670858772
 10
17.776776695296636
 20
19.312950993670107
 10
17.777980513628588
 20
19.337455278752508
 10
17.78158037519583
 20
19.361723574174142
 10
17.787541611363583
 20
19.385522162983726
 10
17.795806812168813
 20
19.40862185176139
 10
17.80629637920955
 20
19.430800177876613
 10
17.818909292221
 20
19.451843551925016
 10
17.83352408195595
 20
19.47154931471102
 10
17.849999999999998
 20
19.489727688966745
 10
17.849999999999998
 20
23.13617429837347
 10
17.049999999999997
 20
23.13617429837347
 10
16.992173740251214
 20
23.13952943160904
 10
16.93512353972632
 20
23.14954980363961
 10
16.87961504252081
 20
23.166100935732267
 10
16.82639320225002
 20
23.188960702873523
 10
16.776172284374542
 20
23.217822314805396
 10
16.729626280377115
 20
23.252298433314216
 10
16.68737986243772
 20
23.29192637051579
 10
16.65
 20
23.33617429837347
 10
20.665
 20
23.33617429837347
  0
LWPOLYLINE
  5
33
330
17
100
AcDbEntity
  8
BRACKET_OUTLINE
 62
6
100
AcDbPolyline
 90
87
 70
1
 10
29.814999999999998
 20
23.33617429837347
 10
29.777620137562277
 20
23.29192637051579
 10
29.73537371962288
 20
23.252298433314216
 10
29.688827715625454
 20
23.217822314805396
 10
29.638606797749976
 20
23.188960702873523
 10
29.585384957479185
 20
23.166100935732267
 10
29.529876460273677
 20
23.14954980363961
 10
29.472826259748782
 20
23.13952943160904
 10
29.415
 20
23.13617429837347
 10
28.615
 20
23.13617429837347
 10
28.615
 20
19.489727688966745
 10
28.631475918044046
 20
19.47154931471102
 10
28.646090707778995
 20
19.451843551925016
 10
28.65870362079045
 20
19.430800177876613
 10
28.669193187831183
 20
19.40862185176139
 10
28.677458388636413
 20
19.385522162983726
 10
28.68341962480417
 20
19.361723574174142
 10
28.68701948637141
 20
19.337455278752508
 10
28.68822330470336
 20
19.312950993670107
 10
28.68701948637141
 20
19.28844670858772
 10
28.68341962480417
 20
19.264178413166086
 10
28.677458388636413
 20
19.240379824356502
 10
28.669193187831183
 20
19.21728013557884
 10
28.65870362079045
 20
19.195101809463615
 10
28.646090707778995
 20
19.174058435415212
 10
28.631475918044046
 20
19.154352672629194
 10
28.615
 20
19.13617429837347
 10
28.596821625744273
 20
19.11969838032943
 10
28.577115862958262
 20
19.105083590594468
 10
28.55607248890986
 20
19.092470677583016
 10
28.533894162794635
 20
19.081981110542294
 10
28.510794474016976
 20
19.073715909737054
 10
28.486995885207392
 20
19.067754673569304
 10
28.46272758978575
 20
19.064154812002066
 10
28.43822330470336
 20
19.062950993670107
 10
28.41371901962097
 20
19.064154812002066
 10
28.389450724199328
 20
19.067754673569304
 10
28.365652135389745
 20
19.073715909737054
 10
28.34255244661209
 20
19.081981110542294
 10
28.32037412049686
 20
19.092470677583016
 10
28.29933074644846
 20
19.105083590594468
 10
28.27962498366245
 20
19.11969838032943
 10
28.261446609406725
 20
19.13617429837347
 10
27.353553390593273
 20
19.13617429837347
 10
27.335375016337547
 20
19.11969838032943
 10
27.315669253551537
 20
19.105083590594468
 10
27.294625879503133
 20
19.092470677583016
 10
27.272447553387906
 20
19.081981110542294
 10
27.24934786461025
 20
19.073715909737054
 10
27.225549275800667
 20
19.067754673569304
 10
27.201280980379025
 20
19.064154812002066
 10
27.176776695296635
 20
19.062950993670107
 10
27.152272410214245
 20
19.064154812002066
 10
27.128004114792603
 20
19.067754673569304
 10
27.10420552598302
 20
19.073715909737054
 10
27.081105837205364
 20
19.081981110542294
 10
27.058927511090136
 20
19.092470677583016
 10
27.037884137041733
 20
19.105083590594468
 10
27.018178374255722
 20
19.11969838032943
 10
26.999999999999996
 20
19.13617429837347
 10
26.98352408195595
 20
19.154352672629194
 10
26.968909292221
 20
19.174058435415212
 10
26.956296379209547
 20
19.195101809463615
 10
26.94580681216881
 20
19.21728013557884
 10
26.93754161136358
 20
19.240379824356502
 10
26.93158037519583
 20
19.264178413166086
 10
26.927980513628587
 20
19.28844670858772
 10
26.926776695296635
 20
19.312950993670107
 10
26.927980513628587
 20
19.337455278752508
 10
26.93158037519583
 20
19.361723574174142
 10
26.93754161136358
 20
19.385522162983726
 10
26.94580681216881
 20
19.40862185176139
 10
26.956296379209547
 20
19.430800177876613
 10
26.968909292221
 20
19.451843551925016
 10
26.98352408195595
 20
19.47154931471102
 10
26.999999999999996
 20
19.489727688966745
 10
26.999999999999996
 20
23.13617429837347
 10
26.199999999999996
 20
23.13617429837347
 10
26.142173740251213
 20
23.13952943160904
 10
26.085123539726318
 20
23.14954980363961
 10
26.02961504252081
 20
23.166100935732267
 10
25.97639320225002
 20
23.188960702873523
 10
25.92617228437454
 20
23.217822314805396
 10
25.879626280377114
 20
23.252298433314216
 10
25.837379862437718
 20
23.29192637051579
 10
25.799999999999997
 20
23.33617429837347
 10
29.814999999999998
 20
23.33617429837347
  0
LINE
  5
34
330
17
100
AcDbEntity
  8
BRACKET_CUT_LINE
 62
4
100
AcDbLine
 10
4.425
 20
23.13617429837347
 30
0.0
 11
6.04
 21
23.13617429837347
 31
0.0
  0
LINE
  5
35
330
17
100
AcDbEntity
  8
BRACKET_CUT_LINE
 62
4
100
AcDbLine
 10
17.849999999999998
 20
23.13617429837347
 30
0.0
 11
19.465
 21
23.13617429837347
 31
0.0
  0
LINE
  5
36
330
17
100
AcDbEntity
  8
BRACKET_CUT_LINE
 62
4
100
AcDbLine
 10
26.999999999999996
 20
23.13617429837347
 30
0.0
 11
28.615
 21
23.13617429837347
 31
0.0
  0
LWPOLYLINE
  5
37
330
17
100
AcDbEntity
  8
SHELF_R
 62
3
100
AcDbPolyline
 90
110
 70
1
 10
29.392860207609345
 20
9.667971606397357
 10
0.3928602076093455
 20
9.667971606397357
 10
0.3928602076093455
 20
12.828624498810383
 10
0.3928602076093455
 20
12.828624498810383
 10
0.4000450371409521
 20
13.036127162442062
 10
0.42156511121883966
 20
13.242635911896711
 10
0.4573173511338382
 20
13.447161593733254
 10
0.5071305077198396
 20
13.648724553179127
 10
0.5707659816178392
 20
13.84635932656534
 10
0.6479189661397591
 20
14.039119265787681
 10
0.7382199072578395
 20
14.2260810726436
 10
0.8412362737264232
 20
14.406349221325646
 10
0.9564746288574852
 20
14.579060247888298
 10
1.0833829940262767
 20
14.743386886142195
 10
1.2213534925862213
 20
14.898542030165073
 10
1.3697252615289521
 20
15.043782504449771
 10
1.52778761694303
 20
15.178412623630413
 10
1.694783458109118
 20
15.30178752473624
 10
1.8699128939263687
 20
15.413316256011965
 10
2.0523370742999028
 20
15.512464607509527
 10
2.2411822081374417
 20
15.59875766989303
 10
2.435543748709321
 20
15.671782109200477
 10
2.634490726324529
 20
15.731188146666495
 10
2.6344907263245645
 20
15.73118814666636
 10
3.0920460704867985
 20
15.849997556210502
 10
3.549601414649036
 20
15.96619817978341
 10
4.00715675881127
 20
16.078124636394413
 10
4.4647121029735075
 20
16.184172802180314
 10
4.9222674471357415
 20
16.282822800620963
 10
5.3798227912979755
 20
16.372660785326552
 10
5.837378135460213
 20
16.452399203206852
 10
6.294933479622447
 20
16.520895247611776
 10
6.752488823784681
 20
16.57716723697387
 10
7.2100441679469185
 20
16.620408684214944
 10
7.6675995121091525
 20
16.649999855274793
 10
8.12515485627139
 20
16.665516651105932
 10
8.582710200433624
 20
16.666736685837968
 10
9.040265544595862
 20
16.653642473999767
 10
9.497820888758095
 20
16.626421681120227
 10
9.95537623292033
 20
16.585464434116226
 10
10.412931577082567
 20
16.53135773001491
 10
10.870486921244801
 20
16.46487702314439
 10
11.328042265407035
 20
16.38697511136462
 10
11.785597609569272
 20
16.29876848062058
 10
12.243152953731506
 20
16.20152130352661
 10
12.70070829789374
 20
16.096627321313598
 10
13.158263642055978
 20
15.985589868805752
 10
13.615818986218216
 20
15.870000328708036
 10
14.07337433038045
 20
15.751515323996108
 10
14.530929674542683
 20
15.631832975286349
 10
14.98848501870492
 20
15.512668563463945
 10
15.446040362867155
 20
15.395729946370869
 10
15.90359570702939
 20
15.282693081880614
 10
16.361151051191626
 20
15.175178008161458
 10
16.81870639535386
 20
15.074725625377928
 10
17.276261739516094
 20
14.9827756115938
 10
17.733817083678332
 20
14.90064578938471
 10
18.19137242784057
 20
14.829513238876975
 10
18.648927772002803
 20
14.770397427899509
 10
19.106483116165037
 20
14.724145601026612
 10
19.56403846032727
 20
14.691420636914904
 10
20.02159380448951
 20
14.672691547962776
 10
20.479149148651743
 20
14.66822675845018
 10
20.93670449281398
 20
14.67809025749654
 10
21.394259836976214
 20
14.702140681972244
 10
21.85181518113845
 20
14.740033342507237
 10
22.309370525300686
 20
14.791225163560268
 10
22.76692586946292
 20
14.854982466747876
 10
23.224481213625157
 20
14.930391485882941
 10
23.68203655778739
 20
15.016371463021725
 10
24.139591901949625
 20
15.111690137827749
 10
24.597147246111863
 20
15.21498140825958
 10
25.054702590274097
 20
15.324764909470728
 10
25.05470259038618
 20
15.324764909014908
 10
25.34642926151634
 20
15.387332721859726
 10
25.641368441944742
 20
15.432388927881666
 10
25.938469921889862
 20
15.459773092416837
 10
26.236675792124814
 20
15.469387706828334
 10
26.534924210945928
 20
15.4611985357118
 10
26.8321531851439
 20
15.435234738799755
 10
27.12730435151449
 20
15.391588767130548
 10
27.419326745443566
 20
15.33041603385176
 10
27.707180543147523
 20
15.251934360830104
 10
27.989840764243766
 20
15.156423203038498
 10
28.266300921467316
 20
15.044222653481915
 10
28.535576604537738
 20
14.915732232205363
 10
28.79670898541504
 20
14.771409463695958
 10
29.048768232463186
 20
14.611768247744726
 10
29.29085682136414
 20
14.437377029568998
 10
29.52211273099312
 20
14.248856775711365
 10
29.741712512875157
 20
14.046878762922281
 10
29.948874223293537
 20
13.83216218789976
 10
30.142860207609345
 20
13.605471606397364
 10
30.142860207609345
 20
12.980471606397364
 10
30.142860207609345
 20
12.980471606397364
 10
30.058886850531863
 20
12.975755763817295
 10
29.97596950714211
 20
12.96166754053373
 10
29.89515091114297
 20
12.938384104128643
 10
29.817447403271178
 20
12.906198257324176
 10
29.743836150222844
 20
12.865514755818579
 10
29.675242856215295
 20
12.816845218248387
 10
29.612530121719434
 20
12.760801692287272
 10
29.556486595758322
 20
12.698088957791411
 10
29.50781705818813
 20
12.62949566378387
 10
29.46713355668253
 20
12.555884410735535
 10
29.43494770987807
 20
12.47818090286374
 10
29.41166427347298
 20
12.397362306864599
 10
29.397576050189414
 20
12.314444963474847
 10
29.392860207609345
 20
12.230471606397364
 10
29.392860207609345
 20
9.667971606397357
  0
LWPOLYLINE
  5
38
330
17
100
AcDbEntity
  8
BRACKET_OUTLINE
 62
6
100
AcDbPolyline
 90
87
 70
1
 10
22.902860207609343
 20
9.667971606397357
 10
22.940240070047064
 20
9.712219534255047
 10
22.982486487986463
 20
9.75184747145662
 10
23.029032491983887
 20
9.786323589965432
 10
23.079253409859366
 20
9.815185201897313
 10
23.13247525013016
 20
9.838044969038569
 10
23.187983747335664
 20
9.85459610113122
 10
23.245033947860563
 20
9.864616473161794
 10
23.302860207609346
 20
9.86797160639736
 10
24.102860207609346
 20
9.86797160639736
 10
24.102860207609346
 20
13.51441821580409
 10
24.0863842895653
 20
13.532596590059816
 10
24.071769499830346
 20
13.552302352845834
 10
24.059156586818894
 20
13.573345726894237
 10
24.04866701977816
 20
13.595524053009461
 10
24.04040181897293
 20
13.61862374178711
 10
24.034440582805175
 20
13.642422330596693
 10
24.030840721237933
 20
13.666690626018342
 10
24.02963690290598
 20
13.691194911100729
 10
24.030840721237933
 20
13.715699196183115
 10
24.034440582805175
 20
13.739967491604764
 10
24.04040181897293
 20
13.763766080414348
 10
24.04866701977816
 20
13.78686576919201
 10
24.059156586818894
 20
13.809044095307234
 10
24.071769499830346
 20
13.830087469355638
 10
24.0863842895653
 20
13.849793232141641
 10
24.102860207609346
 20
13.867971606397367
 10
24.121038581865072
 20
13.884447524441418
 10
24.140744344651083
 20
13.899062314176367
 10
24.161787718699482
 20
13.91167522718782
 10
24.18396604481471
 20
13.922164794228555
 10
24.207065733592366
 20
13.930429995033782
 10
24.23086432240195
 20
13.936391231201531
 10
24.25513261782359
 20
13.939991092768784
 10
24.27963690290598
 20
13.941194911100729
 10
24.30414118798837
 20
13.939991092768784
 10
24.328409483410013
 20
13.936391231201531
 10
24.352208072219597
 20
13.930429995033782
 10
24.375307760997256
 20
13.922164794228555
 10
24.397486087112483
 20
13.91167522718782
 10
24.418529461160883
 20
13.899062314176367
 10
24.438235223946894
 20
13.884447524441418
 10
24.45641359820262
 20
13.867971606397367
 10
25.36430681701607
 20
13.867971606397367
 10
25.382485191271797
 20
13.884447524441418
 10
25.402190954057808
 20
13.899062314176367
 10
25.423234328106208
 20
13.91167522718782
 10
25.445412654221435
 20
13.922164794228555
 10
25.46851234299909
 20
13.930429995033782
 10
25.492310931808674
 20
13.936391231201531
 10
25.516579227230316
 20
13.939991092768784
 10
25.54108351231271
 20
13.941194911100729
 10
25.565587797395096
 20
13.939991092768784
 10
25.58985609281674
 20
13.936391231201531
 10
25.613654681626322
 20
13.930429995033782
 10
25.63675437040398
 20
13.922164794228555
 10
25.65893269651921
 20
13.91167522718782
 10
25.67997607056761
 20
13.899062314176367
 10
25.69968183335362
 20
13.884447524441418
 10
25.717860207609345
 20
13.867971606397367
 10
25.734336125653392
 20
13.849793232141641
 10
25.748950915388345
 20
13.830087469355638
 10
25.761563828399797
 20
13.809044095307234
 10
25.77205339544053
 20
13.78686576919201
 10
25.78031859624576
 20
13.763766080414348
 10
25.786279832413516
 20
13.739967491604764
 10
25.789879693980758
 20
13.715699196183115
 10
25.79108351231271
 20
13.691194911100729
 10
25.789879693980758
 20
13.666690626018342
 10
25.786279832413516
 20
13.642422330596693
 10
25.78031859624576
 20
13.61862374178711
 10
25.77205339544053
 20
13.595524053009461
 10
25.761563828399797
 20
13.573345726894237
 10
25.748950915388345
 20
13.552302352845834
 10
25.734336125653392
 20
13.532596590059816
 10
25.717860207609345
 20
13.51441821580409
 10
25.717860207609345
 20
9.86797160639736
 10
26.517860207609345
 20
9.86797160639736
 10
26.57568646735813
 20
9.864616473161794
 10
26.632736667883027
 20
9.85459610113122
 10
26.68824516508853
 20
9.838044969038569
 10
26.741467005359326
 20
9.815185201897313
 10
26.791687923234804
 20
9.786323589965432
 10
26.83823392723223
 20
9.75184747145662
 10
26.880480345171627
 20
9.712219534255047
 10
26.917860207609344
 20
9.667971606397357
 10
22.902860207609343
 20
9.667971606397357
  0
LWPOLYLINE
  5
39
330
17
100
AcDbEntity
  8
BRACKET_OUTLINE
 62
6
100
AcDbPolyline
 90
87
 70
1
 10
9.477860207609346
 20
9.667971606397357
 10
9.515240070047067
 20
9.712219534255047
 10
9.557486487986463
 20
9.75184747145662
 10
9.60403249198389
 20
9.786323589965432
 10
9.654253409859368
 20
9.815185201897313
 10
9.707475250130159
 20
9.838044969038569
 10
9.762983747335667
 20
9.85459610113122
 10
9.820033947860562
 20
9.864616473161794
 10
9.877860207609345
 20
9.86797160639736
 10
10.677860207609346
 20
9.86797160639736
 10
10.677860207609346
 20
13.51441821580409
 10
10.661384289565298
 20
13.532596590059816
 10
10.646769499830349
 20
13.552302352845834
 10
10.634156586818893
 20
13.573345726894237
 10
10.62366701977816
 20
13.595524053009461
 10
10.61540181897293
 20
13.61862374178711
 10
10.609440582805174
 20
13.642422330596693
 10
10.605840721237936
 20
13.666690626018342
 10
10.604636902905984
 20
13.691194911100729
 10
10.605840721237936
 20
13.715699196183115
 10
10.609440582805174
 20
13.739967491604764
 10
10.61540181897293
 20
13.763766080414348
 10
10.62366701977816
 20
13.78686576919201
 10
10.634156586818893
 20
13.809044095307234
 10
10.646769499830349
 20
13.830087469355638
 10
10.661384289565298
 20
13.849793232141641
 10
10.677860207609346
 20
13.867971606397367
 10
10.696038581865071
 20
13.884447524441418
 10
10.715744344651082
 20
13.899062314176367
 10
10.736787718699485
 20
13.91167522718782
 10
10.75896604481471
 20
13.922164794228555
 10
10.782065733592368
 20
13.930429995033782
 10
10.805864322401952
 20
13.936391231201531
 10
10.830132617823594
 20
13.939991092768784
 10
10.854636902905984
 20
13.941194911100729
 10
10.879141187988374
 20
13.939991092768784
 10
10.903409483410016
 20
13.936391231201531
 10
10.9272080722196
 20
13.930429995033782
 10
10.950307760997255
 20
13.922164794228555
 10
10.972486087112483
 20
13.91167522718782
 10
10.993529461160882
 20
13.899062314176367
 10
11.013235223946893
 20
13.884447524441418
 10
11.031413598202619
 20
13.867971606397367
 10
11.939306817016071
 20
13.867971606397367
 10
11.957485191271797
 20
13.884447524441418
 10
11.977190954057807
 20
13.899062314176367
 10
11.99823432810621
 20
13.91167522718782
 10
12.020412654221438
 20
13.922164794228555
 10
12.043512342999094
 20
13.930429995033782
 10
12.067310931808677
 20
13.936391231201531
 10
12.09157922723032
 20
13.939991092768784
 10
12.11608351231271
 20
13.941194911100729
 10
12.1405877973951
 20
13.939991092768784
 10
12.164856092816741
 20
13.936391231201531
 10
12.188654681626325
 20
13.930429995033782
 10
12.21175437040398
 20
13.922164794228555
 10
12.233932696519208
 20
13.91167522718782
 10
12.254976070567611
 20
13.899062314176367
 10
12.274681833353622
 20
13.884447524441418
 10
12.292860207609348
 20
13.867971606397367
 10
12.309336125653395
 20
13.849793232141641
 10
12.323950915388345
 20
13.830087469355638
 10
12.336563828399797
 20
13.809044095307234
 10
12.347053395440533
 20
13.78686576919201
 10
12.355318596245763
 20
13.763766080414348
 10
12.361279832413516
 20
13.739967491604764
 10
12.364879693980757
 20
13.715699196183115
 10
12.36608351231271
 20
13.691194911100729
 10
12.364879693980757
 20
13.666690626018342
 10
12.361279832413516
 20
13.642422330596693
 10
12.355318596245763
 20
13.61862374178711
 10
12.347053395440533
 20
13.595524053009461
 10
12.336563828399797
 20
13.573345726894237
 10
12.323950915388345
 20
13.552302352845834
 10
12.309336125653395
 20
13.532596590059816
 10
12.292860207609348
 20
13.51441821580409
 10
12.292860207609348
 20
9.86797160639736
 10
13.092860207609348
 20
9.86797160639736
 10
13.150686467358131
 20
9.864616473161794
 10
13.207736667883026
 20
9.85459610113122
 10
13.263245165088534
 20
9.838044969038569
 10
13.316467005359325
 20
9.815185201897313
 10
13.366687923234803
 20
9.786323589965432
 10
13.41323392723223
 20
9.75184747145662
 10
13.455480345171626
 20
9.712219534255047
 10
13.492860207609347
 20
9.667971606397357
 10
9.477860207609346
 20
9.667971606397357
  0
LWPOLYLINE
  5
3A
330
17
100
AcDbEntity
  8
BRACKET_OUTLINE
 62
6
100
AcDbPolyline
 90
87
 70
1
 10
0.32786020760934775
 20
9.667971606397357
 10
0.3652400700470686
 20
9.712219534255047
 10
0.40748648798646414
 20
9.75184747145662
 10
0.4540324919838916
 20
9.786323589965432
 10
0.5042534098593698
 20
9.815185201897313
 10
0.5574752501301603
 20
9.838044969038569
 10
0.6129837473356687
 20
9.85459610113122
 10
0.6700339478605635
 20
9.864616473161794
 10
0.7278602076093463
 20
9.86797160639736
 10
1.527860207609347
 20
9.86797160639736
 10
1.527860207609347
 20
13.51441821580409
 10
1.5113842895652994
 20
13.532596590059816
 10
1.49676949983035
 20
13.552302352845834
 10
1.4841565868188944
 20
13.573345726894237
 10
1.473667019778162
 20
13.595524053009461
 10
1.465401818972932
 20
13.61862374178711
 10
1.4594405828051755
 20
13.642422330596693
 10
1.4558407212379372
 20
13.666690626018342
 10
1.4546369029059854
 20
13.691194911100729
 10
1.4558407212379372
 20
13.715699196183115
 10
1.4594405828051755
 20
13.739967491604764
 10
1.465401818972932
 20
13.763766080414348
 10
1.473667019778162
 20
13.78686576919201
 10
1.4841565868188944
 20
13.809044095307234
 10
1.49676949983035
 20
13.830087469355638
 10
1.5113842895652994
 20
13.849793232141641
 10
1.527860207609347
 20
13.867971606397367
 10
1.5460385818650728
 20
13.884447524441418
 10
1.5657443446510833
 20
13.899062314176367
 10
1.5867877186994868
 20
13.91167522718782
 10
1.6089660448147107
 20
13.922164794228555
 10
1.6320657335923698
 20
13.930429995033782
 10
1.6558643224019534
 20
13.936391231201531
 10
1.6801326178235954
 20
13.939991092768784
 10
1.7046369029059854
 20
13.941194911100729
 10
1.7291411879883753
 20
13.939991092768784
 10
1.7534094834100173
 20
13.936391231201531
 10
1.7772080722196009
 20
13.930429995033782
 10
1.8003077609972564
 20
13.922164794228555
 10
1.822486087112484
 20
13.91167522718782
 10
1.843529461160884
 20
13.899062314176367
 10
1.8632352239468943
 20
13.884447524441418
 10
1.88141359820262
 20
13.867971606397367
 10
2.7893068170160724
 20
13.867971606397367
 10
2.807485191271798
 20
13.884447524441418
 10
2.8271909540578086
 20
13.899062314176367
 10
2.848234328106212
 20
13.91167522718782
 10
2.8704126542214397
 20
13.922164794228555
 10
2.893512342999095
 20
13.930429995033782
 10
2.9173109318086787
 20
13.936391231201531
 10
2.9415792272303207
 20
13.939991092768784
 10
2.9660835123127107
 20
13.941194911100729
 10
2.9905877973951007
 20
13.939991092768784
 10
3.0148560928167427
 20
13.936391231201531
 10
3.0386546816263262
 20
13.930429995033782
 10
3.061754370403982
 20
13.922164794228555
 10
3.0839326965192093
 20
13.91167522718782
 10
3.104976070567613
 20
13.899062314176367
 10
3.1246818333536233
 20
13.884447524441418
 10
3.142860207609349
 20
13.867971606397367
 10
3.1593361256533967
 20
13.849793232141641
 10
3.173950915388346
 20
13.830087469355638
 10
3.186563828399798
 20
13.809044095307234
 10
3.197053395440534
 20
13.78686576919201
 10
3.205318596245764
 20
13.763766080414348
 10
3.211279832413517
 20
13.739967491604764
 10
3.214879693980759
 20
13.715699196183115
 10
3.2160835123127107
 20
13.691194911100729
 10
3.214879693980759
 20
13.666690626018342
 10
3.211279832413517
 20
13.642422330596693
 10
3.205318596245764
 20
13.61862374178711
 10
3.197053395440534
 20
13.595524053009461
 10
3.186563828399798
 20
13.573345726894237
 10
3.173950915388346
 20
13.552302352845834
 10
3.1593361256533967
 20
13.532596590059816
 10
3.142860207609349
 20
13.51441821580409
 10
3.142860207609349
 20
9.86797160639736
 10
3.9428602076093497
 20
9.86797160639736
 10
4.000686467358133
 20
9.864616473161794
 10
4.057736667883027
 20
9.85459610113122
 10
4.113245165088536
 20
9.838044969038569
 10
4.166467005359326
 20
9.815185201897313
 10
4.2166879232348045
 20
9.786323589965432
 10
4.263233927232232
 20
9.75184747145662
 10
4.3054803451716275
 20
9.712219534255047
 10
4.342860207609348
 20
9.667971606397357
 10
0.32786020760934775
 20
9.667971606397357
  0
LINE
  5
3B
330
17
100
AcDbEntity
  8
BRACKET_CUT_LINE
 62
4
100
AcDbLine
 10
25.717860207609345
 20
9.86797160639736
 30
0.0
 11
24.102860207609346
 21
9.86797160639736
 31
0.0
  0
LINE
  5
3C
330
17
100
AcDbEntity
  8
BRACKET_CUT_LINE
 62
4
100
AcDbLine
 10
12.292860207609348
 20
9.86797160639736
 30
0.0
 11
10.677860207609346
 21
9.86797160639736
 31
0.0
  0
LINE
  5
3D
330
17
100
AcDbEntity
  8
BRACKET_CUT_LINE
 62
4
100
AcDbLine
 10
3.142860207609349
 20
9.86797160639736
 30
0.0
 11
1.527860207609347
 21
9.86797160639736
 31
0.0
  0
LWPOLYLINE
  5
3E
330
17
100
AcDbEntity
  8
SHELF_R
 62
3
100
AcDbPolyline
 90
110
 70
1
 10
31.785720415218687
 20
23.31750573404633
 10
60.78572041521869
 20
23.31750573404633
 10
60.78572041521869
 20
21.28916983416034
 10
60.78572041521869
 20
21.28916983416034
 10
60.77619653330975
 20
21.05031300020535
 10
60.74768535713402
 20
20.812972729103514
 10
60.70036791140815
 20
20.578655954664306
 10
60.63454462664235
 20
20.34885041374708
 10
60.550633431630615
 20
20.125015200240988
 10
60.44916709991435
 20
19.908571500906355
 10
60.33078986706756
 20
19.700893571898106
 10
60.19625334028113
 20
19.503300013263562
 10
60.04641172621744
 20
19.31704539681499
 10
59.882216407434754
 20
19.14331230053375
 10
59.70470990181711
 20
18.983203800081625
 10
59.5150192433629
 20
18.837736465092547
 10
59.31434882635901
 20
18.707833904713226
 10
59.103972758374894
 20
18.594320903373465
 10
58.88522677062918
 20
18.497918184019866
 10
58.659499737092105
 20
18.419237832062308
 10
58.42822485617102
 20
18.35877940908785
 10
58.19287055096888
 20
18.316926781017038
 10
57.954931145892004
 20
18.293945680841425
 10
57.95493114589206
 20
18.293945680840558
 10
57.472133486765145
 20
18.258953896676267
 10
56.989335827638236
 20
18.2089415668503
 10
56.50653816851133
 20
18.144706624285163
 10
56.02374050938441
 20
18.067273919765178
 10
55.540942850257494
 20
17.97787887072502
 10
55.05814519113059
 20
17.87794775050542
 10
54.575347532003676
 20
17.769074932555554
 10
54.09254987287676
 20
17.65299745264462
 10
53.60975221374986
 20
17.531567294935428
 10
53.12695455462294
 20
17.406721844088096
 10
52.644156895496025
 20
17.28045297482239
 10
52.16135923636912
 20
17.15477527210615
 10
51.678561577242206
 20
17.031693889008075
 10
51.19576391811529
 20
16.91317255503374
 10
50.71296625898839
 20
16.801102245363204
 10
50.23016859986147
 20
16.69727101086378
 10
49.747370940734555
 20
16.60333545023183
 10
49.26457328160765
 20
16.52079427941768
 10
48.78177562248074
 20
16.450964420026132
 10
48.29897796335382
 20
16.394959988195687
 10
47.81618030422692
 20
16.35367451918294
 10
47.3333826451
 20
16.32776671125412
 10
46.850584985973086
 20
16.317649916336002
 10
46.36778732684618
 20
16.32348554509999
 10
45.88498966771927
 20
16.34518049169938
 10
45.40219200859235
 20
16.382388619247443
 10
44.91939434946544
 20
16.434516282335956
 10
44.43659669033853
 20
16.500731798483905
 10
43.95379903121162
 20
16.57997871740193
 10
43.47100137208471
 20
16.670992676365245
 10
42.9882037129578
 20
16.772321572771993
 10
42.50540605383088
 20
16.88234873203963
 10
42.02260839470397
 20
16.999318701201737
 10
41.53981073557706
 20
17.121365256675766
 10
41.05701307645015
 20
17.246541179345357
 10
40.57421541732324
 20
17.372849321904
 10
40.09141775819633
 20
17.49827447278929
 10
39.60862009906941
 20
17.62081550832732
 10
39.1258224399425
 20
17.738517320108727
 10
38.643024780815594
 20
17.84950200820392
 10
38.16022712168868
 20
17.951998842538266
 10
37.67742946256177
 20
18.04437251440182
 10
37.19463180343486
 20
18.125149227348615
 10
36.71183414430794
 20
18.19304021121222
 10
36.229036485181034
 20
18.246962284078222
 10
35.746238826054125
 20
18.286055134152704
 10
35.26344116692721
 20
18.309695045799593
 10
34.7806435078003
 20
18.31750485075151
 10
34.29784584867338
 20
18.309359945725404
 10
34.29784584869865
 20
18.309359944967866
 10
34.11342245810634
 20
18.306613718024558
 10
33.92902325975747
 20
18.31067135382365
 10
33.74489918060529
 20
18.32152733081083
 10
33.561300773226044
 20
18.33916687637725
 10
33.37847787487174
 20
18.363565986961788
 10
33.196679267496314
 20
18.39469146071469
 10
33.01615233921786
 20
18.43250094267797
 10
32.837142747677525
 20
18.476942982421264
 10
32.659894085753194
 20
18.527957104054607
 10
32.48464755008297
 20
18.585473888522877
 10
32.31164161284925
 20
18.649415068069928
 10
32.14111169727034
 20
18.719693632743912
 10
31.973289857240935
 20
18.796213948798737
 10
31.808404461557576
 20
18.878871888830687
 10
31.646679883158676
 20
18.96755497347305
 10
31.488336193802084
 20
19.062142524455872
 10
31.33358886459556
 20
19.162505828822717
 10
31.182648472787758
 20
19.26850831408081
 10
31.03572041521869
 20
19.38000573404633
 10
31.035720415218687
 20
20.00500573404633
 10
31.035720415218687
 20
20.00500573404633
 10
31.11969377229617
 20
20.009721576626397
 10
31.202611115685922
 20
20.023809799909962
 10
31.283429711685063
 20
20.04709323631505
 10
31.361133219556855
 20
20.079279083119516
 10
31.43474447260519
 20
20.119962584625114
 10
31.503337766612738
 20
20.168632122195305
 10
31.5660505011086
 20
20.22467564815642
 10
31.62209402706971
 20
20.28738838265228
 10
31.670763564639902
 20
20.355981676659823
 10
31.711447066145503
 20
20.429592929708157
 10
31.743632912949963
 20
20.507296437579953
 10
31.766916349355053
 20
20.588115033579093
 10
31.78100457263862
 20
20.671032376968846
 10
31.785720415218687
 20
20.75500573404633
 10
31.785720415218687
 20
23.31750573404633
  0
LWPOLYLINE
  5
3F
330
17
100
AcDbEntity
  8
BRACKET_OUTLINE
 62
6
100
AcDbPolyline
 90
87
 70
1
 10
38.275720415218686
 20
23.31750573404633
 10
38.23834055278097
 20
23.27325780618864
 10
38.19609413484157
 20
23.233629868987066
 10
38.149548130844146
 20
23.199153750478253
 10
38.09932721296867
 20
23.170292138546372
 10
38.04610537269787
 20
23.147432371405117
 10
37.99059687549237
 20
23.130881239312465
 10
37.933546674967474
 20
23.12086086728189
 10
37.87572041521869
 20
23.117505734046325
 10
37.07572041521869
 20
23.117505734046325
 10
37.07572041521869
 20
19.471059124639602
 10
37.092196333262734
 20
19.452880750383876
 10
37.106811122997684
 20
19.433174987597866
 10
37.119424036009136
 20
19.412131613549462
 10
37.12991360304987
 20
19.38995328743424
 10
37.138178803855105
 20
19.366853598656583
 10
37.14414004002286
 20
19.343055009847
 10
37.1477399015901
 20
19.318786714425357
 10
37.14894371992205
 20
19.294282429342964
 10
37.1477399015901
 20
19.269778144260577
 10
37.14414004002286
 20
19.245509848838935
 10
37.138178803855105
 20
19.221711260029352
 10
37.12991360304987
 20
19.19861157125169
 10
37.119424036009136
 20
19.176433245136465
 10
37.106811122997684
 20
19.15538987108806
 10
37.092196333262734
 20
19.13568410830205
 10
37.07572041521869
 20
19.117505734046325
 10
37.057542040962964
 20
19.10102981600228
 10
37.037836278176954
 20
19.086415026267325
 10
37.01679290412855
 20
19.073802113255873
 10
36.994614578013326
 20
19.063312546215144
 10
36.971514889235664
 20
19.05504734540991
 10
36.94771630042608
 20
19.04908610924216
 10
36.92344800500444
 20
19.045486247674916
 10
36.89894371992205
 20
19.044282429342964
 10
36.87443943483966
 20
19.045486247674916
 10
36.850171139418016
 20
19.04908610924216
 10
36.82637255060843
 20
19.05504734540991
 10
36.80327286183078
 20
19.063312546215144
 10
36.78109453571555
 20
19.073802113255873
 10
36.76005116166715
 20
19.086415026267325
 10
36.74034539888114
 20
19.10102981600228
 10
36.72216702462541
 20
19.117505734046325
 10
35.814273805811965
 20
19.117505734046325
 10
35.79609543155624
 20
19.10102981600228
 10
35.77638966877022
 20
19.086415026267325
 10
35.755346294721825
 20
19.073802113255873
 10
35.733167968606594
 20
19.063312546215144
 10
35.71006827982894
 20
19.05504734540991
 10
35.686269691019355
 20
19.04908610924216
 10
35.66200139559771
 20
19.045486247674916
 10
35.637497110515326
 20
19.044282429342964
 10
35.61299282543293
 20
19.045486247674916
 10
35.58872453001129
 20
19.04908610924216
 10
35.56492594120171
 20
19.05504734540991
 10
35.54182625242405
 20
19.063312546215144
 10
35.51964792630883
 20
19.073802113255873
 10
35.498604552260424
 20
19.086415026267325
 10
35.478898789474414
 20
19.10102981600228
 10
35.46072041521869
 20
19.117505734046325
 10
35.44424449717464
 20
19.13568410830205
 10
35.42962970743969
 20
19.15538987108806
 10
35.417016794428235
 20
19.176433245136465
 10
35.4065272273875
 20
19.19861157125169
 10
35.39826202658227
 20
19.221711260029352
 10
35.39230079041452
 20
19.245509848838935
 10
35.38870092884727
 20
19.269778144260577
 10
35.387497110515326
 20
19.294282429342964
 10
35.38870092884727
 20
19.318786714425357
 10
35.39230079041452
 20
19.343055009847
 10
35.39826202658227
 20
19.366853598656583
 10
35.4065272273875
 20
19.38995328743424
 10
35.417016794428235
 20
19.412131613549462
 10
35.42962970743969
 20
19.433174987597866
 10
35.44424449717464
 20
19.452880750383876
 10
35.46072041521869
 20
19.471059124639602
 10
35.46072041521869
 20
23.117505734046325
 10
34.66072041521869
 20
23.117505734046325
 10
34.602894155469905
 20
23.12086086728189
 10
34.545843954945006
 20
23.130881239312465
 10
34.490335457739505
 20
23.147432371405117
 10
34.43711361746871
 20
23.170292138546372
 10
34.38689269959323
 20
23.199153750478253
 10
34.340346695595805
 20
23.233629868987066
 10
34.29810027765641
 20
23.27325780618864
 10
34.260720415218685
 20
23.31750573404633
 10
38.275720415218686
 20
23.31750573404633
  0
LWPOLYLINE
  5
40
330
17
100
AcDbEntity
  8
BRACKET_OUTLINE
 62
6
100
AcDbPolyline
 90
87
 70
1
 10
51.70072041521868
 20
23.31750573404633
 10
51.663340552780966
 20
23.27325780618864
 10
51.62109413484157
 20
23.233629868987066
 10
51.57454813084414
 20
23.199153750478253
 10
51.524327212968664
 20
23.170292138546372
 10
51.47110537269788
 20
23.147432371405117
 10
51.41559687549237
 20
23.130881239312465
 10
51.35854667496747
 20
23.12086086728189
 10
51.30072041521869
 20
23.117505734046325
 10
50.50072041521869
 20
23.117505734046325
 10
50.50072041521869
 20
19.471059124639602
 10
50.51719633326273
 20
19.452880750383876
 10
50.53181112299768
 20
19.433174987597866
 10
50.54442403600914
 20
19.412131613549462
 10
50.55491360304987
 20
19.38995328743424
 10
50.5631788038551
 20
19.366853598656583
 10
50.56914004002286
 20
19.343055009847
 10
50.5727399015901
 20
19.318786714425357
 10
50.57394371992205
 20
19.294282429342964
 10
50.5727399015901
 20
19.269778144260577
 10
50.56914004002286
 20
19.245509848838935
 10
50.5631788038551
 20
19.221711260029352
 10
50.55491360304987
 20
19.19861157125169
 10
50.54442403600914
 20
19.176433245136465
 10
50.53181112299768
 20
19.15538987108806
 10
50.51719633326273
 20
19.13568410830205
 10
50.50072041521869
 20
19.117505734046325
 10
50.48254204096296
 20
19.10102981600228
 10
50.46283627817695
 20
19.086415026267325
 10
50.44179290412855
 20
19.073802113255873
 10
50.419614578013324
 20
19.063312546215144
 10
50.39651488923566
 20
19.05504734540991
 10
50.37271630042608
 20
19.04908610924216
 10
50.34844800500444
 20
19.045486247674916
 10
50.32394371992205
 20
19.044282429342964
 10
50.299439434839655
 20
19.045486247674916
 10
50.27517113941802
 20
19.04908610924216
 10
50.25137255060844
 20
19.05504734540991
 10
50.228272861830774
 20
19.063312546215144
 10
50.20609453571555
 20
19.073802113255873
 10
50.18505116166715
 20
19.086415026267325
 10
50.16534539888114
 20
19.10102981600228
 10
50.14716702462542
 20
19.117505734046325
 10
49.23927380581196
 20
19.117505734046325
 10
49.221095431556236
 20
19.10102981600228
 10
49.201389668770226
 20
19.086415026267325
 10
49.18034629472182
 20
19.073802113255873
 10
49.15816796860659
 20
19.063312546215144
 10
49.13506827982894
 20
19.05504734540991
 10
49.11126969101936
 20
19.04908610924216
 10
49.08700139559771
 20
19.045486247674916
 10
49.062497110515324
 20
19.044282429342964
 10
49.03799282543294
 20
19.045486247674916
 10
49.01372453001129
 20
19.04908610924216
 10
48.989925941201705
 20
19.05504734540991
 10
48.966826252424056
 20
19.063312546215144
 10
48.944647926308825
 20
19.073802113255873
 10
48.92360455226042
 20
19.086415026267325
 10
48.90389878947441
 20
19.10102981600228
 10
48.885720415218685
 20
19.117505734046325
 10
48.869244497174634
 20
19.13568410830205
 10
48.854629707439685
 20
19.15538987108806
 10
48.84201679442823
 20
19.176433245136465
 10
48.8315272273875
 20
19.19861157125169
 10
48.82326202658227
 20
19.221711260029352
 10
48.81730079041452
 20
19.245509848838935
 10
48.813700928847275
 20
19.269778144260577
 10
48.812497110515324
 20
19.294282429342964
 10
48.813700928847275
 20
19.318786714425357
 10
48.81730079041452
 20
19.343055009847
 10
48.82326202658227
 20
19.366853598656583
 10
48.8315272273875
 20
19.38995328743424
 10
48.84201679442823
 20
19.412131613549462
 10
48.854629707439685
 20
19.433174987597866
 10
48.869244497174634
 20
19.452880750383876
 10
48.885720415218685
 20
19.471059124639602
 10
48.885720415218685
 20
23.117505734046325
 10
48.08572041521869
 20
23.117505734046325
 10
48.0278941554699
 20
23.12086086728189
 10
47.97084395494501
 20
23.130881239312465
 10
47.9153354577395
 20
23.147432371405117
 10
47.86211361746871
 20
23.170292138546372
 10
47.81189269959323
 20
23.199153750478253
 10
47.7653466955958
 20
23.233629868987066
 10
47.72310027765641
 20
23.27325780618864
 10
47.68572041521868
 20
23.31750573404633
 10
51.70072041521868
 20
23.31750573404633
  0
LWPOLYLINE
  5
41
330
17
100
AcDbEntity
  8
BRACKET_OUTLINE
 62
6
100
AcDbPolyline
 90
87
 70
1
 10
60.85072041521869
 20
23.31750573404633
 10
60.813340552780964
 20
23.27325780618864
 10
60.77109413484157
 20
23.233629868987066
 10
60.72454813084414
 20
23.199153750478253
 10
60.67432721296866
 20
23.170292138546372
 10
60.62110537269787
 20
23.147432371405117
 10
60.56559687549236
 20
23.130881239312465
 10
60.50854667496747
 20
23.12086086728189
 10
60.45072041521868
 20
23.117505734046325
 10
59.650720415218686
 20
23.117505734046325
 10
59.650720415218686
 20
19.471059124639602
 10
59.66719633326274
 20
19.452880750383876
 10
59.681811122997686
 20
19.433174987597866
 10
59.69442403600914
 20
19.412131613549462
 10
59.704913603049874
 20
19.38995328743424
 10
59.7131788038551
 20
19.366853598656583
 10
59.71914004002286
 20
19.343055009847
 10
59.722739901590096
 20
19.318786714425357
 10
59.72394371992205
 20
19.294282429342964
 10
59.722739901590096
 20
19.269778144260577
 10
59.71914004002286
 20
19.245509848838935
 10
59.7131788038551
 20
19.221711260029352
 10
59.704913603049874
 20
19.19861157125169
 10
59.69442403600914
 20
19.176433245136465
 10
59.681811122997686
 20
19.15538987108806
 10
59.66719633326274
 20
19.13568410830205
 10
59.650720415218686
 20
19.117505734046325
 10
59.63254204096296
 20
19.10102981600228
 10
59.61283627817695
 20
19.086415026267325
 10
59.591792904128546
 20
19.073802113255873
 10
59.56961457801332
 20
19.063312546215144
 10
59.54651488923567
 20
19.05504734540991
 10
59.52271630042608
 20
19.04908610924216
 10
59.498448005004434
 20
19.045486247674916
 10
59.47394371992205
 20
19.044282429342964
 10
59.44943943483966
 20
19.045486247674916
 10
59.42517113941801
 20
19.04908610924216
 10
59.40137255060843
 20
19.05504734540991
 10
59.37827286183078
 20
19.063312546215144
 10
59.35609453571555
 20
19.073802113255873
 10
59.33505116166715
 20
19.086415026267325
 10
59.315345398881135
 20
19.10102981600228
 10
59.29716702462541
 20
19.117505734046325
 10
58.38927380581196
 20
19.117505734046325
 10
58.371095431556235
 20
19.10102981600228
 10
58.351389668770224
 20
19.086415026267325
 10
58.33034629472182
 20
19.073802113255873
 10
58.3081679686066
 20
19.063312546215144
 10
58.285068279828934
 20
19.05504734540991
 10
58.26126969101935
 20
19.04908610924216
 10
58.237001395597716
 20
19.045486247674916
 10
58.21249711051532
 20
19.044282429342964
 10
58.18799282543293
 20
19.045486247674916
 10
58.163724530011294
 20
19.04908610924216
 10
58.13992594120171
 20
19.05504734540991
 10
58.11682625242405
 20
19.063312546215144
 10
58.094647926308824
 20
19.073802113255873
 10
58.07360455226042
 20
19.086415026267325
 10
58.05389878947441
 20
19.10102981600228
 10
58.035720415218684
 20
19.117505734046325
 10
58.01924449717464
 20
19.13568410830205
 10
58.00462970743969
 20
19.15538987108806
 10
57.99201679442824
 20
19.176433245136465
 10
57.9815272273875
 20
19.19861157125169
 10
57.97326202658227
 20
19.221711260029352
 10
57.96730079041451
 20
19.245509848838935
 10
57.963700928847274
 20
19.269778144260577
 10
57.96249711051532
 20
19.294282429342964
 10
57.963700928847274
 20
19.318786714425357
 10
57.96730079041451
 20
19.343055009847
 10
57.97326202658227
 20
19.366853598656583
 10
57.9815272273875
 20
19.38995328743424
 10
57.99201679442824
 20
19.412131613549462
 10
58.00462970743969
 20
19.433174987597866
 10
58.01924449717464
 20
19.452880750383876
 10
58.035720415218684
 20
19.471059124639602
 10
58.035720415218684
 20
23.117505734046325
 10
57.23572041521868
 20
23.117505734046325
 10
57.1778941554699
 20
23.12086086728189
 10
57.120843954945
 20
23.130881239312465
 10
57.065335457739494
 20
23.147432371405117
 10
57.01211361746871
 20
23.170292138546372
 10
56.96189269959323
 20
23.199153750478253
 10
56.9153466955958
 20
23.233629868987066
 10
56.873100277656405
 20
23.27325780618864
 10
56.83572041521869
 20
23.31750573404633
 10
60.85072041521869
 20
23.31750573404633
  0
LINE
  5
42
330
17
100
AcDbEntity
  8
BRACKET_CUT_LINE
 62
4
100
AcDbLine
 10
35.46072041521869
 20
23.117505734046325
 30
0.0
 11
37.07572041521869
 21
23.117505734046325
 31
0.0
  0
LINE
  5
43
330
17
100
AcDbEntity
  8
BRACKET_CUT_LINE
 62
4
100
AcDbLine
 10
48.885720415218685
 20
23.117505734046325
 30
0.0
 11
50.50072041521869
 21
23.117505734046325
 31
0.0
  0
LINE
  5
44
330
17
100
AcDbEntity
  8
BRACKET_CUT_LINE
 62
4
100
AcDbLine
 10
58.035720415218684
 20
23.117505734046325
 30
0.0
 11
59.650720415218686
 21
23.117505734046325
 31
0.0
  0
LWPOLYLINE
  5
45
330
17
100
AcDbEntity
  8
SHELF_R
 62
3
100
AcDbPolyline
 90
110
 70
1
 10
60.03572041521869
 20
9.667971606397357
 10
31.035720415218687
 20
9.667971606397357
 10
31.035720415218687
 20
12.099262962994002
 10
31.035720415218687
 20
12.099262962994002
 10
31.043515904230926
 20
12.315392934132886
 10
31.06686185816835
 20
12.530399679394952
 10
31.105636948279358
 20
12.743165810300026
 10
31.15963966070468
 20
12.95258558282436
 10
31.22858934374342
 20
13.157570643944174
 10
31.312127666397892
 20
13.357055687798377
 10
31.409820480617196
 20
13.550003992075316
 10
31.52116007756145
 20
13.735412805851054
 10
31.645567826160917
 20
13.912318560878544
 10
31.782397180257433
 20
14.079801879244775
 10
31.93093703870006
 20
14.236992351371041
 10
32.090415440932546
 20
14.38307305952515
 10
32.2600035788667
 20
14.5172848233369
 10
32.43882010419195
 20
14.638930145252877
 10
32.62593570873602
 20
14.747376835426158
 10
32.82037795407277
 20
14.842061297202305
 10
33.021136325277496
 20
14.92249145612704
 10
33.22716748256565
 20
14.98824931725361
 10
33.437400683522
 20
15.038993137459412
 10
33.43740068352204
 20
15.03899313745922
 10
33.90970236155766
 20
15.1396774401934
 10
34.3820040395933
 20
15.24842849391917
 10
34.85430571762892
 20
15.363585731992798
 10
35.32660739566455
 20
15.483390768984647
 10
35.79890907370017
 20
15.606014250223046
 10
36.27121075173581
 20
15.729583784998146
 10
36.74351242977143
 20
15.852212536901481
 10
37.21581410780706
 20
15.972028034743131
 10
37.68811578584268
 20
16.087200764120226
 10
38.16041746387832
 20
16.195972103059738
 10
38.63271914191394
 20
16.296681175174278
 10
39.10502081994957
 20
16.38779021029844
 10
39.57732249798519
 20
16.467908025363315
 10
40.04962417602083
 20
16.535811266969468
 10
40.521925854056455
 20
16.590463091296556
 10
40.99422753209208
 20
16.631028996117813
 10
41.46652921012771
 20
16.65688956317372
 10
41.93883088816334
 20
16.667649916336003
 10
42.411132566198965
 20
16.663145751141172
 10
42.88343424423459
 20
16.643445843626104
 10
43.35573592227022
 20
16.608851000157102
 10
43.82803760030585
 20
16.559889464288077
 10
44.300339278341475
 20
16.49730885078231
 10
44.7726409563771
 20
16.422064729960958
 10
45.24494263441273
 20
16.33530603668848
 10
45.71724431244836
 20
16.238357526791752
 10
46.189545990483985
 20
16.13269954879319
 10
46.66184766851961
 20
16.01994543983207
 10
47.13414934655525
 20
15.901816890925344
 10
47.60645102459087
 20
15.780117657726569
 10
48.0787527026265
 20
15.656706018204508
 10
48.55105438066212
 20
15.533466397797055
 10
49.02335605869776
 20
15.41228059530823
 10
49.49565773673338
 20
15.2949990489123
 10
49.96795941476901
 20
15.18341258101695
 10
50.44026109280463
 20
15.079225053425182
 10
50.91256277084027
 20
14.984027350336147
 10
51.38486444887589
 20
14.899273086449588
 10
51.85716612691152
 20
14.826256411097438
 10
52.32946780494714
 20
14.76609224732064
 10
52.80176948298278
 20
14.719699267629421
 10
53.2740711610184
 20
14.687785866397347
 10
53.74637283905403
 20
14.67083934308276
 10
54.21867451708965
 20
14.669118461443608
 10
54.69097619512529
 20
14.682649498362286
 10
55.16327787316091
 20
14.711225842612562
 10
55.63557955119654
 20
14.754411149695377
 10
56.10788122923216
 20
14.811546004570728
 10
56.5801829072678
 20
14.88175799054977
 10
56.580182907295026
 20
14.881757990381457
 10
56.81742641411839
 20
14.91433018504105
 10
57.05595738351572
 20
14.93550578498908
 10
57.29522866905245
 20
14.945236217270681
 10
57.53469142614415
 20
14.943499162053163
 10
57.773796371005645
 20
14.930298603823607
 10
58.01199504060759
 20
14.905664822249227
 10
58.24874105075039
 20
14.869654322721287
 10
58.48349134936969
 20
14.822349706742129
 10
58.71570746219851
 20
14.763859482452366
 10
58.94485672792871
 20
14.694317815733092
 10
59.17041352003878
 20
14.613884222453867
 10
59.39186045248483
 20
14.522743202572462
 10
59.6086895664897
 20
14.421103816925699
 10
59.820403495707474
 20
14.309199207682118
 10
60.02651660709096
 20
14.18728606355644
 10
60.22655611484511
 20
14.055644031012624
 10
60.4200631649112
 20
13.91457507280598
 10
60.60659388749415
 20
13.764402775335801
 10
60.78572041521869
 20
13.605471606397364
 10
60.78572041521869
 20
12.980471606397364
 10
60.78572041521869
 20
12.980471606397364
 10
60.70174705814121
 20
12.975755763817295
 10
60.618829714751456
 20
12.961667540533723
 10
60.53801111875231
 20
12.938384104128636
 10
60.46030761088052
 20
12.906198257324169
 10
60.386696357832186
 20
12.865514755818571
 10
60.31810306382464
 20
12.81684521824838
 10
60.255390329328776
 20
12.760801692287265
 10
60.19934680336766
 20
12.698088957791404
 10
60.15067726579747
 20
12.629495663783862
 10
60.10999376429187
 20
12.555884410735528
 10
60.07780791748741
 20
12.478180902863732
 10
60.054524481082325
 20
12.397362306864592
 10
60.04043625779876
 20
12.31444496347484
 10
60.03572041521869
 20
12.230471606397357
 10
60.03572041521869
 20
9.667971606397357
  0
LWPOLYLINE
  5
46
330
17
100
AcDbEntity
  8
BRACKET_OUTLINE
 62
6
100
AcDbPolyline
 90
87
 70
1
 10
53.54572041521868
 20
9.667971606397357
 10
53.583100277656406
 20
9.712219534255047
 10
53.62534669559581
 20
9.75184747145662
 10
53.67189269959323
 20
9.786323589965432
 10
53.72211361746871
 20
9.815185201897313
 10
53.7753354577395
 20
9.838044969038569
 10
53.83084395494501
 20
9.85459610113122
 10
53.88789415546991
 20
9.864616473161794
 10
53.94572041521869
 20
9.86797160639736
 10
54.745720415218685
 20
9.86797160639736
 10
54.745720415218685
 20
13.51441821580409
 10
54.72924449717464
 20
13.532596590059816
 10
54.714629707439684
 20
13.552302352845826
 10
54.70201679442823
 20
13.57334572689423
 10
54.6915272273875
 20
13.595524053009454
 10
54.68326202658227
 20
13.61862374178711
 10
54.67730079041452
 20
13.642422330596693
 10
54.673700928847275
 20
13.666690626018335
 10
54.67249711051532
 20
13.691194911100729
 10
54.673700928847275
 20
13.715699196183115
 10
54.67730079041452
 20
13.739967491604757
 10
54.68326202658227
 20
13.76376608041434
 10
54.6915272273875
 20
13.786865769192003
 10
54.70201679442823
 20
13.809044095307227
 10
54.714629707439684
 20
13.83008746935563
 10
54.72924449717464
 20
13.849793232141641
 10
54.745720415218685
 20
13.867971606397367
 10
54.76389878947441
 20
13.884447524441411
 10
54.78360455226043
 20
13.899062314176367
 10
54.804647926308824
 20
13.91167522718782
 10
54.826826252424055
 20
13.922164794228548
 10
54.849925941201704
 20
13.930429995033782
 10
54.87372453001129
 20
13.936391231201531
 10
54.89799282543294
 20
13.939991092768777
 10
54.92249711051532
 20
13.941194911100729
 10
54.94700139559771
 20
13.939991092768777
 10
54.97126969101936
 20
13.936391231201531
 10
54.99506827982894
 20
13.930429995033782
 10
55.0181679686066
 20
13.922164794228548
 10
55.04034629472183
 20
13.91167522718782
 10
55.061389668770225
 20
13.899062314176367
 10
55.081095431556236
 20
13.884447524441411
 10
55.09927380581196
 20
13.867971606397367
 10
56.00716702462542
 20
13.867971606397367
 10
56.02534539888114
 20
13.884447524441411
 10
56.045051161667146
 20
13.899062314176367
 10
56.06609453571555
 20
13.91167522718782
 10
56.088272861830774
 20
13.922164794228548
 10
56.111372550608436
 20
13.930429995033782
 10
56.13517113941802
 20
13.936391231201531
 10
56.159439434839655
 20
13.939991092768777
 10
56.183943719922055
 20
13.941194911100729
 10
56.20844800500444
 20
13.939991092768777
 10
56.23271630042608
 20
13.936391231201531
 10
56.25651488923566
 20
13.930429995033782
 10
56.27961457801332
 20
13.922164794228548
 10
56.30179290412855
 20
13.91167522718782
 10
56.32283627817695
 20
13.899062314176367
 10
56.34254204096296
 20
13.884447524441411
 10
56.36072041521869
 20
13.867971606397367
 10
56.37719633326273
 20
13.849793232141641
 10
56.39181112299769
 20
13.83008746935563
 10
56.40442403600914
 20
13.809044095307227
 10
56.41491360304987
 20
13.786865769192003
 10
56.4231788038551
 20
13.76376608041434
 10
56.42914004002286
 20
13.739967491604757
 10
56.4327399015901
 20
13.715699196183115
 10
56.433943719922055
 20
13.691194911100729
 10
56.4327399015901
 20
13.666690626018335
 10
56.42914004002286
 20
13.642422330596693
 10
56.4231788038551
 20
13.61862374178711
 10
56.41491360304987
 20
13.595524053009454
 10
56.40442403600914
 20
13.57334572689423
 10
56.39181112299769
 20
13.552302352845826
 10
56.37719633326273
 20
13.532596590059816
 10
56.36072041521869
 20
13.51441821580409
 10
56.36072041521869
 20
9.86797160639736
 10
57.16072041521869
 20
9.86797160639736
 10
57.21854667496747
 20
9.864616473161794
 10
57.27559687549237
 20
9.85459610113122
 10
57.33110537269788
 20
9.838044969038569
 10
57.38432721296867
 20
9.815185201897313
 10
57.43454813084415
 20
9.786323589965432
 10
57.48109413484157
 20
9.75184747145662
 10
57.523340552780965
 20
9.712219534255047
 10
57.56072041521868
 20
9.667971606397357
 10
53.54572041521868
 20
9.667971606397357
  0
LWPOLYLINE
  5
47
330
17
100
AcDbEntity
  8
BRACKET_OUTLINE
 62
6
100
AcDbPolyline
 90
87
 70
1
 10
40.120720415218685
 20
9.667971606397357
 10
40.15810027765641
 20
9.712219534255047
 10
40.200346695595805
 20
9.75184747145662
 10
40.24689269959323
 20
9.786323589965432
 10
40.29711361746871
 20
9.815185201897313
 10
40.350335457739504
 20
9.838044969038569
 10
40.40584395494501
 20
9.85459610113122
 10
40.462894155469904
 20
9.864616473161794
 10
40.52072041521869
 20
9.86797160639736
 10
41.32072041521869
 20
9.86797160639736
 10
41.32072041521869
 20
13.51441821580409
 10
41.304244497174636
 20
13.532596590059816
 10
41.28962970743969
 20
13.552302352845826
 10
41.277016794428235
 20
13.57334572689423
 10
41.2665272273875
 20
13.595524053009454
 10
41.25826202658227
 20
13.61862374178711
 10
41.252300790414516
 20
13.642422330596693
 10
41.24870092884728
 20
13.666690626018335
 10
41.247497110515326
 20
13.691194911100729
 10
41.24870092884728
 20
13.715699196183115
 10
41.252300790414516
 20
13.739967491604757
 10
41.25826202658227
 20
13.76376608041434
 10
41.2665272273875
 20
13.786865769192003
 10
41.277016794428235
 20
13.809044095307227
 10
41.28962970743969
 20
13.83008746935563
 10
41.304244497174636
 20
13.849793232141641
 10
41.32072041521869
 20
13.867971606397367
 10
41.33889878947441
 20
13.884447524441411
 10
41.358604552260424
 20
13.899062314176367
 10
41.37964792630883
 20
13.91167522718782
 10
41.40182625242405
 20
13.922164794228548
 10
41.42492594120171
 20
13.930429995033782
 10
41.44872453001129
 20
13.936391231201531
 10
41.47299282543294
 20
13.939991092768777
 10
41.497497110515326
 20
13.941194911100729
 10
41.52200139559771
 20
13.939991092768777
 10
41.54626969101936
 20
13.936391231201531
 10
41.570068279828945
 20
13.930429995033782
 10
41.59316796860659
 20
13.922164794228548
 10
41.615346294721824
 20
13.91167522718782
 10
41.63638966877022
 20
13.899062314176367
 10
41.65609543155624
 20
13.884447524441411
 10
41.674273805811964
 20
13.867971606397367
 10
42.58216702462541
 20
13.867971606397367
 10
42.60034539888114
 20
13.884447524441411
 10
42.62005116166715
 20
13.899062314176367
 10
42.64109453571555
 20
13.91167522718782
 10
42.66327286183078
 20
13.922164794228548
 10
42.68637255060844
 20
13.930429995033782
 10
42.71017113941802
 20
13.936391231201531
 10
42.73443943483966
 20
13.939991092768777
 10
42.75894371992205
 20
13.941194911100729
 10
42.783448005004445
 20
13.939991092768777
 10
42.80771630042608
 20
13.936391231201531
 10
42.83151488923566
 20
13.930429995033782
 10
42.854614578013326
 20
13.922164794228548
 10
42.87679290412855
 20
13.91167522718782
 10
42.89783627817695
 20
13.899062314176367
 10
42.917542040962964
 20
13.884447524441411
 10
42.93572041521869
 20
13.867971606397367
 10
42.952196333262734
 20
13.849793232141641
 10
42.96681112299768
 20
13.83008746935563
 10
42.979424036009135
 20
13.809044095307227
 10
42.98991360304987
 20
13.786865769192003
 10
42.998178803855104
 20
13.76376608041434
 10
43.00414004002286
 20
13.739967491604757
 10
43.0077399015901
 20
13.715699196183115
 10
43.00894371992205
 20
13.691194911100729
 10
43.0077399015901
 20
13.666690626018335
 10
43.00414004002286
 20
13.642422330596693
 10
42.998178803855104
 20
13.61862374178711
 10
42.98991360304987
 20
13.595524053009454
 10
42.979424036009135
 20
13.57334572689423
 10
42.96681112299768
 20
13.552302352845826
 10
42.952196333262734
 20
13.532596590059816
 10
42.93572041521869
 20
13.51441821580409
 10
42.93572041521869
 20
9.86797160639736
 10
43.735720415218694
 20
9.86797160639736
 10
43.79354667496747
 20
9.864616473161794
 10
43.85059687549237
 20
9.85459610113122
 10
43.90610537269788
 20
9.838044969038569
 10
43.95932721296867
 20
9.815185201897313
 10
44.009548130844145
 20
9.786323589965432
 10
44.05609413484157
 20
9.75184747145662
 10
44.09834055278097
 20
9.712219534255047
 10
44.135720415218685
 20
9.667971606397357
 10
40.120720415218685
 20
9.667971606397357
  0
LWPOLYLINE
  5
48
330
17
100
AcDbEntity
  8
BRACKET_OUTLINE
 62
6
100
AcDbPolyline
 90
87
 70
1
 10
30.97072041521869
 20
9.667971606397357
 10
31.00810027765641
 20
9.712219534255047
 10
31.050346695595806
 20
9.75184747145662
 10
31.096892699593234
 20
9.786323589965432
 10
31.14711361746871
 20
9.815185201897313
 10
31.200335457739502
 20
9.838044969038569
 10
31.25584395494501
 20
9.85459610113122
 10
31.312894155469905
 20
9.864616473161794
 10
31.37072041521869
 20
9.86797160639736
 10
32.17072041521869
 20
9.86797160639736
 10
32.17072041521869
 20
13.51441821580409
 10
32.154244497174645
 20
13.532596590059816
 10
32.139629707439695
 20
13.552302352845826
 10
32.127016794428236
 20
13.57334572689423
 10
32.11652722738751
 20
13.595524053009454
 10
32.108262026582274
 20
13.61862374178711
 10
32.10230079041452
 20
13.642422330596693
 10
32.09870092884728
 20
13.666690626018335
 10
32.09749711051533
 20
13.691194911100729
 10
32.09870092884728
 20
13.715699196183115
 10
32.10230079041452
 20
13.739967491604757
 10
32.108262026582274
 20
13.76376608041434
 10
32.11652722738751
 20
13.786865769192003
 10
32.127016794428236
 20
13.809044095307227
 10
32.139629707439695
 20
13.83008746935563
 10
32.154244497174645
 20
13.849793232141641
 10
32.17072041521869
 20
13.867971606397367
 10
32.188898789474415
 20
13.884447524441411
 10
32.208604552260425
 20
13.899062314176367
 10
32.22964792630883
 20
13.91167522718782
 10
32.25182625242405
 20
13.922164794228548
 10
32.274925941201715
 20
13.930429995033782
 10
32.2987245300113
 20
13.936391231201531
 10
32.322992825432934
 20
13.939991092768777
 10
32.34749711051533
 20
13.941194911100729
 10
32.37200139559772
 20
13.939991092768777
 10
32.396269691019356
 20
13.936391231201531
 10
32.42006827982894
 20
13.930429995033782
 10
32.4431679686066
 20
13.922164794228548
 10
32.465346294721826
 20
13.91167522718782
 10
32.48638966877023
 20
13.899062314176367
 10
32.50609543155623
 20
13.884447524441411
 10
32.52427380581196
 20
13.867971606397367
 10
33.432167024625414
 20
13.867971606397367
 10
33.45034539888114
 20
13.884447524441411
 10
33.47005116166715
 20
13.899062314176367
 10
33.491094535715554
 20
13.91167522718782
 10
33.513272861830785
 20
13.922164794228548
 10
33.536372550608434
 20
13.930429995033782
 10
33.56017113941802
 20
13.936391231201531
 10
33.584439434839666
 20
13.939991092768777
 10
33.60894371992205
 20
13.941194911100729
 10
33.63344800500444
 20
13.939991092768777
 10
33.65771630042609
 20
13.936391231201531
 10
33.68151488923567
 20
13.930429995033782
 10
33.70461457801332
 20
13.922164794228548
 10
33.72679290412855
 20
13.91167522718782
 10
33.747836278176955
 20
13.899062314176367
 10
33.767542040962965
 20
13.884447524441411
 10
33.78572041521869
 20
13.867971606397367
 10
33.80219633326274
 20
13.849793232141641
 10
33.81681112299769
 20
13.83008746935563
 10
33.829424036009144
 20
13.809044095307227
 10
33.83991360304988
 20
13.786865769192003
 10
33.848178803855106
 20
13.76376608041434
 10
33.854140040022855
 20
13.739967491604757
 10
33.8577399015901
 20
13.715699196183115
 10
33.85894371992205
 20
13.691194911100729
 10
33.8577399015901
 20
13.666690626018335
 10
33.854140040022855
 20
13.642422330596693
 10
33.848178803855106
 20
13.61862374178711
 10
33.83991360304988
 20
13.595524053009454
 10
33.829424036009144
 20
13.57334572689423
 10
33.81681112299769
 20
13.552302352845826
 10
33.80219633326274
 20
13.532596590059816
 10
33.78572041521869
 20
13.51441821580409
 10
33.78572041521869
 20
9.86797160639736
 10
34.58572041521869
 20
9.86797160639736
 10
34.643546674967475
 20
9.864616473161794
 10
34.700596875492366
 20
9.85459610113122
 10
34.756105372697874
 20
9.838044969038569
 10
34.80932721296867
 20
9.815185201897313
 10
34.859548130844146
 20
9.786323589965432
 10
34.906094134841574
 20
9.75184747145662
 10
34.94834055278097
 20
9.712219534255047
 10
34.985720415218694
 20
9.667971606397357
 10
30.97072041521869
 20
9.667971606397357
  0
LINE
  5
49
330
17
100
AcDbEntity
  8
BRACKET_CUT_LINE
 62
4
100
AcDbLine
 10
56.36072041521869
 20
9.86797160639736
 30
0.0
 11
54.745720415218685
 21
9.86797160639736
 31
0.0
  0
LINE
  5
4A
330
17
100
AcDbEntity
  8
BRACKET_CUT_LINE
 62
4
100
AcDbLine
 10
42.93572041521869
 20
9.86797160639736
 30
0.0
 11
41.32072041521869
 21
9.86797160639736
 31
0.0
  0
LINE
  5
4B
330
17
100
AcDbEntity
  8
BRACKET_CUT_LINE
 62
4
100
AcDbLine
 10
33.78572041521869
 20
9.86797160639736
 30
0.0
 11
32.17072041521869
 21
9.86797160639736
 31
0.0
  0
LWPOLYLINE
  5
4C
330
17
100
AcDbEntity
  8
SHELF_R
 62
3
100
AcDbPolyline
 90
110
 70
1
 10
61.93572041521869
 20
22.030302762920023
 10
90.9357204152187
 20
22.030302762920023
 10
90.9357204152187
 20
19.918036201287492
 10
90.9357204152187
 20
19.918036201287492
 10
90.92398435467877
 20
19.65293503546099
 10
90.88886799647031
 20
19.38990803185539
 10
90.83064609239726
 20
19.131013124362653
 10
90.74977417298689
 20
18.878275917187985
 10
90.64688498340068
 20
18.633673836440792
 10
90.52278353281054
 20
18.399120658672963
 10
90.37844079597461
 20
18.176451537413904
 10
90.21498611629157
 20
17.96740864485526
 10
90.0336983697723
 20
17.773627541025384
 10
89.83599595906229
 20
17.596624377101627
 10
89.62342571580223
 20
17.43778403298237
 10
89.3976507981547
 20
17.29834928193079
 10
89.16043767818763
 20
17.179411067066695
 10
88.91364232092558
 20
17.08189996578352
 10
88.65919566320437
 20
17.00657890887325
 10
88.39908850594352
 20
16.954037211325108
 10
88.13535593803931
 20
16.92468596150129
 10
87.87006141374728
 20
16.918754804765022
 10
87.60528060813276
 20
16.936290146726
 10
87.60528060813277
 20
16.9362901467261
 10
87.12029195996236
 20
16.982599686802907
 10
86.63530331179194
 20
17.013577564271273
 10
86.15031466362154
 20
17.028725045644038
 10
85.66532601545114
 20
17.02779826152716
 10
85.18033736728073
 20
17.010812132835568
 10
84.69534871911031
 20
16.978040130571415
 10
84.21036007093991
 20
16.930009873032226
 10
83.7253714227695
 20
16.86749463133242
 10
83.24038277459908
 20
16.791500879996477
 10
82.75539412642868
 20
16.703252093055035
 10
82.27040547825827
 20
16.604169046521392
 10
81.78541683008787
 20
16.495846944371927
 10
81.30042818191745
 20
16.38002973629454
 10
80.81543953374705
 20
16.25858204068077
 10
80.33045088557664
 20
16.13345912489214
 10
79.84546223740622
 20
16.006675426108195
 10
79.36047358923582
 20
15.880272119560379
 10
78.87548494106541
 20
15.756284256292103
 10
78.390496292895
 20
15.63670799951621
 10
77.9055076447246
 20
15.52346848705359
 10
77.4205189965542
 20
15.41838883725679
 10
76.93553034838378
 20
15.323160797413136
 10
76.45054170021336
 20
15.239317507178049
 10
75.96555305204296
 20
15.168208815538355
 10
75.48056440387255
 20
15.110979548694173
 10
74.99557575570213
 20
15.068551078739203
 10
74.51058710753173
 20
15.041606489877571
 10
74.02559845936132
 20
15.030579580996138
 10
73.54060981119092
 20
15.035647881647249
 10
73.0556211630205
 20
15.056729793882154
 10
72.5706325148501
 20
15.093485905950777
 10
72.08564386667969
 20
15.145324456717601
 10
71.60065521850927
 20
15.211410862818402
 10
71.11566657033887
 20
15.29068115517387
 10
70.63067792216846
 20
15.381859108536615
 10
70.14568927399806
 20
15.483476788291673
 10
69.66070062582764
 20
15.593898183713852
 10
69.17571197765724
 20
15.711345547194268
 10
68.69072332948683
 20
15.833928015383512
 10
68.20573468131641
 20
15.959672051460393
 10
67.72074603314601
 20
16.086553218416036
 10
67.2357573849756
 20
16.212528771813965
 10
66.75076873680518
 20
16.335570547293706
 10
66.26578008863478
 20
16.45369761334001
 10
65.78079144046438
 20
16.565008163619027
 10
65.29580279229397
 20
16.667710135425487
 10
64.81081414412355
 20
16.76015006129407
 10
64.32582549595315
 20
16.840839689273714
 10
63.84083684778273
 20
16.908479943287233
 10
63.840836847816284
 20
16.90847994355517
 10
63.68710781704109
 20
16.930160204925976
 10
63.534125983989405
 20
16.956602734917205
 10
63.38203883935604
 20
16.9877820401285
 10
63.230993011261354
 20
17.023668060406315
 10
63.08113412388625
 20
17.064226197825143
 10
62.93260665707502
 20
17.10941735004357
 10
62.78555380704149
 20
17.159197948003055
 10
62.640117348312664
 20
17.21351999793314
 10
62.49643749704308
 20
17.272331127622515
 10
62.3546527758316
 20
17.335574636911396
 10
62.21489988017092
 20
17.40318955235646
 10
62.07731354665863
 20
17.475110686015718
 10
61.942026423096884
 20
17.551268698296624
 10
61.80916894060585
 20
17.63159016480673
 10
61.678869187874305
 20
17.715997647142636
 10
61.55125278766853
 20
17.804409767548776
 10
61.42644277571871
 20
17.896741287374212
 10
61.30455948209943
 20
17.99290318925174
 10
61.18572041521869
 20
18.092802762920023
 10
61.18572041521869
 20
18.717802762920023
 10
61.18572041521869
 20
18.717802762920023
 10
61.26969377229617
 20
18.722518605500092
 10
61.352611115685924
 20
18.736606828783657
 10
61.433429711685065
 20
18.759890265188744
 10
61.51113321955686
 20
18.79207611199321
 10
61.584744472605195
 20
18.83275961349881
 10
61.65333776661274
 20
18.881429151069
 10
61.7160505011086
 20
18.937472677030115
 10
61.77209402706971
 20
19.000185411525976
 10
61.820763564639904
 20
19.068778705533518
 10
61.8614470661455
 20
19.14238995858185
 10
61.89363291294997
 20
19.220093466453648
 10
61.916916349355056
 20
19.300912062452788
 10
61.93100457263862
 20
19.38382940584254
 10
61.93572041521869
 20
19.467802762920023
 10
61.93572041521869
 20
22.030302762920023
  0
LWPOLYLINE
  5
4D
330
17
100
AcDbEntity
  8
BRACKET_OUTLINE
 62
6
100
AcDbPolyline
 90
87
 70
1
 10
68.42572041521869
 20
22.030302762920023
 10
68.38834055278097
 20
21.986054835062333
 10
68.34609413484158
 20
21.94642689786076
 10
68.29954813084416
 20
21.911950779351947
 10
68.24932721296868
 20
21.883089167420067
 10
68.19610537269789
 20
21.86022940027881
 10
68.14059687549238
 20
21.84367826818616
 10
68.08354667496748
 20
21.833657896155586
 10
68.0257204152187
 20
21.83030276292002
 10
67.2257204152187
 20
21.83030276292002
 10
67.2257204152187
 20
18.183856153513297
 10
67.24219633326274
 20
18.16567777925757
 10
67.2568111229977
 20
18.14597201647156
 10
67.26942403600916
 20
18.124928642423157
 10
67.27991360304988
 20
18.102750316307933
 10
67.28817880385512
 20
18.079650627530278
 10
67.29414004002287
 20
18.055852038720694
 10
67.2977399015901
 20
18.031583743299052
 10
67.29894371992206
 20
18.00707945821666
 10
67.2977399015901
 20
17.982575173134272
 10
67.29414004002287
 20
17.95830687771263
 10
67.28817880385512
 20
17.934508288903046
 10
67.27991360304988
 20
17.911408600125384
 10
67.26942403600916
 20
17.88923027401016
 10
67.2568111229977
 20
17.868186899961756
 10
67.24219633326274
 20
17.848481137175746
 10
67.2257204152187
 20
17.83030276292002
 10
67.20754204096298
 20
17.813826844875976
 10
67.18783627817696
 20
17.79921205514102
 10
67.16679290412856
 20
17.786599142129567
 10
67.14461457801333
 20
17.77610957508884
 10
67.12151488923567
 20
17.767844374283605
 10
67.09771630042609
 20
17.761883138115856
 10
67.07344800500445
 20
17.75828327654861
 10
67.04894371992206
 20
17.75707945821666
 10
67.02443943483966
 20
17.75828327654861
 10
67.00017113941803
 20
17.761883138115856
 10
66.97637255060845
 20
17.767844374283605
 10
66.95327286183078
 20
17.77610957508884
 10
66.93109453571556
 20
17.786599142129567
 10
66.91005116166716
 20
17.79921205514102
 10
66.89034539888115
 20
17.813826844875976
 10
66.87216702462543
 20
17.83030276292002
 10
65.96427380581197
 20
17.83030276292002
 10
65.94609543155624
 20
17.813826844875976
 10
65.92638966877024
 20
17.79921205514102
 10
65.90534629472184
 20
17.786599142129567
 10
65.8831679686066
 20
17.77610957508884
 10
65.86006827982895
 20
17.767844374283605
 10
65.83626969101937
 20
17.761883138115856
 10
65.81200139559772
 20
17.75828327654861
 10
65.78749711051533
 20
17.75707945821666
 10
65.76299282543295
 20
17.75828327654861
 10
65.7387245300113
 20
17.761883138115856
 10
65.71492594120171
 20
17.767844374283605
 10
65.69182625242406
 20
17.77610957508884
 10
65.66964792630884
 20
17.786599142129567
 10
65.64860455226044
 20
17.79921205514102
 10
65.62889878947442
 20
17.813826844875976
 10
65.6107204152187
 20
17.83030276292002
 10
65.59424449717466
 20
17.848481137175746
 10
65.5796297074397
 20
17.868186899961756
 10
65.56701679442824
 20
17.88923027401016
 10
65.5565272273875
 20
17.911408600125384
 10
65.54826202658228
 20
17.934508288903046
 10
65.54230079041453
 20
17.95830687771263
 10
65.53870092884728
 20
17.982575173134272
 10
65.53749711051533
 20
18.00707945821666
 10
65.53870092884728
 20
18.031583743299052
 10
65.54230079041453
 20
18.055852038720694
 10
65.54826202658228
 20
18.079650627530278
 10
65.5565272273875
 20
18.102750316307933
 10
65.56701679442824
 20
18.124928642423157
 10
65.5796297074397
 20
18.14597201647156
 10
65.59424449717466
 20
18.16567777925757
 10
65.6107204152187
 20
18.183856153513297
 10
65.6107204152187
 20
21.83030276292002
 10
64.8107204152187
 20
21.83030276292002
 10
64.75289415546992
 20
21.833657896155586
 10
64.69584395494502
 20
21.84367826818616
 10
64.64033545773951
 20
21.86022940027881
 10
64.58711361746872
 20
21.883089167420067
 10
64.53689269959324
 20
21.911950779351947
 10
64.49034669559582
 20
21.94642689786076
 10
64.44810027765642
 20
21.986054835062333
 10
64.41072041521869
 20
22.030302762920023
 10
68.42572041521869
 20
22.030302762920023
  0
LWPOLYLINE
  5
4E
330
17
100
AcDbEntity
  8
BRACKET_OUTLINE
 62
6
100
AcDbPolyline
 90
87
 70
1
 10
81.85072041521869
 20
22.030302762920023
 10
81.81334055278097
 20
21.986054835062333
 10
81.77109413484158
 20
21.94642689786076
 10
81.72454813084416
 20
21.911950779351947
 10
81.67432721296868
 20
21.883089167420067
 10
81.62110537269788
 20
21.86022940027881
 10
81.56559687549237
 20
21.84367826818616
 10
81.50854667496748
 20
21.833657896155586
 10
81.4507204152187
 20
21.83030276292002
 10
80.6507204152187
 20
21.83030276292002
 10
80.6507204152187
 20
18.183856153513297
 10
80.66719633326275
 20
18.16567777925757
 10
80.68181112299769
 20
18.14597201647156
 10
80.69442403600915
 20
18.124928642423157
 10
80.70491360304987
 20
18.102750316307933
 10
80.71317880385512
 20
18.079650627530278
 10
80.71914004002286
 20
18.055852038720694
 10
80.7227399015901
 20
18.031583743299052
 10
80.72394371992206
 20
18.00707945821666
 10
80.7227399015901
 20
17.982575173134272
 10
80.71914004002286
 20
17.95830687771263
 10
80.71317880385512
 20
17.934508288903046
 10
80.70491360304987
 20
17.911408600125384
 10
80.69442403600915
 20
17.88923027401016
 10
80.68181112299769
 20
17.868186899961756
 10
80.66719633326275
 20
17.848481137175746
 10
80.6507204152187
 20
17.83030276292002
 10
80.63254204096297
 20
17.813826844875976
 10
80.61283627817696
 20
17.79921205514102
 10
80.59179290412855
 20
17.786599142129567
 10
80.56961457801333
 20
17.77610957508884
 10
80.54651488923568
 20
17.767844374283605
 10
80.52271630042608
 20
17.761883138115856
 10
80.49844800500445
 20
17.75828327654861
 10
80.47394371992206
 20
17.75707945821666
 10
80.44943943483966
 20
17.75828327654861
 10
80.42517113941803
 20
17.761883138115856
 10
80.40137255060844
 20
17.767844374283605
 10
80.3782728618308
 20
17.77610957508884
 10
80.35609453571556
 20
17.786599142129567
 10
80.33505116166717
 20
17.79921205514102
 10
80.31534539888115
 20
17.813826844875976
 10
80.29716702462542
 20
17.83030276292002
 10
79.38927380581197
 20
17.83030276292002
 10
79.37109543155624
 20
17.813826844875976
 10
79.35138966877024
 20
17.79921205514102
 10
79.33034629472183
 20
17.786599142129567
 10
79.3081679686066
 20
17.77610957508884
 10
79.28506827982895
 20
17.767844374283605
 10
79.26126969101936
 20
17.761883138115856
 10
79.23700139559773
 20
17.75828327654861
 10
79.21249711051533
 20
17.75707945821666
 10
79.18799282543294
 20
17.75828327654861
 10
79.16372453001131
 20
17.761883138115856
 10
79.13992594120171
 20
17.767844374283605
 10
79.11682625242406
 20
17.77610957508884
 10
79.09464792630884
 20
17.786599142129567
 10
79.07360455226043
 20
17.79921205514102
 10
79.05389878947442
 20
17.813826844875976
 10
79.03572041521869
 20
17.83030276292002
 10
79.01924449717464
 20
17.848481137175746
 10
79.0046297074397
 20
17.868186899961756
 10
78.99201679442825
 20
17.88923027401016
 10
78.98152722738752
 20
17.911408600125384
 10
78.97326202658228
 20
17.934508288903046
 10
78.96730079041453
 20
17.95830687771263
 10
78.96370092884729
 20
17.982575173134272
 10
78.96249711051533
 20
18.00707945821666
 10
78.96370092884729
 20
18.031583743299052
 10
78.96730079041453
 20
18.055852038720694
 10
78.97326202658228
 20
18.079650627530278
 10
78.98152722738752
 20
18.102750316307933
 10
78.99201679442825
 20
18.124928642423157
 10
79.0046297074397
 20
18.14597201647156
 10
79.01924449717464
 20
18.16567777925757
 10
79.03572041521869
 20
18.183856153513297
 10
79.03572041521869
 20
21.83030276292002
 10
78.2357204152187
 20
21.83030276292002
 10
78.17789415546991
 20
21.833657896155586
 10
78.12084395494502
 20
21.84367826818616
 10
78.06533545773951
 20
21.86022940027881
 10
78.01211361746871
 20
21.883089167420067
 10
77.96189269959324
 20
21.911950779351947
 10
77.91534669559582
 20
21.94642689786076
 10
77.87310027765642
 20
21.986054835062333
 10
77.8357204152187
 20
22.030302762920023
 10
81.85072041521869
 20
22.030302762920023
  0
LWPOLYLINE
  5
4F
330
17
100
AcDbEntity
  8
BRACKET_OUTLINE
 62
6
100
AcDbPolyline
 90
87
 70
1
 10
91.0007204152187
 20
22.030302762920023
 10
90.96334055278098
 20
21.986054835062333
 10
90.92109413484158
 20
21.94642689786076
 10
90.87454813084415
 20
21.911950779351947
 10
90.82432721296867
 20
21.883089167420067
 10
90.77110537269789
 20
21.86022940027881
 10
90.71559687549237
 20
21.84367826818616
 10
90.65854667496748
 20
21.833657896155586
 10
90.60072041521869
 20
21.83030276292002
 10
89.80072041521869
 20
21.83030276292002
 10
89.80072041521869
 20
18.183856153513297
 10
89.81719633326274
 20
18.16567777925757
 10
89.83181112299769
 20
18.14597201647156
 10
89.84442403600914
 20
18.124928642423157
 10
89.85491360304988
 20
18.102750316307933
 10
89.8631788038551
 20
18.079650627530278
 10
89.86914004002287
 20
18.055852038720694
 10
89.87273990159011
 20
18.031583743299052
 10
89.87394371992205
 20
18.00707945821666
 10
89.87273990159011
 20
17.982575173134272
 10
89.86914004002287
 20
17.95830687771263
 10
89.8631788038551
 20
17.934508288903046
 10
89.85491360304988
 20
17.911408600125384
 10
89.84442403600914
 20
17.88923027401016
 10
89.83181112299769
 20
17.868186899961756
 10
89.81719633326274
 20
17.848481137175746
 10
89.80072041521869
 20
17.83030276292002
 10
89.78254204096297
 20
17.813826844875976
 10
89.76283627817696
 20
17.79921205514102
 10
89.74179290412856
 20
17.786599142129567
 10
89.71961457801333
 20
17.77610957508884
 10
89.69651488923567
 20
17.767844374283605
 10
89.67271630042609
 20
17.761883138115856
 10
89.64844800500444
 20
17.75828327654861
 10
89.62394371992205
 20
17.75707945821666
 10
89.59943943483967
 20
17.75828327654861
 10
89.57517113941802
 20
17.761883138115856
 10
89.55137255060845
 20
17.767844374283605
 10
89.52827286183079
 20
17.77610957508884
 10
89.50609453571556
 20
17.786599142129567
 10
89.48505116166716
 20
17.79921205514102
 10
89.46534539888114
 20
17.813826844875976
 10
89.44716702462543
 20
17.83030276292002
 10
88.53927380581197
 20
17.83030276292002
 10
88.52109543155625
 20
17.813826844875976
 10
88.50138966877023
 20
17.79921205514102
 10
88.48034629472183
 20
17.786599142129567
 10
88.4581679686066
 20
17.77610957508884
 10
88.43506827982895
 20
17.767844374283605
 10
88.41126969101936
 20
17.761883138115856
 10
88.38700139559772
 20
17.75828327654861
 10
88.36249711051533
 20
17.75707945821666
 10
88.33799282543293
 20
17.75828327654861
 10
88.3137245300113
 20
17.761883138115856
 10
88.28992594120172
 20
17.767844374283605
 10
88.26682625242407
 20
17.77610957508884
 10
88.24464792630883
 20
17.786599142129567
 10
88.22360455226043
 20
17.79921205514102
 10
88.20389878947442
 20
17.813826844875976
 10
88.1857204152187
 20
17.83030276292002
 10
88.16924449717465
 20
17.848481137175746
 10
88.1546297074397
 20
17.868186899961756
 10
88.14201679442824
 20
17.88923027401016
 10
88.13152722738751
 20
17.911408600125384
 10
88.12326202658228
 20
17.934508288903046
 10
88.11730079041453
 20
17.95830687771263
 10
88.11370092884728
 20
17.982575173134272
 10
88.11249711051533
 20
18.00707945821666
 10
88.11370092884728
 20
18.031583743299052
 10
88.11730079041453
 20
18.055852038720694
 10
88.12326202658228
 20
18.079650627530278
 10
88.13152722738751
 20
18.102750316307933
 10
88.14201679442824
 20
18.124928642423157
 10
88.1546297074397
 20
18.14597201647156
 10
88.16924449717465
 20
18.16567777925757
 10
88.1857204152187
 20
18.183856153513297
 10
88.1857204152187
 20
21.83030276292002
 10
87.38572041521869
 20
21.83030276292002
 10
87.3278941554699
 20
21.833657896155586
 10
87.27084395494501
 20
21.84367826818616
 10
87.21533545773951
 20
21.86022940027881
 10
87.16211361746872
 20
21.883089167420067
 10
87.11189269959324
 20
21.911950779351947
 10
87.0653466955958
 20
21.94642689786076
 10
87.02310027765641
 20
21.986054835062333
 10
86.9857204152187
 20
22.030302762920023
 10
91.0007204152187
 20
22.030302762920023
  0
LINE
  5
50
330
17
100
AcDbEntity
  8
BRACKET_CUT_LINE
 62
4
100
AcDbLine
 10
65.6107204152187
 20
21.83030276292002
 30
0.0
 11
67.2257204152187
 21
21.83030276292002
 31
0.0
  0
LINE
  5
51
330
17
100
AcDbEntity
  8
BRACKET_CUT_LINE
 62
4
100
AcDbLine
 10
79.03572041521869
 20
21.83030276292002
 30
0.0
 11
80.6507204152187
 21
21.83030276292002
 31
0.0
  0
LINE
  5
52
330
17
100
AcDbEntity
  8
BRACKET_CUT_LINE
 62
4
100
AcDbLine
 10
88.1857204152187
 20
21.83030276292002
 30
0.0
 11
89.80072041521869
 21
21.83030276292002
 31
0.0
  0
LWPOLYLINE
  5
53
330
17
100
AcDbEntity
  8
SHELF_R
 62
3
100
AcDbPolyline
 90
110
 70
1
 10
90.05084983846581
 20
9.667971606397357
 10
90.05084983846581
 20
12.230471606397364
 10
90.05084983846581
 20
12.230471606397364
 10
90.05556568104588
 20
12.314444963474847
 10
90.06965390432944
 20
12.397362306864599
 10
90.09293734073452
 20
12.47818090286374
 10
90.12512318753899
 20
12.555884410735535
 10
90.16580668904459
 20
12.62949566378387
 10
90.21447622661478
 20
12.698088957791411
 10
90.2705197525759
 20
12.760801692287272
 10
90.33323248707175
 20
12.816845218248387
 10
90.40182578107931
 20
12.865514755818579
 10
90.47543703412764
 20
12.906198257324176
 10
90.55314054199943
 20
12.938384104128643
 10
90.63395913799857
 20
12.96166754053373
 10
90.71687648138833
 20
12.975755763817295
 10
90.80084983846581
 20
12.980471606397364
 10
90.80084983846581
 20
13.605471606397371
 10
90.80084983846581
 20
13.605471606397371
 10
90.65711413682118
 20
13.906851483177531
 10
90.49358395906923
 20
14.19796600191494
 10
90.31098858296502
 20
14.477516910839709
 10
90.11014230925602
 20
14.744257527155467
 10
89.89194083023352
 20
14.99699829673507
 10
89.65735723531112
 20
15.234612099045846
 10
89.40743767144372
 20
15.45603927364648
 10
89.14329667773956
 20
15.660292345839471
 10
88.86611221507144
 20
15.846460430404717
 10
88.57712041285266
 20
16.013713293775247
 10
88.27761005640502
 20
16.16130505653966
 10
87.96891683950307
 20
16.2885775197594
 10
87.65241740772578
 20
16.394963100267027
 10
87.32952321917992
 20
16.47998736185516
 10
87.0016742499738
 20
16.54327113106804
 10
86.6703325725124
 20
16.58453218816019
 10
86.33697583525193
 20
16.603586525681088
 10
86.00309067299177
 20
16.600349169073255
 10
85.6701660770908
 20
16.57483455562398
 10
85.67016607729002
 20
16.57483455381825
 10
85.21975108640164
 20
16.518958264274943
 10
84.76933609551327
 20
16.451262929639917
 10
84.31892110462488
 20
16.372688745867073
 10
83.8685061137365
 20
16.284327001300888
 10
83.41809112284812
 20
16.187404920168383
 10
82.96767613195975
 20
16.083268618106835
 10
82.51726114107137
 20
15.973364406451863
 10
82.06684615018298
 20
15.859218704943777
 10
81.61643115929462
 20
15.742416841837317
 10
81.16601616840623
 20
15.624581035852449
 10
80.71560117751785
 20
15.507347865766844
 10
80.26518618662948
 20
15.392345540566692
 10
79.8147711957411
 20
15.281171285842552
 10
79.36435620485273
 20
15.175369160502347
 10
78.91394121396434
 20
15.076408611897135
 10
78.46352622307596
 20
14.985664067199698
 10
78.01311123218758
 20
14.904395844483977
 10
77.56269624129921
 20
14.833732648624368
 10
77.11228125041083
 20
14.774655895123066
 10
76.66186625952244
 20
14.727986079586008
 10
76.21145126863406
 20
14.694371382156964
 10
75.76103627774569
 20
14.674278665178589
 10
75.31062128685731
 20
14.667986989110615
 10
74.86020629596894
 20
14.675583736760364
 10
74.40979130508056
 20
14.69696339965459
 10
73.95937631419218
 20
14.731829043408423
 10
73.5089613233038
 20
14.779696431739337
 10
73.05854633241542
 20
14.839900751849319
 10
72.60813134152704
 20
14.911605847768696
 10
72.15771635063867
 20
14.99381583342319
 10
71.70730135975029
 20
15.085388924134454
 10
71.2568863688619
 20
15.18505329445343
 10
70.80647137797352
 20
15.291424742082773
 10
70.35605638708515
 20
15.40302591256062
 10
69.90564139619677
 20
15.518306817700958
 10
69.4552264053084
 20
15.635666362817465
 10
69.00481141442002
 20
15.753474583746955
 10
68.55439642353164
 20
15.870095284830617
 10
68.10398143264325
 20
15.983908763442114
 10
67.65356644175488
 20
16.093334305450036
 10
67.2031514508665
 20
16.196852139183214
 10
66.75273645997812
 20
16.29302454298837
 10
66.30232146908975
 20
16.38051581322476
 10
65.85190647820136
 20
16.458110815367668
 10
65.40149148731298
 20
16.52473186057118
 10
64.9510764964246
 20
16.579453673297742
 10
64.50066150553623
 20
16.621516242134568
 10
64.05024651464785
 20
16.65033537531655
 10
63.59983152375946
 20
16.665510814353816
 10
63.59983152375946
 20
16.66551081435381
 10
63.46207504641614
 20
16.67120808201762
 10
63.32472581625081
 20
16.683228684409613
 10
63.1880739347671
 20
16.701547232273327
 10
63.052408030567015
 20
16.72612503417765
 10
62.918014649725485
 20
16.756910178238677
 10
62.78517765056346
 20
16.7938376417652
 10
62.65417760409795
 20
16.836829428596054
 10
62.52529120143533
 20
16.88579473383929
 10
62.39879066935956
 20
16.940630135665323
 10
62.27494319534974
 20
17.001219813748826
 10
62.154010363241376
 20
17.067435793898056
 10
62.03624760072335
 20
17.13913821835495
 10
61.92190363983758
 20
17.21617564119495
 10
61.811219991620895
 20
17.298385348202814
 10
61.704430435998624
 20
17.38559370054864
 10
61.601760528007524
 20
17.477616501538243
 10
61.503427121390764
 20
17.574259385663346
 10
61.4096379105714
 20
17.675318229129687
 10
61.32059099197158
 20
17.78057958099614
 10
61.32059099197158
 20
9.667971606397357
 10
90.05084983846581
 20
9.667971606397357
  0
LWPOLYLINE
  5
54
330
17
100
AcDbEntity
  8
BRACKET_OUTLINE
 62
6
100
AcDbPolyline
 90
87
 70
1
 10
83.5608498384658
 20
9.667971606397357
 10
83.59822970090352
 20
9.712219534255047
 10
83.64047611884291
 20
9.75184747145662
 10
83.68702212284035
 20
9.786323589965432
 10
83.73724304071582
 20
9.815185201897313
 10
83.79046488098662
 20
9.838044969038569
 10
83.84597337819213
 20
9.85459610113122
 10
83.90302357871703
 20
9.864616473161794
 10
83.9608498384658
 20
9.86797160639736
 10
84.7608498384658
 20
9.86797160639736
 10
84.7608498384658
 20
13.514418215804097
 10
84.74437392042176
 20
13.532596590059823
 10
84.7297591306868
 20
13.552302352845834
 10
84.71714621767535
 20
13.573345726894237
 10
84.70665665063461
 20
13.595524053009461
 10
84.69839144982939
 20
13.618623741787117
 10
84.69243021366164
 20
13.6424223305967
 10
84.68883035209439
 20
13.666690626018342
 10
84.68762653376244
 20
13.691194911100736
 10
84.68883035209439
 20
13.715699196183122
 10
84.69243021366164
 20
13.739967491604764
 10
84.69839144982939
 20
13.763766080414348
 10
84.70665665063461
 20
13.78686576919201
 10
84.71714621767535
 20
13.809044095307234
 10
84.7297591306868
 20
13.830087469355638
 10
84.74437392042176
 20
13.849793232141648
 10
84.7608498384658
 20
13.867971606397374
 10
84.77902821272153
 20
13.884447524441418
 10
84.79873397550755
 20
13.899062314176374
 10
84.81977734955595
 20
13.911675227187827
 10
84.84195567567117
 20
13.922164794228555
 10
84.86505536444882
 20
13.930429995033789
 10
84.8888539532584
 20
13.936391231201538
 10
84.91312224868005
 20
13.939991092768784
 10
84.93762653376244
 20
13.941194911100736
 10
84.96213081884483
 20
13.939991092768784
 10
84.98639911426648
 20
13.936391231201538
 10
85.01019770307606
 20
13.930429995033789
 10
85.03329739185372
 20
13.922164794228555
 10
85.05547571796893
 20
13.911675227187827
 10
85.07651909201735
 20
13.899062314176374
 10
85.09622485480335
 20
13.884447524441418
 10
85.11440322905908
 20
13.867971606397374
 10
86.02229644787253
 20
13.867971606397374
 10
86.04047482212826
 20
13.884447524441418
 10
86.06018058491426
 20
13.899062314176374
 10
86.08122395896267
 20
13.911675227187827
 10
86.10340228507789
 20
13.922164794228555
 10
86.12650197385555
 20
13.930429995033789
 10
86.15030056266514
 20
13.936391231201538
 10
86.17456885808679
 20
13.939991092768784
 10
86.19907314316916
 20
13.941194911100736
 10
86.22357742825156
 20
13.939991092768784
 10
86.24784572367321
 20
13.936391231201538
 10
86.27164431248278
 20
13.930429995033789
 10
86.29474400126044
 20
13.922164794228555
 10
86.31692232737566
 20
13.911675227187827
 10
86.33796570142407
 20
13.899062314176374
 10
86.35767146421009
 20
13.884447524441418
 10
86.3758498384658
 20
13.867971606397374
 10
86.39232575650985
 20
13.849793232141648
 10
86.40694054624481
 20
13.830087469355638
 10
86.41955345925626
 20
13.809044095307234
 10
86.43004302629699
 20
13.78686576919201
 10
86.43830822710223
 20
13.763766080414348
 10
86.44426946326998
 20
13.739967491604764
 10
86.44786932483721
 20
13.715699196183122
 10
86.44907314316916
 20
13.691194911100736
 10
86.44786932483721
 20
13.666690626018342
 10
86.44426946326998
 20
13.6424223305967
 10
86.43830822710223
 20
13.618623741787117
 10
86.43004302629699
 20
13.595524053009461
 10
86.41955345925626
 20
13.573345726894237
 10
86.40694054624481
 20
13.552302352845834
 10
86.39232575650985
 20
13.532596590059823
 10
86.3758498384658
 20
13.514418215804097
 10
86.3758498384658
 20
9.86797160639736
 10
87.17584983846581
 20
9.86797160639736
 10
87.23367609821459
 20
9.864616473161794
 10
87.29072629873949
 20
9.85459610113122
 10
87.346234795945
 20
9.838044969038569
 10
87.39945663621579
 20
9.815185201897313
 10
87.44967755409127
 20
9.786323589965432
 10
87.49622355808869
 20
9.75184747145662
 10
87.53846997602808
 20
9.712219534255047
 10
87.5758498384658
 20
9.667971606397357
 10
83.5608498384658
 20
9.667971606397357
  0
LWPOLYLINE
  5
55
330
17
100
AcDbEntity
  8
BRACKET_OUTLINE
 62
6
100
AcDbPolyline
 90
87
 70
1
 10
70.1358498384658
 20
9.667971606397357
 10
70.17322970090353
 20
9.712219534255047
 10
70.21547611884293
 20
9.75184747145662
 10
70.26202212284035
 20
9.786323589965432
 10
70.31224304071583
 20
9.815185201897313
 10
70.36546488098662
 20
9.838044969038569
 10
70.42097337819213
 20
9.85459610113122
 10
70.47802357871703
 20
9.864616473161794
 10
70.53584983846581
 20
9.86797160639736
 10
71.3358498384658
 20
9.86797160639736
 10
71.3358498384658
 20
13.514418215804097
 10
71.31937392042175
 20
13.532596590059823
 10
71.3047591306868
 20
13.552302352845834
 10
71.29214621767535
 20
13.573345726894237
 10
71.28165665063462
 20
13.595524053009461
 10
71.27339144982939
 20
13.618623741787117
 10
71.26743021366164
 20
13.6424223305967
 10
71.2638303520944
 20
13.666690626018342
 10
71.26262653376244
 20
13.691194911100736
 10
71.2638303520944
 20
13.715699196183122
 10
71.26743021366164
 20
13.739967491604764
 10
71.27339144982939
 20
13.763766080414348
 10
71.28165665063462
 20
13.78686576919201
 10
71.29214621767535
 20
13.809044095307234
 10
71.3047591306868
 20
13.830087469355638
 10
71.31937392042175
 20
13.849793232141648
 10
71.3358498384658
 20
13.867971606397374
 10
71.35402821272153
 20
13.884447524441418
 10
71.37373397550755
 20
13.899062314176374
 10
71.39477734955594
 20
13.911675227187827
 10
71.41695567567118
 20
13.922164794228555
 10
71.44005536444882
 20
13.930429995033789
 10
71.46385395325841
 20
13.936391231201538
 10
71.48812224868006
 20
13.939991092768784
 10
71.51262653376244
 20
13.941194911100736
 10
71.53713081884483
 20
13.939991092768784
 10
71.56139911426648
 20
13.936391231201538
 10
71.58519770307606
 20
13.930429995033789
 10
71.60829739185371
 20
13.922164794228555
 10
71.63047571796895
 20
13.911675227187827
 10
71.65151909201734
 20
13.899062314176374
 10
71.67122485480336
 20
13.884447524441418
 10
71.68940322905908
 20
13.867971606397374
 10
72.59729644787254
 20
13.867971606397374
 10
72.61547482212825
 20
13.884447524441418
 10
72.63518058491427
 20
13.899062314176374
 10
72.65622395896267
 20
13.911675227187827
 10
72.6784022850779
 20
13.922164794228555
 10
72.70150197385556
 20
13.930429995033789
 10
72.72530056266514
 20
13.936391231201538
 10
72.74956885808677
 20
13.939991092768784
 10
72.77407314316918
 20
13.941194911100736
 10
72.79857742825156
 20
13.939991092768784
 10
72.8228457236732
 20
13.936391231201538
 10
72.84664431248278
 20
13.930429995033789
 10
72.86974400126044
 20
13.922164794228555
 10
72.89192232737567
 20
13.911675227187827
 10
72.91296570142407
 20
13.899062314176374
 10
72.93267146421007
 20
13.884447524441418
 10
72.95084983846581
 20
13.867971606397374
 10
72.96732575650985
 20
13.849793232141648
 10
72.9819405462448
 20
13.830087469355638
 10
72.99455345925625
 20
13.809044095307234
 10
73.00504302629699
 20
13.78686576919201
 10
73.01330822710221
 20
13.763766080414348
 10
73.01926946326998
 20
13.739967491604764
 10
73.02286932483722
 20
13.715699196183122
 10
73.02407314316918
 20
13.691194911100736
 10
73.02286932483722
 20
13.666690626018342
 10
73.01926946326998
 20
13.6424223305967
 10
73.01330822710221
 20
13.618623741787117
 10
73.00504302629699
 20
13.595524053009461
 10
72.99455345925625
 20
13.573345726894237
 10
72.9819405462448
 20
13.552302352845834
 10
72.96732575650985
 20
13.532596590059823
 10
72.95084983846581
 20
13.514418215804097
 10
72.95084983846581
 20
9.86797160639736
 10
73.75084983846581
 20
9.86797160639736
 10
73.80867609821459
 20
9.864616473161794
 10
73.86572629873949
 20
9.85459610113122
 10
73.921234795945
 20
9.838044969038569
 10
73.97445663621579
 20
9.815185201897313
 10
74.02467755409126
 20
9.786323589965432
 10
74.07122355808869
 20
9.75184747145662
 10
74.11346997602809
 20
9.712219534255047
 10
74.1508498384658
 20
9.667971606397357
 10
70.1358498384658
 20
9.667971606397357
  0
LWPOLYLINE
  5
56
330
17
100
AcDbEntity
  8
BRACKET_OUTLINE
 62
6
100
AcDbPolyline
 90
87
 70
1
 10
60.9858498384658
 20
9.667971606397357
 10
61.02322970090352
 20
9.712219534255047
 10
61.065476118842916
 20
9.75184747145662
 10
61.112022122840344
 20
9.786323589965432
 10
61.16224304071582
 20
9.815185201897313
 10
61.21546488098661
 20
9.838044969038569
 10
61.27097337819212
 20
9.85459610113122
 10
61.328023578717016
 20
9.864616473161794
 10
61.385849838465795
 20
9.86797160639736
 10
62.1858498384658
 20
9.86797160639736
 10
62.1858498384658
 20
13.514418215804097
 10
62.169373920421755
 20
13.532596590059823
 10
62.154759130686806
 20
13.552302352845834
 10
62.14214621767535
 20
13.573345726894237
 10
62.13165665063462
 20
13.595524053009461
 10
62.123391449829384
 20
13.618623741787117
 10
62.11743021366163
 20
13.6424223305967
 10
62.11383035209439
 20
13.666690626018342
 10
62.11262653376244
 20
13.691194911100736
 10
62.11383035209439
 20
13.715699196183122
 10
62.11743021366163
 20
13.739967491604764
 10
62.123391449829384
 20
13.763766080414348
 10
62.13165665063462
 20
13.78686576919201
 10
62.14214621767535
 20
13.809044095307234
 10
62.154759130686806
 20
13.830087469355638
 10
62.169373920421755
 20
13.849793232141648
 10
62.1858498384658
 20
13.867971606397374
 10
62.204028212721525
 20
13.884447524441418
 10
62.223733975507535
 20
13.899062314176374
 10
62.24477734955594
 20
13.911675227187827
 10
62.26695567567116
 20
13.922164794228555
 10
62.290055364448826
 20
13.930429995033789
 10
62.31385395325841
 20
13.936391231201538
 10
62.338122248680044
 20
13.939991092768784
 10
62.36262653376244
 20
13.941194911100736
 10
62.38713081884483
 20
13.939991092768784
 10
62.411399114266466
 20
13.936391231201538
 10
62.43519770307605
 20
13.930429995033789
 10
62.45829739185371
 20
13.922164794228555
 10
62.480475717968936
 20
13.911675227187827
 10
62.50151909201734
 20
13.899062314176374
 10
62.52122485480334
 20
13.884447524441418
 10
62.53940322905907
 20
13.867971606397374
 10
63.447296447872525
 20
13.867971606397374
 10
63.46547482212825
 20
13.884447524441418
 10
63.48518058491426
 20
13.899062314176374
 10
63.506223958962664
 20
13.911675227187827
 10
63.528402285077895
 20
13.922164794228555
 10
63.551501973855544
 20
13.930429995033789
 10
63.57530056266513
 20
13.936391231201538
 10
63.599568858086776
 20
13.939991092768784
 10
63.62407314316916
 20
13.941194911100736
 10
63.64857742825155
 20
13.939991092768784
 10
63.6728457236732
 20
13.936391231201538
 10
63.69664431248278
 20
13.930429995033789
 10
63.71974400126043
 20
13.922164794228555
 10
63.74192232737566
 20
13.911675227187827
 10
63.762965701424065
 20
13.899062314176374
 10
63.782671464210075
 20
13.884447524441418
 10
63.8008498384658
 20
13.867971606397374
 10
63.81732575650985
 20
13.849793232141648
 10
63.8319405462448
 20
13.830087469355638
 10
63.844553459256254
 20
13.809044095307234
 10
63.85504302629699
 20
13.78686576919201
 10
63.863308227102216
 20
13.763766080414348
 10
63.869269463269966
 20
13.739967491604764
 10
63.87286932483721
 20
13.715699196183122
 10
63.87407314316916
 20
13.691194911100736
 10
63.87286932483721
 20
13.666690626018342
 10
63.869269463269966
 20
13.6424223305967
 10
63.863308227102216
 20
13.618623741787117
 10
63.85504302629699
 20
13.595524053009461
 10
63.844553459256254
 20
13.573345726894237
 10
63.8319405462448
 20
13.552302352845834
 10
63.81732575650985
 20
13.532596590059823
 10
63.8008498384658
 20
13.514418215804097
 10
63.8008498384658
 20
9.86797160639736
 10
64.6008498384658
 20
9.86797160639736
 10
64.65867609821458
 20
9.864616473161794
 10
64.71572629873948
 20
9.85459610113122
 10
64.77123479594499
 20
9.838044969038569
 10
64.82445663621579
 20
9.815185201897313
 10
64.87467755409126
 20
9.786323589965432
 10
64.92122355808868
 20
9.75184747145662
 10
64.96346997602808
 20
9.712219534255047
 10
65.00084983846581
 20
9.667971606397357
 10
60.9858498384658
 20
9.667971606397357
  0
LINE
  5
57
330
17
100
AcDbEntity
  8
BRACKET_CUT_LINE
 62
4
100
AcDbLine
 10
86.3758498384658
 20
9.86797160639736
 30
0.0
 11
84.7608498384658
 21
9.86797160639736
 31
0.0
  0
LINE
  5
58
330
17
100
AcDbEntity
  8
BRACKET_CUT_LINE
 62
4
100
AcDbLine
 10
72.95084983846581
 20
9.86797160639736
 30
0.0
 11
71.3358498384658
 21
9.86797160639736
 31
0.0
  0
LINE
  5
59
330
17
100
AcDbEntity
  8
BRACKET_CUT_LINE
 62
4
100
AcDbLine
 10
63.8008498384658
 20
9.86797160639736
 30
0.0
 11
62.1858498384658
 21
9.86797160639736
 31
0.0
  0
LWPOLYLINE
  5
5A
330
17
100
AcDbEntity
  8
SHELF_R
 62
3
100
AcDbPolyline
 90
110
 70
1
 10
0.7500000000000018
 20
38.33202839360264
 10
0.7500000000000018
 20
35.76952839360264
 10
0.7500000000000018
 20
35.76952839360264
 10
0.7452841574199337
 20
35.68555503652516
 10
0.7311959341363695
 20
35.60263769313541
 10
0.7079124977312774
 20
35.521819097136266
 10
0.6757266509268162
 20
35.44411558926447
 10
0.635043149421215
 20
35.370504336216136
 10
0.5863736118510242
 20
35.301911042208594
 10
0.5303300858899125
 20
35.23919830771273
 10
0.46761735139405197
 20
35.18315478175162
 10
0.39902405738650426
 20
35.13448524418143
 10
0.32541280433817044
 20
35.09380174267583
 10
0.24770929646637718
 20
35.06161589587136
 10
0.16689070046723764
 20
35.038332459466275
 10
0.08397335707748277
 20
35.02424423618271
 10
1.887379141862766e-15
 20
35.01952839360264
 10
1.7763568394002505e-15
 20
34.39452839360264
 10
0.0
 20
34.39452839360264
 10
0.1679194078349795
 20
34.09225376716077
 10
0.35632913493849205
 20
33.8023078203862
 10
0.5643280788014886
 20
33.5260772705368
 10
0.7909214480558457
 20
33.264883238583195
 10
1.0350255202382503
 20
33.01997493071637
 10
1.2954728248826437
 20
32.792523663800374
 10
1.5710177271521322
 20
32.58361726334429
 10
1.8603423853057044
 20
32.39425486078628
 10
2.1620630535070995
 20
32.22534211497257
 10
2.4747366998315443
 20
32.077686880685405
 10
2.796867907818615
 20
31.951995344936122
 10
3.1269160285632775
 20
31.848868649502116
 10
3.463302549139045
 20
31.768800015861032
 10
3.804418642112433
 20
31.71217238627269
 10
4.148632860041845
 20
31.67925659229069
 10
4.494298938160629
 20
31.670210059463074
 10
4.839763667926563
 20
31.685076054417053
 10
5.183374803781181
 20
31.723783477928848
 10
5.523488965303448
 20
31.786147204968117
 10
5.523488965274671
 20
31.78614720509931
 10
5.966306550360406
 20
31.886726776054353
 10
6.40912413544614
 20
31.99328433163531
 10
6.851941720531874
 20
32.10438938202598
 10
7.2947593056176085
 20
32.21855038922847
 10
7.737576890703343
 20
32.33423479032579
 10
8.180394475789077
 20
32.44988957148648
 10
8.623212060874812
 20
32.56396211651414
 10
9.066029645960546
 20
32.67492105005881
 10
9.50884723104628
 20
32.78127679567904
 10
9.951664816132014
 20
32.88160157277144
 10
10.394482401217749
 20
32.97454856391737
 10
10.837299986303483
 20
33.05886999533342
 10
11.280117571389217
 20
33.13343388770314
 10
11.722935156474952
 20
33.19723925251748
 10
12.165752741560686
 20
33.24942952991929
 10
12.60857032664642
 20
33.289304087654756
 10
13.051387911732155
 20
33.316327626763105
 10
13.494205496817889
 20
33.33013736773723
 10
13.937023081903622
 20
33.33054792068412
 10
14.379840666989356
 20
33.317553774105264
 10
14.82265825207509
 20
33.29132936888615
 10
15.265475837160825
 20
33.25222675650166
 10
15.708293422246559
 20
33.2007708728749
 10
16.151111007332293
 20
33.13765249133592
 10
16.593928592418028
 20
33.063718949283874
 10
17.03674617750376
 20
32.97996277304319
 10
17.479563762589493
 20
32.887508353620234
 10
17.922381347675227
 20
32.787596852232774
 10
18.36519893276096
 20
32.68156953824904
 10
18.808016517846696
 20
32.57084978321755
 10
19.25083410293243
 20
32.45692395271003
 10
19.693651688018164
 20
32.34132145249648
 10
20.1364692731039
 20
32.22559419692385
 10
20.579286858189633
 20
32.11129577512668
 10
21.022104443275367
 20
31.99996059475439
 10
21.4649220283611
 20
31.893083283201896
 10
21.907739613446836
 20
31.792098622873176
 10
22.35055719853257
 20
31.698362289838357
 10
22.793374783618304
 20
31.613132654459648
 10
23.23619236870404
 20
31.53755388830502
 10
23.679009953789773
 20
31.47264060413201
 10
24.121827538875507
 20
31.419264235143437
 10
24.564645123961242
 20
31.378141336367698
 10
25.007462709046976
 20
31.34982396521253
 10
25.45028029413271
 20
31.334692270329427
 10
25.893097879218445
 20
31.332949388279786
 10
26.33591546430418
 20
31.344618716513082
 10
26.778733049389913
 20
31.36954359926606
 10
27.221550634475648
 20
31.40738943059968
 10
27.221550634475648
 20
31.407389430599693
 10
27.37217499387502
 20
31.418586393597984
 10
27.523172004023046
 20
31.422188136399896
 10
27.674158919885777
 20
31.41818552935994
 10
27.824753022016097
 20
31.406588718228463
 10
27.974572586665445
 20
31.38742709843433
 10
28.123237853371663
 20
31.36074924057381
 10
28.27037198757027
 20
31.32662276729456
 10
28.415602035789327
 20
31.285134181886676
 10
28.558559871006416
 20
31.236388649015453
 10
28.69888312577173
 20
31.180509728151463
 10
28.83621611073184
 20
31.11763906037386
 10
28.970210716225893
 20
31.047936009340567
 10
29.100527294668936
 20
30.971577257335618
 10
29.226835521485718
 20
30.888756357417442
 10
29.34881523241262
 20
30.79968324280341
 10
29.466157235045408
 20
30.704583694734126
 10
29.578564092575625
 20
30.60369877016639
 10
29.68575087772915
 20
30.49728419074558
 10
29.7874458949957
 20
30.38560969460608
 10
29.7874458949957
 20
38.33202839360264
 10
0.7500000000000018
 20
38.33202839360264
  0
LWPOLYLINE
  5
5B
330
17
100
AcDbEntity
  8
BRACKET_OUTLINE
 62
6
100
AcDbPolyline
 90
87
 70
1
 10
7.240000000000002
 20
38.33202839360264
 10
7.202620137562282
 20
38.28778046574495
 10
7.160373719622886
 20
38.24815252854338
 10
7.113827715625459
 20
38.213676410034566
 10
7.063606797749981
 20
38.184814798102686
 10
7.010384957479188
 20
38.16195503096143
 10
6.954876460273683
 20
38.14540389886878
 10
6.8978262597487845
 20
38.135383526838204
 10
6.840000000000002
 20
38.13202839360264
 10
6.040000000000002
 20
38.13202839360264
 10
6.040000000000002
 20
34.485581784195915
 10
6.0564759180440495
 20
34.46740340994019
 10
6.0710907077790015
 20
34.44769764715418
 10
6.083703620790454
 20
34.426654273105775
 10
6.094193187831187
 20
34.40447594699055
 10
6.102458388636418
 20
34.381376258212896
 10
6.108419624804172
 20
34.35757766940331
 10
6.112019486371414
 20
34.33330937398167
 10
6.113223304703365
 20
34.30880508889928
 10
6.112019486371414
 20
34.28430080381689
 10
6.108419624804172
 20
34.26003250839525
 10
6.102458388636418
 20
34.236233919585665
 10
6.094193187831187
 20
34.213134230808
 10
6.083703620790454
 20
34.19095590469278
 10
6.0710907077790015
 20
34.169912530644375
 10
6.0564759180440495
 20
34.150206767858364
 10
6.040000000000002
 20
34.13202839360264
 10
6.021821625744276
 20
34.115552475558594
 10
6.002115862958266
 20
34.10093768582364
 10
5.981072488909865
 20
34.088324772812186
 10
5.958894162794637
 20
34.07783520577146
 10
5.935794474016981
 20
34.069570004966224
 10
5.911995885207397
 20
34.063608768798474
 10
5.887727589785755
 20
34.06000890723123
 10
5.863223304703365
 20
34.05880508889928
 10
5.838719019620975
 20
34.06000890723123
 10
5.814450724199333
 20
34.063608768798474
 10
5.79065213538975
 20
34.069570004966224
 10
5.767552446612092
 20
34.07783520577146
 10
5.745374120496866
 20
34.088324772812186
 10
5.724330746448465
 20
34.10093768582364
 10
5.704624983662454
 20
34.115552475558594
 10
5.686446609406728
 20
34.13202839360264
 10
4.7785533905932756
 20
34.13202839360264
 10
4.760375016337551
 20
34.115552475558594
 10
4.740669253551539
 20
34.10093768582364
 10
4.7196258795031385
 20
34.088324772812186
 10
4.697447553387911
 20
34.07783520577146
 10
4.6743478646102545
 20
34.069570004966224
 10
4.650549275800671
 20
34.063608768798474
 10
4.626280980379029
 20
34.06000890723123
 10
4.601776695296639
 20
34.05880508889928
 10
4.577272410214249
 20
34.06000890723123
 10
4.553004114792607
 20
34.063608768798474
 10
4.5292055259830235
 20
34.069570004966224
 10
4.506105837205366
 20
34.07783520577146
 10
4.4839275110901395
 20
34.088324772812186
 10
4.462884137041739
 20
34.10093768582364
 10
4.443178374255727
 20
34.115552475558594
 10
4.4250000000000025
 20
34.13202839360264
 10
4.408524081955955
 20
34.150206767858364
 10
4.393909292221002
 20
34.169912530644375
 10
4.38129637920955
 20
34.19095590469278
 10
4.3708068121688175
 20
34.213134230808
 10
4.362541611363587
 20
34.236233919585665
 10
4.356580375195831
 20
34.26003250839525
 10
4.352980513628589
 20
34.28430080381689
 10
4.351776695296639
 20
34.30880508889928
 10
4.352980513628589
 20
34.33330937398167
 10
4.356580375195831
 20
34.35757766940331
 10
4.362541611363587
 20
34.381376258212896
 10
4.3708068121688175
 20
34.40447594699055
 10
4.38129637920955
 20
34.426654273105775
 10
4.393909292221002
 20
34.44769764715418
 10
4.408524081955955
 20
34.46740340994019
 10
4.425000000000002
 20
34.485581784195915
 10
4.425000000000002
 20
38.13202839360264
 10
3.6250000000000018
 20
38.13202839360264
 10
3.567173740251219
 20
38.135383526838204
 10
3.5101235397263215
 20
38.14540389886878
 10
3.4546150425208157
 20
38.16195503096143
 10
3.4013932022500226
 20
38.184814798102686
 10
3.3511722843745444
 20
38.213676410034566
 10
3.304626280377118
 20
38.24815252854338
 10
3.2623798624377214
 20
38.28778046574495
 10
3.225000000000002
 20
38.33202839360264
 10
7.240000000000002
 20
38.33202839360264
  0
LWPOLYLINE
  5
5C
330
17
100
AcDbEntity
  8
BRACKET_OUTLINE
 62
6
100
AcDbPolyline
 90
87
 70
1
 10
20.665
 20
38.33202839360264
 10
20.627620137562282
 20
38.28778046574495
 10
20.585373719622886
 20
38.24815252854338
 10
20.53882771562546
 20
38.213676410034566
 10
20.48860679774998
 20
38.184814798102686
 10
20.435384957479187
 20
38.16195503096143
 10
20.379876460273678
 20
38.14540389886878
 10
20.322826259748787
 20
38.135383526838204
 10
20.265
 20
38.13202839360264
 10
19.465000000000003
 20
38.13202839360264
 10
19.465000000000003
 20
34.485581784195915
 10
19.481475918044048
 20
34.46740340994019
 10
19.496090707778997
 20
34.44769764715418
 10
19.508703620790456
 20
34.426654273105775
 10
19.519193187831185
 20
34.40447594699055
 10
19.52745838863642
 20
34.381376258212896
 10
19.533419624804175
 20
34.35757766940331
 10
19.537019486371413
 20
34.33330937398167
 10
19.538223304703365
 20
34.30880508889928
 10
19.537019486371413
 20
34.28430080381689
 10
19.533419624804175
 20
34.26003250839525
 10
19.52745838863642
 20
34.236233919585665
 10
19.519193187831185
 20
34.213134230808
 10
19.508703620790456
 20
34.19095590469278
 10
19.496090707778997
 20
34.169912530644375
 10
19.481475918044048
 20
34.150206767858364
 10
19.465000000000003
 20
34.13202839360264
 10
19.446821625744278
 20
34.115552475558594
 10
19.427115862958267
 20
34.10093768582364
 10
19.406072488909864
 20
34.088324772812186
 10
19.38389416279464
 20
34.07783520577146
 10
19.360794474016977
 20
34.069570004966224
 10
19.336995885207394
 20
34.063608768798474
 10
19.31272758978575
 20
34.06000890723123
 10
19.288223304703365
 20
34.05880508889928
 10
19.26371901962097
 20
34.06000890723123
 10
19.23945072419933
 20
34.063608768798474
 10
19.215652135389746
 20
34.069570004966224
 10
19.19255244661209
 20
34.07783520577146
 10
19.170374120496867
 20
34.088324772812186
 10
19.149330746448463
 20
34.10093768582364
 10
19.129624983662453
 20
34.115552475558594
 10
19.111446609406727
 20
34.13202839360264
 10
18.203553390593278
 20
34.13202839360264
 10
18.185375016337552
 20
34.115552475558594
 10
18.165669253551542
 20
34.10093768582364
 10
18.14462587950314
 20
34.088324772812186
 10
18.122447553387907
 20
34.07783520577146
 10
18.09934786461025
 20
34.069570004966224
 10
18.075549275800668
 20
34.063608768798474
 10
18.051280980379026
 20
34.06000890723123
 10
18.02677669529664
 20
34.05880508889928
 10
18.002272410214246
 20
34.06000890723123
 10
17.978004114792604
 20
34.063608768798474
 10
17.95420552598302
 20
34.069570004966224
 10
17.931105837205365
 20
34.07783520577146
 10
17.90892751109014
 20
34.088324772812186
 10
17.887884137041738
 20
34.10093768582364
 10
17.868178374255727
 20
34.115552475558594
 10
17.85
 20
34.13202839360264
 10
17.83352408195595
 20
34.150206767858364
 10
17.818909292221
 20
34.169912530644375
 10
17.80629637920955
 20
34.19095590469278
 10
17.795806812168813
 20
34.213134230808
 10
17.787541611363586
 20
34.236233919585665
 10
17.78158037519583
 20
34.26003250839525
 10
17.77798051362859
 20
34.28430080381689
 10
17.77677669529664
 20
34.30880508889928
 10
17.77798051362859
 20
34.33330937398167
 10
17.78158037519583
 20
34.35757766940331
 10
17.787541611363586
 20
34.381376258212896
 10
17.795806812168813
 20
34.40447594699055
 10
17.80629637920955
 20
34.426654273105775
 10
17.818909292221
 20
34.44769764715418
 10
17.83352408195595
 20
34.46740340994019
 10
17.85
 20
34.485581784195915
 10
17.85
 20
38.13202839360264
 10
17.049999999999997
 20
38.13202839360264
 10
16.992173740251218
 20
38.135383526838204
 10
16.93512353972632
 20
38.14540389886878
 10
16.87961504252081
 20
38.16195503096143
 10
16.826393202250024
 20
38.184814798102686
 10
16.776172284374546
 20
38.213676410034566
 10
16.72962628037712
 20
38.24815252854338
 10
16.687379862437723
 20
38.28778046574495
 10
16.65
 20
38.33202839360264
 10
20.665
 20
38.33202839360264
  0
LWPOLYLINE
  5
5D
330
17
100
AcDbEntity
  8
BRACKET_OUTLINE
 62
6
100
AcDbPolyline
 90
87
 70
1
 10
29.814999999999998
 20
38.33202839360264
 10
29.77762013756228
 20
38.28778046574495
 10
29.735373719622885
 20
38.24815252854338
 10
29.688827715625457
 20
38.213676410034566
 10
29.63860679774998
 20
38.184814798102686
 10
29.585384957479185
 20
38.16195503096143
 10
29.529876460273677
 20
38.14540389886878
 10
29.472826259748786
 20
38.135383526838204
 10
29.415
 20
38.13202839360264
 10
28.615000000000002
 20
38.13202839360264
 10
28.615000000000002
 20
34.485581784195915
 10
28.631475918044046
 20
34.46740340994019
 10
28.646090707778995
 20
34.44769764715418
 10
28.658703620790455
 20
34.426654273105775
 10
28.669193187831183
 20
34.40447594699055
 10
28.677458388636417
 20
34.381376258212896
 10
28.683419624804174
 20
34.35757766940331
 10
28.687019486371412
 20
34.33330937398167
 10
28.688223304703364
 20
34.30880508889928
 10
28.687019486371412
 20
34.28430080381689
 10
28.683419624804174
 20
34.26003250839525
 10
28.677458388636417
 20
34.236233919585665
 10
28.669193187831183
 20
34.213134230808
 10
28.658703620790455
 20
34.19095590469278
 10
28.646090707778995
 20
34.169912530644375
 10
28.631475918044046
 20
34.150206767858364
 10
28.615000000000002
 20
34.13202839360264
 10
28.596821625744276
 20
34.115552475558594
 10
28.577115862958266
 20
34.10093768582364
 10
28.556072488909862
 20
34.088324772812186
 10
28.53389416279464
 20
34.07783520577146
 10
28.510794474016976
 20
34.069570004966224
 10
28.486995885207392
 20
34.063608768798474
 10
28.46272758978575
 20
34.06000890723123
 10
28.438223304703364
 20
34.05880508889928
 10
28.41371901962097
 20
34.06000890723123
 10
28.389450724199328
 20
34.063608768798474
 10
28.365652135389745
 20
34.069570004966224
 10
28.34255244661209
 20
34.07783520577146
 10
28.320374120496865
 20
34.088324772812186
 10
28.29933074644846
 20
34.10093768582364
 10
28.27962498366245
 20
34.115552475558594
 10
28.261446609406725
 20
34.13202839360264
 10
27.353553390593277
 20
34.13202839360264
 10
27.33537501633755
 20
34.115552475558594
 10
27.31566925355154
 20
34.10093768582364
 10
27.294625879503137
 20
34.088324772812186
 10
27.272447553387906
 20
34.07783520577146
 10
27.24934786461025
 20
34.069570004966224
 10
27.225549275800667
 20
34.063608768798474
 10
27.201280980379025
 20
34.06000890723123
 10
27.17677669529664
 20
34.05880508889928
 10
27.152272410214245
 20
34.06000890723123
 10
27.128004114792603
 20
34.063608768798474
 10
27.10420552598302
 20
34.069570004966224
 10
27.081105837205364
 20
34.07783520577146
 10
27.05892751109014
 20
34.088324772812186
 10
27.037884137041736
 20
34.10093768582364
 10
27.018178374255726
 20
34.115552475558594
 10
27.0
 20
34.13202839360264
 10
26.98352408195595
 20
34.150206767858364
 10
26.968909292221
 20
34.169912530644375
 10
26.956296379209547
 20
34.19095590469278
 10
26.94580681216881
 20
34.213134230808
 10
26.937541611363585
 20
34.236233919585665
 10
26.93158037519583
 20
34.26003250839525
 10
26.92798051362859
 20
34.28430080381689
 10
26.92677669529664
 20
34.30880508889928
 10
26.92798051362859
 20
34.33330937398167
 10
26.93158037519583
 20
34.35757766940331
 10
26.937541611363585
 20
34.381376258212896
 10
26.94580681216881
 20
34.40447594699055
 10
26.956296379209547
 20
34.426654273105775
 10
26.968909292221
 20
34.44769764715418
 10
26.98352408195595
 20
34.46740340994019
 10
27.0
 20
34.485581784195915
 10
27.0
 20
38.13202839360264
 10
26.199999999999996
 20
38.13202839360264
 10
26.142173740251216
 20
38.135383526838204
 10
26.085123539726318
 20
38.14540389886878
 10
26.02961504252081
 20
38.16195503096143
 10
25.976393202250023
 20
38.184814798102686
 10
25.926172284374545
 20
38.213676410034566
 10
25.879626280377117
 20
38.24815252854338
 10
25.83737986243772
 20
38.28778046574495
 10
25.799999999999997
 20
38.33202839360264
 10
29.814999999999998
 20
38.33202839360264
  0
LINE
  5
5E
330
17
100
AcDbEntity
  8
BRACKET_CUT_LINE
 62
4
100
AcDbLine
 10
4.425000000000002
 20
38.13202839360264
 30
0.0
 11
6.040000000000002
 21
38.13202839360264
 31
0.0
  0
LINE
  5
5F
330
17
100
AcDbEntity
  8
BRACKET_CUT_LINE
 62
4
100
AcDbLine
 10
17.85
 20
38.13202839360264
 30
0.0
 11
19.465000000000003
 21
38.13202839360264
 31
0.0
  0
LINE
  5
60
330
17
100
AcDbEntity
  8
BRACKET_CUT_LINE
 62
4
100
AcDbLine
 10
27.0
 20
38.13202839360264
 30
0.0
 11
28.615000000000002
 21
38.13202839360264
 31
0.0
  0
LWPOLYLINE
  5
61
330
17
100
AcDbEntity
  8
SHELF_R
 62
3
100
AcDbPolyline
 90
110
 70
1
 10
29.01872294749785
 20
24.83617429837347
 10
0.018722947497849418
 20
24.83617429837347
 10
0.018722947497849418
 20
27.488455667696456
 10
0.018722947497849418
 20
27.488455667696456
 10
0.032221781435673336
 20
27.772728046075486
 10
0.0725968042373637
 20
28.054442194035282
 10
0.13948467208422244
 20
28.331062903241687
 10
0.232283446162576
 20
28.6001008023498
 10
0.3501580096451491
 20
28.859134759410928
 10
0.49204758309329577
 20
29.105833670177987
 10
0.6566752706473764
 20
29.337977436231583
 10
0.8425595510968122
 20
29.553476944139952
 10
1.048027610419311
 20
29.750392865855794
 10
1.271230395806647
 20
29.92695311116114
 10
1.5101592557025683
 20
30.081568775101722
 10
1.7626640161052762
 20
30.2128484368964
 10
2.0264723304619707
 20
30.319610681642516
 10
2.2992101290213824
 20
30.400894732131633
 10
2.5784229836159582
 20
30.455969095097522
 10
2.8615981956073924
 20
30.484338144086905
 10
3.14618740822101
 20
30.485746579712263
 10
3.4296295397757817
 20
30.460181727147855
 10
3.709373831428472
 20
30.40787365019328
 10
3.7093738314284437
 20
30.407873650193153
 10
4.1852851979168975
 20
30.29889774526849
 10
4.661196564405358
 20
30.19825146457591
 10
5.137107930893812
 20
30.10749516970887
 10
5.613019297382266
 20
30.028035893653588
 10
6.08893066387072
 20
29.961105526965255
 10
6.5648420303591735
 20
29.907741719250957
 10
7.040753396847627
 20
29.86877179205169
 10
7.516664763336081
 20
29.844799912528757
 10
7.992576129824535
 20
29.836197726806304
 10
8.468487496312996
 20
29.843098598185293
 10
8.94439886280145
 20
29.865395539556133
 10
9.420310229289903
 20
29.902742872064856
 10
9.896221595778357
 20
29.954561584317666
 10
10.37213296226681
 20
30.02004830903794
 10
10.848044328755265
 20
30.098187778006817
 10
11.323955695243718
 20
30.187768562193114
 10
11.799867061732172
 20
30.287401853046788
 10
12.275778428220633
 20
30.395542993781646
 10
12.751689794709087
 20
30.510515426838744
 10
13.22760116119754
 20
30.63053668626292
 10
13.703512527685994
 20
30.753746032021724
 10
14.179423894174448
 20
30.878233297840204
 10
14.655335260662904
 20
31.00206850531162
 10
15.131246627151357
 20
31.12333178516385
 10
15.607157993639811
 20
31.240143141799678
 10
16.083069360128267
 20
31.35069159965876
 10
16.558980726616724
 20
31.45326327953294
 10
17.034892093105178
 20
31.546267969555956
 10
17.51080345959363
 20
31.628263778926446
 10
17.986714826082085
 20
31.69797949214707
 10
18.46262619257054
 20
31.7543342772127
 10
18.938537559058993
 20
31.79645444220329
 10
19.414448925547447
 20
31.82368698049696
 10
19.8903602920359
 20
31.835609694606084
 10
20.36627165852436
 20
31.832037741682463
 10
20.842183025012815
 20
31.813026499213628
 10
21.31809439150127
 20
31.77887070648243
 10
21.794005757989723
 20
31.730099895100018
 10
22.269917124478177
 20
31.66747017945471
 10
22.74582849096663
 20
31.591952534352828
 10
23.221739857455084
 20
31.50471774158813
 10
23.697651223943538
 20
31.407118238819578
 10
24.173562590432
 20
31.30066715216183
 10
24.649473956920453
 20
31.187014837555104
 10
25.125385323408906
 20
31.067923294603354
 10
25.60129668989736
 20
30.94523884955379
 10
26.077208056385814
 20
30.820863530925017
 10
26.553119422874268
 20
30.69672558155945
 10
27.029030789362725
 20
30.57474956426406
 10
27.029030789134886
 20
30.574749563362424
 10
27.198694465450416
 20
30.528688507074044
 10
27.366633962426302
 20
30.47669130212237
 10
27.5326416572419
 20
30.418822232410527
 10
27.696512315354596
 20
30.355152841200834
 10
27.858043344230342
 20
30.28576184266612
 10
28.01703504380785
 20
30.210735024575804
 10
28.17329085338687
 20
30.130165142236883
 10
28.326617594635245
 20
30.044151803820938
 10
28.476825710414406
 20
29.952801347219037
 10
28.623729499127975
 20
29.856226708576692
 10
28.7671473443038
 20
29.754547282671417
 10
28.90690193912553
 20
29.647888775305546
 10
29.04282050563623
 20
29.536383047896692
 10
29.174735008342964
 20
29.420167954458115
 10
29.302482361958294
 20
29.29938717117045
 10
29.425904633021858
 20
29.174190018755496
 10
29.544849235152782
 20
29.044731277871698
 10
29.65916911769151
 20
28.911170997759555
 10
29.76872294749785
 20
28.77367429837348
 10
29.76872294749785
 20
28.14867429837348
 10
29.768722947497846
 20
28.14867429837348
 10
29.684749590420367
 20
28.14395845579341
 10
29.60183224703061
 20
28.129870232509845
 10
29.521013651031474
 20
28.106586796104757
 10
29.443310143159678
 20
28.07440094930029
 10
29.369698890111344
 20
28.033717447794693
 10
29.3011055961038
 20
27.985047910224502
 10
29.238392861607938
 20
27.929004384263386
 10
29.182349335646826
 20
27.866291649767525
 10
29.133679798076635
 20
27.797698355759984
 10
29.092996296571034
 20
27.72408710271165
 10
29.06081044976657
 20
27.646383594839854
 10
29.03752701336148
 20
27.565564998840713
 10
29.023438790077915
 20
27.48264765545096
 10
29.01872294749785
 20
27.39867429837347
 10
29.01872294749785
 20
24.83617429837347
  0
LWPOLYLINE
  5
62
330
17
100
AcDbEntity
  8
BRACKET_OUTLINE
 62
6
100
AcDbPolyline
 90
87
 70
1
 10
22.528722947497847
 20
24.83617429837347
 10
22.56610280993557
 20
24.88042222623116
 10
22.608349227874964
 20
24.920050163432734
 10
22.65489523187239
 20
24.954526281941547
 10
22.70511614974787
 20
24.983387893873427
 10
22.75833799001866
 20
25.006247661014683
 10
22.81384648722417
 20
25.022798793107334
 10
22.870896687749067
 20
25.03281916513791
 10
22.928722947497846
 20
25.036174298373474
 10
23.728722947497847
 20
25.036174298373474
 10
23.728722947497847
 20
28.682620907780205
 10
23.7122470294538
 20
28.70079928203593
 10
23.69763223971885
 20
28.72050504482194
 10
23.685019326707398
 20
28.741548418870345
 10
23.67452975966666
 20
28.76372674498557
 10
23.66626455886143
 20
28.786826433763224
 10
23.66030332269368
 20
28.810625022572808
 10
23.656703461126433
 20
28.83489331799445
 10
23.655499642794485
 20
28.859397603076843
 10
23.656703461126433
 20
28.88390188815923
 10
23.66030332269368
 20
28.90817018358087
 10
23.66626455886143
 20
28.931968772390455
 10
23.67452975966666
 20
28.955068461168118
 10
23.685019326707398
 20
28.97724678728334
 10
23.69763223971885
 20
28.998290161331745
 10
23.7122470294538
 20
29.017995924117756
 10
23.728722947497847
 20
29.03617429837348
 10
23.746901321753572
 20
29.052650216417526
 10
23.766607084539583
 20
29.067265006152482
 10
23.787650458587983
 20
29.079877919163934
 10
23.809828784703214
 20
29.090367486204663
 10
23.83292847348087
 20
29.098632687009896
 10
23.856727062290453
 20
29.104593923177646
 10
23.880995357712095
 20
29.10819378474489
 10
23.905499642794485
 20
29.109397603076843
 10
23.930003927876875
 20
29.10819378474489
 10
23.954272223298517
 20
29.104593923177646
 10
23.9780708121081
 20
29.098632687009896
 10
24.001170500885756
 20
29.090367486204663
 10
24.023348827000984
 20
29.079877919163934
 10
24.044392201049384
 20
29.067265006152482
 10
24.064097963835394
 20
29.052650216417526
 10
24.08227633809112
 20
29.03617429837348
 10
24.990169556904576
 20
29.03617429837348
 10
25.008347931160298
 20
29.052650216417526
 10
25.028053693946312
 20
29.067265006152482
 10
25.049097067994712
 20
29.079877919163934
 10
25.07127539410994
 20
29.090367486204663
 10
25.094375082887595
 20
29.098632687009896
 10
25.11817367169718
 20
29.104593923177646
 10
25.14244196711882
 20
29.10819378474489
 10
25.16694625220121
 20
29.109397603076843
 10
25.1914505372836
 20
29.10819378474489
 10
25.215718832705242
 20
29.104593923177646
 10
25.239517421514826
 20
29.098632687009896
 10
25.26261711029248
 20
29.090367486204663
 10
25.28479543640771
 20
29.079877919163934
 10
25.30583881045611
 20
29.067265006152482
 10
25.325544573242123
 20
29.052650216417526
 10
25.343722947497845
 20
29.03617429837348
 10
25.360198865541896
 20
29.017995924117756
 10
25.374813655276846
 20
28.998290161331745
 10
25.387426568288298
 20
28.97724678728334
 10
25.397916135329034
 20
28.955068461168118
 10
25.406181336134264
 20
28.931968772390455
 10
25.412142572302017
 20
28.90817018358087
 10
25.415742433869262
 20
28.88390188815923
 10
25.41694625220121
 20
28.859397603076843
 10
25.415742433869262
 20
28.83489331799445
 10
25.412142572302017
 20
28.810625022572808
 10
25.406181336134264
 20
28.786826433763224
 10
25.397916135329034
 20
28.76372674498557
 10
25.387426568288298
 20
28.741548418870345
 10
25.374813655276846
 20
28.72050504482194
 10
25.360198865541896
 20
28.70079928203593
 10
25.34372294749785
 20
28.682620907780205
 10
25.34372294749785
 20
25.036174298373474
 10
26.14372294749785
 20
25.036174298373474
 10
26.20154920724663
 20
25.03281916513791
 10
26.258599407771527
 20
25.022798793107334
 10
26.314107904977035
 20
25.006247661014683
 10
26.367329745247826
 20
24.983387893873427
 10
26.417550663123304
 20
24.954526281941547
 10
26.46409666712073
 20
24.920050163432734
 10
26.506343085060127
 20
24.88042222623116
 10
26.543722947497848
 20
24.83617429837347
 10
22.528722947497847
 20
24.83617429837347
  0
LWPOLYLINE
  5
63
330
17
100
AcDbEntity
  8
BRACKET_OUTLINE
 62
6
100
AcDbPolyline
 90
87
 70
1
 10
9.10372294749785
 20
24.83617429837347
 10
9.141102809935568
 20
24.88042222623116
 10
9.183349227874963
 20
24.920050163432734
 10
9.22989523187239
 20
24.954526281941547
 10
9.280116149747869
 20
24.983387893873427
 10
9.333337990018663
 20
25.006247661014683
 10
9.388846487224171
 20
25.022798793107334
 10
9.445896687749062
 20
25.03281916513791
 10
9.503722947497849
 20
25.036174298373474
 10
10.303722947497846
 20
25.036174298373474
 10
10.303722947497846
 20
28.682620907780205
 10
10.287247029453802
 20
28.70079928203593
 10
10.272632239718853
 20
28.72050504482194
 10
10.260019326707393
 20
28.741548418870345
 10
10.249529759666665
 20
28.76372674498557
 10
10.241264558861431
 20
28.786826433763224
 10
10.235303322693674
 20
28.810625022572808
 10
10.231703461126436
 20
28.83489331799445
 10
10.230499642794484
 20
28.859397603076843
 10
10.231703461126436
 20
28.88390188815923
 10
10.235303322693674
 20
28.90817018358087
 10
10.241264558861431
 20
28.931968772390455
 10
10.249529759666665
 20
28.955068461168118
 10
10.260019326707393
 20
28.97724678728334
 10
10.272632239718853
 20
28.998290161331745
 10
10.287247029453802
 20
29.017995924117756
 10
10.303722947497846
 20
29.03617429837348
 10
10.321901321753572
 20
29.052650216417526
 10
10.341607084539582
 20
29.067265006152482
 10
10.362650458587986
 20
29.079877919163934
 10
10.38482878470321
 20
29.090367486204663
 10
10.407928473480872
 20
29.098632687009896
 10
10.431727062290456
 20
29.104593923177646
 10
10.455995357712098
 20
29.10819378474489
 10
10.480499642794484
 20
29.109397603076843
 10
10.505003927876878
 20
29.10819378474489
 10
10.52927222329852
 20
29.104593923177646
 10
10.553070812108103
 20
29.098632687009896
 10
10.576170500885759
 20
29.090367486204663
 10
10.598348827000983
 20
29.079877919163934
 10
10.619392201049386
 20
29.067265006152482
 10
10.639097963835397
 20
29.052650216417526
 10
10.657276338091123
 20
29.03617429837348
 10
11.565169556904571
 20
29.03617429837348
 10
11.583347931160297
 20
29.052650216417526
 10
11.603053693946308
 20
29.067265006152482
 10
11.624097067994711
 20
29.079877919163934
 10
11.646275394109942
 20
29.090367486204663
 10
11.669375082887598
 20
29.098632687009896
 10
11.693173671697181
 20
29.104593923177646
 10
11.717441967118823
 20
29.10819378474489
 10
11.74194625220121
 20
29.109397603076843
 10
11.766450537283603
 20
29.10819378474489
 10
11.790718832705245
 20
29.104593923177646
 10
11.814517421514829
 20
29.098632687009896
 10
11.837617110292484
 20
29.090367486204663
 10
11.859795436407708
 20
29.079877919163934
 10
11.880838810456112
 20
29.067265006152482
 10
11.900544573242122
 20
29.052650216417526
 10
11.918722947497848
 20
29.03617429837348
 10
11.9351988655419
 20
29.017995924117756
 10
11.949813655276849
 20
28.998290161331745
 10
11.9624265682883
 20
28.97724678728334
 10
11.972916135329037
 20
28.955068461168118
 10
11.981181336134263
 20
28.931968772390455
 10
11.98714257230202
 20
28.90817018358087
 10
11.990742433869258
 20
28.88390188815923
 10
11.99194625220121
 20
28.859397603076843
 10
11.990742433869258
 20
28.83489331799445
 10
11.98714257230202
 20
28.810625022572808
 10
11.981181336134263
 20
28.786826433763224
 10
11.972916135329037
 20
28.76372674498557
 10
11.9624265682883
 20
28.741548418870345
 10
11.949813655276849
 20
28.72050504482194
 10
11.9351988655419
 20
28.70079928203593
 10
11.918722947497848
 20
28.682620907780205
 10
11.918722947497848
 20
25.036174298373474
 10
12.718722947497852
 20
25.036174298373474
 10
12.776549207246632
 20
25.03281916513791
 10
12.83359940777153
 20
25.022798793107334
 10
12.889107904977038
 20
25.006247661014683
 10
12.942329745247825
 20
24.983387893873427
 10
12.992550663123303
 20
24.954526281941547
 10
13.039096667120731
 20
24.920050163432734
 10
13.081343085060126
 20
24.88042222623116
 10
13.11872294749785
 20
24.83617429837347
 10
9.10372294749785
 20
24.83617429837347
  0
LWPOLYLINE
  5
64
330
17
100
AcDbEntity
  8
BRACKET_OUTLINE
 62
6
100
AcDbPolyline
 90
87
 70
1
 10
-0.04627705250214831
 20
24.83617429837347
 10
-0.008897190064431015
 20
24.88042222623116
 10
0.03334922787496453
 20
24.920050163432734
 10
0.079895231872392
 20
24.954526281941547
 10
0.13011614974787022
 20
24.983387893873427
 10
0.18333799001866424
 20
25.006247661014683
 10
0.23884648722417268
 20
25.022798793107334
 10
0.29589668774906386
 20
25.03281916513791
 10
0.35372294749785027
 20
25.036174298373474
 10
1.1537229474978474
 20
25.036174298373474
 10
1.1537229474978474
 20
28.682620907780205
 10
1.1372470294538033
 20
28.70079928203593
 10
1.122632239718854
 20
28.72050504482194
 10
1.1100193267073948
 20
28.741548418870345
 10
1.099529759666666
 20
28.76372674498557
 10
1.0912645588614325
 20
28.786826433763224
 10
1.085303322693676
 20
28.810625022572808
 10
1.0817034611264376
 20
28.83489331799445
 10
1.0804996427944857
 20
28.859397603076843
 10
1.0817034611264376
 20
28.88390188815923
 10
1.085303322693676
 20
28.90817018358087
 10
1.0912645588614325
 20
28.931968772390455
 10
1.099529759666666
 20
28.955068461168118
 10
1.1100193267073948
 20
28.97724678728334
 10
1.122632239718854
 20
28.998290161331745
 10
1.1372470294538033
 20
29.017995924117756
 10
1.1537229474978474
 20
29.03617429837348
 10
1.1719013217535732
 20
29.052650216417526
 10
1.1916070845395836
 20
29.067265006152482
 10
1.2126504585879871
 20
29.079877919163934
 10
1.2348287847032111
 20
29.090367486204663
 10
1.2579284734808738
 20
29.098632687009896
 10
1.2817270622904573
 20
29.104593923177646
 10
1.3059953577120993
 20
29.10819378474489
 10
1.3304996427944857
 20
29.109397603076843
 10
1.3550039278768793
 20
29.10819378474489
 10
1.3792722232985213
 20
29.104593923177646
 10
1.4030708121081048
 20
29.098632687009896
 10
1.4261705008857604
 20
29.090367486204663
 10
1.4483488270009843
 20
29.079877919163934
 10
1.4693922010493878
 20
29.067265006152482
 10
1.4890979638353983
 20
29.052650216417526
 10
1.507276338091124
 20
29.03617429837348
 10
2.415169556904573
 20
29.03617429837348
 10
2.4333479311602986
 20
29.052650216417526
 10
2.453053693946309
 20
29.067265006152482
 10
2.4740970679947125
 20
29.079877919163934
 10
2.4962753941099436
 20
29.090367486204663
 10
2.519375082887599
 20
29.098632687009896
 10
2.5431736716971827
 20
29.104593923177646
 10
2.5674419671188247
 20
29.10819378474489
 10
2.591946252201211
 20
29.109397603076843
 10
2.6164505372836047
 20
29.10819378474489
 10
2.6407188327052467
 20
29.104593923177646
 10
2.66451742151483
 20
29.098632687009896
 10
2.6876171102924857
 20
29.090367486204663
 10
2.7097954364077097
 20
29.079877919163934
 10
2.730838810456113
 20
29.067265006152482
 10
2.7505445732421236
 20
29.052650216417526
 10
2.7687229474978494
 20
29.03617429837348
 10
2.7851988655419007
 20
29.017995924117756
 10
2.79981365527685
 20
28.998290161331745
 10
2.812426568288302
 20
28.97724678728334
 10
2.822916135329038
 20
28.955068461168118
 10
2.8311813361342644
 20
28.931968772390455
 10
2.837142572302021
 20
28.90817018358087
 10
2.8407424338692593
 20
28.88390188815923
 10
2.841946252201211
 20
28.859397603076843
 10
2.8407424338692593
 20
28.83489331799445
 10
2.837142572302021
 20
28.810625022572808
 10
2.8311813361342644
 20
28.786826433763224
 10
2.822916135329038
 20
28.76372674498557
 10
2.812426568288302
 20
28.741548418870345
 10
2.79981365527685
 20
28.72050504482194
 10
2.7851988655419007
 20
28.70079928203593
 10
2.7687229474978494
 20
28.682620907780205
 10
2.7687229474978494
 20
25.036174298373474
 10
3.5687229474978537
 20
25.036174298373474
 10
3.626549207246633
 20
25.03281916513791
 10
3.6835994077715313
 20
25.022798793107334
 10
3.7391079049770397
 20
25.006247661014683
 10
3.7923297452478266
 20
24.983387893873427
 10
3.842550663123305
 20
24.954526281941547
 10
3.8890966671207323
 20
24.920050163432734
 10
3.931343085060128
 20
24.88042222623116
 10
3.9687229474978523
 20
24.83617429837347
 10
-0.04627705250214831
 20
24.83617429837347
  0
LINE
  5
65
330
17
100
AcDbEntity
  8
BRACKET_CUT_LINE
 62
4
100
AcDbLine
 10
25.34372294749785
 20
25.036174298373474
 30
0.0
 11
23.728722947497847
 21
25.036174298373474
 31
0.0
  0
LINE
  5
66
330
17
100
AcDbEntity
  8
BRACKET_CUT_LINE
 62
4
100
AcDbLine
 10
11.918722947497848
 20
25.036174298373474
 30
0.0
 11
10.303722947497846
 21
25.036174298373474
 31
0.0
  0
LINE
  5
67
330
17
100
AcDbEntity
  8
BRACKET_CUT_LINE
 62
4
100
AcDbLine
 10
2.7687229474978494
 20
25.036174298373474
 30
0.0
 11
1.1537229474978474
 21
25.036174298373474
 31
0.0
  0
LWPOLYLINE
  5
68
330
17
100
AcDbEntity
  8
SHELF_R
 62
3
100
AcDbPolyline
 90
110
 70
1
 10
31.0374458949957
 20
31.836172444597956
 10
60.0374458949957
 20
31.836172444597956
 10
60.0374458949957
 20
28.41962446193456
 10
60.0374458949957
 20
28.41962446193456
 10
60.023795875865524
 20
28.133768218765383
 10
59.982970033823165
 20
27.850513271054695
 10
59.915339884551884
 20
27.572437242439143
 10
59.82152086327257
 20
27.302070628325566
 10
59.702366724275365
 20
27.04187376835049
 10
59.558961771744784
 20
26.794214457258114
 10
59.39261099257776
 20
26.561346397937875
 10
59.204828180986254
 20
26.34538869269946
 10
58.99732216295064
 20
26.148306559414742
 10
58.77198124588145
 20
25.9718934480101
 10
58.53085603499788
 20
25.817754720049187
 10
58.276140772794164
 20
25.687293039922245
 10
58.010153371404854
 20
25.581695610582273
 10
57.73531431957484
 20
25.501923369982983
 10
57.45412465618093
 20
25.448702246531212
 10
57.16914321074614
 20
25.42251655312912
 10
56.88296331805842
 20
25.42360457992062
 10
56.59818921879102
 20
25.45195642584804
 10
56.317412360879125
 20
25.507314088751855
 10
56.317412360879075
 20
25.507314088751656
 10
55.85854065621852
 20
25.6228620381763
 10
55.39966895155797
 20
25.741484735316924
 10
54.94079724689742
 20
25.861472301723552
 10
54.481925542236866
 20
25.981095185135025
 10
54.02305383757631
 20
26.09862908998734
 10
53.56418213291576
 20
26.212379832149693
 10
53.10531042825521
 20
26.32070775962142
 10
52.64643872359465
 20
26.422051387179373
 10
52.1875670189341
 20
26.514949904295868
 10
51.728695314273544
 20
26.598064231888408
 10
51.26982360961299
 20
26.670196324380036
 10
50.81095190495244
 20
26.730306438842334
 10
50.35208020029188
 20
26.777528122296033
 10
49.89320849563133
 20
26.811180701136045
 10
49.434336790970775
 20
26.830779092652804
 10
48.97546508631022
 20
26.836040797222573
 10
48.51659338164967
 20
26.826889970378232
 10
48.05772167698912
 20
26.803458516063934
 10
47.598849972328566
 20
26.766084185315115
 10
47.13997826766801
 20
26.715305707770106
 10
46.68110656300746
 20
26.651855026190027
 10
46.22223485834691
 20
26.576646745921806
 10
45.763363153686356
 20
26.490764951384264
 10
45.304491449025804
 20
26.39544757961024
 10
44.84561974436525
 20
26.292068576091054
 10
44.38674803970469
 20
26.18211809013674
 10
43.92787633504414
 20
26.06718099522454
 10
43.46900463038359
 20
25.948914043952655
 10
43.010132925723035
 20
25.82902198689748
 10
42.55126122106248
 20
25.7092329996074
 10
42.09238951640193
 20
25.591273771938987
 10
41.63351781174138
 20
25.4768446188086
 10
41.174646107080825
 20
25.367594971123665
 10
40.715774402420266
 20
25.265099600177933
 10
40.25690269775971
 20
25.1708359182224
 10
39.79803099309916
 20
25.086162682411278
 10
39.33915928843861
 20
25.012300409093406
 10
38.880287583778056
 20
24.950313780765946
 10
38.421415879117504
 20
24.9010962992841
 10
37.96254417445695
 20
24.865357406542017
 10
37.5036724697964
 20
24.84361225827294
 10
37.04480076513585
 20
24.83617429837347
 10
36.585929060475294
 20
24.843150740788758
 10
36.12705735581474
 20
24.86444102408467
 10
35.66818565115419
 20
24.899738260983497
 10
35.20931394649364
 20
24.948533661968796
 10
34.75044224183308
 20
25.010123869195787
 10
34.291570537172525
 20
25.08362109499309
 10
33.83269883251197
 20
25.16796591881512
 10
33.832698832502864
 20
25.16796591876833
 10
33.594244749259815
 20
25.220484089929002
 10
33.35863888895946
 20
25.284580788045815
 10
33.12644311039761
 20
25.3601031591381
 10
32.89821114021061
 20
25.44687110196208
 10
32.67448725238116
 20
25.544677697505634
 10
32.45580497028616
 20
25.653289702436332
 10
32.24268579438201
 20
25.772448105326276
 10
32.035637958561466
 20
25.901868744327068
 10
31.835155218147744
 20
26.041242984822034
 10
31.64171567241631
 20
26.19023845543964
 10
31.455780624452267
 20
26.348499840672915
 10
31.277793481062268
 20
26.51564972821464
 10
31.10817869536443
 20
26.691289508987737
 10
30.947340754577873
 20
26.875000327724372
 10
30.795663215425726
 20
27.06634408182702
 10
30.65350778945196
 20
27.26486446612939
 10
30.521213480433268
 20
27.470088061065773
 10
30.399095775943096
 20
27.68152546165374
 10
30.2874458949957
 20
27.898672444597956
 10
30.2874458949957
 20
28.523672444597956
 10
30.2874458949957
 20
28.523672444597956
 10
30.37141925207318
 20
28.528388287178025
 10
30.454336595462934
 20
28.54247651046159
 10
30.535155191462074
 20
28.565759946866677
 10
30.612858699333866
 20
28.597945793671144
 10
30.6864699523822
 20
28.63862929517674
 10
30.75506324638975
 20
28.687298832746933
 10
30.81777598088561
 20
28.74334235870805
 10
30.873819506846722
 20
28.80605509320391
 10
30.922489044416913
 20
28.87464838721145
 10
30.963172545922514
 20
28.948259640259785
 10
30.995358392726974
 20
29.02596314813158
 10
31.018641829132065
 20
29.10678174413072
 10
31.03273005241563
 20
29.189699087520474
 10
31.0374458949957
 20
29.273672444597956
 10
31.0374458949957
 20
31.836172444597956
  0
LWPOLYLINE
  5
69
330
17
100
AcDbEntity
  8
BRACKET_OUTLINE
 62
6
100
AcDbPolyline
 90
87
 70
1
 10
37.5274458949957
 20
31.836172444597956
 10
37.490066032557976
 20
31.791924516740266
 10
37.44781961461858
 20
31.752296579538694
 10
37.40127361062115
 20
31.71782046102988
 10
37.351052692745675
 20
31.688958849098
 10
37.29783085247489
 20
31.666099081956744
 10
37.24232235526938
 20
31.649547949864093
 10
37.18527215474448
 20
31.63952757783352
 10
37.1274458949957
 20
31.636172444597953
 10
36.3274458949957
 20
31.636172444597953
 10
36.3274458949957
 20
27.98972583519123
 10
36.34392181303975
 20
27.971547460935504
 10
36.3585366027747
 20
27.951841698149494
 10
36.37114951578615
 20
27.93079832410109
 10
36.38163908282689
 20
27.908619997985866
 10
36.38990428363211
 20
27.88552030920821
 10
36.39586551979987
 20
27.861721720398627
 10
36.39946538136711
 20
27.837453424976985
 10
36.40066919969906
 20
27.81294913989459
 10
36.39946538136711
 20
27.788444854812205
 10
36.39586551979987
 20
27.764176559390563
 10
36.38990428363211
 20
27.74037797058098
 10
36.38163908282689
 20
27.717278281803317
 10
36.37114951578615
 20
27.695099955688093
 10
36.3585366027747
 20
27.67405658163969
 10
36.34392181303975
 20
27.65435081885368
 10
36.3274458949957
 20
27.636172444597953
 10
36.30926752073997
 20
27.61969652655391
 10
36.28956175795396
 20
27.605081736818953
 10
36.26851838390556
 20
27.5924688238075
 10
36.246340057790334
 20
27.581979256766772
 10
36.22324036901268
 20
27.57371405596154
 10
36.199441780203095
 20
27.56775281979379
 10
36.17517348478145
 20
27.564152958226543
 10
36.15066919969906
 20
27.56294913989459
 10
36.12616491461667
 20
27.564152958226543
 10
36.10189661919503
 20
27.56775281979379
 10
36.07809803038545
 20
27.57371405596154
 10
36.05499834160779
 20
27.581979256766772
 10
36.03282001549256
 20
27.5924688238075
 10
36.011776641444165
 20
27.605081736818953
 10
35.992070878658154
 20
27.61969652655391
 10
35.97389250440243
 20
27.636172444597953
 10
35.06599928558897
 20
27.636172444597953
 10
35.04782091133325
 20
27.61969652655391
 10
35.028115148547236
 20
27.605081736818953
 10
35.00707177449883
 20
27.5924688238075
 10
34.98489344838361
 20
27.581979256766772
 10
34.96179375960595
 20
27.57371405596154
 10
34.93799517079637
 20
27.56775281979379
 10
34.91372687537473
 20
27.564152958226543
 10
34.889222590292334
 20
27.56294913989459
 10
34.86471830520995
 20
27.564152958226543
 10
34.840450009788306
 20
27.56775281979379
 10
34.81665142097872
 20
27.57371405596154
 10
34.79355173220107
 20
27.581979256766772
 10
34.771373406085836
 20
27.5924688238075
 10
34.75033003203744
 20
27.605081736818953
 10
34.73062426925142
 20
27.61969652655391
 10
34.712445894995696
 20
27.636172444597953
 10
34.69596997695165
 20
27.65435081885368
 10
34.681355187216695
 20
27.67405658163969
 10
34.66874227420524
 20
27.695099955688093
 10
34.658252707164515
 20
27.717278281803317
 10
34.64998750635928
 20
27.74037797058098
 10
34.64402627019153
 20
27.764176559390563
 10
34.640426408624286
 20
27.788444854812205
 10
34.639222590292334
 20
27.81294913989459
 10
34.640426408624286
 20
27.837453424976985
 10
34.64402627019153
 20
27.861721720398627
 10
34.64998750635928
 20
27.88552030920821
 10
34.658252707164515
 20
27.908619997985866
 10
34.66874227420524
 20
27.93079832410109
 10
34.681355187216695
 20
27.951841698149494
 10
34.69596997695165
 20
27.971547460935504
 10
34.712445894995696
 20
27.98972583519123
 10
34.712445894995696
 20
31.636172444597953
 10
33.9124458949957
 20
31.636172444597953
 10
33.85461963524692
 20
31.63952757783352
 10
33.79756943472202
 20
31.649547949864093
 10
33.74206093751651
 20
31.666099081956744
 10
33.68883909724572
 20
31.688958849098
 10
33.63861817937024
 20
31.71782046102988
 10
33.59207217537281
 20
31.752296579538694
 10
33.54982575743342
 20
31.791924516740266
 10
33.5124458949957
 20
31.836172444597956
 10
37.5274458949957
 20
31.836172444597956
  0
LWPOLYLINE
  5
6A
330
17
100
AcDbEntity
  8
BRACKET_OUTLINE
 62
6
100
AcDbPolyline
 90
87
 70
1
 10
50.9524458949957
 20
31.836172444597956
 10
50.915066032557974
 20
31.791924516740266
 10
50.87281961461858
 20
31.752296579538694
 10
50.82627361062116
 20
31.71782046102988
 10
50.77605269274568
 20
31.688958849098
 10
50.722830852474885
 20
31.666099081956744
 10
50.66732235526938
 20
31.649547949864093
 10
50.61027215474448
 20
31.63952757783352
 10
50.5524458949957
 20
31.636172444597953
 10
49.7524458949957
 20
31.636172444597953
 10
49.7524458949957
 20
27.98972583519123
 10
49.768921813039746
 20
27.971547460935504
 10
49.783536602774696
 20
27.951841698149494
 10
49.796149515786155
 20
27.93079832410109
 10
49.806639082826884
 20
27.908619997985866
 10
49.81490428363212
 20
27.88552030920821
 10
49.82086551979987
 20
27.861721720398627
 10
49.824465381367105
 20
27.837453424976985
 10
49.825669199699064
 20
27.81294913989459
 10
49.824465381367105
 20
27.788444854812205
 10
49.82086551979987
 20
27.764176559390563
 10
49.81490428363212
 20
27.74037797058098
 10
49.806639082826884
 20
27.717278281803317
 10
49.796149515786155
 20
27.695099955688093
 10
49.783536602774696
 20
27.67405658163969
 10
49.768921813039746
 20
27.65435081885368
 10
49.7524458949957
 20
27.636172444597953
 10
49.73426752073998
 20
27.61969652655391
 10
49.71456175795396
 20
27.605081736818953
 10
49.693518383905555
 20
27.5924688238075
 10
49.67134005779033
 20
27.581979256766772
 10
49.648240369012676
 20
27.57371405596154
 10
49.62444178020309
 20
27.56775281979379
 10
49.60017348478145
 20
27.564152958226543
 10
49.575669199699064
 20
27.56294913989459
 10
49.55116491461667
 20
27.564152958226543
 10
49.52689661919503
 20
27.56775281979379
 10
49.503098030385445
 20
27.57371405596154
 10
49.47999834160779
 20
27.581979256766772
 10
49.45782001549256
 20
27.5924688238075
 10
49.43677664144416
 20
27.605081736818953
 10
49.41707087865815
 20
27.61969652655391
 10
49.398892504402426
 20
27.636172444597953
 10
48.49099928558897
 20
27.636172444597953
 10
48.472820911333244
 20
27.61969652655391
 10
48.45311514854724
 20
27.605081736818953
 10
48.43207177449884
 20
27.5924688238075
 10
48.409893448383606
 20
27.581979256766772
 10
48.38679375960595
 20
27.57371405596154
 10
48.36299517079637
 20
27.56775281979379
 10
48.338726875374725
 20
27.564152958226543
 10
48.31422259029233
 20
27.56294913989459
 10
48.289718305209945
 20
27.564152958226543
 10
48.2654500097883
 20
27.56775281979379
 10
48.24165142097872
 20
27.57371405596154
 10
48.218551732201064
 20
27.581979256766772
 10
48.19637340608584
 20
27.5924688238075
 10
48.17533003203744
 20
27.605081736818953
 10
48.15562426925142
 20
27.61969652655391
 10
48.13744589499569
 20
27.636172444597953
 10
48.12096997695165
 20
27.65435081885368
 10
48.1063551872167
 20
27.67405658163969
 10
48.09374227420525
 20
27.695099955688093
 10
48.08325270716451
 20
27.717278281803317
 10
48.07498750635928
 20
27.74037797058098
 10
48.06902627019153
 20
27.764176559390563
 10
48.06542640862429
 20
27.788444854812205
 10
48.06422259029233
 20
27.81294913989459
 10
48.06542640862429
 20
27.837453424976985
 10
48.06902627019153
 20
27.861721720398627
 10
48.07498750635928
 20
27.88552030920821
 10
48.08325270716451
 20
27.908619997985866
 10
48.09374227420525
 20
27.93079832410109
 10
48.1063551872167
 20
27.951841698149494
 10
48.12096997695165
 20
27.971547460935504
 10
48.13744589499569
 20
27.98972583519123
 10
48.13744589499569
 20
31.636172444597953
 10
47.337445894995696
 20
31.636172444597953
 10
47.27961963524692
 20
31.63952757783352
 10
47.22256943472202
 20
31.649547949864093
 10
47.16706093751651
 20
31.666099081956744
 10
47.113839097245716
 20
31.688958849098
 10
47.06361817937024
 20
31.71782046102988
 10
47.01707217537282
 20
31.752296579538694
 10
46.97482575743342
 20
31.791924516740266
 10
46.9374458949957
 20
31.836172444597956
 10
50.9524458949957
 20
31.836172444597956
  0
LWPOLYLINE
  5
6B
330
17
100
AcDbEntity
  8
BRACKET_OUTLINE
 62
6
100
AcDbPolyline
 90
87
 70
1
 10
60.1024458949957
 20
31.836172444597956
 10
60.06506603255798
 20
31.791924516740266
 10
60.022819614618584
 20
31.752296579538694
 10
59.97627361062115
 20
31.71782046102988
 10
59.92605269274567
 20
31.688958849098
 10
59.872830852474884
 20
31.666099081956744
 10
59.817322355269376
 20
31.649547949864093
 10
59.760272154744484
 20
31.63952757783352
 10
59.7024458949957
 20
31.636172444597953
 10
58.902445894995694
 20
31.636172444597953
 10
58.902445894995694
 20
27.98972583519123
 10
58.918921813039745
 20
27.971547460935504
 10
58.933536602774694
 20
27.951841698149494
 10
58.946149515786146
 20
27.93079832410109
 10
58.95663908282688
 20
27.908619997985866
 10
58.96490428363211
 20
27.88552030920821
 10
58.97086551979987
 20
27.861721720398627
 10
58.97446538136711
 20
27.837453424976985
 10
58.975669199699055
 20
27.81294913989459
 10
58.97446538136711
 20
27.788444854812205
 10
58.97086551979987
 20
27.764176559390563
 10
58.96490428363211
 20
27.74037797058098
 10
58.95663908282688
 20
27.717278281803317
 10
58.946149515786146
 20
27.695099955688093
 10
58.933536602774694
 20
27.67405658163969
 10
58.918921813039745
 20
27.65435081885368
 10
58.902445894995694
 20
27.636172444597953
 10
58.88426752073997
 20
27.61969652655391
 10
58.864561757953965
 20
27.605081736818953
 10
58.84351838390556
 20
27.5924688238075
 10
58.82134005779034
 20
27.581979256766772
 10
58.798240369012674
 20
27.57371405596154
 10
58.77444178020309
 20
27.56775281979379
 10
58.75017348478145
 20
27.564152958226543
 10
58.725669199699055
 20
27.56294913989459
 10
58.70116491461667
 20
27.564152958226543
 10
58.67689661919503
 20
27.56775281979379
 10
58.65309803038544
 20
27.57371405596154
 10
58.62999834160779
 20
27.581979256766772
 10
58.607820015492564
 20
27.5924688238075
 10
58.58677664144416
 20
27.605081736818953
 10
58.56707087865815
 20
27.61969652655391
 10
58.548892504402424
 20
27.636172444597953
 10
57.640999285588975
 20
27.636172444597953
 10
57.62282091133325
 20
27.61969652655391
 10
57.60311514854723
 20
27.605081736818953
 10
57.58207177449883
 20
27.5924688238075
 10
57.559893448383605
 20
27.581979256766772
 10
57.53679375960595
 20
27.57371405596154
 10
57.512995170796366
 20
27.56775281979379
 10
57.488726875374724
 20
27.564152958226543
 10
57.46422259029234
 20
27.56294913989459
 10
57.439718305209944
 20
27.564152958226543
 10
57.4154500097883
 20
27.56775281979379
 10
57.39165142097872
 20
27.57371405596154
 10
57.36855173220106
 20
27.581979256766772
 10
57.34637340608583
 20
27.5924688238075
 10
57.32533003203743
 20
27.605081736818953
 10
57.305624269251425
 20
27.61969652655391
 10
57.2874458949957
 20
27.636172444597953
 10
57.27096997695165
 20
27.65435081885368
 10
57.2563551872167
 20
27.67405658163969
 10
57.243742274205246
 20
27.695099955688093
 10
57.23325270716451
 20
27.717278281803317
 10
57.224987506359284
 20
27.74037797058098
 10
57.21902627019153
 20
27.764176559390563
 10
57.21542640862428
 20
27.788444854812205
 10
57.21422259029234
 20
27.81294913989459
 10
57.21542640862428
 20
27.837453424976985
 10
57.21902627019153
 20
27.861721720398627
 10
57.224987506359284
 20
27.88552030920821
 10
57.23325270716451
 20
27.908619997985866
 10
57.243742274205246
 20
27.93079832410109
 10
57.2563551872167
 20
27.951841698149494
 10
57.27096997695165
 20
27.971547460935504
 10
57.2874458949957
 20
27.98972583519123
 10
57.2874458949957
 20
31.636172444597953
 10
56.487445894995695
 20
31.636172444597953
 10
56.42961963524691
 20
31.63952757783352
 10
56.37256943472202
 20
31.649547949864093
 10
56.31706093751651
 20
31.666099081956744
 10
56.26383909724572
 20
31.688958849098
 10
56.21361817937024
 20
31.71782046102988
 10
56.16707217537281
 20
31.752296579538694
 10
56.12482575743341
 20
31.791924516740266
 10
56.087445894995696
 20
31.836172444597956
 10
60.1024458949957
 20
31.836172444597956
  0
LINE
  5
6C
330
17
100
AcDbEntity
  8
BRACKET_CUT_LINE
 62
4
100
AcDbLine
 10
34.712445894995696
 20
31.636172444597953
 30
0.0
 11
36.3274458949957
 21
31.636172444597953
 31
0.0
  0
LINE
  5
6D
330
17
100
AcDbEntity
  8
BRACKET_CUT_LINE
 62
4
100
AcDbLine
 10
48.13744589499569
 20
31.636172444597953
 30
0.0
 11
49.7524458949957
 21
31.636172444597953
 31
0.0
  0
LINE
  5
6E
330
17
100
AcDbEntity
  8
BRACKET_CUT_LINE
 62
4
100
AcDbLine
 10
57.2874458949957
 20
31.636172444597953
 30
0.0
 11
58.902445894995694
 21
31.636172444597953
 31
0.0
  0
ENDSEC
  0
SECTION
  2
OBJECTS
  0
DICTIONARY
  5
A
330
0
100
AcDbDictionary
281
1
  3
ACAD_COLOR
350
B
  3
ACAD_GROUP
350
C
  3
ACAD_LAYOUT
350
D
  3
ACAD_MATERIAL
350
E
  3
ACAD_MLEADERSTYLE
350
F
  3
ACAD_MLINESTYLE
350
10
  3
ACAD_PLOTSETTINGS
350
11
  3
ACAD_PLOTSTYLENAME
350
12
  3
ACAD_SCALELIST
350
14
  3
ACAD_TABLESTYLE
350
15
  3
ACAD_VISUALSTYLE
350
16
  3
EZDXF_META
350
2D
  0
DICTIONARY
  5
B
330
A
100
AcDbDictionary
281
1
  0
DICTIONARY
  5
C
330
A
100
AcDbDictionary
281
1
  0
DICTIONARY
  5
D
330
A
100
AcDbDictionary
281
1
  3
Model
350
1A
  3
Layout1
350
1E
  0
DICTIONARY
  5
E
330
A
100
AcDbDictionary
281
1
  3
ByBlock
350
1F
  3
ByLayer
350
20
  3
Global
350
21
  0
DICTIONARY
  5
F
330
A
100
AcDbDictionary
281
1
  3
Standard
350
2C
  0
DICTIONARY
  5
10
330
A
100
AcDbDictionary
281
1
  3
Standard
350
22
  0
DICTIONARY
  5
11
330
A
100
AcDbDictionary
281
1
  0
ACDBDICTIONARYWDFLT
  5
12
330
A
100
AcDbDictionary
281
1
  3
Normal
350
13
100
AcDbDictionaryWithDefault
340
13
  0
ACDBPLACEHOLDER
  5
13
330
12
  0
DICTIONARY
  5
14
330
A
100
AcDbDictionary
281
1
  0
DICTIONARY
  5
15
330
A
100
AcDbDictionary
281
1
  0
DICTIONARY
  5
16
330
A
100
AcDbDictionary
281
1
  0
LAYOUT
  5
1A
330
D
100
AcDbPlotSettings
  1

  4
A3
  6

 40
7.5
 41
20.0
 42
7.5
 43
20.0
 44
420.0
 45
297.0
 46
0.0
 47
0.0
 48
0.0
 49
0.0
140
0.0
141
0.0
142
1.0
143
1.0
 70
1024
 72
1
 73
0
 74
5
  7

 75
16
 76
0
 77
2
 78
300
147
1.0
148
0.0
149
0.0
100
AcDbLayout
  1
Model
 70
1
 71
0
 10
0.0
 20
0.0
 11
420.0
 21
297.0
 12
0.0
 22
0.0
 32
0.0
 14
1e+20
 24
1e+20
 34
1e+20
 15
-1e+20
 25
-1e+20
 35
-1e+20
146
0.0
 13
0.0
 23
0.0
 33
0.0
 16
1.0
 26
0.0
 36
0.0
 17
0.0
 27
1.0
 37
0.0
 76
1
330
17
  0
LAYOUT
  5
1E
330
D
100
AcDbPlotSettings
  1

  4
A3
  6

 40
7.5
 41
20.0
 42
7.5
 43
20.0
 44
420.0
 45
297.0
 46
0.0
 47
0.0
 48
0.0
 49
0.0
140
0.0
141
0.0
142
1.0
143
1.0
 70
0
 72
1
 73
0
 74
5
  7

 75
16
 76
0
 77
2
 78
300
147
1.0
148
0.0
149
0.0
100
AcDbLayout
  1
Layout1
 70
1
 71
1
 10
0.0
 20
0.0
 11
420.0
 21
297.0
 12
0.0
 22
0.0
 32
0.0
 14
1e+20
 24
1e+20
 34
1e+20
 15
-1e+20
 25
-1e+20
 35
-1e+20
146
0.0
 13
0.0
 23
0.0
 33
0.0
 16
1.0
 26
0.0
 36
0.0
 17
0.0
 27
1.0
 37
0.0
 76
1
330
1B
  0
MATERIAL
  5
1F
102
{ACAD_REACTORS
330
E
102
}
330
E
100
AcDbMaterial
  1
ByBlock
  2

 70
0
 40
1.0
 71
1
 41
1.0
 91
-1023410177
 42
1.0
 72
1
  3

 73
1
 74
1
 75
1
 44
0.5
 73
0
 45
1.0
 46
1.0
 77
1
  4

 78
1
 79
1
170
1
 48
1.0
171
1
  6

172
1
173
1
174
1
140
1.0
141
1.0
175
1
  7

176
1
177
1
178
1
143
1.0
179
1
  8

270
1
271
1
272
1
145
1.0
146
1.0
273
1
  9

274
1
275
1
276
1
 42
1.0
 72
1
  3

 73
1
 74
1
 75
1
 94
63
  0
MATERIAL
  5
20
102
{ACAD_REACTORS
330
E
102
}
330
E
100
AcDbMaterial
  1
ByLayer
  2

 70
0
 40
1.0
 71
1
 41
1.0
 91
-1023410177
 42
1.0
 72
1
  3

 73
1
 74
1
 75
1
 44
0.5
 73
0
 45
1.0
 46
1.0
 77
1
  4

 78
1
 79
1
170
1
 48
1.0
171
1
  6

172
1
173
1
174
1
140
1.0
141
1.0
175
1
  7

176
1
177
1
178
1
143
1.0
179
1
  8

270
1
271
1
272
1
145
1.0
146
1.0
273
1
  9

274
1
275
1
276
1
 42
1.0
 72
1
  3

 73
1
 74
1
 75
1
 94
63
  0
MATERIAL
  5
21
102
{ACAD_REACTORS
330
E
102
}
330
E
100
AcDbMaterial
  1
Global
  2

 70
0
 40
1.0
 71
1
 41
1.0
 91
-1023410177
 42
1.0
 72
1
  3

 73
1
 74
1
 75
1
 44
0.5
 73
0
 45
1.0
 46
1.0
 77
1
  4

 78
1
 79
1
170
1
 48
1.0
171
1
  6

172
1
173
1
174
1
140
1.0
141
1.0
175
1
  7

176
1
177
1
178
1
143
1.0
179
1
  8

270
1
271
1
272
1
145
1.0
146
1.0
273
1
  9

274
1
275
1
276
1
 42
1.0
 72
1
  3

 73
1
 74
1
 75
1
 94
63
  0
MLINESTYLE
  5
22
102
{ACAD_REACTORS
330
10
102
}
330
10
100
AcDbMlineStyle
  2
Standard
 70
0
  3

 62
256
 51
90.0
 52
90.0
 71
2
 49
0.5
 62
256
  6
BYLAYER
 49
-0.5
 62
256
  6
BYLAYER
  0
MLEADERSTYLE
  5
2C
102
{ACAD_REACTORS
330
F
102
}
330
F
100
AcDbMLeaderStyle
179
2
170
2
171
1
172
0
 90
2
 40
0.0
 41
0.0
173
1
 91
-1056964608
 92
-2
290
1
 42
2.0
291
1
 43
8.0
  3
Standard
 44
4.0
300

342
29
174
1
175
1
176
0
178
1
 93
-1056964608
 45
4.0
292
0
297
0
 46
4.0
 94
-1056964608
 47
1.0
 49
1.0
140
1.0
294
1
141
0.0
177
0
142
1.0
295
0
296
0
143
3.75
271
0
272
9
273
9
  0
DICTIONARY
  5
2D
330
A
100
AcDbDictionary
280
1
281
1
  3
CREATED_BY_EZDXF
350
2E
  3
WRITTEN_BY_EZDXF
350
71
  0
DICTIONARYVAR
  5
2E
330
2D
100
DictionaryVariables
280
0
  1
1.4.3 @ 2026-05-08T09:04:43.783749+00:00
  0
DICTIONARYVAR
  5
71
330
2D
100
DictionaryVariables
280
0
  1
1.4.3 @ 2026-05-08T09:04:43.810792+00:00
  0
ENDSEC
  0
EOF
