  0
SECTION
  2
HEADER
  9
$ACADVER
  1
AC1024
  9
$ACADMAINTVER
 70
6
  9
$DWGCODEPAGE
  3
ANSI_1252
  9
$LASTSAVEDBY
  1
ezdxf
  9
$INSBASE
 10
0.0
 20
0.0
 30
0.0
  9
$EXTMIN
 10
1e+20
 20
1e+20
 30
1e+20
  9
$EXTMAX
 10
-1e+20
 20
-1e+20
 30
-1e+20
  9
$LIMMIN
 10
0.0
 20
0.0
  9
$LIMMAX
 10
420.0
 20
297.0
  9
$ORTHOMODE
 70
0
  9
$REGENMODE
 70
1
  9
$FILLMODE
 70
1
  9
$QTEXTMODE
 70
0
  9
$MIRRTEXT
 70
1
  9
$LTSCALE
 40
1.0
  9
$ATTMODE
 70
1
  9
$TEXTSIZE
 40
2.5
  9
$TRACEWID
 40
1.0
  9
$TEXTSTYLE
  7
Standard
  9
$CLAYER
  8
0
  9
$CELTYPE
  6
ByLayer
  9
$CECOLOR
 62
256
  9
$CELTSCALE
 40
1.0
  9
$DISPSILH
 70
0
  9
$DIMSCALE
 40
1.0
  9
$DIMASZ
 40
2.5
  9
$DIMEXO
 40
0.625
  9
$DIMDLI
 40
3.75
  9
$DIMRND
 40
0.0
  9
$DIMDLE
 40
0.0
  9
$DIMEXE
 40
1.25
  9
$DIMTP
 40
0.0
  9
$DIMTM
 40
0.0
  9
$DIMTXT
 40
2.5
  9
$DIMCEN
 40
2.5
  9
$DIMTSZ
 40
0.0
  9
$DIMTOL
 70
0
  9
$DIMLIM
 70
0
  9
$DIMTIH
 70
0
  9
$DIMTOH
 70
0
  9
$DIMSE1
 70
0
  9
$DIMSE2
 70
0
  9
$DIMTAD
 70
1
  9
$DIMZIN
 70
8
  9
$DIMBLK
  1

  9
$DIMASO
 70
1
  9
$DIMSHO
 70
1
  9
$DIMPOST
  1

  9
$DIMAPOST
  1

  9
$DIMALT
 70
0
  9
$DIMALTD
 70
3
  9
$DIMALTF
 40
0.03937007874
  9
$DIMLFAC
 40
1.0
  9
$DIMTOFL
 70
1
  9
$DIMTVP
 40
0.0
  9
$DIMTIX
 70
0
  9
$DIMSOXD
 70
0
  9
$DIMSAH
 70
0
  9
$DIMBLK1
  1

  9
$DIMBLK2
  1

  9
$DIMSTYLE
  2
ISO-25
  9
$DIMCLRD
 70
0
  9
$DIMCLRE
 70
0
  9
$DIMCLRT
 70
0
  9
$DIMTFAC
 40
1.0
  9
$DIMGAP
 40
0.625
  9
$DIMJUST
 70
0
  9
$DIMSD1
 70
0
  9
$DIMSD2
 70
0
  9
$DIMTOLJ
 70
0
  9
$DIMTZIN
 70
8
  9
$DIMALTZ
 70
0
  9
$DIMALTTZ
 70
0
  9
$DIMUPT
 70
0
  9
$DIMDEC
 70
2
  9
$DIMTDEC
 70
2
  9
$DIMALTU
 70
2
  9
$DIMALTTD
 70
3
  9
$DIMTXSTY
  7
Standard
  9
$DIMAUNIT
 70
0
  9
$DIMADEC
 70
0
  9
$DIMALTRND
 40
0.0
  9
$DIMAZIN
 70
0
  9
$DIMDSEP
 70
44
  9
$DIMATFIT
 70
3
  9
$DIMFRAC
 70
0
  9
$DIMLDRBLK
  1

  9
$DIMLUNIT
 70
2
  9
$DIMLWD
 70
-2
  9
$DIMLWE
 70
-2
  9
$DIMTMOVE
 70
0
  9
$DIMFXL
 40
1.0
  9
$DIMFXLON
 70
0
  9
$DIMJOGANG
 40
0.785398163397
  9
$DIMTFILL
 70
0
  9
$DIMTFILLCLR
 70
0
  9
$DIMARCSYM
 70
0
  9
$DIMLTYPE
  6

  9
$DIMLTEX1
  6

  9
$DIMLTEX2
  6

  9
$DIMTXTDIRECTION
 70
0
  9
$LUNITS
 70
2
  9
$LUPREC
 70
4
  9
$SKETCHINC
 40
1.0
  9
$FILLETRAD
 40
10.0
  9
$AUNITS
 70
0
  9
$AUPREC
 70
2
  9
$MENU
  1
.
  9
$ELEVATION
 40
0.0
  9
$PELEVATION
 40
0.0
  9
$THICKNESS
 40
0.0
  9
$LIMCHECK
 70
0
  9
$CHAMFERA
 40
0.0
  9
$CHAMFERB
 40
0.0
  9
$CHAMFERC
 40
0.0
  9
$CHAMFERD
 40
0.0
  9
$SKPOLY
 70
0
  9
$TDCREATE
 40
2461121.999097222
  9
$TDUCREATE
 40
2458532.153996898
  9
$TDUPDATE
 40
2461121.999097222
  9
$TDUUPDATE
 40
2458532.1544311
  9
$TDINDWG
 40
0.0
  9
$TDUSRTIMER
 40
0.0
  9
$USRTIMER
 70
1
  9
$ANGBASE
 50
0.0
  9
$ANGDIR
 70
0
  9
$PDMODE
 70
0
  9
$PDSIZE
 40
0.0
  9
$PLINEWID
 40
0.0
  9
$SPLFRAME
 70
0
  9
$SPLINETYPE
 70
6
  9
$SPLINESEGS
 70
8
  9
$HANDSEED
  5
5D
  9
$SURFTAB1
 70
6
  9
$SURFTAB2
 70
6
  9
$SURFTYPE
 70
6
  9
$SURFU
 70
6
  9
$SURFV
 70
6
  9
$UCSBASE
  2

  9
$UCSNAME
  2

  9
$UCSORG
 10
0.0
 20
0.0
 30
0.0
  9
$UCSXDIR
 10
1.0
 20
0.0
 30
0.0
  9
$UCSYDIR
 10
0.0
 20
1.0
 30
0.0
  9
$UCSORTHOREF
  2

  9
$UCSORTHOVIEW
 70
0
  9
$UCSORGTOP
 10
0.0
 20
0.0
 30
0.0
  9
$UCSORGBOTTOM
 10
0.0
 20
0.0
 30
0.0
  9
$UCSORGLEFT
 10
0.0
 20
0.0
 30
0.0
  9
$UCSORGRIGHT
 10
0.0
 20
0.0
 30
0.0
  9
$UCSORGFRONT
 10
0.0
 20
0.0
 30
0.0
  9
$UCSORGBACK
 10
0.0
 20
0.0
 30
0.0
  9
$PUCSBASE
  2

  9
$PUCSNAME
  2

  9
$PUCSORG
 10
0.0
 20
0.0
 30
0.0
  9
$PUCSXDIR
 10
1.0
 20
0.0
 30
0.0
  9
$PUCSYDIR
 10
0.0
 20
1.0
 30
0.0
  9
$PUCSORTHOREF
  2

  9
$PUCSORTHOVIEW
 70
0
  9
$PUCSORGTOP
 10
0.0
 20
0.0
 30
0.0
  9
$PUCSORGBOTTOM
 10
0.0
 20
0.0
 30
0.0
  9
$PUCSORGLEFT
 10
0.0
 20
0.0
 30
0.0
  9
$PUCSORGRIGHT
 10
0.0
 20
0.0
 30
0.0
  9
$PUCSORGFRONT
 10
0.0
 20
0.0
 30
0.0
  9
$PUCSORGBACK
 10
0.0
 20
0.0
 30
0.0
  9
$USERI1
 70
0
  9
$USERI2
 70
0
  9
$USERI3
 70
0
  9
$USERI4
 70
0
  9
$USERI5
 70
0
  9
$USERR1
 40
0.0
  9
$USERR2
 40
0.0
  9
$USERR3
 40
0.0
  9
$USERR4
 40
0.0
  9
$USERR5
 40
0.0
  9
$WORLDVIEW
 70
1
  9
$SHADEDGE
 70
3
  9
$SHADEDIF
 70
70
  9
$TILEMODE
 70
1
  9
$MAXACTVP
 70
64
  9
$PINSBASE
 10
0.0
 20
0.0
 30
0.0
  9
$PLIMCHECK
 70
0
  9
$PEXTMIN
 10
1e+20
 20
1e+20
 30
1e+20
  9
$PEXTMAX
 10
-1e+20
 20
-1e+20
 30
-1e+20
  9
$PLIMMIN
 10
0.0
 20
0.0
  9
$PLIMMAX
 10
420.0
 20
297.0
  9
$UNITMODE
 70
0
  9
$VISRETAIN
 70
1
  9
$PLINEGEN
 70
0
  9
$PSLTSCALE
 70
1
  9
$TREEDEPTH
 70
3020
  9
$CMLSTYLE
  2
Standard
  9
$CMLJUST
 70
0
  9
$CMLSCALE
 40
20.0
  9
$PROXYGRAPHICS
 70
1
  9
$MEASUREMENT
 70
1
  9
$CELWEIGHT
370
-1
  9
$ENDCAPS
280
0
  9
$JOINSTYLE
280
0
  9
$LWDISPLAY
290
0
  9
$INSUNITS
 70
1
  9
$HYPERLINKBASE
  1

  9
$STYLESHEET
  1

  9
$XEDIT
290
1
  9
$CEPSNTYPE
380
0
  9
$PSTYLEMODE
290
1
  9
$FINGERPRINTGUID
  2
{6818CCF5-AA59-4A5B-8413-18DFE9D90DD3}
  9
$VERSIONGUID
  2
{A59B435C-09F9-4A74-8DDB-969C279799EF}
  9
$EXTNAMES
290
1
  9
$PSVPSCALE
 40
0.0
  9
$OLESTARTUP
290
0
  9
$SORTENTS
280
127
  9
$INDEXCTL
280
0
  9
$HIDETEXT
280
1
  9
$XCLIPFRAME
280
1
  9
$HALOGAP
280
0
  9
$OBSCOLOR
 70
257
  9
$OBSLTYPE
280
0
  9
$INTERSECTIONDISPLAY
280
0
  9
$INTERSECTIONCOLOR
 70
257
  9
$DIMASSOC
280
2
  9
$PROJECTNAME
  1

  9
$CAMERADISPLAY
290
0
  9
$LENSLENGTH
 40
50.0
  9
$CAMERAHEIGHT
 40
0.0
  9
$STEPSPERSEC
 40
24.0
  9
$STEPSIZE
 40
100.0
  9
$3DDWFPREC
 40
2.0
  9
$PSOLWIDTH
 40
0.005
  9
$PSOLHEIGHT
 40
0.08
  9
$LOFTANG1
 40
1.570796326795
  9
$LOFTANG2
 40
1.570796326795
  9
$LOFTMAG1
 40
0.0
  9
$LOFTMAG2
 40
0.0
  9
$LOFTPARAM
 70
7
  9
$LOFTNORMALS
280
1
  9
$LATITUDE
 40
37.795
  9
$LONGITUDE
 40
-122.394
  9
$NORTHDIRECTION
 40
0.0
  9
$TIMEZONE
 70
-8000
  9
$LIGHTGLYPHDISPLAY
280
1
  9
$TILEMODELIGHTSYNCH
280
1
  9
$CMATERIAL
347
20
  9
$SOLIDHIST
280
0
  9
$SHOWHIST
280
1
  9
$DWFFRAME
280
2
  9
$DGNFRAME
280
2
  9
$REALWORLDSCALE
290
1
  9
$INTERFERECOLOR
 62
256
  9
$CSHADOW
280
0
  9
$SHADOWPLANELOCATION
 40
0.0
  0
ENDSEC
  0
SECTION
  2
CLASSES
  0
CLASS
  1
ACDBDICTIONARYWDFLT
  2
AcDbDictionaryWithDefault
  3
ObjectDBX Classes
 90
0
 91
0
280
0
281
0
  0
CLASS
  1
SUN
  2
AcDbSun
  3
SCENEOE
 90
1153
 91
0
280
0
281
0
  0
CLASS
  1
VISUALSTYLE
  2
AcDbVisualStyle
  3
ObjectDBX Classes
 90
4095
 91
0
280
0
281
0
  0
CLASS
  1
MATERIAL
  2
AcDbMaterial
  3
ObjectDBX Classes
 90
1153
 91
0
280
0
281
0
  0
CLASS
  1
SCALE
  2
AcDbScale
  3
ObjectDBX Classes
 90
1153
 91
0
280
0
281
0
  0
CLASS
  1
TABLESTYLE
  2
AcDbTableStyle
  3
ObjectDBX Classes
 90
4095
 91
0
280
0
281
0
  0
CLASS
  1
MLEADERSTYLE
  2
AcDbMLeaderStyle
  3
ACDB_MLEADERSTYLE_CLASS
 90
4095
 91
0
280
0
281
0
  0
CLASS
  1
DICTIONARYVAR
  2
AcDbDictionaryVar
  3
ObjectDBX Classes
 90
0
 91
0
280
0
281
0
  0
CLASS
  1
CELLSTYLEMAP
  2
AcDbCellStyleMap
  3
ObjectDBX Classes
 90
1152
 91
0
280
0
281
0
  0
CLASS
  1
MENTALRAYRENDERSETTINGS
  2
AcDbMentalRayRenderSettings
  3
SCENEOE
 90
1024
 91
0
280
0
281
0
  0
CLASS
  1
ACDBDETAILVIEWSTYLE
  2
AcDbDetailViewStyle
  3
ObjectDBX Classes
 90
1025
 91
0
280
0
281
0
  0
CLASS
  1
ACDBSECTIONVIEWSTYLE
  2
AcDbSectionViewStyle
  3
ObjectDBX Classes
 90
1025
 91
0
280
0
281
0
  0
CLASS
  1
RASTERVARIABLES
  2
AcDbRasterVariables
  3
ISM
 90
0
 91
0
280
0
281
0
  0
CLASS
  1
LAYOUT
  2
AcDbLayout
  3
ObjectDBX Classes
 90
0
 91
0
280
0
281
0
  0
CLASS
  1
ACDBPLACEHOLDER
  2
AcDbPlaceHolder
  3
ObjectDBX Classes
 90
0
 91
0
280
0
281
0
  0
ENDSEC
  0
SECTION
  2
TABLES
  0
TABLE
  2
VPORT
  5
8
330
0
100
AcDbSymbolTable
 70
1
  0
VPORT
  5
23
330
8
100
AcDbSymbolTableRecord
100
AcDbViewportTableRecord
  2
*Active
 70
0
 10
0.0
 20
0.0
 11
1.0
 21
1.0
 12
0.0
 22
0.0
 13
0.0
 23
0.0
 14
0.5
 24
0.5
 15
0.5
 25
0.5
 16
0.0
 26
0.0
 36
1.0
 17
0.0
 27
0.0
 37
0.0
 40
1000.0
 41
1.34
 42
50.0
 43
0.0
 44
0.0
 50
0.0
 51
0.0
 71
0
 72
1000
 73
1
 74
3
 75
0
 76
0
 77
0
 78
0
281
0
 65
0
146
0.0
  0
ENDTAB
  0
TABLE
  2
LTYPE
  5
2
330
0
100
AcDbSymbolTable
 70
3
  0
LTYPE
  5
24
330
2
100
AcDbSymbolTableRecord
100
AcDbLinetypeTableRecord
  2
ByBlock
 70
0
  3

 72
65
 73
0
 40
0.0
  0
LTYPE
  5
25
330
2
100
AcDbSymbolTableRecord
100
AcDbLinetypeTableRecord
  2
ByLayer
 70
0
  3

 72
65
 73
0
 40
0.0
  0
LTYPE
  5
26
330
2
100
AcDbSymbolTableRecord
100
AcDbLinetypeTableRecord
  2
Continuous
 70
0
  3

 72
65
 73
0
 40
0.0
  0
ENDTAB
  0
TABLE
  2
LAYER
  5
1
330
0
100
AcDbSymbolTable
 70
2
  0
LAYER
  5
27
330
1
100
AcDbSymbolTableRecord
100
AcDbLayerTableRecord
  2
0
 70
0
 62
7
  6
Continuous
370
-3
390
13
347
21
  0
LAYER
  5
28
330
1
100
AcDbSymbolTableRecord
100
AcDbLayerTableRecord
  2
Defpoints
 70
0
 62
7
  6
Continuous
290
0
370
-3
390
13
347
21
  0
ENDTAB
  0
TABLE
  2
STYLE
  5
5
330
0
100
AcDbSymbolTable
 70
1
  0
STYLE
  5
29
330
5
100
AcDbSymbolTableRecord
100
AcDbTextStyleTableRecord
  2
Standard
 70
0
 40
0.0
 41
1.0
 50
0.0
 71
0
 42
2.5
  3
txt
  4

  0
ENDTAB
  0
TABLE
  2
VIEW
  5
7
330
0
100
AcDbSymbolTable
 70
0
  0
ENDTAB
  0
TABLE
  2
UCS
  5
6
330
0
100
AcDbSymbolTable
 70
0
  0
ENDTAB
  0
TABLE
  2
APPID
  5
3
330
0
100
AcDbSymbolTable
 70
3
  0
APPID
  5
2A
330
3
100
AcDbSymbolTableRecord
100
AcDbRegAppTableRecord
  2
ACAD
 70
0
  0
APPID
  5
5A
330
3
100
AcDbSymbolTableRecord
100
AcDbRegAppTableRecord
  2
HATCHBACKGROUNDCOLOR
 70
0
  0
APPID
  5
5B
330
3
100
AcDbSymbolTableRecord
100
AcDbRegAppTableRecord
  2
EZDXF
 70
0
  0
ENDTAB
  0
TABLE
  2
DIMSTYLE
  5
4
330
0
100
AcDbSymbolTable
 70
1
100
AcDbDimStyleTable
  0
DIMSTYLE
105
2B
330
4
100
AcDbSymbolTableRecord
100
AcDbDimStyleTableRecord
  2
Standard
 70
0
 40
1.0
 41
2.5
 42
0.625
 43
3.75
 44
1.25
 45
0.0
 46
0.0
 47
0.0
 48
0.0
 49
2.5
140
2.5
141
2.5
142
0.0
143
0.03937007874
144
1.0
145
0.0
146
1.0
147
0.625
148
0.0
 69
0
 70
0
 71
0
 72
0
 73
0
 74
0
 75
0
 76
0
 77
1
 78
8
 79
3
170
0
171
3
172
1
173
0
174
0
175
0
176
0
177
0
178
0
179
2
271
2
272
2
273
2
274
3
275
0
276
0
277
2
278
44
279
0
280
0
281
0
282
0
283
0
284
8
285
0
286
0
288
0
289
3
290
0
371
-2
372
-2
  0
ENDTAB
  0
TABLE
  2
BLOCK_RECORD
  5
9
330
0
100
AcDbSymbolTable
 70
2
  0
BLOCK_RECORD
  5
17
330
9
100
AcDbSymbolTableRecord
100
AcDbBlockTableRecord
  2
*Model_Space
340
1A
 70
0
280
1
281
0
  0
BLOCK_RECORD
  5
1B
330
9
100
AcDbSymbolTableRecord
100
AcDbBlockTableRecord
  2
*Paper_Space
340
1E
 70
0
280
1
281
0
  0
ENDTAB
  0
ENDSEC
  0
SECTION
  2
BLOCKS
  0
BLOCK
  5
18
330
17
100
AcDbEntity
  8
0
100
AcDbBlockBegin
  2
*Model_Space
 70
0
 10
0.0
 20
0.0
 30
0.0
  3
*Model_Space
  1

  0
ENDBLK
  5
19
330
17
100
AcDbEntity
  8
0
100
AcDbBlockEnd
  0
BLOCK
  5
1C
330
1B
100
AcDbEntity
  8
0
100
AcDbBlockBegin
  2
*Paper_Space
 70
0
 10
0.0
 20
0.0
 30
0.0
  3
*Paper_Space
  1

  0
ENDBLK
  5
1D
330
1B
100
AcDbEntity
  8
0
100
AcDbBlockEnd
  0
ENDSEC
  0
SECTION
  2
ENTITIES
  0
LWPOLYLINE
  5
2F
330
17
100
AcDbEntity
  8
PLYWOOD_BOUNDARY
 62
7
100
AcDbPolyline
 90
5
 70
0
 10
0.0
 20
0.0
 10
96.0
 20
0.0
 10
96.0
 20
48.0
 10
0.0
 20
48.0
 10
0.0
 20
0.0
  0
LWPOLYLINE
  5
30
330
17
100
AcDbEntity
  8
SHELF_R
 62
3
100
AcDbPolyline
 90
110
 70
1
 10
0.75
 20
24.330889306152784
 10
29.75
 20
24.330889306152784
 10
29.75
 20
20.914341323489396
 10
29.75
 20
20.914341323489396
 10
29.736349980869825
 20
20.628485080320218
 10
29.69552413882747
 20
20.345230132609515
 10
29.62789398955619
 20
20.06715410399397
 10
29.53407496827687
 20
19.796787489880387
 10
29.414920829279666
 20
19.536590629905305
 10
29.271515876749085
 20
19.288931318812928
 10
29.10516509758206
 20
19.056063259492703
 10
28.91738228599056
 20
18.84010555425428
 10
28.70987626795494
 20
18.64302342096957
 10
28.48453535088575
 20
18.466610309564913
 10
28.243410140002187
 20
18.312471581604
 10
27.98869487779847
 20
18.182009901477073
 10
27.72270747640916
 20
18.076412472137093
 10
27.447868424579145
 20
17.99664023153781
 10
27.16667876118523
 20
17.943419108086033
 10
26.88169731575044
 20
17.91723341468395
 10
26.595517423062724
 20
17.918321441475456
 10
26.310743323795325
 20
17.94667328740286
 10
26.029966465883426
 20
18.002030950306676
 10
26.029966465883376
 20
18.002030950306477
 10
25.571094761222824
 20
18.117578899731114
 10
25.11222305656227
 20
18.23620159687175
 10
24.653351351901716
 20
18.356189163278373
 10
24.194479647241163
 20
18.475812046689867
 10
23.73560794258061
 20
18.593345951542176
 10
23.27673623792006
 20
18.70709669370453
 10
22.817864533259506
 20
18.81542462117625
 10
22.35899282859895
 20
18.9167682487342
 10
21.900121123938398
 20
19.00966676585071
 10
21.441249419277845
 20
19.09278109344322
 10
20.982377714617293
 20
19.164913185934864
 10
20.52350600995674
 20
19.22502330039717
 10
20.064634305296185
 20
19.272244983850868
 10
19.605762600635632
 20
19.305897562690888
 10
19.14689089597508
 20
19.32549595420764
 10
18.688019191314527
 20
19.3307576587774
 10
18.22914748665397
 20
19.321606831933053
 10
17.77027578199342
 20
19.298175377618776
 10
17.311404077332867
 20
19.260801046869943
 10
16.852532372672314
 20
19.210022569324934
 10
16.393660668011762
 20
19.14657188774484
 10
15.934788963351208
 20
19.071363607476627
 10
15.475917258690655
 20
18.9854818129391
 10
15.017045554030101
 20
18.89016444116507
 10
14.558173849369549
 20
18.786785437645875
 10
14.099302144708995
 20
18.676834951691575
 10
13.64043044004844
 20
18.56189785677938
 10
13.181558735387888
 20
18.44363090550749
 10
12.722687030727336
 20
18.323738848452308
 10
12.263815326066783
 20
18.203949861162215
 10
11.804943621406231
 20
18.08599063349382
 10
11.346071916745679
 20
17.97156148036342
 10
10.887200212085126
 20
17.8623118326785
 10
10.42832850742457
 20
17.759816461732754
 10
9.969456802764018
 20
17.665552779777244
 10
9.510585098103466
 20
17.58087954396612
 10
9.05171339344291
 20
17.50701727064822
 10
8.592841688782357
 20
17.445030642320773
 10
8.133969984121805
 20
17.395813160838912
 10
7.675098279461253
 20
17.360074268096838
 10
7.2162265748007
 20
17.338329119827762
 10
6.757354870140144
 20
17.330891159928314
 10
6.298483165479592
 20
17.33786760234358
 10
5.8396114608190395
 20
17.35915788563949
 10
5.380739756158487
 20
17.394455122538318
 10
4.921868051497935
 20
17.44325052352363
 10
4.462996346837379
 20
17.5048407307506
 10
4.004124642176826
 20
17.578337956547927
 10
3.545252937516274
 20
17.66268278036995
 10
3.5452529375071613
 20
17.662682780323166
 10
3.3067988542641125
 20
17.715200951483837
 10
3.0711929939637663
 20
17.779297649600636
 10
2.8389972154019105
 20
17.854820020692927
 10
2.610765245214914
 20
17.941587963516923
 10
2.3870413573854634
 20
18.03939455906047
 10
2.1683590752904607
 20
18.148006563991174
 10
1.9552398993863136
 20
18.267164966881097
 10
1.7481920635657673
 20
18.39658560588188
 10
1.547709323152045
 20
18.53595984637687
 10
1.3542697774206118
 20
18.68495531699446
 10
1.1683347294565678
 20
18.84321670222775
 10
0.9903475860665694
 20
19.01036658976946
 10
0.8207328003687309
 20
19.18600637054257
 10
0.6598948595821739
 20
19.369717189279214
 10
0.5082173204300275
 20
19.561060943381847
 10
0.36606189445626214
 20
19.75958132768423
 10
0.23376758543756893
 20
19.9648049226206
 10
0.1116498809473967
 20
20.176242323208584
 10
0.0
 20
20.393389306152784
 10
0.0
 20
21.018389306152784
 10
0.0
 20
21.018389306152784
 10
0.08397335707748255
 20
21.023105148732867
 10
0.16689070046723486
 20
21.037193372016418
 10
0.2477092964663754
 20
21.060476808421498
 10
0.32541280433816766
 20
21.09266265522598
 10
0.3990240573865016
 20
21.133346156731562
 10
0.4676173513940505
 20
21.182015694301754
 10
0.5303300858899114
 20
21.23805922026287
 10
0.5863736118510232
 20
21.300771954758744
 10
0.6350431494212145
 20
21.369365248766286
 10
0.6757266509268156
 20
21.442976501814627
 10
0.7079124977312752
 20
21.5206800096864
 10
0.7311959341363661
 20
21.60149860568555
 10
0.7452841574199311
 20
21.684415949075316
 10
0.75
 20
21.768389306152784
 10
0.75
 20
24.330889306152784
  0
LWPOLYLINE
  5
31
330
17
100
AcDbEntity
  8
BRACKET_OUTLINE
 62
6
100
AcDbPolyline
 90
87
 70
1
 10
7.925000000000001
 20
24.330889306152784
 10
7.88762013756228
 20
24.286641378295087
 10
7.845373719622884
 20
24.247013441093515
 10
7.798827715625457
 20
24.212537322584723
 10
7.748606797749979
 20
24.183675710652835
 10
7.695384957479185
 20
24.16081594351158
 10
7.63987646027368
 20
24.144264811418935
 10
7.582826259748785
 20
24.13424443938834
 10
7.524999999999999
 20
24.130889306152795
 10
6.725000000000001
 20
24.130889306152795
 10
6.725000000000001
 20
20.484442696746072
 10
6.741475918044046
 20
20.466264322490332
 10
6.7560907077789984
 20
20.44655855970433
 10
6.768703620790454
 20
20.42551518565591
 10
6.779193187831183
 20
20.4033368595407
 10
6.787458388636416
 20
20.380237170763024
 10
6.793419624804173
 20
20.356438581953455
 10
6.797019486371411
 20
20.332170286531806
 10
6.798223304703363
 20
20.307666001449405
 10
6.797019486371411
 20
20.283161716367033
 10
6.793419624804173
 20
20.258893420945384
 10
6.787458388636416
 20
20.235094832135815
 10
6.779193187831183
 20
20.211995143358138
 10
6.768703620790454
 20
20.189816817242928
 10
6.7560907077789984
 20
20.16877344319451
 10
6.741475918044046
 20
20.149067680408507
 10
6.725000000000001
 20
20.130889306152795
 10
6.706821625744276
 20
20.114413388108744
 10
6.687115862958265
 20
20.09979859837378
 10
6.666072488909862
 20
20.08718568536233
 10
6.643894162794638
 20
20.076696118321593
 10
6.620794474016979
 20
20.068430917516366
 10
6.596995885207395
 20
20.06246968134863
 10
6.572727589785753
 20
20.058869819781364
 10
6.548223304703363
 20
20.057666001449405
 10
6.523719019620973
 20
20.058869819781364
 10
6.499450724199331
 20
20.06246968134863
 10
6.475652135389748
 20
20.068430917516366
 10
6.452552446612092
 20
20.076696118321593
 10
6.4303741204968645
 20
20.08718568536233
 10
6.409330746448461
 20
20.09979859837378
 10
6.389624983662451
 20
20.114413388108744
 10
6.371446609406725
 20
20.130889306152795
 10
5.478553390593273
 20
20.130889306152795
 10
5.460375016337547
 20
20.114413388108744
 10
5.440669253551537
 20
20.09979859837378
 10
5.419625879503137
 20
20.08718568536233
 10
5.397447553387909
 20
20.076696118321593
 10
5.37434786461025
 20
20.068430917516366
 10
5.350549275800667
 20
20.06246968134863
 10
5.326280980379025
 20
20.058869819781364
 10
5.301776695296638
 20
20.057666001449405
 10
5.277272410214245
 20
20.058869819781364
 10
5.253004114792603
 20
20.06246968134863
 10
5.229205525983019
 20
20.068430917516366
 10
5.206105837205364
 20
20.076696118321593
 10
5.18392751109014
 20
20.08718568536233
 10
5.162884137041736
 20
20.09979859837378
 10
5.143178374255726
 20
20.114413388108744
 10
5.125
 20
20.130889306152795
 10
5.108524081955952
 20
20.149067680408507
 10
5.093909292220999
 20
20.16877344319451
 10
5.081296379209547
 20
20.189816817242928
 10
5.070806812168815
 20
20.211995143358138
 10
5.062541611363585
 20
20.235094832135815
 10
5.0565803751958285
 20
20.258893420945384
 10
5.052980513628587
 20
20.283161716367033
 10
5.051776695296638
 20
20.307666001449405
 10
5.052980513628587
 20
20.332170286531806
 10
5.0565803751958285
 20
20.356438581953455
 10
5.062541611363585
 20
20.380237170763024
 10
5.070806812168815
 20
20.4033368595407
 10
5.081296379209547
 20
20.42551518565591
 10
5.093909292220999
 20
20.44655855970433
 10
5.108524081955952
 20
20.466264322490332
 10
5.125
 20
20.484442696746072
 10
5.125
 20
24.130889306152795
 10
4.324999999999999
 20
24.130889306152795
 10
4.267173740251216
 20
24.13424443938834
 10
4.210123539726318
 20
24.144264811418935
 10
4.154615042520813
 20
24.16081594351158
 10
4.101393202250023
 20
24.183675710652835
 10
4.051172284374545
 20
24.212537322584723
 10
4.004626280377117
 20
24.247013441093515
 10
3.962379862437718
 20
24.286641378295087
 10
3.9250000000000007
 20
24.330889306152784
 10
7.925000000000001
 20
24.330889306152784
  0
LWPOLYLINE
  5
32
330
17
100
AcDbEntity
  8
BRACKET_OUTLINE
 62
6
100
AcDbPolyline
 90
87
 70
1
 10
19.425
 20
24.330889306152784
 10
19.38762013756228
 20
24.286641378295087
 10
19.345373719622884
 20
24.247013441093515
 10
19.298827715625457
 20
24.212537322584723
 10
19.24860679774998
 20
24.183675710652835
 10
19.195384957479188
 20
24.16081594351158
 10
19.139876460273683
 20
24.144264811418935
 10
19.082826259748785
 20
24.13424443938834
 10
19.025000000000002
 20
24.130889306152795
 10
18.225
 20
24.130889306152795
 10
18.225
 20
20.484442696746072
 10
18.24147591804405
 20
20.466264322490332
 10
18.256090707779002
 20
20.44655855970433
 10
18.268703620790454
 20
20.42551518565591
 10
18.279193187831186
 20
20.4033368595407
 10
18.287458388636416
 20
20.380237170763024
 10
18.293419624804173
 20
20.356438581953455
 10
18.297019486371415
 20
20.332170286531806
 10
18.298223304703363
 20
20.307666001449405
 10
18.297019486371415
 20
20.283161716367033
 10
18.293419624804173
 20
20.258893420945384
 10
18.287458388636416
 20
20.235094832135815
 10
18.279193187831186
 20
20.211995143358138
 10
18.268703620790454
 20
20.189816817242928
 10
18.256090707779002
 20
20.16877344319451
 10
18.24147591804405
 20
20.149067680408507
 10
18.225
 20
20.130889306152795
 10
18.206821625744276
 20
20.114413388108744
 10
18.187115862958265
 20
20.09979859837378
 10
18.166072488909865
 20
20.08718568536233
 10
18.143894162794638
 20
20.076696118321593
 10
18.12079447401698
 20
20.068430917516366
 10
18.096995885207395
 20
20.06246968134863
 10
18.072727589785753
 20
20.058869819781364
 10
18.048223304703363
 20
20.057666001449405
 10
18.023719019620973
 20
20.058869819781364
 10
17.99945072419933
 20
20.06246968134863
 10
17.975652135389748
 20
20.068430917516366
 10
17.952552446612092
 20
20.076696118321593
 10
17.930374120496865
 20
20.08718568536233
 10
17.909330746448465
 20
20.09979859837378
 10
17.889624983662454
 20
20.114413388108744
 10
17.87144660940673
 20
20.130889306152795
 10
16.978553390593273
 20
20.130889306152795
 10
16.96037501633755
 20
20.114413388108744
 10
16.940669253551537
 20
20.09979859837378
 10
16.919625879503137
 20
20.08718568536233
 10
16.89744755338791
 20
20.076696118321593
 10
16.874347864610254
 20
20.068430917516366
 10
16.85054927580067
 20
20.06246968134863
 10
16.82628098037903
 20
20.058869819781364
 10
16.80177669529664
 20
20.057666001449405
 10
16.77727241021425
 20
20.058869819781364
 10
16.753004114792606
 20
20.06246968134863
 10
16.729205525983023
 20
20.068430917516366
 10
16.706105837205364
 20
20.076696118321593
 10
16.68392751109014
 20
20.08718568536233
 10
16.662884137041736
 20
20.09979859837378
 10
16.643178374255726
 20
20.114413388108744
 10
16.625
 20
20.130889306152795
 10
16.608524081955956
 20
20.149067680408507
 10
16.593909292221
 20
20.16877344319451
 10
16.581296379209547
 20
20.189816817242928
 10
16.57080681216882
 20
20.211995143358138
 10
16.562541611363585
 20
20.235094832135815
 10
16.55658037519583
 20
20.258893420945384
 10
16.55298051362859
 20
20.283161716367033
 10
16.55177669529664
 20
20.307666001449405
 10
16.55298051362859
 20
20.332170286531806
 10
16.55658037519583
 20
20.356438581953455
 10
16.562541611363585
 20
20.380237170763024
 10
16.57080681216882
 20
20.4033368595407
 10
16.581296379209547
 20
20.42551518565591
 10
16.593909292221
 20
20.44655855970433
 10
16.608524081955956
 20
20.466264322490332
 10
16.625
 20
20.484442696746072
 10
16.625
 20
24.130889306152795
 10
15.825000000000001
 20
24.130889306152795
 10
15.767173740251218
 20
24.13424443938834
 10
15.71012353972632
 20
24.144264811418935
 10
15.654615042520815
 20
24.16081594351158
 10
15.601393202250021
 20
24.183675710652835
 10
15.551172284374543
 20
24.212537322584723
 10
15.504626280377117
 20
24.247013441093515
 10
15.46237986243772
 20
24.286641378295087
 10
15.425
 20
24.330889306152784
 10
19.425
 20
24.330889306152784
  0
LWPOLYLINE
  5
33
330
17
100
AcDbEntity
  8
BRACKET_OUTLINE
 62
6
100
AcDbPolyline
 90
87
 70
1
 10
28.575
 20
24.330889306152784
 10
28.53762013756228
 20
24.286641378295087
 10
28.495373719622883
 20
24.247013441093515
 10
28.448827715625455
 20
24.212537322584723
 10
28.398606797749977
 20
24.183675710652835
 10
28.345384957479187
 20
24.16081594351158
 10
28.289876460273682
 20
24.144264811418935
 10
28.232826259748784
 20
24.13424443938834
 10
28.175
 20
24.130889306152795
 10
27.375
 20
24.130889306152795
 10
27.375
 20
20.484442696746072
 10
27.391475918044048
 20
20.466264322490332
 10
27.406090707779
 20
20.44655855970433
 10
27.418703620790453
 20
20.42551518565591
 10
27.429193187831185
 20
20.4033368595407
 10
27.437458388636415
 20
20.380237170763024
 10
27.44341962480417
 20
20.356438581953455
 10
27.447019486371413
 20
20.332170286531806
 10
27.44822330470336
 20
20.307666001449405
 10
27.447019486371413
 20
20.283161716367033
 10
27.44341962480417
 20
20.258893420945384
 10
27.437458388636415
 20
20.235094832135815
 10
27.429193187831185
 20
20.211995143358138
 10
27.418703620790453
 20
20.189816817242928
 10
27.406090707779
 20
20.16877344319451
 10
27.391475918044048
 20
20.149067680408507
 10
27.375
 20
20.130889306152795
 10
27.356821625744274
 20
20.114413388108744
 10
27.337115862958264
 20
20.09979859837378
 10
27.316072488909864
 20
20.08718568536233
 10
27.293894162794636
 20
20.076696118321593
 10
27.270794474016977
 20
20.068430917516366
 10
27.246995885207394
 20
20.06246968134863
 10
27.22272758978575
 20
20.058869819781364
 10
27.19822330470336
 20
20.057666001449405
 10
27.17371901962097
 20
20.058869819781364
 10
27.14945072419933
 20
20.06246968134863
 10
27.125652135389746
 20
20.068430917516366
 10
27.10255244661209
 20
20.076696118321593
 10
27.080374120496863
 20
20.08718568536233
 10
27.059330746448463
 20
20.09979859837378
 10
27.039624983662453
 20
20.114413388108744
 10
27.021446609406727
 20
20.130889306152795
 10
26.12855339059327
 20
20.130889306152795
 10
26.11037501633755
 20
20.114413388108744
 10
26.090669253551535
 20
20.09979859837378
 10
26.069625879503135
 20
20.08718568536233
 10
26.047447553387908
 20
20.076696118321593
 10
26.024347864610252
 20
20.068430917516366
 10
26.00054927580067
 20
20.06246968134863
 10
25.976280980379027
 20
20.058869819781364
 10
25.951776695296637
 20
20.057666001449405
 10
25.927272410214247
 20
20.058869819781364
 10
25.903004114792605
 20
20.06246968134863
 10
25.87920552598302
 20
20.068430917516366
 10
25.856105837205362
 20
20.076696118321593
 10
25.83392751109014
 20
20.08718568536233
 10
25.812884137041735
 20
20.09979859837378
 10
25.793178374255724
 20
20.114413388108744
 10
25.775
 20
20.130889306152795
 10
25.75852408195595
 20
20.149067680408507
 10
25.743909292221
 20
20.16877344319451
 10
25.731296379209546
 20
20.189816817242928
 10
25.720806812168814
 20
20.211995143358138
 10
25.712541611363584
 20
20.235094832135815
 10
25.706580375195827
 20
20.258893420945384
 10
25.70298051362859
 20
20.283161716367033
 10
25.701776695296637
 20
20.307666001449405
 10
25.70298051362859
 20
20.332170286531806
 10
25.706580375195827
 20
20.356438581953455
 10
25.712541611363584
 20
20.380237170763024
 10
25.720806812168814
 20
20.4033368595407
 10
25.731296379209546
 20
20.42551518565591
 10
25.743909292221
 20
20.44655855970433
 10
25.75852408195595
 20
20.466264322490332
 10
25.775
 20
20.484442696746072
 10
25.775
 20
24.130889306152795
 10
24.974999999999998
 20
24.130889306152795
 10
24.917173740251215
 20
24.13424443938834
 10
24.86012353972632
 20
24.144264811418935
 10
24.804615042520812
 20
24.16081594351158
 10
24.75139320225002
 20
24.183675710652835
 10
24.701172284374543
 20
24.212537322584723
 10
24.654626280377116
 20
24.247013441093515
 10
24.61237986243772
 20
24.286641378295087
 10
24.575
 20
24.330889306152784
 10
28.575
 20
24.330889306152784
  0
LINE
  5
34
330
17
100
AcDbEntity
  8
BRACKET_CUT_LINE
 62
4
100
AcDbLine
 10
5.125
 20
24.130889306152795
 30
0.0
 11
6.725000000000001
 21
24.130889306152795
 31
0.0
  0
LINE
  5
35
330
17
100
AcDbEntity
  8
BRACKET_CUT_LINE
 62
4
100
AcDbLine
 10
16.625
 20
24.130889306152795
 30
0.0
 11
18.225
 21
24.130889306152795
 31
0.0
  0
LINE
  5
36
330
17
100
AcDbEntity
  8
BRACKET_CUT_LINE
 62
4
100
AcDbLine
 10
25.775
 20
24.130889306152795
 30
0.0
 11
27.375
 21
24.130889306152795
 31
0.0
  0
LWPOLYLINE
  5
37
330
17
100
AcDbEntity
  8
SHELF_R
 62
3
100
AcDbPolyline
 90
110
 70
1
 10
29.457671245399354
 20
24.780889306152773
 10
29.457671245399354
 20
27.343389306152773
 10
29.457671245399354
 20
27.343389306152773
 10
29.462387087979423
 20
27.42736266323027
 10
29.476475311262988
 20
27.510280006620036
 10
29.49975874766808
 20
27.591098602619155
 10
29.531944594472538
 20
27.668802110490958
 10
29.57262809597814
 20
27.7424133635393
 10
29.62129763354833
 20
27.81100665754684
 10
29.677341159509442
 20
27.873719392042688
 10
29.740053894005303
 20
27.929762918003803
 10
29.808647188012852
 20
27.978432455573994
 10
29.882258441061186
 20
28.019115957079606
 10
29.95996194893298
 20
28.05130180388406
 10
30.04078054493212
 20
28.074585240289167
 10
30.12369788832187
 20
28.088673463572718
 10
30.207671245399354
 20
28.093389306152773
 10
30.207671245399354
 20
28.718389306152773
 10
30.207671245399354
 20
28.718389306152773
 10
30.0164404266255
 20
28.91700587763225
 10
29.81455226818127
 20
29.104779517941978
 10
29.602620653558446
 20
29.28113926175712
 10
29.38129000549389
 20
29.445548850110384
 10
29.151233326466393
 20
29.597508361000678
 10
28.913150152290818
 20
29.736555729511053
 10
28.667764425032047
 20
29.862268152814636
 10
28.415822291706547
 20
29.97426337579566
 10
28.158089835465127
 20
30.0722008533767
 10
27.89535074615568
 20
30.155782786017795
 10
27.62840393734906
 20
30.224755025238608
 10
27.358061117073966
 20
30.27890784641056
 10
27.085144319647657
 20
30.318076586468663
 10
26.810483406107355
 20
30.342142144604367
 10
26.534913540842894
 20
30.351031344416526
 10
26.259272652103366
 20
30.34471715641982
 10
25.984398884099715
 20
30.323218780233475
 10
25.711128048450618
 20
30.286601586200902
 10
25.44029108272113
 20
30.234976916617285
 10
25.44029108240546
 20
30.234976918056446
 10
24.977883545905136
 20
30.137792258059108
 10
24.515476009404818
 20
30.050020707947084
 10
24.053068472904496
 20
29.97294699332815
 10
23.590660936404177
 20
29.907699253955315
 10
23.128253399903855
 20
29.85523253097253
 10
22.665845863403536
 20
29.816314787831374
 10
22.203438326903218
 20
29.791515669492554
 10
21.741030790402895
 20
29.781198164445357
 10
21.278623253902577
 20
29.78551329158975
 10
20.816215717402258
 20
29.80439788974951
 10
20.353808180901936
 20
29.837575542172033
 10
19.891400644401617
 20
29.88456062248278
 10
19.4289931079013
 20
29.944665402872573
 10
18.966585571400977
 20
30.017010120474964
 10
18.504178034900658
 20
30.10053585458985
 10
18.041770498400336
 20
30.194020026267765
 10
17.579362961900017
 20
30.296094293384982
 10
17.116955425399695
 20
30.405264579276576
 10
16.654547888899376
 20
30.519932941765177
 10
16.192140352399058
 20
30.638420962485014
 10
15.729732815898737
 20
30.758994314148424
 10
15.267325279398417
 20
30.879888146159715
 10
14.804917742898096
 20
30.999332917003215
 10
14.342510206397776
 20
31.11558029529334
 10
13.880102669897454
 20
31.2269287503685
 10
13.417695133397139
 20
31.33174845785564
 10
12.955287596896817
 20
31.428505155659195
 10
12.492880060396494
 20
31.515782601189784
 10
12.030472523896176
 20
31.592303301123962
 10
11.568064987395857
 20
31.656947210269323
 10
11.105657450895535
 20
31.70876812583731
 10
10.643249914395216
 20
31.747007537158282
 10
10.180842377894898
 20
31.771105728118215
 10
9.718434841394576
 20
31.78070996980904
 10
9.256027304894253
 20
31.775679683475715
 10
8.793619768393938
 20
31.756088498188888
 10
8.331212231893616
 20
31.72222317312506
 10
7.868804695393294
 20
31.67457940022848
 10
7.406397158892979
 20
31.613854548692416
 10
6.943989622392657
 20
31.540937457459563
 10
6.4815820858923345
 20
31.456895425150464
 10
6.0191745493920195
 20
31.362958587850216
 10
5.556767012891697
 20
31.26050191341855
 10
5.094359476391375
 20
31.151025075874713
 10
4.631951939891053
 20
31.03613050443957
 10
4.169544403390738
 20
30.917499928533772
 10
3.7071368668904157
 20
30.796869762047095
 10
3.2447293303900935
 20
30.67600568718251
 10
2.782321793889775
 20
30.556676809895748
 10
2.7823217938897713
 20
30.556676809895777
 10
2.6609845701074732
 20
30.528389576699283
 10
2.5385774615875576
 20
30.505164822214
 10
2.415311591886905
 20
30.487042603695016
 10
2.291399565724042
 20
30.474054177719466
 10
2.167055102285861
 20
30.466221946276335
 10
2.0424926666121443
 20
30.463559418128142
 10
1.9179270996936744
 20
30.46607118551151
 10
1.7935732479218878
 20
30.473752916216768
 10
1.669645592529239
 20
30.48659136105985
 10
1.5463578796593822
 20
30.50456437673415
 10
1.4239227517051916
 20
30.527640964002387
 10
1.3025513805504865
 20
30.555781321163153
 10
1.182453103348081
 20
30.588936912699467
 10
1.0638350614622638
 20
30.627050552991136
 10
0.9469018431985248
 20
30.670056504946558
 10
0.831855130936713
 20
30.717880593383825
 10
0.7188933532762221
 20
30.770440332965478
 10
0.6082113427931937
 20
30.827645070466332
 10
0.5
 20
30.88939614112914
 10
0.5
 20
24.780889306152773
 10
29.457671245399354
 20
24.780889306152773
  0
LWPOLYLINE
  5
38
330
17
100
AcDbEntity
  8
BRACKET_OUTLINE
 62
6
100
AcDbPolyline
 90
87
 70
1
 10
22.282671245399353
 20
24.780889306152773
 10
22.320051107837074
 20
24.82513723401047
 10
22.36229752577647
 20
24.864765171212042
 10
22.408843529773897
 20
24.899241289720862
 10
22.459064447649375
 20
24.92810290165275
 10
22.51228628792017
 20
24.950962668794006
 10
22.567794785125674
 20
24.96751380088665
 10
22.62484498565057
 20
24.977534172917217
 10
22.682671245399355
 20
24.98088930615279
 10
23.482671245399352
 20
24.98088930615279
 10
23.482671245399352
 20
28.627335915559513
 10
23.466195327355308
 20
28.645514289815225
 10
23.451580537620355
 20
28.665220052601256
 10
23.4389676246089
 20
28.686263426649646
 10
23.42847805756817
 20
28.708441752764884
 10
23.420212856762937
 20
28.731541441542532
 10
23.41425162059518
 20
28.75534003035213
 10
23.410651759027942
 20
28.77960832577375
 10
23.40944794069599
 20
28.80411261085615
 10
23.410651759027942
 20
28.828616895938552
 10
23.41425162059518
 20
28.852885191360173
 10
23.420212856762937
 20
28.87668378016977
 10
23.42847805756817
 20
28.89978346894742
 10
23.4389676246089
 20
28.921961795062657
 10
23.451580537620355
 20
28.943005169111046
 10
23.466195327355308
 20
28.962710931897078
 10
23.482671245399352
 20
28.98088930615279
 10
23.500849619655078
 20
28.99736522419684
 10
23.52055538244109
 20
29.011980013931776
 10
23.541598756489492
 20
29.024592926943257
 10
23.563777082604716
 20
29.035082493983964
 10
23.586876771382375
 20
29.04334769478922
 10
23.61067536019196
 20
29.049308930956954
 10
23.6349436556136
 20
29.052908792524192
 10
23.65944794069599
 20
29.05411261085615
 10
23.68395222577838
 20
29.052908792524192
 10
23.708220521200023
 20
29.049308930956954
 10
23.732019110009606
 20
29.04334769478922
 10
23.75511879878726
 20
29.035082493983964
 10
23.77729712490249
 20
29.024592926943257
 10
23.798340498950893
 20
29.011980013931776
 10
23.818046261736903
 20
28.99736522419684
 10
23.83622463599263
 20
28.98088930615279
 10
24.72911785480608
 20
28.98088930615279
 10
24.747296229061806
 20
28.99736522419684
 10
24.767001991847817
 20
29.011980013931776
 10
24.788045365896217
 20
29.024592926943257
 10
24.810223692011444
 20
29.035082493983964
 10
24.833323380789103
 20
29.04334769478922
 10
24.857121969598687
 20
29.049308930956954
 10
24.88139026502033
 20
29.052908792524192
 10
24.905894550102715
 20
29.05411261085615
 10
24.93039883518511
 20
29.052908792524192
 10
24.95466713060675
 20
29.049308930956954
 10
24.978465719416334
 20
29.04334769478922
 10
25.00156540819399
 20
29.035082493983964
 10
25.023743734309214
 20
29.024592926943257
 10
25.044787108357617
 20
29.011980013931776
 10
25.064492871143628
 20
28.99736522419684
 10
25.082671245399354
 20
28.98088930615279
 10
25.0991471634434
 20
28.962710931897078
 10
25.113761953178354
 20
28.943005169111046
 10
25.126374866189806
 20
28.921961795062657
 10
25.13686443323054
 20
28.89978346894742
 10
25.14512963403577
 20
28.87668378016977
 10
25.151090870203525
 20
28.852885191360173
 10
25.154690731770767
 20
28.828616895938552
 10
25.155894550102715
 20
28.80411261085615
 10
25.154690731770767
 20
28.77960832577375
 10
25.151090870203525
 20
28.75534003035213
 10
25.14512963403577
 20
28.731541441542532
 10
25.13686443323054
 20
28.708441752764884
 10
25.126374866189806
 20
28.686263426649646
 10
25.113761953178354
 20
28.665220052601256
 10
25.0991471634434
 20
28.645514289815225
 10
25.082671245399354
 20
28.627335915559513
 10
25.082671245399354
 20
24.98088930615279
 10
25.882671245399354
 20
24.98088930615279
 10
25.940497505148137
 20
24.977534172917217
 10
25.997547705673036
 20
24.96751380088665
 10
26.05305620287854
 20
24.950962668794006
 10
26.10627804314933
 20
24.92810290165275
 10
26.15649896102481
 20
24.899241289720862
 10
26.203044965022237
 20
24.864765171212042
 10
26.245291382961636
 20
24.82513723401047
 10
26.282671245399353
 20
24.780889306152773
 10
22.282671245399353
 20
24.780889306152773
  0
LWPOLYLINE
  5
39
330
17
100
AcDbEntity
  8
BRACKET_OUTLINE
 62
6
100
AcDbPolyline
 90
87
 70
1
 10
10.782671245399353
 20
24.780889306152773
 10
10.820051107837074
 20
24.82513723401047
 10
10.86229752577647
 20
24.864765171212042
 10
10.908843529773897
 20
24.899241289720862
 10
10.959064447649375
 20
24.92810290165275
 10
11.012286287920166
 20
24.950962668794006
 10
11.06779478512567
 20
24.96751380088665
 10
11.124844985650569
 20
24.977534172917217
 10
11.182671245399352
 20
24.98088930615279
 10
11.982671245399352
 20
24.98088930615279
 10
11.982671245399352
 20
28.627335915559513
 10
11.966195327355305
 20
28.645514289815225
 10
11.951580537620352
 20
28.665220052601256
 10
11.9389676246089
 20
28.686263426649646
 10
11.928478057568167
 20
28.708441752764884
 10
11.920212856762937
 20
28.731541441542532
 10
11.91425162059518
 20
28.75534003035213
 10
11.910651759027939
 20
28.77960832577375
 10
11.90944794069599
 20
28.80411261085615
 10
11.910651759027939
 20
28.828616895938552
 10
11.91425162059518
 20
28.852885191360173
 10
11.920212856762937
 20
28.87668378016977
 10
11.928478057568167
 20
28.89978346894742
 10
11.9389676246089
 20
28.921961795062657
 10
11.951580537620352
 20
28.943005169111046
 10
11.966195327355305
 20
28.962710931897078
 10
11.982671245399352
 20
28.98088930615279
 10
12.000849619655078
 20
28.99736522419684
 10
12.020555382441088
 20
29.011980013931776
 10
12.041598756489488
 20
29.024592926943257
 10
12.063777082604716
 20
29.035082493983964
 10
12.086876771382375
 20
29.04334769478922
 10
12.110675360191959
 20
29.049308930956954
 10
12.1349436556136
 20
29.052908792524192
 10
12.15944794069599
 20
29.05411261085615
 10
12.18395222577838
 20
29.052908792524192
 10
12.208220521200023
 20
29.049308930956954
 10
12.232019110009606
 20
29.04334769478922
 10
12.255118798787262
 20
29.035082493983964
 10
12.27729712490249
 20
29.024592926943257
 10
12.298340498950889
 20
29.011980013931776
 10
12.3180462617369
 20
28.99736522419684
 10
12.336224635992625
 20
28.98088930615279
 10
13.22911785480608
 20
28.98088930615279
 10
13.247296229061803
 20
28.99736522419684
 10
13.267001991847817
 20
29.011980013931776
 10
13.288045365896217
 20
29.024592926943257
 10
13.310223692011444
 20
29.035082493983964
 10
13.3333233807891
 20
29.04334769478922
 10
13.357121969598683
 20
29.049308930956954
 10
13.381390265020325
 20
29.052908792524192
 10
13.405894550102715
 20
29.05411261085615
 10
13.430398835185105
 20
29.052908792524192
 10
13.454667130606747
 20
29.049308930956954
 10
13.47846571941633
 20
29.04334769478922
 10
13.50156540819399
 20
29.035082493983964
 10
13.523743734309214
 20
29.024592926943257
 10
13.544787108357617
 20
29.011980013931776
 10
13.564492871143628
 20
28.99736522419684
 10
13.582671245399354
 20
28.98088930615279
 10
13.599147163443398
 20
28.962710931897078
 10
13.613761953178354
 20
28.943005169111046
 10
13.626374866189806
 20
28.921961795062657
 10
13.636864433230535
 20
28.89978346894742
 10
13.645129634035769
 20
28.87668378016977
 10
13.651090870203525
 20
28.852885191360173
 10
13.654690731770764
 20
28.828616895938552
 10
13.655894550102715
 20
28.80411261085615
 10
13.654690731770764
 20
28.77960832577375
 10
13.651090870203525
 20
28.75534003035213
 10
13.645129634035769
 20
28.731541441542532
 10
13.636864433230535
 20
28.708441752764884
 10
13.626374866189806
 20
28.686263426649646
 10
13.613761953178354
 20
28.665220052601256
 10
13.599147163443398
 20
28.645514289815225
 10
13.582671245399354
 20
28.627335915559513
 10
13.582671245399354
 20
24.98088930615279
 10
14.382671245399353
 20
24.98088930615279
 10
14.440497505148135
 20
24.977534172917217
 10
14.497547705673034
 20
24.96751380088665
 10
14.553056202878539
 20
24.950962668794006
 10
14.606278043149333
 20
24.92810290165275
 10
14.65649896102481
 20
24.899241289720862
 10
14.703044965022237
 20
24.864765171212042
 10
14.745291382961634
 20
24.82513723401047
 10
14.782671245399353
 20
24.780889306152773
 10
10.782671245399353
 20
24.780889306152773
  0
LWPOLYLINE
  5
3A
330
17
100
AcDbEntity
  8
BRACKET_OUTLINE
 62
6
100
AcDbPolyline
 90
87
 70
1
 10
1.6326712453993544
 20
24.780889306152773
 10
1.6700511078370752
 20
24.82513723401047
 10
1.7122975257764708
 20
24.864765171212042
 10
1.7588435297738982
 20
24.899241289720862
 10
1.8090644476493765
 20
24.92810290165275
 10
1.862286287920167
 20
24.950962668794006
 10
1.9177947851256718
 20
24.96751380088665
 10
1.97484498565057
 20
24.977534172917217
 10
2.032671245399353
 20
24.98088930615279
 10
2.8326712453993537
 20
24.98088930615279
 10
2.8326712453993537
 20
28.627335915559513
 10
2.816195327355306
 20
28.645514289815225
 10
2.801580537620353
 20
28.665220052601256
 10
2.788967624608901
 20
28.686263426649646
 10
2.7784780575681687
 20
28.708441752764884
 10
2.7702128567629387
 20
28.731541441542532
 10
2.764251620595182
 20
28.75534003035213
 10
2.7606517590279402
 20
28.77960832577375
 10
2.759447940695992
 20
28.80411261085615
 10
2.7606517590279402
 20
28.828616895938552
 10
2.764251620595182
 20
28.852885191360173
 10
2.7702128567629387
 20
28.87668378016977
 10
2.7784780575681687
 20
28.89978346894742
 10
2.788967624608901
 20
28.921961795062657
 10
2.801580537620353
 20
28.943005169111046
 10
2.816195327355306
 20
28.962710931897078
 10
2.8326712453993537
 20
28.98088930615279
 10
2.8508496196550794
 20
28.99736522419684
 10
2.87055538244109
 20
29.011980013931776
 10
2.89159875648949
 20
29.024592926943257
 10
2.9137770826047174
 20
29.035082493983964
 10
2.9368767713823765
 20
29.04334769478922
 10
2.96067536019196
 20
29.049308930956954
 10
2.984943655613602
 20
29.052908792524192
 10
3.009447940695992
 20
29.05411261085615
 10
3.033952225778382
 20
29.052908792524192
 10
3.058220521200024
 20
29.049308930956954
 10
3.0820191100096075
 20
29.04334769478922
 10
3.105118798787263
 20
29.035082493983964
 10
3.1272971249024906
 20
29.024592926943257
 10
3.1483404989508905
 20
29.011980013931776
 10
3.168046261736901
 20
28.99736522419684
 10
3.1862246359926267
 20
28.98088930615279
 10
4.079117854806082
 20
28.98088930615279
 10
4.097296229061804
 20
28.99736522419684
 10
4.117001991847818
 20
29.011980013931776
 10
4.138045365896218
 20
29.024592926943257
 10
4.160223692011446
 20
29.035082493983964
 10
4.183323380789101
 20
29.04334769478922
 10
4.207121969598685
 20
29.049308930956954
 10
4.231390265020327
 20
29.052908792524192
 10
4.255894550102717
 20
29.05411261085615
 10
4.280398835185107
 20
29.052908792524192
 10
4.304667130606749
 20
29.049308930956954
 10
4.328465719416332
 20
29.04334769478922
 10
4.351565408193991
 20
29.035082493983964
 10
4.373743734309215
 20
29.024592926943257
 10
4.394787108357619
 20
29.011980013931776
 10
4.414492871143629
 20
28.99736522419684
 10
4.432671245399355
 20
28.98088930615279
 10
4.449147163443403
 20
28.962710931897078
 10
4.463761953178352
 20
28.943005169111046
 10
4.476374866189808
 20
28.921961795062657
 10
4.48686443323054
 20
28.89978346894742
 10
4.49512963403577
 20
28.87668378016977
 10
4.501090870203527
 20
28.852885191360173
 10
4.504690731770765
 20
28.828616895938552
 10
4.505894550102717
 20
28.80411261085615
 10
4.504690731770765
 20
28.77960832577375
 10
4.501090870203527
 20
28.75534003035213
 10
4.49512963403577
 20
28.731541441542532
 10
4.48686443323054
 20
28.708441752764884
 10
4.476374866189808
 20
28.686263426649646
 10
4.463761953178352
 20
28.665220052601256
 10
4.449147163443403
 20
28.645514289815225
 10
4.432671245399355
 20
28.627335915559513
 10
4.432671245399355
 20
24.98088930615279
 10
5.232671245399356
 20
24.98088930615279
 10
5.290497505148139
 20
24.977534172917217
 10
5.347547705673033
 20
24.96751380088665
 10
5.403056202878542
 20
24.950962668794006
 10
5.456278043149332
 20
24.92810290165275
 10
5.5064989610248105
 20
24.899241289720862
 10
5.553044965022238
 20
24.864765171212042
 10
5.5952913829616335
 20
24.82513723401047
 10
5.632671245399354
 20
24.780889306152773
 10
1.6326712453993544
 20
24.780889306152773
  0
LINE
  5
3B
330
17
100
AcDbEntity
  8
BRACKET_CUT_LINE
 62
4
100
AcDbLine
 10
25.082671245399354
 20
24.98088930615279
 30
0.0
 11
23.482671245399352
 21
24.98088930615279
 31
0.0
  0
LINE
  5
3C
330
17
100
AcDbEntity
  8
BRACKET_CUT_LINE
 62
4
100
AcDbLine
 10
13.582671245399354
 20
24.98088930615279
 30
0.0
 11
11.982671245399352
 21
24.98088930615279
 31
0.0
  0
LINE
  5
3D
330
17
100
AcDbEntity
  8
BRACKET_CUT_LINE
 62
4
100
AcDbLine
 10
4.432671245399355
 20
24.98088930615279
 30
0.0
 11
2.8326712453993537
 21
24.98088930615279
 31
0.0
  0
LWPOLYLINE
  5
3E
330
17
100
AcDbEntity
  8
SHELF_R
 62
3
100
AcDbPolyline
 90
110
 70
1
 10
31.957671245399354
 20
23.211272357273543
 10
60.957671245399354
 20
23.211272357273543
 10
60.957671245399354
 20
19.25390792698721
 10
60.957671245399354
 20
19.25390792698721
 10
60.946299147142696
 20
18.992941904445587
 10
60.91226906878522
 20
18.733954369403932
 10
60.85583900592344
 20
18.47890880965943
 10
60.77743677737035
 20
18.229738827322336
 10
60.677656781690374
 20
17.988333479407117
 10
60.55725549082681
 20
17.7565229561379
 10
60.41714571498626
 20
17.53606470554638
 10
60.25838968226046
 20
17.328630109557366
 10
60.08219098545139
 20
17.13579181257583
 10
59.889885457154264
 20
16.959011798642308
 10
59.682931042277815
 20
16.79963030754908
 10
59.46289674478244
 20
16.658855673947414
 10
59.23145073243547
 20
16.537755166480906
 10
58.9903476897659
 20
16.43724689639612
 10
58.74141551510121
 20
16.35809285697505
 10
58.48654146254109
 20
16.300893146560185
 10
58.2276578339314
 20
16.266081418969577
 10
57.9667273293132
 20
16.25392159579431
 10
57.705728166910944
 20
16.264505865503708
 10
57.705728166911065
 20
16.264505865505157
 10
57.26738552472017
 20
16.307595120444773
 10
56.82904288252927
 20
16.362572172125454
 10
56.390700240338376
 20
16.428713802135633
 10
55.95235759814748
 20
16.505149922990938
 10
55.51401495595658
 20
16.59087502406058
 10
55.07567231376568
 20
16.68476139897379
 10
54.63732967157479
 20
16.785573980500544
 10
54.198987029383886
 20
16.891986587755326
 10
53.760644387193
 20
17.002599371993313
 10
53.32230174500209
 20
17.115957231500687
 10
52.8839591028112
 20
17.23056895333346
 10
52.4456164606203
 20
17.344926830095858
 10
52.007273818429404
 20
17.457526493702403
 10
51.56893117623851
 20
17.566886705211203
 10
51.13058853404761
 20
17.671568840395622
 10
50.692245891856714
 20
17.770195814722825
 10
50.25390324966582
 20
17.86147019878308
 10
49.81556060747492
 20
17.94419128586256
 10
49.377217965284025
 20
18.017270887137528
 10
48.93887532309313
 20
18.07974764670513
 10
48.50053268090223
 20
18.130799688138126
 10
48.062190038711336
 20
18.169755426199004
 10
47.62384739652043
 20
18.196102401486172
 10
47.18550475432954
 20
18.209494021793716
 10
46.74716211213864
 20
18.209754121502186
 10
46.30881946994775
 20
18.196879279022113
 10
45.870476827756846
 20
18.171038861804902
 10
45.43213418556595
 20
18.132572798328397
 10
44.99379154337505
 20
18.08198710636688
 10
44.55544890118416
 20
18.019947236370513
 10
44.11710625899326
 20
17.947269317521602
 10
43.678763616802364
 20
17.864909421624986
 10
43.24042097461147
 20
17.77395098606536
 10
42.80207833242057
 20
17.675590561281012
 10
42.363735690229674
 20
17.57112207024528
 10
41.92539304803878
 20
17.461919787020463
 10
41.48705040584788
 20
17.34942025830017
 10
41.04870776365698
 20
17.235103405760384
 10
40.61036512146609
 20
17.120473057816497
 10
40.172022479275185
 20
17.00703716688909
 10
39.733679837084296
 20
16.896287972418946
 10
39.29533719489339
 20
16.7896823705847
 10
38.8569945527025
 20
16.68862274895841
 10
38.4186519105116
 20
16.594438538216934
 10
37.9803092683207
 20
16.50836872359517
 10
37.541966626129806
 20
16.431545546141166
 10
37.10362398393891
 20
16.364979608182125
 10
36.66528134174801
 20
16.309546578937244
 10
36.22693869955712
 20
16.2659756751639
 10
36.22693869960209
 20
16.265975674637417
 10
35.89846706531189
 20
16.248781829130394
 10
35.56957570047707
 20
16.253221760849414
 10
35.24168790540734
 20
16.27927625568043
 10
34.91622263739434
 20
16.326832560980648
 10
34.59458837007495
 20
16.395684873523578
 10
34.27817699816351
 20
16.485535230126658
 10
33.96835781393034
 20
16.595994797107892
 10
33.66647158149402
 20
16.726585552990514
 10
33.373824734571215
 20
16.876742357174408
 10
33.091683722793626
 20
17.045815395621418
 10
32.821269531058974
 20
17.233072992970847
 10
32.56375239563373
 20
17.437704778915645
 10
32.32024673987405
 20
17.658825195136387
 10
32.091806351481054
 20
17.895477327616618
 10
31.87941982216107
 20
18.146637047755036
 10
31.6840062694261
 20
18.41121744435324
 10
31.506411359048712
 20
18.68807352730002
 10
31.347403645384468
 20
18.976007182595595
 10
31.207671245399354
 20
19.273772357273543
 10
31.207671245399354
 20
19.898772357273543
 10
31.207671245399354
 20
19.898772357273543
 10
31.291644602476836
 20
19.903488199853598
 10
31.37456194586659
 20
19.91757642313715
 10
31.45538054186573
 20
19.940859859542257
 10
31.53308404973752
 20
19.97304570634671
 10
31.606695302785855
 20
20.01372920785232
 10
31.675288596793404
 20
20.062398745422513
 10
31.738001331289265
 20
20.11844227138363
 10
31.794044857250377
 20
20.181155005879475
 10
31.842714394820568
 20
20.249748299887017
 10
31.88339789632617
 20
20.323359552935358
 10
31.91558374313063
 20
20.40106306080716
 10
31.93886717953572
 20
20.48188165680628
 10
31.952955402819285
 20
20.564799000196047
 10
31.957671245399354
 20
20.648772357273543
 10
31.957671245399354
 20
23.211272357273543
  0
LWPOLYLINE
  5
3F
330
17
100
AcDbEntity
  8
BRACKET_OUTLINE
 62
6
100
AcDbPolyline
 90
87
 70
1
 10
39.13267124539935
 20
23.211272357273543
 10
39.09529138296163
 20
23.167024429415846
 10
39.05304496502224
 20
23.127396492214274
 10
39.00649896102481
 20
23.092920373705454
 10
38.95627804314933
 20
23.064058761773566
 10
38.90305620287854
 20
23.04119899463231
 10
38.84754770567304
 20
23.024647862539666
 10
38.79049750514814
 20
23.0146274905091
 10
38.73267124539935
 20
23.011272357273526
 10
37.932671245399355
 20
23.011272357273526
 10
37.932671245399355
 20
19.364825747866803
 10
37.9491471634434
 20
19.34664737361109
 10
37.96376195317835
 20
19.32694161082506
 10
37.97637486618981
 20
19.30589823677667
 10
37.98686443323054
 20
19.283719910661432
 10
37.99512963403577
 20
19.260620221883784
 10
38.00109087020353
 20
19.236821633074186
 10
38.004690731770765
 20
19.212553337652565
 10
38.00589455010272
 20
19.188049052570165
 10
38.004690731770765
 20
19.163544767487764
 10
38.00109087020353
 20
19.139276472066143
 10
37.99512963403577
 20
19.115477883256546
 10
37.98686443323054
 20
19.092378194478897
 10
37.97637486618981
 20
19.07019986836366
 10
37.96376195317835
 20
19.04915649431527
 10
37.9491471634434
 20
19.029450731529238
 10
37.932671245399355
 20
19.011272357273526
 10
37.91449287114363
 20
18.994796439229475
 10
37.89478710835762
 20
18.98018164949454
 10
37.873743734309215
 20
18.96756873648306
 10
37.85156540819399
 20
18.957079169442352
 10
37.82846571941633
 20
18.948813968637097
 10
37.804667130606745
 20
18.942852732469362
 10
37.78039883518511
 20
18.939252870902124
 10
37.75589455010272
 20
18.938049052570165
 10
37.73139026502032
 20
18.939252870902124
 10
37.70712196959869
 20
18.942852732469362
 10
37.683323380789105
 20
18.948813968637097
 10
37.66022369201144
 20
18.957079169442352
 10
37.63804536589622
 20
18.96756873648306
 10
37.617001991847815
 20
18.98018164949454
 10
37.597296229061804
 20
18.994796439229475
 10
37.57911785480608
 20
19.011272357273526
 10
36.68622463599263
 20
19.011272357273526
 10
36.668046261736905
 20
18.994796439229475
 10
36.64834049895089
 20
18.98018164949454
 10
36.62729712490249
 20
18.96756873648306
 10
36.60511879878726
 20
18.957079169442352
 10
36.582019110009604
 20
18.948813968637097
 10
36.55822052120002
 20
18.942852732469362
 10
36.53395222577838
 20
18.939252870902124
 10
36.50944794069599
 20
18.938049052570165
 10
36.4849436556136
 20
18.939252870902124
 10
36.460675360191956
 20
18.942852732469362
 10
36.43687677138237
 20
18.948813968637097
 10
36.41377708260472
 20
18.957079169442352
 10
36.39159875648949
 20
18.96756873648306
 10
36.37055538244109
 20
18.98018164949454
 10
36.35084961965508
 20
18.994796439229475
 10
36.332671245399354
 20
19.011272357273526
 10
36.3161953273553
 20
19.029450731529238
 10
36.30158053762035
 20
19.04915649431527
 10
36.2889676246089
 20
19.07019986836366
 10
36.278478057568165
 20
19.092378194478897
 10
36.27021285676294
 20
19.115477883256546
 10
36.26425162059518
 20
19.139276472066143
 10
36.26065175902794
 20
19.163544767487764
 10
36.25944794069599
 20
19.188049052570165
 10
36.26065175902794
 20
19.212553337652565
 10
36.26425162059518
 20
19.236821633074186
 10
36.27021285676294
 20
19.260620221883784
 10
36.278478057568165
 20
19.283719910661432
 10
36.2889676246089
 20
19.30589823677667
 10
36.30158053762035
 20
19.32694161082506
 10
36.3161953273553
 20
19.34664737361109
 10
36.332671245399354
 20
19.364825747866803
 10
36.332671245399354
 20
23.011272357273526
 10
35.53267124539936
 20
23.011272357273526
 10
35.47484498565057
 20
23.0146274905091
 10
35.41779478512567
 20
23.024647862539666
 10
35.36228628792017
 20
23.04119899463231
 10
35.30906444764938
 20
23.064058761773566
 10
35.2588435297739
 20
23.092920373705454
 10
35.21229752577647
 20
23.127396492214274
 10
35.17005110783707
 20
23.167024429415846
 10
35.13267124539935
 20
23.211272357273543
 10
39.13267124539935
 20
23.211272357273543
  0
LWPOLYLINE
  5
40
330
17
100
AcDbEntity
  8
BRACKET_OUTLINE
 62
6
100
AcDbPolyline
 90
87
 70
1
 10
50.63267124539935
 20
23.211272357273543
 10
50.59529138296163
 20
23.167024429415846
 10
50.55304496502224
 20
23.127396492214274
 10
50.50649896102481
 20
23.092920373705454
 10
50.45627804314933
 20
23.064058761773566
 10
50.403056202878545
 20
23.04119899463231
 10
50.34754770567304
 20
23.024647862539666
 10
50.29049750514814
 20
23.0146274905091
 10
50.23267124539936
 20
23.011272357273526
 10
49.432671245399355
 20
23.011272357273526
 10
49.432671245399355
 20
19.364825747866803
 10
49.4491471634434
 20
19.34664737361109
 10
49.463761953178356
 20
19.32694161082506
 10
49.47637486618981
 20
19.30589823677667
 10
49.48686443323054
 20
19.283719910661432
 10
49.49512963403577
 20
19.260620221883784
 10
49.50109087020353
 20
19.236821633074186
 10
49.504690731770765
 20
19.212553337652565
 10
49.50589455010272
 20
19.188049052570165
 10
49.504690731770765
 20
19.163544767487764
 10
49.50109087020353
 20
19.139276472066143
 10
49.49512963403577
 20
19.115477883256546
 10
49.48686443323054
 20
19.092378194478897
 10
49.47637486618981
 20
19.07019986836366
 10
49.463761953178356
 20
19.04915649431527
 10
49.4491471634434
 20
19.029450731529238
 10
49.432671245399355
 20
19.011272357273526
 10
49.41449287114363
 20
18.994796439229475
 10
49.39478710835762
 20
18.98018164949454
 10
49.373743734309215
 20
18.96756873648306
 10
49.35156540819399
 20
18.957079169442352
 10
49.32846571941633
 20
18.948813968637097
 10
49.304667130606745
 20
18.942852732469362
 10
49.28039883518511
 20
18.939252870902124
 10
49.25589455010272
 20
18.938049052570165
 10
49.23139026502032
 20
18.939252870902124
 10
49.20712196959869
 20
18.942852732469362
 10
49.183323380789105
 20
18.948813968637097
 10
49.16022369201144
 20
18.957079169442352
 10
49.13804536589622
 20
18.96756873648306
 10
49.117001991847815
 20
18.98018164949454
 10
49.09729622906181
 20
18.994796439229475
 10
49.079117854806086
 20
19.011272357273526
 10
48.18622463599263
 20
19.011272357273526
 10
48.168046261736905
 20
18.994796439229475
 10
48.14834049895089
 20
18.98018164949454
 10
48.12729712490249
 20
18.96756873648306
 10
48.10511879878726
 20
18.957079169442352
 10
48.08201911000961
 20
18.948813968637097
 10
48.05822052120003
 20
18.942852732469362
 10
48.03395222577838
 20
18.939252870902124
 10
48.00944794069599
 20
18.938049052570165
 10
47.984943655613606
 20
18.939252870902124
 10
47.960675360191956
 20
18.942852732469362
 10
47.93687677138237
 20
18.948813968637097
 10
47.91377708260472
 20
18.957079169442352
 10
47.89159875648949
 20
18.96756873648306
 10
47.87055538244109
 20
18.98018164949454
 10
47.85084961965508
 20
18.994796439229475
 10
47.832671245399354
 20
19.011272357273526
 10
47.81619532735531
 20
19.029450731529238
 10
47.80158053762035
 20
19.04915649431527
 10
47.7889676246089
 20
19.07019986836366
 10
47.77847805756817
 20
19.092378194478897
 10
47.77021285676294
 20
19.115477883256546
 10
47.76425162059518
 20
19.139276472066143
 10
47.760651759027944
 20
19.163544767487764
 10
47.75944794069599
 20
19.188049052570165
 10
47.760651759027944
 20
19.212553337652565
 10
47.76425162059518
 20
19.236821633074186
 10
47.77021285676294
 20
19.260620221883784
 10
47.77847805756817
 20
19.283719910661432
 10
47.7889676246089
 20
19.30589823677667
 10
47.80158053762035
 20
19.32694161082506
 10
47.81619532735531
 20
19.34664737361109
 10
47.832671245399354
 20
19.364825747866803
 10
47.832671245399354
 20
23.011272357273526
 10
47.03267124539936
 20
23.011272357273526
 10
46.97484498565057
 20
23.0146274905091
 10
46.91779478512567
 20
23.024647862539666
 10
46.86228628792017
 20
23.04119899463231
 10
46.80906444764938
 20
23.064058761773566
 10
46.7588435297739
 20
23.092920373705454
 10
46.71229752577647
 20
23.127396492214274
 10
46.670051107837075
 20
23.167024429415846
 10
46.63267124539935
 20
23.211272357273543
 10
50.63267124539935
 20
23.211272357273543
  0
LWPOLYLINE
  5
41
330
17
100
AcDbEntity
  8
BRACKET_OUTLINE
 62
6
100
AcDbPolyline
 90
87
 70
1
 10
59.78267124539936
 20
23.211272357273543
 10
59.74529138296163
 20
23.167024429415846
 10
59.70304496502224
 20
23.127396492214274
 10
59.65649896102481
 20
23.092920373705454
 10
59.60627804314933
 20
23.064058761773566
 10
59.55305620287854
 20
23.04119899463231
 10
59.497547705673036
 20
23.024647862539666
 10
59.44049750514814
 20
23.0146274905091
 10
59.38267124539935
 20
23.011272357273526
 10
58.582671245399354
 20
23.011272357273526
 10
58.582671245399354
 20
19.364825747866803
 10
58.599147163443405
 20
19.34664737361109
 10
58.613761953178354
 20
19.32694161082506
 10
58.626374866189806
 20
19.30589823677667
 10
58.63686443323054
 20
19.283719910661432
 10
58.64512963403577
 20
19.260620221883784
 10
58.651090870203525
 20
19.236821633074186
 10
58.65469073177077
 20
19.212553337652565
 10
58.655894550102715
 20
19.188049052570165
 10
58.65469073177077
 20
19.163544767487764
 10
58.651090870203525
 20
19.139276472066143
 10
58.64512963403577
 20
19.115477883256546
 10
58.63686443323054
 20
19.092378194478897
 10
58.626374866189806
 20
19.07019986836366
 10
58.613761953178354
 20
19.04915649431527
 10
58.599147163443405
 20
19.029450731529238
 10
58.582671245399354
 20
19.011272357273526
 10
58.56449287114363
 20
18.994796439229475
 10
58.54478710835762
 20
18.98018164949454
 10
58.52374373430922
 20
18.96756873648306
 10
58.50156540819399
 20
18.957079169442352
 10
58.478465719416334
 20
18.948813968637097
 10
58.45466713060675
 20
18.942852732469362
 10
58.4303988351851
 20
18.939252870902124
 10
58.405894550102715
 20
18.938049052570165
 10
58.38139026502033
 20
18.939252870902124
 10
58.35712196959868
 20
18.942852732469362
 10
58.333323380789096
 20
18.948813968637097
 10
58.31022369201145
 20
18.957079169442352
 10
58.28804536589622
 20
18.96756873648306
 10
58.26700199184782
 20
18.98018164949454
 10
58.2472962290618
 20
18.994796439229475
 10
58.22911785480608
 20
19.011272357273526
 10
57.33622463599262
 20
19.011272357273526
 10
57.3180462617369
 20
18.994796439229475
 10
57.29834049895089
 20
18.98018164949454
 10
57.27729712490249
 20
18.96756873648306
 10
57.255118798787265
 20
18.957079169442352
 10
57.2320191100096
 20
18.948813968637097
 10
57.20822052120002
 20
18.942852732469362
 10
57.183952225778384
 20
18.939252870902124
 10
57.15944794069599
 20
18.938049052570165
 10
57.1349436556136
 20
18.939252870902124
 10
57.11067536019196
 20
18.942852732469362
 10
57.08687677138238
 20
18.948813968637097
 10
57.063777082604716
 20
18.957079169442352
 10
57.04159875648949
 20
18.96756873648306
 10
57.02055538244109
 20
18.98018164949454
 10
57.00084961965508
 20
18.994796439229475
 10
56.98267124539935
 20
19.011272357273526
 10
56.96619532735531
 20
19.029450731529238
 10
56.95158053762036
 20
19.04915649431527
 10
56.9389676246089
 20
19.07019986836366
 10
56.92847805756817
 20
19.092378194478897
 10
56.92021285676294
 20
19.115477883256546
 10
56.91425162059518
 20
19.139276472066143
 10
56.91065175902794
 20
19.163544767487764
 10
56.90944794069599
 20
19.188049052570165
 10
56.91065175902794
 20
19.212553337652565
 10
56.91425162059518
 20
19.236821633074186
 10
56.92021285676294
 20
19.260620221883784
 10
56.92847805756817
 20
19.283719910661432
 10
56.9389676246089
 20
19.30589823677667
 10
56.95158053762036
 20
19.32694161082506
 10
56.96619532735531
 20
19.34664737361109
 10
56.98267124539935
 20
19.364825747866803
 10
56.98267124539935
 20
23.011272357273526
 10
56.18267124539935
 20
23.011272357273526
 10
56.12484498565057
 20
23.0146274905091
 10
56.06779478512567
 20
23.024647862539666
 10
56.01228628792016
 20
23.04119899463231
 10
55.959064447649375
 20
23.064058761773566
 10
55.9088435297739
 20
23.092920373705454
 10
55.86229752577647
 20
23.127396492214274
 10
55.820051107837074
 20
23.167024429415846
 10
55.78267124539936
 20
23.211272357273543
 10
59.78267124539936
 20
23.211272357273543
  0
LINE
  5
42
330
17
100
AcDbEntity
  8
BRACKET_CUT_LINE
 62
4
100
AcDbLine
 10
36.332671245399354
 20
23.011272357273526
 30
0.0
 11
37.932671245399355
 21
23.011272357273526
 31
0.0
  0
LINE
  5
43
330
17
100
AcDbEntity
  8
BRACKET_CUT_LINE
 62
4
100
AcDbLine
 10
47.832671245399354
 20
23.011272357273526
 30
0.0
 11
49.432671245399355
 21
23.011272357273526
 31
0.0
  0
LINE
  5
44
330
17
100
AcDbEntity
  8
BRACKET_CUT_LINE
 62
4
100
AcDbLine
 10
56.98267124539935
 20
23.011272357273526
 30
0.0
 11
58.582671245399354
 21
23.011272357273526
 31
0.0
  0
LWPOLYLINE
  5
45
330
17
100
AcDbEntity
  8
SHELF_R
 62
3
100
AcDbPolyline
 90
110
 70
1
 10
60.493391660618045
 20
23.661272357273532
 10
60.493391660618045
 20
26.223772357273532
 10
60.493391660618045
 20
26.223772357273532
 10
60.49810750319811
 20
26.307745714351
 10
60.51219572648168
 20
26.390663057740767
 10
60.535479162886766
 20
26.471481653739914
 10
60.567665009691225
 20
26.54918516161169
 10
60.60834851119682
 20
26.62279641466003
 10
60.657018048767014
 20
26.69138970866757
 10
60.71306157472813
 20
26.754102443163447
 10
60.77577430922399
 20
26.810145969124562
 10
60.84436760323154
 20
26.858815506694754
 10
60.91797885627987
 20
26.899499008200337
 10
60.99568236415166
 20
26.931684855004818
 10
61.07650096015081
 20
26.954968291409898
 10
61.15941830354056
 20
26.96905651469345
 10
61.243391660618045
 20
26.973772357273532
 10
61.243391660618045
 20
27.598772357273532
 10
61.243391660618045
 20
27.598772357273532
 10
61.10481700973155
 20
27.895284042916728
 10
60.94714027850376
 20
28.18209436703461
 10
60.7710370935232
 20
28.457974380502407
 10
60.577262036605276
 20
28.72174196931448
 10
60.36664541149632
 20
28.97226691980643
 10
60.14008968611792
 20
29.20847576149012
 10
59.89856562559599
 20
29.42935636675068
 10
59.6431081326444
 20
29.633962287696733
 10
59.374811813126264
 20
29.821416811580008
 10
59.09482628579419
 20
29.99091671740848
 10
58.8043512563067
 20
30.141735717655536
 10
58.504631376627955
 20
30.27322757031814
 10
58.19695091183782
 20
30.384828847989155
 10
57.882628237204244
 20
30.476061352078887
 10
57.56301018909751
 20
30.54653416184067
 10
57.2394662939518
 20
30.595945309421182
 10
56.913382900002624
 20
30.6240830737579
 10
56.58615723694466
 20
30.630826887779335
 10
56.25919142896382
 20
30.616147855020984
 10
56.25919142887777
 20
30.61614785612761
 10
55.78675745445687
 20
30.57221254409464
 10
55.31432348003597
 20
30.514359910744872
 10
54.84188950561507
 20
30.443473827158954
 10
54.36945553119418
 20
30.3606372891432
 10
53.89702155677328
 20
30.267115871246943
 10
53.42458758235239
 20
30.164338391346064
 10
52.95215360793149
 20
30.053875081199664
 10
52.47971963351059
 20
29.937413596488312
 10
52.007285659089696
 20
29.816733232853238
 10
51.534851684668794
 20
29.693677741861933
 10
51.0624177102479
 20
29.57012716221797
 10
50.589983735827005
 20
29.447969096577054
 10
50.11754976140611
 20
29.3290698728008
 10
49.64511578698521
 20
29.215246030246675
 10
49.17268181256431
 20
29.108236566725083
 10
48.70024783814341
 20
29.009676370134684
 10
48.22781386372252
 20
28.921071240685848
 10
47.75537988930162
 20
28.843774885323
 10
47.28294591488073
 20
28.77896823582384
 10
46.81051194045983
 20
28.727641406553317
 10
46.33807796603893
 20
28.6905785675211
 10
45.865643991618036
 20
28.668345963851976
 10
45.393210017197134
 20
28.661283264706867
 10
44.92077604277624
 20
28.669498373826144
 10
44.448342068355345
 20
28.692865780978792
 10
43.97590809393445
 20
28.731028479504687
 10
43.503474119513555
 20
28.783403420653343
 10
43.03104014509265
 20
28.849190421388045
 10
42.55860617067175
 20
28.927384389562377
 10
42.08617219625086
 20
29.016790679692548
 10
41.61373822182996
 20
29.11604334472142
 10
41.14130424740907
 20
29.223626004923062
 10
40.66887027298817
 20
29.33789501511447
 10
40.19643629856727
 20
29.457104576225134
 10
39.724002324146376
 20
29.579433407571656
 10
39.251568349725474
 20
29.703012572338224
 10
38.77913437530458
 20
29.825954031146352
 10
38.306700400883685
 20
29.94637948747331
 10
37.83426642646279
 20
30.06244908421897
 10
37.361832452041895
 20
30.172389512996773
 10
36.88939847762099
 20
30.274521106694436
 10
36.41696450320009
 20
30.367283501386197
 10
35.9445305287792
 20
30.449259475533523
 10
35.4720965543583
 20
30.519196602260337
 10
34.99966257993741
 20
30.576026383899375
 10
34.52722860551651
 20
30.618880576472776
 10
34.05479463109561
 20
30.64710445470169
 10
33.582360656674716
 20
30.660266814882732
 10
33.109926682253814
 20
30.65816656280731
 10
33.109926682253814
 20
30.65816656280731
 10
32.96538856737931
 20
30.658669232033986
 10
32.82104242062273
 20
30.66613309459703
 10
32.67722330979687
 20
30.680540824782156
 10
32.53426507931654
 20
30.701858978214517
 10
32.39249957525234
 20
30.73003806949245
 10
32.25225587502293
 20
30.765012687057123
 10
32.11385952351432
 20
30.80670164503087
 10
31.977631777399008
 20
30.85500817167241
 10
31.843888859409304
 20
30.9098201340112
 10
31.712941224295903
 20
30.97101029813942
 10
31.585092838175463
 20
31.03843662455742
 10
31.46064047294016
 20
31.111942597887293
 10
31.33987301736708
 20
31.191357590188687
 10
31.22307080652647
 20
31.276497257034265
 10
31.110504971045593
 20
31.36716396542451
 10
31.002436807738622
 20
31.463147252549362
 10
30.899117173063612
 20
31.5642243143312
 10
30.80078590081442
 20
31.670160522615646
 10
30.707671245399354
 20
31.78070996980904
 10
30.707671245399354
 20
23.661272357273532
 10
60.493391660618045
 20
23.661272357273532
  0
LWPOLYLINE
  5
46
330
17
100
AcDbEntity
  8
BRACKET_OUTLINE
 62
6
100
AcDbPolyline
 90
87
 70
1
 10
53.31839166061804
 20
23.661272357273532
 10
53.355771523055765
 20
23.70552028513123
 10
53.39801794099516
 20
23.7451482223328
 10
53.44456394499258
 20
23.779624340841593
 10
53.49478486286806
 20
23.80848595277348
 10
53.54800670313885
 20
23.831345719914736
 10
53.60351520034436
 20
23.84789685200738
 10
53.66056540086926
 20
23.857917224037976
 10
53.71839166061804
 20
23.86127235727352
 10
54.51839166061804
 20
23.86127235727352
 10
54.518391660618036
 20
27.507718966680244
 10
54.50191574257399
 20
27.525897340935984
 10
54.48730095283904
 20
27.545603103721987
 10
54.47468803982759
 20
27.566646477770405
 10
54.464198472786855
 20
27.588824803885615
 10
54.45593327198162
 20
27.61192449266329
 10
54.44997203581387
 20
27.63572308147286
 10
54.44637217424663
 20
27.65999137689451
 10
54.445168355914674
 20
27.68449566197691
 10
54.44637217424663
 20
27.708999947059283
 10
54.44997203581387
 20
27.733268242480932
 10
54.45593327198162
 20
27.7570668312905
 10
54.464198472786855
 20
27.780166520068178
 10
54.47468803982759
 20
27.802344846183388
 10
54.48730095283904
 20
27.823388220231806
 10
54.50191574257399
 20
27.84309398301781
 10
54.518391660618036
 20
27.86127235727352
 10
54.53657003487376
 20
27.877748275317572
 10
54.55627579765978
 20
27.892363065052535
 10
54.57731917170818
 20
27.904975978063987
 10
54.59949749782341
 20
27.915465545104723
 10
54.62259718660106
 20
27.92373074590995
 10
54.646395775410646
 20
27.929691982077685
 10
54.67066407083229
 20
27.93329184364495
 10
54.695168355914674
 20
27.93449566197691
 10
54.71967264099707
 20
27.93329184364495
 10
54.74394093641871
 20
27.929691982077685
 10
54.76773952522829
 20
27.92373074590995
 10
54.79083921400595
 20
27.915465545104723
 10
54.81301754012118
 20
27.904975978063987
 10
54.83406091416958
 20
27.892363065052535
 10
54.85376667695559
 20
27.877748275317572
 10
54.87194505121131
 20
27.86127235727352
 10
55.76483827002477
 20
27.86127235727352
 10
55.783016644280494
 20
27.877748275317572
 10
55.802722407066504
 20
27.892363065052535
 10
55.8237657811149
 20
27.904975978063987
 10
55.84594410723013
 20
27.915465545104723
 10
55.86904379600779
 20
27.92373074590995
 10
55.89284238481737
 20
27.929691982077685
 10
55.91711068023901
 20
27.93329184364495
 10
55.941614965321406
 20
27.93449566197691
 10
55.96611925040379
 20
27.93329184364495
 10
55.990387545825435
 20
27.929691982077685
 10
56.01418613463502
 20
27.92373074590995
 10
56.037285823412674
 20
27.915465545104723
 10
56.059464149527905
 20
27.904975978063987
 10
56.0805075235763
 20
27.892363065052535
 10
56.10021328636232
 20
27.877748275317572
 10
56.118391660618045
 20
27.86127235727352
 10
56.13486757866209
 20
27.84309398301781
 10
56.149482368397045
 20
27.823388220231806
 10
56.1620952814085
 20
27.802344846183388
 10
56.172584848449226
 20
27.780166520068178
 10
56.18085004925446
 20
27.7570668312905
 10
56.18681128542221
 20
27.733268242480932
 10
56.190411146989454
 20
27.708999947059283
 10
56.191614965321406
 20
27.68449566197691
 10
56.190411146989454
 20
27.65999137689451
 10
56.18681128542221
 20
27.63572308147286
 10
56.18085004925446
 20
27.61192449266329
 10
56.172584848449226
 20
27.588824803885615
 10
56.1620952814085
 20
27.566646477770405
 10
56.149482368397045
 20
27.545603103721987
 10
56.13486757866209
 20
27.525897340935984
 10
56.118391660618045
 20
27.507718966680244
 10
56.118391660618045
 20
23.86127235727352
 10
56.91839166061804
 20
23.86127235727352
 10
56.97621792036682
 20
23.857917224037976
 10
57.03326812089172
 20
23.84789685200738
 10
57.08877661809723
 20
23.831345719914736
 10
57.14199845836802
 20
23.80848595277348
 10
57.1922193762435
 20
23.779624340841593
 10
57.23876538024092
 20
23.7451482223328
 10
57.28101179818032
 20
23.70552028513123
 10
57.31839166061804
 20
23.661272357273532
 10
53.31839166061804
 20
23.661272357273532
  0
LWPOLYLINE
  5
47
330
17
100
AcDbEntity
  8
BRACKET_OUTLINE
 62
6
100
AcDbPolyline
 90
87
 70
1
 10
41.81839166061804
 20
23.661272357273532
 10
41.855771523055765
 20
23.70552028513123
 10
41.89801794099516
 20
23.7451482223328
 10
41.94456394499258
 20
23.779624340841593
 10
41.99478486286806
 20
23.80848595277348
 10
42.04800670313885
 20
23.831345719914736
 10
42.10351520034436
 20
23.84789685200738
 10
42.16056540086926
 20
23.857917224037976
 10
42.21839166061804
 20
23.86127235727352
 10
43.018391660618036
 20
23.86127235727352
 10
43.018391660618036
 20
27.507718966680244
 10
43.00191574257399
 20
27.525897340935984
 10
42.987300952839036
 20
27.545603103721987
 10
42.97468803982758
 20
27.566646477770405
 10
42.964198472786855
 20
27.588824803885615
 10
42.95593327198162
 20
27.61192449266329
 10
42.94997203581387
 20
27.63572308147286
 10
42.946372174246626
 20
27.65999137689451
 10
42.945168355914674
 20
27.68449566197691
 10
42.946372174246626
 20
27.708999947059283
 10
42.94997203581387
 20
27.733268242480932
 10
42.95593327198162
 20
27.7570668312905
 10
42.964198472786855
 20
27.780166520068178
 10
42.97468803982758
 20
27.802344846183388
 10
42.987300952839036
 20
27.823388220231806
 10
43.00191574257399
 20
27.84309398301781
 10
43.018391660618036
 20
27.86127235727352
 10
43.03657003487376
 20
27.877748275317572
 10
43.05627579765978
 20
27.892363065052535
 10
43.077319171708176
 20
27.904975978063987
 10
43.09949749782341
 20
27.915465545104723
 10
43.12259718660106
 20
27.92373074590995
 10
43.146395775410646
 20
27.929691982077685
 10
43.17066407083229
 20
27.93329184364495
 10
43.195168355914674
 20
27.93449566197691
 10
43.21967264099707
 20
27.93329184364495
 10
43.24394093641871
 20
27.929691982077685
 10
43.26773952522829
 20
27.92373074590995
 10
43.29083921400595
 20
27.915465545104723
 10
43.31301754012118
 20
27.904975978063987
 10
43.33406091416958
 20
27.892363065052535
 10
43.35376667695559
 20
27.877748275317572
 10
43.37194505121131
 20
27.86127235727352
 10
44.26483827002477
 20
27.86127235727352
 10
44.283016644280494
 20
27.877748275317572
 10
44.302722407066504
 20
27.892363065052535
 10
44.3237657811149
 20
27.904975978063987
 10
44.34594410723013
 20
27.915465545104723
 10
44.36904379600779
 20
27.92373074590995
 10
44.39284238481737
 20
27.929691982077685
 10
44.41711068023901
 20
27.93329184364495
 10
44.441614965321406
 20
27.93449566197691
 10
44.46611925040379
 20
27.93329184364495
 10
44.490387545825435
 20
27.929691982077685
 10
44.51418613463502
 20
27.92373074590995
 10
44.537285823412674
 20
27.915465545104723
 10
44.5594641495279
 20
27.904975978063987
 10
44.5805075235763
 20
27.892363065052535
 10
44.60021328636232
 20
27.877748275317572
 10
44.618391660618045
 20
27.86127235727352
 10
44.63486757866208
 20
27.84309398301781
 10
44.649482368397045
 20
27.823388220231806
 10
44.6620952814085
 20
27.802344846183388
 10
44.67258484844922
 20
27.780166520068178
 10
44.68085004925446
 20
27.7570668312905
 10
44.68681128542221
 20
27.733268242480932
 10
44.69041114698945
 20
27.708999947059283
 10
44.691614965321406
 20
27.68449566197691
 10
44.69041114698945
 20
27.65999137689451
 10
44.68681128542221
 20
27.63572308147286
 10
44.68085004925446
 20
27.61192449266329
 10
44.67258484844922
 20
27.588824803885615
 10
44.6620952814085
 20
27.566646477770405
 10
44.649482368397045
 20
27.545603103721987
 10
44.63486757866208
 20
27.525897340935984
 10
44.618391660618045
 20
27.507718966680244
 10
44.618391660618045
 20
23.86127235727352
 10
45.41839166061804
 20
23.86127235727352
 10
45.47621792036682
 20
23.857917224037976
 10
45.53326812089172
 20
23.84789685200738
 10
45.58877661809723
 20
23.831345719914736
 10
45.64199845836802
 20
23.80848595277348
 10
45.6922193762435
 20
23.779624340841593
 10
45.73876538024092
 20
23.7451482223328
 10
45.78101179818032
 20
23.70552028513123
 10
45.81839166061804
 20
23.661272357273532
 10
41.81839166061804
 20
23.661272357273532
  0
LWPOLYLINE
  5
48
330
17
100
AcDbEntity
  8
BRACKET_OUTLINE
 62
6
100
AcDbPolyline
 90
87
 70
1
 10
32.66839166061804
 20
23.661272357273532
 10
32.70577152305576
 20
23.70552028513123
 10
32.748017940995155
 20
23.7451482223328
 10
32.79456394499259
 20
23.779624340841593
 10
32.84478486286807
 20
23.80848595277348
 10
32.898006703138854
 20
23.831345719914736
 10
32.953515200344356
 20
23.84789685200738
 10
33.010565400869254
 20
23.857917224037976
 10
33.06839166061804
 20
23.86127235727352
 10
33.868391660618045
 20
23.86127235727352
 10
33.868391660618045
 20
27.507718966680244
 10
33.85191574257399
 20
27.525897340935984
 10
33.837300952839044
 20
27.545603103721987
 10
33.82468803982759
 20
27.566646477770405
 10
33.814198472786856
 20
27.588824803885615
 10
33.80593327198163
 20
27.61192449266329
 10
33.799972035813866
 20
27.63572308147286
 10
33.79637217424663
 20
27.65999137689451
 10
33.79516835591468
 20
27.68449566197691
 10
33.79637217424663
 20
27.708999947059283
 10
33.799972035813866
 20
27.733268242480932
 10
33.80593327198163
 20
27.7570668312905
 10
33.814198472786856
 20
27.780166520068178
 10
33.82468803982759
 20
27.802344846183388
 10
33.837300952839044
 20
27.823388220231806
 10
33.85191574257399
 20
27.84309398301781
 10
33.868391660618045
 20
27.86127235727352
 10
33.88657003487377
 20
27.877748275317572
 10
33.906275797659774
 20
27.892363065052535
 10
33.92731917170818
 20
27.904975978063987
 10
33.9494974978234
 20
27.915465545104723
 10
33.972597186601064
 20
27.92373074590995
 10
33.99639577541065
 20
27.929691982077685
 10
34.02066407083229
 20
27.93329184364495
 10
34.04516835591468
 20
27.93449566197691
 10
34.06967264099707
 20
27.93329184364495
 10
34.09394093641871
 20
27.929691982077685
 10
34.117739525228295
 20
27.92373074590995
 10
34.14083921400595
 20
27.915465545104723
 10
34.163017540121174
 20
27.904975978063987
 10
34.18406091416958
 20
27.892363065052535
 10
34.20376667695559
 20
27.877748275317572
 10
34.221945051211314
 20
27.86127235727352
 10
35.11483827002477
 20
27.86127235727352
 10
35.13301664428049
 20
27.877748275317572
 10
35.152722407066506
 20
27.892363065052535
 10
35.17376578111491
 20
27.904975978063987
 10
35.19594410723013
 20
27.915465545104723
 10
35.21904379600779
 20
27.92373074590995
 10
35.24284238481737
 20
27.929691982077685
 10
35.267110680239014
 20
27.93329184364495
 10
35.2916149653214
 20
27.93449566197691
 10
35.316119250403794
 20
27.93329184364495
 10
35.340387545825436
 20
27.929691982077685
 10
35.36418613463502
 20
27.92373074590995
 10
35.38728582341268
 20
27.915465545104723
 10
35.409464149527906
 20
27.904975978063987
 10
35.43050752357631
 20
27.892363065052535
 10
35.45021328636231
 20
27.877748275317572
 10
35.46839166061804
 20
27.86127235727352
 10
35.48486757866209
 20
27.84309398301781
 10
35.49948236839704
 20
27.823388220231806
 10
35.51209528140849
 20
27.802344846183388
 10
35.52258484844923
 20
27.780166520068178
 10
35.530850049254454
 20
27.7570668312905
 10
35.53681128542222
 20
27.733268242480932
 10
35.540411146989456
 20
27.708999947059283
 10
35.5416149653214
 20
27.68449566197691
 10
35.540411146989456
 20
27.65999137689451
 10
35.53681128542222
 20
27.63572308147286
 10
35.530850049254454
 20
27.61192449266329
 10
35.52258484844923
 20
27.588824803885615
 10
35.51209528140849
 20
27.566646477770405
 10
35.49948236839704
 20
27.545603103721987
 10
35.48486757866209
 20
27.525897340935984
 10
35.46839166061804
 20
27.507718966680244
 10
35.46839166061804
 20
23.86127235727352
 10
36.26839166061804
 20
23.86127235727352
 10
36.32621792036683
 20
23.857917224037976
 10
36.38326812089172
 20
23.84789685200738
 10
36.43877661809723
 20
23.831345719914736
 10
36.491998458368016
 20
23.80848595277348
 10
36.542219376243494
 20
23.779624340841593
 10
36.58876538024093
 20
23.7451482223328
 10
36.631011798180324
 20
23.70552028513123
 10
36.66839166061804
 20
23.661272357273532
 10
32.66839166061804
 20
23.661272357273532
  0
LINE
  5
49
330
17
100
AcDbEntity
  8
BRACKET_CUT_LINE
 62
4
100
AcDbLine
 10
56.118391660618045
 20
23.86127235727352
 30
0.0
 11
54.51839166061804
 21
23.86127235727352
 31
0.0
  0
LINE
  5
4A
330
17
100
AcDbEntity
  8
BRACKET_CUT_LINE
 62
4
100
AcDbLine
 10
44.618391660618045
 20
23.86127235727352
 30
0.0
 11
43.018391660618036
 21
23.86127235727352
 31
0.0
  0
LINE
  5
4B
330
17
100
AcDbEntity
  8
BRACKET_CUT_LINE
 62
4
100
AcDbLine
 10
35.46839166061804
 20
23.86127235727352
 30
0.0
 11
33.868391660618045
 21
23.86127235727352
 31
0.0
  0
LWPOLYLINE
  5
4C
330
17
100
AcDbEntity
  8
SHELF_R
 62
3
100
AcDbPolyline
 90
110
 70
1
 10
66.99339166061804
 20
23.218101995210276
 10
95.99339166061804
 20
23.218101995210276
 10
95.99339166061804
 20
19.38294793293437
 10
95.99339166061804
 20
19.38294793293437
 10
95.9850817542981
 20
19.159810344490296
 10
95.96019807170029
 20
18.937908924350495
 10
95.91887846687213
 20
18.718472992524084
 10
95.86135184784384
 20
18.50271821036884
 10
95.78793690849209
 20
18.291839845903297
 10
95.69904036299587
 20
18.087006152096507
 10
95.59515469266536
 20
17.88935189481967
 10
95.47685541762618
 20
17.699972066313848
 10
95.34479790847385
 20
17.519915819001625
 10
95.19971375556163
 20
17.350180653247946
 10
95.04240671603567
 20
17.19170689127057
 10
94.8737482610706
 20
17.04537246781362
 10
94.69467274797361
 20
16.911988066443968
 10
94.50617224390342
 20
16.792292628414913
 10
94.30929102988006
 20
16.686949258977762
 10
94.10511981553334
 20
16.596541553820117
 10
93.89478969663956
 20
16.521570365982285
 10
93.67946588892157
 20
16.462451031162715
 10
93.46034127282641
 20
16.41951106678411
 10
93.4603412728265
 20
16.4195110667836
 10
93.01814793330728
 20
16.355335346174655
 10
92.57595459378805
 20
16.302709304611227
 10
92.13376125426883
 20
16.26233743604908
 10
91.69156791474961
 20
16.23476019035948
 10
91.24937457523039
 20
16.220346738438195
 10
90.80718123571117
 20
16.21929003019096
 10
90.36498789619195
 20
16.23160421155299
 10
89.92279455667273
 20
16.257124435120147
 10
89.4806012171535
 20
16.295509066927252
 10
89.03840787763428
 20
16.346244259831337
 10
88.59621453811505
 20
16.40865083227729
 10
88.15402119859584
 20
16.481893360361283
 10
87.7118278590766
 20
16.564991361477922
 10
87.2696345195574
 20
16.65683241983865
 10
86.82744118003816
 20
16.756187078152294
 10
86.38524784051896
 20
16.861725296115964
 10
85.94305450099972
 20
16.9720342553901
 10
85.50086116148051
 20
17.085637272705952
 10
85.05866782196128
 20
17.201013567919688
 10
84.61647448244206
 20
17.31661862238232
 10
84.17428114292284
 20
17.430904855091995
 10
83.73208780340362
 20
17.54234233984141
 10
83.2898944638844
 20
17.64943928602426
 10
82.84770112436517
 20
17.750762008928035
 10
82.40550778484595
 20
17.84495412217541
 10
81.96331444532673
 20
17.930754695388714
 10
81.52112110580751
 20
18.007015134004547
 10
81.07892776628829
 20
18.072714555272256
 10
80.63673442676907
 20
18.12697345460043
 10
80.19454108724985
 20
18.16906547930344
 10
79.75234774773062
 20
18.198427152134855
 10
79.3101544082114
 20
18.2146654144411
 10
78.86796106869218
 20
18.217562887956404
 10
78.42576772917296
 20
18.20708078480095
 10
77.98357438965374
 20
18.183359426726014
 10
77.54138105013452
 20
18.146716366655767
 10
77.0991877106153
 20
18.09764213767184
 10
76.65699437109608
 20
18.036793686348176
 10
76.21480103157685
 20
17.96498557834275
 10
75.77260769205762
 20
17.88317909397543
 10
75.33041435253841
 20
17.792469359766613
 10
74.88822101301918
 20
17.69407068820462
 10
74.44602767349997
 20
17.58930032199501
 10
74.00383433398073
 20
17.479560800404414
 10
73.56164099446153
 20
17.36632118375684
 10
73.11944765494229
 20
17.25109738742634
 10
72.67725431542307
 20
17.135431888590887
 10
72.23506097590385
 20
17.02087307740871
 10
71.79286763638463
 20
16.908954529038738
 10
71.792867636356
 20
16.908954529153817
 10
71.45942531294602
 20
16.83791364852823
 10
71.12191699163813
 20
16.78976053015549
 10
70.78191182408169
 20
16.764719048649454
 10
70.4409905703226
 20
16.762905627456746
 10
70.1007382494963
 20
16.784328697577877
 10
69.7627367707195
 20
16.82888865836992
 10
69.42855757844092
 20
16.89637834061196
 10
69.09975434644474
 20
16.98648396968119
 10
68.77785575447376
 20
17.09878662436128
 10
68.46435838105553
 20
17.232764184500894
 10
68.16071974557407
 20
17.387793758466785
 10
67.86835153193643
 20
17.56315457910648
 10
67.58861302533853
 20
17.758031354755843
 10
67.32280479264445
 20
17.971518059712224
 10
67.07216263576012
 20
18.202622146550738
 10
66.83785184611412
 20
18.450269160699037
 10
66.62096178695715
 20
18.713307735816784
 10
66.42250082866877
 20
18.990514946755383
 10
66.24339166061804
 20
19.280601995210276
 10
66.24339166061804
 20
19.905601995210276
 10
66.24339166061804
 20
19.905601995210276
 10
66.32736501769553
 20
19.91031783779033
 10
66.41028236108528
 20
19.92440606107391
 10
66.49110095708443
 20
19.94768949747899
 10
66.56880446495622
 20
19.979875344283442
 10
66.64241571800454
 20
20.020558845789054
 10
66.7110090120121
 20
20.069228383359246
 10
66.77372174650796
 20
20.12527190932036
 10
66.82976527246907
 20
20.187984643816236
 10
66.87843481003927
 20
20.256577937823778
 10
66.91911831154486
 20
20.33018919087209
 10
66.95130415834932
 20
20.407892698743893
 10
66.97458759475441
 20
20.48871129474304
 10
66.98867581803798
 20
20.57162863813278
 10
66.99339166061804
 20
20.655601995210276
 10
66.99339166061804
 20
23.218101995210276
  0
LWPOLYLINE
  5
4D
330
17
100
AcDbEntity
  8
BRACKET_OUTLINE
 62
6
100
AcDbPolyline
 90
87
 70
1
 10
74.16839166061804
 20
23.218101995210276
 10
74.13101179818032
 20
23.17385406735258
 10
74.08876538024093
 20
23.134226130151006
 10
74.04221937624351
 20
23.099750011642186
 10
73.99199845836802
 20
23.0708883997103
 10
73.93877661809724
 20
23.048028632569043
 10
73.88326812089173
 20
23.0314775004764
 10
73.82621792036683
 20
23.02145712844583
 10
73.76839166061805
 20
23.01810199521026
 10
72.96839166061804
 20
23.01810199521026
 10
72.96839166061804
 20
19.371655385803535
 10
72.98486757866209
 20
19.353477011547824
 10
72.99948236839705
 20
19.333771248761792
 10
73.0120952814085
 20
19.312727874713403
 10
73.02258484844923
 20
19.290549548598193
 10
73.03085004925447
 20
19.267449859820516
 10
73.03681128542222
 20
19.243651271010947
 10
73.04041114698946
 20
19.219382975589298
 10
73.0416149653214
 20
19.194878690506897
 10
73.04041114698946
 20
19.170374405424525
 10
73.03681128542222
 20
19.146106110002876
 10
73.03085004925447
 20
19.122307521193278
 10
73.02258484844923
 20
19.09920783241563
 10
73.0120952814085
 20
19.07702950630042
 10
72.99948236839705
 20
19.055986132252002
 10
72.98486757866209
 20
19.036280369466
 10
72.96839166061804
 20
19.01810199521026
 10
72.95021328636233
 20
19.001626077166208
 10
72.93050752357631
 20
18.987011287431272
 10
72.9094641495279
 20
18.97439837441982
 10
72.88728582341268
 20
18.963908807379084
 10
72.86418613463502
 20
18.955643606573858
 10
72.84038754582544
 20
18.949682370406094
 10
72.8161192504038
 20
18.946082508838856
 10
72.7916149653214
 20
18.944878690506897
 10
72.76711068023901
 20
18.946082508838856
 10
72.74284238481738
 20
18.949682370406094
 10
72.7190437960078
 20
18.955643606573858
 10
72.69594410723013
 20
18.963908807379084
 10
72.67376578111491
 20
18.97439837441982
 10
72.6527224070665
 20
18.987011287431272
 10
72.6330166442805
 20
19.001626077166208
 10
72.61483827002478
 20
19.01810199521026
 10
71.72194505121132
 20
19.01810199521026
 10
71.7037666769556
 20
19.001626077166208
 10
71.68406091416958
 20
18.987011287431272
 10
71.66301754012119
 20
18.97439837441982
 10
71.64083921400595
 20
18.963908807379084
 10
71.6177395252283
 20
18.955643606573858
 10
71.59394093641872
 20
18.949682370406094
 10
71.56967264099707
 20
18.946082508838856
 10
71.54516835591468
 20
18.944878690506897
 10
71.5206640708323
 20
18.946082508838856
 10
71.49639577541065
 20
18.949682370406094
 10
71.47259718660106
 20
18.955643606573858
 10
71.44949749782342
 20
18.963908807379084
 10
71.42731917170818
 20
18.97439837441982
 10
71.40627579765979
 20
18.987011287431272
 10
71.38657003487377
 20
19.001626077166208
 10
71.36839166061804
 20
19.01810199521026
 10
71.351915742574
 20
19.036280369466
 10
71.33730095283904
 20
19.055986132252002
 10
71.32468803982759
 20
19.07702950630042
 10
71.31419847278686
 20
19.09920783241563
 10
71.30593327198163
 20
19.122307521193278
 10
71.29997203581388
 20
19.146106110002876
 10
71.29637217424664
 20
19.170374405424525
 10
71.29516835591468
 20
19.194878690506897
 10
71.29637217424664
 20
19.219382975589298
 10
71.29997203581388
 20
19.243651271010947
 10
71.30593327198163
 20
19.267449859820516
 10
71.31419847278686
 20
19.290549548598193
 10
71.32468803982759
 20
19.312727874713403
 10
71.33730095283904
 20
19.333771248761792
 10
71.351915742574
 20
19.353477011547824
 10
71.36839166061804
 20
19.371655385803535
 10
71.36839166061804
 20
23.01810199521026
 10
70.56839166061805
 20
23.01810199521026
 10
70.51056540086927
 20
23.02145712844583
 10
70.45351520034436
 20
23.0314775004764
 10
70.39800670313886
 20
23.048028632569043
 10
70.34478486286807
 20
23.0708883997103
 10
70.29456394499259
 20
23.099750011642186
 10
70.24801794099517
 20
23.134226130151006
 10
70.20577152305577
 20
23.17385406735258
 10
70.16839166061804
 20
23.218101995210276
 10
74.16839166061804
 20
23.218101995210276
  0
LWPOLYLINE
  5
4E
330
17
100
AcDbEntity
  8
BRACKET_OUTLINE
 62
6
100
AcDbPolyline
 90
87
 70
1
 10
85.66839166061804
 20
23.218101995210276
 10
85.63101179818032
 20
23.17385406735258
 10
85.58876538024093
 20
23.134226130151006
 10
85.54221937624351
 20
23.099750011642186
 10
85.49199845836802
 20
23.0708883997103
 10
85.43877661809724
 20
23.048028632569043
 10
85.38326812089173
 20
23.0314775004764
 10
85.32621792036683
 20
23.02145712844583
 10
85.26839166061805
 20
23.01810199521026
 10
84.46839166061804
 20
23.01810199521026
 10
84.46839166061804
 20
19.371655385803535
 10
84.48486757866209
 20
19.353477011547824
 10
84.49948236839705
 20
19.333771248761792
 10
84.5120952814085
 20
19.312727874713403
 10
84.52258484844923
 20
19.290549548598193
 10
84.53085004925447
 20
19.267449859820516
 10
84.53681128542222
 20
19.243651271010947
 10
84.54041114698946
 20
19.219382975589298
 10
84.5416149653214
 20
19.194878690506897
 10
84.54041114698946
 20
19.170374405424525
 10
84.53681128542222
 20
19.146106110002876
 10
84.53085004925447
 20
19.122307521193278
 10
84.52258484844923
 20
19.09920783241563
 10
84.5120952814085
 20
19.07702950630042
 10
84.49948236839705
 20
19.055986132252002
 10
84.48486757866209
 20
19.036280369466
 10
84.46839166061804
 20
19.01810199521026
 10
84.45021328636233
 20
19.001626077166208
 10
84.43050752357631
 20
18.987011287431272
 10
84.4094641495279
 20
18.97439837441982
 10
84.38728582341268
 20
18.963908807379084
 10
84.36418613463502
 20
18.955643606573858
 10
84.34038754582544
 20
18.949682370406094
 10
84.3161192504038
 20
18.946082508838856
 10
84.2916149653214
 20
18.944878690506897
 10
84.26711068023901
 20
18.946082508838856
 10
84.24284238481738
 20
18.949682370406094
 10
84.2190437960078
 20
18.955643606573858
 10
84.19594410723013
 20
18.963908807379084
 10
84.17376578111491
 20
18.97439837441982
 10
84.1527224070665
 20
18.987011287431272
 10
84.1330166442805
 20
19.001626077166208
 10
84.11483827002478
 20
19.01810199521026
 10
83.22194505121132
 20
19.01810199521026
 10
83.2037666769556
 20
19.001626077166208
 10
83.18406091416958
 20
18.987011287431272
 10
83.16301754012119
 20
18.97439837441982
 10
83.14083921400595
 20
18.963908807379084
 10
83.1177395252283
 20
18.955643606573858
 10
83.09394093641872
 20
18.949682370406094
 10
83.06967264099707
 20
18.946082508838856
 10
83.04516835591468
 20
18.944878690506897
 10
83.0206640708323
 20
18.946082508838856
 10
82.99639577541065
 20
18.949682370406094
 10
82.97259718660106
 20
18.955643606573858
 10
82.94949749782342
 20
18.963908807379084
 10
82.92731917170818
 20
18.97439837441982
 10
82.90627579765979
 20
18.987011287431272
 10
82.88657003487377
 20
19.001626077166208
 10
82.86839166061804
 20
19.01810199521026
 10
82.851915742574
 20
19.036280369466
 10
82.83730095283904
 20
19.055986132252002
 10
82.82468803982759
 20
19.07702950630042
 10
82.81419847278687
 20
19.09920783241563
 10
82.80593327198163
 20
19.122307521193278
 10
82.79997203581388
 20
19.146106110002876
 10
82.79637217424664
 20
19.170374405424525
 10
82.79516835591468
 20
19.194878690506897
 10
82.79637217424664
 20
19.219382975589298
 10
82.79997203581388
 20
19.243651271010947
 10
82.80593327198163
 20
19.267449859820516
 10
82.81419847278687
 20
19.290549548598193
 10
82.82468803982759
 20
19.312727874713403
 10
82.83730095283904
 20
19.333771248761792
 10
82.851915742574
 20
19.353477011547824
 10
82.86839166061804
 20
19.371655385803535
 10
82.86839166061804
 20
23.01810199521026
 10
82.06839166061805
 20
23.01810199521026
 10
82.01056540086927
 20
23.02145712844583
 10
81.95351520034437
 20
23.0314775004764
 10
81.89800670313886
 20
23.048028632569043
 10
81.84478486286807
 20
23.0708883997103
 10
81.79456394499259
 20
23.099750011642186
 10
81.74801794099517
 20
23.134226130151006
 10
81.70577152305577
 20
23.17385406735258
 10
81.66839166061804
 20
23.218101995210276
 10
85.66839166061804
 20
23.218101995210276
  0
LWPOLYLINE
  5
4F
330
17
100
AcDbEntity
  8
BRACKET_OUTLINE
 62
6
100
AcDbPolyline
 90
87
 70
1
 10
94.81839166061805
 20
23.218101995210276
 10
94.78101179818032
 20
23.17385406735258
 10
94.73876538024092
 20
23.134226130151006
 10
94.6922193762435
 20
23.099750011642186
 10
94.64199845836802
 20
23.0708883997103
 10
94.58877661809723
 20
23.048028632569043
 10
94.53326812089173
 20
23.0314775004764
 10
94.47621792036682
 20
23.02145712844583
 10
94.41839166061804
 20
23.01810199521026
 10
93.61839166061804
 20
23.01810199521026
 10
93.61839166061804
 20
19.371655385803535
 10
93.6348675786621
 20
19.353477011547824
 10
93.64948236839705
 20
19.333771248761792
 10
93.6620952814085
 20
19.312727874713403
 10
93.67258484844923
 20
19.290549548598193
 10
93.68085004925446
 20
19.267449859820516
 10
93.68681128542221
 20
19.243651271010947
 10
93.69041114698946
 20
19.219382975589298
 10
93.6916149653214
 20
19.194878690506897
 10
93.69041114698946
 20
19.170374405424525
 10
93.68681128542221
 20
19.146106110002876
 10
93.68085004925446
 20
19.122307521193278
 10
93.67258484844923
 20
19.09920783241563
 10
93.6620952814085
 20
19.07702950630042
 10
93.64948236839705
 20
19.055986132252002
 10
93.6348675786621
 20
19.036280369466
 10
93.61839166061804
 20
19.01810199521026
 10
93.60021328636232
 20
19.001626077166208
 10
93.5805075235763
 20
18.987011287431272
 10
93.55946414952791
 20
18.97439837441982
 10
93.53728582341267
 20
18.963908807379084
 10
93.51418613463503
 20
18.955643606573858
 10
93.49038754582544
 20
18.949682370406094
 10
93.46611925040379
 20
18.946082508838856
 10
93.4416149653214
 20
18.944878690506897
 10
93.41711068023902
 20
18.946082508838856
 10
93.39284238481737
 20
18.949682370406094
 10
93.36904379600779
 20
18.955643606573858
 10
93.34594410723014
 20
18.963908807379084
 10
93.3237657811149
 20
18.97439837441982
 10
93.30272240706651
 20
18.987011287431272
 10
93.2830166442805
 20
19.001626077166208
 10
93.26483827002477
 20
19.01810199521026
 10
92.37194505121131
 20
19.01810199521026
 10
92.35376667695559
 20
19.001626077166208
 10
92.33406091416958
 20
18.987011287431272
 10
92.31301754012118
 20
18.97439837441982
 10
92.29083921400596
 20
18.963908807379084
 10
92.2677395252283
 20
18.955643606573858
 10
92.24394093641871
 20
18.949682370406094
 10
92.21967264099708
 20
18.946082508838856
 10
92.19516835591469
 20
18.944878690506897
 10
92.17066407083229
 20
18.946082508838856
 10
92.14639577541065
 20
18.949682370406094
 10
92.12259718660107
 20
18.955643606573858
 10
92.0994974978234
 20
18.963908807379084
 10
92.07731917170818
 20
18.97439837441982
 10
92.05627579765978
 20
18.987011287431272
 10
92.03657003487376
 20
19.001626077166208
 10
92.01839166061805
 20
19.01810199521026
 10
92.001915742574
 20
19.036280369466
 10
91.98730095283905
 20
19.055986132252002
 10
91.97468803982758
 20
19.07702950630042
 10
91.96419847278686
 20
19.09920783241563
 10
91.95593327198162
 20
19.122307521193278
 10
91.94997203581387
 20
19.146106110002876
 10
91.94637217424663
 20
19.170374405424525
 10
91.94516835591469
 20
19.194878690506897
 10
91.94637217424663
 20
19.219382975589298
 10
91.94997203581387
 20
19.243651271010947
 10
91.95593327198162
 20
19.267449859820516
 10
91.96419847278686
 20
19.290549548598193
 10
91.97468803982758
 20
19.312727874713403
 10
91.98730095283905
 20
19.333771248761792
 10
92.001915742574
 20
19.353477011547824
 10
92.01839166061805
 20
19.371655385803535
 10
92.01839166061805
 20
23.01810199521026
 10
91.21839166061804
 20
23.01810199521026
 10
91.16056540086926
 20
23.02145712844583
 10
91.10351520034436
 20
23.0314775004764
 10
91.04800670313885
 20
23.048028632569043
 10
90.99478486286807
 20
23.0708883997103
 10
90.94456394499258
 20
23.099750011642186
 10
90.89801794099516
 20
23.134226130151006
 10
90.85577152305576
 20
23.17385406735258
 10
90.81839166061805
 20
23.218101995210276
 10
94.81839166061805
 20
23.218101995210276
  0
LINE
  5
50
330
17
100
AcDbEntity
  8
BRACKET_CUT_LINE
 62
4
100
AcDbLine
 10
71.36839166061804
 20
23.01810199521026
 30
0.0
 11
72.96839166061804
 21
23.01810199521026
 31
0.0
  0
LINE
  5
51
330
17
100
AcDbEntity
  8
BRACKET_CUT_LINE
 62
4
100
AcDbLine
 10
82.86839166061804
 20
23.01810199521026
 30
0.0
 11
84.46839166061804
 21
23.01810199521026
 31
0.0
  0
LINE
  5
52
330
17
100
AcDbEntity
  8
BRACKET_CUT_LINE
 62
4
100
AcDbLine
 10
92.01839166061805
 20
23.01810199521026
 30
0.0
 11
93.61839166061804
 21
23.01810199521026
 31
0.0
  0
LWPOLYLINE
  5
53
330
17
100
AcDbEntity
  8
SHELF_R
 62
3
100
AcDbPolyline
 90
110
 70
1
 10
90.47365050711227
 20
23.668101995210264
 10
90.47365050711227
 20
26.230601995210264
 10
90.47365050711227
 20
26.230601995210264
 10
90.47836634969232
 20
26.31457535228776
 10
90.4924545729759
 20
26.3974926956775
 10
90.51573800938098
 20
26.478311291676647
 10
90.54792385618545
 20
26.55601479954845
 10
90.58860735769105
 20
26.629626052596763
 10
90.63727689526124
 20
26.698219346604304
 10
90.69332042122235
 20
26.76093208110018
 10
90.75603315571821
 20
26.816975607061295
 10
90.82462644972576
 20
26.865645144631486
 10
90.8982377027741
 20
26.906328646137098
 10
90.97594121064589
 20
26.93851449294155
 10
91.05675980664503
 20
26.96179792934663
 10
91.13967715003477
 20
26.97588615263021
 10
91.22365050711227
 20
26.980601995210264
 10
91.22365050711227
 20
27.605601995210264
 10
91.22365050711227
 20
27.605601995210264
 10
91.07991480546764
 20
27.90698187199044
 10
90.91638462771569
 20
28.19809639072784
 10
90.73378925161148
 20
28.477647299652602
 10
90.53294297790248
 20
28.74438791596836
 10
90.31474149887998
 20
28.997128685547978
 10
90.08015790395758
 20
29.23474248785874
 10
89.83023834009018
 20
29.456169662459388
 10
89.56609734638602
 20
29.66042273465237
 10
89.2889128837179
 20
29.846590819217624
 10
88.99992108149912
 20
30.013843682588146
 10
88.70041072505148
 20
30.161435445352566
 10
88.39171750814953
 20
30.28870790857229
 10
88.07521807637222
 20
30.395093489079926
 10
87.75232388782636
 20
30.480117750668057
 10
87.42447491862026
 20
30.543401519880945
 10
87.09313324115885
 20
30.584662576973102
 10
86.7597765038984
 20
30.603716914493987
 10
86.42589134163823
 20
30.60047955788616
 10
86.09296674573724
 20
30.574964944436886
 10
86.09296674593648
 20
30.57496494263114
 10
85.64255175504809
 20
30.519088653087834
 10
85.19213676415973
 20
30.45139331845283
 10
84.74172177327134
 20
30.372819134679986
 10
84.29130678238296
 20
30.284457390113772
 10
83.84089179149458
 20
30.187535308981268
 10
83.39047680060621
 20
30.083399006919734
 10
82.94006180971783
 20
29.97349479526477
 10
82.48964681882944
 20
29.859349093756663
 10
82.03923182794107
 20
29.742547230650217
 10
81.58881683705269
 20
29.62471142466535
 10
81.13840184616431
 20
29.507478254579752
 10
80.68798685527594
 20
29.3924759293796
 10
80.23757186438755
 20
29.281301674655452
 10
79.78715687349919
 20
29.175499549315248
 10
79.3367418826108
 20
29.076539000710028
 10
78.88632689172242
 20
28.9857944560126
 10
78.43591190083404
 20
28.904526233296878
 10
77.98549690994565
 20
28.833863037437283
 10
77.53508191905729
 20
28.77478628393598
 10
77.0846669281689
 20
28.728116468398895
 10
76.63425193728052
 20
28.69450177096988
 10
76.18383694639215
 20
28.674409053991496
 10
75.73342195550377
 20
28.668117377923522
 10
75.2830069646154
 20
28.67571412557325
 10
74.832591973727
 20
28.697093788467498
 10
74.38217698283863
 20
28.731959432221316
 10
73.93176199195025
 20
28.779826820552245
 10
73.48134700106188
 20
28.840031140662205
 10
73.0309320101735
 20
28.91173623658159
 10
72.58051701928511
 20
28.993946222236076
 10
72.13010202839675
 20
29.085519312947355
 10
71.67968703750836
 20
29.18518368326633
 10
71.22927204661998
 20
29.29155513089566
 10
70.7788570557316
 20
29.403156301373514
 10
70.32844206484323
 20
29.518437206513852
 10
69.87802707395485
 20
29.63579675163035
 10
69.42761208306646
 20
29.753604972559856
 10
68.97719709217809
 20
29.870225673643517
 10
68.52678210128971
 20
29.984039152255008
 10
68.07636711040134
 20
30.093464694262934
 10
67.62595211951296
 20
30.196982527996113
 10
67.17553712862457
 20
30.29315493180127
 10
66.7251221377362
 20
30.380646202037667
 10
66.27470714684782
 20
30.458241204180553
 10
65.82429215595944
 20
30.524862249384086
 10
65.37387716507106
 20
30.579584062110627
 10
64.92346217418269
 20
30.62164663094748
 10
64.47304718329431
 20
30.65046576412945
 10
64.02263219240592
 20
30.6656412031667
 10
64.02263219240592
 20
30.6656412031667
 10
63.884875715062606
 20
30.671338470830534
 10
63.74752648489728
 20
30.683359073222505
 10
63.61087460341356
 20
30.70167762108622
 10
63.475208699213475
 20
30.726255422990533
 10
63.340815318371945
 20
30.757040567051575
 10
63.20797831920992
 20
30.7939680305781
 10
63.07697827274441
 20
30.83695981740894
 10
62.9480918700818
 20
30.885925122652196
 10
62.82159133800603
 20
30.940760524478236
 10
62.69774386399621
 20
31.001350202561724
 10
62.57681103188784
 20
31.067566182710948
 10
62.45904826936981
 20
31.13926860716785
 10
62.34470430848404
 20
31.216306030007843
 10
62.23402066026736
 20
31.29851573701572
 10
62.12723110464509
 20
31.38572408936153
 10
62.024561196653984
 20
31.477746890351142
 10
61.926227790037224
 20
31.57438977447626
 10
61.832438579217865
 20
31.67544861794258
 10
61.743391660618045
 20
31.78070996980904
 10
61.743391660618045
 20
23.668101995210264
 10
90.47365050711227
 20
23.668101995210264
  0
LWPOLYLINE
  5
54
330
17
100
AcDbEntity
  8
BRACKET_OUTLINE
 62
6
100
AcDbPolyline
 90
87
 70
1
 10
83.29865050711226
 20
23.668101995210264
 10
83.33603036954997
 20
23.71234992306796
 10
83.37827678748937
 20
23.751977860269534
 10
83.4248227914868
 20
23.786453978778354
 10
83.47504370936228
 20
23.81531559071024
 10
83.52826554963308
 20
23.838175357851497
 10
83.58377404683858
 20
23.85472648994414
 10
83.64082424736347
 20
23.86474686197471
 10
83.69865050711226
 20
23.86810199521028
 10
84.49865050711226
 20
23.86810199521028
 10
84.49865050711226
 20
27.514548604617005
 10
84.48217458906822
 20
27.532726978872716
 10
84.46755979933326
 20
27.55243274165875
 10
84.4549468863218
 20
27.573476115707138
 10
84.44445731928107
 20
27.595654441822347
 10
84.43619211847584
 20
27.618754130600024
 10
84.43023088230808
 20
27.642552719409593
 10
84.42663102074084
 20
27.666821014831243
 10
84.4254272024089
 20
27.691325299913643
 10
84.42663102074084
 20
27.715829584996015
 10
84.43023088230808
 20
27.740097880417665
 10
84.43619211847584
 20
27.763896469227262
 10
84.44445731928107
 20
27.78699615800491
 10
84.4549468863218
 20
27.80917448412012
 10
84.46755979933326
 20
27.830217858168538
 10
84.48217458906822
 20
27.84992362095454
 10
84.49865050711226
 20
27.86810199521028
 10
84.51682888136799
 20
27.884577913254333
 10
84.53653464415399
 20
27.899192702989268
 10
84.5575780182024
 20
27.91180561600072
 10
84.57975634431762
 20
27.922295183041456
 10
84.60285603309528
 20
27.930560383846682
 10
84.62665462190486
 20
27.936521620014446
 10
84.65092291732651
 20
27.940121481581684
 10
84.6754272024089
 20
27.941325299913643
 10
84.69993148749128
 20
27.940121481581684
 10
84.72419978291293
 20
27.936521620014446
 10
84.74799837172252
 20
27.930560383846682
 10
84.77109806050017
 20
27.922295183041456
 10
84.79327638661539
 20
27.91180561600072
 10
84.8143197606638
 20
27.899192702989268
 10
84.83402552344981
 20
27.884577913254333
 10
84.85220389770554
 20
27.86810199521028
 10
85.74509711651899
 20
27.86810199521028
 10
85.76327549077472
 20
27.884577913254333
 10
85.78298125356072
 20
27.899192702989268
 10
85.80402462760912
 20
27.91180561600072
 10
85.82620295372435
 20
27.922295183041456
 10
85.84930264250201
 20
27.930560383846682
 10
85.8731012313116
 20
27.936521620014446
 10
85.89736952673323
 20
27.940121481581684
 10
85.92187381181563
 20
27.941325299913643
 10
85.94637809689802
 20
27.940121481581684
 10
85.97064639231965
 20
27.936521620014446
 10
85.99444498112925
 20
27.930560383846682
 10
86.0175446699069
 20
27.922295183041456
 10
86.03972299602212
 20
27.91180561600072
 10
86.06076637007052
 20
27.899192702989268
 10
86.08047213285653
 20
27.884577913254333
 10
86.09865050711227
 20
27.86810199521028
 10
86.1151264251563
 20
27.84992362095454
 10
86.12974121489125
 20
27.830217858168538
 10
86.1423541279027
 20
27.80917448412012
 10
86.15284369494344
 20
27.78699615800491
 10
86.16110889574867
 20
27.763896469227262
 10
86.16707013191643
 20
27.740097880417665
 10
86.17066999348367
 20
27.715829584996015
 10
86.17187381181563
 20
27.691325299913643
 10
86.17066999348367
 20
27.666821014831243
 10
86.16707013191643
 20
27.642552719409593
 10
86.16110889574867
 20
27.618754130600024
 10
86.15284369494344
 20
27.595654441822347
 10
86.1423541279027
 20
27.573476115707138
 10
86.12974121489125
 20
27.55243274165875
 10
86.1151264251563
 20
27.532726978872716
 10
86.09865050711227
 20
27.514548604617005
 10
86.09865050711227
 20
23.86810199521028
 10
86.89865050711227
 20
23.86810199521028
 10
86.95647676686104
 20
23.86474686197471
 10
87.01352696738594
 20
23.85472648994414
 10
87.06903546459145
 20
23.838175357851497
 10
87.12225730486225
 20
23.81531559071024
 10
87.17247822273771
 20
23.786453978778354
 10
87.21902422673514
 20
23.751977860269534
 10
87.26127064467454
 20
23.71234992306796
 10
87.29865050711226
 20
23.668101995210264
 10
83.29865050711226
 20
23.668101995210264
  0
LWPOLYLINE
  5
55
330
17
100
AcDbEntity
  8
BRACKET_OUTLINE
 62
6
100
AcDbPolyline
 90
87
 70
1
 10
71.79865050711226
 20
23.668101995210264
 10
71.83603036954997
 20
23.71234992306796
 10
71.87827678748937
 20
23.751977860269534
 10
71.9248227914868
 20
23.786453978778354
 10
71.97504370936228
 20
23.81531559071024
 10
72.02826554963308
 20
23.838175357851497
 10
72.08377404683858
 20
23.85472648994414
 10
72.14082424736347
 20
23.86474686197471
 10
72.19865050711226
 20
23.86810199521028
 10
72.99865050711226
 20
23.86810199521028
 10
72.99865050711226
 20
27.514548604617005
 10
72.98217458906821
 20
27.532726978872716
 10
72.96755979933326
 20
27.55243274165875
 10
72.9549468863218
 20
27.573476115707138
 10
72.94445731928107
 20
27.595654441822347
 10
72.93619211847584
 20
27.618754130600024
 10
72.93023088230808
 20
27.642552719409593
 10
72.92663102074084
 20
27.666821014831243
 10
72.9254272024089
 20
27.691325299913643
 10
72.92663102074084
 20
27.715829584996015
 10
72.93023088230808
 20
27.740097880417665
 10
72.93619211847584
 20
27.763896469227262
 10
72.94445731928107
 20
27.78699615800491
 10
72.9549468863218
 20
27.80917448412012
 10
72.96755979933326
 20
27.830217858168538
 10
72.98217458906821
 20
27.84992362095454
 10
72.99865050711226
 20
27.86810199521028
 10
73.01682888136799
 20
27.884577913254333
 10
73.03653464415399
 20
27.899192702989268
 10
73.05757801820239
 20
27.91180561600072
 10
73.07975634431762
 20
27.922295183041456
 10
73.10285603309528
 20
27.930560383846682
 10
73.12665462190486
 20
27.936521620014446
 10
73.15092291732651
 20
27.940121481581684
 10
73.1754272024089
 20
27.941325299913643
 10
73.19993148749128
 20
27.940121481581684
 10
73.22419978291293
 20
27.936521620014446
 10
73.24799837172252
 20
27.930560383846682
 10
73.27109806050017
 20
27.922295183041456
 10
73.29327638661539
 20
27.91180561600072
 10
73.31431976066379
 20
27.899192702989268
 10
73.33402552344981
 20
27.884577913254333
 10
73.35220389770554
 20
27.86810199521028
 10
74.24509711651899
 20
27.86810199521028
 10
74.2632754907747
 20
27.884577913254333
 10
74.28298125356072
 20
27.899192702989268
 10
74.30402462760912
 20
27.91180561600072
 10
74.32620295372435
 20
27.922295183041456
 10
74.34930264250201
 20
27.930560383846682
 10
74.3731012313116
 20
27.936521620014446
 10
74.39736952673323
 20
27.940121481581684
 10
74.42187381181563
 20
27.941325299913643
 10
74.44637809689802
 20
27.940121481581684
 10
74.47064639231965
 20
27.936521620014446
 10
74.49444498112923
 20
27.930560383846682
 10
74.5175446699069
 20
27.922295183041456
 10
74.53972299602212
 20
27.91180561600072
 10
74.56076637007052
 20
27.899192702989268
 10
74.58047213285653
 20
27.884577913254333
 10
74.59865050711227
 20
27.86810199521028
 10
74.6151264251563
 20
27.84992362095454
 10
74.62974121489125
 20
27.830217858168538
 10
74.6423541279027
 20
27.80917448412012
 10
74.65284369494344
 20
27.78699615800491
 10
74.66110889574867
 20
27.763896469227262
 10
74.66707013191643
 20
27.740097880417665
 10
74.67066999348367
 20
27.715829584996015
 10
74.67187381181563
 20
27.691325299913643
 10
74.67066999348367
 20
27.666821014831243
 10
74.66707013191643
 20
27.642552719409593
 10
74.66110889574867
 20
27.618754130600024
 10
74.65284369494344
 20
27.595654441822347
 10
74.6423541279027
 20
27.573476115707138
 10
74.62974121489125
 20
27.55243274165875
 10
74.6151264251563
 20
27.532726978872716
 10
74.59865050711227
 20
27.514548604617005
 10
74.59865050711227
 20
23.86810199521028
 10
75.39865050711227
 20
23.86810199521028
 10
75.45647676686104
 20
23.86474686197471
 10
75.51352696738594
 20
23.85472648994414
 10
75.56903546459145
 20
23.838175357851497
 10
75.62225730486225
 20
23.81531559071024
 10
75.67247822273772
 20
23.786453978778354
 10
75.71902422673514
 20
23.751977860269534
 10
75.76127064467454
 20
23.71234992306796
 10
75.79865050711226
 20
23.668101995210264
 10
71.79865050711226
 20
23.668101995210264
  0
LWPOLYLINE
  5
56
330
17
100
AcDbEntity
  8
BRACKET_OUTLINE
 62
6
100
AcDbPolyline
 90
87
 70
1
 10
62.648650507112265
 20
23.668101995210264
 10
62.68603036954998
 20
23.71234992306796
 10
62.72827678748938
 20
23.751977860269534
 10
62.774822791486805
 20
23.786453978778354
 10
62.82504370936228
 20
23.81531559071024
 10
62.87826554963307
 20
23.838175357851497
 10
62.93377404683858
 20
23.85472648994414
 10
62.99082424736348
 20
23.86474686197471
 10
63.04865050711226
 20
23.86810199521028
 10
63.84865050711226
 20
23.86810199521028
 10
63.84865050711226
 20
27.514548604617005
 10
63.83217458906822
 20
27.532726978872716
 10
63.81755979933326
 20
27.55243274165875
 10
63.80494688632181
 20
27.573476115707138
 10
63.79445731928108
 20
27.595654441822347
 10
63.786192118475846
 20
27.618754130600024
 10
63.78023088230809
 20
27.642552719409593
 10
63.77663102074085
 20
27.666821014831243
 10
63.7754272024089
 20
27.691325299913643
 10
63.77663102074085
 20
27.715829584996015
 10
63.78023088230809
 20
27.740097880417665
 10
63.786192118475846
 20
27.763896469227262
 10
63.79445731928108
 20
27.78699615800491
 10
63.80494688632181
 20
27.80917448412012
 10
63.81755979933326
 20
27.830217858168538
 10
63.83217458906822
 20
27.84992362095454
 10
63.84865050711226
 20
27.86810199521028
 10
63.86682888136799
 20
27.884577913254333
 10
63.886534644154
 20
27.899192702989268
 10
63.9075780182024
 20
27.91180561600072
 10
63.929756344317624
 20
27.922295183041456
 10
63.95285603309529
 20
27.930560383846682
 10
63.97665462190487
 20
27.936521620014446
 10
64.0009229173265
 20
27.940121481581684
 10
64.0254272024089
 20
27.941325299913643
 10
64.04993148749129
 20
27.940121481581684
 10
64.07419978291293
 20
27.936521620014446
 10
64.09799837172251
 20
27.930560383846682
 10
64.12109806050017
 20
27.922295183041456
 10
64.1432763866154
 20
27.91180561600072
 10
64.1643197606638
 20
27.899192702989268
 10
64.1840255234498
 20
27.884577913254333
 10
64.20220389770553
 20
27.86810199521028
 10
65.09509711651899
 20
27.86810199521028
 10
65.11327549077471
 20
27.884577913254333
 10
65.13298125356073
 20
27.899192702989268
 10
65.15402462760912
 20
27.91180561600072
 10
65.17620295372436
 20
27.922295183041456
 10
65.199302642502
 20
27.930560383846682
 10
65.22310123131159
 20
27.936521620014446
 10
65.24736952673324
 20
27.940121481581684
 10
65.27187381181562
 20
27.941325299913643
 10
65.29637809689801
 20
27.940121481581684
 10
65.32064639231966
 20
27.936521620014446
 10
65.34444498112924
 20
27.930560383846682
 10
65.36754466990689
 20
27.922295183041456
 10
65.38972299602213
 20
27.91180561600072
 10
65.41076637007052
 20
27.899192702989268
 10
65.43047213285654
 20
27.884577913254333
 10
65.44865050711226
 20
27.86810199521028
 10
65.46512642515631
 20
27.84992362095454
 10
65.47974121489126
 20
27.830217858168538
 10
65.49235412790271
 20
27.80917448412012
 10
65.50284369494345
 20
27.78699615800491
 10
65.51110889574868
 20
27.763896469227262
 10
65.51707013191643
 20
27.740097880417665
 10
65.52066999348366
 20
27.715829584996015
 10
65.52187381181562
 20
27.691325299913643
 10
65.52066999348366
 20
27.666821014831243
 10
65.51707013191643
 20
27.642552719409593
 10
65.51110889574868
 20
27.618754130600024
 10
65.50284369494345
 20
27.595654441822347
 10
65.49235412790271
 20
27.573476115707138
 10
65.47974121489126
 20
27.55243274165875
 10
65.46512642515631
 20
27.532726978872716
 10
65.44865050711226
 20
27.514548604617005
 10
65.44865050711226
 20
23.86810199521028
 10
66.24865050711226
 20
23.86810199521028
 10
66.30647676686104
 20
23.86474686197471
 10
66.36352696738594
 20
23.85472648994414
 10
66.41903546459145
 20
23.838175357851497
 10
66.47225730486224
 20
23.81531559071024
 10
66.52247822273772
 20
23.786453978778354
 10
66.56902422673514
 20
23.751977860269534
 10
66.61127064467453
 20
23.71234992306796
 10
66.64865050711227
 20
23.668101995210264
 10
62.648650507112265
 20
23.668101995210264
  0
LINE
  5
57
330
17
100
AcDbEntity
  8
BRACKET_CUT_LINE
 62
4
100
AcDbLine
 10
86.09865050711227
 20
23.86810199521028
 30
0.0
 11
84.49865050711226
 21
23.86810199521028
 31
0.0
  0
LINE
  5
58
330
17
100
AcDbEntity
  8
BRACKET_CUT_LINE
 62
4
100
AcDbLine
 10
74.59865050711227
 20
23.86810199521028
 30
0.0
 11
72.99865050711226
 21
23.86810199521028
 31
0.0
  0
LINE
  5
59
330
17
100
AcDbEntity
  8
BRACKET_CUT_LINE
 62
4
100
AcDbLine
 10
65.44865050711226
 20
23.86810199521028
 30
0.0
 11
63.84865050711226
 21
23.86810199521028
 31
0.0
  0
ENDSEC
  0
SECTION
  2
OBJECTS
  0
DICTIONARY
  5
A
330
0
100
AcDbDictionary
281
1
  3
ACAD_COLOR
350
B
  3
ACAD_GROUP
350
C
  3
ACAD_LAYOUT
350
D
  3
ACAD_MATERIAL
350
E
  3
ACAD_MLEADERSTYLE
350
F
  3
ACAD_MLINESTYLE
350
10
  3
ACAD_PLOTSETTINGS
350
11
  3
ACAD_PLOTSTYLENAME
350
12
  3
ACAD_SCALELIST
350
14
  3
ACAD_TABLESTYLE
350
15
  3
ACAD_VISUALSTYLE
350
16
  3
EZDXF_META
350
2D
  0
DICTIONARY
  5
B
330
A
100
AcDbDictionary
281
1
  0
DICTIONARY
  5
C
330
A
100
AcDbDictionary
281
1
  0
DICTIONARY
  5
D
330
A
100
AcDbDictionary
281
1
  3
Model
350
1A
  3
Layout1
350
1E
  0
DICTIONARY
  5
E
330
A
100
AcDbDictionary
281
1
  3
ByBlock
350
1F
  3
ByLayer
350
20
  3
Global
350
21
  0
DICTIONARY
  5
F
330
A
100
AcDbDictionary
281
1
  3
Standard
350
2C
  0
DICTIONARY
  5
10
330
A
100
AcDbDictionary
281
1
  3
Standard
350
22
  0
DICTIONARY
  5
11
330
A
100
AcDbDictionary
281
1
  0
ACDBDICTIONARYWDFLT
  5
12
330
A
100
AcDbDictionary
281
1
  3
Normal
350
13
100
AcDbDictionaryWithDefault
340
13
  0
ACDBPLACEHOLDER
  5
13
330
12
  0
DICTIONARY
  5
14
330
A
100
AcDbDictionary
281
1
  0
DICTIONARY
  5
15
330
A
100
AcDbDictionary
281
1
  0
DICTIONARY
  5
16
330
A
100
AcDbDictionary
281
1
  0
LAYOUT
  5
1A
330
D
100
AcDbPlotSettings
  1

  4
A3
  6

 40
7.5
 41
20.0
 42
7.5
 43
20.0
 44
420.0
 45
297.0
 46
0.0
 47
0.0
 48
0.0
 49
0.0
140
0.0
141
0.0
142
1.0
143
1.0
 70
1024
 72
1
 73
0
 74
5
  7

 75
16
 76
0
 77
2
 78
300
147
1.0
148
0.0
149
0.0
100
AcDbLayout
  1
Model
 70
1
 71
0
 10
0.0
 20
0.0
 11
420.0
 21
297.0
 12
0.0
 22
0.0
 32
0.0
 14
1e+20
 24
1e+20
 34
1e+20
 15
-1e+20
 25
-1e+20
 35
-1e+20
146
0.0
 13
0.0
 23
0.0
 33
0.0
 16
1.0
 26
0.0
 36
0.0
 17
0.0
 27
1.0
 37
0.0
 76
1
330
17
  0
LAYOUT
  5
1E
330
D
100
AcDbPlotSettings
  1

  4
A3
  6

 40
7.5
 41
20.0
 42
7.5
 43
20.0
 44
420.0
 45
297.0
 46
0.0
 47
0.0
 48
0.0
 49
0.0
140
0.0
141
0.0
142
1.0
143
1.0
 70
0
 72
1
 73
0
 74
5
  7

 75
16
 76
0
 77
2
 78
300
147
1.0
148
0.0
149
0.0
100
AcDbLayout
  1
Layout1
 70
1
 71
1
 10
0.0
 20
0.0
 11
420.0
 21
297.0
 12
0.0
 22
0.0
 32
0.0
 14
1e+20
 24
1e+20
 34
1e+20
 15
-1e+20
 25
-1e+20
 35
-1e+20
146
0.0
 13
0.0
 23
0.0
 33
0.0
 16
1.0
 26
0.0
 36
0.0
 17
0.0
 27
1.0
 37
0.0
 76
1
330
1B
  0
MATERIAL
  5
1F
102
{ACAD_REACTORS
330
E
102
}
330
E
100
AcDbMaterial
  1
ByBlock
  2

 70
0
 40
1.0
 71
1
 41
1.0
 91
-1023410177
 42
1.0
 72
1
  3

 73
1
 74
1
 75
1
 44
0.5
 73
0
 45
1.0
 46
1.0
 77
1
  4

 78
1
 79
1
170
1
 48
1.0
171
1
  6

172
1
173
1
174
1
140
1.0
141
1.0
175
1
  7

176
1
177
1
178
1
143
1.0
179
1
  8

270
1
271
1
272
1
145
1.0
146
1.0
273
1
  9

274
1
275
1
276
1
 42
1.0
 72
1
  3

 73
1
 74
1
 75
1
 94
63
  0
MATERIAL
  5
20
102
{ACAD_REACTORS
330
E
102
}
330
E
100
AcDbMaterial
  1
ByLayer
  2

 70
0
 40
1.0
 71
1
 41
1.0
 91
-1023410177
 42
1.0
 72
1
  3

 73
1
 74
1
 75
1
 44
0.5
 73
0
 45
1.0
 46
1.0
 77
1
  4

 78
1
 79
1
170
1
 48
1.0
171
1
  6

172
1
173
1
174
1
140
1.0
141
1.0
175
1
  7

176
1
177
1
178
1
143
1.0
179
1
  8

270
1
271
1
272
1
145
1.0
146
1.0
273
1
  9

274
1
275
1
276
1
 42
1.0
 72
1
  3

 73
1
 74
1
 75
1
 94
63
  0
MATERIAL
  5
21
102
{ACAD_REACTORS
330
E
102
}
330
E
100
AcDbMaterial
  1
Global
  2

 70
0
 40
1.0
 71
1
 41
1.0
 91
-1023410177
 42
1.0
 72
1
  3

 73
1
 74
1
 75
1
 44
0.5
 73
0
 45
1.0
 46
1.0
 77
1
  4

 78
1
 79
1
170
1
 48
1.0
171
1
  6

172
1
173
1
174
1
140
1.0
141
1.0
175
1
  7

176
1
177
1
178
1
143
1.0
179
1
  8

270
1
271
1
272
1
145
1.0
146
1.0
273
1
  9

274
1
275
1
276
1
 42
1.0
 72
1
  3

 73
1
 74
1
 75
1
 94
63
  0
MLINESTYLE
  5
22
102
{ACAD_REACTORS
330
10
102
}
330
10
100
AcDbMlineStyle
  2
Standard
 70
0
  3

 62
256
 51
90.0
 52
90.0
 71
2
 49
0.5
 62
256
  6
BYLAYER
 49
-0.5
 62
256
  6
BYLAYER
  0
MLEADERSTYLE
  5
2C
102
{ACAD_REACTORS
330
F
102
}
330
F
100
AcDbMLeaderStyle
179
2
170
2
171
1
172
0
 90
2
 40
0.0
 41
0.0
173
1
 91
-1056964608
 92
-2
290
1
 42
2.0
291
1
 43
8.0
  3
Standard
 44
4.0
300

342
29
174
1
175
1
176
0
178
1
 93
-1056964608
 45
4.0
292
0
297
0
 46
4.0
 94
-1056964608
 47
1.0
 49
1.0
140
1.0
294
1
141
0.0
177
0
142
1.0
295
0
296
0
143
3.75
271
0
272
9
273
9
  0
DICTIONARY
  5
2D
330
A
100
AcDbDictionary
280
1
281
1
  3
CREATED_BY_EZDXF
350
2E
  3
WRITTEN_BY_EZDXF
350
5C
  0
DICTIONARYVAR
  5
2E
330
2D
100
DictionaryVariables
280
0
  1
1.4.3 @ 2026-03-22T05:58:42.440229+00:00
  0
DICTIONARYVAR
  5
5C
330
2D
100
DictionaryVariables
280
0
  1
1.4.3 @ 2026-03-22T05:58:42.458457+00:00
  0
ENDSEC
  0
EOF
