  0
SECTION
  2
HEADER
  9
$ACADVER
  1
AC1024
  9
$ACADMAINTVER
 70
6
  9
$DWGCODEPAGE
  3
ANSI_1252
  9
$LASTSAVEDBY
  1
ezdxf
  9
$INSBASE
 10
0.0
 20
0.0
 30
0.0
  9
$EXTMIN
 10
1e+20
 20
1e+20
 30
1e+20
  9
$EXTMAX
 10
-1e+20
 20
-1e+20
 30
-1e+20
  9
$LIMMIN
 10
0.0
 20
0.0
  9
$LIMMAX
 10
420.0
 20
297.0
  9
$ORTHOMODE
 70
0
  9
$REGENMODE
 70
1
  9
$FILLMODE
 70
1
  9
$QTEXTMODE
 70
0
  9
$MIRRTEXT
 70
1
  9
$LTSCALE
 40
1.0
  9
$ATTMODE
 70
1
  9
$TEXTSIZE
 40
2.5
  9
$TRACEWID
 40
1.0
  9
$TEXTSTYLE
  7
Standard
  9
$CLAYER
  8
0
  9
$CELTYPE
  6
ByLayer
  9
$CECOLOR
 62
256
  9
$CELTSCALE
 40
1.0
  9
$DISPSILH
 70
0
  9
$DIMSCALE
 40
1.0
  9
$DIMASZ
 40
2.5
  9
$DIMEXO
 40
0.625
  9
$DIMDLI
 40
3.75
  9
$DIMRND
 40
0.0
  9
$DIMDLE
 40
0.0
  9
$DIMEXE
 40
1.25
  9
$DIMTP
 40
0.0
  9
$DIMTM
 40
0.0
  9
$DIMTXT
 40
2.5
  9
$DIMCEN
 40
2.5
  9
$DIMTSZ
 40
0.0
  9
$DIMTOL
 70
0
  9
$DIMLIM
 70
0
  9
$DIMTIH
 70
0
  9
$DIMTOH
 70
0
  9
$DIMSE1
 70
0
  9
$DIMSE2
 70
0
  9
$DIMTAD
 70
1
  9
$DIMZIN
 70
8
  9
$DIMBLK
  1

  9
$DIMASO
 70
1
  9
$DIMSHO
 70
1
  9
$DIMPOST
  1

  9
$DIMAPOST
  1

  9
$DIMALT
 70
0
  9
$DIMALTD
 70
3
  9
$DIMALTF
 40
0.03937007874
  9
$DIMLFAC
 40
1.0
  9
$DIMTOFL
 70
1
  9
$DIMTVP
 40
0.0
  9
$DIMTIX
 70
0
  9
$DIMSOXD
 70
0
  9
$DIMSAH
 70
0
  9
$DIMBLK1
  1

  9
$DIMBLK2
  1

  9
$DIMSTYLE
  2
ISO-25
  9
$DIMCLRD
 70
0
  9
$DIMCLRE
 70
0
  9
$DIMCLRT
 70
0
  9
$DIMTFAC
 40
1.0
  9
$DIMGAP
 40
0.625
  9
$DIMJUST
 70
0
  9
$DIMSD1
 70
0
  9
$DIMSD2
 70
0
  9
$DIMTOLJ
 70
0
  9
$DIMTZIN
 70
8
  9
$DIMALTZ
 70
0
  9
$DIMALTTZ
 70
0
  9
$DIMUPT
 70
0
  9
$DIMDEC
 70
2
  9
$DIMTDEC
 70
2
  9
$DIMALTU
 70
2
  9
$DIMALTTD
 70
3
  9
$DIMTXSTY
  7
Standard
  9
$DIMAUNIT
 70
0
  9
$DIMADEC
 70
0
  9
$DIMALTRND
 40
0.0
  9
$DIMAZIN
 70
0
  9
$DIMDSEP
 70
44
  9
$DIMATFIT
 70
3
  9
$DIMFRAC
 70
0
  9
$DIMLDRBLK
  1

  9
$DIMLUNIT
 70
2
  9
$DIMLWD
 70
-2
  9
$DIMLWE
 70
-2
  9
$DIMTMOVE
 70
0
  9
$DIMFXL
 40
1.0
  9
$DIMFXLON
 70
0
  9
$DIMJOGANG
 40
0.785398163397
  9
$DIMTFILL
 70
0
  9
$DIMTFILLCLR
 70
0
  9
$DIMARCSYM
 70
0
  9
$DIMLTYPE
  6

  9
$DIMLTEX1
  6

  9
$DIMLTEX2
  6

  9
$DIMTXTDIRECTION
 70
0
  9
$LUNITS
 70
2
  9
$LUPREC
 70
4
  9
$SKETCHINC
 40
1.0
  9
$FILLETRAD
 40
10.0
  9
$AUNITS
 70
0
  9
$AUPREC
 70
2
  9
$MENU
  1
.
  9
$ELEVATION
 40
0.0
  9
$PELEVATION
 40
0.0
  9
$THICKNESS
 40
0.0
  9
$LIMCHECK
 70
0
  9
$CHAMFERA
 40
0.0
  9
$CHAMFERB
 40
0.0
  9
$CHAMFERC
 40
0.0
  9
$CHAMFERD
 40
0.0
  9
$SKPOLY
 70
0
  9
$TDCREATE
 40
2461169.128275463
  9
$TDUCREATE
 40
2458532.153996898
  9
$TDUPDATE
 40
2461169.128275463
  9
$TDUUPDATE
 40
2458532.1544311
  9
$TDINDWG
 40
0.0
  9
$TDUSRTIMER
 40
0.0
  9
$USRTIMER
 70
1
  9
$ANGBASE
 50
0.0
  9
$ANGDIR
 70
0
  9
$PDMODE
 70
0
  9
$PDSIZE
 40
0.0
  9
$PLINEWID
 40
0.0
  9
$SPLFRAME
 70
0
  9
$SPLINETYPE
 70
6
  9
$SPLINESEGS
 70
8
  9
$HANDSEED
  5
77
  9
$SURFTAB1
 70
6
  9
$SURFTAB2
 70
6
  9
$SURFTYPE
 70
6
  9
$SURFU
 70
6
  9
$SURFV
 70
6
  9
$UCSBASE
  2

  9
$UCSNAME
  2

  9
$UCSORG
 10
0.0
 20
0.0
 30
0.0
  9
$UCSXDIR
 10
1.0
 20
0.0
 30
0.0
  9
$UCSYDIR
 10
0.0
 20
1.0
 30
0.0
  9
$UCSORTHOREF
  2

  9
$UCSORTHOVIEW
 70
0
  9
$UCSORGTOP
 10
0.0
 20
0.0
 30
0.0
  9
$UCSORGBOTTOM
 10
0.0
 20
0.0
 30
0.0
  9
$UCSORGLEFT
 10
0.0
 20
0.0
 30
0.0
  9
$UCSORGRIGHT
 10
0.0
 20
0.0
 30
0.0
  9
$UCSORGFRONT
 10
0.0
 20
0.0
 30
0.0
  9
$UCSORGBACK
 10
0.0
 20
0.0
 30
0.0
  9
$PUCSBASE
  2

  9
$PUCSNAME
  2

  9
$PUCSORG
 10
0.0
 20
0.0
 30
0.0
  9
$PUCSXDIR
 10
1.0
 20
0.0
 30
0.0
  9
$PUCSYDIR
 10
0.0
 20
1.0
 30
0.0
  9
$PUCSORTHOREF
  2

  9
$PUCSORTHOVIEW
 70
0
  9
$PUCSORGTOP
 10
0.0
 20
0.0
 30
0.0
  9
$PUCSORGBOTTOM
 10
0.0
 20
0.0
 30
0.0
  9
$PUCSORGLEFT
 10
0.0
 20
0.0
 30
0.0
  9
$PUCSORGRIGHT
 10
0.0
 20
0.0
 30
0.0
  9
$PUCSORGFRONT
 10
0.0
 20
0.0
 30
0.0
  9
$PUCSORGBACK
 10
0.0
 20
0.0
 30
0.0
  9
$USERI1
 70
0
  9
$USERI2
 70
0
  9
$USERI3
 70
0
  9
$USERI4
 70
0
  9
$USERI5
 70
0
  9
$USERR1
 40
0.0
  9
$USERR2
 40
0.0
  9
$USERR3
 40
0.0
  9
$USERR4
 40
0.0
  9
$USERR5
 40
0.0
  9
$WORLDVIEW
 70
1
  9
$SHADEDGE
 70
3
  9
$SHADEDIF
 70
70
  9
$TILEMODE
 70
1
  9
$MAXACTVP
 70
64
  9
$PINSBASE
 10
0.0
 20
0.0
 30
0.0
  9
$PLIMCHECK
 70
0
  9
$PEXTMIN
 10
1e+20
 20
1e+20
 30
1e+20
  9
$PEXTMAX
 10
-1e+20
 20
-1e+20
 30
-1e+20
  9
$PLIMMIN
 10
0.0
 20
0.0
  9
$PLIMMAX
 10
420.0
 20
297.0
  9
$UNITMODE
 70
0
  9
$VISRETAIN
 70
1
  9
$PLINEGEN
 70
0
  9
$PSLTSCALE
 70
1
  9
$TREEDEPTH
 70
3020
  9
$CMLSTYLE
  2
Standard
  9
$CMLJUST
 70
0
  9
$CMLSCALE
 40
20.0
  9
$PROXYGRAPHICS
 70
1
  9
$MEASUREMENT
 70
1
  9
$CELWEIGHT
370
-1
  9
$ENDCAPS
280
0
  9
$JOINSTYLE
280
0
  9
$LWDISPLAY
290
0
  9
$INSUNITS
 70
1
  9
$HYPERLINKBASE
  1

  9
$STYLESHEET
  1

  9
$XEDIT
290
1
  9
$CEPSNTYPE
380
0
  9
$PSTYLEMODE
290
1
  9
$FINGERPRINTGUID
  2
{EC93E43C-2CF4-43EE-97AF-6339867A199C}
  9
$VERSIONGUID
  2
{8B7BB6F1-4D25-4213-A34B-ABE2FAEBD973}
  9
$EXTNAMES
290
1
  9
$PSVPSCALE
 40
0.0
  9
$OLESTARTUP
290
0
  9
$SORTENTS
280
127
  9
$INDEXCTL
280
0
  9
$HIDETEXT
280
1
  9
$XCLIPFRAME
280
1
  9
$HALOGAP
280
0
  9
$OBSCOLOR
 70
257
  9
$OBSLTYPE
280
0
  9
$INTERSECTIONDISPLAY
280
0
  9
$INTERSECTIONCOLOR
 70
257
  9
$DIMASSOC
280
2
  9
$PROJECTNAME
  1

  9
$CAMERADISPLAY
290
0
  9
$LENSLENGTH
 40
50.0
  9
$CAMERAHEIGHT
 40
0.0
  9
$STEPSPERSEC
 40
24.0
  9
$STEPSIZE
 40
100.0
  9
$3DDWFPREC
 40
2.0
  9
$PSOLWIDTH
 40
0.005
  9
$PSOLHEIGHT
 40
0.08
  9
$LOFTANG1
 40
1.570796326795
  9
$LOFTANG2
 40
1.570796326795
  9
$LOFTMAG1
 40
0.0
  9
$LOFTMAG2
 40
0.0
  9
$LOFTPARAM
 70
7
  9
$LOFTNORMALS
280
1
  9
$LATITUDE
 40
37.795
  9
$LONGITUDE
 40
-122.394
  9
$NORTHDIRECTION
 40
0.0
  9
$TIMEZONE
 70
-8000
  9
$LIGHTGLYPHDISPLAY
280
1
  9
$TILEMODELIGHTSYNCH
280
1
  9
$CMATERIAL
347
20
  9
$SOLIDHIST
280
0
  9
$SHOWHIST
280
1
  9
$DWFFRAME
280
2
  9
$DGNFRAME
280
2
  9
$REALWORLDSCALE
290
1
  9
$INTERFERECOLOR
 62
256
  9
$CSHADOW
280
0
  9
$SHADOWPLANELOCATION
 40
0.0
  0
ENDSEC
  0
SECTION
  2
CLASSES
  0
CLASS
  1
ACDBDICTIONARYWDFLT
  2
AcDbDictionaryWithDefault
  3
ObjectDBX Classes
 90
0
 91
0
280
0
281
0
  0
CLASS
  1
SUN
  2
AcDbSun
  3
SCENEOE
 90
1153
 91
0
280
0
281
0
  0
CLASS
  1
VISUALSTYLE
  2
AcDbVisualStyle
  3
ObjectDBX Classes
 90
4095
 91
0
280
0
281
0
  0
CLASS
  1
MATERIAL
  2
AcDbMaterial
  3
ObjectDBX Classes
 90
1153
 91
0
280
0
281
0
  0
CLASS
  1
SCALE
  2
AcDbScale
  3
ObjectDBX Classes
 90
1153
 91
0
280
0
281
0
  0
CLASS
  1
TABLESTYLE
  2
AcDbTableStyle
  3
ObjectDBX Classes
 90
4095
 91
0
280
0
281
0
  0
CLASS
  1
MLEADERSTYLE
  2
AcDbMLeaderStyle
  3
ACDB_MLEADERSTYLE_CLASS
 90
4095
 91
0
280
0
281
0
  0
CLASS
  1
DICTIONARYVAR
  2
AcDbDictionaryVar
  3
ObjectDBX Classes
 90
0
 91
0
280
0
281
0
  0
CLASS
  1
CELLSTYLEMAP
  2
AcDbCellStyleMap
  3
ObjectDBX Classes
 90
1152
 91
0
280
0
281
0
  0
CLASS
  1
MENTALRAYRENDERSETTINGS
  2
AcDbMentalRayRenderSettings
  3
SCENEOE
 90
1024
 91
0
280
0
281
0
  0
CLASS
  1
ACDBDETAILVIEWSTYLE
  2
AcDbDetailViewStyle
  3
ObjectDBX Classes
 90
1025
 91
0
280
0
281
0
  0
CLASS
  1
ACDBSECTIONVIEWSTYLE
  2
AcDbSectionViewStyle
  3
ObjectDBX Classes
 90
1025
 91
0
280
0
281
0
  0
CLASS
  1
RASTERVARIABLES
  2
AcDbRasterVariables
  3
ISM
 90
0
 91
0
280
0
281
0
  0
CLASS
  1
ACDBPLACEHOLDER
  2
AcDbPlaceHolder
  3
ObjectDBX Classes
 90
0
 91
0
280
0
281
0
  0
CLASS
  1
LAYOUT
  2
AcDbLayout
  3
ObjectDBX Classes
 90
0
 91
0
280
0
281
0
  0
ENDSEC
  0
SECTION
  2
TABLES
  0
TABLE
  2
VPORT
  5
8
330
0
100
AcDbSymbolTable
 70
1
  0
VPORT
  5
23
330
8
100
AcDbSymbolTableRecord
100
AcDbViewportTableRecord
  2
*Active
 70
0
 10
0.0
 20
0.0
 11
1.0
 21
1.0
 12
0.0
 22
0.0
 13
0.0
 23
0.0
 14
0.5
 24
0.5
 15
0.5
 25
0.5
 16
0.0
 26
0.0
 36
1.0
 17
0.0
 27
0.0
 37
0.0
 40
1000.0
 41
1.34
 42
50.0
 43
0.0
 44
0.0
 50
0.0
 51
0.0
 71
0
 72
1000
 73
1
 74
3
 75
0
 76
0
 77
0
 78
0
281
0
 65
0
146
0.0
  0
ENDTAB
  0
TABLE
  2
LTYPE
  5
2
330
0
100
AcDbSymbolTable
 70
3
  0
LTYPE
  5
24
330
2
100
AcDbSymbolTableRecord
100
AcDbLinetypeTableRecord
  2
ByBlock
 70
0
  3

 72
65
 73
0
 40
0.0
  0
LTYPE
  5
25
330
2
100
AcDbSymbolTableRecord
100
AcDbLinetypeTableRecord
  2
ByLayer
 70
0
  3

 72
65
 73
0
 40
0.0
  0
LTYPE
  5
26
330
2
100
AcDbSymbolTableRecord
100
AcDbLinetypeTableRecord
  2
Continuous
 70
0
  3

 72
65
 73
0
 40
0.0
  0
ENDTAB
  0
TABLE
  2
LAYER
  5
1
330
0
100
AcDbSymbolTable
 70
2
  0
LAYER
  5
27
330
1
100
AcDbSymbolTableRecord
100
AcDbLayerTableRecord
  2
0
 70
0
 62
7
  6
Continuous
370
-3
390
13
347
21
  0
LAYER
  5
28
330
1
100
AcDbSymbolTableRecord
100
AcDbLayerTableRecord
  2
Defpoints
 70
0
 62
7
  6
Continuous
290
0
370
-3
390
13
347
21
  0
ENDTAB
  0
TABLE
  2
STYLE
  5
5
330
0
100
AcDbSymbolTable
 70
1
  0
STYLE
  5
29
330
5
100
AcDbSymbolTableRecord
100
AcDbTextStyleTableRecord
  2
Standard
 70
0
 40
0.0
 41
1.0
 50
0.0
 71
0
 42
2.5
  3
txt
  4

  0
ENDTAB
  0
TABLE
  2
VIEW
  5
7
330
0
100
AcDbSymbolTable
 70
0
  0
ENDTAB
  0
TABLE
  2
UCS
  5
6
330
0
100
AcDbSymbolTable
 70
0
  0
ENDTAB
  0
TABLE
  2
APPID
  5
3
330
0
100
AcDbSymbolTable
 70
3
  0
APPID
  5
2A
330
3
100
AcDbSymbolTableRecord
100
AcDbRegAppTableRecord
  2
ACAD
 70
0
  0
APPID
  5
74
330
3
100
AcDbSymbolTableRecord
100
AcDbRegAppTableRecord
  2
HATCHBACKGROUNDCOLOR
 70
0
  0
APPID
  5
75
330
3
100
AcDbSymbolTableRecord
100
AcDbRegAppTableRecord
  2
EZDXF
 70
0
  0
ENDTAB
  0
TABLE
  2
DIMSTYLE
  5
4
330
0
100
AcDbSymbolTable
 70
1
100
AcDbDimStyleTable
  0
DIMSTYLE
105
2B
330
4
100
AcDbSymbolTableRecord
100
AcDbDimStyleTableRecord
  2
Standard
 70
0
 40
1.0
 41
2.5
 42
0.625
 43
3.75
 44
1.25
 45
0.0
 46
0.0
 47
0.0
 48
0.0
 49
2.5
140
2.5
141
2.5
142
0.0
143
0.03937007874
144
1.0
145
0.0
146
1.0
147
0.625
148
0.0
 69
0
 70
0
 71
0
 72
0
 73
0
 74
0
 75
0
 76
0
 77
1
 78
8
 79
3
170
0
171
3
172
1
173
0
174
0
175
0
176
0
177
0
178
0
179
2
271
2
272
2
273
2
274
3
275
0
276
0
277
2
278
44
279
0
280
0
281
0
282
0
283
0
284
8
285
0
286
0
288
0
289
3
290
0
371
-2
372
-2
  0
ENDTAB
  0
TABLE
  2
BLOCK_RECORD
  5
9
330
0
100
AcDbSymbolTable
 70
2
  0
BLOCK_RECORD
  5
17
330
9
100
AcDbSymbolTableRecord
100
AcDbBlockTableRecord
  2
*Model_Space
340
1A
 70
0
280
1
281
0
  0
BLOCK_RECORD
  5
1B
330
9
100
AcDbSymbolTableRecord
100
AcDbBlockTableRecord
  2
*Paper_Space
340
1E
 70
0
280
1
281
0
  0
ENDTAB
  0
ENDSEC
  0
SECTION
  2
BLOCKS
  0
BLOCK
  5
18
330
17
100
AcDbEntity
  8
0
100
AcDbBlockBegin
  2
*Model_Space
 70
0
 10
0.0
 20
0.0
 30
0.0
  3
*Model_Space
  1

  0
ENDBLK
  5
19
330
17
100
AcDbEntity
  8
0
100
AcDbBlockEnd
  0
BLOCK
  5
1C
330
1B
100
AcDbEntity
  8
0
100
AcDbBlockBegin
  2
*Paper_Space
 70
0
 10
0.0
 20
0.0
 30
0.0
  3
*Paper_Space
  1

  0
ENDBLK
  5
1D
330
1B
100
AcDbEntity
  8
0
100
AcDbBlockEnd
  0
ENDSEC
  0
SECTION
  2
ENTITIES
  0
LWPOLYLINE
  5
2F
330
17
100
AcDbEntity
  8
PLYWOOD_BOUNDARY
 62
7
100
AcDbPolyline
 90
5
 70
0
 10
0.0
 20
0.0
 10
96.0
 20
0.0
 10
96.0
 20
48.0
 10
0.0
 20
48.0
 10
0.0
 20
0.0
  0
LWPOLYLINE
  5
30
330
17
100
AcDbEntity
  8
SHELF_L
 62
3
100
AcDbPolyline
 90
133
 70
1
 10
29.839847605071206
 20
22.85142822926617
 10
29.839847605071206
 20
16.85142822926617
 10
29.839847605071206
 20
16.85142822926617
 10
29.844563447651275
 20
16.767454872188686
 10
29.858651670934837
 20
16.684537528798934
 10
29.88193510733993
 20
16.603718932799794
 10
29.91412095414439
 20
16.526015424927998
 10
29.95480445564999
 20
16.452404171879664
 10
30.003473993220183
 20
16.383810877872115
 10
30.059517519181295
 20
16.32109814337626
 10
30.122230253677156
 20
16.265054617415146
 10
30.190823547684705
 20
16.216385079844954
 10
30.26443480073304
 20
16.175701578339357
 10
30.34213830860483
 20
16.143515731534897
 10
30.42295690460397
 20
16.120232295129803
 10
30.505874247993724
 20
16.106144071846238
 10
30.589847605071206
 20
16.10142822926617
 10
30.589847605071206
 20
15.476428229266169
 10
30.589847605071206
 20
15.476428229266169
 10
30.47772908187943
 20
15.451541320016027
 10
30.365068533796556
 20
15.429236109853491
 10
30.25192540017397
 20
15.40952436693739
 10
30.13835937497368
 20
15.392416491121388
 10
30.024430375273955
 20
15.377921508467054
 10
29.91019850965728
 20
15.366047066481705
 10
29.795724046497245
 20
15.356799430083647
 10
29.681067382161135
 20
15.350183478296813
 10
29.56628900914501
 20
15.346202701676582
 10
29.451449484158044
 20
15.3448592004682
 10
29.336609396173
 20
15.346153683498684
 10
29.221829334459677
 20
15.350085467802856
 10
29.1071698566182
 20
15.356652478983662
 10
28.99269145662902
 20
15.365851252306626
 10
28.878454532936495
 20
15.377676934527827
 10
28.76451935658283
 20
15.392123286454463
 10
28.65094603940929
 20
15.409182686236619
 10
28.53779450234137
 20
15.42884613338854
 10
28.425124443774713
 20
15.451103253537262
 10
28.42512444362537
 20
15.451103252824431
 10
27.88924319936009
 20
15.557112417687868
 10
27.35336195509481
 20
15.649254908296243
 10
26.817480710829535
 20
15.725720127326724
 10
26.281599466564256
 20
15.78500553539763
 10
25.745718222298976
 20
15.825946175924571
 10
25.209836978033696
 20
15.847737566484255
 10
24.673955733768416
 20
15.849951506871243
 10
24.13807448950314
 20
15.832544493219835
 10
23.602193245237856
 20
15.79585857285376
 10
23.06631200097258
 20
15.74061462306603
 10
22.5304307567073
 20
15.667898185900576
 10
21.99454951244202
 20
15.57913813728193
 10
21.45866826817674
 20
15.476078609643913
 10
20.92278702391146
 20
15.360744719776847
 10
20.386905779646185
 20
15.235402775340155
 10
19.8510245353809
 20
15.10251574198125
 10
19.315143291115625
 20
14.964694846130506
 10
18.779262046850345
 20
14.824648264476117
 10
18.243380802585065
 20
14.685127908369068
 10
17.707499558319785
 20
14.54887534884331
 10
17.171618314054506
 20
14.41856794482279
 10
16.63573706978923
 20
14.296766233094672
 10
16.099855825523946
 20
14.185863613834222
 10
15.56397458125867
 20
14.088039320359321
 10
15.02809333699339
 20
14.005215597257717
 10
14.49221209272811
 20
13.939019928335455
 10
13.95633084846283
 20
13.890753056606343
 10
13.420449604197554
 20
13.861363424728673
 10
12.884568359932274
 20
13.85142853813391
 10
12.348687115666994
 20
13.861143617061423
 10
11.812805871401714
 20
13.890317760486269
 10
11.276924627136435
 20
13.938377697318948
 10
10.741043382871155
 20
14.004379051165998
 10
10.205162138605875
 20
14.087024897299337
 10
9.669280894340595
 20
14.18469124719028
 10
9.133399650075319
 20
14.295458959838022
 10
8.597518405810039
 20
14.417151452835775
 10
8.061637161544759
 20
14.547377472153244
 10
7.525755917279479
 20
14.68357808021036
 10
6.989874673014199
 20
14.823076938928061
 10
6.45399342874892
 20
14.96313289969548
 10
5.918112184483643
 20
15.100993866862325
 10
5.3822309402183635
 20
15.233950876340188
 10
4.846349695953084
 20
15.359391326669936
 10
4.310468451687804
 20
15.474850316566169
 10
3.774587207422524
 20
15.57805908015743
 10
3.238705963157244
 20
15.66698956817116
 10
2.702824718891968
 20
15.739894299044273
 10
2.166943474626688
 20
15.795340696886228
 10
2.166943474626688
 20
15.795340696886228
 10
2.0447253611764715
 20
15.80339616368164
 10
1.9222802926324398
 20
15.8064560639855
 10
1.7998123734657305
 20
15.804515297230346
 10
1.6775257462373219
 20
15.797577098492745
 10
1.5556242513115102
 20
15.78565303310073
 10
1.4343110870730627
 20
15.768762977355486
 10
1.3137884712145613
 20
15.7469350853994
 10
1.1942573036584143
 20
15.72020574228577
 10
1.0759168316754852
 20
15.68861950332829
 10
0.9589643177585359
 20
15.65222901983153
 10
0.8435947108041191
 20
15.611094951326145
 10
0.7300003211510067
 20
15.565285864455106
 10
0.618370500016848
 20
15.514878118679512
 10
0.5088913238674024
 20
15.45995573899453
 10
0.4017452842445124
 20
15.400610275867592
 10
0.29711098356973764
 20
15.3369406526323
 10
0.1951628374308747
 20
15.26905300059255
 10
0.09607078384745549
 20
15.19706048211151
 10
0.0
 20
15.121083101980595
 10
0.0
 20
22.85142822926617
 10
23.464847605071206
 20
22.85142822926617
 10
23.464847605071206
 20
19.10142822926617
 10
23.48793196645532
 20
18.80811360731574
 10
23.556616637017793
 20
18.522021364813142
 10
23.669210372218018
 20
18.250196042254522
 10
23.82294074061818
 20
17.99933088121778
 10
24.01402239034643
 20
17.775603014541396
 10
24.237750257022817
 20
17.584521364813142
 10
24.488615418059556
 20
17.43079099641298
 10
24.76044074061818
 20
17.318197261212752
 10
25.046532983120773
 20
17.249512590650284
 10
25.339847605071206
 20
17.22642822926617
 10
25.63316222702164
 20
17.249512590650284
 10
25.919254469524233
 20
17.318197261212752
 10
26.191079792082856
 20
17.43079099641298
 10
26.441944953119595
 20
17.584521364813142
 10
26.665672819795983
 20
17.775603014541396
 10
26.856754469524233
 20
17.99933088121778
 10
27.010484837924395
 20
18.250196042254522
 10
27.12307857312462
 20
18.522021364813142
 10
27.191763243687088
 20
18.80811360731574
 10
27.214847605071206
 20
19.10142822926617
 10
27.214847605071206
 20
22.85142822926617
 10
29.839847605071206
 20
22.85142822926617
  0
LWPOLYLINE
  5
31
330
17
100
AcDbEntity
  8
BRACKET_OUTLINE
 62
6
100
AcDbPolyline
 90
87
 70
1
 10
23.064847605071208
 20
22.85142822926617
 10
23.027467742633487
 20
22.80718030140848
 10
22.98522132469409
 20
22.767552364206907
 10
22.938675320696664
 20
22.733076245698093
 10
22.888454402821186
 20
22.704214633766213
 10
22.835232562550395
 20
22.681354866624957
 10
22.779724065344887
 20
22.664803734532306
 10
22.72267386481999
 20
22.654783362501732
 10
22.66484760507121
 20
22.651428229266166
 10
21.864847605071205
 20
22.651428229266166
 10
21.864847605071205
 20
17.004981619859443
 10
21.881323523115256
 20
16.986803245603717
 10
21.895938312850205
 20
16.967097482817707
 10
21.908551225861657
 20
16.946054108769303
 10
21.919040792902393
 20
16.92387578265408
 10
21.92730599370762
 20
16.900776093876424
 10
21.933267229875376
 20
16.87697750506684
 10
21.93686709144262
 20
16.852709209645198
 10
21.93807090977457
 20
16.828204924562804
 10
21.93686709144262
 20
16.803700639480418
 10
21.933267229875376
 20
16.779432344058776
 10
21.92730599370762
 20
16.755633755249193
 10
21.919040792902393
 20
16.73253406647153
 10
21.908551225861657
 20
16.710355740356306
 10
21.895938312850205
 20
16.689312366307902
 10
21.881323523115256
 20
16.669606603521892
 10
21.864847605071205
 20
16.651428229266166
 10
21.84666923081548
 20
16.634952311222122
 10
21.82696346802947
 20
16.620337521487166
 10
21.805920093981072
 20
16.607724608475714
 10
21.78374176786584
 20
16.597235041434985
 10
21.760642079088186
 20
16.58896984062975
 10
21.736843490278602
 20
16.583008604462
 10
21.71257519485696
 20
16.579408742894756
 10
21.68807090977457
 20
16.578204924562804
 10
21.66356662469218
 20
16.579408742894756
 10
21.639298329270538
 20
16.583008604462
 10
21.615499740460955
 20
16.58896984062975
 10
21.5924000516833
 20
16.597235041434985
 10
21.57022172556807
 20
16.607724608475714
 10
21.54917835151967
 20
16.620337521487166
 10
21.52947258873366
 20
16.634952311222122
 10
21.511294214477935
 20
16.651428229266166
 10
20.60340099566448
 20
16.651428229266166
 10
20.585222621408754
 20
16.634952311222122
 10
20.565516858622743
 20
16.620337521487166
 10
20.544473484574343
 20
16.607724608475714
 10
20.522295158459116
 20
16.597235041434985
 10
20.49919546968146
 20
16.58896984062975
 10
20.475396880871877
 20
16.583008604462
 10
20.451128585450235
 20
16.579408742894756
 10
20.426624300367845
 20
16.578204924562804
 10
20.402120015285455
 20
16.579408742894756
 10
20.377851719863813
 20
16.583008604462
 10
20.35405313105423
 20
16.58896984062975
 10
20.330953442276574
 20
16.597235041434985
 10
20.308775116161343
 20
16.607724608475714
 10
20.287731742112943
 20
16.620337521487166
 10
20.268025979326932
 20
16.634952311222122
 10
20.249847605071206
 20
16.651428229266166
 10
20.23337168702716
 20
16.669606603521892
 10
20.21875689729221
 20
16.689312366307902
 10
20.206143984280757
 20
16.710355740356306
 10
20.19565441724002
 20
16.73253406647153
 10
20.18738921643479
 20
16.755633755249193
 10
20.18142798026704
 20
16.779432344058776
 10
20.177828118699793
 20
16.803700639480418
 10
20.176624300367845
 20
16.828204924562804
 10
20.177828118699793
 20
16.852709209645198
 10
20.18142798026704
 20
16.87697750506684
 10
20.18738921643479
 20
16.900776093876424
 10
20.19565441724002
 20
16.92387578265408
 10
20.206143984280757
 20
16.946054108769303
 10
20.21875689729221
 20
16.967097482817707
 10
20.23337168702716
 20
16.986803245603717
 10
20.249847605071206
 20
17.004981619859443
 10
20.24984760507121
 20
22.651428229266166
 10
19.449847605071206
 20
22.651428229266166
 10
19.392021345322426
 20
22.654783362501732
 10
19.334971144797528
 20
22.664803734532306
 10
19.27946264759202
 20
22.681354866624957
 10
19.22624080732123
 20
22.704214633766213
 10
19.17601988944575
 20
22.733076245698093
 10
19.129473885448324
 20
22.767552364206907
 10
19.087227467508928
 20
22.80718030140848
 10
19.049847605071207
 20
22.85142822926617
 10
23.064847605071208
 20
22.85142822926617
  0
LWPOLYLINE
  5
32
330
17
100
AcDbEntity
  8
BRACKET_OUTLINE
 62
6
100
AcDbPolyline
 90
87
 70
1
 10
8.614847605071205
 20
22.85142822926617
 10
8.577467742633484
 20
22.80718030140848
 10
8.535221324694088
 20
22.767552364206907
 10
8.488675320696661
 20
22.733076245698093
 10
8.438454402821183
 20
22.704214633766213
 10
8.385232562550392
 20
22.681354866624957
 10
8.329724065344884
 20
22.664803734532306
 10
8.27267386481999
 20
22.654783362501732
 10
8.214847605071206
 20
22.651428229266166
 10
7.4148476050712055
 20
22.651428229266166
 10
7.4148476050712055
 20
17.004981619859443
 10
7.431323523115253
 20
16.986803245603717
 10
7.445938312850203
 20
16.967097482817707
 10
7.458551225861655
 20
16.946054108769303
 10
7.4690407929023905
 20
16.92387578265408
 10
7.4773059937076205
 20
16.900776093876424
 10
7.4832672298753735
 20
16.87697750506684
 10
7.486867091442615
 20
16.852709209645198
 10
7.488070909774567
 20
16.828204924562804
 10
7.486867091442615
 20
16.803700639480418
 10
7.4832672298753735
 20
16.779432344058776
 10
7.4773059937076205
 20
16.755633755249193
 10
7.4690407929023905
 20
16.73253406647153
 10
7.458551225861655
 20
16.710355740356306
 10
7.445938312850203
 20
16.689312366307902
 10
7.431323523115253
 20
16.669606603521892
 10
7.4148476050712055
 20
16.651428229266166
 10
7.39666923081548
 20
16.634952311222122
 10
7.376963468029469
 20
16.620337521487166
 10
7.355920093981066
 20
16.607724608475714
 10
7.333741767865838
 20
16.597235041434985
 10
7.310642079088183
 20
16.58896984062975
 10
7.286843490278599
 20
16.583008604462
 10
7.262575194856957
 20
16.579408742894756
 10
7.238070909774567
 20
16.578204924562804
 10
7.213566624692177
 20
16.579408742894756
 10
7.189298329270535
 20
16.583008604462
 10
7.165499740460952
 20
16.58896984062975
 10
7.142400051683296
 20
16.597235041434985
 10
7.120221725568069
 20
16.607724608475714
 10
7.099178351519669
 20
16.620337521487166
 10
7.079472588733655
 20
16.634952311222122
 10
7.061294214477929
 20
16.651428229266166
 10
6.153400995664477
 20
16.651428229266166
 10
6.135222621408751
 20
16.634952311222122
 10
6.11551685862274
 20
16.620337521487166
 10
6.0944734845743405
 20
16.607724608475714
 10
6.072295158459113
 20
16.597235041434985
 10
6.049195469681457
 20
16.58896984062975
 10
6.025396880871874
 20
16.583008604462
 10
6.001128585450232
 20
16.579408742894756
 10
5.976624300367842
 20
16.578204924562804
 10
5.952120015285452
 20
16.579408742894756
 10
5.92785171986381
 20
16.583008604462
 10
5.904053131054226
 20
16.58896984062975
 10
5.880953442276567
 20
16.597235041434985
 10
5.858775116161343
 20
16.607724608475714
 10
5.83773174211294
 20
16.620337521487166
 10
5.818025979326929
 20
16.634952311222122
 10
5.799847605071204
 20
16.651428229266166
 10
5.783371687027156
 20
16.669606603521892
 10
5.7687568972922065
 20
16.689312366307902
 10
5.756143984280751
 20
16.710355740356306
 10
5.745654417240019
 20
16.73253406647153
 10
5.737389216434789
 20
16.755633755249193
 10
5.731427980267032
 20
16.779432344058776
 10
5.72782811869979
 20
16.803700639480418
 10
5.726624300367842
 20
16.828204924562804
 10
5.72782811869979
 20
16.852709209645198
 10
5.731427980267032
 20
16.87697750506684
 10
5.737389216434789
 20
16.900776093876424
 10
5.745654417240019
 20
16.92387578265408
 10
5.756143984280751
 20
16.946054108769303
 10
5.7687568972922065
 20
16.967097482817707
 10
5.783371687027156
 20
16.986803245603717
 10
5.799847605071204
 20
17.004981619859443
 10
5.799847605071204
 20
22.651428229266166
 10
4.999847605071203
 20
22.651428229266166
 10
4.94202134532242
 20
22.654783362501732
 10
4.884971144797525
 20
22.664803734532306
 10
4.829462647592017
 20
22.681354866624957
 10
4.776240807321226
 20
22.704214633766213
 10
4.726019889445748
 20
22.733076245698093
 10
4.679473885448321
 20
22.767552364206907
 10
4.637227467508925
 20
22.80718030140848
 10
4.599847605071204
 20
22.85142822926617
 10
8.614847605071205
 20
22.85142822926617
  0
LINE
  5
33
330
17
100
AcDbEntity
  8
BRACKET_CUT_LINE
 62
4
100
AcDbLine
 10
20.24984760507121
 20
22.651428229266166
 30
0.0
 11
21.864847605071205
 21
22.651428229266166
 31
0.0
  0
LINE
  5
34
330
17
100
AcDbEntity
  8
BRACKET_CUT_LINE
 62
4
100
AcDbLine
 10
5.799847605071204
 20
22.651428229266166
 30
0.0
 11
7.4148476050712055
 21
22.651428229266166
 31
0.0
  0
LWPOLYLINE
  5
35
330
17
100
AcDbEntity
  8
SHELF_L
 62
3
100
AcDbPolyline
 90
133
 70
1
 10
1.1699238025356031
 20
5.401507593657794
 10
3.794923802535603
 20
5.401507593657794
 10
3.794923802535603
 20
9.151507593657794
 10
3.818008163919721
 20
9.444822215608223
 10
3.88669283448219
 20
9.73091445811082
 10
3.9992865696824147
 20
10.002739780669442
 10
4.153016938082576
 20
10.253604941706186
 10
4.3440985878108265
 20
10.47733280838257
 10
4.567826454487214
 20
10.668414458110826
 10
4.818691615523953
 20
10.822144826510987
 10
5.090516938082576
 20
10.934738561711217
 10
5.37660918058517
 20
11.003423232273686
 10
5.669923802535603
 20
11.0265075936578
 10
5.963238424486036
 20
11.003423232273686
 10
6.24933066698863
 20
10.934738561711217
 10
6.521155989547253
 20
10.822144826510987
 10
6.772021150583992
 20
10.668414458110826
 10
6.99574901726038
 20
10.47733280838257
 10
7.18683066698863
 20
10.253604941706186
 10
7.340561035388792
 20
10.002739780669442
 10
7.453154770589016
 20
9.73091445811082
 10
7.521839441151489
 20
9.444822215608223
 10
7.544923802535603
 20
9.151507593657794
 10
7.544923802535603
 20
5.401507593657794
 10
30.169923802535603
 20
5.401507593657794
 10
30.169923802535603
 20
10.818055576321195
 10
30.169923802535603
 20
10.818055576321195
 10
30.156273783405428
 20
11.103911819490381
 10
30.115447941363072
 20
11.387166767201062
 10
30.04781779209179
 20
11.665242795816614
 10
29.953998770812472
 20
11.93560940993019
 10
29.83484463181527
 20
12.195806269905265
 10
29.691439679284688
 20
12.44346558099765
 10
29.525088900117662
 20
12.676333640317889
 10
29.337306088526162
 20
12.892291345556298
 10
29.129800070490543
 20
13.089373478841015
 10
28.904459153421353
 20
13.265786590245657
 10
28.66333394253779
 20
13.41992531820657
 10
28.408618680334076
 20
13.550386998333511
 10
28.142631278944762
 20
13.655984427673491
 10
27.867792227114748
 20
13.735756668272774
 10
27.586602563720835
 20
13.788977791724545
 10
27.301621118286043
 20
13.815163485126636
 10
27.015441225598327
 20
13.814075458335136
 10
26.73066712633093
 20
13.785723612407718
 10
26.44989026841903
 20
13.73036594950391
 10
26.44989026841898
 20
13.730365949504101
 10
25.956763700186574
 20
13.606048038653679
 10
25.463637131954172
 20
13.478325810947009
 10
24.970510563721767
 20
13.349325041228798
 10
24.477383995489365
 20
13.22119278405754
 10
23.98425742725696
 20
13.096061638699478
 10
23.491130859024558
 20
12.976014254712712
 10
22.998004290792153
 20
12.863048668880946
 10
22.50487772255975
 20
12.759045050419754
 10
22.011751154327346
 20
12.665734407939429
 10
21.518624586094944
 20
12.584669778997256
 10
21.02549801786254
 20
12.517200381752797
 10
20.532371449630137
 20
12.464449158939093
 10
20.03924488139773
 20
12.427294087901966
 10
19.54611831316533
 20
12.406353567778236
 10
19.052991744932925
 20
12.401976127024636
 10
18.559865176700523
 20
12.414234622602752
 10
18.066738608468118
 20
12.442925027367114
 10
17.573612040235712
 20
12.48756982583878
 10
17.08048547200331
 20
12.54742596184622
 10
16.58735890377091
 20
12.621497205754945
 10
16.094232335538504
 20
12.70855073544897
 10
15.6011057673061
 20
12.80713765509481
 10
15.107979199073696
 20
12.91561711017901
 10
14.614852630841293
 20
13.03218359745497
 10
14.12172606260889
 20
13.154897015259596
 10
13.628599494376484
 20
13.281714954050226
 10
13.135472926144082
 20
13.410526689726733
 10
12.64234635791168
 20
13.539188313963056
 10
12.149219789679275
 20
13.66555841684806
 10
11.65609322144687
 20
13.787533727943543
 10
11.162966653214468
 20
13.903084122558912
 10
10.669840084982066
 20
14.010286410607524
 10
10.176713516749661
 20
14.107356345671793
 10
9.683586948517256
 20
14.19267832152686
 10
9.190460380284854
 20
14.264832261861553
 10
8.697333812052449
 20
14.322617255651505
 10
8.204207243820047
 20
14.365071544803332
 10
7.711080675587642
 20
14.391488531401006
 10
7.21795410735524
 20
14.40142853813391
 10
6.724827539122835
 20
14.394726126169292
 10
6.231700970890433
 20
14.371492848672244
 10
5.738574402658028
 20
14.332115394144441
 10
5.245447834425626
 20
14.277249150483424
 10
4.752321266193221
 20
14.207807296880414
 10
4.259194697960819
 20
14.124945605108348
 10
3.7660681297284135
 20
14.030043203163363
 10
3.272941561496012
 20
13.924679621424634
 10
2.7798149932636065
 20
13.810608503370137
 10
2.2866884250312047
 20
13.689728418400218
 10
2.286688424882236
 20
13.689728418994452
 10
2.1801190636043337
 20
13.661761098630851
 10
2.074191815144971
 20
13.63145239022339
 10
1.9689581143853623
 20
13.5988170107107
 10
1.8644690594421505
 20
13.563870806788454
 10
1.7607753868558156
 20
13.526630747214679
 10
1.65792744695462
 20
13.487114914570274
 10
1.5559751794061079
 20
13.445342496478712
 10
1.4549680889679912
 20
13.401333776289118
 10
1.3549552214502363
 20
13.355110123227323
 10
1.255985139899991
 20
13.306693982019691
 10
1.1581059010208996
 20
13.256108861994623
 10
1.061365031838342
 20
13.203379325667218
 10
0.9658095066217918
 20
13.148530976812491
 10
0.8714857240756473
 20
13.091590448033
 10
0.7784394848094927
 20
13.032585387826895
 10
0.6867159690987847
 20
12.971544447162724
 10
0.5963597149467539
 20
12.908497265567394
 10
0.5074145964582009
 20
12.843474456734203
 10
0.41992380253560313
 20
12.7765075936578
 10
0.41992380253560313
 20
12.1515075936578
 10
0.41992380253560313
 20
12.1515075936578
 10
0.5038971596130857
 20
12.146791751077732
 10
0.586814503002838
 20
12.132703527794167
 10
0.6676330990019785
 20
12.109420091389072
 10
0.7453366068737708
 20
12.077234244584613
 10
0.8189478599221047
 20
12.036550743079015
 10
0.8875411539296536
 20
11.987881205508824
 10
0.9502538884255145
 20
11.931837679547709
 10
1.0062974143866263
 20
11.869124945051855
 10
1.0549669519568177
 20
11.800531651044306
 10
1.0956504534624187
 20
11.726920397995972
 10
1.1278363002668783
 20
11.649216890124176
 10
1.1511197366719692
 20
11.568398294125036
 10
1.1652079599555343
 20
11.485480950735283
 10
1.1699238025356031
 20
11.4015075936578
 10
1.1699238025356031
 20
5.401507593657794
  0
LWPOLYLINE
  5
36
330
17
100
AcDbEntity
  8
BRACKET_OUTLINE
 62
6
100
AcDbPolyline
 90
87
 70
1
 10
7.944923802535602
 20
5.401507593657794
 10
7.9823036649733226
 20
5.445755521515483
 10
8.024550082912718
 20
5.485383458717056
 10
8.071096086910146
 20
5.519859577225869
 10
8.121317004785624
 20
5.5487211891577495
 10
8.174538845056414
 20
5.571580956299005
 10
8.230047342261923
 20
5.5881320883916565
 10
8.287097542786821
 20
5.598152460422231
 10
8.3449238025356
 20
5.6015075936577965
 10
9.144923802535601
 20
5.6015075936577965
 10
9.144923802535601
 20
11.247954203064527
 10
9.128447884491553
 20
11.266132577320253
 10
9.113833094756604
 20
11.285838340106263
 10
9.101220181745152
 20
11.306881714154667
 10
9.090730614704416
 20
11.32906004026989
 10
9.082465413899186
 20
11.352159729047546
 10
9.076504177731433
 20
11.37595831785713
 10
9.072904316164191
 20
11.400226613278772
 10
9.07170049783224
 20
11.424730898361165
 10
9.072904316164191
 20
11.449235183443552
 10
9.076504177731433
 20
11.473503478865194
 10
9.082465413899186
 20
11.497302067674777
 10
9.090730614704416
 20
11.52040175645244
 10
9.101220181745152
 20
11.542580082567664
 10
9.113833094756604
 20
11.563623456616067
 10
9.128447884491553
 20
11.583329219402078
 10
9.144923802535601
 20
11.601507593657804
 10
9.163102176791327
 20
11.617983511701848
 10
9.18280793957734
 20
11.632598301436804
 10
9.203851313625737
 20
11.645211214448256
 10
9.226029639740968
 20
11.655700781488985
 10
9.249129328518624
 20
11.663965982294219
 10
9.272927917328207
 20
11.669927218461968
 10
9.29719621274985
 20
11.673527080029213
 10
9.32170049783224
 20
11.674730898361165
 10
9.34620478291463
 20
11.673527080029213
 10
9.370473078336271
 20
11.669927218461968
 10
9.394271667145855
 20
11.663965982294219
 10
9.41737135592351
 20
11.655700781488985
 10
9.439549682038738
 20
11.645211214448256
 10
9.460593056087138
 20
11.632598301436804
 10
9.480298818873148
 20
11.617983511701848
 10
9.498477193128874
 20
11.601507593657804
 10
10.40637041194233
 20
11.601507593657804
 10
10.424548786198056
 20
11.617983511701848
 10
10.444254548984066
 20
11.632598301436804
 10
10.465297923032466
 20
11.645211214448256
 10
10.487476249147694
 20
11.655700781488985
 10
10.51057593792535
 20
11.663965982294219
 10
10.534374526734933
 20
11.669927218461968
 10
10.558642822156575
 20
11.673527080029213
 10
10.583147107238965
 20
11.674730898361165
 10
10.607651392321355
 20
11.673527080029213
 10
10.631919687742997
 20
11.669927218461968
 10
10.65571827655258
 20
11.663965982294219
 10
10.678817965330236
 20
11.655700781488985
 10
10.700996291445467
 20
11.645211214448256
 10
10.722039665493867
 20
11.632598301436804
 10
10.741745428279877
 20
11.617983511701848
 10
10.759923802535603
 20
11.601507593657804
 10
10.77639972057965
 20
11.583329219402078
 10
10.7910145103146
 20
11.563623456616067
 10
10.803627423326052
 20
11.542580082567664
 10
10.814116990366788
 20
11.52040175645244
 10
10.822382191172018
 20
11.497302067674777
 10
10.828343427339771
 20
11.473503478865194
 10
10.831943288907016
 20
11.449235183443552
 10
10.833147107238965
 20
11.424730898361165
 10
10.831943288907016
 20
11.400226613278772
 10
10.828343427339771
 20
11.37595831785713
 10
10.822382191172018
 20
11.352159729047546
 10
10.814116990366788
 20
11.32906004026989
 10
10.803627423326052
 20
11.306881714154667
 10
10.7910145103146
 20
11.285838340106263
 10
10.77639972057965
 20
11.266132577320253
 10
10.759923802535603
 20
11.247954203064527
 10
10.7599238025356
 20
5.6015075936577965
 10
11.559923802535604
 20
5.6015075936577965
 10
11.617750062284383
 20
5.598152460422231
 10
11.674800262809281
 20
5.5881320883916565
 10
11.73030876001479
 20
5.571580956299005
 10
11.78353060028558
 20
5.5487211891577495
 10
11.833751518161058
 20
5.519859577225869
 10
11.880297522158486
 20
5.485383458717056
 10
11.922543940097881
 20
5.445755521515483
 10
11.959923802535602
 20
5.401507593657794
 10
7.944923802535602
 20
5.401507593657794
  0
LWPOLYLINE
  5
37
330
17
100
AcDbEntity
  8
BRACKET_OUTLINE
 62
6
100
AcDbPolyline
 90
87
 70
1
 10
22.394923802535605
 20
5.401507593657794
 10
22.432303664973325
 20
5.445755521515483
 10
22.47455008291272
 20
5.485383458717056
 10
22.52109608691015
 20
5.519859577225869
 10
22.571317004785627
 20
5.5487211891577495
 10
22.624538845056417
 20
5.571580956299005
 10
22.680047342261926
 20
5.5881320883916565
 10
22.73709754278682
 20
5.598152460422231
 10
22.794923802535603
 20
5.6015075936577965
 10
23.594923802535604
 20
5.6015075936577965
 10
23.594923802535604
 20
11.247954203064527
 10
23.578447884491556
 20
11.266132577320253
 10
23.563833094756607
 20
11.285838340106263
 10
23.551220181745155
 20
11.306881714154667
 10
23.54073061470442
 20
11.32906004026989
 10
23.53246541389919
 20
11.352159729047546
 10
23.526504177731436
 20
11.37595831785713
 10
23.522904316164194
 20
11.400226613278772
 10
23.521700497832242
 20
11.424730898361165
 10
23.522904316164194
 20
11.449235183443552
 10
23.526504177731436
 20
11.473503478865194
 10
23.53246541389919
 20
11.497302067674777
 10
23.54073061470442
 20
11.52040175645244
 10
23.551220181745155
 20
11.542580082567664
 10
23.563833094756607
 20
11.563623456616067
 10
23.578447884491556
 20
11.583329219402078
 10
23.594923802535604
 20
11.601507593657804
 10
23.61310217679133
 20
11.617983511701848
 10
23.63280793957734
 20
11.632598301436804
 10
23.653851313625744
 20
11.645211214448256
 10
23.67602963974097
 20
11.655700781488985
 10
23.699129328518627
 20
11.663965982294219
 10
23.72292791732821
 20
11.669927218461968
 10
23.747196212749852
 20
11.673527080029213
 10
23.771700497832242
 20
11.674730898361165
 10
23.796204782914632
 20
11.673527080029213
 10
23.820473078336274
 20
11.669927218461968
 10
23.844271667145858
 20
11.663965982294219
 10
23.867371355923513
 20
11.655700781488985
 10
23.88954968203874
 20
11.645211214448256
 10
23.91059305608714
 20
11.632598301436804
 10
23.930298818873155
 20
11.617983511701848
 10
23.94847719312888
 20
11.601507593657804
 10
24.856370411942333
 20
11.601507593657804
 10
24.87454878619806
 20
11.617983511701848
 10
24.89425454898407
 20
11.632598301436804
 10
24.91529792303247
 20
11.645211214448256
 10
24.937476249147696
 20
11.655700781488985
 10
24.960575937925352
 20
11.663965982294219
 10
24.984374526734936
 20
11.669927218461968
 10
25.008642822156578
 20
11.673527080029213
 10
25.033147107238968
 20
11.674730898361165
 10
25.057651392321358
 20
11.673527080029213
 10
25.081919687743
 20
11.669927218461968
 10
25.105718276552583
 20
11.663965982294219
 10
25.128817965330242
 20
11.655700781488985
 10
25.150996291445466
 20
11.645211214448256
 10
25.17203966549387
 20
11.632598301436804
 10
25.19174542827988
 20
11.617983511701848
 10
25.209923802535606
 20
11.601507593657804
 10
25.226399720579654
 20
11.583329219402078
 10
25.241014510314603
 20
11.563623456616067
 10
25.25362742332606
 20
11.542580082567664
 10
25.26411699036679
 20
11.52040175645244
 10
25.27238219117202
 20
11.497302067674777
 10
25.278343427339777
 20
11.473503478865194
 10
25.28194328890702
 20
11.449235183443552
 10
25.283147107238968
 20
11.424730898361165
 10
25.28194328890702
 20
11.400226613278772
 10
25.278343427339777
 20
11.37595831785713
 10
25.27238219117202
 20
11.352159729047546
 10
25.26411699036679
 20
11.32906004026989
 10
25.25362742332606
 20
11.306881714154667
 10
25.241014510314603
 20
11.285838340106263
 10
25.226399720579654
 20
11.266132577320253
 10
25.209923802535606
 20
11.247954203064527
 10
25.209923802535606
 20
5.6015075936577965
 10
26.009923802535607
 20
5.6015075936577965
 10
26.06775006228439
 20
5.598152460422231
 10
26.124800262809284
 20
5.5881320883916565
 10
26.180308760014793
 20
5.571580956299005
 10
26.233530600285583
 20
5.5487211891577495
 10
26.28375151816106
 20
5.519859577225869
 10
26.33029752215849
 20
5.485383458717056
 10
26.372543940097884
 20
5.445755521515483
 10
26.409923802535605
 20
5.401507593657794
 10
22.394923802535605
 20
5.401507593657794
  0
LINE
  5
38
330
17
100
AcDbEntity
  8
BRACKET_CUT_LINE
 62
4
100
AcDbLine
 10
10.7599238025356
 20
5.6015075936577965
 30
0.0
 11
9.144923802535601
 21
5.6015075936577965
 31
0.0
  0
LINE
  5
39
330
17
100
AcDbEntity
  8
BRACKET_CUT_LINE
 62
4
100
AcDbLine
 10
25.209923802535606
 20
5.6015075936577965
 30
0.0
 11
23.594923802535604
 21
5.6015075936577965
 31
0.0
  0
LWPOLYLINE
  5
3A
330
17
100
AcDbEntity
  8
SHELF_L
 62
3
100
AcDbPolyline
 90
133
 70
1
 10
59.881308975998074
 20
22.85078485809649
 10
59.881308975998074
 20
16.85078485809649
 10
59.881308975998074
 20
16.85078485809649
 10
59.88602481857814
 20
16.766811501019006
 10
59.90011304186171
 20
16.683894157629254
 10
59.9233964782668
 20
16.603075561630114
 10
59.95558232507126
 20
16.525372053758318
 10
59.99626582657687
 20
16.451760800709984
 10
60.04493536414706
 20
16.383167506702435
 10
60.100978890108166
 20
16.32045477220658
 10
60.16369162460403
 20
16.264411246245466
 10
60.232284918611576
 20
16.215741708675274
 10
60.30589617165991
 20
16.175058207169677
 10
60.383599679531706
 20
16.142872360365217
 10
60.46441827553084
 20
16.119588923960123
 10
60.54733561892059
 20
16.105500700676558
 10
60.631308975998074
 20
16.10078485809649
 10
60.631308975998074
 20
15.475784858096489
 10
60.631308975998074
 20
15.475784858096489
 10
60.52908576021802
 20
15.494410901573843
 10
60.4264975658406
 20
15.51090871095623
 10
60.32358869666639
 20
15.52527116148957
 10
60.22040359498278
 20
15.537492050597159
 10
60.116986822371096
 20
15.547566100558328
 10
60.013383040462216
 20
15.555488960787685
 10
59.909636991648966
 20
15.561257209713943
 10
59.80579347976364
 20
15.564868356257591
 10
59.701897350729006
 20
15.566320840906656
 10
59.5979934731911
 20
15.565614036390237
 10
59.49412671914223
 20
15.56274824794935
 10
59.390341944542534
 20
15.557724713205168
 10
59.28668396994844
 20
15.550545601624478
 10
59.183197561156476
 20
15.54121401358281
 10
59.07992740987064
 20
15.529733979025508
 10
58.976918114401826
 20
15.516110455727336
 10
58.87421416040759
 20
15.500349327151433
 10
58.771859901680514
 20
15.48245739990844
 10
58.66989954099359
 20
15.462442400817054
 10
58.66989954097388
 20
15.462442400912202
 10
58.13558773900876
 20
15.346164292919298
 10
57.601275937043646
 20
15.220208834050595
 10
57.06696413507853
 20
15.087036593083312
 10
56.53265233311341
 20
14.94924912028813
 10
55.998340531148294
 20
14.809538125548002
 10
55.46402872918317
 20
14.670632895188255
 10
54.92971692721805
 20
14.535246974742229
 10
54.395405125252935
 20
14.406025159216938
 10
53.86109332328782
 20
14.285491826416013
 10
53.3267815213227
 20
14.176001622640356
 10
52.792469719357584
 20
14.079693464132575
 10
52.25815791739247
 20
13.998448752857634
 10
51.72384611542735
 20
13.93385462288397
 10
51.18953431346223
 20
13.887172935355451
 10
50.65522251149711
 20
13.859315627744508
 10
50.12091070953199
 20
13.850826898944455
 10
49.586598907566874
 20
13.861872578219327
 10
49.052287105601756
 20
13.89223688569112
 10
48.51797530363664
 20
13.941326647649255
 10
47.98366350167152
 20
14.008182884335014
 10
47.449351699706405
 20
14.091499543831091
 10
46.91503989774129
 20
14.189649016085355
 10
46.38072809577617
 20
14.300713928646474
 10
45.84641629381105
 20
14.422524602974555
 10
45.312104491845936
 20
14.55270143960901
 10
44.77779268988082
 20
14.688701404189814
 10
44.2434808879157
 20
14.82786770621692
 10
43.709169085950585
 20
14.967481700062109
 10
43.17485728398547
 20
15.104815994334786
 10
42.64054548202035
 20
15.237187732098363
 10
42.10623368005523
 20
15.362011001095837
 10
41.571921878090116
 20
15.476847350138812
 10
41.037610076125
 20
15.57945342481073
 10
40.50329827415988
 20
15.667824791909908
 10
39.968986472194764
 20
15.740235096511867
 10
39.43467467022964
 20
15.795269786708722
 10
38.90036286826452
 20
15.831853747205137
 10
38.366051066299406
 20
15.849272301942193
 10
37.83173926433429
 20
15.847185175458101
 10
37.29742746236917
 20
15.825633140247419
 10
36.763115660404054
 20
15.785037220261003
 10
36.22880385843893
 20
15.726190466106573
 10
35.69449205647381
 20
15.650242462623176
 10
35.160180254508695
 20
15.55867687147773
 10
34.62586845254358
 20
15.453282447494061
 10
34.09155665057846
 20
15.336118094917161
 10
33.557244848613344
 20
15.209472646246574
 10
33.02293304664823
 20
15.075820149368518
 10
32.48862124468311
 20
14.93777153646306
 10
32.48862124468311
 20
14.937771536463053
 10
32.406038771036656
 20
14.914969224725475
 10
32.32414108391864
 20
14.889818097139134
 10
32.242994973717224
 20
14.862338665315932
 10
32.162666617883694
 20
14.832553339680189
 10
32.08322152696244
 20
14.800486411192125
 10
32.00472449116484
 20
14.766164031537798
 10
31.927239527530645
 20
14.729614191801446
 10
31.850829827719846
 20
14.690866699637837
 10
31.775557706477706
 20
14.649953154963072
 10
31.70148455081493
 20
14.60690692418379
 10
31.62867076994445
 20
14.561763112985673
 10
31.557175746015623
 20
14.514558537703586
 10
31.487057785686044
 20
14.46533169529657
 10
31.41837407257045
 20
14.414122731952254
 10
31.35118062060551
 20
14.360973410346226
 10
31.28553222836854
 20
14.30592707558317
 10
31.221482434387365
 20
14.249028619847408
 10
31.159083473477793
 20
14.190324445791802
 10
31.098386234144336
 20
14.129862428694764
 10
31.098386234144336
 20
22.85078485809649
 10
53.506308975998074
 20
22.85078485809649
 10
53.506308975998074
 20
19.10078485809649
 10
53.529393337382196
 20
18.80747023614606
 10
53.598078007944665
 20
18.521377993643462
 10
53.71067174314489
 20
18.249552671084842
 10
53.864402111545054
 20
17.9986875100481
 10
54.0554837612733
 20
17.774959643371716
 10
54.27921162794969
 20
17.583877993643462
 10
54.53007678898643
 20
17.4301476252433
 10
54.801902111545054
 20
17.317553890043072
 10
55.087994354047645
 20
17.248869219480603
 10
55.381308975998074
 20
17.22578485809649
 10
55.67462359794851
 20
17.248869219480603
 10
55.96071584045111
 20
17.317553890043072
 10
56.23254116300973
 20
17.4301476252433
 10
56.48340632404646
 20
17.583877993643462
 10
56.707134190722854
 20
17.774959643371716
 10
56.89821584045111
 20
17.9986875100481
 10
57.05194620885127
 20
18.249552671084842
 10
57.16453994405149
 20
18.521377993643462
 10
57.23322461461396
 20
18.80747023614606
 10
57.256308975998074
 20
19.10078485809649
 10
57.256308975998074
 20
22.85078485809649
 10
59.881308975998074
 20
22.85078485809649
  0
LWPOLYLINE
  5
3B
330
17
100
AcDbEntity
  8
BRACKET_OUTLINE
 62
6
100
AcDbPolyline
 90
87
 70
1
 10
53.10630897599808
 20
22.85078485809649
 10
53.06892911356036
 20
22.8065369302388
 10
53.02668269562096
 20
22.766908993037227
 10
52.980136691623535
 20
22.732432874528413
 10
52.92991577374806
 20
22.703571262596533
 10
52.87669393347726
 20
22.680711495455277
 10
52.82118543627176
 20
22.664160363362626
 10
52.76413523574686
 20
22.654139991332052
 10
52.70630897599808
 20
22.650784858096486
 10
51.90630897599808
 20
22.650784858096486
 10
51.90630897599808
 20
17.004338248689763
 10
51.922784894042124
 20
16.986159874434037
 10
51.93739968377708
 20
16.966454111648027
 10
51.95001259678853
 20
16.945410737599623
 10
51.96050216382926
 20
16.9232324114844
 10
51.968767364634495
 20
16.900132722706743
 10
51.97472860080225
 20
16.87633413389716
 10
51.97832846236949
 20
16.852065838475518
 10
51.97953228070144
 20
16.827561553393124
 10
51.97832846236949
 20
16.803057268310738
 10
51.97472860080225
 20
16.778788972889096
 10
51.968767364634495
 20
16.754990384079512
 10
51.96050216382926
 20
16.73189069530185
 10
51.95001259678853
 20
16.709712369186626
 10
51.93739968377708
 20
16.688668995138222
 10
51.922784894042124
 20
16.668963232352212
 10
51.90630897599808
 20
16.650784858096486
 10
51.888130601742354
 20
16.634308940052442
 10
51.868424838956344
 20
16.619694150317486
 10
51.84738146490794
 20
16.607081237306033
 10
51.825203138792716
 20
16.596591670265305
 10
51.80210345001506
 20
16.58832646946007
 10
51.77830486120548
 20
16.58236523329232
 10
51.75403656578383
 20
16.578765371725076
 10
51.72953228070144
 20
16.577561553393124
 10
51.705027995619055
 20
16.578765371725076
 10
51.680759700197406
 20
16.58236523329232
 10
51.65696111138782
 20
16.58832646946007
 10
51.63386142261017
 20
16.596591670265305
 10
51.61168309649494
 20
16.607081237306033
 10
51.59063972244654
 20
16.619694150317486
 10
51.57093395966053
 20
16.634308940052442
 10
51.5527555854048
 20
16.650784858096486
 10
50.644862366591354
 20
16.650784858096486
 10
50.62668399233563
 20
16.634308940052442
 10
50.60697822954962
 20
16.619694150317486
 10
50.585934855501215
 20
16.607081237306033
 10
50.56375652938599
 20
16.596591670265305
 10
50.54065684060833
 20
16.58832646946007
 10
50.516858251798745
 20
16.58236523329232
 10
50.49258995637711
 20
16.578765371725076
 10
50.468085671294716
 20
16.577561553393124
 10
50.44358138621232
 20
16.578765371725076
 10
50.41931309079069
 20
16.58236523329232
 10
50.395514501981104
 20
16.58832646946007
 10
50.37241481320344
 20
16.596591670265305
 10
50.35023648708822
 20
16.607081237306033
 10
50.329193113039814
 20
16.619694150317486
 10
50.309487350253804
 20
16.634308940052442
 10
50.29130897599808
 20
16.650784858096486
 10
50.274833057954034
 20
16.668963232352212
 10
50.26021826821908
 20
16.688668995138222
 10
50.247605355207625
 20
16.709712369186626
 10
50.237115788166896
 20
16.73189069530185
 10
50.22885058736166
 20
16.754990384079512
 10
50.222889351193906
 20
16.778788972889096
 10
50.21928948962667
 20
16.803057268310738
 10
50.218085671294716
 20
16.827561553393124
 10
50.21928948962667
 20
16.852065838475518
 10
50.222889351193906
 20
16.87633413389716
 10
50.22885058736166
 20
16.900132722706743
 10
50.237115788166896
 20
16.9232324114844
 10
50.247605355207625
 20
16.945410737599623
 10
50.26021826821908
 20
16.966454111648027
 10
50.274833057954034
 20
16.986159874434037
 10
50.29130897599808
 20
17.004338248689763
 10
50.29130897599808
 20
22.650784858096486
 10
49.49130897599808
 20
22.650784858096486
 10
49.433482716249294
 20
22.654139991332052
 10
49.376432515724396
 20
22.664160363362626
 10
49.320924018518895
 20
22.680711495455277
 10
49.2677021782481
 20
22.703571262596533
 10
49.21748126037262
 20
22.732432874528413
 10
49.170935256375195
 20
22.766908993037227
 10
49.1286888384358
 20
22.8065369302388
 10
49.09130897599808
 20
22.85078485809649
 10
53.10630897599808
 20
22.85078485809649
  0
LWPOLYLINE
  5
3C
330
17
100
AcDbEntity
  8
BRACKET_OUTLINE
 62
6
100
AcDbPolyline
 90
87
 70
1
 10
38.65630897599808
 20
22.85078485809649
 10
38.618929113560355
 20
22.8065369302388
 10
38.57668269562096
 20
22.766908993037227
 10
38.53013669162353
 20
22.732432874528413
 10
38.479915773748054
 20
22.703571262596533
 10
38.42669393347726
 20
22.680711495455277
 10
38.37118543627175
 20
22.664160363362626
 10
38.31413523574686
 20
22.654139991332052
 10
38.256308975998074
 20
22.650784858096486
 10
37.45630897599808
 20
22.650784858096486
 10
37.45630897599808
 20
17.004338248689763
 10
37.47278489404213
 20
16.986159874434037
 10
37.48739968377708
 20
16.966454111648027
 10
37.50001259678853
 20
16.945410737599623
 10
37.510502163829265
 20
16.9232324114844
 10
37.51876736463449
 20
16.900132722706743
 10
37.52472860080224
 20
16.87633413389716
 10
37.52832846236949
 20
16.852065838475518
 10
37.52953228070144
 20
16.827561553393124
 10
37.52832846236949
 20
16.803057268310738
 10
37.52472860080224
 20
16.778788972889096
 10
37.51876736463449
 20
16.754990384079512
 10
37.510502163829265
 20
16.73189069530185
 10
37.50001259678853
 20
16.709712369186626
 10
37.48739968377708
 20
16.688668995138222
 10
37.47278489404213
 20
16.668963232352212
 10
37.45630897599808
 20
16.650784858096486
 10
37.43813060174235
 20
16.634308940052442
 10
37.41842483895634
 20
16.619694150317486
 10
37.39738146490794
 20
16.607081237306033
 10
37.375203138792706
 20
16.596591670265305
 10
37.35210345001506
 20
16.58832646946007
 10
37.328304861205474
 20
16.58236523329232
 10
37.304036565783825
 20
16.578765371725076
 10
37.27953228070144
 20
16.577561553393124
 10
37.25502799561905
 20
16.578765371725076
 10
37.2307597001974
 20
16.58236523329232
 10
37.20696111138782
 20
16.58832646946007
 10
37.18386142261017
 20
16.596591670265305
 10
37.16168309649494
 20
16.607081237306033
 10
37.140639722446544
 20
16.619694150317486
 10
37.120933959660526
 20
16.634308940052442
 10
37.1027555854048
 20
16.650784858096486
 10
36.194862366591344
 20
16.650784858096486
 10
36.17668399233562
 20
16.634308940052442
 10
36.156978229549615
 20
16.619694150317486
 10
36.13593485550121
 20
16.607081237306033
 10
36.11375652938599
 20
16.596591670265305
 10
36.090656840608325
 20
16.58832646946007
 10
36.06685825179874
 20
16.58236523329232
 10
36.04258995637711
 20
16.578765371725076
 10
36.01808567129471
 20
16.577561553393124
 10
35.99358138621232
 20
16.578765371725076
 10
35.969313090790685
 20
16.58236523329232
 10
35.9455145019811
 20
16.58832646946007
 10
35.92241481320344
 20
16.596591670265305
 10
35.900236487088215
 20
16.607081237306033
 10
35.87919311303981
 20
16.619694150317486
 10
35.8594873502538
 20
16.634308940052442
 10
35.841308975998075
 20
16.650784858096486
 10
35.82483305795403
 20
16.668963232352212
 10
35.81021826821908
 20
16.688668995138222
 10
35.79760535520762
 20
16.709712369186626
 10
35.78711578816689
 20
16.73189069530185
 10
35.77885058736166
 20
16.754990384079512
 10
35.7728893511939
 20
16.778788972889096
 10
35.769289489626665
 20
16.803057268310738
 10
35.76808567129471
 20
16.827561553393124
 10
35.769289489626665
 20
16.852065838475518
 10
35.7728893511939
 20
16.87633413389716
 10
35.77885058736166
 20
16.900132722706743
 10
35.78711578816689
 20
16.9232324114844
 10
35.79760535520762
 20
16.945410737599623
 10
35.81021826821908
 20
16.966454111648027
 10
35.82483305795403
 20
16.986159874434037
 10
35.841308975998075
 20
17.004338248689763
 10
35.841308975998075
 20
22.650784858096486
 10
35.04130897599807
 20
22.650784858096486
 10
34.98348271624929
 20
22.654139991332052
 10
34.92643251572439
 20
22.664160363362626
 10
34.870924018518885
 20
22.680711495455277
 10
34.8177021782481
 20
22.703571262596533
 10
34.76748126037262
 20
22.732432874528413
 10
34.72093525637519
 20
22.766908993037227
 10
34.6786888384358
 20
22.8065369302388
 10
34.64130897599808
 20
22.85078485809649
 10
38.65630897599808
 20
22.85078485809649
  0
LINE
  5
3D
330
17
100
AcDbEntity
  8
BRACKET_CUT_LINE
 62
4
100
AcDbLine
 10
50.29130897599808
 20
22.650784858096486
 30
0.0
 11
51.90630897599808
 21
22.650784858096486
 31
0.0
  0
LINE
  5
3E
330
17
100
AcDbEntity
  8
BRACKET_CUT_LINE
 62
4
100
AcDbLine
 10
35.841308975998075
 20
22.650784858096486
 30
0.0
 11
37.45630897599808
 21
22.650784858096486
 31
0.0
  0
LWPOLYLINE
  5
3F
330
17
100
AcDbEntity
  8
SHELF_L
 62
3
100
AcDbPolyline
 90
133
 70
1
 10
31.739847605071205
 20
5.401507593657794
 10
34.364847605071205
 20
5.401507593657794
 10
34.364847605071205
 20
9.151507593657794
 10
34.38793196645532
 20
9.444822215608223
 10
34.456616637017795
 20
9.73091445811082
 10
34.569210372218016
 20
10.002739780669442
 10
34.72294074061818
 20
10.253604941706186
 10
34.914022390346425
 20
10.47733280838257
 10
35.137750257022816
 20
10.668414458110826
 10
35.38861541805955
 20
10.822144826510987
 10
35.66044074061818
 20
10.934738561711217
 10
35.94653298312077
 20
11.003423232273686
 10
36.239847605071205
 20
11.0265075936578
 10
36.53316222702164
 20
11.003423232273686
 10
36.81925446952423
 20
10.934738561711217
 10
37.09107979208286
 20
10.822144826510987
 10
37.341944953119594
 20
10.668414458110826
 10
37.565672819795985
 20
10.47733280838257
 10
37.75675446952423
 20
10.253604941706186
 10
37.91048483792439
 20
10.002739780669442
 10
38.023078573124614
 20
9.73091445811082
 10
38.09176324368709
 20
9.444822215608223
 10
38.114847605071205
 20
9.151507593657794
 10
38.114847605071205
 20
5.401507593657794
 10
60.739847605071205
 20
5.401507593657794
 10
60.739847605071205
 20
11.236661655933705
 10
60.739847605071205
 20
11.236661655933705
 10
60.73153769875126
 20
11.45979924437778
 10
60.70665401615344
 20
11.681700664517574
 10
60.6653344113253
 20
11.901136596344
 10
60.607807792296995
 20
12.116891378499243
 10
60.534392852945246
 20
12.327769742964787
 10
60.445496307449034
 20
12.532603436771556
 10
60.34161063711853
 20
12.730257694048415
 10
60.223311362079336
 20
12.919637522554215
 10
60.091253852927004
 20
13.099693769866452
 10
59.946169700014785
 20
13.269428935620137
 10
59.78886266048883
 20
13.42790269759752
 10
59.620204205523756
 20
13.57423712105447
 10
59.44112869242677
 20
13.707621522424109
 10
59.252628188356574
 20
13.827316960453157
 10
59.055746974333225
 20
13.932660329890322
 10
58.8515757599865
 20
14.02306803504796
 10
58.64124564109272
 20
14.098039222885777
 10
58.42592183337472
 20
14.157158557705348
 10
58.20679721727958
 20
14.200098522083966
 10
58.20679721727966
 20
14.200098522084478
 10
57.74159613414602
 20
14.26730402479274
 10
57.276395051012386
 20
14.32168333950256
 10
56.811193967878744
 20
14.362430873480367
 10
56.34599288474511
 20
14.388942979595615
 10
55.88079180161147
 20
14.400826898944455
 10
55.41559071847784
 20
14.397906579306923
 10
54.9503896353442
 20
14.380225283241447
 10
54.485188552210566
 20
14.348044947179307
 10
54.01998746907693
 20
14.30184230101376
 10
53.554786385943295
 20
14.242301805669367
 10
53.08958530280966
 20
14.170305513276805
 10
52.624384219676024
 20
14.086920000167641
 10
52.15918313654239
 20
13.993380566268083
 10
51.69398205340875
 20
13.891072934966811
 10
51.22878097027512
 20
13.781512724561107
 10
50.763579887141475
 20
13.666322995397802
 10
50.29837880400784
 20
13.547210205333055
 10
49.833177720874204
 20
13.425938929714423
 10
49.36797663774057
 20
13.304305720391692
 10
48.90277555460693
 20
13.184112491017455
 10
48.4375744714733
 20
13.067139822916207
 10
47.972373388339655
 20
12.95512058697744
 10
47.50717230520602
 20
12.84971427234655
 10
47.041971222072384
 20
12.752482402216597
 10
46.57677013893875
 20
12.664865400919293
 10
46.11156905580511
 20
12.588161255013706
 10
45.64636797267148
 20
12.52350628449408
 10
45.18116688953784
 20
12.471858308978394
 10
44.715965806404206
 20
12.433982458259148
 10
44.25076472327057
 20
12.410439837423471
 10
43.785563640136935
 20
12.401579214461105
 10
43.3203625570033
 20
12.407531853502757
 10
42.855161473869664
 20
12.428209570230852
 10
42.38996039073602
 20
12.463306038270506
 10
41.924759307602386
 20
12.5123013272074
 10
41.45955822446875
 20
12.57446960500489
 10
40.994357141335115
 20
12.648889890714205
 10
40.52915605820148
 20
12.734459698183795
 10
40.06395497506784
 20
12.82991136864523
 10
39.5987538919342
 20
12.933830850219724
 10
39.133552808800566
 20
13.044678646139378
 10
38.66835172566693
 20
13.160812621349653
 10
38.203150642533295
 20
13.28051232962844
 10
37.73794955939966
 20
13.40200450083218
 10
37.272748476266024
 20
13.523489310692522
 10
36.80754739313239
 20
13.643167043994456
 10
36.34234630999875
 20
13.759264756138815
 10
35.87714522686512
 20
13.870062538116276
 10
35.41194414373148
 20
13.973918995794978
 10
35.41194414368719
 20
13.973918995588651
 10
35.16583778300014
 20
14.020334680248144
 10
34.91771596462659
 20
14.05436877785677
 10
34.6682012039429
 20
14.075935899917763
 10
34.417919511092705
 20
14.084981936457272
 10
34.16749882038362
 20
14.081484191781389
 10
33.917567414856414
 20
14.065451441417618
 10
33.668752349979236
 20
14.036923910097887
 10
33.42167788042173
 20
13.995973170838273
 10
33.176963893856076
 20
13.942701965368745
 10
32.93522435571446
 20
13.877243946363382
 10
32.69706576880487
 20
13.799763342117803
 10
32.463085651650026
 20
13.710454544515112
 10
32.23387103936699
 20
13.609541621314126
 10
32.00999701084874
 20
13.497277753983429
 10
31.79202524594286
 20
13.373944602491843
 10
31.580502616247166
 20
13.239851598648794
 10
31.375959813057975
 20
13.095335169767711
 10
31.178910015913253
 20
12.940757894600065
 10
30.989847605071205
 20
12.7765075936578
 10
30.989847605071205
 20
12.1515075936578
 10
30.989847605071205
 20
12.1515075936578
 10
31.073820962148687
 20
12.146791751077732
 10
31.15673830553844
 20
12.132703527794167
 10
31.23755690153758
 20
12.109420091389072
 10
31.315260409409372
 20
12.077234244584613
 10
31.388871662457706
 20
12.036550743079015
 10
31.457464956465255
 20
11.987881205508824
 10
31.520177690961116
 20
11.931837679547709
 10
31.576221216922228
 20
11.869124945051855
 10
31.62489075449242
 20
11.800531651044306
 10
31.66557425599802
 20
11.726920397995972
 10
31.69776010280248
 20
11.649216890124176
 10
31.72104353920757
 20
11.568398294125036
 10
31.735131762491136
 20
11.485480950735283
 10
31.739847605071205
 20
11.4015075936578
 10
31.739847605071205
 20
5.401507593657794
  0
LWPOLYLINE
  5
40
330
17
100
AcDbEntity
  8
BRACKET_OUTLINE
 62
6
100
AcDbPolyline
 90
87
 70
1
 10
38.5148476050712
 20
5.401507593657794
 10
38.55222746750892
 20
5.445755521515483
 10
38.594473885448316
 20
5.485383458717056
 10
38.64101988944575
 20
5.519859577225869
 10
38.69124080732123
 20
5.5487211891577495
 10
38.744462647592016
 20
5.571580956299005
 10
38.799971144797524
 20
5.5881320883916565
 10
38.85702134532242
 20
5.598152460422231
 10
38.9148476050712
 20
5.6015075936577965
 10
39.714847605071206
 20
5.6015075936577965
 10
39.714847605071206
 20
11.247954203064527
 10
39.698371687027155
 20
11.266132577320253
 10
39.683756897292206
 20
11.285838340106263
 10
39.671143984280754
 20
11.306881714154667
 10
39.66065441724002
 20
11.32906004026989
 10
39.65238921643479
 20
11.352159729047546
 10
39.646427980267035
 20
11.37595831785713
 10
39.64282811869979
 20
11.400226613278772
 10
39.641624300367845
 20
11.424730898361165
 10
39.64282811869979
 20
11.449235183443552
 10
39.646427980267035
 20
11.473503478865194
 10
39.65238921643479
 20
11.497302067674777
 10
39.66065441724002
 20
11.52040175645244
 10
39.671143984280754
 20
11.542580082567664
 10
39.683756897292206
 20
11.563623456616067
 10
39.698371687027155
 20
11.583329219402078
 10
39.714847605071206
 20
11.601507593657804
 10
39.73302597932693
 20
11.617983511701848
 10
39.75273174211294
 20
11.632598301436804
 10
39.77377511616134
 20
11.645211214448256
 10
39.79595344227657
 20
11.655700781488985
 10
39.819053131054226
 20
11.663965982294219
 10
39.84285171986381
 20
11.669927218461968
 10
39.86712001528545
 20
11.673527080029213
 10
39.891624300367845
 20
11.674730898361165
 10
39.91612858545023
 20
11.673527080029213
 10
39.94039688087187
 20
11.669927218461968
 10
39.96419546968146
 20
11.663965982294219
 10
39.98729515845911
 20
11.655700781488985
 10
40.009473484574336
 20
11.645211214448256
 10
40.03051685862274
 20
11.632598301436804
 10
40.05022262140875
 20
11.617983511701848
 10
40.068400995664476
 20
11.601507593657804
 10
40.97629421447793
 20
11.601507593657804
 10
40.99447258873366
 20
11.617983511701848
 10
41.01417835151967
 20
11.632598301436804
 10
41.03522172556807
 20
11.645211214448256
 10
41.057400051683295
 20
11.655700781488985
 10
41.08049974046095
 20
11.663965982294219
 10
41.104298329270534
 20
11.669927218461968
 10
41.128566624692176
 20
11.673527080029213
 10
41.15307090977456
 20
11.674730898361165
 10
41.177575194856956
 20
11.673527080029213
 10
41.2018434902786
 20
11.669927218461968
 10
41.22564207908818
 20
11.663965982294219
 10
41.24874176786584
 20
11.655700781488985
 10
41.27092009398107
 20
11.645211214448256
 10
41.29196346802947
 20
11.632598301436804
 10
41.311669230815475
 20
11.617983511701848
 10
41.3298476050712
 20
11.601507593657804
 10
41.34632352311525
 20
11.583329219402078
 10
41.3609383128502
 20
11.563623456616067
 10
41.373551225861654
 20
11.542580082567664
 10
41.38404079290239
 20
11.52040175645244
 10
41.392305993707616
 20
11.497302067674777
 10
41.39826722987537
 20
11.473503478865194
 10
41.40186709144262
 20
11.449235183443552
 10
41.40307090977456
 20
11.424730898361165
 10
41.40186709144262
 20
11.400226613278772
 10
41.39826722987537
 20
11.37595831785713
 10
41.392305993707616
 20
11.352159729047546
 10
41.38404079290239
 20
11.32906004026989
 10
41.373551225861654
 20
11.306881714154667
 10
41.3609383128502
 20
11.285838340106263
 10
41.34632352311525
 20
11.266132577320253
 10
41.3298476050712
 20
11.247954203064527
 10
41.3298476050712
 20
5.6015075936577965
 10
42.129847605071205
 20
5.6015075936577965
 10
42.187673864819985
 20
5.598152460422231
 10
42.24472406534488
 20
5.5881320883916565
 10
42.30023256255039
 20
5.571580956299005
 10
42.35345440282118
 20
5.5487211891577495
 10
42.40367532069666
 20
5.519859577225869
 10
42.45022132469409
 20
5.485383458717056
 10
42.49246774263349
 20
5.445755521515483
 10
42.529847605071204
 20
5.401507593657794
 10
38.5148476050712
 20
5.401507593657794
  0
LWPOLYLINE
  5
41
330
17
100
AcDbEntity
  8
BRACKET_OUTLINE
 62
6
100
AcDbPolyline
 90
87
 70
1
 10
52.964847605071206
 20
5.401507593657794
 10
53.002227467508924
 20
5.445755521515483
 10
53.04447388544832
 20
5.485383458717056
 10
53.091019889445754
 20
5.519859577225869
 10
53.14124080732123
 20
5.5487211891577495
 10
53.19446264759202
 20
5.571580956299005
 10
53.24997114479753
 20
5.5881320883916565
 10
53.30702134532242
 20
5.598152460422231
 10
53.364847605071205
 20
5.6015075936577965
 10
54.16484760507121
 20
5.6015075936577965
 10
54.16484760507121
 20
11.247954203064527
 10
54.14837168702716
 20
11.266132577320253
 10
54.13375689729221
 20
11.285838340106263
 10
54.12114398428076
 20
11.306881714154667
 10
54.11065441724002
 20
11.32906004026989
 10
54.102389216434794
 20
11.352159729047546
 10
54.09642798026704
 20
11.37595831785713
 10
54.09282811869979
 20
11.400226613278772
 10
54.09162430036785
 20
11.424730898361165
 10
54.09282811869979
 20
11.449235183443552
 10
54.09642798026704
 20
11.473503478865194
 10
54.102389216434794
 20
11.497302067674777
 10
54.11065441724002
 20
11.52040175645244
 10
54.12114398428076
 20
11.542580082567664
 10
54.13375689729221
 20
11.563623456616067
 10
54.14837168702716
 20
11.583329219402078
 10
54.16484760507121
 20
11.601507593657804
 10
54.183025979326935
 20
11.617983511701848
 10
54.20273174211294
 20
11.632598301436804
 10
54.22377511616134
 20
11.645211214448256
 10
54.24595344227657
 20
11.655700781488985
 10
54.26905313105423
 20
11.663965982294219
 10
54.29285171986381
 20
11.669927218461968
 10
54.317120015285454
 20
11.673527080029213
 10
54.34162430036785
 20
11.674730898361165
 10
54.366128585450234
 20
11.673527080029213
 10
54.390396880871876
 20
11.669927218461968
 10
54.41419546968146
 20
11.663965982294219
 10
54.437295158459115
 20
11.655700781488985
 10
54.45947348457434
 20
11.645211214448256
 10
54.48051685862274
 20
11.632598301436804
 10
54.50022262140876
 20
11.617983511701848
 10
54.518400995664486
 20
11.601507593657804
 10
55.426294214477934
 20
11.601507593657804
 10
55.44447258873366
 20
11.617983511701848
 10
55.46417835151967
 20
11.632598301436804
 10
55.485221725568074
 20
11.645211214448256
 10
55.5074000516833
 20
11.655700781488985
 10
55.530499740460954
 20
11.663965982294219
 10
55.55429832927054
 20
11.669927218461968
 10
55.57856662469218
 20
11.673527080029213
 10
55.603070909774566
 20
11.674730898361165
 10
55.62757519485696
 20
11.673527080029213
 10
55.6518434902786
 20
11.669927218461968
 10
55.675642079088185
 20
11.663965982294219
 10
55.69874176786585
 20
11.655700781488985
 10
55.72092009398107
 20
11.645211214448256
 10
55.741963468029475
 20
11.632598301436804
 10
55.76166923081548
 20
11.617983511701848
 10
55.779847605071204
 20
11.601507593657804
 10
55.796323523115255
 20
11.583329219402078
 10
55.810938312850205
 20
11.563623456616067
 10
55.82355122586166
 20
11.542580082567664
 10
55.83404079290239
 20
11.52040175645244
 10
55.84230599370762
 20
11.497302067674777
 10
55.84826722987538
 20
11.473503478865194
 10
55.85186709144262
 20
11.449235183443552
 10
55.853070909774566
 20
11.424730898361165
 10
55.85186709144262
 20
11.400226613278772
 10
55.84826722987538
 20
11.37595831785713
 10
55.84230599370762
 20
11.352159729047546
 10
55.83404079290239
 20
11.32906004026989
 10
55.82355122586166
 20
11.306881714154667
 10
55.810938312850205
 20
11.285838340106263
 10
55.796323523115255
 20
11.266132577320253
 10
55.779847605071204
 20
11.247954203064527
 10
55.779847605071204
 20
5.6015075936577965
 10
56.57984760507121
 20
5.6015075936577965
 10
56.637673864819995
 20
5.598152460422231
 10
56.694724065344886
 20
5.5881320883916565
 10
56.750232562550394
 20
5.571580956299005
 10
56.80345440282118
 20
5.5487211891577495
 10
56.85367532069666
 20
5.519859577225869
 10
56.900221324694094
 20
5.485383458717056
 10
56.94246774263349
 20
5.445755521515483
 10
56.97984760507121
 20
5.401507593657794
 10
52.964847605071206
 20
5.401507593657794
  0
LINE
  5
42
330
17
100
AcDbEntity
  8
BRACKET_CUT_LINE
 62
4
100
AcDbLine
 10
41.3298476050712
 20
5.6015075936577965
 30
0.0
 11
39.714847605071206
 21
5.6015075936577965
 31
0.0
  0
LINE
  5
43
330
17
100
AcDbEntity
  8
BRACKET_CUT_LINE
 62
4
100
AcDbLine
 10
55.779847605071204
 20
5.6015075936577965
 30
0.0
 11
54.16484760507121
 21
5.6015075936577965
 31
0.0
  0
LWPOLYLINE
  5
44
330
17
100
AcDbEntity
  8
SHELF_L
 62
3
100
AcDbPolyline
 90
133
 70
1
 10
89.7108396217598
 20
23.149986389000833
 10
89.7108396217598
 20
17.14998638900083
 10
89.7108396217598
 20
17.14998638900083
 10
89.71555546433987
 20
17.066013031923347
 10
89.72964368762344
 20
16.983095688533595
 10
89.75292712402853
 20
16.902277092534455
 10
89.78511297083298
 20
16.82457358466266
 10
89.8257964723386
 20
16.750962331614325
 10
89.87446600990879
 20
16.682369037606776
 10
89.93050953586989
 20
16.619656303110922
 10
89.99322227036575
 20
16.563612777149807
 10
90.0618155643733
 20
16.514943239579615
 10
90.13542681742163
 20
16.474259738074018
 10
90.21313032529343
 20
16.44207389126956
 10
90.29394892129257
 20
16.418790454864464
 10
90.37686626468232
 20
16.4047022315809
 10
90.4608396217598
 20
16.39998638900083
 10
90.4608396217598
 20
15.774986389000832
 10
90.4608396217598
 20
15.774986389000832
 10
90.39075262027951
 20
15.801571080469126
 10
90.32027495099805
 20
15.827102075937704
 10
90.24942245428917
 20
15.851573637127844
 10
90.17821105477186
 20
15.87498026387644
 10
90.10665675773112
 20
15.897316695372242
 10
90.03477564552067
 20
15.918577911338241
 10
89.96258387394839
 20
15.938759133159992
 10
89.8900976686451
 20
15.957855824959703
 10
89.81733332141778
 20
15.975863694615635
 10
89.74430718658785
 20
15.992778694726832
 10
89.67103567731537
 20
16.00859702352281
 10
89.59753526191018
 20
16.023315125717993
 10
89.52382246013042
 20
16.03692969331083
 10
89.44991383946962
 20
16.04943766632727
 10
89.37582601143303
 20
16.060836233508525
 10
89.30157562780413
 20
16.071122832942905
 10
89.2271793769019
 20
16.08029515264164
 10
89.15265397983009
 20
16.08835113105853
 10
89.07801618671903
 20
16.09528895755325
 10
89.07801618667997
 20
16.09528895709596
 10
88.55977786071259
 20
16.130722596373303
 10
88.04153953474523
 20
16.14813094717607
 10
87.52330120877784
 20
16.14719405543022
 10
87.00506288281048
 20
16.12792914059178
 10
86.48682455684309
 20
16.090690279164498
 10
85.96858623087572
 20
16.036161897005847
 10
85.45034790490834
 20
15.965346190028528
 10
84.93210957894097
 20
15.879544704496661
 10
84.41387125297359
 20
15.780334415458826
 10
83.89563292700622
 20
15.669538742980587
 10
83.37739460103884
 20
15.54919403887923
 10
82.85915627507147
 20
15.421512159912476
 10
82.3409179491041
 20
15.288839815301467
 10
81.82267962313671
 20
15.153615435753908
 10
81.30444129716935
 20
15.018324356706403
 10
80.78620297120196
 20
14.885453139488634
 10
80.2679646452346
 20
14.75744386995642
 10
79.74972631926721
 20
14.63664927455485
 10
79.23148799329984
 20
14.525289478748777
 10
78.71324966733246
 20
14.425411202572372
 10
78.19501134136509
 20
14.33885014325685
 10
77.67677301539771
 20
14.267197236318923
 10
77.15853468943034
 20
14.211769415209092
 10
76.64029636346297
 20
14.173585406938239
 10
76.12205803749559
 20
14.153347008543166
 10
75.60381971152822
 20
14.151426188517108
 10
75.08558138556084
 20
14.167858250272781
 10
74.56734305959347
 20
14.20234118328874
 10
74.04910473362608
 20
14.254241213864796
 10
73.5308664076587
 20
14.322604453467067
 10
73.01262808169133
 20
14.406174430573822
 10
72.49438975572396
 20
14.503415183798262
 10
71.97615142975658
 20
14.612539491851743
 10
71.45791310378921
 20
14.731541721499292
 10
70.93967477782184
 20
14.85823468978346
 10
70.42143645185446
 20
14.990289863013063
 10
69.90319812588709
 20
15.125280153685745
 10
69.38495979991971
 20
15.260724528764955
 10
68.86672147395234
 20
15.39413360944044
 10
68.34848314798496
 20
15.523055424278676
 10
67.83024482201759
 20
15.645120474850168
 10
67.3120064960502
 20
15.75808528555701
 10
66.79376817008284
 20
15.859873637243469
 10
66.27552984411545
 20
15.948614726742784
 10
65.75729151814808
 20
16.02267755101282
 10
65.2390531921807
 20
16.08070088390256
 10
64.72081486621333
 20
16.121618294596324
 10
64.20257654024596
 20
16.144677747912958
 10
63.684338214278576
 20
16.149455426219355
 10
63.684338214278576
 20
16.149455426219347
 10
63.56025955237156
 20
16.145828808808936
 10
63.436437133612465
 20
16.137072365060284
 10
63.31308295115462
 20
16.123201086653758
 10
63.19040819649611
 20
16.10423872224552
 10
63.06862289790431
 20
16.080217736808123
 10
62.94793556083193
 20
16.051179256048044
 10
62.82855281094021
 20
16.017172995995438
 10
62.710679040340494
 20
15.978257177886585
 10
62.5945160576598
 20
15.934498428484874
 10
62.48026274252952
 20
15.885971666010798
 10
62.36811470508869
 20
15.832759971876436
 10
62.25826395108505
 20
15.77495444844393
 10
62.15089855314687
 20
15.712654063051454
 10
62.04620232878873
 20
15.645965478573844
 10
61.94435452570236
 20
15.575002870807817
 10
61.84552951487122
 20
15.499887732994589
 10
61.74989649203453
 20
15.420748667814403
 10
61.657619188011616
 20
15.33772116720924
 10
61.56885558838261
 20
15.250947380410595
 10
61.56885558838261
 20
23.149986389000833
 10
83.3358396217598
 20
23.149986389000833
 10
83.3358396217598
 20
19.39998638900083
 10
83.35892398314391
 20
19.1066717670504
 10
83.42760865370639
 20
18.820579524547803
 10
83.54020238890661
 20
18.548754201989183
 10
83.69393275730678
 20
18.29788904095244
 10
83.88501440703503
 20
18.074161174276057
 10
84.10874227371141
 20
17.883079524547803
 10
84.35960743474816
 20
17.72934915614764
 10
84.63143275730678
 20
17.616755420947413
 10
84.91752499980937
 20
17.548070750384944
 10
85.2108396217598
 20
17.52498638900083
 10
85.50415424371023
 20
17.548070750384944
 10
85.79024648621282
 20
17.616755420947413
 10
86.06207180877145
 20
17.72934915614764
 10
86.31293696980819
 20
17.883079524547803
 10
86.53666483648458
 20
18.074161174276057
 10
86.72774648621282
 20
18.29788904095244
 10
86.881476854613
 20
18.548754201989183
 10
86.99407058981322
 20
18.820579524547803
 10
87.06275526037568
 20
19.1066717670504
 10
87.0858396217598
 20
19.39998638900083
 10
87.0858396217598
 20
23.149986389000833
 10
89.7108396217598
 20
23.149986389000833
  0
LWPOLYLINE
  5
45
330
17
100
AcDbEntity
  8
BRACKET_OUTLINE
 62
6
100
AcDbPolyline
 90
87
 70
1
 10
82.93583962175981
 20
23.149986389000833
 10
82.89845975932208
 20
23.105738461143144
 10
82.85621334138268
 20
23.06611052394157
 10
82.80966733738526
 20
23.031634405432758
 10
82.75944641950979
 20
23.002772793500878
 10
82.70622457923899
 20
22.979913026359622
 10
82.65071608203348
 20
22.96336189426697
 10
82.59366588150858
 20
22.953341522236396
 10
82.5358396217598
 20
22.94998638900083
 10
81.7358396217598
 20
22.94998638900083
 10
81.7358396217598
 20
17.303539779594104
 10
81.75231553980385
 20
17.285361405338378
 10
81.76693032953881
 20
17.265655642552368
 10
81.77954324255026
 20
17.244612268503964
 10
81.790032809591
 20
17.22243394238874
 10
81.79829801039622
 20
17.199334253611084
 10
81.80425924656397
 20
17.1755356648015
 10
81.80785910813121
 20
17.15126736937986
 10
81.80906292646317
 20
17.126763084297465
 10
81.80785910813121
 20
17.10225879921508
 10
81.80425924656397
 20
17.077990503793437
 10
81.79829801039622
 20
17.054191914983853
 10
81.790032809591
 20
17.03109222620619
 10
81.77954324255026
 20
17.008913900090967
 10
81.76693032953881
 20
16.987870526042563
 10
81.75231553980385
 20
16.968164763256553
 10
81.7358396217598
 20
16.949986389000827
 10
81.71766124750408
 20
16.933510470956783
 10
81.69795548471807
 20
16.918895681221827
 10
81.67691211066966
 20
16.906282768210374
 10
81.65473378455444
 20
16.895793201169646
 10
81.63163409577677
 20
16.887528000364412
 10
81.6078355069672
 20
16.881566764196663
 10
81.58356721154556
 20
16.877966902629417
 10
81.55906292646317
 20
16.876763084297465
 10
81.53455864138078
 20
16.877966902629417
 10
81.51029034595913
 20
16.881566764196663
 10
81.48649175714955
 20
16.887528000364412
 10
81.46339206837189
 20
16.895793201169646
 10
81.44121374225666
 20
16.906282768210374
 10
81.42017036820826
 20
16.918895681221827
 10
81.40046460542226
 20
16.933510470956783
 10
81.38228623116653
 20
16.949986389000827
 10
80.47439301235308
 20
16.949986389000827
 10
80.45621463809735
 20
16.933510470956783
 10
80.43650887531135
 20
16.918895681221827
 10
80.41546550126294
 20
16.906282768210374
 10
80.39328717514772
 20
16.895793201169646
 10
80.37018748637006
 20
16.887528000364412
 10
80.34638889756047
 20
16.881566764196663
 10
80.32212060213882
 20
16.877966902629417
 10
80.29761631705644
 20
16.876763084297465
 10
80.27311203197405
 20
16.877966902629417
 10
80.2488437365524
 20
16.881566764196663
 10
80.22504514774283
 20
16.887528000364412
 10
80.20194545896517
 20
16.895793201169646
 10
80.17976713284995
 20
16.906282768210374
 10
80.15872375880154
 20
16.918895681221827
 10
80.13901799601553
 20
16.933510470956783
 10
80.1208396217598
 20
16.949986389000827
 10
80.10436370371576
 20
16.968164763256553
 10
80.0897489139808
 20
16.987870526042563
 10
80.07713600096935
 20
17.008913900090967
 10
80.06664643392861
 20
17.03109222620619
 10
80.05838123312338
 20
17.054191914983853
 10
80.05241999695563
 20
17.077990503793437
 10
80.04882013538838
 20
17.10225879921508
 10
80.04761631705644
 20
17.126763084297465
 10
80.04882013538838
 20
17.15126736937986
 10
80.05241999695563
 20
17.1755356648015
 10
80.05838123312338
 20
17.199334253611084
 10
80.06664643392861
 20
17.22243394238874
 10
80.07713600096935
 20
17.244612268503964
 10
80.0897489139808
 20
17.265655642552368
 10
80.10436370371576
 20
17.285361405338378
 10
80.1208396217598
 20
17.303539779594104
 10
80.12083962175981
 20
22.94998638900083
 10
79.3208396217598
 20
22.94998638900083
 10
79.26301336201102
 20
22.953341522236396
 10
79.20596316148612
 20
22.96336189426697
 10
79.15045466428062
 20
22.979913026359622
 10
79.09723282400982
 20
23.002772793500878
 10
79.04701190613434
 20
23.031634405432758
 10
79.00046590213692
 20
23.06611052394157
 10
78.95821948419753
 20
23.105738461143144
 10
78.9208396217598
 20
23.149986389000833
 10
82.93583962175981
 20
23.149986389000833
  0
LWPOLYLINE
  5
46
330
17
100
AcDbEntity
  8
BRACKET_OUTLINE
 62
6
100
AcDbPolyline
 90
87
 70
1
 10
68.4858396217598
 20
23.149986389000833
 10
68.44845975932208
 20
23.105738461143144
 10
68.40621334138268
 20
23.06611052394157
 10
68.35966733738526
 20
23.031634405432758
 10
68.30944641950978
 20
23.002772793500878
 10
68.25622457923899
 20
22.979913026359622
 10
68.20071608203348
 20
22.96336189426697
 10
68.14366588150858
 20
22.953341522236396
 10
68.0858396217598
 20
22.94998638900083
 10
67.2858396217598
 20
22.94998638900083
 10
67.2858396217598
 20
17.303539779594104
 10
67.30231553980386
 20
17.285361405338378
 10
67.31693032953879
 20
17.265655642552368
 10
67.32954324255024
 20
17.244612268503964
 10
67.34003280959098
 20
17.22243394238874
 10
67.34829801039622
 20
17.199334253611084
 10
67.35425924656397
 20
17.1755356648015
 10
67.35785910813121
 20
17.15126736937986
 10
67.35906292646317
 20
17.126763084297465
 10
67.35785910813121
 20
17.10225879921508
 10
67.35425924656397
 20
17.077990503793437
 10
67.34829801039622
 20
17.054191914983853
 10
67.34003280959098
 20
17.03109222620619
 10
67.32954324255024
 20
17.008913900090967
 10
67.31693032953879
 20
16.987870526042563
 10
67.30231553980386
 20
16.968164763256553
 10
67.2858396217598
 20
16.949986389000827
 10
67.26766124750408
 20
16.933510470956783
 10
67.24795548471806
 20
16.918895681221827
 10
67.22691211066966
 20
16.906282768210374
 10
67.20473378455443
 20
16.895793201169646
 10
67.18163409577679
 20
16.887528000364412
 10
67.15783550696719
 20
16.881566764196663
 10
67.13356721154555
 20
16.877966902629417
 10
67.10906292646317
 20
16.876763084297465
 10
67.08455864138077
 20
16.877966902629417
 10
67.06029034595913
 20
16.881566764196663
 10
67.03649175714955
 20
16.887528000364412
 10
67.0133920683719
 20
16.895793201169646
 10
66.99121374225666
 20
16.906282768210374
 10
66.97017036820827
 20
16.918895681221827
 10
66.95046460542225
 20
16.933510470956783
 10
66.93228623116653
 20
16.949986389000827
 10
66.02439301235307
 20
16.949986389000827
 10
66.00621463809735
 20
16.933510470956783
 10
65.98650887531133
 20
16.918895681221827
 10
65.96546550126294
 20
16.906282768210374
 10
65.9432871751477
 20
16.895793201169646
 10
65.92018748637005
 20
16.887528000364412
 10
65.89638889756047
 20
16.881566764196663
 10
65.87212060213884
 20
16.877966902629417
 10
65.84761631705643
 20
16.876763084297465
 10
65.82311203197405
 20
16.877966902629417
 10
65.79884373655241
 20
16.881566764196663
 10
65.77504514774282
 20
16.887528000364412
 10
65.75194545896517
 20
16.895793201169646
 10
65.72976713284994
 20
16.906282768210374
 10
65.70872375880154
 20
16.918895681221827
 10
65.68901799601552
 20
16.933510470956783
 10
65.6708396217598
 20
16.949986389000827
 10
65.65436370371575
 20
16.968164763256553
 10
65.63974891398081
 20
16.987870526042563
 10
65.62713600096934
 20
17.008913900090967
 10
65.61664643392862
 20
17.03109222620619
 10
65.60838123312338
 20
17.054191914983853
 10
65.60241999695563
 20
17.077990503793437
 10
65.5988201353884
 20
17.10225879921508
 10
65.59761631705643
 20
17.126763084297465
 10
65.5988201353884
 20
17.15126736937986
 10
65.60241999695563
 20
17.1755356648015
 10
65.60838123312338
 20
17.199334253611084
 10
65.61664643392862
 20
17.22243394238874
 10
65.62713600096934
 20
17.244612268503964
 10
65.63974891398081
 20
17.265655642552368
 10
65.65436370371575
 20
17.285361405338378
 10
65.6708396217598
 20
17.303539779594104
 10
65.6708396217598
 20
22.94998638900083
 10
64.8708396217598
 20
22.94998638900083
 10
64.81301336201102
 20
22.953341522236396
 10
64.75596316148612
 20
22.96336189426697
 10
64.70045466428061
 20
22.979913026359622
 10
64.64723282400982
 20
23.002772793500878
 10
64.59701190613434
 20
23.031634405432758
 10
64.55046590213692
 20
23.06611052394157
 10
64.50821948419753
 20
23.105738461143144
 10
64.47083962175981
 20
23.149986389000833
 10
68.4858396217598
 20
23.149986389000833
  0
LINE
  5
47
330
17
100
AcDbEntity
  8
BRACKET_CUT_LINE
 62
4
100
AcDbLine
 10
80.12083962175981
 20
22.94998638900083
 30
0.0
 11
81.7358396217598
 21
22.94998638900083
 31
0.0
  0
LINE
  5
48
330
17
100
AcDbEntity
  8
BRACKET_CUT_LINE
 62
4
100
AcDbLine
 10
65.6708396217598
 20
22.94998638900083
 30
0.0
 11
67.2858396217598
 21
22.94998638900083
 31
0.0
  0
LWPOLYLINE
  5
49
330
17
100
AcDbEntity
  8
SHELF_L
 62
3
100
AcDbPolyline
 90
133
 70
1
 10
61.8898476050712
 20
5.401507593657794
 10
64.51484760507121
 20
5.401507593657794
 10
64.51484760507121
 20
9.151507593657794
 10
64.53793196645533
 20
9.444822215608223
 10
64.6066166370178
 20
9.73091445811082
 10
64.71921037221801
 20
10.00273978066944
 10
64.87294074061819
 20
10.253604941706184
 10
65.06402239034644
 20
10.47733280838257
 10
65.28775025702282
 20
10.668414458110824
 10
65.53861541805956
 20
10.822144826510986
 10
65.81044074061819
 20
10.934738561711216
 10
66.09653298312078
 20
11.003423232273684
 10
66.38984760507121
 20
11.026507593657799
 10
66.68316222702164
 20
11.003423232273684
 10
66.96925446952423
 20
10.934738561711216
 10
67.24107979208286
 20
10.822144826510986
 10
67.4919449531196
 20
10.668414458110824
 10
67.71567281979598
 20
10.47733280838257
 10
67.90675446952423
 20
10.253604941706184
 10
68.0604848379244
 20
10.00273978066944
 10
68.17307857312463
 20
9.73091445811082
 10
68.2417632436871
 20
9.444822215608223
 10
68.26484760507121
 20
9.151507593657794
 10
68.26484760507121
 20
5.401507593657794
 10
90.88984760507121
 20
5.401507593657794
 10
90.88984760507121
 20
9.832798950254439
 10
90.88984760507121
 20
9.832798950254439
 10
90.88205211605897
 20
10.048928921393323
 10
90.85870616212155
 20
10.26393566665539
 10
90.81993107201055
 20
10.476701797560466
 10
90.76592835958522
 20
10.6861215700848
 10
90.69697867654648
 20
10.891106631204607
 10
90.613440353892
 20
11.090591675058812
 10
90.5157475396727
 20
11.283539979335753
 10
90.40440794272845
 20
11.46894879311149
 10
90.28000019412897
 20
11.645854548138974
 10
90.14317084003247
 20
11.813337866505211
 10
89.99463098158984
 20
11.970528338631478
 10
89.83515257935736
 20
12.116609046785587
 10
89.6655644414232
 20
12.250820810597336
 10
89.48674791609795
 20
12.372466132513313
 10
89.29963231155388
 20
12.480912822686594
 10
89.10519006621713
 20
12.575597284462734
 10
88.90443169501239
 20
12.656027443387476
 10
88.69840053772425
 20
12.721785304514047
 10
88.4881673367679
 20
12.77252912471985
 10
88.48816733676786
 20
12.772529124719657
 10
87.9852508140197
 20
12.880035505843576
 10
87.48233429127151
 20
12.996568662772898
 10
86.97941776852335
 20
13.120111385562783
 10
86.47650124577518
 20
13.248525127420269
 10
85.97358472302702
 20
13.379587023334611
 10
85.47066820027884
 20
13.511028368271171
 10
84.96775167753067
 20
13.640573888864354
 10
84.46483515478249
 20
13.765981128809573
 10
83.96191863203433
 20
13.885079266185928
 10
83.45900210928616
 20
13.995806690774844
 10
82.956085586538
 20
14.096246690904438
 10
82.45316906378983
 20
14.184660632073951
 10
81.95025254104165
 20
14.2595180530302
 10
81.44733601829348
 20
14.319523158327693
 10
80.9444194955453
 20
14.363637248781261
 10
80.44150297279714
 20
14.391096701536123
 10
79.93858645004897
 20
14.401426188517108
 10
79.43566992730081
 20
14.394446904443287
 10
78.93275340455264
 20
14.370279661979582
 10
78.42983688180446
 20
14.3293428004478
 10
77.9269203590563
 20
14.272344944297567
 10
77.42400383630812
 20
14.20027273668943
 10
76.92108731355995
 20
14.114373760523955
 10
76.41817079081179
 20
14.016134942556912
 10
75.91525426806362
 20
13.907256814429205
 10
75.41233774531544
 20
13.789624076157752
 10
74.90942122256727
 20
13.665272971638553
 10
74.40650469981911
 20
13.536356040897973
 10
73.90358817707093
 20
13.405104859237001
 10
73.40067165432276
 20
13.273791408260646
 10
72.8977551315746
 20
13.144688747467004
 10
72.39483860882643
 20
13.02003166717775
 10
71.89192208607825
 20
12.901978003914959
 10
71.38900556333009
 20
12.792571287862085
 10
70.88608904058191
 20
12.693705368988265
 10
70.38317251783374
 20
12.607091634164103
 10
69.88025599508558
 20
12.534229382746549
 10
69.37733947233741
 20
12.476379873436873
 10
68.87442294958925
 20
12.43454449166526
 10
68.37150642684107
 20
12.409447415428613
 10
67.8685899040929
 20
12.401523079638874
 10
67.36567338134472
 20
12.410908655976488
 10
66.86275685859655
 20
12.437441678423827
 10
66.35984033584839
 20
12.480662855581276
 10
65.85692381310022
 20
12.539824021084119
 10
65.35400729035204
 20
12.613901084497105
 10
64.85109076760388
 20
12.701611758504416
 10
64.34817424485571
 20
12.801437755534192
 10
63.84525772210753
 20
12.911651069589954
 10
63.84525772215236
 20
12.911651069786348
 10
63.70406178028873
 20
12.94173952461654
 10
63.5620560325996
 20
12.96773907722957
 10
63.419358864216385
 20
12.989628052724942
 10
63.27608923668327
 20
13.007388203043806
 10
63.13236658878325
 20
13.021004722181733
 10
62.98831073696626
 20
13.030466258531941
 10
62.84404177546245
 20
13.03576492434875
 10
62.699679976163935
 20
13.036896302323289
 10
62.55534568835839
 20
13.033859449266057
 10
62.411159238398135
 20
13.026656896893225
 10
62.267240829388335
 20
13.015294649716044
 10
62.123710440977995
 20
12.999782180035087
 10
61.980687729337156
 20
12.980132420043521
 10
61.83829192740382
 20
12.956361751046035
 10
61.69664174548372
 20
12.92848998980229
 10
61.55585527228575
 20
12.89654037200641
 10
61.41604987647562
 20
12.86053953291621
 10
61.27734210882978
 20
12.820517485148333
 10
61.1398476050712
 20
12.7765075936578
 10
61.1398476050712
 20
12.1515075936578
 10
61.1398476050712
 20
12.1515075936578
 10
61.223820962148686
 20
12.146791751077732
 10
61.30673830553844
 20
12.132703527794167
 10
61.38755690153758
 20
12.109420091389072
 10
61.465260409409375
 20
12.077234244584613
 10
61.5388716624577
 20
12.036550743079015
 10
61.60746495646526
 20
11.987881205508824
 10
61.67017769096112
 20
11.931837679547709
 10
61.72622121692223
 20
11.869124945051855
 10
61.77489075449242
 20
11.800531651044306
 10
61.81557425599802
 20
11.726920397995972
 10
61.847760102802475
 20
11.649216890124176
 10
61.87104353920757
 20
11.568398294125036
 10
61.885131762491135
 20
11.485480950735283
 10
61.8898476050712
 20
11.4015075936578
 10
61.8898476050712
 20
5.401507593657794
  0
LWPOLYLINE
  5
4A
330
17
100
AcDbEntity
  8
BRACKET_OUTLINE
 62
6
100
AcDbPolyline
 90
87
 70
1
 10
68.6648476050712
 20
5.401507593657794
 10
68.70222746750893
 20
5.445755521515483
 10
68.74447388544833
 20
5.485383458717056
 10
68.79101988944575
 20
5.519859577225869
 10
68.84124080732123
 20
5.5487211891577495
 10
68.89446264759202
 20
5.571580956299005
 10
68.94997114479753
 20
5.5881320883916565
 10
69.00702134532243
 20
5.598152460422231
 10
69.06484760507121
 20
5.6015075936577965
 10
69.86484760507122
 20
5.6015075936577965
 10
69.86484760507122
 20
11.247954203064527
 10
69.84837168702717
 20
11.266132577320253
 10
69.8337568972922
 20
11.285838340106263
 10
69.82114398428075
 20
11.306881714154667
 10
69.81065441724002
 20
11.32906004026989
 10
69.80238921643479
 20
11.352159729047546
 10
69.79642798026704
 20
11.37595831785713
 10
69.7928281186998
 20
11.400226613278772
 10
69.79162430036784
 20
11.424730898361165
 10
69.7928281186998
 20
11.449235183443552
 10
69.79642798026704
 20
11.473503478865194
 10
69.80238921643479
 20
11.497302067674777
 10
69.81065441724002
 20
11.52040175645244
 10
69.82114398428075
 20
11.542580082567664
 10
69.8337568972922
 20
11.563623456616067
 10
69.84837168702717
 20
11.583329219402078
 10
69.86484760507122
 20
11.601507593657804
 10
69.88302597932693
 20
11.617983511701848
 10
69.90273174211295
 20
11.632598301436804
 10
69.92377511616135
 20
11.645211214448256
 10
69.94595344227658
 20
11.655700781488985
 10
69.96905313105424
 20
11.663965982294219
 10
69.99285171986381
 20
11.669927218461968
 10
70.01712001528546
 20
11.673527080029213
 10
70.04162430036784
 20
11.674730898361165
 10
70.06612858545023
 20
11.673527080029213
 10
70.09039688087188
 20
11.669927218461968
 10
70.11419546968146
 20
11.663965982294219
 10
70.13729515845912
 20
11.655700781488985
 10
70.15947348457435
 20
11.645211214448256
 10
70.18051685862275
 20
11.632598301436804
 10
70.20022262140876
 20
11.617983511701848
 10
70.21840099566448
 20
11.601507593657804
 10
71.12629421447794
 20
11.601507593657804
 10
71.14447258873366
 20
11.617983511701848
 10
71.16417835151967
 20
11.632598301436804
 10
71.18522172556807
 20
11.645211214448256
 10
71.2074000516833
 20
11.655700781488985
 10
71.23049974046096
 20
11.663965982294219
 10
71.25429832927054
 20
11.669927218461968
 10
71.27856662469219
 20
11.673527080029213
 10
71.30307090977458
 20
11.674730898361165
 10
71.32757519485696
 20
11.673527080029213
 10
71.35184349027861
 20
11.669927218461968
 10
71.37564207908818
 20
11.663965982294219
 10
71.39874176786584
 20
11.655700781488985
 10
71.42092009398107
 20
11.645211214448256
 10
71.44196346802947
 20
11.632598301436804
 10
71.46166923081549
 20
11.617983511701848
 10
71.47984760507121
 20
11.601507593657804
 10
71.49632352311525
 20
11.583329219402078
 10
71.51093831285021
 20
11.563623456616067
 10
71.52355122586167
 20
11.542580082567664
 10
71.5340407929024
 20
11.52040175645244
 10
71.54230599370763
 20
11.497302067674777
 10
71.54826722987538
 20
11.473503478865194
 10
71.55186709144263
 20
11.449235183443552
 10
71.55307090977458
 20
11.424730898361165
 10
71.55186709144263
 20
11.400226613278772
 10
71.54826722987538
 20
11.37595831785713
 10
71.54230599370763
 20
11.352159729047546
 10
71.5340407929024
 20
11.32906004026989
 10
71.52355122586167
 20
11.306881714154667
 10
71.51093831285021
 20
11.285838340106263
 10
71.49632352311525
 20
11.266132577320253
 10
71.47984760507121
 20
11.247954203064527
 10
71.4798476050712
 20
5.6015075936577965
 10
72.27984760507121
 20
5.6015075936577965
 10
72.33767386481999
 20
5.598152460422231
 10
72.39472406534489
 20
5.5881320883916565
 10
72.4502325625504
 20
5.571580956299005
 10
72.50345440282119
 20
5.5487211891577495
 10
72.55367532069667
 20
5.519859577225869
 10
72.60022132469409
 20
5.485383458717056
 10
72.64246774263349
 20
5.445755521515483
 10
72.67984760507122
 20
5.401507593657794
 10
68.6648476050712
 20
5.401507593657794
  0
LWPOLYLINE
  5
4B
330
17
100
AcDbEntity
  8
BRACKET_OUTLINE
 62
6
100
AcDbPolyline
 90
87
 70
1
 10
83.11484760507122
 20
5.401507593657794
 10
83.15222746750894
 20
5.445755521515483
 10
83.19447388544833
 20
5.485383458717056
 10
83.24101988944575
 20
5.519859577225869
 10
83.29124080732123
 20
5.5487211891577495
 10
83.34446264759202
 20
5.571580956299005
 10
83.39997114479753
 20
5.5881320883916565
 10
83.45702134532243
 20
5.598152460422231
 10
83.51484760507121
 20
5.6015075936577965
 10
84.31484760507121
 20
5.6015075936577965
 10
84.31484760507121
 20
11.247954203064527
 10
84.29837168702716
 20
11.266132577320253
 10
84.28375689729222
 20
11.285838340106263
 10
84.27114398428077
 20
11.306881714154667
 10
84.26065441724003
 20
11.32906004026989
 10
84.25238921643479
 20
11.352159729047546
 10
84.24642798026704
 20
11.37595831785713
 10
84.2428281186998
 20
11.400226613278772
 10
84.24162430036785
 20
11.424730898361165
 10
84.2428281186998
 20
11.449235183443552
 10
84.24642798026704
 20
11.473503478865194
 10
84.25238921643479
 20
11.497302067674777
 10
84.26065441724003
 20
11.52040175645244
 10
84.27114398428077
 20
11.542580082567664
 10
84.28375689729222
 20
11.563623456616067
 10
84.29837168702716
 20
11.583329219402078
 10
84.31484760507121
 20
11.601507593657804
 10
84.33302597932693
 20
11.617983511701848
 10
84.35273174211295
 20
11.632598301436804
 10
84.37377511616135
 20
11.645211214448256
 10
84.39595344227658
 20
11.655700781488985
 10
84.41905313105423
 20
11.663965982294219
 10
84.44285171986382
 20
11.669927218461968
 10
84.46712001528546
 20
11.673527080029213
 10
84.49162430036785
 20
11.674730898361165
 10
84.51612858545025
 20
11.673527080029213
 10
84.54039688087188
 20
11.669927218461968
 10
84.56419546968147
 20
11.663965982294219
 10
84.58729515845911
 20
11.655700781488985
 10
84.60947348457435
 20
11.645211214448256
 10
84.63051685862274
 20
11.632598301436804
 10
84.65022262140876
 20
11.617983511701848
 10
84.66840099566448
 20
11.601507593657804
 10
85.57629421447794
 20
11.601507593657804
 10
85.59447258873367
 20
11.617983511701848
 10
85.61417835151968
 20
11.632598301436804
 10
85.63522172556807
 20
11.645211214448256
 10
85.65740005168331
 20
11.655700781488985
 10
85.68049974046096
 20
11.663965982294219
 10
85.70429832927054
 20
11.669927218461968
 10
85.72856662469218
 20
11.673527080029213
 10
85.75307090977458
 20
11.674730898361165
 10
85.77757519485696
 20
11.673527080029213
 10
85.8018434902786
 20
11.669927218461968
 10
85.8256420790882
 20
11.663965982294219
 10
85.84874176786585
 20
11.655700781488985
 10
85.87092009398107
 20
11.645211214448256
 10
85.89196346802947
 20
11.632598301436804
 10
85.91166923081549
 20
11.617983511701848
 10
85.92984760507122
 20
11.601507593657804
 10
85.94632352311527
 20
11.583329219402078
 10
85.9609383128502
 20
11.563623456616067
 10
85.97355122586167
 20
11.542580082567664
 10
85.98404079290239
 20
11.52040175645244
 10
85.99230599370763
 20
11.497302067674777
 10
85.99826722987538
 20
11.473503478865194
 10
86.00186709144262
 20
11.449235183443552
 10
86.00307090977458
 20
11.424730898361165
 10
86.00186709144262
 20
11.400226613278772
 10
85.99826722987538
 20
11.37595831785713
 10
85.99230599370763
 20
11.352159729047546
 10
85.98404079290239
 20
11.32906004026989
 10
85.97355122586167
 20
11.306881714154667
 10
85.9609383128502
 20
11.285838340106263
 10
85.94632352311527
 20
11.266132577320253
 10
85.92984760507122
 20
11.247954203064527
 10
85.92984760507122
 20
5.6015075936577965
 10
86.72984760507121
 20
5.6015075936577965
 10
86.78767386482
 20
5.598152460422231
 10
86.84472406534489
 20
5.5881320883916565
 10
86.9002325625504
 20
5.571580956299005
 10
86.9534544028212
 20
5.5487211891577495
 10
87.00367532069667
 20
5.519859577225869
 10
87.05022132469409
 20
5.485383458717056
 10
87.09246774263349
 20
5.445755521515483
 10
87.1298476050712
 20
5.401507593657794
 10
83.11484760507122
 20
5.401507593657794
  0
LINE
  5
4C
330
17
100
AcDbEntity
  8
BRACKET_CUT_LINE
 62
4
100
AcDbLine
 10
71.4798476050712
 20
5.6015075936577965
 30
0.0
 11
69.86484760507122
 21
5.6015075936577965
 31
0.0
  0
LINE
  5
4D
330
17
100
AcDbEntity
  8
BRACKET_CUT_LINE
 62
4
100
AcDbLine
 10
85.92984760507122
 20
5.6015075936577965
 30
0.0
 11
84.31484760507121
 21
5.6015075936577965
 31
0.0
  0
LWPOLYLINE
  5
4E
330
17
100
AcDbEntity
  8
SHELF_L
 62
3
100
AcDbPolyline
 90
133
 70
1
 10
28.453889406712793
 20
42.5984924063422
 10
28.453889406712793
 20
36.5984924063422
 10
28.453889406712793
 20
36.5984924063422
 10
28.458605249292862
 20
36.51451904926472
 10
28.472693472576427
 20
36.43160170587497
 10
28.49597690898152
 20
36.350783109875834
 10
28.528162755785978
 20
36.27307960200403
 10
28.56884625729158
 20
36.199468348955705
 10
28.61751579486177
 20
36.13087505494815
 10
28.673559320822882
 20
36.0681623204523
 10
28.736272055318743
 20
36.01211879449119
 10
28.804865349326292
 20
35.963449256920995
 10
28.878476602374626
 20
35.9227657554154
 10
28.956180110246418
 20
35.89057990861093
 10
29.03699870624556
 20
35.86729647220584
 10
29.11991604963531
 20
35.85320824892227
 10
29.203889406712793
 20
35.8484924063422
 10
29.203889406712793
 20
35.2234924063422
 10
29.203889406712793
 20
35.2234924063422
 10
29.11423285014876
 20
35.21073533858069
 10
29.024359953613786
 20
35.19960414901237
 10
28.934300199159935
 20
35.190102489130894
 10
28.844083130136436
 20
35.1822334758763
 10
28.753738341498256
 20
35.1759996906126
 10
28.663295470097705
 20
35.17140317828088
 10
28.572784184962334
 20
35.1684454467286
 10
28.48223417756224
 20
35.16712746621485
 10
28.39167515207004
 20
35.16744966909209
 10
28.301136815616648
 20
35.16941194966441
 10
28.21064886854613
 20
35.173013664222026
 10
28.120240994672724
 20
35.17825363125263
 10
28.02994285154333
 20
35.18513013182887
 10
27.93978406070859
 20
35.19364091017222
 10
27.8497941980058
 20
35.20378317439304
 10
27.76000278385679
 20
35.21555359740637
 10
27.670439273584
 20
35.228948318023384
 10
27.58113304774792
 20
35.243962942218005
 10
27.49211340250901
 20
35.260592544568354
 10
27.492113402585726
 20
35.260592544959366
 10
26.989706842767735
 20
35.353160042850334
 10
26.487300282949743
 20
35.43269054928135
 10
25.984893723131755
 20
35.49781016336814
 10
25.482487163313763
 20
35.54739393445473
 10
24.98008060349577
 20
35.580585295797135
 10
24.47767404367778
 20
35.59681086187642
 10
23.97526748385979
 20
35.59579033371571
 10
23.4728609240418
 20
35.57754134108508
 10
22.97045436422381
 20
35.542379137944764
 10
22.468047804405817
 20
35.49091115638788
 10
21.96564124458783
 20
35.424026513164065
 10
21.463234684769837
 20
35.342880650060295
 10
20.960828124951846
 20
35.248875373478654
 10
20.458421565133854
 20
35.14363463803001
 10
19.956015005315862
 20
35.028976492485626
 10
19.453608445497874
 20
34.90688167272444
 10
18.951201885679883
 20
34.77945938423706
 10
18.44879532586189
 20
34.64891086529906
 10
17.946388766043903
 20
34.5174913602646
 10
17.44398220622591
 20
34.38747115989736
 10
16.94157564640792
 20
34.261096381772546
 10
16.439169086589928
 20
34.140550168274245
 10
15.93676252677194
 20
34.02791497249822
 10
15.434355966953948
 20
33.9251365835765
 10
14.931949407135956
 20
33.83399051289162
 10
14.429542847317965
 20
33.756051321863225
 10
13.927136287499977
 20
33.692665421174254
 10
13.424729727681985
 20
33.64492781133349
 10
12.922323167863993
 20
33.61366316638512
 10
12.419916608046002
 20
33.59941158754653
 10
11.917510048228014
 20
33.602419272882415
 10
11.415103488410022
 20
33.62263426419803
 10
10.91269692859203
 20
33.65970734462438
 10
10.410290368774039
 20
33.71299807138968
 10
9.90788380895605
 20
33.78158583955987
 10
9.405477249138059
 20
33.864285785620694
 10
8.903070689320067
 20
33.95966925616452
 10
8.40066412950208
 20
34.06608848808247
 10
7.8982575696840875
 20
34.181705073908034
 10
7.395851009866096
 20
34.304521720569255
 10
6.893444450048104
 20
34.432416752912445
 10
6.391037890230113
 20
34.56318076594425
 10
5.8886313304121245
 20
34.6945547926192
 10
5.386224770594133
 20
34.82426932781878
 10
4.883818210776141
 20
34.95008353437734
 10
4.381411650958153
 20
35.0698239538648
 10
3.8790050911401615
 20
35.18142205339234
 10
3.37659853132217
 20
35.282949959814076
 10
2.874191971504178
 20
35.3726537640117
 10
2.874191971504178
 20
35.3726537640117
 10
2.745495499536098
 20
35.39112507123059
 10
2.6161195582662486
 20
35.40400283920283
 10
2.4863071440469255
 20
35.41126288065979
 10
2.35630207302221
 20
35.4128915596536
 10
2.2263485231878626
 20
35.40888581716844
 10
2.0966905757715573
 20
35.399253176865955
 10
1.9675717567948965
 20
35.384011730954285
 10
1.8392345796781875
 20
35.3631901062069
 10
1.711920089747153
 20
35.336827410195184
 10
1.5858674114969844
 20
35.304973157835946
 10
1.4613132994642015
 20
35.26768717839151
 10
1.3384916935497593
 20
35.22503950309728
 10
1.2176332796286893
 20
35.17711023362767
 10
1.0989650562715028
 20
35.123989391647754
 10
0.9827099083911612
 20
35.06577674973275
 10
0.8690861886163823
 20
35.002581643973286
 10
0.7583073071776099
 20
34.934522768618336
 10
0.6505813310758306
 20
34.86172795314138
 10
0.546110593287203
 20
34.78433392214863
 10
0.546110593287203
 20
42.5984924063422
 10
22.078889406712793
 20
42.5984924063422
 10
22.078889406712793
 20
38.8484924063422
 10
22.10197376809691
 20
38.55517778439177
 10
22.17065843865938
 20
38.26908554188918
 10
22.283252173859605
 20
37.997260219330556
 10
22.436982542259766
 20
37.746395058293814
 10
22.628064191988017
 20
37.52266719161743
 10
22.851792058664408
 20
37.33158554188918
 10
23.102657219701143
 20
37.17785517348902
 10
23.374482542259766
 20
37.065261438288786
 10
23.66057478476236
 20
36.996576767726324
 10
23.953889406712793
 20
36.9734924063422
 10
24.247204028663226
 20
36.996576767726324
 10
24.53329627116582
 20
37.065261438288786
 10
24.805121593724444
 20
37.17785517348902
 10
25.05598675476118
 20
37.33158554188918
 10
25.27971462143757
 20
37.52266719161743
 10
25.47079627116582
 20
37.746395058293814
 10
25.624526639565982
 20
37.997260219330556
 10
25.737120374766207
 20
38.26908554188918
 10
25.805805045328675
 20
38.55517778439177
 10
25.828889406712793
 20
38.8484924063422
 10
25.828889406712793
 20
42.5984924063422
 10
28.453889406712793
 20
42.5984924063422
  0
LWPOLYLINE
  5
4F
330
17
100
AcDbEntity
  8
BRACKET_OUTLINE
 62
6
100
AcDbPolyline
 90
87
 70
1
 10
21.678889406712795
 20
42.5984924063422
 10
21.641509544275074
 20
42.55424447848452
 10
21.59926312633568
 20
42.51461654128295
 10
21.55271712233825
 20
42.48014042277413
 10
21.502496204462773
 20
42.451278810842254
 10
21.44927436419198
 20
42.428419043701
 10
21.393765866986477
 20
42.41186791160834
 10
21.33671566646158
 20
42.40184753957777
 10
21.278889406712793
 20
42.3984924063422
 10
20.478889406712796
 20
42.3984924063422
 10
20.478889406712796
 20
36.75204579693548
 10
20.49536532475684
 20
36.73386742267975
 10
20.509980114491793
 20
36.71416165989375
 10
20.522593027503248
 20
36.693118285845344
 10
20.533082594543977
 20
36.67093995973012
 10
20.54134779534921
 20
36.64784027095246
 10
20.547309031516967
 20
36.624041682142874
 10
20.550908893084205
 20
36.59977338672124
 10
20.552112711416157
 20
36.57526910163884
 10
20.550908893084205
 20
36.55076481655645
 10
20.547309031516967
 20
36.52649652113482
 10
20.54134779534921
 20
36.50269793232523
 10
20.533082594543977
 20
36.47959824354757
 10
20.522593027503248
 20
36.45741991743235
 10
20.509980114491793
 20
36.43637654338394
 10
20.49536532475684
 20
36.416670780597926
 10
20.478889406712796
 20
36.3984924063422
 10
20.46071103245707
 20
36.38201648829816
 10
20.44100526967106
 20
36.3674016985632
 10
20.419961895622656
 20
36.35478878555175
 10
20.397783569507432
 20
36.344299218511026
 10
20.374683880729773
 20
36.336034017705785
 10
20.35088529192019
 20
36.330072781538036
 10
20.326616996498547
 20
36.3264729199708
 10
20.302112711416157
 20
36.32526910163884
 10
20.277608426333767
 20
36.3264729199708
 10
20.253340130912125
 20
36.330072781538036
 10
20.22954154210254
 20
36.336034017705785
 10
20.206441853324883
 20
36.344299218511026
 10
20.18426352720966
 20
36.35478878555175
 10
20.163220153161255
 20
36.3674016985632
 10
20.143514390375245
 20
36.38201648829816
 10
20.12533601611952
 20
36.3984924063422
 10
19.21744279730607
 20
36.3984924063422
 10
19.199264423050344
 20
36.38201648829816
 10
19.179558660264334
 20
36.3674016985632
 10
19.15851528621593
 20
36.35478878555175
 10
19.136336960100703
 20
36.344299218511026
 10
19.113237271323047
 20
36.336034017705785
 10
19.089438682513464
 20
36.330072781538036
 10
19.065170387091822
 20
36.3264729199708
 10
19.040666102009432
 20
36.32526910163884
 10
19.01616181692704
 20
36.3264729199708
 10
18.9918935215054
 20
36.330072781538036
 10
18.968094932695816
 20
36.336034017705785
 10
18.944995243918157
 20
36.344299218511026
 10
18.922816917802933
 20
36.35478878555175
 10
18.90177354375453
 20
36.3674016985632
 10
18.88206778096852
 20
36.38201648829816
 10
18.863889406712794
 20
36.3984924063422
 10
18.84741348866875
 20
36.416670780597926
 10
18.832798698933793
 20
36.43637654338394
 10
18.82018578592234
 20
36.45741991743235
 10
18.80969621888161
 20
36.47959824354757
 10
18.80143101807638
 20
36.50269793232523
 10
18.795469781908622
 20
36.52649652113482
 10
18.791869920341384
 20
36.55076481655645
 10
18.790666102009432
 20
36.57526910163884
 10
18.791869920341384
 20
36.59977338672124
 10
18.795469781908622
 20
36.624041682142874
 10
18.80143101807638
 20
36.64784027095246
 10
18.80969621888161
 20
36.67093995973012
 10
18.82018578592234
 20
36.693118285845344
 10
18.832798698933793
 20
36.71416165989375
 10
18.84741348866875
 20
36.73386742267975
 10
18.863889406712794
 20
36.75204579693548
 10
18.863889406712794
 20
42.3984924063422
 10
18.063889406712796
 20
42.3984924063422
 10
18.00606314696401
 20
42.40184753957777
 10
17.94901294643911
 20
42.41186791160834
 10
17.89350444923361
 20
42.428419043701
 10
17.840282608962816
 20
42.451278810842254
 10
17.790061691087338
 20
42.48014042277413
 10
17.74351568708991
 20
42.51461654128295
 10
17.701269269150515
 20
42.55424447848452
 10
17.663889406712794
 20
42.5984924063422
 10
21.678889406712795
 20
42.5984924063422
  0
LWPOLYLINE
  5
50
330
17
100
AcDbEntity
  8
BRACKET_OUTLINE
 62
6
100
AcDbPolyline
 90
87
 70
1
 10
7.228889406712792
 20
42.5984924063422
 10
7.191509544275071
 20
42.55424447848452
 10
7.149263126335676
 20
42.51461654128295
 10
7.102717122338248
 20
42.48014042277413
 10
7.05249620446277
 20
42.451278810842254
 10
6.9992743641919795
 20
42.428419043701
 10
6.943765866986471
 20
42.41186791160834
 10
6.886715666461576
 20
42.40184753957777
 10
6.828889406712793
 20
42.3984924063422
 10
6.028889406712793
 20
42.3984924063422
 10
6.028889406712793
 20
36.75204579693548
 10
6.04536532475684
 20
36.73386742267975
 10
6.05998011449179
 20
36.71416165989375
 10
6.072593027503242
 20
36.693118285845344
 10
6.083082594543978
 20
36.67093995973012
 10
6.091347795349208
 20
36.64784027095246
 10
6.097309031516961
 20
36.624041682142874
 10
6.100908893084203
 20
36.59977338672124
 10
6.102112711416154
 20
36.57526910163884
 10
6.100908893084203
 20
36.55076481655645
 10
6.097309031516961
 20
36.52649652113482
 10
6.091347795349208
 20
36.50269793232523
 10
6.083082594543978
 20
36.47959824354757
 10
6.072593027503242
 20
36.45741991743235
 10
6.05998011449179
 20
36.43637654338394
 10
6.04536532475684
 20
36.416670780597926
 10
6.028889406712793
 20
36.3984924063422
 10
6.010711032457067
 20
36.38201648829816
 10
5.9910052696710565
 20
36.3674016985632
 10
5.969961895622653
 20
36.35478878555175
 10
5.9477835695074255
 20
36.344299218511026
 10
5.92468388072977
 20
36.336034017705785
 10
5.900885291920186
 20
36.330072781538036
 10
5.876616996498544
 20
36.3264729199708
 10
5.852112711416154
 20
36.32526910163884
 10
5.827608426333764
 20
36.3264729199708
 10
5.803340130912122
 20
36.330072781538036
 10
5.779541542102539
 20
36.336034017705785
 10
5.756441853324883
 20
36.344299218511026
 10
5.734263527209656
 20
36.35478878555175
 10
5.713220153161256
 20
36.3674016985632
 10
5.693514390375242
 20
36.38201648829816
 10
5.675336016119516
 20
36.3984924063422
 10
4.767442797306064
 20
36.3984924063422
 10
4.749264423050338
 20
36.38201648829816
 10
4.729558660264328
 20
36.3674016985632
 10
4.708515286215928
 20
36.35478878555175
 10
4.6863369601007
 20
36.344299218511026
 10
4.6632372713230446
 20
36.336034017705785
 10
4.639438682513461
 20
36.330072781538036
 10
4.615170387091819
 20
36.3264729199708
 10
4.590666102009429
 20
36.32526910163884
 10
4.566161816927039
 20
36.3264729199708
 10
4.541893521505397
 20
36.330072781538036
 10
4.5180949326958135
 20
36.336034017705785
 10
4.494995243918154
 20
36.344299218511026
 10
4.4728169178029304
 20
36.35478878555175
 10
4.451773543754527
 20
36.3674016985632
 10
4.4320677809685165
 20
36.38201648829816
 10
4.413889406712791
 20
36.3984924063422
 10
4.397413488668743
 20
36.416670780597926
 10
4.382798698933794
 20
36.43637654338394
 10
4.370185785922338
 20
36.45741991743235
 10
4.359696218881606
 20
36.47959824354757
 10
4.351431018076376
 20
36.50269793232523
 10
4.345469781908619
 20
36.52649652113482
 10
4.341869920341377
 20
36.55076481655645
 10
4.340666102009429
 20
36.57526910163884
 10
4.341869920341377
 20
36.59977338672124
 10
4.345469781908619
 20
36.624041682142874
 10
4.351431018076376
 20
36.64784027095246
 10
4.359696218881606
 20
36.67093995973012
 10
4.370185785922338
 20
36.693118285845344
 10
4.382798698933794
 20
36.71416165989375
 10
4.397413488668743
 20
36.73386742267975
 10
4.413889406712791
 20
36.75204579693548
 10
4.413889406712791
 20
42.3984924063422
 10
3.61388940671279
 20
42.3984924063422
 10
3.556063146964007
 20
42.40184753957777
 10
3.4990129464391124
 20
42.41186791160834
 10
3.443504449233604
 20
42.428419043701
 10
3.3902826089628135
 20
42.451278810842254
 10
3.3400616910873353
 20
42.48014042277413
 10
3.293515687089908
 20
42.51461654128295
 10
3.2512692691505123
 20
42.55424447848452
 10
3.2138894067127914
 20
42.5984924063422
 10
7.228889406712792
 20
42.5984924063422
  0
LINE
  5
51
330
17
100
AcDbEntity
  8
BRACKET_CUT_LINE
 62
4
100
AcDbLine
 10
18.863889406712794
 20
42.3984924063422
 30
0.0
 11
20.478889406712796
 21
42.3984924063422
 31
0.0
  0
LINE
  5
52
330
17
100
AcDbEntity
  8
BRACKET_CUT_LINE
 62
4
100
AcDbLine
 10
4.413889406712791
 20
42.3984924063422
 30
0.0
 11
6.028889406712793
 21
42.3984924063422
 31
0.0
  0
LWPOLYLINE
  5
53
330
17
100
AcDbEntity
  8
SHELF_L
 62
3
100
AcDbPolyline
 90
133
 70
1
 10
0.75
 20
24.649986389000833
 10
3.375
 20
24.649986389000833
 10
3.375
 20
28.399986389000833
 10
3.398084361384118
 20
28.693301010951263
 10
3.466769031946587
 20
28.97939325345386
 10
3.5793627671468116
 20
29.25121857601248
 10
3.733093135546973
 20
29.502083737049222
 10
3.9241747852752233
 20
29.725811603725607
 10
4.147902651951611
 20
29.916893253453864
 10
4.39876781298835
 20
30.070623621854025
 10
4.670593135546973
 20
30.183217357054254
 10
4.956685378049567
 20
30.251902027616723
 10
5.25
 20
30.274986389000837
 10
5.543314621950433
 20
30.251902027616723
 10
5.829406864453027
 20
30.183217357054254
 10
6.10123218701165
 20
30.070623621854025
 10
6.352097348048389
 20
29.916893253453864
 10
6.575825214724777
 20
29.725811603725607
 10
6.766906864453027
 20
29.502083737049222
 10
6.920637232853188
 20
29.25121857601248
 10
7.033230968053413
 20
28.97939325345386
 10
7.1019156386158855
 20
28.693301010951263
 10
7.125
 20
28.399986389000833
 10
7.125
 20
24.649986389000833
 10
29.75
 20
24.649986389000833
 10
29.75
 20
28.762252950633357
 10
29.75
 20
28.762252950633357
 10
29.738263939460072
 20
29.027354116459858
 10
29.70314758125162
 20
29.290381120065465
 10
29.644925677178563
 20
29.549276027558204
 10
29.5640537577682
 20
29.802013234732865
 10
29.46116456818198
 20
30.04661531548006
 10
29.33706311759184
 20
30.281168493247897
 10
29.192720380755915
 20
30.50383761450696
 10
29.029265701072877
 20
30.712880507065595
 10
28.847977954553592
 20
30.906661610895473
 10
28.650275543843595
 20
31.08366477481923
 10
28.43770530058353
 20
31.242505118938485
 10
28.211930382936
 20
31.381939869990067
 10
27.974717262968937
 20
31.50087808485416
 10
27.727921905706875
 20
31.598389186137336
 10
27.473475247985682
 20
31.673710243047605
 10
27.213368090724824
 20
31.726251940595755
 10
26.94963552282062
 20
31.755603190419574
 10
26.684340998528587
 20
31.76153434715584
 10
26.419560192914062
 20
31.743999005194855
 10
26.419560192914073
 20
31.743999005194762
 10
25.926736014599914
 20
31.697065456486772
 10
25.433911836285752
 20
31.665972652496034
 10
24.941087657971593
 20
31.651237459998942
 10
24.448263479657435
 20
31.653104827358742
 10
23.955439301343272
 20
31.671543712661414
 10
23.462615123029114
 20
31.706247599736546
 10
22.969790944714955
 20
31.756639593484973
 10
22.476966766400793
 20
31.821882009811898
 10
21.984142588086634
 20
31.900890300748546
 10
21.491318409772475
 20
31.992351083280052
 10
20.998494231458313
 20
32.09474397218001
 10
20.505670053144154
 20
32.20636685391666
 10
20.012845874829992
 20
32.325364181493555
 10
19.520021696515833
 20
32.449757819869404
 10
19.027197518201675
 20
32.57747992920278
 10
18.534373339887516
 20
32.7064073392918
 10
18.041549161573354
 20
32.834396843789946
 10
17.548724983259195
 20
32.95932082749006
 10
17.055900804945033
 20
33.07910263443114
 10
16.563076626630874
 20
33.19175108889149
 10
16.070252448316715
 20
33.2953935954133
 10
15.577428270002555
 20
33.38830726762514
 10
15.084604091688394
 20
33.468947568396956
 10
14.591779913374236
 20
33.53597398523203
 10
14.098955735060075
 20
33.58827231408448
 10
13.606131556745915
 20
33.6249731811708
 10
13.113307378431756
 20
33.64546649488048
 10
12.620483200117597
 20
33.649411587546524
 10
12.127659021803435
 20
33.63674287848575
 10
11.634834843489273
 20
33.60767096416974
 10
11.142010665175114
 20
33.56267911740471
 10
10.649186486860955
 20
33.502515253715046
 10
10.156362308546797
 20
33.42817949847675
 10
9.663538130232634
 20
33.34090756147633
 10
9.170713951918476
 20
33.24215019526612
 10
8.677889773604317
 20
33.13354907878683
 10
8.185065595290155
 20
33.01690952715272
 10
7.692241416975996
 20
32.89417048125421
 10
7.199417238661837
 20
32.76737227605146
 10
6.706593060347675
 20
32.63862272335835
 10
6.213768882033516
 20
32.51006207293442
 10
5.720944703719358
 20
32.38382743434937
 10
5.2281205254051955
 20
32.26201725104805
 10
4.735296347091037
 20
32.14665641717623
 10
4.242472168776878
 20
32.039662617042666
 10
3.749647990462716
 20
31.942814446768377
 10
3.256823812148557
 20
31.85772184804875
 10
2.7639996338343984
 20
31.785799345518146
 10
2.271175455520236
 20
31.728242532602156
 10
2.271175455523043
 20
31.728242532574523
 10
2.150028708211334
 20
31.7174299831597
 10
2.0286548014909442
 20
31.709567389663622
 10
1.9071255568933658
 20
31.704659404680267
 10
1.7855128878693947
 20
31.70270893244999
 10
1.6638887572352168
 20
31.703717127140973
 10
1.5423251345892801
 20
31.7076833921663
 10
1.420893953725173
 20
31.714605380536927
 10
1.2996670700656665
 20
31.724478996250514
 10
1.1787162181431583
 20
31.73729839671518
 10
1.0581129691516118
 20
31.75305599620678
 10
0.9379286885951998
 20
31.771742470357683
 10
0.8182344940586219
 20
31.793346761674325
 10
0.6991012131241412
 20
31.817856086080372
 10
0.5805993414602248
 20
31.84525594048151
 10
0.46279900110659966
 20
31.87553011134752
 10
0.34576989898036814
 20
31.908660684306394
 10
0.2295812856278161
 20
31.94462805474497
 10
0.11430191424622294
 20
31.98341093940972
 10
0.0
 20
32.024986389000844
 10
0.0
 20
31.39998638900084
 10
0.0
 20
31.39998638900084
 10
0.08397335707748255
 20
31.39527054642077
 10
0.16689070046723486
 20
31.381182323137207
 10
0.2477092964663754
 20
31.357898886732112
 10
0.32541280433816766
 20
31.325713039927653
 10
0.3990240573865016
 20
31.285029538422055
 10
0.4676173513940505
 20
31.236360000851864
 10
0.5303300858899114
 20
31.18031647489075
 10
0.5863736118510232
 20
31.117603740394895
 10
0.6350431494212145
 20
31.049010446387346
 10
0.6757266509268156
 20
30.975399193339012
 10
0.7079124977312752
 20
30.897695685467216
 10
0.7311959341363661
 20
30.816877089468075
 10
0.7452841574199311
 20
30.733959746078323
 10
0.75
 20
30.64998638900084
 10
0.75
 20
24.649986389000833
  0
LWPOLYLINE
  5
54
330
17
100
AcDbEntity
  8
BRACKET_OUTLINE
 62
6
100
AcDbPolyline
 90
87
 70
1
 10
7.524999999999999
 20
24.649986389000833
 10
7.562379862437719
 20
24.694234316858523
 10
7.604626280377115
 20
24.733862254060096
 10
7.651172284374542
 20
24.76833837256891
 10
7.701393202250021
 20
24.79719998450079
 10
7.754615042520811
 20
24.820059751642045
 10
7.81012353972632
 20
24.836610883734696
 10
7.867173740251218
 20
24.84663125576527
 10
7.924999999999997
 20
24.849986389000836
 10
8.724999999999998
 20
24.849986389000836
 10
8.724999999999998
 20
30.496432998407567
 10
8.70852408195595
 20
30.514611372663293
 10
8.693909292221
 20
30.534317135449303
 10
8.681296379209549
 20
30.555360509497707
 10
8.670806812168813
 20
30.57753883561293
 10
8.662541611363583
 20
30.600638524390586
 10
8.65658037519583
 20
30.62443711320017
 10
8.652980513628588
 20
30.64870540862181
 10
8.651776695296636
 20
30.673209693704205
 10
8.652980513628588
 20
30.69771397878659
 10
8.65658037519583
 20
30.721982274208234
 10
8.662541611363583
 20
30.745780863017817
 10
8.670806812168813
 20
30.76888055179548
 10
8.681296379209549
 20
30.791058877910704
 10
8.693909292221
 20
30.812102251959107
 10
8.70852408195595
 20
30.831808014745118
 10
8.724999999999998
 20
30.849986389000843
 10
8.743178374255724
 20
30.866462307044888
 10
8.762884137041738
 20
30.881077096779844
 10
8.783927511090134
 20
30.893690009791296
 10
8.806105837205365
 20
30.904179576832025
 10
8.82920552598302
 20
30.91244477763726
 10
8.853004114792604
 20
30.918406013805008
 10
8.877272410214246
 20
30.922005875372253
 10
8.901776695296636
 20
30.923209693704205
 10
8.926280980379026
 20
30.922005875372253
 10
8.950549275800668
 20
30.918406013805008
 10
8.974347864610252
 20
30.91244477763726
 10
8.997447553387907
 20
30.904179576832025
 10
9.019625879503135
 20
30.893690009791296
 10
9.040669253551535
 20
30.881077096779844
 10
9.060375016337545
 20
30.866462307044888
 10
9.078553390593271
 20
30.849986389000843
 10
9.986446609406727
 20
30.849986389000843
 10
10.004624983662453
 20
30.866462307044888
 10
10.024330746448463
 20
30.881077096779844
 10
10.045374120496863
 20
30.893690009791296
 10
10.06755244661209
 20
30.904179576832025
 10
10.090652135389746
 20
30.91244477763726
 10
10.11445072419933
 20
30.918406013805008
 10
10.138719019620972
 20
30.922005875372253
 10
10.163223304703362
 20
30.923209693704205
 10
10.187727589785752
 20
30.922005875372253
 10
10.211995885207394
 20
30.918406013805008
 10
10.235794474016977
 20
30.91244477763726
 10
10.258894162794633
 20
30.904179576832025
 10
10.281072488909864
 20
30.893690009791296
 10
10.302115862958264
 20
30.881077096779844
 10
10.321821625744274
 20
30.866462307044888
 10
10.34
 20
30.849986389000843
 10
10.356475918044048
 20
30.831808014745118
 10
10.371090707778997
 20
30.812102251959107
 10
10.383703620790449
 20
30.791058877910704
 10
10.394193187831185
 20
30.76888055179548
 10
10.402458388636415
 20
30.745780863017817
 10
10.408419624804168
 20
30.721982274208234
 10
10.412019486371413
 20
30.69771397878659
 10
10.413223304703362
 20
30.673209693704205
 10
10.412019486371413
 20
30.64870540862181
 10
10.408419624804168
 20
30.62443711320017
 10
10.402458388636415
 20
30.600638524390586
 10
10.394193187831185
 20
30.57753883561293
 10
10.383703620790449
 20
30.555360509497707
 10
10.371090707778997
 20
30.534317135449303
 10
10.356475918044048
 20
30.514611372663293
 10
10.34
 20
30.496432998407567
 10
10.339999999999996
 20
24.849986389000836
 10
11.14
 20
24.849986389000836
 10
11.19782625974878
 20
24.84663125576527
 10
11.254876460273678
 20
24.836610883734696
 10
11.310384957479187
 20
24.820059751642045
 10
11.363606797749977
 20
24.79719998450079
 10
11.413827715625455
 20
24.76833837256891
 10
11.460373719622883
 20
24.733862254060096
 10
11.502620137562278
 20
24.694234316858523
 10
11.54
 20
24.649986389000833
 10
7.524999999999999
 20
24.649986389000833
  0
LWPOLYLINE
  5
55
330
17
100
AcDbEntity
  8
BRACKET_OUTLINE
 62
6
100
AcDbPolyline
 90
87
 70
1
 10
21.975
 20
24.649986389000833
 10
22.012379862437722
 20
24.694234316858523
 10
22.054626280377118
 20
24.733862254060096
 10
22.101172284374545
 20
24.76833837256891
 10
22.151393202250024
 20
24.79719998450079
 10
22.204615042520814
 20
24.820059751642045
 10
22.260123539726322
 20
24.836610883734696
 10
22.317173740251217
 20
24.84663125576527
 10
22.375
 20
24.849986389000836
 10
23.175
 20
24.849986389000836
 10
23.175
 20
30.496432998407567
 10
23.158524081955953
 20
30.514611372663293
 10
23.143909292221004
 20
30.534317135449303
 10
23.13129637920955
 20
30.555360509497707
 10
23.120806812168816
 20
30.57753883561293
 10
23.112541611363586
 20
30.600638524390586
 10
23.106580375195833
 20
30.62443711320017
 10
23.10298051362859
 20
30.64870540862181
 10
23.10177669529664
 20
30.673209693704205
 10
23.10298051362859
 20
30.69771397878659
 10
23.106580375195833
 20
30.721982274208234
 10
23.112541611363586
 20
30.745780863017817
 10
23.120806812168816
 20
30.76888055179548
 10
23.13129637920955
 20
30.791058877910704
 10
23.143909292221004
 20
30.812102251959107
 10
23.158524081955953
 20
30.831808014745118
 10
23.175
 20
30.849986389000843
 10
23.193178374255726
 20
30.866462307044888
 10
23.212884137041737
 20
30.881077096779844
 10
23.23392751109014
 20
30.893690009791296
 10
23.256105837205368
 20
30.904179576832025
 10
23.279205525983024
 20
30.91244477763726
 10
23.303004114792607
 20
30.918406013805008
 10
23.32727241021425
 20
30.922005875372253
 10
23.35177669529664
 20
30.923209693704205
 10
23.37628098037903
 20
30.922005875372253
 10
23.40054927580067
 20
30.918406013805008
 10
23.424347864610255
 20
30.91244477763726
 10
23.44744755338791
 20
30.904179576832025
 10
23.469625879503138
 20
30.893690009791296
 10
23.490669253551538
 20
30.881077096779844
 10
23.51037501633755
 20
30.866462307044888
 10
23.528553390593277
 20
30.849986389000843
 10
24.43644660940673
 20
30.849986389000843
 10
24.454624983662455
 20
30.866462307044888
 10
24.474330746448466
 20
30.881077096779844
 10
24.495374120496866
 20
30.893690009791296
 10
24.517552446612093
 20
30.904179576832025
 10
24.54065213538975
 20
30.91244477763726
 10
24.564450724199332
 20
30.918406013805008
 10
24.588719019620974
 20
30.922005875372253
 10
24.613223304703364
 20
30.923209693704205
 10
24.637727589785754
 20
30.922005875372253
 10
24.661995885207396
 20
30.918406013805008
 10
24.68579447401698
 20
30.91244477763726
 10
24.70889416279464
 20
30.904179576832025
 10
24.731072488909863
 20
30.893690009791296
 10
24.752115862958266
 20
30.881077096779844
 10
24.771821625744277
 20
30.866462307044888
 10
24.790000000000003
 20
30.849986389000843
 10
24.80647591804405
 20
30.831808014745118
 10
24.821090707779
 20
30.812102251959107
 10
24.833703620790455
 20
30.791058877910704
 10
24.844193187831188
 20
30.76888055179548
 10
24.852458388636418
 20
30.745780863017817
 10
24.858419624804174
 20
30.721982274208234
 10
24.862019486371416
 20
30.69771397878659
 10
24.863223304703364
 20
30.673209693704205
 10
24.862019486371416
 20
30.64870540862181
 10
24.858419624804174
 20
30.62443711320017
 10
24.852458388636418
 20
30.600638524390586
 10
24.844193187831188
 20
30.57753883561293
 10
24.833703620790455
 20
30.555360509497707
 10
24.821090707779
 20
30.534317135449303
 10
24.80647591804405
 20
30.514611372663293
 10
24.790000000000003
 20
30.496432998407567
 10
24.790000000000003
 20
24.849986389000836
 10
25.590000000000003
 20
24.849986389000836
 10
25.647826259748786
 20
24.84663125576527
 10
25.70487646027368
 20
24.836610883734696
 10
25.76038495747919
 20
24.820059751642045
 10
25.81360679774998
 20
24.79719998450079
 10
25.863827715625458
 20
24.76833837256891
 10
25.910373719622886
 20
24.733862254060096
 10
25.95262013756228
 20
24.694234316858523
 10
25.990000000000002
 20
24.649986389000833
 10
21.975
 20
24.649986389000833
  0
LINE
  5
56
330
17
100
AcDbEntity
  8
BRACKET_CUT_LINE
 62
4
100
AcDbLine
 10
10.339999999999996
 20
24.849986389000836
 30
0.0
 11
8.724999999999998
 21
24.849986389000836
 31
0.0
  0
LINE
  5
57
330
17
100
AcDbEntity
  8
BRACKET_CUT_LINE
 62
4
100
AcDbLine
 10
24.790000000000003
 20
24.849986389000836
 30
0.0
 11
23.175
 21
24.849986389000836
 31
0.0
  0
LWPOLYLINE
  5
58
330
17
100
AcDbEntity
  8
SHELF_R
 62
3
100
AcDbPolyline
 90
110
 70
1
 10
31.0
 20
38.262475063368456
 10
60.0
 20
38.262475063368456
 10
60.0
 20
34.30511063308214
 10
60.0
 20
34.30511063308214
 10
59.98862790174334
 20
34.0441446105405
 10
59.95459782338587
 20
33.78515707549886
 10
59.89816776052409
 20
33.53011151575437
 10
59.819765531970994
 20
33.28094153341728
 10
59.71998553629102
 20
33.03953618550206
 10
59.59958424542746
 20
32.80772566223284
 10
59.45947446958691
 20
32.58726741164132
 10
59.300718436861104
 20
32.37983281565231
 10
59.12451974005204
 20
32.186994518670744
 10
58.93221421175491
 20
32.01021450473725
 10
58.72525979687846
 20
31.85083301364401
 10
58.50522549938309
 20
31.710058380042344
 10
58.273779487036116
 20
31.588957872575836
 10
58.032676444366544
 20
31.48844960249105
 10
57.783744269701856
 20
31.409295563069985
 10
57.52887021714174
 20
31.352095852655122
 10
57.26998658853205
 20
31.317284125064507
 10
57.00905608391385
 20
31.305124301889254
 10
56.74805692151159
 20
31.315708571598645
 10
56.74805692151171
 20
31.315708571600094
 10
56.309714279320815
 20
31.358797826539696
 10
55.87137163712992
 20
31.413774878220377
 10
55.43302899493902
 20
31.479916508230563
 10
54.994686352748126
 20
31.55635262908586
 10
54.55634371055723
 20
31.642077730155524
 10
54.118001068366326
 20
31.735964105068735
 10
53.679658426175436
 20
31.83677668659548
 10
53.24131578398453
 20
31.94318929385027
 10
52.80297314179364
 20
32.05380207808824
 10
52.36463049960274
 20
32.16715993759563
 10
51.92628785741184
 20
32.28177165942839
 10
51.48794521522095
 20
32.396129536190784
 10
51.04960257303005
 20
32.50872919979733
 10
50.611259930839154
 20
32.61808941130613
 10
50.17291728864826
 20
32.72277154649055
 10
49.73457464645736
 20
32.821398520817766
 10
49.296232004266464
 20
32.91267290487801
 10
48.85788936207557
 20
32.9953939919575
 10
48.41954671988467
 20
33.068473593232454
 10
47.981204077693775
 20
33.130950352800056
 10
47.54286143550288
 20
33.182002394233066
 10
47.10451879331198
 20
33.22095813229393
 10
46.66617615112108
 20
33.2473051075811
 10
46.22783350893019
 20
33.26069672788866
 10
45.789490866739285
 20
33.2609568275971
 10
45.351148224548396
 20
33.24808198511704
 10
44.91280558235749
 20
33.22224156789983
 10
44.474462940166596
 20
33.18377550442332
 10
44.0361202979757
 20
33.13318981246182
 10
43.5977776557848
 20
33.07114994246545
 10
43.15943501359391
 20
32.99847202361653
 10
42.72109237140301
 20
32.91611212771993
 10
42.282749729212114
 20
32.8251536921603
 10
41.84440708702122
 20
32.72679326737595
 10
41.40606444483032
 20
32.62232477634021
 10
40.967721802639424
 20
32.51312249311539
 10
40.52937916044853
 20
32.4006229643951
 10
40.091036518257624
 20
32.28630611185531
 10
39.652693876066735
 20
32.17167576391142
 10
39.21435123387583
 20
32.05823987298403
 10
38.77600859168494
 20
31.947490678513876
 10
38.33766594949404
 20
31.84088507667963
 10
37.89932330730315
 20
31.73982545505334
 10
37.460980665112245
 20
31.64564124431187
 10
37.02263802292135
 20
31.559571429690084
 10
36.58429538073045
 20
31.48274825223608
 10
36.145952738539556
 20
31.416182314277055
 10
35.70761009634866
 20
31.36074928503216
 10
35.26926745415776
 20
31.31717838125883
 10
35.269267454202726
 20
31.317178380732333
 10
34.940795819912545
 20
31.299984535225324
 10
34.61190445507771
 20
31.30442446694435
 10
34.284016660007985
 20
31.330478961775352
 10
33.95855139199498
 20
31.378035267075578
 10
33.6369171246756
 20
31.4468875796185
 10
33.320505752764156
 20
31.536737936221595
 10
33.010686568530986
 20
31.647197503202815
 10
32.70880033609467
 20
31.777788259085437
 10
32.41615348917186
 20
31.927945063269338
 10
32.13401247739427
 20
32.097018101716344
 10
31.863598285659624
 20
32.28427569906577
 10
31.606081150234374
 20
32.48890748501057
 10
31.362575494474694
 20
32.710027901231314
 10
31.1341351060817
 20
32.94668003371156
 10
30.921748576761715
 20
33.19783975384995
 10
30.726335024026746
 20
33.46242015044818
 10
30.54874011364936
 20
33.73927623339496
 10
30.389732399985114
 20
34.02720988869052
 10
30.25
 20
34.324975063368456
 10
30.25
 20
34.949975063368456
 10
30.25
 20
34.949975063368456
 10
30.333973357077483
 20
34.954690905948524
 10
30.416890700467235
 20
34.96877912923209
 10
30.497709296466375
 20
34.992062565637184
 10
30.575412804338168
 20
35.02424841244165
 10
30.6490240573865
 20
35.06493191394725
 10
30.71761735139405
 20
35.11360145151744
 10
30.78033008588991
 20
35.169644977478555
 10
30.836373611851023
 20
35.232357711974416
 10
30.885043149421215
 20
35.30095100598196
 10
30.925726650926816
 20
35.374562259030284
 10
30.957912497731275
 20
35.45226576690209
 10
30.981195934136366
 20
35.53308436290122
 10
30.99528415741993
 20
35.61600170629097
 10
31.0
 20
35.699975063368456
 10
31.0
 20
38.262475063368456
  0
LWPOLYLINE
  5
59
330
17
100
AcDbEntity
  8
BRACKET_OUTLINE
 62
6
100
AcDbPolyline
 90
87
 70
1
 10
37.49
 20
38.262475063368456
 10
37.45262013756228
 20
38.21822713551077
 10
37.41037371962288
 20
38.1785991983092
 10
37.363827715625455
 20
38.14412307980038
 10
37.313606797749976
 20
38.11526146786851
 10
37.26038495747919
 20
38.09240170072725
 10
37.20487646027368
 20
38.07585056863459
 10
37.14782625974878
 20
38.065830196604026
 10
37.09
 20
38.06247506336845
 10
36.29
 20
38.06247506336845
 10
36.29
 20
34.41602845396173
 10
36.30647591804405
 20
34.397850079706004
 10
36.321090707779
 20
34.37814431692
 10
36.33370362079045
 20
34.3571009428716
 10
36.34419318783119
 20
34.33492261675637
 10
36.352458388636414
 20
34.31182292797871
 10
36.35841962480417
 20
34.28802433916913
 10
36.36201948637141
 20
34.26375604374749
 10
36.36322330470336
 20
34.23925175866509
 10
36.36201948637141
 20
34.214747473582705
 10
36.35841962480417
 20
34.19047917816107
 10
36.352458388636414
 20
34.166680589351486
 10
36.34419318783119
 20
34.143580900573824
 10
36.33370362079045
 20
34.1214025744586
 10
36.321090707779
 20
34.100359200410196
 10
36.30647591804405
 20
34.08065343762418
 10
36.29
 20
34.06247506336845
 10
36.27182162574427
 20
34.045999145324416
 10
36.25211586295826
 20
34.03138435558945
 10
36.23107248890986
 20
34.018771442578
 10
36.208894162794635
 20
34.00828187553728
 10
36.18579447401698
 20
34.00001667473204
 10
36.161995885207396
 20
33.99405543856429
 10
36.137727589785754
 20
33.99045557699705
 10
36.11322330470336
 20
33.98925175866509
 10
36.088719019620974
 20
33.99045557699705
 10
36.06445072419933
 20
33.99405543856429
 10
36.04065213538975
 20
34.00001667473204
 10
36.01755244661209
 20
34.00828187553728
 10
35.99537412049686
 20
34.018771442578
 10
35.974330746448466
 20
34.03138435558945
 10
35.954624983662455
 20
34.045999145324416
 10
35.93644660940673
 20
34.06247506336845
 10
35.028553390593274
 20
34.06247506336845
 10
35.01037501633755
 20
34.045999145324416
 10
34.99066925355154
 20
34.03138435558945
 10
34.969625879503134
 20
34.018771442578
 10
34.94744755338791
 20
34.00828187553728
 10
34.924347864610255
 20
34.00001667473204
 10
34.90054927580067
 20
33.99405543856429
 10
34.87628098037903
 20
33.99045557699705
 10
34.851776695296635
 20
33.98925175866509
 10
34.82727241021425
 20
33.99045557699705
 10
34.80300411479261
 20
33.99405543856429
 10
34.77920552598302
 20
34.00001667473204
 10
34.75610583720537
 20
34.00828187553728
 10
34.73392751109014
 20
34.018771442578
 10
34.71288413704174
 20
34.03138435558945
 10
34.69317837425572
 20
34.045999145324416
 10
34.675
 20
34.06247506336845
 10
34.65852408195595
 20
34.08065343762418
 10
34.643909292221
 20
34.100359200410196
 10
34.631296379209545
 20
34.1214025744586
 10
34.620806812168816
 20
34.143580900573824
 10
34.61254161136358
 20
34.166680589351486
 10
34.60658037519583
 20
34.19047917816107
 10
34.60298051362859
 20
34.214747473582705
 10
34.601776695296635
 20
34.23925175866509
 10
34.60298051362859
 20
34.26375604374749
 10
34.60658037519583
 20
34.28802433916913
 10
34.61254161136358
 20
34.31182292797871
 10
34.620806812168816
 20
34.33492261675637
 10
34.631296379209545
 20
34.3571009428716
 10
34.643909292221
 20
34.37814431692
 10
34.65852408195595
 20
34.397850079706004
 10
34.675
 20
34.41602845396173
 10
34.675
 20
38.06247506336845
 10
33.875
 20
38.06247506336845
 10
33.81717374025122
 20
38.065830196604026
 10
33.76012353972632
 20
38.07585056863459
 10
33.704615042520814
 20
38.09240170072725
 10
33.65139320225002
 20
38.11526146786851
 10
33.60117228437454
 20
38.14412307980038
 10
33.554626280377114
 20
38.1785991983092
 10
33.51237986243772
 20
38.21822713551077
 10
33.475
 20
38.262475063368456
 10
37.49
 20
38.262475063368456
  0
LWPOLYLINE
  5
5A
330
17
100
AcDbEntity
  8
BRACKET_OUTLINE
 62
6
100
AcDbPolyline
 90
87
 70
1
 10
50.915
 20
38.262475063368456
 10
50.877620137562275
 20
38.21822713551077
 10
50.83537371962288
 20
38.1785991983092
 10
50.78882771562546
 20
38.14412307980038
 10
50.73860679774998
 20
38.11526146786851
 10
50.68538495747919
 20
38.09240170072725
 10
50.62987646027368
 20
38.07585056863459
 10
50.57282625974878
 20
38.065830196604026
 10
50.515
 20
38.06247506336845
 10
49.715
 20
38.06247506336845
 10
49.715
 20
34.41602845396173
 10
49.73147591804405
 20
34.397850079706004
 10
49.746090707779
 20
34.37814431692
 10
49.758703620790456
 20
34.3571009428716
 10
49.769193187831185
 20
34.33492261675637
 10
49.77745838863642
 20
34.31182292797871
 10
49.78341962480417
 20
34.28802433916913
 10
49.787019486371406
 20
34.26375604374749
 10
49.788223304703365
 20
34.23925175866509
 10
49.787019486371406
 20
34.214747473582705
 10
49.78341962480417
 20
34.19047917816107
 10
49.77745838863642
 20
34.166680589351486
 10
49.769193187831185
 20
34.143580900573824
 10
49.758703620790456
 20
34.1214025744586
 10
49.746090707779
 20
34.100359200410196
 10
49.73147591804405
 20
34.08065343762418
 10
49.715
 20
34.06247506336845
 10
49.69682162574428
 20
34.045999145324416
 10
49.67711586295826
 20
34.03138435558945
 10
49.65607248890986
 20
34.018771442578
 10
49.63389416279463
 20
34.00828187553728
 10
49.61079447401698
 20
34.00001667473204
 10
49.58699588520739
 20
33.99405543856429
 10
49.56272758978575
 20
33.99045557699705
 10
49.538223304703365
 20
33.98925175866509
 10
49.51371901962097
 20
33.99045557699705
 10
49.48945072419933
 20
33.99405543856429
 10
49.465652135389746
 20
34.00001667473204
 10
49.44255244661209
 20
34.00828187553728
 10
49.42037412049686
 20
34.018771442578
 10
49.39933074644846
 20
34.03138435558945
 10
49.37962498366245
 20
34.045999145324416
 10
49.36144660940673
 20
34.06247506336845
 10
48.45355339059327
 20
34.06247506336845
 10
48.435375016337545
 20
34.045999145324416
 10
48.41566925355154
 20
34.03138435558945
 10
48.39462587950314
 20
34.018771442578
 10
48.37244755338791
 20
34.00828187553728
 10
48.34934786461025
 20
34.00001667473204
 10
48.32554927580067
 20
33.99405543856429
 10
48.301280980379026
 20
33.99045557699705
 10
48.27677669529663
 20
33.98925175866509
 10
48.252272410214246
 20
33.99045557699705
 10
48.228004114792604
 20
33.99405543856429
 10
48.20420552598302
 20
34.00001667473204
 10
48.181105837205365
 20
34.00828187553728
 10
48.15892751109014
 20
34.018771442578
 10
48.13788413704174
 20
34.03138435558945
 10
48.11817837425572
 20
34.045999145324416
 10
48.099999999999994
 20
34.06247506336845
 10
48.08352408195595
 20
34.08065343762418
 10
48.068909292221
 20
34.100359200410196
 10
48.05629637920955
 20
34.1214025744586
 10
48.04580681216881
 20
34.143580900573824
 10
48.03754161136358
 20
34.166680589351486
 10
48.03158037519583
 20
34.19047917816107
 10
48.02798051362859
 20
34.214747473582705
 10
48.02677669529663
 20
34.23925175866509
 10
48.02798051362859
 20
34.26375604374749
 10
48.03158037519583
 20
34.28802433916913
 10
48.03754161136358
 20
34.31182292797871
 10
48.04580681216881
 20
34.33492261675637
 10
48.05629637920955
 20
34.3571009428716
 10
48.068909292221
 20
34.37814431692
 10
48.08352408195595
 20
34.397850079706004
 10
48.099999999999994
 20
34.41602845396173
 10
48.099999999999994
 20
38.06247506336845
 10
47.3
 20
38.06247506336845
 10
47.24217374025122
 20
38.065830196604026
 10
47.18512353972632
 20
38.07585056863459
 10
47.12961504252081
 20
38.09240170072725
 10
47.07639320225002
 20
38.11526146786851
 10
47.02617228437454
 20
38.14412307980038
 10
46.97962628037712
 20
38.1785991983092
 10
46.93737986243772
 20
38.21822713551077
 10
46.9
 20
38.262475063368456
 10
50.915
 20
38.262475063368456
  0
LWPOLYLINE
  5
5B
330
17
100
AcDbEntity
  8
BRACKET_OUTLINE
 62
6
100
AcDbPolyline
 90
87
 70
1
 10
60.065
 20
38.262475063368456
 10
60.02762013756228
 20
38.21822713551077
 10
59.985373719622885
 20
38.1785991983092
 10
59.93882771562545
 20
38.14412307980038
 10
59.88860679774997
 20
38.11526146786851
 10
59.835384957479185
 20
38.09240170072725
 10
59.77987646027368
 20
38.07585056863459
 10
59.722826259748786
 20
38.065830196604026
 10
59.665
 20
38.06247506336845
 10
58.864999999999995
 20
38.06247506336845
 10
58.864999999999995
 20
34.41602845396173
 10
58.881475918044046
 20
34.397850079706004
 10
58.896090707778995
 20
34.37814431692
 10
58.90870362079045
 20
34.3571009428716
 10
58.91919318783118
 20
34.33492261675637
 10
58.92745838863641
 20
34.31182292797871
 10
58.93341962480417
 20
34.28802433916913
 10
58.93701948637141
 20
34.26375604374749
 10
58.93822330470336
 20
34.23925175866509
 10
58.93701948637141
 20
34.214747473582705
 10
58.93341962480417
 20
34.19047917816107
 10
58.92745838863641
 20
34.166680589351486
 10
58.91919318783118
 20
34.143580900573824
 10
58.90870362079045
 20
34.1214025744586
 10
58.896090707778995
 20
34.100359200410196
 10
58.881475918044046
 20
34.08065343762418
 10
58.864999999999995
 20
34.06247506336845
 10
58.84682162574427
 20
34.045999145324416
 10
58.827115862958266
 20
34.03138435558945
 10
58.80607248890986
 20
34.018771442578
 10
58.78389416279464
 20
34.00828187553728
 10
58.760794474016976
 20
34.00001667473204
 10
58.73699588520739
 20
33.99405543856429
 10
58.71272758978575
 20
33.99045557699705
 10
58.68822330470336
 20
33.98925175866509
 10
58.66371901962097
 20
33.99045557699705
 10
58.63945072419933
 20
33.99405543856429
 10
58.615652135389745
 20
34.00001667473204
 10
58.59255244661209
 20
34.00828187553728
 10
58.570374120496865
 20
34.018771442578
 10
58.54933074644846
 20
34.03138435558945
 10
58.52962498366245
 20
34.045999145324416
 10
58.511446609406725
 20
34.06247506336845
 10
57.60355339059328
 20
34.06247506336845
 10
57.58537501633755
 20
34.045999145324416
 10
57.56566925355153
 20
34.03138435558945
 10
57.54462587950313
 20
34.018771442578
 10
57.522447553387906
 20
34.00828187553728
 10
57.49934786461025
 20
34.00001667473204
 10
57.47554927580067
 20
33.99405543856429
 10
57.451280980379025
 20
33.99045557699705
 10
57.42677669529664
 20
33.98925175866509
 10
57.402272410214245
 20
33.99045557699705
 10
57.3780041147926
 20
33.99405543856429
 10
57.35420552598302
 20
34.00001667473204
 10
57.331105837205364
 20
34.00828187553728
 10
57.30892751109013
 20
34.018771442578
 10
57.28788413704173
 20
34.03138435558945
 10
57.268178374255726
 20
34.045999145324416
 10
57.25
 20
34.06247506336845
 10
57.23352408195595
 20
34.08065343762418
 10
57.218909292221
 20
34.100359200410196
 10
57.20629637920955
 20
34.1214025744586
 10
57.19580681216881
 20
34.143580900573824
 10
57.187541611363585
 20
34.166680589351486
 10
57.18158037519583
 20
34.19047917816107
 10
57.17798051362858
 20
34.214747473582705
 10
57.17677669529664
 20
34.23925175866509
 10
57.17798051362858
 20
34.26375604374749
 10
57.18158037519583
 20
34.28802433916913
 10
57.187541611363585
 20
34.31182292797871
 10
57.19580681216881
 20
34.33492261675637
 10
57.20629637920955
 20
34.3571009428716
 10
57.218909292221
 20
34.37814431692
 10
57.23352408195595
 20
34.397850079706004
 10
57.25
 20
34.41602845396173
 10
57.25
 20
38.06247506336845
 10
56.449999999999996
 20
38.06247506336845
 10
56.39217374025121
 20
38.065830196604026
 10
56.33512353972632
 20
38.07585056863459
 10
56.27961504252081
 20
38.09240170072725
 10
56.22639320225002
 20
38.11526146786851
 10
56.176172284374545
 20
38.14412307980038
 10
56.12962628037711
 20
38.1785991983092
 10
56.087379862437714
 20
38.21822713551077
 10
56.05
 20
38.262475063368456
 10
60.065
 20
38.262475063368456
  0
LINE
  5
5C
330
17
100
AcDbEntity
  8
BRACKET_CUT_LINE
 62
4
100
AcDbLine
 10
34.675
 20
38.06247506336845
 30
0.0
 11
36.29
 21
38.06247506336845
 31
0.0
  0
LINE
  5
5D
330
17
100
AcDbEntity
  8
BRACKET_CUT_LINE
 62
4
100
AcDbLine
 10
48.099999999999994
 20
38.06247506336845
 30
0.0
 11
49.715
 21
38.06247506336845
 31
0.0
  0
LINE
  5
5E
330
17
100
AcDbEntity
  8
BRACKET_CUT_LINE
 62
4
100
AcDbLine
 10
57.25
 20
38.06247506336845
 30
0.0
 11
58.864999999999995
 21
38.06247506336845
 31
0.0
  0
LWPOLYLINE
  5
5F
330
17
100
AcDbEntity
  8
SHELF_R
 62
3
100
AcDbPolyline
 90
110
 70
1
 10
59.25
 20
24.649986389000833
 10
30.25
 20
24.649986389000833
 10
30.25
 20
28.066534371664233
 10
30.25
 20
28.066534371664233
 10
30.263650019130175
 20
28.352390614833414
 10
30.30447586117253
 20
28.635645562544102
 10
30.37210601044381
 20
28.913721591159653
 10
30.46592503172313
 20
29.18408820527323
 10
30.585079170720334
 20
29.444285065248305
 10
30.728484123250915
 20
29.691944376340683
 10
30.89483490241794
 20
29.92481243566092
 10
31.08261771400944
 20
30.14077014089934
 10
31.29012373204506
 20
30.337852274184055
 10
31.51546464911425
 20
30.514265385588697
 10
31.756589859997813
 20
30.66840411354961
 10
32.011305122201534
 20
30.79886579367655
 10
32.277292523590845
 20
30.904463223016524
 10
32.55213157542086
 20
30.984235463615814
 10
32.83332123881477
 20
31.037456587067584
 10
33.11830268424956
 20
31.063642280469676
 10
33.404482576937276
 20
31.062554253678176
 10
33.68925667620468
 20
31.034202407750758
 10
33.970033534116574
 20
30.978844744846942
 10
33.970033534116624
 20
30.97884474484714
 10
34.428905238777176
 20
30.863296795422496
 10
34.88777694343773
 20
30.744674098281873
 10
35.34664864809828
 20
30.624686531875245
 10
35.80552035275883
 20
30.50506364846377
 10
36.264392057419386
 20
30.387529743611456
 10
36.72326376207994
 20
30.273779001449103
 10
37.18213546674049
 20
30.165451073977376
 10
37.64100717140105
 20
30.064107446419424
 10
38.0998788760616
 20
29.97120892930293
 10
38.558750580722155
 20
29.88809460171039
 10
39.01762228538271
 20
29.81596250921876
 10
39.47649399004326
 20
29.755852394756463
 10
39.93536569470382
 20
29.708630711302764
 10
40.39423739936437
 20
29.67497813246275
 10
40.853109104024924
 20
29.655379740945992
 10
41.311980808685476
 20
29.650118036376224
 10
41.77085251334603
 20
29.659268863220564
 10
42.22972421800658
 20
29.682700317534863
 10
42.68859592266713
 20
29.72007464828368
 10
43.147467627327686
 20
29.77085312582869
 10
43.60633933198824
 20
29.83430380740877
 10
44.06521103664879
 20
29.90951208767699
 10
44.52408274130934
 20
29.995393882214533
 10
44.982954445969895
 20
30.090711253988555
 10
45.44182615063045
 20
30.194090257507742
 10
45.90069785529101
 20
30.304040743462057
 10
46.35956955995156
 20
30.418977838374257
 10
46.81844126461211
 20
30.53724478964614
 10
47.277312969272664
 20
30.657136846701317
 10
47.73618467393322
 20
30.776925833991395
 10
48.19505637859377
 20
30.89488506165981
 10
48.65392808325432
 20
31.009314214790198
 10
49.112799787914874
 20
31.11856386247513
 10
49.57167149257543
 20
31.221059233420863
 10
50.030543197235986
 20
31.315322915376395
 10
50.48941490189654
 20
31.399996151187516
 10
50.94828660655709
 20
31.473858424505387
 10
51.40715831121764
 20
31.535845052832848
 10
51.866030015878195
 20
31.585062534314694
 10
52.32490172053875
 20
31.620801427056776
 10
52.7837734251993
 20
31.642546575325852
 10
53.24264512985985
 20
31.64998453522532
 10
53.701516834520405
 20
31.643008092810035
 10
54.16038853918096
 20
31.621717809514124
 10
54.61926024384151
 20
31.586420572615296
 10
55.07813194850206
 20
31.537625171629998
 10
55.53700365316262
 20
31.476034964403006
 10
55.995875357823174
 20
31.4025377386057
 10
56.454747062483726
 20
31.318192914783676
 10
56.45474706249284
 20
31.318192914830465
 10
56.693201145735884
 20
31.265674743669795
 10
56.92880700603624
 20
31.20157804555298
 10
57.16100278459809
 20
31.126055674460698
 10
57.389234754785086
 20
31.039287731636716
 10
57.61295864261454
 20
30.941481136093163
 10
57.83164092470954
 20
30.832869131162465
 10
58.044760100613686
 20
30.71371072827252
 10
58.25180793643423
 20
30.58429008927173
 10
58.45229067684795
 20
30.444915848776763
 10
58.64573022257939
 20
30.295920378159156
 10
58.83166527054343
 20
30.137658992925882
 10
59.00965241393343
 20
29.970509105384156
 10
59.17926719963127
 20
29.79486932461106
 10
59.340105140417826
 20
29.611158505874425
 10
59.49178267956997
 20
29.419814751771778
 10
59.633938105543734
 20
29.221294367469408
 10
59.76623241456243
 20
29.016070772533023
 10
59.8883501190526
 20
28.804633371945055
 10
60.0
 20
28.58748638900084
 10
60.0
 20
27.962486389000837
 10
60.0
 20
27.962486389000837
 10
59.91602664292252
 20
27.957770546420768
 10
59.833109299532765
 20
27.943682323137203
 10
59.752290703533625
 20
27.920398886732116
 10
59.67458719566183
 20
27.88821303992765
 10
59.6009759426135
 20
27.84752953842205
 10
59.532382648605946
 20
27.79886000085186
 10
59.469669914110085
 20
27.742816474890745
 10
59.41362638814898
 20
27.680103740394884
 10
59.364956850578785
 20
27.61151044638734
 10
59.32427334907318
 20
27.537899193339005
 10
59.29208750226873
 20
27.46019568546721
 10
59.268804065863634
 20
27.37937708946807
 10
59.25471584258007
 20
27.296459746078316
 10
59.25
 20
27.212486389000833
 10
59.25
 20
24.649986389000833
  0
LWPOLYLINE
  5
60
330
17
100
AcDbEntity
  8
BRACKET_OUTLINE
 62
6
100
AcDbPolyline
 90
87
 70
1
 10
52.76
 20
24.649986389000833
 10
52.79737986243772
 20
24.694234316858523
 10
52.83962628037712
 20
24.733862254060096
 10
52.88617228437454
 20
24.76833837256891
 10
52.93639320225002
 20
24.79719998450079
 10
52.98961504252081
 20
24.820059751642045
 10
53.04512353972632
 20
24.836610883734696
 10
53.10217374025122
 20
24.84663125576527
 10
53.16
 20
24.849986389000836
 10
53.96
 20
24.849986389000836
 10
53.96
 20
28.496432998407567
 10
53.94352408195596
 20
28.514611372663293
 10
53.928909292221
 20
28.534317135449303
 10
53.91629637920955
 20
28.555360509497707
 10
53.90580681216882
 20
28.57753883561293
 10
53.897541611363586
 20
28.600638524390586
 10
53.89158037519583
 20
28.62443711320017
 10
53.88798051362859
 20
28.64870540862181
 10
53.88677669529663
 20
28.673209693704205
 10
53.88798051362859
 20
28.69771397878659
 10
53.89158037519583
 20
28.721982274208234
 10
53.897541611363586
 20
28.745780863017817
 10
53.90580681216882
 20
28.76888055179548
 10
53.91629637920955
 20
28.791058877910704
 10
53.928909292221
 20
28.812102251959107
 10
53.94352408195596
 20
28.831808014745118
 10
53.96
 20
28.849986389000843
 10
53.97817837425573
 20
28.866462307044888
 10
53.99788413704174
 20
28.881077096779844
 10
54.01892751109014
 20
28.893690009791296
 10
54.041105837205365
 20
28.904179576832025
 10
54.06420552598302
 20
28.91244477763726
 10
54.088004114792604
 20
28.918406013805008
 10
54.112272410214246
 20
28.922005875372253
 10
54.13677669529663
 20
28.923209693704205
 10
54.161280980379026
 20
28.922005875372253
 10
54.18554927580067
 20
28.918406013805008
 10
54.20934786461025
 20
28.91244477763726
 10
54.232447553387914
 20
28.904179576832025
 10
54.25462587950314
 20
28.893690009791296
 10
54.27566925355154
 20
28.881077096779844
 10
54.295375016337545
 20
28.866462307044888
 10
54.31355339059327
 20
28.849986389000843
 10
55.221446609406726
 20
28.849986389000843
 10
55.23962498366245
 20
28.866462307044888
 10
55.25933074644846
 20
28.881077096779844
 10
55.28037412049686
 20
28.893690009791296
 10
55.30255244661209
 20
28.904179576832025
 10
55.325652135389745
 20
28.91244477763726
 10
55.34945072419933
 20
28.918406013805008
 10
55.37371901962097
 20
28.922005875372253
 10
55.398223304703365
 20
28.923209693704205
 10
55.42272758978575
 20
28.922005875372253
 10
55.44699588520739
 20
28.918406013805008
 10
55.47079447401698
 20
28.91244477763726
 10
55.49389416279463
 20
28.904179576832025
 10
55.51607248890986
 20
28.893690009791296
 10
55.53711586295826
 20
28.881077096779844
 10
55.55682162574428
 20
28.866462307044888
 10
55.575
 20
28.849986389000843
 10
55.59147591804405
 20
28.831808014745118
 10
55.606090707779
 20
28.812102251959107
 10
55.618703620790455
 20
28.791058877910704
 10
55.629193187831184
 20
28.76888055179548
 10
55.63745838863642
 20
28.745780863017817
 10
55.64341962480417
 20
28.721982274208234
 10
55.64701948637141
 20
28.69771397878659
 10
55.648223304703365
 20
28.673209693704205
 10
55.64701948637141
 20
28.64870540862181
 10
55.64341962480417
 20
28.62443711320017
 10
55.63745838863642
 20
28.600638524390586
 10
55.629193187831184
 20
28.57753883561293
 10
55.618703620790455
 20
28.555360509497707
 10
55.606090707779
 20
28.534317135449303
 10
55.59147591804405
 20
28.514611372663293
 10
55.575
 20
28.496432998407567
 10
55.575
 20
24.849986389000836
 10
56.375
 20
24.849986389000836
 10
56.43282625974878
 20
24.84663125576527
 10
56.48987646027368
 20
24.836610883734696
 10
56.545384957479186
 20
24.820059751642045
 10
56.59860679774998
 20
24.79719998450079
 10
56.64882771562546
 20
24.76833837256891
 10
56.695373719622886
 20
24.733862254060096
 10
56.73762013756228
 20
24.694234316858523
 10
56.775
 20
24.649986389000833
 10
52.76
 20
24.649986389000833
  0
LWPOLYLINE
  5
61
330
17
100
AcDbEntity
  8
BRACKET_OUTLINE
 62
6
100
AcDbPolyline
 90
87
 70
1
 10
39.335
 20
24.649986389000833
 10
39.372379862437725
 20
24.694234316858523
 10
39.41462628037712
 20
24.733862254060096
 10
39.46117228437454
 20
24.76833837256891
 10
39.51139320225002
 20
24.79719998450079
 10
39.56461504252081
 20
24.820059751642045
 10
39.62012353972632
 20
24.836610883734696
 10
39.67717374025122
 20
24.84663125576527
 10
39.735
 20
24.849986389000836
 10
40.535
 20
24.849986389000836
 10
40.535
 20
28.496432998407567
 10
40.51852408195595
 20
28.514611372663293
 10
40.503909292221
 20
28.534317135449303
 10
40.491296379209544
 20
28.555360509497707
 10
40.480806812168815
 20
28.57753883561293
 10
40.47254161136358
 20
28.600638524390586
 10
40.46658037519583
 20
28.62443711320017
 10
40.462980513628594
 20
28.64870540862181
 10
40.461776695296635
 20
28.673209693704205
 10
40.462980513628594
 20
28.69771397878659
 10
40.46658037519583
 20
28.721982274208234
 10
40.47254161136358
 20
28.745780863017817
 10
40.480806812168815
 20
28.76888055179548
 10
40.491296379209544
 20
28.791058877910704
 10
40.503909292221
 20
28.812102251959107
 10
40.51852408195595
 20
28.831808014745118
 10
40.535
 20
28.849986389000843
 10
40.55317837425572
 20
28.866462307044888
 10
40.57288413704174
 20
28.881077096779844
 10
40.59392751109014
 20
28.893690009791296
 10
40.61610583720537
 20
28.904179576832025
 10
40.63920552598302
 20
28.91244477763726
 10
40.66300411479261
 20
28.918406013805008
 10
40.68727241021425
 20
28.922005875372253
 10
40.711776695296635
 20
28.923209693704205
 10
40.73628098037903
 20
28.922005875372253
 10
40.76054927580067
 20
28.918406013805008
 10
40.784347864610254
 20
28.91244477763726
 10
40.80744755338791
 20
28.904179576832025
 10
40.82962587950314
 20
28.893690009791296
 10
40.85066925355154
 20
28.881077096779844
 10
40.87037501633755
 20
28.866462307044888
 10
40.88855339059327
 20
28.849986389000843
 10
41.79644660940673
 20
28.849986389000843
 10
41.814624983662455
 20
28.866462307044888
 10
41.83433074644846
 20
28.881077096779844
 10
41.85537412049686
 20
28.893690009791296
 10
41.87755244661209
 20
28.904179576832025
 10
41.90065213538975
 20
28.91244477763726
 10
41.92445072419933
 20
28.918406013805008
 10
41.948719019620974
 20
28.922005875372253
 10
41.97322330470337
 20
28.923209693704205
 10
41.997727589785754
 20
28.922005875372253
 10
42.021995885207396
 20
28.918406013805008
 10
42.04579447401698
 20
28.91244477763726
 10
42.068894162794635
 20
28.904179576832025
 10
42.09107248890986
 20
28.893690009791296
 10
42.11211586295826
 20
28.881077096779844
 10
42.13182162574428
 20
28.866462307044888
 10
42.150000000000006
 20
28.849986389000843
 10
42.16647591804405
 20
28.831808014745118
 10
42.181090707779
 20
28.812102251959107
 10
42.19370362079045
 20
28.791058877910704
 10
42.20419318783119
 20
28.76888055179548
 10
42.21245838863642
 20
28.745780863017817
 10
42.21841962480417
 20
28.721982274208234
 10
42.22201948637141
 20
28.69771397878659
 10
42.22322330470337
 20
28.673209693704205
 10
42.22201948637141
 20
28.64870540862181
 10
42.21841962480417
 20
28.62443711320017
 10
42.21245838863642
 20
28.600638524390586
 10
42.20419318783119
 20
28.57753883561293
 10
42.19370362079045
 20
28.555360509497707
 10
42.181090707779
 20
28.534317135449303
 10
42.16647591804405
 20
28.514611372663293
 10
42.150000000000006
 20
28.496432998407567
 10
42.150000000000006
 20
24.849986389000836
 10
42.95
 20
24.849986389000836
 10
43.00782625974878
 20
24.84663125576527
 10
43.06487646027368
 20
24.836610883734696
 10
43.12038495747919
 20
24.820059751642045
 10
43.17360679774998
 20
24.79719998450079
 10
43.22382771562546
 20
24.76833837256891
 10
43.27037371962288
 20
24.733862254060096
 10
43.31262013756228
 20
24.694234316858523
 10
43.35
 20
24.649986389000833
 10
39.335
 20
24.649986389000833
  0
LWPOLYLINE
  5
62
330
17
100
AcDbEntity
  8
BRACKET_OUTLINE
 62
6
100
AcDbPolyline
 90
87
 70
1
 10
30.185000000000002
 20
24.649986389000833
 10
30.222379862437723
 20
24.694234316858523
 10
30.26462628037712
 20
24.733862254060096
 10
30.311172284374546
 20
24.76833837256891
 10
30.361393202250024
 20
24.79719998450079
 10
30.414615042520815
 20
24.820059751642045
 10
30.470123539726323
 20
24.836610883734696
 10
30.527173740251218
 20
24.84663125576527
 10
30.585
 20
24.849986389000836
 10
31.385
 20
24.849986389000836
 10
31.385
 20
28.496432998407567
 10
31.368524081955954
 20
28.514611372663293
 10
31.353909292221005
 20
28.534317135449303
 10
31.34129637920955
 20
28.555360509497707
 10
31.330806812168817
 20
28.57753883561293
 10
31.322541611363587
 20
28.600638524390586
 10
31.31658037519583
 20
28.62443711320017
 10
31.31298051362859
 20
28.64870540862181
 10
31.31177669529664
 20
28.673209693704205
 10
31.31298051362859
 20
28.69771397878659
 10
31.31658037519583
 20
28.721982274208234
 10
31.322541611363587
 20
28.745780863017817
 10
31.330806812168817
 20
28.76888055179548
 10
31.34129637920955
 20
28.791058877910704
 10
31.353909292221005
 20
28.812102251959107
 10
31.368524081955954
 20
28.831808014745118
 10
31.385
 20
28.849986389000843
 10
31.403178374255727
 20
28.866462307044888
 10
31.422884137041738
 20
28.881077096779844
 10
31.44392751109014
 20
28.893690009791296
 10
31.466105837205365
 20
28.904179576832025
 10
31.489205525983024
 20
28.91244477763726
 10
31.513004114792608
 20
28.918406013805008
 10
31.53727241021425
 20
28.922005875372253
 10
31.56177669529664
 20
28.923209693704205
 10
31.58628098037903
 20
28.922005875372253
 10
31.610549275800672
 20
28.918406013805008
 10
31.634347864610255
 20
28.91244477763726
 10
31.65744755338791
 20
28.904179576832025
 10
31.67962587950314
 20
28.893690009791296
 10
31.70066925355154
 20
28.881077096779844
 10
31.72037501633755
 20
28.866462307044888
 10
31.738553390593275
 20
28.849986389000843
 10
32.64644660940672
 20
28.849986389000843
 10
32.66462498366245
 20
28.866462307044888
 10
32.68433074644847
 20
28.881077096779844
 10
32.70537412049687
 20
28.893690009791296
 10
32.727552446612094
 20
28.904179576832025
 10
32.75065213538975
 20
28.91244477763726
 10
32.77445072419933
 20
28.918406013805008
 10
32.798719019620975
 20
28.922005875372253
 10
32.82322330470336
 20
28.923209693704205
 10
32.847727589785755
 20
28.922005875372253
 10
32.8719958852074
 20
28.918406013805008
 10
32.89579447401698
 20
28.91244477763726
 10
32.918894162794636
 20
28.904179576832025
 10
32.94107248890987
 20
28.893690009791296
 10
32.96211586295827
 20
28.881077096779844
 10
32.981821625744274
 20
28.866462307044888
 10
33.0
 20
28.849986389000843
 10
33.01647591804405
 20
28.831808014745118
 10
33.031090707779
 20
28.812102251959107
 10
33.04370362079045
 20
28.791058877910704
 10
33.05419318783119
 20
28.76888055179548
 10
33.062458388636415
 20
28.745780863017817
 10
33.06841962480417
 20
28.721982274208234
 10
33.07201948637142
 20
28.69771397878659
 10
33.07322330470336
 20
28.673209693704205
 10
33.07201948637142
 20
28.64870540862181
 10
33.06841962480417
 20
28.62443711320017
 10
33.062458388636415
 20
28.600638524390586
 10
33.05419318783119
 20
28.57753883561293
 10
33.04370362079045
 20
28.555360509497707
 10
33.031090707779
 20
28.534317135449303
 10
33.01647591804405
 20
28.514611372663293
 10
33.0
 20
28.496432998407567
 10
33.0
 20
24.849986389000836
 10
33.800000000000004
 20
24.849986389000836
 10
33.85782625974879
 20
24.84663125576527
 10
33.91487646027368
 20
24.836610883734696
 10
33.97038495747919
 20
24.820059751642045
 10
34.02360679774998
 20
24.79719998450079
 10
34.073827715625455
 20
24.76833837256891
 10
34.12037371962289
 20
24.733862254060096
 10
34.162620137562286
 20
24.694234316858523
 10
34.2
 20
24.649986389000833
 10
30.185000000000002
 20
24.649986389000833
  0
LINE
  5
63
330
17
100
AcDbEntity
  8
BRACKET_CUT_LINE
 62
4
100
AcDbLine
 10
55.575
 20
24.849986389000836
 30
0.0
 11
53.96
 21
24.849986389000836
 31
0.0
  0
LINE
  5
64
330
17
100
AcDbEntity
  8
BRACKET_CUT_LINE
 62
4
100
AcDbLine
 10
42.150000000000006
 20
24.849986389000836
 30
0.0
 11
40.535
 21
24.849986389000836
 31
0.0
  0
LINE
  5
65
330
17
100
AcDbEntity
  8
BRACKET_CUT_LINE
 62
4
100
AcDbLine
 10
33.0
 20
24.849986389000836
 30
0.0
 11
31.385
 21
24.849986389000836
 31
0.0
  0
LWPOLYLINE
  5
66
330
17
100
AcDbEntity
  8
SHELF_R
 62
3
100
AcDbPolyline
 90
110
 70
1
 10
61.25
 20
37.49861901767515
 10
90.25
 20
37.49861901767515
 10
90.25
 20
33.66346495539925
 10
90.25
 20
33.66346495539925
 10
90.24169009368005
 20
33.440327366955174
 10
90.21680641108225
 20
33.21842594681539
 10
90.17548680625409
 20
32.99899001498896
 10
90.11796018722579
 20
32.78323523283372
 10
90.04454524787404
 20
32.572356868368175
 10
89.95564870237783
 20
32.3675231745614
 10
89.85176303204732
 20
32.169868917284546
 10
89.73346375700814
 20
31.980489088778743
 10
89.6014062478558
 20
31.800432841466506
 10
89.45632209494359
 20
31.630697675712828
 10
89.29901505541763
 20
31.472223913735444
 10
89.13035660045256
 20
31.325889490278495
 10
88.95128108735557
 20
31.192505088908856
 10
88.76278058328538
 20
31.0728096508798
 10
88.56589936926201
 20
30.967466281442636
 10
88.3617281549153
 20
30.877058576285
 10
88.15139803602152
 20
30.80208738844718
 10
87.93607422830353
 20
30.742968053627617
 10
87.71694961220837
 20
30.700028089249
 10
87.71694961220845
 20
30.70002808924848
 10
87.27475627267292
 20
30.63585236863737
 10
86.83256293313738
 20
30.583226327072662
 10
86.39036959360186
 20
30.54285445851021
 10
85.94817625406633
 20
30.51527721282127
 10
85.50598291453079
 20
30.500863760901648
 10
85.06378957499525
 20
30.499807052657093
 10
84.62159623545972
 20
30.51212123402276
 10
84.1794028959242
 20
30.537641457594493
 10
83.73720955638866
 20
30.57602608940697
 10
83.29501621685313
 20
30.62676128231713
 10
82.85282287731759
 20
30.689167854769767
 10
82.41062953778206
 20
30.76241038286084
 10
81.96843619824654
 20
30.845508383984832
 10
81.526242858711
 20
30.93734944235302
 10
81.08404951917547
 20
31.036704100674005
 10
80.64185617963993
 20
31.1422423186447
 10
80.1996628401044
 20
31.252551277925352
 10
79.75746950056887
 20
31.366154295247025
 10
79.31527616103334
 20
31.481530590465706
 10
78.8730828214978
 20
31.597135644932205
 10
78.43088948196227
 20
31.7114218776445
 10
77.98869614242673
 20
31.822859362395167
 10
77.54650280289121
 20
31.929956308577747
 10
77.10430946335568
 20
32.03127903147964
 10
76.66211612382014
 20
32.12547114472346
 10
76.2199227842846
 20
32.21127171793148
 10
75.77772944474907
 20
32.287532156540294
 10
75.33553610521355
 20
32.353231577799235
 10
74.89334276567801
 20
32.407490477116966
 10
74.45114942614248
 20
32.44958250180794
 10
74.00895608660694
 20
32.478944174625866
 10
73.56676274707141
 20
32.49518243691729
 10
73.12456940753589
 20
32.49807991041666
 10
72.68237606800035
 20
32.48759780724434
 10
72.24018272846482
 20
32.46387644915184
 10
71.79798938892928
 20
32.427233389063616
 10
71.35579604939375
 20
32.37815916006157
 10
70.91360270985822
 20
32.31731070871987
 10
70.47140937032268
 20
32.245502600696895
 10
70.02921603078715
 20
32.16369611631275
 10
69.58702269125162
 20
32.07298638208819
 10
69.14482935171608
 20
31.974587710511788
 10
68.70263601218056
 20
31.869817344289412
 10
68.26044267264503
 20
31.760077822687958
 10
67.81824933310949
 20
31.646838206031692
 10
67.37605599357396
 20
31.53161440969492
 10
66.93386265403842
 20
31.415948910855786
 10
66.4916693145029
 20
31.30139009967264
 10
66.04947597496735
 20
31.189471551304646
 10
66.0494759749387
 20
31.18947155141971
 10
65.71603365155973
 20
31.118430670856636
 10
65.3785253302874
 20
31.070277552541217
 10
65.0385201627706
 20
31.04523607108702
 10
64.69759890905459
 20
31.043422649940336
 10
64.35734658827423
 20
31.064845720101534
 10
64.01934510954558
 20
31.109405680927477
 10
63.68516591731679
 20
31.176895363197143
 10
63.35636268537137
 20
31.267000992287695
 10
63.03446409345153
 20
31.379303646982844
 10
62.72096672008417
 20
31.513281207131246
 10
62.417328084652716
 20
31.668310781099816
 10
62.12495987106363
 20
31.843671601736244
 10
61.84522136451228
 20
32.03854837737657
 10
61.57941313186215
 20
32.252035082318514
 10
61.32877097501869
 20
32.48313916913746
 10
61.09446018540997
 20
32.73078618326137
 10
60.87757012628626
 20
32.9938247583504
 10
60.679109168026706
 20
33.271031969256356
 10
60.5
 20
33.56111901767515
 10
60.5
 20
34.18611901767515
 10
60.5
 20
34.18611901767515
 10
60.58397335707748
 20
34.19083486025522
 10
60.666890700467235
 20
34.20492308353879
 10
60.747709296466375
 20
34.22820651994388
 10
60.82541280433817
 20
34.26039236674835
 10
60.899024057386505
 20
34.301075868253946
 10
60.967617351394054
 20
34.34974540582414
 10
61.030330085889915
 20
34.40578893178525
 10
61.08637361185102
 20
34.468501666281114
 10
61.135043149421215
 20
34.537094960288655
 10
61.17572665092681
 20
34.61070621333698
 10
61.20791249773128
 20
34.688409721208785
 10
61.231195934136366
 20
34.76922831720792
 10
61.24528415741993
 20
34.85214566059767
 10
61.25
 20
34.93611901767515
 10
61.25
 20
37.49861901767515
  0
LWPOLYLINE
  5
67
330
17
100
AcDbEntity
  8
BRACKET_OUTLINE
 62
6
100
AcDbPolyline
 90
87
 70
1
 10
67.74
 20
37.49861901767515
 10
67.70262013756228
 20
37.45437108981747
 10
67.66037371962288
 20
37.4147431526159
 10
67.61382771562546
 20
37.38026703410708
 10
67.56360679774998
 20
37.351405422175205
 10
67.51038495747919
 20
37.32854565503395
 10
67.45487646027368
 20
37.31199452294129
 10
67.39782625974878
 20
37.30197415091072
 10
67.34
 20
37.29861901767515
 10
66.54
 20
37.29861901767515
 10
66.54
 20
33.65217240826843
 10
66.55647591804404
 20
33.6339940340127
 10
66.571090707779
 20
33.6142882712267
 10
66.58370362079046
 20
33.593244897178295
 10
66.59419318783118
 20
33.57106657106307
 10
66.60245838863642
 20
33.54796688228541
 10
66.60841962480417
 20
33.524168293475824
 10
66.61201948637141
 20
33.49989999805419
 10
66.61322330470337
 20
33.47539571297179
 10
66.61201948637141
 20
33.4508914278894
 10
66.60841962480417
 20
33.42662313246777
 10
66.60245838863642
 20
33.402824543658184
 10
66.59419318783118
 20
33.37972485488052
 10
66.58370362079046
 20
33.3575465287653
 10
66.571090707779
 20
33.336503154716894
 10
66.55647591804404
 20
33.316797391930876
 10
66.54
 20
33.29861901767515
 10
66.52182162574428
 20
33.282143099631114
 10
66.50211586295826
 20
33.26752830989615
 10
66.48107248890986
 20
33.2549153968847
 10
66.45889416279464
 20
33.244425829843976
 10
66.43579447401697
 20
33.236160629038736
 10
66.4119958852074
 20
33.230199392870986
 10
66.38772758978575
 20
33.22659953130375
 10
66.36322330470337
 20
33.22539571297179
 10
66.33871901962098
 20
33.22659953130375
 10
66.31445072419933
 20
33.230199392870986
 10
66.29065213538975
 20
33.236160629038736
 10
66.26755244661209
 20
33.244425829843976
 10
66.24537412049686
 20
33.2549153968847
 10
66.22433074644846
 20
33.26752830989615
 10
66.20462498366246
 20
33.282143099631114
 10
66.18644660940673
 20
33.29861901767515
 10
65.27855339059327
 20
33.29861901767515
 10
65.26037501633755
 20
33.282143099631114
 10
65.24066925355154
 20
33.26752830989615
 10
65.21962587950314
 20
33.2549153968847
 10
65.19744755338792
 20
33.244425829843976
 10
65.17434786461025
 20
33.236160629038736
 10
65.15054927580067
 20
33.230199392870986
 10
65.12628098037902
 20
33.22659953130375
 10
65.10177669529664
 20
33.22539571297179
 10
65.07727241021425
 20
33.22659953130375
 10
65.0530041147926
 20
33.230199392870986
 10
65.02920552598302
 20
33.236160629038736
 10
65.00610583720537
 20
33.244425829843976
 10
64.98392751109014
 20
33.2549153968847
 10
64.96288413704174
 20
33.26752830989615
 10
64.94317837425572
 20
33.282143099631114
 10
64.925
 20
33.29861901767515
 10
64.90852408195596
 20
33.316797391930876
 10
64.893909292221
 20
33.336503154716894
 10
64.88129637920954
 20
33.3575465287653
 10
64.87080681216881
 20
33.37972485488052
 10
64.86254161136358
 20
33.402824543658184
 10
64.85658037519583
 20
33.42662313246777
 10
64.8529805136286
 20
33.4508914278894
 10
64.85177669529664
 20
33.47539571297179
 10
64.8529805136286
 20
33.49989999805419
 10
64.85658037519583
 20
33.524168293475824
 10
64.86254161136358
 20
33.54796688228541
 10
64.87080681216881
 20
33.57106657106307
 10
64.88129637920954
 20
33.593244897178295
 10
64.893909292221
 20
33.6142882712267
 10
64.90852408195596
 20
33.6339940340127
 10
64.925
 20
33.65217240826843
 10
64.925
 20
37.29861901767515
 10
64.125
 20
37.29861901767515
 10
64.06717374025122
 20
37.30197415091072
 10
64.01012353972632
 20
37.31199452294129
 10
63.954615042520814
 20
37.32854565503395
 10
63.90139320225002
 20
37.351405422175205
 10
63.85117228437454
 20
37.38026703410708
 10
63.804626280377114
 20
37.4147431526159
 10
63.76237986243772
 20
37.45437108981747
 10
63.725
 20
37.49861901767515
 10
67.74
 20
37.49861901767515
  0
LWPOLYLINE
  5
68
330
17
100
AcDbEntity
  8
BRACKET_OUTLINE
 62
6
100
AcDbPolyline
 90
87
 70
1
 10
81.16499999999999
 20
37.49861901767515
 10
81.12762013756227
 20
37.45437108981747
 10
81.08537371962288
 20
37.4147431526159
 10
81.03882771562546
 20
37.38026703410708
 10
80.98860679774998
 20
37.351405422175205
 10
80.93538495747919
 20
37.32854565503395
 10
80.87987646027368
 20
37.31199452294129
 10
80.82282625974878
 20
37.30197415091072
 10
80.765
 20
37.29861901767515
 10
79.965
 20
37.29861901767515
 10
79.965
 20
33.65217240826843
 10
79.98147591804405
 20
33.6339940340127
 10
79.99609070777899
 20
33.6142882712267
 10
80.00870362079046
 20
33.593244897178295
 10
80.01919318783118
 20
33.57106657106307
 10
80.02745838863642
 20
33.54796688228541
 10
80.03341962480417
 20
33.524168293475824
 10
80.0370194863714
 20
33.49989999805419
 10
80.03822330470337
 20
33.47539571297179
 10
80.0370194863714
 20
33.4508914278894
 10
80.03341962480417
 20
33.42662313246777
 10
80.02745838863642
 20
33.402824543658184
 10
80.01919318783118
 20
33.37972485488052
 10
80.00870362079046
 20
33.3575465287653
 10
79.99609070777899
 20
33.336503154716894
 10
79.98147591804405
 20
33.316797391930876
 10
79.965
 20
33.29861901767515
 10
79.94682162574428
 20
33.282143099631114
 10
79.92711586295826
 20
33.26752830989615
 10
79.90607248890986
 20
33.2549153968847
 10
79.88389416279463
 20
33.244425829843976
 10
79.86079447401698
 20
33.236160629038736
 10
79.83699588520739
 20
33.230199392870986
 10
79.81272758978575
 20
33.22659953130375
 10
79.78822330470337
 20
33.22539571297179
 10
79.76371901962096
 20
33.22659953130375
 10
79.73945072419933
 20
33.230199392870986
 10
79.71565213538975
 20
33.236160629038736
 10
79.6925524466121
 20
33.244425829843976
 10
79.67037412049686
 20
33.2549153968847
 10
79.64933074644847
 20
33.26752830989615
 10
79.62962498366245
 20
33.282143099631114
 10
79.61144660940673
 20
33.29861901767515
 10
78.70355339059327
 20
33.29861901767515
 10
78.68537501633755
 20
33.282143099631114
 10
78.66566925355154
 20
33.26752830989615
 10
78.64462587950314
 20
33.2549153968847
 10
78.6224475533879
 20
33.244425829843976
 10
78.59934786461025
 20
33.236160629038736
 10
78.57554927580067
 20
33.230199392870986
 10
78.55128098037903
 20
33.22659953130375
 10
78.52677669529663
 20
33.22539571297179
 10
78.50227241021425
 20
33.22659953130375
 10
78.47800411479261
 20
33.230199392870986
 10
78.45420552598301
 20
33.236160629038736
 10
78.43110583720537
 20
33.244425829843976
 10
78.40892751109014
 20
33.2549153968847
 10
78.38788413704174
 20
33.26752830989615
 10
78.36817837425572
 20
33.282143099631114
 10
78.35
 20
33.29861901767515
 10
78.33352408195594
 20
33.316797391930876
 10
78.31890929222101
 20
33.336503154716894
 10
78.30629637920956
 20
33.3575465287653
 10
78.29580681216882
 20
33.37972485488052
 10
78.28754161136358
 20
33.402824543658184
 10
78.28158037519583
 20
33.42662313246777
 10
78.27798051362859
 20
33.4508914278894
 10
78.27677669529663
 20
33.47539571297179
 10
78.27798051362859
 20
33.49989999805419
 10
78.28158037519583
 20
33.524168293475824
 10
78.28754161136358
 20
33.54796688228541
 10
78.29580681216882
 20
33.57106657106307
 10
78.30629637920956
 20
33.593244897178295
 10
78.31890929222101
 20
33.6142882712267
 10
78.33352408195594
 20
33.6339940340127
 10
78.35
 20
33.65217240826843
 10
78.35
 20
37.29861901767515
 10
77.55
 20
37.29861901767515
 10
77.49217374025122
 20
37.30197415091072
 10
77.43512353972632
 20
37.31199452294129
 10
77.37961504252081
 20
37.32854565503395
 10
77.32639320225002
 20
37.351405422175205
 10
77.27617228437454
 20
37.38026703410708
 10
77.22962628037712
 20
37.4147431526159
 10
77.18737986243772
 20
37.45437108981747
 10
77.15
 20
37.49861901767515
 10
81.16499999999999
 20
37.49861901767515
  0
LWPOLYLINE
  5
69
330
17
100
AcDbEntity
  8
BRACKET_OUTLINE
 62
6
100
AcDbPolyline
 90
87
 70
1
 10
90.315
 20
37.49861901767515
 10
90.27762013756228
 20
37.45437108981747
 10
90.23537371962288
 20
37.4147431526159
 10
90.18882771562545
 20
37.38026703410708
 10
90.13860679774997
 20
37.351405422175205
 10
90.08538495747919
 20
37.32854565503395
 10
90.02987646027367
 20
37.31199452294129
 10
89.97282625974879
 20
37.30197415091072
 10
89.91499999999999
 20
37.29861901767515
 10
89.115
 20
37.29861901767515
 10
89.115
 20
33.65217240826843
 10
89.13147591804405
 20
33.6339940340127
 10
89.146090707779
 20
33.6142882712267
 10
89.15870362079045
 20
33.593244897178295
 10
89.16919318783118
 20
33.57106657106307
 10
89.17745838863641
 20
33.54796688228541
 10
89.18341962480417
 20
33.524168293475824
 10
89.18701948637141
 20
33.49989999805419
 10
89.18822330470336
 20
33.47539571297179
 10
89.18701948637141
 20
33.4508914278894
 10
89.18341962480417
 20
33.42662313246777
 10
89.17745838863641
 20
33.402824543658184
 10
89.16919318783118
 20
33.37972485488052
 10
89.15870362079045
 20
33.3575465287653
 10
89.146090707779
 20
33.336503154716894
 10
89.13147591804405
 20
33.316797391930876
 10
89.115
 20
33.29861901767515
 10
89.09682162574427
 20
33.282143099631114
 10
89.07711586295827
 20
33.26752830989615
 10
89.05607248890986
 20
33.2549153968847
 10
89.03389416279464
 20
33.244425829843976
 10
89.01079447401698
 20
33.236160629038736
 10
88.98699588520739
 20
33.230199392870986
 10
88.96272758978574
 20
33.22659953130375
 10
88.93822330470336
 20
33.22539571297179
 10
88.91371901962097
 20
33.22659953130375
 10
88.88945072419932
 20
33.230199392870986
 10
88.86565213538975
 20
33.236160629038736
 10
88.84255244661209
 20
33.244425829843976
 10
88.82037412049687
 20
33.2549153968847
 10
88.79933074644846
 20
33.26752830989615
 10
88.77962498366244
 20
33.282143099631114
 10
88.76144660940673
 20
33.29861901767515
 10
87.85355339059328
 20
33.29861901767515
 10
87.83537501633755
 20
33.282143099631114
 10
87.81566925355153
 20
33.26752830989615
 10
87.79462587950313
 20
33.2549153968847
 10
87.7724475533879
 20
33.244425829843976
 10
87.74934786461026
 20
33.236160629038736
 10
87.72554927580066
 20
33.230199392870986
 10
87.70128098037902
 20
33.22659953130375
 10
87.67677669529664
 20
33.22539571297179
 10
87.65227241021424
 20
33.22659953130375
 10
87.6280041147926
 20
33.230199392870986
 10
87.60420552598302
 20
33.236160629038736
 10
87.58110583720537
 20
33.244425829843976
 10
87.55892751109013
 20
33.2549153968847
 10
87.53788413704173
 20
33.26752830989615
 10
87.51817837425573
 20
33.282143099631114
 10
87.5
 20
33.29861901767515
 10
87.48352408195595
 20
33.316797391930876
 10
87.468909292221
 20
33.336503154716894
 10
87.45629637920955
 20
33.3575465287653
 10
87.44580681216881
 20
33.37972485488052
 10
87.43754161136359
 20
33.402824543658184
 10
87.43158037519584
 20
33.42662313246777
 10
87.42798051362858
 20
33.4508914278894
 10
87.42677669529664
 20
33.47539571297179
 10
87.42798051362858
 20
33.49989999805419
 10
87.43158037519584
 20
33.524168293475824
 10
87.43754161136359
 20
33.54796688228541
 10
87.44580681216881
 20
33.57106657106307
 10
87.45629637920955
 20
33.593244897178295
 10
87.468909292221
 20
33.6142882712267
 10
87.48352408195595
 20
33.6339940340127
 10
87.5
 20
33.65217240826843
 10
87.5
 20
37.29861901767515
 10
86.69999999999999
 20
37.29861901767515
 10
86.64217374025121
 20
37.30197415091072
 10
86.58512353972631
 20
37.31199452294129
 10
86.52961504252082
 20
37.32854565503395
 10
86.47639320225002
 20
37.351405422175205
 10
86.42617228437454
 20
37.38026703410708
 10
86.37962628037711
 20
37.4147431526159
 10
86.33737986243771
 20
37.45437108981747
 10
86.3
 20
37.49861901767515
 10
90.315
 20
37.49861901767515
  0
LINE
  5
6A
330
17
100
AcDbEntity
  8
BRACKET_CUT_LINE
 62
4
100
AcDbLine
 10
64.925
 20
37.29861901767515
 30
0.0
 11
66.54
 21
37.29861901767515
 31
0.0
  0
LINE
  5
6B
330
17
100
AcDbEntity
  8
BRACKET_CUT_LINE
 62
4
100
AcDbLine
 10
78.35
 20
37.29861901767515
 30
0.0
 11
79.965
 21
37.29861901767515
 31
0.0
  0
LINE
  5
6C
330
17
100
AcDbEntity
  8
BRACKET_CUT_LINE
 62
4
100
AcDbLine
 10
87.5
 20
37.29861901767515
 30
0.0
 11
89.115
 21
37.29861901767515
 31
0.0
  0
LWPOLYLINE
  5
6D
330
17
100
AcDbEntity
  8
SHELF_R
 62
3
100
AcDbPolyline
 90
110
 70
1
 10
89.47883562269968
 20
24.649986389000833
 10
89.47883562269968
 20
27.212486389000837
 10
89.47883562269968
 20
27.212486389000837
 10
89.48355146527975
 20
27.29645974607832
 10
89.49763968856331
 20
27.379377089468072
 10
89.5209231249684
 20
27.460195685467212
 10
89.55310897177286
 20
27.53789919333901
 10
89.59379247327846
 20
27.611510446387346
 10
89.64246201084865
 20
27.680103740394888
 10
89.69850553680976
 20
27.74281647489075
 10
89.76121827130562
 20
27.798860000851864
 10
89.82981156531318
 20
27.847529538422055
 10
89.9034228183615
 20
27.888213039927653
 10
89.9811263262333
 20
27.92039888673212
 10
90.06194492223244
 20
27.943682323137207
 10
90.1448622656222
 20
27.95777054642077
 10
90.22883562269968
 20
27.96248638900084
 10
90.22883562269968
 20
28.587486389000844
 10
90.22883562269968
 20
28.587486389000844
 10
90.03760480392583
 20
28.786102960480306
 10
89.8357166454816
 20
28.97387660079005
 10
89.62378503085877
 20
29.150236344605176
 10
89.40245438279422
 20
29.314645932958456
 10
89.1723977037667
 20
29.466605443848735
 10
88.93431452959115
 20
29.605652812359107
 10
88.68892880233237
 20
29.731365235662683
 10
88.43698666900687
 20
29.843360458643705
 10
88.17925421276544
 20
29.941297936224753
 10
87.91651512345601
 20
30.024879868865835
 10
87.64956831464939
 20
30.09385210808666
 10
87.37922549437428
 20
30.148004929258615
 10
87.10630869694798
 20
30.18717366931673
 10
86.83164778340767
 20
30.21123922745242
 10
86.55607791814322
 20
30.22012842726458
 10
86.28043702940369
 20
30.213814239267858
 10
86.00556326140004
 20
30.19231586308153
 10
85.73229242575094
 20
30.155698669048956
 10
85.46145546002145
 20
30.104073999465324
 10
85.46145545970577
 20
30.1040740009045
 10
84.99904792320547
 20
30.00688934090717
 10
84.53664038670513
 20
29.919117790795124
 10
84.07423285020482
 20
29.842044076176197
 10
83.6118253137045
 20
29.77679633680337
 10
83.14941777720418
 20
29.72432961382059
 10
82.68701024070386
 20
29.68541187067944
 10
82.22460270420353
 20
29.660612752340608
 10
81.76219516770323
 20
29.650295247293418
 10
81.2997876312029
 20
29.654610374437805
 10
80.83738009470258
 20
29.673494972597556
 10
80.37497255820226
 20
29.706672625020094
 10
79.91256502170194
 20
29.75365770533082
 10
79.45015748520163
 20
29.813762485720613
 10
78.98774994870129
 20
29.886107203323018
 10
78.52534241220098
 20
29.96963293743791
 10
78.06293487570066
 20
30.06311710911582
 10
77.60052733920034
 20
30.165191376233036
 10
77.13811980270002
 20
30.27436166212463
 10
76.6757122661997
 20
30.389030024613216
 10
76.21330472969937
 20
30.50751804533306
 10
75.75089719319907
 20
30.628091396996485
 10
75.28848965669874
 20
30.74898522900777
 10
74.82608212019842
 20
30.868429999851276
 10
74.3636745836981
 20
30.984677378141402
 10
73.90126704719778
 20
31.096025833216547
 10
73.43885951069745
 20
31.200845540703707
 10
72.97645197419715
 20
31.297602238507242
 10
72.51404443769681
 20
31.384879684037838
 10
72.0516369011965
 20
31.461400383972023
 10
71.58922936469618
 20
31.52604429311737
 10
71.12682182819586
 20
31.577865208685363
 10
70.66441429169554
 20
31.616104620006343
 10
70.20200675519521
 20
31.64020281096627
 10
69.7395992186949
 20
31.649807052657092
 10
69.27719168219457
 20
31.644776766323755
 10
68.81478414569426
 20
31.62518558103695
 10
68.35237660919394
 20
31.59132025597312
 10
67.88996907269362
 20
31.543676483076535
 10
67.42756153619331
 20
31.48295163154047
 10
66.96515399969297
 20
31.410034540307624
 10
66.50274646319266
 20
31.325992507998517
 10
66.04033892669234
 20
31.232055670698283
 10
65.57793139019202
 20
31.129598996266605
 10
65.1155238536917
 20
31.020122158722774
 10
64.65311631719138
 20
30.905227587287616
 10
64.19070878069107
 20
30.786597011381833
 10
63.72830124419074
 20
30.66596684489515
 10
63.26589370769042
 20
30.54510277003057
 10
62.8034861711901
 20
30.42577389274381
 10
62.803486171190094
 20
30.425773892743816
 10
62.682148947407796
 20
30.397486659547337
 10
62.55974183888788
 20
30.374261905062045
 10
62.43647596918723
 20
30.356139686543056
 10
62.312563943024365
 20
30.343151260567527
 10
62.18821947958618
 20
30.335319029124395
 10
62.06365704391247
 20
30.33265650097618
 10
61.939091476993994
 20
30.335168268359556
 10
61.81473762522221
 20
30.34284999906482
 10
61.69080996982956
 20
30.35568844390792
 10
61.567522256959705
 20
30.373661459582205
 10
61.445087129005515
 20
30.396738046850448
 10
61.323715757850806
 20
30.424878404011213
 10
61.203617480648404
 20
30.45803399554752
 10
61.08499943876259
 20
30.496147635839183
 10
60.96806622049885
 20
30.539153587794612
 10
60.85301950823704
 20
30.586977676231886
 10
60.740057730576545
 20
30.639537415813532
 10
60.62937572009352
 20
30.696742153314393
 10
60.52116437730032
 20
30.758493223977194
 10
60.52116437730032
 20
24.649986389000833
 10
89.47883562269968
 20
24.649986389000833
  0
LWPOLYLINE
  5
6E
330
17
100
AcDbEntity
  8
BRACKET_OUTLINE
 62
6
100
AcDbPolyline
 90
87
 70
1
 10
82.98883562269967
 20
24.649986389000833
 10
83.0262154851374
 20
24.694234316858523
 10
83.0684619030768
 20
24.733862254060096
 10
83.11500790707422
 20
24.76833837256891
 10
83.1652288249497
 20
24.79719998450079
 10
83.21845066522049
 20
24.820059751642045
 10
83.273959162426
 20
24.836610883734696
 10
83.3310093629509
 20
24.84663125576527
 10
83.38883562269967
 20
24.849986389000836
 10
84.18883562269968
 20
24.849986389000836
 10
84.18883562269968
 20
28.49643299840757
 10
84.17235970465563
 20
28.514611372663293
 10
84.15774491492067
 20
28.534317135449303
 10
84.14513200190922
 20
28.55536050949771
 10
84.13464243486848
 20
28.577538835612934
 10
84.12637723406326
 20
28.60063852439059
 10
84.1204159978955
 20
28.624437113200173
 10
84.11681613632827
 20
28.648705408621815
 10
84.11561231799631
 20
28.67320969370421
 10
84.11681613632827
 20
28.697713978786595
 10
84.1204159978955
 20
28.721982274208237
 10
84.12637723406326
 20
28.74578086301782
 10
84.13464243486848
 20
28.768880551795483
 10
84.14513200190922
 20
28.791058877910707
 10
84.15774491492067
 20
28.81210225195911
 10
84.17235970465563
 20
28.83180801474512
 10
84.18883562269968
 20
28.849986389000847
 10
84.2070139969554
 20
28.86646230704489
 10
84.22671975974141
 20
28.881077096779848
 10
84.24776313378982
 20
28.8936900097913
 10
84.26994145990504
 20
28.90417957683203
 10
84.2930411486827
 20
28.912444777637262
 10
84.31683973749227
 20
28.91840601380501
 10
84.34110803291392
 20
28.922005875372257
 10
84.36561231799631
 20
28.92320969370421
 10
84.3901166030787
 20
28.922005875372257
 10
84.41438489850034
 20
28.91840601380501
 10
84.43818348730993
 20
28.912444777637262
 10
84.46128317608759
 20
28.90417957683203
 10
84.48346150220281
 20
28.8936900097913
 10
84.50450487625122
 20
28.881077096779848
 10
84.52421063903722
 20
28.86646230704489
 10
84.54238901329295
 20
28.849986389000847
 10
85.4502822321064
 20
28.849986389000847
 10
85.46846060636213
 20
28.86646230704489
 10
85.48816636914813
 20
28.881077096779848
 10
85.50920974319654
 20
28.8936900097913
 10
85.53138806931176
 20
28.90417957683203
 10
85.55448775808942
 20
28.912444777637262
 10
85.578286346899
 20
28.91840601380501
 10
85.60255464232065
 20
28.922005875372257
 10
85.62705892740304
 20
28.92320969370421
 10
85.65156321248543
 20
28.922005875372257
 10
85.67583150790708
 20
28.91840601380501
 10
85.69963009671665
 20
28.912444777637262
 10
85.72272978549431
 20
28.90417957683203
 10
85.74490811160953
 20
28.8936900097913
 10
85.76595148565794
 20
28.881077096779848
 10
85.78565724844395
 20
28.86646230704489
 10
85.80383562269968
 20
28.849986389000847
 10
85.82031154074372
 20
28.83180801474512
 10
85.83492633047868
 20
28.81210225195911
 10
85.84753924349013
 20
28.791058877910707
 10
85.85802881053087
 20
28.768880551795483
 10
85.8662940113361
 20
28.74578086301782
 10
85.87225524750384
 20
28.721982274208237
 10
85.8758551090711
 20
28.697713978786595
 10
85.87705892740304
 20
28.67320969370421
 10
85.8758551090711
 20
28.648705408621815
 10
85.87225524750384
 20
28.624437113200173
 10
85.8662940113361
 20
28.60063852439059
 10
85.85802881053087
 20
28.577538835612934
 10
85.84753924349013
 20
28.55536050949771
 10
85.83492633047868
 20
28.534317135449303
 10
85.82031154074372
 20
28.514611372663293
 10
85.80383562269968
 20
28.49643299840757
 10
85.80383562269968
 20
24.849986389000836
 10
86.60383562269968
 20
24.849986389000836
 10
86.66166188244846
 20
24.84663125576527
 10
86.71871208297335
 20
24.836610883734696
 10
86.77422058017886
 20
24.820059751642045
 10
86.82744242044966
 20
24.79719998450079
 10
86.87766333832514
 20
24.76833837256891
 10
86.92420934232256
 20
24.733862254060096
 10
86.96645576026197
 20
24.694234316858523
 10
87.00383562269968
 20
24.649986389000833
 10
82.98883562269967
 20
24.649986389000833
  0
LWPOLYLINE
  5
6F
330
17
100
AcDbEntity
  8
BRACKET_OUTLINE
 62
6
100
AcDbPolyline
 90
87
 70
1
 10
69.56383562269968
 20
24.649986389000833
 10
69.6012154851374
 20
24.694234316858523
 10
69.6434619030768
 20
24.733862254060096
 10
69.69000790707422
 20
24.76833837256891
 10
69.7402288249497
 20
24.79719998450079
 10
69.79345066522049
 20
24.820059751642045
 10
69.848959162426
 20
24.836610883734696
 10
69.9060093629509
 20
24.84663125576527
 10
69.96383562269968
 20
24.849986389000836
 10
70.76383562269967
 20
24.849986389000836
 10
70.76383562269967
 20
28.49643299840757
 10
70.74735970465562
 20
28.514611372663293
 10
70.73274491492069
 20
28.534317135449303
 10
70.72013200190922
 20
28.55536050949771
 10
70.7096424348685
 20
28.577538835612934
 10
70.70137723406326
 20
28.60063852439059
 10
70.69541599789551
 20
28.624437113200173
 10
70.69181613632827
 20
28.648705408621815
 10
70.69061231799631
 20
28.67320969370421
 10
70.69181613632827
 20
28.697713978786595
 10
70.69541599789551
 20
28.721982274208237
 10
70.70137723406326
 20
28.74578086301782
 10
70.7096424348685
 20
28.768880551795483
 10
70.72013200190922
 20
28.791058877910707
 10
70.73274491492069
 20
28.81210225195911
 10
70.74735970465562
 20
28.83180801474512
 10
70.76383562269967
 20
28.849986389000847
 10
70.7820139969554
 20
28.86646230704489
 10
70.80171975974142
 20
28.881077096779848
 10
70.82276313378982
 20
28.8936900097913
 10
70.84494145990504
 20
28.90417957683203
 10
70.86804114868269
 20
28.912444777637262
 10
70.89183973749229
 20
28.91840601380501
 10
70.91610803291393
 20
28.922005875372257
 10
70.94061231799631
 20
28.92320969370421
 10
70.96511660307871
 20
28.922005875372257
 10
70.98938489850035
 20
28.91840601380501
 10
71.01318348730993
 20
28.912444777637262
 10
71.03628317608758
 20
28.90417957683203
 10
71.05846150220282
 20
28.8936900097913
 10
71.0795048762512
 20
28.881077096779848
 10
71.09921063903722
 20
28.86646230704489
 10
71.11738901329295
 20
28.849986389000847
 10
72.0252822321064
 20
28.849986389000847
 10
72.04346060636213
 20
28.86646230704489
 10
72.06316636914814
 20
28.881077096779848
 10
72.08420974319654
 20
28.8936900097913
 10
72.10638806931178
 20
28.90417957683203
 10
72.12948775808943
 20
28.912444777637262
 10
72.15328634689901
 20
28.91840601380501
 10
72.17755464232064
 20
28.922005875372257
 10
72.20205892740304
 20
28.92320969370421
 10
72.22656321248543
 20
28.922005875372257
 10
72.25083150790707
 20
28.91840601380501
 10
72.27463009671666
 20
28.912444777637262
 10
72.29772978549431
 20
28.90417957683203
 10
72.31990811160954
 20
28.8936900097913
 10
72.34095148565794
 20
28.881077096779848
 10
72.36065724844396
 20
28.86646230704489
 10
72.37883562269968
 20
28.849986389000847
 10
72.39531154074373
 20
28.83180801474512
 10
72.40992633047867
 20
28.81210225195911
 10
72.42253924349012
 20
28.791058877910707
 10
72.43302881053086
 20
28.768880551795483
 10
72.4412940113361
 20
28.74578086301782
 10
72.44725524750385
 20
28.721982274208237
 10
72.45085510907109
 20
28.697713978786595
 10
72.45205892740304
 20
28.67320969370421
 10
72.45085510907109
 20
28.648705408621815
 10
72.44725524750385
 20
28.624437113200173
 10
72.4412940113361
 20
28.60063852439059
 10
72.43302881053086
 20
28.577538835612934
 10
72.42253924349012
 20
28.55536050949771
 10
72.40992633047867
 20
28.534317135449303
 10
72.39531154074373
 20
28.514611372663293
 10
72.37883562269968
 20
28.49643299840757
 10
72.37883562269968
 20
24.849986389000836
 10
73.17883562269968
 20
24.849986389000836
 10
73.23666188244846
 20
24.84663125576527
 10
73.29371208297336
 20
24.836610883734696
 10
73.34922058017887
 20
24.820059751642045
 10
73.40244242044966
 20
24.79719998450079
 10
73.45266333832514
 20
24.76833837256891
 10
73.49920934232256
 20
24.733862254060096
 10
73.54145576026195
 20
24.694234316858523
 10
73.57883562269967
 20
24.649986389000833
 10
69.56383562269968
 20
24.649986389000833
  0
LWPOLYLINE
  5
70
330
17
100
AcDbEntity
  8
BRACKET_OUTLINE
 62
6
100
AcDbPolyline
 90
87
 70
1
 10
60.41383562269968
 20
24.649986389000833
 10
60.451215485137396
 20
24.694234316858523
 10
60.49346190307679
 20
24.733862254060096
 10
60.54000790707423
 20
24.76833837256891
 10
60.590228824949705
 20
24.79719998450079
 10
60.64345066522049
 20
24.820059751642045
 10
60.698959162426
 20
24.836610883734696
 10
60.75600936295089
 20
24.84663125576527
 10
60.81383562269968
 20
24.849986389000836
 10
61.61383562269968
 20
24.849986389000836
 10
61.61383562269968
 20
28.49643299840757
 10
61.59735970465563
 20
28.514611372663293
 10
61.58274491492068
 20
28.534317135449303
 10
61.57013200190923
 20
28.55536050949771
 10
61.55964243486849
 20
28.577538835612934
 10
61.55137723406327
 20
28.60063852439059
 10
61.5454159978955
 20
28.624437113200173
 10
61.541816136328265
 20
28.648705408621815
 10
61.54061231799632
 20
28.67320969370421
 10
61.541816136328265
 20
28.697713978786595
 10
61.5454159978955
 20
28.721982274208237
 10
61.55137723406327
 20
28.74578086301782
 10
61.55964243486849
 20
28.768880551795483
 10
61.57013200190923
 20
28.791058877910707
 10
61.58274491492068
 20
28.81210225195911
 10
61.59735970465563
 20
28.83180801474512
 10
61.61383562269968
 20
28.849986389000847
 10
61.63201399695541
 20
28.86646230704489
 10
61.65171975974141
 20
28.881077096779848
 10
61.672763133789815
 20
28.8936900097913
 10
61.69494145990504
 20
28.90417957683203
 10
61.7180411486827
 20
28.912444777637262
 10
61.741839737492285
 20
28.91840601380501
 10
61.76610803291393
 20
28.922005875372257
 10
61.79061231799632
 20
28.92320969370421
 10
61.81511660307871
 20
28.922005875372257
 10
61.83938489850035
 20
28.91840601380501
 10
61.86318348730993
 20
28.912444777637262
 10
61.88628317608759
 20
28.90417957683203
 10
61.90846150220281
 20
28.8936900097913
 10
61.929504876251215
 20
28.881077096779848
 10
61.949210639037226
 20
28.86646230704489
 10
61.96738901329295
 20
28.849986389000847
 10
62.8752822321064
 20
28.849986389000847
 10
62.893460606362126
 20
28.86646230704489
 10
62.91316636914814
 20
28.881077096779848
 10
62.93420974319655
 20
28.8936900097913
 10
62.95638806931177
 20
28.90417957683203
 10
62.97948775808943
 20
28.912444777637262
 10
63.00328634689901
 20
28.91840601380501
 10
63.02755464232065
 20
28.922005875372257
 10
63.05205892740304
 20
28.92320969370421
 10
63.07656321248543
 20
28.922005875372257
 10
63.100831507907074
 20
28.91840601380501
 10
63.12463009671666
 20
28.912444777637262
 10
63.14772978549431
 20
28.90417957683203
 10
63.169908111609544
 20
28.8936900097913
 10
63.19095148565795
 20
28.881077096779848
 10
63.21065724844395
 20
28.86646230704489
 10
63.22883562269968
 20
28.849986389000847
 10
63.24531154074373
 20
28.83180801474512
 10
63.25992633047868
 20
28.81210225195911
 10
63.27253924349013
 20
28.791058877910707
 10
63.283028810530865
 20
28.768880551795483
 10
63.29129401133609
 20
28.74578086301782
 10
63.29725524750385
 20
28.721982274208237
 10
63.300855109071094
 20
28.697713978786595
 10
63.30205892740304
 20
28.67320969370421
 10
63.300855109071094
 20
28.648705408621815
 10
63.29725524750385
 20
28.624437113200173
 10
63.29129401133609
 20
28.60063852439059
 10
63.283028810530865
 20
28.577538835612934
 10
63.27253924349013
 20
28.55536050949771
 10
63.25992633047868
 20
28.534317135449303
 10
63.24531154074373
 20
28.514611372663293
 10
63.22883562269968
 20
28.49643299840757
 10
63.22883562269968
 20
24.849986389000836
 10
64.02883562269969
 20
24.849986389000836
 10
64.08666188244847
 20
24.84663125576527
 10
64.14371208297337
 20
24.836610883734696
 10
64.19922058017886
 20
24.820059751642045
 10
64.25244242044965
 20
24.79719998450079
 10
64.30266333832513
 20
24.76833837256891
 10
64.34920934232257
 20
24.733862254060096
 10
64.39145576026196
 20
24.694234316858523
 10
64.42883562269968
 20
24.649986389000833
 10
60.41383562269968
 20
24.649986389000833
  0
LINE
  5
71
330
17
100
AcDbEntity
  8
BRACKET_CUT_LINE
 62
4
100
AcDbLine
 10
85.80383562269968
 20
24.849986389000836
 30
0.0
 11
84.18883562269968
 21
24.849986389000836
 31
0.0
  0
LINE
  5
72
330
17
100
AcDbEntity
  8
BRACKET_CUT_LINE
 62
4
100
AcDbLine
 10
72.37883562269968
 20
24.849986389000836
 30
0.0
 11
70.76383562269967
 21
24.849986389000836
 31
0.0
  0
LINE
  5
73
330
17
100
AcDbEntity
  8
BRACKET_CUT_LINE
 62
4
100
AcDbLine
 10
63.22883562269968
 20
24.849986389000836
 30
0.0
 11
61.61383562269968
 21
24.849986389000836
 31
0.0
  0
ENDSEC
  0
SECTION
  2
OBJECTS
  0
DICTIONARY
  5
A
330
0
100
AcDbDictionary
281
1
  3
ACAD_COLOR
350
B
  3
ACAD_GROUP
350
C
  3
ACAD_LAYOUT
350
D
  3
ACAD_MATERIAL
350
E
  3
ACAD_MLEADERSTYLE
350
F
  3
ACAD_MLINESTYLE
350
10
  3
ACAD_PLOTSETTINGS
350
11
  3
ACAD_PLOTSTYLENAME
350
12
  3
ACAD_SCALELIST
350
14
  3
ACAD_TABLESTYLE
350
15
  3
ACAD_VISUALSTYLE
350
16
  3
EZDXF_META
350
2D
  0
DICTIONARY
  5
B
330
A
100
AcDbDictionary
281
1
  0
DICTIONARY
  5
C
330
A
100
AcDbDictionary
281
1
  0
DICTIONARY
  5
D
330
A
100
AcDbDictionary
281
1
  3
Model
350
1A
  3
Layout1
350
1E
  0
DICTIONARY
  5
E
330
A
100
AcDbDictionary
281
1
  3
ByBlock
350
1F
  3
ByLayer
350
20
  3
Global
350
21
  0
DICTIONARY
  5
F
330
A
100
AcDbDictionary
281
1
  3
Standard
350
2C
  0
DICTIONARY
  5
10
330
A
100
AcDbDictionary
281
1
  3
Standard
350
22
  0
DICTIONARY
  5
11
330
A
100
AcDbDictionary
281
1
  0
ACDBDICTIONARYWDFLT
  5
12
330
A
100
AcDbDictionary
281
1
  3
Normal
350
13
100
AcDbDictionaryWithDefault
340
13
  0
ACDBPLACEHOLDER
  5
13
330
12
  0
DICTIONARY
  5
14
330
A
100
AcDbDictionary
281
1
  0
DICTIONARY
  5
15
330
A
100
AcDbDictionary
281
1
  0
DICTIONARY
  5
16
330
A
100
AcDbDictionary
281
1
  0
LAYOUT
  5
1A
330
D
100
AcDbPlotSettings
  1

  4
A3
  6

 40
7.5
 41
20.0
 42
7.5
 43
20.0
 44
420.0
 45
297.0
 46
0.0
 47
0.0
 48
0.0
 49
0.0
140
0.0
141
0.0
142
1.0
143
1.0
 70
1024
 72
1
 73
0
 74
5
  7

 75
16
 76
0
 77
2
 78
300
147
1.0
148
0.0
149
0.0
100
AcDbLayout
  1
Model
 70
1
 71
0
 10
0.0
 20
0.0
 11
420.0
 21
297.0
 12
0.0
 22
0.0
 32
0.0
 14
1e+20
 24
1e+20
 34
1e+20
 15
-1e+20
 25
-1e+20
 35
-1e+20
146
0.0
 13
0.0
 23
0.0
 33
0.0
 16
1.0
 26
0.0
 36
0.0
 17
0.0
 27
1.0
 37
0.0
 76
1
330
17
  0
LAYOUT
  5
1E
330
D
100
AcDbPlotSettings
  1

  4
A3
  6

 40
7.5
 41
20.0
 42
7.5
 43
20.0
 44
420.0
 45
297.0
 46
0.0
 47
0.0
 48
0.0
 49
0.0
140
0.0
141
0.0
142
1.0
143
1.0
 70
0
 72
1
 73
0
 74
5
  7

 75
16
 76
0
 77
2
 78
300
147
1.0
148
0.0
149
0.0
100
AcDbLayout
  1
Layout1
 70
1
 71
1
 10
0.0
 20
0.0
 11
420.0
 21
297.0
 12
0.0
 22
0.0
 32
0.0
 14
1e+20
 24
1e+20
 34
1e+20
 15
-1e+20
 25
-1e+20
 35
-1e+20
146
0.0
 13
0.0
 23
0.0
 33
0.0
 16
1.0
 26
0.0
 36
0.0
 17
0.0
 27
1.0
 37
0.0
 76
1
330
1B
  0
MATERIAL
  5
1F
102
{ACAD_REACTORS
330
E
102
}
330
E
100
AcDbMaterial
  1
ByBlock
  2

 70
0
 40
1.0
 71
1
 41
1.0
 91
-1023410177
 42
1.0
 72
1
  3

 73
1
 74
1
 75
1
 44
0.5
 73
0
 45
1.0
 46
1.0
 77
1
  4

 78
1
 79
1
170
1
 48
1.0
171
1
  6

172
1
173
1
174
1
140
1.0
141
1.0
175
1
  7

176
1
177
1
178
1
143
1.0
179
1
  8

270
1
271
1
272
1
145
1.0
146
1.0
273
1
  9

274
1
275
1
276
1
 42
1.0
 72
1
  3

 73
1
 74
1
 75
1
 94
63
  0
MATERIAL
  5
20
102
{ACAD_REACTORS
330
E
102
}
330
E
100
AcDbMaterial
  1
ByLayer
  2

 70
0
 40
1.0
 71
1
 41
1.0
 91
-1023410177
 42
1.0
 72
1
  3

 73
1
 74
1
 75
1
 44
0.5
 73
0
 45
1.0
 46
1.0
 77
1
  4

 78
1
 79
1
170
1
 48
1.0
171
1
  6

172
1
173
1
174
1
140
1.0
141
1.0
175
1
  7

176
1
177
1
178
1
143
1.0
179
1
  8

270
1
271
1
272
1
145
1.0
146
1.0
273
1
  9

274
1
275
1
276
1
 42
1.0
 72
1
  3

 73
1
 74
1
 75
1
 94
63
  0
MATERIAL
  5
21
102
{ACAD_REACTORS
330
E
102
}
330
E
100
AcDbMaterial
  1
Global
  2

 70
0
 40
1.0
 71
1
 41
1.0
 91
-1023410177
 42
1.0
 72
1
  3

 73
1
 74
1
 75
1
 44
0.5
 73
0
 45
1.0
 46
1.0
 77
1
  4

 78
1
 79
1
170
1
 48
1.0
171
1
  6

172
1
173
1
174
1
140
1.0
141
1.0
175
1
  7

176
1
177
1
178
1
143
1.0
179
1
  8

270
1
271
1
272
1
145
1.0
146
1.0
273
1
  9

274
1
275
1
276
1
 42
1.0
 72
1
  3

 73
1
 74
1
 75
1
 94
63
  0
MLINESTYLE
  5
22
102
{ACAD_REACTORS
330
10
102
}
330
10
100
AcDbMlineStyle
  2
Standard
 70
0
  3

 62
256
 51
90.0
 52
90.0
 71
2
 49
0.5
 62
256
  6
BYLAYER
 49
-0.5
 62
256
  6
BYLAYER
  0
MLEADERSTYLE
  5
2C
102
{ACAD_REACTORS
330
F
102
}
330
F
100
AcDbMLeaderStyle
179
2
170
2
171
1
172
0
 90
2
 40
0.0
 41
0.0
173
1
 91
-1056964608
 92
-2
290
1
 42
2.0
291
1
 43
8.0
  3
Standard
 44
4.0
300

342
29
174
1
175
1
176
0
178
1
 93
-1056964608
 45
4.0
292
0
297
0
 46
4.0
 94
-1056964608
 47
1.0
 49
1.0
140
1.0
294
1
141
0.0
177
0
142
1.0
295
0
296
0
143
3.75
271
0
272
9
273
9
  0
DICTIONARY
  5
2D
330
A
100
AcDbDictionary
280
1
281
1
  3
CREATED_BY_EZDXF
350
2E
  3
WRITTEN_BY_EZDXF
350
76
  0
DICTIONARYVAR
  5
2E
330
2D
100
DictionaryVariables
280
0
  1
1.4.3 @ 2026-05-08T09:04:43.721698+00:00
  0
DICTIONARYVAR
  5
76
330
2D
100
DictionaryVariables
280
0
  1
1.4.3 @ 2026-05-08T09:04:43.748509+00:00
  0
ENDSEC
  0
EOF
