  0
SECTION
  2
HEADER
  9
$ACADVER
  1
AC1024
  9
$ACADMAINTVER
 70
6
  9
$DWGCODEPAGE
  3
ANSI_1252
  9
$LASTSAVEDBY
  1
ezdxf
  9
$INSBASE
 10
0.0
 20
0.0
 30
0.0
  9
$EXTMIN
 10
1e+20
 20
1e+20
 30
1e+20
  9
$EXTMAX
 10
-1e+20
 20
-1e+20
 30
-1e+20
  9
$LIMMIN
 10
0.0
 20
0.0
  9
$LIMMAX
 10
420.0
 20
297.0
  9
$ORTHOMODE
 70
0
  9
$REGENMODE
 70
1
  9
$FILLMODE
 70
1
  9
$QTEXTMODE
 70
0
  9
$MIRRTEXT
 70
1
  9
$LTSCALE
 40
1.0
  9
$ATTMODE
 70
1
  9
$TEXTSIZE
 40
2.5
  9
$TRACEWID
 40
1.0
  9
$TEXTSTYLE
  7
Standard
  9
$CLAYER
  8
0
  9
$CELTYPE
  6
ByLayer
  9
$CECOLOR
 62
256
  9
$CELTSCALE
 40
1.0
  9
$DISPSILH
 70
0
  9
$DIMSCALE
 40
1.0
  9
$DIMASZ
 40
2.5
  9
$DIMEXO
 40
0.625
  9
$DIMDLI
 40
3.75
  9
$DIMRND
 40
0.0
  9
$DIMDLE
 40
0.0
  9
$DIMEXE
 40
1.25
  9
$DIMTP
 40
0.0
  9
$DIMTM
 40
0.0
  9
$DIMTXT
 40
2.5
  9
$DIMCEN
 40
2.5
  9
$DIMTSZ
 40
0.0
  9
$DIMTOL
 70
0
  9
$DIMLIM
 70
0
  9
$DIMTIH
 70
0
  9
$DIMTOH
 70
0
  9
$DIMSE1
 70
0
  9
$DIMSE2
 70
0
  9
$DIMTAD
 70
1
  9
$DIMZIN
 70
8
  9
$DIMBLK
  1

  9
$DIMASO
 70
1
  9
$DIMSHO
 70
1
  9
$DIMPOST
  1

  9
$DIMAPOST
  1

  9
$DIMALT
 70
0
  9
$DIMALTD
 70
3
  9
$DIMALTF
 40
0.03937007874
  9
$DIMLFAC
 40
1.0
  9
$DIMTOFL
 70
1
  9
$DIMTVP
 40
0.0
  9
$DIMTIX
 70
0
  9
$DIMSOXD
 70
0
  9
$DIMSAH
 70
0
  9
$DIMBLK1
  1

  9
$DIMBLK2
  1

  9
$DIMSTYLE
  2
ISO-25
  9
$DIMCLRD
 70
0
  9
$DIMCLRE
 70
0
  9
$DIMCLRT
 70
0
  9
$DIMTFAC
 40
1.0
  9
$DIMGAP
 40
0.625
  9
$DIMJUST
 70
0
  9
$DIMSD1
 70
0
  9
$DIMSD2
 70
0
  9
$DIMTOLJ
 70
0
  9
$DIMTZIN
 70
8
  9
$DIMALTZ
 70
0
  9
$DIMALTTZ
 70
0
  9
$DIMUPT
 70
0
  9
$DIMDEC
 70
2
  9
$DIMTDEC
 70
2
  9
$DIMALTU
 70
2
  9
$DIMALTTD
 70
3
  9
$DIMTXSTY
  7
Standard
  9
$DIMAUNIT
 70
0
  9
$DIMADEC
 70
0
  9
$DIMALTRND
 40
0.0
  9
$DIMAZIN
 70
0
  9
$DIMDSEP
 70
44
  9
$DIMATFIT
 70
3
  9
$DIMFRAC
 70
0
  9
$DIMLDRBLK
  1

  9
$DIMLUNIT
 70
2
  9
$DIMLWD
 70
-2
  9
$DIMLWE
 70
-2
  9
$DIMTMOVE
 70
0
  9
$DIMFXL
 40
1.0
  9
$DIMFXLON
 70
0
  9
$DIMJOGANG
 40
0.785398163397
  9
$DIMTFILL
 70
0
  9
$DIMTFILLCLR
 70
0
  9
$DIMARCSYM
 70
0
  9
$DIMLTYPE
  6

  9
$DIMLTEX1
  6

  9
$DIMLTEX2
  6

  9
$DIMTXTDIRECTION
 70
0
  9
$LUNITS
 70
2
  9
$LUPREC
 70
4
  9
$SKETCHINC
 40
1.0
  9
$FILLETRAD
 40
10.0
  9
$AUNITS
 70
0
  9
$AUPREC
 70
2
  9
$MENU
  1
.
  9
$ELEVATION
 40
0.0
  9
$PELEVATION
 40
0.0
  9
$THICKNESS
 40
0.0
  9
$LIMCHECK
 70
0
  9
$CHAMFERA
 40
0.0
  9
$CHAMFERB
 40
0.0
  9
$CHAMFERC
 40
0.0
  9
$CHAMFERD
 40
0.0
  9
$SKPOLY
 70
0
  9
$TDCREATE
 40
2461169.128275463
  9
$TDUCREATE
 40
2458532.153996898
  9
$TDUPDATE
 40
2461169.128275463
  9
$TDUUPDATE
 40
2458532.1544311
  9
$TDINDWG
 40
0.0
  9
$TDUSRTIMER
 40
0.0
  9
$USRTIMER
 70
1
  9
$ANGBASE
 50
0.0
  9
$ANGDIR
 70
0
  9
$PDMODE
 70
0
  9
$PDSIZE
 40
0.0
  9
$PLINEWID
 40
0.0
  9
$SPLFRAME
 70
0
  9
$SPLINETYPE
 70
6
  9
$SPLINESEGS
 70
8
  9
$HANDSEED
  5
6F
  9
$SURFTAB1
 70
6
  9
$SURFTAB2
 70
6
  9
$SURFTYPE
 70
6
  9
$SURFU
 70
6
  9
$SURFV
 70
6
  9
$UCSBASE
  2

  9
$UCSNAME
  2

  9
$UCSORG
 10
0.0
 20
0.0
 30
0.0
  9
$UCSXDIR
 10
1.0
 20
0.0
 30
0.0
  9
$UCSYDIR
 10
0.0
 20
1.0
 30
0.0
  9
$UCSORTHOREF
  2

  9
$UCSORTHOVIEW
 70
0
  9
$UCSORGTOP
 10
0.0
 20
0.0
 30
0.0
  9
$UCSORGBOTTOM
 10
0.0
 20
0.0
 30
0.0
  9
$UCSORGLEFT
 10
0.0
 20
0.0
 30
0.0
  9
$UCSORGRIGHT
 10
0.0
 20
0.0
 30
0.0
  9
$UCSORGFRONT
 10
0.0
 20
0.0
 30
0.0
  9
$UCSORGBACK
 10
0.0
 20
0.0
 30
0.0
  9
$PUCSBASE
  2

  9
$PUCSNAME
  2

  9
$PUCSORG
 10
0.0
 20
0.0
 30
0.0
  9
$PUCSXDIR
 10
1.0
 20
0.0
 30
0.0
  9
$PUCSYDIR
 10
0.0
 20
1.0
 30
0.0
  9
$PUCSORTHOREF
  2

  9
$PUCSORTHOVIEW
 70
0
  9
$PUCSORGTOP
 10
0.0
 20
0.0
 30
0.0
  9
$PUCSORGBOTTOM
 10
0.0
 20
0.0
 30
0.0
  9
$PUCSORGLEFT
 10
0.0
 20
0.0
 30
0.0
  9
$PUCSORGRIGHT
 10
0.0
 20
0.0
 30
0.0
  9
$PUCSORGFRONT
 10
0.0
 20
0.0
 30
0.0
  9
$PUCSORGBACK
 10
0.0
 20
0.0
 30
0.0
  9
$USERI1
 70
0
  9
$USERI2
 70
0
  9
$USERI3
 70
0
  9
$USERI4
 70
0
  9
$USERI5
 70
0
  9
$USERR1
 40
0.0
  9
$USERR2
 40
0.0
  9
$USERR3
 40
0.0
  9
$USERR4
 40
0.0
  9
$USERR5
 40
0.0
  9
$WORLDVIEW
 70
1
  9
$SHADEDGE
 70
3
  9
$SHADEDIF
 70
70
  9
$TILEMODE
 70
1
  9
$MAXACTVP
 70
64
  9
$PINSBASE
 10
0.0
 20
0.0
 30
0.0
  9
$PLIMCHECK
 70
0
  9
$PEXTMIN
 10
1e+20
 20
1e+20
 30
1e+20
  9
$PEXTMAX
 10
-1e+20
 20
-1e+20
 30
-1e+20
  9
$PLIMMIN
 10
0.0
 20
0.0
  9
$PLIMMAX
 10
420.0
 20
297.0
  9
$UNITMODE
 70
0
  9
$VISRETAIN
 70
1
  9
$PLINEGEN
 70
0
  9
$PSLTSCALE
 70
1
  9
$TREEDEPTH
 70
3020
  9
$CMLSTYLE
  2
Standard
  9
$CMLJUST
 70
0
  9
$CMLSCALE
 40
20.0
  9
$PROXYGRAPHICS
 70
1
  9
$MEASUREMENT
 70
1
  9
$CELWEIGHT
370
-1
  9
$ENDCAPS
280
0
  9
$JOINSTYLE
280
0
  9
$LWDISPLAY
290
0
  9
$INSUNITS
 70
1
  9
$HYPERLINKBASE
  1

  9
$STYLESHEET
  1

  9
$XEDIT
290
1
  9
$CEPSNTYPE
380
0
  9
$PSTYLEMODE
290
1
  9
$FINGERPRINTGUID
  2
{8FCB6D81-7B88-4471-A048-FB93A870A3C1}
  9
$VERSIONGUID
  2
{D30FC6C3-D13E-4350-8962-70C4ECF872C8}
  9
$EXTNAMES
290
1
  9
$PSVPSCALE
 40
0.0
  9
$OLESTARTUP
290
0
  9
$SORTENTS
280
127
  9
$INDEXCTL
280
0
  9
$HIDETEXT
280
1
  9
$XCLIPFRAME
280
1
  9
$HALOGAP
280
0
  9
$OBSCOLOR
 70
257
  9
$OBSLTYPE
280
0
  9
$INTERSECTIONDISPLAY
280
0
  9
$INTERSECTIONCOLOR
 70
257
  9
$DIMASSOC
280
2
  9
$PROJECTNAME
  1

  9
$CAMERADISPLAY
290
0
  9
$LENSLENGTH
 40
50.0
  9
$CAMERAHEIGHT
 40
0.0
  9
$STEPSPERSEC
 40
24.0
  9
$STEPSIZE
 40
100.0
  9
$3DDWFPREC
 40
2.0
  9
$PSOLWIDTH
 40
0.005
  9
$PSOLHEIGHT
 40
0.08
  9
$LOFTANG1
 40
1.570796326795
  9
$LOFTANG2
 40
1.570796326795
  9
$LOFTMAG1
 40
0.0
  9
$LOFTMAG2
 40
0.0
  9
$LOFTPARAM
 70
7
  9
$LOFTNORMALS
280
1
  9
$LATITUDE
 40
37.795
  9
$LONGITUDE
 40
-122.394
  9
$NORTHDIRECTION
 40
0.0
  9
$TIMEZONE
 70
-8000
  9
$LIGHTGLYPHDISPLAY
280
1
  9
$TILEMODELIGHTSYNCH
280
1
  9
$CMATERIAL
347
20
  9
$SOLIDHIST
280
0
  9
$SHOWHIST
280
1
  9
$DWFFRAME
280
2
  9
$DGNFRAME
280
2
  9
$REALWORLDSCALE
290
1
  9
$INTERFERECOLOR
 62
256
  9
$CSHADOW
280
0
  9
$SHADOWPLANELOCATION
 40
0.0
  0
ENDSEC
  0
SECTION
  2
CLASSES
  0
CLASS
  1
ACDBDICTIONARYWDFLT
  2
AcDbDictionaryWithDefault
  3
ObjectDBX Classes
 90
0
 91
0
280
0
281
0
  0
CLASS
  1
SUN
  2
AcDbSun
  3
SCENEOE
 90
1153
 91
0
280
0
281
0
  0
CLASS
  1
VISUALSTYLE
  2
AcDbVisualStyle
  3
ObjectDBX Classes
 90
4095
 91
0
280
0
281
0
  0
CLASS
  1
MATERIAL
  2
AcDbMaterial
  3
ObjectDBX Classes
 90
1153
 91
0
280
0
281
0
  0
CLASS
  1
SCALE
  2
AcDbScale
  3
ObjectDBX Classes
 90
1153
 91
0
280
0
281
0
  0
CLASS
  1
TABLESTYLE
  2
AcDbTableStyle
  3
ObjectDBX Classes
 90
4095
 91
0
280
0
281
0
  0
CLASS
  1
MLEADERSTYLE
  2
AcDbMLeaderStyle
  3
ACDB_MLEADERSTYLE_CLASS
 90
4095
 91
0
280
0
281
0
  0
CLASS
  1
DICTIONARYVAR
  2
AcDbDictionaryVar
  3
ObjectDBX Classes
 90
0
 91
0
280
0
281
0
  0
CLASS
  1
CELLSTYLEMAP
  2
AcDbCellStyleMap
  3
ObjectDBX Classes
 90
1152
 91
0
280
0
281
0
  0
CLASS
  1
MENTALRAYRENDERSETTINGS
  2
AcDbMentalRayRenderSettings
  3
SCENEOE
 90
1024
 91
0
280
0
281
0
  0
CLASS
  1
ACDBDETAILVIEWSTYLE
  2
AcDbDetailViewStyle
  3
ObjectDBX Classes
 90
1025
 91
0
280
0
281
0
  0
CLASS
  1
ACDBSECTIONVIEWSTYLE
  2
AcDbSectionViewStyle
  3
ObjectDBX Classes
 90
1025
 91
0
280
0
281
0
  0
CLASS
  1
RASTERVARIABLES
  2
AcDbRasterVariables
  3
ISM
 90
0
 91
0
280
0
281
0
  0
CLASS
  1
ACDBPLACEHOLDER
  2
AcDbPlaceHolder
  3
ObjectDBX Classes
 90
0
 91
0
280
0
281
0
  0
CLASS
  1
LAYOUT
  2
AcDbLayout
  3
ObjectDBX Classes
 90
0
 91
0
280
0
281
0
  0
ENDSEC
  0
SECTION
  2
TABLES
  0
TABLE
  2
VPORT
  5
8
330
0
100
AcDbSymbolTable
 70
1
  0
VPORT
  5
23
330
8
100
AcDbSymbolTableRecord
100
AcDbViewportTableRecord
  2
*Active
 70
0
 10
0.0
 20
0.0
 11
1.0
 21
1.0
 12
0.0
 22
0.0
 13
0.0
 23
0.0
 14
0.5
 24
0.5
 15
0.5
 25
0.5
 16
0.0
 26
0.0
 36
1.0
 17
0.0
 27
0.0
 37
0.0
 40
1000.0
 41
1.34
 42
50.0
 43
0.0
 44
0.0
 50
0.0
 51
0.0
 71
0
 72
1000
 73
1
 74
3
 75
0
 76
0
 77
0
 78
0
281
0
 65
0
146
0.0
  0
ENDTAB
  0
TABLE
  2
LTYPE
  5
2
330
0
100
AcDbSymbolTable
 70
3
  0
LTYPE
  5
24
330
2
100
AcDbSymbolTableRecord
100
AcDbLinetypeTableRecord
  2
ByBlock
 70
0
  3

 72
65
 73
0
 40
0.0
  0
LTYPE
  5
25
330
2
100
AcDbSymbolTableRecord
100
AcDbLinetypeTableRecord
  2
ByLayer
 70
0
  3

 72
65
 73
0
 40
0.0
  0
LTYPE
  5
26
330
2
100
AcDbSymbolTableRecord
100
AcDbLinetypeTableRecord
  2
Continuous
 70
0
  3

 72
65
 73
0
 40
0.0
  0
ENDTAB
  0
TABLE
  2
LAYER
  5
1
330
0
100
AcDbSymbolTable
 70
2
  0
LAYER
  5
27
330
1
100
AcDbSymbolTableRecord
100
AcDbLayerTableRecord
  2
0
 70
0
 62
7
  6
Continuous
370
-3
390
13
347
21
  0
LAYER
  5
28
330
1
100
AcDbSymbolTableRecord
100
AcDbLayerTableRecord
  2
Defpoints
 70
0
 62
7
  6
Continuous
290
0
370
-3
390
13
347
21
  0
ENDTAB
  0
TABLE
  2
STYLE
  5
5
330
0
100
AcDbSymbolTable
 70
1
  0
STYLE
  5
29
330
5
100
AcDbSymbolTableRecord
100
AcDbTextStyleTableRecord
  2
Standard
 70
0
 40
0.0
 41
1.0
 50
0.0
 71
0
 42
2.5
  3
txt
  4

  0
ENDTAB
  0
TABLE
  2
VIEW
  5
7
330
0
100
AcDbSymbolTable
 70
0
  0
ENDTAB
  0
TABLE
  2
UCS
  5
6
330
0
100
AcDbSymbolTable
 70
0
  0
ENDTAB
  0
TABLE
  2
APPID
  5
3
330
0
100
AcDbSymbolTable
 70
3
  0
APPID
  5
2A
330
3
100
AcDbSymbolTableRecord
100
AcDbRegAppTableRecord
  2
ACAD
 70
0
  0
APPID
  5
6C
330
3
100
AcDbSymbolTableRecord
100
AcDbRegAppTableRecord
  2
HATCHBACKGROUNDCOLOR
 70
0
  0
APPID
  5
6D
330
3
100
AcDbSymbolTableRecord
100
AcDbRegAppTableRecord
  2
EZDXF
 70
0
  0
ENDTAB
  0
TABLE
  2
DIMSTYLE
  5
4
330
0
100
AcDbSymbolTable
 70
1
100
AcDbDimStyleTable
  0
DIMSTYLE
105
2B
330
4
100
AcDbSymbolTableRecord
100
AcDbDimStyleTableRecord
  2
Standard
 70
0
 40
1.0
 41
2.5
 42
0.625
 43
3.75
 44
1.25
 45
0.0
 46
0.0
 47
0.0
 48
0.0
 49
2.5
140
2.5
141
2.5
142
0.0
143
0.03937007874
144
1.0
145
0.0
146
1.0
147
0.625
148
0.0
 69
0
 70
0
 71
0
 72
0
 73
0
 74
0
 75
0
 76
0
 77
1
 78
8
 79
3
170
0
171
3
172
1
173
0
174
0
175
0
176
0
177
0
178
0
179
2
271
2
272
2
273
2
274
3
275
0
276
0
277
2
278
44
279
0
280
0
281
0
282
0
283
0
284
8
285
0
286
0
288
0
289
3
290
0
371
-2
372
-2
  0
ENDTAB
  0
TABLE
  2
BLOCK_RECORD
  5
9
330
0
100
AcDbSymbolTable
 70
2
  0
BLOCK_RECORD
  5
17
330
9
100
AcDbSymbolTableRecord
100
AcDbBlockTableRecord
  2
*Model_Space
340
1A
 70
0
280
1
281
0
  0
BLOCK_RECORD
  5
1B
330
9
100
AcDbSymbolTableRecord
100
AcDbBlockTableRecord
  2
*Paper_Space
340
1E
 70
0
280
1
281
0
  0
ENDTAB
  0
ENDSEC
  0
SECTION
  2
BLOCKS
  0
BLOCK
  5
18
330
17
100
AcDbEntity
  8
0
100
AcDbBlockBegin
  2
*Model_Space
 70
0
 10
0.0
 20
0.0
 30
0.0
  3
*Model_Space
  1

  0
ENDBLK
  5
19
330
17
100
AcDbEntity
  8
0
100
AcDbBlockEnd
  0
BLOCK
  5
1C
330
1B
100
AcDbEntity
  8
0
100
AcDbBlockBegin
  2
*Paper_Space
 70
0
 10
0.0
 20
0.0
 30
0.0
  3
*Paper_Space
  1

  0
ENDBLK
  5
1D
330
1B
100
AcDbEntity
  8
0
100
AcDbBlockEnd
  0
ENDSEC
  0
SECTION
  2
ENTITIES
  0
LWPOLYLINE
  5
2F
330
17
100
AcDbEntity
  8
PLYWOOD_BOUNDARY
 62
7
100
AcDbPolyline
 90
5
 70
0
 10
0.0
 20
0.0
 10
96.0
 20
0.0
 10
96.0
 20
48.0
 10
0.0
 20
48.0
 10
0.0
 20
0.0
  0
LWPOLYLINE
  5
30
330
17
100
AcDbEntity
  8
SHELF_B
 62
3
100
AcDbPolyline
 90
96
 70
1
 10
0.0
 20
48.0
 10
0.0
 20
0.0
 10
20.042328754600646
 20
0.0
 10
20.042328754600646
 20
6.108506834976353
 10
20.042328754600646
 20
6.108506834976353
 10
19.936774718687296
 20
6.17469773268526
 10
19.834060045612574
 20
6.245214293663949
 10
19.734361894100232
 20
6.319934893381365
 10
19.63785222008171
 20
6.39873065632549
 10
19.5446974801125
 20
6.4814656782834135
 10
19.45505834427361
 20
6.567997260744185
 10
19.369089419053363
 20
6.658176157020328
 10
19.286938980687445
 20
6.751846829663343
 10
19.208748719417184
 20
6.84884771872936
 10
19.134653495107113
 20
6.949011520432109
 10
19.064781104643316
 20
7.052165475702779
 10
18.999252061513783
 20
7.158131668158845
 10
18.938179387950893
 20
7.266727330968131
 10
18.88166841999457
 20
7.377765162078738
 10
18.82981662581232
 20
7.491053647271144
 10
18.782713437589507
 20
7.606397390475337
 10
18.74044009727978
 20
7.7235974507831955
 10
18.70306951648179
 20
7.842451685574929
 10
18.67066615068374
 20
7.962755099167673
 10
18.67066615068374
 20
7.962755099167673
 10
18.522743985722858
 20
8.581287962905463
 10
18.387309019259924
 20
9.199820826643254
 10
18.267904848985054
 20
9.818353690381045
 10
18.167655633695837
 20
10.436886554118836
 10
18.089184351025093
 20
11.055419417856626
 10
18.03454416835843
 20
11.673952281594424
 10
18.005164722592006
 20
12.292485145332215
 10
18.00181471429757
 20
12.911018009070006
 10
18.02458179500237
 20
13.529550872807796
 10
18.07287027382463
 20
14.148083736545587
 10
18.14541670346944
 20
14.766616600283378
 10
18.240322937784228
 20
15.385149464021168
 10
18.355105795937053
 20
16.00368232775896
 10
18.486762033775847
 20
16.62221519149675
 10
18.63184692242092
 20
17.240748055234544
 10
18.786564378115617
 20
17.859280918972335
 10
18.946866285126326
 20
18.477813782710125
 10
19.10855841295084
 20
19.09634664644792
 10
19.267410156556846
 20
19.71487951018571
 10
19.41926522834437
 20
20.3334123739235
 10
19.560150405624533
 20
20.951945237661292
 10
19.686379488283585
 20
21.570478101399083
 10
19.79464974662463
 20
22.189010965136873
 10
19.88212833587067
 20
22.807543828874664
 10
19.946526416330745
 20
23.426076692612455
 10
19.98615903990668
 20
24.04460955635025
 10
19.99998923603597
 20
24.66314242008804
 10
19.98765514358085
 20
25.28167528382583
 10
19.94947947876944
 20
25.90020814756362
 10
19.886461091464362
 20
26.518741011301415
 10
19.800248830685334
 20
27.137273875039206
 10
19.693098403183246
 20
27.755806738776997
 10
19.567813353842457
 20
28.374339602514787
 10
19.427671712133826
 20
28.992872466252578
 10
19.27634022388243
 20
29.611405329990372
 10
19.117778412438952
 20
30.229938193728163
 10
18.956134979452944
 20
30.848471057465954
 10
18.795639255877195
 20
31.467003921203744
 10
18.640490543341034
 20
32.08553678494154
 10
18.494748241227988
 20
32.70406964867933
 10
18.362225634235557
 20
33.32260251241712
 10
18.24639011941999
 20
33.94113537615491
 10
18.150272483242514
 20
34.5596682398927
 10
18.076387602344177
 20
35.17820110363049
 10
18.02666864287936
 20
35.79673396736828
 10
18.002416480054187
 20
36.41526683110608
 10
18.00426566128586
 20
37.033799694843864
 10
18.032167803542194
 20
37.65233255858166
 10
18.085392859262864
 20
38.270865422319446
 10
18.085392859262864
 20
38.270865422319446
 10
18.100770303750465
 20
38.39237958610974
 10
18.121095049792064
 20
38.513164777664684
 10
18.146333217937954
 20
38.633019659372785
 10
18.176442738523566
 20
38.75174444436196
 10
18.21137342179566
 20
38.86914122952564
 10
18.251067041573958
 20
38.98501432540867
 10
18.295457432308726
 20
39.09917058240335
 10
18.344470599372563
 20
39.21141971271176
 10
18.398024842402513
 20
39.321574607537684
 10
18.456030891486925
 20
39.4294516489795
 10
18.51839205597005
 20
39.534871016104006
 10
18.585004385626313
 20
39.6376569846911
 10
18.6557568439356
 20
39.73763822014963
 10
18.730531493170766
 20
39.8346480631161
 10
18.809203690988777
 20
39.928524807260246
 10
18.891642298197834
 20
40.01911196883435
 10
18.97770989735413
 20
40.10625854751701
 10
19.06726302182389
 20
40.18981927811653
 10
19.160152394928794
 20
40.269654872714426
 10
19.160152394928794
 20
48.0
 10
0.0
 20
48.0
  0
LWPOLYLINE
  5
31
330
17
100
AcDbEntity
  8
BRACKET_OUTLINE
 62
6
100
AcDbPolyline
 90
87
 70
1
 10
0.0
 20
43.4
 10
0.04424792785768972
 20
43.36262013756228
 10
0.08387586505926237
 20
43.320373719622886
 10
0.11835198356807552
 20
43.27382771562546
 10
0.14721359549995583
 20
43.22360679774998
 10
0.17007336264121165
 20
43.170384957479186
 10
0.1866244947338629
 20
43.11487646027368
 10
0.19664486676443715
 20
43.057826259748786
 10
0.20000000000000284
 20
43.0
 10
0.20000000000000284
 20
41.82
 10
9.846446609406726
 20
41.82
 10
9.864624983662452
 20
41.83647591804405
 10
9.884330746448462
 20
41.851090707779
 10
9.905374120496866
 20
41.86370362079045
 10
9.92755244661209
 20
41.87419318783119
 10
9.950652135389745
 20
41.882458388636415
 10
9.974450724199329
 20
41.88841962480417
 10
9.998719019620971
 20
41.89201948637141
 10
10.023223304703365
 20
41.89322330470336
 10
10.047727589785751
 20
41.89201948637141
 10
10.071995885207393
 20
41.88841962480417
 10
10.095794474016976
 20
41.882458388636415
 10
10.118894162794632
 20
41.87419318783119
 10
10.141072488909863
 20
41.86370362079045
 10
10.16211586295826
 20
41.851090707779
 10
10.181821625744277
 20
41.83647591804405
 10
10.200000000000003
 20
41.82
 10
10.216475918044047
 20
41.801821625744275
 10
10.231090707779003
 20
41.782115862958264
 10
10.243703620790455
 20
41.76107248890986
 10
10.254193187831184
 20
41.73889416279464
 10
10.262458388636418
 20
41.71579447401698
 10
10.268419624804167
 20
41.6919958852074
 10
10.272019486371413
 20
41.667727589785756
 10
10.273223304703365
 20
41.64322330470336
 10
10.272019486371413
 20
41.618719019620976
 10
10.268419624804167
 20
41.59445072419933
 10
10.262458388636418
 20
41.57065213538975
 10
10.254193187831184
 20
41.547552446612094
 10
10.243703620790455
 20
41.52537412049686
 10
10.231090707779003
 20
41.50433074644847
 10
10.216475918044047
 20
41.48462498366246
 10
10.200000000000003
 20
41.46644660940673
 10
10.200000000000003
 20
40.558553390593275
 10
10.216475918044047
 20
40.54037501633755
 10
10.231090707779003
 20
40.52066925355154
 10
10.243703620790455
 20
40.499625879503135
 10
10.254193187831184
 20
40.47744755338791
 10
10.262458388636418
 20
40.454347864610256
 10
10.268419624804167
 20
40.43054927580067
 10
10.272019486371413
 20
40.40628098037903
 10
10.273223304703365
 20
40.38177669529664
 10
10.272019486371413
 20
40.35727241021425
 10
10.268419624804167
 20
40.33300411479261
 10
10.262458388636418
 20
40.309205525983025
 10
10.254193187831184
 20
40.28610583720537
 10
10.243703620790455
 20
40.26392751109014
 10
10.231090707779003
 20
40.24288413704174
 10
10.216475918044047
 20
40.223178374255724
 10
10.200000000000003
 20
40.205
 10
10.181821625744277
 20
40.188524081955954
 10
10.16211586295826
 20
40.173909292221005
 10
10.141072488909863
 20
40.16129637920955
 10
10.118894162794632
 20
40.15080681216882
 10
10.095794474016976
 20
40.14254161136358
 10
10.071995885207393
 20
40.136580375195834
 10
10.047727589785751
 20
40.13298051362859
 10
10.023223304703365
 20
40.13177669529664
 10
9.998719019620971
 20
40.13298051362859
 10
9.974450724199329
 20
40.136580375195834
 10
9.950652135389745
 20
40.14254161136358
 10
9.92755244661209
 20
40.15080681216882
 10
9.905374120496866
 20
40.16129637920955
 10
9.884330746448462
 20
40.173909292221005
 10
9.864624983662452
 20
40.188524081955954
 10
9.846446609406726
 20
40.205
 10
0.20000000000000284
 20
40.205
 10
0.20000000000000284
 20
39.025
 10
0.19664486676443715
 20
38.96717374025122
 10
0.1866244947338629
 20
38.91012353972632
 10
0.17007336264121165
 20
38.85461504252081
 10
0.14721359549995583
 20
38.801393202250026
 10
0.11835198356807552
 20
38.75117228437455
 10
0.08387586505926237
 20
38.70462628037711
 10
0.04424792785768972
 20
38.66237986243772
 10
0.0
 20
38.625
 10
0.0
 20
43.4
  0
LWPOLYLINE
  5
32
330
17
100
AcDbEntity
  8
BRACKET_OUTLINE
 62
6
100
AcDbPolyline
 90
87
 70
1
 10
0.0
 20
27.775
 10
0.04424792785768972
 20
27.73762013756228
 10
0.08387586505926237
 20
27.695373719622882
 10
0.11835198356807552
 20
27.64882771562546
 10
0.14721359549995583
 20
27.59860679774998
 10
0.17007336264121165
 20
27.545384957479186
 10
0.1866244947338629
 20
27.48987646027368
 10
0.19664486676443715
 20
27.432826259748783
 10
0.20000000000000284
 20
27.375
 10
0.20000000000000284
 20
26.195
 10
9.846446609406726
 20
26.195
 10
9.864624983662452
 20
26.211475918044048
 10
9.884330746448462
 20
26.226090707779
 10
9.905374120496866
 20
26.238703620790453
 10
9.92755244661209
 20
26.249193187831185
 10
9.950652135389745
 20
26.257458388636415
 10
9.974450724199329
 20
26.263419624804172
 10
9.998719019620971
 20
26.267019486371414
 10
10.023223304703365
 20
26.268223304703362
 10
10.047727589785751
 20
26.267019486371414
 10
10.071995885207393
 20
26.263419624804172
 10
10.095794474016976
 20
26.257458388636415
 10
10.118894162794632
 20
26.249193187831185
 10
10.141072488909863
 20
26.238703620790453
 10
10.16211586295826
 20
26.226090707779
 10
10.181821625744277
 20
26.211475918044048
 10
10.200000000000003
 20
26.195
 10
10.216475918044047
 20
26.176821625744275
 10
10.231090707779003
 20
26.157115862958264
 10
10.243703620790455
 20
26.136072488909864
 10
10.254193187831184
 20
26.113894162794637
 10
10.262458388636418
 20
26.090794474016977
 10
10.268419624804167
 20
26.066995885207394
 10
10.272019486371413
 20
26.042727589785752
 10
10.273223304703365
 20
26.018223304703362
 10
10.272019486371413
 20
25.993719019620972
 10
10.268419624804167
 20
25.96945072419933
 10
10.262458388636418
 20
25.945652135389746
 10
10.254193187831184
 20
25.92255244661209
 10
10.243703620790455
 20
25.900374120496863
 10
10.231090707779003
 20
25.879330746448463
 10
10.216475918044047
 20
25.859624983662453
 10
10.200000000000003
 20
25.841446609406727
 10
10.200000000000003
 20
24.933553390593275
 10
10.216475918044047
 20
24.91537501633755
 10
10.231090707779003
 20
24.89566925355154
 10
10.243703620790455
 20
24.87462587950314
 10
10.254193187831184
 20
24.85244755338791
 10
10.262458388636418
 20
24.829347864610252
 10
10.268419624804167
 20
24.80554927580067
 10
10.272019486371413
 20
24.781280980379027
 10
10.273223304703365
 20
24.756776695296637
 10
10.272019486371413
 20
24.732272410214247
 10
10.268419624804167
 20
24.708004114792605
 10
10.262458388636418
 20
24.68420552598302
 10
10.254193187831184
 20
24.661105837205366
 10
10.243703620790455
 20
24.638927511090138
 10
10.231090707779003
 20
24.617884137041738
 10
10.216475918044047
 20
24.598178374255728
 10
10.200000000000003
 20
24.580000000000002
 10
10.181821625744277
 20
24.563524081955954
 10
10.16211586295826
 20
24.548909292221
 10
10.141072488909863
 20
24.53629637920955
 10
10.118894162794632
 20
24.525806812168817
 10
10.095794474016976
 20
24.517541611363587
 10
10.071995885207393
 20
24.51158037519583
 10
10.047727589785751
 20
24.50798051362859
 10
10.023223304703365
 20
24.506776695296637
 10
9.998719019620971
 20
24.50798051362859
 10
9.974450724199329
 20
24.51158037519583
 10
9.950652135389745
 20
24.517541611363587
 10
9.92755244661209
 20
24.525806812168817
 10
9.905374120496866
 20
24.53629637920955
 10
9.884330746448462
 20
24.548909292221
 10
9.864624983662452
 20
24.563524081955954
 10
9.846446609406726
 20
24.580000000000002
 10
0.20000000000000284
 20
24.58
 10
0.20000000000000284
 20
23.4
 10
0.19664486676443715
 20
23.342173740251216
 10
0.1866244947338629
 20
23.285123539726317
 10
0.17007336264121165
 20
23.229615042520813
 10
0.14721359549995583
 20
23.17639320225002
 10
0.11835198356807552
 20
23.12617228437454
 10
0.08387586505926237
 20
23.079626280377116
 10
0.04424792785768972
 20
23.037379862437717
 10
0.0
 20
23.0
 10
0.0
 20
27.775
  0
LWPOLYLINE
  5
33
330
17
100
AcDbEntity
  8
BRACKET_OUTLINE
 62
6
100
AcDbPolyline
 90
87
 70
1
 10
0.0
 20
11.525000000000006
 10
0.04424792785768972
 20
11.487620137562281
 10
0.08387586505926237
 20
11.445373719622886
 10
0.11835198356807552
 20
11.398827715625458
 10
0.14721359549995583
 20
11.34860679774998
 10
0.17007336264121165
 20
11.295384957479186
 10
0.1866244947338629
 20
11.239876460273685
 10
0.19664486676443715
 20
11.182826259748786
 10
0.20000000000000284
 20
11.125
 10
0.20000000000000284
 20
9.945
 10
9.846446609406726
 20
9.945000000000007
 10
9.864624983662452
 20
9.961475918044052
 10
9.884330746448462
 20
9.976090707779
 10
9.905374120496866
 20
9.988703620790453
 10
9.92755244661209
 20
9.999193187831189
 10
9.950652135389745
 20
10.007458388636422
 10
9.974450724199329
 20
10.013419624804172
 10
9.998719019620971
 20
10.017019486371417
 10
10.023223304703365
 20
10.018223304703369
 10
10.047727589785751
 20
10.017019486371417
 10
10.071995885207393
 20
10.013419624804172
 10
10.095794474016976
 20
10.007458388636422
 10
10.118894162794632
 20
9.999193187831189
 10
10.141072488909863
 20
9.988703620790453
 10
10.16211586295826
 20
9.976090707779
 10
10.181821625744277
 20
9.961475918044052
 10
10.200000000000003
 20
9.945000000000007
 10
10.216475918044047
 20
9.926821625744282
 10
10.231090707779003
 20
9.907115862958271
 10
10.243703620790455
 20
9.886072488909868
 10
10.254193187831184
 20
9.863894162794637
 10
10.262458388636418
 20
9.840794474016981
 10
10.268419624804167
 20
9.816995885207398
 10
10.272019486371413
 20
9.792727589785756
 10
10.273223304703365
 20
9.768223304703369
 10
10.272019486371413
 20
9.743719019620976
 10
10.268419624804167
 20
9.719450724199334
 10
10.262458388636418
 20
9.69565213538975
 10
10.254193187831184
 20
9.672552446612094
 10
10.243703620790455
 20
9.65037412049687
 10
10.231090707779003
 20
9.629330746448467
 10
10.216475918044047
 20
9.609624983662457
 10
10.200000000000003
 20
9.59144660940673
 10
10.200000000000003
 20
8.683553390593275
 10
10.216475918044047
 20
8.66537501633755
 10
10.231090707779003
 20
8.645669253551539
 10
10.243703620790455
 20
8.624625879503142
 10
10.254193187831184
 20
8.602447553387911
 10
10.262458388636418
 20
8.579347864610256
 10
10.268419624804167
 20
8.555549275800672
 10
10.272019486371413
 20
8.53128098037903
 10
10.273223304703365
 20
8.506776695296644
 10
10.272019486371413
 20
8.48227241021425
 10
10.268419624804167
 20
8.458004114792608
 10
10.262458388636418
 20
8.434205525983025
 10
10.254193187831184
 20
8.411105837205369
 10
10.243703620790455
 20
8.388927511090145
 10
10.231090707779003
 20
8.367884137041742
 10
10.216475918044047
 20
8.348178374255731
 10
10.200000000000003
 20
8.330000000000005
 10
10.181821625744277
 20
8.313524081955954
 10
10.16211586295826
 20
8.298909292221005
 10
10.141072488909863
 20
8.286296379209553
 10
10.118894162794632
 20
8.275806812168817
 10
10.095794474016976
 20
8.26754161136359
 10
10.071995885207393
 20
8.261580375195834
 10
10.047727589785751
 20
8.257980513628588
 10
10.023223304703365
 20
8.256776695296644
 10
9.998719019620971
 20
8.257980513628588
 10
9.974450724199329
 20
8.261580375195834
 10
9.950652135389745
 20
8.26754161136359
 10
9.92755244661209
 20
8.275806812168817
 10
9.905374120496866
 20
8.286296379209553
 10
9.884330746448462
 20
8.298909292221005
 10
9.864624983662452
 20
8.313524081955954
 10
9.846446609406726
 20
8.330000000000005
 10
0.20000000000000284
 20
8.330000000000005
 10
0.20000000000000284
 20
7.150000000000006
 10
0.19664486676443715
 20
7.092173740251219
 10
0.1866244947338629
 20
7.035123539726321
 10
0.17007336264121165
 20
6.97961504252082
 10
0.14721359549995583
 20
6.926393202250026
 10
0.11835198356807552
 20
6.876172284374547
 10
0.08387586505926237
 20
6.82962628037712
 10
0.04424792785768972
 20
6.787379862437724
 10
0.0
 20
6.75
 10
0.0
 20
11.525000000000006
  0
LWPOLYLINE
  5
34
330
17
100
AcDbEntity
  8
BRACKET_OUTLINE
 62
6
100
AcDbPolyline
 90
87
 70
1
 10
15.0
 20
48.0
 10
14.962620137562276
 20
47.95575207214231
 10
14.92037371962288
 20
47.91612413494074
 10
14.873827715625453
 20
47.881648016431924
 10
14.823606797749974
 20
47.852786404500044
 10
14.77038495747918
 20
47.82992663735879
 10
14.714876460273679
 20
47.81337550526614
 10
14.65782625974878
 20
47.80335513323556
 10
14.599999999999994
 20
47.8
 10
13.419999999999995
 20
47.8
 10
13.419999999999995
 20
38.153553390593274
 10
13.436475918044046
 20
38.13537501633755
 10
13.451090707778995
 20
38.11566925355154
 10
13.463703620790447
 20
38.094625879503134
 10
13.474193187831183
 20
38.07244755338791
 10
13.48245838863641
 20
38.049347864610255
 10
13.488419624804166
 20
38.02554927580067
 10
13.492019486371412
 20
38.00128098037903
 10
13.493223304703356
 20
37.976776695296635
 10
13.492019486371412
 20
37.95227241021425
 10
13.488419624804166
 20
37.92800411479261
 10
13.48245838863641
 20
37.90420552598302
 10
13.474193187831183
 20
37.88110583720537
 10
13.463703620790447
 20
37.85892751109014
 10
13.451090707778995
 20
37.83788413704174
 10
13.436475918044046
 20
37.81817837425572
 10
13.419999999999995
 20
37.8
 10
13.401821625744269
 20
37.78352408195595
 10
13.382115862958258
 20
37.768909292221
 10
13.361072488909862
 20
37.756296379209545
 10
13.338894162794631
 20
37.745806812168816
 10
13.315794474016975
 20
37.73754161136358
 10
13.291995885207392
 20
37.73158037519583
 10
13.26772758978575
 20
37.72798051362859
 10
13.243223304703356
 20
37.726776695296635
 10
13.21871901962097
 20
37.72798051362859
 10
13.194450724199328
 20
37.73158037519583
 10
13.170652135389744
 20
37.73754161136358
 10
13.147552446612089
 20
37.745806812168816
 10
13.125374120496858
 20
37.756296379209545
 10
13.104330746448461
 20
37.768909292221
 10
13.08462498366245
 20
37.78352408195595
 10
13.066446609406725
 20
37.8
 10
12.15855339059327
 20
37.8
 10
12.140375016337543
 20
37.78352408195595
 10
12.120669253551533
 20
37.768909292221
 10
12.099625879503137
 20
37.756296379209545
 10
12.077447553387906
 20
37.745806812168816
 10
12.05434786461025
 20
37.73754161136358
 10
12.030549275800666
 20
37.73158037519583
 10
12.006280980379024
 20
37.72798051362859
 10
11.981776695296631
 20
37.726776695296635
 10
11.957272410214244
 20
37.72798051362859
 10
11.933004114792602
 20
37.73158037519583
 10
11.909205525983019
 20
37.73754161136358
 10
11.886105837205363
 20
37.745806812168816
 10
11.863927511090132
 20
37.756296379209545
 10
11.842884137041736
 20
37.768909292221
 10
11.823178374255725
 20
37.78352408195595
 10
11.805
 20
37.8
 10
11.788524081955948
 20
37.81817837425572
 10
11.773909292221
 20
37.83788413704174
 10
11.761296379209547
 20
37.85892751109014
 10
11.750806812168811
 20
37.88110583720537
 10
11.742541611363585
 20
37.90420552598302
 10
11.736580375195828
 20
37.92800411479261
 10
11.732980513628583
 20
37.95227241021425
 10
11.731776695296631
 20
37.976776695296635
 10
11.732980513628583
 20
38.00128098037903
 10
11.736580375195828
 20
38.02554927580067
 10
11.742541611363585
 20
38.049347864610255
 10
11.750806812168811
 20
38.07244755338791
 10
11.761296379209547
 20
38.094625879503134
 10
11.773909292221
 20
38.11566925355154
 10
11.788524081955948
 20
38.13537501633755
 10
11.805
 20
38.153553390593274
 10
11.805
 20
47.8
 10
10.625
 20
47.8
 10
10.567173740251214
 20
47.80335513323556
 10
10.510123539726315
 20
47.81337550526614
 10
10.454615042520814
 20
47.82992663735879
 10
10.40139320225002
 20
47.852786404500044
 10
10.351172284374542
 20
47.881648016431924
 10
10.304626280377114
 20
47.91612413494074
 10
10.262379862437719
 20
47.95575207214231
 10
10.224999999999994
 20
48.0
 10
15.0
 20
48.0
  0
LWPOLYLINE
  5
35
330
17
100
AcDbEntity
  8
BRACKET_OUTLINE
 62
6
100
AcDbPolyline
 90
87
 70
1
 10
10.224999999999994
 20
0.0
 10
10.262379862437719
 20
0.04424792785768972
 10
10.304626280377114
 20
0.08387586505926237
 10
10.351172284374542
 20
0.11835198356807552
 10
10.40139320225002
 20
0.14721359549995583
 10
10.454615042520814
 20
0.17007336264121165
 10
10.510123539726315
 20
0.1866244947338629
 10
10.567173740251214
 20
0.19664486676443715
 10
10.625
 20
0.20000000000000284
 10
11.805
 20
0.20000000000000284
 10
11.805
 20
9.846446609406726
 10
11.788524081955948
 20
9.864624983662452
 10
11.773909292221
 20
9.884330746448462
 10
11.761296379209547
 20
9.905374120496866
 10
11.750806812168811
 20
9.92755244661209
 10
11.742541611363585
 20
9.950652135389745
 10
11.736580375195828
 20
9.974450724199329
 10
11.732980513628583
 20
9.998719019620971
 10
11.731776695296631
 20
10.023223304703365
 10
11.732980513628583
 20
10.047727589785751
 10
11.736580375195828
 20
10.071995885207393
 10
11.742541611363578
 20
10.095794474016976
 10
11.750806812168811
 20
10.118894162794632
 10
11.761296379209547
 20
10.141072488909863
 10
11.773909292221
 20
10.16211586295826
 10
11.788524081955948
 20
10.181821625744277
 10
11.805
 20
10.200000000000003
 10
11.823178374255725
 20
10.216475918044047
 10
11.842884137041736
 20
10.231090707779003
 10
11.863927511090132
 20
10.243703620790455
 10
11.886105837205363
 20
10.254193187831184
 10
11.909205525983019
 20
10.262458388636418
 10
11.933004114792602
 20
10.268419624804167
 10
11.957272410214244
 20
10.272019486371413
 10
11.981776695296631
 20
10.273223304703365
 10
12.006280980379024
 20
10.272019486371413
 10
12.030549275800666
 20
10.268419624804167
 10
12.05434786461025
 20
10.262458388636418
 10
12.077447553387906
 20
10.254193187831184
 10
12.099625879503137
 20
10.243703620790455
 10
12.120669253551533
 20
10.231090707779003
 10
12.140375016337543
 20
10.216475918044047
 10
12.15855339059327
 20
10.200000000000003
 10
13.066446609406725
 20
10.200000000000003
 10
13.08462498366245
 20
10.216475918044047
 10
13.104330746448461
 20
10.231090707779003
 10
13.125374120496858
 20
10.243703620790455
 10
13.147552446612089
 20
10.254193187831184
 10
13.170652135389744
 20
10.262458388636418
 10
13.194450724199328
 20
10.268419624804167
 10
13.21871901962097
 20
10.272019486371413
 10
13.243223304703356
 20
10.273223304703365
 10
13.26772758978575
 20
10.272019486371413
 10
13.291995885207392
 20
10.268419624804167
 10
13.315794474016975
 20
10.262458388636418
 10
13.338894162794631
 20
10.254193187831184
 10
13.361072488909862
 20
10.243703620790455
 10
13.382115862958258
 20
10.231090707779003
 10
13.401821625744269
 20
10.216475918044047
 10
13.419999999999995
 20
10.200000000000003
 10
13.436475918044046
 20
10.181821625744277
 10
13.451090707778995
 20
10.16211586295826
 10
13.463703620790447
 20
10.141072488909863
 10
13.474193187831183
 20
10.118894162794632
 10
13.48245838863641
 20
10.095794474016976
 10
13.488419624804166
 20
10.071995885207393
 10
13.492019486371412
 20
10.047727589785751
 10
13.493223304703356
 20
10.023223304703365
 10
13.492019486371412
 20
9.998719019620971
 10
13.488419624804166
 20
9.974450724199329
 10
13.48245838863641
 20
9.950652135389745
 10
13.474193187831183
 20
9.92755244661209
 10
13.463703620790447
 20
9.905374120496866
 10
13.451090707778995
 20
9.884330746448462
 10
13.436475918044046
 20
9.864624983662452
 10
13.419999999999995
 20
9.846446609406726
 10
13.419999999999995
 20
0.20000000000000284
 10
14.599999999999994
 20
0.20000000000000284
 10
14.65782625974878
 20
0.19664486676443715
 10
14.714876460273679
 20
0.1866244947338629
 10
14.77038495747918
 20
0.17007336264121165
 10
14.823606797749974
 20
0.14721359549995583
 10
14.873827715625453
 20
0.11835198356807552
 10
14.92037371962288
 20
0.08387586505926237
 10
14.962620137562276
 20
0.04424792785768972
 10
15.0
 20
0.0
 10
10.224999999999994
 20
0.0
  0
LWPOLYLINE
  5
36
330
17
100
AcDbEntity
  8
BRACKET_OUTLINE
 62
6
100
AcDbPolyline
 90
87
 70
1
 10
3.615000000000002
 20
48.0
 10
3.5776201375622847
 20
47.95575207214231
 10
3.535373719622882
 20
47.91612413494074
 10
3.4888277156254617
 20
47.881648016431924
 10
3.4386067977499835
 20
47.852786404500044
 10
3.3853849574791894
 20
47.82992663735879
 10
3.329876460273681
 20
47.81337550526614
 10
3.2728262597487827
 20
47.80335513323556
 10
3.2150000000000034
 20
47.8
 10
2.414999999999999
 20
47.8
 10
2.414999999999999
 20
44.153553390593274
 10
2.4314759180440504
 20
44.13537501633755
 10
2.4460907077789997
 20
44.11566925355154
 10
2.458703620790452
 20
44.094625879503134
 10
2.4691931878311877
 20
44.07244755338791
 10
2.477458388636414
 20
44.049347864610255
 10
2.4834196248041707
 20
44.02554927580067
 10
2.487019486371416
 20
44.00128098037903
 10
2.488223304703368
 20
43.976776695296635
 10
2.487019486371416
 20
43.95227241021425
 10
2.4834196248041707
 20
43.92800411479261
 10
2.477458388636414
 20
43.90420552598302
 10
2.4691931878311877
 20
43.88110583720536
 10
2.458703620790452
 20
43.85892751109014
 10
2.4460907077789997
 20
43.83788413704173
 10
2.4314759180440504
 20
43.81817837425572
 10
2.414999999999999
 20
43.8
 10
2.3968216257442734
 20
43.78352408195595
 10
2.377115862958263
 20
43.768909292221
 10
2.3560724889098665
 20
43.756296379209545
 10
2.3338941627946355
 20
43.745806812168816
 10
2.31079447401698
 20
43.73754161136358
 10
2.2869958852073964
 20
43.73158037519583
 10
2.2627275897857544
 20
43.72798051362859
 10
2.238223304703368
 20
43.726776695296635
 10
2.2137190196209744
 20
43.72798051362859
 10
2.1894507241993324
 20
43.73158037519583
 10
2.165652135389749
 20
43.73754161136358
 10
2.1425524466120933
 20
43.745806812168816
 10
2.1203741204968622
 20
43.756296379209545
 10
2.099330746448466
 20
43.768909292221
 10
2.0796249836624554
 20
43.78352408195595
 10
2.0614466094067296
 20
43.8
 10
1.1535533905932738
 20
43.8
 10
1.135375016337548
 20
43.78352408195595
 10
1.1156692535515376
 20
43.768909292221
 10
1.0946258795031412
 20
43.756296379209545
 10
1.07244755338791
 20
43.745806812168816
 10
1.0493478646102545
 20
43.73754161136358
 10
1.025549275800671
 20
43.73158037519583
 10
1.001280980379029
 20
43.72798051362859
 10
0.9767766952966355
 20
43.726776695296635
 10
0.952272410214249
 20
43.72798051362859
 10
0.928004114792607
 20
43.73158037519583
 10
0.9042055259830235
 20
43.73754161136358
 10
0.881105837205368
 20
43.745806812168816
 10
0.8589275110901369
 20
43.756296379209545
 10
0.8378841370417405
 20
43.768909292221
 10
0.81817837425573
 20
43.78352408195595
 10
0.8000000000000043
 20
43.8
 10
0.783524081955953
 20
43.81817837425572
 10
0.7689092922210037
 20
43.83788413704173
 10
0.7562963792095516
 20
43.85892751109014
 10
0.7458068121688157
 20
43.88110583720536
 10
0.7375416113635893
 20
43.90420552598302
 10
0.7315803751958327
 20
43.92800411479261
 10
0.7279805136285873
 20
43.95227241021425
 10
0.7267766952966355
 20
43.976776695296635
 10
0.7279805136285873
 20
44.00128098037903
 10
0.7315803751958327
 20
44.02554927580067
 10
0.7375416113635893
 20
44.049347864610255
 10
0.7458068121688157
 20
44.07244755338791
 10
0.7562963792095516
 20
44.094625879503134
 10
0.7689092922210037
 20
44.11566925355154
 10
0.783524081955953
 20
44.13537501633755
 10
0.8000000000000043
 20
44.153553390593274
 10
0.8000000000000043
 20
47.8
 10
0.0
 20
47.8
 10
-0.05782625974877931
 20
47.80335513323556
 10
-0.1148764602736776
 20
47.81337550526614
 10
-0.17038495747918603
 20
47.82992663735879
 10
-0.22360679774998005
 20
47.852786404500044
 10
-0.27382771562545827
 20
47.881648016431924
 10
-0.32037371962287864
 20
47.91612413494074
 10
-0.3626201375622813
 20
47.95575207214231
 10
-0.3999999999999986
 20
48.0
 10
3.615000000000002
 20
48.0
  0
LWPOLYLINE
  5
37
330
17
100
AcDbEntity
  8
BRACKET_OUTLINE
 62
6
100
AcDbPolyline
 90
87
 70
1
 10
-0.3999999999999986
 20
0.0
 10
-0.3626201375622813
 20
0.04424792785768972
 10
-0.32037371962287864
 20
0.08387586505926237
 10
-0.27382771562545827
 20
0.11835198356807552
 10
-0.22360679774998005
 20
0.14721359549995583
 10
-0.17038495747918603
 20
0.17007336264121165
 10
-0.1148764602736776
 20
0.1866244947338629
 10
-0.05782625974877931
 20
0.19664486676443715
 10
0.0
 20
0.20000000000000284
 10
0.8000000000000043
 20
0.20000000000000284
 10
0.8000000000000043
 20
3.8464466094067262
 10
0.783524081955953
 20
3.864624983662452
 10
0.7689092922210037
 20
3.8843307464484624
 10
0.7562963792095516
 20
3.905374120496866
 10
0.7458068121688157
 20
3.92755244661209
 10
0.7375416113635893
 20
3.9506521353897455
 10
0.7315803751958327
 20
3.974450724199329
 10
0.7279805136285873
 20
3.998719019620971
 10
0.7267766952966355
 20
4.0232233047033645
 10
0.7279805136285873
 20
4.047727589785751
 10
0.7315803751958327
 20
4.071995885207393
 10
0.7375416113635893
 20
4.0957944740169765
 10
0.7458068121688157
 20
4.118894162794639
 10
0.7562963792095516
 20
4.141072488909863
 10
0.7689092922210037
 20
4.162115862958267
 10
0.783524081955953
 20
4.181821625744277
 10
0.8000000000000043
 20
4.200000000000003
 10
0.81817837425573
 20
4.216475918044047
 10
0.8378841370417405
 20
4.231090707779003
 10
0.8589275110901369
 20
4.2437036207904555
 10
0.881105837205368
 20
4.254193187831184
 10
0.9042055259830235
 20
4.262458388636418
 10
0.928004114792607
 20
4.268419624804167
 10
0.952272410214249
 20
4.272019486371413
 10
0.9767766952966355
 20
4.2732233047033645
 10
1.001280980379029
 20
4.272019486371413
 10
1.025549275800671
 20
4.268419624804167
 10
1.0493478646102545
 20
4.262458388636418
 10
1.07244755338791
 20
4.254193187831184
 10
1.0946258795031412
 20
4.2437036207904555
 10
1.1156692535515376
 20
4.231090707779003
 10
1.135375016337548
 20
4.216475918044047
 10
1.1535533905932738
 20
4.200000000000003
 10
2.0614466094067296
 20
4.200000000000003
 10
2.0796249836624554
 20
4.216475918044047
 10
2.099330746448466
 20
4.231090707779003
 10
2.1203741204968622
 20
4.2437036207904555
 10
2.1425524466120933
 20
4.254193187831184
 10
2.165652135389749
 20
4.262458388636418
 10
2.1894507241993324
 20
4.268419624804167
 10
2.2137190196209744
 20
4.272019486371413
 10
2.238223304703368
 20
4.2732233047033645
 10
2.2627275897857544
 20
4.272019486371413
 10
2.2869958852073964
 20
4.268419624804167
 10
2.31079447401698
 20
4.262458388636418
 10
2.3338941627946355
 20
4.254193187831184
 10
2.3560724889098665
 20
4.2437036207904555
 10
2.377115862958263
 20
4.231090707779003
 10
2.3968216257442734
 20
4.216475918044047
 10
2.414999999999999
 20
4.200000000000003
 10
2.4314759180440504
 20
4.181821625744277
 10
2.4460907077789997
 20
4.162115862958267
 10
2.458703620790452
 20
4.141072488909863
 10
2.4691931878311877
 20
4.118894162794639
 10
2.477458388636414
 20
4.0957944740169765
 10
2.4834196248041707
 20
4.071995885207393
 10
2.487019486371416
 20
4.047727589785751
 10
2.488223304703368
 20
4.0232233047033645
 10
2.487019486371416
 20
3.998719019620971
 10
2.4834196248041707
 20
3.974450724199329
 10
2.477458388636414
 20
3.9506521353897455
 10
2.4691931878311877
 20
3.92755244661209
 10
2.458703620790452
 20
3.905374120496866
 10
2.4460907077789997
 20
3.8843307464484624
 10
2.4314759180440504
 20
3.864624983662452
 10
2.414999999999999
 20
3.8464466094067262
 10
2.414999999999999
 20
0.20000000000000284
 10
3.2150000000000034
 20
0.20000000000000284
 10
3.2728262597487827
 20
0.19664486676443715
 10
3.329876460273681
 20
0.1866244947338629
 10
3.3853849574791894
 20
0.17007336264121165
 10
3.4386067977499835
 20
0.14721359549995583
 10
3.4888277156254617
 20
0.11835198356807552
 10
3.535373719622882
 20
0.08387586505926237
 10
3.5776201375622847
 20
0.04424792785768972
 10
3.615000000000002
 20
0.0
 10
-0.3999999999999986
 20
0.0
  0
LINE
  5
38
330
17
100
AcDbEntity
  8
BRACKET_CUT_LINE
 62
4
100
AcDbLine
 10
0.20000000000000284
 20
40.205
 30
0.0
 11
0.20000000000000284
 21
41.82
 31
0.0
  0
LINE
  5
39
330
17
100
AcDbEntity
  8
BRACKET_CUT_LINE
 62
4
100
AcDbLine
 10
0.20000000000000284
 20
24.58
 30
0.0
 11
0.20000000000000284
 21
26.195
 31
0.0
  0
LINE
  5
3A
330
17
100
AcDbEntity
  8
BRACKET_CUT_LINE
 62
4
100
AcDbLine
 10
0.20000000000000284
 20
8.330000000000005
 30
0.0
 11
0.20000000000000284
 21
9.945
 31
0.0
  0
LINE
  5
3B
330
17
100
AcDbEntity
  8
BRACKET_CUT_LINE
 62
4
100
AcDbLine
 10
11.805
 20
47.8
 30
0.0
 11
13.419999999999995
 21
47.8
 31
0.0
  0
LINE
  5
3C
330
17
100
AcDbEntity
  8
BRACKET_CUT_LINE
 62
4
100
AcDbLine
 10
13.419999999999995
 20
0.20000000000000284
 30
0.0
 11
11.805
 21
0.20000000000000284
 31
0.0
  0
LINE
  5
3D
330
17
100
AcDbEntity
  8
BRACKET_CUT_LINE
 62
4
100
AcDbLine
 10
0.8000000000000043
 20
47.8
 30
0.0
 11
2.414999999999999
 21
47.8
 31
0.0
  0
LINE
  5
3E
330
17
100
AcDbEntity
  8
BRACKET_CUT_LINE
 62
4
100
AcDbLine
 10
2.414999999999999
 20
0.20000000000000284
 30
0.0
 11
0.8000000000000043
 21
0.20000000000000284
 31
0.0
  0
LWPOLYLINE
  5
3F
330
17
100
AcDbEntity
  8
SHELF_B
 62
3
100
AcDbPolyline
 90
120
 70
1
 10
40.759406012746986
 20
0.0
 10
40.759406012746986
 20
48.0
 10
36.50940601274698
 20
48.0
 10
36.50940601274698
 20
46.0
 10
36.484782693937255
 20
45.68713106991954
 10
36.411519045337286
 20
45.38196601125011
 10
36.29141906112371
 20
45.09201900052091
 10
36.12744000149687
 20
44.82442949541505
 10
35.92361957512007
 20
44.58578643762691
 10
35.684976517331926
 20
44.38196601125011
 10
35.41738701222607
 20
44.21798695162327
 10
35.12744000149687
 20
44.09788696740969
 10
34.82227494282744
 20
44.024623318809724
 10
34.50940601274698
 20
44.0
 10
32.00940601274698
 20
44.0
 10
31.69653708266652
 20
44.024623318809724
 10
31.39137202399709
 20
44.09788696740969
 10
31.10142501326789
 20
44.21798695162327
 10
30.833835508162036
 20
44.38196601125011
 10
30.59519245037389
 20
44.58578643762691
 10
30.39137202399709
 20
44.82442949541505
 10
30.22739296437025
 20
45.09201900052091
 10
30.107292980156675
 20
45.38196601125011
 10
30.034029331556706
 20
45.68713106991954
 10
30.009406012746982
 20
46.0
 10
30.009406012746982
 20
48.0
 10
21.54512642796567
 20
48.0
 10
21.54512642796567
 20
39.880562387464494
 10
21.54512642796567
 20
39.880562387464494
 10
21.632808321366245
 20
39.765656317574695
 10
21.714853918533368
 20
39.64666035414181
 10
21.791072768669373
 20
39.52385072010695
 10
21.861287946487504
 20
39.39751249100824
 10
21.925336462905044
 20
39.267938933240686
 10
21.98306964338659
 20
39.135430823302784
 10
22.034353473059255
 20
39.000295749610075
 10
22.079068907798735
 20
38.86284739849632
 10
22.117112150564015
 20
38.723404826059735
 10
22.148394892339372
 20
38.58229171754445
 10
22.17284451712431
 20
38.439835635976465
 10
22.190404270495637
 20
38.29636726179815
 10
22.20103339135036
 20
38.15221962526641
 10
22.204707206523615
 20
38.00772733339622
 10
22.20141718806199
 20
37.863225793244034
 10
22.19117097301929
 20
37.7190504333342
 10
22.17399234572881
 20
37.57553592503541
 10
22.14992118259322
 20
37.43301540569476
 10
22.119013359520288
 20
37.291819705332735
 10
22.119013359520288
 20
37.291819705332735
 10
21.98029827935519
 20
36.73751048471425
 10
21.83693954704143
 20
36.18320126409576
 10
21.691950885492723
 20
35.62889204347727
 10
21.54838028240039
 20
35.07458282285878
 10
21.409245914678326
 20
34.520273602240295
 10
21.27747269959749
 20
33.96596438162181
 10
21.15583080644783
 20
33.41165516100332
 10
21.046877421350732
 20
32.85734594038483
 10
20.952902989456575
 20
32.30303671976634
 10
20.875883064637325
 20
31.748727499147854
 10
20.81743677890184
 20
31.194418278529366
 10
20.77879280460024
 20
30.640109057910877
 10
20.760763524968276
 20
30.08579983729239
 10
20.76372795600495
 20
29.5314906166739
 10
20.78762377870397
 20
28.977181396055414
 10
20.83194864913939
 20
28.422872175436925
 10
20.8957707588645
 20
27.868562954818437
 10
20.977748423620696
 20
27.31425373419995
 10
21.076158288557526
 20
26.75994451358146
 10
21.188931557026827
 20
26.205635292962974
 10
21.31369748134025
 20
25.651326072344485
 10
21.44783320121655
 20
25.097016851725996
 10
21.58851888220259
 20
24.54270763110751
 10
21.732796994934276
 20
23.98839841048902
 10
21.877634489054163
 20
23.434089189870534
 10
22.019986554750208
 20
22.879779969252045
 10
22.156860631504617
 20
22.325470748633556
 10
22.28537931844513
 20
21.771161528015067
 10
22.40284086378153
 20
21.21685230739658
 10
22.506775961703514
 20
20.662543086778093
 10
22.594999662741387
 20
20.108233866159605
 10
22.665657306317037
 20
19.553924645541116
 10
22.717263509879746
 20
18.999615424922627
 10
22.748733394987465
 20
18.44530620430414
 10
22.759405393891168
 20
17.890996983685653
 10
22.74905515717654
 20
17.336687763067165
 10
22.717900270093153
 20
16.782378542448676
 10
22.66659567842326
 20
16.228069321830187
 10
22.596219920048696
 20
15.673760101211698
 10
22.508252451659413
 20
15.119450880593213
 10
22.404542547247065
 20
14.565141659974728
 10
22.287270422207403
 20
14.010832439356236
 10
22.158901400310157
 20
13.456523218737743
 10
22.022134087049785
 20
12.902213998119258
 10
21.87984363888985
 20
12.347904777500773
 10
21.73502132100896
 20
11.79359555688228
 10
21.590711624180507
 20
11.239286336263795
 10
21.44994826273066
 20
10.68497711564531
 10
21.315690399041536
 20
10.130667895026818
 10
21.315690399041536
 20
10.130667895026818
 10
21.294932600849016
 20
10.047547956454025
 10
21.27180980599757
 20
9.965054643195295
 10
21.24634087192382
 20
9.883255231392447
 10
21.218546569421818
 20
9.802216431286737
 10
21.188449565703767
 20
9.722004332814365
 10
21.15607440591413
 20
9.642684351707835
 10
21.121447493112207
 20
9.56432117614716
 10
21.08459706673953
 20
9.486978714004444
 10
21.04555317958963
 20
9.410720040724797
 10
21.004347673298945
 20
9.335607347886146
 10
20.961014152378866
 20
9.261701892479834
 10
20.915587956810114
 20
9.18906394695344
 10
20.868106133221737
 20
9.117752750056553
 10
20.81860740467833
 20
9.047826458529457
 10
20.76713213910003
 20
8.979342099674398
 10
20.7137223163411
 20
8.912355524847754
 10
20.658421493953895
 20
8.846921363911406
 10
20.601274771666166
 20
8.78309298068016
 10
20.542328754600707
 20
8.720922429401725
 10
20.542328754600707
 20
0.0
 10
40.759406012746986
 20
0.0
  0
LWPOLYLINE
  5
40
330
17
100
AcDbEntity
  8
BRACKET_OUTLINE
 62
6
100
AcDbPolyline
 90
87
 70
1
 10
40.759406012746986
 20
4.600000000000001
 10
40.71515808488929
 20
4.637379862437719
 10
40.67553014768772
 20
4.679626280377114
 10
40.64105402917891
 20
4.726172284374542
 10
40.61219241724702
 20
4.77639320225002
 10
40.58933265010577
 20
4.829615042520814
 10
40.57278151801312
 20
4.885123539726322
 10
40.56276114598254
 20
4.942173740251214
 10
40.55940601274698
 20
5.0
 10
40.55940601274698
 20
6.18
 10
30.912959403340256
 20
6.18
 10
30.89478102908453
 20
6.1635240819559485
 10
30.87507526629852
 20
6.148909292220999
 10
30.854031892250116
 20
6.136296379209547
 10
30.831853566134892
 20
6.125806812168811
 10
30.808753877357237
 20
6.117541611363585
 10
30.784955288547653
 20
6.111580375195828
 10
30.76068699312601
 20
6.10798051362859
 10
30.736182708043618
 20
6.106776695296638
 10
30.71167842296123
 20
6.10798051362859
 10
30.68741012753959
 20
6.111580375195828
 10
30.663611538730006
 20
6.117541611363585
 10
30.64051184995235
 20
6.125806812168811
 10
30.61833352383712
 20
6.136296379209547
 10
30.597290149788723
 20
6.148909292220999
 10
30.577584387002705
 20
6.1635240819559485
 10
30.55940601274698
 20
6.18
 10
30.542930094702935
 20
6.1981783742557255
 10
30.52831530496798
 20
6.217884137041736
 10
30.515702391956527
 20
6.238927511090139
 10
30.505212824915798
 20
6.261105837205363
 10
30.496947624110565
 20
6.284205525983019
 10
30.490986387942815
 20
6.3080041147926025
 10
30.48738652637557
 20
6.3322724102142445
 10
30.486182708043618
 20
6.356776695296638
 10
30.48738652637557
 20
6.3812809803790245
 10
30.490986387942815
 20
6.4055492758006665
 10
30.496947624110565
 20
6.42934786461025
 10
30.505212824915798
 20
6.4524475533879055
 10
30.515702391956527
 20
6.474625879503137
 10
30.52831530496798
 20
6.495669253551533
 10
30.542930094702935
 20
6.5153750163375435
 10
30.55940601274698
 20
6.533553390593269
 10
30.55940601274698
 20
7.441446609406725
 10
30.542930094702935
 20
7.459624983662451
 10
30.52831530496798
 20
7.479330746448461
 10
30.515702391956527
 20
7.500374120496865
 10
30.505212824915798
 20
7.522552446612089
 10
30.496947624110565
 20
7.545652135389744
 10
30.490986387942815
 20
7.569450724199328
 10
30.48738652637557
 20
7.59371901962097
 10
30.486182708043618
 20
7.618223304703363
 10
30.48738652637557
 20
7.64272758978575
 10
30.490986387942815
 20
7.666995885207392
 10
30.496947624110565
 20
7.690794474016975
 10
30.505212824915798
 20
7.713894162794631
 10
30.515702391956527
 20
7.736072488909862
 10
30.52831530496798
 20
7.757115862958258
 10
30.542930094702935
 20
7.776821625744276
 10
30.55940601274698
 20
7.795000000000002
 10
30.577584387002705
 20
7.811475918044046
 10
30.597290149788723
 20
7.826090707778995
 10
30.61833352383712
 20
7.838703620790447
 10
30.64051184995235
 20
7.849193187831183
 10
30.663611538730006
 20
7.857458388636417
 10
30.68741012753959
 20
7.863419624804166
 10
30.71167842296123
 20
7.867019486371412
 10
30.736182708043618
 20
7.868223304703363
 10
30.76068699312601
 20
7.867019486371412
 10
30.784955288547653
 20
7.863419624804166
 10
30.808753877357237
 20
7.857458388636417
 10
30.831853566134892
 20
7.849193187831183
 10
30.854031892250116
 20
7.838703620790447
 10
30.87507526629852
 20
7.826090707778995
 10
30.89478102908453
 20
7.811475918044046
 10
30.912959403340256
 20
7.795000000000002
 10
40.55940601274698
 20
7.795000000000002
 10
40.55940601274698
 20
8.975000000000001
 10
40.56276114598254
 20
9.03282625974878
 10
40.57278151801312
 20
9.089876460273679
 10
40.58933265010577
 20
9.145384957479187
 10
40.61219241724702
 20
9.198606797749974
 10
40.64105402917891
 20
9.248827715625453
 10
40.67553014768772
 20
9.295373719622887
 10
40.71515808488929
 20
9.337620137562283
 10
40.759406012746986
 20
9.375
 10
40.759406012746986
 20
4.600000000000001
  0
LWPOLYLINE
  5
41
330
17
100
AcDbEntity
  8
BRACKET_OUTLINE
 62
6
100
AcDbPolyline
 90
87
 70
1
 10
40.759406012746986
 20
20.225
 10
40.71515808488929
 20
20.26237986243772
 10
40.67553014768772
 20
20.304626280377118
 10
40.64105402917891
 20
20.35117228437454
 10
40.61219241724702
 20
20.40139320225002
 10
40.58933265010577
 20
20.454615042520814
 10
40.57278151801312
 20
20.51012353972632
 10
40.56276114598254
 20
20.567173740251217
 10
40.55940601274698
 20
20.625
 10
40.55940601274698
 20
21.805
 10
30.912959403340256
 20
21.805
 10
30.89478102908453
 20
21.788524081955952
 10
30.87507526629852
 20
21.773909292221
 10
30.854031892250116
 20
21.761296379209547
 10
30.831853566134892
 20
21.750806812168815
 10
30.808753877357237
 20
21.742541611363585
 10
30.784955288547653
 20
21.736580375195828
 10
30.76068699312601
 20
21.732980513628586
 10
30.736182708043618
 20
21.731776695296638
 10
30.71167842296123
 20
21.732980513628586
 10
30.68741012753959
 20
21.736580375195828
 10
30.663611538730006
 20
21.742541611363585
 10
30.64051184995235
 20
21.750806812168815
 10
30.61833352383712
 20
21.761296379209547
 10
30.597290149788723
 20
21.773909292221
 10
30.577584387002705
 20
21.788524081955952
 10
30.55940601274698
 20
21.805
 10
30.542930094702935
 20
21.823178374255725
 10
30.52831530496798
 20
21.842884137041736
 10
30.515702391956527
 20
21.863927511090136
 10
30.505212824915798
 20
21.886105837205363
 10
30.496947624110565
 20
21.909205525983023
 10
30.490986387942815
 20
21.933004114792606
 10
30.48738652637557
 20
21.957272410214248
 10
30.486182708043618
 20
21.981776695296638
 10
30.48738652637557
 20
22.006280980379028
 10
30.490986387942815
 20
22.03054927580067
 10
30.496947624110565
 20
22.054347864610254
 10
30.505212824915798
 20
22.07744755338791
 10
30.515702391956527
 20
22.099625879503137
 10
30.52831530496798
 20
22.120669253551537
 10
30.542930094702935
 20
22.140375016337547
 10
30.55940601274698
 20
22.158553390593273
 10
30.55940601274698
 20
23.066446609406725
 10
30.542930094702935
 20
23.08462498366245
 10
30.52831530496798
 20
23.10433074644846
 10
30.515702391956527
 20
23.12537412049686
 10
30.505212824915798
 20
23.14755244661209
 10
30.496947624110565
 20
23.170652135389748
 10
30.490986387942815
 20
23.19445072419933
 10
30.48738652637557
 20
23.218719019620973
 10
30.486182708043618
 20
23.243223304703363
 10
30.48738652637557
 20
23.267727589785753
 10
30.490986387942815
 20
23.291995885207395
 10
30.496947624110565
 20
23.31579447401698
 10
30.505212824915798
 20
23.338894162794634
 10
30.515702391956527
 20
23.361072488909862
 10
30.52831530496798
 20
23.382115862958262
 10
30.542930094702935
 20
23.401821625744272
 10
30.55940601274698
 20
23.419999999999998
 10
30.577584387002705
 20
23.436475918044046
 10
30.597290149788723
 20
23.451090707779
 10
30.61833352383712
 20
23.46370362079045
 10
30.64051184995235
 20
23.474193187831183
 10
30.663611538730006
 20
23.482458388636413
 10
30.68741012753959
 20
23.48841962480417
 10
30.71167842296123
 20
23.49201948637141
 10
30.736182708043618
 20
23.493223304703363
 10
30.76068699312601
 20
23.49201948637141
 10
30.784955288547653
 20
23.48841962480417
 10
30.808753877357237
 20
23.482458388636413
 10
30.831853566134892
 20
23.474193187831183
 10
30.854031892250116
 20
23.46370362079045
 10
30.87507526629852
 20
23.451090707779
 10
30.89478102908453
 20
23.436475918044046
 10
30.912959403340256
 20
23.419999999999998
 10
40.55940601274698
 20
23.42
 10
40.55940601274698
 20
24.6
 10
40.56276114598254
 20
24.657826259748784
 10
40.57278151801312
 20
24.714876460273683
 10
40.58933265010577
 20
24.770384957479187
 10
40.61219241724702
 20
24.82360679774998
 10
40.64105402917891
 20
24.87382771562546
 10
40.67553014768772
 20
24.920373719622884
 10
40.71515808488929
 20
24.962620137562283
 10
40.759406012746986
 20
25.0
 10
40.759406012746986
 20
20.225
  0
LWPOLYLINE
  5
42
330
17
100
AcDbEntity
  8
BRACKET_OUTLINE
 62
6
100
AcDbPolyline
 90
87
 70
1
 10
40.759406012746986
 20
36.474999999999994
 10
40.71515808488929
 20
36.51237986243772
 10
40.67553014768772
 20
36.554626280377114
 10
40.64105402917891
 20
36.60117228437454
 10
40.61219241724702
 20
36.65139320225002
 10
40.58933265010577
 20
36.704615042520814
 10
40.57278151801312
 20
36.760123539726315
 10
40.56276114598254
 20
36.817173740251214
 10
40.55940601274698
 20
36.875
 10
40.55940601274698
 20
38.055
 10
30.912959403340256
 20
38.05499999999999
 10
30.89478102908453
 20
38.03852408195595
 10
30.87507526629852
 20
38.023909292221
 10
30.854031892250116
 20
38.01129637920955
 10
30.831853566134892
 20
38.00080681216881
 10
30.808753877357237
 20
37.99254161136358
 10
30.784955288547653
 20
37.98658037519583
 10
30.76068699312601
 20
37.98298051362858
 10
30.736182708043618
 20
37.98177669529663
 10
30.71167842296123
 20
37.98298051362858
 10
30.68741012753959
 20
37.98658037519583
 10
30.663611538730006
 20
37.99254161136358
 10
30.64051184995235
 20
38.00080681216881
 10
30.61833352383712
 20
38.01129637920955
 10
30.597290149788723
 20
38.023909292221
 10
30.577584387002705
 20
38.03852408195595
 10
30.55940601274698
 20
38.05499999999999
 10
30.542930094702935
 20
38.07317837425572
 10
30.52831530496798
 20
38.09288413704173
 10
30.515702391956527
 20
38.11392751109013
 10
30.505212824915798
 20
38.13610583720536
 10
30.496947624110565
 20
38.15920552598302
 10
30.490986387942815
 20
38.1830041147926
 10
30.48738652637557
 20
38.207272410214244
 10
30.486182708043618
 20
38.23177669529663
 10
30.48738652637557
 20
38.256280980379024
 10
30.490986387942815
 20
38.28054927580067
 10
30.496947624110565
 20
38.30434786461025
 10
30.505212824915798
 20
38.327447553387906
 10
30.515702391956527
 20
38.34962587950313
 10
30.52831530496798
 20
38.37066925355153
 10
30.542930094702935
 20
38.39037501633754
 10
30.55940601274698
 20
38.40855339059327
 10
30.55940601274698
 20
39.316446609406725
 10
30.542930094702935
 20
39.33462498366245
 10
30.52831530496798
 20
39.35433074644846
 10
30.515702391956527
 20
39.37537412049686
 10
30.505212824915798
 20
39.39755244661209
 10
30.496947624110565
 20
39.420652135389744
 10
30.490986387942815
 20
39.44445072419933
 10
30.48738652637557
 20
39.46871901962097
 10
30.486182708043618
 20
39.493223304703356
 10
30.48738652637557
 20
39.51772758978575
 10
30.490986387942815
 20
39.54199588520739
 10
30.496947624110565
 20
39.565794474016975
 10
30.505212824915798
 20
39.58889416279463
 10
30.515702391956527
 20
39.611072488909855
 10
30.52831530496798
 20
39.63211586295826
 10
30.542930094702935
 20
39.65182162574427
 10
30.55940601274698
 20
39.669999999999995
 10
30.577584387002705
 20
39.686475918044046
 10
30.597290149788723
 20
39.701090707778995
 10
30.61833352383712
 20
39.71370362079045
 10
30.64051184995235
 20
39.72419318783118
 10
30.663611538730006
 20
39.73245838863641
 10
30.68741012753959
 20
39.738419624804166
 10
30.71167842296123
 20
39.74201948637141
 10
30.736182708043618
 20
39.743223304703356
 10
30.76068699312601
 20
39.74201948637141
 10
30.784955288547653
 20
39.738419624804166
 10
30.808753877357237
 20
39.73245838863641
 10
30.831853566134892
 20
39.72419318783118
 10
30.854031892250116
 20
39.71370362079045
 10
30.87507526629852
 20
39.701090707778995
 10
30.89478102908453
 20
39.686475918044046
 10
30.912959403340256
 20
39.669999999999995
 10
40.55940601274698
 20
39.669999999999995
 10
40.55940601274698
 20
40.849999999999994
 10
40.56276114598254
 20
40.90782625974878
 10
40.57278151801312
 20
40.96487646027368
 10
40.58933265010577
 20
41.02038495747918
 10
40.61219241724702
 20
41.073606797749974
 10
40.64105402917891
 20
41.12382771562545
 10
40.67553014768772
 20
41.17037371962288
 10
40.71515808488929
 20
41.212620137562276
 10
40.759406012746986
 20
41.25
 10
40.759406012746986
 20
36.474999999999994
  0
LWPOLYLINE
  5
43
330
17
100
AcDbEntity
  8
BRACKET_OUTLINE
 62
6
100
AcDbPolyline
 90
87
 70
1
 10
25.759406012746982
 20
0.0
 10
25.796785875184707
 20
0.04424792785768972
 10
25.839032293124102
 20
0.08387586505926237
 10
25.88557829712153
 20
0.11835198356807552
 10
25.935799214997008
 20
0.14721359549995583
 10
25.989021055267802
 20
0.17007336264121165
 10
26.044529552473303
 20
0.1866244947338629
 10
26.1015797529982
 20
0.19664486676443715
 10
26.159406012746988
 20
0.20000000000000284
 10
27.339406012746988
 20
0.20000000000000284
 10
27.339406012746988
 20
9.846446609406726
 10
27.322930094702937
 20
9.864624983662452
 10
27.308315304967987
 20
9.884330746448462
 10
27.295702391956535
 20
9.905374120496866
 10
27.2852128249158
 20
9.92755244661209
 10
27.276947624110573
 20
9.950652135389745
 10
27.270986387942816
 20
9.974450724199329
 10
27.26738652637557
 20
9.998719019620971
 10
27.266182708043626
 20
10.023223304703365
 10
27.26738652637557
 20
10.047727589785751
 10
27.270986387942816
 20
10.071995885207393
 10
27.276947624110573
 20
10.095794474016976
 10
27.2852128249158
 20
10.118894162794632
 10
27.295702391956535
 20
10.141072488909863
 10
27.308315304967987
 20
10.16211586295826
 10
27.322930094702937
 20
10.181821625744277
 10
27.339406012746988
 20
10.200000000000003
 10
27.357584387002714
 20
10.216475918044047
 10
27.377290149788724
 20
10.231090707779003
 10
27.39833352383712
 20
10.243703620790455
 10
27.42051184995235
 20
10.254193187831184
 10
27.443611538730007
 20
10.262458388636418
 10
27.46741012753959
 20
10.268419624804167
 10
27.491678422961233
 20
10.272019486371413
 10
27.516182708043626
 20
10.273223304703365
 10
27.540686993126013
 20
10.272019486371413
 10
27.564955288547655
 20
10.268419624804167
 10
27.588753877357238
 20
10.262458388636418
 10
27.611853566134894
 20
10.254193187831184
 10
27.634031892250125
 20
10.243703620790455
 10
27.65507526629852
 20
10.231090707779003
 10
27.67478102908453
 20
10.216475918044047
 10
27.692959403340257
 20
10.200000000000003
 10
28.600852622153713
 20
10.200000000000003
 10
28.61903099640944
 20
10.216475918044047
 10
28.63873675919545
 20
10.231090707779003
 10
28.659780133243846
 20
10.243703620790455
 10
28.681958459359077
 20
10.254193187831184
 10
28.705058148136732
 20
10.262458388636418
 10
28.728856736946316
 20
10.268419624804167
 10
28.753125032367958
 20
10.272019486371413
 10
28.77762931745035
 20
10.273223304703365
 10
28.802133602532738
 20
10.272019486371413
 10
28.82640189795438
 20
10.268419624804167
 10
28.850200486763963
 20
10.262458388636418
 10
28.87330017554162
 20
10.254193187831184
 10
28.89547850165685
 20
10.243703620790455
 10
28.916521875705246
 20
10.231090707779003
 10
28.936227638491257
 20
10.216475918044047
 10
28.954406012746983
 20
10.200000000000003
 10
28.970881930791034
 20
10.181821625744277
 10
28.985496720525983
 20
10.16211586295826
 10
28.998109633537435
 20
10.141072488909863
 10
29.00859920057817
 20
10.118894162794632
 10
29.016864401383398
 20
10.095794474016976
 10
29.022825637551154
 20
10.071995885207393
 10
29.0264254991184
 20
10.047727589785751
 10
29.02762931745035
 20
10.023223304703365
 10
29.0264254991184
 20
9.998719019620971
 10
29.022825637551154
 20
9.974450724199329
 10
29.016864401383398
 20
9.950652135389745
 10
29.00859920057817
 20
9.92755244661209
 10
28.998109633537435
 20
9.905374120496866
 10
28.985496720525983
 20
9.884330746448462
 10
28.970881930791034
 20
9.864624983662452
 10
28.954406012746983
 20
9.846446609406726
 10
28.954406012746983
 20
0.20000000000000284
 10
30.134406012746982
 20
0.20000000000000284
 10
30.19223227249577
 20
0.19664486676443715
 10
30.249282473020667
 20
0.1866244947338629
 10
30.30479097022617
 20
0.17007336264121165
 10
30.358012810496962
 20
0.14721359549995583
 10
30.40823372837244
 20
0.11835198356807552
 10
30.454779732369868
 20
0.08387586505926237
 10
30.497026150309264
 20
0.04424792785768972
 10
30.534406012746988
 20
0.0
 10
25.759406012746982
 20
0.0
  0
LWPOLYLINE
  5
44
330
17
100
AcDbEntity
  8
BRACKET_OUTLINE
 62
6
100
AcDbPolyline
 90
87
 70
1
 10
30.534406012746988
 20
48.0
 10
30.497026150309264
 20
47.95575207214231
 10
30.454779732369868
 20
47.91612413494074
 10
30.40823372837244
 20
47.881648016431924
 10
30.358012810496962
 20
47.852786404500044
 10
30.30479097022617
 20
47.82992663735879
 10
30.249282473020667
 20
47.81337550526614
 10
30.19223227249577
 20
47.80335513323556
 10
30.134406012746982
 20
47.8
 10
28.954406012746983
 20
47.8
 10
28.954406012746983
 20
38.153553390593274
 10
28.970881930791034
 20
38.13537501633755
 10
28.985496720525983
 20
38.11566925355154
 10
28.998109633537435
 20
38.094625879503134
 10
29.00859920057817
 20
38.07244755338791
 10
29.016864401383398
 20
38.049347864610255
 10
29.022825637551154
 20
38.02554927580067
 10
29.0264254991184
 20
38.00128098037903
 10
29.02762931745035
 20
37.976776695296635
 10
29.0264254991184
 20
37.95227241021425
 10
29.022825637551154
 20
37.92800411479261
 10
29.016864401383405
 20
37.90420552598302
 10
29.00859920057817
 20
37.88110583720537
 10
28.998109633537435
 20
37.85892751109014
 10
28.985496720525983
 20
37.83788413704174
 10
28.970881930791034
 20
37.81817837425572
 10
28.954406012746983
 20
37.8
 10
28.936227638491257
 20
37.78352408195595
 10
28.916521875705246
 20
37.768909292221
 10
28.89547850165685
 20
37.756296379209545
 10
28.87330017554162
 20
37.745806812168816
 10
28.850200486763963
 20
37.73754161136358
 10
28.82640189795438
 20
37.73158037519583
 10
28.802133602532738
 20
37.72798051362859
 10
28.77762931745035
 20
37.726776695296635
 10
28.753125032367958
 20
37.72798051362859
 10
28.728856736946316
 20
37.73158037519583
 10
28.705058148136732
 20
37.73754161136358
 10
28.681958459359077
 20
37.745806812168816
 10
28.659780133243846
 20
37.756296379209545
 10
28.63873675919545
 20
37.768909292221
 10
28.61903099640944
 20
37.78352408195595
 10
28.600852622153713
 20
37.8
 10
27.692959403340257
 20
37.8
 10
27.67478102908453
 20
37.78352408195595
 10
27.65507526629852
 20
37.768909292221
 10
27.634031892250125
 20
37.756296379209545
 10
27.611853566134894
 20
37.745806812168816
 10
27.588753877357238
 20
37.73754161136358
 10
27.564955288547655
 20
37.73158037519583
 10
27.540686993126013
 20
37.72798051362859
 10
27.516182708043626
 20
37.726776695296635
 10
27.491678422961233
 20
37.72798051362859
 10
27.46741012753959
 20
37.73158037519583
 10
27.443611538730007
 20
37.73754161136358
 10
27.42051184995235
 20
37.745806812168816
 10
27.39833352383712
 20
37.756296379209545
 10
27.377290149788724
 20
37.768909292221
 10
27.357584387002714
 20
37.78352408195595
 10
27.339406012746988
 20
37.8
 10
27.322930094702937
 20
37.81817837425572
 10
27.308315304967987
 20
37.83788413704174
 10
27.295702391956535
 20
37.85892751109014
 10
27.2852128249158
 20
37.88110583720537
 10
27.276947624110573
 20
37.90420552598302
 10
27.270986387942816
 20
37.92800411479261
 10
27.26738652637557
 20
37.95227241021425
 10
27.266182708043626
 20
37.976776695296635
 10
27.26738652637557
 20
38.00128098037903
 10
27.270986387942816
 20
38.02554927580067
 10
27.276947624110573
 20
38.049347864610255
 10
27.2852128249158
 20
38.07244755338791
 10
27.295702391956535
 20
38.094625879503134
 10
27.308315304967987
 20
38.11566925355154
 10
27.322930094702937
 20
38.13537501633755
 10
27.339406012746988
 20
38.153553390593274
 10
27.339406012746988
 20
47.8
 10
26.159406012746988
 20
47.8
 10
26.1015797529982
 20
47.80335513323556
 10
26.044529552473303
 20
47.81337550526614
 10
25.989021055267802
 20
47.82992663735879
 10
25.935799214997008
 20
47.852786404500044
 10
25.88557829712153
 20
47.881648016431924
 10
25.839032293124102
 20
47.91612413494074
 10
25.796785875184707
 20
47.95575207214231
 10
25.759406012746982
 20
48.0
 10
30.534406012746988
 20
48.0
  0
LWPOLYLINE
  5
45
330
17
100
AcDbEntity
  8
BRACKET_OUTLINE
 62
6
100
AcDbPolyline
 90
87
 70
1
 10
37.14440601274698
 20
0.0
 10
37.181785875184694
 20
0.04424792785768972
 10
37.2240322931241
 20
0.08387586505926237
 10
37.27057829712152
 20
0.11835198356807552
 10
37.320799214996995
 20
0.14721359549995583
 10
37.37402105526779
 20
0.17007336264121165
 10
37.4295295524733
 20
0.1866244947338629
 10
37.486579752998196
 20
0.19664486676443715
 10
37.54440601274698
 20
0.20000000000000284
 10
38.34440601274698
 20
0.20000000000000284
 10
38.34440601274698
 20
3.8464466094067262
 10
38.32793009470293
 20
3.864624983662452
 10
38.31331530496798
 20
3.8843307464484624
 10
38.30070239195653
 20
3.905374120496866
 10
38.29021282491579
 20
3.92755244661209
 10
38.281947624110565
 20
3.9506521353897455
 10
38.275986387942815
 20
3.974450724199329
 10
38.27238652637556
 20
3.998719019620971
 10
38.27118270804362
 20
4.0232233047033645
 10
38.27238652637556
 20
4.047727589785751
 10
38.275986387942815
 20
4.071995885207393
 10
38.281947624110565
 20
4.0957944740169765
 10
38.29021282491579
 20
4.118894162794639
 10
38.30070239195653
 20
4.141072488909863
 10
38.31331530496798
 20
4.162115862958267
 10
38.32793009470293
 20
4.181821625744277
 10
38.34440601274698
 20
4.200000000000003
 10
38.362584387002705
 20
4.216475918044047
 10
38.38229014978872
 20
4.231090707779003
 10
38.40333352383711
 20
4.2437036207904555
 10
38.42551184995235
 20
4.254193187831184
 10
38.44861153873
 20
4.262458388636418
 10
38.47241012753958
 20
4.268419624804167
 10
38.49667842296123
 20
4.272019486371413
 10
38.52118270804362
 20
4.2732233047033645
 10
38.545686993126004
 20
4.272019486371413
 10
38.56995528854765
 20
4.268419624804167
 10
38.59375387735724
 20
4.262458388636418
 10
38.616853566134886
 20
4.254193187831184
 10
38.639031892250124
 20
4.2437036207904555
 10
38.66007526629851
 20
4.231090707779003
 10
38.67978102908453
 20
4.216475918044047
 10
38.697959403340256
 20
4.200000000000003
 10
39.60585262215371
 20
4.200000000000003
 10
39.62403099640944
 20
4.216475918044047
 10
39.64373675919544
 20
4.231090707779003
 10
39.664780133243845
 20
4.2437036207904555
 10
39.68695845935907
 20
4.254193187831184
 10
39.71005814813673
 20
4.262458388636418
 10
39.733856736946315
 20
4.268419624804167
 10
39.75812503236795
 20
4.272019486371413
 10
39.78262931745035
 20
4.2732233047033645
 10
39.80713360253274
 20
4.272019486371413
 10
39.83140189795437
 20
4.268419624804167
 10
39.855200486763955
 20
4.262458388636418
 10
39.87830017554162
 20
4.254193187831184
 10
39.90047850165684
 20
4.2437036207904555
 10
39.921521875705245
 20
4.231090707779003
 10
39.94122763849125
 20
4.216475918044047
 10
39.959406012746975
 20
4.200000000000003
 10
39.975881930791026
 20
4.181821625744277
 10
39.990496720525975
 20
4.162115862958267
 10
40.00310963353743
 20
4.141072488909863
 10
40.01359920057816
 20
4.118894162794639
 10
40.02186440138339
 20
4.0957944740169765
 10
40.02782563755115
 20
4.071995885207393
 10
40.03142549911839
 20
4.047727589785751
 10
40.03262931745035
 20
4.0232233047033645
 10
40.03142549911839
 20
3.998719019620971
 10
40.02782563755115
 20
3.974450724199329
 10
40.02186440138339
 20
3.9506521353897455
 10
40.01359920057816
 20
3.92755244661209
 10
40.00310963353743
 20
3.905374120496866
 10
39.990496720525975
 20
3.8843307464484624
 10
39.975881930791026
 20
3.864624983662452
 10
39.959406012746975
 20
3.8464466094067262
 10
39.959406012746975
 20
0.20000000000000284
 10
40.759406012746986
 20
0.20000000000000284
 10
40.817232272495765
 20
0.19664486676443715
 10
40.87428247302066
 20
0.1866244947338629
 10
40.92979097022617
 20
0.17007336264121165
 10
40.983012810496966
 20
0.14721359549995583
 10
41.033233728372444
 20
0.11835198356807552
 10
41.079779732369865
 20
0.08387586505926237
 10
41.12202615030926
 20
0.04424792785768972
 10
41.15940601274698
 20
0.0
 10
37.14440601274698
 20
0.0
  0
LWPOLYLINE
  5
46
330
17
100
AcDbEntity
  8
BRACKET_OUTLINE
 62
6
100
AcDbPolyline
 90
87
 70
1
 10
41.15940601274698
 20
48.0
 10
41.12202615030926
 20
47.95575207214231
 10
41.079779732369865
 20
47.91612413494074
 10
41.033233728372444
 20
47.881648016431924
 10
40.983012810496966
 20
47.852786404500044
 10
40.92979097022617
 20
47.82992663735879
 10
40.87428247302066
 20
47.81337550526614
 10
40.817232272495765
 20
47.80335513323556
 10
40.759406012746986
 20
47.8
 10
39.959406012746975
 20
47.8
 10
39.959406012746975
 20
44.153553390593274
 10
39.975881930791026
 20
44.13537501633755
 10
39.990496720525975
 20
44.11566925355154
 10
40.00310963353743
 20
44.094625879503134
 10
40.01359920057816
 20
44.07244755338791
 10
40.02186440138339
 20
44.049347864610255
 10
40.02782563755115
 20
44.02554927580067
 10
40.03142549911839
 20
44.00128098037903
 10
40.03262931745035
 20
43.976776695296635
 10
40.03142549911839
 20
43.95227241021425
 10
40.02782563755115
 20
43.92800411479261
 10
40.02186440138339
 20
43.90420552598302
 10
40.01359920057816
 20
43.88110583720536
 10
40.00310963353743
 20
43.85892751109014
 10
39.990496720525975
 20
43.83788413704173
 10
39.975881930791026
 20
43.81817837425572
 10
39.959406012746975
 20
43.8
 10
39.94122763849125
 20
43.78352408195595
 10
39.921521875705245
 20
43.768909292221
 10
39.90047850165684
 20
43.756296379209545
 10
39.87830017554162
 20
43.745806812168816
 10
39.855200486763955
 20
43.73754161136358
 10
39.83140189795437
 20
43.73158037519583
 10
39.80713360253274
 20
43.72798051362859
 10
39.78262931745035
 20
43.726776695296635
 10
39.75812503236795
 20
43.72798051362859
 10
39.733856736946315
 20
43.73158037519583
 10
39.71005814813673
 20
43.73754161136358
 10
39.68695845935907
 20
43.745806812168816
 10
39.664780133243845
 20
43.756296379209545
 10
39.64373675919544
 20
43.768909292221
 10
39.62403099640944
 20
43.78352408195595
 10
39.60585262215371
 20
43.8
 10
38.697959403340256
 20
43.8
 10
38.67978102908453
 20
43.78352408195595
 10
38.66007526629851
 20
43.768909292221
 10
38.639031892250124
 20
43.756296379209545
 10
38.616853566134886
 20
43.745806812168816
 10
38.59375387735724
 20
43.73754161136358
 10
38.56995528854765
 20
43.73158037519583
 10
38.545686993126004
 20
43.72798051362859
 10
38.52118270804362
 20
43.726776695296635
 10
38.49667842296123
 20
43.72798051362859
 10
38.47241012753958
 20
43.73158037519583
 10
38.44861153873
 20
43.73754161136358
 10
38.42551184995235
 20
43.745806812168816
 10
38.40333352383711
 20
43.756296379209545
 10
38.38229014978872
 20
43.768909292221
 10
38.362584387002705
 20
43.78352408195595
 10
38.34440601274698
 20
43.8
 10
38.32793009470293
 20
43.81817837425572
 10
38.31331530496798
 20
43.83788413704173
 10
38.30070239195653
 20
43.85892751109014
 10
38.29021282491579
 20
43.88110583720536
 10
38.281947624110565
 20
43.90420552598302
 10
38.275986387942815
 20
43.92800411479261
 10
38.27238652637556
 20
43.95227241021425
 10
38.27118270804362
 20
43.976776695296635
 10
38.27238652637556
 20
44.00128098037903
 10
38.275986387942815
 20
44.02554927580067
 10
38.281947624110565
 20
44.049347864610255
 10
38.29021282491579
 20
44.07244755338791
 10
38.30070239195653
 20
44.094625879503134
 10
38.31331530496798
 20
44.11566925355154
 10
38.32793009470293
 20
44.13537501633755
 10
38.34440601274698
 20
44.153553390593274
 10
38.34440601274698
 20
47.8
 10
37.54440601274698
 20
47.8
 10
37.486579752998196
 20
47.80335513323556
 10
37.4295295524733
 20
47.81337550526614
 10
37.37402105526779
 20
47.82992663735879
 10
37.320799214996995
 20
47.852786404500044
 10
37.27057829712152
 20
47.881648016431924
 10
37.2240322931241
 20
47.91612413494074
 10
37.181785875184694
 20
47.95575207214231
 10
37.14440601274698
 20
48.0
 10
41.15940601274698
 20
48.0
  0
LINE
  5
47
330
17
100
AcDbEntity
  8
BRACKET_CUT_LINE
 62
4
100
AcDbLine
 10
40.55940601274698
 20
7.795000000000002
 30
0.0
 11
40.55940601274698
 21
6.18
 31
0.0
  0
LINE
  5
48
330
17
100
AcDbEntity
  8
BRACKET_CUT_LINE
 62
4
100
AcDbLine
 10
40.55940601274698
 20
23.42
 30
0.0
 11
40.55940601274698
 21
21.805
 31
0.0
  0
LINE
  5
49
330
17
100
AcDbEntity
  8
BRACKET_CUT_LINE
 62
4
100
AcDbLine
 10
40.55940601274698
 20
39.669999999999995
 30
0.0
 11
40.55940601274698
 21
38.055
 31
0.0
  0
LINE
  5
4A
330
17
100
AcDbEntity
  8
BRACKET_CUT_LINE
 62
4
100
AcDbLine
 10
28.954406012746983
 20
0.20000000000000284
 30
0.0
 11
27.339406012746988
 21
0.20000000000000284
 31
0.0
  0
LINE
  5
4B
330
17
100
AcDbEntity
  8
BRACKET_CUT_LINE
 62
4
100
AcDbLine
 10
27.339406012746988
 20
47.8
 30
0.0
 11
28.954406012746983
 21
47.8
 31
0.0
  0
LINE
  5
4C
330
17
100
AcDbEntity
  8
BRACKET_CUT_LINE
 62
4
100
AcDbLine
 10
39.959406012746975
 20
0.20000000000000284
 30
0.0
 11
38.34440601274698
 21
0.20000000000000284
 31
0.0
  0
LINE
  5
4D
330
17
100
AcDbEntity
  8
BRACKET_CUT_LINE
 62
4
100
AcDbLine
 10
38.34440601274698
 20
47.8
 30
0.0
 11
39.959406012746975
 21
47.8
 31
0.0
  0
LWPOLYLINE
  5
4E
330
17
100
AcDbEntity
  8
SHELF_B
 62
3
100
AcDbPolyline
 90
96
 70
1
 10
41.259406012746986
 20
48.0
 10
41.259406012746986
 20
0.0
 10
61.52914716625277
 20
0.0
 10
61.52914716625277
 20
8.112607974598767
 10
61.52914716625277
 20
8.112607974598767
 10
61.44503061988539
 20
8.221849507616653
 10
61.36602211210175
 20
8.33484048781719
 10
61.29228852033452
 20
8.451342261855089
 10
61.22398558062832
 20
8.571108761079067
 10
61.161257558702644
 20
8.693887021264516
 10
61.10423694524168
 20
8.819417716910678
 10
61.05304417605482
 20
8.947435708973728
 10
61.0077873776987
 20
9.07767060487889
 10
60.96856213909825
 20
9.2098473296288
 10
60.935451309649025
 20
9.343686706801805
 10
60.90852482422723
 20
9.478906048213098
 10
60.887839555477136
 20
9.615219750993163
 10
60.873439193687794
 20
9.752339900822463
 10
60.865354154512815
 20
9.889976880048302
 10
60.86360151472809
 20
10.027839979399289
 10
60.868184976163136
 20
10.165638012005523
 10
60.87909485788234
 20
10.3030799284275
 10
60.8963081166325
 20
10.439875431394796
 10
60.91978839551344
 20
10.575735588955972
 10
60.91978839551345
 20
10.575735588955972
 10
61.022240789957365
 20
11.134782586995343
 10
61.10838186856611
 20
11.693829585034713
 10
61.176369719589516
 20
12.252876583074084
 10
61.224750592695116
 20
12.811923581113454
 10
61.25248998378688
 20
13.370970579152825
 10
61.25899475529074
 20
13.930017577192203
 10
61.244125818919684
 20
14.489064575231573
 10
61.20820110972929
 20
15.048111573270944
 10
61.151988787870856
 20
15.607158571310315
 10
61.076690813405804
 20
16.166205569349685
 10
60.98391724539271
 20
16.725252567389056
 10
60.87565181479695
 20
17.284299565428427
 10
60.75420950736019
 20
17.843346563467797
 10
60.622187063414046
 20
18.402393561507168
 10
60.48240745307588
 20
18.961440559546542
 10
60.33785951408572
 20
19.520487557585913
 10
60.19163404297859
 20
20.079534555625283
 10
60.046857706122665
 20
20.638581553664658
 10
59.90662618377068
 20
21.197628551704028
 10
59.77393797667206
 20
21.7566755497434
 10
59.651630290625775
 20
22.31572254778277
 10
59.54231836992298
 20
22.87476954582214
 10
59.4483395768817
 20
23.43381654386151
 10
59.37170341319338
 20
23.99286354190088
 10
59.314048551749806
 20
24.551910539940252
 10
59.27660779771735
 20
25.110957537979626
 10
59.260181728078564
 20
25.670004536018997
 10
59.2651215732936
 20
26.229051534058367
 10
59.29132170711429
 20
26.788098532097738
 10
59.33822190513763
 20
27.347145530137112
 10
59.40481932380487
 20
27.906192528176483
 10
59.48968994370561
 20
28.465239526215854
 10
59.591019018675034
 20
29.024286524255224
 10
59.70663987960668
 20
29.583333522294595
 10
59.83408026325807
 20
30.14238052033397
 10
59.970615175423376
 20
30.70142751837334
 10
60.113325158126386
 20
31.26047451641271
 10
60.25915871493532
 20
31.81952151445208
 10
60.4049975595901
 20
32.378568512491455
 10
60.547723292763294
 20
32.937615510530826
 10
60.68428408123865
 20
33.496662508570196
 10
60.81175991373973
 20
34.05570950660957
 10
60.92742503807562
 20
34.61475650464894
 10
61.02880624454152
 20
35.17380350268831
 10
61.113735749329166
 20
35.73285050072768
 10
61.18039754716757
 20
36.29189749876706
 10
61.227366242058565
 20
36.85094449680642
 10
61.25363752580907
 20
37.4099914948458
 10
61.25864965265256
 20
37.96903849288516
 10
61.25864965265256
 20
37.96903849288516
 10
61.2599542540206
 20
38.0931632877883
 10
61.26639257790505
 20
38.217127858049466
 10
61.27795360141847
 20
38.340719967141425
 10
61.294617531232205
 20
38.463728016218056
 10
61.31635583746399
 20
38.58594140638725
 10
61.34313130252325
 20
38.70715089927183
 10
61.37489808483035
 20
38.82714897524111
 10
61.4116017973008
 20
38.94573018869991
 10
61.45317960045992
 20
39.06269151982664
 10
61.499560310028755
 20
39.17783272215825
 10
61.550664518796765
 20
39.290956665427004
 10
61.606404732572884
 20
39.40186967306212
 10
61.66668551998205
 20
39.51038185377842
 10
61.73140367585079
 20
39.61630742668424
 10
61.800448397902116
 20
39.71946503935209
 10
61.87370147645725
 20
39.81967807830746
 10
61.95103749681931
 20
39.91677497140418
 10
62.03232405399262
 20
40.01058948156858
 10
62.1174219793698
 20
40.100960991409764
 10
62.1174219793698
 20
48.0
 10
41.259406012746986
 20
48.0
  0
LWPOLYLINE
  5
4F
330
17
100
AcDbEntity
  8
BRACKET_OUTLINE
 62
6
100
AcDbPolyline
 90
87
 70
1
 10
41.259406012746986
 20
43.4
 10
41.303653940604676
 20
43.36262013756228
 10
41.34328187780625
 20
43.320373719622886
 10
41.37775799631506
 20
43.27382771562546
 10
41.40661960824694
 20
43.22360679774998
 10
41.4294793753882
 20
43.170384957479186
 10
41.44603050748085
 20
43.11487646027368
 10
41.45605087951142
 20
43.057826259748786
 10
41.45940601274699
 20
43.0
 10
41.45940601274699
 20
41.82
 10
51.10585262215371
 20
41.82
 10
51.12403099640944
 20
41.83647591804405
 10
51.14373675919545
 20
41.851090707779
 10
51.16478013324385
 20
41.86370362079045
 10
51.186958459359076
 20
41.87419318783119
 10
51.21005814813673
 20
41.882458388636415
 10
51.233856736946315
 20
41.88841962480417
 10
51.25812503236796
 20
41.89201948637141
 10
51.28262931745035
 20
41.89322330470336
 10
51.30713360253274
 20
41.89201948637141
 10
51.33140189795438
 20
41.88841962480417
 10
51.35520048676396
 20
41.882458388636415
 10
51.37830017554162
 20
41.87419318783119
 10
51.40047850165685
 20
41.86370362079045
 10
51.421521875705245
 20
41.851090707779
 10
51.44122763849126
 20
41.83647591804405
 10
51.45940601274699
 20
41.82
 10
51.47588193079103
 20
41.801821625744275
 10
51.49049672052599
 20
41.782115862958264
 10
51.50310963353744
 20
41.76107248890986
 10
51.51359920057817
 20
41.73889416279464
 10
51.521864401383404
 20
41.71579447401698
 10
51.52782563755115
 20
41.6919958852074
 10
51.5314254991184
 20
41.667727589785756
 10
51.53262931745035
 20
41.64322330470336
 10
51.5314254991184
 20
41.618719019620976
 10
51.52782563755115
 20
41.59445072419933
 10
51.521864401383404
 20
41.57065213538975
 10
51.51359920057817
 20
41.547552446612094
 10
51.50310963353744
 20
41.52537412049686
 10
51.49049672052599
 20
41.50433074644847
 10
51.47588193079103
 20
41.48462498366246
 10
51.45940601274699
 20
41.46644660940673
 10
51.45940601274699
 20
40.558553390593275
 10
51.47588193079103
 20
40.54037501633755
 10
51.49049672052599
 20
40.52066925355154
 10
51.50310963353744
 20
40.499625879503135
 10
51.51359920057817
 20
40.47744755338791
 10
51.521864401383404
 20
40.454347864610256
 10
51.52782563755115
 20
40.43054927580067
 10
51.5314254991184
 20
40.40628098037903
 10
51.53262931745035
 20
40.38177669529664
 10
51.5314254991184
 20
40.35727241021425
 10
51.52782563755115
 20
40.33300411479261
 10
51.521864401383404
 20
40.309205525983025
 10
51.51359920057817
 20
40.28610583720537
 10
51.50310963353744
 20
40.26392751109014
 10
51.49049672052599
 20
40.24288413704174
 10
51.47588193079103
 20
40.223178374255724
 10
51.45940601274699
 20
40.205
 10
51.44122763849126
 20
40.188524081955954
 10
51.421521875705245
 20
40.173909292221005
 10
51.40047850165685
 20
40.16129637920955
 10
51.37830017554162
 20
40.15080681216882
 10
51.35520048676396
 20
40.14254161136358
 10
51.33140189795438
 20
40.136580375195834
 10
51.30713360253274
 20
40.13298051362859
 10
51.28262931745035
 20
40.13177669529664
 10
51.25812503236796
 20
40.13298051362859
 10
51.233856736946315
 20
40.136580375195834
 10
51.21005814813673
 20
40.14254161136358
 10
51.186958459359076
 20
40.15080681216882
 10
51.16478013324385
 20
40.16129637920955
 10
51.14373675919545
 20
40.173909292221005
 10
51.12403099640944
 20
40.188524081955954
 10
51.10585262215371
 20
40.205
 10
41.45940601274699
 20
40.205
 10
41.45940601274699
 20
39.025
 10
41.45605087951142
 20
38.96717374025122
 10
41.44603050748085
 20
38.91012353972632
 10
41.4294793753882
 20
38.85461504252081
 10
41.40661960824694
 20
38.801393202250026
 10
41.37775799631506
 20
38.75117228437455
 10
41.34328187780625
 20
38.70462628037711
 10
41.303653940604676
 20
38.66237986243772
 10
41.259406012746986
 20
38.625
 10
41.259406012746986
 20
43.4
  0
LWPOLYLINE
  5
50
330
17
100
AcDbEntity
  8
BRACKET_OUTLINE
 62
6
100
AcDbPolyline
 90
87
 70
1
 10
41.259406012746986
 20
27.775
 10
41.303653940604676
 20
27.73762013756228
 10
41.34328187780625
 20
27.695373719622882
 10
41.37775799631506
 20
27.64882771562546
 10
41.40661960824694
 20
27.59860679774998
 10
41.4294793753882
 20
27.545384957479186
 10
41.44603050748085
 20
27.48987646027368
 10
41.45605087951142
 20
27.432826259748783
 10
41.45940601274699
 20
27.375
 10
41.45940601274699
 20
26.195
 10
51.10585262215371
 20
26.195
 10
51.12403099640944
 20
26.211475918044048
 10
51.14373675919545
 20
26.226090707779
 10
51.16478013324385
 20
26.238703620790453
 10
51.186958459359076
 20
26.249193187831185
 10
51.21005814813673
 20
26.257458388636415
 10
51.233856736946315
 20
26.263419624804172
 10
51.25812503236796
 20
26.267019486371414
 10
51.28262931745035
 20
26.268223304703362
 10
51.30713360253274
 20
26.267019486371414
 10
51.33140189795438
 20
26.263419624804172
 10
51.35520048676396
 20
26.257458388636415
 10
51.37830017554162
 20
26.249193187831185
 10
51.40047850165685
 20
26.238703620790453
 10
51.421521875705245
 20
26.226090707779
 10
51.44122763849126
 20
26.211475918044048
 10
51.45940601274699
 20
26.195
 10
51.47588193079103
 20
26.176821625744275
 10
51.49049672052599
 20
26.157115862958264
 10
51.50310963353744
 20
26.136072488909864
 10
51.51359920057817
 20
26.113894162794637
 10
51.521864401383404
 20
26.090794474016977
 10
51.52782563755115
 20
26.066995885207394
 10
51.5314254991184
 20
26.042727589785752
 10
51.53262931745035
 20
26.018223304703362
 10
51.5314254991184
 20
25.993719019620972
 10
51.52782563755115
 20
25.96945072419933
 10
51.521864401383404
 20
25.945652135389746
 10
51.51359920057817
 20
25.92255244661209
 10
51.50310963353744
 20
25.900374120496863
 10
51.49049672052599
 20
25.879330746448463
 10
51.47588193079103
 20
25.859624983662453
 10
51.45940601274699
 20
25.841446609406727
 10
51.45940601274699
 20
24.933553390593275
 10
51.47588193079103
 20
24.91537501633755
 10
51.49049672052599
 20
24.89566925355154
 10
51.50310963353744
 20
24.87462587950314
 10
51.51359920057817
 20
24.85244755338791
 10
51.521864401383404
 20
24.829347864610252
 10
51.52782563755115
 20
24.80554927580067
 10
51.5314254991184
 20
24.781280980379027
 10
51.53262931745035
 20
24.756776695296637
 10
51.5314254991184
 20
24.732272410214247
 10
51.52782563755115
 20
24.708004114792605
 10
51.521864401383404
 20
24.68420552598302
 10
51.51359920057817
 20
24.661105837205366
 10
51.50310963353744
 20
24.638927511090138
 10
51.49049672052599
 20
24.617884137041738
 10
51.47588193079103
 20
24.598178374255728
 10
51.45940601274699
 20
24.580000000000002
 10
51.44122763849126
 20
24.563524081955954
 10
51.421521875705245
 20
24.548909292221
 10
51.40047850165685
 20
24.53629637920955
 10
51.37830017554162
 20
24.525806812168817
 10
51.35520048676396
 20
24.517541611363587
 10
51.33140189795438
 20
24.51158037519583
 10
51.30713360253274
 20
24.50798051362859
 10
51.28262931745035
 20
24.506776695296637
 10
51.25812503236796
 20
24.50798051362859
 10
51.233856736946315
 20
24.51158037519583
 10
51.21005814813673
 20
24.517541611363587
 10
51.186958459359076
 20
24.525806812168817
 10
51.16478013324385
 20
24.53629637920955
 10
51.14373675919545
 20
24.548909292221
 10
51.12403099640944
 20
24.563524081955954
 10
51.10585262215371
 20
24.580000000000002
 10
41.45940601274699
 20
24.58
 10
41.45940601274699
 20
23.4
 10
41.45605087951142
 20
23.342173740251216
 10
41.44603050748085
 20
23.285123539726317
 10
41.4294793753882
 20
23.229615042520813
 10
41.40661960824694
 20
23.17639320225002
 10
41.37775799631506
 20
23.12617228437454
 10
41.34328187780625
 20
23.079626280377116
 10
41.303653940604676
 20
23.037379862437717
 10
41.259406012746986
 20
23.0
 10
41.259406012746986
 20
27.775
  0
LWPOLYLINE
  5
51
330
17
100
AcDbEntity
  8
BRACKET_OUTLINE
 62
6
100
AcDbPolyline
 90
87
 70
1
 10
41.259406012746986
 20
11.525000000000006
 10
41.303653940604676
 20
11.487620137562281
 10
41.34328187780625
 20
11.445373719622886
 10
41.37775799631506
 20
11.398827715625458
 10
41.40661960824694
 20
11.34860679774998
 10
41.4294793753882
 20
11.295384957479186
 10
41.44603050748085
 20
11.239876460273685
 10
41.45605087951142
 20
11.182826259748786
 10
41.45940601274699
 20
11.125
 10
41.45940601274699
 20
9.945
 10
51.10585262215371
 20
9.945000000000007
 10
51.12403099640944
 20
9.961475918044052
 10
51.14373675919545
 20
9.976090707779
 10
51.16478013324385
 20
9.988703620790453
 10
51.186958459359076
 20
9.999193187831189
 10
51.21005814813673
 20
10.007458388636422
 10
51.233856736946315
 20
10.013419624804172
 10
51.25812503236796
 20
10.017019486371417
 10
51.28262931745035
 20
10.018223304703369
 10
51.30713360253274
 20
10.017019486371417
 10
51.33140189795438
 20
10.013419624804172
 10
51.35520048676396
 20
10.007458388636422
 10
51.37830017554162
 20
9.999193187831189
 10
51.40047850165685
 20
9.988703620790453
 10
51.421521875705245
 20
9.976090707779
 10
51.44122763849126
 20
9.961475918044052
 10
51.45940601274699
 20
9.945000000000007
 10
51.47588193079103
 20
9.926821625744282
 10
51.49049672052599
 20
9.907115862958271
 10
51.50310963353744
 20
9.886072488909868
 10
51.51359920057817
 20
9.863894162794637
 10
51.521864401383404
 20
9.840794474016981
 10
51.52782563755115
 20
9.816995885207398
 10
51.5314254991184
 20
9.792727589785756
 10
51.53262931745035
 20
9.768223304703369
 10
51.5314254991184
 20
9.743719019620976
 10
51.52782563755115
 20
9.719450724199334
 10
51.521864401383404
 20
9.69565213538975
 10
51.51359920057817
 20
9.672552446612094
 10
51.50310963353744
 20
9.65037412049687
 10
51.49049672052599
 20
9.629330746448467
 10
51.47588193079103
 20
9.609624983662457
 10
51.45940601274699
 20
9.59144660940673
 10
51.45940601274699
 20
8.683553390593275
 10
51.47588193079103
 20
8.66537501633755
 10
51.49049672052599
 20
8.645669253551539
 10
51.50310963353744
 20
8.624625879503142
 10
51.51359920057817
 20
8.602447553387911
 10
51.521864401383404
 20
8.579347864610256
 10
51.52782563755115
 20
8.555549275800672
 10
51.5314254991184
 20
8.53128098037903
 10
51.53262931745035
 20
8.506776695296644
 10
51.5314254991184
 20
8.48227241021425
 10
51.52782563755115
 20
8.458004114792608
 10
51.521864401383404
 20
8.434205525983025
 10
51.51359920057817
 20
8.411105837205369
 10
51.50310963353744
 20
8.388927511090145
 10
51.49049672052599
 20
8.367884137041742
 10
51.47588193079103
 20
8.348178374255731
 10
51.45940601274699
 20
8.330000000000005
 10
51.44122763849126
 20
8.313524081955954
 10
51.421521875705245
 20
8.298909292221005
 10
51.40047850165685
 20
8.286296379209553
 10
51.37830017554162
 20
8.275806812168817
 10
51.35520048676396
 20
8.26754161136359
 10
51.33140189795438
 20
8.261580375195834
 10
51.30713360253274
 20
8.257980513628588
 10
51.28262931745035
 20
8.256776695296644
 10
51.25812503236796
 20
8.257980513628588
 10
51.233856736946315
 20
8.261580375195834
 10
51.21005814813673
 20
8.26754161136359
 10
51.186958459359076
 20
8.275806812168817
 10
51.16478013324385
 20
8.286296379209553
 10
51.14373675919545
 20
8.298909292221005
 10
51.12403099640944
 20
8.313524081955954
 10
51.10585262215371
 20
8.330000000000005
 10
41.45940601274699
 20
8.330000000000005
 10
41.45940601274699
 20
7.150000000000006
 10
41.45605087951142
 20
7.092173740251219
 10
41.44603050748085
 20
7.035123539726321
 10
41.4294793753882
 20
6.97961504252082
 10
41.40661960824694
 20
6.926393202250026
 10
41.37775799631506
 20
6.876172284374547
 10
41.34328187780625
 20
6.82962628037712
 10
41.303653940604676
 20
6.787379862437724
 10
41.259406012746986
 20
6.75
 10
41.259406012746986
 20
11.525000000000006
  0
LWPOLYLINE
  5
52
330
17
100
AcDbEntity
  8
BRACKET_OUTLINE
 62
6
100
AcDbPolyline
 90
87
 70
1
 10
56.259406012746986
 20
48.0
 10
56.22202615030926
 20
47.95575207214231
 10
56.179779732369866
 20
47.91612413494074
 10
56.13323372837244
 20
47.881648016431924
 10
56.08301281049696
 20
47.852786404500044
 10
56.029790970226166
 20
47.82992663735879
 10
55.974282473020665
 20
47.81337550526614
 10
55.91723227249577
 20
47.80335513323556
 10
55.85940601274698
 20
47.8
 10
54.67940601274698
 20
47.8
 10
54.67940601274698
 20
38.153553390593274
 10
54.69588193079103
 20
38.13537501633755
 10
54.71049672052598
 20
38.11566925355154
 10
54.72310963353743
 20
38.094625879503134
 10
54.73359920057817
 20
38.07244755338791
 10
54.741864401383395
 20
38.049347864610255
 10
54.74782563755115
 20
38.02554927580067
 10
54.7514254991184
 20
38.00128098037903
 10
54.75262931745034
 20
37.976776695296635
 10
54.7514254991184
 20
37.95227241021425
 10
54.74782563755115
 20
37.92800411479261
 10
54.741864401383395
 20
37.90420552598302
 10
54.73359920057817
 20
37.88110583720537
 10
54.72310963353743
 20
37.85892751109014
 10
54.71049672052598
 20
37.83788413704174
 10
54.69588193079103
 20
37.81817837425572
 10
54.67940601274698
 20
37.8
 10
54.661227638491255
 20
37.78352408195595
 10
54.641521875705244
 20
37.768909292221
 10
54.62047850165685
 20
37.756296379209545
 10
54.59830017554162
 20
37.745806812168816
 10
54.57520048676396
 20
37.73754161136358
 10
54.55140189795438
 20
37.73158037519583
 10
54.527133602532736
 20
37.72798051362859
 10
54.50262931745034
 20
37.726776695296635
 10
54.478125032367956
 20
37.72798051362859
 10
54.453856736946314
 20
37.73158037519583
 10
54.43005814813673
 20
37.73754161136358
 10
54.406958459359075
 20
37.745806812168816
 10
54.384780133243844
 20
37.756296379209545
 10
54.36373675919545
 20
37.768909292221
 10
54.34403099640944
 20
37.78352408195595
 10
54.32585262215371
 20
37.8
 10
53.417959403340255
 20
37.8
 10
53.39978102908453
 20
37.78352408195595
 10
53.38007526629852
 20
37.768909292221
 10
53.35903189225012
 20
37.756296379209545
 10
53.33685356613489
 20
37.745806812168816
 10
53.313753877357236
 20
37.73754161136358
 10
53.28995528854765
 20
37.73158037519583
 10
53.26568699312601
 20
37.72798051362859
 10
53.24118270804362
 20
37.726776695296635
 10
53.21667842296123
 20
37.72798051362859
 10
53.19241012753959
 20
37.73158037519583
 10
53.168611538730005
 20
37.73754161136358
 10
53.14551184995235
 20
37.745806812168816
 10
53.12333352383712
 20
37.756296379209545
 10
53.10229014978872
 20
37.768909292221
 10
53.08258438700271
 20
37.78352408195595
 10
53.064406012746986
 20
37.8
 10
53.047930094702934
 20
37.81817837425572
 10
53.033315304967985
 20
37.83788413704174
 10
53.02070239195653
 20
37.85892751109014
 10
53.0102128249158
 20
37.88110583720537
 10
53.00194762411057
 20
37.90420552598302
 10
52.995986387942814
 20
37.92800411479261
 10
52.99238652637557
 20
37.95227241021425
 10
52.99118270804362
 20
37.976776695296635
 10
52.99238652637557
 20
38.00128098037903
 10
52.995986387942814
 20
38.02554927580067
 10
53.00194762411057
 20
38.049347864610255
 10
53.0102128249158
 20
38.07244755338791
 10
53.02070239195653
 20
38.094625879503134
 10
53.033315304967985
 20
38.11566925355154
 10
53.047930094702934
 20
38.13537501633755
 10
53.064406012746986
 20
38.153553390593274
 10
53.064406012746986
 20
47.8
 10
51.884406012746986
 20
47.8
 10
51.8265797529982
 20
47.80335513323556
 10
51.7695295524733
 20
47.81337550526614
 10
51.7140210552678
 20
47.82992663735879
 10
51.660799214997006
 20
47.852786404500044
 10
51.61057829712153
 20
47.881648016431924
 10
51.5640322931241
 20
47.91612413494074
 10
51.521785875184705
 20
47.95575207214231
 10
51.48440601274698
 20
48.0
 10
56.259406012746986
 20
48.0
  0
LWPOLYLINE
  5
53
330
17
100
AcDbEntity
  8
BRACKET_OUTLINE
 62
6
100
AcDbPolyline
 90
87
 70
1
 10
51.48440601274698
 20
0.0
 10
51.521785875184705
 20
0.04424792785768972
 10
51.5640322931241
 20
0.08387586505926237
 10
51.61057829712153
 20
0.11835198356807552
 10
51.660799214997006
 20
0.14721359549995583
 10
51.7140210552678
 20
0.17007336264121165
 10
51.7695295524733
 20
0.1866244947338629
 10
51.8265797529982
 20
0.19664486676443715
 10
51.884406012746986
 20
0.20000000000000284
 10
53.064406012746986
 20
0.20000000000000284
 10
53.064406012746986
 20
9.846446609406726
 10
53.047930094702934
 20
9.864624983662452
 10
53.033315304967985
 20
9.884330746448462
 10
53.02070239195653
 20
9.905374120496866
 10
53.0102128249158
 20
9.92755244661209
 10
53.00194762411057
 20
9.950652135389745
 10
52.995986387942814
 20
9.974450724199329
 10
52.99238652637557
 20
9.998719019620971
 10
52.99118270804362
 20
10.023223304703365
 10
52.99238652637557
 20
10.047727589785751
 10
52.995986387942814
 20
10.071995885207393
 10
53.001947624110564
 20
10.095794474016976
 10
53.0102128249158
 20
10.118894162794632
 10
53.02070239195653
 20
10.141072488909863
 10
53.033315304967985
 20
10.16211586295826
 10
53.047930094702934
 20
10.181821625744277
 10
53.064406012746986
 20
10.200000000000003
 10
53.08258438700271
 20
10.216475918044047
 10
53.10229014978872
 20
10.231090707779003
 10
53.12333352383712
 20
10.243703620790455
 10
53.14551184995235
 20
10.254193187831184
 10
53.168611538730005
 20
10.262458388636418
 10
53.19241012753959
 20
10.268419624804167
 10
53.21667842296123
 20
10.272019486371413
 10
53.24118270804362
 20
10.273223304703365
 10
53.26568699312601
 20
10.272019486371413
 10
53.28995528854765
 20
10.268419624804167
 10
53.313753877357236
 20
10.262458388636418
 10
53.33685356613489
 20
10.254193187831184
 10
53.35903189225012
 20
10.243703620790455
 10
53.38007526629852
 20
10.231090707779003
 10
53.39978102908453
 20
10.216475918044047
 10
53.417959403340255
 20
10.200000000000003
 10
54.32585262215371
 20
10.200000000000003
 10
54.34403099640944
 20
10.216475918044047
 10
54.36373675919545
 20
10.231090707779003
 10
54.384780133243844
 20
10.243703620790455
 10
54.406958459359075
 20
10.254193187831184
 10
54.43005814813673
 20
10.262458388636418
 10
54.453856736946314
 20
10.268419624804167
 10
54.478125032367956
 20
10.272019486371413
 10
54.50262931745034
 20
10.273223304703365
 10
54.527133602532736
 20
10.272019486371413
 10
54.55140189795438
 20
10.268419624804167
 10
54.57520048676396
 20
10.262458388636418
 10
54.59830017554162
 20
10.254193187831184
 10
54.62047850165685
 20
10.243703620790455
 10
54.641521875705244
 20
10.231090707779003
 10
54.661227638491255
 20
10.216475918044047
 10
54.67940601274698
 20
10.200000000000003
 10
54.69588193079103
 20
10.181821625744277
 10
54.71049672052598
 20
10.16211586295826
 10
54.72310963353743
 20
10.141072488909863
 10
54.73359920057817
 20
10.118894162794632
 10
54.741864401383395
 20
10.095794474016976
 10
54.74782563755115
 20
10.071995885207393
 10
54.7514254991184
 20
10.047727589785751
 10
54.75262931745034
 20
10.023223304703365
 10
54.7514254991184
 20
9.998719019620971
 10
54.74782563755115
 20
9.974450724199329
 10
54.741864401383395
 20
9.950652135389745
 10
54.73359920057817
 20
9.92755244661209
 10
54.72310963353743
 20
9.905374120496866
 10
54.71049672052598
 20
9.884330746448462
 10
54.69588193079103
 20
9.864624983662452
 10
54.67940601274698
 20
9.846446609406726
 10
54.67940601274698
 20
0.20000000000000284
 10
55.85940601274698
 20
0.20000000000000284
 10
55.91723227249577
 20
0.19664486676443715
 10
55.974282473020665
 20
0.1866244947338629
 10
56.029790970226166
 20
0.17007336264121165
 10
56.08301281049696
 20
0.14721359549995583
 10
56.13323372837244
 20
0.11835198356807552
 10
56.179779732369866
 20
0.08387586505926237
 10
56.22202615030926
 20
0.04424792785768972
 10
56.259406012746986
 20
0.0
 10
51.48440601274698
 20
0.0
  0
LWPOLYLINE
  5
54
330
17
100
AcDbEntity
  8
BRACKET_OUTLINE
 62
6
100
AcDbPolyline
 90
87
 70
1
 10
44.87440601274699
 20
48.0
 10
44.83702615030927
 20
47.95575207214231
 10
44.79477973236987
 20
47.91612413494074
 10
44.74823372837245
 20
47.881648016431924
 10
44.69801281049697
 20
47.852786404500044
 10
44.644790970226175
 20
47.82992663735879
 10
44.58928247302067
 20
47.81337550526614
 10
44.53223227249577
 20
47.80335513323556
 10
44.47440601274699
 20
47.8
 10
43.674406012746985
 20
47.8
 10
43.674406012746985
 20
44.153553390593274
 10
43.690881930791036
 20
44.13537501633755
 10
43.705496720525986
 20
44.11566925355154
 10
43.71810963353744
 20
44.094625879503134
 10
43.728599200578174
 20
44.07244755338791
 10
43.7368644013834
 20
44.049347864610255
 10
43.74282563755116
 20
44.02554927580067
 10
43.7464254991184
 20
44.00128098037903
 10
43.747629317450354
 20
43.976776695296635
 10
43.7464254991184
 20
43.95227241021425
 10
43.74282563755116
 20
43.92800411479261
 10
43.7368644013834
 20
43.90420552598302
 10
43.728599200578174
 20
43.88110583720536
 10
43.71810963353744
 20
43.85892751109014
 10
43.705496720525986
 20
43.83788413704173
 10
43.690881930791036
 20
43.81817837425572
 10
43.674406012746985
 20
43.8
 10
43.65622763849126
 20
43.78352408195595
 10
43.63652187570525
 20
43.768909292221
 10
43.61547850165685
 20
43.756296379209545
 10
43.59330017554162
 20
43.745806812168816
 10
43.570200486763966
 20
43.73754161136358
 10
43.54640189795438
 20
43.73158037519583
 10
43.52213360253274
 20
43.72798051362859
 10
43.497629317450354
 20
43.726776695296635
 10
43.47312503236796
 20
43.72798051362859
 10
43.44885673694632
 20
43.73158037519583
 10
43.425058148136735
 20
43.73754161136358
 10
43.40195845935908
 20
43.745806812168816
 10
43.37978013324385
 20
43.756296379209545
 10
43.35873675919545
 20
43.768909292221
 10
43.33903099640944
 20
43.78352408195595
 10
43.320852622153716
 20
43.8
 10
42.41295940334026
 20
43.8
 10
42.394781029084534
 20
43.78352408195595
 10
42.37507526629852
 20
43.768909292221
 10
42.35403189225013
 20
43.756296379209545
 10
42.331853566134896
 20
43.745806812168816
 10
42.30875387735724
 20
43.73754161136358
 10
42.28495528854766
 20
43.73158037519583
 10
42.260686993126015
 20
43.72798051362859
 10
42.23618270804362
 20
43.726776695296635
 10
42.211678422961235
 20
43.72798051362859
 10
42.18741012753959
 20
43.73158037519583
 10
42.16361153873001
 20
43.73754161136358
 10
42.140511849952354
 20
43.745806812168816
 10
42.11833352383712
 20
43.756296379209545
 10
42.097290149788726
 20
43.768909292221
 10
42.077584387002716
 20
43.78352408195595
 10
42.05940601274699
 20
43.8
 10
42.04293009470294
 20
43.81817837425572
 10
42.02831530496799
 20
43.83788413704173
 10
42.01570239195654
 20
43.85892751109014
 10
42.0052128249158
 20
43.88110583720536
 10
41.996947624110575
 20
43.90420552598302
 10
41.99098638794282
 20
43.92800411479261
 10
41.98738652637557
 20
43.95227241021425
 10
41.98618270804362
 20
43.976776695296635
 10
41.98738652637557
 20
44.00128098037903
 10
41.99098638794282
 20
44.02554927580067
 10
41.996947624110575
 20
44.049347864610255
 10
42.0052128249158
 20
44.07244755338791
 10
42.01570239195654
 20
44.094625879503134
 10
42.02831530496799
 20
44.11566925355154
 10
42.04293009470294
 20
44.13537501633755
 10
42.05940601274699
 20
44.153553390593274
 10
42.05940601274699
 20
47.8
 10
41.259406012746986
 20
47.8
 10
41.20157975299821
 20
47.80335513323556
 10
41.14452955247331
 20
47.81337550526614
 10
41.0890210552678
 20
47.82992663735879
 10
41.035799214997006
 20
47.852786404500044
 10
40.98557829712153
 20
47.881648016431924
 10
40.93903229312411
 20
47.91612413494074
 10
40.896785875184705
 20
47.95575207214231
 10
40.85940601274699
 20
48.0
 10
44.87440601274699
 20
48.0
  0
LWPOLYLINE
  5
55
330
17
100
AcDbEntity
  8
BRACKET_OUTLINE
 62
6
100
AcDbPolyline
 90
87
 70
1
 10
40.85940601274699
 20
0.0
 10
40.896785875184705
 20
0.04424792785768972
 10
40.93903229312411
 20
0.08387586505926237
 10
40.98557829712153
 20
0.11835198356807552
 10
41.035799214997006
 20
0.14721359549995583
 10
41.0890210552678
 20
0.17007336264121165
 10
41.14452955247331
 20
0.1866244947338629
 10
41.20157975299821
 20
0.19664486676443715
 10
41.259406012746986
 20
0.20000000000000284
 10
42.05940601274699
 20
0.20000000000000284
 10
42.05940601274699
 20
3.8464466094067262
 10
42.04293009470294
 20
3.864624983662452
 10
42.02831530496799
 20
3.8843307464484624
 10
42.01570239195654
 20
3.905374120496866
 10
42.0052128249158
 20
3.92755244661209
 10
41.996947624110575
 20
3.9506521353897455
 10
41.99098638794282
 20
3.974450724199329
 10
41.98738652637557
 20
3.998719019620971
 10
41.98618270804362
 20
4.0232233047033645
 10
41.98738652637557
 20
4.047727589785751
 10
41.99098638794282
 20
4.071995885207393
 10
41.996947624110575
 20
4.0957944740169765
 10
42.0052128249158
 20
4.118894162794639
 10
42.01570239195654
 20
4.141072488909863
 10
42.02831530496799
 20
4.162115862958267
 10
42.04293009470294
 20
4.181821625744277
 10
42.05940601274699
 20
4.200000000000003
 10
42.077584387002716
 20
4.216475918044047
 10
42.097290149788726
 20
4.231090707779003
 10
42.11833352383712
 20
4.2437036207904555
 10
42.140511849952354
 20
4.254193187831184
 10
42.16361153873001
 20
4.262458388636418
 10
42.18741012753959
 20
4.268419624804167
 10
42.211678422961235
 20
4.272019486371413
 10
42.23618270804362
 20
4.2732233047033645
 10
42.260686993126015
 20
4.272019486371413
 10
42.28495528854766
 20
4.268419624804167
 10
42.30875387735724
 20
4.262458388636418
 10
42.331853566134896
 20
4.254193187831184
 10
42.35403189225013
 20
4.2437036207904555
 10
42.37507526629852
 20
4.231090707779003
 10
42.394781029084534
 20
4.216475918044047
 10
42.41295940334026
 20
4.200000000000003
 10
43.320852622153716
 20
4.200000000000003
 10
43.33903099640944
 20
4.216475918044047
 10
43.35873675919545
 20
4.231090707779003
 10
43.37978013324385
 20
4.2437036207904555
 10
43.40195845935908
 20
4.254193187831184
 10
43.425058148136735
 20
4.262458388636418
 10
43.44885673694632
 20
4.268419624804167
 10
43.47312503236796
 20
4.272019486371413
 10
43.497629317450354
 20
4.2732233047033645
 10
43.52213360253274
 20
4.272019486371413
 10
43.54640189795438
 20
4.268419624804167
 10
43.570200486763966
 20
4.262458388636418
 10
43.59330017554162
 20
4.254193187831184
 10
43.61547850165685
 20
4.2437036207904555
 10
43.63652187570525
 20
4.231090707779003
 10
43.65622763849126
 20
4.216475918044047
 10
43.674406012746985
 20
4.200000000000003
 10
43.690881930791036
 20
4.181821625744277
 10
43.705496720525986
 20
4.162115862958267
 10
43.71810963353744
 20
4.141072488909863
 10
43.728599200578174
 20
4.118894162794639
 10
43.7368644013834
 20
4.0957944740169765
 10
43.74282563755116
 20
4.071995885207393
 10
43.7464254991184
 20
4.047727589785751
 10
43.747629317450354
 20
4.0232233047033645
 10
43.7464254991184
 20
3.998719019620971
 10
43.74282563755116
 20
3.974450724199329
 10
43.7368644013834
 20
3.9506521353897455
 10
43.728599200578174
 20
3.92755244661209
 10
43.71810963353744
 20
3.905374120496866
 10
43.705496720525986
 20
3.8843307464484624
 10
43.690881930791036
 20
3.864624983662452
 10
43.674406012746985
 20
3.8464466094067262
 10
43.674406012746985
 20
0.20000000000000284
 10
44.47440601274699
 20
0.20000000000000284
 10
44.53223227249577
 20
0.19664486676443715
 10
44.58928247302067
 20
0.1866244947338629
 10
44.644790970226175
 20
0.17007336264121165
 10
44.69801281049697
 20
0.14721359549995583
 10
44.74823372837245
 20
0.11835198356807552
 10
44.79477973236987
 20
0.08387586505926237
 10
44.83702615030927
 20
0.04424792785768972
 10
44.87440601274699
 20
0.0
 10
40.85940601274699
 20
0.0
  0
LINE
  5
56
330
17
100
AcDbEntity
  8
BRACKET_CUT_LINE
 62
4
100
AcDbLine
 10
41.45940601274699
 20
40.205
 30
0.0
 11
41.45940601274699
 21
41.82
 31
0.0
  0
LINE
  5
57
330
17
100
AcDbEntity
  8
BRACKET_CUT_LINE
 62
4
100
AcDbLine
 10
41.45940601274699
 20
24.58
 30
0.0
 11
41.45940601274699
 21
26.195
 31
0.0
  0
LINE
  5
58
330
17
100
AcDbEntity
  8
BRACKET_CUT_LINE
 62
4
100
AcDbLine
 10
41.45940601274699
 20
8.330000000000005
 30
0.0
 11
41.45940601274699
 21
9.945
 31
0.0
  0
LINE
  5
59
330
17
100
AcDbEntity
  8
BRACKET_CUT_LINE
 62
4
100
AcDbLine
 10
53.064406012746986
 20
47.8
 30
0.0
 11
54.67940601274698
 21
47.8
 31
0.0
  0
LINE
  5
5A
330
17
100
AcDbEntity
  8
BRACKET_CUT_LINE
 62
4
100
AcDbLine
 10
54.67940601274698
 20
0.20000000000000284
 30
0.0
 11
53.064406012746986
 21
0.20000000000000284
 31
0.0
  0
LINE
  5
5B
330
17
100
AcDbEntity
  8
BRACKET_CUT_LINE
 62
4
100
AcDbLine
 10
42.05940601274699
 20
47.8
 30
0.0
 11
43.674406012746985
 21
47.8
 31
0.0
  0
LINE
  5
5C
330
17
100
AcDbEntity
  8
BRACKET_CUT_LINE
 62
4
100
AcDbLine
 10
43.674406012746985
 20
0.20000000000000284
 30
0.0
 11
42.05940601274699
 21
0.20000000000000284
 31
0.0
  0
LWPOLYLINE
  5
5D
330
17
100
AcDbEntity
  8
SHELF_B
 62
3
100
AcDbPolyline
 90
96
 70
1
 10
96.0
 20
0.0
 10
96.0
 20
48.0
 10
76.0374458949957
 20
48.0
 10
76.0374458949957
 20
40.05358130100344
 10
76.0374458949957
 20
40.05358130100344
 10
76.13339136931867
 20
39.93692995904032
 10
76.22334409949963
 20
39.81559745738538
 10
76.30707607466118
 20
39.689891347906155
 10
76.38437505220563
 20
39.56013026862798
 10
76.45504509580446
 20
39.42664313605486
 10
76.5189070720549
 20
39.289768311436724
 10
76.57579910454467
 20
39.14985274309625
 10
76.62557698417395
 20
39.007251086989214
 10
76.66811453469454
 20
38.862324807727774
 10
76.70330393253958
 20
38.71544126234519
 10
76.73105598013319
 20
38.56697276912451
 10
76.75130033198714
 20
38.41729566385163
 10
76.7639856730116
 20
38.266789345884746
 10
76.76907984858792
 20
38.115835316458394
 10
76.76656994607364
 20
37.96481621165961
 10
76.75646232753331
 20
37.81411483252757
 10
76.73878261361196
 20
37.66411317473502
 10
76.71357561859233
 20
37.51519146031118
 10
76.68090523680024
 20
37.36772717386047
 10
76.68090523680024
 20
37.36772717386047
 10
76.54585358422335
 20
36.80760465925888
 10
76.42055005098668
 20
36.24748214465729
 10
76.3076842406042
 20
35.687359630055695
 10
76.20967878452433
 20
35.12723711545411
 10
76.12863734105782
 20
34.56711460085251
 10
76.06629944097048
 20
34.00699208625092
 10
76.02400314896647
 20
33.44686957164933
 10
76.00265634252268
 20
32.886747057047735
 10
76.00271722456559
 20
32.32662454244614
 10
76.02418448828
 20
31.766502027844552
 10
76.06659734515958
 20
31.206379513242958
 10
76.12904541569662
 20
30.64625699864137
 10
76.21018827041063
 20
30.086134484039775
 10
76.3082842017732
 20
29.526011969438184
 10
76.42122760944821
 20
28.965889454836592
 10
76.54659419638419
 20
28.405766940234997
 10
76.68169300563801
 20
27.84564442563341
 10
76.82362418097483
 20
27.285521911031815
 10
76.96934121142985
 20
26.725399396430223
 10
77.11571632377085
 20
26.165276881828632
 10
77.25960761923136
 20
25.605154367227037
 10
77.39792651344419
 20
25.045031852625446
 10
77.52770403199726
 20
24.484909338023854
 10
77.64615453859665
 20
23.924786823422263
 10
77.75073552793103
 20
23.36466430882067
 10
77.83920219980088
 20
22.804541794219077
 10
77.90965564309502
 20
22.244419279617485
 10
77.96058359535952
 20
21.684296765015894
 10
77.99089290306686
 20
21.124174250414303
 10
77.99993298583504
 20
20.564051735812708
 10
77.98750980094437
 20
20.003929221211116
 10
77.95389000840728
 20
19.443806706609525
 10
77.89979524718973
 20
18.883684192007934
 10
77.82638664544265
 20
18.323561677406342
 10
77.73523989722764
 20
17.763439162804747
 10
77.62831144070695
 20
17.203316648203156
 10
77.50789646377333
 20
16.643194133601565
 10
77.3765796385165
 20
16.083071618999973
 10
77.23717964199633
 20
15.522949104398378
 10
77.09268865416823
 20
14.96282658979679
 10
76.94620813161976
 20
14.402704075195196
 10
76.80088223571656
 20
13.842581560593601
 10
76.65983034410263
 20
13.282459045992013
 10
76.52608009417607
 20
12.722336531390418
 10
76.40250239574212
 20
12.162214016788823
 10
76.29174980777796
 20
11.602091502187236
 10
76.19619960203387
 20
11.041968987585648
 10
76.11790273559376
 20
10.481846472984053
 10
76.05853982768417
 20
9.921723958382458
 10
76.05853982768417
 20
9.921723958382458
 10
76.04430551903299
 20
9.792490233896046
 10
76.02448510707947
 20
9.663994621685362
 10
75.99911581889813
 20
9.536478464651921
 10
75.96824530356828
 20
9.410181266065905
 10
75.93193154267867
 20
9.285340239726573
 10
75.8902427414253
 20
9.162189864422785
 10
75.84325720050718
 20
9.040961443530499
 10
75.79106316906044
 20
8.921882670574348
 10
75.73375867890715
 20
8.805177201569343
 10
75.67145136043005
 20
8.691064234945912
 10
75.60425824041914
 20
8.579758099847233
 10
75.53230552226977
 20
8.471467853572129
 10
75.45572834894494
 20
8.36639688891973
 10
75.37467054914733
 20
8.26474255217321
 10
75.28928436717737
 20
8.16669577244027
 10
75.19973017698523
 20
8.07244070304644
 10
75.10617618095331
 20
7.982154375654829
 10
75.0087980939754
 20
7.896006367761842
 10
74.9077788134256
 20
7.81415848419357
 10
74.9077788134256
 20
0.0
 10
96.0
 20
0.0
  0
LWPOLYLINE
  5
5E
330
17
100
AcDbEntity
  8
BRACKET_OUTLINE
 62
6
100
AcDbPolyline
 90
87
 70
1
 10
96.0
 20
4.600000000000001
 10
95.95575207214232
 20
4.637379862437719
 10
95.91612413494074
 20
4.679626280377114
 10
95.88164801643192
 20
4.726172284374542
 10
95.85278640450005
 20
4.77639320225002
 10
95.8299266373588
 20
4.829615042520814
 10
95.81337550526614
 20
4.885123539726322
 10
95.80335513323557
 20
4.942173740251214
 10
95.8
 20
5.0
 10
95.8
 20
6.18
 10
86.15355339059327
 20
6.18
 10
86.13537501633755
 20
6.1635240819559485
 10
86.11566925355154
 20
6.148909292220999
 10
86.09462587950314
 20
6.136296379209547
 10
86.07244755338792
 20
6.125806812168811
 10
86.04934786461025
 20
6.117541611363585
 10
86.02554927580067
 20
6.111580375195828
 10
86.00128098037904
 20
6.10798051362859
 10
85.97677669529664
 20
6.106776695296638
 10
85.95227241021425
 20
6.10798051362859
 10
85.92800411479261
 20
6.111580375195828
 10
85.90420552598303
 20
6.117541611363585
 10
85.88110583720537
 20
6.125806812168811
 10
85.85892751109014
 20
6.136296379209547
 10
85.83788413704174
 20
6.148909292220999
 10
85.81817837425572
 20
6.1635240819559485
 10
85.8
 20
6.18
 10
85.78352408195596
 20
6.1981783742557255
 10
85.768909292221
 20
6.217884137041736
 10
85.75629637920954
 20
6.238927511090139
 10
85.74580681216882
 20
6.261105837205363
 10
85.73754161136358
 20
6.284205525983019
 10
85.73158037519583
 20
6.3080041147926025
 10
85.7279805136286
 20
6.3322724102142445
 10
85.72677669529664
 20
6.356776695296638
 10
85.7279805136286
 20
6.3812809803790245
 10
85.73158037519583
 20
6.4055492758006665
 10
85.73754161136358
 20
6.42934786461025
 10
85.74580681216882
 20
6.4524475533879055
 10
85.75629637920954
 20
6.474625879503137
 10
85.768909292221
 20
6.495669253551533
 10
85.78352408195596
 20
6.5153750163375435
 10
85.8
 20
6.533553390593269
 10
85.8
 20
7.441446609406725
 10
85.78352408195596
 20
7.459624983662451
 10
85.768909292221
 20
7.479330746448461
 10
85.75629637920954
 20
7.500374120496865
 10
85.74580681216882
 20
7.522552446612089
 10
85.73754161136358
 20
7.545652135389744
 10
85.73158037519583
 20
7.569450724199328
 10
85.7279805136286
 20
7.59371901962097
 10
85.72677669529664
 20
7.618223304703363
 10
85.7279805136286
 20
7.64272758978575
 10
85.73158037519583
 20
7.666995885207392
 10
85.73754161136358
 20
7.690794474016975
 10
85.74580681216882
 20
7.713894162794631
 10
85.75629637920954
 20
7.736072488909862
 10
85.768909292221
 20
7.757115862958258
 10
85.78352408195596
 20
7.776821625744276
 10
85.8
 20
7.795000000000002
 10
85.81817837425572
 20
7.811475918044046
 10
85.83788413704174
 20
7.826090707778995
 10
85.85892751109014
 20
7.838703620790447
 10
85.88110583720537
 20
7.849193187831183
 10
85.90420552598303
 20
7.857458388636417
 10
85.92800411479261
 20
7.863419624804166
 10
85.95227241021425
 20
7.867019486371412
 10
85.97677669529664
 20
7.868223304703363
 10
86.00128098037904
 20
7.867019486371412
 10
86.02554927580067
 20
7.863419624804166
 10
86.04934786461025
 20
7.857458388636417
 10
86.07244755338792
 20
7.849193187831183
 10
86.09462587950314
 20
7.838703620790447
 10
86.11566925355154
 20
7.826090707778995
 10
86.13537501633755
 20
7.811475918044046
 10
86.15355339059327
 20
7.795000000000002
 10
95.8
 20
7.795000000000002
 10
95.8
 20
8.975000000000001
 10
95.80335513323557
 20
9.03282625974878
 10
95.81337550526614
 20
9.089876460273679
 10
95.8299266373588
 20
9.145384957479187
 10
95.85278640450005
 20
9.198606797749974
 10
95.88164801643192
 20
9.248827715625453
 10
95.91612413494074
 20
9.295373719622887
 10
95.95575207214232
 20
9.337620137562283
 10
96.0
 20
9.375
 10
96.0
 20
4.600000000000001
  0
LWPOLYLINE
  5
5F
330
17
100
AcDbEntity
  8
BRACKET_OUTLINE
 62
6
100
AcDbPolyline
 90
87
 70
1
 10
96.0
 20
20.225
 10
95.95575207214232
 20
20.26237986243772
 10
95.91612413494074
 20
20.304626280377118
 10
95.88164801643192
 20
20.35117228437454
 10
95.85278640450005
 20
20.40139320225002
 10
95.8299266373588
 20
20.454615042520814
 10
95.81337550526614
 20
20.51012353972632
 10
95.80335513323557
 20
20.567173740251217
 10
95.8
 20
20.625
 10
95.8
 20
21.805
 10
86.15355339059327
 20
21.805
 10
86.13537501633755
 20
21.788524081955952
 10
86.11566925355154
 20
21.773909292221
 10
86.09462587950314
 20
21.761296379209547
 10
86.07244755338792
 20
21.750806812168815
 10
86.04934786461025
 20
21.742541611363585
 10
86.02554927580067
 20
21.736580375195828
 10
86.00128098037904
 20
21.732980513628586
 10
85.97677669529664
 20
21.731776695296638
 10
85.95227241021425
 20
21.732980513628586
 10
85.92800411479261
 20
21.736580375195828
 10
85.90420552598303
 20
21.742541611363585
 10
85.88110583720537
 20
21.750806812168815
 10
85.85892751109014
 20
21.761296379209547
 10
85.83788413704174
 20
21.773909292221
 10
85.81817837425572
 20
21.788524081955952
 10
85.8
 20
21.805
 10
85.78352408195596
 20
21.823178374255725
 10
85.768909292221
 20
21.842884137041736
 10
85.75629637920954
 20
21.863927511090136
 10
85.74580681216882
 20
21.886105837205363
 10
85.73754161136358
 20
21.909205525983023
 10
85.73158037519583
 20
21.933004114792606
 10
85.7279805136286
 20
21.957272410214248
 10
85.72677669529664
 20
21.981776695296638
 10
85.7279805136286
 20
22.006280980379028
 10
85.73158037519583
 20
22.03054927580067
 10
85.73754161136358
 20
22.054347864610254
 10
85.74580681216882
 20
22.07744755338791
 10
85.75629637920954
 20
22.099625879503137
 10
85.768909292221
 20
22.120669253551537
 10
85.78352408195596
 20
22.140375016337547
 10
85.8
 20
22.158553390593273
 10
85.8
 20
23.066446609406725
 10
85.78352408195596
 20
23.08462498366245
 10
85.768909292221
 20
23.10433074644846
 10
85.75629637920954
 20
23.12537412049686
 10
85.74580681216882
 20
23.14755244661209
 10
85.73754161136358
 20
23.170652135389748
 10
85.73158037519583
 20
23.19445072419933
 10
85.7279805136286
 20
23.218719019620973
 10
85.72677669529664
 20
23.243223304703363
 10
85.7279805136286
 20
23.267727589785753
 10
85.73158037519583
 20
23.291995885207395
 10
85.73754161136358
 20
23.31579447401698
 10
85.74580681216882
 20
23.338894162794634
 10
85.75629637920954
 20
23.361072488909862
 10
85.768909292221
 20
23.382115862958262
 10
85.78352408195596
 20
23.401821625744272
 10
85.8
 20
23.419999999999998
 10
85.81817837425572
 20
23.436475918044046
 10
85.83788413704174
 20
23.451090707779
 10
85.85892751109014
 20
23.46370362079045
 10
85.88110583720537
 20
23.474193187831183
 10
85.90420552598303
 20
23.482458388636413
 10
85.92800411479261
 20
23.48841962480417
 10
85.95227241021425
 20
23.49201948637141
 10
85.97677669529664
 20
23.493223304703363
 10
86.00128098037904
 20
23.49201948637141
 10
86.02554927580067
 20
23.48841962480417
 10
86.04934786461025
 20
23.482458388636413
 10
86.07244755338792
 20
23.474193187831183
 10
86.09462587950314
 20
23.46370362079045
 10
86.11566925355154
 20
23.451090707779
 10
86.13537501633755
 20
23.436475918044046
 10
86.15355339059327
 20
23.419999999999998
 10
95.8
 20
23.42
 10
95.8
 20
24.6
 10
95.80335513323557
 20
24.657826259748784
 10
95.81337550526614
 20
24.714876460273683
 10
95.8299266373588
 20
24.770384957479187
 10
95.85278640450005
 20
24.82360679774998
 10
95.88164801643192
 20
24.87382771562546
 10
95.91612413494074
 20
24.920373719622884
 10
95.95575207214232
 20
24.962620137562283
 10
96.0
 20
25.0
 10
96.0
 20
20.225
  0
LWPOLYLINE
  5
60
330
17
100
AcDbEntity
  8
BRACKET_OUTLINE
 62
6
100
AcDbPolyline
 90
87
 70
1
 10
96.0
 20
36.474999999999994
 10
95.95575207214232
 20
36.51237986243772
 10
95.91612413494074
 20
36.554626280377114
 10
95.88164801643192
 20
36.60117228437454
 10
95.85278640450005
 20
36.65139320225002
 10
95.8299266373588
 20
36.704615042520814
 10
95.81337550526614
 20
36.760123539726315
 10
95.80335513323557
 20
36.817173740251214
 10
95.8
 20
36.875
 10
95.8
 20
38.055
 10
86.15355339059327
 20
38.05499999999999
 10
86.13537501633755
 20
38.03852408195595
 10
86.11566925355154
 20
38.023909292221
 10
86.09462587950314
 20
38.01129637920955
 10
86.07244755338792
 20
38.00080681216881
 10
86.04934786461025
 20
37.99254161136358
 10
86.02554927580067
 20
37.98658037519583
 10
86.00128098037904
 20
37.98298051362858
 10
85.97677669529664
 20
37.98177669529663
 10
85.95227241021425
 20
37.98298051362858
 10
85.92800411479261
 20
37.98658037519583
 10
85.90420552598303
 20
37.99254161136358
 10
85.88110583720537
 20
38.00080681216881
 10
85.85892751109014
 20
38.01129637920955
 10
85.83788413704174
 20
38.023909292221
 10
85.81817837425572
 20
38.03852408195595
 10
85.8
 20
38.05499999999999
 10
85.78352408195596
 20
38.07317837425572
 10
85.768909292221
 20
38.09288413704173
 10
85.75629637920954
 20
38.11392751109013
 10
85.74580681216882
 20
38.13610583720536
 10
85.73754161136358
 20
38.15920552598302
 10
85.73158037519583
 20
38.1830041147926
 10
85.7279805136286
 20
38.207272410214244
 10
85.72677669529664
 20
38.23177669529663
 10
85.7279805136286
 20
38.256280980379024
 10
85.73158037519583
 20
38.28054927580067
 10
85.73754161136358
 20
38.30434786461025
 10
85.74580681216882
 20
38.327447553387906
 10
85.75629637920954
 20
38.34962587950313
 10
85.768909292221
 20
38.37066925355153
 10
85.78352408195596
 20
38.39037501633754
 10
85.8
 20
38.40855339059327
 10
85.8
 20
39.316446609406725
 10
85.78352408195596
 20
39.33462498366245
 10
85.768909292221
 20
39.35433074644846
 10
85.75629637920954
 20
39.37537412049686
 10
85.74580681216882
 20
39.39755244661209
 10
85.73754161136358
 20
39.420652135389744
 10
85.73158037519583
 20
39.44445072419933
 10
85.7279805136286
 20
39.46871901962097
 10
85.72677669529664
 20
39.493223304703356
 10
85.7279805136286
 20
39.51772758978575
 10
85.73158037519583
 20
39.54199588520739
 10
85.73754161136358
 20
39.565794474016975
 10
85.74580681216882
 20
39.58889416279463
 10
85.75629637920954
 20
39.611072488909855
 10
85.768909292221
 20
39.63211586295826
 10
85.78352408195596
 20
39.65182162574427
 10
85.8
 20
39.669999999999995
 10
85.81817837425572
 20
39.686475918044046
 10
85.83788413704174
 20
39.701090707778995
 10
85.85892751109014
 20
39.71370362079045
 10
85.88110583720537
 20
39.72419318783118
 10
85.90420552598303
 20
39.73245838863641
 10
85.92800411479261
 20
39.738419624804166
 10
85.95227241021425
 20
39.74201948637141
 10
85.97677669529664
 20
39.743223304703356
 10
86.00128098037904
 20
39.74201948637141
 10
86.02554927580067
 20
39.738419624804166
 10
86.04934786461025
 20
39.73245838863641
 10
86.07244755338792
 20
39.72419318783118
 10
86.09462587950314
 20
39.71370362079045
 10
86.11566925355154
 20
39.701090707778995
 10
86.13537501633755
 20
39.686475918044046
 10
86.15355339059327
 20
39.669999999999995
 10
95.8
 20
39.669999999999995
 10
95.8
 20
40.849999999999994
 10
95.80335513323557
 20
40.90782625974878
 10
95.81337550526614
 20
40.96487646027368
 10
95.8299266373588
 20
41.02038495747918
 10
95.85278640450005
 20
41.073606797749974
 10
95.88164801643192
 20
41.12382771562545
 10
95.91612413494074
 20
41.17037371962288
 10
95.95575207214232
 20
41.212620137562276
 10
96.0
 20
41.25
 10
96.0
 20
36.474999999999994
  0
LWPOLYLINE
  5
61
330
17
100
AcDbEntity
  8
BRACKET_OUTLINE
 62
6
100
AcDbPolyline
 90
87
 70
1
 10
81.0
 20
0.0
 10
81.03737986243773
 20
0.04424792785768972
 10
81.07962628037713
 20
0.08387586505926237
 10
81.12617228437455
 20
0.11835198356807552
 10
81.17639320225003
 20
0.14721359549995583
 10
81.22961504252082
 20
0.17007336264121165
 10
81.28512353972633
 20
0.1866244947338629
 10
81.34217374025123
 20
0.19664486676443715
 10
81.4
 20
0.20000000000000284
 10
82.58000000000001
 20
0.20000000000000284
 10
82.58000000000001
 20
9.846446609406726
 10
82.56352408195596
 20
9.864624983662452
 10
82.54890929222101
 20
9.884330746448462
 10
82.53629637920956
 20
9.905374120496866
 10
82.52580681216882
 20
9.92755244661209
 10
82.5175416113636
 20
9.950652135389745
 10
82.51158037519583
 20
9.974450724199329
 10
82.5079805136286
 20
9.998719019620971
 10
82.50677669529665
 20
10.023223304703365
 10
82.5079805136286
 20
10.047727589785751
 10
82.51158037519583
 20
10.071995885207393
 10
82.5175416113636
 20
10.095794474016976
 10
82.52580681216882
 20
10.118894162794632
 10
82.53629637920956
 20
10.141072488909863
 10
82.54890929222101
 20
10.16211586295826
 10
82.56352408195596
 20
10.181821625744277
 10
82.58000000000001
 20
10.200000000000003
 10
82.59817837425574
 20
10.216475918044047
 10
82.61788413704174
 20
10.231090707779003
 10
82.63892751109015
 20
10.243703620790455
 10
82.66110583720537
 20
10.254193187831184
 10
82.68420552598303
 20
10.262458388636418
 10
82.70800411479262
 20
10.268419624804167
 10
82.73227241021425
 20
10.272019486371413
 10
82.75677669529665
 20
10.273223304703365
 10
82.78128098037904
 20
10.272019486371413
 10
82.80554927580067
 20
10.268419624804167
 10
82.82934786461026
 20
10.262458388636418
 10
82.85244755338792
 20
10.254193187831184
 10
82.87462587950314
 20
10.243703620790455
 10
82.89566925355155
 20
10.231090707779003
 10
82.91537501633755
 20
10.216475918044047
 10
82.93355339059327
 20
10.200000000000003
 10
83.84144660940673
 20
10.200000000000003
 10
83.85962498366246
 20
10.216475918044047
 10
83.87933074644847
 20
10.231090707779003
 10
83.90037412049686
 20
10.243703620790455
 10
83.9225524466121
 20
10.254193187831184
 10
83.94565213538975
 20
10.262458388636418
 10
83.96945072419933
 20
10.268419624804167
 10
83.99371901962098
 20
10.272019486371413
 10
84.01822330470337
 20
10.273223304703365
 10
84.04272758978576
 20
10.272019486371413
 10
84.0669958852074
 20
10.268419624804167
 10
84.09079447401699
 20
10.262458388636418
 10
84.11389416279464
 20
10.254193187831184
 10
84.13607248890987
 20
10.243703620790455
 10
84.15711586295826
 20
10.231090707779003
 10
84.17682162574428
 20
10.216475918044047
 10
84.19500000000001
 20
10.200000000000003
 10
84.21147591804406
 20
10.181821625744277
 10
84.22609070777901
 20
10.16211586295826
 10
84.23870362079046
 20
10.141072488909863
 10
84.2491931878312
 20
10.118894162794632
 10
84.25745838863642
 20
10.095794474016976
 10
84.26341962480417
 20
10.071995885207393
 10
84.26701948637142
 20
10.047727589785751
 10
84.26822330470337
 20
10.023223304703365
 10
84.26701948637142
 20
9.998719019620971
 10
84.26341962480417
 20
9.974450724199329
 10
84.25745838863642
 20
9.950652135389745
 10
84.2491931878312
 20
9.92755244661209
 10
84.23870362079046
 20
9.905374120496866
 10
84.22609070777901
 20
9.884330746448462
 10
84.21147591804406
 20
9.864624983662452
 10
84.19500000000001
 20
9.846446609406726
 10
84.19500000000001
 20
0.20000000000000284
 10
85.375
 20
0.20000000000000284
 10
85.4328262597488
 20
0.19664486676443715
 10
85.48987646027369
 20
0.1866244947338629
 10
85.54538495747919
 20
0.17007336264121165
 10
85.59860679774998
 20
0.14721359549995583
 10
85.64882771562546
 20
0.11835198356807552
 10
85.69537371962289
 20
0.08387586505926237
 10
85.73762013756229
 20
0.04424792785768972
 10
85.775
 20
0.0
 10
81.0
 20
0.0
  0
LWPOLYLINE
  5
62
330
17
100
AcDbEntity
  8
BRACKET_OUTLINE
 62
6
100
AcDbPolyline
 90
87
 70
1
 10
85.775
 20
48.0
 10
85.73762013756229
 20
47.95575207214231
 10
85.69537371962289
 20
47.91612413494074
 10
85.64882771562546
 20
47.881648016431924
 10
85.59860679774998
 20
47.852786404500044
 10
85.54538495747919
 20
47.82992663735879
 10
85.48987646027369
 20
47.81337550526614
 10
85.4328262597488
 20
47.80335513323556
 10
85.375
 20
47.8
 10
84.19500000000001
 20
47.8
 10
84.19500000000001
 20
38.153553390593274
 10
84.21147591804406
 20
38.13537501633755
 10
84.22609070777901
 20
38.11566925355154
 10
84.23870362079046
 20
38.094625879503134
 10
84.2491931878312
 20
38.07244755338791
 10
84.25745838863642
 20
38.049347864610255
 10
84.26341962480417
 20
38.02554927580067
 10
84.26701948637142
 20
38.00128098037903
 10
84.26822330470337
 20
37.976776695296635
 10
84.26701948637142
 20
37.95227241021425
 10
84.26341962480417
 20
37.92800411479261
 10
84.25745838863642
 20
37.90420552598302
 10
84.2491931878312
 20
37.88110583720537
 10
84.23870362079046
 20
37.85892751109014
 10
84.22609070777901
 20
37.83788413704174
 10
84.21147591804406
 20
37.81817837425572
 10
84.19500000000001
 20
37.8
 10
84.17682162574428
 20
37.78352408195595
 10
84.15711586295826
 20
37.768909292221
 10
84.13607248890987
 20
37.756296379209545
 10
84.11389416279464
 20
37.745806812168816
 10
84.09079447401699
 20
37.73754161136358
 10
84.0669958852074
 20
37.73158037519583
 10
84.04272758978576
 20
37.72798051362859
 10
84.01822330470337
 20
37.726776695296635
 10
83.99371901962098
 20
37.72798051362859
 10
83.96945072419933
 20
37.73158037519583
 10
83.94565213538975
 20
37.73754161136358
 10
83.9225524466121
 20
37.745806812168816
 10
83.90037412049686
 20
37.756296379209545
 10
83.87933074644847
 20
37.768909292221
 10
83.85962498366246
 20
37.78352408195595
 10
83.84144660940673
 20
37.8
 10
82.93355339059327
 20
37.8
 10
82.91537501633755
 20
37.78352408195595
 10
82.89566925355155
 20
37.768909292221
 10
82.87462587950314
 20
37.756296379209545
 10
82.85244755338792
 20
37.745806812168816
 10
82.82934786461026
 20
37.73754161136358
 10
82.80554927580067
 20
37.73158037519583
 10
82.78128098037904
 20
37.72798051362859
 10
82.75677669529665
 20
37.726776695296635
 10
82.73227241021425
 20
37.72798051362859
 10
82.70800411479262
 20
37.73158037519583
 10
82.68420552598303
 20
37.73754161136358
 10
82.66110583720537
 20
37.745806812168816
 10
82.63892751109015
 20
37.756296379209545
 10
82.61788413704174
 20
37.768909292221
 10
82.59817837425574
 20
37.78352408195595
 10
82.58000000000001
 20
37.8
 10
82.56352408195596
 20
37.81817837425572
 10
82.54890929222101
 20
37.83788413704174
 10
82.53629637920956
 20
37.85892751109014
 10
82.52580681216882
 20
37.88110583720537
 10
82.5175416113636
 20
37.90420552598302
 10
82.51158037519583
 20
37.92800411479261
 10
82.5079805136286
 20
37.95227241021425
 10
82.50677669529665
 20
37.976776695296635
 10
82.5079805136286
 20
38.00128098037903
 10
82.51158037519583
 20
38.02554927580067
 10
82.5175416113636
 20
38.049347864610255
 10
82.52580681216882
 20
38.07244755338791
 10
82.53629637920956
 20
38.094625879503134
 10
82.54890929222101
 20
38.11566925355154
 10
82.56352408195596
 20
38.13537501633755
 10
82.58000000000001
 20
38.153553390593274
 10
82.58000000000001
 20
47.8
 10
81.4
 20
47.8
 10
81.34217374025123
 20
47.80335513323556
 10
81.28512353972633
 20
47.81337550526614
 10
81.22961504252082
 20
47.82992663735879
 10
81.17639320225003
 20
47.852786404500044
 10
81.12617228437455
 20
47.881648016431924
 10
81.07962628037713
 20
47.91612413494074
 10
81.03737986243773
 20
47.95575207214231
 10
81.0
 20
48.0
 10
85.775
 20
48.0
  0
LWPOLYLINE
  5
63
330
17
100
AcDbEntity
  8
BRACKET_OUTLINE
 62
6
100
AcDbPolyline
 90
87
 70
1
 10
92.385
 20
0.0
 10
92.42237986243772
 20
0.04424792785768972
 10
92.46462628037712
 20
0.08387586505926237
 10
92.51117228437454
 20
0.11835198356807552
 10
92.56139320225002
 20
0.14721359549995583
 10
92.61461504252081
 20
0.17007336264121165
 10
92.67012353972632
 20
0.1866244947338629
 10
92.72717374025122
 20
0.19664486676443715
 10
92.785
 20
0.20000000000000284
 10
93.58500000000001
 20
0.20000000000000284
 10
93.58500000000001
 20
3.8464466094067262
 10
93.56852408195596
 20
3.864624983662452
 10
93.55390929222101
 20
3.8843307464484624
 10
93.54129637920956
 20
3.905374120496866
 10
93.53080681216882
 20
3.92755244661209
 10
93.5225416113636
 20
3.9506521353897455
 10
93.51658037519583
 20
3.974450724199329
 10
93.51298051362859
 20
3.998719019620971
 10
93.51177669529663
 20
4.0232233047033645
 10
93.51298051362859
 20
4.047727589785751
 10
93.51658037519583
 20
4.071995885207393
 10
93.5225416113636
 20
4.0957944740169765
 10
93.53080681216882
 20
4.118894162794639
 10
93.54129637920956
 20
4.141072488909863
 10
93.55390929222101
 20
4.162115862958267
 10
93.56852408195596
 20
4.181821625744277
 10
93.58500000000001
 20
4.200000000000003
 10
93.60317837425573
 20
4.216475918044047
 10
93.62288413704174
 20
4.231090707779003
 10
93.64392751109014
 20
4.2437036207904555
 10
93.66610583720536
 20
4.254193187831184
 10
93.68920552598303
 20
4.262458388636418
 10
93.71300411479261
 20
4.268419624804167
 10
93.73727241021425
 20
4.272019486371413
 10
93.76177669529663
 20
4.2732233047033645
 10
93.78628098037903
 20
4.272019486371413
 10
93.81054927580067
 20
4.268419624804167
 10
93.83434786461025
 20
4.262458388636418
 10
93.85744755338791
 20
4.254193187831184
 10
93.87962587950314
 20
4.2437036207904555
 10
93.90066925355154
 20
4.231090707779003
 10
93.92037501633754
 20
4.216475918044047
 10
93.93855339059327
 20
4.200000000000003
 10
94.84644660940673
 20
4.200000000000003
 10
94.86462498366245
 20
4.216475918044047
 10
94.88433074644847
 20
4.231090707779003
 10
94.90537412049686
 20
4.2437036207904555
 10
94.9275524466121
 20
4.254193187831184
 10
94.95065213538975
 20
4.262458388636418
 10
94.97445072419933
 20
4.268419624804167
 10
94.99871901962098
 20
4.272019486371413
 10
95.02322330470336
 20
4.2732233047033645
 10
95.04772758978575
 20
4.272019486371413
 10
95.0719958852074
 20
4.268419624804167
 10
95.09579447401698
 20
4.262458388636418
 10
95.11889416279463
 20
4.254193187831184
 10
95.14107248890987
 20
4.2437036207904555
 10
95.16211586295826
 20
4.231090707779003
 10
95.18182162574428
 20
4.216475918044047
 10
95.2
 20
4.200000000000003
 10
95.21647591804405
 20
4.181821625744277
 10
95.231090707779
 20
4.162115862958267
 10
95.24370362079046
 20
4.141072488909863
 10
95.25419318783119
 20
4.118894162794639
 10
95.26245838863642
 20
4.0957944740169765
 10
95.26841962480417
 20
4.071995885207393
 10
95.27201948637142
 20
4.047727589785751
 10
95.27322330470336
 20
4.0232233047033645
 10
95.27201948637142
 20
3.998719019620971
 10
95.26841962480417
 20
3.974450724199329
 10
95.26245838863642
 20
3.9506521353897455
 10
95.25419318783119
 20
3.92755244661209
 10
95.24370362079046
 20
3.905374120496866
 10
95.231090707779
 20
3.8843307464484624
 10
95.21647591804405
 20
3.864624983662452
 10
95.2
 20
3.8464466094067262
 10
95.2
 20
0.20000000000000284
 10
96.0
 20
0.20000000000000284
 10
96.05782625974878
 20
0.19664486676443715
 10
96.11487646027368
 20
0.1866244947338629
 10
96.17038495747919
 20
0.17007336264121165
 10
96.22360679774998
 20
0.14721359549995583
 10
96.27382771562546
 20
0.11835198356807552
 10
96.32037371962288
 20
0.08387586505926237
 10
96.36262013756229
 20
0.04424792785768972
 10
96.4
 20
0.0
 10
92.385
 20
0.0
  0
LWPOLYLINE
  5
64
330
17
100
AcDbEntity
  8
BRACKET_OUTLINE
 62
6
100
AcDbPolyline
 90
87
 70
1
 10
96.4
 20
48.0
 10
96.36262013756229
 20
47.95575207214231
 10
96.32037371962288
 20
47.91612413494074
 10
96.27382771562546
 20
47.881648016431924
 10
96.22360679774998
 20
47.852786404500044
 10
96.17038495747919
 20
47.82992663735879
 10
96.11487646027368
 20
47.81337550526614
 10
96.05782625974878
 20
47.80335513323556
 10
96.0
 20
47.8
 10
95.2
 20
47.8
 10
95.2
 20
44.153553390593274
 10
95.21647591804405
 20
44.13537501633755
 10
95.231090707779
 20
44.11566925355154
 10
95.24370362079046
 20
44.094625879503134
 10
95.25419318783119
 20
44.07244755338791
 10
95.26245838863642
 20
44.049347864610255
 10
95.26841962480417
 20
44.02554927580067
 10
95.27201948637142
 20
44.00128098037903
 10
95.27322330470336
 20
43.976776695296635
 10
95.27201948637142
 20
43.95227241021425
 10
95.26841962480417
 20
43.92800411479261
 10
95.26245838863642
 20
43.90420552598302
 10
95.25419318783119
 20
43.88110583720536
 10
95.24370362079046
 20
43.85892751109014
 10
95.231090707779
 20
43.83788413704173
 10
95.21647591804405
 20
43.81817837425572
 10
95.2
 20
43.8
 10
95.18182162574428
 20
43.78352408195595
 10
95.16211586295826
 20
43.768909292221
 10
95.14107248890987
 20
43.756296379209545
 10
95.11889416279463
 20
43.745806812168816
 10
95.09579447401698
 20
43.73754161136358
 10
95.0719958852074
 20
43.73158037519583
 10
95.04772758978575
 20
43.72798051362859
 10
95.02322330470336
 20
43.726776695296635
 10
94.99871901962098
 20
43.72798051362859
 10
94.97445072419933
 20
43.73158037519583
 10
94.95065213538975
 20
43.73754161136358
 10
94.9275524466121
 20
43.745806812168816
 10
94.90537412049686
 20
43.756296379209545
 10
94.88433074644847
 20
43.768909292221
 10
94.86462498366245
 20
43.78352408195595
 10
94.84644660940673
 20
43.8
 10
93.93855339059327
 20
43.8
 10
93.92037501633754
 20
43.78352408195595
 10
93.90066925355154
 20
43.768909292221
 10
93.87962587950314
 20
43.756296379209545
 10
93.85744755338791
 20
43.745806812168816
 10
93.83434786461025
 20
43.73754161136358
 10
93.81054927580067
 20
43.73158037519583
 10
93.78628098037903
 20
43.72798051362859
 10
93.76177669529663
 20
43.726776695296635
 10
93.73727241021425
 20
43.72798051362859
 10
93.71300411479261
 20
43.73158037519583
 10
93.68920552598303
 20
43.73754161136358
 10
93.66610583720536
 20
43.745806812168816
 10
93.64392751109014
 20
43.756296379209545
 10
93.62288413704174
 20
43.768909292221
 10
93.60317837425573
 20
43.78352408195595
 10
93.58500000000001
 20
43.8
 10
93.56852408195596
 20
43.81817837425572
 10
93.55390929222101
 20
43.83788413704173
 10
93.54129637920956
 20
43.85892751109014
 10
93.53080681216882
 20
43.88110583720536
 10
93.5225416113636
 20
43.90420552598302
 10
93.51658037519583
 20
43.92800411479261
 10
93.51298051362859
 20
43.95227241021425
 10
93.51177669529663
 20
43.976776695296635
 10
93.51298051362859
 20
44.00128098037903
 10
93.51658037519583
 20
44.02554927580067
 10
93.5225416113636
 20
44.049347864610255
 10
93.53080681216882
 20
44.07244755338791
 10
93.54129637920956
 20
44.094625879503134
 10
93.55390929222101
 20
44.11566925355154
 10
93.56852408195596
 20
44.13537501633755
 10
93.58500000000001
 20
44.153553390593274
 10
93.58500000000001
 20
47.8
 10
92.785
 20
47.8
 10
92.72717374025122
 20
47.80335513323556
 10
92.67012353972632
 20
47.81337550526614
 10
92.61461504252081
 20
47.82992663735879
 10
92.56139320225002
 20
47.852786404500044
 10
92.51117228437454
 20
47.881648016431924
 10
92.46462628037712
 20
47.91612413494074
 10
92.42237986243772
 20
47.95575207214231
 10
92.385
 20
48.0
 10
96.4
 20
48.0
  0
LINE
  5
65
330
17
100
AcDbEntity
  8
BRACKET_CUT_LINE
 62
4
100
AcDbLine
 10
95.8
 20
7.795000000000002
 30
0.0
 11
95.8
 21
6.18
 31
0.0
  0
LINE
  5
66
330
17
100
AcDbEntity
  8
BRACKET_CUT_LINE
 62
4
100
AcDbLine
 10
95.8
 20
23.42
 30
0.0
 11
95.8
 21
21.805
 31
0.0
  0
LINE
  5
67
330
17
100
AcDbEntity
  8
BRACKET_CUT_LINE
 62
4
100
AcDbLine
 10
95.8
 20
39.669999999999995
 30
0.0
 11
95.8
 21
38.055
 31
0.0
  0
LINE
  5
68
330
17
100
AcDbEntity
  8
BRACKET_CUT_LINE
 62
4
100
AcDbLine
 10
84.19500000000001
 20
0.20000000000000284
 30
0.0
 11
82.58000000000001
 21
0.20000000000000284
 31
0.0
  0
LINE
  5
69
330
17
100
AcDbEntity
  8
BRACKET_CUT_LINE
 62
4
100
AcDbLine
 10
82.58000000000001
 20
47.8
 30
0.0
 11
84.19500000000001
 21
47.8
 31
0.0
  0
LINE
  5
6A
330
17
100
AcDbEntity
  8
BRACKET_CUT_LINE
 62
4
100
AcDbLine
 10
95.2
 20
0.20000000000000284
 30
0.0
 11
93.58500000000001
 21
0.20000000000000284
 31
0.0
  0
LINE
  5
6B
330
17
100
AcDbEntity
  8
BRACKET_CUT_LINE
 62
4
100
AcDbLine
 10
93.58500000000001
 20
47.8
 30
0.0
 11
95.2
 21
47.8
 31
0.0
  0
ENDSEC
  0
SECTION
  2
OBJECTS
  0
DICTIONARY
  5
A
330
0
100
AcDbDictionary
281
1
  3
ACAD_COLOR
350
B
  3
ACAD_GROUP
350
C
  3
ACAD_LAYOUT
350
D
  3
ACAD_MATERIAL
350
E
  3
ACAD_MLEADERSTYLE
350
F
  3
ACAD_MLINESTYLE
350
10
  3
ACAD_PLOTSETTINGS
350
11
  3
ACAD_PLOTSTYLENAME
350
12
  3
ACAD_SCALELIST
350
14
  3
ACAD_TABLESTYLE
350
15
  3
ACAD_VISUALSTYLE
350
16
  3
EZDXF_META
350
2D
  0
DICTIONARY
  5
B
330
A
100
AcDbDictionary
281
1
  0
DICTIONARY
  5
C
330
A
100
AcDbDictionary
281
1
  0
DICTIONARY
  5
D
330
A
100
AcDbDictionary
281
1
  3
Model
350
1A
  3
Layout1
350
1E
  0
DICTIONARY
  5
E
330
A
100
AcDbDictionary
281
1
  3
ByBlock
350
1F
  3
ByLayer
350
20
  3
Global
350
21
  0
DICTIONARY
  5
F
330
A
100
AcDbDictionary
281
1
  3
Standard
350
2C
  0
DICTIONARY
  5
10
330
A
100
AcDbDictionary
281
1
  3
Standard
350
22
  0
DICTIONARY
  5
11
330
A
100
AcDbDictionary
281
1
  0
ACDBDICTIONARYWDFLT
  5
12
330
A
100
AcDbDictionary
281
1
  3
Normal
350
13
100
AcDbDictionaryWithDefault
340
13
  0
ACDBPLACEHOLDER
  5
13
330
12
  0
DICTIONARY
  5
14
330
A
100
AcDbDictionary
281
1
  0
DICTIONARY
  5
15
330
A
100
AcDbDictionary
281
1
  0
DICTIONARY
  5
16
330
A
100
AcDbDictionary
281
1
  0
LAYOUT
  5
1A
330
D
100
AcDbPlotSettings
  1

  4
A3
  6

 40
7.5
 41
20.0
 42
7.5
 43
20.0
 44
420.0
 45
297.0
 46
0.0
 47
0.0
 48
0.0
 49
0.0
140
0.0
141
0.0
142
1.0
143
1.0
 70
1024
 72
1
 73
0
 74
5
  7

 75
16
 76
0
 77
2
 78
300
147
1.0
148
0.0
149
0.0
100
AcDbLayout
  1
Model
 70
1
 71
0
 10
0.0
 20
0.0
 11
420.0
 21
297.0
 12
0.0
 22
0.0
 32
0.0
 14
1e+20
 24
1e+20
 34
1e+20
 15
-1e+20
 25
-1e+20
 35
-1e+20
146
0.0
 13
0.0
 23
0.0
 33
0.0
 16
1.0
 26
0.0
 36
0.0
 17
0.0
 27
1.0
 37
0.0
 76
1
330
17
  0
LAYOUT
  5
1E
330
D
100
AcDbPlotSettings
  1

  4
A3
  6

 40
7.5
 41
20.0
 42
7.5
 43
20.0
 44
420.0
 45
297.0
 46
0.0
 47
0.0
 48
0.0
 49
0.0
140
0.0
141
0.0
142
1.0
143
1.0
 70
0
 72
1
 73
0
 74
5
  7

 75
16
 76
0
 77
2
 78
300
147
1.0
148
0.0
149
0.0
100
AcDbLayout
  1
Layout1
 70
1
 71
1
 10
0.0
 20
0.0
 11
420.0
 21
297.0
 12
0.0
 22
0.0
 32
0.0
 14
1e+20
 24
1e+20
 34
1e+20
 15
-1e+20
 25
-1e+20
 35
-1e+20
146
0.0
 13
0.0
 23
0.0
 33
0.0
 16
1.0
 26
0.0
 36
0.0
 17
0.0
 27
1.0
 37
0.0
 76
1
330
1B
  0
MATERIAL
  5
1F
102
{ACAD_REACTORS
330
E
102
}
330
E
100
AcDbMaterial
  1
ByBlock
  2

 70
0
 40
1.0
 71
1
 41
1.0
 91
-1023410177
 42
1.0
 72
1
  3

 73
1
 74
1
 75
1
 44
0.5
 73
0
 45
1.0
 46
1.0
 77
1
  4

 78
1
 79
1
170
1
 48
1.0
171
1
  6

172
1
173
1
174
1
140
1.0
141
1.0
175
1
  7

176
1
177
1
178
1
143
1.0
179
1
  8

270
1
271
1
272
1
145
1.0
146
1.0
273
1
  9

274
1
275
1
276
1
 42
1.0
 72
1
  3

 73
1
 74
1
 75
1
 94
63
  0
MATERIAL
  5
20
102
{ACAD_REACTORS
330
E
102
}
330
E
100
AcDbMaterial
  1
ByLayer
  2

 70
0
 40
1.0
 71
1
 41
1.0
 91
-1023410177
 42
1.0
 72
1
  3

 73
1
 74
1
 75
1
 44
0.5
 73
0
 45
1.0
 46
1.0
 77
1
  4

 78
1
 79
1
170
1
 48
1.0
171
1
  6

172
1
173
1
174
1
140
1.0
141
1.0
175
1
  7

176
1
177
1
178
1
143
1.0
179
1
  8

270
1
271
1
272
1
145
1.0
146
1.0
273
1
  9

274
1
275
1
276
1
 42
1.0
 72
1
  3

 73
1
 74
1
 75
1
 94
63
  0
MATERIAL
  5
21
102
{ACAD_REACTORS
330
E
102
}
330
E
100
AcDbMaterial
  1
Global
  2

 70
0
 40
1.0
 71
1
 41
1.0
 91
-1023410177
 42
1.0
 72
1
  3

 73
1
 74
1
 75
1
 44
0.5
 73
0
 45
1.0
 46
1.0
 77
1
  4

 78
1
 79
1
170
1
 48
1.0
171
1
  6

172
1
173
1
174
1
140
1.0
141
1.0
175
1
  7

176
1
177
1
178
1
143
1.0
179
1
  8

270
1
271
1
272
1
145
1.0
146
1.0
273
1
  9

274
1
275
1
276
1
 42
1.0
 72
1
  3

 73
1
 74
1
 75
1
 94
63
  0
MLINESTYLE
  5
22
102
{ACAD_REACTORS
330
10
102
}
330
10
100
AcDbMlineStyle
  2
Standard
 70
0
  3

 62
256
 51
90.0
 52
90.0
 71
2
 49
0.5
 62
256
  6
BYLAYER
 49
-0.5
 62
256
  6
BYLAYER
  0
MLEADERSTYLE
  5
2C
102
{ACAD_REACTORS
330
F
102
}
330
F
100
AcDbMLeaderStyle
179
2
170
2
171
1
172
0
 90
2
 40
0.0
 41
0.0
173
1
 91
-1056964608
 92
-2
290
1
 42
2.0
291
1
 43
8.0
  3
Standard
 44
4.0
300

342
29
174
1
175
1
176
0
178
1
 93
-1056964608
 45
4.0
292
0
297
0
 46
4.0
 94
-1056964608
 47
1.0
 49
1.0
140
1.0
294
1
141
0.0
177
0
142
1.0
295
0
296
0
143
3.75
271
0
272
9
273
9
  0
DICTIONARY
  5
2D
330
A
100
AcDbDictionary
280
1
281
1
  3
CREATED_BY_EZDXF
350
2E
  3
WRITTEN_BY_EZDXF
350
6E
  0
DICTIONARYVAR
  5
2E
330
2D
100
DictionaryVariables
280
0
  1
1.4.3 @ 2026-05-08T09:04:43.671728+00:00
  0
DICTIONARYVAR
  5
6E
330
2D
100
DictionaryVariables
280
0
  1
1.4.3 @ 2026-05-08T09:04:43.694555+00:00
  0
ENDSEC
  0
EOF
