  0
SECTION
  2
HEADER
  9
$ACADVER
  1
AC1024
  9
$ACADMAINTVER
 70
6
  9
$DWGCODEPAGE
  3
ANSI_1252
  9
$LASTSAVEDBY
  1
ezdxf
  9
$INSBASE
 10
0.0
 20
0.0
 30
0.0
  9
$EXTMIN
 10
1e+20
 20
1e+20
 30
1e+20
  9
$EXTMAX
 10
-1e+20
 20
-1e+20
 30
-1e+20
  9
$LIMMIN
 10
0.0
 20
0.0
  9
$LIMMAX
 10
420.0
 20
297.0
  9
$ORTHOMODE
 70
0
  9
$REGENMODE
 70
1
  9
$FILLMODE
 70
1
  9
$QTEXTMODE
 70
0
  9
$MIRRTEXT
 70
1
  9
$LTSCALE
 40
1.0
  9
$ATTMODE
 70
1
  9
$TEXTSIZE
 40
2.5
  9
$TRACEWID
 40
1.0
  9
$TEXTSTYLE
  7
Standard
  9
$CLAYER
  8
0
  9
$CELTYPE
  6
ByLayer
  9
$CECOLOR
 62
256
  9
$CELTSCALE
 40
1.0
  9
$DISPSILH
 70
0
  9
$DIMSCALE
 40
1.0
  9
$DIMASZ
 40
2.5
  9
$DIMEXO
 40
0.625
  9
$DIMDLI
 40
3.75
  9
$DIMRND
 40
0.0
  9
$DIMDLE
 40
0.0
  9
$DIMEXE
 40
1.25
  9
$DIMTP
 40
0.0
  9
$DIMTM
 40
0.0
  9
$DIMTXT
 40
2.5
  9
$DIMCEN
 40
2.5
  9
$DIMTSZ
 40
0.0
  9
$DIMTOL
 70
0
  9
$DIMLIM
 70
0
  9
$DIMTIH
 70
0
  9
$DIMTOH
 70
0
  9
$DIMSE1
 70
0
  9
$DIMSE2
 70
0
  9
$DIMTAD
 70
1
  9
$DIMZIN
 70
8
  9
$DIMBLK
  1

  9
$DIMASO
 70
1
  9
$DIMSHO
 70
1
  9
$DIMPOST
  1

  9
$DIMAPOST
  1

  9
$DIMALT
 70
0
  9
$DIMALTD
 70
3
  9
$DIMALTF
 40
0.03937007874
  9
$DIMLFAC
 40
1.0
  9
$DIMTOFL
 70
1
  9
$DIMTVP
 40
0.0
  9
$DIMTIX
 70
0
  9
$DIMSOXD
 70
0
  9
$DIMSAH
 70
0
  9
$DIMBLK1
  1

  9
$DIMBLK2
  1

  9
$DIMSTYLE
  2
ISO-25
  9
$DIMCLRD
 70
0
  9
$DIMCLRE
 70
0
  9
$DIMCLRT
 70
0
  9
$DIMTFAC
 40
1.0
  9
$DIMGAP
 40
0.625
  9
$DIMJUST
 70
0
  9
$DIMSD1
 70
0
  9
$DIMSD2
 70
0
  9
$DIMTOLJ
 70
0
  9
$DIMTZIN
 70
8
  9
$DIMALTZ
 70
0
  9
$DIMALTTZ
 70
0
  9
$DIMUPT
 70
0
  9
$DIMDEC
 70
2
  9
$DIMTDEC
 70
2
  9
$DIMALTU
 70
2
  9
$DIMALTTD
 70
3
  9
$DIMTXSTY
  7
Standard
  9
$DIMAUNIT
 70
0
  9
$DIMADEC
 70
0
  9
$DIMALTRND
 40
0.0
  9
$DIMAZIN
 70
0
  9
$DIMDSEP
 70
44
  9
$DIMATFIT
 70
3
  9
$DIMFRAC
 70
0
  9
$DIMLDRBLK
  1

  9
$DIMLUNIT
 70
2
  9
$DIMLWD
 70
-2
  9
$DIMLWE
 70
-2
  9
$DIMTMOVE
 70
0
  9
$DIMFXL
 40
1.0
  9
$DIMFXLON
 70
0
  9
$DIMJOGANG
 40
0.785398163397
  9
$DIMTFILL
 70
0
  9
$DIMTFILLCLR
 70
0
  9
$DIMARCSYM
 70
0
  9
$DIMLTYPE
  6

  9
$DIMLTEX1
  6

  9
$DIMLTEX2
  6

  9
$DIMTXTDIRECTION
 70
0
  9
$LUNITS
 70
2
  9
$LUPREC
 70
4
  9
$SKETCHINC
 40
1.0
  9
$FILLETRAD
 40
10.0
  9
$AUNITS
 70
0
  9
$AUPREC
 70
2
  9
$MENU
  1
.
  9
$ELEVATION
 40
0.0
  9
$PELEVATION
 40
0.0
  9
$THICKNESS
 40
0.0
  9
$LIMCHECK
 70
0
  9
$CHAMFERA
 40
0.0
  9
$CHAMFERB
 40
0.0
  9
$CHAMFERC
 40
0.0
  9
$CHAMFERD
 40
0.0
  9
$SKPOLY
 70
0
  9
$TDCREATE
 40
2461169.128298611
  9
$TDUCREATE
 40
2458532.153996898
  9
$TDUPDATE
 40
2461169.128298611
  9
$TDUUPDATE
 40
2458532.1544311
  9
$TDINDWG
 40
0.0
  9
$TDUSRTIMER
 40
0.0
  9
$USRTIMER
 70
1
  9
$ANGBASE
 50
0.0
  9
$ANGDIR
 70
0
  9
$PDMODE
 70
0
  9
$PDSIZE
 40
0.0
  9
$PLINEWID
 40
0.0
  9
$SPLFRAME
 70
0
  9
$SPLINETYPE
 70
6
  9
$SPLINESEGS
 70
8
  9
$HANDSEED
  5
56
  9
$SURFTAB1
 70
6
  9
$SURFTAB2
 70
6
  9
$SURFTYPE
 70
6
  9
$SURFU
 70
6
  9
$SURFV
 70
6
  9
$UCSBASE
  2

  9
$UCSNAME
  2

  9
$UCSORG
 10
0.0
 20
0.0
 30
0.0
  9
$UCSXDIR
 10
1.0
 20
0.0
 30
0.0
  9
$UCSYDIR
 10
0.0
 20
1.0
 30
0.0
  9
$UCSORTHOREF
  2

  9
$UCSORTHOVIEW
 70
0
  9
$UCSORGTOP
 10
0.0
 20
0.0
 30
0.0
  9
$UCSORGBOTTOM
 10
0.0
 20
0.0
 30
0.0
  9
$UCSORGLEFT
 10
0.0
 20
0.0
 30
0.0
  9
$UCSORGRIGHT
 10
0.0
 20
0.0
 30
0.0
  9
$UCSORGFRONT
 10
0.0
 20
0.0
 30
0.0
  9
$UCSORGBACK
 10
0.0
 20
0.0
 30
0.0
  9
$PUCSBASE
  2

  9
$PUCSNAME
  2

  9
$PUCSORG
 10
0.0
 20
0.0
 30
0.0
  9
$PUCSXDIR
 10
1.0
 20
0.0
 30
0.0
  9
$PUCSYDIR
 10
0.0
 20
1.0
 30
0.0
  9
$PUCSORTHOREF
  2

  9
$PUCSORTHOVIEW
 70
0
  9
$PUCSORGTOP
 10
0.0
 20
0.0
 30
0.0
  9
$PUCSORGBOTTOM
 10
0.0
 20
0.0
 30
0.0
  9
$PUCSORGLEFT
 10
0.0
 20
0.0
 30
0.0
  9
$PUCSORGRIGHT
 10
0.0
 20
0.0
 30
0.0
  9
$PUCSORGFRONT
 10
0.0
 20
0.0
 30
0.0
  9
$PUCSORGBACK
 10
0.0
 20
0.0
 30
0.0
  9
$USERI1
 70
0
  9
$USERI2
 70
0
  9
$USERI3
 70
0
  9
$USERI4
 70
0
  9
$USERI5
 70
0
  9
$USERR1
 40
0.0
  9
$USERR2
 40
0.0
  9
$USERR3
 40
0.0
  9
$USERR4
 40
0.0
  9
$USERR5
 40
0.0
  9
$WORLDVIEW
 70
1
  9
$SHADEDGE
 70
3
  9
$SHADEDIF
 70
70
  9
$TILEMODE
 70
1
  9
$MAXACTVP
 70
64
  9
$PINSBASE
 10
0.0
 20
0.0
 30
0.0
  9
$PLIMCHECK
 70
0
  9
$PEXTMIN
 10
1e+20
 20
1e+20
 30
1e+20
  9
$PEXTMAX
 10
-1e+20
 20
-1e+20
 30
-1e+20
  9
$PLIMMIN
 10
0.0
 20
0.0
  9
$PLIMMAX
 10
420.0
 20
297.0
  9
$UNITMODE
 70
0
  9
$VISRETAIN
 70
1
  9
$PLINEGEN
 70
0
  9
$PSLTSCALE
 70
1
  9
$TREEDEPTH
 70
3020
  9
$CMLSTYLE
  2
Standard
  9
$CMLJUST
 70
0
  9
$CMLSCALE
 40
20.0
  9
$PROXYGRAPHICS
 70
1
  9
$MEASUREMENT
 70
1
  9
$CELWEIGHT
370
-1
  9
$ENDCAPS
280
0
  9
$JOINSTYLE
280
0
  9
$LWDISPLAY
290
0
  9
$INSUNITS
 70
1
  9
$HYPERLINKBASE
  1

  9
$STYLESHEET
  1

  9
$XEDIT
290
1
  9
$CEPSNTYPE
380
0
  9
$PSTYLEMODE
290
1
  9
$FINGERPRINTGUID
  2
{EB3357BD-E257-4202-AD3A-59DF4295A5F0}
  9
$VERSIONGUID
  2
{CE48FFF2-A6EC-4EAB-96DB-C57B623BB394}
  9
$EXTNAMES
290
1
  9
$PSVPSCALE
 40
0.0
  9
$OLESTARTUP
290
0
  9
$SORTENTS
280
127
  9
$INDEXCTL
280
0
  9
$HIDETEXT
280
1
  9
$XCLIPFRAME
280
1
  9
$HALOGAP
280
0
  9
$OBSCOLOR
 70
257
  9
$OBSLTYPE
280
0
  9
$INTERSECTIONDISPLAY
280
0
  9
$INTERSECTIONCOLOR
 70
257
  9
$DIMASSOC
280
2
  9
$PROJECTNAME
  1

  9
$CAMERADISPLAY
290
0
  9
$LENSLENGTH
 40
50.0
  9
$CAMERAHEIGHT
 40
0.0
  9
$STEPSPERSEC
 40
24.0
  9
$STEPSIZE
 40
100.0
  9
$3DDWFPREC
 40
2.0
  9
$PSOLWIDTH
 40
0.005
  9
$PSOLHEIGHT
 40
0.08
  9
$LOFTANG1
 40
1.570796326795
  9
$LOFTANG2
 40
1.570796326795
  9
$LOFTMAG1
 40
0.0
  9
$LOFTMAG2
 40
0.0
  9
$LOFTPARAM
 70
7
  9
$LOFTNORMALS
280
1
  9
$LATITUDE
 40
37.795
  9
$LONGITUDE
 40
-122.394
  9
$NORTHDIRECTION
 40
0.0
  9
$TIMEZONE
 70
-8000
  9
$LIGHTGLYPHDISPLAY
280
1
  9
$TILEMODELIGHTSYNCH
280
1
  9
$CMATERIAL
347
20
  9
$SOLIDHIST
280
0
  9
$SHOWHIST
280
1
  9
$DWFFRAME
280
2
  9
$DGNFRAME
280
2
  9
$REALWORLDSCALE
290
1
  9
$INTERFERECOLOR
 62
256
  9
$CSHADOW
280
0
  9
$SHADOWPLANELOCATION
 40
0.0
  0
ENDSEC
  0
SECTION
  2
CLASSES
  0
CLASS
  1
ACDBDICTIONARYWDFLT
  2
AcDbDictionaryWithDefault
  3
ObjectDBX Classes
 90
0
 91
0
280
0
281
0
  0
CLASS
  1
SUN
  2
AcDbSun
  3
SCENEOE
 90
1153
 91
0
280
0
281
0
  0
CLASS
  1
VISUALSTYLE
  2
AcDbVisualStyle
  3
ObjectDBX Classes
 90
4095
 91
0
280
0
281
0
  0
CLASS
  1
MATERIAL
  2
AcDbMaterial
  3
ObjectDBX Classes
 90
1153
 91
0
280
0
281
0
  0
CLASS
  1
SCALE
  2
AcDbScale
  3
ObjectDBX Classes
 90
1153
 91
0
280
0
281
0
  0
CLASS
  1
TABLESTYLE
  2
AcDbTableStyle
  3
ObjectDBX Classes
 90
4095
 91
0
280
0
281
0
  0
CLASS
  1
MLEADERSTYLE
  2
AcDbMLeaderStyle
  3
ACDB_MLEADERSTYLE_CLASS
 90
4095
 91
0
280
0
281
0
  0
CLASS
  1
DICTIONARYVAR
  2
AcDbDictionaryVar
  3
ObjectDBX Classes
 90
0
 91
0
280
0
281
0
  0
CLASS
  1
CELLSTYLEMAP
  2
AcDbCellStyleMap
  3
ObjectDBX Classes
 90
1152
 91
0
280
0
281
0
  0
CLASS
  1
MENTALRAYRENDERSETTINGS
  2
AcDbMentalRayRenderSettings
  3
SCENEOE
 90
1024
 91
0
280
0
281
0
  0
CLASS
  1
ACDBDETAILVIEWSTYLE
  2
AcDbDetailViewStyle
  3
ObjectDBX Classes
 90
1025
 91
0
280
0
281
0
  0
CLASS
  1
ACDBSECTIONVIEWSTYLE
  2
AcDbSectionViewStyle
  3
ObjectDBX Classes
 90
1025
 91
0
280
0
281
0
  0
CLASS
  1
RASTERVARIABLES
  2
AcDbRasterVariables
  3
ISM
 90
0
 91
0
280
0
281
0
  0
CLASS
  1
LAYOUT
  2
AcDbLayout
  3
ObjectDBX Classes
 90
0
 91
0
280
0
281
0
  0
CLASS
  1
ACDBPLACEHOLDER
  2
AcDbPlaceHolder
  3
ObjectDBX Classes
 90
0
 91
0
280
0
281
0
  0
ENDSEC
  0
SECTION
  2
TABLES
  0
TABLE
  2
VPORT
  5
8
330
0
100
AcDbSymbolTable
 70
1
  0
VPORT
  5
23
330
8
100
AcDbSymbolTableRecord
100
AcDbViewportTableRecord
  2
*Active
 70
0
 10
0.0
 20
0.0
 11
1.0
 21
1.0
 12
0.0
 22
0.0
 13
0.0
 23
0.0
 14
0.5
 24
0.5
 15
0.5
 25
0.5
 16
0.0
 26
0.0
 36
1.0
 17
0.0
 27
0.0
 37
0.0
 40
1000.0
 41
1.34
 42
50.0
 43
0.0
 44
0.0
 50
0.0
 51
0.0
 71
0
 72
1000
 73
1
 74
3
 75
0
 76
0
 77
0
 78
0
281
0
 65
0
146
0.0
  0
ENDTAB
  0
TABLE
  2
LTYPE
  5
2
330
0
100
AcDbSymbolTable
 70
3
  0
LTYPE
  5
24
330
2
100
AcDbSymbolTableRecord
100
AcDbLinetypeTableRecord
  2
ByBlock
 70
0
  3

 72
65
 73
0
 40
0.0
  0
LTYPE
  5
25
330
2
100
AcDbSymbolTableRecord
100
AcDbLinetypeTableRecord
  2
ByLayer
 70
0
  3

 72
65
 73
0
 40
0.0
  0
LTYPE
  5
26
330
2
100
AcDbSymbolTableRecord
100
AcDbLinetypeTableRecord
  2
Continuous
 70
0
  3

 72
65
 73
0
 40
0.0
  0
ENDTAB
  0
TABLE
  2
LAYER
  5
1
330
0
100
AcDbSymbolTable
 70
3
  0
LAYER
  5
27
330
1
100
AcDbSymbolTableRecord
100
AcDbLayerTableRecord
  2
0
 70
0
 62
7
  6
Continuous
370
-3
390
13
347
21
  0
LAYER
  5
28
330
1
100
AcDbSymbolTableRecord
100
AcDbLayerTableRecord
  2
Defpoints
 70
0
 62
7
  6
Continuous
290
0
370
-3
390
13
347
21
  0
LAYER
  5
2F
330
1
100
AcDbSymbolTableRecord
100
AcDbLayerTableRecord
  2
POCKET
 70
0
 62
5
  6
Continuous
370
-3
390
13
347
21
  0
ENDTAB
  0
TABLE
  2
STYLE
  5
5
330
0
100
AcDbSymbolTable
 70
1
  0
STYLE
  5
29
330
5
100
AcDbSymbolTableRecord
100
AcDbTextStyleTableRecord
  2
Standard
 70
0
 40
0.0
 41
1.0
 50
0.0
 71
0
 42
2.5
  3
txt
  4

  0
ENDTAB
  0
TABLE
  2
VIEW
  5
7
330
0
100
AcDbSymbolTable
 70
0
  0
ENDTAB
  0
TABLE
  2
UCS
  5
6
330
0
100
AcDbSymbolTable
 70
0
  0
ENDTAB
  0
TABLE
  2
APPID
  5
3
330
0
100
AcDbSymbolTable
 70
3
  0
APPID
  5
2A
330
3
100
AcDbSymbolTableRecord
100
AcDbRegAppTableRecord
  2
ACAD
 70
0
  0
APPID
  5
53
330
3
100
AcDbSymbolTableRecord
100
AcDbRegAppTableRecord
  2
HATCHBACKGROUNDCOLOR
 70
0
  0
APPID
  5
54
330
3
100
AcDbSymbolTableRecord
100
AcDbRegAppTableRecord
  2
EZDXF
 70
0
  0
ENDTAB
  0
TABLE
  2
DIMSTYLE
  5
4
330
0
100
AcDbSymbolTable
 70
1
100
AcDbDimStyleTable
  0
DIMSTYLE
105
2B
330
4
100
AcDbSymbolTableRecord
100
AcDbDimStyleTableRecord
  2
Standard
 70
0
 40
1.0
 41
2.5
 42
0.625
 43
3.75
 44
1.25
 45
0.0
 46
0.0
 47
0.0
 48
0.0
 49
2.5
140
2.5
141
2.5
142
0.0
143
0.03937007874
144
1.0
145
0.0
146
1.0
147
0.625
148
0.0
 69
0
 70
0
 71
0
 72
0
 73
0
 74
0
 75
0
 76
0
 77
1
 78
8
 79
3
170
0
171
3
172
1
173
0
174
0
175
0
176
0
177
0
178
0
179
2
271
2
272
2
273
2
274
3
275
0
276
0
277
2
278
44
279
0
280
0
281
0
282
0
283
0
284
8
285
0
286
0
288
0
289
3
290
0
371
-2
372
-2
  0
ENDTAB
  0
TABLE
  2
BLOCK_RECORD
  5
9
330
0
100
AcDbSymbolTable
 70
2
  0
BLOCK_RECORD
  5
17
330
9
100
AcDbSymbolTableRecord
100
AcDbBlockTableRecord
  2
*Model_Space
340
1A
 70
0
280
1
281
0
  0
BLOCK_RECORD
  5
1B
330
9
100
AcDbSymbolTableRecord
100
AcDbBlockTableRecord
  2
*Paper_Space
340
1E
 70
0
280
1
281
0
  0
ENDTAB
  0
ENDSEC
  0
SECTION
  2
BLOCKS
  0
BLOCK
  5
18
330
17
100
AcDbEntity
  8
0
100
AcDbBlockBegin
  2
*Model_Space
 70
0
 10
0.0
 20
0.0
 30
0.0
  3
*Model_Space
  1

  0
ENDBLK
  5
19
330
17
100
AcDbEntity
  8
0
100
AcDbBlockEnd
  0
BLOCK
  5
1C
330
1B
100
AcDbEntity
  8
0
100
AcDbBlockBegin
  2
*Paper_Space
 70
0
 10
0.0
 20
0.0
 30
0.0
  3
*Paper_Space
  1

  0
ENDBLK
  5
1D
330
1B
100
AcDbEntity
  8
0
100
AcDbBlockEnd
  0
ENDSEC
  0
SECTION
  2
ENTITIES
  0
LWPOLYLINE
  5
30
330
17
100
AcDbEntity
  8
POCKET
100
AcDbPolyline
 90
5
 70
1
 10
0.0
 20
0.0
 10
96.0
 20
0.0
 10
96.0
 20
48.0
 10
0.0
 20
48.0
 10
0.0
 20
0.0
  0
LWPOLYLINE
  5
31
330
17
100
AcDbEntity
  8
POCKET
100
AcDbPolyline
 90
53
 70
1
 10
41.59553562269968
 20
41.82000000000001
 10
51.8219822321064
 20
41.82000000000001
 10
51.84656857015086
 20
41.841561639776174
 10
51.87375892740304
 20
41.859729655649474
 10
51.903088069311764
 20
41.87419318783119
 10
51.93405416612741
 20
41.884704761275636
 10
51.96612737934802
 20
41.89108452004682
 10
51.99875892740304
 20
41.89322330470337
 10
52.03139047545805
 20
41.89108452004682
 10
52.06346368867867
 20
41.884704761275636
 10
52.09442978549431
 20
41.87419318783119
 10
52.12375892740304
 20
41.859729655649474
 10
52.15094928465522
 20
41.841561639776174
 10
52.17553562269968
 20
41.82000000000001
 10
52.19709726247585
 20
41.79541366195555
 10
52.21526527834915
 20
41.76822330470337
 10
52.22972881053086
 20
41.73889416279464
 10
52.240240383975305
 20
41.707928065979
 10
52.246620142746494
 20
41.67585485275838
 10
52.24875892740304
 20
41.64322330470337
 10
52.246620142746494
 20
41.610591756648354
 10
52.240240383975305
 20
41.578518543427734
 10
52.22972881053086
 20
41.547552446612094
 10
52.21526527834915
 20
41.51822330470337
 10
52.19709726247585
 20
41.49103294745119
 10
52.17553562269968
 20
41.46644660940673
 10
52.17553562269968
 20
40.558553390593275
 10
52.19709726247585
 20
40.53396705254882
 10
52.21526527834915
 20
40.50677669529664
 10
52.22972881053086
 20
40.47744755338791
 10
52.240240383975305
 20
40.44648145657227
 10
52.246620142746494
 20
40.41440824335165
 10
52.24875892740304
 20
40.38177669529664
 10
52.246620142746494
 20
40.34914514724163
 10
52.240240383975305
 20
40.31707193402101
 10
52.22972881053086
 20
40.28610583720537
 10
52.21526527834915
 20
40.25677669529664
 10
52.19709726247585
 20
40.229586338044456
 10
52.17553562269968
 20
40.205
 10
52.15094928465522
 20
40.18343836022383
 10
52.12375892740304
 20
40.16527034435053
 10
52.09442978549431
 20
40.15080681216882
 10
52.06346368867867
 20
40.14029523872437
 10
52.03139047545805
 20
40.13391547995319
 10
51.99875892740304
 20
40.13177669529664
 10
51.96612737934802
 20
40.13391547995319
 10
51.93405416612741
 20
40.14029523872437
 10
51.903088069311764
 20
40.15080681216882
 10
51.87375892740304
 20
40.16527034435053
 10
51.84656857015086
 20
40.18343836022383
 10
51.8219822321064
 20
40.205
 10
41.59553562269968
 20
40.205
 10
41.59553562269968
 20
41.82000000000001
  0
LWPOLYLINE
  5
32
330
17
100
AcDbEntity
  8
POCKET
100
AcDbPolyline
 90
53
 70
1
 10
41.59553562269968
 20
26.195
 10
51.8219822321064
 20
26.195
 10
51.84656857015086
 20
26.216561639776174
 10
51.87375892740304
 20
26.234729655649474
 10
51.903088069311764
 20
26.249193187831185
 10
51.93405416612741
 20
26.259704761275632
 10
51.96612737934802
 20
26.266084520046817
 10
51.99875892740304
 20
26.268223304703362
 10
52.03139047545805
 20
26.266084520046817
 10
52.06346368867867
 20
26.259704761275632
 10
52.09442978549431
 20
26.249193187831185
 10
52.12375892740304
 20
26.234729655649474
 10
52.15094928465522
 20
26.216561639776174
 10
52.17553562269968
 20
26.195
 10
52.19709726247585
 20
26.170413661955543
 10
52.21526527834915
 20
26.143223304703362
 10
52.22972881053086
 20
26.113894162794637
 10
52.240240383975305
 20
26.082928065978994
 10
52.246620142746494
 20
26.050854852758377
 10
52.24875892740304
 20
26.018223304703362
 10
52.246620142746494
 20
25.98559175664835
 10
52.240240383975305
 20
25.953518543427734
 10
52.22972881053086
 20
25.92255244661209
 10
52.21526527834915
 20
25.893223304703362
 10
52.19709726247585
 20
25.866032947451185
 10
52.17553562269968
 20
25.841446609406727
 10
52.17553562269968
 20
24.93355339059327
 10
52.19709726247585
 20
24.908967052548814
 10
52.21526527834915
 20
24.881776695296637
 10
52.22972881053086
 20
24.852447553387908
 10
52.240240383975305
 20
24.821481456572265
 10
52.246620142746494
 20
24.789408243351648
 10
52.24875892740304
 20
24.756776695296637
 10
52.246620142746494
 20
24.72414514724162
 10
52.240240383975305
 20
24.692071934021005
 10
52.22972881053086
 20
24.661105837205362
 10
52.21526527834915
 20
24.631776695296637
 10
52.19709726247585
 20
24.604586338044456
 10
52.17553562269968
 20
24.58
 10
52.15094928465522
 20
24.558438360223825
 10
52.12375892740304
 20
24.540270344350525
 10
52.09442978549431
 20
24.525806812168813
 10
52.06346368867867
 20
24.515295238724367
 10
52.03139047545805
 20
24.50891547995318
 10
51.99875892740304
 20
24.506776695296637
 10
51.96612737934802
 20
24.50891547995318
 10
51.93405416612741
 20
24.515295238724367
 10
51.903088069311764
 20
24.525806812168813
 10
51.87375892740304
 20
24.540270344350525
 10
51.84656857015086
 20
24.558438360223825
 10
51.8219822321064
 20
24.58
 10
41.59553562269968
 20
24.58
 10
41.59553562269968
 20
26.195
  0
LWPOLYLINE
  5
33
330
17
100
AcDbEntity
  8
POCKET
100
AcDbPolyline
 90
53
 70
1
 10
41.59553562269968
 20
9.945
 10
51.8219822321064
 20
9.945
 10
51.84656857015086
 20
9.966561639776172
 10
51.87375892740304
 20
9.984729655649474
 10
51.903088069311764
 20
9.999193187831185
 10
51.93405416612741
 20
10.00970476127563
 10
51.96612737934802
 20
10.016084520046816
 10
51.99875892740304
 20
10.018223304703364
 10
52.03139047545805
 20
10.016084520046816
 10
52.06346368867867
 20
10.00970476127563
 10
52.09442978549431
 20
9.999193187831185
 10
52.12375892740304
 20
9.984729655649474
 10
52.15094928465522
 20
9.966561639776172
 10
52.17553562269968
 20
9.945
 10
52.19709726247585
 20
9.920413661955543
 10
52.21526527834915
 20
9.893223304703364
 10
52.22972881053086
 20
9.863894162794637
 10
52.240240383975305
 20
9.832928065978994
 10
52.246620142746494
 20
9.800854852758377
 10
52.24875892740304
 20
9.768223304703364
 10
52.246620142746494
 20
9.73559175664835
 10
52.240240383975305
 20
9.703518543427734
 10
52.22972881053086
 20
9.672552446612091
 10
52.21526527834915
 20
9.643223304703364
 10
52.19709726247585
 20
9.616032947451183
 10
52.17553562269968
 20
9.591446609406727
 10
52.17553562269968
 20
8.683553390593278
 10
52.19709726247585
 20
8.658967052548823
 10
52.21526527834915
 20
8.631776695296642
 10
52.22972881053086
 20
8.602447553387915
 10
52.240240383975305
 20
8.571481456572272
 10
52.246620142746494
 20
8.539408243351655
 10
52.24875892740304
 20
8.506776695296642
 10
52.246620142746494
 20
8.474145147241629
 10
52.240240383975305
 20
8.442071934021012
 10
52.22972881053086
 20
8.411105837205369
 10
52.21526527834915
 20
8.381776695296642
 10
52.19709726247585
 20
8.354586338044463
 10
52.17553562269968
 20
8.330000000000005
 10
52.15094928465522
 20
8.308438360223834
 10
52.12375892740304
 20
8.290270344350533
 10
52.09442978549431
 20
8.27580681216882
 10
52.06346368867867
 20
8.265295238724375
 10
52.03139047545805
 20
8.25891547995319
 10
51.99875892740304
 20
8.256776695296642
 10
51.96612737934802
 20
8.25891547995319
 10
51.93405416612741
 20
8.265295238724375
 10
51.903088069311764
 20
8.27580681216882
 10
51.87375892740304
 20
8.290270344350532
 10
51.84656857015086
 20
8.308438360223834
 10
51.8219822321064
 20
8.330000000000005
 10
41.59553562269968
 20
8.330000000000005
 10
41.59553562269968
 20
9.945
  0
LWPOLYLINE
  5
34
330
17
100
AcDbEntity
  8
POCKET
100
AcDbPolyline
 90
53
 70
1
 10
55.39553562269967
 20
48.379999999999995
 10
55.39553562269967
 20
38.153553390593274
 10
55.41709726247584
 20
38.128967052548816
 10
55.43526527834914
 20
38.101776695296635
 10
55.44972881053085
 20
38.07244755338791
 10
55.4602403839753
 20
38.041481456572264
 10
55.466620142746486
 20
38.00940824335165
 10
55.46875892740303
 20
37.976776695296635
 10
55.466620142746486
 20
37.94414514724162
 10
55.4602403839753
 20
37.91207193402101
 10
55.44972881053085
 20
37.88110583720536
 10
55.43526527834914
 20
37.851776695296635
 10
55.41709726247584
 20
37.824586338044455
 10
55.39553562269967
 20
37.8
 10
55.37094928465521
 20
37.77843836022383
 10
55.34375892740303
 20
37.76027034435052
 10
55.314429785494305
 20
37.745806812168816
 10
55.283463688678665
 20
37.73529523872437
 10
55.251390475458045
 20
37.72891547995319
 10
55.21875892740303
 20
37.726776695296635
 10
55.18612737934802
 20
37.72891547995319
 10
55.1540541661274
 20
37.73529523872437
 10
55.12308806931176
 20
37.745806812168816
 10
55.09375892740303
 20
37.76027034435052
 10
55.06656857015085
 20
37.77843836022383
 10
55.04198223210639
 20
37.8
 10
54.13408901329295
 20
37.8
 10
54.10950267524849
 20
37.77843836022383
 10
54.08231231799631
 20
37.76027034435052
 10
54.05298317608758
 20
37.745806812168816
 10
54.02201707927194
 20
37.73529523872437
 10
53.98994386605132
 20
37.72891547995319
 10
53.95731231799631
 20
37.726776695296635
 10
53.9246807699413
 20
37.72891547995319
 10
53.892607556720684
 20
37.73529523872437
 10
53.86164145990504
 20
37.745806812168816
 10
53.83231231799631
 20
37.76027034435052
 10
53.80512196074413
 20
37.77843836022383
 10
53.780535622699674
 20
37.8
 10
53.7589739829235
 20
37.824586338044455
 10
53.7408059670502
 20
37.851776695296635
 10
53.72634243486849
 20
37.88110583720536
 10
53.715830861424045
 20
37.91207193402101
 10
53.70945110265286
 20
37.94414514724162
 10
53.70731231799631
 20
37.976776695296635
 10
53.70945110265286
 20
38.00940824335165
 10
53.715830861424045
 20
38.041481456572264
 10
53.72634243486849
 20
38.07244755338791
 10
53.7408059670502
 20
38.101776695296635
 10
53.7589739829235
 20
38.128967052548816
 10
53.780535622699674
 20
38.153553390593274
 10
53.780535622699674
 20
48.379999999999995
 10
55.39553562269967
 20
48.379999999999995
  0
LWPOLYLINE
  5
35
330
17
100
AcDbEntity
  8
POCKET
100
AcDbPolyline
 90
53
 70
1
 10
53.780535622699674
 20
-0.37999999999999723
 10
53.780535622699674
 20
9.846446609406728
 10
53.7589739829235
 20
9.871032947451184
 10
53.7408059670502
 20
9.898223304703365
 10
53.72634243486849
 20
9.927552446612092
 10
53.715830861424045
 20
9.958518543427735
 10
53.70945110265286
 20
9.990591756648351
 10
53.70731231799631
 20
10.023223304703365
 10
53.70945110265286
 20
10.055854852758378
 10
53.715830861424045
 20
10.087928065978994
 10
53.72634243486849
 20
10.118894162794637
 10
53.7408059670502
 20
10.148223304703365
 10
53.7589739829235
 20
10.175413661955545
 10
53.780535622699674
 20
10.200000000000001
 10
53.80512196074413
 20
10.221561639776173
 10
53.83231231799631
 20
10.239729655649475
 10
53.86164145990504
 20
10.254193187831186
 10
53.89260755672068
 20
10.264704761275631
 10
53.9246807699413
 20
10.271084520046816
 10
53.95731231799631
 20
10.273223304703365
 10
53.98994386605132
 20
10.271084520046816
 10
54.02201707927194
 20
10.264704761275631
 10
54.05298317608758
 20
10.254193187831186
 10
54.08231231799631
 20
10.239729655649475
 10
54.10950267524849
 20
10.221561639776173
 10
54.13408901329295
 20
10.200000000000001
 10
55.04198223210639
 20
10.200000000000001
 10
55.06656857015085
 20
10.221561639776173
 10
55.09375892740303
 20
10.239729655649475
 10
55.12308806931176
 20
10.254193187831186
 10
55.1540541661274
 20
10.264704761275631
 10
55.18612737934802
 20
10.271084520046816
 10
55.21875892740303
 20
10.273223304703365
 10
55.251390475458045
 20
10.271084520046816
 10
55.28346368867866
 20
10.264704761275631
 10
55.314429785494305
 20
10.254193187831186
 10
55.34375892740303
 20
10.239729655649475
 10
55.37094928465521
 20
10.221561639776173
 10
55.39553562269967
 20
10.200000000000001
 10
55.41709726247584
 20
10.175413661955545
 10
55.43526527834914
 20
10.148223304703365
 10
55.44972881053085
 20
10.118894162794637
 10
55.4602403839753
 20
10.087928065978994
 10
55.466620142746486
 20
10.055854852758378
 10
55.46875892740303
 20
10.023223304703365
 10
55.466620142746486
 20
9.990591756648351
 10
55.4602403839753
 20
9.958518543427735
 10
55.44972881053085
 20
9.927552446612092
 10
55.43526527834914
 20
9.898223304703365
 10
55.41709726247584
 20
9.871032947451184
 10
55.39553562269967
 20
9.846446609406728
 10
55.39553562269967
 20
-0.37999999999999723
 10
53.780535622699674
 20
-0.37999999999999723
  0
LWPOLYLINE
  5
36
330
17
100
AcDbEntity
  8
POCKET
100
AcDbPolyline
 90
53
 70
1
 10
44.39053562269967
 20
48.379999999999995
 10
44.39053562269967
 20
44.153553390593274
 10
44.41209726247585
 20
44.128967052548816
 10
44.43026527834915
 20
44.101776695296635
 10
44.444728810530854
 20
44.07244755338791
 10
44.4552403839753
 20
44.041481456572264
 10
44.46162014274649
 20
44.00940824335165
 10
44.463758927403035
 20
43.976776695296635
 10
44.46162014274649
 20
43.94414514724162
 10
44.4552403839753
 20
43.91207193402101
 10
44.444728810530854
 20
43.88110583720536
 10
44.43026527834915
 20
43.851776695296635
 10
44.41209726247585
 20
43.824586338044455
 10
44.39053562269967
 20
43.8
 10
44.365949284655215
 20
43.778438360223824
 10
44.338758927403035
 20
43.76027034435052
 10
44.30942978549431
 20
43.745806812168816
 10
44.27846368867867
 20
43.73529523872437
 10
44.24639047545805
 20
43.72891547995318
 10
44.213758927403035
 20
43.726776695296635
 10
44.18112737934803
 20
43.72891547995318
 10
44.14905416612741
 20
43.73529523872437
 10
44.11808806931177
 20
43.745806812168816
 10
44.088758927403035
 20
43.76027034435052
 10
44.061568570150854
 20
43.778438360223824
 10
44.036982232106396
 20
43.8
 10
43.129089013292955
 20
43.8
 10
43.1045026752485
 20
43.778438360223824
 10
43.077312317996316
 20
43.76027034435052
 10
43.047983176087584
 20
43.745806812168816
 10
43.017017079271945
 20
43.73529523872437
 10
42.984943866051324
 20
43.72891547995318
 10
42.952312317996316
 20
43.726776695296635
 10
42.9196807699413
 20
43.72891547995318
 10
42.88760755672069
 20
43.73529523872437
 10
42.85664145990504
 20
43.745806812168816
 10
42.827312317996316
 20
43.76027034435052
 10
42.800121960744136
 20
43.778438360223824
 10
42.77553562269968
 20
43.8
 10
42.753973982923505
 20
43.824586338044455
 10
42.735805967050204
 20
43.851776695296635
 10
42.7213424348685
 20
43.88110583720536
 10
42.71083086142405
 20
43.91207193402101
 10
42.70445110265286
 20
43.94414514724162
 10
42.702312317996316
 20
43.976776695296635
 10
42.70445110265286
 20
44.00940824335165
 10
42.71083086142405
 20
44.041481456572264
 10
42.7213424348685
 20
44.07244755338791
 10
42.735805967050204
 20
44.101776695296635
 10
42.753973982923505
 20
44.128967052548816
 10
42.77553562269968
 20
44.153553390593274
 10
42.77553562269968
 20
48.379999999999995
 10
44.39053562269967
 20
48.379999999999995
  0
LWPOLYLINE
  5
37
330
17
100
AcDbEntity
  8
POCKET
100
AcDbPolyline
 90
53
 70
1
 10
42.77553562269968
 20
-0.37999999999999723
 10
42.77553562269968
 20
3.8464466094067276
 10
42.753973982923505
 20
3.871032947451184
 10
42.735805967050204
 20
3.8982233047033645
 10
42.7213424348685
 20
3.927552446612092
 10
42.71083086142405
 20
3.958518543427734
 10
42.70445110265286
 20
3.9905917566483518
 10
42.702312317996316
 20
4.0232233047033645
 10
42.70445110265286
 20
4.055854852758378
 10
42.71083086142405
 20
4.0879280659789945
 10
42.7213424348685
 20
4.118894162794637
 10
42.735805967050204
 20
4.1482233047033645
 10
42.753973982923505
 20
4.175413661955545
 10
42.77553562269968
 20
4.200000000000001
 10
42.800121960744136
 20
4.221561639776174
 10
42.827312317996316
 20
4.239729655649474
 10
42.85664145990504
 20
4.254193187831186
 10
42.88760755672068
 20
4.264704761275632
 10
42.9196807699413
 20
4.271084520046817
 10
42.952312317996316
 20
4.2732233047033645
 10
42.984943866051324
 20
4.271084520046817
 10
43.017017079271945
 20
4.264704761275632
 10
43.047983176087584
 20
4.254193187831186
 10
43.077312317996316
 20
4.239729655649474
 10
43.1045026752485
 20
4.221561639776174
 10
43.129089013292955
 20
4.200000000000001
 10
44.036982232106396
 20
4.200000000000001
 10
44.061568570150854
 20
4.221561639776174
 10
44.088758927403035
 20
4.239729655649474
 10
44.11808806931177
 20
4.254193187831186
 10
44.14905416612741
 20
4.264704761275632
 10
44.18112737934803
 20
4.271084520046817
 10
44.213758927403035
 20
4.2732233047033645
 10
44.24639047545805
 20
4.271084520046817
 10
44.27846368867866
 20
4.264704761275632
 10
44.30942978549431
 20
4.254193187831186
 10
44.338758927403035
 20
4.239729655649474
 10
44.365949284655215
 20
4.221561639776174
 10
44.39053562269967
 20
4.200000000000001
 10
44.41209726247585
 20
4.175413661955545
 10
44.43026527834915
 20
4.1482233047033645
 10
44.444728810530854
 20
4.118894162794637
 10
44.4552403839753
 20
4.0879280659789945
 10
44.46162014274649
 20
4.055854852758378
 10
44.463758927403035
 20
4.0232233047033645
 10
44.46162014274649
 20
3.9905917566483518
 10
44.4552403839753
 20
3.958518543427734
 10
44.444728810530854
 20
3.927552446612092
 10
44.43026527834915
 20
3.8982233047033645
 10
44.41209726247585
 20
3.8710329474511846
 10
44.39053562269967
 20
3.8464466094067276
 10
44.39053562269967
 20
-0.37999999999999723
 10
42.77553562269968
 20
-0.37999999999999723
  0
LWPOLYLINE
  5
38
330
17
100
AcDbEntity
  8
POCKET
100
AcDbPolyline
 90
53
 70
1
 10
41.51063862907313
 20
6.18
 10
31.2841920196664
 20
6.18
 10
31.259605681621945
 20
6.158438360223828
 10
31.232415324369764
 20
6.140270344350527
 10
31.203086182461035
 20
6.125806812168815
 10
31.172120085645396
 20
6.11529523872437
 10
31.140046872424776
 20
6.108915479953184
 10
31.107415324369764
 20
6.106776695296636
 10
31.074783776314753
 20
6.108915479953184
 10
31.042710563094133
 20
6.11529523872437
 10
31.011744466278493
 20
6.125806812168815
 10
30.982415324369764
 20
6.140270344350527
 10
30.955224967117584
 20
6.158438360223828
 10
30.93063862907313
 20
6.18
 10
30.909076989296956
 20
6.204586338044456
 10
30.890908973423656
 20
6.231776695296636
 10
30.87644544124194
 20
6.261105837205364
 10
30.865933867797498
 20
6.292071934021006
 10
30.859554109026313
 20
6.324145147241624
 10
30.857415324369764
 20
6.356776695296636
 10
30.859554109026313
 20
6.3894082433516495
 10
30.865933867797498
 20
6.421481456572267
 10
30.87644544124194
 20
6.452447553387909
 10
30.890908973423656
 20
6.481776695296636
 10
30.909076989296956
 20
6.508967052548817
 10
30.93063862907313
 20
6.533553390593274
 10
30.93063862907313
 20
7.441446609406728
 10
30.909076989296956
 20
7.466032947451184
 10
30.890908973423656
 20
7.493223304703365
 10
30.87644544124194
 20
7.522552446612092
 10
30.865933867797498
 20
7.553518543427734
 10
30.859554109026313
 20
7.585591756648352
 10
30.857415324369764
 20
7.618223304703365
 10
30.859554109026313
 20
7.6508548527583775
 10
30.865933867797498
 20
7.682928065978995
 10
30.87644544124194
 20
7.713894162794637
 10
30.890908973423656
 20
7.743223304703365
 10
30.909076989296956
 20
7.770413661955545
 10
30.93063862907313
 20
7.795000000000002
 10
30.955224967117584
 20
7.8165616397761735
 10
30.982415324369764
 20
7.8347296556494745
 10
31.011744466278493
 20
7.849193187831187
 10
31.042710563094133
 20
7.859704761275632
 10
31.074783776314753
 20
7.866084520046817
 10
31.107415324369764
 20
7.868223304703365
 10
31.140046872424776
 20
7.866084520046817
 10
31.172120085645396
 20
7.859704761275632
 10
31.203086182461035
 20
7.849193187831187
 10
31.232415324369764
 20
7.8347296556494745
 10
31.259605681621945
 20
7.8165616397761735
 10
31.2841920196664
 20
7.795000000000002
 10
41.51063862907313
 20
7.795000000000002
 10
41.51063862907313
 20
6.18
  0
LWPOLYLINE
  5
39
330
17
100
AcDbEntity
  8
POCKET
100
AcDbPolyline
 90
53
 70
1
 10
41.51063862907313
 20
21.805
 10
31.2841920196664
 20
21.805
 10
31.259605681621945
 20
21.783438360223826
 10
31.232415324369764
 20
21.765270344350526
 10
31.203086182461035
 20
21.750806812168815
 10
31.172120085645396
 20
21.740295238724368
 10
31.140046872424776
 20
21.733915479953183
 10
31.107415324369764
 20
21.731776695296638
 10
31.074783776314753
 20
21.733915479953183
 10
31.042710563094133
 20
21.740295238724368
 10
31.011744466278493
 20
21.750806812168815
 10
30.982415324369764
 20
21.765270344350526
 10
30.955224967117584
 20
21.783438360223826
 10
30.93063862907313
 20
21.805
 10
30.909076989296956
 20
21.829586338044457
 10
30.890908973423656
 20
21.856776695296638
 10
30.87644544124194
 20
21.886105837205363
 10
30.865933867797498
 20
21.917071934021006
 10
30.859554109026313
 20
21.949145147241623
 10
30.857415324369764
 20
21.981776695296638
 10
30.859554109026313
 20
22.01440824335165
 10
30.865933867797498
 20
22.046481456572266
 10
30.87644544124194
 20
22.07744755338791
 10
30.890908973423656
 20
22.106776695296638
 10
30.909076989296956
 20
22.133967052548815
 10
30.93063862907313
 20
22.158553390593273
 10
30.93063862907313
 20
23.06644660940673
 10
30.909076989296956
 20
23.091032947451186
 10
30.890908973423656
 20
23.118223304703363
 10
30.87644544124194
 20
23.147552446612092
 10
30.865933867797498
 20
23.178518543427735
 10
30.859554109026313
 20
23.210591756648352
 10
30.857415324369764
 20
23.243223304703363
 10
30.859554109026313
 20
23.27585485275838
 10
30.865933867797498
 20
23.307928065978995
 10
30.87644544124194
 20
23.338894162794638
 10
30.890908973423656
 20
23.368223304703363
 10
30.909076989296956
 20
23.395413661955544
 10
30.93063862907313
 20
23.42
 10
30.955224967117584
 20
23.441561639776175
 10
30.982415324369764
 20
23.459729655649475
 10
31.011744466278493
 20
23.474193187831187
 10
31.042710563094133
 20
23.484704761275633
 10
31.074783776314753
 20
23.49108452004682
 10
31.107415324369764
 20
23.493223304703363
 10
31.140046872424776
 20
23.49108452004682
 10
31.172120085645396
 20
23.484704761275633
 10
31.203086182461035
 20
23.474193187831187
 10
31.232415324369764
 20
23.459729655649475
 10
31.259605681621945
 20
23.441561639776175
 10
31.2841920196664
 20
23.42
 10
41.51063862907313
 20
23.42
 10
41.51063862907313
 20
21.805
  0
LWPOLYLINE
  5
3A
330
17
100
AcDbEntity
  8
POCKET
100
AcDbPolyline
 90
53
 70
1
 10
41.51063862907313
 20
38.055
 10
31.2841920196664
 20
38.055
 10
31.259605681621945
 20
38.033438360223826
 10
31.232415324369764
 20
38.015270344350526
 10
31.203086182461035
 20
38.00080681216882
 10
31.172120085645396
 20
37.99029523872437
 10
31.140046872424776
 20
37.98391547995318
 10
31.107415324369764
 20
37.98177669529664
 10
31.074783776314753
 20
37.98391547995318
 10
31.042710563094133
 20
37.99029523872437
 10
31.011744466278493
 20
38.00080681216882
 10
30.982415324369764
 20
38.015270344350526
 10
30.955224967117584
 20
38.033438360223826
 10
30.93063862907313
 20
38.055
 10
30.909076989296956
 20
38.07958633804446
 10
30.890908973423656
 20
38.10677669529664
 10
30.87644544124194
 20
38.13610583720536
 10
30.865933867797498
 20
38.16707193402101
 10
30.859554109026313
 20
38.19914514724162
 10
30.857415324369764
 20
38.23177669529664
 10
30.859554109026313
 20
38.26440824335165
 10
30.865933867797498
 20
38.296481456572266
 10
30.87644544124194
 20
38.327447553387906
 10
30.890908973423656
 20
38.35677669529664
 10
30.909076989296956
 20
38.38396705254882
 10
30.93063862907313
 20
38.408553390593276
 10
30.93063862907313
 20
39.31644660940672
 10
30.909076989296956
 20
39.341032947451176
 10
30.890908973423656
 20
39.368223304703356
 10
30.87644544124194
 20
39.39755244661208
 10
30.865933867797498
 20
39.42851854342773
 10
30.859554109026313
 20
39.46059175664834
 10
30.857415324369764
 20
39.493223304703356
 10
30.859554109026313
 20
39.52585485275837
 10
30.865933867797498
 20
39.557928065978984
 10
30.87644544124194
 20
39.58889416279463
 10
30.890908973423656
 20
39.618223304703356
 10
30.909076989296956
 20
39.64541366195554
 10
30.93063862907313
 20
39.669999999999995
 10
30.955224967117584
 20
39.69156163977617
 10
30.982415324369764
 20
39.70972965564947
 10
31.011744466278493
 20
39.724193187831176
 10
31.042710563094133
 20
39.73470476127562
 10
31.074783776314753
 20
39.74108452004681
 10
31.107415324369764
 20
39.743223304703356
 10
31.140046872424776
 20
39.74108452004681
 10
31.172120085645396
 20
39.73470476127562
 10
31.203086182461035
 20
39.724193187831176
 10
31.232415324369764
 20
39.70972965564947
 10
31.259605681621945
 20
39.69156163977617
 10
31.2841920196664
 20
39.669999999999995
 10
41.51063862907313
 20
39.669999999999995
 10
41.51063862907313
 20
38.055
  0
LWPOLYLINE
  5
3B
330
17
100
AcDbEntity
  8
POCKET
100
AcDbPolyline
 90
53
 70
1
 10
27.710638629073134
 20
-0.37999999999999723
 10
27.710638629073134
 20
9.846446609406728
 10
27.68907698929696
 20
9.871032947451184
 10
27.67090897342366
 20
9.898223304703365
 10
27.65644544124195
 20
9.927552446612092
 10
27.645933867797503
 20
9.958518543427735
 10
27.639554109026317
 20
9.990591756648351
 10
27.637415324369773
 20
10.023223304703365
 10
27.639554109026317
 20
10.055854852758378
 10
27.645933867797503
 20
10.087928065978994
 10
27.65644544124195
 20
10.118894162794637
 10
27.67090897342366
 20
10.148223304703365
 10
27.68907698929696
 20
10.175413661955545
 10
27.710638629073134
 20
10.200000000000001
 10
27.735224967117592
 20
10.221561639776173
 10
27.762415324369773
 20
10.239729655649475
 10
27.791744466278498
 20
10.254193187831186
 10
27.82271056309414
 20
10.264704761275631
 10
27.854783776314758
 20
10.271084520046816
 10
27.887415324369773
 20
10.273223304703365
 10
27.920046872424784
 20
10.271084520046816
 10
27.9521200856454
 20
10.264704761275631
 10
27.983086182461044
 20
10.254193187831186
 10
28.012415324369773
 20
10.239729655649475
 10
28.03960568162195
 20
10.221561639776173
 10
28.064192019666407
 20
10.200000000000001
 10
28.972085238479856
 20
10.200000000000001
 10
28.996671576524314
 20
10.221561639776173
 10
29.02386193377649
 20
10.239729655649475
 10
29.05319107568522
 20
10.254193187831186
 10
29.084157172500863
 20
10.264704761275631
 10
29.11623038572148
 20
10.271084520046816
 10
29.14886193377649
 20
10.273223304703365
 10
29.181493481831506
 20
10.271084520046816
 10
29.213566695052123
 20
10.264704761275631
 10
29.244532791867766
 20
10.254193187831186
 10
29.27386193377649
 20
10.239729655649475
 10
29.30105229102867
 20
10.221561639776173
 10
29.32563862907313
 20
10.200000000000001
 10
29.347200268849303
 20
10.175413661955545
 10
29.365368284722603
 20
10.148223304703365
 10
29.379831816904314
 20
10.118894162794637
 10
29.39034339034876
 20
10.087928065978994
 10
29.396723149119946
 20
10.055854852758378
 10
29.39886193377649
 20
10.023223304703365
 10
29.396723149119946
 20
9.990591756648351
 10
29.39034339034876
 20
9.958518543427735
 10
29.379831816904314
 20
9.927552446612092
 10
29.365368284722603
 20
9.898223304703365
 10
29.347200268849303
 20
9.871032947451184
 10
29.32563862907313
 20
9.846446609406728
 10
29.32563862907313
 20
-0.37999999999999723
 10
27.710638629073134
 20
-0.37999999999999723
  0
LWPOLYLINE
  5
3C
330
17
100
AcDbEntity
  8
POCKET
100
AcDbPolyline
 90
53
 70
1
 10
29.32563862907313
 20
48.379999999999995
 10
29.32563862907313
 20
38.153553390593274
 10
29.347200268849303
 20
38.128967052548816
 10
29.365368284722603
 20
38.101776695296635
 10
29.379831816904314
 20
38.07244755338791
 10
29.39034339034876
 20
38.041481456572264
 10
29.396723149119946
 20
38.00940824335165
 10
29.39886193377649
 20
37.976776695296635
 10
29.396723149119946
 20
37.94414514724162
 10
29.39034339034876
 20
37.91207193402101
 10
29.379831816904314
 20
37.88110583720536
 10
29.365368284722603
 20
37.851776695296635
 10
29.347200268849303
 20
37.824586338044455
 10
29.32563862907313
 20
37.8
 10
29.30105229102867
 20
37.77843836022383
 10
29.27386193377649
 20
37.76027034435052
 10
29.244532791867766
 20
37.745806812168816
 10
29.213566695052123
 20
37.73529523872437
 10
29.181493481831506
 20
37.72891547995319
 10
29.14886193377649
 20
37.726776695296635
 10
29.11623038572148
 20
37.72891547995319
 10
29.084157172500863
 20
37.73529523872437
 10
29.05319107568522
 20
37.745806812168816
 10
29.02386193377649
 20
37.76027034435052
 10
28.996671576524314
 20
37.77843836022383
 10
28.972085238479856
 20
37.8
 10
28.064192019666407
 20
37.8
 10
28.03960568162195
 20
37.77843836022383
 10
28.012415324369773
 20
37.76027034435052
 10
27.983086182461044
 20
37.745806812168816
 10
27.9521200856454
 20
37.73529523872437
 10
27.920046872424784
 20
37.72891547995319
 10
27.887415324369773
 20
37.726776695296635
 10
27.854783776314758
 20
37.72891547995319
 10
27.82271056309414
 20
37.73529523872437
 10
27.791744466278498
 20
37.745806812168816
 10
27.762415324369773
 20
37.76027034435052
 10
27.735224967117592
 20
37.77843836022383
 10
27.710638629073134
 20
37.8
 10
27.68907698929696
 20
37.824586338044455
 10
27.67090897342366
 20
37.851776695296635
 10
27.65644544124195
 20
37.88110583720536
 10
27.645933867797503
 20
37.91207193402101
 10
27.639554109026317
 20
37.94414514724162
 10
27.637415324369773
 20
37.976776695296635
 10
27.639554109026317
 20
38.00940824335165
 10
27.645933867797503
 20
38.041481456572264
 10
27.65644544124195
 20
38.07244755338791
 10
27.67090897342366
 20
38.101776695296635
 10
27.68907698929696
 20
38.128967052548816
 10
27.710638629073134
 20
38.153553390593274
 10
27.710638629073134
 20
48.379999999999995
 10
29.32563862907313
 20
48.379999999999995
  0
LWPOLYLINE
  5
3D
330
17
100
AcDbEntity
  8
POCKET
100
AcDbPolyline
 90
53
 70
1
 10
38.715638629073126
 20
-0.37999999999999723
 10
38.715638629073126
 20
3.8464466094067276
 10
38.69407698929695
 20
3.871032947451184
 10
38.67590897342365
 20
3.8982233047033645
 10
38.661445441241945
 20
3.927552446612092
 10
38.6509338677975
 20
3.958518543427734
 10
38.64455410902631
 20
3.9905917566483518
 10
38.642415324369765
 20
4.0232233047033645
 10
38.64455410902631
 20
4.055854852758378
 10
38.6509338677975
 20
4.0879280659789945
 10
38.661445441241945
 20
4.118894162794637
 10
38.67590897342365
 20
4.1482233047033645
 10
38.69407698929695
 20
4.175413661955545
 10
38.715638629073126
 20
4.200000000000001
 10
38.740224967117584
 20
4.221561639776174
 10
38.767415324369765
 20
4.239729655649474
 10
38.79674446627849
 20
4.254193187831186
 10
38.82771056309413
 20
4.264704761275632
 10
38.85978377631475
 20
4.271084520046817
 10
38.892415324369765
 20
4.2732233047033645
 10
38.92504687242477
 20
4.271084520046817
 10
38.95712008564539
 20
4.264704761275632
 10
38.98808618246103
 20
4.254193187831186
 10
39.017415324369765
 20
4.239729655649474
 10
39.044605681621945
 20
4.221561639776174
 10
39.0691920196664
 20
4.200000000000001
 10
39.977085238479845
 20
4.200000000000001
 10
40.0016715765243
 20
4.221561639776174
 10
40.02886193377648
 20
4.239729655649474
 10
40.058191075685215
 20
4.254193187831186
 10
40.089157172500855
 20
4.264704761275632
 10
40.121230385721475
 20
4.271084520046817
 10
40.15386193377648
 20
4.2732233047033645
 10
40.1864934818315
 20
4.271084520046817
 10
40.21856669505211
 20
4.264704761275632
 10
40.24953279186776
 20
4.254193187831186
 10
40.27886193377648
 20
4.239729655649474
 10
40.306052291028664
 20
4.221561639776174
 10
40.33063862907312
 20
4.200000000000001
 10
40.352200268849295
 20
4.175413661955545
 10
40.370368284722595
 20
4.1482233047033645
 10
40.3848318169043
 20
4.118894162794637
 10
40.39534339034875
 20
4.0879280659789945
 10
40.40172314911994
 20
4.055854852758378
 10
40.40386193377648
 20
4.0232233047033645
 10
40.40172314911994
 20
3.9905917566483518
 10
40.39534339034875
 20
3.958518543427734
 10
40.3848318169043
 20
3.927552446612092
 10
40.370368284722595
 20
3.8982233047033645
 10
40.352200268849295
 20
3.8710329474511846
 10
40.33063862907312
 20
3.8464466094067276
 10
40.33063862907312
 20
-0.37999999999999723
 10
38.715638629073126
 20
-0.37999999999999723
  0
LWPOLYLINE
  5
3E
330
17
100
AcDbEntity
  8
POCKET
100
AcDbPolyline
 90
53
 70
1
 10
40.33063862907312
 20
48.379999999999995
 10
40.33063862907312
 20
44.153553390593274
 10
40.352200268849295
 20
44.128967052548816
 10
40.370368284722595
 20
44.101776695296635
 10
40.3848318169043
 20
44.07244755338791
 10
40.39534339034875
 20
44.041481456572264
 10
40.40172314911994
 20
44.00940824335165
 10
40.40386193377648
 20
43.976776695296635
 10
40.40172314911994
 20
43.94414514724162
 10
40.39534339034875
 20
43.91207193402101
 10
40.3848318169043
 20
43.88110583720536
 10
40.370368284722595
 20
43.851776695296635
 10
40.352200268849295
 20
43.824586338044455
 10
40.33063862907312
 20
43.8
 10
40.306052291028664
 20
43.778438360223824
 10
40.27886193377648
 20
43.76027034435052
 10
40.24953279186776
 20
43.745806812168816
 10
40.21856669505212
 20
43.73529523872437
 10
40.1864934818315
 20
43.72891547995318
 10
40.15386193377648
 20
43.726776695296635
 10
40.121230385721475
 20
43.72891547995318
 10
40.089157172500855
 20
43.73529523872437
 10
40.058191075685215
 20
43.745806812168816
 10
40.02886193377648
 20
43.76027034435052
 10
40.0016715765243
 20
43.778438360223824
 10
39.977085238479845
 20
43.8
 10
39.0691920196664
 20
43.8
 10
39.044605681621945
 20
43.778438360223824
 10
39.017415324369765
 20
43.76027034435052
 10
38.98808618246103
 20
43.745806812168816
 10
38.95712008564539
 20
43.73529523872437
 10
38.92504687242477
 20
43.72891547995318
 10
38.892415324369765
 20
43.726776695296635
 10
38.85978377631475
 20
43.72891547995318
 10
38.827710563094136
 20
43.73529523872437
 10
38.79674446627849
 20
43.745806812168816
 10
38.767415324369765
 20
43.76027034435052
 10
38.740224967117584
 20
43.778438360223824
 10
38.715638629073126
 20
43.8
 10
38.69407698929695
 20
43.824586338044455
 10
38.67590897342365
 20
43.851776695296635
 10
38.661445441241945
 20
43.88110583720536
 10
38.6509338677975
 20
43.91207193402101
 10
38.64455410902631
 20
43.94414514724162
 10
38.642415324369765
 20
43.976776695296635
 10
38.64455410902631
 20
44.00940824335165
 10
38.6509338677975
 20
44.041481456572264
 10
38.661445441241945
 20
44.07244755338791
 10
38.67590897342365
 20
44.101776695296635
 10
38.69407698929695
 20
44.128967052548816
 10
38.715638629073126
 20
44.153553390593274
 10
38.715638629073126
 20
48.379999999999995
 10
40.33063862907312
 20
48.379999999999995
  0
LWPOLYLINE
  5
3F
330
17
100
AcDbEntity
  8
POCKET
100
AcDbPolyline
 90
53
 70
1
 10
96.3800079833114
 20
6.18
 10
86.15356137390468
 20
6.18
 10
86.12897503586022
 20
6.158438360223828
 10
86.10178467860804
 20
6.140270344350527
 10
86.07245553669931
 20
6.125806812168815
 10
86.04148943988368
 20
6.11529523872437
 10
86.00941622666305
 20
6.108915479953184
 10
85.97678467860804
 20
6.106776695296636
 10
85.94415313055303
 20
6.108915479953184
 10
85.9120799173324
 20
6.11529523872437
 10
85.88111382051677
 20
6.125806812168815
 10
85.85178467860804
 20
6.140270344350527
 10
85.82459432135586
 20
6.158438360223828
 10
85.8000079833114
 20
6.18
 10
85.77844634353524
 20
6.204586338044456
 10
85.76027832766194
 20
6.231776695296636
 10
85.74581479548021
 20
6.261105837205364
 10
85.73530322203578
 20
6.292071934021006
 10
85.7289234632646
 20
6.324145147241624
 10
85.72678467860804
 20
6.356776695296636
 10
85.7289234632646
 20
6.3894082433516495
 10
85.73530322203578
 20
6.421481456572267
 10
85.74581479548021
 20
6.452447553387909
 10
85.76027832766194
 20
6.481776695296636
 10
85.77844634353524
 20
6.508967052548817
 10
85.8000079833114
 20
6.533553390593274
 10
85.8000079833114
 20
7.441446609406728
 10
85.77844634353524
 20
7.466032947451184
 10
85.76027832766194
 20
7.493223304703365
 10
85.74581479548021
 20
7.522552446612092
 10
85.73530322203578
 20
7.553518543427734
 10
85.7289234632646
 20
7.585591756648352
 10
85.72678467860804
 20
7.618223304703365
 10
85.7289234632646
 20
7.6508548527583775
 10
85.73530322203578
 20
7.682928065978995
 10
85.74581479548021
 20
7.713894162794637
 10
85.76027832766194
 20
7.743223304703365
 10
85.77844634353524
 20
7.770413661955545
 10
85.8000079833114
 20
7.795000000000002
 10
85.82459432135586
 20
7.8165616397761735
 10
85.85178467860804
 20
7.8347296556494745
 10
85.88111382051677
 20
7.849193187831187
 10
85.9120799173324
 20
7.859704761275632
 10
85.94415313055303
 20
7.866084520046817
 10
85.97678467860804
 20
7.868223304703365
 10
86.00941622666305
 20
7.866084520046817
 10
86.04148943988368
 20
7.859704761275632
 10
86.07245553669931
 20
7.849193187831187
 10
86.10178467860804
 20
7.8347296556494745
 10
86.12897503586022
 20
7.8165616397761735
 10
86.15356137390468
 20
7.795000000000002
 10
96.3800079833114
 20
7.795000000000002
 10
96.3800079833114
 20
6.18
  0
LWPOLYLINE
  5
40
330
17
100
AcDbEntity
  8
POCKET
100
AcDbPolyline
 90
53
 70
1
 10
96.3800079833114
 20
21.805
 10
86.15356137390468
 20
21.805
 10
86.12897503586022
 20
21.783438360223826
 10
86.10178467860804
 20
21.765270344350526
 10
86.07245553669931
 20
21.750806812168815
 10
86.04148943988368
 20
21.740295238724368
 10
86.00941622666305
 20
21.733915479953183
 10
85.97678467860804
 20
21.731776695296638
 10
85.94415313055303
 20
21.733915479953183
 10
85.9120799173324
 20
21.740295238724368
 10
85.88111382051677
 20
21.750806812168815
 10
85.85178467860804
 20
21.765270344350526
 10
85.82459432135586
 20
21.783438360223826
 10
85.8000079833114
 20
21.805
 10
85.77844634353524
 20
21.829586338044457
 10
85.76027832766194
 20
21.856776695296638
 10
85.74581479548021
 20
21.886105837205363
 10
85.73530322203578
 20
21.917071934021006
 10
85.7289234632646
 20
21.949145147241623
 10
85.72678467860804
 20
21.981776695296638
 10
85.7289234632646
 20
22.01440824335165
 10
85.73530322203578
 20
22.046481456572266
 10
85.74581479548021
 20
22.07744755338791
 10
85.76027832766194
 20
22.106776695296638
 10
85.77844634353524
 20
22.133967052548815
 10
85.8000079833114
 20
22.158553390593273
 10
85.8000079833114
 20
23.06644660940673
 10
85.77844634353524
 20
23.091032947451186
 10
85.76027832766194
 20
23.118223304703363
 10
85.74581479548021
 20
23.147552446612092
 10
85.73530322203578
 20
23.178518543427735
 10
85.7289234632646
 20
23.210591756648352
 10
85.72678467860804
 20
23.243223304703363
 10
85.7289234632646
 20
23.27585485275838
 10
85.73530322203578
 20
23.307928065978995
 10
85.74581479548021
 20
23.338894162794638
 10
85.76027832766194
 20
23.368223304703363
 10
85.77844634353524
 20
23.395413661955544
 10
85.8000079833114
 20
23.42
 10
85.82459432135586
 20
23.441561639776175
 10
85.85178467860804
 20
23.459729655649475
 10
85.88111382051677
 20
23.474193187831187
 10
85.9120799173324
 20
23.484704761275633
 10
85.94415313055303
 20
23.49108452004682
 10
85.97678467860804
 20
23.493223304703363
 10
86.00941622666305
 20
23.49108452004682
 10
86.04148943988368
 20
23.484704761275633
 10
86.07245553669931
 20
23.474193187831187
 10
86.10178467860804
 20
23.459729655649475
 10
86.12897503586022
 20
23.441561639776175
 10
86.15356137390468
 20
23.42
 10
96.3800079833114
 20
23.42
 10
96.3800079833114
 20
21.805
  0
LWPOLYLINE
  5
41
330
17
100
AcDbEntity
  8
POCKET
100
AcDbPolyline
 90
53
 70
1
 10
96.3800079833114
 20
38.055
 10
86.15356137390468
 20
38.055
 10
86.12897503586022
 20
38.033438360223826
 10
86.10178467860804
 20
38.015270344350526
 10
86.07245553669931
 20
38.00080681216882
 10
86.04148943988368
 20
37.99029523872437
 10
86.00941622666305
 20
37.98391547995318
 10
85.97678467860804
 20
37.98177669529664
 10
85.94415313055303
 20
37.98391547995318
 10
85.9120799173324
 20
37.99029523872437
 10
85.88111382051677
 20
38.00080681216882
 10
85.85178467860804
 20
38.015270344350526
 10
85.82459432135586
 20
38.033438360223826
 10
85.8000079833114
 20
38.055
 10
85.77844634353524
 20
38.07958633804446
 10
85.76027832766194
 20
38.10677669529664
 10
85.74581479548021
 20
38.13610583720536
 10
85.73530322203578
 20
38.16707193402101
 10
85.7289234632646
 20
38.19914514724162
 10
85.72678467860804
 20
38.23177669529664
 10
85.7289234632646
 20
38.26440824335165
 10
85.73530322203578
 20
38.296481456572266
 10
85.74581479548021
 20
38.327447553387906
 10
85.76027832766194
 20
38.35677669529664
 10
85.77844634353524
 20
38.38396705254882
 10
85.8000079833114
 20
38.408553390593276
 10
85.8000079833114
 20
39.31644660940672
 10
85.77844634353524
 20
39.341032947451176
 10
85.76027832766194
 20
39.368223304703356
 10
85.74581479548021
 20
39.39755244661208
 10
85.73530322203578
 20
39.42851854342773
 10
85.7289234632646
 20
39.46059175664834
 10
85.72678467860804
 20
39.493223304703356
 10
85.7289234632646
 20
39.52585485275837
 10
85.73530322203578
 20
39.557928065978984
 10
85.74581479548021
 20
39.58889416279463
 10
85.76027832766194
 20
39.618223304703356
 10
85.77844634353524
 20
39.64541366195554
 10
85.8000079833114
 20
39.669999999999995
 10
85.82459432135586
 20
39.69156163977617
 10
85.85178467860804
 20
39.70972965564947
 10
85.88111382051677
 20
39.724193187831176
 10
85.9120799173324
 20
39.73470476127562
 10
85.94415313055303
 20
39.74108452004681
 10
85.97678467860804
 20
39.743223304703356
 10
86.00941622666305
 20
39.74108452004681
 10
86.04148943988368
 20
39.73470476127562
 10
86.07245553669931
 20
39.724193187831176
 10
86.10178467860804
 20
39.70972965564947
 10
86.12897503586022
 20
39.69156163977617
 10
86.15356137390468
 20
39.669999999999995
 10
96.3800079833114
 20
39.669999999999995
 10
96.3800079833114
 20
38.055
  0
LWPOLYLINE
  5
42
330
17
100
AcDbEntity
  8
POCKET
100
AcDbPolyline
 90
53
 70
1
 10
82.58000798331142
 20
-0.37999999999999723
 10
82.58000798331142
 20
9.846446609406728
 10
82.55844634353525
 20
9.871032947451184
 10
82.54027832766195
 20
9.898223304703365
 10
82.52581479548023
 20
9.927552446612092
 10
82.51530322203578
 20
9.958518543427735
 10
82.50892346326461
 20
9.990591756648351
 10
82.50678467860806
 20
10.023223304703365
 10
82.50892346326461
 20
10.055854852758378
 10
82.51530322203578
 20
10.087928065978994
 10
82.52581479548023
 20
10.118894162794637
 10
82.54027832766195
 20
10.148223304703365
 10
82.55844634353525
 20
10.175413661955545
 10
82.58000798331142
 20
10.200000000000001
 10
82.60459432135588
 20
10.221561639776173
 10
82.63178467860806
 20
10.239729655649475
 10
82.66111382051679
 20
10.254193187831186
 10
82.69207991733242
 20
10.264704761275631
 10
82.72415313055305
 20
10.271084520046816
 10
82.75678467860806
 20
10.273223304703365
 10
82.78941622666306
 20
10.271084520046816
 10
82.82148943988369
 20
10.264704761275631
 10
82.85245553669932
 20
10.254193187831186
 10
82.88178467860806
 20
10.239729655649475
 10
82.90897503586024
 20
10.221561639776173
 10
82.9335613739047
 20
10.200000000000001
 10
83.84145459271812
 20
10.200000000000001
 10
83.86604093076258
 20
10.221561639776173
 10
83.89323128801476
 20
10.239729655649475
 10
83.9225604299235
 20
10.254193187831186
 10
83.95352652673913
 20
10.264704761275631
 10
83.98559973995975
 20
10.271084520046816
 10
84.01823128801476
 20
10.273223304703365
 10
84.05086283606977
 20
10.271084520046816
 10
84.0829360492904
 20
10.264704761275631
 10
84.11390214610603
 20
10.254193187831186
 10
84.14323128801476
 20
10.239729655649475
 10
84.17042164526694
 20
10.221561639776173
 10
84.1950079833114
 20
10.200000000000001
 10
84.21656962308757
 20
10.175413661955545
 10
84.23473763896087
 20
10.148223304703365
 10
84.24920117114259
 20
10.118894162794637
 10
84.25971274458703
 20
10.087928065978994
 10
84.26609250335821
 20
10.055854852758378
 10
84.26823128801476
 20
10.023223304703365
 10
84.26609250335821
 20
9.990591756648351
 10
84.25971274458703
 20
9.958518543427735
 10
84.24920117114259
 20
9.927552446612092
 10
84.23473763896087
 20
9.898223304703365
 10
84.21656962308757
 20
9.871032947451184
 10
84.1950079833114
 20
9.846446609406728
 10
84.1950079833114
 20
-0.37999999999999723
 10
82.58000798331142
 20
-0.37999999999999723
  0
LWPOLYLINE
  5
43
330
17
100
AcDbEntity
  8
POCKET
100
AcDbPolyline
 90
53
 70
1
 10
84.1950079833114
 20
48.379999999999995
 10
84.1950079833114
 20
38.153553390593274
 10
84.21656962308757
 20
38.128967052548816
 10
84.23473763896087
 20
38.101776695296635
 10
84.24920117114259
 20
38.07244755338791
 10
84.25971274458703
 20
38.041481456572264
 10
84.26609250335821
 20
38.00940824335165
 10
84.26823128801476
 20
37.976776695296635
 10
84.26609250335821
 20
37.94414514724162
 10
84.25971274458703
 20
37.91207193402101
 10
84.24920117114259
 20
37.88110583720536
 10
84.23473763896087
 20
37.851776695296635
 10
84.21656962308757
 20
37.824586338044455
 10
84.1950079833114
 20
37.8
 10
84.17042164526694
 20
37.77843836022383
 10
84.14323128801476
 20
37.76027034435052
 10
84.11390214610603
 20
37.745806812168816
 10
84.0829360492904
 20
37.73529523872437
 10
84.05086283606977
 20
37.72891547995319
 10
84.01823128801476
 20
37.726776695296635
 10
83.98559973995975
 20
37.72891547995319
 10
83.95352652673913
 20
37.73529523872437
 10
83.9225604299235
 20
37.745806812168816
 10
83.89323128801476
 20
37.76027034435052
 10
83.86604093076258
 20
37.77843836022383
 10
83.84145459271812
 20
37.8
 10
82.9335613739047
 20
37.8
 10
82.90897503586024
 20
37.77843836022383
 10
82.88178467860806
 20
37.76027034435052
 10
82.85245553669932
 20
37.745806812168816
 10
82.82148943988369
 20
37.73529523872437
 10
82.78941622666306
 20
37.72891547995319
 10
82.75678467860806
 20
37.726776695296635
 10
82.72415313055305
 20
37.72891547995319
 10
82.69207991733242
 20
37.73529523872437
 10
82.66111382051679
 20
37.745806812168816
 10
82.63178467860806
 20
37.76027034435052
 10
82.60459432135588
 20
37.77843836022383
 10
82.58000798331142
 20
37.8
 10
82.55844634353525
 20
37.824586338044455
 10
82.54027832766195
 20
37.851776695296635
 10
82.52581479548023
 20
37.88110583720536
 10
82.51530322203578
 20
37.91207193402101
 10
82.50892346326461
 20
37.94414514724162
 10
82.50678467860806
 20
37.976776695296635
 10
82.50892346326461
 20
38.00940824335165
 10
82.51530322203578
 20
38.041481456572264
 10
82.52581479548023
 20
38.07244755338791
 10
82.54027832766195
 20
38.101776695296635
 10
82.55844634353525
 20
38.128967052548816
 10
82.58000798331142
 20
38.153553390593274
 10
82.58000798331142
 20
48.379999999999995
 10
84.1950079833114
 20
48.379999999999995
  0
LWPOLYLINE
  5
44
330
17
100
AcDbEntity
  8
POCKET
100
AcDbPolyline
 90
53
 70
1
 10
93.58500798331141
 20
-0.37999999999999723
 10
93.58500798331141
 20
3.8464466094067276
 10
93.56344634353525
 20
3.871032947451184
 10
93.54527832766195
 20
3.8982233047033645
 10
93.53081479548023
 20
3.927552446612092
 10
93.52030322203578
 20
3.958518543427734
 10
93.5139234632646
 20
3.9905917566483518
 10
93.51178467860805
 20
4.0232233047033645
 10
93.5139234632646
 20
4.055854852758378
 10
93.52030322203578
 20
4.0879280659789945
 10
93.53081479548023
 20
4.118894162794637
 10
93.54527832766195
 20
4.1482233047033645
 10
93.56344634353525
 20
4.175413661955545
 10
93.58500798331141
 20
4.200000000000001
 10
93.60959432135587
 20
4.221561639776174
 10
93.63678467860805
 20
4.239729655649474
 10
93.66611382051678
 20
4.254193187831186
 10
93.69707991733242
 20
4.264704761275632
 10
93.72915313055304
 20
4.271084520046817
 10
93.76178467860805
 20
4.2732233047033645
 10
93.79441622666306
 20
4.271084520046817
 10
93.82648943988369
 20
4.264704761275632
 10
93.85745553669932
 20
4.254193187831186
 10
93.88678467860805
 20
4.239729655649474
 10
93.91397503586023
 20
4.221561639776174
 10
93.93856137390469
 20
4.200000000000001
 10
94.84645459271812
 20
4.200000000000001
 10
94.87104093076258
 20
4.221561639776174
 10
94.89823128801476
 20
4.239729655649474
 10
94.92756042992349
 20
4.254193187831186
 10
94.95852652673912
 20
4.264704761275632
 10
94.99059973995975
 20
4.271084520046817
 10
95.02323128801476
 20
4.2732233047033645
 10
95.05586283606976
 20
4.271084520046817
 10
95.08793604929039
 20
4.264704761275632
 10
95.11890214610602
 20
4.254193187831186
 10
95.14823128801476
 20
4.239729655649474
 10
95.17542164526694
 20
4.221561639776174
 10
95.2000079833114
 20
4.200000000000001
 10
95.22156962308756
 20
4.175413661955545
 10
95.23973763896086
 20
4.1482233047033645
 10
95.25420117114258
 20
4.118894162794637
 10
95.26471274458703
 20
4.0879280659789945
 10
95.2710925033582
 20
4.055854852758378
 10
95.27323128801476
 20
4.0232233047033645
 10
95.2710925033582
 20
3.9905917566483518
 10
95.26471274458703
 20
3.958518543427734
 10
95.25420117114258
 20
3.927552446612092
 10
95.23973763896086
 20
3.8982233047033645
 10
95.22156962308756
 20
3.8710329474511846
 10
95.2000079833114
 20
3.8464466094067276
 10
95.2000079833114
 20
-0.37999999999999723
 10
93.58500798331141
 20
-0.37999999999999723
  0
LWPOLYLINE
  5
45
330
17
100
AcDbEntity
  8
POCKET
100
AcDbPolyline
 90
53
 70
1
 10
95.2000079833114
 20
48.379999999999995
 10
95.2000079833114
 20
44.153553390593274
 10
95.22156962308756
 20
44.128967052548816
 10
95.23973763896086
 20
44.101776695296635
 10
95.25420117114258
 20
44.07244755338791
 10
95.26471274458703
 20
44.041481456572264
 10
95.2710925033582
 20
44.00940824335165
 10
95.27323128801476
 20
43.976776695296635
 10
95.2710925033582
 20
43.94414514724162
 10
95.26471274458703
 20
43.91207193402101
 10
95.25420117114258
 20
43.88110583720536
 10
95.23973763896086
 20
43.851776695296635
 10
95.22156962308756
 20
43.824586338044455
 10
95.2000079833114
 20
43.8
 10
95.17542164526694
 20
43.778438360223824
 10
95.14823128801476
 20
43.76027034435052
 10
95.11890214610602
 20
43.745806812168816
 10
95.08793604929039
 20
43.73529523872437
 10
95.05586283606976
 20
43.72891547995318
 10
95.02323128801476
 20
43.726776695296635
 10
94.99059973995975
 20
43.72891547995318
 10
94.95852652673912
 20
43.73529523872437
 10
94.92756042992349
 20
43.745806812168816
 10
94.89823128801476
 20
43.76027034435052
 10
94.87104093076258
 20
43.778438360223824
 10
94.84645459271812
 20
43.8
 10
93.93856137390469
 20
43.8
 10
93.91397503586023
 20
43.778438360223824
 10
93.88678467860805
 20
43.76027034435052
 10
93.85745553669932
 20
43.745806812168816
 10
93.82648943988369
 20
43.73529523872437
 10
93.79441622666306
 20
43.72891547995318
 10
93.76178467860805
 20
43.726776695296635
 10
93.72915313055304
 20
43.72891547995318
 10
93.69707991733242
 20
43.73529523872437
 10
93.66611382051678
 20
43.745806812168816
 10
93.63678467860805
 20
43.76027034435052
 10
93.60959432135587
 20
43.778438360223824
 10
93.58500798331141
 20
43.8
 10
93.56344634353525
 20
43.824586338044455
 10
93.54527832766195
 20
43.851776695296635
 10
93.53081479548023
 20
43.88110583720536
 10
93.52030322203578
 20
43.91207193402101
 10
93.5139234632646
 20
43.94414514724162
 10
93.51178467860805
 20
43.976776695296635
 10
93.5139234632646
 20
44.00940824335165
 10
93.52030322203578
 20
44.041481456572264
 10
93.53081479548023
 20
44.07244755338791
 10
93.54527832766195
 20
44.101776695296635
 10
93.56344634353525
 20
44.128967052548816
 10
93.58500798331141
 20
44.153553390593274
 10
93.58500798331141
 20
48.379999999999995
 10
95.2000079833114
 20
48.379999999999995
  0
LWPOLYLINE
  5
46
330
17
100
AcDbEntity
  8
POCKET
100
AcDbPolyline
 90
53
 70
1
 10
-0.3800105932872011
 20
41.82000000000001
 10
9.846436016119524
 20
41.82000000000001
 10
9.87102235416398
 20
41.841561639776174
 10
9.89821271141616
 20
41.859729655649474
 10
9.927541853324888
 20
41.87419318783119
 10
9.95850795014053
 20
41.884704761275636
 10
9.990581163361147
 20
41.89108452004682
 10
10.02321271141616
 20
41.89322330470337
 10
10.055844259471174
 20
41.89108452004682
 10
10.08791747269179
 20
41.884704761275636
 10
10.118883569507434
 20
41.87419318783119
 10
10.14821271141616
 20
41.859729655649474
 10
10.175403068668341
 20
41.841561639776174
 10
10.199989406712797
 20
41.82000000000001
 10
10.221551046488969
 20
41.79541366195555
 10
10.239719062362271
 20
41.76822330470337
 10
10.254182594543982
 20
41.73889416279464
 10
10.264694167988427
 20
41.707928065979
 10
10.271073926759613
 20
41.67585485275838
 10
10.27321271141616
 20
41.64322330470337
 10
10.271073926759613
 20
41.610591756648354
 10
10.264694167988427
 20
41.578518543427734
 10
10.254182594543982
 20
41.547552446612094
 10
10.239719062362271
 20
41.51822330470337
 10
10.221551046488969
 20
41.49103294745119
 10
10.199989406712797
 20
41.46644660940673
 10
10.199989406712797
 20
40.558553390593275
 10
10.221551046488969
 20
40.53396705254882
 10
10.239719062362271
 20
40.50677669529664
 10
10.254182594543982
 20
40.47744755338791
 10
10.264694167988427
 20
40.44648145657227
 10
10.271073926759613
 20
40.41440824335165
 10
10.27321271141616
 20
40.38177669529664
 10
10.271073926759613
 20
40.34914514724163
 10
10.264694167988427
 20
40.31707193402101
 10
10.254182594543982
 20
40.28610583720537
 10
10.239719062362271
 20
40.25677669529664
 10
10.221551046488969
 20
40.229586338044456
 10
10.199989406712797
 20
40.205
 10
10.175403068668341
 20
40.18343836022383
 10
10.14821271141616
 20
40.16527034435053
 10
10.118883569507434
 20
40.15080681216882
 10
10.08791747269179
 20
40.14029523872437
 10
10.055844259471174
 20
40.13391547995319
 10
10.02321271141616
 20
40.13177669529664
 10
9.990581163361147
 20
40.13391547995319
 10
9.95850795014053
 20
40.14029523872437
 10
9.927541853324888
 20
40.15080681216882
 10
9.89821271141616
 20
40.16527034435053
 10
9.87102235416398
 20
40.18343836022383
 10
9.846436016119524
 20
40.205
 10
-0.3800105932872011
 20
40.205
 10
-0.3800105932872011
 20
41.82000000000001
  0
LWPOLYLINE
  5
47
330
17
100
AcDbEntity
  8
POCKET
100
AcDbPolyline
 90
53
 70
1
 10
-0.3800105932872011
 20
26.195
 10
9.846436016119524
 20
26.195
 10
9.87102235416398
 20
26.216561639776174
 10
9.89821271141616
 20
26.234729655649474
 10
9.927541853324888
 20
26.249193187831185
 10
9.95850795014053
 20
26.259704761275632
 10
9.990581163361147
 20
26.266084520046817
 10
10.02321271141616
 20
26.268223304703362
 10
10.055844259471174
 20
26.266084520046817
 10
10.08791747269179
 20
26.259704761275632
 10
10.118883569507434
 20
26.249193187831185
 10
10.14821271141616
 20
26.234729655649474
 10
10.175403068668341
 20
26.216561639776174
 10
10.199989406712797
 20
26.195
 10
10.221551046488969
 20
26.170413661955543
 10
10.239719062362271
 20
26.143223304703362
 10
10.254182594543982
 20
26.113894162794637
 10
10.264694167988427
 20
26.082928065978994
 10
10.271073926759613
 20
26.050854852758377
 10
10.27321271141616
 20
26.018223304703362
 10
10.271073926759613
 20
25.98559175664835
 10
10.264694167988427
 20
25.953518543427734
 10
10.254182594543982
 20
25.92255244661209
 10
10.239719062362271
 20
25.893223304703362
 10
10.221551046488969
 20
25.866032947451185
 10
10.199989406712797
 20
25.841446609406727
 10
10.199989406712797
 20
24.93355339059327
 10
10.221551046488969
 20
24.908967052548814
 10
10.239719062362271
 20
24.881776695296637
 10
10.254182594543982
 20
24.852447553387908
 10
10.264694167988427
 20
24.821481456572265
 10
10.271073926759613
 20
24.789408243351648
 10
10.27321271141616
 20
24.756776695296637
 10
10.271073926759613
 20
24.72414514724162
 10
10.264694167988427
 20
24.692071934021005
 10
10.254182594543982
 20
24.661105837205362
 10
10.239719062362271
 20
24.631776695296637
 10
10.221551046488969
 20
24.604586338044456
 10
10.199989406712797
 20
24.58
 10
10.175403068668341
 20
24.558438360223825
 10
10.14821271141616
 20
24.540270344350525
 10
10.118883569507434
 20
24.525806812168813
 10
10.08791747269179
 20
24.515295238724367
 10
10.055844259471174
 20
24.50891547995318
 10
10.02321271141616
 20
24.506776695296637
 10
9.990581163361147
 20
24.50891547995318
 10
9.95850795014053
 20
24.515295238724367
 10
9.927541853324888
 20
24.525806812168813
 10
9.89821271141616
 20
24.540270344350525
 10
9.87102235416398
 20
24.558438360223825
 10
9.846436016119524
 20
24.58
 10
-0.3800105932872011
 20
24.58
 10
-0.3800105932872011
 20
26.195
  0
LWPOLYLINE
  5
48
330
17
100
AcDbEntity
  8
POCKET
100
AcDbPolyline
 90
53
 70
1
 10
-0.3800105932872011
 20
9.945
 10
9.846436016119524
 20
9.945
 10
9.87102235416398
 20
9.966561639776172
 10
9.89821271141616
 20
9.984729655649474
 10
9.927541853324888
 20
9.999193187831185
 10
9.95850795014053
 20
10.00970476127563
 10
9.990581163361147
 20
10.016084520046816
 10
10.02321271141616
 20
10.018223304703364
 10
10.055844259471174
 20
10.016084520046816
 10
10.08791747269179
 20
10.00970476127563
 10
10.118883569507434
 20
9.999193187831185
 10
10.14821271141616
 20
9.984729655649474
 10
10.175403068668341
 20
9.966561639776172
 10
10.199989406712797
 20
9.945
 10
10.221551046488969
 20
9.920413661955543
 10
10.239719062362271
 20
9.893223304703364
 10
10.254182594543982
 20
9.863894162794637
 10
10.264694167988427
 20
9.832928065978994
 10
10.271073926759613
 20
9.800854852758377
 10
10.27321271141616
 20
9.768223304703364
 10
10.271073926759613
 20
9.73559175664835
 10
10.264694167988427
 20
9.703518543427734
 10
10.254182594543982
 20
9.672552446612091
 10
10.239719062362271
 20
9.643223304703364
 10
10.221551046488969
 20
9.616032947451183
 10
10.199989406712797
 20
9.591446609406727
 10
10.199989406712797
 20
8.683553390593278
 10
10.221551046488969
 20
8.658967052548823
 10
10.239719062362271
 20
8.631776695296642
 10
10.254182594543982
 20
8.602447553387915
 10
10.264694167988427
 20
8.571481456572272
 10
10.271073926759613
 20
8.539408243351655
 10
10.27321271141616
 20
8.506776695296642
 10
10.271073926759613
 20
8.474145147241629
 10
10.264694167988427
 20
8.442071934021012
 10
10.254182594543982
 20
8.411105837205369
 10
10.239719062362271
 20
8.381776695296642
 10
10.221551046488969
 20
8.354586338044463
 10
10.199989406712797
 20
8.330000000000005
 10
10.175403068668341
 20
8.308438360223834
 10
10.14821271141616
 20
8.290270344350533
 10
10.118883569507434
 20
8.27580681216882
 10
10.08791747269179
 20
8.265295238724375
 10
10.055844259471174
 20
8.25891547995319
 10
10.02321271141616
 20
8.256776695296642
 10
9.990581163361147
 20
8.25891547995319
 10
9.95850795014053
 20
8.265295238724375
 10
9.927541853324888
 20
8.27580681216882
 10
9.89821271141616
 20
8.290270344350532
 10
9.87102235416398
 20
8.308438360223834
 10
9.846436016119524
 20
8.330000000000005
 10
-0.3800105932872011
 20
8.330000000000005
 10
-0.3800105932872011
 20
9.945
  0
LWPOLYLINE
  5
49
330
17
100
AcDbEntity
  8
POCKET
100
AcDbPolyline
 90
53
 70
1
 10
13.41998940671279
 20
48.379999999999995
 10
13.41998940671279
 20
38.153553390593274
 10
13.441551046488962
 20
38.128967052548816
 10
13.459719062362264
 20
38.101776695296635
 10
13.474182594543976
 20
38.07244755338791
 10
13.48469416798842
 20
38.041481456572264
 10
13.491073926759606
 20
38.00940824335165
 10
13.493212711416154
 20
37.976776695296635
 10
13.491073926759606
 20
37.94414514724162
 10
13.48469416798842
 20
37.91207193402101
 10
13.474182594543976
 20
37.88110583720536
 10
13.459719062362264
 20
37.851776695296635
 10
13.441551046488962
 20
37.824586338044455
 10
13.41998940671279
 20
37.8
 10
13.395403068668333
 20
37.77843836022383
 10
13.368212711416154
 20
37.76027034435052
 10
13.338883569507427
 20
37.745806812168816
 10
13.307917472691784
 20
37.73529523872437
 10
13.275844259471167
 20
37.72891547995319
 10
13.243212711416154
 20
37.726776695296635
 10
13.210581163361141
 20
37.72891547995319
 10
13.178507950140524
 20
37.73529523872437
 10
13.147541853324881
 20
37.745806812168816
 10
13.118212711416154
 20
37.76027034435052
 10
13.091022354163973
 20
37.77843836022383
 10
13.066436016119518
 20
37.8
 10
12.158542797306069
 20
37.8
 10
12.133956459261613
 20
37.77843836022383
 10
12.106766102009432
 20
37.76027034435052
 10
12.077436960100705
 20
37.745806812168816
 10
12.046470863285062
 20
37.73529523872437
 10
12.014397650064446
 20
37.72891547995319
 10
11.981766102009432
 20
37.726776695296635
 10
11.94913455395442
 20
37.72891547995319
 10
11.917061340733802
 20
37.73529523872437
 10
11.88609524391816
 20
37.745806812168816
 10
11.856766102009432
 20
37.76027034435052
 10
11.829575744757253
 20
37.77843836022383
 10
11.804989406712796
 20
37.8
 10
11.783427766936624
 20
37.824586338044455
 10
11.765259751063324
 20
37.851776695296635
 10
11.75079621888161
 20
37.88110583720536
 10
11.740284645437166
 20
37.91207193402101
 10
11.73390488666598
 20
37.94414514724162
 10
11.731766102009432
 20
37.976776695296635
 10
11.73390488666598
 20
38.00940824335165
 10
11.740284645437166
 20
38.041481456572264
 10
11.75079621888161
 20
38.07244755338791
 10
11.765259751063322
 20
38.101776695296635
 10
11.783427766936624
 20
38.128967052548816
 10
11.804989406712796
 20
38.153553390593274
 10
11.804989406712796
 20
48.379999999999995
 10
13.41998940671279
 20
48.379999999999995
  0
LWPOLYLINE
  5
4A
330
17
100
AcDbEntity
  8
POCKET
100
AcDbPolyline
 90
53
 70
1
 10
11.804989406712796
 20
-0.37999999999999723
 10
11.804989406712796
 20
9.846446609406728
 10
11.783427766936624
 20
9.871032947451184
 10
11.765259751063322
 20
9.898223304703365
 10
11.75079621888161
 20
9.927552446612092
 10
11.740284645437166
 20
9.958518543427735
 10
11.73390488666598
 20
9.990591756648351
 10
11.731766102009432
 20
10.023223304703365
 10
11.73390488666598
 20
10.055854852758378
 10
11.740284645437166
 20
10.087928065978994
 10
11.75079621888161
 20
10.118894162794637
 10
11.765259751063322
 20
10.148223304703365
 10
11.783427766936624
 20
10.175413661955545
 10
11.804989406712796
 20
10.200000000000001
 10
11.829575744757253
 20
10.221561639776173
 10
11.856766102009432
 20
10.239729655649475
 10
11.88609524391816
 20
10.254193187831186
 10
11.917061340733802
 20
10.264704761275631
 10
11.94913455395442
 20
10.271084520046816
 10
11.981766102009432
 20
10.273223304703365
 10
12.014397650064446
 20
10.271084520046816
 10
12.046470863285062
 20
10.264704761275631
 10
12.077436960100705
 20
10.254193187831186
 10
12.106766102009432
 20
10.239729655649475
 10
12.133956459261613
 20
10.221561639776173
 10
12.158542797306069
 20
10.200000000000001
 10
13.066436016119518
 20
10.200000000000001
 10
13.091022354163973
 20
10.221561639776173
 10
13.118212711416154
 20
10.239729655649475
 10
13.147541853324881
 20
10.254193187831186
 10
13.178507950140524
 20
10.264704761275631
 10
13.210581163361141
 20
10.271084520046816
 10
13.243212711416154
 20
10.273223304703365
 10
13.275844259471167
 20
10.271084520046816
 10
13.307917472691784
 20
10.264704761275631
 10
13.338883569507427
 20
10.254193187831186
 10
13.368212711416154
 20
10.239729655649475
 10
13.395403068668333
 20
10.221561639776173
 10
13.41998940671279
 20
10.200000000000001
 10
13.441551046488962
 20
10.175413661955545
 10
13.459719062362263
 20
10.148223304703365
 10
13.474182594543976
 20
10.118894162794637
 10
13.48469416798842
 20
10.087928065978994
 10
13.491073926759606
 20
10.055854852758378
 10
13.493212711416154
 20
10.023223304703365
 10
13.491073926759606
 20
9.990591756648351
 10
13.48469416798842
 20
9.958518543427735
 10
13.474182594543976
 20
9.927552446612092
 10
13.459719062362264
 20
9.898223304703365
 10
13.441551046488962
 20
9.871032947451184
 10
13.41998940671279
 20
9.846446609406728
 10
13.41998940671279
 20
-0.37999999999999723
 10
11.804989406712796
 20
-0.37999999999999723
  0
LWPOLYLINE
  5
4B
330
17
100
AcDbEntity
  8
POCKET
100
AcDbPolyline
 90
53
 70
1
 10
2.4149894067127953
 20
48.379999999999995
 10
2.4149894067127953
 20
44.153553390593274
 10
2.436551046488967
 20
44.128967052548816
 10
2.454719062362268
 20
44.101776695296635
 10
2.4691825945439803
 20
44.07244755338791
 10
2.4796941679884252
 20
44.041481456572264
 10
2.486073926759611
 20
44.00940824335165
 10
2.4882127114161583
 20
43.976776695296635
 10
2.486073926759611
 20
43.94414514724162
 10
2.4796941679884252
 20
43.91207193402101
 10
2.4691825945439803
 20
43.88110583720536
 10
2.454719062362268
 20
43.851776695296635
 10
2.436551046488967
 20
43.824586338044455
 10
2.4149894067127953
 20
43.8
 10
2.3904030686683386
 20
43.778438360223824
 10
2.3632127114161583
 20
43.76027034435052
 10
2.3338835695074307
 20
43.745806812168816
 10
2.3029174726917887
 20
43.73529523872437
 10
2.270844259471171
 20
43.72891547995318
 10
2.2382127114161583
 20
43.726776695296635
 10
2.2055811633611455
 20
43.72891547995318
 10
2.1735079501405283
 20
43.73529523872437
 10
2.142541853324886
 20
43.745806812168816
 10
2.1132127114161587
 20
43.76027034435052
 10
2.0860223541639784
 20
43.778438360223824
 10
2.0614360161195213
 20
43.8
 10
1.1535427973060741
 20
43.8
 10
1.1289564592616175
 20
43.778438360223824
 10
1.1017661020094374
 20
43.76027034435052
 10
1.0724369601007098
 20
43.745806812168816
 10
1.0414708632850675
 20
43.73529523872437
 10
1.0093976500644501
 20
43.72891547995318
 10
0.9767661020094373
 20
43.726776695296635
 10
0.9441345539544244
 20
43.72891547995318
 10
0.9120613407338071
 20
43.73529523872437
 10
0.8810952439181648
 20
43.745806812168816
 10
0.8517661020094373
 20
43.76027034435052
 10
0.824575744757257
 20
43.778438360223824
 10
0.7999894067128004
 20
43.8
 10
0.7784277669366285
 20
43.824586338044455
 10
0.7602597510633277
 20
43.851776695296635
 10
0.7457962188816156
 20
43.88110583720536
 10
0.7352846454371702
 20
43.91207193402101
 10
0.7289048866659846
 20
43.94414514724162
 10
0.7267661020094373
 20
43.976776695296635
 10
0.7289048866659846
 20
44.00940824335165
 10
0.7352846454371702
 20
44.041481456572264
 10
0.7457962188816156
 20
44.07244755338791
 10
0.7602597510633275
 20
44.101776695296635
 10
0.7784277669366284
 20
44.128967052548816
 10
0.7999894067128004
 20
44.153553390593274
 10
0.7999894067128004
 20
48.379999999999995
 10
2.4149894067127953
 20
48.379999999999995
  0
LWPOLYLINE
  5
4C
330
17
100
AcDbEntity
  8
POCKET
100
AcDbPolyline
 90
53
 70
1
 10
0.7999894067128004
 20
-0.37999999999999723
 10
0.7999894067128004
 20
3.8464466094067276
 10
0.7784277669366284
 20
3.871032947451184
 10
0.7602597510633275
 20
3.8982233047033645
 10
0.7457962188816156
 20
3.927552446612092
 10
0.7352846454371702
 20
3.958518543427734
 10
0.7289048866659846
 20
3.9905917566483518
 10
0.7267661020094373
 20
4.0232233047033645
 10
0.7289048866659846
 20
4.055854852758378
 10
0.7352846454371702
 20
4.0879280659789945
 10
0.7457962188816156
 20
4.118894162794637
 10
0.7602597510633275
 20
4.1482233047033645
 10
0.7784277669366284
 20
4.175413661955545
 10
0.7999894067128004
 20
4.200000000000001
 10
0.824575744757257
 20
4.221561639776174
 10
0.8517661020094373
 20
4.239729655649474
 10
0.8810952439181647
 20
4.254193187831186
 10
0.912061340733807
 20
4.264704761275632
 10
0.9441345539544244
 20
4.271084520046817
 10
0.9767661020094373
 20
4.2732233047033645
 10
1.0093976500644501
 20
4.271084520046817
 10
1.0414708632850673
 20
4.264704761275632
 10
1.0724369601007098
 20
4.254193187831186
 10
1.1017661020094371
 20
4.239729655649474
 10
1.1289564592616173
 20
4.221561639776174
 10
1.1535427973060741
 20
4.200000000000001
 10
2.0614360161195213
 20
4.200000000000001
 10
2.086022354163978
 20
4.221561639776174
 10
2.1132127114161583
 20
4.239729655649474
 10
2.142541853324886
 20
4.254193187831186
 10
2.173507950140528
 20
4.264704761275632
 10
2.2055811633611455
 20
4.271084520046817
 10
2.2382127114161583
 20
4.2732233047033645
 10
2.270844259471171
 20
4.271084520046817
 10
2.3029174726917887
 20
4.264704761275632
 10
2.3338835695074307
 20
4.254193187831186
 10
2.3632127114161583
 20
4.239729655649474
 10
2.3904030686683386
 20
4.221561639776174
 10
2.4149894067127953
 20
4.200000000000001
 10
2.436551046488967
 20
4.175413661955545
 10
2.454719062362268
 20
4.1482233047033645
 10
2.4691825945439803
 20
4.118894162794637
 10
2.4796941679884252
 20
4.0879280659789945
 10
2.486073926759611
 20
4.055854852758378
 10
2.4882127114161583
 20
4.0232233047033645
 10
2.486073926759611
 20
3.9905917566483518
 10
2.4796941679884252
 20
3.958518543427734
 10
2.4691825945439803
 20
3.927552446612092
 10
2.454719062362268
 20
3.8982233047033645
 10
2.436551046488967
 20
3.8710329474511846
 10
2.4149894067127953
 20
3.8464466094067276
 10
2.4149894067127953
 20
-0.37999999999999723
 10
0.7999894067128004
 20
-0.37999999999999723
  0
LWPOLYLINE
  5
4D
330
17
100
AcDbEntity
  8
POCKET
100
AcDbPolyline
 90
53
 70
1
 10
68.30430598250902
 20
31.602700000000006
 10
64.0778593731023
 20
31.602700000000006
 10
64.05327303505784
 20
31.581138360223832
 10
64.02608267780566
 20
31.562970344350532
 10
63.996753535896936
 20
31.54850681216882
 10
63.96578743908129
 20
31.537995238724374
 10
63.933714225860676
 20
31.53161547995319
 10
63.90108267780566
 20
31.52947669529664
 10
63.868451129750646
 20
31.53161547995319
 10
63.83637791653003
 20
31.537995238724374
 10
63.80541181971439
 20
31.54850681216882
 10
63.77608267780566
 20
31.562970344350532
 10
63.74889232055348
 20
31.581138360223832
 10
63.72430598250902
 20
31.602700000000006
 10
63.70274434273285
 20
31.62728633804446
 10
63.68457632685955
 20
31.65447669529664
 10
63.67011279467784
 20
31.68380583720537
 10
63.659601221233395
 20
31.71477193402101
 10
63.653221462462206
 20
31.74684514724163
 10
63.65108267780566
 20
31.77947669529664
 10
63.653221462462206
 20
31.812108243351652
 10
63.659601221233395
 20
31.844181456572272
 10
63.67011279467784
 20
31.87514755338791
 10
63.68457632685955
 20
31.90447669529664
 10
63.70274434273285
 20
31.93166705254882
 10
63.72430598250902
 20
31.95625339059328
 10
63.72430598250902
 20
32.86414660940673
 10
63.70274434273285
 20
32.88873294745119
 10
63.68457632685955
 20
32.91592330470336
 10
63.67011279467784
 20
32.945252446612095
 10
63.659601221233395
 20
32.976218543427734
 10
63.653221462462206
 20
33.008291756648354
 10
63.65108267780566
 20
33.04092330470336
 10
63.653221462462206
 20
33.07355485275838
 10
63.659601221233395
 20
33.105628065979
 10
63.67011279467784
 20
33.13659416279464
 10
63.68457632685955
 20
33.16592330470336
 10
63.70274434273285
 20
33.19311366195554
 10
63.72430598250902
 20
33.2177
 10
63.74889232055348
 20
33.239261639776174
 10
63.77608267780566
 20
33.257429655649474
 10
63.80541181971439
 20
33.27189318783119
 10
63.83637791653003
 20
33.282404761275636
 10
63.868451129750646
 20
33.28878452004682
 10
63.90108267780566
 20
33.29092330470336
 10
63.933714225860676
 20
33.28878452004682
 10
63.96578743908129
 20
33.282404761275636
 10
63.996753535896936
 20
33.27189318783119
 10
64.02608267780566
 20
33.257429655649474
 10
64.05327303505784
 20
33.239261639776174
 10
64.0778593731023
 20
33.2177
 10
68.30430598250902
 20
33.2177
 10
68.30430598250902
 20
31.602700000000006
  0
LWPOLYLINE
  5
4E
330
17
100
AcDbEntity
  8
POCKET
100
AcDbPolyline
 90
53
 70
1
 10
68.30430598250902
 20
18.1777
 10
64.0778593731023
 20
18.1777
 10
64.05327303505784
 20
18.156138360223828
 10
64.02608267780566
 20
18.137970344350528
 10
63.996753535896936
 20
18.123506812168817
 10
63.96578743908129
 20
18.11299523872437
 10
63.933714225860676
 20
18.106615479953184
 10
63.90108267780566
 20
18.10447669529664
 10
63.868451129750646
 20
18.106615479953184
 10
63.83637791653003
 20
18.11299523872437
 10
63.80541181971439
 20
18.123506812168817
 10
63.77608267780566
 20
18.137970344350528
 10
63.74889232055348
 20
18.156138360223828
 10
63.72430598250902
 20
18.1777
 10
63.70274434273285
 20
18.20228633804446
 10
63.68457632685955
 20
18.22947669529664
 10
63.67011279467784
 20
18.258805837205365
 10
63.659601221233395
 20
18.289771934021008
 10
63.653221462462206
 20
18.321845147241625
 10
63.65108267780566
 20
18.35447669529664
 10
63.653221462462206
 20
18.38710824335165
 10
63.659601221233395
 20
18.419181456572268
 10
63.67011279467784
 20
18.45014755338791
 10
63.68457632685955
 20
18.47947669529664
 10
63.70274434273285
 20
18.506667052548817
 10
63.72430598250902
 20
18.531253390593275
 10
63.72430598250902
 20
19.43914660940673
 10
63.70274434273285
 20
19.463732947451188
 10
63.68457632685955
 20
19.490923304703365
 10
63.67011279467784
 20
19.520252446612094
 10
63.659601221233395
 20
19.551218543427737
 10
63.653221462462206
 20
19.583291756648354
 10
63.65108267780566
 20
19.615923304703365
 10
63.653221462462206
 20
19.64855485275838
 10
63.659601221233395
 20
19.680628065978997
 10
63.67011279467784
 20
19.71159416279464
 10
63.68457632685955
 20
19.740923304703365
 10
63.70274434273285
 20
19.768113661955546
 10
63.72430598250902
 20
19.792700000000004
 10
63.74889232055348
 20
19.814261639776177
 10
63.77608267780566
 20
19.832429655649477
 10
63.80541181971439
 20
19.84689318783119
 10
63.83637791653003
 20
19.857404761275635
 10
63.868451129750646
 20
19.86378452004682
 10
63.90108267780566
 20
19.865923304703365
 10
63.933714225860676
 20
19.86378452004682
 10
63.96578743908129
 20
19.857404761275635
 10
63.996753535896936
 20
19.84689318783119
 10
64.02608267780566
 20
19.832429655649477
 10
64.05327303505784
 20
19.814261639776177
 10
64.0778593731023
 20
19.792700000000004
 10
68.30430598250902
 20
19.792700000000004
 10
68.30430598250902
 20
18.1777
  0
LWPOLYLINE
  5
4F
330
17
100
AcDbEntity
  8
POCKET
100
AcDbPolyline
 90
53
 70
1
 10
68.30430598250902
 20
9.027700000000003
 10
64.0778593731023
 20
9.027700000000003
 10
64.05327303505784
 20
9.006138360223831
 10
64.02608267780566
 20
8.98797034435053
 10
63.996753535896936
 20
8.973506812168818
 10
63.96578743908129
 20
8.962995238724373
 10
63.933714225860676
 20
8.956615479953188
 10
63.90108267780566
 20
8.95447669529664
 10
63.868451129750646
 20
8.956615479953188
 10
63.83637791653003
 20
8.962995238724373
 10
63.80541181971439
 20
8.973506812168818
 10
63.77608267780566
 20
8.98797034435053
 10
63.74889232055348
 20
9.006138360223831
 10
63.72430598250902
 20
9.027700000000003
 10
63.70274434273285
 20
9.05228633804446
 10
63.68457632685955
 20
9.07947669529664
 10
63.67011279467784
 20
9.108805837205367
 10
63.659601221233395
 20
9.13977193402101
 10
63.653221462462206
 20
9.171845147241626
 10
63.65108267780566
 20
9.20447669529664
 10
63.653221462462206
 20
9.237108243351653
 10
63.659601221233395
 20
9.26918145657227
 10
63.67011279467784
 20
9.300147553387912
 10
63.68457632685955
 20
9.32947669529664
 10
63.70274434273285
 20
9.35666705254882
 10
63.72430598250902
 20
9.381253390593276
 10
63.72430598250902
 20
10.289146609406732
 10
63.70274434273285
 20
10.313732947451188
 10
63.68457632685955
 20
10.340923304703368
 10
63.67011279467784
 20
10.370252446612096
 10
63.659601221233395
 20
10.401218543427738
 10
63.653221462462206
 20
10.433291756648355
 10
63.65108267780566
 20
10.465923304703368
 10
63.653221462462206
 20
10.498554852758382
 10
63.659601221233395
 20
10.530628065978998
 10
63.67011279467784
 20
10.561594162794641
 10
63.68457632685955
 20
10.590923304703368
 10
63.70274434273285
 20
10.618113661955547
 10
63.72430598250902
 20
10.642700000000005
 10
63.74889232055348
 20
10.664261639776177
 10
63.77608267780566
 20
10.682429655649477
 10
63.80541181971439
 20
10.69689318783119
 10
63.83637791653003
 20
10.707404761275635
 10
63.868451129750646
 20
10.71378452004682
 10
63.90108267780566
 20
10.715923304703368
 10
63.933714225860676
 20
10.71378452004682
 10
63.96578743908129
 20
10.707404761275635
 10
63.996753535896936
 20
10.69689318783119
 10
64.02608267780566
 20
10.682429655649479
 10
64.05327303505784
 20
10.664261639776177
 10
64.0778593731023
 20
10.642700000000005
 10
68.30430598250902
 20
10.642700000000005
 10
68.30430598250902
 20
9.027700000000003
  0
LWPOLYLINE
  5
50
330
17
100
AcDbEntity
  8
POCKET
100
AcDbPolyline
 90
53
 70
1
 10
68.47156084503068
 20
12.819499999999998
 10
72.6980074544374
 20
12.819499999999998
 10
72.72259379248186
 20
12.84106163977617
 10
72.74978414973404
 20
12.859229655649472
 10
72.77911329164277
 20
12.873693187831183
 10
72.8100793884584
 20
12.884204761275628
 10
72.84215260167903
 20
12.890584520046813
 10
72.87478414973404
 20
12.892723304703361
 10
72.90741569778905
 20
12.890584520046813
 10
72.93948891100968
 20
12.884204761275628
 10
72.97045500782531
 20
12.873693187831183
 10
72.99978414973404
 20
12.859229655649472
 10
73.02697450698622
 20
12.84106163977617
 10
73.05156084503068
 20
12.819499999999998
 10
73.07312248480685
 20
12.79491366195554
 10
73.09129050068015
 20
12.767723304703361
 10
73.10575403286187
 20
12.738394162794634
 10
73.11626560630631
 20
12.707428065978991
 10
73.12264536507749
 20
12.675354852758375
 10
73.12478414973404
 20
12.642723304703361
 10
73.12264536507749
 20
12.610091756648348
 10
73.11626560630631
 20
12.578018543427731
 10
73.10575403286187
 20
12.547052446612089
 10
73.09129050068015
 20
12.517723304703361
 10
73.07312248480685
 20
12.49053294745118
 10
73.05156084503068
 20
12.465946609406725
 10
73.05156084503068
 20
11.558053390593273
 10
73.07312248480685
 20
11.533467052548817
 10
73.09129050068015
 20
11.506276695296636
 10
73.10575403286187
 20
11.476947553387909
 10
73.11626560630631
 20
11.445981456572266
 10
73.12264536507749
 20
11.41390824335165
 10
73.12478414973404
 20
11.381276695296636
 10
73.12264536507749
 20
11.348645147241623
 10
73.11626560630631
 20
11.316571934021006
 10
73.10575403286187
 20
11.285605837205363
 10
73.09129050068015
 20
11.256276695296636
 10
73.07312248480685
 20
11.229086338044457
 10
73.05156084503068
 20
11.2045
 10
73.02697450698622
 20
11.182938360223828
 10
72.99978414973404
 20
11.164770344350528
 10
72.97045500782531
 20
11.150306812168814
 10
72.93948891100968
 20
11.13979523872437
 10
72.90741569778905
 20
11.133415479953184
 10
72.87478414973404
 20
11.131276695296636
 10
72.84215260167903
 20
11.133415479953184
 10
72.8100793884584
 20
11.13979523872437
 10
72.77911329164277
 20
11.150306812168814
 10
72.74978414973404
 20
11.164770344350526
 10
72.72259379248186
 20
11.182938360223828
 10
72.6980074544374
 20
11.2045
 10
68.47156084503068
 20
11.2045
 10
68.47156084503068
 20
12.819499999999998
  0
LWPOLYLINE
  5
51
330
17
100
AcDbEntity
  8
POCKET
100
AcDbPolyline
 90
53
 70
1
 10
68.47156084503068
 20
26.2445
 10
72.6980074544374
 20
26.2445
 10
72.72259379248186
 20
26.266061639776172
 10
72.74978414973404
 20
26.284229655649472
 10
72.77911329164277
 20
26.298693187831184
 10
72.8100793884584
 20
26.30920476127563
 10
72.84215260167903
 20
26.315584520046816
 10
72.87478414973404
 20
26.31772330470336
 10
72.90741569778905
 20
26.315584520046816
 10
72.93948891100968
 20
26.30920476127563
 10
72.97045500782531
 20
26.298693187831184
 10
72.99978414973404
 20
26.284229655649472
 10
73.02697450698622
 20
26.266061639776172
 10
73.05156084503068
 20
26.2445
 10
73.07312248480685
 20
26.21991366195554
 10
73.09129050068015
 20
26.19272330470336
 10
73.10575403286187
 20
26.163394162794635
 10
73.11626560630631
 20
26.132428065978992
 10
73.12264536507749
 20
26.100354852758375
 10
73.12478414973404
 20
26.06772330470336
 10
73.12264536507749
 20
26.03509175664835
 10
73.11626560630631
 20
26.003018543427732
 10
73.10575403286187
 20
25.97205244661209
 10
73.09129050068015
 20
25.94272330470336
 10
73.07312248480685
 20
25.915532947451183
 10
73.05156084503068
 20
25.890946609406726
 10
73.05156084503068
 20
24.98305339059327
 10
73.07312248480685
 20
24.958467052548812
 10
73.09129050068015
 20
24.931276695296635
 10
73.10575403286187
 20
24.901947553387906
 10
73.11626560630631
 20
24.870981456572263
 10
73.12264536507749
 20
24.838908243351646
 10
73.12478414973404
 20
24.806276695296635
 10
73.12264536507749
 20
24.77364514724162
 10
73.11626560630631
 20
24.741571934021003
 10
73.10575403286187
 20
24.71060583720536
 10
73.09129050068015
 20
24.681276695296635
 10
73.07312248480685
 20
24.654086338044454
 10
73.05156084503068
 20
24.629499999999997
 10
73.02697450698622
 20
24.607938360223823
 10
72.99978414973404
 20
24.589770344350523
 10
72.97045500782531
 20
24.57530681216881
 10
72.93948891100968
 20
24.564795238724365
 10
72.90741569778905
 20
24.55841547995318
 10
72.87478414973404
 20
24.556276695296635
 10
72.84215260167903
 20
24.55841547995318
 10
72.8100793884584
 20
24.564795238724365
 10
72.77911329164277
 20
24.57530681216881
 10
72.74978414973404
 20
24.589770344350523
 10
72.72259379248186
 20
24.607938360223823
 10
72.6980074544374
 20
24.629499999999997
 10
68.47156084503068
 20
24.629499999999997
 10
68.47156084503068
 20
26.2445
  0
LWPOLYLINE
  5
52
330
17
100
AcDbEntity
  8
POCKET
100
AcDbPolyline
 90
53
 70
1
 10
68.47156084503068
 20
35.394499999999994
 10
72.6980074544374
 20
35.394499999999994
 10
72.72259379248186
 20
35.41606163977617
 10
72.74978414973404
 20
35.43422965564947
 10
72.77911329164277
 20
35.448693187831175
 10
72.8100793884584
 20
35.45920476127562
 10
72.84215260167903
 20
35.46558452004681
 10
72.87478414973404
 20
35.467723304703355
 10
72.90741569778905
 20
35.46558452004681
 10
72.93948891100968
 20
35.45920476127562
 10
72.97045500782531
 20
35.448693187831175
 10
72.99978414973404
 20
35.43422965564947
 10
73.02697450698622
 20
35.41606163977617
 10
73.05156084503068
 20
35.394499999999994
 10
73.07312248480685
 20
35.369913661955536
 10
73.09129050068015
 20
35.342723304703355
 10
73.10575403286187
 20
35.31339416279463
 10
73.11626560630631
 20
35.28242806597899
 10
73.12264536507749
 20
35.25035485275837
 10
73.12478414973404
 20
35.217723304703355
 10
73.12264536507749
 20
35.18509175664835
 10
73.11626560630631
 20
35.15301854342773
 10
73.10575403286187
 20
35.12205244661209
 10
73.09129050068015
 20
35.092723304703355
 10
73.07312248480685
 20
35.065532947451175
 10
73.05156084503068
 20
35.04094660940672
 10
73.05156084503068
 20
34.133053390593275
 10
73.07312248480685
 20
34.10846705254882
 10
73.09129050068015
 20
34.08127669529664
 10
73.10575403286187
 20
34.051947553387905
 10
73.11626560630631
 20
34.020981456572265
 10
73.12264536507749
 20
33.988908243351645
 10
73.12478414973404
 20
33.95627669529664
 10
73.12264536507749
 20
33.92364514724162
 10
73.11626560630631
 20
33.89157193402101
 10
73.10575403286187
 20
33.86060583720536
 10
73.09129050068015
 20
33.83127669529664
 10
73.07312248480685
 20
33.804086338044456
 10
73.05156084503068
 20
33.7795
 10
73.02697450698622
 20
33.757938360223825
 10
72.99978414973404
 20
33.739770344350525
 10
72.97045500782531
 20
33.72530681216882
 10
72.93948891100968
 20
33.71479523872437
 10
72.90741569778905
 20
33.70841547995318
 10
72.87478414973404
 20
33.70627669529664
 10
72.84215260167903
 20
33.70841547995318
 10
72.8100793884584
 20
33.71479523872437
 10
72.77911329164277
 20
33.72530681216882
 10
72.74978414973404
 20
33.739770344350525
 10
72.72259379248186
 20
33.757938360223825
 10
72.6980074544374
 20
33.7795
 10
68.47156084503068
 20
33.7795
 10
68.47156084503068
 20
35.394499999999994
  0
ENDSEC
  0
SECTION
  2
OBJECTS
  0
DICTIONARY
  5
A
330
0
100
AcDbDictionary
281
1
  3
ACAD_COLOR
350
B
  3
ACAD_GROUP
350
C
  3
ACAD_LAYOUT
350
D
  3
ACAD_MATERIAL
350
E
  3
ACAD_MLEADERSTYLE
350
F
  3
ACAD_MLINESTYLE
350
10
  3
ACAD_PLOTSETTINGS
350
11
  3
ACAD_PLOTSTYLENAME
350
12
  3
ACAD_SCALELIST
350
14
  3
ACAD_TABLESTYLE
350
15
  3
ACAD_VISUALSTYLE
350
16
  3
EZDXF_META
350
2D
  0
DICTIONARY
  5
B
330
A
100
AcDbDictionary
281
1
  0
DICTIONARY
  5
C
330
A
100
AcDbDictionary
281
1
  0
DICTIONARY
  5
D
330
A
100
AcDbDictionary
281
1
  3
Model
350
1A
  3
Layout1
350
1E
  0
DICTIONARY
  5
E
330
A
100
AcDbDictionary
281
1
  3
ByBlock
350
1F
  3
ByLayer
350
20
  3
Global
350
21
  0
DICTIONARY
  5
F
330
A
100
AcDbDictionary
281
1
  3
Standard
350
2C
  0
DICTIONARY
  5
10
330
A
100
AcDbDictionary
281
1
  3
Standard
350
22
  0
DICTIONARY
  5
11
330
A
100
AcDbDictionary
281
1
  0
ACDBDICTIONARYWDFLT
  5
12
330
A
100
AcDbDictionary
281
1
  3
Normal
350
13
100
AcDbDictionaryWithDefault
340
13
  0
ACDBPLACEHOLDER
  5
13
330
12
  0
DICTIONARY
  5
14
330
A
100
AcDbDictionary
281
1
  0
DICTIONARY
  5
15
330
A
100
AcDbDictionary
281
1
  0
DICTIONARY
  5
16
330
A
100
AcDbDictionary
281
1
  0
LAYOUT
  5
1A
330
D
100
AcDbPlotSettings
  1

  4
A3
  6

 40
7.5
 41
20.0
 42
7.5
 43
20.0
 44
420.0
 45
297.0
 46
0.0
 47
0.0
 48
0.0
 49
0.0
140
0.0
141
0.0
142
1.0
143
1.0
 70
1024
 72
1
 73
0
 74
5
  7

 75
16
 76
0
 77
2
 78
300
147
1.0
148
0.0
149
0.0
100
AcDbLayout
  1
Model
 70
1
 71
0
 10
0.0
 20
0.0
 11
420.0
 21
297.0
 12
0.0
 22
0.0
 32
0.0
 14
1e+20
 24
1e+20
 34
1e+20
 15
-1e+20
 25
-1e+20
 35
-1e+20
146
0.0
 13
0.0
 23
0.0
 33
0.0
 16
1.0
 26
0.0
 36
0.0
 17
0.0
 27
1.0
 37
0.0
 76
1
330
17
  0
LAYOUT
  5
1E
330
D
100
AcDbPlotSettings
  1

  4
A3
  6

 40
7.5
 41
20.0
 42
7.5
 43
20.0
 44
420.0
 45
297.0
 46
0.0
 47
0.0
 48
0.0
 49
0.0
140
0.0
141
0.0
142
1.0
143
1.0
 70
0
 72
1
 73
0
 74
5
  7

 75
16
 76
0
 77
2
 78
300
147
1.0
148
0.0
149
0.0
100
AcDbLayout
  1
Layout1
 70
1
 71
1
 10
0.0
 20
0.0
 11
420.0
 21
297.0
 12
0.0
 22
0.0
 32
0.0
 14
1e+20
 24
1e+20
 34
1e+20
 15
-1e+20
 25
-1e+20
 35
-1e+20
146
0.0
 13
0.0
 23
0.0
 33
0.0
 16
1.0
 26
0.0
 36
0.0
 17
0.0
 27
1.0
 37
0.0
 76
1
330
1B
  0
MATERIAL
  5
1F
102
{ACAD_REACTORS
330
E
102
}
330
E
100
AcDbMaterial
  1
ByBlock
  2

 70
0
 40
1.0
 71
1
 41
1.0
 91
-1023410177
 42
1.0
 72
1
  3

 73
1
 74
1
 75
1
 44
0.5
 73
0
 45
1.0
 46
1.0
 77
1
  4

 78
1
 79
1
170
1
 48
1.0
171
1
  6

172
1
173
1
174
1
140
1.0
141
1.0
175
1
  7

176
1
177
1
178
1
143
1.0
179
1
  8

270
1
271
1
272
1
145
1.0
146
1.0
273
1
  9

274
1
275
1
276
1
 42
1.0
 72
1
  3

 73
1
 74
1
 75
1
 94
63
  0
MATERIAL
  5
20
102
{ACAD_REACTORS
330
E
102
}
330
E
100
AcDbMaterial
  1
ByLayer
  2

 70
0
 40
1.0
 71
1
 41
1.0
 91
-1023410177
 42
1.0
 72
1
  3

 73
1
 74
1
 75
1
 44
0.5
 73
0
 45
1.0
 46
1.0
 77
1
  4

 78
1
 79
1
170
1
 48
1.0
171
1
  6

172
1
173
1
174
1
140
1.0
141
1.0
175
1
  7

176
1
177
1
178
1
143
1.0
179
1
  8

270
1
271
1
272
1
145
1.0
146
1.0
273
1
  9

274
1
275
1
276
1
 42
1.0
 72
1
  3

 73
1
 74
1
 75
1
 94
63
  0
MATERIAL
  5
21
102
{ACAD_REACTORS
330
E
102
}
330
E
100
AcDbMaterial
  1
Global
  2

 70
0
 40
1.0
 71
1
 41
1.0
 91
-1023410177
 42
1.0
 72
1
  3

 73
1
 74
1
 75
1
 44
0.5
 73
0
 45
1.0
 46
1.0
 77
1
  4

 78
1
 79
1
170
1
 48
1.0
171
1
  6

172
1
173
1
174
1
140
1.0
141
1.0
175
1
  7

176
1
177
1
178
1
143
1.0
179
1
  8

270
1
271
1
272
1
145
1.0
146
1.0
273
1
  9

274
1
275
1
276
1
 42
1.0
 72
1
  3

 73
1
 74
1
 75
1
 94
63
  0
MLINESTYLE
  5
22
102
{ACAD_REACTORS
330
10
102
}
330
10
100
AcDbMlineStyle
  2
Standard
 70
0
  3

 62
256
 51
90.0
 52
90.0
 71
2
 49
0.5
 62
256
  6
BYLAYER
 49
-0.5
 62
256
  6
BYLAYER
  0
MLEADERSTYLE
  5
2C
102
{ACAD_REACTORS
330
F
102
}
330
F
100
AcDbMLeaderStyle
179
2
170
2
171
1
172
0
 90
2
 40
0.0
 41
0.0
173
1
 91
-1056964608
 92
-2
290
1
 42
2.0
291
1
 43
8.0
  3
Standard
 44
4.0
300

342
29
174
1
175
1
176
0
178
1
 93
-1056964608
 45
4.0
292
0
297
0
 46
4.0
 94
-1056964608
 47
1.0
 49
1.0
140
1.0
294
1
141
0.0
177
0
142
1.0
295
0
296
0
143
3.75
271
0
272
9
273
9
  0
DICTIONARY
  5
2D
330
A
100
AcDbDictionary
280
1
281
1
  3
CREATED_BY_EZDXF
350
2E
  3
WRITTEN_BY_EZDXF
350
55
  0
DICTIONARYVAR
  5
2E
330
2D
100
DictionaryVariables
280
0
  1
1.4.3 @ 2026-05-08T09:04:45.717289+00:00
  0
DICTIONARYVAR
  5
55
330
2D
100
DictionaryVariables
280
0
  1
1.4.3 @ 2026-05-08T09:04:45.780967+00:00
  0
ENDSEC
  0
EOF
