<?xml version="1.0" encoding="UTF-8"?>
<svg xmlns="http://www.w3.org/2000/svg" width="50.00" height="30.00" viewBox="0 0 50.00 30.00">
  <path d="M 0.000000,49.000000 L 48.000000,49.000000 L 48.000000,28.957671 L 41.891493,28.957671 L 41.891493,28.957671 L 41.825302,29.063225 L 41.754786,29.165940 L 41.680065,29.265638 L 41.601269,29.362148 L 41.518534,29.455303 L 41.432003,29.544942 L 41.341824,29.630911 L 41.248153,29.713061 L 41.151152,29.791251 L 41.050988,29.865347 L 40.947835,29.935219 L 40.841868,30.000748 L 40.733273,30.061821 L 40.622235,30.118332 L 40.508946,30.170183 L 40.393603,30.217287 L 40.276403,30.259560 L 40.157548,30.296930 L 40.037245,30.329334 L 40.037245,30.329334 L 39.418712,30.477256 L 38.800179,30.612691 L 38.181646,30.732095 L 37.563113,30.832344 L 36.944581,30.910816 L 36.326048,30.965456 L 35.707515,30.994835 L 35.088982,30.998185 L 34.470449,30.975418 L 33.851916,30.927130 L 33.233383,30.854583 L 32.614851,30.759677 L 31.996318,30.644894 L 31.377785,30.513238 L 30.759252,30.368153 L 30.140719,30.213436 L 29.522186,30.053134 L 28.903653,29.891442 L 28.285120,29.732590 L 27.666588,29.580735 L 27.048055,29.439850 L 26.429522,29.313621 L 25.810989,29.205350 L 25.192456,29.117872 L 24.573923,29.053474 L 23.955390,29.013841 L 23.336858,29.000011 L 22.718325,29.012345 L 22.099792,29.050521 L 21.481259,29.113539 L 20.862726,29.199751 L 20.244193,29.306902 L 19.625660,29.432187 L 19.007128,29.572328 L 18.388595,29.723660 L 17.770062,29.882222 L 17.151529,30.043865 L 16.532996,30.204361 L 15.914463,30.359509 L 15.295930,30.505252 L 14.677397,30.637774 L 14.058865,30.753610 L 13.440332,30.849728 L 12.821799,30.923612 L 12.203266,30.973331 L 11.584733,30.997584 L 10.966200,30.995734 L 10.347667,30.967832 L 9.729135,30.914607 L 9.729135,30.914607 L 9.607620,30.899230 L 9.486835,30.878905 L 9.366980,30.853667 L 9.248256,30.823557 L 9.130859,30.788627 L 9.014986,30.748933 L 8.900829,30.704543 L 8.788580,30.655529 L 8.678425,30.601975 L 8.570548,30.543969 L 8.465129,30.481608 L 8.362343,30.414996 L 8.262362,30.344243 L 8.165352,30.269469 L 8.071475,30.190796 L 7.980888,30.108358 L 7.893741,30.022290 L 7.810181,29.932737 L 7.730345,29.839848 L 0.000000,29.839848 L 0.000000,49.000000 Z" fill="none" stroke="black" stroke-width="0.1"/>
</svg>