<?xml version="1.0" encoding="UTF-8" standalone="no"?>
<!-- Created with Inkscape (http://www.inkscape.org/) -->

<svg
   width="8000mm"
   height="4000mm"
   viewBox="0 0 8000 4000"
   version="1.1"
   id="svg1"
   xml:space="preserve"
   inkscape:version="1.3 (0e150ed, 2023-07-21)"
   sodipodi:docname="Panty_Sheet_1.svg"
   xmlns:inkscape="http://www.inkscape.org/namespaces/inkscape"
   xmlns:sodipodi="http://sodipodi.sourceforge.net/DTD/sodipodi-0.dtd"
   xmlns="http://www.w3.org/2000/svg"
   xmlns:svg="http://www.w3.org/2000/svg"><sodipodi:namedview
     id="namedview1"
     pagecolor="#ffffff"
     bordercolor="#666666"
     borderopacity="1.0"
     inkscape:showpageshadow="2"
     inkscape:pageopacity="0.0"
     inkscape:pagecheckerboard="0"
     inkscape:deskcolor="#d1d1d1"
     inkscape:document-units="mm"
     inkscape:zoom="0.018073929"
     inkscape:cx="12974.489"
     inkscape:cy="6335.0918"
     inkscape:window-width="1408"
     inkscape:window-height="826"
     inkscape:window-x="0"
     inkscape:window-y="25"
     inkscape:window-maximized="0"
     inkscape:current-layer="layer1" /><defs
     id="defs1" /><g
     inkscape:label="Layer 1"
     inkscape:groupmode="layer"
     id="layer1"><g
       id="g28"
       transform="matrix(-83.02141,0,0,-83.02141,6144.0142,3238.3637)"><path
         d="m 48,0 h -5.967324 l -0.01432,0.24623116 -0.01025,0.24623115 -0.0061,0.24623116 -0.002,0.24623115 0.0022,0.24623118 0.0063,0.2462311 0.01044,0.2462312 0.01451,0.2462311 0.01853,0.2462312 0.02247,0.2462312 0.02631,0.2462311 0.03005,0.2462312 0.03366,0.2462311 0.03713,0.2462312 0.04045,0.2462311 0.04359,0.2462312 0.04656,0.2462311 0.04934,0.2462312 0.0519,0.2462312 0.05426,0.2462311 0.05639,0.2462312 0.05828,0.2462311 0.05993,0.2462312 0.06133,0.2462311 0.06248,0.2462312 0.06337,0.2462312 0.064,0.2462311 0.06436,0.2462312 0.06445,0.2462311 0.06427,0.2462312 0.06383,0.2462311 0.06312,0.2462312 0.06215,0.2462311 0.06092,0.2462312 0.05944,0.2462312 0.05772,0.2462311 0.05575,0.2462312 0.05355,0.2462311 0.05113,0.2462312 0.04849,0.2462311 0.04566,0.2462308 0.04263,0.246232 0.03943,0.246231 0.03606,0.246231 0.03254,0.246231 0.02889,0.246231 0.02512,0.246231 0.02125,0.246231 0.01728,0.246232 0.01325,0.246231 0.0092,0.246231 0.005,0.246231 8.78e-4,0.246231 -0.0033,0.246231 -0.0074,0.246232 -0.01152,0.246231 -0.01559,0.246231 -0.01958,0.246231 -0.0235,0.246231 -0.02731,0.246231 -0.03102,0.246232 -0.03459,0.246231 -0.03802,0.246231 -0.0413,0.246231 -0.0444,0.246231 -0.04732,0.246231 -0.05004,0.246231 -0.05255,0.246232 -0.05485,0.246231 -0.05691,0.246231 -0.05874,0.246231 -0.06033,0.246231 -0.06166,0.246231 -0.06274,0.246232 -0.06356,0.246231 -0.06412,0.246231 -0.06441,0.246231 -0.06443,0.246231 -0.06418,0.246231 -0.06367,0.246231 -0.06289,0.246232 -0.06185,0.246231 -0.06056,0.246231 -0.05901,0.246231 -0.05722,0.246231 -0.05519,0.246231 -0.05293,0.246232 -0.05045,0.246231 -0.04776,0.246231 -0.04487,0.246231 -0.0418,0.246231 -0.03855,0.246231 -0.03514,0.246231 -0.03159,0.246232 -0.0279,0.246231 -0.0241,0.246231 -0.0202,0.246231 -0.01622,0.246231 -0.01217,0.246231 -0.0081,0.246232 -0.0039,0.246231 2.25e-4,0.246231 0.0044,0.246231 0.0085,0.246231 0.01261,0.246231 0.01665,0.246232 0.02063,0.246231 0.05163,0.547019 0.0026,0.20058 -0.01084,0.200303 -0.0242,0.199131 -0.03746,0.197068 -0.05054,0.194125 -0.0634,0.190314 -0.07598,0.18565 -0.02619,0.05349 H 48 Z"
         fill="#add8e6"
         stroke="#000000"
         stroke-width="0.1"
         id="path1" /><text
         x="41.828999"
         y="-2"
         font-size="2px"
         font-family="Arial"
         id="text1">Shelf R79&quot;</text><text
         x="41.828999"
         y="-0.5"
         font-size="1.5px"
         font-family="Arial"
         id="text2">6.17&quot; × 28.31&quot;</text></g><g
       id="g29"
       transform="matrix(0,83.02141,-83.02141,0,4083.1581,4.1510705)"><path
         d="M 0,27.258343 V 49 H 48 V 28.314415 l -6.144809,-0.05349 -0.08821,0.180159 -0.100058,0.17386 -0.111452,0.166785 -0.122349,0.158964 -0.132699,0.150433 -0.142455,0.141228 -0.151575,0.131392 -0.160017,0.120969 -0.167743,0.110005 -0.174719,0.09855 -0.180915,0.08665 -0.186301,0.07437 -0.190855,0.06175 -0.194555,0.04886 -0.197385,0.03575 -0.199333,0.02248 -0.200389,0.0091 -0.20055,-0.0043 -0.199814,-0.0177 -0.198185,-0.03101 -0.195669,-0.04419 -0.0082,-0.0021 -0.241206,-0.06283 -0.241206,-0.06231 -0.241206,-0.06154 -0.241206,-0.06053 -0.241206,-0.05928 -0.241206,-0.05779 -0.241206,-0.05607 -0.241206,-0.05413 -0.241206,-0.05197 -0.241207,-0.0496 -0.241206,-0.04704 -0.241206,-0.04429 -0.241206,-0.04136 -0.241206,-0.03827 -0.241206,-0.03502 -0.241206,-0.03164 -0.241206,-0.02813 -0.241206,-0.0245 -0.241206,-0.02078 -0.241206,-0.01698 -0.241206,-0.01311 -0.241206,-0.0092 -0.241206,-0.0052 -0.241206,-0.0012 -0.241206,0.0027 -0.241206,0.0067 -0.241206,0.01067 -0.241206,0.01457 -0.241206,0.01842 -0.241206,0.02219 -0.241206,0.02588 -0.241206,0.02946 -0.241206,0.03293 -0.241206,0.03626 -0.241206,0.03945 -0.241206,0.04248 -0.241206,0.04535 -0.241206,0.04803 -0.241206,0.05052 -0.241206,0.05281 -0.241206,0.05489 -0.241206,0.05675 -0.241207,0.05838 -0.241206,0.05978 -0.241206,0.06094 -0.241206,0.06186 -0.241206,0.06254 -0.241206,0.06296 -0.241206,0.06313 -0.241206,0.06305 -0.241206,0.06272 -0.241206,0.06214 -0.241206,0.06132 -0.241206,0.06024 -0.241206,0.05893 -0.241206,0.05738 -0.241206,0.05561 -0.241206,0.05361 -0.241206,0.0514 -0.241206,0.04898 -0.241206,0.04637 -0.241206,0.04357 -0.241206,0.0406 -0.241206,0.03747 -0.241206,0.03419 -0.241206,0.03077 -0.241206,0.02723 -0.241206,0.02358 -0.241206,0.01984 -0.241206,0.01602 -0.241206,0.01213 -0.241206,0.0082 -0.241206,0.0042 -0.241206,2.46e-4 -0.241206,-0.0037 -0.241206,-0.0077 -0.241207,-0.01165 -0.241206,-0.01554 -0.241206,-0.01937 -0.241206,-0.02313 -0.241206,-0.02679 -0.241206,-0.03034 -0.241206,-0.03378 -0.241206,-0.03707 -0.241206,-0.04022 -0.241206,-0.04322 -0.241206,-0.04603 -0.241206,-0.04867 -0.241206,-0.05111 -0.241206,-0.05335 -0.241206,-0.05537 -0.241206,-0.05718 -0.241206,-0.05875 -0.241206,-0.06009 -0.241206,-0.0612 -0.241206,-0.06205 -0.241206,-0.06267 -0.241206,-0.06303 -0.241206,-0.06314 -0.241206,-0.063 -0.241206,-0.0626 -0.241206,-0.06196 -0.241206,-0.06107 -0.241206,-0.05994 -0.241206,-0.05857 -0.241206,-0.05696 -0.241206,-0.05513 -0.241206,-0.05307 -0.241206,-0.05081 -0.241207,-0.04834 -0.241206,-0.04569 -0.241206,-0.04285 -0.241206,-0.03983 -0.241206,-0.03666 -0.241206,-0.03335 -0.241206,-0.0299 -0.241206,-0.02633 -0.2412058,-0.02265 -0.241206,-0.01889 -0.241206,-0.01505 -0.2412061,-0.01115 -0.070133,-0.0025 -0.1760443,-0.01105 -0.1750903,-0.02138 -0.1735311,-0.03163 -0.171372,-0.04178 -0.1686203,-0.05178 -0.1652858,-0.0616 L 7.9043727,28.7177 7.7474568,28.637132 7.5955471,28.547482 7.4491689,28.449058 7.3088283,28.342202 7.1750104,28.227282 7.0481778,28.104696 6.928769,27.974868 6.8171968,27.838247 6.7138469,27.695304 6.6190767,27.546534 6.5332137,27.392452 6.4565547,27.23359 Z"
         fill="#add8e6"
         stroke="#000000"
         stroke-width="0.1"
         id="path1-8" /><text
         x="0"
         y="25.233589"
         font-size="2px"
         font-family="Arial"
         id="text1-5">Shelf B79&quot;</text><text
         x="0"
         y="26.733589"
         font-size="1.5px"
         font-family="Arial"
         id="text2-6">48.00&quot; × 21.77&quot;</text></g><g
       id="g31"
       transform="matrix(-83.02141,0,0,-83.02141,9885.8553,3012.0186)"><path
         d="m 48,0 h -5.757159 l -0.04051,0.24623116 -0.03719,0.24623115 -0.03373,0.24623116 -0.03012,0.24623115 -0.02638,0.24623118 -0.02254,0.2462311 -0.01861,0.2462312 -0.01459,0.2462311 -0.01052,0.2462312 -0.0064,0.2462312 -0.0023,0.2462311 0.0019,0.2462312 0.006,0.2462311 0.01017,0.2462312 0.01425,0.2462311 0.01827,0.2462312 0.02221,0.2462311 0.02606,0.2462312 0.0298,0.2462312 0.03342,0.2462311 0.0369,0.2462312 0.04023,0.2462311 0.04339,0.2462312 0.04637,0.2462311 0.04916,0.2462312 0.05174,0.2462312 0.05411,0.2462311 0.05625,0.2462312 0.05816,0.2462311 0.05983,0.2462312 0.06125,0.2462311 0.06242,0.2462312 0.06332,0.2462311 0.06396,0.2462312 0.06434,0.2462312 0.06445,0.2462311 0.06429,0.2462312 0.06387,0.2462311 0.06318,0.2462312 0.06222,0.2462311 0.06101,0.2462308 0.05955,0.246232 0.05784,0.246231 0.05588,0.246231 0.0537,0.246231 0.05129,0.246231 0.04867,0.246231 0.04585,0.246231 0.04284,0.246232 0.03964,0.246231 0.03629,0.246231 0.03278,0.246231 0.02914,0.246231 0.02538,0.246231 0.0215,0.246232 0.01755,0.246231 0.01352,0.246231 0.0094,0.246231 0.0053,0.246231 0.0012,0.246231 -0.003,0.246232 -0.0071,0.246231 -0.01125,0.246231 -0.01532,0.246231 -0.01932,0.246231 -0.02324,0.246231 -0.02707,0.246231 -0.03078,0.246232 -0.03436,0.246231 -0.0378,0.246231 -0.04109,0.246231 -0.0442,0.246231 -0.04713,0.246231 -0.04986,0.246232 -0.05239,0.246231 -0.0547,0.246231 -0.05678,0.246231 -0.05863,0.246231 -0.06023,0.246231 -0.06158,0.246231 -0.06268,0.246232 -0.06352,0.246231 -0.06409,0.246231 -0.0644,0.246231 -0.06444,0.246231 -0.06421,0.246231 -0.06371,0.246232 -0.06295,0.246231 -0.06193,0.246231 -0.06065,0.246231 -0.05912,0.246231 -0.05734,0.246231 -0.05533,0.246231 -0.05308,0.246232 -0.05062,0.246231 -0.04794,0.246231 -0.04507,0.246231 -0.042,0.246231 -0.03877,0.246231 -0.03537,0.246232 -0.03183,0.246231 -0.02815,0.246231 -0.02436,0.246231 -0.02046,0.246231 -0.01648,0.246231 -0.01243,0.246232 -0.0083,0.246231 -0.01134,0.467375 -0.0183,0.184456 -0.02965,0.182974 -0.0409,0.180793 -0.05198,0.177923 -0.06287,0.174372 -0.07352,0.170157 -0.08389,0.165291 -0.01815,0.03088 H 48 Z"
         fill="#add8e6"
         stroke="#000000"
         stroke-width="0.1"
         id="path1-1" /><text
         x="41.614128"
         y="-2"
         font-size="2px"
         font-family="Arial"
         id="text1-6">Shelf R59&quot;</text><text
         x="41.614128"
         y="-0.5"
         font-size="1.5px"
         font-family="Arial"
         id="text2-1">6.39&quot; × 28.08&quot;</text></g><g
       id="g32"
       transform="matrix(0,83.02141,-83.02141,0,8281.8278,8.2836455)"><path
         d="M 0,27.553783 V 49 H 48 V 28.080957 l -6.367716,-0.03088 -0.09394,0.159795 -0.103628,0.153688 -0.112922,0.146995 -0.121784,0.139741 -0.130182,0.131953 -0.138082,0.123661 -0.145456,0.114898 -0.152274,0.105695 -0.158511,0.09609 -0.164143,0.08612 -0.169147,0.07582 -0.173507,0.06522 -0.177204,0.05438 -0.180224,0.04334 -0.182557,0.03212 -0.184192,0.02079 -0.185124,0.0094 -0.18535,-0.0021 -0.184868,-0.01352 -0.18368,-0.02491 -0.181791,-0.03621 0.02804,0.0065 -0.241206,-0.0551 -0.241206,-0.05304 -0.241206,-0.05078 -0.241206,-0.04831 -0.241206,-0.04565 -0.241206,-0.0428 -0.241206,-0.03979 -0.241206,-0.03662 -0.241206,-0.0333 -0.241207,-0.02985 -0.241206,-0.02628 -0.241206,-0.0226 -0.241206,-0.01884 -0.241206,-0.01499 -0.241206,-0.0111 -0.241206,-0.0072 -0.241206,-0.0032 -0.241206,8.08e-4 -0.241206,0.0048 -0.241206,0.0088 -0.241206,0.01268 -0.241206,0.01656 -0.241206,0.02037 -0.241206,0.0241 -0.241206,0.02774 -0.241206,0.03126 -0.241206,0.03466 -0.241206,0.03792 -0.241206,0.04103 -0.241206,0.04398 -0.241206,0.04675 -0.241206,0.04933 -0.241206,0.05172 -0.241206,0.0539 -0.241206,0.05587 -0.241206,0.05761 -0.241206,0.05913 -0.241206,0.06041 -0.241206,0.06145 -0.241206,0.06224 -0.241206,0.06279 -0.241206,0.06308 -0.241207,0.06312 -0.241206,0.06292 -0.241206,0.06246 -0.241206,0.06175 -0.241206,0.06079 -0.241206,0.0596 -0.241206,0.05816 -0.241206,0.0565 -0.241206,0.05461 -0.241206,0.0525 -0.241206,0.05018 -0.241206,0.04766 -0.241206,0.04495 -0.241206,0.04207 -0.241206,0.03901 -0.241206,0.0358 -0.241206,0.03245 -0.241206,0.02896 -0.241206,0.02537 -0.241206,0.02167 -0.241206,0.01788 -0.241206,0.01403 -0.241206,0.01011 -0.241206,0.0062 -0.241206,0.0022 -0.241206,-0.0018 -0.241206,-0.0058 -0.241206,-0.0097 -0.241206,-0.01366 -0.241206,-0.01752 -0.241206,-0.02131 -0.241206,-0.02502 -0.241206,-0.02863 -0.241206,-0.03212 -0.241207,-0.03549 -0.241206,-0.03871 -0.241206,-0.04178 -0.241206,-0.04469 -0.241206,-0.04741 -0.241206,-0.04995 -0.241206,-0.05229 -0.241206,-0.05442 -0.241206,-0.05633 -0.241206,-0.05802 -0.241206,-0.05947 -0.241206,-0.06069 -0.241206,-0.06167 -0.241206,-0.0624 -0.241206,-0.06288 -0.241206,-0.06311 -0.241206,-0.0631 -0.241206,-0.06282 -0.241206,-0.0623 -0.241206,-0.06153 -0.241206,-0.06052 -0.241206,-0.05926 -0.241206,-0.05777 -0.241206,-0.05605 -0.241206,-0.0541 -0.241206,-0.05194 -0.241206,-0.04957 -0.241206,-0.047 -0.241206,-0.04425 -0.241206,-0.04132 -0.241206,-0.03822 -0.241206,-0.03498 -0.241206,-0.03159 -0.241207,-0.02808 -0.241206,-0.02445 -0.241206,-0.02073 -0.241206,-0.01692 -0.241206,-0.01305 -0.241206,-0.0091 -0.241206,-0.0052 -0.241206,-0.0012 -0.2412058,0.0028 -0.241206,0.0068 -0.241206,0.01072 -0.2412061,0.01463 0.033823,-0.0023 -0.1679876,0.0064 -0.1680844,-0.003 -0.1676535,-0.01239 -0.1666961,-0.02176 -0.1652152,-0.03107 -0.1632156,-0.04027 -0.1607035,-0.04935 -0.1576867,-0.05828 -0.1541748,-0.06702 -0.1501786,-0.07555 -0.145711,-0.08384 L 7.2915594,28.504773 7.1561409,28.405158 7.026515,28.298114 6.9030885,28.183978 6.7862493,28.063107 6.6763641,27.93588 6.5737779,27.802699 6.478813,27.66398 6.3917676,27.520159 Z"
         fill="#add8e6"
         stroke="#000000"
         stroke-width="0.1"
         id="path1-2" /><text
         x="0"
         y="25.520159"
         font-size="2px"
         font-family="Arial"
         id="text1-0">Shelf B59&quot;</text><text
         x="0"
         y="27.020159"
         font-size="1.5px"
         font-family="Arial"
         id="text2-44">48.00&quot; × 21.48&quot;</text></g><g
       id="g34"
       transform="matrix(83.02141,0,0,83.02141,-1837.4019,912.21632)"><path
         d="m 48,0 h -5.691701 l -0.04509,0.24623116 -0.04202,0.24623115 -0.03879,0.24623116 -0.03539,0.24623115 -0.03185,0.24623118 -0.02817,0.2462311 -0.02438,0.2462312 -0.02049,0.2462311 -0.01651,0.2462312 -0.01246,0.2462312 -0.0084,0.2462311 -0.0042,0.2462312 -7.5e-5,0.2462311 0.0041,0.2462312 0.0082,0.2462311 0.01231,0.2462312 0.01636,0.2462311 0.02034,0.2462312 0.02424,0.2462312 0.02804,0.2462311 0.03172,0.2462312 0.03527,0.2462311 0.03867,0.2462312 0.04191,0.2462311 0.04498,0.2462312 0.04786,0.2462312 0.05054,0.2462311 0.05301,0.2462312 0.05526,0.2462311 0.05729,0.2462312 0.05907,0.2462311 0.06061,0.2462312 0.06189,0.2462311 0.06292,0.2462312 0.06369,0.2462312 0.0642,0.2462311 0.06443,0.2462312 0.0644,0.2462311 0.0641,0.2462312 0.06354,0.2462311 0.06271,0.2462308 0.06162,0.246232 0.06028,0.246231 0.05868,0.246231 0.05684,0.246231 0.05477,0.246231 0.05246,0.246231 0.04994,0.246231 0.04722,0.246232 0.04429,0.246231 0.04118,0.246231 0.0379,0.246231 0.03447,0.246231 0.03089,0.246231 0.02718,0.246232 0.02336,0.246231 0.01944,0.246231 0.01544,0.246231 0.01138,0.246231 0.0073,0.246231 0.0031,0.246232 -10e-4,0.246231 -0.0052,0.246231 -0.0093,0.246231 -0.01339,0.246231 -0.01743,0.246231 -0.02139,0.246231 -0.02526,0.246232 -0.02903,0.246231 -0.03267,0.246231 -0.03619,0.246231 -0.03954,0.246231 -0.04274,0.246231 -0.04576,0.246232 -0.04859,0.246231 -0.05122,0.246231 -0.05363,0.246231 -0.05582,0.246231 -0.05778,0.246231 -0.0595,0.246231 -0.06097,0.246232 -0.06219,0.246231 -0.06315,0.246231 -0.06385,0.246231 -0.06428,0.246231 -0.06445,0.246231 -0.06435,0.246232 -0.06398,0.246231 -0.06334,0.246231 -0.06245,0.246231 -0.06129,0.246231 -0.05988,0.246231 -0.05822,0.246231 -0.05631,0.246232 -0.05418,0.246231 -0.05182,0.246231 -0.04924,0.246231 -0.04646,0.246231 -0.04348,0.246231 -0.04033,0.246232 -0.03701,0.246231 -0.03353,0.246231 -0.02992,0.246231 -0.02618,0.246231 -0.02233,0.246231 -0.01839,0.246232 -0.01437,0.246231 -0.01029,0.246231 -0.0062,0.246231 -0.002,0.246231 0.0021,0.246231 0.0066,0.428914 -0.01121,0.186724 -0.02283,0.185663 -0.03436,0.183878 -0.04575,0.18138 -0.05697,0.178176 -0.06796,0.17428 -0.07869,0.169705 -0.03917,0.0723 H 48 Z"
         fill="#add8e6"
         stroke="#000000"
         stroke-width="0.1"
         id="path1-3" /><text
         x="41.651764"
         y="-2"
         font-size="2px"
         font-family="Arial"
         id="text1-90">Shelf R39&quot;</text><text
         x="41.651764"
         y="-0.5"
         font-size="1.5px"
         font-family="Arial"
         id="text2-55">6.35&quot; × 29.09&quot;</text></g><g
       id="g35"
       transform="matrix(0,-83.02141,83.02141,0,3914.8923,3988.2042)"><path
         d="M 0,28.252286 V 49 H 48 V 29.092679 l -6.309062,-0.0723 -0.08911,0.164471 -0.09919,0.158598 -0.10888,0.152108 -0.118149,0.145026 -0.126957,0.137381 -0.135273,0.129201 -0.143062,0.120519 -0.150295,0.11137 -0.156944,0.101785 -0.162982,0.09181 -0.168388,0.08147 -0.173137,0.07082 -0.177214,0.05989 -0.180603,0.04873 -0.183288,0.03738 -0.185262,0.02588 -0.186514,0.01429 -0.187042,0.0026 -0.186843,-0.009 -0.185917,-0.02065 -0.184268,-0.0322 -0.04986,-0.01038 -0.241206,-0.05161 -0.241206,-0.05381 -0.241206,-0.05578 -0.241206,-0.05754 -0.241206,-0.05906 -0.241206,-0.06035 -0.241206,-0.0614 -0.241206,-0.06221 -0.241206,-0.06276 -0.241207,-0.06307 -0.241206,-0.06313 -0.241206,-0.06293 -0.241206,-0.06248 -0.241206,-0.06179 -0.241206,-0.06084 -0.241206,-0.05966 -0.241206,-0.05824 -0.241206,-0.05658 -0.241206,-0.0547 -0.241206,-0.0526 -0.241206,-0.05029 -0.241206,-0.04778 -0.241206,-0.04509 -0.241206,-0.04221 -0.241206,-0.03916 -0.241206,-0.03595 -0.241206,-0.03261 -0.241206,-0.02913 -0.241206,-0.02554 -0.241206,-0.02184 -0.241206,-0.01806 -0.241206,-0.01421 -0.241206,-0.0103 -0.241206,-0.0063 -0.241206,-0.0024 -0.241206,0.0016 -0.241206,0.0056 -0.241206,0.0096 -0.241206,0.01347 -0.241206,0.01734 -0.241206,0.02114 -0.241206,0.02485 -0.241207,0.02846 -0.241206,0.03196 -0.241206,0.03533 -0.241206,0.03856 -0.241206,0.04164 -0.241206,0.04455 -0.241206,0.04729 -0.241206,0.04984 -0.241206,0.05218 -0.241206,0.05432 -0.241206,0.05624 -0.241206,0.05794 -0.241206,0.05941 -0.241206,0.06064 -0.241206,0.06163 -0.241206,0.06237 -0.241206,0.06287 -0.241206,0.06311 -0.241206,0.0631 -0.241206,0.06284 -0.241206,0.06233 -0.241206,0.06158 -0.241206,0.06057 -0.241206,0.05933 -0.241206,0.05785 -0.241206,0.05613 -0.241206,0.0542 -0.241206,0.05204 -0.241206,0.04969 -0.241206,0.04713 -0.241206,0.04438 -0.241206,0.04146 -0.241206,0.03837 -0.241206,0.03513 -0.241207,0.03175 -0.241206,0.02824 -0.241206,0.02462 -0.241206,0.02091 -0.241206,0.01711 -0.241206,0.01324 -0.241206,0.0093 -0.241206,0.0054 -0.241206,0.0014 -0.241206,-0.0026 -0.241206,-0.0066 -0.241206,-0.01054 -0.241206,-0.01444 -0.241206,-0.0183 -0.241206,-0.02207 -0.241206,-0.02576 -0.241206,-0.02935 -0.241206,-0.03282 -0.241206,-0.03616 -0.241206,-0.03935 -0.241206,-0.04239 -0.241206,-0.04526 -0.241206,-0.04794 -0.241206,-0.05044 -0.241206,-0.05274 -0.241206,-0.05482 -0.241206,-0.05669 -0.241206,-0.05833 -0.241206,-0.05974 -0.241206,-0.06091 -0.241206,-0.06184 -0.241206,-0.06252 -0.241206,-0.06295 -0.241207,-0.06313 -0.241206,-0.06306 -0.241206,-0.06274 -0.241206,-0.06217 -0.241206,-0.06135 -0.241206,-0.06028 -0.241206,-0.05898 -0.241206,-0.05744 -0.2412058,-0.05567 -0.241206,-0.05368 -0.241206,-0.05147 -0.2412061,-0.04906 0.00626,0.0012 -0.1133416,-0.02478 -0.1122989,-0.02914 -0.1110881,-0.03346 -0.1097113,-0.03773 -0.1081704,-0.04195 -0.1064677,-0.0461 -0.1046058,-0.05018 -0.1025874,-0.05419 -0.1004156,-0.05811 -0.098094,-0.06195 -0.095625,-0.0657 -0.093013,-0.06934 -0.090263,-0.07289 -0.087377,-0.07633 -0.08436,-0.07965 -0.081218,-0.08285 -0.077953,-0.08593 -0.074573,-0.08888 -0.07108,-0.09169 z"
         fill="#add8e6"
         stroke="#000000"
         stroke-width="0.1"
         id="path1-6" /><text
         x="0"
         y="26.196819"
         font-size="2px"
         font-family="Arial"
         id="text1-3">Shelf B39&quot;</text><text
         x="0"
         y="27.696819"
         font-size="1.5px"
         font-family="Arial"
         id="text2-2">48.00&quot; × 20.80&quot;</text></g><g
       id="g38"
       transform="matrix(0,-83.02141,83.02141,0,129.28717,3990.1836)"><path
         d="M 0,29.124071 V 49 H 48 V 28.25331 l -4.918039,-0.06989 -0.05853,0.151305 -0.06662,0.147921 -0.07452,0.144103 -0.0822,0.139864 -0.08964,0.135216 -0.09682,0.130173 -0.103711,0.124749 -0.110304,0.11896 -0.116573,0.112824 -0.122501,0.106357 -0.128071,0.09958 -0.133267,0.09251 -0.138073,0.08517 -0.142476,0.07758 -0.146461,0.06977 -0.150018,0.06175 -0.153137,0.05355 -0.155807,0.04519 -0.0082,0.0021 -0.241206,0.06273 -0.241206,0.06215 -0.241206,0.06133 -0.241206,0.06026 -0.241206,0.05895 -0.241206,0.0574 -0.241206,0.05563 -0.241206,0.05363 -0.241206,0.05142 -0.241206,0.04901 -0.241206,0.0464 -0.241206,0.0436 -0.241206,0.04064 -0.241206,0.0375 -0.241206,0.03423 -0.241206,0.03081 -0.241206,0.02727 -0.241206,0.02362 -0.241206,0.01988 -0.241206,0.01606 -0.241207,0.01217 -0.241206,0.0082 -0.241206,0.0043 -0.241206,2.9e-4 -0.241206,-0.0037 -0.241206,-0.0077 -0.241206,-0.0116 -0.241206,-0.0155 -0.241206,-0.01933 -0.241206,-0.02308 -0.241206,-0.02675 -0.241206,-0.0303 -0.241206,-0.03374 -0.241206,-0.03704 -0.241206,-0.04019 -0.241206,-0.04318 -0.241206,-0.046 -0.241206,-0.04864 -0.241206,-0.05109 -0.241206,-0.05332 -0.241206,-0.05535 -0.241206,-0.05716 -0.241206,-0.05874 -0.241206,-0.06008 -0.241206,-0.06119 -0.241206,-0.06205 -0.241206,-0.06266 -0.241206,-0.06302 -0.241206,-0.06314 -0.241206,-0.063 -0.241206,-0.06261 -0.241206,-0.06197 -0.241206,-0.06108 -0.241207,-0.05995 -0.241206,-0.05858 -0.241206,-0.05698 -0.241206,-0.05515 -0.241206,-0.0531 -0.241206,-0.05084 -0.241206,-0.04837 -0.241206,-0.04572 -0.241206,-0.04288 -0.241206,-0.03987 -0.241206,-0.0367 -0.241206,-0.03338 -0.241206,-0.02994 -0.241206,-0.02637 -0.241206,-0.0227 -0.241206,-0.01893 -0.241206,-0.01509 -0.241206,-0.01119 -0.241206,-0.0073 -0.241206,-0.0033 -0.241206,7.06e-4 -0.241206,0.0047 -0.241206,0.0087 -0.241206,0.01258 -0.241206,0.01646 -0.241206,0.02027 -0.241206,0.02401 -0.241206,0.02765 -0.241206,0.03117 -0.241206,0.03458 -0.241206,0.03784 -0.241206,0.04095 -0.241206,0.0439 -0.241206,0.04668 -0.241207,0.04927 -0.241206,0.05166 -0.241206,0.05385 -0.241206,0.05582 -0.241206,0.05757 -0.241206,0.05909 -0.241206,0.06038 -0.241206,0.06142 -0.241206,0.06222 -0.241206,0.06278 -0.241206,0.06308 -0.241206,0.06312 -0.241206,0.06292 -0.241206,0.06247 -0.241206,0.06177 -0.241206,0.06082 -0.241206,0.05963 -0.241206,0.0582 -0.241206,0.05654 -0.241206,0.05466 -0.241206,0.05255 -0.241206,0.05024 -0.241206,0.04773 -0.241206,0.04502 -0.241206,0.04214 -0.241206,0.03909 -0.241206,0.03588 -0.241206,0.03253 -0.241206,0.02905 -0.241206,0.02546 -0.241206,0.02176 -0.241206,0.01798 -0.241206,0.01412 -0.241207,0.01021 -0.241206,0.0063 -0.241206,0.0023 -0.241206,-0.0017 -0.241206,-0.0057 -0.241206,-0.0096 -0.241206,-0.01356 -0.241206,-0.01742 -0.2412058,-0.02122 -0.241206,-0.02493 -0.241206,-0.02854 -0.2412061,-0.03204 -0.241206,-0.0354 -0.241206,-0.03863 -0.241206,-0.04171 0.1015101,0.01792 L 8.3920247,30.717003 8.2420989,30.67879 8.0943427,30.632898 7.949149,30.579449 7.8069039,30.518586 7.6679859,30.45047 7.5327644,30.375283 7.4015991,30.293224 7.2748388,30.204512 7.1528207,30.109383 7.0358694,30.00809 6.9242958,29.900901 l -0.105899,-0.112798 -0.099943,-0.118107 -0.093721,-0.123104 -0.087249,-0.127771 -0.080546,-0.1321 -0.073628,-0.136076 z"
         fill="#add8e6"
         stroke="#000000"
         stroke-width="0.1"
         id="path1-31" /><text
         x="0"
         y="26.183416"
         font-size="2px"
         font-family="Arial"
         id="text1-14">Shelf B19&quot;</text><text
         x="0"
         y="27.683416"
         font-size="1.5px"
         font-family="Arial"
         id="text2-95">48.00&quot; × 20.82&quot;</text></g></g></svg>
